# Fixed world centers; Z up; paths immutable
v -0.0467075966 0.672736526 1.04590511
v -0.049415946 0.679197073 1.04248631
v -0.0521430746 0.685648143 1.03906798
v -0.054615669 0.688538671 1.03563821
v -0.0592480376 0.694427907 1.02879465
v -0.0987231731 0.683713853 1.02418375
v -0.0640180707 0.700402558 1.01858878
v -0.118252777 0.684298098 1.01032567
v -0.125678927 0.681695759 1.00679934
v -0.13759461 0.681159735 0.999873698
v -0.142634317 0.679576695 0.993133903
v -0.150176302 0.68064183 0.986364365
v -0.165635988 0.678600609 0.982742667
v -0.175380036 0.682224691 0.979275882
v -0.192758307 0.679398775 0.975660801
v -0.211856946 0.679564953 0.968796253
v -0.21008876 0.680378377 0.965568185
v -0.235718548 0.678002417 0.958672762
v -0.236454457 0.677869022 0.955420375
v -0.244346589 0.678667307 0.948842525
v -0.270981848 0.672294796 0.942083716
v -0.279033363 0.672987878 0.935579598
v -0.284076095 0.671203375 0.932325006
v -0.291480452 0.672127664 0.92585963
v -0.302811325 0.671528399 0.919395804
v -0.305613428 0.670596898 0.916185617
v -0.315738618 0.670441091 0.909769475
v -0.318733871 0.66958034 0.903382361
v -0.322311968 0.67194134 0.897000849
v -0.351151496 0.664486825 0.890716076
v -0.357487321 0.665591419 0.887572229
v -0.374179602 0.662791014 0.881340861
v -0.383799642 0.662579179 0.878252208
v -0.397852749 0.660759926 0.872078478
v -0.39856106 0.660631537 0.868948042
v -0.413717955 0.6583516 0.862841904
v -0.423855573 0.658024907 0.8567155
v -0.429380834 0.656144083 0.850556493
v -0.431658834 0.65875572 0.847465456
v -0.443593889 0.654331863 0.841443062
v -0.446620256 0.656784594 0.835270166
v -0.451232284 0.655255556 0.829147995
v -0.461066663 0.65165168 0.823160529
v -0.465582937 0.650159061 0.817068756
v -0.470448494 0.648527145 0.810997963
v -0.475761086 0.646716952 0.804952741
v -0.476199448 0.650174618 0.798754036
v -0.478411913 0.649444103 0.795724928
v -0.483570397 0.647690237 0.789699674
v -0.488147616 0.642844796 0.783687532
v -0.489536494 0.642593086 0.777549326
v -0.490925372 0.642341375 0.771411061
v -0.494931966 0.641047716 0.765380025
v -0.496931136 0.640552759 0.759272754
v -0.498318672 0.640301287 0.75314039
v -0.49970147 0.636732996 0.747033894
v -0.501088798 0.636481524 0.740902543
v -0.502008796 0.636415839 0.734747767
v -0.503307819 0.636199594 0.728610992
v -0.503996074 0.632757664 0.725574195
v -0.50467813 0.632786036 0.71940428
v -0.505899847 0.632600367 0.71326226
v -0.506854653 0.629202068 0.707136869
v -0.507956803 0.629063606 0.700986922
v -0.509344518 0.628812075 0.694853723
v -0.510171115 0.62546438 0.688720524
v -0.510828137 0.625353158 0.685651541
v -0.510664344 0.625715017 0.67941469
v -0.511491299 0.622365713 0.67327857
v -0.51282239 0.622136712 0.667138398
v -0.512517929 0.62255311 0.660879731
v -0.513345301 0.619202077 0.654740453
v -0.510945916 0.620442212 0.648313046
v -0.511939526 0.617022455 0.642179668
v -0.512469649 0.6169613 0.639093637
v -0.512461066 0.617259204 0.632834494
v -0.513748288 0.613723159 0.626723528
v -0.513079822 0.614278793 0.62040168
v -0.513797462 0.610964596 0.614240289
v -0.514493465 0.610838413 0.611164331
v -0.515885472 0.610586166 0.605012357
v -0.516714573 0.60722816 0.598860383
v -0.518016875 0.607010901 0.592700064
v -0.518846035 0.603652894 0.586547971
v -0.51793766 0.604152024 0.583318472
v -0.510400236 0.607380927 0.576292813
v -0.511259675 0.604001522 0.57012403
v -0.512099862 0.603964865 0.563896239
v -0.513487816 0.600379884 0.5577811
v -0.514163017 0.600406766 0.551533937
v -0.515160203 0.596973419 0.545378804
v -0.515693307 0.596910834 0.542274773
v -0.516362846 0.596939445 0.536022246
v -0.517921925 0.593288362 0.529929221
v -0.518577218 0.59332186 0.523672283
v -0.519424021 0.589946091 0.517499864
v -0.520107806 0.589825213 0.514411092
v -0.512057364 0.593216896 0.50712055
v -0.512891769 0.589837313 0.500928938
v -0.510371149 0.591093183 0.494259149
v -0.511724889 0.587510586 0.48812449
v -0.512517095 0.587490797 0.481849909
v -0.512906671 0.584136367 0.478782743
v -0.514053881 0.583980024 0.472551376
v -0.515238643 0.583809376 0.466323942
v -0.516291976 0.580342174 0.460153341
v -0.51083982 0.582710147 0.453034133
v -0.517828703 0.57683146 0.450854838
v -0.512485206 0.579151988 0.44373104
v -0.508995831 0.580765843 0.436839163
v -0.510255456 0.577210009 0.430677921
v -0.510384679 0.577441812 0.424275607
v -0.511797369 0.573687494 0.421348214
v -0.511927187 0.573917925 0.414942354
v -0.514042974 0.570037425 0.408908635
v -0.514173627 0.570266485 0.402498037
v -0.515868068 0.56654644 0.396405399
v -0.514345765 0.567399919 0.389735758
v -0.514942884 0.567451775 0.383383751
v -0.51553911 0.564006031 0.380342066
v -0.516486704 0.563924849 0.374042451
v -0.517325997 0.560525656 0.367814928
v -0.518735051 0.56027025 0.361587405
v -0.510196447 0.56376338 0.353730291
v -0.520278931 0.556743383 0.352246106
v -0.51013732 0.560830295 0.344093263
v -0.513520181 0.556466579 0.338272542
v -0.512393475 0.55716306 0.331595182
v -0.512966216 0.557222426 0.325201064
v -0.51464963 0.553495884 0.319097102
v -0.515222907 0.553554296 0.312699825
v -0.516905785 0.549828649 0.306599021
v -0.516772449 0.550014317 0.303323925
v -0.517989457 0.549831688 0.297037572
v -0.51902914 0.546346188 0.290822685
v -0.513342679 0.548736274 0.283258498
v -0.514228821 0.548677385 0.276895344
v -0.514895499 0.545188785 0.27386269
v -0.515781939 0.545129299 0.267498016
v -0.513952792 0.546080053 0.260610521
v -0.513935089 0.542977333 0.254172415
v -0.514710546 0.542958975 0.247773901
v -0.51613009 0.542701721 0.241500139
v -0.516810179 0.542718947 0.235078797
v -0.518395185 0.539020002 0.228952602
v -0.51981473 0.538762689 0.222678825
v -0.520243227 0.5388726 0.216201499
v -0.522079766 0.535080969 0.210131302
v -0.521905541 0.535279095 0.206810251
v -0.523218989 0.535061121 0.200512424
v -0.52396518 0.535052896 0.194093794
v -0.525484681 0.531378269 0.187961176
v -0.525982141 0.531461298 0.18148613
v -0.52682817 0.528034866 0.175208777
v -0.527538359 0.527906179 0.172070086
v -0.528109491 0.527961373 0.165605009
v -0.528854668 0.527952552 0.159175381
v -0.529701054 0.524524629 0.152895153
v -0.531122088 0.524267077 0.146614909
v -0.529221594 0.521845579 0.139705926
v -0.529835463 0.521752298 0.136540875
v -0.530485809 0.521777451 0.130076319
v -0.53210479 0.518063664 0.123969704
v -0.530389547 0.518953145 0.116944291
v -0.53018856 0.515901566 0.110403419
v -0.530041218 0.516216695 0.103733227
v -0.530177474 0.512908995 0.100584999
v -0.528770804 0.513681173 0.093601428
v -0.528516173 0.510642111 0.0870295763
v -0.52650857 0.508235574 0.0800211579
v -0.521621943 0.510133982 0.075479947
v -0.522368133 0.50672245 0.0691337436
v -0.514312029 0.50648129 0.0605734363
v -0.514978528 0.503089726 0.0541890003
v -0.513398886 0.503784895 0.0504360013
v -0.520791709 0.50478822 0.0454737358
v -0.522230923 0.507802784 0.0423449911
v -0.523663402 0.507543147 0.0360138342
v -0.522895634 0.508079171 0.0291071739
v -0.523020625 0.501476526 0.0227325447
v -0.523157716 0.498148233 0.0195647404
v -0.51912117 0.493029207 0.0120810121
v -0.511638403 0.492407143 0.00687227352
v -0.503118992 0.499116749 -0.00232494529
v -0.503840625 0.498985976 -0.00551405549
v -0.505283773 0.498724401 -0.0118922759
v -0.50672698 0.498462826 -0.0182704963
v -0.501508057 0.504015684 -0.026651863
v -0.50787127 0.501992524 -0.03167459
v -0.511591911 0.500915289 -0.0374186672
v -0.506431818 0.506456137 -0.0458278283
v -0.512787819 0.5044294 -0.050822515
v -0.51423198 0.504167676 -0.0572051555
v -0.516657174 0.503553212 -0.0633046255
v -0.508380473 0.510099232 -0.0692712441
v -0.509828329 0.509836793 -0.0756702796
v -0.518213809 0.507071376 -0.0800311416
v -0.519728601 0.50678432 -0.086396262
v -0.505233824 0.515727162 -0.0977046117
v -0.506961882 0.515364051 -0.104039028
v -0.512667 0.513560712 -0.109171286
v -0.518317699 0.511776447 -0.114302702
v -0.519765973 0.511513948 -0.120703243
v -0.500012815 0.522399724 -0.13381809
v -0.500741661 0.52226764 -0.137039214
v -0.502199292 0.522003412 -0.143481448
v -0.503656983 0.521739244 -0.149923697
v -0.505114615 0.521475077 -0.156365931
v -0.506572306 0.521210849 -0.162808165
v -0.508029997 0.520946681 -0.169250414
v -0.509487629 0.520682454 -0.175692648
v -0.51094532 0.520418286 -0.182134882
v -0.512402952 0.520154119 -0.188577116
v -0.513860643 0.519889891 -0.195019364
v -0.515318334 0.519625723 -0.201461598
v -0.51341176 0.520587087 -0.209020242
v -0.50643599 0.523396134 -0.218285486
v -0.500872314 0.525691867 -0.22711122
v -0.502338171 0.525426209 -0.233589694
v -0.503804028 0.525160491 -0.240068167
v -0.504593074 0.525141656 -0.246778265
v -0.506059229 0.524875939 -0.253258049
v -0.507525384 0.524610221 -0.259737819
v -0.505208552 0.525725067 -0.267535776
v -0.499899805 0.527932584 -0.276398271
v -0.49989298 0.528205514 -0.28341946
v -0.482419491 0.534857094 -0.296642333
v -0.462387443 0.549533427 -0.311287075
v -0.471721053 0.546243072 -0.311504364
v -0.483310193 0.542261183 -0.314433575
v -0.49283883 0.539034963 -0.318066657
v -0.532901645 0.528059661 -0.310759187
v -0.499099046 0.544314146 -0.330357343
v -0.5110358 0.540177584 -0.333029866
v -0.514668643 0.539111435 -0.338736445
v -0.502515912 0.543886304 -0.350318581
v -0.520593882 0.533836722 -0.346879214
v -0.517617762 0.535211384 -0.35504511
v -0.511365235 0.537796438 -0.364468217
v -0.51059407 0.538358569 -0.371840447
v -0.50622344 0.547292113 -0.381055117
v -0.506962955 0.547158062 -0.384323388
v -0.51548332 0.544273496 -0.388145387
v -0.513475299 0.5488199 -0.396250397
v -0.50199759 0.556915939 -0.408065438
v -0.504761994 0.559701979 -0.414355755
v -0.507003367 0.559005141 -0.417044133
v -0.51902926 0.558303952 -0.419665962
v -0.522520185 0.557278693 -0.425399542
v -0.537499845 0.551929355 -0.426533669
v -0.536304712 0.552666426 -0.434108198
v -0.540008008 0.547909915 -0.435927719
v -0.52547884 0.557174623 -0.449149191
v -0.539505959 0.552180111 -0.450574934
v -0.54284215 0.551211178 -0.456321836
v -0.546989799 0.549936175 -0.461726993
v -0.551030219 0.548701048 -0.467164993
v -0.557596803 0.54651314 -0.471542031
v -0.562475562 0.544960797 -0.476602346
v -0.541854799 0.54599297 -0.491855025
v -0.550771296 0.539285541 -0.491422415
v -0.547443748 0.540814281 -0.499954581
v -0.552831769 0.535576701 -0.504549682
v -0.54905808 0.537126243 -0.50972259
v -0.541633546 0.536662102 -0.519789219
v -0.52439326 0.54675895 -0.53102833
v -0.525047123 0.546800196 -0.537951887
v -0.529467821 0.545434713 -0.543245673
v -0.525704205 0.550668716 -0.552355468
v -0.532899976 0.541188359 -0.555901349
v -0.530229807 0.542325437 -0.560678422
v -0.52697593 0.543822765 -0.569334328
v -0.527525663 0.540359139 -0.57605803
v -0.527285933 0.537187576 -0.583134651
v -0.522286236 0.535633564 -0.588718295
v -0.523103595 0.532063782 -0.59533751
v -0.522786796 0.532460332 -0.602739632
v -0.51946795 0.526718676 -0.607325792
v -0.522862911 0.525611818 -0.609425604
v -0.519258559 0.527211189 -0.618334651
v -0.520148277 0.523607731 -0.624936461
v -0.515577972 0.521859467 -0.630395234
v -0.512681425 0.5196293 -0.638748407
v -0.513204336 0.516014576 -0.641882658
v -0.512121916 0.516679645 -0.649695277
v -0.506372929 0.515468955 -0.659408033
v -0.507267237 0.511846781 -0.666044056
v -0.508768797 0.511574626 -0.67268014
v -0.508912385 0.508088529 -0.675998151
v -0.506185472 0.509339333 -0.684633017
v -0.507080972 0.505712569 -0.691277385
v -0.506755054 0.506097317 -0.698794425
v -0.502908945 0.507747233 -0.708006322
v -0.503516197 0.504083335 -0.711113214
v -0.504005313 0.504174888 -0.718261719
v -0.499633193 0.506009281 -0.727770388
v -0.502986431 0.501490474 -0.73324728
v -0.502041817 0.502094209 -0.741113126
v -0.500772297 0.502814531 -0.749149382
v -0.497509509 0.504248381 -0.758181155
v -0.504359841 0.498476386 -0.761920035
v -0.505870104 0.498202652 -0.768594623
v -0.506204426 0.498348624 -0.775856912
v -0.505561769 0.498843521 -0.783615053
v -0.507073462 0.498569518 -0.790296197
v -0.501847267 0.504300892 -0.800700545
v -0.502604783 0.504163623 -0.804048419
v -0.504119873 0.503889024 -0.810744226
v -0.506493509 0.503306687 -0.81700027
v -0.507762551 0.506720006 -0.82413584
v -0.508407354 0.506758392 -0.831281304
v -0.505162537 0.511667132 -0.837020397
v -0.506680071 0.511392117 -0.843727171
v -0.508811235 0.514502823 -0.850433886
v -0.51094234 0.51761353 -0.85714066
v -0.525902212 0.515912354 -0.853346825
v -0.53326714 0.520545304 -0.853845954
v -0.529102504 0.529263437 -0.856686652
v -0.535852134 0.530508339 -0.857180357
v -0.53169167 0.539242506 -0.860026419
v -0.541638434 0.542868555 -0.859140813
v -0.543611705 0.549459815 -0.862472594
v -0.544221401 0.552823722 -0.862472594
v -0.546194613 0.559415042 -0.865804374
v -0.548921764 0.565869629 -0.872467995
v -0.539694667 0.573153019 -0.881483376
v -0.541818857 0.576253593 -0.888168275
v -0.54294461 0.575974584 -0.891311169
v -0.544456959 0.575700462 -0.897995293
v -0.562037468 0.569249928 -0.895927846
v -0.563542545 0.568977118 -0.902579606
v -0.567685962 0.56410116 -0.90744859
v -0.565368295 0.561703026 -0.915865123
v -0.566264749 0.558072269 -0.922516882
v -0.566408634 0.554577947 -0.925842702
v -0.570429146 0.54961282 -0.927015245
v -0.577870011 0.539933145 -0.92967087
v -0.582436919 0.534639955 -0.9267869
v -0.575470746 0.530254424 -0.93372798
v -0.538674355 0.537082195 -0.961143017
v -0.539433122 0.536944628 -0.964496434
v -0.540786505 0.536730707 -0.971295953
v -0.549492776 0.530173779 -0.973586977
v -0.544689536 0.532244623 -0.983868539
v -0.5466941 0.528177559 -0.989944696
v -0.551202655 0.523045778 -0.99080193
v -0.552518547 0.515496075 -0.993127644
v -0.55236733 0.508350372 -0.992513716
v -0.546878994 0.503145218 -0.994953096
v -0.546483219 0.499549836 -0.991048872
v -0.544282436 0.49314189 -0.991605639
v -0.536978543 0.488419235 -0.991286337
v -0.53425622 0.482046634 -0.988351047
v -0.529863775 0.479866326 -0.986707985
v -0.527870953 0.480309218 -0.980260849
v -0.526682198 0.480467647 -0.973359704
v -0.529104531 0.479349047 -0.964438438
v -0.527587056 0.479624063 -0.957731724
v -0.525455892 0.476513386 -0.951025009
v -0.527246237 0.475752681 -0.94625932
v -0.537182868 0.468406439 -0.932900786
v -0.536891699 0.461086363 -0.924882412
v -0.532965541 0.458745539 -0.922949493
v -0.530961871 0.455607384 -0.916207314
v -0.526139617 0.453567803 -0.914750159
v -0.524567366 0.450277418 -0.9077667
v -0.522647798 0.44723016 -0.904723644
v -0.518807888 0.444717079 -0.898963392
v -0.516682804 0.441615194 -0.892275691
v -0.517809868 0.441109926 -0.887923896
v -0.5155195 0.438066363 -0.881328583
v -0.510325551 0.43600601 -0.876272559
v -0.503617644 0.434449822 -0.872001767
v -0.507442713 0.433040082 -0.866236925
v -0.500730872 0.431479841 -0.861952424
v -0.507811844 0.42886281 -0.850761771
v -0.497844011 0.428509861 -0.851903081
v -0.503317833 0.42644161 -0.84157598
v -0.498794019 0.424142271 -0.836129963
v -0.501588166 0.422977775 -0.827223361
v -0.486693501 0.42424491 -0.830825269
v -0.494772226 0.421325922 -0.819212317
v -0.48304376 0.421408445 -0.817407787
v -0.487335116 0.419756949 -0.807756543
v -0.489619166 0.418771803 -0.799143255
v -0.483691633 0.416925311 -0.794362128
v -0.482176274 0.417199969 -0.78766489
v -0.480660915 0.417474627 -0.780967712
v -0.479145557 0.417749286 -0.774270475
v -0.483863294 0.415965885 -0.764499068
v -0.489247441 0.413963318 -0.75442785
v -0.487737954 0.414236903 -0.7477566
v -0.486228466 0.414510489 -0.741085291
v -0.484718978 0.414784074 -0.734414041
v -0.483209491 0.415057659 -0.727742791
v -0.482050896 0.415215552 -0.720903039
v -0.480541557 0.415489107 -0.714232504
v -0.479032218 0.415762663 -0.70756191
v -0.47752288 0.416036218 -0.700891316
v -0.476013571 0.416309774 -0.694220781
v -0.474504232 0.416583329 -0.687550187
v -0.472994894 0.416856885 -0.680879593
v -0.483990848 0.416680336 -0.672353268
v -0.482486486 0.416952997 -0.665704548
v -0.480982095 0.417225659 -0.659055889
v -0.479477733 0.41749832 -0.652407229
v -0.475420833 0.418613672 -0.646925807
v -0.473915309 0.418886542 -0.640272141
v -0.469481528 0.420125753 -0.634944856
v -0.48378247 0.41873017 -0.621432662
v -0.48219189 0.419032007 -0.614843667
v -0.480691791 0.419303894 -0.608213842
v -0.479888856 0.4228926 -0.601543784
v -0.479138821 0.423028558 -0.598228991
v -0.480841994 0.422237784 -0.590185881
v -0.479949355 0.425853044 -0.583562493
v -0.478450686 0.426124662 -0.576939166
v -0.476952046 0.42639631 -0.570315778
v -0.476059407 0.430011541 -0.563692451
v -0.474560767 0.430283159 -0.557069063
v -0.483011127 0.430887967 -0.550064802
v -0.480229557 0.431589246 -0.544008315
v -0.477408081 0.432303667 -0.53796339
v -0.484419525 0.433262467 -0.528006256
v -0.482926995 0.433532953 -0.521409988
v -0.481434464 0.433803469 -0.514813721
v -0.479941964 0.434073985 -0.508217454
v -0.478449434 0.4343445 -0.501621187
v -0.476956934 0.434614986 -0.495024949
v -0.475464404 0.434885502 -0.488428682
v -0.480161428 0.433083296 -0.479304492
v -0.497534096 0.427038044 -0.465056449
v -0.496052593 0.427306563 -0.458508909
v -0.493972003 0.424269706 -0.451961339
v -0.493231267 0.424403965 -0.448687583
v -0.491749763 0.424672484 -0.442140013
v -0.489669204 0.421635628 -0.435592473
v -0.488187701 0.421904117 -0.429044902
v -0.465206295 0.425790817 -0.430697441
v -0.465085417 0.425719082 -0.427159071
v -0.46299234 0.422663987 -0.420572251
v -0.536463737 0.394746572 -0.384747446
v -0.542073369 0.389355302 -0.378854394
v -0.54089725 0.382866025 -0.378854394
v -0.541453958 0.375712007 -0.374694943
v -0.543726802 0.368118197 -0.373369664
v -0.54181385 0.361876637 -0.373653561
v -0.546376586 0.356896579 -0.368193895
v -0.545204341 0.35042882 -0.368193895
v -0.544032097 0.34396109 -0.368193895
v -0.543910086 0.337165236 -0.367791981
v -0.552087963 0.327797681 -0.364215195
v -0.551658571 0.32121408 -0.367401719
v -0.550917923 0.314635515 -0.367237687
v -0.549749553 0.308188885 -0.367237687
v -0.553240597 0.300334215 -0.365452796
v -0.557929516 0.292139143 -0.363210499
v -0.557905734 0.285456955 -0.366231352
v -0.556741178 0.279031575 -0.366231352
v -0.561472893 0.270872533 -0.363969743
v -0.555714309 0.269262999 -0.369413346
v -0.565585434 0.259626448 -0.365171105
v -0.564424753 0.253222466 -0.365171105
v -0.563981652 0.246688426 -0.368342489
v -0.563591957 0.24006483 -0.368045628
v -0.562958241 0.236952409 -0.371513873
v -0.573609471 0.227219298 -0.366955787
v 0.421123683 0.503399611 -0.759472609
v 0.390213639 0.4905653 -0.756084323
v 0.388363957 0.490230083 -0.76425904
v 0.428277999 0.505874217 -0.784695745
v 0.427543223 0.50585413 -0.793398142
v 0.522219598 0.537130773 -0.840321839
v 0.519719124 0.545483172 -0.844543874
v 0.517991185 0.549572825 -0.84876591
v 0.515307963 0.553489327 -0.85720998
v 0.493612379 0.551841974 -0.853384972
v 0.491123289 0.560156286 -0.857587755
v 0.488452286 0.564054906 -0.865993321
v 0.487501353 0.563882589 -0.870196104
v 0.477830708 0.565740407 -0.875734508
v 0.476113439 0.569804847 -0.879930556
v 0.474419415 0.578338921 -0.884452403
v 0.470735997 0.577468812 -0.892107248
v 0.468837589 0.577124774 -0.900497377
v 0.46814692 0.577136755 -0.909392655
v 0.456030011 0.569327593 -0.913167298
v 0.460460335 0.570843101 -0.92421037
v 0.459658265 0.566257238 -0.92813921
v 0.447933912 0.554145396 -0.931688011
v 0.448698848 0.54992497 -0.931688011
v 0.426265448 0.534687698 -0.926056743
v 0.432012856 0.532019317 -0.932746947
v 0.452593744 0.533677638 -0.950391114
v 0.464774668 0.537358046 -0.964832366
v 0.45077762 0.529109657 -0.967651963
v 0.45515123 0.530552328 -0.978753746
v 0.456630915 0.531170785 -0.988615513
v 0.454528898 0.526217818 -0.991968036
v 0.444627911 0.514621735 -0.991550863
v 0.441311926 0.50481832 -0.989420712
v 0.443335265 0.501042962 -0.994569957
v 0.445811182 0.492772698 -0.990389466
v 0.452072501 0.485542387 -0.987867057
v 0.462246716 0.479363203 -0.987044632
v 0.462779194 0.479421705 -0.982671738
v 0.464675874 0.479765475 -0.974289298
v 0.457399011 0.477609009 -0.961948574
v 0.463163376 0.479007095 -0.95524627
v 0.456897736 0.477127105 -0.943387747
v 0.460317671 0.469032764 -0.935031295
v 0.44771266 0.461129993 -0.924785793
v 0.45003438 0.452771932 -0.915998816
v 0.451738268 0.448739171 -0.911835492
v 0.454384178 0.444877118 -0.903508782
v 0.456088066 0.440844357 -0.899345458
v 0.458733976 0.436982304 -0.891018808
v 0.444535136 0.433170229 -0.880588651
v 0.447171777 0.429321706 -0.872291088
v 0.449808449 0.425473213 -0.863993585
v 0.451685905 0.425813466 -0.855696082
v 0.430934668 0.420250475 -0.838225961
v 0.437891245 0.41754815 -0.83171916
v 0.433611035 0.416362673 -0.825490892
v 0.43547827 0.416701078 -0.81723851
v 0.432789862 0.415856212 -0.807173193
v 0.43465513 0.41619429 -0.798929572
v 0.433180451 0.41566506 -0.789370775
v -0.602201521 0.140141591 -0.377808154
v -0.604029775 0.133124486 -0.380041808
v -0.611158133 0.128011182 -0.377012461
v -0.610722899 0.121592671 -0.380127758
v -0.610287607 0.115174152 -0.383243084
v -0.609852374 0.108755641 -0.38635841
v -0.61726743 0.10363324 -0.383195698
v -0.628629863 0.0943334028 -0.381620347
v -0.628284454 0.0879326239 -0.384682029
v -0.627717853 0.0848064348 -0.384682029
v -0.627285242 0.0784270838 -0.387778342
v -0.627419233 0.0751739144 -0.390874654
v -0.627449274 0.0686451942 -0.390409887
v -0.634031177 0.0606158376 -0.390696198
v -0.633599639 0.0542525873 -0.393784672
v -0.633733332 0.0510076322 -0.396873176
v -0.635796547 0.0440691747 -0.398955703
v -0.6422261 0.0361426882 -0.399269193
v -0.64759326 0.0316838175 -0.396872848
v -0.647395849 0.025298303 -0.399852753
v -0.646966457 0.0189655945 -0.402926445
v -0.646537006 0.0126328878 -0.406000108
v -0.648183882 0.00904224999 -0.405101597
v -0.647754729 0.00271388795 -0.408173144
v -0.645743787 -4.68270337e-05 -0.412120581
v -0.647458494 -0.00684163673 -0.414316267
v -0.659807444 -0.0158992279 -0.412144214
v -0.659613788 -0.0190659706 -0.411993951
v -0.661473274 -0.0258500855 -0.414112628
v -0.662690818 -0.0324911773 -0.416491717
v -0.662823021 -0.035701219 -0.419546992
v -0.662396193 -0.0419960096 -0.422602266
v -0.661969304 -0.0482908003 -0.425657511
v -0.661410213 -0.0513755493 -0.425657511
v -0.667105377 -0.0588986166 -0.426167965
v -0.669399977 -0.0657218099 -0.428084016
v -0.66897428 -0.0719992295 -0.431130856
v -0.671856701 -0.0757485032 -0.42969501
v -0.673199236 -0.0823615342 -0.431999087
v -0.677279174 -0.0863182247 -0.433385551
v -0.672217607 -0.0916999578 -0.435040951
v -0.671792626 -0.0979671553 -0.438082814
v -0.671741962 -0.104308002 -0.437636644
v -0.678408086 -0.111882947 -0.437693834
v -0.677984178 -0.118134148 -0.440727949
v -0.677428961 -0.121197544 -0.440727949
v -0.679416776 -0.127881259 -0.43942216
v -0.678307474 -0.134002075 -0.43942216
v -0.681730986 -0.140919745 -0.437513113
v -0.681308091 -0.147156 -0.440539986
v -0.683865249 -0.153891429 -0.435682446
v -0.684161484 -0.157088429 -0.435325056
v -0.684121847 -0.163370654 -0.434876472
v -0.684640825 -0.169741884 -0.434193343
v -0.683555841 -0.175842196 -0.434184909
v -0.681638002 -0.181806698 -0.434526473
v -0.68403542 -0.188455224 -0.42975229
v -0.682429135 -0.194465816 -0.429962784
v -0.68169719 -0.197467282 -0.426736146
v -0.680593312 -0.203557774 -0.426736146
v -0.683877707 -0.210324481 -0.424904168
v -0.682775378 -0.216406599 -0.424904168
v -0.683424056 -0.222751647 -0.424173683
v -0.683003426 -0.228953868 -0.427184016
v -0.683430612 -0.23525621 -0.426545024
v -0.682329416 -0.241332054 -0.426545024
v -0.682692647 -0.247589841 -0.42264241
v -0.681592166 -0.253661603 -0.42264241
v -0.681356728 -0.259823978 -0.418993771
v -0.680806816 -0.262858361 -0.418993771
v -0.679026842 -0.268803924 -0.415988356
v -0.680130064 -0.272029012 -0.412019461
v -0.678351402 -0.277970195 -0.409016252
v -0.678912938 -0.284251541 -0.408332705
v -0.67933929 -0.290473372 -0.404426396
v -0.676851988 -0.296354234 -0.404996544
v -0.677013874 -0.299435884 -0.401426852
v -0.675916076 -0.305492908 -0.401426852
v -0.674818277 -0.311549902 -0.401426852
v -0.675667286 -0.317799002 -0.397356689
v -0.674570382 -0.323851049 -0.397356689
v -0.673473477 -0.329903066 -0.397356689
v -0.672376633 -0.335955113 -0.397356689
v -0.671279728 -0.34200713 -0.397356689
v -0.670182824 -0.348059177 -0.397356689
v -0.67068243 -0.354284286 -0.396707058
v -0.669586062 -0.360333294 -0.396707058
v -0.668489695 -0.366382301 -0.396707058
v -0.667393386 -0.372431308 -0.396707058
v -0.666511655 -0.378501922 -0.396619827
v -0.665524006 -0.38461718 -0.399847001
v -0.664975762 -0.387642026 -0.399847001
v -0.664725661 -0.39377284 -0.399502516
v -0.665815651 -0.400085419 -0.401882291
v -0.665945232 -0.403230816 -0.404876024
v -0.670011222 -0.409867972 -0.409299701
v -0.670140624 -0.413009614 -0.412289858
v -0.659091532 -0.412139058 -0.423401982
v -0.659900606 -0.415416032 -0.42940554
v -0.661259055 -0.415662229 -0.435409099
v -0.662617445 -0.415908426 -0.441412657
v -0.662747324 -0.419062257 -0.444414407
v -0.664105773 -0.419308484 -0.450417966
v -0.660809636 -0.419145882 -0.458399326
v -0.662170053 -0.419392437 -0.464411616
v -0.662980318 -0.422674149 -0.470423907
v -0.664340675 -0.422920704 -0.476436198
v -0.656260431 -0.422348708 -0.486537099
v -0.657624841 -0.422596008 -0.492567122
v -0.659170926 -0.425950229 -0.498276532
v -0.6598019 -0.426134676 -0.504627168
v -0.66116631 -0.426381975 -0.510657191
v -0.656572938 -0.426119626 -0.519328594
v -0.657939851 -0.426367372 -0.525369823
v -0.659306824 -0.426615119 -0.531411052
v -0.660673738 -0.426862866 -0.537452281
v -0.637405634 -0.425007403 -0.554619849
v -0.638783097 -0.425257057 -0.560707569
v -0.640160501 -0.425506711 -0.56679529
v -0.635040879 -0.425202459 -0.575857937
v -0.628080964 -0.424741924 -0.585794151
v -0.629060149 -0.424958289 -0.592096806
v -0.630444109 -0.425209105 -0.598213255
v -0.63182807 -0.425459951 -0.604329765
v -0.632024884 -0.425609827 -0.611002207
v -0.625617564 -0.421987712 -0.617657363
v -0.627005339 -0.422239214 -0.623790622
v -0.628393054 -0.422490746 -0.62992382
v -0.629780829 -0.422742277 -0.636057079
v -0.631796062 -0.423047662 -0.641890407
v -0.633183539 -0.423299134 -0.648022473
v -0.634571016 -0.423550606 -0.654154539
v -0.635958493 -0.423802078 -0.660286546
v -0.62308234 -0.419673473 -0.673628688
v -0.624476194 -0.419926107 -0.679788888
v -0.625869989 -0.420178711 -0.685949087
v -0.627263844 -0.420431346 -0.692109287
v -0.623434901 -0.420232296 -0.700853765
v -0.623161256 -0.420341015 -0.707853615
v -0.620854855 -0.420274228 -0.71587497
v -0.621418178 -0.420455545 -0.722473919
v -0.62281692 -0.420709074 -0.728655875
v -0.624215722 -0.420962572 -0.73483783
v -0.625614464 -0.4212161 -0.741019785
v -0.624932647 -0.421290278 -0.748262167
v -0.619794607 -0.420980722 -0.757794082
v -0.621197104 -0.421234906 -0.763992488
v -0.617269933 -0.421030372 -0.772941291
v -0.618674755 -0.421285003 -0.77914995
v -0.619551539 -0.421494216 -0.785633266
v -0.618092 -0.42150265 -0.79333955
v -0.622321129 -0.425183088 -0.797775745
v -0.62302351 -0.425310403 -0.800880075
v -0.624200583 -0.425545692 -0.807208836
v -0.622445285 -0.425532252 -0.815092385
v -0.622707784 -0.425690174 -0.821915984
v -0.627847195 -0.429444045 -0.825835943
v -0.626095474 -0.429434448 -0.833737671
v -0.626359224 -0.429593712 -0.840567887
v -0.630467057 -0.43325758 -0.84501797
v -0.628603935 -0.433242291 -0.853002489
v -0.630010724 -0.43349728 -0.85921979
v -0.633203447 -0.437012792 -0.86065942
v -0.634608865 -0.437267512 -0.866870821
v -0.635654569 -0.440674722 -0.872967541
v -0.63685143 -0.440912664 -0.87929368
v -0.637897015 -0.444319606 -0.885389566
v -0.638599634 -0.444446981 -0.888495088
v -0.642403185 -0.444891959 -0.893369257
v -0.646549463 -0.44853881 -0.897723734
v -0.647385001 -0.451922983 -0.90392381
v -0.648086429 -0.45205012 -0.907023787
v -0.658887565 -0.456193894 -0.907595813
v -0.657625377 -0.456244677 -0.915285051
v -0.662237048 -0.459905088 -0.919321299
v -0.663549423 -0.463238299 -0.921738803
v -0.668899 -0.466939777 -0.925331116
v -0.674374163 -0.470564902 -0.925353825
v -0.67450738 -0.473799556 -0.928432524
v -0.674773872 -0.480268836 -0.934589863
v -0.644944012 -0.478366733 -0.958800435
v -0.646350861 -0.478621691 -0.965018034
v -0.649393022 -0.478989363 -0.970283031
v -0.652470112 -0.479359299 -0.975520372
v -0.65260452 -0.482622236 -0.978626013
v -0.654009938 -0.482876956 -0.984837294
v -0.659185052 -0.486556888 -0.988488972
v -0.662539005 -0.4900271 -0.989687502
v -0.664403617 -0.496557057 -0.991425872
v -0.664080143 -0.499781281 -0.994793177
v -0.670339942 -0.506483316 -0.990411401
v -0.669908285 -0.512848377 -0.993500769
v -0.669571579 -0.519131899 -0.993029654
v -0.668246627 -0.525269747 -0.989642501
v -0.661774218 -0.531133294 -0.989297509
v -0.660758674 -0.534232438 -0.989563107
v -0.65791744 -0.537056983 -0.983892083
v -0.655280113 -0.536740065 -0.978429556
v -0.658510923 -0.536722898 -0.969534636
v -0.658762693 -0.53655386 -0.962393165
v -0.656799495 -0.539419293 -0.956215143
v -0.687576175 -0.540874779 -0.934919238
v -0.68098861 -0.546694994 -0.934617043
v -0.679174364 -0.552755177 -0.931553662
v -0.681223094 -0.5558725 -0.926592529
v -0.679410696 -0.561926425 -0.923532367
v -0.678087294 -0.564887583 -0.920512855
v -0.658367574 -0.570115626 -0.924201965
v -0.657108366 -0.573095918 -0.921125233
v -0.658147097 -0.576066256 -0.913275957
v -0.655100584 -0.578975976 -0.911212981
v -0.65544188 -0.578789473 -0.904085934
v -0.654050827 -0.578537345 -0.897938073
v -0.650925159 -0.578219175 -0.892759442
v -0.649157643 -0.577952623 -0.886817336
v -0.648328543 -0.574594676 -0.880665481
v -0.648195446 -0.571362913 -0.877589524
v -0.642566025 -0.564673126 -0.874395907
v -0.635338008 -0.557987034 -0.875532389
v -0.63590318 -0.554868817 -0.875532389
v -0.663183331 -0.549863458 -0.861123979
v -0.659027219 -0.543235362 -0.857133508
v -0.658894539 -0.540012836 -0.854066432
v -0.651428819 -0.533282697 -0.855318785
v -0.64980638 -0.526837051 -0.853365123
v -0.626878083 -0.522349894 -0.86271894
v -0.626042962 -0.51896745 -0.856522083
v -0.625341892 -0.518840373 -0.853423655
v -0.624506712 -0.515457928 -0.847226799
v -0.623104572 -0.515203774 -0.841029942
v -0.622269392 -0.51182133 -0.834833086
v -0.621568322 -0.511694312 -0.831734657
v -0.617332041 -0.511274934 -0.827047646
v -0.621428072 -0.508182108 -0.818228126
v -0.618488967 -0.507836819 -0.812848151
v -0.617087066 -0.507582724 -0.806652367
v -0.615685165 -0.507328629 -0.800456583
v -0.619437516 -0.5042243 -0.79186511
v -0.618037581 -0.503970563 -0.785678089
v -0.620496511 -0.503950715 -0.777492285
v -0.620297492 -0.503770053 -0.770693958
v -0.621571839 -0.503678918 -0.763143837
v -0.614425123 -0.506316662 -0.763073504
v -0.615037203 -0.506183386 -0.755863369
v -0.617515624 -0.506162047 -0.747713029
v -0.616626799 -0.505939364 -0.741283655
v -0.619638443 -0.50595063 -0.732890248
v -0.621607602 -0.505899787 -0.725038767
v -0.619247258 -0.508731425 -0.719084084
v -0.621631444 -0.508702397 -0.711046815
v -0.622024238 -0.50855583 -0.704012334
v -0.620070994 -0.511406839 -0.697865486
v -0.620156586 -0.511326373 -0.694407582
v -0.625714839 -0.511479974 -0.684855878
v -0.623766243 -0.514324188 -0.678723633
v -0.623926461 -0.514161706 -0.671839356
v -0.625894427 -0.514103532 -0.664086938
v -0.623948812 -0.516943455 -0.657963991
v -0.623691797 -0.516756356 -0.651299894
v -0.621836782 -0.519687116 -0.648527801
v -0.632653654 -0.520117342 -0.636593521
v -0.630715668 -0.522946119 -0.630494595
v -0.634528637 -0.522981524 -0.621944189
v -0.632291734 -0.525877059 -0.619366288
v -0.628706217 -0.525507867 -0.614310265
v -0.635753393 -0.528812766 -0.604022145
v -0.634378076 -0.528563499 -0.597943902
v -0.634830713 -0.528411627 -0.591020107
v -0.631301045 -0.531234026 -0.589037836
v -0.637079239 -0.531359792 -0.579672635
v -0.63028276 -0.533922255 -0.575833082
v -0.63552779 -0.537103117 -0.566493094
v -0.629148543 -0.536600709 -0.562700212
v -0.635018587 -0.539804637 -0.553113222
v -0.634333432 -0.539680481 -0.550085187
v -0.625159025 -0.539043009 -0.547523379
v -0.627630711 -0.538985968 -0.539738834
v -0.622411847 -0.538545072 -0.535381913
v -0.620482743 -0.541360795 -0.529311121
v -0.607312381 -0.540532231 -0.528424323
v -0.617310882 -0.537749052 -0.51759845
v -0.633842468 -0.538488388 -0.507047474
v -0.632475674 -0.538240671 -0.50100708
v -0.647770882 -0.541891396 -0.487525642
v -0.642519474 -0.544516265 -0.482954979
v -0.639474213 -0.544187963 -0.47766155
v 0.566395342 -0.489801645 -0.989017606
v 0.562668025 -0.498511046 -0.991307676
v 0.562083602 -0.5069381 -0.99041158
v 0.562174797 -0.511261463 -0.994653106
v 0.565841734 -0.519374132 -0.991049886
v 0.575098574 -0.527273238 -0.989826918
v 0.578513265 -0.535414815 -0.98610425
v 0.578482032 -0.535281241 -0.981559634
v 0.582524061 -0.539064348 -0.97388953
v 0.584395289 -0.538725197 -0.965619683
v 0.586266458 -0.538386047 -0.957349777
v 0.579446971 -0.542557657 -0.945151031
v 0.567062914 -0.547042012 -0.935187757
v 0.568746269 -0.551026165 -0.931074619
v 0.576245666 -0.559140921 -0.933553517
v 0.576577663 -0.567211211 -0.924065828
v 0.58306092 -0.571058273 -0.921918929
v 0.586802602 -0.574991345 -0.918639779
v 0.590506315 -0.578785598 -0.910836637
v 0.591000676 -0.578485012 -0.902034581
v 0.589022577 -0.578252494 -0.892241418
v 0.59307313 -0.577854514 -0.884881735
v 0.593251407 -0.573525369 -0.880761325
v 0.627471864 -0.572263062 -0.885402024
v 0.629350007 -0.57192266 -0.877101421
v 0.622835279 -0.563411713 -0.866090894
v 0.629888833 -0.55884105 -0.864650488
v 0.621497989 -0.550689936 -0.86194694
v 0.63462162 -0.541668117 -0.863181949
v 0.643277049 -0.532760382 -0.862642944
v 0.642514884 -0.528555036 -0.862642944
v 0.641932905 -0.519973516 -0.858477831
v 0.615851223 -0.51693815 -0.853088558
v 0.578566611 -0.514028072 -0.829826891
v 0.555548787 -0.510581434 -0.812250972
v 0.557397306 -0.510246396 -0.804081321
v 0.561570942 -0.509811163 -0.796804547
v 0.543996274 -0.510314226 -0.781209946
v -0.43841061 -0.555829585 -0.402245551
v -0.435764134 -0.562052369 -0.39937827
v -0.434470028 -0.565115213 -0.396216244
v -0.406496763 -0.570491552 -0.406369865
v -0.404609412 -0.576795876 -0.403183132
v -0.363760412 -0.581885397 -0.418158829
v -0.358879417 -0.588275552 -0.419555187
v -0.356968433 -0.594658852 -0.41632852
v -0.350973785 -0.601038098 -0.418138504
v -0.350838631 -0.607590377 -0.417744815
v -0.350832582 -0.614141941 -0.417302877
v -0.322159469 -0.620037198 -0.427629411
v -0.318851739 -0.626564443 -0.428424239
v -0.299402148 -0.629595459 -0.439055026
v -0.297463 -0.636072874 -0.435780793
v -0.294106305 -0.639209747 -0.433261305
v -0.245282933 -0.644970179 -0.44747895
v -0.229693368 -0.651351631 -0.449228168
v -0.209010303 -0.654334188 -0.453063428
v -0.19457145 -0.657295763 -0.450906396
v -0.183656156 -0.660317004 -0.447406322
v -0.182893962 -0.66017884 -0.444037765
v -0.161979616 -0.663113475 -0.444131225
v -0.154981643 -0.666341186 -0.442781597
v -0.140389249 -0.669382334 -0.440486729
v -0.0806653947 -0.676006675 -0.465314299
v -0.0925652161 -0.683047295 -0.460555255
v -0.0696417615 -0.686302423 -0.464865655
v -0.0850250423 -0.686083496 -0.451861322
v -0.0505229533 -0.68918556 -0.456481367
v -0.0517468341 -0.689049006 -0.452288687
v -0.0464390218 -0.688752294 -0.446656764
v -0.048798684 -0.688479424 -0.438314795
v -0.0478360988 -0.688196361 -0.431149662
v -0.03032865 -0.687858284 -0.429737836
v -0.0287493765 -0.687572062 -0.422758132
v -0.071525611 -0.687439859 -0.40053466
v -0.04045384 -0.690563858 -0.403502524
v -0.0447153524 -0.690294564 -0.394569069
v -0.0337217972 -0.689983726 -0.390810758
v -0.0321474224 -0.689698398 -0.38385272
v -0.0228291992 -0.689390421 -0.379479915
v -0.0470502712 -0.68568325 -0.364155889
v -0.0537992828 -0.685570955 -0.358199626
v -0.0656746402 -0.688820899 -0.346657634
v -0.0689004362 -0.688553631 -0.338205844
v -0.0673440322 -0.688271582 -0.33132726
v -0.0327361599 -0.687879622 -0.335128605
v 0.00572060468 -0.68746978 -0.340037823
v 0.00236126478 -0.687199652 -0.331454158
v -0.0561521277 -0.687125623 -0.305388719
v -0.0541570075 -0.686841607 -0.29863885
v -0.0462935865 -0.686535835 -0.293726653
v -0.0193428211 -0.686157405 -0.294735849
v 0.0392584354 -0.685654044 -0.305445045
v 0.0485974662 -0.678477347 -0.308736533
v 0.0947943777 -0.670704961 -0.315796077
v 0.0949490964 -0.666948557 -0.312220782
v -0.0408989154 -0.667833626 -0.263143122
v -0.0598546863 -0.664389372 -0.253882289
v -0.0385561958 -0.667409003 -0.252789348
v -0.0369943827 -0.66712594 -0.245886847
v -0.0354325697 -0.666842878 -0.238984331
v -0.0338707566 -0.666559815 -0.232081816
v -0.0414853692 -0.663010061 -0.226336926
v -0.0346728377 -0.66267556 -0.220990419
v -0.0274905004 -0.662336588 -0.215731561
v -0.0186102968 -0.661979795 -0.210942969
v -0.0306216106 -0.658344626 -0.200296447
v -0.0252177417 -0.658019125 -0.194497123
v -0.0249820836 -0.657750726 -0.187215492
v -0.079684265 -0.654658496 -0.164619043
v -0.0535295941 -0.657674134 -0.168178514
v -0.0419758745 -0.657279968 -0.164124623
v -0.019310195 -0.656757653 -0.163113698
v 0.0135232378 -0.65611583 -0.164822206
v 0.0256780032 -0.652177751 -0.1609312
v 0.0444555208 -0.648128867 -0.158797607
v 0.0647363514 -0.64772284 -0.160567448
v 0.0908462554 -0.643513739 -0.160285681
v 0.116279438 -0.635653436 -0.159904137
v 0.124930158 -0.635378897 -0.158423051
v 0.150428072 -0.627540052 -0.161743015
v 0.180063128 -0.623195231 -0.165936425
v 0.188163221 -0.615414679 -0.160730749
v 0.190677062 -0.611547172 -0.15771547
v 0.233913794 -0.606611133 -0.161423653
v 0.241124153 -0.602585077 -0.159577087
v 0.2781443 -0.593911231 -0.161654249
v 0.283142924 -0.589883149 -0.159182444
v 0.320034176 -0.581031382 -0.161051914
v 0.332685053 -0.576725006 -0.160468578
v 0.34842965 -0.572300911 -0.160643801
v 0.382205397 -0.563290954 -0.161482841
v 0.399020344 -0.554862618 -0.162013277
v 0.41073668 -0.550444901 -0.161069945
v 0.428962857 -0.545770764 -0.161720246
v 0.446232587 -0.537173629 -0.162276089
v 0.465189576 -0.532387078 -0.163041919
v 0.479911149 -0.523776233 -0.162909344
v 0.502271295 -0.514783978 -0.16461812
v 0.512348652 -0.510242879 -0.163119733
v 0.526469469 -0.501620471 -0.166910529
v 0.543447077 -0.492686778 -0.167231709
v 0.540688634 -0.484773666 -0.166912869
v 0.554195762 -0.475921899 -0.166366249
v 0.483598918 -0.475537658 -0.149451867
v 0.37955457 -0.473161876 -0.124602407
v 0.459528327 -0.460854769 -0.140220299
v 0.457012326 -0.452974766 -0.135866165
v 0.457967371 -0.444896817 -0.132346958
v 0.401622713 -0.444321752 -0.119017102
v 0.367050856 -0.438642472 -0.111067005
v 0.38495636 -0.429639161 -0.1116703
v 0.392109096 -0.421272784 -0.109683096
v 0.386439681 -0.417743653 -0.108500376
v 0.360912442 -0.411682695 -0.102756143
v 0.38637498 -0.402034968 -0.105124623
v 0.366640359 -0.39564237 -0.10077399
v 0.377830595 -0.386939287 -0.0997413397
v 0.387006342 -0.382349372 -0.102075838
v 0.353239715 -0.377111524 -0.0944205076
v 0.334587425 -0.370806068 -0.0903360546
v 0.363102823 -0.360686719 -0.0934037864
v 0.344319284 -0.354434341 -0.089302972
v 0.372166693 -0.344241768 -0.0921806172
v 0.368194073 -0.336760759 -0.0915750936
v 0.365156025 -0.329207242 -0.0911888778
v 0.326025099 -0.324895024 -0.0823147893
v 0.345038623 -0.319219649 -0.0829538256
v 0.360431761 -0.310008168 -0.0868862122
v 0.340581983 -0.30405724 -0.0825600624
v 0.336885095 -0.296621889 -0.0820186287
v 0.350715458 -0.287405998 -0.081583254
v 0.553155839 -0.263395935 -0.124849692
v 0.564648569 -0.262110025 -0.119115204
v 0.55302453 -0.263112307 -0.108052447
v 0.558110952 -0.262460411 -0.100833997
v 0.559185028 -0.258110136 -0.0928640515
v 0.554666877 -0.254324496 -0.0836453661
v 0.55241102 -0.250390381 -0.0791254416
v 0.554657221 -0.241834447 -0.071589455
v 0.554770231 -0.237728491 -0.0717750266
v 0.59022361 -0.225622147 -0.0714960396
v 0.585768044 -0.221904904 -0.0664756
v 0.588993907 -0.213168487 -0.0590823181
v 0.572232842 -0.210824117 -0.0514285006
v 0.572405696 -0.206626713 -0.0474334918
v 0.584447205 -0.201097071 -0.0459705032
v 0.581488729 -0.19305706 -0.0372599959
v 0.576280832 -0.189470783 -0.0321239494
v 0.576672852 -0.181064591 -0.0241378024
v 0.576845884 -0.176864147 -0.0201398842
v 0.57268405 -0.173122451 -0.0110645331
v 0.5742715 -0.168757498 -0.00736150937
v 0.56645149 -0.161357373 0.00228765397
v 0.562355578 -0.157691628 0.00713876449
v 0.567322016 -0.152914226 0.0101560494
v 0.564476848 -0.144935161 0.0187683031
v 0.56030339 -0.141297773 0.0236169081
v 0.561882138 -0.132774502 0.0313354619
v 0.562363267 -0.128550947 0.0352568552
v 0.56031692 -0.120496452 0.0436857268
v 0.553257585 -0.117269419 0.0490639061
v 0.55028528 -0.113512598 0.0536425188
v 0.545734942 -0.105828695 0.0625168607
v 0.53758961 -0.102790631 0.068061009
v 0.535936594 -0.0988407731 0.0764897391
v 0.537002981 -0.094521679 0.0844025612
v 0.531831145 -0.0911054239 0.0893480703
v 0.538964629 -0.090040341 0.0962717906
v 0.53379035 -0.0866295248 0.101202898
v 0.526418984 -0.0835010782 0.11062891
v 0.526756227 -0.0792981759 0.118646644
v 0.531751812 -0.0785204694 0.125965714
v 0.521882117 -0.0758041292 0.131677985
v 0.526544869 -0.0750708804 0.139051124
v 0.524725139 -0.0711830258 0.147426993
v 0.527927995 -0.0706563294 0.155059442
v 0.519203186 -0.0678020418 0.160505027
v 0.524625957 -0.0669537038 0.167755529
v 0.530552208 -0.0660325736 0.174936146
v 0.52159822 -0.0631892383 0.184452444
v 0.523376048 -0.0628670231 0.192309573
v 0.521666706 -0.063051559 0.200725198
v 0.519417286 -0.0592500456 0.20909977
v 0.519251645 -0.0592122041 0.21724841
v 0.512318075 -0.0601645075 0.226436406
v 0.492937982 -0.0629380569 0.237493768
v 0.502913713 -0.0654913709 0.240115181
v 0.489690334 -0.0713792741 0.250273108
v 0.48571223 -0.0759112984 0.259003192
v 0.487300873 -0.0796713531 0.262884974
v 0.481257528 -0.0845131278 0.267882556
v 0.48442927 -0.0920200571 0.275632501
v 0.493532449 -0.094728671 0.278429747
v 0.497554153 -0.102171458 0.282066107
v 0.516295612 -0.107669085 0.279600441
v 0.509964585 -0.108444914 0.288535237
v 0.499256432 -0.109813496 0.298047364
v 0.527324319 -0.110012092 0.298280209
v 0.517253458 -0.1112836 0.307696819
v 0.512518346 -0.107816577 0.316259265
v 0.520077944 -0.106712237 0.323268473
v 0.518269718 -0.0988255218 0.331335127
v 0.523414254 -0.0940492153 0.334581703
v 0.525209427 -0.0897296742 0.33826822
v 0.526462317 -0.0814466029 0.341935784
v 0.531211078 -0.0726576075 0.3451626
v 0.518675029 -0.0704155937 0.346663773
v 0.514446259 -0.0629624203 0.347019941
v 0.512763023 -0.0551443137 0.347052902
v 0.512489676 -0.0471167117 0.346906662
v 0.513103187 -0.0389508456 0.346647561
v 0.512581646 -0.030951079 0.346532673
v 0.512611926 -0.0228625629 0.346347481
v 0.511226237 -0.0149904685 0.346342415
v 0.503487289 -0.00814522896 0.343143582
v 0.502063394 -0.000289088144 0.343143582
v 0.511963248 0.00942051783 0.345703632
v 0.502149224 0.0159195848 0.346772432
v 0.502860785 0.0241338145 0.346500129
v 0.503029346 0.0282253567 0.350394398
v 0.495849043 0.0351182185 0.351123124
v 0.500673532 0.0440370813 0.350331724
v 0.499777734 0.0520007536 0.354270667
v 0.503376305 0.0566869788 0.357736677
v 0.509245157 0.0658405274 0.360838741
v 0.502113461 0.072712414 0.361546278
v 0.502452552 0.0809017792 0.365335494
v 0.509228349 0.0861864313 0.368426442
v 0.500829875 0.0928049311 0.369278938
v 0.514962733 0.10353151 0.371394962
v 0.499390751 0.108808182 0.373112798
v 0.497734874 0.116638601 0.373140633
v 0.507546723 0.122550063 0.375876218
v 0.500991821 0.129466116 0.376494616
v 0.498678863 0.137177333 0.376601398
v 0.497250766 0.145056769 0.376601398
v 0.495822668 0.15293619 0.376601398
v 0.494580567 0.160852373 0.376578927
v 0.492966473 0.168695047 0.376601398
v 0.486949474 0.175650626 0.377156198
v 0.503165841 0.187087327 0.379042447
v 0.50173378 0.194988772 0.379042447
v 0.48549518 0.199848756 0.376814276
v 0.48695609 0.208328187 0.376464576
v 0.488168001 0.216766015 0.376144826
v 0.487347394 0.224781677 0.376071095
v 0.48685208 0.232869416 0.375957876
v 0.486722738 0.241039827 0.375800222
v 0.486286163 0.249148101 0.375679731
v 0.488930881 0.257938415 0.3751854
v 0.48877117 0.266121477 0.375031024
v 0.492016673 0.27507177 0.37446323
v 0.495012164 0.28398332 0.373925418
v 0.488392085 0.290722281 0.374555141
v 0.491544306 0.299685121 0.373997957
v 0.487406313 0.306977868 0.374326468
v 0.487431705 0.315231949 0.374148995
v 0.479433745 0.317531079 0.371012151
v 0.476813972 0.325155139 0.371157676
v 0.482180268 0.334676296 0.370324105
v 0.471582055 0.340443552 0.367427409
v 0.481313199 0.35104385 0.366047502
v 0.463437229 0.35501039 0.364063025
v 0.469817549 0.360693157 0.363178909
v 0.470117718 0.369083196 0.358935565
v 0.463233232 0.375696927 0.355596364
v 0.468601435 0.381165981 0.354826301
v 0.466339558 0.388932168 0.35090059
v 0.457512021 0.394970655 0.351843864
v 0.457942158 0.403344721 0.35160625
v 0.468715787 0.410240501 0.350139648
v 0.457781702 0.415711135 0.351352423
v 0.454018623 0.423010737 0.351650059
v 0.457541317 0.43213895 0.355046868
v 0.455932051 0.440001428 0.35506919
v 0.453268737 0.44758305 0.355225295
v 0.450359046 0.45509395 0.355412781
v 0.44797039 0.462739706 0.355534226
v 0.446120471 0.470448136 0.359611779
v 0.443979949 0.474009573 0.359791458
v 0.439912736 0.4811005 0.364143133
v 0.439929694 0.489222646 0.371997803
v 0.440098792 0.493327796 0.375905037
v 0.439093024 0.497106075 0.379955113
v 0.45051986 0.504266262 0.386525095
v 0.44490093 0.506758869 0.39112857
v 0.442926496 0.510176599 0.399303496
v 0.44397977 0.514442325 0.407118648
v 0.437745035 0.516646624 0.415759593
v 0.42996347 0.518488824 0.420554221
v 0.445710272 0.522776544 0.426795781
v 0.433771849 0.523433805 0.432029605
v 0.267246693 0.479823053 0.45788461
v 0.429831088 0.526077211 0.448326916
v 0.253279686 0.479440957 0.474594712
v 0.237374753 0.478651106 0.483781219
v 0.242350504 0.479991943 0.487075388
v 0.260044724 0.484897912 0.492916286
v 0.240950316 0.483177215 0.502342284
v 0.266589463 0.490387291 0.50747335
v 0.232208118 0.484322906 0.514486611
v 0.239225924 0.486171067 0.521397054
v 0.411103815 0.535675704 0.513289273
v 0.241277978 0.490342289 0.536287248
v 0.446888566 0.549775839 0.5258497
v 0.249458954 0.496295094 0.550647557
v 0.2846241 0.506430387 0.551449716
v 0.449612528 0.554222345 0.545390248
v 0.275722355 0.507439315 0.567367136
v 0.450617313 0.558262944 0.561098099
v 0.453588367 0.558935046 0.568783462
v 0.447714448 0.561157286 0.577088416
v 0.453631431 0.562692404 0.584550261
v 0.44936955 0.565379083 0.592708886
v 0.450248241 0.565538347 0.596592307
v 0.453090012 0.566174924 0.604283929
v 0.447487682 0.568458855 0.612501144
v 0.449242771 0.568776965 0.620257854
v 0.447367191 0.57214886 0.628201008
v 0.449677914 0.572730899 0.631986618
v 0.452348471 0.573319137 0.639684737
v 0.446163297 0.57541275 0.647868931
v 0.451921493 0.576915681 0.65538156
v 0.446797788 0.579315126 0.663474679
v 0.448548853 0.579632521 0.671213567
v 0.450299919 0.579949915 0.678952396
v 0.446921825 0.582960069 0.683003068
v 0.450132251 0.583711863 0.690663576
v 0.446668059 0.58658874 0.69861269
v 0.446218222 0.58624959 0.706440151
v 0.445367187 0.585790873 0.714277267
v 0.44222492 0.588855088 0.718278706
v 0.440183103 0.588037968 0.726147175
v 0.43834734 0.591381252 0.733966053
v 0.440490097 0.5918172 0.741651654
v 0.436054051 0.594372988 0.749548733
v 0.438131362 0.594789803 0.757228851
v 0.435609937 0.598019183 0.761163831
v 0.437349349 0.598334432 0.768851161
v 0.43118155 0.600349307 0.776750863
v 0.430861712 0.600041568 0.784482241
v 0.426868528 0.602808297 0.788429022
v 0.415881455 0.603330553 0.796392798
v 0.41550222 0.603001952 0.804083645
v 0.413913965 0.60647893 0.807941854
v 0.406462133 0.608048439 0.815750897
v 0.408175021 0.608357489 0.823370993
v 0.400520921 0.609850049 0.831137955
v 0.392173052 0.611222208 0.835076749
v 0.386142671 0.613185227 0.842766583
v 0.374211788 0.613306999 0.850504816
v 0.375652909 0.613643646 0.854274809
v 0.362412751 0.61735183 0.861962438
v 0.352590829 0.618074417 0.869579792
v 0.34141767 0.618466079 0.873416126
v 0.332139283 0.619432628 0.877220511
v 0.322374463 0.620115161 0.884742677
v 0.315885872 0.621928275 0.888493896
v 0.293368846 0.622482657 0.895977795
v 0.290581793 0.62543112 0.899681687
v 0.266685367 0.625432074 0.907057524
v 0.253676057 0.625057578 0.910711229
v 0.24934341 0.627341926 0.91802305
v 0.23137185 0.625320494 0.921603143
v 0.230110526 0.628570914 0.928878188
v 0.226062462 0.630910516 0.936123013
v 0.217445403 0.631869376 0.93968308
v 0.215744779 0.634955704 0.94691503
v 0.202147484 0.63425374 0.950383961
v 0.186405376 0.636553168 0.957401276
v 0.171769574 0.635442078 0.960792363
v 0.166766346 0.637378216 0.967873335
v 0.155725718 0.637417436 0.971267283
v 0.141533226 0.640073478 0.978142738
v 0.12244381 0.637357831 0.981326818
v 0.112822957 0.63779211 0.984670103
v 0.0820261985 0.634698153 0.991048157
v 0.0588252321 0.630461812 0.994015574
v 0.0911031589 0.64115864 1.00175059
v 0.0836273432 0.642130136 1.00855267
v 0.0745318756 0.642660856 1.01180398
v 0.00851212814 0.627403319 1.01344013
v 0.00192428858 0.628701389 1.01668215
v 0.0122439303 0.635686696 1.02384055
v 0.0106515475 0.634883761 1.03062057
v 0.00039892114 0.638455689 1.03713346
v 0.00422775 0.643337131 1.04069352
v -0.000980993616 0.648758531 1.04395437
v -0.0246331692 0.644158959 1.04311681
v -0.0254687127 0.651054382 1.04651153
v -0.0398607142 0.653284073 1.04602146
v -0.0591591522 0.653717816 1.04534817
v -0.0626058578 0.659752965 1.04526579
v -0.0460866243 0.669310331 1.04590511
v 0.103904188 0.449070483 -0.0438742377
v 0.386619121 0.522531629 -0.110994011
v 0.388472557 0.523255765 -0.119795866
v 0.388258696 0.523385346 -0.128110781
v 0.388349682 0.523602784 -0.136506438
v 0.386759669 0.523336589 -0.144495279
v 0.385530025 0.523174107 -0.152574465
v 0.384417206 0.523045361 -0.160685122
v 0.382919848 0.522805929 -0.168701455
v 0.384013563 0.523312747 -0.177377924
v 0.382970214 0.523204267 -0.185518101
v 0.382052273 0.523131967 -0.193693668
v 0.211001799 0.478092253 -0.157775506
v 0.225303575 0.486298293 -0.161680847
v 0.189198658 0.483992308 -0.156666189
v 0.172001809 0.487111926 -0.156541929
v 0.189821348 0.496398032 -0.161402509
v 0.175660208 0.500381947 -0.16206558
v 0.193803772 0.513881683 -0.167216659
v 0.190102965 0.520983875 -0.170644104
v 0.181542084 0.526606381 -0.172776088
v 0.186242029 0.532087326 -0.17421113
v 0.177278355 0.537565589 -0.176227406
v 0.168167368 0.538926184 -0.178003401
v 0.141877607 0.538995504 -0.175326049
v 0.0901153758 0.5310359 -0.16571182
v 0.0799911022 0.53592366 -0.167288229
v 0.0851176605 0.541502833 -0.16886425
v 0.0731719658 0.545785725 -0.169932961
v 0.0546522811 0.543986082 -0.168996558
v 0.0442285538 0.54867065 -0.170433059
v 0.0259752106 0.546877801 -0.169507101
v 0.0244928692 0.554370403 -0.173373401
v -0.0160603821 0.549299181 -0.170251831
v -0.0259541366 0.550086915 -0.171538442
v -0.0326580293 0.555778563 -0.173890233
v -0.0479141325 0.554763436 -0.173632234
v -0.0885702595 0.549290001 -0.170145735
v -0.0950044766 0.551106393 -0.172306374
v -0.106289707 0.551296949 -0.173067421
v -0.130354866 0.551115394 -0.174095884
v -0.146178573 0.54971683 -0.173478812
v -0.447374791 0.451713473 -0.0795336962
v -0.444112539 0.452584267 -0.0735581219
v -0.441030055 0.453394264 -0.0675243363
v -0.439560592 0.453660607 -0.0610299781
v -0.433309734 0.452168345 -0.0591631085
v -0.431838155 0.452435046 -0.0526594259
v -0.42411381 0.451312274 -0.0477193333
v -0.422639817 0.451579422 -0.0412049405
v -0.416098684 0.450161815 -0.0393711403
v -0.40419513 0.446903229 -0.0353510268
v -0.393125653 0.443441302 -0.0345468745
v -0.395719022 0.442477018 -0.0303698312
v -0.392035306 0.443470687 -0.0244050957
v -0.405729949 0.445728272 -0.0141413333
v -0.381883621 0.450000137 -0.0168220643
v -0.375688702 0.444893092 -0.0146532208
v -0.357842445 0.447104394 -0.015685875
v -0.34068194 0.445507258 -0.0163465869
v -0.328140736 0.445915341 -0.0159323514
v -0.316789895 0.44223997 -0.0114940451
v -0.290338606 0.447164387 -0.0181545317
v -0.260601819 0.449255675 -0.0183271673
v -0.105759457 0.491206944 -0.0613243803
v -0.103112184 0.488271266 -0.061837621
v -0.115998417 0.476679564 -0.0582010821
v -0.177070007 0.450112134 -0.0422140807
v -0.130490467 0.457061112 -0.0501176156
v -0.107055932 0.456803858 -0.0557705835
v -0.0815383494 0.457095295 -0.0619510636
v -0.0705140308 0.452785999 -0.0606685951
v -0.0637786984 0.451037377 -0.0622139275
v -0.0574516021 0.445257425 -0.0597173199
v -0.0286966134 0.446068108 -0.059063822
v 0.00737867644 0.452896267 -0.0641174167
v 0.00968156476 0.449534923 -0.056870237
v 0.0111645535 0.446024954 -0.0532466508
v 0.0231670178 0.445522368 -0.0483734161
v 0.0523052067 0.450125217 -0.0514799766
v 0.0546302609 0.446731508 -0.0441630371
v 0.073695682 0.448219866 -0.0408587642
v 0.103227079 0.452806413 -0.0438742377
v -0.549150467 0.0729635805 0.253878266
v -0.598343492 0.0551642589 0.266847581
v -0.597249746 0.0491297208 0.266847581
v -0.596156061 0.0430951864 0.266847581
v -0.595062315 0.0370606519 0.266847581
v -0.597575307 0.0302195475 0.267549306
v -0.597158194 0.0240692459 0.264564157
v -0.59674114 0.0179189444 0.261579037
v -0.596870303 0.0147825843 0.258593887
v -0.618282318 0.00700848782 0.25982666
v -0.618539035 0.000776610395 0.253895253
v -0.617113233 -0.00198239624 0.247514606
v -0.617784739 -0.00210410147 0.244546875
v -0.622209966 -0.00612015929 0.239353642
v -0.623376071 -0.00632573385 0.233388558
v -0.619240105 -0.00539585948 0.226316988
v -0.619576931 -0.00542374095 0.220165849
v -0.620724976 -0.00562535366 0.214183152
v -0.622069299 -0.00586900674 0.208241761
v -0.623413622 -0.00611265982 0.202300385
v -0.624757946 -0.00635631243 0.196359009
v -0.62466538 -0.00629213126 0.190101385
v -0.62417835 -0.00614338461 0.183750629
v -0.625462651 -0.00951421075 0.18103458
v -0.623722196 -0.00909982249 0.174395457
v -0.625068665 -0.00934386626 0.168444529
v -0.62460053 -0.00920078717 0.162078544
v -0.625674486 -0.00938666053 0.156061262
v -0.627021849 -0.00963086169 0.150106505
v -0.624558687 -0.00906200055 0.14325805
v -0.62271601 -0.00862543378 0.136541545
v -0.623520255 -0.0118827764 0.130573913
v 0.484074652 0.23183693 -0.138015032
v 0.475532442 0.238426045 -0.140536666
v 0.476815253 0.24290207 -0.141021237
v 0.476372987 0.251206458 -0.14126718
v 0.476792246 0.259705335 -0.141720638
v 0.46889028 0.266393006 -0.144387975
v 0.470336437 0.275123209 -0.145091593
v 0.472681642 0.284068763 -0.146013156
v 0.462487578 0.290201783 -0.148118138
v 0.4618406 0.294257909 -0.148138702
v 0.467089742 0.303887635 -0.149770319
v 0.460629493 0.310853511 -0.152776524
v 0.460671395 0.319286942 -0.153144315
v 0.450140208 0.325264126 -0.155144617
v 0.453912407 0.330371916 -0.156249315
v 0.454261005 0.338882297 -0.15669398
v 0.44811222 0.345879078 -0.15976274
v 0.449433237 0.35463053 -0.160449058
v 0.441197962 0.361096174 -0.162995785
v 0.444910198 0.370446682 -0.16427733
v 0.354413718 0.356285661 -0.146353811
v 0.435026199 0.380688906 -0.166588202
v 0.437817901 0.389828414 -0.167646661
v 0.334814399 0.372035086 -0.146489233
v 0.426610678 0.40390572 -0.169798344
v 0.28632316 0.371951491 -0.138977647
v 0.335478276 0.392909795 -0.151677415
v 0.273858666 0.385085583 -0.140627563
v 0.464538455 0.443548739 -0.18483077
v 0.452242553 0.44014889 -0.17324923
v 0.46752426 0.444034994 -0.16854538
v 0.462332129 0.446769744 -0.158944711
v 0.460963279 0.450586975 -0.154543474
v 0.457601815 0.44953835 -0.145241544
v 0.454237342 0.448489279 -0.135959208
v 0.440176845 0.448905319 -0.128534943
v 0.445421875 0.450150311 -0.121352121
v 0.449077725 0.450970888 -0.113781229
v 0.444417536 0.449572116 -0.104258895
v 0.449689418 0.455060422 -0.0972342938
v 0.433575422 0.454809129 -0.0852756053
v 0.450903773 0.459386975 -0.0850505903
v 0.448716849 0.458640963 -0.0761394277
v 0.433571249 0.454413742 -0.0643269196
v 0.441411763 0.456362426 -0.0577097163
v 0.427550048 0.456689447 -0.0464292765
v 0.438970774 0.459608942 -0.0405912437
v 0.439163417 0.459501773 -0.0322753415
v 0.433037579 0.457692176 -0.0226045921
v 0.439818889 0.459360629 -0.0157199595
v 0.438005 0.458713293 -0.00699779438
v 0.394570529 0.451022029 0.0102833966
v 0.399438143 0.452179164 0.01751085
v 0.410730988 0.455072463 0.0234280862
v 0.431613356 0.456438124 0.0234285593
v 0.440087944 0.458561838 0.0300008617
v 0.452313542 0.457481563 0.0359915644
v -0.601344824 0.171640441 0.250908643
v -0.600244403 0.165568829 0.250908643
v -0.609049857 0.156833157 0.25601989
v -0.607953012 0.150781214 0.25601989
v -0.599357128 0.146674559 0.254530162
v -0.597909927 0.140698239 0.25446111
v -0.594061852 0.135334045 0.253915459
v -0.592961371 0.129262418 0.253915459
v -0.586673379 0.124496207 0.252886295
v -0.566486478 0.123180442 0.249101356
v -0.589585662 0.111020744 0.257041782
v -0.583736956 0.106117494 0.256105244
v -0.578572154 0.101029083 0.255304158
v -0.554835737 0.100418322 0.250843197
v -0.584504545 0.0868620425 0.260048032
v -0.579199374 0.0849634334 0.259115845
v -0.578097522 0.0788841397 0.259115845
v -0.550261259 0.079092294 0.253878266
v -0.549705863 0.0760279372 0.253878266
v 0.469358861 0.483051479 0.250829428
v 0.406047136 0.457428873 0.264602304
v 0.407587826 0.449594736 0.264585078
v 0.409148306 0.441765457 0.264564931
v 0.4105739 0.43389985 0.264564931
v 0.411999494 0.426034242 0.264564931
v 0.411867082 0.417761296 0.264797509
v 0.414386064 0.410251498 0.260607123
v 0.415394902 0.402277708 0.260669708
v 0.415867269 0.394168377 0.260812759
v 0.416686296 0.386150688 0.260903716
v 0.439057678 0.387758523 0.253607571
v 0.419254631 0.374526054 0.256811976
v 0.419367939 0.36633417 0.257009923
v 0.420793027 0.358471423 0.257009923
v 0.424703985 0.35127452 0.252605408
v 0.424075335 0.34290573 0.252916992
v 0.424187183 0.334723532 0.253116131
v 0.423911899 0.326453686 0.253373802
v 0.426156282 0.318838388 0.249222353
v 0.425167948 0.314504623 0.249481559
v 0.424112052 0.306062937 0.249859452
v 0.425535738 0.298207849 0.249859452
v 0.426201582 0.290177822 0.249974817
v 0.42762503 0.282324135 0.249974817
v 0.428926587 0.274483085 0.245969445
v 0.430350274 0.266628027 0.245969445
v 0.431343347 0.258676797 0.246035323
v 0.432766885 0.250822514 0.246035323
v 0.432869017 0.242678255 0.246237338
v 0.434045613 0.234772757 0.246275008
v 0.432456315 0.226271704 0.24673523
v 0.433878332 0.218425781 0.24673523
v 0.43530035 0.210579857 0.24673523
v 0.436722368 0.202733934 0.24673523
v 0.4378618 0.194829196 0.246778354
v 0.439283758 0.186983794 0.246778354
v 0.440705687 0.179138377 0.246778354
v 0.442244917 0.171316713 0.246760473
v 0.443263799 0.163390264 0.246821895
v 0.442446679 0.155100644 0.247162938
v 0.443867773 0.147259831 0.247162938
v 0.445288867 0.139419004 0.247162938
v 0.446709961 0.131578192 0.247162938
v 0.448131055 0.12373738 0.247162938
v 0.448849201 0.115756541 0.251284927
v 0.450269759 0.107918598 0.251284927
v 0.451924801 0.100124136 0.251249522
v 0.453345448 0.0922857672 0.251249522
v 0.45429185 0.0843608081 0.255334139
v 0.45500195 0.0804428533 0.255334139
v 0.457775384 0.0728490353 0.255131245
v 0.459196061 0.0650106668 0.255131245
v 0.461495012 0.0573314838 0.259012967
v 0.462915659 0.0494931154 0.259012967
v 0.46521461 0.0418139324 0.26289469
v 0.466036946 0.037913844 0.26287812
v 0.467457652 0.0300752725 0.26287812
v 0.472731262 0.0228665173 0.258292764
v 0.474732667 0.0151148932 0.258206695
v 0.491515815 0.00975506753 0.251891792
v 0.486942172 0.00494228164 0.248653263
v 0.4858917 0.000687851803 0.240858912
v 0.484128088 0.000368209177 0.233064547
v 0.486764699 0.000757648144 0.224583924
v 0.485171348 -0.00356933055 0.220906258
v 0.489837855 -0.0028588709 0.212085754
v 0.483778954 -0.00791980512 0.205078289
v 0.488207668 -0.00725333393 0.196270034
v 0.487352043 -0.00742848171 0.188306808
v 0.485081255 -0.0118666468 0.184746459
v 0.484502792 -0.0119987698 0.176736623
v 0.482261121 -0.0164506175 0.169124007
v 0.481681883 -0.016583994 0.161109895
v 0.521160841 -0.0104147503 0.146176755
v 0.482204139 -0.0206463654 0.144899935
v 0.517982125 -0.0150952628 0.130460069
v 0.528462708 -0.0135007631 0.120387539
v 0.54075098 -0.0116238454 0.109943539
v 0.514242351 -0.0198853798 0.110742733
v 0.525179088 -0.0182317644 0.100529693
v 0.54267776 -0.0155586824 0.0890567228
v 0.52232337 -0.0228736103 0.0847099945
v 0.542123556 -0.0198635254 0.072731398
v 0.517865717 -0.0277365278 0.0733180195
v 0.540153027 -0.0243652314 0.0608082265
v 0.52703023 -0.0305423513 0.0551865622
v 0.542322397 -0.0282612834 0.0439281091
v 0.532101333 -0.0339917503 0.0377709866
v 0.525822043 -0.0391110815 0.0308645982
v 0.530132651 -0.0384892523 0.0258589443
v 0.523855686 -0.0436032526 0.0189666711
v 0.54821974 -0.0400134362 0.00571457576
v 0.535375834 -0.0460896716 0.00431357464
v 0.537851512 -0.0499082208 -0.00437416928
v 0.53677839 -0.0542545617 -0.0123369182
v 0.556186259 -0.0514362343 -0.0205618981
v 0.55510813 -0.0558026321 -0.0285613872
v 0.542131305 -0.0660258308 -0.0338750705
v 0.553856969 -0.0643713996 -0.0405606218
v 0.553510785 -0.0727761313 -0.0485601127
v 0.556785464 -0.0723463744 -0.0534642003
v 0.545022547 -0.0823593512 -0.05898026
v 0.55535984 -0.0851295888 -0.0694783106
v 0.554453969 -0.0852937698 -0.0734818429
v 0.554107487 -0.0937064588 -0.0814888999
v 0.553201616 -0.0938706398 -0.0854924247
v 0.53861469 -0.104211718 -0.0902865678
v 0.537539065 -0.108568154 -0.0982678235
v 0.550870121 -0.106818035 -0.105510071
v 0.549124479 -0.111277543 -0.113363616
v 0.380293906 -0.133898586 -0.0825845376
v 0.330557168 -0.136640847 -0.0752043426
v 0.299804628 -0.132914513 -0.0643753633
v 0.317869872 -0.126561567 -0.072731778
v 0.304257542 -0.120592169 -0.0698790252
v 0.27175194 -0.117332324 -0.0626131073
v 0.308749169 -0.104260303 -0.0715755224
v 0.313155293 -0.0957611576 -0.0729293451
v 0.329443455 -0.0854979157 -0.0770611092
v 0.331825078 -0.0772333294 -0.0779443458
v 0.438134432 -0.0532961898 -0.0990111977
v 0.449352682 -0.0434626937 -0.101958856
v 0.417350173 -0.040245425 -0.0948350206
v 0.376472533 -0.038528908 -0.0856372267
v 0.389547408 -0.0284388922 -0.0890163779
v 0.398195803 -0.0190016367 -0.0913650766
v 0.391394496 -0.0120253153 -0.0901096761
v 0.456668735 0.00672580954 -0.105680093
v 0.438823313 0.0119697144 -0.101849429
v 0.453108013 0.0225313865 -0.105522268
v 0.463403493 0.0324772224 -0.108265311
v 0.352034837 0.0216246098 -0.0866246074
v 0.355876058 0.0303124618 -0.0878576115
v 0.362126797 0.039442081 -0.0896574035
v 0.370541662 0.0489838459 -0.0919669047
v 0.398184359 0.0620021522 -0.0987973884
v 0.515733302 0.091383338 -0.126771688
v 0.524346352 0.101318821 -0.129142568
v 0.526248455 0.110054053 -0.129936039
v 0.524776936 0.118173011 -0.129936039
v -0.558137298 -0.0774609223 0.124679513
v -0.563238382 -0.0752682313 0.128936514
v -0.561869383 -0.0750201121 0.134986877
v -0.561053991 -0.0717176199 0.141037241
v -0.563269436 -0.0689948201 0.147781104
v -0.562551081 -0.0688642785 0.150795653
v -0.560958326 -0.0685733482 0.156789705
v -0.561650872 -0.065563336 0.163172692
v -0.560283661 -0.0653155372 0.169215217
v -0.561358809 -0.0623822808 0.175673887
v -0.558102071 -0.0617695116 0.181300282
v -0.562151074 -0.0594064966 0.185230225
v -0.560785592 -0.0591590069 0.191265121
v -0.560765982 -0.0591727495 0.19758746
v -0.559401035 -0.0589253642 0.203619897
v -0.559545517 -0.058970917 0.209968925
v -0.559403956 -0.0589609556 0.216252744
v -0.561479986 -0.0593813509 0.222988561
v -0.560889781 -0.0592842773 0.229167297
v -0.5594033 -0.0621586852 0.235273242
v -0.557490647 -0.0649503917 0.241292253
v -0.556809723 -0.0648269728 0.244301751
v -0.55489713 -0.067618683 0.250320762
v -0.553665459 -0.070533812 0.253330261
v -0.55480361 -0.0770423934 0.260049105
v -0.567071736 -0.0824839026 0.265665084
v -0.574772775 -0.090167217 0.27359587
v -0.605866253 -0.0990222171 0.28273347
v -0.597130835 -0.103593111 0.284366041
v -0.585546017 -0.107675634 0.282377899
v -0.570123732 -0.107998148 0.285784125
v -0.56927073 -0.107843801 0.288734525
v -0.563268483 -0.106762506 0.293843299
v -0.567303717 -0.107486248 0.300803453
v -0.574825704 -0.10883797 0.305276364
v -0.575683534 -0.108990327 0.311624199
v -0.58039248 -0.106740214 0.318552494
v -0.575885057 -0.102825731 0.323836744
v -0.572888613 -0.0991802588 0.329398125
v -0.564581275 -0.0976638272 0.331048459
v -0.562284291 -0.0910237208 0.336660475
v -0.559082568 -0.0873199403 0.339118838
v -0.560997844 -0.0814454034 0.339259267
v -0.56086868 -0.0783094093 0.342244059
v -0.572237194 -0.0742366984 0.343989551
v -0.569272161 -0.0674568787 0.346393764
v -0.57509923 -0.0623611137 0.347194463
v -0.578984857 -0.0569030009 0.347667426
v -0.577167392 -0.0503276922 0.347176045
v -0.575870991 -0.0438454039 0.346772522
v -0.574669063 -0.0373731218 0.346384704
v -0.575282454 -0.0312614553 0.346303999
v -0.575394452 -0.0250450205 0.346138299
v -0.575361431 -0.018794829 0.345947921
v -0.578816295 -0.0132509684 0.343254894
v -0.578920543 -0.00702655362 0.343086779
v -0.576306522 -0.000219565394 0.342455
v -0.563886285 0.00554402266 0.343353808
v -0.572670519 0.00993249379 0.344658315
v -0.569941223 0.0167979766 0.344009489
v -0.553598046 0.0266414266 0.344170719
v -0.547520399 0.0279237367 0.349396169
v -0.55826509 0.0318678245 0.351006687
v -0.565972984 0.033334516 0.34909308
v -0.561618507 0.0406075604 0.348177075
v -0.543090641 0.051046703 0.351142883
v -0.550872922 0.0555849113 0.355377495
v -0.54617703 0.0597943328 0.357637882
v -0.549733698 0.0653162152 0.358041346
v -0.553375304 0.067606926 0.361671209
v -0.548258722 0.07510221 0.363780022
v -0.55467844 0.0799361244 0.364645123
v -0.549450815 0.0843048394 0.366830051
v -0.552775145 0.0898617059 0.367189556
v -0.549042404 0.0970670283 0.369533271
v -0.55377394 0.102277979 0.370117426
v -0.552148998 0.108985156 0.372802615
v -0.552503288 0.115257122 0.372682631
v -0.558069587 0.120238461 0.373397708
v -0.549443722 0.125518724 0.375055462
v -0.551982403 0.131255075 0.375283986
v -0.554294705 0.137043178 0.375476539
v -0.562065661 0.14143528 0.376539797
v -0.549229443 0.151042297 0.377447933
v -0.547720015 0.157822624 0.377032965
v -0.549196482 0.163834721 0.377091587
v -0.550303459 0.169942424 0.377091587
v -0.551041305 0.176147774 0.377032965
v -0.551887989 0.182325542 0.3769916
v -0.555420101 0.187783599 0.377376944
v -0.560541093 0.192802772 0.378015101
v -0.561646104 0.198899746 0.378015101
v -0.559250772 0.205956519 0.377458304
v 0.463203579 0.490414381 0.218803048
v 0.46418646 0.494711071 0.226730302
v 0.431649417 0.481399 0.24005504
v 0.45133701 0.482552707 0.241206512
v 0.468463987 0.482889295 0.246874601
g path_000000
l 5 4 3 2 1 1249 1248 1247 1246 1245 1244
g path_000001
l 8 9 10 11 12 13 14 15
g path_000002
l 16 17
g path_000003
l 18 19 20
g path_000004
l 21 22 23 24 25 26 27 28 29
g path_000005
l 30 31 32 33 34 35 36 37 38 39 40 41 42 43 44 45 46 47 48 49 50 51 52 53 54 55 56 57 58 59 60 61 62 63 64 65 66 67 68 69 70 71 72 73 74 75 76 77 78 79 80 81 82 83 84 85 86 87 88 89 90 91 92 93 94 95 96 97 98 99 100 101 102 103 104 105 106 107 108 109 110 111 112 113 114 115 116 117 118 119 120 121 122 123 124 125 126 127 128 129 130 131 132 133 134 135 136 137 138 139 140 141 142 143 144 145 146 147 148 149 150 151 152 153 154 155 156 157 158 159 160 161 162 163 164 165 166 167 168 169 170 171 172 173 174 175 176 177 178 179 180 181 182 183 184 185 186 187 188 189 190 191 192 193 194 195 196 197 198
g path_000006
l 199 200 201 202 203
g path_000007
l 204 205 206 207 208 209 210 211 212 213 214 215 216 217 218 219 220 221 222 223 224 225 226
g path_000008
l 228 229 230 231
g path_000009
l 233 234 235 236
g path_000010
l 237 238 239 240 241 242 243 244 245 246 247 248 249 250 251 252
g path_000011
l 253 254 255 256 257 258 259
g path_000012
l 260 261 262 263 264 265
g path_000013
l 266 267 268 269 270 271 272 273 274 275 276 277 278 279 280 281 282 283 284 285 286 287 288 289 290 291 292 293 294 295 296 297 298 299 300 301 302 303 304 305 306 307 308 309 310 311 312 313 314 315 316 317 318 319 320 321 322 323 324 325 326 327 328 329 330 331 332 333 334 335 336 337 338 339
g path_000014
l 340 341 342 343 344 345 346 347 348 349 350 351 352 353 354 355 356 357 358 359 360 361 362 363 364 365 366 367 368 369 370 371 372 373 374 375 376 377 378 379 380 381 382 383 384 385 386 387 388 389 390 391 392 393 394 395 396 397 398 399 400 401 402 403 404 405 406 407 408 409 410 411 412 413 414 415 416 417 418 419 420 421 422 423 424 425 426 427 428 429 430 431
g path_000015
l 432 433 434 435 436 437 438
g path_000016
l 439 440 441
g path_000017
l 442 443 444 445 446 447 448 449 450 451 452 453 454 455 456 457 458 459 460 461 462 463 464 465 466 467
g path_000018
l 469 470
g path_000019
l 471 472
g path_000020
l 473 474 475 476 477 478 479 480 481 482 483 484 485 486 487 488 489 490 491
g path_000021
l 492 493
g path_000022
l 494 495 496 497 498 499 500 501 502 503 504 505 506 507 508 509 510 511 512 513 514 515 516 517 518 519 520 521
g path_000023
l 522 523 524 525 526 527 528
g path_000024
l 529 530 531 532 533 534 535 536 537 538 539 540 541 542 543 544 545 546 547 548 549 550 551 552 553 554 555 556 557 558 559 560 561 562 563 564 565 566 567 568 569 570 571 572 573 574 575 576 577 578 579 580 581 582 583 584 585 586 587 588 589 590 591 592 593 594 595 596 597 598 599 600 601 602 603 604 605 606 607 608 609 610 611 612 613 614 615 616 617 618 619 620 621 622 623 624 625 626 627 628 629 630 631 632 633 634 635 636 637 638 639 640 641 642 643 644
g path_000025
l 645 646 647 648 649 650 651 652 653 654 655 656 657 658 659 660 661
g path_000026
l 662 663 664 665 666 667 668 669 670 671 672 673 674 675 676 677 678 679 680 681 682 683 684 685 686 687 688 689 690 691 692 693 694 695 696 697 698 699 700 701 702 703 704 705 706 707 708
g path_000027
l 709 710 711 712 713 714 715 716 717 718 719 720 721 722 723 724 725 726 727 728 729
g path_000028
l 730 731 732 733 734 735
g path_000029
l 736 737 738 739 740 741 742 743 744 745 746 747 748
g path_000030
l 749 750 751 752 753
g path_000031
l 754 755 756 757 758 759 760 761 762 763 764 765 766 767 768 769 770 771 772 773 774 775 776 777 778 779 780 781 782 783 784 785 786 787 788 789 790 791 792 793 794 795 796 797 798 799 800 801 802 803 804 805 806 807 808 809
g path_000032
l 810 811
g path_000033
l 812 813 814
g path_000034
l 815 816 817 818 819 820 821 822 823 824 825 826 827 828 829 830 831 832 833 834 835 836 837
g path_000035
l 838 839 840 841 842 843 844 845 846
g path_000036
l 849 850 851 852
g path_000037
l 853 854 855
g path_000038
l 856 857
g path_000039
l 858 859 860 861 862 863
g path_000040
l 864 865
g path_000041
l 866 867 868
g path_000042
l 869 870
g path_000043
l 871 872 873 874
g path_000044
l 875 876 877
g path_000045
l 878 879
g path_000046
l 880 881
g path_000047
l 882 883 884 885 886 887 888
g path_000048
l 890 891 892 893 894
g path_000049
l 895 896 897 898 899
g path_000050
l 901 902
g path_000051
l 903 904 905
g path_000052
l 907 908
g path_000053
l 909 910
g path_000054
l 913 914 915 916 917 918 919 920 921 922 923
g path_000055
l 925 926
g path_000056
l 928 929 930 931
g path_000057
l 933 934
g path_000058
l 936 937 938
g path_000059
l 939 940
g path_000060
l 941 942
g path_000061
l 943 944 945
g path_000062
l 946 947 948 949 950 951 952
g path_000063
l 953 954 955 956 957 958
g path_000064
l 961 962 963
g path_000065
l 965 966 967 968
g path_000066
l 970 971 972 973
g path_000067
l 974 975
g path_000068
l 976 977
g path_000069
l 978 979 980
g path_000070
l 981 982 983 984 985 986
g path_000071
l 987 988 989 990 991 992 993 994 995
g path_000072
l 996 997 998 999 1000 1001 1002 1003 1004 1005 1006 1007 1008 1009 1010 1011 1012 1013 1014 1015 1016 1017 1018 1019 1020 1021 1022 1023 1024 1025 1026 1027 1028 1029 1030 1031 1032 1033 1034 1035 1036 1037 1038 1039 1040 1041 1042 1043 1044 1045 1046 1047 1048 1049 1050 1051 1052
g path_000073
l 1053 1054 1055 1056 1057 1058 1059 1060 1061 1062 1063 1064 1065 1066 1067 1068 1069 1070 1071 1072 1073 1074 1075 1076 1077 1078 1079 1080 1081 1082 1083 1084 1085 1086 1087 1088 1089 1090 1091 1092 1093 1094 1095 1096 1097 1098 1099 1100 1101 1102 1103 1104 1105 1106 1107 1108 1109 1110 1111 1112 1113 1114 1115 1116 1117 1118 1119 1120 1121 1122 1123 1124 1125 1126 1127 1128 1129 1130 1131 1132 1133 1134 1135 1136 1137 1138 1139 1140 1141 1142 1143 1144 1145 1146 1147
g path_000074
l 1150 1151 1152 1153 1154
g path_000075
l 1156 1157
g path_000076
l 1165 1166 1167 1168 1169 1170 1171 1172 1173 1174 1175 1176 1177 1178 1179 1180 1181 1182 1183 1184 1185 1186 1187 1188 1189 1190 1191 1192 1193 1194 1195 1196 1197 1198 1199 1200 1201 1202 1203 1204 1205 1206 1207 1208 1209 1210 1211 1212 1213
g path_000077
l 1214 1215
g path_000078
l 1216 1217 1218 1219 1220 1221 1222 1223 1224 1225 1226 1227 1228 1229 1230 1231
g path_000079
l 1234 1235 1236
g path_000080
l 1237 1238 1239 1240 1241 1242 1243
g path_000081
l 1250 1332
g path_000082
l 1251 1252 1253 1254 1255 1256 1257 1258 1259 1260 1261
g path_000083
l 1262 1263
g path_000084
l 1264 1265 1266 1267 1268 1269 1270 1271 1272 1273
g path_000085
l 1275 1276 1277 1278 1279 1280 1281 1282
g path_000086
l 1283 1284 1285 1286
g path_000087
l 1287 1288 1289
g path_000088
l 1290 1291
g path_000089
l 1292 1293 1294 1295 1296 1297 1298 1299 1300 1301 1302 1303 1304 1305
g path_000090
l 1306 1307 1308 1309 1310 1311
g path_000091
l 1314 1315 1316
g path_000092
l 1320 1321 1322 1323
g path_000093
l 1325 1326 1327 1328
g path_000094
l 1329 1330 1331
g path_000095
l 1333 1440 1439
g path_000096
l 1334 1335 1336 1337 1338 1339 1340 1341
g path_000097
l 1342 1343 1344 1345 1346 1347 1348 1349 1350 1351 1352 1353 1354 1355 1356 1357 1358 1359 1360 1361 1362 1363 1364
g path_000098
l 1365 1366 1367 1368 1369 1370 1371 1372 1373 1374 1375 1376 1377 1378 1379 1380 1381 1382 1383 1384
g path_000099
l 1386 1387
g path_000100
l 1393 1394 1395 1396 1397 1398 1399 1400 1401 1402 1403 1404 1405 1406 1407 1408 1409 1410 1411 1412 1413 1414 1415
g path_000101
l 1416 1417 1418 1419 1420 1421
g path_000102
l 1422 1423 1424 1425 1426 1427 1428 1429 1430
g path_000103
l 1432 1433 1434
g path_000104
l 1436 1437 1438
g path_000105
l 1441 1679 1678 1677
g path_000106
l 1442 1443 1444 1445 1446 1447 1448 1449 1450 1451 1452 1453 1454 1455 1456 1457 1458 1459 1460 1461 1462 1463 1464 1465 1466 1467 1468 1469 1470 1471 1472 1473 1474 1475 1476 1477 1478 1479 1480 1481 1482 1483 1484 1485 1486 1487 1488 1489 1490 1491 1492 1493 1494 1495 1496 1497 1498 1499 1500 1501 1502 1503 1504 1505 1506 1507 1508 1509 1510 1511 1512 1513 1514
g path_000107
l 1517 1518 1519
g path_000108
l 1520 1521 1522 1523 1524
g path_000109
l 1526 1527 1528 1529 1530 1531 1532
g path_000110
l 1533 1534 1535 1536 1537 1538 1539 1540 1541 1542 1543 1544 1545 1546 1547 1548 1549 1550 1551
g path_000111
l 1554 1555 1556
g path_000112
l 1558 1559 1560 1561
g path_000113
l 1562 1563
g path_000114
l 1565 1566 1567 1568
g path_000115
l 1569 1570 1571 1572
g path_000116
l 1573 1574 1575 1576
g path_000117
l 1578 1579 1580 1581
g path_000118
l 1582 1583 1584 1585 1586 1587 1588 1589 1590 1591 1592 1593 1594 1595 1596 1597 1598 1599 1600 1601 1602 1603 1604 1605 1606 1607 1608
g path_000119
l 1609 1610 1611 1612 1613 1614 1615 1616 1617 1618 1619 1620 1621 1622 1623 1624 1625 1626 1627 1628 1629 1630 1631 1632 1633 1634 1635 1636 1637 1638 1639 1640 1641
g path_000120
l 1642 1643 1644 1645 1646
g path_000121
l 1647 1648 1649 1650 1651 1652 1653 1654 1655 1656 1657 1658 1659 1660 1661 1662 1663 1664 1665 1666 1667 1668 1669 1670 1671 1672 1673 1674
g path_000122
l 1675 1676
