# Fixed world centers; Z up; paths immutable
v 0.364192516 0.65014255 0.895983994
v 0.358646959 0.653762043 0.894180894
v 0.359916389 0.663675487 0.88372463
v 0.343153149 0.652177811 0.903936863
v 0.332285315 0.650266588 0.913708091
v 0.330496877 0.652711809 0.913708091
v 0.322272986 0.654203296 0.91182059
v 0.320484549 0.656648457 0.91182059
v 0.314584166 0.659839392 0.91087687
v 0.302810013 0.656791866 0.922906637
v 0.288729846 0.651194215 0.94017899
v 0.286960512 0.653613269 0.94017899
v 0.281123102 0.65677017 0.939245284
v 0.275285721 0.659927011 0.938311636
v 0.273516387 0.662346125 0.938311636
v 0.267678976 0.665502965 0.93737793
v 0.261764884 0.668575048 0.936618328
v 0.254158705 0.669762492 0.939718783
v 0.248752967 0.66811502 0.948028028
v 0.235523745 0.662919939 0.964118361
v 0.231049404 0.663144946 0.964225411
v 0.225273639 0.666268468 0.963301599
v 0.216182202 0.665598691 0.970089853
v 0.214436248 0.667985797 0.970089853
v 0.20867601 0.671100914 0.969168484
v 0.202915788 0.674216092 0.968247175
v 0.197986141 0.673874915 0.969487309
v 0.191597417 0.676243305 0.970068693
v 0.185528144 0.674537897 0.974055946
v 0.176864773 0.674171269 0.980129659
v 0.166603073 0.6728912 0.983788669
v 0.162618294 0.673613846 0.982874095
v 0.1586335 0.674336553 0.981959522
v 0.150663942 0.675781906 0.980130374
v 0.148930803 0.678151488 0.980130374
v 0.14096123 0.679596841 0.978301287
v 0.136110753 0.679249883 0.979533374
v 0.127231419 0.679553628 0.979993761
v 0.122316144 0.679103851 0.981429935
v 0.116611816 0.682188749 0.980517566
v 0.112636499 0.682909727 0.979605198
v 0.103901528 0.683351696 0.97978121
v 0.102669641 0.686348259 0.978514194
v 0.0914198086 0.683533013 0.985190213
v 0.0855122283 0.681733191 0.989308894
v 0.0759644732 0.679752588 0.998465061
v 0.0660122111 0.677165926 1.0087899
v 0.0630118549 0.677796245 1.01217437
v 0.053505566 0.675687134 1.02148724
v 0.0528708324 0.684027553 1.01418877
v 0.0465044677 0.681450665 1.01978362
v 0.0399539173 0.679958463 1.01914847
v 0.0350831412 0.685378075 1.0094409
v 0.0318739749 0.682403207 1.01122653
v 0.0224203505 0.676938951 1.01846421
v 0.0122753326 0.669062197 1.03458571
v 0.0127014499 0.678931296 1.02419758
v 0.00768487528 0.681288004 1.02867234
v 0.00405549677 0.685559869 1.02935839
v 0.00425262051 0.695227802 1.01948142
v -0.00126829289 0.696838677 1.02538276
v -0.00652506901 0.695594549 1.02829206
v -0.00995135587 0.698500991 1.0190742
v -0.0157060605 0.698090553 1.01632226
v -0.0218046121 0.697186768 1.01453364
v -0.0272728689 0.69083339 1.02293694
v -0.0366612822 0.689867735 1.02580714
v -0.0451327264 0.683810532 1.03816295
v -0.0459052064 0.692228794 1.03068554
v -0.0508454405 0.691337109 1.03290904
v -0.0554900058 0.695688784 1.02938592
v -0.0608563386 0.700680971 1.02061689
v -0.0630478859 0.699078083 1.01972675
v -0.0675760806 0.700528383 1.01335537
v -0.0708488226 0.699024677 1.00822675
v -0.0743476376 0.697183073 1.00374293
v -0.0761717036 0.693000197 0.999291003
v -0.0782999247 0.691502571 0.998173535
v -0.0845431834 0.685456872 1.00198376
v -0.0964368582 0.678701103 1.02043235
v -0.101635978 0.682235181 1.01848602
v -0.105842426 0.682399213 1.01865923
v -0.111590467 0.677032173 1.02119231
v -0.116005838 0.683667541 1.00905418
v -0.119630925 0.684762001 1.00738895
v -0.124261804 0.681153655 1.00642085
v -0.128019243 0.678943932 1.00267279
v -0.135856986 0.680202842 1.00118577
v -0.137943476 0.678767681 0.999966443
v -0.140477315 0.6836285 0.986694694
v -0.143922448 0.685062766 0.984347701
v -0.150012866 0.684160233 0.982561409
v -0.154018492 0.684676588 0.982046485
v -0.160108119 0.683774173 0.980260432
v -0.166197732 0.682871699 0.978474379
v -0.170248196 0.683307946 0.978120744
v -0.176336661 0.68240571 0.976335049
v -0.180226892 0.68311125 0.975442171
v -0.186072186 0.68262738 0.972816706
v -0.192162439 0.681724846 0.971030474
v -0.196107417 0.682337284 0.970324874
v -0.202144071 0.681528091 0.968351066
v -0.206088394 0.68214047 0.967645705
v -0.212125704 0.681331277 0.965671718
v -0.217856079 0.681072056 0.962588489
v -0.219763204 0.679987192 0.960636616
v -0.225331321 0.680034459 0.956927299
v -0.231328472 0.679316103 0.954762757
v -0.235747904 0.679070294 0.955796301
v -0.241440326 0.678909242 0.952504039
v -0.24753955 0.678005397 0.950715125
v -0.249599472 0.67665869 0.949284434
v -0.255483657 0.676158845 0.946672916
v -0.259948432 0.678338826 0.93860054
v -0.266018808 0.67751801 0.936632633
v -0.268226892 0.675903022 0.935735762
v -0.274091601 0.675477684 0.932958424
v -0.280193657 0.674601555 0.93110168
v -0.282402545 0.672985911 0.930204451
v -0.288520515 0.672079265 0.928410053
v -0.292429596 0.672788262 0.927512884
v -0.295715779 0.67178452 0.921132624
v -0.301843405 0.670876443 0.919335425
v -0.30677852 0.672353506 0.912615359
v -0.310905099 0.669725418 0.909544706
v -0.314764172 0.670567393 0.908374369
v -0.319198728 0.667323887 0.906573176
v -0.325303614 0.666488111 0.904617548
v -0.331445158 0.665578008 0.902816236
v -0.332291335 0.666790187 0.896009624
v -0.337936729 0.666938126 0.891993225
v -0.34409532 0.66602546 0.890186906
v -0.348030329 0.666739106 0.889283776
v -0.354188889 0.66582644 0.887477517
v -0.360199541 0.665232182 0.885004461
v -0.364135474 0.665946007 0.884101093
v -0.370213538 0.665212154 0.881919146
v -0.37625134 0.664570451 0.879542887
v -0.378476083 0.662943244 0.878639281
v -0.384387136 0.662589848 0.875653863
v -0.388274699 0.663419187 0.874507904
v -0.394138128 0.663189113 0.87125963
v -0.400149375 0.662633538 0.868694305
v -0.402376831 0.661004364 0.867789567
v -0.408298284 0.660664558 0.864764869
v -0.414120615 0.660567582 0.861222804
v -0.417992085 0.65868789 0.856475949
v -0.4217574 0.659841061 0.854641676
v -0.42591843 0.657299042 0.851286232
v -0.431855947 0.656981409 0.848193586
v -0.437643379 0.657040358 0.844293773
v -0.439492166 0.65634805 0.84136802
v -0.445546597 0.65578264 0.838794112
v -0.449278116 0.654351234 0.833017886
v -0.455437571 0.653552055 0.830937505
v -0.45891282 0.652805924 0.823654115
v -0.463103175 0.650281429 0.820185184
v -0.468597978 0.651219845 0.814330041
v -0.470491409 0.650487602 0.811435163
v -0.474154621 0.649358213 0.804898679
v -0.477963597 0.647876918 0.799102128
v -0.482435256 0.644688606 0.797017753
v -0.485924482 0.644081116 0.789266706
v -0.489397019 0.64355129 0.781309009
v -0.49218592 0.637849629 0.779467523
v -0.496129721 0.636103988 0.77414161
v -0.498646021 0.638202727 0.760238767
v -0.499467939 0.637786388 0.746504247
v -0.501254201 0.637461722 0.742555737
v -0.504070878 0.631703258 0.740695894
v -0.50775677 0.630776644 0.733368158
v -0.508663535 0.625660419 0.73475796
v -0.507991195 0.629362583 0.711354852
v -0.510059297 0.625651538 0.704693437
v -0.512326837 0.621403992 0.699218154
v -0.512892544 0.624480367 0.687303841
v -0.513727546 0.616833329 0.683941901
v -0.515207708 0.617432296 0.67766577
v -0.516279519 0.609130383 0.675775349
v -0.513837695 0.617702842 0.640020251
v -0.514199674 0.613994896 0.637916386
v -0.514224231 0.615877569 0.61753881
v -0.514769197 0.611656308 0.616577625
v -0.517528355 0.606117845 0.613667548
v -0.51807344 0.601895273 0.612706065
v -0.519163728 0.593450129 0.6107831
v -0.519356787 0.590175986 0.607525766
v -0.515142739 0.603449464 0.558814049
v -0.515633941 0.599330127 0.557428896
v -0.516740978 0.590755284 0.555476367
v -0.517294466 0.586467862 0.554500103
v -0.519039869 0.583668768 0.544496834
v -0.519594729 0.579370797 0.543518126
v -0.515159249 0.58553642 0.504560232
v -0.513897181 0.586032927 0.491388232
v -0.514257431 0.582208574 0.489037037
v -0.51602149 0.579361796 0.478657782
v -0.516586304 0.574986875 0.47766158
v -0.517715931 0.566236973 0.475669175
v -0.51743567 0.564085364 0.468947679
v -0.513632953 0.575888038 0.420399934
v -0.514206529 0.571444988 0.419388235
v -0.515414298 0.562400341 0.417779773
v -0.515927315 0.55811578 0.416353106
v -0.516395032 0.558640182 0.396394998
v -0.516647696 0.555018842 0.393137306
v -0.517801642 0.546080232 0.391101927
v -0.514586747 0.559155762 0.350188673
v -0.517195046 0.546375573 0.358208776
v -0.521559954 0.532077372 0.383681387
v -0.521159232 0.534803748 0.357054353
v -0.523079515 0.526837409 0.365484148
v -0.524788201 0.516439438 0.367323846
v -0.527164876 0.511963069 0.360151321
v -0.52797401 0.514544129 0.346856087
v -0.52998805 0.511024654 0.336876869
v -0.531667471 0.503672957 0.343774706
v -0.533689916 0.500128806 0.333788484
v -0.536696315 0.494043678 0.330908954
v -0.526895821 0.529153347 0.218491554
v -0.528406024 0.522124231 0.224178329
v -0.535607398 0.505154014 0.251929998
v -0.53550756 0.507220864 0.225058571
v -0.531259656 0.523285329 0.172012106
v -0.533820271 0.518452942 0.164574757
v -0.532863796 0.5178321 0.151513636
v -0.534121215 0.516425192 0.133853391
v -0.532701969 0.508807838 0.132922009
v -0.533296525 0.50410074 0.131686315
v -0.55200696 0.449484497 0.264566779
v -0.553696275 0.442075819 0.272013724
v -0.558229148 0.439869642 0.265268087
v -0.560130596 0.428854495 0.268828839
v -0.561979234 0.428831756 0.26213944
v -0.565138102 0.422373861 0.260053694
v -0.566377044 0.416117609 0.264175624
v -0.568207145 0.405299485 0.267286837
v -0.570121765 0.405095696 0.261051506
v -0.572392046 0.393147707 0.26776576
v -0.573310316 0.387741238 0.269390166
v -0.575377345 0.384079456 0.258534878
v -0.57623899 0.378813714 0.259712458
v -0.534056306 0.488646895 -0.115371361
v -0.532295704 0.49499321 -0.161119178
v -0.535657406 0.488202602 -0.164740115
v -0.537825227 0.487898529 -0.171721473
v -0.515015125 0.558084309 -0.417167425
v -0.538278639 0.526657462 -0.310632199
v -0.541238427 0.524492681 -0.311834365
v -0.534563005 0.554226041 -0.426152885
v -0.541205943 0.548241138 -0.423547655
v -0.54703021 0.544483185 -0.428277045
v -0.553111017 0.540024519 -0.430694848
v -0.558027923 0.548678637 -0.466138601
v -0.563629031 0.54569149 -0.473610878
v -0.568618536 0.534488022 -0.464335024
v -0.572665036 0.519478202 -0.43325448
v -0.576835096 0.510592937 -0.431443423
v -0.579118848 0.507121503 -0.448128641
v -0.580933034 0.498505741 -0.438372314
v -0.581712723 0.483056843 -0.415854961
v -0.579795182 0.478747666 -0.411906689
v -0.568357289 0.503867507 -0.540253282
v -0.568135977 0.500943303 -0.550716519
v -0.568315327 0.487005323 -0.533785164
v -0.565932393 0.483747274 -0.533785164
v -0.536943018 0.576483428 -0.884279251
v -0.540285647 0.574038625 -0.885636985
v -0.547902167 0.566533506 -0.878934801
v -0.557200968 0.564994991 -0.881034315
v -0.565948665 0.565058053 -0.888917506
v -0.572721124 0.559895694 -0.890622318
v -0.578185201 0.547482789 -0.878660619
v -0.580881178 0.546930373 -0.886903226
v -0.587643087 0.541765749 -0.88854748
v -0.59055829 0.536963463 -0.904510736
v -0.591728806 0.529794633 -0.901370466
v -0.596847475 0.518340588 -0.892619371
v -0.596967638 0.514349282 -0.90131712
v -0.596822858 0.51114291 -0.913062096
v -0.592286229 0.502308369 -0.906211019
v -0.58698535 0.495753348 -0.908013463
v -0.582390666 0.487169921 -0.902022719
v -0.576992929 0.480888724 -0.90488261
v -0.56735456 0.479490697 -0.915909171
v -0.561935902 0.473169625 -0.918728113
v -0.554054439 0.466942042 -0.910972118
v -0.548907697 0.459905356 -0.910972118
v -0.543387949 0.457820356 -0.905617535
v -0.536402702 0.449495643 -0.889448404
v -0.527946472 0.444922477 -0.888095856
v -0.524954379 0.442457229 -0.892241299
v -0.51618439 0.433171362 -0.860988617
v -0.510499895 0.431692779 -0.857983112
v -0.553146362 0.305914491 -0.360464007
v -0.554972887 0.298037559 -0.35123235
v -0.561099529 0.276774228 -0.310024709
v -0.562633097 0.269630402 -0.303326577
v -0.567574024 0.254890174 -0.265311897
v -0.567602873 0.255503744 -0.300328374
v -0.574322283 0.236838222 -0.245392576
v -0.571858287 0.242978588 -0.303878576
v -0.575449944 0.227609247 -0.285113811
v -0.582072258 0.209320411 -0.230257571
v -0.583770514 0.206139341 -0.249850407
v -0.586468875 0.196544439 -0.231643572
v -0.589644134 0.190104917 -0.237232238
v -0.590302765 0.185003296 -0.238393903
v -0.59535414 0.17445375 -0.225852489
v -0.597104728 0.166984111 -0.216376886
v -0.599337757 0.162592754 -0.231073469
v -0.600763321 0.155836329 -0.224677712
v -0.604624569 0.147895575 -0.223416075
v -0.60812223 0.140744925 -0.225725561
v -0.609309196 0.13452065 -0.221546263
v -0.612802267 0.127379403 -0.223852739
v -0.614553213 0.119946919 -0.213887289
v -0.617889345 0.113143496 -0.217695117
v -0.62031132 0.108315304 -0.230971649
v -0.620975375 0.103227481 -0.232021675
v -0.624469519 0.0960840359 -0.234328851
v -0.619942129 0.106211014 -0.321232915
v -0.620290041 0.109610327 -0.349524051
v -0.623228371 0.0957808942 -0.334883451
v -0.6276775 0.0825275928 -0.295652479
v -0.627473176 0.0832869858 -0.338424802
v -0.630648375 0.0768324435 -0.345150441
v -0.633024931 0.0758485049 -0.352187157
v -0.635534704 0.0629701689 -0.341665477
v -0.63676399 0.05660256 -0.336647481
v -0.637580335 0.0551365949 -0.369738191
v -0.639897227 0.0464594476 -0.352522373
v -0.643475711 0.0391435809 -0.354885221
v -0.644145548 0.0339551531 -0.356066644
v -0.645200789 0.0319356434 -0.387317449
v -0.648866951 0.0166713819 -0.363054782
v -0.650893211 0.0163894836 -0.374484569
v -0.653872073 0.00259990594 -0.35781616
v -0.656776249 0.000475778652 -0.358995765
v -0.656400263 -0.00635915762 -0.381560028
v -0.657947183 -0.0133552421 -0.372407079
v -0.660482466 -0.0185357761 -0.387265623
v -0.664211571 -0.0261599254 -0.387981713
v -0.664925575 -0.0314511545 -0.388660282
v -0.668186903 -0.0381213538 -0.395053536
v -0.669049978 -0.0437173061 -0.393904597
v -0.672589958 -0.0509553924 -0.396916151
v -0.673280597 -0.0562003516 -0.39787516
v -0.675022185 -0.0674061701 -0.395293534
v -0.676133513 -0.0659269243 -0.41920495
v -0.677449882 -0.0763192996 -0.422016293
v -0.678215504 -0.0817273706 -0.422061235
v -0.681346774 -0.0881661922 -0.430536062
v -0.681117117 -0.102585442 -0.376266092
v -0.680003405 -0.104354121 -0.400030166
v -0.682390392 -0.109397545 -0.417758524
v -0.682985008 -0.114464372 -0.419959843
v -0.685116529 -0.129667267 -0.373675346
v -0.685278058 -0.133893132 -0.381321937
v -0.686983585 -0.144905701 -0.378889561
v -0.683668077 -0.142843992 -0.431499392
v -0.684342563 -0.148068413 -0.432689041
v -0.68840462 -0.166350886 -0.361158431
v -0.689500511 -0.176220372 -0.366476327
v -0.686462224 -0.174950331 -0.41569218
v -0.68896836 -0.183302641 -0.393001884
v -0.691048265 -0.194902554 -0.385613143
v -0.688823164 -0.197944805 -0.385613143
v -0.688309014 -0.205216378 -0.412030578
v -0.688018501 -0.215525672 -0.396622539
v -0.688679039 -0.22068125 -0.397881955
v -0.688685238 -0.224796772 -0.407676071
v -0.686274111 -0.231710315 -0.419836402
v -0.686182201 -0.242214411 -0.401919276
v -0.686222613 -0.246433675 -0.411214083
v -0.684787333 -0.254856527 -0.410714656
v -0.68326509 -0.263145208 -0.411346495
v -0.684851468 -0.26963681 -0.400703788
v -0.685023904 -0.280271232 -0.379678786
v -0.682809293 -0.283299088 -0.379678786
v -0.682237446 -0.292786032 -0.368427455
v -0.681058347 -0.301409334 -0.364945978
v -0.681321621 -0.306001216 -0.371124208
v -0.680172503 -0.314647824 -0.367273778
v -0.680740654 -0.319643021 -0.369595259
v -0.67913425 -0.327697814 -0.37151596
v -0.678175211 -0.336537451 -0.365332991
v -0.679242074 -0.34212926 -0.361382395
v -0.678151011 -0.350760758 -0.356916666
v -0.676158369 -0.358342528 -0.363704354
v -0.675515056 -0.363092333 -0.344480425
v -0.676457703 -0.372840792 -0.351353705
v -0.676577568 -0.377342641 -0.359174132
v -0.675038695 -0.385433793 -0.360332906
v -0.675695658 -0.390522659 -0.36149165
v -0.677343011 -0.401037872 -0.359654695
v -0.677442849 -0.405565858 -0.36776194
v -0.680069625 -0.417026162 -0.353623122
v -0.680999398 -0.417241007 -0.378999144
v -0.683597565 -0.428658068 -0.365038574
v -0.683815897 -0.428244233 -0.399939626
v -0.682330787 -0.435900837 -0.438454419
v -0.681820154 -0.445054859 -0.426137686
v -0.682648361 -0.450348735 -0.425210625
v -0.682565749 -0.459787279 -0.407511711
v -0.68590486 -0.462285578 -0.402658433
v -0.688953042 -0.469097853 -0.411279887
v -0.689324081 -0.473983467 -0.416252822
v -0.656823218 -0.457313508 -0.863610625
v -0.660876751 -0.460126668 -0.897024333
v -0.666966259 -0.464560062 -0.903804302
v -0.673210204 -0.469116151 -0.908596933
v -0.67914027 -0.473420441 -0.917931676
v -0.68555373 -0.478111297 -0.920536697
v -0.694081545 -0.484501868 -0.891893327
v -0.700551808 -0.48924163 -0.892987728
v -0.706664145 -0.493692845 -0.899534822
v -0.707398117 -0.499378324 -0.900829434
v -0.71217531 -0.508057415 -0.890016258
v -0.716085494 -0.516051412 -0.892598093
v -0.718634009 -0.517898977 -0.903996944
v -0.710835636 -0.522482753 -0.89817524
v -0.706084073 -0.529281437 -0.895916939
v -0.707671702 -0.540708661 -0.896603644
v -0.705564141 -0.544271648 -0.891399324
v -0.700037956 -0.550567985 -0.901015639
v -0.692321062 -0.555149198 -0.894369006
v -0.687791526 -0.562039554 -0.889100075
v -0.682557821 -0.568541646 -0.894037306
v -0.676932931 -0.569561779 -0.892746329
v -0.665151536 -0.571342587 -0.897378623
v -0.661839545 -0.574283183 -0.908989787
v -0.657340884 -0.581185579 -0.903491974
v -0.652068257 -0.577023983 -0.886524558
v -0.642588556 -0.575416267 -0.8925789
v -0.636221588 -0.570759356 -0.889992833
v -0.630001485 -0.56616956 -0.885600865
v -0.622583866 -0.561028838 -0.89574331
v -0.618428528 -0.552893639 -0.895898402
v -0.615745604 -0.54624331 -0.917845666
v -0.609363675 -0.541567206 -0.914829373
v -0.605964661 -0.533777118 -0.90585655
v -0.638736308 -0.549176872 -0.455332279
v -0.633928597 -0.550271809 -0.450482309
v -0.625951231 -0.549106956 -0.447577894
v -0.619720161 -0.548795164 -0.425825983
v -0.61531055 -0.550055027 -0.417237848
v -0.608550906 -0.549449325 -0.40219003
v -0.602543235 -0.549939275 -0.410584807
v -0.59612751 -0.545419812 -0.414965957
v -0.590189278 -0.545184076 -0.392236888
v -0.585113347 -0.54610467 -0.391071886
v -0.583595693 -0.554252326 -0.391946137
v -0.581388175 -0.557270527 -0.391946137
v -0.573634207 -0.556173205 -0.387797624
v -0.565191507 -0.554787457 -0.390198022
v -0.559904933 -0.55562371 -0.390962183
v -0.554134071 -0.551411748 -0.388888925
v -0.547666907 -0.550840855 -0.373148948
v -0.5414626 -0.546455741 -0.37509498
v -0.533868372 -0.545419276 -0.36977461
v -0.528801262 -0.54633826 -0.368611634
v -0.520512044 -0.545020163 -0.369341552
v -0.517591953 -0.547756612 -0.375401169
v -0.50964433 -0.546578825 -0.373070151
v -0.503034353 -0.549751699 -0.34175989
v -0.492326856 -0.548571348 -0.386424094
v -0.487228334 -0.549496055 -0.385253906
v -0.47703132 -0.551345408 -0.38291353
v -0.473330647 -0.552758038 -0.370873332
v -0.46353358 -0.554729402 -0.365688711
v -0.458975554 -0.555826306 -0.360563517
v -0.451170325 -0.559598207 -0.363274723
v -0.447234303 -0.560885012 -0.353643894
v -0.43970257 -0.564742327 -0.354334891
v -0.434628755 -0.565662503 -0.353170395
v -0.426922202 -0.569475055 -0.355044961
v -0.419636309 -0.573415279 -0.353879601
v -0.417003334 -0.576317132 -0.356859744
v -0.410068601 -0.580355227 -0.353223443
v -0.399832577 -0.582176447 -0.351436347
v -0.39648205 -0.584907174 -0.359186471
v -0.389067173 -0.588827908 -0.358781099
v -0.383978069 -0.589750886 -0.357613087
v -0.379551202 -0.59580338 -0.357613087
v -0.368297696 -0.597409427 -0.362263441
v -0.366548359 -0.600542545 -0.359234512
v -0.353088677 -0.604733169 -0.417297095
v -0.353934288 -0.609973252 -0.417364806
v -0.349706292 -0.616163492 -0.415680736
v -0.342300445 -0.620168626 -0.414496213
v -0.337089479 -0.621095777 -0.413624436
v -0.326161295 -0.62286365 -0.414992929
v -0.319883198 -0.628717899 -0.425940573
v -0.314388007 -0.629606724 -0.426674753
v -0.304423809 -0.631548107 -0.421902746
v -0.300641418 -0.634398103 -0.431047559
v -0.292872071 -0.638379574 -0.431761444
v -0.287708342 -0.639325202 -0.430402428
v -0.280161589 -0.643341422 -0.429771364
v -0.271925211 -0.647271454 -0.433093101
v -0.267009795 -0.648249507 -0.430286109
v -0.259664744 -0.652294993 -0.428465098
v -0.255039275 -0.653303444 -0.424075663
v -0.247791067 -0.652201474 -0.41682896
v -0.238882825 -0.656064034 -0.423695326
v -0.233066753 -0.656939149 -0.425887018
v -0.224692494 -0.659036517 -0.41260916
v -0.220374286 -0.660066128 -0.406781673
v -0.21352753 -0.658994436 -0.397738159
v -0.210400909 -0.66198355 -0.402359396
v -0.200240865 -0.663880527 -0.39896217
v -0.193543345 -0.664677203 -0.405628949
v -0.183170348 -0.666558444 -0.403248191
v -0.184579432 -0.668082118 -0.368650347
v -0.178625599 -0.674082696 -0.376095563
v -0.159080103 -0.675237656 -0.419666946
v -0.155175745 -0.67628181 -0.412013292
v -0.150467217 -0.677262187 -0.408390313
v -0.141633898 -0.676004052 -0.409381747
v -0.132166997 -0.679903209 -0.41782257
v -0.123557813 -0.678662062 -0.417555332
v -0.116455831 -0.679478586 -0.425291151
v -0.109365977 -0.680301428 -0.432861298
v -0.0966641232 -0.684044123 -0.455883026
v -0.091569908 -0.685010731 -0.453855485
v -0.0830482915 -0.687039733 -0.442176342
v -0.077454634 -0.687974155 -0.442502379
v -0.0797980949 -0.68736583 -0.392265916
v -0.0745635033 -0.688307166 -0.391224027
v -0.0508501753 -0.689476192 -0.447991759
v -0.0479873829 -0.690559566 -0.436127603
v -0.0487193204 -0.689818442 -0.394455999
v -0.0435069501 -0.690763772 -0.393259674
v -0.0309848711 -0.692550182 -0.399896502
v -0.0261869058 -0.693518162 -0.396875739
v -0.0175862145 -0.692286074 -0.396299899
v -0.004603012 -0.687591016 -0.423753232
v 0.00241378136 -0.688453555 -0.429910719
v 0.00485406118 -0.687538326 -0.403352082
v 0.0100937253 -0.688488603 -0.402149528
v -0.00560288643 -0.688526154 -0.301779628
v 0.0217706524 -0.686309338 -0.378137439
v 0.0207732227 -0.682390928 -0.347902834
v 0.0269264765 -0.683276355 -0.350618988
v 0.0279137399 -0.68247664 -0.31982851
v 0.0330646709 -0.683410823 -0.318646282
v 0.0416199379 -0.685371876 -0.309429556
v 0.0504057407 -0.68413955 -0.309939265
v 0.0545510985 -0.681943893 -0.313559413
v 0.0611232929 -0.677640855 -0.314086169
v 0.0709600225 -0.676339149 -0.318482906
v 0.0816231444 -0.676952243 -0.338228852
v 0.090556249 -0.675700307 -0.338906556
v 0.0954615623 -0.676659107 -0.336630404
v 0.101329729 -0.672367096 -0.334246904
v 0.108992539 -0.671191752 -0.330144584
v 0.115117155 -0.666884422 -0.32871595
v 0.12164104 -0.66773957 -0.332410067
v 0.136512056 -0.662828863 -0.362827271
v 0.159838304 -0.660572231 -0.415155441
v 0.162837118 -0.658378899 -0.41393742
v 0.160008907 -0.657939553 -0.371635914
v 0.167589664 -0.656766593 -0.366923481
v 0.192151234 -0.654369056 -0.422135681
v 0.195079982 -0.652173638 -0.42062816
v 0.206224948 -0.650729597 -0.427990735
v 0.212033018 -0.64633441 -0.42475912
v 0.204334304 -0.646348834 -0.366987556
v 0.207311049 -0.644171655 -0.365778476
v 0.228687227 -0.638540626 -0.416080266
v 0.217315525 -0.635626197 -0.354473978
v 0.225132123 -0.634442091 -0.350657463
v 0.234401032 -0.633132458 -0.351727873
v 0.241538942 -0.630589962 -0.364437908
v 0.246001571 -0.62636292 -0.357012838
v 0.249174401 -0.62226665 -0.345375419
v 0.263032556 -0.620513916 -0.36142236
v 0.287884593 -0.617712796 -0.413056254
v 0.268476963 -0.614309132 -0.346330941
v 0.27783525 -0.612976372 -0.347499222
v 0.275727987 -0.6094414 -0.319107801
v 0.247926563 -0.60865593 -0.208715633
v 0.260964781 -0.606939375 -0.222419813
v 0.255538642 -0.605710328 -0.194845587
v 0.27188471 -0.603631675 -0.218890071
v 0.262686044 -0.601042628 -0.169549793
v 0.270948678 -0.599830806 -0.168259397
v 0.276964843 -0.59560895 -0.166826338
v 0.282941729 -0.596426845 -0.168462083
v 0.288674742 -0.592233658 -0.166133478
v 0.299612015 -0.590713203 -0.172944069
v 0.30370757 -0.586704195 -0.165603161
v 0.310442626 -0.587432563 -0.169443175
v 0.564483225 -0.563579679 -0.909388244
v 0.573426068 -0.56822443 -0.908885241
v 0.575755954 -0.571840107 -0.908015072
v 0.584822536 -0.576473892 -0.9078722
v 0.592072725 -0.581291616 -0.902361274
v 0.594810069 -0.576729536 -0.887658775
v 0.603754103 -0.571537197 -0.891189992
v 0.611698389 -0.572427809 -0.895416379
v 0.621124983 -0.571030855 -0.892651618
v 0.627148092 -0.57212323 -0.891269207
v 0.628026128 -0.567771554 -0.871522844
v 0.637553573 -0.558649421 -0.884058833
v 0.641739249 -0.550092161 -0.881295025
v 0.642522752 -0.544023335 -0.879913151
v 0.646708488 -0.535466075 -0.877149343
v 0.657604992 -0.5299716 -0.885933936
v 0.488484412 -0.553028345 -0.392152339
v 0.500729382 -0.554812372 -0.393671334
v 0.507044256 -0.553822994 -0.385219067
v 0.513546228 -0.554668546 -0.38701427
v 0.519654453 -0.555564106 -0.387702972
v 0.517626286 -0.548604965 -0.369343013
v 0.538024783 -0.547708929 -0.409117758
v 0.546861053 -0.551806808 -0.4106628
v 0.565651298 -0.551187217 -0.445546776
v 0.564936161 -0.551036119 -0.417969793
v 0.576830506 -0.54581964 -0.430801988
v 0.576646566 -0.542089701 -0.411279827
v 0.553313136 -0.541344762 -0.330435961
v 0.560009837 -0.542146504 -0.332752764
v 0.566717982 -0.537631512 -0.332003176
v 0.572779 -0.533198416 -0.329541355
v 0.574350595 -0.525868893 -0.321440309
v 0.583313227 -0.524547875 -0.320490539
v 0.587838829 -0.525631666 -0.317105621
v 0.593560994 -0.524748027 -0.307801455
v 0.597995639 -0.517049909 -0.307190984
v 0.602285922 -0.514661491 -0.309211969
v 0.599617898 -0.508007824 -0.314320207
v 0.604442537 -0.496685296 -0.320659488
v 0.612930119 -0.493635118 -0.333385795
v 0.552418053 -0.492606938 -0.172643423
v 0.557580471 -0.490107358 -0.177149996
v 0.561189353 -0.482729375 -0.174767077
v 0.564798236 -0.475351393 -0.172384158
v 0.569200635 -0.467836291 -0.172007799
v 0.573569298 -0.465440452 -0.174433678
v 0.577519774 -0.457992166 -0.172894165
v 0.578648806 -0.452669173 -0.172838286
v 0.58158052 -0.441888034 -0.174412876
v 0.583111465 -0.436477423 -0.175359234
v 0.587568343 -0.42891106 -0.17505841
v 0.588246524 -0.423657894 -0.173862249
v 0.591149449 -0.412834913 -0.17533049
v 0.5926072 -0.407414734 -0.176076069
v 0.591322184 -0.398984969 -0.175641671
v 0.593758166 -0.393342823 -0.178825319
v 0.591746032 -0.385060638 -0.176579565
v 0.592845261 -0.379700035 -0.176426426
v 0.594506204 -0.369095266 -0.174776971
v 0.596704245 -0.363470525 -0.177355021
v 0.596015096 -0.354868382 -0.178409651
v 0.59669286 -0.349592716 -0.177199692
v 0.595690489 -0.341055751 -0.177475676
v 0.599835336 -0.329789251 -0.181990415
v 0.59755373 -0.326669782 -0.181990415
v 0.600210547 -0.315754086 -0.182794273
v 0.597927094 -0.312632143 -0.182794273
v 0.601228118 -0.301521629 -0.185195476
v 0.5988276 -0.298427343 -0.184910655
v 0.598385036 -0.289679199 -0.186593875
v 0.603141248 -0.278105497 -0.192608595
v 0.608512759 -0.27143538 -0.203050151
v 0.606202066 -0.265680343 -0.185782835
v 0.606751561 -0.260412216 -0.18423745
v 0.583515525 -0.257254809 -0.120940909
v 0.589320302 -0.258008897 -0.121275529
v 0.595183671 -0.253720343 -0.118893974
v 0.59441644 -0.247689456 -0.105805062
v 0.598089039 -0.245320529 -0.106446721
v 0.602823257 -0.241386801 -0.101356037
v 0.606413662 -0.234036535 -0.0989673212
v 0.60435313 -0.229686931 -0.0911541358
v 0.608099341 -0.222297326 -0.0891606808
v 0.608004749 -0.216150478 -0.0779081732
v 0.607671261 -0.211284727 -0.0743072852
v 0.600511909 -0.204889342 -0.0596538149
v 0.599706471 -0.200210616 -0.0549278669
v 0.599881411 -0.190270305 -0.0497857742
v 0.599606752 -0.185430273 -0.0463474281
v 0.596557081 -0.176644385 -0.0334803201
v 0.59572506 -0.172026381 -0.0287194718
v 0.596028626 -0.162109673 -0.0239247642
v 0.596669495 -0.156978503 -0.0227003582
v 0.590787172 -0.150401428 -0.0111663872
v 0.593732238 -0.144427925 -0.0154629033
v 0.591368735 -0.136572719 -0.0123515241
v 0.581619799 -0.136403695 0.00571526494
v 0.581940413 -0.126576021 0.0104295034
v 0.582435906 -0.12153656 0.0119820815
v 0.579918802 -0.113807619 0.0154759996
v 0.590732098 -0.104678348 -0.00765728625
v 0.586716294 -0.100468151 0.0127036991
v 0.590239048 -0.0932662562 0.0150297461
v 0.590898454 -0.0881586522 0.0161927696
v 0.589353859 -0.0800377429 0.0173557922
v 0.577691197 -0.0818521604 0.0319364369
v 0.566605389 -0.0777741894 0.0559008121
v 0.560653925 -0.0755115375 0.0728159472
v 0.570565522 -0.0656657964 0.0597824752
v 0.574052215 -0.0585375093 0.0620847493
v 0.482899904 -0.100622319 0.290708721
v 0.490485728 -0.103930481 0.289852023
v 0.49475807 -0.108635701 0.296776563
v 0.500619531 -0.109007545 0.295162737
v 0.516584694 -0.108008169 0.282152712
v 0.521373868 -0.108842418 0.283104986
v 0.516925275 -0.108978853 0.307822824
v 0.525478184 -0.108247146 0.300067067
v 0.532854617 -0.107154012 0.302230567
v 0.541229129 -0.105652809 0.302129209
v 0.546110272 -0.101938434 0.305308431
v 0.551953197 -0.0978296921 0.306314468
v 0.547782183 -0.095056355 0.318160266
v 0.550511301 -0.0885988846 0.321529269
v 0.55150795 -0.0828739777 0.328767896
v 0.559524 -0.0786745995 0.317868203
v 0.562798083 -0.0719810724 0.320030063
v 0.562616646 -0.067573525 0.32287848
v 0.56384176 -0.0580841787 0.325039238
v 0.564454317 -0.0533395037 0.326119632
v 0.563213289 -0.0457101204 0.326769292
v 0.5602808 -0.0388337597 0.331179321
v 0.558945894 -0.035717953 0.329597026
v 0.553643167 -0.0306701548 0.332296818
v 0.554015517 -0.0223067477 0.329343438
v 0.553157449 -0.0144952564 0.329134852
v 0.552757323 -0.00646285294 0.327900678
v 0.550707877 -0.00366076059 0.327900678
v 0.549271584 0.00389091624 0.328982174
v 0.548426986 0.0117278723 0.32873717
v 0.549327135 0.0166183244 0.329176694
v 0.547890007 0.0241742488 0.330258816
v 0.548503518 0.0289265048 0.331340909
v 0.546821058 0.0363601409 0.332972974
v 0.547434449 0.0411116481 0.334054917
v 0.547602415 0.049479343 0.331540078
v 0.540553987 0.0535859093 0.338154674
v 0.544787645 0.0601956584 0.331105173
v 0.542777479 0.0674646348 0.333472013
v 0.540444434 0.0751070455 0.343628764
v 0.537017167 0.0771787837 0.346727818
v 0.539436042 0.087299414 0.346207172
v 0.534093022 0.0883323476 0.353610307
v 0.536942363 0.0947844982 0.356699944
v 0.535026491 0.102047525 0.358863503
v 0.538245678 0.108207837 0.35409835
v 0.539695263 0.117813461 0.355752409
v 0.534522295 0.118872911 0.362757057
v 0.536488354 0.128753811 0.363246918
v 0.538010776 0.134001732 0.362287879
v 0.536684334 0.141593114 0.363129407
v 0.538443148 0.146986678 0.36164391
v 0.536482394 0.154219195 0.36390233
v 0.53787154 0.159409329 0.363244116
v 0.535814404 0.166582361 0.365717679
v 0.535453439 0.174751773 0.364397675
v 0.536998212 0.180048451 0.363392532
v 0.538872838 0.189578116 0.357068241
v 0.53127712 0.193077415 0.364900857
v 0.531745672 0.197734728 0.3663041
v 0.531125665 0.205777675 0.365556955
v 0.533469439 0.211590797 0.362757862
v 0.531510949 0.218822613 0.365009457
v 0.532500267 0.22789675 0.360646755
v 0.530942798 0.235386938 0.361996412
v 0.52731961 0.237196639 0.365527332
v 0.527330577 0.245681241 0.363350868
v 0.52976948 0.251612574 0.360331357
v 0.527657986 0.258749992 0.362925887
v 0.523035824 0.264031589 0.364084154
v 0.523895919 0.273115873 0.359977722
v 0.523602486 0.281458139 0.358470201
v 0.520815134 0.283785224 0.360118985
v 0.517578304 0.290156454 0.365267038
v 0.520663321 0.296589732 0.36076507
v 0.52099514 0.305383801 0.357836157
v 0.518332303 0.312138289 0.361683249
v 0.51627332 0.314953327 0.361683249
v 0.516993284 0.324045509 0.357862443
v 0.516457558 0.332280844 0.356886297
v 0.50946486 0.335894793 0.363411546
v 0.512809694 0.342604756 0.35829097
v 0.509289443 0.348679096 0.356909752
v 0.507881165 0.356310695 0.357912004
v 0.503548026 0.361804515 0.358382434
v 0.50453949 0.371198058 0.346636504
v 0.511759937 0.380852669 0.332591981
v 0.510302603 0.388514906 0.333689332
v 0.503558159 0.392269254 0.339638263
v 0.502103329 0.399918437 0.340733737
v 0.502282679 0.408807576 0.338064134
v 0.499076962 0.410790116 0.34066537
v 0.497621626 0.418441862 0.341761202
v 0.494102061 0.424610376 0.340294242
v 0.491567671 0.431554079 0.336532265
v 0.48594442 0.436091691 0.339939475
v 0.487752527 0.441841781 0.338276088
v 0.484540135 0.448279113 0.336068809
v 0.483081937 0.45594576 0.337166756
v 0.481623769 0.463612378 0.338264734
v 0.476638049 0.468632519 0.340195507
v 0.478084922 0.474123746 0.339362681
v 0.476626754 0.481790394 0.340460658
v 0.473746359 0.48828119 0.344891638
v 0.467989087 0.488070756 0.353524446
v 0.469229817 0.497681439 0.355712831
v 0.466795057 0.500213504 0.356560498
v 0.461075962 0.503944814 0.37505579
v 0.456876785 0.509205937 0.382600158
v 0.454759091 0.511645734 0.390092313
v 0.455218583 0.51627636 0.391541183
v 0.452309132 0.5176723 0.408172697
v 0.449935734 0.524047792 0.418720692
v 0.453031957 0.526371419 0.418766052
v 0.453382283 0.530518651 0.427681059
v 0.452604085 0.533669353 0.439167887
v 0.455244929 0.535600901 0.440240532
v 0.451731473 0.536346555 0.457950026
v 0.447593838 0.536511481 0.477003813
v 0.450209349 0.538424492 0.478066176
v 0.450345874 0.542301178 0.487227798
v 0.44756487 0.539107621 0.507543921
v 0.448836744 0.543947637 0.514010668
v 0.446221501 0.545351744 0.52924329
v 0.448803663 0.547240376 0.530292094
v 0.44895497 0.546603024 0.543655515
v 0.447987318 0.549424946 0.555009484
v 0.448896855 0.549451768 0.566517949
v 0.448495895 0.55313915 0.569765568
v 0.452157438 0.555594444 0.575068295
v 0.453414619 0.560346305 0.581319392
v 0.451434731 0.562208533 0.594696999
v 0.456519276 0.565927386 0.59676218
v 0.454554081 0.568187118 0.603401244
v 0.454494894 0.567322254 0.61670357
v 0.44729948 0.56447047 0.641258419
v 0.448439509 0.569039464 0.647542775
v 0.450947464 0.570873797 0.648561418
v 0.453536749 0.576735973 0.651673853
v 0.459048837 0.580850422 0.652636111
v 0.451018959 0.577151895 0.678593993
v 0.447717845 0.578093648 0.687936604
v 0.452239603 0.581325173 0.690902472
v 0.452327162 0.584884107 0.699253201
v 0.449688047 0.58638978 0.707109809
v 0.44852981 0.588785946 0.71805495
v 0.446685255 0.590536416 0.730408728
v 0.44246608 0.590540707 0.741556764
v 0.442459434 0.593929768 0.749931276
v 0.441685975 0.596599936 0.759889185
v 0.438397884 0.597397268 0.768994808
v 0.436951309 0.599877059 0.774208903
v 0.432706535 0.603548229 0.78746295
v 0.429950237 0.604771614 0.795410812
v 0.4281196 0.610619009 0.803546548
v 0.422225147 0.609350562 0.812042713
v 0.424366653 0.618894756 0.811818302
v 0.424919873 0.623179972 0.812794089
v 0.426026344 0.631750464 0.814745605
v 0.419151723 0.628931761 0.831270278
v 0.417862535 0.635710001 0.832240999
v 0.416022956 0.638225079 0.832240999
v 0.410385519 0.641353786 0.836358607
v 0.404719442 0.643846393 0.846540034
v 0.395844489 0.643732131 0.857534111
v 0.383136481 0.63976413 0.876691341
v 0.376193583 0.64142102 0.88372463
v 0.369597435 0.642752826 0.895983994
v 0.365994155 0.647679329 0.895983994
v 0.467776358 0.468784571 0.110217743
v 0.411451101 0.413362294 0.270185024
v 0.412923336 0.405621648 0.269076467
v 0.413078129 0.401380599 0.26601088
v 0.41414544 0.393313259 0.265914679
v 0.41405955 0.388873249 0.263449669
v 0.414989382 0.380700856 0.263696969
v 0.414812744 0.371672988 0.26670301
v 0.414184779 0.366808891 0.265595436
v 0.415655702 0.359075129 0.264487863
v 0.415027767 0.354211003 0.263380259
v 0.416498691 0.34647724 0.262272686
v 0.417969644 0.338743478 0.261165112
v 0.417341679 0.333879381 0.260057539
v 0.418139577 0.325644046 0.260628074
v 0.419091791 0.317531019 0.260811746
v 0.418592989 0.312765628 0.259384364
v 0.419934094 0.304943621 0.258598417
v 0.420094967 0.300669044 0.263415873
v 0.420484722 0.292146027 0.257111818
v 0.420811176 0.283603579 0.25885129
v 0.422403872 0.280381709 0.260100394
v 0.423842818 0.27264449 0.259066731
v 0.423245013 0.267811269 0.257890046
v 0.424683928 0.260074317 0.256856441
v 0.426151663 0.252357543 0.255751282
v 0.425525069 0.247504145 0.254646152
v 0.426992774 0.239787385 0.253540993
v 0.428060979 0.231800944 0.253427088
v 0.42667219 0.22659792 0.262055397
v 0.42930162 0.219500437 0.250225574
v 0.429383665 0.215303048 0.255211234
v 0.430208892 0.207176283 0.255693346
v 0.43109709 0.199098185 0.256017387
v 0.431689292 0.195044354 0.251900434
v 0.43315497 0.187338337 0.250796825
v 0.433243394 0.17875649 0.253098458
v 0.434829861 0.175581455 0.254340172
v 0.434950292 0.16704303 0.256552309
v 0.433041751 0.157260194 0.263762265
v 0.435740173 0.154488459 0.254468977
v 0.436582625 0.146742821 0.262663692
v 0.438041627 0.139071807 0.261565089
v 0.437418759 0.134247169 0.260466516
v 0.438877761 0.126576155 0.259367913
v 0.440246969 0.118852012 0.258489937
v 0.442362815 0.111959532 0.263506472
v 0.44174087 0.107141972 0.262409478
v 0.443197727 0.099482201 0.261312485
v 0.444855839 0.0923689529 0.267418921
v 0.446733415 0.0889802426 0.260215521
v 0.448385477 0.0818849504 0.266323835
v 0.450104177 0.0743856132 0.26458475
v 0.452941686 0.0675002858 0.260122776
v 0.453634441 0.0638997182 0.263489455
v 0.456475288 0.0570045002 0.259026438
v 0.456222236 0.0489531644 0.269705802
v 0.457673907 0.0413207971 0.268612742
v 0.461261839 0.035364531 0.269952178
v 0.460642338 0.0305660013 0.268859535
v 0.463700622 0.0243427753 0.271468401
v 0.467838854 0.0180969518 0.26390478
v 0.471984535 0.0124288779 0.26390478
v 0.471364379 0.00762514537 0.262810946
v 0.475510061 0.00195707055 0.262810946
v 0.480258703 -0.00469705462 0.246253833
v 0.490918547 -0.000742840755 0.205342546
v 0.487215608 -0.00778338592 0.20394519
v 0.484823108 -0.00961591303 0.202012271
v 0.479357034 -0.0136138545 0.199792102
v 0.476482153 -0.0163510349 0.19124344
v 0.474033862 -0.0227927305 0.186766028
v 0.469482452 -0.0263529327 0.182258934
v 0.46568957 -0.0334487595 0.181069225
v 0.46703282 -0.0335008204 0.169859946
v 0.478602022 -0.0293782204 0.125253558
v 0.475182086 -0.036369931 0.122995399
v 0.568071067 0.0102913836 -0.131211594
v 0.56569171 0.0133703193 -0.130974814
v 0.565555155 0.0224976204 -0.133445591
v 0.563788652 0.0308441091 -0.131827429
v 0.560763001 0.0378630385 -0.13572666
v 0.559942782 0.0466896929 -0.136495024
v 0.556869924 0.049426619 -0.134518787
v 0.552291989 0.0556856394 -0.134518787
v 0.55068785 0.0641197115 -0.133310914
v 0.550505698 0.0732944012 -0.135708794
v 0.548161983 0.0763991773 -0.135575026
v 0.543283701 0.0825068504 -0.134820193
v 0.542440355 0.0913544446 -0.135553464
v 0.542329133 0.100607306 -0.138156816
v 0.535839319 0.105839677 -0.133290857
v 0.534700155 0.114539266 -0.133275986
v 0.532408416 0.11767257 -0.133275986
v 0.527893603 0.123977721 -0.133452579
v 0.527593493 0.133163452 -0.135604054
v 0.523042083 0.139456376 -0.135697365
v 0.524284959 0.145093068 -0.135922462
v 0.51969564 0.151367679 -0.135922462
v 0.519110143 0.160424441 -0.137358963
v 0.513861895 0.166313499 -0.135655925
v 0.512875855 0.175144359 -0.136062369
v 0.508603632 0.181617096 -0.136896566
v 0.507750154 0.190542534 -0.137656599
v 0.505452394 0.193684086 -0.137656599
v 0.50105077 0.200087711 -0.13816458
v 0.501547515 0.209878325 -0.142477572
v 0.496380568 0.215813205 -0.140993029
v 0.497690737 0.22154054 -0.141413629
v 0.493092686 0.22783643 -0.141425863
v 0.488533974 0.234157935 -0.141542181
v 0.488079697 0.243397728 -0.14339377
v 0.48676458 0.252082258 -0.142970219
v 0.48446092 0.255231857 -0.142970219
v 0.48049745 0.261963457 -0.144683257
v 0.479528457 0.270893395 -0.145187482
v 0.476004839 0.277942359 -0.148092628
v 0.475438416 0.287169814 -0.149683237
v 0.470606297 0.293334246 -0.149108931
v 0.473037213 0.299903274 -0.152553096
v 0.469048589 0.306671649 -0.154257149
v 0.46764794 0.315348715 -0.153628349
v 0.463397413 0.321942389 -0.154639632
v 0.46439302 0.332367003 -0.160484865
v 0.463353902 0.33646816 -0.163941905
v 0.458834022 0.342897862 -0.164264351
v 0.457804143 0.351887256 -0.164657757
v 0.45301646 0.358122557 -0.164258197
v 0.451536924 0.366782784 -0.163433239
v 0.446974397 0.373187929 -0.163647786
v 0.494004726 0.414078027 -0.289036125
v 0.492326856 0.422899902 -0.287772715
v 0.493043154 0.428448349 -0.286509305
v 0.488881201 0.435164452 -0.268718868
v 0.488624424 0.439929217 -0.264814645
v 0.487958699 0.449318886 -0.256604314
v 0.481176466 0.448868036 -0.234965011
v 0.465559483 0.441303998 -0.189347878
v 0.471007824 0.445245594 -0.185147107
v 0.471340567 0.445100248 -0.167190701
v 0.476923585 0.454210311 -0.169705898
v 0.466412842 0.455406338 -0.135331646
v 0.469557077 0.457716405 -0.134467527
v 0.466474056 0.459780514 -0.113935351
v 0.462489843 0.46131745 -0.100270703
v 0.458954483 0.462933958 -0.0787023753
v 0.459927589 0.468207479 -0.0691840276
v 0.462894857 0.470377773 -0.0679788068
v 0.45020774 0.464383632 -0.0225641709
v 0.441182166 0.461318344 0.0129775917
v 0.443603396 0.457873762 0.0300412048
v 0.444279194 0.45816502 0.0370006375
v 0.451981694 0.459097147 0.040158134
v 0.459363639 0.460013658 0.0355049409
v 0.465158552 0.464252114 0.0378586836
v 0.459260672 0.463797092 0.0644080713
v 0.460549325 0.464353085 0.0781229958
v 0.461951345 0.465004772 0.0914483517
v 0.466365576 0.468120992 0.0970764458
v 0.4692249 0.470212311 0.09823782
g path_000000
l 3 2 1 874 873 872 871
g path_000001
l 4 5 6 7 8 9 10
g path_000002
l 11 12 13 14 15 16 17 18 19
g path_000003
l 20 21 22 23 24 25 26 27 28 29 30 31 32 33 34 35 36 37 38 39 40 41 42 43 44 45 46 47 48 49 50 51 52 53 54 55
g path_000004
l 56 57 58 59 60 61 62 63 64 65 66 67 68 69 70 71 72 73 74 75 76 77 78 79
g path_000005
l 80 81 82 83 84 85 86 87 88 89 90 91 92 93 94 95 96 97 98 99 100 101 102 103 104 105 106 107 108 109 110 111 112 113 114 115 116 117 118 119 120 121 122 123 124 125 126 127 128 129 130 131 132 133 134 135 136 137 138 139 140 141 142 143 144 145 146 147 148 149 150 151 152 153 154 155 156 157 158 159 160 161 162 163 164 165 166 167 168 169 170 171 172
g path_000006
l 173 174 175 176 177 178 179
g path_000007
l 180 181
g path_000008
l 182 183 184 185 186 187
g path_000009
l 188 189 190 191 192 193
g path_000010
l 194 195 196 197 198 199 200
g path_000011
l 201 202 203 204
g path_000012
l 205 206 207
g path_000013
l 208 209
g path_000014
l 211 212 213 214 215 216 217 218 219
g path_000015
l 220 221
g path_000016
l 224 225 226 227 228 229
g path_000017
l 230 231 232 233 234 235 236 237 238 239 240 241 242
g path_000018
l 244 245 246
g path_000019
l 248 249
g path_000020
l 250 251 252 253
g path_000021
l 254 255 256
g path_000022
l 257 258 259 260
g path_000023
l 261 262
g path_000024
l 263 264 265 266
g path_000025
l 267 268 269 270 271 272 273 274 275 276 277 278 279 280 281 282 283 284 285 286 287 288 289 290 291 292
g path_000026
l 293 294
g path_000027
l 295 296
g path_000028
l 297 298
g path_000029
l 304 305 306 307 308 309 310 311 312 313 314 315 316 317 318 319 320 321
g path_000030
l 323 324
g path_000031
l 326 327 328 329 330
g path_000032
l 331 332 333 334
g path_000033
l 336 337 338 339
g path_000034
l 340 341 342 343 344 345 346 347 348 349
g path_000035
l 350 351 352 353
g path_000036
l 355 356 357
g path_000037
l 358 359 360
g path_000038
l 361 362
g path_000039
l 363 364
g path_000040
l 366 367 368
g path_000041
l 369 370 371 372 373 374 375 376 377 378
g path_000042
l 379 380 381 382 383 384 385 386 387 388 389 390 391 392 393 394 395 396 397 398
g path_000043
l 399 400
g path_000044
l 402 403 404 405 406 407 408
g path_000045
l 410 411 412 413 414
g path_000046
l 415 416 417 418 419 420 421 422 423 424 425 426 427 428 429 430 431 432 433 434 435 436 437 438 439 440 441 442
g path_000047
l 443 444 445 446 447 448 449 450
g path_000048
l 451 452 453 454 455 456 457 458 459 460 461 462 463 464 465
g path_000049
l 467 468 469 470 471 472 473 474 475 476 477 478 479 480 481 482 483 484 485 486 487
g path_000050
l 488 489 490 491 492 493 494 495 496 497 498 499 500 501 502 503 504 505 506 507 508 509 510 511 512 513 514
g path_000051
l 515 516
g path_000052
l 517 518 519 520 521 522 523 524
g path_000053
l 525 526 527 528
g path_000054
l 529 530
g path_000055
l 531 532
g path_000056
l 533 534 535 536 537
g path_000057
l 538 539
g path_000058
l 540 541
g path_000059
l 544 545
g path_000060
l 546 547 548 549 550 551 552 553 554 555 556 557 558 559
g path_000061
l 561 562
g path_000062
l 563 564
g path_000063
l 565 566 567 568
g path_000064
l 569 570
g path_000065
l 572 573 574 575 576 577 578
g path_000066
l 580 581
g path_000067
l 583 584
g path_000068
l 587 588 589 590 591 592 593 594
g path_000069
l 595 596 597 598 599 600 601 602 603 604 605 606 607 608 609 610
g path_000070
l 611 612 613 614 615 616
g path_000071
l 617 618
g path_000072
l 620 621 622
g path_000073
l 623 624 625 626 627 628 629 630 631 632 633 634 635
g path_000074
l 636 637 638 639 640 641 642 643 644 645 646 647 648 649 650 651 652 653 654 655 656 657 658 659 660 661 662 663 664 665 666 667 668 669
g path_000075
l 670 671 672 673 674 675 676 677 678 679 680 681 682 683 684 685 686 687 688 689 690 691 692 693 694 695
g path_000076
l 696 697 698 699 700 701
g path_000077
l 702 703 704 705
g path_000078
l 706 707 708 709 710 711
g path_000079
l 712 713 714 715 716 717 718 719 720 721 722 723 724 725 726 727 728 729 730 731 732 733 734 735 736 737 738 739 740 741 742 743 744 745 746 747 748 749 750 751 752 753 754 755 756 757 758 759 760 761 762 763 764 765 766 767 768 769 770 771 772 773 774 775 776 777 778 779 780 781 782 783 784 785 786 787 788 789 790 791 792 793 794 795 796 797 798 799 800 801 802 803 804 805 806 807 808 809 810 811 812 813 814 815 816 817 818 819 820 821 822 823 824 825 826
g path_000080
l 827 828 829 830 831 832 833 834 835 836 837 838 839 840
g path_000081
l 841 842 843 844 845
g path_000082
l 846 847 848 849 850 851 852 853 854 855 856 857 858 859 860 861 862 863 864 865 866 867 868 869 870
g path_000083
l 875 1034 1033 1032 1031 1030
g path_000084
l 876 877 878 879 880 881 882 883 884 885 886 887 888 889 890 891 892 893 894 895 896 897 898 899 900 901 902 903 904 905 906 907 908 909 910 911 912 913 914 915 916 917 918 919 920 921 922 923 924 925 926 927 928 929 930 931 932 933 934 935 936 937 938 939 940
g path_000085
l 941 942 943 944 945 946 947 948 949
g path_000086
l 950 951
g path_000087
l 952 953 954 955 956 957 958 959 960 961 962 963 964 965 966 967 968 969 970 971 972 973 974 975 976 977 978 979 980 981 982 983 984 985 986 987 988 989 990 991 992 993 994 995 996 997 998 999 1000 1001 1002 1003 1004
g path_000088
l 1005 1006 1007 1008 1009 1010 1011
g path_000089
l 1012 1013 1014 1015
g path_000090
l 1016 1017 1018 1019 1020 1021 1022
g path_000091
l 1024 1025 1026 1027 1028 1029
