# Fixed world centers; Z up; paths immutable
v 0.462330461 0.524225652 -0.0876518488
v 0.460626334 0.525019288 -0.0950568989
v 0.458922237 0.525812924 -0.102461942
v 0.457218111 0.52660656 -0.109866984
v 0.455514014 0.527400196 -0.117272027
v 0.453809917 0.528193831 -0.124677069
v 0.45210579 0.528987467 -0.13208212
v 0.45210579 0.528987467 -0.13208212
v 0.453809917 0.528193831 -0.124677069
v 0.455514014 0.527400196 -0.117272027
v 0.457218111 0.52660656 -0.109866984
v 0.458922237 0.525812924 -0.102461942
v 0.460626334 0.525019288 -0.0950568989
v -0.0406870842 0.667324305 1.04759073
v -0.0433543436 0.674584568 1.04449928
v -0.0174769368 0.673794031 1.04484868
v -0.0147136766 0.679578543 1.04182184
v -0.0099446224 0.684818268 1.03882039
v -0.00969348196 0.688090503 1.03577435
v -0.00640554493 0.69374305 1.0327487
v -0.00615958404 0.693813384 1.02971649
v -0.00169120356 0.699294031 1.02365923
v 0.0030909935 0.701496601 1.0176028
v 0.0034595211 0.701537251 1.01455963
v 0.00254331739 0.702060759 1.00846004
v 0.00673866132 0.701218367 1.00237393
v 0.0095210094 0.700754344 0.996266723
v 0.0106953047 0.697499275 0.990145206
v 0.0675505921 0.685677946 0.987006009
v 0.108677983 0.68145436 0.983807802
v 0.157160655 0.675438583 0.980519652
v 0.174315542 0.674429476 0.977269411
v 0.190381363 0.673887372 0.970778942
v 0.203520507 0.673986912 0.967484176
v 0.20203653 0.674678028 0.961035728
v 0.221186891 0.673396409 0.954395771
v 0.249931276 0.669673383 0.947577357
v 0.24917978 0.670023382 0.944311798
v 0.24767676 0.670723379 0.937780559
v 0.264876068 0.670031309 0.930972874
v 0.263366193 0.670734525 0.924411893
v 0.26328522 0.67450583 0.917850912
v 0.279634923 0.670634151 0.9109115
v 0.324416369 0.66297555 0.903291702
v 0.323648989 0.663332939 0.89995712
v 0.349816978 0.660495162 0.892618358
v 0.348271817 0.661214828 0.885903895
v 0.346726626 0.661934435 0.879189432
v 0.345181435 0.662654042 0.872474968
v 0.371279091 0.659726977 0.868315399
v 0.37667793 0.658692896 0.861325324
v 0.377854437 0.658727288 0.854459107
v 0.377376616 0.659180164 0.84764421
v 0.381780803 0.658400059 0.840637386
v 0.38060993 0.659028709 0.83383435
v 0.394430846 0.655873001 0.826399684
v 0.394960791 0.656073868 0.819493234
v 0.407972127 0.653126538 0.812011003
v 0.413827926 0.651986122 0.804816127
v 0.405809075 0.650766492 0.798202515
v 0.409732729 0.65010947 0.791075289
v 0.42214492 0.647307217 0.783482432
v 0.424608529 0.64702183 0.776380956
v 0.414215446 0.646391749 0.769902349
v 0.425379992 0.643897533 0.762288749
v 0.433462918 0.642186403 0.754813969
v 0.419273883 0.642513692 0.748580277
v 0.425169647 0.641182899 0.74471575
v 0.435830057 0.638810515 0.737023592
v 0.416725844 0.640392065 0.731148899
v 0.435436308 0.635958791 0.722875297
v 0.442948252 0.634381831 0.715306997
v 0.411252856 0.639014006 0.713897109
v 0.439034432 0.632248461 0.704879045
v 0.443656057 0.631404221 0.697467446
v 0.437871993 0.629577458 0.690706313
v 0.443195164 0.628549159 0.683211744
v 0.408612162 0.633957207 0.682255268
v 0.441031247 0.625957847 0.67261517
v 0.403924286 0.632206023 0.668427587
v 0.439399987 0.623393357 0.658408999
v 0.446730822 0.621838689 0.650665641
v 0.431277752 0.622502148 0.644747555
v 0.447790921 0.618567646 0.636159301
v 0.421645194 0.622007549 0.631248057
v 0.441187561 0.61710757 0.625896633
v 0.446353078 0.616101861 0.618261814
v 0.436441243 0.61533457 0.611896634
v 0.443224519 0.613903403 0.604079783
v 0.401981264 0.621144593 0.604395151
v 0.439717263 0.611635566 0.59351337
v 0.401176065 0.618364096 0.590104759
v 0.439391434 0.608700216 0.579022765
v 0.451430053 0.605884254 0.570558667
v 0.43612197 0.606529951 0.56481576
v 0.446651548 0.604099274 0.556463718
v 0.410026938 0.610196531 0.556714654
v 0.442683965 0.601936638 0.545892537
v 0.405289531 0.608426869 0.542740881
v 0.441613585 0.599173844 0.531368911
v 0.401131421 0.606504023 0.5286991
v 0.41853264 0.602063417 0.52305001
v 0.439610243 0.596815705 0.513302088
v 0.413772672 0.600285351 0.509009659
v 0.439240694 0.593855977 0.498633951
v 0.409012675 0.598507285 0.494969338
v 0.443326235 0.589704633 0.483364582
v 0.404606253 0.596634865 0.480883241
v 0.430663794 0.589844644 0.473869652
v 0.441005945 0.58741051 0.465218395
v 0.430111587 0.586919844 0.459163696
v 0.437546283 0.585254312 0.450855345
v 0.401939392 0.591239154 0.451861531
v 0.433553457 0.583077908 0.440216899
v 0.407442451 0.586693525 0.436350614
v 0.434425831 0.579753101 0.425222635
v 0.408122092 0.583433688 0.421459317
v 0.42138496 0.580013692 0.415883124
v 0.442632616 0.574601114 0.405429542
v 0.417571396 0.577950597 0.40156275
v 0.439953625 0.572213233 0.390850037
v 0.409363598 0.57707864 0.387906611
v 0.435118467 0.570407033 0.376587898
v 0.396266192 0.57754302 0.375042021
v 0.413638324 0.572972298 0.368643194
v 0.444338113 0.564935625 0.356388777
v 0.403123379 0.572730184 0.355363607
v 0.440525532 0.562838733 0.341903359
v 0.398316413 0.570934534 0.341184646
v 0.412725627 0.567147315 0.335111409
v 0.438840002 0.560316443 0.323333651
v 0.40384537 0.566457748 0.321566492
v 0.433980584 0.558501184 0.308999985
v 0.4433496 0.556246638 0.299920022
v 0.429121166 0.556685984 0.29466629
v 0.442043483 0.553445041 0.284913659
v 0.394370168 0.562965631 0.289397806
v 0.424810618 0.554875791 0.276501507
v 0.447058022 0.549051285 0.264977396
v 0.41410175 0.554678321 0.26323995
v 0.436909109 0.548679411 0.251530796
v 0.453143507 0.544502437 0.24096477
v 0.431506068 0.546999037 0.237223372
v 0.444607526 0.543520212 0.230963439
v 0.453208804 0.541447818 0.221757457
v 0.439538896 0.541736424 0.216541544
v 0.449341208 0.539321721 0.207060009
v 0.455310196 0.537974834 0.198295966
v 0.445243895 0.537102342 0.196191624
v 0.451222003 0.535746396 0.187403396
v 0.45953083 0.533741772 0.17811206
v 0.455634981 0.531295359 0.170962617
v 0.459779769 0.5304479 0.162477657
v 0.454226255 0.52846247 0.15566723
v 0.461246103 0.526804209 0.146545693
v 0.455121398 0.524975657 0.139853165
v 0.465429097 0.522230744 0.133818403
v 0.46453023 0.522794187 0.126332715
v 0.4612526 0.520156503 0.119015135
v 0.457974941 0.517518818 0.111697555
v 0.463412017 0.516134143 0.106651001
v 0.464974284 0.516000509 0.0985976383
v 0.461688817 0.513356566 0.0912626237
v 0.456413835 0.511278987 0.0843791664
v 0.45784235 0.511177957 0.0763346255
v 0.454555959 0.508533299 0.068997547
v 0.453711718 0.508926451 0.0653290078
v 0.446051598 0.507534206 0.0590150319
v 0.462799758 0.506942749 0.0477160402
v 0.457442611 0.508623838 0.0451037809
v 0.455750793 0.509411752 0.0377520807
v 0.451486915 0.510932982 0.0310192481
v 0.448196113 0.508284748 0.0236722808
v 0.449268937 0.500333309 0.0187508333
v 0.429523826 0.50228399 0.0193084348
v 0.431760579 0.498044968 0.0106214304
v 0.448029816 0.497537494 -0.000783440075
v 0.445237607 0.498493612 -0.00398013601
v 0.442217112 0.49966538 -0.0110075325
v 0.440523624 0.500454068 -0.0183663759
v 0.448540568 0.502353132 -0.027796993
v 0.444328517 0.503866315 -0.034523204
v 0.440115005 0.505379498 -0.0412391834
v 0.453687578 0.505548656 -0.0482577458
v 0.450326979 0.506815732 -0.0552104823
v 0.439997911 0.510076642 -0.0603153184
v 0.452928066 0.51060015 -0.0711494312
v 0.451226652 0.511392534 -0.0785427019
v 0.446795434 0.512962759 -0.0851988345
v 0.443437725 0.514226794 -0.0921362117
v 0.465030789 0.512317538 -0.105459817
v 0.440331638 0.515572608 -0.103060842
v 0.435464412 0.517265856 -0.109567657
v 0.451908201 0.516817331 -0.121555656
v 0.45020321 0.517611384 -0.128964573
v 0.447414339 0.51871264 -0.136067018
v 0.442975044 0.520281494 -0.142695278
v 0.439183682 0.521666348 -0.149498463
v 0.437481195 0.522459209 -0.156896412
v 0.435778737 0.52325207 -0.164294347
v 0.43407625 0.524044931 -0.171692282
v 0.462126404 0.520361185 -0.187378392
v 0.431522548 0.525234282 -0.182789192
v 0.429820061 0.526027143 -0.190187126
v 0.428117603 0.526820004 -0.197585061
v 0.426415116 0.527612925 -0.204983011
v 0.421442598 0.529330015 -0.211388156
v 0.419741541 0.53012228 -0.218779996
v 0.418040454 0.530914485 -0.226171836
v 0.419605225 0.530784428 -0.23457475
v 0.418515027 0.531404436 -0.242163479
v 0.416812301 0.532197416 -0.249562562
v 0.415109545 0.532990456 -0.256961644
v 0.413406819 0.533783436 -0.264360726
v 0.409033358 0.53532958 -0.27090621
v 0.407331795 0.536122084 -0.278300285
v 0.475539237 0.525165677 -0.307259738
v 0.471925855 0.526337624 -0.310127705
v 0.471465856 0.526787877 -0.318055689
v 0.415217131 0.542840958 -0.307667345
v 0.411544651 0.548100233 -0.313898563
v 0.44089666 0.544186473 -0.331086069
v 0.439517736 0.544730783 -0.33464396
v 0.447853565 0.538790047 -0.346021414
v 0.438105971 0.541825771 -0.350797355
v 0.434081733 0.53932339 -0.358035117
v 0.440278888 0.541704655 -0.363617003
v 0.435572356 0.543336451 -0.370071828
v 0.443475068 0.545416296 -0.380296111
v 0.446255952 0.548763156 -0.384733886
v 0.448540449 0.548459947 -0.393615991
v 0.459019691 0.549864113 -0.404804438
v 0.436110944 0.55648917 -0.404885948
v 0.455015659 0.555422187 -0.415008903
v 0.469098061 0.555875123 -0.427537292
v 0.457478315 0.559377551 -0.431557864
v 0.473693699 0.551310837 -0.446090877
v 0.45520243 0.556700945 -0.447614849
v 0.461667746 0.555267036 -0.458109081
v 0.481283695 0.554235816 -0.472825378
v 0.48141101 0.554369926 -0.476979226
v 0.477348328 0.55181998 -0.484313935
v 0.464166045 0.551770329 -0.488276243
v 0.473639667 0.5493415 -0.49588865
v 0.471898168 0.546154737 -0.504084647
v 0.461895019 0.545078278 -0.505079687
v 0.472786933 0.542405486 -0.517397821
v 0.460215122 0.546203434 -0.520898819
v 0.465292871 0.54513526 -0.531062961
v 0.45765391 0.547571957 -0.536396027
v 0.462940037 0.546447575 -0.546670258
v 0.461194009 0.547260761 -0.554257393
v 0.465473682 0.54641521 -0.564184368
v 0.461797893 0.543585777 -0.567537069
v 0.46081537 0.540176868 -0.576081455
v 0.457410783 0.537437022 -0.583682477
v 0.456536174 0.53784436 -0.587482989
v 0.453169167 0.535094023 -0.595098913
v 0.453701705 0.531252205 -0.604272783
v 0.450883865 0.528343916 -0.612118483
v 0.452073336 0.528171897 -0.616755068
v 0.447457016 0.525767267 -0.623880208
v 0.444066852 0.522857964 -0.627337873
v 0.444376767 0.523091137 -0.635789156
v 0.440966517 0.520346701 -0.643402815
v 0.440500438 0.516764879 -0.652231932
v 0.441821188 0.516707301 -0.661126792
v 0.438405782 0.513958752 -0.668751955
v 0.437528402 0.514367342 -0.672564507
v 0.432928294 0.511957884 -0.679691494
v 0.432358205 0.512436032 -0.687814832
v 0.4289428 0.509687483 -0.695439994
v 0.428065419 0.510096133 -0.699252546
v 0.428632528 0.510247111 -0.707871675
v 0.425215095 0.507496953 -0.715501308
v 0.430007666 0.506430089 -0.725963056
v 0.428952575 0.5070467 -0.733911097
v 0.428210467 0.507573366 -0.741998792
v 0.425665647 0.504407823 -0.745821536
v 0.426373661 0.504515231 -0.75455302
v 0.425359756 0.505119801 -0.762533486
v 0.428828657 0.504431665 -0.772509038
v 0.427748501 0.505055904 -0.780475795
v 0.429094225 0.504981041 -0.789533794
v 0.430777341 0.504809439 -0.798757076
v 0.437232256 0.507341504 -0.809397757
v 0.522077978 0.487472653 -0.855702221
v 0.526401877 0.49439612 -0.851775944
v 0.527305424 0.493975312 -0.847849667
v 0.531629384 0.500898778 -0.84392333
v 0.534243107 0.504150093 -0.839997053
v 0.53766346 0.511494339 -0.839997053
v 0.540180326 0.519259393 -0.84392333
v 0.526401818 0.531330884 -0.836195111
v 0.528908074 0.539063275 -0.840104878
v 0.529711306 0.543138981 -0.844014645
v 0.529614806 0.547633708 -0.851834178
v 0.530418038 0.551709414 -0.855743945
v 0.528618515 0.552547455 -0.863563478
v 0.521451116 0.558939993 -0.868146241
v 0.501820385 0.564561784 -0.867750525
v 0.500031948 0.5653947 -0.875522196
v 0.498243451 0.566227674 -0.883293867
v 0.501941681 0.569503903 -0.888528168
v 0.475891888 0.576814711 -0.884972692
v 0.477862477 0.576642454 -0.894462824
v 0.476081789 0.577471733 -0.902200639
v 0.47430113 0.578301013 -0.909938395
v 0.473082125 0.574910522 -0.918745399
v 0.469614297 0.572119832 -0.926487505
v 0.463292956 0.565850675 -0.929371238
v 0.458100259 0.563184619 -0.927688062
v 0.451489508 0.557011962 -0.930420816
v 0.446127594 0.550335586 -0.929459035
v 0.44718945 0.546133161 -0.935075164
v 0.477203637 0.538170159 -0.958231449
v 0.466639668 0.537324369 -0.962574005
v 0.469721198 0.536806762 -0.97273761
v 0.471106768 0.536760211 -0.98208797
v 0.46762535 0.533948362 -0.989886165
v 0.459964067 0.532136381 -0.991271853
v 0.455211729 0.525239646 -0.990596294
v 0.44742918 0.519370258 -0.992746651
v 0.444042951 0.512099326 -0.992746651
v 0.444543839 0.503711104 -0.994683683
v 0.443744481 0.499655068 -0.990792811
v 0.445546478 0.490711451 -0.989036202
v 0.44564262 0.486233592 -0.981245995
v 0.444960177 0.486120969 -0.972236395
v 0.44609201 0.485479146 -0.964127421
v 0.447883338 0.48464489 -0.956343353
v 0.457718372 0.477316201 -0.953295708
v 0.446357787 0.480491281 -0.943445742
v 0.431124955 0.480530083 -0.92825824
v 0.428581804 0.477006942 -0.923540771
v 0.422048748 0.47040233 -0.913419664
v 0.421254069 0.466370076 -0.909551561
v 0.419664711 0.458305508 -0.901815355
v 0.414703131 0.459650785 -0.895156324
v 0.418965489 0.449826419 -0.890210986
v 0.414004952 0.451184183 -0.883569181
v 0.414100289 0.446743906 -0.875844359
v 0.414195627 0.442303658 -0.868119597
v 0.414290965 0.43786338 -0.860394835
v 0.409425825 0.439211905 -0.853844643
v 0.41081658 0.434379816 -0.846733689
v 0.410911828 0.429944545 -0.83901763
v 0.410503775 0.429930925 -0.834560752
v 0.407227486 0.426541239 -0.825295806
v 0.401086539 0.428166837 -0.813964069
v 0.400939971 0.427936316 -0.805398881
v 0.402066499 0.423333496 -0.802426815
v 0.401919454 0.423105329 -0.79386723
v 0.403688639 0.422281384 -0.786179423
v 0.396235079 0.424326777 -0.774355292
v 0.397299707 0.423722714 -0.7663728
v 0.399064422 0.422900826 -0.758704305
v 0.395918816 0.423607677 -0.748865187
v 0.390707493 0.424958408 -0.738138378
v 0.39239499 0.424161434 -0.730461538
v 0.39415437 0.423342049 -0.722816288
v 0.39591375 0.422522664 -0.715171099
v 0.39767313 0.421703279 -0.707525849
v 0.39943251 0.420883894 -0.6998806
v 0.409750998 0.417395741 -0.695891023
v 0.415536374 0.415320158 -0.689938545
v 0.417301387 0.41449818 -0.682268918
v 0.42345348 0.412307352 -0.676445127
v 0.39800787 0.424059391 -0.656680882
v 0.399761975 0.42324248 -0.64905864
v 0.40151605 0.422425538 -0.641436398
v 0.405620307 0.420877159 -0.634782612
v 0.40879187 0.419618785 -0.627736509
v 0.40015927 0.426108629 -0.615194559
v 0.403294742 0.424863487 -0.608150065
v 0.415720761 0.420733511 -0.604848027
v 0.404126585 0.42813012 -0.59119612
v 0.405001134 0.427722812 -0.587395847
v 0.416341633 0.423938423 -0.583612919
v 0.423527539 0.421439379 -0.578144729
v 0.414850026 0.427923679 -0.565753937
v 0.428700656 0.423371792 -0.562885761
v -0.0890366137 0.579585791 -0.357104659
v -0.100174971 0.576186597 -0.361098647
v -0.102379456 0.573444307 -0.364410162
v -0.113385454 0.569922268 -0.364809632
v -0.115585215 0.567185879 -0.368114084
v -0.119984746 0.561713159 -0.374722958
v -0.129352778 0.561151385 -0.37155515
v -0.144225225 0.559055865 -0.373934627
v -0.19024469 0.570446193 -0.359547883
v -0.194961488 0.5650962 -0.362329185
v -0.197120413 0.562410593 -0.365572304
v -0.200691953 0.556691885 -0.368815392
v -0.212732553 0.553760648 -0.368597567
v -0.210716352 0.549705267 -0.373541534
v -0.211883932 0.543196738 -0.377767324
v -0.264258504 0.553797126 -0.360865831
v -0.265649587 0.550810158 -0.360865831
v -0.269166738 0.545178533 -0.364059538
v -0.276803672 0.540945709 -0.365540475
v -0.274809927 0.536902249 -0.37044695
v -0.280784547 0.532112658 -0.372612387
v -0.291852742 0.529089391 -0.372632325
v -0.320060074 0.535386443 -0.361367106
v -0.328391761 0.531592846 -0.365938276
v -0.330491096 0.528981388 -0.369091839
v -0.34912321 0.528742075 -0.365799189
v -0.355302274 0.527582884 -0.367193639
v -0.366353095 0.524746895 -0.367076427
v -0.378292441 0.525659263 -0.365972608
v -0.391133517 0.526991844 -0.367871016
v -0.426451355 0.536376119 -0.35996899
v -0.447146207 0.540587425 -0.358293086
v -0.447975069 0.540960014 -0.361295998
v -0.449382335 0.541615427 -0.367411137
v -0.441790223 0.542392135 -0.37691173
v -0.445394814 0.543832481 -0.382068604
v -0.449043632 0.545288503 -0.387196183
v -0.45355463 0.547052026 -0.391927689
v -0.451861113 0.54660064 -0.399439245
v -0.453269839 0.547256708 -0.405560762
v -0.454678565 0.547912776 -0.411682278
v -0.456087321 0.548568845 -0.417803794
v -0.457496047 0.549224973 -0.42392534
v -0.457055181 0.549221277 -0.430899918
v -0.458464772 0.549877763 -0.43702513
v -0.459874332 0.550534248 -0.443150312
v -0.4675107 0.550000072 -0.443599313
v -0.461709321 0.548077703 -0.453094959
v -0.461951703 0.548316896 -0.459773839
v -0.471266299 0.548462391 -0.462792814
v -0.467274964 0.547182262 -0.471480191
v -0.464634001 0.546386778 -0.479545742
v -0.474045575 0.546570301 -0.482480139
v -0.472135454 0.545958459 -0.486801207
v -0.468242168 0.544708908 -0.495496064
v -0.47099191 0.542496026 -0.501635075
v -0.472025305 0.543017268 -0.507959425
v -0.474775404 0.540804148 -0.514099181
v -0.476188332 0.541462183 -0.520238936
v -0.481308609 0.540035367 -0.521787167
v -0.482720107 0.540692747 -0.527920783
v -0.503348291 0.548314571 -0.524464607
v -0.506557941 0.549622595 -0.529653847
v -0.510861456 0.547999322 -0.534951866
v -0.512262523 0.548651814 -0.541040123
v -0.514387906 0.546167076 -0.544034064
v -0.515788913 0.546819568 -0.550122142
v -0.524888039 0.550276875 -0.552270174
v -0.519818187 0.545241475 -0.562349021
v -0.52657485 0.544523656 -0.566354871
v -0.519885123 0.53887248 -0.577322781
v -0.520586908 0.539199352 -0.580372334
v -0.523318827 0.537000835 -0.586471498
v -0.518952966 0.535528362 -0.595600367
v -0.523259163 0.533838093 -0.597459435
v -0.5198735 0.532721996 -0.60609889
v -0.517073989 0.528464615 -0.615157545
v -0.517587841 0.528789163 -0.621762812
v -0.514944673 0.524577379 -0.63078028
v -0.509567022 0.522712052 -0.640575826
v -0.514861286 0.521373928 -0.641900659
v -0.503525972 0.517281413 -0.654958367
v -0.500014424 0.516105294 -0.663815856
v -0.50771147 0.515717924 -0.667304277
v -0.504206717 0.514539242 -0.676181793
v -0.503922939 0.514564335 -0.68330586
v -0.498660862 0.512729883 -0.69319427
v -0.507405818 0.512665868 -0.692585528
v -0.50215137 0.510827243 -0.702494323
v -0.501816213 0.510831773 -0.709680617
v -0.49297142 0.507649422 -0.721657515
v -0.498727411 0.50652045 -0.726206541
v -0.497191995 0.506072819 -0.734106779
v -0.492353022 0.504384935 -0.743901074
v -0.485779345 0.502046227 -0.754715741
v -0.485493183 0.502068758 -0.761959672
v -0.485304892 0.502128124 -0.769155204
v -0.483360082 0.501528382 -0.777374327
v -0.478497267 0.499833763 -0.787303925
v -0.456193089 0.495003462 -0.803043067
v -0.45965144 0.496430635 -0.808198333
v -0.461106032 0.497108072 -0.814519227
v -0.463524431 0.498145998 -0.820272744
v -0.464978576 0.498823225 -0.826591671
v -0.470257282 0.500930607 -0.830641329
v -0.471808165 0.501643836 -0.836893678
v -0.465484858 0.502885461 -0.847030759
v -0.466940194 0.503563225 -0.853354752
v -0.472339064 0.505710542 -0.857303023
v -0.468473583 0.507876098 -0.866002738
v -0.476320833 0.510927975 -0.86844784
v -0.489618301 0.516003311 -0.867542684
v -0.477257997 0.514942944 -0.87783283
v -0.487360299 0.518821359 -0.878845751
v -0.494947821 0.525209606 -0.880523562
v -0.52669692 0.540397525 -0.863726497
v -0.526773572 0.543967426 -0.869937062
v -0.534195781 0.55353868 -0.867224216
v -0.517414629 0.554228425 -0.875922143
v -0.516775668 0.5574705 -0.879032254
v -0.517299771 0.564524472 -0.880583644
v -0.516661346 0.567763865 -0.883691132
v -0.529667556 0.572568715 -0.882702112
v -0.529743969 0.57612747 -0.888893306
v -0.534618378 0.578020155 -0.892922401
v -0.536041498 0.578682899 -0.899106503
v -0.535330832 0.578585625 -0.906637967
v -0.538189352 0.576385915 -0.912771523
v -0.537362635 0.576167822 -0.916843176
v -0.537650883 0.569662809 -0.9254812
v -0.541322231 0.564290166 -0.928415954
v -0.553278923 0.565239608 -0.921624899
v -0.557390928 0.560124516 -0.927801788
v -0.557582915 0.556884527 -0.932091951
v -0.556908786 0.549863696 -0.934264183
v -0.534517169 0.538335741 -0.956756413
v -0.532015502 0.537549734 -0.965557158
v -0.533453405 0.538219392 -0.971805274
v -0.538193345 0.53668642 -0.97678107
v -0.536970973 0.53630203 -0.981177509
v -0.53640312 0.536228716 -0.988747418
v -0.540741622 0.531050026 -0.991281629
v -0.545086563 0.529308498 -0.992907107
v -0.548997104 0.523914695 -0.992118239
v -0.551716506 0.518075585 -0.992118239
v -0.553391695 0.511838973 -0.99281168
v -0.552562535 0.504578888 -0.991567254
v -0.548225343 0.495895922 -0.989035666
v -0.547170877 0.491975218 -0.987025976
v -0.538565636 0.485066593 -0.986376584
v -0.53532505 0.483753711 -0.984889448
v -0.537386119 0.484440148 -0.976301372
v -0.536830842 0.484112144 -0.969437778
v -0.549503744 0.488914907 -0.953976572
v -0.576006234 0.49223873 -0.931372583
v -0.575293005 0.491906554 -0.928273439
v -0.572708249 0.483930528 -0.924565256
v -0.560187459 0.475514621 -0.929943025
v -0.553363383 0.469266623 -0.928043664
v -0.553286314 0.465675205 -0.921795607
v -0.552567363 0.465340376 -0.918671548
v -0.539648592 0.456646532 -0.920603812
v -0.538204551 0.455974013 -0.914328933
v -0.536760509 0.455301493 -0.908054054
v -0.535826445 0.451353192 -0.902318895
v -0.534502804 0.450728625 -0.895966411
v -0.53352046 0.450240135 -0.889401019
v -0.523855448 0.442799449 -0.889100909
v -0.523131073 0.442462116 -0.885953188
v -0.522212148 0.441999257 -0.879329383
v -0.52235806 0.441962272 -0.872050822
v -0.517979026 0.436620831 -0.868405938
v -0.517659366 0.436398983 -0.86141336
v -0.517788947 0.436357379 -0.854151964
v -0.51187253 0.43039009 -0.851409495
v -0.511381567 0.430146575 -0.848113716
v -0.511136353 0.429956019 -0.841078341
v -0.509685755 0.42928043 -0.834774852
v -0.512213051 0.430205822 -0.826084375
v -0.505441487 0.423885316 -0.823791742
v -0.506706715 0.424305946 -0.815864265
v -0.505256057 0.423630357 -0.809560716
v -0.507586718 0.424481392 -0.801022947
v -0.508258998 0.424663067 -0.793478966
v -0.508358181 0.424613476 -0.78628093
v -0.500658929 0.417956531 -0.788020909
v -0.499661952 0.417464644 -0.781450868
v -0.499614239 0.417357266 -0.774331868
v -0.498164088 0.416681886 -0.768030345
v -0.503215849 0.418640286 -0.757984579
v -0.504699528 0.419153601 -0.750015676
v -0.507925808 0.420373082 -0.741065204
v -0.508031368 0.420328438 -0.733911693
v -0.506588638 0.419656545 -0.727642536
v -0.505145907 0.418984652 -0.721373379
v -0.503703237 0.418312758 -0.715104222
v -0.504095435 0.418384492 -0.707808435
v -0.509585619 0.4205226 -0.697680652
v -0.509584606 0.420435339 -0.690631926
v -0.508744001 0.420007765 -0.684053838
v -0.507306397 0.419338256 -0.677806973
v -0.505868793 0.418668747 -0.671560049
v -0.504431248 0.417999238 -0.665313184
v -0.502993643 0.417329729 -0.659066319
v -0.501556039 0.416660219 -0.652819395
v -0.500118494 0.41599071 -0.64657253
v -0.499316365 0.415578902 -0.639984846
v -0.498567373 0.4151887 -0.633371651
v -0.517922997 0.426399678 -0.615353584
v -0.51649648 0.425735325 -0.60915482
v -0.516625643 0.425700307 -0.602136374
v -0.51522547 0.425046653 -0.595927358
v -0.515009761 0.42487222 -0.589099824
v -0.515805662 0.425107211 -0.581751764
v -0.525386155 0.428896993 -0.569865823
v -0.531501472 0.431285143 -0.559816301
v -0.53008604 0.430625945 -0.553665698
v -0.542800069 0.435685486 -0.540296614
v -0.543525875 0.435893416 -0.533089221
v -0.538396537 0.430325538 -0.529531777
v -0.542042613 0.431721419 -0.520854354
v -0.540634811 0.431065798 -0.51473695
v -0.549959064 0.434767514 -0.5032565
v -0.559179544 0.438427716 -0.491876423
v -0.538447618 0.426566005 -0.499443412
v -0.5477615 0.430276394 -0.488026649
v -0.560366035 0.43532747 -0.475039423
v -0.546283484 0.426119298 -0.475835443
v -0.548909068 0.427111298 -0.467775285
v -0.56086725 0.431915492 -0.455202997
v -0.565890014 0.433887362 -0.446042061
v -0.542701364 0.420982242 -0.454500884
v -0.553948879 0.425511211 -0.442333192
v -0.563727915 0.429439217 -0.430924058
v -0.567007542 0.430704951 -0.422655731
v -0.56402576 0.426039904 -0.417994469
v -0.563249469 0.425644696 -0.411661267
v -0.564306796 0.426002949 -0.40447098
v -0.561169505 0.421270519 -0.399863631
v -0.55977875 0.420622796 -0.393819988
v -0.547628105 0.412195116 -0.396720976
v -0.546231329 0.411544621 -0.390651464
v -0.540513873 0.402323455 -0.387783319
v -0.541138768 0.399152547 -0.384741515
v -0.541763723 0.39598164 -0.381699711
v -0.539474607 0.388184994 -0.380595595
v -0.541427195 0.382160693 -0.377549499
v -0.542053044 0.378985286 -0.374503374
v -0.544005632 0.372960985 -0.371457279
v -0.542052329 0.36529088 -0.3735542
v -0.542679071 0.362110615 -0.370503396
v -0.543503523 0.355612874 -0.371336877
v -0.543786526 0.348849446 -0.369044006
v -0.545200825 0.342592537 -0.36961031
v -0.547159553 0.336549371 -0.366554677
v -0.547611833 0.329859823 -0.367557883
v -0.544245362 0.321468294 -0.370298147
v -0.547851026 0.319596201 -0.365884423
v -0.547544122 0.312542766 -0.367234081
v -0.550213337 0.306811333 -0.367234081
v -0.552882612 0.301079929 -0.367234081
v -0.554846704 0.295020103 -0.364170015
v -0.55277431 0.287127495 -0.366324514
v -0.553807259 0.280635387 -0.367070645
v -0.556482196 0.274891704 -0.367070645
v -0.559157133 0.269148022 -0.367070645
v -0.56183207 0.26340434 -0.367070645
v -0.561398566 0.256207496 -0.368489444
v -0.561837792 0.249406114 -0.369512051
v -0.564517558 0.243652105 -0.369512051
v -0.567197323 0.237898111 -0.369512051
v -0.569877088 0.232144117 -0.369512051
v -0.572556853 0.226390108 -0.369512051
v -0.571154416 0.218669906 -0.371385366
v -0.573837817 0.212908 -0.371385366
v -0.576521277 0.207146078 -0.371385366
v -0.577302396 0.20045431 -0.37226072
v -0.579987526 0.194688693 -0.37226072
v -0.582170725 0.188675299 -0.372492105
v -0.584580243 0.182771772 -0.37261951
v -0.5863204 0.176533297 -0.373056263
v -0.584627867 0.172108069 -0.377875298
v -0.589660347 0.167507619 -0.376789391
v -0.592348337 0.161735907 -0.376789391
v -0.595036387 0.155964196 -0.376789391
v -0.595950246 0.149288982 -0.377614141
v -0.598639905 0.143513799 -0.377614141
v 0.585778832 -0.472670794 -0.94007957
v 0.582892358 -0.476261348 -0.94441551
v 0.581824601 -0.47581017 -0.953525186
v 0.589143813 -0.47968182 -0.966615379
v 0.588888109 -0.479649484 -0.976140141
v 0.580208063 -0.480312377 -0.982545614
v 0.575767219 -0.483158946 -0.990967929
v 0.571866691 -0.486177832 -0.990000129
v 0.567086279 -0.49383226 -0.994340956
v 0.562943637 -0.501762688 -0.994166255
v 0.561623335 -0.511116624 -0.9905321
v 0.561235845 -0.515971184 -0.991258919
v 0.569283664 -0.525164962 -0.986392677
v 0.577084363 -0.534246862 -0.981374264
v 0.576385498 -0.533747137 -0.971364141
v 0.578390956 -0.534681082 -0.962649643
v 0.556960404 -0.52824676 -0.943763912
v -0.618434846 0.0926964879 -0.385904133
v -0.618809581 0.0892371014 -0.389792204
v -0.621504903 0.083449699 -0.389792204
v -0.624200225 0.0776622891 -0.389792204
v -0.626895547 0.0718748793 -0.389792204
v -0.630138636 0.0663297921 -0.392964303
v -0.632998168 0.0606316701 -0.392886192
v -0.635693491 0.0548442602 -0.392886192
v -0.631047666 0.0449492075 -0.39983049
v -0.635853171 0.0403101183 -0.398824245
v -0.638722658 0.0346046761 -0.398743451
v -0.638518631 0.0307730716 -0.402933061
v -0.641221464 0.0249696095 -0.402933061
v -0.643924236 0.0191661455 -0.402933061
v -0.647200167 0.0136155915 -0.406103671
v -0.649903059 0.00781184621 -0.406103671
v -0.65180397 0.00147609424 -0.409941763
v -0.653737485 -0.00109503279 -0.409659654
v -0.656613946 -0.00680153444 -0.40957576
v -0.649514019 -0.0183392074 -0.417805463
v -0.653464258 -0.0234493297 -0.417202115
v -0.652639508 -0.0314143226 -0.422397763
v -0.653997719 -0.034330599 -0.422397763
v -0.660961628 -0.0376755558 -0.420315653
v -0.660147965 -0.0456615239 -0.42551589
v -0.662864327 -0.0514940768 -0.42551589
v -0.665825069 -0.0571815893 -0.425395459
v -0.669014573 -0.0628250018 -0.428634018
v -0.671730876 -0.0686575547 -0.428634018
v -0.669701278 -0.0773435608 -0.430985123
v -0.667817771 -0.0823177695 -0.436077237
v -0.670542359 -0.0881680474 -0.436077237
v -0.673266947 -0.0940183178 -0.436077237
v -0.675991535 -0.0998685956 -0.436077237
v -0.678716123 -0.105718866 -0.436077237
v -0.6745435 -0.11581558 -0.439520389
v -0.677274644 -0.121679962 -0.439520389
v -0.680005789 -0.127544343 -0.439520389
v -0.680059195 -0.135078579 -0.440860987
v -0.682070732 -0.141284779 -0.437722921
v -0.681305885 -0.149354741 -0.43947348
v -0.683319926 -0.15556854 -0.43633157
v -0.680941105 -0.16087836 -0.438204706
v -0.682957768 -0.16710031 -0.435058683
v -0.684974492 -0.17332226 -0.431912631
v -0.685533702 -0.180604711 -0.433000803
v -0.686180532 -0.183886781 -0.429852366
v -0.686078966 -0.191480026 -0.42775768
v -0.687184453 -0.194468573 -0.424379587
v -0.68685019 -0.202225432 -0.4223952
v -0.679965794 -0.214395508 -0.427170575
v -0.681993663 -0.220652029 -0.424007058
v -0.684749603 -0.226569504 -0.424007058
v -0.683649123 -0.235029638 -0.42591995
v -0.685289025 -0.237678424 -0.42226252
v -0.682631016 -0.247195035 -0.424946576
v -0.684664786 -0.253469735 -0.421773851
v -0.681364 -0.259414852 -0.42055282
v -0.682669401 -0.266038716 -0.414198607
v -0.681402206 -0.270639479 -0.411963761
v -0.682990193 -0.277230293 -0.409004986
v -0.68364346 -0.280544996 -0.405825257
v -0.677494526 -0.292228371 -0.403096616
v -0.677335918 -0.296261042 -0.403850496
v -0.676215291 -0.304728031 -0.40220058
v -0.678262234 -0.311043411 -0.399007291
v -0.678918302 -0.314372212 -0.395814002
v -0.679547966 -0.321663618 -0.393306583
v -0.671998739 -0.334783792 -0.398311645
v -0.67265743 -0.338126302 -0.395105243
v -0.675450683 -0.344123989 -0.395105243
v -0.675112426 -0.352136612 -0.393055171
v -0.668199837 -0.364944845 -0.397749752
v -0.58128047 -0.434296817 -0.444871396
v -0.58204484 -0.433940828 -0.448192865
v -0.58357352 -0.43322888 -0.454835773
v -0.586548984 -0.435623378 -0.46147868
v -0.588077724 -0.4349114 -0.468121588
v -0.591053188 -0.437305897 -0.474764526
v -0.592581868 -0.43659395 -0.481407434
v -0.591951191 -0.437409669 -0.48913449
v -0.593481004 -0.436697185 -0.495782256
v -0.595010877 -0.435984701 -0.502430022
v -0.596540689 -0.435272247 -0.509077847
v -0.599217594 -0.433747709 -0.515138209
v -0.599600375 -0.433847278 -0.522373378
v -0.600702047 -0.433438033 -0.529242635
v -0.602232099 -0.432725459 -0.535891354
v -0.596429825 -0.432879269 -0.541881442
v -0.597962558 -0.432165444 -0.548541784
v -0.599495292 -0.431451619 -0.555202127
v -0.604928434 -0.427978814 -0.559801757
v -0.60111022 -0.426909387 -0.568522751
v -0.602642953 -0.426195562 -0.575183094
v -0.604175687 -0.425481737 -0.581843436
v -0.590321779 -0.431479007 -0.596001029
v -0.59378016 -0.429224789 -0.597897291
v -0.595318735 -0.428508222 -0.604583144
v -0.598367512 -0.42672646 -0.61044687
v -0.594254375 -0.425839394 -0.619422734
v -0.59579438 -0.425122172 -0.626114666
v -0.597334385 -0.424404979 -0.632806599
v -0.59887439 -0.423687756 -0.639498532
v -0.600414395 -0.422970563 -0.646190464
v -0.601954401 -0.42225334 -0.652882397
v -0.595708013 -0.422858655 -0.663129568
v -0.594753146 -0.423897445 -0.671245635
v -0.595068157 -0.424043357 -0.67865473
v -0.596613407 -0.423323691 -0.685369551
v -0.59809649 -0.422647774 -0.692119956
v -0.5996418 -0.421928108 -0.698834896
v -0.598839521 -0.422861487 -0.706904888
v -0.600386083 -0.422141224 -0.713625252
v -0.601932585 -0.421420962 -0.720345557
v -0.592747986 -0.423890173 -0.728661299
v -0.592566013 -0.424386442 -0.736416519
v -0.592508435 -0.424795657 -0.744107544
v -0.594061196 -0.424072504 -0.750854969
v -0.595613956 -0.423349351 -0.757602334
v -0.597166717 -0.422626197 -0.764349699
v -0.592742503 -0.426109701 -0.774677336
v -0.594298363 -0.425385088 -0.78143841
v -0.595854282 -0.424660474 -0.788199484
v -0.602670372 -0.424424917 -0.792660892
v -0.600438595 -0.426372916 -0.801721632
v -0.598369122 -0.428207338 -0.81070286
v -0.599926949 -0.42748183 -0.817472279
v -0.606936336 -0.426919729 -0.817924201
v -0.60373801 -0.429559171 -0.827626407
v -0.604990542 -0.42904973 -0.834585726
v -0.608327985 -0.431273729 -0.841165245
v -0.609580934 -0.430764467 -0.848125935
v -0.612138987 -0.43335107 -0.851319373
v -0.611919284 -0.433889478 -0.859211802
v -0.6157794 -0.435742348 -0.865460992
v -0.618950546 -0.438084602 -0.87214452
v -0.612587929 -0.443017155 -0.883988202
v -0.621800601 -0.440851212 -0.882919133
v -0.625657856 -0.442702115 -0.889161646
v -0.628999293 -0.444921285 -0.895733416
v -0.621711493 -0.450359315 -0.904357135
v -0.624424934 -0.453042895 -0.911360621
v -0.632623315 -0.456004113 -0.915739357
v -0.635955095 -0.458032846 -0.91842401
v -0.638211608 -0.460839808 -0.921813667
v -0.641248167 -0.463283449 -0.92859298
v -0.645761132 -0.468897372 -0.935372353
v -0.642116964 -0.476029575 -0.942698598
v -0.635309577 -0.481438488 -0.955098867
v -0.636780381 -0.480779469 -0.961976886
v -0.638348281 -0.480049282 -0.968789876
v -0.639723003 -0.479460746 -0.975733817
v -0.640548646 -0.479275197 -0.983052611
v -0.643636525 -0.481494486 -0.985901058
v -0.647333622 -0.483474821 -0.99227196
v -0.654615998 -0.486652881 -0.989310861
v -0.655969143 -0.490144312 -0.993338168
v -0.661317766 -0.494732171 -0.991695762
v -0.665605724 -0.500098526 -0.990781128
v -0.668565452 -0.506453633 -0.990781128
v -0.670431852 -0.513632357 -0.991536319
v -0.670808375 -0.521717012 -0.989381135
v -0.66828537 -0.527474582 -0.984256566
v -0.666390598 -0.528452754 -0.977673769
v -0.667089999 -0.532001436 -0.974269569
v -0.665523171 -0.532731116 -0.967461169
v -0.666833103 -0.531278729 -0.958701074
v -0.702233315 -0.5127092 -0.932784379
v -0.709214211 -0.511414707 -0.925165892
v -0.71136421 -0.518047988 -0.921811879
v -0.700262487 -0.534868002 -0.927408218
v -0.700954795 -0.538380742 -0.92403847
v -0.702339411 -0.545406222 -0.917299032
v -0.704724669 -0.543324411 -0.911808491
v -0.703312218 -0.548223257 -0.905965328
v -0.690765321 -0.561761379 -0.907533467
v -0.689986944 -0.562123895 -0.904151142
v -0.68843019 -0.562848926 -0.897386432
v -0.684393883 -0.565495968 -0.892256677
v -0.682835817 -0.566221595 -0.885486066
v -0.679803193 -0.563781083 -0.878715515
v -0.676145852 -0.561822653 -0.872351348
v -0.673891723 -0.559018731 -0.868965328
v -0.673549473 -0.554745615 -0.864342093
v -0.664751887 -0.552426577 -0.860337853
v -0.667570412 -0.545976758 -0.857574522
v -0.661618233 -0.541703224 -0.855618417
v -0.661626339 -0.533127248 -0.85372293
v -0.654938877 -0.529397488 -0.852232039
v -0.651988864 -0.523063123 -0.852232039
v -0.647660613 -0.517760813 -0.853110611
v -0.651196837 -0.511065722 -0.853796363
v -0.634233356 -0.514736652 -0.854943871
v -0.629923463 -0.517726541 -0.853782356
v -0.631396055 -0.511917472 -0.844127655
v -0.629772663 -0.508417249 -0.836443663
v -0.628210187 -0.509144902 -0.829654098
v -0.627118409 -0.505470097 -0.825530946
v -0.624387741 -0.507061422 -0.81946969
v -0.626138091 -0.501079977 -0.809719563
v -0.624578178 -0.501806438 -0.802941084
v -0.623018265 -0.502532899 -0.796162605
v -0.621458352 -0.50325942 -0.789384186
v -0.624541104 -0.500564218 -0.779786289
v -0.622983694 -0.501289546 -0.773018599
v -0.62212503 -0.50150007 -0.765830278
v -0.620567977 -0.50222522 -0.759064198
v -0.619010925 -0.50295037 -0.752298117
v -0.620605528 -0.501355052 -0.743659675
v -0.625875294 -0.497055173 -0.732864022
v -0.618966758 -0.505964398 -0.730142117
v -0.624207914 -0.501888454 -0.72322464
v -0.624360263 -0.501354694 -0.715482295
v -0.648931026 -0.482823074 -0.693523109
v -0.622725844 -0.505951881 -0.702000439
v -0.652042925 -0.483885974 -0.677428663
v -0.621867001 -0.510187864 -0.691889048
v -0.63803041 -0.497810721 -0.674979687
v -0.626464486 -0.510168493 -0.674844444
v -0.653139055 -0.489986807 -0.652057052
v -0.630632818 -0.510453165 -0.658104599
v -0.659007609 -0.488978416 -0.634512186
v -0.638581395 -0.508128881 -0.643077075
v -0.661772013 -0.494649708 -0.623332322
v -0.662454009 -0.498110205 -0.620012701
v -0.658430755 -0.500682592 -0.614763916
v -0.635227799 -0.521990597 -0.624725819
v -0.666422546 -0.498256594 -0.599903762
v -0.660001576 -0.5026232 -0.595976949
v -0.653794289 -0.511019886 -0.592701793
v -0.637792766 -0.526990473 -0.598513901
v -0.640119433 -0.524810612 -0.589718401
v -0.63807863 -0.530120015 -0.584101737
v -0.639539123 -0.52858597 -0.575798035
v -0.644587934 -0.524360478 -0.565580904
v -0.638231575 -0.533125281 -0.566027462
v -0.643277705 -0.52889365 -0.555834293
v -0.63761735 -0.536923051 -0.552136779
v -0.636604667 -0.53724438 -0.545183897
v -0.642212927 -0.532583475 -0.534747899
v -0.651462734 -0.52518481 -0.522440851
v -0.660068572 -0.51827383 -0.510524929
v -0.660747588 -0.521719217 -0.507219791
v -0.67860353 -0.507827938 -0.490577132
v -0.678484023 -0.511631072 -0.484031111
v -0.6788674 -0.515273452 -0.480897874
v -0.669123113 -0.526367128 -0.479279846
v -0.671367884 -0.532781303 -0.475917459
v -0.665781856 -0.53658092 -0.471399635
v -0.667312145 -0.531022429 -0.466210574
v -0.669585168 -0.524692595 -0.45698598
v -0.660129786 -0.531407893 -0.45439443
v -0.658611953 -0.532114804 -0.447798967
v -0.662149668 -0.528997123 -0.438692093
v -0.660634577 -0.529702783 -0.432108194
v -0.646281064 -0.540116668 -0.431836605
v -0.643122077 -0.542063177 -0.426024169
v -0.647874594 -0.534075737 -0.419324249
v -0.643327236 -0.537067711 -0.41419214
v -0.649110138 -0.528104424 -0.40336737
v -0.641633689 -0.533296406 -0.399638951
v -0.648273885 -0.52370894 -0.388459206
v -0.640636206 -0.529012203 -0.384784967
v -0.624164045 -0.545131147 -0.385931253
v -0.636888564 -0.531176865 -0.375587046
v -0.642215073 -0.526746809 -0.365785182
v -0.640700459 -0.52745223 -0.359203637
v -0.643642545 -0.524814069 -0.350557804
v -0.634634852 -0.535299838 -0.348100692
v -0.633876383 -0.535653055 -0.344804853
v -0.658893049 -0.516425252 -0.326083332
v -0.662372231 -0.513382912 -0.317286581
v -0.66266048 -0.516853392 -0.310599506
v -0.657435417 -0.524478316 -0.30639559
v -0.65498656 -0.518072724 -0.306217551
v -0.65307641 -0.51559788 -0.310041219
v -0.636836708 -0.519276202 -0.312450945
v -0.628640592 -0.520827532 -0.308235466
v -0.611929178 -0.533065021 -0.31204924
v -0.601631522 -0.536136746 -0.308685243
v -0.596159101 -0.535816967 -0.306812584
v -0.595777571 -0.527551353 -0.302059293
v -0.580273151 -0.530436218 -0.30393368
v -0.566273093 -0.532149613 -0.305112958
v -0.610885501 -0.495116353 -0.281428963
v -0.621561706 -0.486903906 -0.269593298
v -0.620055914 -0.487605214 -0.263049811
v -0.625562489 -0.483178318 -0.253511727
v -0.611530483 -0.497352362 -0.25651142
v -0.610020638 -0.498055488 -0.249950707
v -0.608510852 -0.498758644 -0.243390009
v -0.607001066 -0.4994618 -0.236829311
v -0.605491221 -0.500164926 -0.230268613
v -0.603981435 -0.500868082 -0.223707899
v -0.601804256 -0.502059639 -0.21742171
v -0.600294113 -0.502762914 -0.210859522
v -0.597909927 -0.499992251 -0.204071835
v -0.597112656 -0.500175238 -0.197223127
v -0.627386928 -0.477680236 -0.177906841
v -0.621575236 -0.485600501 -0.173705891
v -0.611330688 -0.496981978 -0.174799502
v -0.59725523 -0.506889343 -0.173248962
v -0.587818623 -0.509277999 -0.169250652
v -0.573252797 -0.515387297 -0.16722104
v -0.562707126 -0.522877276 -0.167733535
v -0.545479059 -0.526712716 -0.16607365
v -0.537494063 -0.528146625 -0.164974719
v -0.519855201 -0.53634876 -0.163923576
v -0.509940445 -0.5391289 -0.163508639
v -0.486985892 -0.546869397 -0.16379714
v -0.479331315 -0.547956765 -0.162462249
v -0.451317638 -0.559164047 -0.16450125
v -0.4488298 -0.556501508 -0.161178097
v -0.437430531 -0.560181379 -0.161164179
v -0.416045725 -0.56646049 -0.160540059
v -0.405095011 -0.569746733 -0.160288334
v -0.380095631 -0.578428209 -0.160843432
v -0.369197696 -0.581598997 -0.160497487
v -0.357632935 -0.585213423 -0.160369515
v -0.331985176 -0.59412384 -0.160942674
v -0.319981515 -0.597962379 -0.160893127
v -0.297394186 -0.604571164 -0.160211489
v -0.291579008 -0.60422498 -0.161728367
v -0.261606783 -0.615796983 -0.163536996
v -0.256186962 -0.614936948 -0.16103375
v -0.247248471 -0.611886442 -0.155340806
v -0.229385957 -0.619526744 -0.157131687
v -0.202506542 -0.633287966 -0.161996871
v -0.191023603 -0.632003427 -0.160953015
v -0.168300703 -0.638122261 -0.15979977
v -0.159226328 -0.63959676 -0.158409819
v -0.144110411 -0.640622675 -0.158507407
v -0.130298764 -0.645232081 -0.158672988
v -0.114397392 -0.646678388 -0.158970073
v -0.0971628949 -0.648950338 -0.159677863
v -0.089142099 -0.649577081 -0.157818779
v -0.078530252 -0.647522569 -0.160272717
v -0.0693560764 -0.648872852 -0.158769831
v -0.0535115451 -0.650034964 -0.158913046
v -0.0414641164 -0.648641527 -0.157774895
v -0.0862780213 -0.614700377 -0.142527208
v -0.0911540166 -0.602334082 -0.135901421
v -0.0695512295 -0.607224345 -0.137917042
v -0.057367824 -0.605924964 -0.136830702
v -0.0909716263 -0.579693913 -0.125426441
v -0.0326396525 -0.607970715 -0.135226458
v -0.0691518635 -0.579988956 -0.122982249
v -0.0450809337 -0.586257339 -0.125677079
v -0.0407508276 -0.579850793 -0.122033805
v -0.0286998264 -0.578339159 -0.120835245
v -0.0402960926 -0.566487432 -0.116650216
v -0.0327541456 -0.562116683 -0.114025615
v -0.0299982671 -0.559216321 -0.11039757
v -0.0370806716 -0.545799553 -0.107161336
v -0.0269002989 -0.543069363 -0.105359368
v -0.00140299008 -0.549822509 -0.108299725
v 0.00063527067 -0.541952968 -0.103922993
v 0.00613914337 -0.540855944 -0.105122015
v -9.73544011e-05 -0.527902544 -0.0981991887
v -0.00397735834 -0.51657033 -0.0960080475
v -0.0207561646 -0.501727641 -0.0863934457
v 0.00429254351 -0.508090377 -0.0930713937
v 0.0217946656 -0.509650111 -0.0934324861
v 0.0199469235 -0.499585181 -0.0918802172
v 0.0189564619 -0.494405299 -0.0870979279
v 0.0208433922 -0.486620456 -0.0866864696
v 0.00652119983 -0.469052196 -0.0774097219
v 0.0395229012 -0.479823023 -0.0863736421
v 0.0360740796 -0.46875605 -0.0803703219
v 0.0508117974 -0.468555033 -0.0838103741
v -0.0447990745 -0.407746345 -0.0508197658
v -0.597257912 -0.0789249539 0.1208416
v -0.603648603 -0.0714535788 0.126385212
v -0.597492993 -0.0748901963 0.131100684
v -0.60199517 -0.068454951 0.139314741
v -0.599334896 -0.0662146732 0.145434543
v -0.597931325 -0.0668683425 0.151533589
v -0.598310888 -0.0628598854 0.158513516
v -0.597609818 -0.0631863773 0.16155982
v -0.596207738 -0.0638393536 0.167652428
v -0.596219242 -0.0600527376 0.174505472
v -0.594818473 -0.0607051104 0.180592418
v -0.59266758 -0.0617927611 0.186474517
v -0.59509635 -0.0566921495 0.19073005
v -0.593697369 -0.057343699 0.196809351
v -0.592298329 -0.0579952523 0.202888653
v -0.590899289 -0.0586468056 0.208967954
v -0.616492927 -0.0401005633 0.222494587
v -0.614057839 -0.0449277945 0.227899581
v -0.613860965 -0.0449633785 0.231041536
v -0.615094423 -0.0440930352 0.23774147
v -0.613709152 -0.0447381772 0.243760943
v -0.613634884 -0.0481982194 0.249780416
v -0.613963664 -0.0514240898 0.255901217
v -0.614581883 -0.0545611307 0.258910537
v -0.615818381 -0.0608352125 0.264929175
v -0.61643666 -0.0639722571 0.267938495
v -0.618313968 -0.0699542314 0.270935059
v -0.61640662 -0.0744941086 0.276505589
v -0.617025256 -0.0776331723 0.279516846
v -0.617643893 -0.080772236 0.282528102
v -0.608880579 -0.0930810869 0.282954663
v -0.606200159 -0.0981970727 0.285182208
v -0.615938187 -0.0958220661 0.293575495
v -0.609853804 -0.102880843 0.298184723
v -0.611451685 -0.0981350616 0.305236936
v -0.60733515 -0.100499257 0.307456106
v -0.609141111 -0.0992408171 0.314236373
v -0.601773381 -0.0998408049 0.319204301
v -0.603717864 -0.09498889 0.32312721
v -0.600899935 -0.092880547 0.32913807
v -0.600970268 -0.0890644044 0.335793823
v -0.598962784 -0.0865672454 0.338809401
v -0.588664532 -0.0853485465 0.34028551
v -0.583588839 -0.0810403228 0.342925012
v -0.582464218 -0.0780991018 0.342967272
v -0.577528477 -0.0736992732 0.345641643
v -0.578573823 -0.0659080595 0.346443474
v -0.578124225 -0.0589964353 0.346918583
v -0.577482581 -0.0522055961 0.347351074
v -0.577871382 -0.0448353291 0.348006636
v -0.5770275 -0.0381812416 0.34839353
v -0.578751802 -0.030150054 0.346177071
v -0.57607162 -0.0245540794 0.346164316
v -0.568424821 -0.0217493717 0.345071197
v -0.576540351 -0.0137076238 0.343965232
v -0.565179408 -0.0129682347 0.342056721
v -0.559888542 -0.00881148409 0.341475487
v -0.574868679 0.00652200449 0.342162162
v -0.572965384 0.0090582082 0.345182717
v -0.564365745 0.011376339 0.343879938
v -0.5537135 0.0125984084 0.342133105
v -0.568448544 0.0277606323 0.349050462
v -0.560820878 0.0271758344 0.350835025
v -0.557543874 0.0324316472 0.350692779
v -0.54805702 0.034340363 0.349217743
v -0.570715785 0.0535485484 0.354639679
v -0.55719763 0.0533379726 0.35544166
v -0.573520839 0.0690185577 0.359474957
v -0.571618021 0.074992843 0.362740993
v -0.555071115 0.0697504506 0.362645805
v -0.56467849 0.0817700997 0.365215987
v -0.569577813 0.0913046673 0.369903147
v -0.568971515 0.0978892669 0.370316923
v -0.555677176 0.0979087949 0.371198565
v -0.55790782 0.102520555 0.371931314
v -0.564953446 0.113053478 0.373931348
v -0.568680406 0.121836759 0.375239611
v -0.567118824 0.127885789 0.375449747
v -0.553718567 0.127931416 0.376315355
v -0.55336529 0.134609237 0.3767744
v -0.551521003 0.140524447 0.376926005
v -0.549957991 0.146577597 0.377135158
v -0.548348665 0.152602911 0.377334446
v -0.563631177 0.167010427 0.377915442
v -0.558309138 0.171150371 0.37734744
v -0.550607681 0.174129218 0.376290768
v -0.547576964 0.179424554 0.376196265
v -0.545195818 0.185039416 0.376235396
v -0.543817103 0.191141024 0.376480222
v -0.541428983 0.196748525 0.376517624
v -0.551885247 0.20853439 0.376110077
v -0.549036086 0.210527927 0.37578702
v -0.546299338 0.215942934 0.37575087
v -0.543738186 0.221442327 0.37575087
v -0.541176975 0.226941735 0.37575087
v -0.551230788 0.238389373 0.375272304
v -0.543349981 0.241363913 0.374174327
v -0.540469527 0.246699348 0.37410748
v -0.544404447 0.255206525 0.375442296
v -0.53580755 0.25788331 0.374199867
v -0.527515709 0.260727435 0.373022169
v -0.528458416 0.267831147 0.373740733
v -0.534665465 0.274006367 0.372208446
v -0.535694778 0.281115085 0.372945696
v -0.533156276 0.286591858 0.372947752
v -0.52939266 0.291516304 0.372698009
v -0.525068998 0.296194851 0.372333676
v -0.528825998 0.304501384 0.370567083
v -0.525072038 0.309432358 0.370318264
v -0.52349782 0.315332055 0.370518595
v -0.536203802 0.324246436 0.370347023
v -0.524475038 0.325656563 0.368447542
v -0.517005384 0.328966141 0.367430508
v -0.525554299 0.339276493 0.366667062
v -0.516000807 0.341694862 0.365214229
v -0.518723965 0.349447191 0.363249153
v -0.522788465 0.357753456 0.361571789
v -0.513828635 0.357192576 0.359966546
v 0.489185274 -0.062252555 0.159488425
v 0.490078032 -0.062668331 0.163367823
v 0.492262334 -0.0636692345 0.171045497
v 0.48917371 -0.0580915101 0.18012695
v 0.490775019 -0.058844924 0.187910095
v 0.491273969 -0.0591312982 0.195910081
v 0.487722069 -0.0533729568 0.205025136
v 0.485665172 -0.0525803678 0.213497162
v 0.487442553 -0.0534081198 0.221220493
v 0.490486056 -0.0590594299 0.224351838
v 0.489399403 -0.0586736724 0.232622251
v 0.489494771 -0.0631141812 0.240347445
v 0.486736 -0.0663390681 0.248599216
v 0.487385839 -0.0709788352 0.252194196
v 0.485210091 -0.0744455531 0.260329247
v 0.48441726 -0.0784684047 0.264188319
v 0.482301474 -0.0862854421 0.272001296
v 0.481508762 -0.0903077573 0.275859833
v 0.481030166 -0.0944948494 0.283677995
v 0.485437959 -0.100776739 0.286625296
v 0.489553422 -0.106969267 0.293655038
v 0.49300915 -0.108528383 0.301101804
v 0.478978276 -0.0981072262 0.307795525
v 0.490013033 -0.102958627 0.313943356
v 0.493230939 -0.100070268 0.321706265
v 0.496689916 -0.0972866789 0.329428643
v 0.491825849 -0.0908815488 0.334501445
v 0.50089252 -0.0861880779 0.341576576
v 0.500286937 -0.0816009715 0.341944128
v 0.509055197 -0.0767291263 0.345077753
v 0.511154294 -0.0689731985 0.345279336
v 0.520197749 -0.0641912967 0.348378658
v 0.520267308 -0.0598991849 0.348634124
v 0.51360482 -0.04843577 0.346227139
v 0.511408031 -0.0389150716 0.34711054
v 0.514760017 -0.0317175724 0.34711054
v 0.50896436 -0.020701034 0.344582945
v 0.510636985 -0.0171096083 0.344582945
v 0.513982177 -0.00992675778 0.344582945
v 0.515652955 -0.00206235051 0.344849944
v 0.512464821 0.00776259089 0.345890701
v 0.489066392 0.0257016346 0.350147247
v 0.48980993 0.0338538215 0.350556523
v 0.50295192 0.0370525755 0.348994523
v 0.498547554 0.0471900441 0.354166418
v 0.482961297 0.0617653057 0.357147276
v 0.493654341 0.0658855885 0.359913945
v 0.501028121 0.0713284984 0.363211125
v 0.492703557 0.0787646472 0.364762157
v 0.495187223 0.0860972926 0.368810326
v 0.492912799 0.0953259468 0.369669676
v 0.486180961 0.106239386 0.371214479
v 0.499740571 0.105140515 0.37329492
v 0.499348253 0.113615826 0.37385875
v 0.495013833 0.123566099 0.375024021
v 0.493843406 0.132295549 0.375704318
v 0.492388755 0.141112998 0.376426905
v 0.494488269 0.148589432 0.376606524
v 0.492979586 0.157395408 0.377335399
v 0.493827254 0.165315256 0.377704501
v 0.490738481 0.1746649 0.378671587
v 0.494004399 0.18167749 0.378671587
v -0.521645129 0.557134628 0.536260068
v -0.520243943 0.55649364 0.541848838
v -0.521813571 0.559986293 0.548054039
v -0.520525336 0.559386313 0.553652048
v -0.521221578 0.562556982 0.559708416
v -0.526109576 0.564247906 0.563290536
v -0.525673389 0.563955009 0.568991303
v -0.524100959 0.5662992 0.5746997
v -0.522817194 0.565701365 0.580278277
v -0.52153343 0.565103471 0.585856795
v -0.524606586 0.569178462 0.589303851
v -0.524188161 0.568890691 0.594986796
v -0.522584736 0.568178594 0.600512922
v -0.523515344 0.571409047 0.606518626
v -0.521425962 0.570523798 0.611978948
v -0.521288514 0.573368132 0.617834151
v -0.52048403 0.573011518 0.620593548
v -0.518874466 0.57229799 0.626113176
v -0.518793106 0.575158358 0.631960154
v -0.517514586 0.574562967 0.637515962
v -0.521286964 0.578784943 0.643793225
v -0.520011067 0.578190744 0.649337471
v -0.518701255 0.580604136 0.655012548
v -0.518087208 0.58031553 0.657786191
v -0.516725957 0.579691172 0.663318992
v -0.517558396 0.582858086 0.669214904
v -0.516284406 0.582264721 0.674751043
v -0.516245902 0.585119128 0.680538416
v -0.515815139 0.584895074 0.683325291
v -0.514978409 0.584455729 0.688900232
v -0.515418291 0.587472916 0.694717228
v -0.514075935 0.586855888 0.700235605
v -0.51326865 0.589431226 0.705918431
v -0.511997819 0.588839412 0.711440682
v -0.511357963 0.591470122 0.71712923
v -0.511120677 0.591313303 0.71992439
v -0.510813892 0.591058195 0.725527287
v -0.50987947 0.593581736 0.7311759
v -0.509043992 0.593141794 0.736726046
v -0.508125424 0.595742643 0.739558697
v -0.506772578 0.595122635 0.745063066
v -0.505636632 0.597570956 0.750680327
v -0.504163802 0.596909523 0.756173372
v -0.502266705 0.599092603 0.761725962
v -0.500566959 0.601342618 0.76729095
v -0.499509633 0.600901484 0.770013511
v -0.497466713 0.603032529 0.775551319
v -0.495236635 0.60211134 0.780991554
v -0.494197935 0.604664683 0.783800185
v -0.491943777 0.603736043 0.78924185
v -0.489786893 0.605828047 0.794770896
v -0.486015648 0.607368946 0.800197542
v -0.484320045 0.606711566 0.802887321
v -0.481214941 0.60848242 0.808361948
v -0.47868973 0.610451102 0.813872576
v -0.474726915 0.608946145 0.819234908
v -0.473603129 0.611472487 0.822033763
v -0.46908319 0.61277014 0.827441633
v -0.464863449 0.614172518 0.83287257
v -0.461676359 0.613017917 0.835505247
v -0.454536617 0.613445938 0.840805948
v -0.451037407 0.615100861 0.846295238
v -0.449193716 0.617394269 0.849064767
v -0.437516183 0.616330087 0.854196012
v -0.435667008 0.61863035 0.856973767
v -0.428683788 0.619145215 0.862342298
v -0.426831931 0.621448815 0.865124106
v -0.418919772 0.621670306 0.870477021
v -0.411982954 0.625229537 0.875930727
v -0.403925151 0.6225034 0.878452182
v -0.400202394 0.627134264 0.884044409
v -0.384096473 0.624827325 0.88636452
v -0.37373367 0.627342224 0.891772807
v -0.3690705 0.625744879 0.894464195
v -0.365503013 0.630565643 0.897268653
v -0.361278415 0.632148623 0.900019467
v -0.340137184 0.631291151 0.90519017
v -0.32567057 0.629553616 0.910560906
v -0.322923958 0.62858516 0.913356543
v -0.315866172 0.629213572 0.91895175
v -0.313967228 0.631575704 0.921804309
v -0.302402526 0.630798936 0.927329779
v -0.300912619 0.633297563 0.930198193
v -0.296067268 0.634645581 0.935878992
v -0.282456338 0.636339366 0.941451609
v -0.274236977 0.633681834 0.944212079
v -0.270360351 0.638433218 0.949966371
v -0.268067926 0.640699863 0.952839315
v -0.253447026 0.639074028 0.95847249
v -0.24933432 0.640794873 0.961340547
v -0.238318324 0.643398702 0.967067301
v -0.224020377 0.638936222 0.969873428
v -0.213276938 0.64167279 0.975656986
v -0.211116418 0.644019783 0.97857064
v -0.189984247 0.643670142 0.984361351
v -0.175089464 0.639088273 0.987271667
v -0.171354696 0.644128919 0.990213692
v -0.135657743 0.636532128 0.993169069
v -0.155544847 0.642217696 0.999068201
v -0.142054558 0.641130447 1.00501716
v -0.136805326 0.642499149 1.01095772
v -0.131621778 0.644008279 1.01394379
v -0.0811758488 0.632217765 1.01726735
v -0.102222286 0.64452368 1.0230608
v -0.0813783407 0.638313353 1.02624941
v -0.0714983493 0.635185659 1.03236043
v -0.0691000074 0.640766501 1.03536224
v -0.0681466162 0.646638572 1.04134381
v -0.0691464916 0.649995565 1.04430842
v -0.0570760667 0.652918041 1.044451
v -0.044787176 0.655813098 1.04459655
v -0.0404825024 0.660869956 1.04763591
v -0.0427168868 0.664698541 1.04757941
v 0.37348792 0.4520863 -0.0627849475
v 0.208922923 0.494927585 -0.0192792434
v 0.20659025 0.492025882 -0.0227833185
v 0.185460046 0.491214216 -0.0215913244
v 0.146704331 0.495982796 -0.0155434385
v 0.144404188 0.493121594 -0.0189986471
v 0.114810959 0.495288223 -0.0189998746
v 0.11116901 0.492876232 -0.022054866
v 0.106889419 0.490786284 -0.0285784099
v 0.0998893529 0.489449114 -0.0306832455
v 0.0934618935 0.488053352 -0.0365826935
v 0.0824742094 0.488011122 -0.0375306346
v 0.0796533301 0.489143282 -0.0440002494
v 0.0615892969 0.49150601 -0.0465005226
v 0.446001947 0.372263104 -0.164821252
v 0.441172689 0.377971888 -0.166952267
v 0.442672908 0.385686964 -0.170443177
v 0.444308341 0.389198601 -0.170443177
v 0.440263748 0.398650795 -0.172311768
v 0.426949412 0.411101401 -0.175439939
v 0.428576112 0.414594293 -0.175439939
v 0.419050604 0.425797552 -0.179637998
v 0.39500016 0.437052161 -0.168097004
v 0.393980622 0.441049606 -0.159430787
v 0.397069186 0.439831316 -0.152443498
v 0.392847896 0.444938064 -0.146813214
v 0.391933829 0.444947034 -0.138681844
v 0.390777558 0.448967189 -0.13003388
v 0.392472953 0.448177576 -0.122666605
v 0.394168377 0.447387993 -0.115299329
v 0.386061758 0.453516752 -0.104747511
v 0.383811176 0.454065859 -0.100213304
v 0.384964406 0.453442425 -0.092725113
v 0.37528798 0.456118464 -0.0822694078
v 0.372556597 0.456679672 -0.0737494677
v 0.372646838 0.452477992 -0.0664397851
v -0.521671414 0.484589249 0.256542951
v -0.530825853 0.481708795 0.261203647
v -0.533336163 0.476318687 0.261203647
v -0.536150157 0.47104767 0.261277467
v -0.539081872 0.465824276 0.261380047
v -0.542081058 0.460629463 0.261499226
v -0.544590354 0.455241531 0.261499226
v -0.549083829 0.450648457 0.261983156
v -0.551591456 0.445264071 0.261983156
v -0.554761469 0.440188199 0.259104639
v -0.557269096 0.434803843 0.259104639
v -0.559420109 0.429273576 0.259016991
v -0.560744405 0.423401713 0.258725911
v 0.578690588 -0.0496321321 -0.0261308849
v 0.581279516 -0.0550493151 -0.0356320068
v 0.578668952 -0.0583715178 -0.0396326035
v 0.576820791 -0.0619645864 -0.0480470099
v 0.574310482 -0.0652854294 -0.056300234
v 0.571326375 -0.0684547946 -0.0602087453
v 0.585509479 -0.0787688941 -0.0727731138
v 0.589767873 -0.084996812 -0.0785768256
v 0.587477624 -0.0884419605 -0.0869497657
v 0.586397171 -0.092400372 -0.0956470892
v 0.583010137 -0.0954279304 -0.0994783342
v 0.580120683 -0.0986265019 -0.107705414
v 0.600556135 -0.107215859 -0.12173529
v 0.615111947 -0.108808838 -0.129478961
v 0.617126226 -0.109581016 -0.138642892
v 0.61364007 -0.108026654 -0.14631635
v 0.449691981 -0.0299280975 -0.104621716
v 0.452139735 -0.0222482663 -0.104362413
v 0.467735201 -0.0200471766 -0.10770914
v 0.564558864 -0.0514393821 -0.133307084
v 0.568040073 -0.0439644307 -0.133307084
v 0.575270355 -0.0380261429 -0.134332597
v 0.573843002 -0.0285417326 -0.132990152
v 0.568978727 -0.0176846609 -0.130711451
v 0.566472888 -0.00781494472 -0.129080072
v 0.56581074 0.001289248 -0.127954081
v 0.560238123 0.00799213443 -0.130183458
v 0.558188319 0.0176127031 -0.1286778
v 0.55898422 0.0260830969 -0.127951786
v 0.547611117 0.0393989757 -0.128104389
v 0.537320137 0.0522312187 -0.128532067
v 0.540750086 0.0595959798 -0.128532067
v -0.535713017 0.485161334 0.170656085
v -0.535046577 0.484850943 0.173552141
v -0.533552468 0.484167725 0.179300725
v -0.534569025 0.487650812 0.186060756
v -0.532420397 0.486714989 0.191628918
v -0.532953322 0.49005869 0.195173562
v -0.531622648 0.489438951 0.200955883
v -0.531242073 0.492372453 0.20731397
v -0.52971375 0.491676837 0.213040709
v -0.527759373 0.49400273 0.218981713
v -0.526429892 0.493383557 0.224758968
v -0.524506927 0.49577561 0.227647588
v -0.523214817 0.495170712 0.23343423
v -0.535647631 0.493526787 0.238972843
v -0.538493931 0.488221169 0.242101237
v -0.53908509 0.485221535 0.244978741
v -0.533624351 0.486181051 0.250022769
v -0.532961488 0.485872358 0.252903014
v -0.522336185 0.484898835 0.253654361
v -0.609396935 0.0624459386 0.268623412
v -0.613576353 0.057810355 0.272152215
v -0.563991249 0.0237228815 0.256126732
v -0.566622794 0.0180724729 0.256126732
v -0.554615855 0.00786749553 0.249622926
v -0.552665174 0.00310762366 0.242382139
v -0.550171494 0.00161497213 0.235318229
v -0.549680471 0.00122519652 0.228748322
v -0.554722667 0.000367526256 0.226475164
v -0.553109705 -0.00064402417 0.219611436
v -0.556409836 -0.00252326392 0.213669226
v -0.55723983 -0.00218682806 0.207428917
v -0.558167994 -0.00179613556 0.201212153
v -0.561369956 -0.00372963212 0.195246413
v -0.547670424 -0.011453961 0.185086101
v -0.546460211 -0.0122508053 0.178252578
v -0.551807165 -0.0129489703 0.176091179
v -0.550648391 -0.0137205059 0.169264436
v -0.551320016 -0.0134744281 0.162933856
v -0.557365775 -0.0138432458 0.15772903
v -0.555474699 -0.0150264101 0.150678873
v -0.556884825 -0.0143696927 0.144551381
v -0.562220216 -0.0150655173 0.142427236
v -0.560334444 -0.0162500329 0.135360152
v 0.197638273 -0.430755794 -0.0855172724
v 0.179518282 -0.411683649 -0.0793384463
v 0.22289598 -0.426552892 -0.0867435634
v 0.220592231 -0.416225821 -0.0851220265
v 0.25162527 -0.424076855 -0.0889023021
v 0.24442175 -0.415597558 -0.0863696635
v 0.23098506 -0.399229795 -0.0815872401
v 0.268230408 -0.410275757 -0.087079145
v 0.252301693 -0.392608702 -0.0816143304
v 0.241447821 -0.377753049 -0.0775937662
v 0.276545674 -0.391955763 -0.0828977749
v 0.288680434 -0.38934356 -0.085358277
v 0.272653013 -0.371766984 -0.0799016431
v 0.288447946 -0.371014118 -0.0792498216
v 0.31367594 -0.375213563 -0.0853523538
v 0.319654346 -0.369246483 -0.0860705897
v 0.310155064 -0.355212152 -0.0824707896
v 0.31056419 -0.346371889 -0.0816383809
v 0.308265179 -0.336148947 -0.0800534636
v 0.311190724 -0.328634948 -0.0799246207
v 0.311960131 -0.319980651 -0.0750623345
v 0.322186768 -0.320697665 -0.0774239525
v 0.330671817 -0.316035032 -0.0829806402
v 0.323156357 -0.3032251 -0.079954192
v 0.320159316 -0.297188342 -0.0745221227
v 0.326248914 -0.295800805 -0.0798722357
v 0.332787186 -0.290071517 -0.0766048431
v 0.328972876 -0.279231638 -0.0787514299
v 0.333933651 -0.272745997 -0.0791870058
v 0.335056216 -0.264358312 -0.0785620734
v 0.33954671 -0.257635891 -0.0788673162
v 0.346012026 -0.251874238 -0.0797163472
v 0.358857036 -0.249203771 -0.0823207423
v 0.356226742 -0.238992676 -0.0806626901
v 0.312712967 -0.213517308 -0.0723205507
v 0.321903318 -0.209128171 -0.0739310086
v 0.321587235 -0.200161055 -0.072918646
v 0.336323887 -0.198383078 -0.0760530606
v 0.343197554 -0.192824632 -0.0770187154
v 0.346564442 -0.185595244 -0.0770187154
v 0.354470521 -0.18049781 -0.0782654136
v 0.525493264 -0.251619846 -0.115694307
v 0.52646482 -0.252072394 -0.111672133
v 0.536370933 -0.256699502 -0.105770737
v 0.53301394 -0.250531942 -0.0958243161
v 0.540144563 -0.253855795 -0.0891508609
v 0.538559735 -0.248521864 -0.0839836299
v 0.538885415 -0.24408564 -0.075051479
v 0.546643615 -0.238506243 -0.0718817711
v 0.551940084 -0.231780678 -0.0680662543
v 0.48693642 -0.197392806 -0.0549966544
v 0.486507416 -0.192698285 -0.0502296984
v 0.488051593 -0.184422985 -0.0413329452
v 0.490691274 -0.181139395 -0.0373676904
v 0.490819067 -0.172244996 -0.0281341765
v -0.584860086 0.310396194 0.246696234
v -0.586028874 0.30434376 0.246352866
v -0.590022326 0.299571425 0.249794319
v -0.590422869 0.293161601 0.249258652
v -0.592954278 0.287726223 0.249258652
v -0.595269263 0.282190442 0.249204114
v -0.597800791 0.276754677 0.249204114
v -0.600174427 0.271244943 0.249164253
v -0.601335943 0.265163809 0.24881801
v -0.601439714 0.258576155 0.248203665
v -0.605834901 0.257343322 0.252070397
v -0.60699904 0.251255721 0.251725525
v -0.602491736 0.242447019 0.249948531
v -0.601290762 0.23519659 0.249003723
v -0.60383296 0.229737997 0.249003723
v -0.605778694 0.224003121 0.251940876
v -0.608320832 0.218544662 0.251940876
v -0.610787928 0.213049456 0.251921922
v -0.604372323 0.203180283 0.24965857
v -0.612377942 0.20378302 0.254449517
v -0.611922026 0.1968344 0.253693849
v -0.608258724 0.188274369 0.252128065
v -0.605390251 0.180083483 0.250760138
v -0.610917687 0.176113263 0.25461176
v -0.606125414 0.16692175 0.252762467
v -0.614072859 0.167576179 0.257542461
v -0.609288514 0.158363253 0.255700529
v -0.611847997 0.152867511 0.255700529
v -0.613731325 0.147056893 0.258638591
v -0.616290808 0.141561151 0.258638591
v -0.618174195 0.135750517 0.261576653
v -0.612858295 0.126195714 0.262722522
v -0.614141226 0.12344107 0.262722522
v -0.610165596 0.114506796 0.261091977
v -0.615307629 0.110377952 0.264851183
v -0.618707776 0.105344169 0.268173665
v -0.61677736 0.100886211 0.267377585
v -0.61897999 0.0952168927 0.270404756
v -0.618231118 0.0879261717 0.269584864
v -0.62012428 0.0820852667 0.272538245
v -0.612721026 0.0711853877 0.270079941
v -0.608103514 0.0652231574 0.268623412
v 0.456203371 0.0613522641 0.258503735
v 0.453668118 0.0539017953 0.262311935
v 0.461131394 0.0424938276 0.260344923
v 0.550029874 -0.00176838762 0.239429444
v 0.553938687 -0.00323441997 0.230595797
v 0.555800855 -0.00387431099 0.22212401
v 0.554972708 -0.00342854345 0.214148432
v 0.555962026 -0.00371596473 0.205820397
v 0.559403837 -0.00499261497 0.197005972
v 0.558198392 -0.00439433241 0.189080641
v 0.55735296 -0.00394124631 0.181081727
v 0.546708763 -0.00386792305 0.174697369
v 0.54640311 -0.00368928304 0.170679122
v 0.548663795 -0.00449324213 0.162056461
v 0.549359083 -0.00466403877 0.15373829
v 0.551905513 -0.00558313634 0.145027205
v 0.553032577 -0.00592819043 0.13659519
v -0.515978932 0.426324993 0.353810161
v -0.519753337 0.434309602 0.352108896
v -0.518932641 0.44038862 0.352467358
v -0.516418576 0.445786744 0.352467358
v -0.515036047 0.451632679 0.352706283
v -0.514702022 0.457886547 0.353166044
v -0.509945214 0.459159553 0.355453104
v -0.510316551 0.46568343 0.35605818
v -0.506908059 0.470675796 0.358892083
v -0.504812896 0.4761765 0.361998916
v -0.50375998 0.482073247 0.365318179
v -0.504135191 0.4853912 0.365654111
v -0.501209557 0.490503788 0.371595681
v -0.502582431 0.494136661 0.375140429
v -0.512084782 0.503937006 0.383565366
v -0.513266742 0.507470906 0.387043625
v -0.512152076 0.510075867 0.393047214
v -0.509628713 0.512209177 0.39578259
v -0.513232768 0.516575575 0.402697921
v -0.51085031 0.515624166 0.405216128
v -0.513733804 0.519711316 0.411965728
v -0.506994724 0.52026844 0.41389221
v -0.508665204 0.523893952 0.420395195
v 0.432504505 0.17044498 0.246660426
v 0.429784745 0.163181871 0.250455499
v 0.426857799 0.156074926 0.250394613
v 0.436415344 0.144242808 0.247999236
v 0.4356457 0.140337572 0.251745492
v 0.445105135 0.128476202 0.249376073
v 0.445358068 0.120093428 0.248718709
v 0.442623824 0.112778716 0.252540201
v 0.443039477 0.104311407 0.251854539
v 0.443239063 0.0958471522 0.255136251
v 0.450877011 0.0844561979 0.257053345
v 0.452116013 0.0797904432 0.256522357
v 0.458632052 0.0688453093 0.254714966
v 0.448047101 0.0687809736 0.260301828
g path_000000
l 7 6 5 4 3 2 1 13 12 11 10 9 8
g path_000001
l 15 14 1350 1349 1348 1347 1346 1345 1344 1343 1342
g path_000002
l 16 17 18 19 20 21 22 23 24 25 26 27 28
g path_000003
l 31 32 33 34 35
g path_000004
l 37 38 39 40 41 42 43
g path_000005
l 44 45
g path_000006
l 46 47 48 49
g path_000007
l 50 51 52 53 54 55 56 57 58 59 60 61 62 63 64 65 66 67 68 69 70 71 72
g path_000008
l 74 75 76 77
g path_000009
l 81 82 83 84
g path_000010
l 85 86 87 88 89
g path_000011
l 93 94 95 96
g path_000012
l 101 102
g path_000013
l 109 110 111 112
g path_000014
l 117 118
g path_000015
l 124 125
g path_000016
l 129 130
g path_000017
l 133 134 135 136
g path_000018
l 141 142 143 144 145 146 147 148 149 150 151 152 153 154 155 156 157 158 159 160 161 162 163 164 165 166 167 168 169 170 171 172 173 174 175 176 177 178 179 180 181 182 183 184 185 186 187 188 189 190
g path_000019
l 192 193 194 195 196 197 198 199 200 201
g path_000020
l 203 204 205 206 207 208 209 210 211 212 213 214 215 216
g path_000021
l 217 218 219
g path_000022
l 220 221
g path_000023
l 222 223 224 225 226 227 228 229 230 231 232
g path_000024
l 233 234 235 236 237 238 239
g path_000025
l 240 241 242 243 244 245 246 247 248 249 250 251 252 253 254 255 256 257 258 259 260 261 262 263 264 265 266 267 268 269 270 271 272 273 274 275 276 277 278 279 280 281 282 283 284 285 286
g path_000026
l 287 288 289 290 291 292 293 294 295 296 297 298 299 300 301 302 303 304
g path_000027
l 305 306 307 308 309 310 311 312 313 314 315
g path_000028
l 316 317 318 319 320 321 322 323 324 325 326 327 328 329 330 331 332 333 334 335 336 337 338 339 340 341 342 343 344 345 346 347 348 349 350 351 352 353 354 355 356 357 358 359 360 361 362 363 364 365 366 367 368
g path_000029
l 369 370 371 372 373 374 375 376 377 378 379 380 381 382
g path_000030
l 383 384 385 386 387 388 389 390
g path_000031
l 391 392 393 394 395 396 397
g path_000032
l 398 399 400 401 402 403 404
g path_000033
l 405 406 407 408 409 410 411 412
g path_000034
l 414 415 416 417 418 419 420 421 422 423 424 425 426 427 428 429 430 431 432 433 434 435 436 437 438 439 440 441 442 443
g path_000035
l 444 445 446 447 448 449 450 451 452 453 454 455 456 457 458 459 460 461 462 463 464 465 466 467 468 469 470 471 472 473 474 475 476 477 478 479 480 481
g path_000036
l 482 483 484 485 486 487 488 489 490 491 492 493 494 495 496 497
g path_000037
l 498 499 500 501 502 503 504 505 506 507 508 509 510 511 512 513 514 515 516 517
g path_000038
l 518 519 520 521 522 523 524 525 526 527 528 529 530 531 532 533 534 535
g path_000039
l 537 538 539 540 541 542 543 544 545 546 547 548 549 550 551 552 553 554 555 556 557 558 559 560 561 562 563 564 565 566 567 568 569 570 571 572 573 574 575 576 577 578 579 580 581 582 583 584 585 586 587 588 589 590
g path_000040
l 591 592 593 594 595 596 597 598 599
g path_000041
l 600 601 602 603 604 605 606
g path_000042
l 607 608 609 610 611 612 613
g path_000043
l 614 615 616 617 618 619 620 621 622 623 624 625 626 627 628 629 630 631 632 633 634 635 636 637 638 639 640 641 642 643 644 645 646 647 648 649 650 651 652 653 654 655 656 657 658 659 660 661 662 663 664 665 666 667 668 669
g path_000044
l 670 671 672 673 674 675 676 677 678 679 680 681 682 683 684 685
g path_000045
l 687 688 689 690 691 692 693 694 695 696 697 698 699 700 701 702 703 704 705 706 707 708 709 710 711 712 713 714 715 716 717 718 719 720 721 722 723 724 725 726 727 728 729 730 731 732 733 734 735 736 737 738 739 740 741 742 743 744 745 746 747 748 749 750 751 752 753 754 755 756 757 758 759
g path_000046
l 760 761 762 763 764 765 766 767 768 769 770 771 772 773 774 775 776 777 778 779 780 781 782 783 784 785 786 787 788 789 790 791 792 793 794 795 796 797 798 799 800 801 802 803 804 805 806 807 808 809 810 811 812 813 814 815 816 817 818 819 820 821 822 823 824 825 826 827 828 829 830 831 832 833 834 835 836 837 838 839 840 841 842 843 844 845 846 847 848 849 850 851 852 853
g path_000047
l 854 855 856
g path_000048
l 857 858 859 860 861 862 863 864 865 866 867 868 869 870 871 872 873 874 875 876 877 878 879 880 881 882 883 884 885 886 887 888 889 890 891 892 893 894 895 896 897 898 899
g path_000049
l 904 905
g path_000050
l 910 911 912
g path_000051
l 914 915 916
g path_000052
l 917 918 919 920 921 922 923 924 925 926 927 928 929
g path_000053
l 930 931 932 933 934 935 936 937 938 939 940 941 942 943 944 945 946 947 948 949
g path_000054
l 951 952 953 954 955 956
g path_000055
l 957 958 959 960 961 962 963 964
g path_000056
l 965 966 967 968 969 970
g path_000057
l 971 972 973 974 975 976 977 978 979 980 981 982 983 984
g path_000058
l 985 986 987 988 989 990 991 992 993 994 995
g path_000059
l 996 997
g path_000060
l 998 999 1000
g path_000061
l 1001 1002
g path_000062
l 1003 1004 1005
g path_000063
l 1006 1007
g path_000064
l 1008 1009
g path_000065
l 1010 1011 1012 1013
g path_000066
l 1014 1015
g path_000067
l 1016 1017 1018 1019 1020 1021 1022 1023 1024 1025 1026
g path_000068
l 1027 1028 1029 1030
g path_000069
l 1034 1035 1036 1037 1038 1039 1040 1041
g path_000070
l 1042 1043 1044 1045 1046
g path_000071
l 1048 1049 1050 1051 1052
g path_000072
l 1054 1055 1056
g path_000073
l 1058 1059 1060 1061 1062 1063 1064 1065 1066 1067 1068 1069 1070 1071 1072 1073
g path_000074
l 1074 1075 1076 1077 1078 1079 1080 1081 1082 1083 1084 1085 1086 1087 1088 1089 1090 1091 1092 1093 1094 1095 1096 1097 1098 1099 1100 1101 1102 1103 1104 1105 1106 1107 1108 1109 1110 1111 1112 1113 1114
g path_000075
l 1115 1116 1117 1118
g path_000076
l 1119 1120 1121 1122
g path_000077
l 1123 1124
g path_000078
l 1125 1126 1127 1128 1129 1130 1131 1132 1133 1134 1135 1136 1137 1138 1139 1140
g path_000079
l 1141 1142 1143 1144 1145 1146 1147 1148 1149 1150 1151 1152 1153 1154 1155 1156 1157 1158 1159 1160 1161 1162 1163 1164 1165 1166 1167 1168 1169 1170 1171 1172 1173 1174 1175
g path_000080
l 1176 1177 1178 1179 1180 1181 1182 1183 1184 1185 1186 1187 1188 1189 1190 1191 1192 1193 1194 1195 1196 1197 1198 1199 1200 1201 1202 1203 1204 1205 1206 1207 1208 1209 1210 1211 1212 1213 1214 1215 1216
g path_000081
l 1217 1218 1219 1220 1221 1222 1223 1224 1225 1226 1227 1228 1229 1230 1231 1232 1233 1234 1235 1236 1237
g path_000082
l 1238 1239 1240 1241 1242 1243 1244 1245 1246 1247 1248 1249 1250 1251 1252 1253 1254 1255 1256 1257 1258 1259 1260 1261 1262 1263 1264 1265 1266 1267 1268 1269 1270 1271 1272 1273 1274 1275 1276 1277 1278 1279 1280 1281 1282 1283 1284 1285 1286 1287 1288 1289 1290 1291 1292 1293 1294 1295 1296 1297 1298 1299 1300 1301 1302 1303 1304 1305 1306 1307 1308 1309 1310 1311 1312 1313
g path_000083
l 1314 1315 1316 1317 1318 1319 1320 1321 1322 1323 1324 1325 1326 1327 1328 1329 1330 1331
g path_000084
l 1332 1333 1334
g path_000085
l 1336 1337 1338 1339
g path_000086
l 1351 1386 1385 1384 1383 1382 1381 1380 1379 1378 1377 1376 1375 1374 1373
g path_000087
l 1352 1353 1354
g path_000088
l 1355 1356
g path_000089
l 1357 1358 1359 1360 1361 1362 1363 1364
g path_000090
l 1365 1366 1367 1368 1369 1370 1371 1372
g path_000091
l 1399 1398 1397 1396 1395 1394 1393 1392 1391 1390 1389 1388 1387 1450 1449 1448 1447 1446 1445 1444 1443 1442 1441 1440 1439 1438 1437 1436 1435 1434 1433 1432
g path_000092
l 1400 1401 1402 1403 1404 1405 1406 1407 1408 1409 1410 1411
g path_000093
l 1412 1413 1414 1415
g path_000094
l 1416 1417 1418
g path_000095
l 1419 1420 1421 1422 1423 1424 1425 1426 1427 1428 1429 1430 1431
g path_000096
l 1452 1451 1571 1570 1569 1568 1567 1566 1565 1564 1563 1562 1561 1560 1559 1558 1557 1556 1555 1554 1553 1552 1551 1550 1549 1548 1547 1546 1545 1544 1543 1542 1541 1540 1539 1538 1537 1536 1535 1534 1533 1532 1531 1530
g path_000097
l 1453 1454 1455 1456 1457 1458 1459 1460 1461 1462 1463 1464 1465 1466 1467 1468 1469 1470 1471 1472 1473 1474
g path_000098
l 1477 1478
g path_000099
l 1479 1480 1481
g path_000100
l 1483 1484
g path_000101
l 1485 1486
g path_000102
l 1487 1488
g path_000103
l 1489 1490 1491 1492 1493 1494 1495 1496 1497 1498 1499 1500 1501 1502 1503 1504 1505 1506 1507 1508
g path_000104
l 1509 1510 1511 1512 1513 1514 1515
g path_000105
l 1516 1517 1518 1519 1520 1521 1522 1523 1524
g path_000106
l 1525 1526 1527 1528 1529
g path_000107
l 1574 1573 1572 1625 1624 1623 1622 1621 1620 1619 1618 1617 1616 1615 1614 1613 1612
g path_000108
l 1575 1576 1577 1578 1579 1580 1581 1582 1583 1584 1585 1586 1587 1588
g path_000109
l 1589 1590 1591 1592 1593 1594 1595 1596 1597 1598 1599 1600 1601 1602 1603 1604 1605 1606 1607 1608 1609 1610 1611
