# Fixed world centers; Z up; paths immutable
v 0.36208117 -0.553834498 1.00172591
v 0.369814605 -0.576683164 0.996899724
v 0.363508493 -0.577451706 0.997138023
v 0.355580568 -0.575714171 0.997635424
v 0.34326759 -0.567216158 0.998832345
v 0.331599683 -0.559802711 0.999919713
v 0.322988242 -0.557171285 1.00051451
v 0.314901531 -0.555387735 1.0010227
v 0.307454497 -0.554618061 1.00142682
v 0.299880505 -0.553684831 1.00184882
v 0.295247495 -0.557252467 0.998982191
v 0.287335396 -0.555855036 0.999449372
v 0.280209929 -0.555674553 0.999792039
v 0.272789359 -0.555077136 1.00017858
v 0.265051037 -0.554033697 1.00061202
v 0.257752925 -0.553676188 1.00097549
v 0.250378221 -0.553231597 1.00134885
v 0.243555591 -0.553628683 1.00163555
v 0.239639893 -0.558346748 0.998627484
v 0.235925108 -0.558110833 0.998814523
v 0.227807209 -0.556653142 0.999290884
v 0.220616981 -0.556580961 0.999625325
v 0.21333769 -0.556403697 0.999971449
v 0.205683023 -0.555708766 1.00037181
v 0.198033899 -0.555050552 1.00076938
v 0.190242812 -0.5542171 1.00118601
v 0.182603419 -0.553630292 1.00157785
v 0.176133603 -0.55473721 1.00179482
v 0.171121493 -0.55796963 0.998912752
v 0.162481904 -0.556033611 0.999441981
v 0.154764667 -0.555434644 0.999834478
v 0.147458628 -0.555440605 1.00016534
v 0.141104832 -0.556801558 1.00035667
v 0.132984817 -0.555715621 1.00080204
v 0.126252964 -0.556587875 1.00104535
v 0.117481738 -0.554657102 1.00158012
v 0.109032094 -0.553207099 1.00206625
v 0.10796243 -0.5568887 0.99894315
v 0.101603493 -0.558340311 0.999126494
v 0.0932278633 -0.55705148 0.999593079
v 0.0852011368 -0.556270182 1.00000834
v 0.0772930682 -0.555678904 1.00040483
v 0.0698643401 -0.555762768 1.00073242
v 0.0618871674 -0.555131555 1.00113487
v 0.0541804582 -0.554891109 1.00149775
v 0.0457839929 -0.553754449 1.00195456
v 0.0402489305 -0.556526065 0.999065995
v 0.0319836661 -0.555614412 0.999496698
v 0.023909051 -0.554984748 0.999899268
v 0.016171759 -0.554827273 1.00025403
v 0.00742767286 -0.553373635 1.00074375
v 0.00107140501 -0.555075347 1.00090766
v -0.00669093989 -0.554956913 1.00126076
v -0.015461212 -0.553554654 1.00174809
v -0.0235804692 -0.553027928 1.00214553
v -0.0283645578 -0.556907237 0.999114096
v -0.0365948528 -0.556278408 0.999519348
v -0.0447281189 -0.55580169 0.999909818
v -0.0529396199 -0.555252135 1.00030875
v -0.0615348071 -0.554242611 1.00075626
v -0.0693366453 -0.554268003 1.00109768
v -0.0772665367 -0.554155231 1.00145411
v -0.0854925662 -0.553694606 1.00184762
v -0.093918778 -0.553009987 1.00226533
v -0.0950309262 -0.556648433 0.999058187
v -0.102061667 -0.557732522 0.999290228
v -0.111114599 -0.556322157 0.999780357
v -0.119720139 -0.555498719 1.000211
v -0.128092453 -0.55499208 1.00060987
v -0.13675563 -0.554155231 1.00104403
v -0.144361258 -0.55464226 1.00134182
v -0.15324831 -0.553586423 1.00180054
v -0.160975441 -0.55397141 1.0021106
v -0.166322112 -0.557366192 0.999073505
v -0.175313503 -0.556258202 0.999535441
v -0.183771402 -0.555823147 0.999929011
v -0.19209981 -0.555569828 1.00030482
v -0.201371759 -0.554214954 1.00079548
v -0.208319411 -0.555659413 1.00099719
v -0.21789974 -0.553994954 1.00152206
v -0.225193486 -0.555068135 1.00176382
v -0.230223015 -0.558941126 0.998651803
v -0.234207645 -0.559090734 0.998811603
v -0.244588822 -0.556580245 0.999421537
v -0.253756016 -0.555528104 0.99988234
v -0.262555957 -0.554934144 1.00029695
v -0.271504432 -0.554195702 1.00072753
v -0.279476017 -0.554614782 1.00103915
v -0.287862599 -0.554576755 1.00139904
v -0.296173602 -0.554649293 1.00174832
v -0.302719772 -0.556891859 0.998774886
v -0.311719358 -0.556220233 0.999198556
v -0.320794493 -0.55549103 0.999629259
v -0.330518097 -0.554056585 1.00013387
v -0.338702083 -0.554392219 1.00045669
v -0.338676542 -0.56397742 0.999822617
v -0.350563675 -0.560175717 1.00057471
v -0.361089766 -0.557943046 1.00116587
v -0.371018201 -0.556414306 1.00168538
v -0.379588813 -0.556425154 1.00204587
v -0.367493272 -0.579437017 0.996899307
v -0.376024425 -0.579461992 0.997253418
v -0.380892694 -0.583673537 0.994060099
v -0.377854675 -0.587150633 0.990591943
v -0.37824133 -0.591708958 0.984083235
v -0.380028665 -0.594584763 0.980858028
v -0.380613774 -0.598915219 0.974382818
v -0.382635981 -0.601528645 0.971187174
v -0.382348746 -0.606798232 0.964635253
v -0.381333888 -0.612848401 0.958024502
v -0.381999344 -0.617065549 0.951589763
v -0.378871918 -0.620601118 0.948176622
v -0.378733546 -0.625676513 0.941684783
v -0.381303877 -0.627670944 0.93855983
v -0.381411254 -0.632468939 0.932103455
v -0.380309492 -0.638559997 0.925554514
v -0.381055027 -0.642654836 0.919174075
v -0.377577305 -0.646538377 0.915782869
v -0.377409846 -0.65160048 0.909347236
v -0.380245507 -0.653290749 0.906255901
v -0.380789101 -0.657581329 0.899886608
v -0.380667865 -0.662574828 0.893477142
v -0.378686666 -0.664837778 0.890235186
v -0.378759533 -0.669612885 0.883857131
v -0.379299074 -0.673884571 0.877519906
v -0.381666958 -0.676059484 0.874403536
v -0.380587965 -0.682035565 0.867975712
v -0.386101872 -0.680880606 0.865054488
v -0.395893455 -0.679907382 0.85911572
v -0.384718239 -0.691981733 0.85228169
v -0.382488638 -0.699132502 0.845834255
v -0.381126165 -0.70071876 0.842674792
v -0.381229728 -0.705403686 0.836372197
v -0.385339022 -0.70573163 0.833356142
v -0.384144783 -0.71176523 0.827002168
v -0.382261306 -0.718505502 0.820634723
v -0.38297838 -0.722522855 0.814392686
v -0.39322871 -0.716467977 0.811611891
v -0.395287395 -0.718942225 0.808498621
v -0.396726072 -0.722216547 0.802273452
v -0.38029483 -0.739551902 0.795545638
v -0.380328804 -0.744246185 0.789321005
v -0.383994728 -0.745026052 0.786281228
v -0.383629054 -0.750123382 0.780054927
v -0.38327986 -0.755194724 0.773840964
v -0.3807818 -0.757923007 0.770714819
v -0.380897194 -0.762504339 0.764530659
v -0.383139521 -0.764738917 0.761459231
v -0.384604514 -0.767929316 0.755310297
v -0.385294944 -0.771908224 0.74915272
v -0.382625371 -0.779305756 0.742960274
v -0.379770309 -0.782376587 0.739870369
v -0.378911972 -0.787909627 0.733728588
v -0.381233126 -0.790041566 0.73067373
v -0.380374432 -0.795559108 0.724549472
v -0.380441517 -0.800129592 0.718441665
v -0.379732341 -0.801010311 0.715392113
v -0.380034 -0.80533582 0.709296942
v -0.380213886 -0.809777796 0.703210473
v -0.381785005 -0.812648714 0.700169742
v -0.382107496 -0.816936016 0.694095194
v -0.384418309 -0.819058478 0.691053927
v -0.383209199 -0.824869215 0.685005963
v -0.379139274 -0.829273045 0.678976953
v -0.378901005 -0.825581551 0.672864854
v -0.382499993 -0.826408923 0.66980654
v -0.382575899 -0.826665282 0.66371727
v -0.381889194 -0.827684462 0.657641292
v -0.316249162 -0.897797346 0.653185308
v -0.317886829 -0.904440224 0.653267324
v -0.325531125 -0.900810659 0.656110883
v -0.32606858 -0.908530235 0.656213522
v -0.324923635 -0.917879224 0.656353712
v -0.319635779 -0.931260109 0.656586766
v -0.321399242 -0.937663257 0.656660199
v -0.321141869 -0.946018338 0.656778693
v -0.323688835 -0.951442122 0.659760535
v -0.336484104 -0.947074771 0.65959543
v -0.344899505 -0.946992695 0.659523606
v -0.353491157 -0.94676286 0.659448326
v -0.360683948 -0.947899461 0.659402847
v -0.368194968 -0.94874543 0.659350872
v -0.374616832 -0.950646162 0.659321904
v -0.381691128 -0.95193547 0.659279406
v -0.380977243 -0.952964604 0.653388202
v -0.380790889 -0.953492403 0.647484183
v -0.38035509 -0.95425725 0.64158535
v -0.382070392 -0.956987798 0.635697186
v -0.379261732 -0.955822408 0.632749736
v -0.370792955 -0.955860734 0.63285768
v -0.36535278 -0.953024209 0.632870317
v -0.356314719 -0.953643143 0.632997036
v -0.364915043 -0.937475443 0.629600346
v -0.363462895 -0.939217985 0.623722136
v -0.359801829 -0.939038098 0.617836058
v -0.357272983 -0.937423825 0.617836058
v -0.351544708 -0.934845269 0.61786139
v -0.348724097 -0.929443657 0.617776632
v -0.343663216 -0.926213145 0.617776632
v -0.335755199 -0.925769925 0.617885053
v -0.336314172 -0.917028487 0.617670834
v -0.332875282 -0.92007333 0.62373054
v -0.335220248 -0.913329542 0.629493594
v -0.332035124 -0.908236384 0.629430592
v -0.359887004 -0.87672478 0.625405848
v -0.359308183 -0.877631545 0.619410574
v -0.361201376 -0.876093745 0.613317668
v -0.356235176 -0.872641504 0.613310814
v -0.346675336 -0.873761594 0.613486171
v -0.348637372 -0.863565803 0.610188246
v -0.336414427 -0.867211699 0.613486171
v -0.3316378 -0.863580883 0.613472044
v -0.336028993 -0.850533187 0.616109848
v -0.336319298 -0.850078344 0.619116962
v -0.34060806 -0.837069094 0.621790886
v -0.237664148 -0.937399089 0.622543395
v -0.358714908 -0.814911842 0.611870527
v -0.354160517 -0.815387726 0.608894348
v -0.34756878 -0.813468814 0.608951628
v -0.343444377 -0.809194982 0.605851769
v -0.338233203 -0.805868506 0.605851769
v -0.334778398 -0.800575197 0.608833253
v -0.333467185 -0.793212593 0.608669996
v -0.214118555 -0.912261426 0.616475761
v -0.355451435 -0.761189342 0.61681205
v -0.361269265 -0.750874579 0.613384545
v -0.36400941 -0.748342931 0.607059181
v -0.356310487 -0.752059221 0.604167819
v -0.351054817 -0.74864006 0.60416615
v -0.361260444 -0.729020357 0.603492737
v -0.354479611 -0.727148414 0.603556037
v -0.349429578 -0.723460972 0.603544056
v -0.336577505 -0.728031218 0.603873253
v -0.212671936 -0.85048604 0.61203289
v -0.204938665 -0.854129374 0.618164301
v -0.248449937 -0.803299069 0.619329214
v -0.232546121 -0.816188276 0.61385721
v -0.229702443 -0.815008283 0.610872984
v -0.230779633 -0.805245459 0.607603192
v -0.218542293 -0.809634268 0.607917547
v -0.21343258 -0.806372583 0.607917547
v -0.208322853 -0.803110898 0.607917547
v -0.208626732 -0.793957412 0.607676685
v -0.203793868 -0.790235877 0.610666931
v -0.192663133 -0.797977328 0.611038506
v -0.235391602 -0.742482841 0.602851927
v -0.232588187 -0.736507595 0.602740943
v -0.227373749 -0.733179033 0.602740943
v -0.222159296 -0.729850471 0.602740943
v -0.216944858 -0.726521909 0.602740943
v -0.209829181 -0.725185096 0.605884731
v -0.0860948935 -0.859072506 0.611370087
v -0.08469446 -0.851944089 0.611209452
v -0.079182297 -0.85801065 0.614353657
v -0.0795200989 -0.853033602 0.620023131
v -0.109320797 -0.810779989 0.615635931
v -0.112802692 -0.80697298 0.612539351
v -0.10381344 -0.812815249 0.609886646
v -0.0951282308 -0.813782573 0.610054433
v -0.0901234671 -0.810587883 0.610054433
v -0.0845522881 -0.8080405 0.610080481
v -0.0792667717 -0.805288434 0.607159138
v -0.0799903348 -0.795503676 0.60688746
v -0.0781149939 -0.792938948 0.612742245
v -0.104752198 -0.757556736 0.614414334
v -0.1100173 -0.747137725 0.608092248
v -0.111819826 -0.740581691 0.604892731
v -0.0910694748 -0.755507708 0.605639637
v -0.0992399305 -0.741526246 0.602135539
v -0.098809652 -0.732808769 0.601905406
v -0.0970799625 -0.725577295 0.601738393
v -0.0901147425 -0.724482536 0.601829767
v -0.0852877423 -0.720765531 0.604816377
v 0.0989708155 -0.934037447 0.61910218
v 0.107233696 -0.935279727 0.619265258
v 0.108360805 -0.928043485 0.61910218
v 0.112880714 -0.924836993 0.619094133
v 0.112147398 -0.919547439 0.621709943
v 0.083188571 -0.880346298 0.62311101
v 0.0812764987 -0.873846054 0.617313206
v 0.0839389861 -0.872741282 0.614519179
v 0.0950428993 -0.877328575 0.614820004
v 0.0891494527 -0.86143446 0.61149776
v 0.0948188603 -0.86388129 0.611658573
v 0.107626431 -0.870609999 0.612053692
v -0.255048603 -0.423026115 0.587437212
v -0.25379315 -0.419535607 0.580740988
v -0.252680123 -0.41586113 0.574024081
v -0.249670342 -0.414292455 0.574034989
v -0.244316727 -0.410336345 0.5740183
v -0.230383381 -0.416996688 0.574500144
v -0.22715795 -0.41053316 0.571055532
v -0.189876318 -0.446498752 0.569686592
v -0.186786234 -0.445216537 0.566443801
v -0.183383062 -0.444424778 0.55995822
v -0.180292964 -0.443142563 0.556715429
v -0.177897081 -0.441086292 0.550159454
v -0.174805641 -0.439803511 0.546915233
v -0.194297016 -0.410167068 0.538724065
v -0.192920521 -0.406668514 0.535315216
v -0.190664068 -0.404370308 0.528664112
v -0.19494471 -0.393787801 0.52147162
v -0.184095219 -0.402272224 0.518822551
v -0.188354015 -0.391682714 0.511597276
v -0.185217544 -0.390381277 0.508305848
v -0.182372943 -0.388800055 0.501667678
v -0.191388384 -0.371969581 0.497253776
v -0.255717903 -0.28995955 0.484452009
v -0.255061001 -0.290988624 0.477647901
v -0.253352284 -0.293361455 0.470949948
v -0.255607814 -0.296249002 0.464148819
v -0.252826869 -0.299986273 0.45757404
v -0.255080372 -0.302871257 0.450778961
v -0.249537319 -0.310118079 0.444531977
v -0.242140561 -0.319722921 0.438526332
v -0.255586118 -0.308267891 0.43388015
v -0.254930288 -0.309295297 0.427087247
v -0.253792673 -0.310934544 0.420353144
v -0.256045014 -0.313818038 0.413561642
v -0.255300105 -0.314958274 0.406781495
v -0.256243944 -0.302743495 0.402468532
v -0.253327399 -0.300881743 0.402468532
v -0.256143481 -0.286189914 0.397883534
v -0.252569288 -0.279617637 0.394117385
v -0.246424526 -0.276332855 0.390688688
v -0.243493706 -0.274461985 0.390688688
v -0.248570427 -0.256638944 0.385723978
v -0.242477074 -0.253144562 0.385751933
v -0.236256123 -0.249905452 0.382313609
v -0.229118213 -0.253508836 0.382897288
v -0.223239645 -0.249756351 0.382897288
v -0.216960579 -0.246531427 0.382953316
v -0.20607233 -0.249404386 0.383655995
v -0.202436358 -0.242781788 0.379868001
v -0.196139932 -0.239755243 0.372977346
v -0.196177199 -0.239783272 0.369494826
v -0.189642146 -0.237071604 0.362636834
v -0.189311087 -0.237590224 0.359207869
v -0.182776034 -0.234878555 0.352349907
v -0.182444975 -0.23539716 0.348920912
v -0.175909922 -0.232685491 0.34206295
v -0.185173854 -0.214495569 0.33310467
v -0.181888118 -0.213132173 0.329656571
v -0.182256922 -0.206890985 0.322089463
v -0.181536421 -0.202037588 0.318198413
v -0.193439767 -0.180083722 0.308591872
v -0.190122575 -0.178707287 0.305110782
v -0.186469302 -0.177857339 0.298148572
v -0.183152094 -0.176480889 0.294667453
v -0.0987450778 -0.297720224 0.303560019
v -0.108613834 -0.295772523 0.302806973
v -0.11614491 -0.297031701 0.302482992
v -0.123777017 -0.298172712 0.302142322
v -0.120736994 -0.308051288 0.299802005
v -0.124834232 -0.314001471 0.296691
v -0.12352287 -0.327238739 0.291179746
v -0.124875948 -0.331154436 0.288059503
v -0.126630425 -0.340155393 0.285405964
v -0.127566516 -0.344602883 0.282373726
v -0.128538325 -0.354584247 0.279883206
v -0.125114068 -0.364753664 0.277699977
v -0.125857607 -0.37503165 0.271900445
v -0.128693774 -0.376842052 0.271900445
v -0.123234779 -0.395168006 0.267342478
v -0.122522093 -0.401663035 0.264683425
v -0.127423823 -0.406303465 0.261474907
v -0.126788318 -0.407299042 0.254892439
v -0.129014939 -0.404577881 0.247723043
v -0.128165439 -0.400294632 0.243953913
v -0.127528489 -0.401292473 0.237356424
v -0.126779109 -0.396951944 0.230181113
v -0.128299966 -0.395137995 0.223109454
v -0.126676336 -0.391921163 0.216093048
v -0.126784906 -0.391862839 0.212690011
v -0.126145929 -0.39286384 0.20607163
v -0.126729622 -0.386750728 0.198532358
v -0.130470037 -0.382025063 0.190894529
v -0.126111329 -0.382357597 0.184455052
v -0.126342833 -0.382218808 0.177608296
v -0.122856982 -0.381407827 0.17096518
v -0.122536302 -0.381910205 0.167643622
v -0.125390276 -0.372763932 0.159450814
v -0.125759214 -0.372440904 0.152538553
v -0.122973412 -0.370690256 0.145695359
v -0.118044212 -0.371605515 0.146216288
v -0.112018608 -0.368468106 0.142885908
v -0.101011924 -0.371876746 0.144232303
v -0.0953213498 -0.368244261 0.144232303
v -0.0896307752 -0.364611775 0.144232303
v -0.126550421 -0.309574276 0.127138153
v -0.12300016 -0.308748305 0.120372266
v -0.122673556 -0.309259951 0.116989322
v -0.355347961 -0.00292773079 0.0488660336
v -0.360295236 -0.00892528519 0.0492478646
v -0.364681244 -0.0156558026 0.0497764274
v -0.394576699 0.0178959724 0.0465683341
v -0.392065734 0.00192511175 0.0489177741
v -0.397945613 -0.00288663199 0.0490592755
v -0.404364765 -0.00698419427 0.0490592755
v -0.406440079 -0.0167697072 0.0501904041
v -0.404294908 -0.0320184454 0.0524120852
v -0.411519557 -0.0350062102 0.0521949753
v -0.427445114 -0.0267360751 0.0497302562
v -0.435871065 -0.0282324012 0.0492112376
v -0.442288727 -0.0323290266 0.0492112376
v -0.439489752 -0.0482266806 0.0515754707
v -0.442804992 -0.0563418642 0.0485416055
v -0.445638955 -0.0589448214 0.0448118858
v -0.431603521 -0.0829852596 0.0454629175
v -0.437522531 -0.0875773802 0.0455736183
v -0.441479594 -0.0947493464 0.0423965678
v -0.446414053 -0.100673944 0.0389680676
v -0.444198221 -0.109562233 0.036584232
v -0.447004348 -0.11213965 0.0328910984
v -0.433643788 -0.129089311 0.0288683213
v -0.437555671 -0.130142793 0.0286652092
v -0.44271338 -0.135693416 0.0251978617
v -0.446409166 -0.143165633 0.0183553975
v -0.44381085 -0.146503627 0.0152892424
v -0.447135985 -0.154405668 0.00856409967
v -0.44533366 -0.156749532 0.00529483799
v -0.44354102 -0.153314754 -0.00260171527
v -0.43483904 -0.152314126 -0.00192895951
v -0.424137175 -0.153829291 -0.000695971539
v -0.42065233 -0.152383298 -0.004352991
v -0.4127478 -0.150442436 -0.00389189855
v -0.399143815 -0.155688941 -0.00182314659
v -0.391977996 -0.152872473 -0.00156211178
v -0.383155018 -0.15227057 -0.00456971209
v -0.387982398 -0.158132374 -0.00790827908
v -0.390639663 -0.166606635 -0.00689109089
v -0.398558319 -0.168451712 -0.00737277186
v -0.406414777 -0.170390189 -0.00783447735
v -0.41488421 -0.17158097 -0.00846710615
v -0.425452322 -0.170075372 -0.00594242243
v -0.428982198 -0.171564907 -0.00605643354
v -0.439359218 -0.170459464 -0.00721035153
v -0.444138914 -0.176386699 -0.0105483737
v -0.446271718 -0.179841653 -0.0177693814
v -0.44552657 -0.180875227 -0.0213087611
v -0.446154565 -0.186169237 -0.0280954037
v -0.446636528 -0.19163321 -0.0348306261
v -0.443587244 -0.189672858 -0.0385992453
v -0.436154038 -0.18726626 -0.0419995151
v -0.429127693 -0.184248209 -0.0417689979
v -0.416261554 -0.188461661 -0.0398165062
v -0.416134953 -0.182889983 -0.0444397144
v -0.406765431 -0.18281433 -0.0435072184
v -0.395326048 -0.185351998 -0.0419534072
v -0.384783 -0.186814815 -0.040659681
v -0.377065688 -0.190849215 -0.0467175916
v -0.376127273 -0.198099062 -0.0529312305
v -0.382904857 -0.201304048 -0.0531118326
v -0.394867957 -0.197952181 -0.0511387214
v -0.398570955 -0.199180484 -0.0513206981
v -0.405227453 -0.202572525 -0.0514580458
v -0.415833712 -0.201101229 -0.0527789108
v -0.427781999 -0.19790338 -0.0507556237
v -0.437375367 -0.197755277 -0.0517558679
v -0.444263697 -0.20093444 -0.0519501045
v -0.446295083 -0.20449096 -0.0591154471
v -0.445943713 -0.205041394 -0.0627547726
v -0.445241004 -0.206142247 -0.0700334087
v -0.447135121 -0.209863544 -0.0771532059
v -0.446544319 -0.210828498 -0.0844648629
v -0.443076909 -0.209389716 -0.0881036147
v -0.433981657 -0.208906069 -0.0872129425
v -0.424164742 -0.209452078 -0.089832291
v -0.41927126 -0.20965822 -0.0892724097
v -0.408575773 -0.211214036 -0.087862879
v -0.400535941 -0.209527194 -0.0872835964
v -0.387514591 -0.214039579 -0.0851273164
v -0.38098526 -0.210639894 -0.0887361169
v -0.375147313 -0.206375793 -0.09256652
v -0.374926269 -0.206872687 -0.0999400765
v -0.379127353 -0.207573518 -0.10402368
v -0.389473647 -0.206240088 -0.101639099
v -0.39960748 -0.20531933 -0.102904893
v -0.40724346 -0.207516968 -0.103363395
v -0.413904339 -0.210926503 -0.103507675
v -0.427357912 -0.205899909 -0.102071069
v -0.430471778 -0.20788759 -0.102071069
v -0.439913362 -0.207947999 -0.103088386
v -0.44614467 -0.211933419 -0.103087068
v -0.445395291 -0.213091001 -0.110353597
v -0.445596218 -0.213095397 -0.117925473
v -0.444893003 -0.214197025 -0.125209212
v -0.445594251 -0.21359466 -0.132952794
v -0.445381403 -0.214101523 -0.140402615
v -0.436298817 -0.213575661 -0.139462054
v -0.427560061 -0.212776169 -0.14238508
v -0.41700232 -0.214108035 -0.140938684
v -0.40754208 -0.214128047 -0.139852926
v -0.400980353 -0.210711509 -0.143479615
v -0.389526963 -0.213248268 -0.141707048
v -0.373626292 -0.221370354 -0.138418153
v -0.370308071 -0.213969484 -0.143117189
v -0.376987934 -0.205733106 -0.149136394
v -0.391229957 -0.199792117 -0.155638397
v -0.397560865 -0.203626424 -0.155676126
v -0.406307906 -0.204476252 -0.156539425
v -0.414333612 -0.200288281 -0.154453799
v -0.425333887 -0.198418915 -0.156068265
v -0.430258304 -0.204031378 -0.155619934
v -0.441689461 -0.20157288 -0.153596014
v -0.442988813 -0.205921441 -0.156752333
v -0.445989639 -0.208195567 -0.160480708
v -0.445496589 -0.209042549 -0.167857677
v -0.444244593 -0.205008671 -0.176051632
v -0.444159985 -0.205358341 -0.183579952
v -0.599920273 -0.0221911799 -0.244521409
v -0.577718854 -0.0613294914 -0.234460294
v -0.576678336 -0.0746932104 -0.23181285
v -0.585289299 -0.0763939023 -0.232529253
v -0.602051914 -0.0621760897 -0.233233273
v -0.608636081 -0.0663789883 -0.233233273
v -0.614612222 -0.0713056773 -0.233024314
v -0.628710449 -0.0664520636 -0.231620237
v -0.611110151 -0.0994062871 -0.227323174
v -0.620469749 -0.0943132788 -0.229403123
v -0.607938349 -0.121077187 -0.226824835
v -0.616832554 -0.122446515 -0.227637902
v -0.60997808 -0.142355457 -0.226995006
v -0.627110302 -0.134124801 -0.230627537
v -0.608111501 -0.162172347 -0.226938233
v -0.623112082 -0.156426355 -0.229854167
v -0.616059482 -0.176302075 -0.229133531
v -0.624207377 -0.178472266 -0.229712769
v -0.61295259 -0.197272435 -0.228648648
v -0.626665652 -0.193050787 -0.231138706
v -0.612309217 -0.220960319 -0.227907836
v -0.626236737 -0.216502264 -0.230480164
v -0.619752347 -0.23530364 -0.229936942
v -0.626981676 -0.238420248 -0.23022683
v -0.624409437 -0.247085869 -0.232104108
v -0.635341644 -0.246047735 -0.233661711
v -0.629413784 -0.263997763 -0.233300939
v -0.636597753 -0.267128915 -0.233584732
v -0.62859726 -0.281709015 -0.233592704
v -0.632995188 -0.287881941 -0.232933402
v -0.630681276 -0.301590502 -0.233793944
v -0.636101604 -0.306586772 -0.233491763
v -0.636562884 -0.311710924 -0.236373305
v -0.636939645 -0.311634183 -0.244103193
v -0.635784447 -0.313233674 -0.251306474
v -0.614543617 -0.347445458 -0.245517612
v -0.621843338 -0.35027492 -0.245886371
v -0.620762885 -0.3571603 -0.251950562
v -0.620098233 -0.363411218 -0.254386663
v -0.600570679 -0.395150959 -0.245374054
v -0.601037264 -0.405211776 -0.243383557
v -0.607191563 -0.409140229 -0.243383557
v -0.62082684 -0.405089051 -0.245984107
v -0.614501476 -0.422484368 -0.245357111
v -0.625470936 -0.416418344 -0.255542248
v -0.61746043 -0.430305928 -0.255364388
v -0.595656931 -0.463704467 -0.245565832
v -0.601706803 -0.467611998 -0.245556384
v -0.607785285 -0.47148934 -0.245556951
v -0.613887668 -0.475341737 -0.245565832
v -0.619459152 -0.479746491 -0.245390177
v -0.624337316 -0.480137289 -0.253368437
v -0.625444531 -0.48426345 -0.256361097
v -0.599252641 -0.521461666 -0.245065928
v -0.600097597 -0.530607045 -0.243263051
v -0.606093228 -0.534434259 -0.243263051
v -0.615031123 -0.53525573 -0.24428618
v -0.617132008 -0.543243587 -0.246549651
v -0.614772439 -0.550785244 -0.248296782
v -0.629680634 -0.54079622 -0.256080955
v -0.631693959 -0.548859656 -0.258307129
v -0.631788969 -0.558827877 -0.259855449
v -0.634824932 -0.560698509 -0.259869814
v -0.63536483 -0.565263689 -0.262622267
v -0.635527611 -0.565480649 -0.269908518
v -0.634510696 -0.566881001 -0.276777983
v -0.608750284 -0.602620125 -0.26904279
v -0.616833508 -0.60424298 -0.269814998
v -0.622423112 -0.608547211 -0.273273498
v -0.564405203 -0.671213984 -0.258507043
v -0.570109665 -0.670287848 -0.259515285
v -0.583885908 -0.666132629 -0.262373686
v -0.576100528 -0.683389843 -0.261005908
v -0.60561198 -0.663880944 -0.269501686
v -0.612365425 -0.66671741 -0.269828349
v -0.621483266 -0.667263627 -0.270996809
v -0.61837244 -0.675177932 -0.27237165
v -0.62164706 -0.677089632 -0.279551506
v -0.599552214 -0.707947493 -0.273017079
v -0.598152459 -0.718535304 -0.270436347
v -0.600667775 -0.725326359 -0.269270778
v -0.606577098 -0.728857458 -0.269324988
v -0.582425058 -0.760970414 -0.258641392
v -0.585596204 -0.766997874 -0.25774157
v -0.589586556 -0.772235096 -0.257136911
v -0.603179216 -0.763718426 -0.257509142
v -0.60840416 -0.767816484 -0.257338285
v -0.60939163 -0.775877655 -0.255674005
v -0.627831101 -0.767425597 -0.256702244
v -0.613734066 -0.789707124 -0.253197461
v -0.616575658 -0.791520953 -0.253197461
v -0.602115989 -0.813977301 -0.249552056
v -0.619234025 -0.807005882 -0.253575176
v -0.607636511 -0.826678395 -0.250934333
v -0.611706674 -0.827325821 -0.251374364
v -0.605786681 -0.841680169 -0.250716925
v -0.619270563 -0.838096738 -0.253476769
v -0.611828506 -0.853748441 -0.25228554
v -0.624289751 -0.851124048 -0.254689008
v -0.606816053 -0.871420145 -0.250955522
v -0.624608696 -0.863995135 -0.255238056
v -0.614226043 -0.882095397 -0.253008157
v -0.62322408 -0.882586718 -0.254209995
v -0.611905456 -0.897145808 -0.252621442
v -0.6215927 -0.897009373 -0.254072666
v -0.620349705 -0.906782627 -0.25503996
v -0.625891268 -0.910319984 -0.25503996
v -0.629554272 -0.915722668 -0.257726073
v -0.61719656 -0.935141027 -0.254782975
v -0.626873374 -0.930845201 -0.257213175
v -0.616428435 -0.948483825 -0.254934222
v -0.623513639 -0.950597644 -0.255495131
v -0.624844611 -0.957914412 -0.25734821
v -0.629833877 -0.957722783 -0.258137167
v -0.624639094 -0.970630825 -0.257695854
v -0.630408406 -0.973858953 -0.257802457
v -0.628611922 -0.983771324 -0.258551538
v -0.635590792 -0.98595202 -0.259086609
v -0.632154763 -0.993151128 -0.260214239
v -0.637598455 -0.996626019 -0.260214239
v -0.633134067 -1.00868356 -0.26002118
v -0.635971904 -1.01053083 -0.263340324
v -0.636182666 -1.01079655 -0.269967437
v -0.636119187 -1.01129329 -0.276500672
v -0.609765708 -1.03767836 -0.2693865
v -0.617621958 -1.03902698 -0.27027297
v -0.615243793 -1.04915369 -0.270749539
v -0.61661464 -1.05611849 -0.272560388
v -0.620541811 -1.05701268 -0.276243478
v -0.623545468 -1.06282735 -0.281869739
v -0.626167536 -1.06458211 -0.281849802
v -0.600291789 -1.09369969 -0.270630628
v -0.60460341 -1.09788513 -0.270278305
v -0.609895825 -1.1012634 -0.270278305
v -0.616841614 -1.10329509 -0.270868838
v -0.617173135 -1.11092961 -0.272292137
v -0.622431099 -1.11432743 -0.272281885
v -0.620266318 -1.12012267 -0.273754954
v -0.630082667 -1.11647642 -0.282714128
v -0.632075787 -1.1227324 -0.284723282
v -0.633253694 -1.12962353 -0.286435634
v -0.633931875 -1.13287556 -0.285728782
v -0.636996746 -1.13823259 -0.288118809
v -0.637272596 -1.13847125 -0.294591486
v -0.637396395 -1.13883126 -0.301012635
v -0.637082934 -1.13953912 -0.307276309
v -0.63648814 -1.14047098 -0.313437164
v -0.634203792 -1.13873434 -0.316759467
v -0.634806693 -1.13871241 -0.323369533
v -0.634549022 -1.13937616 -0.329661459
v -0.635533869 -1.13905084 -0.336425155
v -0.630464017 -1.1357367 -0.339704156
v -0.627614319 -1.13846982 -0.345012158
v -0.614094436 -1.14170229 -0.34185341
v -0.602699816 -1.14349723 -0.342679441
v -0.598850131 -1.14280581 -0.34220773
v -0.588577211 -1.1437372 -0.343441725
v -0.576113999 -1.14624715 -0.340637743
v -0.577798903 -1.13750851 -0.346501976
v -0.559687734 -1.14466929 -0.341470659
v -0.548534393 -1.14620292 -0.339145213
v -0.551568925 -1.14013517 -0.344516367
v -0.534709871 -1.14639139 -0.339928955
v -0.528811157 -1.14387512 -0.342798233
v -0.517802358 -1.14538145 -0.340490878
v -0.512328565 -1.14253139 -0.34351626
v -0.50973773 -1.1408776 -0.34351626
v -0.494328469 -1.1461215 -0.339426428
v -0.488875896 -1.14328241 -0.342440099
v -0.468474299 -1.15281737 -0.336303651
v -0.463053465 -1.14999497 -0.339299768
v -0.457199752 -1.14733136 -0.33900699
v -0.454345495 -1.14614701 -0.342002243
v -0.449215382 -1.14287233 -0.342002243
v -0.443796039 -1.14005053 -0.344997525
v -0.436226815 -1.13886821 -0.34399581
v -0.433246583 -1.13395405 -0.347992808
v -0.428249985 -1.13441324 -0.346988261
v -0.40480876 -1.14698958 -0.339406013
v -0.406508774 -1.13804793 -0.345320553
v -0.383129716 -1.15071332 -0.337701976
v -0.380484253 -1.14556122 -0.341793478
v -0.372712106 -1.14469302 -0.340659827
v -0.367360532 -1.14190662 -0.343617648
v -0.364827514 -1.14028966 -0.343617648
v -0.354118913 -1.14204872 -0.341230094
v -0.349766284 -1.13839245 -0.344600886
v -0.342688769 -1.13696527 -0.343739748
v -0.339946151 -1.13573778 -0.346718937
v -0.331035823 -1.13596761 -0.345065325
v -0.32570678 -1.1331929 -0.348010719
v -0.308922946 -1.14055943 -0.3429434
v -0.296050549 -1.14464724 -0.342591375
v -0.287274778 -1.1487366 -0.339867204
v -0.274126321 -1.15296984 -0.336318016
v -0.271283388 -1.148031 -0.34027794
v -0.26218465 -1.14862466 -0.338473171
v -0.256932735 -1.14589012 -0.341375917
v -0.244674399 -1.14943814 -0.338160276
v -0.249194995 -1.14156878 -0.344278663
v -0.236960262 -1.14513004 -0.341054171
v -0.23290199 -1.14130807 -0.344473481
v -0.220662937 -1.1449405 -0.341218531
v -0.222704545 -1.13541508 -0.347368807
v -0.215072215 -1.13866901 -0.34505108
v -0.194927305 -1.14982557 -0.338201225
v -0.196904838 -1.14034355 -0.344319701
v -0.177893549 -1.15055227 -0.337928116
v -0.174251899 -1.14639425 -0.341490567
v -0.164536759 -1.14785886 -0.339291304
v -0.162636876 -1.14203179 -0.343651533
v -0.156919286 -1.14360464 -0.34214893
v -0.15500854 -1.13777149 -0.346513242
v -0.14160116 -1.142869 -0.342573047
v -0.144929528 -1.13194692 -0.34937495
v -0.13452512 -1.13811529 -0.345668256
v -0.124502413 -1.14001095 -0.343268424
v -0.12395972 -1.13282168 -0.348275155
v -0.104112647 -1.14440835 -0.341236383
v -0.106526673 -1.13430727 -0.347632021
v -0.0902817547 -1.14639699 -0.341095895
v -0.0734662786 -1.15518439 -0.335414827
v -0.0688965395 -1.15202844 -0.338467985
v -0.0635731891 -1.14946723 -0.338223755
v -0.0584910512 -1.14682102 -0.341032654
v -0.0536800995 -1.14375007 -0.341032654
v -0.0514718555 -1.14216757 -0.344067842
v -0.0461924821 -1.13956833 -0.343841583
v -0.0411103442 -1.13692224 -0.346650511
v -0.0248557627 -1.14550269 -0.34107098
v -0.0198004097 -1.14287043 -0.343865097
v -0.00801704824 -1.15095544 -0.339258522
v 0.00465770578 -1.15604007 -0.335369587
v 0.0026761943 -1.14621615 -0.341598094
v 0.0144194681 -1.15039873 -0.338141203
v 0.0158598311 -1.14407623 -0.342691779
v 0.0241812319 -1.14475751 -0.340912849
v 0.0291959066 -1.14214647 -0.343684465
v 0.0315694511 -1.14063144 -0.343684465
v 0.0457502231 -1.14752162 -0.338939101
v 0.050742358 -1.14492238 -0.341698259
v 0.0584633835 -1.14507842 -0.340180546
v 0.0487194322 -1.13086402 -0.349227726
v 0.0679650158 -1.14327407 -0.341835916
v 0.0707927346 -1.13838112 -0.345690936
v 0.0907131881 -1.15167558 -0.33788386
v 0.0956613347 -1.14909923 -0.34061873
v 0.101433173 -1.15130341 -0.338846356
v 0.10748183 -1.149804 -0.338135511
v 0.11141555 -1.14614439 -0.341385901
v 0.120080002 -1.14750957 -0.339304566
v 0.121029846 -1.14058828 -0.344115674
v 0.13266167 -1.14524472 -0.340459228
v 0.127943158 -1.13612473 -0.347037137
v 0.140492216 -1.14183462 -0.342873245
v 0.137920737 -1.13096845 -0.349575192
v 0.162794605 -1.15045547 -0.338813126
v 0.147175238 -1.12501061 -0.352497637
v 0.159605041 -1.13480735 -0.347087026
v 0.178204477 -1.14749718 -0.339591771
v 0.179514259 -1.14093316 -0.3442173
v 0.191114813 -1.14586556 -0.34044221
v 0.193206668 -1.14017367 -0.344647169
v 0.20944193 -1.15046346 -0.338310391
v 0.211138859 -1.1443336 -0.342718631
v 0.217071459 -1.14702952 -0.34072417
v 0.230631724 -1.15441763 -0.33578819
v 0.226508513 -1.14157593 -0.343403608
v 0.240024522 -1.14898956 -0.338455081
v 0.233650982 -1.13758707 -0.346083045
v 0.247133508 -1.14501929 -0.341121942
v 0.251894742 -1.14233005 -0.3410137
v 0.256526321 -1.13959134 -0.343788832
v 0.273585558 -1.15139377 -0.336750776
v 0.278378546 -1.14889824 -0.339399874
v 0.290488333 -1.15499127 -0.335100979
v 0.286927313 -1.14672315 -0.341201425
v 0.297521055 -1.15106368 -0.337739229
v 0.300801963 -1.14679003 -0.341234505
v 0.306813091 -1.1456939 -0.34037751
v 0.311586469 -1.1432085 -0.34301576
v 0.313845783 -1.14176631 -0.34301576
v 0.322855741 -1.14433515 -0.340407401
v 0.32313782 -1.13639653 -0.345654041
v 0.334560841 -1.14195883 -0.341613561
v 0.335710078 -1.13505483 -0.346362799
v 0.344411612 -1.14154649 -0.342566192
v 0.361023784 -1.15364397 -0.33541128
v 0.365739167 -1.15118873 -0.338017493
v 0.377112031 -1.15693772 -0.333906651
v 0.381808966 -1.15449214 -0.336502671
v 0.386255234 -1.15165389 -0.336502671
v 0.388729006 -1.15062737 -0.339098692
v 0.394209713 -1.14909387 -0.338474452
v 0.397872239 -1.14534366 -0.341694683
v 0.407752663 -1.1494118 -0.338389963
v 0.410466671 -1.14446294 -0.342180967
v 0.418319494 -1.15024853 -0.338732421
v 0.425615549 -1.15111208 -0.336969256
v 0.430279911 -1.14868343 -0.339547276
v 0.438538074 -1.15083408 -0.33717075
v 0.440764099 -1.14525926 -0.341252238
v 0.447597384 -1.14559877 -0.339742929
v 0.447630495 -1.14142454 -0.343828112
v 0.454453945 -1.14176953 -0.342315108
v 0.459107757 -1.13934636 -0.344887286
v 0.463513255 -1.13653421 -0.344887286
v 0.468252748 -1.13422465 -0.347405046
v 0.470369816 -1.13270497 -0.347459495
v 0.486525685 -1.14556766 -0.339960903
v 0.487640113 -1.13846588 -0.344764292
v 0.498262078 -1.14405489 -0.340751708
v 0.494462669 -1.13465559 -0.347323716
v 0.506226897 -1.14183903 -0.342545062
v 0.51083678 -1.13943887 -0.345092952
v 0.516844153 -1.13889349 -0.344020367
v 0.521449327 -1.13649571 -0.346565664
v 0.536416709 -1.14828742 -0.339587301
v 0.540747404 -1.14552307 -0.339587301
v 0.543156862 -1.14452326 -0.342115819
v 0.548807681 -1.14359057 -0.341239244
v 0.553465426 -1.14133143 -0.34370777
v 0.559990942 -1.14164484 -0.342236012
v 0.564555347 -1.13926828 -0.344758779
v 0.567248106 -1.13863826 -0.344400048
v 0.574429631 -1.13992453 -0.342466056
v 0.578984082 -1.1375531 -0.344983339
v 0.583295524 -1.13480103 -0.344983339
v 0.593960166 -1.14116621 -0.343316257
v 0.598849714 -1.13927937 -0.342907548
v 0.600643873 -1.13743353 -0.345823586
v 0.605530858 -1.13554811 -0.345413923
v 0.613107204 -1.13756979 -0.343137294
v 0.618026435 -1.13578784 -0.345363468
v 0.624225378 -1.13585615 -0.344023794
v 0.628502309 -1.13312602 -0.344023794
v 0.628455102 -1.12399971 -0.344389796
v 0.63059938 -1.12263095 -0.344389796
v 0.629913032 -1.11249506 -0.345210671
v 0.627406657 -1.09959114 -0.34731257
v 0.622246921 -1.0872705 -0.349756807
v 0.626343429 -1.08411598 -0.34722212
v 0.630439997 -1.08096147 -0.344687432
v 0.632365882 -1.07919252 -0.342152745
v 0.63646245 -1.07603788 -0.339618057
v 0.622369647 -1.04998076 -0.351047993
v 0.621679246 -1.03943229 -0.351882458
v 0.625833571 -1.03623319 -0.349312007
v 0.627786696 -1.03443933 -0.346741557
v 0.63194102 -1.03124022 -0.344171137
v 0.636062622 -1.0327909 -0.340078592
v 0.63804841 -1.02624738 -0.339030236
v 0.642202795 -1.02304828 -0.336459786
v 0.646357119 -1.0198493 -0.333889335
v 0.648310184 -1.01805532 -0.331318915
v 0.64731735 -1.00676751 -0.332361937
v 0.631424367 -0.976851106 -0.34508881
v 0.635643899 -0.973601818 -0.342478007
v 0.637627661 -0.971779764 -0.339867204
v 0.641381979 -0.967790127 -0.337583363
v 0.629328251 -0.938532472 -0.346412301
v 0.632263958 -0.938178658 -0.343119383
v 0.635601342 -0.933404148 -0.341131985
v 0.639868379 -0.930118322 -0.338491827
v 0.641874433 -0.928275824 -0.335851669
v 0.64614141 -0.924989998 -0.333211511
v 0.649514437 -0.920245171 -0.331199169
v 0.649239421 -0.914651215 -0.332983792
v 0.653260827 -0.910957575 -0.327691257
v 0.639641881 -0.883364737 -0.33885479
v 0.628096104 -0.853805959 -0.347335845
v 0.632464945 -0.850441754 -0.344632685
v 0.634518862 -0.848555207 -0.341929555
v 0.636806071 -0.841713428 -0.340689063
v 0.638862848 -0.839824259 -0.337982148
v 0.64241457 -0.835071325 -0.335853159
v 0.640931726 -0.821805239 -0.337260365
v 0.634476185 -0.805454373 -0.343439072
v 0.647392273 -0.816523612 -0.331822217
v 0.649385035 -0.809040248 -0.330789089
v 0.639766932 -0.787110627 -0.339190781
v 0.630279601 -0.759773731 -0.346238434
v 0.634282768 -0.76110667 -0.342134356
v 0.636863708 -0.754391074 -0.340696305
v 0.641342282 -0.750942349 -0.337925225
v 0.643447816 -0.749008477 -0.335154176
v 0.644993484 -0.740433574 -0.334442973
v 0.64244765 -0.724631906 -0.336607844
v 0.645791769 -0.724839032 -0.332958996
v 0.647478163 -0.716390014 -0.332150102
v 0.628469884 -0.676969409 -0.347196102
v 0.633048415 -0.673443735 -0.344363183
v 0.645958126 -0.684859693 -0.332660466
v 0.639779508 -0.667940915 -0.338697344
v 0.644358039 -0.66441524 -0.335864425
v 0.646510601 -0.662438154 -0.333031505
v 0.651089132 -0.65891248 -0.330198586
v 0.62922132 -0.607309759 -0.345947176
v 0.63324362 -0.608633757 -0.341778547
v 0.636072755 -0.601708651 -0.340180039
v 0.639332592 -0.59554553 -0.338280022
v 0.640827298 -0.592168033 -0.338967204
v 0.645216346 -0.588136733 -0.333190888
v 0.641752422 -0.575547695 -0.337363333
v 0.628702939 -0.538902164 -0.346932441
v 0.633445203 -0.535250366 -0.343998194
v 0.635674715 -0.533202589 -0.341063976
v 0.640417039 -0.529550791 -0.338129729
v 0.642646551 -0.527502954 -0.335195482
v 0.641169071 -0.512057066 -0.336627483
v 0.637411416 -0.492161989 -0.339664072
v 0.641425967 -0.486991495 -0.337245017
v 0.643678784 -0.48492229 -0.334280103
v 0.639113307 -0.463207513 -0.337882817
v 0.633113801 -0.44506067 -0.343897223
v 0.632250249 -0.430245936 -0.344914913
v 0.637118399 -0.426497221 -0.341902792
v 0.639407098 -0.424395084 -0.338890672
v 0.644275248 -0.420646369 -0.335878551
v 0.646563947 -0.418544233 -0.33286643
v 0.650801361 -0.413549811 -0.330297291
v 0.6424582 -0.383584946 -0.336567074
v 0.647572219 -0.387038499 -0.331559509
v 0.646755874 -0.37183404 -0.332540274
v 0.638623774 -0.341843545 -0.338661015
v 0.641255498 -0.340163618 -0.338661015
v 0.645925581 -0.3358742 -0.332514763
v 0.63949734 -0.315845132 -0.338881284
v 0.634455502 -0.291571289 -0.342846721
v 0.629035056 -0.266334027 -0.347084135
v 0.641851306 -0.285525084 -0.336621374
v 0.635856867 -0.258957714 -0.34125486
v 0.64924711 -0.279478878 -0.330395997
v 0.643307447 -0.252866715 -0.334983379
v 0.64578259 -0.243564785 -0.333668262
v 0.638707101 -0.221463904 -0.340537816
v 0.637176096 -0.203601524 -0.342049628
v 0.646838665 -0.209357888 -0.332303882
v 0.644722164 -0.197432458 -0.33569777
v 0.631229818 -0.153960019 -0.345621645
v 0.652268291 -0.191263393 -0.329345912
v 0.638870537 -0.147713587 -0.339190125
v 0.643211782 -0.141873494 -0.336576074
v 0.645656586 -0.139627934 -0.333358467
v 0.637975514 -0.107770704 -0.339186192
v 0.640146852 -0.0970527902 -0.338100195
v 0.630787671 -0.0688270554 -0.346647441
v 0.636179805 -0.065147005 -0.339802563
v 0.641069233 -0.0601701736 -0.336811334
v 0.632783234 -0.033927884 -0.344614565
v 0.628258765 -0.00797514711 -0.348251939
v 0.630785048 -0.00565473968 -0.344927073
v 0.634352684 0.00251152506 -0.342871755
v 0.636882067 0.00483472878 -0.339542896
v 0.642262161 0.00897765998 -0.336214006
v 0.637207806 0.0366773456 -0.340215683
v 0.639754891 0.0390168503 -0.336863458
v 0.637235761 0.0612378046 -0.339081287
v 0.639104545 0.0736081302 -0.338223249
v 0.634086788 0.0935768038 -0.343788058
v 0.631726265 0.115872718 -0.345916003
v 0.637243748 0.120121464 -0.342502087
v 0.639837742 0.122504003 -0.339088202
v 0.634110987 0.152956516 -0.34358266
v 0.636724532 0.155357048 -0.340142995
v 0.640423298 0.164005399 -0.338010371
v 0.639808059 0.182875246 -0.338911176
v 0.64243573 0.185288742 -0.335452944
v 0.639712393 0.209350497 -0.33783102
v 0.632129014 0.245219007 -0.343628198
v 0.635133505 0.247136876 -0.343628198
v 0.640465021 0.252033889 -0.33661136
v 0.637362659 0.268686146 -0.340904891
v 0.632815599 0.297902822 -0.34458521
v 0.638548136 0.302317172 -0.341038227
v 0.641243219 0.304792583 -0.337491274
v 0.631291389 0.34772113 -0.344969332
v 0.634841979 0.348186672 -0.340804517
v 0.63980788 0.354683518 -0.337800622
v 0.640525043 0.371767312 -0.337781876
v 0.634032726 0.397599936 -0.344519943
v 0.634855092 0.414704502 -0.344441026
v 0.640374184 0.419773757 -0.337177396
v 0.631023347 0.453226894 -0.345943123
v 0.630760312 0.473476022 -0.346631616
v 0.633554399 0.47604239 -0.342954338
v 0.639497578 0.480618924 -0.339277059
v 0.639217496 0.501196802 -0.339976698
v 0.648234904 0.487761855 -0.331922472
v 0.6479913 0.508369505 -0.332591385
v 0.633033812 0.567470968 -0.343605995
v 0.632164121 0.580165029 -0.34647733
v 0.641931593 0.574745059 -0.336116344
v 0.647983909 0.579405665 -0.332371533
v 0.645765483 0.595808566 -0.336190253
v 0.631795466 0.653805554 -0.346547395
v 0.634689867 0.65646404 -0.342738092
v 0.640846431 0.661204875 -0.338928759
v 0.643740892 0.66386342 -0.335119456
v 0.630496919 0.721032917 -0.344939739
v 0.636568666 0.726284802 -0.341196835
v 0.639501214 0.728978336 -0.337337345
v 0.643902123 0.73881197 -0.334767312
v 0.63865149 0.775274575 -0.338977635
v 0.630589962 0.808868647 -0.347000152
v 0.635046422 0.818527102 -0.340209156
v 0.639758468 0.827981472 -0.337429643
v 0.642414987 0.832120359 -0.337929696
v 0.633808494 0.879122674 -0.34452799
v 0.636827767 0.88189584 -0.340554327
v 0.626386762 0.934677005 -0.348434508
v 0.631627083 0.943256557 -0.345298231
v 0.634683013 0.946063459 -0.341276318
v 0.641183257 0.951068938 -0.337254375
v 0.647630095 0.956228912 -0.333269984
v 0.629187286 1.02189803 -0.348687649
v 0.63933146 1.01610172 -0.337758094
v 0.638589561 1.03068936 -0.340732545
v 0.640398204 1.04985118 -0.340021342
v 0.635770023 1.08820403 -0.343847066
v 0.638905287 1.09108365 -0.339720756
v 0.63417536 1.13020706 -0.343612105
v 0.63073045 1.1393404 -0.33713907
v 0.632946014 1.14508474 -0.333634704
v 0.632779121 1.14443934 -0.324858785
v 0.632318497 1.14467251 -0.316291422
v 0.632009566 1.14445281 -0.307625145
v 0.634432673 1.14900243 -0.299525946
v 0.634579718 1.14741433 -0.29056102
v 0.631190002 1.13116944 -0.283657491
v 0.617247403 1.14629471 -0.283727348
v 0.618349135 1.13023305 -0.280669868
v 0.615976274 1.12337029 -0.271072209
v 0.607872367 1.12174606 -0.271713763
v 0.599684715 1.13244069 -0.270267636
v 0.595121682 1.12043798 -0.268631488
v 0.586960077 1.11889529 -0.26929155
v 0.580497563 1.11349189 -0.277701229
v 0.609453142 1.01821589 -0.257044673
v 0.601915359 1.01535702 -0.257399261
v 0.598368108 1.001194 -0.255238682
v 0.592831492 0.992733836 -0.254344225
v 0.585633695 0.988964319 -0.254494041
v 0.577668011 0.987323582 -0.255119413
v 0.577848732 0.963583887 -0.254992247
v 0.573844194 0.951561928 -0.25746423
v 0.584783077 0.910287499 -0.252786487
v 0.495936275 1.12972605 -0.303587765
v 0.487195522 1.12830722 -0.295586973
v 0.483583421 1.12600148 -0.295586973
v 0.472982824 1.13002217 -0.29316479
v 0.465745687 1.12540245 -0.29316479
v 0.463542819 1.10781968 -0.294604093
v 0.44323203 1.13835108 -0.306949377
v 0.439129293 1.13725841 -0.307228923
v 0.429441839 1.13851309 -0.304171681
v 0.42715469 1.12036324 -0.296722829
v 0.418543041 1.13060427 -0.295164496
v 0.411260903 1.12595582 -0.295164496
v 0.406283081 1.11536217 -0.293823749
v 0.396073043 1.11825943 -0.295525789
v 0.395784318 1.10775661 -0.298069835
v 0.374355555 1.13916707 -0.306257188
v 0.366351277 1.13619196 -0.306644708
v 0.360854536 1.1260916 -0.296565831
v 0.353531331 1.12141693 -0.296565831
v 0.344906718 1.1311034 -0.294849426
v 0.337640852 1.12622786 -0.294806868
v 0.442368239 0.854220748 -0.225721866
v 0.439687431 0.849768043 -0.22105895
v 0.431461215 0.848305702 -0.217551291
v 0.421369344 0.851731241 -0.219288334
v 0.413925052 0.848626792 -0.219578356
v 0.407615304 0.842758775 -0.219254404
v 0.399145007 0.842116654 -0.220093176
v 0.387770295 0.84808147 -0.218223244
v 0.380014986 0.845626533 -0.218660578
v 0.372062653 0.853777051 -0.216769308
v 0.373732865 0.859660685 -0.209187791
v 0.382725269 0.859209418 -0.208117455
v 0.393161714 0.855226934 -0.206277296
v 0.395357639 0.860842347 -0.211206049
v 0.403772801 0.861684203 -0.210419372
v 0.413552225 0.85915792 -0.208896548
v 0.420863718 0.862964869 -0.212937638
v 0.428916901 0.864590466 -0.212324411
v 0.439876348 0.858980238 -0.210125223
v 0.441058934 0.866462231 -0.207115754
v 0.443731636 0.870253623 -0.203294545
v 0.442343801 0.872991145 -0.195552588
v 0.44126007 0.874970496 -0.187642992
v 0.443991989 0.878261447 -0.179541379
v 0.438248396 0.870585561 -0.174690336
v 0.428355932 0.873556614 -0.176244304
v 0.418803781 0.875267267 -0.173362002
v 0.415339828 0.873056114 -0.173362002
v 0.40841195 0.868633866 -0.173362002
v 0.397499323 0.873886466 -0.175397158
v 0.389467806 0.872081697 -0.175950482
v 0.3813757 0.870068133 -0.172273085
v 0.370644838 0.874346316 -0.169908062
v 0.37256217 0.879994392 -0.166426092
v 0.38240248 0.877195537 -0.160731718
v 0.389750779 0.881021619 -0.164793149
v 0.39418292 0.880925894 -0.164312884
v 0.403590739 0.879373193 -0.163071856
v 0.411302 0.881919861 -0.162681758
v 0.420562834 0.880628228 -0.161499009
v 0.430476695 0.877660394 -0.159972563
v 0.439045757 0.877965212 -0.159124449
v 0.444046646 0.887157738 -0.160109714
v 0.443732351 0.887214363 -0.151792377
v 0.442952543 0.888436019 -0.143715128
v 0.44199869 0.890092969 -0.135725036
v 0.442839473 0.88726145 -0.126843542
v 0.438994288 0.885665953 -0.122808367
v 0.431842983 0.881850123 -0.122926071
v 0.423012197 0.882174909 -0.123862825
v 0.414999545 0.880442023 -0.124394201
v 0.404337317 0.88481462 -0.121964484
v 0.396660686 0.882182658 -0.122319117
v 0.389409453 0.878503442 -0.122467555
v 0.38056466 0.878652871 -0.123373605
v 0.373103559 0.885679424 -0.121015616
v 0.381477624 0.875468314 -0.110221915
v 0.388418823 0.879899085 -0.110221915
v 0.396170855 0.882358849 -0.109838694
v 0.405842155 0.880109191 -0.10854163
v 0.415064394 0.878894627 -0.107448094
v 0.424349904 0.877817631 -0.110536136
v 0.432561129 0.878999591 -0.109907828
v 0.440320134 0.881276131 -0.109493613
v 0.442575872 0.886102498 -0.105853766
v 0.442595482 0.885327339 -0.0974097922
v 0.442615479 0.884551883 -0.0889735967
v 0.442104369 0.885104179 -0.0807940513
v 0.44176656 0.885223806 -0.0725368708
v 0.436445981 0.876909494 -0.0718103647
v 0.425212204 0.88290453 -0.0695972443
v 0.436047971 0.86645174 -0.062024802
v 0.442533642 0.871446013 -0.0580118783
v 0.445106387 0.875436246 -0.0542149507
v 0.443671256 0.867896378 -0.0491253808
v 0.442994267 0.868867338 -0.0410654321
v 0.442428887 0.86956054 -0.0329573341
v 0.44125089 0.861063302 -0.0236269273
v 0.443283081 0.844657004 -0.0129559124
v 0.443533421 0.843337238 -0.0045521576
v 0.443627089 0.832156777 0.00106615189
v 0.442605734 0.823429585 0.010320534
v 0.439811319 0.81943965 0.0146929091
v 0.44220072 0.802761495 0.0211743563
v 0.444789141 0.795747101 0.0304261111
v 0.442059308 0.780971467 0.0402091406
v 0.442345142 0.75965327 0.0429833978
v 0.440437645 0.753695667 0.0476132594
v 0.440237343 0.733782351 0.0501508489
v 0.435415387 0.725091219 0.0508707576
v 0.416493595 0.7497316 0.0501871258
v 0.327302903 0.951270223 0.0214620158
v 0.330700606 0.953168213 0.0299415197
v 0.331018329 0.951764345 0.0385798737
v 0.331064522 0.951007903 0.0471076518
v 0.33083716 0.950903416 0.0555279776
v 0.330618054 0.950779617 0.0639459491
v 0.330062896 0.95145613 0.072239399
v 0.329270422 0.952697575 0.0804476291
v 0.328462154 0.953976691 0.088650398
v 0.325522572 0.950048506 0.0930867642
v 0.324463218 0.951923609 0.101200484
v 0.320157737 0.950921953 0.109405592
v 0.318659186 0.953834713 0.117379442
v 0.313876301 0.95395565 0.125434518
v 0.309988588 0.952275395 0.129547462
v 0.305599451 0.951463103 0.137732401
v 0.300111145 0.95322448 0.145578876
v 0.29619658 0.951600194 0.149686873
v 0.290741533 0.953262925 0.157558978
v 0.286313295 0.952826023 0.161517292
v 0.27720508 0.952516913 0.169369116
v 0.271846712 0.954207003 0.173067793
v 0.264390916 0.950341165 0.177183807
v 0.25982815 0.950176477 0.181120604
v 0.250717461 0.950075328 0.184775785
v 0.246382415 0.949369311 0.188785896
v 0.2372908 0.949174702 0.192463055
v 0.2516509 0.906253159 0.201547995
v 0.251453161 0.906154633 0.209880576
v 0.251230389 0.906112969 0.218201324
v 0.250964433 0.906168997 0.226505905
v 0.253467739 0.899977982 0.235507116
v 0.249583006 0.898366034 0.23958379
v 0.245358065 0.887733102 0.24027209
v 0.240747973 0.877497077 0.249182656
v 0.234153897 0.881941497 0.252588928
v 0.229914814 0.871447027 0.253246635
v 0.30117029 0.694475651 0.27599901
v 0.296011686 0.696110249 0.279556125
v 0.285283238 0.700701296 0.278607517
v 0.278303444 0.697049558 0.278540879
v 0.189324319 0.870827019 0.263573915
v 0.188930318 0.871444225 0.267654866
v 0.185650811 0.887907624 0.27447322
v 0.189268902 0.899784803 0.27370894
v 0.189189062 0.899472296 0.282067597
v 0.223926723 0.842971385 0.292339712
v 0.23456499 0.83919996 0.293159366
v 0.235454112 0.846562386 0.300836682
v 0.238390967 0.849916637 0.300724119
v 0.246623307 0.851400316 0.301011056
v 0.252747387 0.847402632 0.30570522
v 0.251776963 0.85895133 0.31298846
v 0.253020197 0.865584135 0.320760906
v 0.251692951 0.868291855 0.324606359
v 0.250912815 0.869513988 0.332686931
v 0.250346273 0.870258451 0.340809524
v 0.252982318 0.873786271 0.348880768
v 0.253353626 0.862490058 0.357828438
v 0.252240419 0.854813755 0.362364858
v 0.250809789 0.847617567 0.370918751
v 0.238881171 0.864006996 0.373491138
v 0.234238267 0.854332447 0.377993733
v 0.230397373 0.852740765 0.382023424
v 0.222230464 0.851109445 0.381805122
v 0.213200256 0.851337194 0.381439894
v 0.240425512 0.772496462 0.391320765
v 0.189758912 0.872347713 0.391590834
v 0.189070731 0.873368025 0.399729937
v 0.188721538 0.87365371 0.407921135
v 0.189060852 0.872447431 0.416213334
v 0.188583165 0.873012066 0.424375296
v 0.188227728 0.873311996 0.432552218
v 0.188299879 0.87268579 0.44078511
v 0.187832534 0.873228669 0.448937863
v 0.188551575 0.871202052 0.457243234
v 0.187891334 0.872163296 0.465361267
v 0.187838241 0.871809781 0.473552585
v 0.188094765 0.87078625 0.48177442
v 0.188058212 0.870397747 0.489954054
v 0.189952224 0.875781894 0.493867546
v 0.189837873 0.875558615 0.502036095
v 0.189679176 0.875431836 0.510194421
v 0.189633533 0.875060141 0.518358767
v 0.189731583 0.874377131 0.526530683
v 0.189519018 0.874368191 0.534666896
v 0.189003393 0.875016689 0.542771995
v 0.188849017 0.874882042 0.550904751
v 0.189042047 0.873994529 0.55905962
v 0.188506305 0.874687314 0.567152083
v 0.188578352 0.874062777 0.575285196
v 0.188723862 0.873279512 0.583416104
v 0.188190445 0.873967826 0.591497242
v 0.188019529 0.87387085 0.599597275
v 0.187933788 0.873589635 0.607696831
v 0.187930882 0.873129308 0.615794718
v 0.18760936 0.873359501 0.623871684
v 0.187436134 0.873268723 0.631951034
v 0.187229469 0.873250663 0.640024066
v 0.189273849 0.868358672 0.64816618
v 0.191088244 0.854576886 0.652358234
v 0.18796587 0.842150688 0.652472496
v 0.186261982 0.826761246 0.652629197
v 0.186261445 0.807842076 0.652836382
v 0.189597055 0.781766176 0.657108366
v 0.189123645 0.782347023 0.665022969
v 0.187665567 0.775688589 0.672983229
v 0.187842965 0.766018808 0.673054278
v 0.186664209 0.750003695 0.673165143
v 0.174286693 0.757323802 0.677000582
v 0.174892992 0.755655885 0.684899271
v 0.108959742 0.874415159 0.688145459
v 0.103439607 0.867028177 0.688162148
v 0.144636333 0.763247609 0.688723862
v 0.141696364 0.751039743 0.688768446
v 0.105579518 0.806769788 0.688428283
v 0.0988364592 0.802146196 0.688429654
v 0.14225857 0.695809186 0.689008474
v 0.104037479 0.755181909 0.688646793
v 0.0909803286 0.763420582 0.688575208
v 0.084831953 0.757724404 0.688582838
v 0.10482832 0.699952662 0.688887417
v 0.096039705 0.699744165 0.688864112
v 0.0873168036 0.699370384 0.688841701
v 0.0830663443 0.690168023 0.688869715
v 0.0806069449 0.67750144 0.688917577
v 0.0386120863 0.741977096 0.688523471
v 0.0303025767 0.740476966 0.68850702
v 0.0467880182 0.691033006 0.688765943
v 0.0429675132 0.681051433 0.688798547
v 0.0890036449 0.575589478 0.689380825
v 0.0824191719 0.571386397 0.689380825
v 0.0263548773 0.669623911 0.69274807
v 0.0255936421 0.670816422 0.70063287
v 0.0243296009 0.672966063 0.708516777
v 0.0260139145 0.669503748 0.716398299
v 0.0256257784 0.669986427 0.724273622
v 0.0238883272 0.673037112 0.732159078
v 0.0231275745 0.674228907 0.740038872
v 0.0239687823 0.672372282 0.747891366
v 0.0256366432 0.652131438 0.747748554
v 0.0158582609 0.661881149 0.755708039
v 0.013171792 0.658205032 0.763536572
v 0.0112070376 0.653421581 0.763502598
v 0.00670045055 0.64497 0.763448894
v -0.000407336687 0.641409039 0.763458312
v -0.0115806153 0.645398915 0.763565421
v -0.0142733725 0.642218769 0.755704582
v -0.0108452952 0.627707064 0.747740984
v -0.0161567125 0.629173756 0.747773528
v -0.0230958965 0.633731067 0.743908167
v -0.0253009927 0.638006568 0.736078858
v -0.0237803962 0.635413706 0.728199899
v -0.023020545 0.634223342 0.720329523
v -0.0217255838 0.632046342 0.712458968
v -0.0222785715 0.633276701 0.704585969
v -0.0215184446 0.632085919 0.696712732
v 0.0100209778 0.565896392 0.689204931
v -0.0396295488 0.640488148 0.688746035
v -0.0447875038 0.63322556 0.688763142
v -0.0223257411 0.575794697 0.689073086
v -0.0267193876 0.567407012 0.689097166
v -0.0404665209 0.575910389 0.689022541
v -0.0469025262 0.571186483 0.689025223
v -0.0503975078 0.561209977 0.689058661
v -0.0884886831 0.612857521 0.688730657
v -0.0965166241 0.610755682 0.688717604
v -0.0812240466 0.567469478 0.688946664
v -0.0851589143 0.558304906 0.688975394
v -0.104305655 0.575812697 0.688847005
v -0.142391592 0.626164138 0.688524604
v -0.111048996 0.555508971 0.688916087
v -0.0960991383 0.513743877 0.689137638
v -0.160498545 0.60894984 0.688549042
v -0.144978315 0.566258609 0.688776135
v -0.0826562569 0.443975836 0.685643673
v -0.0904360712 0.449505389 0.689430654
v 0.251280248 -0.139680147 0.699404597
v 0.252668768 -0.135587096 0.702640295
v 0.252042592 -0.134606153 0.709126055
v 0.251416415 -0.133625209 0.715611815
v 0.25286749 -0.129676059 0.722101271
v 0.252214104 -0.128648698 0.728589654
v 0.252029717 -0.12842235 0.735072494
v 0.252679139 -0.123097919 0.74158287
v 0.252499551 -0.129357696 0.744777977
v 0.25199163 -0.141521543 0.747916579
v 0.25404644 -0.151515618 0.751041651
v 0.25267908 -0.162099153 0.754164457
v 0.249615163 -0.163370505 0.75737977
v 0.25085488 -0.178259388 0.760413527
v 0.250252694 -0.190003067 0.766660392
v 0.24626644 -0.189659327 0.766696692
v 0.237787649 -0.188154548 0.766783535
v 0.231898904 -0.190981686 0.766795218
v 0.223020256 -0.188879251 0.766892791
v 0.217044264 -0.19159323 0.766906619
v 0.212032825 -0.1958929 0.766892791
v 0.379747987 -0.476253897 0.767857969
v 0.379397452 -0.481398195 0.77360785
v 0.379115731 -0.480956852 0.776526034
v 0.380540609 -0.483316898 0.782282591
v 0.38058266 -0.483421683 0.788086057
v 0.378660649 -0.485982031 0.793860793
v 0.379726917 -0.487751842 0.799603343
v 0.381214589 -0.490207434 0.805312753
v 0.38107729 -0.49564752 0.810960114
v 0.380517125 -0.49476999 0.816762209
v 0.383096218 -0.498991638 0.822366416
v 0.430431753 -0.575911283 0.824981868
v 0.429592133 -0.580029905 0.830468178
v 0.429320514 -0.579604387 0.833281398
v 0.380642384 -0.5007236 0.842489839
v 0.380113363 -0.505485237 0.848080575
v 0.380939752 -0.506850779 0.85374558
v 0.381327659 -0.507506907 0.859438479
v 0.379550487 -0.510216355 0.862239897
v 0.380162269 -0.511230946 0.8679021
v 0.381756097 -0.513831079 0.873466253
v 0.380612999 -0.517558038 0.879042685
v 0.380548686 -0.5174793 0.884743333
v 0.380841821 -0.517976522 0.890404522
v 0.379416436 -0.52123332 0.895982563
v 0.379353732 -0.521144092 0.89882946
v 0.381895065 -0.52525419 0.904228687
v 0.381341994 -0.524387717 0.90995729
v 0.381055564 -0.529452145 0.915370464
v 0.38073656 -0.52896136 0.921062469
v 0.382067651 -0.531119108 0.926550865
v 0.379760474 -0.532922685 0.932177067
v 0.380118728 -0.533516049 0.937770665
v 0.380087823 -0.533486009 0.943409681
v 0.379701227 -0.538342476 0.94595176
v 0.379151076 -0.537480593 0.951650143
v 0.379180759 -0.5375458 0.957267523
v 0.379458427 -0.543453813 0.962497771
v 0.37897104 -0.542692065 0.968174696
v 0.378873348 -0.542552114 0.973793149
v 0.378494322 -0.547392428 0.979081452
v 0.378505856 -0.547417939 0.981875479
v 0.379268736 -0.548646986 0.987344801
v 0.377391428 -0.551084876 0.992839932
v 0.378993303 -0.553643405 0.998156846
v 0.375229448 -0.55306989 1.00116229
v 0.368255377 -0.552809715 1.00151038
v 0.364611536 -0.552442014 1.00170946
v -0.400498867 -0.210496679 -0.117133863
v -0.388117343 -0.214086428 -0.111381456
v -0.379354239 -0.213454545 -0.114263162
v -0.378722191 -0.214465588 -0.12150462
v -0.379403532 -0.213841274 -0.129185855
v -0.384101957 -0.213933825 -0.133453652
v -0.398964256 -0.207034826 -0.132612631
v -0.402976096 -0.207781821 -0.12917012
v -0.401197642 -0.209748581 -0.121100768
v -0.438507408 -0.210150525 -0.117651053
v -0.429168105 -0.20984371 -0.112898834
v -0.41686368 -0.213444829 -0.114679597
v -0.415843576 -0.214934304 -0.121830374
v -0.417230606 -0.213470653 -0.129773155
v -0.421666175 -0.213950247 -0.13395828
v -0.436046213 -0.207846552 -0.132891491
v -0.439518243 -0.209287241 -0.129247889
v -0.442125827 -0.211655393 -0.121567339
v 0.414091647 0.877503991 -0.191016287
v 0.422850192 0.877095699 -0.185805634
v 0.433266908 0.873234153 -0.188214242
v 0.438790232 0.870669544 -0.191361368
v 0.436669469 0.865865886 -0.199133247
v 0.435686767 0.857901394 -0.202046916
v 0.428786606 0.85349679 -0.202046916
v 0.414057255 0.867914379 -0.201969653
v 0.41092658 0.87488848 -0.195113391
v 0.377538204 0.880278051 -0.187012881
v 0.387872994 0.876600444 -0.1852853
v 0.399648964 0.86967808 -0.18705444
v 0.40004015 0.869065285 -0.191106379
v 0.400218129 0.858681321 -0.197707549
v 0.396065146 0.858466923 -0.202320293
v 0.388819396 0.854794204 -0.202484205
v 0.373888046 0.868856549 -0.198116183
v 0.375316411 0.875349283 -0.190636307
v -0.398495793 -0.199614763 -0.0624770299
v -0.387131065 -0.20197691 -0.057174921
v -0.377994776 -0.201933801 -0.0637065321
v -0.377646267 -0.20247978 -0.0673164055
v -0.379258424 -0.206521347 -0.0742915422
v -0.38324219 -0.207492962 -0.0782899857
v -0.39515692 -0.204327628 -0.0800840184
v -0.400382578 -0.203556567 -0.0770183876
v -0.402875304 -0.200239062 -0.070328705
v -0.401295334 -0.202082098 -0.0661128312
v -0.435705364 -0.200159922 -0.0624870844
v -0.424725413 -0.201893866 -0.0573162325
v -0.417713851 -0.204944566 -0.0636052862
v -0.413393348 -0.204576507 -0.0669671819
v -0.416663557 -0.206589937 -0.0744841322
v -0.419567078 -0.208938822 -0.0781562403
v -0.431570828 -0.205819711 -0.0799435526
v -0.437307537 -0.204481974 -0.0770060867
v -0.439291894 -0.201816529 -0.0701197237
v -0.439359128 -0.201612949 -0.0663940907
v 0.412321627 0.888064742 -0.138422757
v 0.420159727 0.889923275 -0.133734927
v 0.430758774 0.885254622 -0.131920338
v 0.435470819 0.885066211 -0.139764071
v 0.436285168 0.883758664 -0.147824705
v 0.432701409 0.882218301 -0.152125001
v 0.424236864 0.881617486 -0.152906001
v 0.413702101 0.88571769 -0.150474757
v 0.412045658 0.889091313 -0.142805651
v 0.372706532 0.8879444 -0.13822794
v 0.380962819 0.888960481 -0.133348972
v 0.390509337 0.887143493 -0.132099763
v 0.396157265 0.884762049 -0.139541611
v 0.397580475 0.881978273 -0.147339612
v 0.394498825 0.879147828 -0.151395336
v 0.384153306 0.882921398 -0.153074816
v 0.378115326 0.886530399 -0.150073871
v 0.372991443 0.887588322 -0.142350689
v -0.398699462 -0.174489588 -0.0177260172
v -0.392146319 -0.170825467 -0.0138974981
v -0.377802014 -0.177310154 -0.0190012585
v -0.380553246 -0.179837167 -0.0226221457
v -0.381680429 -0.184512123 -0.0294884313
v -0.384779692 -0.186490476 -0.0294884313
v -0.395256191 -0.185105279 -0.0307441931
v -0.402475566 -0.181846082 -0.0282172468
v -0.401459575 -0.177024737 -0.0213585831
v -0.437115759 -0.173578411 -0.0178328697
v -0.428277969 -0.172668129 -0.0133506265
v -0.415707409 -0.17676349 -0.019034218
v -0.417124838 -0.180973738 -0.0222855676
v -0.41868645 -0.185114861 -0.0293129012
v -0.422204703 -0.186602861 -0.029430192
v -0.431550533 -0.186743036 -0.0303318277
v -0.438921958 -0.177436352 -0.0249591637
v -0.439340204 -0.176803246 -0.0213275142
v 0.377214402 0.883425653 -0.0825421065
v 0.390549362 0.872086167 -0.0754257813
v 0.39551115 0.881936133 -0.084761247
v 0.400716692 0.880249381 -0.0881856084
v 0.395578891 0.882784009 -0.0974157825
v 0.390364766 0.884803951 -0.0982267857
v 0.381257176 0.885594606 -0.099228248
v 0.375739694 0.887630701 -0.0916860104
v 0.373415619 0.882314742 -0.0869233906
v 0.383212715 0.878564358 -0.0687246993
v 0.397482365 0.864879012 -0.0612379648
v 0.40656808 0.863967121 -0.0602622367
v 0.415144414 0.864248157 -0.0595071986
v 0.422426194 0.867671549 -0.0593291409
v 0.432002723 0.865763009 -0.0623015538
v 0.421689749 0.880873919 -0.0696292594
v 0.413066268 0.88068378 -0.0704101846
v 0.405487746 0.877899826 -0.0707119554
v 0.397353023 0.876450598 -0.0712620243
v 0.389931083 0.873248816 -0.0714877173
v 0.232859537 0.961708069 0.152962476
v 0.255990863 0.929486275 0.161917657
v 0.26437512 0.9314695 0.153865516
v 0.269297153 0.930783689 0.150061622
v 0.27333805 0.932110727 0.145995572
v 0.283133775 0.930803239 0.138396546
v 0.287437201 0.931804478 0.130195335
v 0.292286068 0.931241453 0.126393884
v 0.296954662 0.931387484 0.118315533
v 0.297350287 0.930767715 0.11421784
v 0.301650643 0.931768239 0.10602247
v 0.306516975 0.931445062 0.0980171412
v 0.306973636 0.930987895 0.0897104964
v 0.311780721 0.930798769 0.0816915184
v 0.311669022 0.931368589 0.0774189904
v 0.312189788 0.930763423 0.0691292956
v 0.312981009 0.929523885 0.0609337464
v 0.313287377 0.929422021 0.0525626689
v 0.313080937 0.930523694 0.0439990684
v 0.309805989 0.928340077 0.0355912596
v 0.310165912 0.928111196 0.0272243451
v 0.394232184 0.721881151 0.0519259833
v 0.390885085 0.719744563 0.0519259833
v 0.384190917 0.715471447 0.0519259833
v 0.374940842 0.717096746 0.0509660691
v 0.360682279 0.729890466 0.0522115342
v 0.353688329 0.726194382 0.0521141775
v 0.344758481 0.726895332 0.0513031147
v 0.33792761 0.722797453 0.0512698591
v 0.254061192 0.902130485 0.0259860996
v 0.253167301 0.903600037 0.0341715328
v 0.252523214 0.90450567 0.0424467251
v 0.252914757 0.903073967 0.0510842241
v 0.253890008 0.900325775 0.0599133708
v 0.253097534 0.90156728 0.0681217685
v 0.252949268 0.901355267 0.0765476823
v 0.252586991 0.901626468 0.0848964974
v 0.252534777 0.901198626 0.0933433399
v 0.252582103 0.90054667 0.101815805
v 0.253632396 0.907797337 0.109478422
v 0.25284031 0.909038186 0.117682539
v 0.252834439 0.9085024 0.126131371
v 0.252874643 0.907863021 0.134587273
v 0.252198905 0.908841491 0.1428193
v 0.231322408 0.965746939 0.143975809
v 0.233259678 0.961081207 0.148817852
v -0.00610045157 0.250294417 0.398311526
v 0.160518244 -0.0159351062 0.425328046
v 0.166371405 -0.0121988347 0.425328046
v 0.172224566 -0.00846256409 0.425328046
v 0.181186825 -0.0100326892 0.425783426
v 0.187030688 -0.00630235486 0.425783426
v 0.193248332 -0.00999774691 0.419356793
v 0.19013764 -0.0114816334 0.415870011
v 0.190793097 -0.0125080654 0.409053028
v 0.191930145 -0.0143599315 0.402312785
v 0.189193204 -0.0164376926 0.395420343
v 0.191164479 -0.0197148491 0.388822079
v 0.191911548 -0.0208980553 0.382025301
v 0.189323708 -0.0232749637 0.378619462
v 0.190288886 -0.0248302165 0.371861607
v 0.192730695 -0.0289063212 0.365369439
v 0.190076381 -0.0311176255 0.358492851
v -0.0347570144 0.344423681 0.310504436
v -0.0441030376 0.345106453 0.309978396
v -0.0511097908 0.341804951 0.30988574
v -0.0105160661 0.265900612 0.32172516
v -0.0101122921 0.257756025 0.329934567
v -0.00872521941 0.255345851 0.337728977
v -0.00819932576 0.254381984 0.345361292
v -0.00891525764 0.255503535 0.352776825
v -0.00783401448 0.253607273 0.360487103
v -0.0112455199 0.25925523 0.367463648
v -0.0118663469 0.252905756 0.371634871
v -0.00431654602 0.247499794 0.379834116
v -0.00503010815 0.248617634 0.387225091
v -0.00839596801 0.261542559 0.393752456
v -0.193118706 0.0651045144 0.413553029
v -0.126579687 -0.0195282474 0.424895972
v -0.120500237 -0.0156475324 0.424895972
v -0.114420794 -0.0117668165 0.424895972
v -0.107267402 -0.00948348735 0.425033391
v -0.0905565396 -0.0214835778 0.42639789
v -0.0819246247 -0.0214969739 0.426730394
v 0.133737713 -0.333104402 0.450541496
v 0.129415914 -0.320756495 0.443127155
v 0.132470205 -0.319489151 0.439921945
v 0.128327951 -0.307345539 0.43246609
v 0.128638566 -0.307832152 0.42924884
v 0.134770066 -0.305287927 0.422814369
v 0.13814643 -0.304502398 0.416379899
v 0.138457045 -0.30498901 0.413162678
v 0.12217252 -0.274212182 0.403717309
v 0.125268519 -0.272927523 0.40046832
v 0.128678188 -0.272134244 0.39397037
v 0.132087857 -0.271340996 0.387472421
v 0.135183856 -0.270056337 0.384223461
v 0.125178412 -0.248597652 0.375479549
v -0.254995704 0.337024629 0.303923011
v -0.254244447 0.335847735 0.296141475
v -0.25434497 0.335982919 0.288208872
v 0.0631329417 -0.153087392 0.337647021
v -0.10981591 0.106501505 0.303248823
v -0.0837709233 0.0597305335 0.304883331
v -0.0899479017 0.0557875633 0.304883331
v -0.0930363834 0.0538160764 0.304883331
v -0.0992133617 0.0498731025 0.304883331
v -0.105042145 0.0453846678 0.301276833
v -0.110838719 0.0408682525 0.301346391
v -0.0901996791 -0.00336103886 0.302609503
v -0.0963030085 -0.00725700194 0.302609503
v -0.0971364975 -0.0190044381 0.303573668
v -0.103225447 -0.0228912234 0.303573668
v -0.109314404 -0.0267780107 0.303573668
v -0.111766525 -0.0232136045 0.295882255
v -0.0586524941 -0.108055227 0.302735418
v -0.0653550178 -0.104398079 0.309118778
v -0.0632137805 -0.107488252 0.316577792
v -0.0638842061 -0.106437966 0.323522002
v -0.0675280541 -0.107285716 0.330466241
v -0.0678632706 -0.106760576 0.33393836
v -0.0685337037 -0.10571029 0.34088257
v -0.0656668544 -0.116109662 0.348900944
v -0.0746802613 -0.109110989 0.351430416
v -0.0875235498 -0.102807 0.353843659
v -0.094069235 -0.0994833633 0.356810391
v -0.192187816 0.0434385315 0.348566294
v -0.192478821 0.0439399518 0.355906337
v -0.190983176 0.0483671613 0.36304453
v -0.191427201 0.0490906462 0.370361179
v -0.191714406 0.0495853387 0.37769872
v -0.193153143 0.0582679994 0.380739033
v -0.193856925 0.0593705364 0.388028741
v -0.192437187 0.0573691316 0.395607114
v -0.192878038 0.0646443367 0.402510494
v -0.192846939 0.0646706074 0.409897894
v 0.188488454 0.474088013 0.483358204
v 0.213008896 0.44240576 0.489251584
v 0.219379693 0.446472466 0.489251584
v 0.230131224 0.441831142 0.489762574
v 0.199364156 0.520009041 0.485417753
v 0.20657523 0.523001254 0.477850378
v 0.209132031 0.518033445 0.474337071
v 0.217807397 0.517892122 0.470788807
v 0.225150242 0.520414114 0.467078596
v 0.214766219 0.550096095 0.465329707
v 0.217546657 0.562200189 0.457132876
v 0.221028075 0.564012766 0.453302026
v 0.223417923 0.577023804 0.444999695
v 0.223820075 0.585193932 0.440719426
v 0.21105139 0.620723903 0.430610567
v 0.203577369 0.645290792 0.425093204
v 0.129741088 0.798212945 0.405944258
v 0.129613012 0.798866689 0.397735626
v 0.129960522 0.798538029 0.389596075
v 0.13007237 0.798696578 0.381414115
v 0.124126568 0.802007318 0.37278831
v 0.124907397 0.800784051 0.364700586
v 0.125688225 0.799560845 0.356612861
v 0.126469061 0.798337638 0.348525107
v 0.127005577 0.797618389 0.340392172
v 0.12724483 0.797512531 0.332201004
v 0.128025964 0.796288848 0.324110091
v 0.128729388 0.795225441 0.316003859
v 0.127802193 0.797527254 0.307568431
v 0.127792031 0.797937036 0.299307495
v 0.128512666 0.796838701 0.291193306
v 0.128740609 0.79675746 0.28297323
v 0.129422858 0.795738518 0.274847627
v 0.129109398 0.796775401 0.266500056
v 0.12989226 0.795548975 0.25839141
v 0.130675107 0.79432261 0.250282794
v 0.269564837 0.498967767 0.279167533
v 0.174319252 0.685708702 0.265934557
v 0.170553744 0.684146225 0.269886106
v 0.178798214 0.648995936 0.277258575
v 0.173920512 0.667807698 0.279446423
v 0.176531494 0.671150327 0.287319392
v 0.171759218 0.671682835 0.291036934
v 0.173506603 0.649901986 0.296853364
v 0.173128068 0.650494993 0.300774127
v 0.175359488 0.654577672 0.308539718
v 0.171622604 0.653027117 0.312461257
v 0.174912706 0.637025833 0.321778536
v 0.166493103 0.636077821 0.325419992
v 0.173939422 0.611991644 0.331496894
v 0.164332524 0.613498926 0.334891737
v 0.165924892 0.592728376 0.33646673
v 0.160481617 0.586110592 0.336693972
v 0.154437631 0.580704451 0.33680588
v 0.143344954 0.585270762 0.335963905
v 0.140395835 0.582562029 0.33208257
v 0.143208668 0.559920132 0.329943925
v 0.139410049 0.558911562 0.32591328
v 0.146408662 0.53696382 0.320067078
v 0.143114328 0.534860909 0.320067078
v 0.141700819 0.537897408 0.31194061
v 0.139763743 0.541954279 0.303689986
v 0.144648343 0.515593708 0.302122951
v 0.188560128 0.413792223 0.31629464
v 0.188167736 0.414287001 0.323834598
v 0.188190952 0.422343403 0.327014327
v 0.188272789 0.421918958 0.334654093
v 0.188098371 0.421990544 0.342238903
v 0.188725099 0.428759336 0.349372268
v 0.188002378 0.429891557 0.356858075
v 0.187464297 0.430665821 0.364376843
v 0.18966645 0.434524029 0.368005961
v 0.189061463 0.435427457 0.375513911
v 0.188567266 0.436115742 0.383039683
v 0.188558295 0.444144398 0.39011389
v 0.188542083 0.443901062 0.397723943
v 0.188724637 0.443271101 0.405359775
v 0.189471647 0.449838489 0.412582129
v 0.188747913 0.450972259 0.420078456
v 0.189359635 0.45781818 0.427300513
v 0.188997418 0.458385617 0.431052297
v 0.188272998 0.459520489 0.438555837
v 0.187638015 0.460480571 0.446071595
v 0.188872129 0.46612221 0.453408152
v 0.188227877 0.467099935 0.460926592
v 0.187676594 0.467895657 0.46845603
v 0.189576134 0.472384065 0.472092122
v 0.188851014 0.473520041 0.479602844
v 0.1215 0.412114322 0.544506967
v 0.126646221 0.418527365 0.544403076
v 0.12784186 0.416508436 0.536976457
v 0.12941128 0.413788944 0.529587388
v 0.125726163 0.412773877 0.525777102
v 0.127558962 0.409565091 0.518418074
v 0.129340082 0.406452715 0.511062264
v -0.127851933 0.869452536 0.486020178
v -0.128123492 0.869838536 0.490227193
v -0.128887415 0.871021748 0.498618901
v -0.129369602 0.871680319 0.507035732
v -0.129730612 0.872113407 0.51546067
v -0.128934652 0.870511889 0.519754767
v -0.126764208 0.489958435 0.536658704
v -0.067145355 0.404078573 0.544615865
v 0.267475963 -0.152456 0.563082874
v 0.269671559 -0.156164333 0.559990823
v 0.278896481 -0.15882872 0.553766251
v 0.281668335 -0.157059342 0.553766251
v 0.277110755 -0.135974601 0.546336532
v 0.275973827 -0.127299115 0.539402723
v 0.271449566 -0.119417258 0.535681427
v 0.268955708 -0.108337685 0.528554678
v 0.278058171 -0.117423095 0.525870919
v 0.275528491 -0.10623832 0.518707216
v 0.274566591 -0.0977460295 0.511667848
v 0.28185305 -0.103704885 0.508832574
v 0.28115499 -0.0956416875 0.501796961
v 0.22743389 -0.00829331763 0.489197791
v 0.224537939 -0.0101418998 0.489197791
v 0.216939807 -0.0106994733 0.488987833
v 0.211142451 -0.0144001218 0.488987833
v 0.201744497 -0.0118936459 0.488571763
v 0.192576155 -0.00988160539 0.491618901
v 0.186758891 -0.013594958 0.491618901
v 0.174560681 -0.00644287327 0.490899384
v -0.213259712 0.645710826 0.451681256
v -0.210677549 0.625024915 0.456838906
v -0.128275156 0.469899923 0.474414647
v -0.128312796 0.469918579 0.478351921
v -0.128193781 0.477401167 0.485908747
v -0.128947988 0.47858271 0.49372071
v -0.129693478 0.487544864 0.501222193
v -0.13031058 0.488541663 0.505112112
v -0.130479038 0.488731891 0.512987912
v -0.128471136 0.493047029 0.520760715
v -0.129226521 0.494230419 0.528585017
v -0.129460216 0.494577944 0.532508552
v 0.252766818 0.460763931 0.556864381
v 0.100788109 0.78615129 0.547822654
v 0.11087808 0.783990145 0.54808265
v 0.119432524 0.784916461 0.54821974
v 0.124412119 0.793169022 0.548066378
v 0.125482395 0.800620973 0.539777875
v 0.1260259 0.799884737 0.53172487
v 0.125133738 0.802110612 0.52353543
v 0.124960199 0.802854359 0.515402794
v 0.125736758 0.801637828 0.507359207
v 0.126513332 0.800421238 0.499315649
v 0.127172247 0.799447536 0.491259128
v 0.127119869 0.799942076 0.48312062
v 0.127887115 0.798744977 0.475072086
v 0.226008639 0.587524116 0.483174354
v 0.24723579 0.534727454 0.493734121
v 0.243467972 0.533418417 0.501296699
v 0.243103966 0.533988655 0.50506711
v 0.232117966 0.538762808 0.512208939
v 0.227810919 0.538708627 0.515914142
v 0.251042545 0.482533753 0.526155174
v 0.252044946 0.480163217 0.533769131
v 0.251326263 0.481289119 0.541213393
v 0.252340496 0.478895515 0.548807859
v 0.250975907 0.473009616 0.552710712
v 0.208836883 -0.722416818 0.601245463
v 0.213714778 -0.719303131 0.601245463
v 0.218592659 -0.716189384 0.601245463
v 0.0614306219 -0.490056723 0.588753641
v 0.0643750206 -0.488834977 0.585663736
v 0.0673194155 -0.487613201 0.582573831
v 0.0729535669 -0.484816521 0.576377332
v 0.0703564584 -0.475894451 0.572913885
v 0.0654372871 -0.463763744 0.566141009
v 0.0665336102 -0.459928483 0.562895536
v 0.0728486106 -0.457899034 0.562966466
v 0.0783198103 -0.454742849 0.559842467
v 0.0881733894 -0.457719088 0.560177863
v 0.0936627761 -0.454564929 0.560190499
v 0.100642174 -0.453530103 0.560314298
v 0.109994002 -0.45589754 0.560616076
v 0.11529769 -0.452512026 0.560616076
v 0.122753076 -0.452219367 0.560777724
v 0.124094427 -0.448569655 0.566913068
v 0.126716226 -0.44680053 0.570026577
v 0.114026129 -0.423005611 0.56266135
v 0.117800057 -0.422934413 0.559603333
v 0.119353265 -0.419679821 0.553233385
v 0.122911356 -0.419296682 0.550160408
v 0.125600666 -0.417684376 0.54387337
v 0.128874972 -0.416922599 0.537633419
v 0.131848052 -0.415688932 0.534513414
v 0.135122359 -0.414927155 0.528273463
v 0.138095453 -0.413693517 0.525153458
v -0.140299276 -0.011554867 0.49222824
v -0.148183733 -0.0128078833 0.492054671
v -0.15700826 -0.0127144028 0.491791725
v -0.166824222 -0.0112155601 0.4914352
v -0.176310629 -0.0102331992 0.491112053
v -0.184253693 -0.0115059903 0.49093768
v -0.191106305 -0.0143599734 0.490867883
v -0.201196283 -0.0126046129 0.490491539
v -0.211901084 -0.0100185638 0.490059048
v -0.221869946 -0.00852341484 0.489698231
v -0.228042454 -0.0124225542 0.489696354
v -0.238568127 -0.0102065243 0.489286095
v -0.245330587 -0.0133034829 0.489230067
v -0.255716592 -0.0113545982 0.488836169
v -0.254086941 -0.013746676 0.481713861
v -0.252287686 -0.0163751245 0.474614114
v -0.254677534 -0.0194346271 0.467408001
v -0.28106162 0.0108918026 0.461352199
v -0.272287339 -0.0138494726 0.462904751
v -0.270823449 -0.0219952911 0.470664442
v -0.270993322 -0.0279276408 0.474595129
v -0.261782676 -0.0404943451 0.482749194
v -0.268996447 -0.0366262533 0.489607334
v -0.276841283 -0.0319758244 0.492799312
v -0.282064885 -0.0309414994 0.496239573
v -0.275078237 -0.0527821779 0.501024544
v -0.263881505 -0.0801446065 0.509709895
v -0.267565846 -0.0750600994 0.512989342
v -0.269588292 -0.0782589018 0.520248234
v -0.270991147 -0.0823616832 0.52396214
v -0.192605972 -0.194368914 0.537237346
v -0.192318603 -0.194616541 0.544174731
v -0.190991119 -0.190413713 0.550975084
v -0.19165428 -0.189374819 0.557843983
v -0.192317441 -0.18833594 0.564712882
v -0.192166641 -0.182598203 0.567995191
v -0.192830503 -0.181558207 0.574871361
v 0.189080805 0.518679917 0.603132844
v 0.0641149282 0.784868896 0.595758975
v 0.0648920238 0.783651531 0.587709904
v 0.0656691268 0.782434165 0.579660833
v 0.0664462224 0.781216741 0.571611762
v 0.226062685 0.454639226 0.578923762
v 0.189332619 0.510630667 0.580605626
v 0.189830661 0.509342253 0.588216782
v 0.190172479 0.51696974 0.591825485
v 0.189444691 0.518109858 0.599363744
v -0.0637678429 0.521993101 0.619148672
v -0.0717255622 0.55197829 0.622458816
v -0.0650237277 0.556256294 0.622458816
v -0.193924904 0.802060962 0.612753928
v -0.194005162 0.802375615 0.604402006
v -0.193202466 0.801118076 0.596087694
v -0.192399755 0.799860597 0.587773383
v -0.192367926 0.799975872 0.579415202
v -0.193555877 0.802263618 0.570977628
v -0.193444148 0.802236915 0.562609017
v -0.194459766 0.804218233 0.554159164
v -0.194094092 0.803739488 0.545794666
v -0.193289414 0.802478909 0.53745991
v -0.192484736 0.801218331 0.529125214
v -0.191680059 0.799957752 0.520790458
v -0.190875381 0.798697114 0.512455761
v -0.190070704 0.797436535 0.504121006
v -0.189266026 0.796175957 0.495786279
v -0.190938994 0.799329698 0.487212151
v -0.19137834 0.800285757 0.478743732
v 0.299541265 -0.0811431333 0.524919212
v 0.300857902 -0.0904057696 0.53196454
v 0.301539004 -0.0984429196 0.535610855
v 0.300683022 -0.103799246 0.542396009
v 0.298216105 -0.106296107 0.549019039
v 0.300697803 -0.117431551 0.552771628
v 0.29931882 -0.121807069 0.559455335
v 0.309673935 -0.140105367 0.566835523
v 0.309317023 -0.132957742 0.573113382
v 0.309004366 -0.13246794 0.576351881
v -0.0657717586 0.526674271 0.556379616
v -0.0647928342 0.524807334 0.564299643
v -0.0655456558 0.525986671 0.572097301
v -0.0657258853 0.526158869 0.579929233
v -0.0648484081 0.524470866 0.587816834
v -0.0651501492 0.524857044 0.595630467
v -0.0659020618 0.526034951 0.603418648
v -0.066201672 0.526417494 0.611227572
v -0.0661079809 0.526180506 0.615141511
v 0.378569931 -0.546673477 0.648740709
v 0.190206364 -0.234348148 0.641764104
v 0.192451179 -0.237918019 0.635409892
v 0.189365357 -0.239119068 0.632176876
v 0.190644741 -0.241142854 0.625791132
v 0.191488177 -0.242470786 0.619388998
v 0.189137131 -0.244835451 0.612965465
v 0.189936653 -0.246092752 0.606562436
v 0.192046091 -0.249436796 0.600235879
v 0.189611882 -0.251672626 0.597032249
v -0.255011857 0.440269411 0.563266933
v -0.255531967 0.433641821 0.555551112
v -0.254516244 0.432041764 0.551671207
v -0.25529477 0.425836742 0.543956101
v -0.254196852 0.424113065 0.536143959
v -0.254013985 0.423832834 0.528263688
v -0.252154291 0.420907497 0.520514131
v -0.255060047 0.418062538 0.516602695
v -0.250712484 0.426087916 0.508502662
v 0.190160438 -0.270724505 0.539650977
v 0.191077009 -0.272164553 0.533281744
v 0.188955918 -0.274880022 0.526885986
v 0.189264655 -0.275363684 0.523688078
v 0.189882144 -0.276331007 0.517292321
v 0.193725646 -0.294470638 0.515008748
v 0.193003327 -0.299353033 0.518422127
v 0.190075874 -0.300769567 0.524820149
v 0.189203575 -0.305393666 0.531406045
v 0.19206427 -0.3158243 0.535116374
v 0.18893294 -0.316893101 0.541463137
v 0.196106896 -0.33396259 0.548676431
v 0.187462166 -0.320534974 0.551135421
v 0.192499623 -0.33425504 0.558119535
v 0.189500138 -0.335499674 0.561267257
v 0.228479251 -0.395777583 0.570499778
v 0.242209166 -0.411272436 0.574410915
v 0.250435412 -0.41255191 0.574627817
v 0.248200417 -0.397527754 0.574081481
v 0.25084734 -0.390067458 0.576987922
v 0.252887815 -0.387455195 0.583140612
v 0.252136469 -0.386276007 0.586186588
v 0.251258433 -0.384899199 0.592322767
v 0.252152532 -0.386306763 0.598567486
v 0.251585335 -0.391228825 0.604869008
v 0.250649482 -0.39555797 0.608049512
v 0.247701153 -0.396731526 0.611115694
v 0.249071732 -0.410392225 0.611468673
v 0.231447935 -0.388753414 0.616862237
v 0.373906165 -0.604606092 0.629589558
v 0.378792137 -0.601487219 0.629589558
v 0.377800941 -0.589152277 0.629313111
v 0.378548145 -0.579481542 0.629117191
v 0.380728126 -0.577479243 0.63198626
v 0.380024821 -0.576375842 0.637718081
v 0.371455222 -0.551890254 0.640048921
v 0.378294677 -0.55173111 0.640126109
v 0.37884897 -0.547110617 0.645850599
g path_000000
l 1 1415 1414 1413 1412 1411 1410 1409 1408 1407 1406 1405 1404 1403 1402 1401 1400 1399 1398 1397 1396 1395 1394 1393 1392 1391 1390 1389 1388 1387 1386 1385 1384 1383 1382
g path_000001
l 2 3 4 5 6 7 8 9 10 11 12 13 14 15 16 17 18 19 20 21 22 23 24 25 26 27 28 29 30 31 32 33 34 35 36 37 38 39 40 41 42 43 44 45 46 47 48 49 50 51 52 53 54 55 56 57 58 59 60 61 62 63 64 65 66 67 68 69 70 71 72 73 74 75 76 77 78 79 80 81 82 83 84 85 86 87 88 89 90 91 92 93 94 95 96 97 98 99 100
g path_000002
l 101 102 103 104 105 106 107 108 109 110 111 112 113 114 115 116 117 118 119 120 121 122 123 124 125 126 127 128 129 130 131 132 133 134 135 136 137 138 139 140
g path_000003
l 141 142 143 144 145 146 147 148 149 150 151 152 153 154 155 156 157 158 159 160 161 162 163 164 165 166 167 168
g path_000004
l 169 170 171 172 173 174 175 176 177 178 179 180 181 182 183 184 185 186 187 188 189 190 191 192
g path_000005
l 193 194 195 196 197 198 199 200 201 202 203 204
g path_000006
l 205 206 207 208 209 210 211 212 213 214 215
g path_000007
l 217 218 219 220 221 222 223
g path_000008
l 225 226 227 228 229
g path_000009
l 230 231 232 233
g path_000010
l 234 235
g path_000011
l 237 238 239 240 241 242 243 244 245
g path_000012
l 246 247 248 249 250 251
g path_000013
l 252 253 254 255
g path_000014
l 256 257 258 259 260 261 262 263 264
g path_000015
l 265 266 267
g path_000016
l 268 269 270 271 272 273
g path_000017
l 274 275 276 277 278
g path_000018
l 279 280 281 282
g path_000019
l 283 284 285
g path_000020
l 286 287 288 289 290 291 292
g path_000021
l 293 294 295 296 297 298
g path_000022
l 299 300 301 302 303 304 305 306 307
g path_000023
l 308 309 310 311 312 313 314 315 316 317 318 319 320 321 322 323 324 325 326 327 328 329 330 331 332 333 334 335 336 337 338 339 340 341
g path_000024
l 342 343 344 345
g path_000025
l 346 347 348 349
g path_000026
l 350 351 352 353 354 355 356 357 358 359 360 361 362 363 364 365 366 367 368 369 370 371 372 373 374 375 376 377 378 379 380 381 382 383 384 385 386 387 388 389
g path_000027
l 390 391 392
g path_000028
l 393 394 395
g path_000029
l 396 397 398 399 400 401 402 403 404 405 406 407 408
g path_000030
l 409 410 411 412 413 414 415 416 417 418 419 420 421 422 423 424 425 426 427 428 429 430 431 432 433 434 435 436 437 438 439 440 441 442 443 444 445 446 447 448 449 450 451 452 453 454 455 456 457 458 459 460 461 462 463 464 465 466 467 468 469 470 471 472 473 474 475 476 477 478 479 480 481 482 483 484 485 486 487 488 489 490 491 492 493 494 495 496 497 498 499 500 501 502 503 504 505 506 507 508 509 510
g path_000031
l 512 513 514 515 516 517 518
g path_000032
l 519 520
g path_000033
l 521 522 523 524
g path_000034
l 525 526 527 528 529 530
g path_000035
l 531 532 533 534 535 536 537 538 539 540 541 542 543 544 545
g path_000036
l 546 547 548 549
g path_000037
l 550 551 552 553 554 555 556
g path_000038
l 557 558 559 560 561 562 563
g path_000039
l 564 565 566 567 568 569 570 571 572 573 574 575 576
g path_000040
l 577 578 579
g path_000041
l 580 581 582 583
g path_000042
l 584 585 586 587 588
g path_000043
l 589 590 591 592
g path_000044
l 593 594 595 596 597 598 599
g path_000045
l 600 601
g path_000046
l 602 603
g path_000047
l 604 605 606 607 608 609
g path_000048
l 610 611
g path_000049
l 612 613 614 615 616 617 618
g path_000050
l 619 620
g path_000051
l 621 622 623 624 625 626 627 628 629 630 631 632 633 634
g path_000052
l 635 636 637 638 639 640 641
g path_000053
l 642 643 644 645 646 647 648 649 650 651 652 653 654 655 656 657 658 659 660 661 662 663 664 665 666 667 668 669
g path_000054
l 670 671 672 673 674 675 676 677 678 679
g path_000055
l 680 681 682 683 684 685 686 687 688
g path_000056
l 689 690
g path_000057
l 691 692 693 694 695 696 697 698 699 700 701
g path_000058
l 702 703 704 705 706 707 708 709 710 711 712 713 714 715
g path_000059
l 716 717
g path_000060
l 718 719 720 721 722 723 724 725 726 727 728
g path_000061
l 729 730
g path_000062
l 732 733 734 735 736 737 738 739
g path_000063
l 740 741 742 743 744 745 746 747 748 749 750 751 752
g path_000064
l 754 755
g path_000065
l 756 757 758 759 760 761 762 763 764 765 766
g path_000066
l 770 771 772 773
g path_000067
l 774 775 776 777 778 779 780 781 782 783
g path_000068
l 784 785 786 787 788 789 790 791 792 793 794 795 796 797
g path_000069
l 798 799 800 801 802 803 804 805 806 807 808 809 810 811 812 813 814 815 816 817 818 819
g path_000070
l 820 821 822 823 824 825 826 827
g path_000071
l 828 829 830 831 832 833 834 835 836 837 838 839 840 841 842 843 844 845 846 847 848 849 850 851 852 853 854 855
g path_000072
l 856 857 858 859 860 861 862 863 864 865 866
g path_000073
l 867 868 869 870
g path_000074
l 871 872 873 874 875 876 877 878 879
g path_000075
l 881 882 883 884 885 886 887
g path_000076
l 889 890
g path_000077
l 892 893 894 895 896 897 898 899 900
g path_000078
l 901 902
g path_000079
l 904 905 906 907
g path_000080
l 908 909 910 911 912 913 914
g path_000081
l 915 916 917 918 919 920
g path_000082
l 921 922 923
g path_000083
l 925 926 927 928 929 930 931
g path_000084
l 932 933 934
g path_000085
l 935 936 937
g path_000086
l 944 945
g path_000087
l 946 947 948 949
g path_000088
l 952 953 954
g path_000089
l 955 956
g path_000090
l 957 958 959
g path_000091
l 961 962 963 964 965
g path_000092
l 966 967
g path_000093
l 968 969
g path_000094
l 971 972 973
g path_000095
l 974 975 976 977 978
g path_000096
l 980 981 982 983
g path_000097
l 984 985 986
g path_000098
l 987 988 989 990
g path_000099
l 991 992 993
g path_000100
l 994 995 996 997 998 999 1000
g path_000101
l 1001 1002 1003 1004 1005
g path_000102
l 1006 1007 1008 1009
g path_000103
l 1010 1011 1012 1013
g path_000104
l 1015 1016 1017 1018
g path_000105
l 1019 1020
g path_000106
l 1021 1022 1023 1024 1025
g path_000107
l 1026 1027 1028 1029
g path_000108
l 1030 1031
g path_000109
l 1032 1033 1034 1035 1036 1037 1038 1039 1040 1041 1042 1043 1044 1045 1046 1047 1048
g path_000110
l 1049 1050 1051 1052 1053 1054 1055 1056
g path_000111
l 1058 1059 1060 1061 1062 1063
g path_000112
l 1064 1065 1066 1067 1068 1069 1070 1071 1072
g path_000113
l 1073 1074 1075 1076 1077 1078
g path_000114
l 1079 1080 1081 1082 1083 1084 1085 1086 1087 1088 1089 1090 1091 1092 1093 1094 1095 1096 1097 1098 1099 1100 1101 1102 1103 1104 1105 1106 1107 1108 1109 1110 1111 1112 1113 1114 1115 1116 1117 1118 1119 1120 1121 1122 1123 1124 1125 1126 1127 1128 1129 1130 1131 1132 1133 1134 1135 1136 1137 1138 1139 1140 1141 1142 1143 1144 1145 1146 1147 1148 1149 1150 1151 1152 1153 1154 1155 1156 1157 1158 1159 1160 1161 1162 1163 1164 1165 1166 1167 1168
g path_000115
l 1170 1171 1172 1173 1174 1175 1176 1177 1178 1179 1180 1181 1182 1183 1184 1185 1186 1187 1188 1189 1190 1191 1192 1193 1194 1195 1196
g path_000116
l 1197 1198 1199 1200 1201 1202 1203 1204 1205 1206
g path_000117
l 1207 1208 1209 1210
g path_000118
l 1211 1212 1213 1214 1215
g path_000119
l 1216 1217 1218 1219 1220 1221 1222 1223 1224 1225 1226 1227 1228 1229 1230 1231 1232 1233 1234 1235
g path_000120
l 1237 1238 1239 1240 1241 1242 1243 1244 1245 1246 1247 1248 1249 1250 1251 1252 1253 1254 1255 1256 1257 1258 1259 1260 1261 1262 1263 1264 1265 1266 1267 1268 1269 1270 1271 1272 1273
g path_000121
l 1274 1275 1276 1277 1278 1279 1280
g path_000122
l 1281 1282
g path_000123
l 1283 1284
g path_000124
l 1285 1286
g path_000125
l 1288 1289 1290
g path_000126
l 1291 1292 1293 1294 1295
g path_000127
l 1296 1297
g path_000128
l 1298 1299
g path_000129
l 1300 1301
g path_000130
l 1302 1303 1304 1305 1306 1307 1308 1309 1310 1311 1312 1313 1314 1315 1316 1317 1318 1319 1320 1321 1322 1323 1324 1325 1326
g path_000131
l 1328 1329
g path_000132
l 1330 1331 1332 1333 1334
g path_000133
l 1335 1336
g path_000134
l 1337 1338
g path_000135
l 1345 1346
g path_000136
l 1347 1348 1349 1350 1351 1352 1353 1354 1355 1356 1357 1358 1359 1360 1361 1362 1363 1364 1365 1366 1367
g path_000137
l 1368 1369 1370 1371 1372 1373 1374 1375 1376 1377 1378
g path_000138
l 1379 1380 1381
g path_000139
l 1528 1573 1572
g path_000140
l 1529 1530 1531 1532 1533 1534 1535 1536 1537 1538 1539 1540 1541 1542 1543 1544 1545 1546 1547 1548
g path_000141
l 1549 1550 1551 1552 1553 1554 1555 1556
g path_000142
l 1557 1558 1559 1560 1561 1562 1563 1564 1565 1566 1567 1568 1569 1570 1571
g path_000143
l 1574 1604 1603 1602 1601 1600 1599 1598 1597 1596 1595 1594
g path_000144
l 1575 1576 1577 1578 1579 1580 1581 1582 1583 1584 1585 1586 1587 1588 1589 1590
g path_000145
l 1591 1592 1593
g path_000146
l 1605 1663 1662 1661 1660 1659 1658 1657 1656 1655 1654
g path_000147
l 1606 1607 1608 1609 1610 1611
g path_000148
l 1612 1613 1614 1615 1616 1617 1618 1619
g path_000149
l 1620 1621 1622 1623 1624
g path_000150
l 1626 1627 1628
g path_000151
l 1631 1632 1633 1634 1635 1636
g path_000152
l 1637 1638 1639 1640 1641 1642
g path_000153
l 1643 1644 1645 1646 1647 1648 1649 1650 1651 1652 1653
g path_000154
l 1664 1751 1750 1749 1748 1747 1746 1745 1744 1743 1742 1741 1740 1739 1738 1737 1736 1735 1734 1733 1732 1731 1730 1729 1728 1727
g path_000155
l 1665 1666 1667
g path_000156
l 1668 1669 1670 1671 1672
g path_000157
l 1673 1674 1675 1676 1677
g path_000158
l 1680 1681 1682 1683 1684 1685 1686 1687 1688 1689 1690 1691 1692 1693 1694 1695 1696 1697 1698 1699
g path_000159
l 1701 1702
g path_000160
l 1703 1704 1705 1706 1707 1708 1709 1710 1711 1712
g path_000161
l 1713 1714 1715 1716 1717 1718 1719 1720 1721
g path_000162
l 1722 1723 1724 1725
g path_000163
l 1752 1753 1754 1755 1756 1757 1758
g path_000164
l 1759 1760 1761 1762 1763 1764
g path_000165
l 1765 1799 1798 1797 1796 1795 1794 1793 1792 1791 1790
g path_000166
l 1767 1768 1769 1770
g path_000167
l 1771 1772 1773 1774 1775 1776 1777 1778 1779
g path_000168
l 1780 1781 1782 1783 1784 1785 1786 1787
g path_000169
l 1788 1789
g path_000170
l 1800 1824 1823 1822 1821 1820
g path_000171
l 1801 1802 1803 1804 1805 1806 1807 1808 1809 1810 1811 1812 1813
g path_000172
l 1815 1816 1817 1818 1819
g path_000173
l 1825 1826 1827
g path_000174
l 1828 1829 1830 1831 1832 1833 1834 1835 1836 1837 1838 1839 1840 1841 1842 1843 1844
g path_000175
l 1845 1846 1847 1848 1849 1850 1851 1852 1853
g path_000176
l 1854 1855 1856 1857 1858 1859 1860 1861 1862 1863 1864 1865 1866 1867 1868 1869 1870
g path_000177
l 1872 1873 1874 1875 1876 1877 1878
g path_000178
l 1880 1881 1882 1883
g path_000179
l 1884 1885 1886 1887 1888 1889 1890
g path_000180
l 1891 1900 1899 1898 1897
g path_000181
l 1892 1893 1894 1895
g path_000182
l 1901 1939 1938 1937 1936 1935 1934 1933 1932 1931
g path_000183
l 1902 1903
g path_000184
l 1904 1905 1906 1907 1908 1909 1910 1911 1912 1913 1914 1915 1916 1917 1918 1919 1920
g path_000185
l 1921 1922 1923 1924 1925 1926 1927
g path_000186
l 1928 1929 1930
g path_000187
l 1940 1996 1995 1994
g path_000188
l 1941 1942 1943 1944 1945 1946 1947 1948 1949
g path_000189
l 1950 1951 1952 1953 1954 1955 1956 1957 1958
g path_000190
l 1959 1960 1961 1962 1963 1964 1965 1966 1967 1968 1969
g path_000191
l 1970 1971 1972 1973
g path_000192
l 1975 1976 1977 1978 1979 1980 1981 1982 1983 1984 1985 1986
g path_000193
l 1988 1989 1990 1991 1992 1993
g path_000194
l 1416 1417 1418 1419 1420 1421 1422 1423 1424 1416
g path_000195
l 1425 1426 1427 1428 1429 1430 1431 1432 1433 1425
g path_000196
l 1434 1435 1436 1437 1438 1439 1440 1441 1442 1434
g path_000197
l 1443 1444 1445 1446 1447 1448 1449 1450 1451 1443
g path_000198
l 1452 1453 1454 1455 1456 1457 1458 1459 1460 1461 1452
g path_000199
l 1462 1463 1464 1465 1466 1467 1468 1469 1470 1471 1462
g path_000200
l 1472 1473 1474 1475 1476 1477 1478 1479 1480 1472
g path_000201
l 1481 1482 1483 1484 1485 1486 1487 1488 1489 1481
g path_000202
l 1490 1491 1492 1493 1494 1495 1496 1497 1498 1490
g path_000203
l 1499 1500 1501 1502 1503 1504 1505 1506 1507 1499
g path_000204
l 1508 1509 1510 1511 1512 1513 1514 1515 1516 1508
g path_000205
l 1517 1518 1519 1520 1521 1522 1523 1524 1525 1526 1527 1517
