# Fixed world centers; Z up; paths immutable
v 0.447713822 0.532647312 -0.101043351
v 0.451038748 0.527756453 -0.106252916
v 0.455523312 0.526193976 -0.111462481
v 0.460007876 0.52463156 -0.116672039
v 0.46449247 0.523069084 -0.121881604
v 0.46449247 0.523069084 -0.121881604
v 0.460007876 0.52463156 -0.116672039
v 0.455523312 0.526193976 -0.111462481
v 0.452198386 0.531084836 -0.106252916
v 0.449956089 0.531866074 -0.103648134
v -0.112625271 0.661234796 1.03083098
v -0.1187618 0.657831848 1.02495432
v -0.137392595 0.660922408 1.01544142
v -0.138733581 0.654357851 1.01589823
v -0.150708124 0.653658688 1.01023567
v -0.150804207 0.646807253 1.00781703
v -0.155304909 0.646026969 1.00223827
v -0.210186765 0.668630838 0.971819937
v -0.198057339 0.654596269 0.980069101
v -0.200229749 0.648361027 0.980069101
v -0.207014278 0.644606888 0.977414668
v -0.214816347 0.641375005 0.974178731
v -0.241460323 0.647767305 0.963805079
v -0.243911117 0.641600013 0.963658988
v -0.24372907 0.634422541 0.961338937
v -0.254427582 0.636330247 0.95583123
v -0.262898713 0.633295715 0.952237725
v -0.27334702 0.631262898 0.947516739
v -0.285627604 0.630142093 0.941753626
v -0.300735205 0.630798817 0.93064189
v -0.308647931 0.62768048 0.923636496
v -0.318292916 0.625414133 0.91562289
v -0.347274691 0.636444628 0.899614096
v -0.365876555 0.637912035 0.894048333
v -0.36817947 0.631400883 0.894031584
v -0.370453179 0.62487489 0.894031584
v -0.375409871 0.619695067 0.89249748
v -0.391352594 0.619987905 0.884688497
v -0.40642637 0.619783342 0.877386749
v -0.414623827 0.616441905 0.870166481
v -0.42177102 0.616099894 0.866738915
v -0.436464638 0.615888119 0.855784774
v -0.448796034 0.614454448 0.846161544
v -0.454321533 0.613561034 0.839756846
v -0.461924285 0.609746933 0.832815468
v -0.469900101 0.610002279 0.824973822
v -0.476311445 0.605853379 0.814749718
v -0.474042982 0.605063021 0.812114537
v -0.483216614 0.602202833 0.800240874
v -0.49319154 0.603632569 0.787165463
v -0.494915038 0.600794733 0.782858729
v -0.498229176 0.599003255 0.773611188
v -0.495937049 0.598204672 0.77094847
v -0.4998703 0.596694708 0.761297941
v -0.502839684 0.594712019 0.752185524
v -0.505967677 0.592791438 0.742950559
v -0.50452894 0.592399061 0.739754915
v -0.510692596 0.591900349 0.728666127
v -0.506638348 0.590559304 0.722947419
v -0.508684814 0.587811708 0.718357325
v -0.505437732 0.586851835 0.712140203
v -0.508518577 0.584868252 0.702808082
v -0.510104239 0.582168162 0.694356084
v -0.508869827 0.581870914 0.690990329
v -0.514843881 0.581218541 0.679822326
v -0.510178983 0.579593241 0.67440325
v -0.513350666 0.577610493 0.664896667
v -0.507797062 0.575570047 0.660011053
v -0.510720432 0.573181033 0.654784799
v -0.505696177 0.571389437 0.649564862
v -0.513494432 0.571542561 0.637090623
v -0.508800328 0.569907069 0.631637633
v -0.514365435 0.568723261 0.624701977
v -0.508406281 0.566499829 0.620030165
v -0.508497059 0.5630337 0.612303376
v -0.501582921 0.560368061 0.608238816
v -0.509894133 0.56070888 0.595246077
v -0.506062984 0.559476793 0.589192688
v -0.504341364 0.555150568 0.582563579
v -0.502615631 0.554622173 0.57940948
v -0.500547409 0.554206073 0.572201788
v -0.510558426 0.555293024 0.557933033
v -0.506190658 0.55381453 0.552169085
v -0.513114572 0.55318284 0.544142187
v -0.50775677 0.551248789 0.53900373
v -0.505156577 0.546485245 0.532863855
v -0.501024663 0.545116007 0.526917934
v -0.499801666 0.540982246 0.519856989
v -0.496121913 0.539820552 0.513599336
v -0.513079107 0.544011414 0.494377911
v -0.510680974 0.543175876 0.491592109
v -0.507294953 0.542151332 0.485073179
v -0.511210561 0.540336311 0.474461108
v -0.507090092 0.538975835 0.468408525
v -0.510387778 0.536602795 0.462591946
v -0.505090415 0.534705162 0.457323998
v -0.509453416 0.533066154 0.446311057
v -0.507085145 0.528351486 0.439873397
v -0.507490993 0.528791845 0.43513149
v -0.506463408 0.524679363 0.427755445
v -0.508142829 0.521785319 0.418494612
v -0.512181222 0.519694626 0.412072957
v -0.512761831 0.516282618 0.40353179
v -0.513204157 0.512799323 0.39506653
v -0.512771964 0.508673906 0.391722739
v -0.521606445 0.504736483 0.378231972
v -0.518563628 0.503618002 0.375819296
v -0.520331442 0.496499479 0.367243797
v -0.522182941 0.493360341 0.362266541
v -0.521934807 0.485101759 0.359660149
v -0.518915296 0.479814202 0.358120382
v -0.52186054 0.472953498 0.353254348
v -0.530661583 0.468407959 0.34881568
v -0.537064612 0.462798208 0.346079797
v -0.531564891 0.456447959 0.346286297
v -0.532705009 0.448577791 0.34727335
v -0.538038492 0.44249469 0.345292896
v -0.538740158 0.434442967 0.346589088
v -0.543502629 0.428103954 0.345015466
v -0.546904147 0.421186298 0.344404578
v -0.552425504 0.415143162 0.342299789
v -0.547171056 0.404644638 0.347791314
v -0.555366457 0.399543911 0.348377705
v -0.557620823 0.392296433 0.34400332
v -0.545747697 0.383321136 0.353246152
v -0.550474048 0.376820594 0.356255472
v -0.558191478 0.3715204 0.357171506
v -0.556182623 0.362453461 0.360343635
v -0.561316967 0.360247612 0.362182945
v -0.563759089 0.352962166 0.362241864
v -0.560520232 0.343448341 0.366256893
v -0.562193513 0.335877806 0.366847694
v -0.566296041 0.32925263 0.365748435
v -0.566416144 0.321086437 0.367417961
v -0.568599999 0.313721478 0.367652059
v -0.571093857 0.306476027 0.367670745
v -0.569709718 0.297765791 0.370377928
v -0.574038029 0.29121846 0.369123757
v -0.576666296 0.284028471 0.369048268
v -0.569037318 0.273091167 0.37156418
v -0.572573066 0.266252995 0.370856285
v -0.573894322 0.258600026 0.371681899
v -0.579027176 0.252337605 0.369870543
v -0.581209064 0.244997576 0.370100975
v -0.587620974 0.239175737 0.367410272
v -0.581441402 0.232925728 0.368042976
v -0.585468173 0.22624597 0.366997778
v -0.587983668 0.219026148 0.366997778
v -0.586218238 0.210307211 0.369951725
v -0.591176689 0.203947291 0.368265003
v -0.586758912 0.194336832 0.373041183
v -0.589343488 0.187148556 0.368497908
v -0.591854274 0.179942012 0.368497908
v -0.595422149 0.173093095 0.367769837
v -0.58880645 0.162787706 0.369568884
v -0.5941751 0.156547859 0.367596626
v -0.59668386 0.149347201 0.367596626
v -0.589790344 0.143013135 0.368725657
v -0.590795815 0.135333329 0.369758755
v -0.586893559 0.126008093 0.369696975
v -0.595455885 0.120788954 0.365517497
v -0.588226795 0.11440032 0.366888642
v -0.591480017 0.10746377 0.366369247
v -0.592941999 0.0998799652 0.362607688
v -0.593025088 0.0918556675 0.359797597
v -0.595141768 0.0885363594 0.359199077
v -0.584900975 0.0772075355 0.359059155
v -0.584983885 0.0691998303 0.356254876
v -0.589095831 0.0664974004 0.354267418
v -0.587937653 0.0579998009 0.347836196
v -0.590241849 0.0547327884 0.347102493
v -0.590612769 0.0467999391 0.344093442
v -0.604186535 0.0429368988 0.336384118
v -0.608050466 0.0361380503 0.33544147
v -0.610560417 0.0289338753 0.33544147
v -0.610089064 0.0207220558 0.333008587
v -0.606955409 0.0118822148 0.336933523
v -0.609125376 0.00840734318 0.331793427
v -0.608295143 0.000252667873 0.334116966
v -0.609042048 -0.00759380544 0.330840588
v -0.606093943 -0.0163237173 0.334638536
v -0.609832168 -0.0231591798 0.333778262
v -0.610698581 -0.0307966024 0.334916145
v -0.606950164 -0.0396954417 0.33925882
v -0.61648643 -0.0449431725 0.334371388
v -0.614004254 -0.0534727834 0.33782962
v -0.604396343 -0.0640834421 0.341754913
v -0.607789218 -0.0670859739 0.340264052
v -0.606801689 -0.0753645822 0.338208079
v -0.606034994 -0.0835802704 0.336000144
v -0.603124738 -0.0884514153 0.334419519
v -0.606419921 -0.0958237797 0.324896246
v -0.599342823 -0.0978702158 0.325362504
v -0.600646555 -0.101869255 0.316340715
v -0.603719711 -0.105427742 0.306047916
v -0.596600235 -0.107473291 0.306563407
v -0.591854692 -0.109134175 0.300899297
v -0.584039629 -0.107680507 0.296531767
v -0.586003661 -0.107618853 0.28607595
v -0.569016635 -0.108525254 0.288285971
v -0.557643354 -0.107786 0.29103905
v -0.552753627 -0.101487689 0.28824687
v -0.555151522 -0.0971727446 0.281085759
v -0.537729502 -0.0941742584 0.287363917
v -0.544722497 -0.0888258517 0.272308022
v -0.543476939 -0.0852510035 0.272308022
v -0.542549551 -0.0778724402 0.266611636
v -0.550918221 -0.0681422651 0.249511421
v -0.571988285 -0.0626188517 0.229443416
v -0.576452732 -0.0617873035 0.216888294
v -0.575206399 -0.0625044107 0.208507374
v -0.580098033 -0.0655485317 0.196490854
v -0.578857005 -0.0662707239 0.18805337
v -0.573941827 -0.0679832026 0.182343587
v -0.584994137 -0.0692066252 0.170321375
v -0.580061197 -0.0709252954 0.164590955
v -0.581995845 -0.0748140439 0.154642403
v -0.577054799 -0.0765355527 0.148902535
v -0.583353996 -0.0792819262 0.135594904
v -0.591554761 -0.0813425332 0.125567809
v -0.586585402 -0.0830738842 0.119795121
v -0.582901061 -0.0884934291 0.114022426
v -0.60118407 -0.087956436 0.096189186
v -0.597478569 -0.093407087 0.0903833658
v -0.612207115 -0.0981533825 0.0713446289
v -0.613537967 -0.102104694 0.0664607361
v -0.614513934 -0.106152877 0.0618459173
v -0.620154679 -0.11333444 0.0497371368
v -0.621102333 -0.117410868 0.0451253094
v -0.629520297 -0.123705789 0.0357095562
v -0.628299415 -0.12834017 0.0327721722
v -0.628679335 -0.136917666 0.0246913135
v -0.634138882 -0.139662176 0.0214473456
v -0.634884834 -0.148179382 0.0130582275
v -0.635099709 -0.152481988 0.00898234546
v -0.645253837 -0.158506438 -0.00187529344
v -0.645193756 -0.162893906 -0.00575067522
v -0.642735779 -0.172224268 -0.0116644688
v -0.646869421 -0.17564258 -0.0188595094
v -0.648931742 -0.183946982 -0.0283682887
v -0.647699237 -0.1886255 -0.0313336514
v -0.649876893 -0.192528456 -0.0370096192
v -0.649261892 -0.201478139 -0.0444229059
v -0.65138489 -0.205413043 -0.0500729121
v -0.657821298 -0.21282427 -0.0631496608
v -0.662008405 -0.216334 -0.0704801157
v -0.657144964 -0.226270691 -0.0745350271
v -0.662415445 -0.229571134 -0.0827599317
v -0.661456823 -0.234225482 -0.0859771594
v -0.658197403 -0.239718959 -0.0924044475
v -0.661628425 -0.243444487 -0.0991796777
v -0.658352137 -0.248950243 -0.105609037
v -0.654530644 -0.254571617 -0.111596704
v -0.628173292 -0.260799438 -0.100235038
v -0.623050451 -0.262584269 -0.10618604
v -0.624905944 -0.262913346 -0.117888324
v -0.626650095 -0.26326853 -0.129539907
v -0.638779819 -0.261464417 -0.149853662
v -0.650241315 -0.26393947 -0.168595359
v -0.658819914 -0.266305447 -0.17461893
v -0.648241639 -0.273352295 -0.175050795
v -0.661312282 -0.275204957 -0.190046459
v -0.660057425 -0.283737719 -0.186744243
v -0.661715567 -0.291674525 -0.185879499
v -0.661668718 -0.299940169 -0.183593526
v -0.655885458 -0.309704721 -0.181710854
v -0.656767726 -0.317759275 -0.180205286
v -0.657188416 -0.325892299 -0.178317159
v -0.654136956 -0.335081518 -0.17870903
v -0.65566659 -0.34298712 -0.177748889
v -0.659258425 -0.350513399 -0.178509012
v -0.652188957 -0.356310517 -0.176663458
v -0.654776812 -0.364006937 -0.176589891
v -0.65557754 -0.372016251 -0.175027162
v -0.652301431 -0.381175131 -0.175223947
v -0.652822435 -0.38921082 -0.173431054
v -0.648921251 -0.394391537 -0.174214095
v -0.651589453 -0.402049869 -0.174214095
v -0.648449898 -0.411137581 -0.174515545
v -0.648632884 -0.419191092 -0.172444299
v -0.64349705 -0.424536884 -0.172184184
v -0.646672964 -0.432092398 -0.172614187
v -0.642225862 -0.441334277 -0.171813026
v -0.63743782 -0.450606078 -0.170719028
v -0.636417806 -0.459284842 -0.172771856
v -0.637744367 -0.463092357 -0.172771856
v -0.624480963 -0.474082649 -0.169677928
v -0.626525998 -0.477772713 -0.170284227
v -0.617201746 -0.488130808 -0.1704593
v -0.610089958 -0.493644476 -0.168471023
v -0.604126036 -0.499509752 -0.172543943
v -0.598070383 -0.504849315 -0.171417505
v -0.582637429 -0.512003541 -0.167424038
v -0.575802624 -0.517950714 -0.170691043
v -0.566356897 -0.519774616 -0.167733386
v -0.559130371 -0.52575475 -0.170625359
v -0.541718245 -0.52917552 -0.165870249
v -0.534844697 -0.535078883 -0.16900371
v -0.520920992 -0.538009644 -0.167146787
v -0.505011678 -0.5411973 -0.163512617
v -0.502496839 -0.54594624 -0.165276617
v -0.492123574 -0.54838866 -0.166385919
v -0.476720363 -0.551482975 -0.163060829
v -0.467389584 -0.553781152 -0.165003747
v -0.46057263 -0.559596539 -0.168005094
v -0.445166558 -0.562662601 -0.164529115
v -0.432685465 -0.56534791 -0.163582802
v -0.418914378 -0.568192542 -0.161441177
v -0.417059213 -0.572782934 -0.163701773
v -0.403410286 -0.575594068 -0.16160129
v -0.393565536 -0.577922106 -0.162860796
v -0.380865157 -0.580604017 -0.16151686
v -0.37292546 -0.586463571 -0.163287103
v -0.363472641 -0.588726521 -0.164802969
v -0.351221025 -0.591330171 -0.163743079
v -0.34136343 -0.59363544 -0.164822191
v -0.32600826 -0.596608877 -0.160831839
v -0.321487784 -0.601994395 -0.165587664
v -0.307719767 -0.604753017 -0.162960947
v -0.295120746 -0.607365131 -0.161358669
v -0.271857291 -0.611246943 -0.149800718
v -0.265269458 -0.613127589 -0.153665796
v -0.261728495 -0.618336201 -0.159213811
v -0.259340525 -0.619168162 -0.161987826
v -0.254564583 -0.620832145 -0.167535856
v -0.249787271 -0.622496247 -0.17308256
v -0.241002247 -0.624626935 -0.174836367
v -0.21902208 -0.628285825 -0.164032325
v -0.206130728 -0.630880833 -0.16177614
v -0.19413738 -0.633366346 -0.160324663
v -0.184396863 -0.635587573 -0.160986766
v -0.175984874 -0.637652934 -0.162894696
v -0.166276976 -0.639863491 -0.163525537
v -0.154020533 -0.642360508 -0.161651433
v -0.143828928 -0.644617677 -0.161735609
v -0.134422809 -0.646781862 -0.16254954
v -0.127463385 -0.648666739 -0.165728748
v -0.118391618 -0.650787175 -0.16681543
v -0.149156556 -0.648443699 -0.207177341
v -0.148197711 -0.649667144 -0.216372609
v -0.237994805 -0.6445539 -0.314510584
v -0.2497316 -0.644430339 -0.336716324
v -0.244299099 -0.646194696 -0.341867357
v -0.216140032 -0.650432289 -0.324209064
v -0.196848035 -0.653690279 -0.31531772
v -0.192013383 -0.655374706 -0.320933968
v -0.190371424 -0.660440624 -0.328519046
v -0.171404496 -0.666742921 -0.313265651
v -0.171208799 -0.671639383 -0.322282523
v -0.155867413 -0.674400866 -0.317122668
v -0.156266257 -0.675539315 -0.328022033
v -0.140207931 -0.674095869 -0.318063319
v -0.154268011 -0.67751956 -0.341765046
v -0.118375279 -0.682353914 -0.315226585
v -0.103162088 -0.685070932 -0.309919983
v -0.103161767 -0.686246455 -0.320375651
v -0.0947517231 -0.684035003 -0.318126172
v -0.0915916264 -0.681876838 -0.326587647
v -0.0533000603 -0.686962724 -0.29685846
v -0.0551667698 -0.687930346 -0.309235454
v -0.0671831593 -0.687873423 -0.332400799
v -0.0698589683 -0.688774109 -0.345769942
v -0.0662580431 -0.686077893 -0.348527074
v -0.0730776712 -0.686555207 -0.366392493
v -0.077838026 -0.687250614 -0.382136643
v -0.0744936019 -0.688771546 -0.389236867
v -0.0619670227 -0.68754971 -0.38777262
v -0.0455284044 -0.686740637 -0.382014811
v -0.03579285 -0.68890667 -0.382125258
v -0.0441458821 -0.692300498 -0.395224929
v -0.0239336416 -0.691869259 -0.385219961
v -0.0315408371 -0.692271173 -0.404267341
v -0.0279296432 -0.689567327 -0.407032371
v -0.0447882153 -0.689023674 -0.436405927
v -0.0492101945 -0.689759672 -0.452180475
v -0.0454094112 -0.687633872 -0.460276842
v -0.0197247379 -0.687762737 -0.443984985
v -0.0155643541 -0.689365149 -0.450237781
v -0.00537939323 -0.687913001 -0.451116741
v -0.00642353855 -0.688389957 -0.457754612
v 0.00485216361 -0.68705523 -0.457371682
v 0.00591531908 -0.688332677 -0.467124134
v 0.013247245 -0.686006963 -0.465689957
v 0.0328600034 -0.685568571 -0.455717504
v 0.0364636779 -0.682870328 -0.458476752
v 0.065714784 -0.679319978 -0.433249265
v 0.0892082602 -0.67579776 -0.419899285
v 0.098502934 -0.673787475 -0.415991634
v 0.100768387 -0.671537161 -0.425601631
v 0.0963178352 -0.667961657 -0.437601238
v 0.102221526 -0.666114569 -0.443050295
v 0.115243338 -0.664557219 -0.434724391
v 0.121819511 -0.662798285 -0.439341903
v 0.132147327 -0.660951555 -0.434087604
v 0.143740997 -0.659803271 -0.43274802
v 0.14388074 -0.657280445 -0.44491744
v 0.168793917 -0.657243192 -0.422258258
v 0.175054461 -0.65547657 -0.427104533
v 0.187108889 -0.653912485 -0.419585317
v 0.193037242 -0.652113974 -0.424784422
v 0.199785367 -0.650419116 -0.428995907
v 0.202944055 -0.651329279 -0.430640161
v 0.211254925 -0.646268368 -0.434385717
v 0.221737176 -0.640997469 -0.43001762
v 0.225220725 -0.63838923 -0.432684898
v 0.234671652 -0.637069345 -0.433535635
v 0.238150254 -0.6344648 -0.436199129
v 0.253080904 -0.629861414 -0.426263303
v 0.257100821 -0.627343893 -0.428233236
v 0.268066019 -0.621777177 -0.417641342
v 0.279273748 -0.620762289 -0.41615504
v 0.284783244 -0.618478298 -0.416235238
v 0.289145261 -0.612496614 -0.419185311
v 0.289054006 -0.604945004 -0.416759491
v 0.288939327 -0.601383507 -0.418358862
v 0.298047453 -0.595677018 -0.409958214
v 0.325440794 -0.593287647 -0.384194553
v 0.328844726 -0.590738952 -0.386800885
v 0.332248658 -0.588190258 -0.389407218
v 0.336812943 -0.582311153 -0.39201352
v 0.343620807 -0.577213824 -0.397226185
v 0.34929204 -0.57462585 -0.391537547
v 0.356087506 -0.569537818 -0.396740675
v 0.359485209 -0.566993773 -0.399342239
v 0.366280645 -0.561905682 -0.404545367
v 0.369678378 -0.559361696 -0.407146931
v 0.376667231 -0.557440639 -0.405148804
v 0.396069914 -0.554581523 -0.394111574
v 0.4089728 -0.553744197 -0.384410471
v 0.419000179 -0.549304485 -0.385279477
v 0.419499129 -0.549767315 -0.390073627
v 0.425073028 -0.548023343 -0.395218283
v 0.435617685 -0.546817422 -0.388410091
v 0.45420444 -0.547468543 -0.376460344
v 0.452822566 -0.544464231 -0.390653014
v 0.471033275 -0.544727206 -0.373598039
v 0.482791632 -0.547622025 -0.36891064
v 0.49271211 -0.550171793 -0.366595656
v 0.494945556 -0.551296175 -0.374475062
v 0.495108724 -0.552039504 -0.385143727
v 0.499472588 -0.553559899 -0.390213042
v 0.5129987 -0.55333215 -0.384454757
v 0.519116998 -0.555175066 -0.387113035
v 0.517629087 -0.551814318 -0.396122158
v 0.511756361 -0.547616601 -0.411117762
v 0.513321996 -0.54861325 -0.420022368
v 0.516272664 -0.546406507 -0.428609312
v 0.523208201 -0.548414648 -0.430191964
v 0.546867132 -0.550134718 -0.410242975
v 0.544240534 -0.549981594 -0.419394374
v 0.549717367 -0.54826802 -0.424449444
v 0.55587852 -0.550128818 -0.426985234
v 0.563869238 -0.548899412 -0.428516179
v 0.559016526 -0.548652351 -0.446461439
v 0.56558311 -0.550593317 -0.448422611
v 0.572703898 -0.549192667 -0.451169252
v 0.573401511 -0.549666762 -0.455792427
v 0.58017087 -0.544415295 -0.455002904
v 0.574601114 -0.54399848 -0.474196017
v 0.57897234 -0.545521438 -0.479273975
v 0.550112724 -0.540590048 -0.532040536
v 0.560446322 -0.539771616 -0.53034991
v 0.56265986 -0.540542841 -0.532921255
v 0.568231702 -0.538799524 -0.538064063
v 0.570145905 -0.539848685 -0.546861768
v 0.568624139 -0.536700785 -0.562379122
v 0.573070228 -0.53824985 -0.567543983
v 0.574859023 -0.53187716 -0.574144244
v 0.573955655 -0.53202647 -0.581337035
v 0.574521482 -0.529255033 -0.593973398
v 0.56861186 -0.525157928 -0.616283059
v 0.570424259 -0.525852561 -0.619535565
v 0.565195799 -0.521865368 -0.641001761
v 0.568619728 -0.519301713 -0.643623412
v 0.569443166 -0.516520679 -0.656166136
v 0.568543911 -0.516977727 -0.669598937
v 0.570672393 -0.51444906 -0.680285215
v 0.565779865 -0.514074922 -0.699898779
v 0.570654631 -0.511780024 -0.700392306
v 0.563707054 -0.510968328 -0.723276019
v 0.552307069 -0.509235859 -0.753117263
v 0.57035166 -0.509984255 -0.739624262
v 0.560812831 -0.508625567 -0.766798079
v 0.562050104 -0.509527743 -0.777408004
v 0.53782928 -0.508514047 -0.81945926
v 0.533034027 -0.508182883 -0.839661539
v 0.542578578 -0.510821223 -0.837530553
v 0.535675824 -0.513807416 -0.859263182
v 0.540383697 -0.515447617 -0.864732087
v 0.533580542 -0.518497407 -0.886466324
v 0.537086844 -0.523655057 -0.891960025
v 0.53945148 -0.524478912 -0.894706905
v 0.542957723 -0.529636562 -0.900200665
v 0.543623865 -0.534236193 -0.910231888
v 0.55142796 -0.536128342 -0.90428108
v 0.565371513 -0.546667635 -0.884562433
v 0.56379354 -0.553797126 -0.883202672
v 0.563712955 -0.56158036 -0.885928392
v 0.574520051 -0.568047106 -0.879611373
v 0.579051495 -0.569265187 -0.878800333
v 0.583450496 -0.574531317 -0.88272047
v 0.589390457 -0.576389134 -0.886090934
v 0.594058633 -0.578015566 -0.891513765
v 0.598726809 -0.579641998 -0.896936595
v 0.604602158 -0.577803731 -0.902359486
v 0.617781043 -0.576922357 -0.889245689
v 0.621306777 -0.574282467 -0.891945302
v 0.627156436 -0.572452307 -0.89734447
v 0.631883979 -0.566362858 -0.900044024
v 0.629533708 -0.562599421 -0.912506521
v 0.640659153 -0.557735026 -0.904573619
v 0.644441485 -0.555146217 -0.90684253
v 0.654602945 -0.550141811 -0.900435507
v 0.659316957 -0.544069886 -0.903127313
v 0.661713719 -0.537190616 -0.903127313
v 0.66352433 -0.53018862 -0.904114366
v 0.662405193 -0.525940478 -0.901421845
v 0.659980059 -0.518024325 -0.90954119
v 0.647271156 -0.507223845 -0.921719372
v 0.646144092 -0.502945542 -0.919007659
v 0.645284235 -0.494991779 -0.917871475
v 0.642948866 -0.494178116 -0.915158629
v 0.642964363 -0.489870071 -0.903931379
v 0.640712857 -0.481323391 -0.898514271
v 0.635949492 -0.479952365 -0.899843872
v 0.618037939 -0.471512794 -0.918342412
v 0.609476268 -0.465201229 -0.92126292
v 0.608350754 -0.464668155 -0.916501522
v 0.602345109 -0.458941072 -0.915163755
v 0.60015291 -0.457893908 -0.905564189
v 0.594137907 -0.452159107 -0.904214025
v 0.594253719 -0.45166713 -0.890890718
v 0.594701827 -0.447483063 -0.879052162
v 0.592426181 -0.446682483 -0.876209795
v 0.593330681 -0.442624718 -0.863686323
v 0.592124164 -0.441835463 -0.852655649
v 0.589029193 -0.436825156 -0.846624076
v 0.586690784 -0.43601045 -0.843907595
v 0.582063377 -0.434393078 -0.838395834
v 0.580786943 -0.433596134 -0.827566028
v 0.580104172 -0.432946146 -0.81583643
v 0.57659781 -0.431605369 -0.808601618
v 0.573143601 -0.426524341 -0.803189516
v 0.573198676 -0.426067173 -0.790399015
v 0.570526004 -0.424936652 -0.781915903
v 0.571006775 -0.424588352 -0.768554688
v 0.569396794 -0.423723668 -0.758488119
v 0.570846736 -0.423619688 -0.743734598
v 0.566231012 -0.422011554 -0.738372684
v 0.567929983 -0.421973199 -0.723338842
v 0.570065618 -0.422046095 -0.70770818
v 0.572100699 -0.422096699 -0.692304313
v 0.572966516 -0.421858579 -0.678744614
v 0.571702719 -0.421091497 -0.668459296
v 0.580472648 -0.426483393 -0.641354263
v 0.575944364 -0.424905717 -0.636093974
v 0.57141614 -0.423328042 -0.630833626
v 0.578320086 -0.424592197 -0.608568788
v 0.584051251 -0.429411381 -0.592375398
v 0.579564512 -0.42784816 -0.58716327
v 0.579912424 -0.427481353 -0.574827731
v 0.589741409 -0.429464638 -0.548624039
v 0.596891522 -0.430789679 -0.526489317
v 0.593610525 -0.425963461 -0.521348596
v 0.610895097 -0.429846346 -0.48465997
v 0.612369001 -0.426255822 -0.472727269
v 0.609556258 -0.425336391 -0.471093297
v 0.623969495 -0.428546071 -0.438940614
v 0.618371964 -0.423211932 -0.437324882
v 0.619099677 -0.422986567 -0.425025403
v 0.619197488 -0.422603041 -0.413676143
v 0.614341795 -0.417666554 -0.416595668
v 0.613831222 -0.417135626 -0.406143785
v 0.608999908 -0.412002057 -0.403423637
v 0.606911182 -0.404073536 -0.39839834
v 0.608029783 -0.400862873 -0.39839834
v 0.60810405 -0.393687963 -0.395885706
v 0.607059717 -0.389723688 -0.393373072
v 0.605632544 -0.382310003 -0.398542464
v 0.60570693 -0.375123143 -0.396025628
v 0.607452512 -0.368553787 -0.396724582
v 0.608022273 -0.361504287 -0.393508822
v 0.609768391 -0.354931891 -0.394207209
v 0.610826373 -0.348158836 -0.395879239
v 0.610963523 -0.344526678 -0.391689837
v 0.612022161 -0.337748051 -0.393360496
v 0.614264846 -0.331311136 -0.393360496
v 0.615209818 -0.32448712 -0.395197153
v 0.617453814 -0.318046421 -0.395197153
v 0.618401587 -0.31111604 -0.39144066
v 0.619772255 -0.304409117 -0.39267695
v 0.620931029 -0.297630548 -0.394216388
v 0.621326268 -0.290604681 -0.396843284
v 0.616259873 -0.281830758 -0.40723899
v 0.615249217 -0.274370939 -0.417532623
v 0.616379261 -0.271127462 -0.417532623
v 0.620559096 -0.265266389 -0.414791822
v 0.622817218 -0.258785129 -0.414791822
v 0.62507534 -0.252303839 -0.414791822
v 0.622685552 -0.244261131 -0.421448261
v 0.621583879 -0.236624628 -0.426271766
v 0.62165916 -0.229356155 -0.42372635
v 0.621734381 -0.222087696 -0.421180964
v 0.622867584 -0.218835175 -0.421180964
v 0.625133991 -0.212330118 -0.421180964
v 0.621464431 -0.203735098 -0.423999935
v 0.6204862 -0.196057305 -0.428658247
v 0.622759879 -0.189531446 -0.428658247
v 0.625033498 -0.183005601 -0.428658247
v 0.624096274 -0.175341561 -0.427558839
v 0.626370966 -0.168812692 -0.427558839
v 0.622562289 -0.160006329 -0.436311811
v 0.621497452 -0.155964464 -0.433749974
v 0.621073127 -0.148390919 -0.437641591
v 0.621148944 -0.141066477 -0.435076594
v 0.621224761 -0.133742049 -0.432511598
v 0.622366726 -0.130464479 -0.432511598
v 0.622442544 -0.123140037 -0.429946572
v 0.618794799 -0.12916629 -0.431902796
v 0.616509557 -0.135725513 -0.431902796
v 0.617798984 -0.143574759 -0.432511598
v 0.614148378 -0.149613723 -0.434469402
v 0.611863136 -0.156172931 -0.434469402
v 0.609577835 -0.162732154 -0.434469402
v 0.611384273 -0.170795381 -0.428626329
v 0.614610553 -0.175628215 -0.428097397
v 0.607962668 -0.180615962 -0.428626329
v 0.604724765 -0.186843112 -0.424289525
v 0.626396477 -0.191008002 -0.389445901
v 0.624968588 -0.183190212 -0.394682497
v 0.620175838 -0.177856132 -0.391806036
v 0.621652961 -0.182086021 -0.382487893
v 0.623426259 -0.17915906 -0.370360225
v 0.623501003 -0.171938032 -0.367831439
v 0.621193588 -0.167385072 -0.378278583
v 0.619422793 -0.159398869 -0.383970112
v 0.62274003 -0.156915098 -0.386510044
v 0.620643318 -0.148838803 -0.387043446
v 0.620559931 -0.141518116 -0.384725094
v 0.620635092 -0.13425754 -0.382182449
v 0.616845608 -0.129187211 -0.383495748
v 0.611246645 -0.119513825 -0.400273293
v 0.609186172 -0.118614897 -0.408872843
v 0.61359787 -0.120151959 -0.41399771
v 0.615258038 -0.116885997 -0.42468375
v 0.617489159 -0.113831356 -0.434597105
v 0.62090528 -0.10781917 -0.427237719
v 0.619838357 -0.103769183 -0.424670756
v 0.613938987 -0.0978972018 -0.42328009
v 0.612230122 -0.0933430791 -0.433096826
v 0.617012501 -0.0877711326 -0.429532707
v 0.615943015 -0.0837115571 -0.426959664
v 0.614127815 -0.0757255331 -0.42135179
v 0.611697435 -0.0673399717 -0.422351688
v 0.611759782 -0.063597396 -0.423898101
v 0.611341774 -0.0599588901 -0.414662242
v 0.60935384 -0.0555133037 -0.413392544
v 0.605513752 -0.0465053059 -0.416373849
v 0.605066717 -0.0389173701 -0.414536417
v 0.599685013 -0.0330032147 -0.41805765
v 0.597536325 -0.0248469617 -0.41288802
v 0.59764719 -0.0210939422 -0.414357096
v 0.595497489 -0.0129338587 -0.409185052
v 0.594422638 -0.00885381736 -0.406599045
v 0.592498541 -0.000586899347 -0.40682593
v 0.591422677 0.00349682104 -0.404237568
v 0.587611258 0.0124044893 -0.401385516
v 0.585377276 0.0170092676 -0.40041399
v 0.584621429 0.0247851461 -0.398985803
v 0.583397329 0.0289418511 -0.396597654
v 0.574966073 0.039983619 -0.40014872
v 0.573885381 0.0440858118 -0.397548676
v 0.57247895 0.0521937609 -0.397009134
v 0.57209152 0.0559778251 -0.393444568
v 0.570720196 0.0638169572 -0.38714841
v 0.570772111 0.0676559433 -0.388678998
v 0.568925202 0.0757159293 -0.383040637
v 0.559874535 0.0838598758 -0.397143096
v 0.55829674 0.0921078548 -0.396814704
v 0.556123197 0.100358538 -0.391585231
v 0.557287216 0.103699662 -0.391585231
v 0.555113673 0.111950345 -0.386355758
v 0.556277752 0.115291476 -0.386355758
v 0.554104149 0.12354216 -0.381126285
v 0.553017378 0.127667502 -0.378511548
v 0.556367815 0.125389516 -0.362572134
v 0.552576184 0.130831674 -0.363655955
v 0.542382658 0.139438719 -0.373438805
v 0.539126694 0.148572713 -0.375350386
v 0.536946118 0.156849951 -0.370104074
v 0.53585583 0.160988554 -0.367480934
v 0.538004816 0.163498968 -0.360478252
v 0.528060615 0.176049322 -0.371397257
v 0.526017666 0.184277833 -0.365941226
v 0.524924159 0.188428506 -0.363310456
v 0.523269594 0.196831211 -0.363008738
v 0.522175252 0.200985029 -0.360375941
v 0.519765854 0.209793523 -0.361079901
v 0.51867038 0.213951856 -0.358444273
v 0.515209198 0.223331437 -0.360546201
v 0.514039934 0.227534041 -0.358002871
v 0.503176332 0.240855381 -0.369978458
v 0.502073884 0.245040074 -0.367326111
v 0.501487017 0.252968848 -0.365560532
v 0.501350164 0.26066044 -0.363194078
v 0.500462711 0.264730781 -0.360254288
v 0.500325739 0.272423476 -0.357887357
v 0.500404179 0.28000024 -0.355233997
v 0.501158118 0.283624291 -0.355801672
v 0.49825573 0.292841643 -0.35710448
v 0.493544519 0.303079218 -0.36079964
v 0.500212014 0.302967697 -0.347840101
v 0.497308373 0.312209964 -0.349132657
v 0.485322505 0.327060044 -0.368144929
v 0.484211206 0.331278503 -0.365471154
v 0.482107788 0.340652287 -0.371409476
v 0.482186973 0.348302007 -0.368730545
v 0.484572262 0.355148286 -0.368730545
v 0.483458787 0.359374851 -0.366051644
v 0.485844076 0.36622113 -0.366051644
v 0.48592326 0.37387085 -0.363372743
v 0.485924661 0.382112503 -0.366529912
v 0.488956243 0.389142185 -0.371422529
v 0.414763331 0.434001118 -0.481860638
v 0.412465036 0.436511874 -0.496878237
v 0.411603928 0.438180715 -0.51003623
v 0.416406572 0.436507434 -0.515615284
v 0.411743194 0.435538888 -0.526265442
v 0.399708897 0.439466387 -0.552990496
v 0.399199277 0.436589271 -0.56419313
v 0.401626229 0.43574369 -0.567012429
v 0.405224979 0.430450052 -0.572651029
v 0.401269704 0.429571509 -0.588638425
v 0.413677633 0.423465282 -0.583928168
v 0.400398999 0.427447289 -0.606644928
v 0.413579583 0.420901448 -0.600849628
v 0.40710637 0.421466768 -0.620480537
v 0.400995582 0.421794415 -0.639697134
v 0.40344885 0.420939654 -0.642547071
v 0.408355445 0.419230193 -0.648246825
v 0.392190605 0.425375432 -0.681735575
v 0.397137642 0.423651844 -0.687482357
v 0.407413214 0.418829739 -0.685695648
v 0.400781572 0.419416875 -0.706026614
v 0.403260201 0.418553293 -0.708905935
v 0.407569498 0.417202532 -0.715588808
v 0.412528098 0.415474921 -0.721349061
v 0.417486697 0.413747311 -0.727109253
v 0.40230912 0.41928336 -0.760050535
v 0.40730682 0.41754213 -0.765856206
v 0.401708364 0.421961695 -0.787052751
v 0.405665308 0.420831233 -0.794433475
v 0.425250858 0.415058553 -0.78084439
v 0.418065608 0.420440584 -0.804546475
v 0.422013134 0.419319183 -0.811959505
v 0.429403096 0.420668334 -0.816208959
v 0.430861294 0.420412153 -0.820685685
v 0.435866714 0.418672204 -0.826544166
v 0.442187309 0.420649767 -0.83237803
v 0.448524356 0.422617584 -0.838187158
v 0.4510189 0.421752512 -0.841128826
v 0.454582512 0.425372958 -0.851131856
v 0.462361485 0.421980381 -0.852796495
v 0.457160205 0.430858195 -0.876195729
v 0.460988551 0.433724642 -0.879127026
v 0.467340201 0.43571192 -0.88498956
v 0.473691851 0.437699229 -0.890852094
v 0.477520168 0.440565646 -0.893783331
v 0.483871847 0.442552954 -0.899645865
v 0.487700164 0.445419401 -0.902577162
v 0.495356828 0.451152265 -0.908439696
v 0.497880161 0.450273126 -0.911370933
v 0.492317826 0.459651381 -0.935978651
v 0.470352441 0.478604913 -0.979639649
v 0.474243373 0.481518239 -0.982618868
v 0.505173802 0.472059995 -0.944817841
v 0.507797241 0.47958982 -0.944817841
v 0.499463201 0.494101346 -0.96223563
v 0.502099156 0.501667023 -0.96223563
v 0.492819518 0.517681301 -0.98828429
v 0.491581351 0.522381306 -0.985305309
v 0.531267643 0.505114555 -0.91925025
v 0.534010649 0.512508869 -0.919033766
v 0.551384091 0.509484887 -0.888559103
v 0.552677691 0.513197899 -0.888559103
v 0.552763581 0.521495461 -0.885653317
v 0.552849472 0.529793024 -0.882747531
v 0.551641762 0.534377575 -0.879841745
v 0.547932565 0.539833605 -0.874030173
v 0.535406232 0.551217377 -0.882145345
v 0.532895148 0.552092254 -0.879228294
v 0.52787292 0.553842068 -0.873394132
v 0.524149358 0.559319317 -0.867559969
v 0.519127071 0.561069071 -0.861725867
v 0.505268455 0.56874907 -0.869618595
v 0.494465351 0.569743514 -0.870656908
v 0.491939723 0.570623457 -0.867722988
v 0.483023852 0.570336699 -0.865787387
v 0.46611613 0.570694745 -0.874038339
v 0.464803368 0.566926777 -0.874038339
v 0.45905745 0.56065619 -0.871976495
v 0.454406381 0.55443579 -0.875058889
v 0.450772256 0.547541916 -0.876588106
v 0.462823957 0.530558169 -0.854288995
v 0.461025119 0.522537291 -0.853053331
v 0.450647652 0.519244432 -0.858044863
v 0.452197522 0.512960315 -0.846970975
v 0.449385703 0.513305426 -0.837737501
v 0.443843096 0.51080966 -0.830665588
v 0.44807151 0.502193987 -0.809042573
v 0.447276056 0.501994133 -0.803573847
v 0.472294539 0.484943807 -0.753233969
v 0.510443509 0.459718525 -0.683845341
v 0.513522685 0.456451267 -0.666513622
v 0.508675694 0.458139986 -0.660883069
v 0.523434699 0.451947868 -0.628449261
v 0.500235081 0.465114832 -0.649621904
v 0.499064922 0.4695566 -0.646806598
v 0.495471269 0.474842697 -0.641176045
v 0.491877645 0.480128825 -0.635545492
v 0.488283992 0.485414952 -0.62991488
v 0.486358404 0.485945612 -0.626384497
v 0.495746017 0.48740083 -0.603956342
v 0.486099035 0.49789837 -0.619569361
v 0.494664788 0.499816239 -0.598355353
v 0.495600611 0.502891004 -0.59255749
v 0.503865361 0.500555515 -0.570120573
v 0.502642274 0.504989922 -0.567430735
v 0.502877712 0.508484781 -0.562671065
v 0.505778193 0.509543359 -0.547981441
v 0.500830531 0.515662253 -0.544415295
v 0.500115335 0.515412152 -0.539282858
v 0.491878837 0.528018534 -0.542057633
v 0.49044916 0.527506888 -0.531799734
v 0.475199819 0.541059196 -0.548702359
v 0.498351187 0.528888345 -0.505931199
v 0.506742239 0.527012885 -0.489911467
v 0.508589327 0.524365425 -0.475295424
v 0.501372576 0.536258519 -0.476626426
v 0.505292237 0.537997544 -0.472901821
v 0.497768849 0.545801222 -0.472945005
v 0.493033707 0.54745096 -0.46744436
v 0.487003386 0.549952626 -0.463713944
v 0.483930141 0.550509512 -0.455943793
v 0.491805583 0.539588571 -0.431687832
v 0.473478138 0.550137043 -0.444618732
v 0.477351457 0.550461948 -0.4291794
v 0.473703831 0.552127659 -0.428169459
v 0.466169804 0.555612981 -0.426449716
v 0.46244669 0.552300036 -0.417990237
v 0.450358272 0.558742583 -0.422285765
v 0.453081667 0.5512411 -0.405296236
v 0.446807683 0.554601729 -0.407720506
v 0.447681993 0.552618921 -0.39486149
v 0.445592999 0.548277736 -0.384344399
v 0.461791724 0.532193184 -0.350027382
v 0.481538445 0.518132091 -0.31289959
v 0.473644257 0.526729643 -0.319011807
v 0.473916322 0.525188208 -0.307297707
v 0.446596771 0.541391492 -0.331153005
v 0.438254207 0.54113692 -0.328900725
v 0.435675144 0.537192523 -0.319264412
v 0.433343232 0.538004994 -0.31655553
v 0.423997551 0.542613864 -0.317080706
v 0.414192736 0.547509849 -0.318142086
v 0.448111236 0.520406663 -0.262568474
v 0.459076494 0.512141049 -0.237684444
v 0.458506882 0.515993834 -0.234356865
v 0.454780459 0.517049313 -0.227985159
v 0.466349036 0.508404613 -0.202602327
v 0.455060095 0.51839149 -0.207145795
v 0.460222274 0.513808489 -0.189851642
v 0.462978035 0.510762691 -0.175607562
v 0.454520971 0.518939614 -0.176609889
v 0.457059056 0.516028583 -0.162704289
v 0.464693308 0.509892046 -0.142660767
v 0.460326523 0.515452743 -0.138689965
v 0.458077133 0.516236424 -0.136076957
v 0.457314223 0.515432239 -0.126344234
v 0.46690473 0.508065224 -0.104202092
v 0.464326739 0.508425057 -0.0967562795
v 0.461439043 0.508983016 -0.08969675
v 0.462769389 0.506874144 -0.0776384547
v 0.463011801 0.505459189 -0.0669196323
v 0.461670935 0.501037419 -0.0567585267
v 0.458948106 0.501506329 -0.0496060662
v 0.454618037 0.502987683 -0.0443493985
v 0.450966686 0.504042745 -0.0383022949
v 0.452692151 0.498345584 -0.0298201814
v 0.450522393 0.498478383 -0.0220872033
v 0.447923064 0.498882115 -0.0148695866
v 0.449056149 0.496955752 -0.00337487459
v 0.465251267 0.493519336 0.0227444973
v 0.464197695 0.497518629 0.0252793431
v 0.466438204 0.502769947 0.0353147164
v 0.465386569 0.506761849 0.037844874
v 0.4614788 0.507995903 0.0434146114
v 0.457123518 0.509513319 0.0484739654
v 0.456579506 0.500755489 0.0603654683
v 0.45801273 0.503173232 0.0656812713
v 0.463047802 0.503310442 0.0750362948
v 0.468299508 0.506588638 0.0882902741
v 0.467785686 0.510207295 0.0913870633
v 0.466323793 0.513806581 0.098334834
v 0.473896801 0.512261629 0.110431418
v 0.475028455 0.510298967 0.12144132
v 0.473226011 0.514094353 0.127938867
v 0.472192198 0.518018723 0.130426198
v 0.471488804 0.521104515 0.138121441
v 0.468629599 0.521686256 0.144646525
v 0.474309206 0.520670474 0.159285158
v 0.471151382 0.525315523 0.164232865
v 0.470035225 0.525406361 0.167808637
v 0.469337136 0.528467059 0.175418556
v 0.46799013 0.528080046 0.183496445
v 0.46785 0.530773938 0.191668987
v 0.469569087 0.529040098 0.198257878
v 0.468960941 0.532025814 0.205888435
v 0.467657149 0.53161335 0.21392478
v 0.465588063 0.535534799 0.219963998
v 0.46347636 0.536270559 0.222417116
v 0.461721063 0.536150515 0.229932442
v 0.459942579 0.539880037 0.236255422
v 0.456538945 0.540824473 0.242007032
v 0.453413755 0.545421541 0.246903628
v 0.457161874 0.541746259 0.260099888
v 0.458919048 0.543175578 0.27004078
v 0.461463481 0.540904462 0.277287334
v 0.463040352 0.542436302 0.286983043
v 0.46200797 0.541856349 0.295069933
v 0.461001217 0.545677841 0.297492087
v 0.465485156 0.541521668 0.311199635
v 0.462404728 0.546052933 0.316026151
v 0.45932427 0.550584137 0.320852637
v 0.463556617 0.546582043 0.334179968
v 0.457773507 0.553490639 0.331743091
v 0.461336851 0.54991889 0.344337881
v 0.458271176 0.554428399 0.34914124
v 0.45520547 0.558937967 0.353944629
v 0.455314219 0.558238447 0.358521789
v 0.45698446 0.559650719 0.368036598
v 0.456482321 0.558722973 0.376419753
v 0.465983868 0.555002093 0.39362064
v 0.46606335 0.558054447 0.397053927
v 0.463682145 0.558359683 0.40349263
v 0.46065715 0.562815189 0.40825063
v 0.460182339 0.566226184 0.411128014
v 0.455580086 0.567987919 0.415376961
v 0.452547908 0.572448194 0.420127869
v 0.451912761 0.575329423 0.427201897
v 0.453829587 0.573433876 0.433405131
v 0.462609053 0.570097685 0.449522704
v 0.461253136 0.573431849 0.455825448
v 0.464636803 0.569934905 0.467657268
v 0.463408858 0.573806226 0.46976456
v 0.460411191 0.578215659 0.474461347
v 0.456620783 0.579457104 0.479397953
v 0.455644816 0.583161771 0.481746078
v 0.452528268 0.583956659 0.487316579
v 0.44960621 0.588314772 0.492080718
v 0.457257599 0.585645497 0.506757915
v 0.463060111 0.584185183 0.519640088
v 0.461056173 0.584883332 0.521967947
v 0.458084702 0.58925432 0.526623726
v 0.458948612 0.591065586 0.534832358
v 0.457928032 0.591108799 0.538062572
v 0.457767785 0.593596578 0.54529357
v 0.458477885 0.595496356 0.553306282
v 0.458134443 0.595086992 0.557136178
v 0.455227852 0.599401414 0.561810851
v 0.453883767 0.602667511 0.567907572
v 0.454887956 0.60071218 0.577057242
v 0.460108191 0.60020417 0.584961593
v 0.46406576 0.599888861 0.595790446
v 0.461815655 0.600121796 0.601912558
v 0.4608621 0.603741407 0.604206741
v 0.460704327 0.602566361 0.612185717
v 0.4577806 0.606867075 0.616766632
v 0.455073535 0.611021578 0.62154001
v 0.453936249 0.61411494 0.627701342
v 0.452728808 0.614286184 0.630663455
v 0.45429635 0.615546048 0.639189601
v 0.452578276 0.615419805 0.645697236
v 0.456025243 0.616042912 0.651826799
v 0.453406513 0.616528094 0.657516181
v 0.450501502 0.62080127 0.662067771
v 0.453364611 0.621160448 0.67161566
v 0.453601301 0.620355189 0.675780058
v 0.451117009 0.624334872 0.680670381
v 0.452352136 0.622206926 0.689616561
v 0.453127235 0.62396574 0.697275341
v 0.451698452 0.627217472 0.703034222
v 0.450559437 0.627347171 0.705976665
v 0.450009912 0.629996657 0.712467492
v 0.448474973 0.629751265 0.718959391
v 0.446615934 0.633288026 0.724320114
v 0.446055532 0.633024335 0.727729082
v 0.44559592 0.632048965 0.73508662
v 0.445868105 0.634126782 0.742199123
v 0.443815887 0.63423866 0.748191833
v 0.443484485 0.636722326 0.754771233
v 0.439627767 0.638066053 0.759251475
v 0.439510643 0.640399992 0.765984118
v 0.437699348 0.640992701 0.768315792
v 0.434945613 0.641585827 0.773687482
v 0.431947321 0.642346799 0.778853178
v 0.428245068 0.643587947 0.783443213
v 0.425802022 0.643972576 0.789048433
v 0.424092233 0.647389531 0.794435024
v 0.420707464 0.648416042 0.799269497
v 0.418598711 0.648575127 0.805119097
v 0.41688183 0.648469746 0.811269224
v 0.417097151 0.647054434 0.818935633
v 0.41452679 0.647533715 0.824380279
v 0.413659841 0.651003659 0.826649666
v 0.408783019 0.649534881 0.831052601
v 0.405011564 0.650829911 0.835545838
v 0.401182473 0.652163982 0.839993954
v 0.397353411 0.653498054 0.84444207
v 0.394174069 0.654393077 0.849391401
v 0.391226768 0.655132174 0.854515135
v 0.386410594 0.653625309 0.85896045
v 0.382583946 0.654958487 0.863405704
v 0.378757268 0.656291723 0.867851019
v 0.37493062 0.65762496 0.872296274
v 0.372027785 0.655451477 0.874518931
v 0.368201107 0.656784713 0.878964245
v 0.364374459 0.65811795 0.8834095
v 0.361595988 0.655251801 0.889372766
v 0.357772499 0.656583965 0.893814385
v 0.345452964 0.660068095 0.892710149
v 0.337803096 0.661032796 0.891444206
v 0.333960593 0.662371516 0.895907879
v 0.329729348 0.661058962 0.897175848
v 0.323939979 0.660171509 0.900948822
v 0.32009396 0.661511481 0.905416608
v 0.315253407 0.659996986 0.909884393
v 0.307661355 0.663794816 0.911654949
v 0.296267271 0.667151928 0.907806754
v 0.292402476 0.668498456 0.912296295
v 0.285370678 0.668390155 0.915242016
v 0.281502604 0.669737875 0.919735432
v 0.278568327 0.667540848 0.921982169
v 0.274700224 0.668888509 0.926475585
v 0.269831896 0.667365313 0.930969
v 0.265963793 0.668712974 0.935462415
v 0.261095464 0.667189777 0.939955831
v 0.256227136 0.66566658 0.944449246
v 0.254293084 0.666340411 0.946695983
v 0.249424756 0.664817214 0.951189399
v 0.242631778 0.668040276 0.953677952
v 0.238223597 0.666781247 0.954921663
v 0.22861062 0.671798825 0.955514908
v 0.221459448 0.671712399 0.958491325
v 0.216567665 0.67018187 0.963006377
v 0.207951918 0.675098181 0.960769355
v 0.203047574 0.673563719 0.96529603
v 0.198143229 0.672029257 0.969822705
v 0.194246516 0.673386931 0.97434938
v 0.190351635 0.67176497 0.975989938
v 0.179269135 0.674109042 0.976439834
v 0.170575216 0.67493552 0.978496373
v 0.168444037 0.675726533 0.980654478
v 0.158669114 0.673672497 0.982694566
v 0.153736979 0.672129333 0.987246871
v 0.141338348 0.675745189 0.983411849
v 0.133520812 0.676500142 0.982569456
v 0.1212328 0.67946732 0.982427001
v 0.112806082 0.680035591 0.984801829
v 0.106133305 0.680040896 0.984751344
v 0.0980249643 0.680391133 0.98736465
v 0.0871879011 0.682394981 0.988266706
v 0.0817439929 0.68161571 0.989039361
v 0.0801419243 0.677984178 0.995802045
v 0.078155607 0.678676248 0.99810946
v 0.07271 0.680953145 1.00180316
v 0.0642248541 0.681492984 1.00425231
v 0.0587266386 0.683796823 1.00793421
v 0.0537223294 0.682224333 1.01256442
v 0.0500603952 0.679845452 1.01801944
v 0.0481811464 0.680472255 1.02039909
v 0.00909115374 0.699316919 1.00422144
v 0.00647068629 0.69987762 1.00975764
v 0.00351828453 0.700637817 1.01508582
v -0.00018648502 0.698240578 1.02058208
v -0.00117699697 0.698332429 1.02353299
v -0.00567427231 0.696412921 1.028543
v -0.00778859295 0.689485729 1.03558826
v -0.0103682159 0.686929643 1.03819764
v -0.0126129426 0.684177697 1.04100406
v -0.0162948687 0.678684294 1.04357207
v -0.0467423983 0.692431033 1.0297488
v -0.0524956807 0.691216707 1.03407216
v -0.0472168885 0.680449128 1.0419271
v -0.0446675681 0.671771824 1.04463923
v -0.0466032438 0.665699005 1.04472697
v -0.0679415166 0.67028898 1.03702688
v -0.0622919388 0.663901031 1.03739619
v -0.0665003955 0.662248254 1.03908741
v -0.0666159913 0.658263743 1.04315913
v -0.104619317 0.672148943 1.02588594
v -0.105921246 0.66516906 1.02991855
v -0.111117676 0.66402179 1.03108943
v -0.438872367 0.517083645 -0.16784732
v -0.266999036 0.446226597 -0.0126450034
v -0.255191177 0.44987151 -0.0146048246
v -0.256986856 0.451000303 -0.0212938413
v -0.220352277 0.442985177 -0.000995861948
v -0.217894122 0.442128748 -0.00385141186
v -0.198335096 0.441999495 0.00134345901
v -0.19293052 0.440053493 -0.00388526055
v -0.189216629 0.442834258 -0.00672890246
v -0.186418012 0.446361542 -0.0154783474
v -0.181063503 0.448364705 -0.0168317966
v -0.17616488 0.446657985 -0.0225223545
v -0.172897339 0.44573009 -0.0297125168
v -0.325878024 0.514978826 -0.179870009
v -0.337351054 0.51116699 -0.18260093
v -0.347166061 0.511012077 -0.185008317
v -0.356845587 0.506296039 -0.186039045
v -0.362351209 0.504085243 -0.184462443
v -0.382706851 0.503988802 -0.189784825
v -0.388654351 0.501954377 -0.188570157
v -0.440689921 0.520879984 -0.223594353
v -0.445023924 0.52228272 -0.216597438
v -0.439575553 0.519176781 -0.200835809
v -0.441762954 0.519592881 -0.191966578
v -0.442121238 0.519167721 -0.181489915
v -0.436554581 0.516309977 -0.171159655
v -0.468860149 0.447466224 0.264006644
v -0.468300402 0.455404758 0.267214239
v -0.530347586 0.491344154 0.214204043
v -0.523910522 0.488970548 0.209453002
v -0.528035939 0.486722052 0.202530816
v -0.523018599 0.484973967 0.196702331
v -0.521909177 0.480645448 0.188896015
v -0.535321951 0.482431889 0.174882337
v -0.530278623 0.480674744 0.169023693
v -0.533088267 0.478028178 0.158159897
v -0.526829123 0.475741982 0.153214931
v -0.529423296 0.472988844 0.142466769
v -0.523819327 0.470989406 0.137007222
v -0.527324021 0.46840176 0.130410373
v -0.529340446 0.46970889 0.11902082
v -0.526467979 0.468896627 0.111401841
v -0.533230126 0.467911124 0.0972600207
v -0.528132677 0.466135114 0.0913384482
v -0.523304641 0.464475781 0.0852044448
v -0.519675791 0.463335901 0.0781198144
v -0.51588285 0.462125301 0.0711567625
v -0.51098597 0.460436612 0.0650661066
v -0.508708298 0.459883422 0.0568778142
v -0.521734595 0.461367011 0.0424818695
v -0.519064069 0.460642964 0.0345461518
v -0.509044647 0.456741184 0.0325306579
v -0.499016076 0.457206458 0.0294791888
v -0.484407097 0.455667019 0.0301820356
v -0.480470151 0.454397291 0.0232933592
v -0.500128269 0.459009498 -0.00187095301
v -0.497555733 0.458113223 -0.00485935062
v -0.504786313 0.461698472 -0.0210436992
v -0.500116944 0.46011436 -0.0274526365
v -0.508986771 0.459986299 -0.0440017432
v -0.506597936 0.45939225 -0.0523561239
v -0.503085256 0.458311498 -0.0597874522
v -0.510706663 0.457391888 -0.0702414438
v -0.509986162 0.457518578 -0.0800621957
v -0.522402227 0.458857149 -0.0998601913
v -0.516976357 0.456951141 -0.105786607
v -0.523665845 0.455573261 -0.115577839
v -0.517413259 0.453312665 -0.120823927
v -0.517229319 0.449179351 -0.130089715
v -0.520450115 0.450987101 -0.143463328
v -0.528698087 0.450444341 -0.160041824
v -0.532947242 0.447957188 -0.167874694
v -0.523168802 0.44419843 -0.170150235
v -0.519821107 0.442976832 -0.172613025
v -0.525386274 0.441248238 -0.187003151
v -0.52170819 0.435572416 -0.193384901
v -0.517696738 0.434273273 -0.200677022
v -0.486133039 0.416591465 -0.177206442
v -0.492182523 0.409998685 -0.17476663
v -0.4977777 0.40321219 -0.171927363
v -0.499137551 0.399309158 -0.171927363
v -0.498735905 0.390211612 -0.169208512
v -0.504958808 0.383689344 -0.166920364
v -0.50547415 0.374989212 -0.165008575
v -0.508074522 0.367146671 -0.164908245
v -0.514190555 0.365025848 -0.163703099
v -0.515651762 0.356720924 -0.162616715
v -0.517598927 0.34861654 -0.161951914
v -0.519553542 0.34051919 -0.16129458
v -0.524927557 0.333653152 -0.158273578
v -0.525012255 0.32483086 -0.156010494
v -0.524302661 0.315714091 -0.153068334
v -0.526569486 0.307763219 -0.152687266
v -0.534031272 0.301713586 -0.151469171
v -0.532808304 0.292433381 -0.148101419
v -0.53513962 0.284516275 -0.147778675
v -0.535003185 0.275675595 -0.145347804
v -0.537709296 0.267908484 -0.145347804
v -0.543031693 0.261052936 -0.142308578
v -0.542626143 0.256521344 -0.140811697
v -0.545330882 0.248758331 -0.140811697
v -0.547405958 0.2407666 -0.140276641
v -0.548692584 0.232493728 -0.13907294
v -0.551288426 0.224697039 -0.138981968
v -0.551134825 0.215923458 -0.136560246
v -0.559194446 0.210051507 -0.135850653
v -0.560894072 0.20194225 -0.13500306
v -0.564382076 0.194460094 -0.135666534
v -0.566852033 0.186622471 -0.135470197
v -0.569146633 0.178725958 -0.135126397
v -0.573283672 0.17145808 -0.136334777
v -0.571698844 0.162251741 -0.132726312
v -0.577549398 0.155557737 -0.135375455
v -0.578303933 0.14715381 -0.13373895
v -0.581201792 0.139466733 -0.133904308
v -0.589282691 0.133530244 -0.133188859
v -0.588907599 0.129087865 -0.13174367
v -0.593337536 0.121892042 -0.133188859
v -0.593266726 0.11324285 -0.130870789
v -0.595609546 0.105376288 -0.130571693
v -0.598666251 0.0977370813 -0.130868703
v -0.603144765 0.0905416682 -0.132350504
v -0.606427431 0.0829655305 -0.132833809
v -0.609130323 0.0752076954 -0.132833809
v -0.611833155 0.0674498603 -0.132833809
v -0.614536047 0.0596920289 -0.132833809
v -0.617238939 0.0519341938 -0.132833809
v -0.619359314 0.0440025628 -0.132350504
v -0.621574283 0.0361018144 -0.13194634
v -0.620392025 0.0272068288 -0.128728598
v -0.62521553 0.0200781859 -0.130487174
v -0.628714263 0.0125569217 -0.131147265
v -0.631415546 0.00480368128 -0.131147265
v -0.629580796 -0.00440487778 -0.132588968
v -0.634721875 -0.0114679141 -0.134607106
v -0.639346719 -0.0186867658 -0.136195645
v -0.642161429 -0.0264147017 -0.136287704
v -0.64021492 -0.0356411524 -0.13764137
v -0.642276525 -0.0435690545 -0.137112886
v -0.647020698 -0.0507732853 -0.138798252
v -0.645759046 -0.0555624664 -0.141833752
v -0.648461819 -0.0633200109 -0.141833752
v -0.654798746 -0.0701239407 -0.144831285
v -0.552806795 -0.105107039 -0.0585411824
v -0.548468113 -0.106011026 -0.0499376953
v -0.546973586 -0.101860754 -0.0397516862
v -0.549414575 -0.0925950408 -0.0338788629
v -0.548692584 -0.0925723091 -0.0282900427
v -0.545388281 -0.0848464221 -0.0177489873
v -0.542055845 -0.0855287984 -0.0100651775
v -0.54838258 -0.0752550438 -0.00737462007
v -0.541779935 -0.0768333077 0.00292816828
v -0.545505881 -0.0713525936 0.00876601599
v -0.547353923 -0.0663824901 0.0161123797
v -0.55044502 -0.061266616 0.0175227877
v -0.550303578 -0.0568475127 0.026452722
v -0.550091267 -0.0524581783 0.0354188681
v -0.53632617 -0.0560738817 0.0512746759
v -0.538523853 -0.0510485433 0.0582614094
v -0.542221546 -0.0456093922 0.0640549883
v -0.542610645 -0.0451529212 0.0734689832
v -0.548412859 -0.0393014327 0.072745353
v -0.537894487 -0.041905079 0.0906848609
v -0.534075618 -0.0386004969 0.102306977
v -0.537748039 -0.0331984982 0.108060978
v -0.540224612 -0.0323356241 0.110937983
v -0.53968823 -0.0321620032 0.120940328
v -0.545801878 -0.0260737333 0.1247973
v -0.536035836 -0.0285304431 0.141854122
v -0.537225306 -0.0240152739 0.144715935
v -0.53333056 -0.0248169713 0.157184035
v -0.536974013 -0.0194576085 0.162892625
v -0.541009843 -0.0179974269 0.169268012
v -0.543458581 -0.0169927906 0.176838845
v -0.547849298 -0.0114223454 0.181975722
v -0.544463277 -0.0121034384 0.193910852
v -0.553192854 -0.00542952074 0.191096112
v -0.539418459 -0.00913039409 0.210758537
v -0.539164126 -0.00891753659 0.220253259
v -0.542778194 -0.00360132405 0.225915894
v -0.542650938 -0.0033588605 0.235275507
v -0.548829615 0.0025640591 0.234409839
v -0.548693359 0.00279734679 0.243756816
v -0.535372376 0.00709793018 0.260899156
v -0.535718381 0.0151366992 0.258807212
v -0.530361354 0.0214805678 0.260899156
v -0.527858734 0.0248156283 0.266405106
v -0.525355995 0.0319990516 0.266405106
v -0.523467541 0.0393701792 0.265954107
v -0.525673926 0.0479070023 0.257894456
v -0.523165405 0.0551071241 0.257894456
v -0.517855942 0.0614314638 0.25995931
v -0.515349507 0.0686255321 0.25995931
v -0.512843013 0.0758196041 0.25995931
v -0.510336578 0.0830136836 0.25995931
v -0.508333325 0.0903699473 0.259587169
v -0.508113921 0.0983078554 0.257894456
v -0.506123543 0.105677485 0.257510722
v -0.50793618 0.114302851 0.254307896
v -0.505423903 0.121513486 0.254307896
v -0.503070474 0.128777206 0.254190058
v -0.502865613 0.136765376 0.252476037
v -0.500351489 0.143981367 0.252476037
v -0.49894011 0.15157415 0.251655698
v -0.49804619 0.159350395 0.250448823
v -0.495763063 0.166657552 0.254910499
v -0.495084196 0.170467272 0.254480213
v -0.500363946 0.18041572 0.248676941
v -0.501762867 0.189033628 0.245756388
v -0.500493586 0.196723178 0.244820908
v -0.495238543 0.202971116 0.251508147
v -0.492717654 0.210206524 0.251508147
v -0.495374233 0.219318926 0.247646034
v -0.493402213 0.226767451 0.247233346
v -0.488927066 0.233252406 0.25334397
v -0.490458399 0.241990164 0.250319242
v -0.488508254 0.249451473 0.249889955
v -0.487083703 0.252953678 0.25466761
v -0.487161696 0.261174887 0.252726257
v -0.491352975 0.270966321 0.247709975
v -0.484552443 0.276522547 0.255562574
v -0.489046782 0.286463559 0.250321805
v -0.487848461 0.294241905 0.249326259
v -0.485800505 0.297477335 0.254579246
v -0.485166579 0.305475861 0.253164142
v -0.485927552 0.314031124 0.250704646
v -0.483882636 0.321381599 0.255013257
v -0.483930051 0.329673082 0.253086835
v -0.480696887 0.332403213 0.259225786
v -0.481959373 0.341186941 0.256395042
v -0.478587508 0.34798497 0.261691213
v -0.479384124 0.356599808 0.259208739
v -0.477557808 0.364012808 0.263352275
v -0.476766676 0.371995717 0.262053967
v -0.476640373 0.380102903 0.264930606
v -0.475415885 0.383755982 0.264899164
v -0.474790573 0.391823441 0.263476133
v -0.476174861 0.400569171 0.265229076
v -0.474742413 0.40831393 0.264406383
v -0.47583431 0.417136699 0.261698961
v -0.473389775 0.420090228 0.267255485
v -0.470852971 0.427371442 0.267255485
v -0.469333112 0.435091108 0.266496688
v -0.470130235 0.443820804 0.264006644
g path_000000
l 5 4 3 2 1 10 9 8 7 6
g path_000001
l 12 11 1103 1102 1101
g path_000002
l 13 14 15 16 17
g path_000003
l 19 20 21 22
g path_000004
l 23 24 25 26 27 28 29 30 31 32
g path_000005
l 33 34 35 36 37 38 39 40 41 42 43 44 45 46 47 48 49 50 51 52 53 54 55 56 57 58 59 60 61 62 63 64 65 66 67 68 69 70 71 72 73 74 75 76 77 78 79 80 81 82 83 84 85 86 87 88 89
g path_000006
l 90 91 92 93 94 95 96 97 98 99 100 101 102 103 104 105 106 107 108 109 110 111 112 113 114 115 116 117 118 119 120 121 122 123 124 125 126 127 128 129 130 131 132 133 134 135 136 137 138 139 140 141 142 143 144 145 146 147 148 149 150 151 152 153 154 155 156 157 158 159 160 161 162 163 164 165 166 167 168 169 170 171 172 173 174 175 176 177 178 179 180 181 182 183 184 185 186 187 188 189 190 191 192 193 194 195 196 197 198 199 200 201 202 203 204 205 206 207 208
g path_000007
l 209 210 211 212 213 214 215 216 217 218 219 220 221 222
g path_000008
l 223 224
g path_000009
l 225 226 227 228 229 230 231 232 233 234 235 236 237 238 239 240 241 242 243 244 245 246 247 248 249 250 251 252 253
g path_000010
l 254 255 256 257 258 259 260 261 262 263 264 265 266 267 268 269 270 271 272 273 274 275 276 277 278 279 280 281 282 283 284 285 286 287 288 289 290 291 292 293 294 295 296 297 298 299 300 301 302 303 304 305 306 307 308 309 310 311 312 313 314 315 316 317 318 319 320
g path_000011
l 321 322 323 324 325 326 327
g path_000012
l 328 329 330 331 332 333 334 335 336 337 338
g path_000013
l 339 340
g path_000014
l 342 343
g path_000015
l 344 345 346 347
g path_000016
l 348 349 350 351 352
g path_000017
l 354 355 356 357 358
g path_000018
l 359 360
g path_000019
l 361 362 363 364 365 366 367 368 369 370
g path_000020
l 371 372 373
g path_000021
l 374 375 376
g path_000022
l 377 378 379 380 381 382 383 384 385
g path_000023
l 387 388 389 390 391 392 393 394 395 396
g path_000024
l 397 398 399 400 401 402 403 404 405 406 407 408 409 410 411 412 413 414 415 416
g path_000025
l 417 418 419 420 421 422 423 424 425 426 427
g path_000026
l 428 429 430 431 432 433
g path_000027
l 434 435
g path_000028
l 436 437 438 439 440 441 442 443 444 445 446 447 448
g path_000029
l 449 450 451 452 453 454 455 456 457 458 459 460
g path_000030
l 461 462 463 464 465 466 467 468 469 470
g path_000031
l 471 472
g path_000032
l 473 474 475 476 477 478 479
g path_000033
l 483 484
g path_000034
l 485 486 487
g path_000035
l 488 489
g path_000036
l 490 491 492 493 494 495
g path_000037
l 496 497 498 499 500 501 502 503 504 505 506 507 508 509 510 511 512 513 514 515 516 517 518 519 520 521 522 523 524 525
g path_000038
l 526 527 528 529 530 531 532 533 534 535 536 537 538 539 540 541 542 543 544 545 546 547 548 549 550 551 552 553 554
g path_000039
l 555 556 557
g path_000040
l 558 559 560 561
g path_000041
l 563 564
g path_000042
l 565 566 567
g path_000043
l 568 569 570 571 572 573 574 575 576 577 578 579 580 581 582 583 584 585 586 587 588 589 590 591 592 593 594 595 596 597 598 599 600 601 602 603 604 605 606 607 608 609 610 611 612 613 614 615 616 617 618 619 620 621 622 623 624 625 626 627 628
g path_000044
l 629 630 631 632 633 634 635 636 637 638 639 640 641 642 643 644 645 646 647 648 649 650 651 652 653 654 655 656 657 658 659 660 661 662 663 664 665 666 667 668 669 670 671 672 673 674 675 676 677 678 679 680 681 682 683 684 685 686 687 688 689 690 691 692 693 694 695 696 697 698 699 700 701 702 703 704 705 706 707 708 709 710 711 712 713
g path_000045
l 714 715 716 717 718 719 720 721 722 723
g path_000046
l 724 725 726 727 728
g path_000047
l 729 730 731 732 733 734
g path_000048
l 735 736 737 738 739 740
g path_000049
l 741 742 743 744 745 746 747 748
g path_000050
l 749 750 751 752
g path_000051
l 754 755 756 757 758 759 760 761 762 763
g path_000052
l 764 765 766 767 768 769 770 771 772
g path_000053
l 774 775
g path_000054
l 776 777
g path_000055
l 778 779
g path_000056
l 780 781
g path_000057
l 782 783
g path_000058
l 784 785 786 787 788 789 790 791 792 793 794 795 796 797 798 799 800 801 802 803
g path_000059
l 804 805 806 807 808 809 810 811
g path_000060
l 813 814 815
g path_000061
l 817 818 819 820 821 822
g path_000062
l 823 824
g path_000063
l 825 826
g path_000064
l 827 828 829 830 831 832 833 834
g path_000065
l 836 837 838 839 840 841 842 843 844
g path_000066
l 846 847 848 849 850 851 852 853 854 855
g path_000067
l 857 858 859
g path_000068
l 860 861 862 863 864 865
g path_000069
l 867 868 869
g path_000070
l 870 871 872 873 874 875
g path_000071
l 876 877 878 879
g path_000072
l 880 881 882 883 884 885 886 887 888 889 890 891 892
g path_000073
l 893 894 895 896 897 898 899 900 901 902 903 904 905 906 907 908 909 910 911 912 913 914 915 916 917 918 919 920 921 922 923 924 925 926 927 928 929 930 931 932 933 934 935 936 937 938 939 940 941 942
g path_000074
l 943 944 945 946 947 948 949 950 951 952 953 954 955 956 957 958 959 960 961 962 963 964 965 966 967 968 969 970 971 972 973 974 975 976 977 978 979 980 981 982 983 984 985 986 987 988 989 990 991 992 993 994 995 996 997 998 999 1000 1001 1002 1003 1004 1005 1006 1007 1008 1009 1010 1011 1012 1013 1014 1015 1016 1017 1018 1019 1020 1021 1022 1023 1024 1025 1026 1027 1028 1029 1030 1031 1032 1033 1034 1035 1036 1037 1038 1039 1040 1041 1042 1043 1044 1045 1046 1047 1048 1049 1050 1051 1052 1053 1054 1055 1056 1057 1058 1059 1060 1061 1062 1063 1064 1065 1066 1067 1068 1069 1070 1071 1072 1073 1074 1075 1076 1077 1078 1079 1080 1081
g path_000075
l 1082 1083 1084 1085 1086 1087 1088 1089 1090 1091
g path_000076
l 1092 1093 1094 1095 1096
g path_000077
l 1097 1098 1099 1100
g path_000078
l 1104 1129 1128 1127 1126 1125 1124
g path_000079
l 1105 1106 1107
g path_000080
l 1108 1109 1110 1111 1112 1113 1114 1115 1116
g path_000081
l 1117 1118 1119 1120 1121 1122 1123
g path_000082
l 1131 1130 1347 1346 1345 1344 1343 1342 1341 1340 1339 1338 1337 1336 1335 1334 1333 1332 1331 1330 1329 1328 1327 1326 1325 1324 1323 1322 1321 1320 1319 1318 1317 1316 1315 1314 1313 1312 1311 1310 1309 1308 1307 1306 1305 1304 1303 1302 1301 1300 1299 1298 1297 1296 1295 1294 1293 1292 1291 1290 1289 1288 1287 1286 1285 1284 1283 1282 1281
g path_000083
l 1132 1133 1134 1135 1136 1137 1138 1139 1140 1141 1142 1143 1144 1145 1146 1147 1148 1149 1150 1151 1152 1153 1154 1155 1156 1157 1158
g path_000084
l 1159 1160 1161 1162 1163 1164 1165 1166 1167 1168 1169 1170 1171 1172 1173 1174 1175 1176 1177 1178 1179 1180
g path_000085
l 1181 1182 1183 1184 1185 1186 1187 1188 1189 1190 1191 1192 1193 1194 1195 1196 1197 1198 1199 1200 1201 1202 1203 1204 1205 1206 1207 1208 1209 1210 1211 1212 1213 1214 1215 1216 1217 1218 1219 1220 1221 1222 1223 1224 1225 1226 1227 1228 1229 1230 1231 1232 1233 1234 1235 1236 1237 1238 1239 1240 1241 1242 1243 1244 1245 1246
g path_000086
l 1247 1248 1249 1250 1251 1252 1253 1254 1255 1256 1257 1258 1259 1260 1261 1262 1263 1264 1265 1266 1267 1268 1269 1270 1271 1272 1273 1274 1275 1276 1277 1278 1279 1280
