# Fixed world centers; Z up; paths immutable
v -0.0587099157 0.648927689 1.04262543
v -0.0427215062 0.656956315 1.0445205
v -0.0401546247 0.651756048 1.04377389
v -0.0376073048 0.646523893 1.04301631
v -0.0281261597 0.648064196 1.04508209
v -0.0227250326 0.645886242 1.04271317
v -0.0237058084 0.637420356 1.03771687
v -0.000209620834 0.656974256 1.04373121
v -0.00201608287 0.647462666 1.04117036
v 0.00652284687 0.648193002 1.04289448
v 0.00588114047 0.643918276 1.03894651
v 0.00718597136 0.637679756 1.03488147
v 0.014296215 0.641370833 1.03139162
v 0.0219246391 0.645356953 1.03091586
v 0.0217585396 0.64152956 1.02713966
v 0.043085847 0.663415253 1.03070831
v 0.0456450582 0.662122607 1.03087437
v 0.0505487435 0.659552097 1.02835941
v 0.0499374904 0.651167095 1.02622116
v 0.05831993 0.656226516 1.02338529
v 0.0597384013 0.658112645 1.01848006
v 0.0548272654 0.649452031 1.01260579
v 0.0608559363 0.647775352 1.01333964
v 0.0731141567 0.652489424 1.01682293
v 0.0736391544 0.645418584 1.01236665
v 0.0795715079 0.643889844 1.01029778
v 0.0859849229 0.646792889 1.00941956
v 0.0873143971 0.644447565 1.006271
v 0.0901682079 0.643882275 1.00102806
v 0.0951682851 0.645337522 0.999532878
v 0.0973648429 0.651957631 0.995970666
v 0.0960047543 0.646819353 0.991579652
v 0.102839068 0.646245778 0.989942074
v 0.109483123 0.645485818 0.988224328
v 0.111652836 0.643804848 0.988224328
v 0.1194368 0.644257188 0.987044811
v 0.124578111 0.641941726 0.984641492
v 0.129545346 0.64341104 0.983174145
v 0.137919754 0.644532084 0.982301593
v 0.146779761 0.650158226 0.982697189
v 0.153278902 0.649333358 0.980967164
v 0.157966584 0.650550306 0.979406655
v 0.164479062 0.64975971 0.977696538
v 0.171599701 0.649634421 0.976287007
v 0.174548149 0.649003386 0.973904669
v 0.184330076 0.651943624 0.971038818
v 0.186473891 0.650282681 0.971038818
v 0.192359254 0.649023056 0.9662835
v 0.198212326 0.651564121 0.965346813
v 0.200388417 0.646102548 0.961528182
v 0.203331098 0.645472765 0.959150553
v 0.212106287 0.647390187 0.955850244
v 0.214302942 0.641922414 0.952017605
v 0.217245623 0.641292632 0.949639916
v 0.220188305 0.640662789 0.947262287
v 0.22893858 0.642587304 0.943979502
v 0.231876895 0.641958475 0.941605389
v 0.233262137 0.635543168 0.937315702
v 0.236206084 0.634913087 0.934937
v 0.242217615 0.633791804 0.930244505
v 0.245161384 0.633161783 0.927865922
v 0.251277447 0.632159889 0.923230171
v 0.254802495 0.63218832 0.92116189
v 0.259911329 0.634015143 0.919943273
v 0.273680359 0.641737938 0.91944772
v 0.283096313 0.648510695 0.920594692
v 0.294772208 0.653832853 0.921846271
v 0.297678798 0.653210759 0.919497788
v 0.302702934 0.650948107 0.917149305
v 0.305609524 0.650326073 0.914800763
v 0.31063363 0.648063421 0.912452281
v 0.316446811 0.646819234 0.907755315
v 0.319353402 0.6461972 0.905406773
v 0.324377537 0.643934548 0.90305829
v 0.327284127 0.643312454 0.900709808
v 0.332308233 0.641049802 0.898361325
v 0.335214823 0.640427768 0.896012783
v 0.339500248 0.637292206 0.893241048
v 0.342408001 0.636669874 0.890891612
v 0.348223537 0.63542521 0.886192739
v 0.35113132 0.634802878 0.883843303
v 0.356157452 0.632539332 0.881493807
v 0.359065235 0.631917 0.879144371
v 0.36488077 0.630672336 0.874445498
v 0.367788523 0.630050004 0.872096062
v 0.365830511 0.619343042 0.865579128
v 0.368749619 0.618718326 0.863220513
v 0.378150433 0.626020491 0.861933112
v 0.377772897 0.621400714 0.857592642
v 0.383433461 0.619945586 0.852778137
v 0.386348933 0.619321644 0.850422502
v 0.39133206 0.617032826 0.8451882
v 0.393391877 0.615354419 0.842300773
v 0.396268547 0.614678502 0.839916945
v 0.401442707 0.616883636 0.836116374
v 0.40581584 0.613827348 0.830484986
v 0.408246994 0.612597644 0.827818751
v 0.410903096 0.61164552 0.825293064
v 0.414244771 0.611581743 0.820338249
v 0.415802717 0.609254897 0.817104876
v 0.419448674 0.609565973 0.812337041
v 0.423193127 0.610000193 0.807632625
v 0.425502717 0.608604431 0.8048715
v 0.429196924 0.608974099 0.800131917
v 0.430268824 0.60603559 0.793660522
v 0.431063741 0.607061565 0.791294634
v 0.434343278 0.606900394 0.786267459
v 0.436351657 0.605127037 0.780384481
v 0.438709587 0.603771389 0.777629554
v 0.440246999 0.601384819 0.771406531
v 0.441841364 0.603442729 0.766661227
v 0.442174584 0.599497616 0.762510598
v 0.443771333 0.601558626 0.757758141
v 0.444223404 0.5977633 0.750735402
v 0.447969854 0.598165154 0.745973825
v 0.449569672 0.600230098 0.741212249
v 0.452361971 0.599401832 0.738723397
v 0.449837804 0.596181154 0.731056392
v 0.452811301 0.595579326 0.725728512
v 0.452979982 0.59580642 0.719930291
v 0.452689558 0.590996623 0.712247789
v 0.451437026 0.589387953 0.7083745
v 0.453048646 0.591468215 0.703577757
v 0.454392523 0.588739336 0.69701618
v 0.455838233 0.590605557 0.692089856
v 0.458278716 0.589281499 0.689297974
v 0.457444072 0.588200986 0.682690084
v 0.458860844 0.590029418 0.677729666
v 0.460175067 0.587234139 0.671077311
v 0.4536075 0.578724742 0.660138369
v 0.455234736 0.58082509 0.655295193
v 0.456857532 0.578395367 0.648799181
v 0.458486885 0.580498397 0.643949747
v 0.462302446 0.580907702 0.639100373
v 0.463117123 0.581959188 0.636675656
v 0.464746445 0.584062219 0.631826222
v 0.463067502 0.581864417 0.62442106
v 0.461174101 0.574827492 0.615119815
v 0.461369008 0.575061738 0.609117866
v 0.457003981 0.569355488 0.599528849
v 0.458636045 0.571461856 0.594621956
v 0.458539426 0.566731513 0.589700878
v 0.460187644 0.568858922 0.584795296
v 0.459732741 0.568240762 0.578211129
v 0.461027473 0.569906652 0.573014438
v 0.462088495 0.566652536 0.565840065
v 0.462837219 0.567603111 0.560186386
v 0.463360846 0.56825912 0.554342866
v -0.357121021 -0.512068629 -0.125422642
v -0.392253637 -0.57212162 -0.159675285
v -0.38559863 -0.577391148 -0.159719855
v -0.348456174 -0.535271764 -0.136568114
v -0.370189488 -0.578126907 -0.160049409
v -0.36289078 -0.582514703 -0.159551069
v -0.345236719 -0.573067188 -0.155163676
v -0.344228327 -0.585864246 -0.159900963
v -0.338136554 -0.591848433 -0.160399541
v -0.284292996 -0.533049881 -0.125407949
v -0.284311205 -0.540086389 -0.12819393
v -0.316043973 -0.597550988 -0.160615116
v -0.305600017 -0.597551346 -0.157417998
v -0.263948172 -0.554587126 -0.132335931
v -0.285515189 -0.598648667 -0.156402901
v -0.241534099 -0.552015424 -0.129073054
v -0.24528271 -0.564343989 -0.13511923
v -0.265075505 -0.606333435 -0.1578722
v -0.260264397 -0.614058018 -0.159458742
v -0.249745786 -0.613898158 -0.160858676
v -0.244044691 -0.620378435 -0.161679506
v -0.231421396 -0.617179871 -0.16120939
v -0.224789619 -0.622317851 -0.16120939
v -0.218766555 -0.628329813 -0.161745891
v -0.165521652 -0.559233248 -0.122350268
v -0.168704197 -0.57825768 -0.130937546
v -0.191051364 -0.625219524 -0.156621456
v -0.186848745 -0.633840382 -0.158765212
v -0.139221579 -0.579126477 -0.126761585
v -0.168159008 -0.636272073 -0.15862608
v -0.124289975 -0.586571872 -0.129715428
v -0.1463283 -0.626517713 -0.152602017
v -0.147243023 -0.642734468 -0.159395501
v -0.121355757 -0.619278491 -0.146567374
v -0.128051102 -0.644192934 -0.158676445
v 0.452700824 0.215323389 0.364585042
v 0.450884521 0.207153976 0.364228457
v 0.453480601 0.19998543 0.365659446
v 0.456136435 0.192889363 0.36714381
v 0.457389116 0.189328149 0.369611889
v 0.462638557 0.18595925 0.369890839
v 0.459251404 0.169531971 0.365796626
v 0.45746401 0.161253527 0.365467668
v 0.461513966 0.156200379 0.36822778
v 0.459676594 0.141989678 0.365554839
v 0.468052566 0.14921917 0.370987892
v 0.466237873 0.13498427 0.368324518
v 0.463553727 0.119303145 0.364849746
v 0.471582234 0.126061246 0.369966447
v 0.470141113 0.112269834 0.367630452
v 0.475155562 0.1083849 0.367630452
v 0.473451912 0.0940602869 0.365028352
v 0.482918322 0.097273387 0.369167924
v 0.480421841 0.0812812895 0.362132192
v 0.489160478 0.0833581686 0.36560455
v 0.468713164 0.038377624 0.345333993
v 0.471264988 0.0364005938 0.345333993
v 0.477214545 0.033830177 0.346132457
v 0.483346373 0.0315716155 0.347108364
v 0.491222858 0.0322076119 0.349747062
v 0.497448266 0.0301475786 0.350829065
v 0.491744578 0.00823951699 0.340519518
v 0.487640411 -0.0107884295 0.335451126
v 0.483179629 -0.0241997093 0.332500339
v 0.478727132 -0.0436293855 0.330890089
v 0.48262307 -0.049443692 0.333456635
v 0.479951531 -0.0599835627 0.332233518
v 0.484933674 -0.063987501 0.335833639
v 0.491620332 -0.0590311363 0.339740634
v 0.490808308 -0.072505936 0.341612548
v 0.49275583 -0.0756385624 0.34098956
v 0.49899444 -0.077878274 0.341984659
v 0.505769193 -0.0791731253 0.343501627
v 0.515687227 -0.0754076689 0.344256639
v 0.519842982 -0.0816551968 0.339448273
v 0.525940776 -0.0840741321 0.3403368
v 0.532616377 -0.0859163329 0.337977618
v 0.535669148 -0.0871076137 0.33843106
v 0.541908145 -0.0901805833 0.331820756
v 0.548944414 -0.0847440809 0.332405061
v 0.549711883 -0.0909525156 0.322919309
v 0.55256784 -0.0934556052 0.315488935
v 0.552556753 -0.0939596519 0.311623544
v 0.561579406 -0.078760542 0.313052475
v 0.560602665 -0.0814786255 0.304359466
v 0.554983139 -0.0925259963 0.290884882
v 0.558906019 -0.079799749 0.289822847
v 0.558335721 -0.0746530667 0.288032055
v 0.557675183 -0.0701499209 0.282280535
v 0.557014704 -0.0656467825 0.276529014
v 0.557980895 -0.0643996522 0.273653239
v 0.560365498 -0.0544896796 0.27106759
v 0.560284793 -0.0423915535 0.268623829
v 0.554166377 -0.0536699817 0.258369952
v 0.55350554 -0.0491644181 0.252615333
v 0.551877916 -0.0459066518 0.249738008
v 0.553811431 -0.0434110463 0.243983388
v 0.554136455 -0.0437495522 0.236528516
v 0.553474963 -0.0392394811 0.230768144
v 0.554726303 -0.0379446298 0.22427924
v 0.554529488 -0.0391988792 0.216234162
v 0.555960298 -0.0375905968 0.209917665
v 0.555250466 -0.0397520475 0.201284945
v 0.555729985 -0.0398217291 0.193916202
v 0.240556598 -0.603986204 -0.160791576
v 0.248464569 -0.598508537 -0.160303444
v 0.258900642 -0.596461594 -0.160433337
v 0.266906768 -0.59073174 -0.159770712
v 0.276128024 -0.590763271 -0.161178514
v 0.285452753 -0.590576172 -0.16244784
v 0.29437831 -0.583069444 -0.160657957
v 0.303838193 -0.582552016 -0.161712497
v 0.315125316 -0.578664541 -0.160665989
v 0.318227023 -0.58103174 -0.160650298
v 0.331353545 -0.574303448 -0.162170917
v 0.335340112 -0.575020254 -0.161130235
v 0.349622011 -0.56603533 -0.16121237
v 0.359499604 -0.564483106 -0.161594108
v 0.362563878 -0.566857159 -0.161594108
v 0.377052724 -0.55726546 -0.161251828
v 0.379149377 -0.561430395 -0.162378415
v 0.38993904 -0.558009028 -0.161577255
v 0.403587997 -0.54978025 -0.162045226
v 0.407519072 -0.550440371 -0.160980701
v 0.414729059 -0.553687394 -0.164350972
v 0.423376054 -0.545994699 -0.162319914
v 0.43357864 -0.543428004 -0.162026912
v 0.438751459 -0.542345941 -0.164140299
v 0.448690265 -0.540206313 -0.164106414
v 0.459656477 -0.536004603 -0.162766844
v 0.464970082 -0.534581184 -0.16464895
v 0.478370726 -0.526235819 -0.164917454
v 0.485001355 -0.522159576 -0.165100217
v 0.494204074 -0.521208286 -0.165786907
v 0.504304111 -0.5184232 -0.165305465
v 0.510296404 -0.515516818 -0.166211799
v 0.516398489 -0.512369394 -0.166958377
v 0.528680086 -0.505851686 -0.168289125
v 0.534514785 -0.503177643 -0.169318154
v 0.547779739 -0.494525254 -0.169240192
v 0.551043689 -0.488705337 -0.169699788
v 0.55986619 -0.480677903 -0.171441123
v 0.565596998 -0.478102982 -0.172491893
v 0.573522151 -0.463538796 -0.171429083
v 0.578815758 -0.454353213 -0.173804447
v 0.583111227 -0.447206825 -0.177478671
v 0.584387898 -0.437988639 -0.18125689
v 0.578018785 -0.452667713 -0.199259043
v 0.578222454 -0.453907788 -0.208466083
v 0.580395639 -0.451117545 -0.215019003
v 0.574174106 -0.465532124 -0.233036608
v 0.576378524 -0.462686747 -0.239597738
v 0.58042264 -0.456067145 -0.24362427
v 0.573829055 -0.471278995 -0.26234898
v 0.556762099 -0.525092661 -0.304127306
v 0.56181711 -0.524091244 -0.306197226
v 0.565957725 -0.524977446 -0.309542835
v 0.579290569 -0.516201913 -0.309070677
v 0.585879862 -0.519653678 -0.308251768
v 0.592871368 -0.522244096 -0.306851804
v 0.59865123 -0.519621551 -0.307806909
v 0.601605356 -0.515215337 -0.313428938
v 0.600136161 -0.511496067 -0.321100861
v 0.59953928 -0.505017698 -0.322571099
v 0.604240298 -0.496931493 -0.325642258
v 0.610025704 -0.49518463 -0.331463575
v 0.612969637 -0.48987481 -0.332105756
v 0.61854732 -0.479905456 -0.333811045
v 0.615069747 -0.480469018 -0.344431818
v 0.61558181 -0.481220335 -0.353596896
v 0.613705277 -0.477464348 -0.356914252
v 0.613271892 -0.480206609 -0.367507577
v 0.609862447 -0.497936904 -0.387078047
v 0.621299684 -0.484248102 -0.384459227
v 0.612716258 -0.494679511 -0.397877514
v 0.61259377 -0.505558848 -0.412719131
v 0.615890622 -0.50043124 -0.417840987
v 0.61877805 -0.496172398 -0.423574805
v 0.622440457 -0.490261614 -0.428110808
v 0.618193746 -0.501200736 -0.444820136
v 0.618457615 -0.510419488 -0.454213589
v 0.625751853 -0.496741056 -0.453135967
v 0.618215263 -0.514783382 -0.475144267
v 0.619766474 -0.504519403 -0.478263468
v 0.619152546 -0.506789088 -0.484380215
v 0.618877649 -0.500428796 -0.490351319
v 0.616966605 -0.496603727 -0.493729681
v 0.614226043 -0.495481968 -0.503581583
v 0.619922221 -0.485280961 -0.504931033
v 0.612553179 -0.493964583 -0.522137344
v 0.621670067 -0.484404594 -0.517690361
v 0.62585181 -0.485299587 -0.521069169
v 0.628122211 -0.482369035 -0.527826786
v 0.623162985 -0.485979527 -0.541315496
v 0.619759321 -0.486249119 -0.552325428
v 0.620899558 -0.484777331 -0.555719197
v 0.611245334 -0.489383221 -0.571905851
v 0.612389863 -0.48790592 -0.575312376
v 0.607833087 -0.490534991 -0.588252604
v 0.606357574 -0.495532185 -0.601228237
v 0.601755381 -0.489313453 -0.609263897
v 0.602906048 -0.487828285 -0.612688541
v 0.599491239 -0.487976879 -0.623841524
v 0.598703325 -0.482605189 -0.630702376
v 0.59518677 -0.490890324 -0.641810894
v 0.594396472 -0.485502601 -0.648692191
v 0.596708536 -0.482518375 -0.655573547
v 0.595918238 -0.477130651 -0.662454903
v 0.592749 -0.476693153 -0.673289955
v 0.59390676 -0.475198776 -0.676735818
v 0.593066454 -0.478782147 -0.688904703
v 0.58883208 -0.48944515 -0.706815779
v 0.591161966 -0.486437887 -0.713750243
v 0.593491852 -0.483430594 -0.720684767
v 0.595821738 -0.480423331 -0.727619231
v 0.593247235 -0.487658501 -0.742924273
v 0.595584393 -0.48464179 -0.749880493
v 0.59792161 -0.48162511 -0.756836653
v 0.600258768 -0.4786084 -0.763792872
v 0.600258768 -0.4786084 -0.763792872
v 0.595178366 -0.471269816 -0.761742175
v 0.590876997 -0.470349193 -0.758266747
v 0.580407917 -0.484008759 -0.776316464
v 0.582755983 -0.480978101 -0.78330487
v 0.579308927 -0.489951849 -0.800306737
v 0.580640912 -0.489033878 -0.809098601
v 0.582999051 -0.485990137 -0.816117227
v 0.585357189 -0.482946366 -0.823135853
v 0.576562941 -0.521299362 -0.860975683
v 0.567899525 -0.547648907 -0.876241267
v 0.583152056 -0.533127487 -0.854982615
v 0.588190138 -0.540970862 -0.857400835
v 0.593667448 -0.547912061 -0.859056473
v 0.600078106 -0.552878678 -0.859056473
v 0.608765066 -0.544620514 -0.854912639
v 0.617149293 -0.545276761 -0.851322234
v 0.620232165 -0.558437943 -0.863012016
v 0.627828658 -0.561859071 -0.866562963
v 0.633416533 -0.561259687 -0.873664856
v 0.63460958 -0.559719741 -0.877215803
v 0.641438484 -0.546895087 -0.87610656
v 0.646452129 -0.538042068 -0.878298938
v 0.648827195 -0.534976482 -0.88536793
v 0.654389203 -0.5343799 -0.892436862
v 0.663942158 -0.523866594 -0.886221945
v 0.665125608 -0.522339046 -0.889744282
v 0.657951772 -0.529781461 -0.903040349
v 0.650315046 -0.528687537 -0.911187112
v 0.64950192 -0.523143947 -0.918267548
v 0.649520874 -0.514720976 -0.917995811
v 0.645789504 -0.51448971 -0.924796104
v 0.641785085 -0.506474614 -0.931875169
v 0.641234875 -0.498293847 -0.926906228
v 0.634863079 -0.493357301 -0.926906228
v 0.626520991 -0.493637472 -0.936342299
v 0.612040758 -0.507896423 -0.963002324
v 0.606657445 -0.520350695 -0.978892565
v 0.604632497 -0.516297519 -0.98247242
v 0.60926187 -0.499149084 -0.97940284
v 0.604448915 -0.5010131 -0.988214374
v 0.602427363 -0.496966809 -0.991788089
v 0.59598279 -0.491973907 -0.991788089
v 0.589538217 -0.486981004 -0.991788089
v 0.583068013 -0.48204118 -0.991835594
v 0.571614504 -0.485515773 -0.98948127
v 0.566935658 -0.48507756 -0.986356616
v 0.564529836 -0.488182813 -0.979196131
v 0.562807739 -0.489886403 -0.970793724
v 0.562842369 -0.487992048 -0.959222496
v 0.5733248 -0.464707702 -0.928856909
v 0.568494201 -0.454803884 -0.914717853
v 0.566241324 -0.449558735 -0.907401025
v 0.559742033 -0.452930719 -0.907646179
v 0.550989926 -0.451057553 -0.900574565
v 0.546382129 -0.450585604 -0.897444963
v 0.541049838 -0.450717747 -0.889967144
v 0.535252452 -0.451779366 -0.883299649
v 0.538063467 -0.445348412 -0.872849882
v 0.532464921 -0.446037829 -0.865875959
v 0.524829686 -0.450756788 -0.862380505
v 0.527444839 -0.443953842 -0.846827149
v 0.518166602 -0.451915026 -0.846105099
v 0.517854154 -0.451724172 -0.84110105
v 0.521693468 -0.44255051 -0.823603809
v 0.509932458 -0.455379277 -0.826990426
v 0.515176773 -0.443492711 -0.807256818
v 0.517458379 -0.437433064 -0.792537272
v 0.506554782 -0.448571861 -0.794425666
v 0.50671041 -0.447483301 -0.788714647
v 0.504351676 -0.450527817 -0.781694293
v 0.501992941 -0.453572333 -0.774673939
v 0.501301169 -0.453362286 -0.764943659
v 0.498944819 -0.456403762 -0.757930398
v 0.508774459 -0.444246531 -0.736336708
v 0.506430864 -0.447271526 -0.729361415
v 0.504087269 -0.450296491 -0.722386122
v 0.501743615 -0.453321487 -0.715410829
v 0.499400049 -0.456346452 -0.708435535
v 0.497056454 -0.459371418 -0.701460242
v 0.511897266 -0.438154727 -0.677599907
v 0.509836257 -0.440639317 -0.670261443
v 0.50655061 -0.445517182 -0.664849639
v 0.50321728 -0.450486273 -0.659500062
v 0.500889421 -0.453490973 -0.652571559
v 0.507773757 -0.447005332 -0.636179626
v 0.504649222 -0.451573312 -0.630522847
v 0.502328753 -0.454568446 -0.623616338
v 0.504882693 -0.456527382 -0.614001453
v 0.621136069 -0.220245272 -0.425890177
v 0.627360523 -0.193865627 -0.417200834
v 0.625562072 -0.190265879 -0.420380205
v 0.624831796 -0.185287327 -0.426738918
v 0.623033345 -0.181687579 -0.429918289
v 0.622179389 -0.16921851 -0.43206051
v 0.625202358 -0.156390637 -0.427826285
v 0.621623039 -0.149226338 -0.434153914
v 0.61983341 -0.145644188 -0.437317729
v 0.619389236 -0.139507651 -0.438411385
v 0.614750981 -0.133720443 -0.441572428
v 0.612962842 -0.130141422 -0.4447335
v 0.61534375 -0.111191817 -0.437129229
v 0.617898226 -0.0908396021 -0.419820249
v 0.615896463 -0.0877303183 -0.42330268
v 0.615842938 -0.0890298635 -0.43286112
v 0.613018215 -0.086841397 -0.43286112
v 0.612708092 -0.0726018474 -0.424728721
v 0.60995096 -0.0635333806 -0.4250772
v 0.605834901 -0.0564199723 -0.42279318
v 0.601263583 -0.0507162958 -0.425908625
v 0.603305817 -0.0324959196 -0.414362252
v 0.602931082 -0.0187700745 -0.406528383
v 0.601183236 -0.0152716087 -0.409618288
v 0.598623335 -0.0055698147 -0.405109495
v 0.596852005 0.00547996396 -0.399456412
v 0.585505307 -0.000980807352 -0.412708193
v 0.597407639 0.0341089033 -0.386775911
v 0.597420752 0.0480564795 -0.378607422
v 0.590168476 0.0418381169 -0.389831752
v 0.586966038 0.0501217879 -0.386429638
v 0.582397401 0.0560010597 -0.385057807
v 0.575906813 0.0581126213 -0.391063929
v 0.572423458 0.0658447146 -0.388107359
v 0.565920174 0.0679687858 -0.394117355
v 0.564254999 0.0719522685 -0.392532349
v 0.559699774 0.0778186619 -0.391156912
v 0.560644507 0.0925292447 -0.386349827
v 0.565210402 0.0998183563 -0.38424018
v 0.560760617 0.105370335 -0.387272775
v 0.558026314 0.107488751 -0.387272775
v 0.552557647 0.111725591 -0.387272775
v 0.548107922 0.117277563 -0.39030534
v 0.542639256 0.121514402 -0.39030534
v 0.550505221 0.141412243 -0.370646924
v 0.55204761 0.157019794 -0.360704154
v 0.543554246 0.155845001 -0.369532883
v 0.542681038 0.167407021 -0.363079637
v 0.534501493 0.166799128 -0.371436834
v 0.532878578 0.177081406 -0.366076767
v 0.527384877 0.174397498 -0.374440908
v 0.525778472 0.184662148 -0.369073868
v 0.521092534 0.189692587 -0.37247628
v 0.526398122 0.210770622 -0.357461333
v 0.515283823 0.199308187 -0.373661458
v 0.525287211 0.227609172 -0.352131873
v 0.520012617 0.231607839 -0.35638389
v 0.513638198 0.233914599 -0.362165451
v 0.513976455 0.240660608 -0.357964903
v 0.509549141 0.245980144 -0.361034125
v 0.505195022 0.251412839 -0.364001542
v 0.500202417 0.255871952 -0.36785382
v 0.498838633 0.25994277 -0.36603719
v 0.494486243 0.26537326 -0.369003385
v 0.491490781 0.266741514 -0.37379092
v 0.487134963 0.272176266 -0.37675947
v 0.48410359 0.279592693 -0.377902061
v 0.487661391 0.296802372 -0.369976938
v 0.495301247 0.314168245 -0.355815142
v 0.490995884 0.319540113 -0.35874933
v 0.489336103 0.322862267 -0.361683518
v 0.491076857 0.337110221 -0.356325239
v 0.487769276 0.343730628 -0.362172484
v 0.486115485 0.347040832 -0.365096092
v 0.485898107 0.352440178 -0.366047382
v 0.4801718 0.355703533 -0.370943338
v 0.478518009 0.359013736 -0.373866975
v 0.484785974 0.379397959 -0.366571844
v 0.496150106 0.401343971 -0.35161981
v 0.498088449 0.403845876 -0.357388914
v 0.509562969 0.425729841 -0.346398622
v 0.522422194 0.438195884 -0.340530992
v 0.523379445 0.439431429 -0.343380034
v 0.522725046 0.443892777 -0.349078178
v 0.524639547 0.446363866 -0.354776293
v 0.526554048 0.448834985 -0.360474437
v 0.517564297 0.441390425 -0.377897769
v 0.513819456 0.435775787 -0.391628474
v 0.50676173 0.431157023 -0.4064264
v 0.503435731 0.426286072 -0.415398449
v 0.505379081 0.428794444 -0.421182513
v 0.50732249 0.431302845 -0.426966608
v 0.50926584 0.433811218 -0.432750672
v 0.508601606 0.438339829 -0.438534737
v 0.510544956 0.440848231 -0.444318801
v 0.512488306 0.443356603 -0.450102895
v 0.516858518 0.455031425 -0.448592156
v 0.517827213 0.456281781 -0.451475382
v 0.519920886 0.459004372 -0.457014203
v 0.521858156 0.461504877 -0.462780088
v 0.521196008 0.466019273 -0.468546003
v 0.523133278 0.468519777 -0.474311918
v 0.52247113 0.473034173 -0.480077803
v 0.523439765 0.47428441 -0.482960761
v 0.517604768 0.471504629 -0.496375442
v 0.507595718 0.468598843 -0.512125432
v 0.508571327 0.46985817 -0.515029252
v 0.510522664 0.472376764 -0.520836949
v 0.508104146 0.47447136 -0.529254436
v 0.483808845 0.440235078 -0.574317813
v 0.485793203 0.442796379 -0.580223918
v 0.487777561 0.445357651 -0.586129963
v 0.489761919 0.447918952 -0.592036068
v 0.491746277 0.450480223 -0.597942114
v 0.493730605 0.453041524 -0.603848159
v 0.495714962 0.455602825 -0.609754264
v 0.49769932 0.458164096 -0.61566031
v 0.499683678 0.460725397 -0.621566415
v 0.501668036 0.463286668 -0.62747246
v 0.503652394 0.465847969 -0.633378565
v 0.501668036 0.463286668 -0.62747246
v 0.498013258 0.46406889 -0.624519408
v 0.493366271 0.463570446 -0.618613362
v 0.475053966 0.443664342 -0.651557148
v 0.477059245 0.446252644 -0.65752548
v 0.456588984 0.42346701 -0.693992913
v 0.457603365 0.424776345 -0.697012067
v 0.459632158 0.427394986 -0.703050375
v 0.461660951 0.430013627 -0.709088683
v 0.463689744 0.432632238 -0.715126991
v 0.465718508 0.435250878 -0.721165299
v 0.467747301 0.437869519 -0.727203608
v 0.469776094 0.44048816 -0.733241916
v 0.471804887 0.4431068 -0.739280224
v 0.46979332 0.440113991 -0.751733124
v 0.471826941 0.442738891 -0.757785857
v 0.473860592 0.44536379 -0.763838589
v 0.475894213 0.447988689 -0.769891322
v 0.477927864 0.450613588 -0.775944054
v 0.482690215 0.45112437 -0.781996846
v 0.484723866 0.453749269 -0.788049579
v 0.486757487 0.456374168 -0.794102311
v 0.488791138 0.458999068 -0.800155044
v 0.490824759 0.461623967 -0.806207836
v 0.478852242 0.444730252 -0.835310876
v 0.48090291 0.447377115 -0.841414332
v 0.482953578 0.450024009 -0.847517788
v 0.487755865 0.450539112 -0.853621244
v 0.488781214 0.451862544 -0.856673002
v 0.490831882 0.454509437 -0.862776458
v 0.49288255 0.45715633 -0.868879914
v 0.511534512 0.477082521 -0.851603389
v 0.528001249 0.494041383 -0.837797642
v 0.532729805 0.494548559 -0.843807399
v 0.533739388 0.495851696 -0.846812308
v 0.538467944 0.496358871 -0.852822065
v 0.54048717 0.498965144 -0.858831823
v 0.545215726 0.49947232 -0.86484158
v 0.546225309 0.500775456 -0.867846489
v 0.548244476 0.503381729 -0.873856246
v 0.550263703 0.505987942 -0.879866004
v 0.549573541 0.510693312 -0.885875762
v 0.548883379 0.515398622 -0.891885519
v 0.549892962 0.516701758 -0.894890428
v 0.546493411 0.523506165 -0.900900185
v 0.544793665 0.526908338 -0.903905034
v 0.540384531 0.532409608 -0.906909943
v 0.525452733 0.523430407 -0.923523009
v 0.524087131 0.527327895 -0.925944567
v 0.52127558 0.535090208 -0.926137686
v 0.510854602 0.532423615 -0.939585388
v 0.493592411 0.520533621 -0.964887679
v 0.491865307 0.523990512 -0.967940867
v 0.491311103 0.517214477 -0.983406365
v 0.492340237 0.518542826 -0.986469388
v 0.487845808 0.52415055 -0.989532411
v 0.48257333 0.528710425 -0.993952096
v 0.480180234 0.53134805 -0.993308067
v 0.473625958 0.534299791 -0.990244329
v 0.464967072 0.53445363 -0.990808427
v 0.459086239 0.532538831 -0.986480653
v 0.46001938 0.533812344 -0.980047166
v 0.452932686 0.530303299 -0.97777003
v 0.478185385 0.569467187 -0.920618176
v 0.475465864 0.571574152 -0.920618176
v 0.46785292 0.572942555 -0.924286604
v 0.459546655 0.567792833 -0.924214244
v 0.454682499 0.56714946 -0.918331683
v 0.455875963 0.568727076 -0.906903744
v 0.448903024 0.565326095 -0.909252107
v 0.447170675 0.563092589 -0.902700365
v 0.44807744 0.564287066 -0.891799629
v 0.444196701 0.559262872 -0.888800144
v 0.423526943 0.532431245 -0.91328454
v 0.41989699 0.527733028 -0.909743965
v 0.417841047 0.52507937 -0.903624833
v 0.413923502 0.52000767 -0.900525153
v 0.411865354 0.517351151 -0.894399524
v 0.408887565 0.513500094 -0.889755666
v 0.406614155 0.51056397 -0.883970737
v 0.404522181 0.507863522 -0.877893209
v 0.402462691 0.505205214 -0.871763468
v 0.400778294 0.503034174 -0.865037441
v 0.399446666 0.501321256 -0.857756436
v 0.393520743 0.49937138 -0.853374362
v 0.391461253 0.496713102 -0.84724462
v 0.38993448 0.494744986 -0.840280652
v 0.389751345 0.494517654 -0.831225097
v 0.388171494 0.492480755 -0.82436192
v 0.388072968 0.492363006 -0.815207243
v 0.386721849 0.490622431 -0.808008373
v 0.385537833 0.48909837 -0.800559521
v 0.386235446 0.49001196 -0.790232003
v 0.386537582 0.490413189 -0.780537963
v 0.385642678 0.489263594 -0.772692919
v 0.380853981 0.488749981 -0.766606688
v 0.383666128 0.492385805 -0.757757187
v 0.382675976 0.491109461 -0.750099003
v 0.380636722 0.48847729 -0.744029462
v 0.380815417 0.488711447 -0.734635532
v 0.383342177 0.491980046 -0.721756876
v 0.381310612 0.489357859 -0.715710342
v 0.383858114 0.492653221 -0.702870607
v 0.383009672 0.491559952 -0.695098042
v 0.383589894 0.492312968 -0.68523246
v 0.392382383 0.503678799 -0.66333431
v 0.394959331 0.507012129 -0.650640666
v 0.392954737 0.504424751 -0.64467442
v 0.390950173 0.501837373 -0.638708174
v 0.384880632 0.499560952 -0.634730637
v 0.384251267 0.498746485 -0.626775682
v 0.382246703 0.496159106 -0.620809376
v 0.3830055 0.497134209 -0.610888183
v 0.396854281 0.514984727 -0.582324445
v 0.410136521 0.532104969 -0.554722369
v 0.405531198 0.531610966 -0.548869193
v 0.41099152 0.538624346 -0.532548726
v 0.407384753 0.539396286 -0.529634535
v 0.410100311 0.542865336 -0.517262876
v 0.405526608 0.54237479 -0.511449933
v 0.411026865 0.549393952 -0.495290488
v 0.405550212 0.547741175 -0.495017976
v 0.405500084 0.547650337 -0.486607939
v 0.401013374 0.547248006 -0.480726779
v 0.403266788 0.550086081 -0.469198793
v 0.399693489 0.550850868 -0.466311604
v 0.397753358 0.548346698 -0.460537225
v 0.39877376 0.54960525 -0.450756371
v 0.394237995 0.549118757 -0.444991648
v 0.392377496 0.546715558 -0.439124495
v 0.38902548 0.547726333 -0.431779742
v 0.391507834 0.550817072 -0.42014125
v 0.389772624 0.548572361 -0.414135754
v 0.387842149 0.546080649 -0.408390075
v 0.384090543 0.546594083 -0.405775458
v 0.382356167 0.544349849 -0.399771571
v 0.380425692 0.541858137 -0.394025892
v 0.379685968 0.540869474 -0.386728704
v 0.380253404 0.541530907 -0.37774542
v 0.371846557 0.536141157 -0.377043903
v 0.363467127 0.530808449 -0.376256913
v 0.363103718 0.530318677 -0.372602582
v 0.354969293 0.530580699 -0.368133128
v 0.346452773 0.525164008 -0.371546328
v 0.33600229 0.522639334 -0.374062926
v 0.332558692 0.523578107 -0.370993257
v 0.324144274 0.523625076 -0.370888203
v 0.320557743 0.524392724 -0.367990315
v 0.313184857 0.525747001 -0.366553754
v 0.303663313 0.524494052 -0.367767125
v 0.296081096 0.525632262 -0.366549909
v 0.292112142 0.52603054 -0.368210584
v 0.285888702 0.52883333 -0.36530149
v 0.282288283 0.529603899 -0.362392366
v 0.272688955 0.528455377 -0.367699951
v 0.26645115 0.531264603 -0.364784122
v 0.260213375 0.53407383 -0.361868292
v 0.252404422 0.535134375 -0.364941657
v 0.24722591 0.53406328 -0.363901466
v 0.237466827 0.53287822 -0.369278938
v 0.231491953 0.536039889 -0.366003096
v 0.224555776 0.538206756 -0.367971331
v 0.222586587 0.540907025 -0.363074601
v 0.215642795 0.543078065 -0.365040332
v 0.209372565 0.545901895 -0.362109333
v 0.195400894 0.540054858 -0.37230432
v 0.19004181 0.543961108 -0.368263245
v 0.186448425 0.544947743 -0.369360358
v 0.181888685 0.54975158 -0.364397019
v 0.174272552 0.551256001 -0.367075592
v 0.169492215 0.555797756 -0.362378091
v 0.162662327 0.558207393 -0.364130795
v 0.159820378 0.559881926 -0.360265404
v 0.153707296 0.563101649 -0.361185968
v 0.139714777 0.557442248 -0.367001593
v 0.12989445 0.556445301 -0.368009865
v 0.126593545 0.557821453 -0.368724346
v 0.120256849 0.560675263 -0.365762293
v 0.11091648 0.560464621 -0.370258689
v 0.104567423 0.563323915 -0.367290854
v 0.0994198546 0.567478597 -0.362983823
v 0.095542416 0.568256438 -0.36432302
v 0.089193359 0.571115792 -0.361355186
v 0.0823340267 0.573430955 -0.358950466
v 0.0667001605 0.561717927 -0.373231113
v 0.0595966801 0.563839912 -0.371026963
v 0.0539199933 0.567473531 -0.367257088
v 0.0475299135 0.570351303 -0.364270091
v 0.0421854481 0.569659472 -0.367150754
v 0.0357873738 0.572540879 -0.364160001
v 0.0293892995 0.575422287 -0.361169249
v 0.0263240859 0.577129304 -0.361565828
v 0.0174282938 0.577434003 -0.361249089
v 0.0174789466 0.58209753 -0.354241699
v -0.00738318544 0.566304386 -0.374985248
v -0.0158297215 0.56717509 -0.374083132
v -0.0222889148 0.570083976 -0.371063828
v -0.0213539861 0.575624645 -0.363124639
v -0.0314012952 0.574887693 -0.36388886
v -0.0378573053 0.577795148 -0.360871017
v -0.0416664965 0.578810751 -0.362005889
v -0.0578338057 0.572013915 -0.369068444
v -0.0617264584 0.577218592 -0.359272867
v -0.0680745542 0.575738847 -0.363003343
v -0.0896706581 0.563713312 -0.37548241
v -0.0930809081 0.564885616 -0.372052401
v -0.100225262 0.567222774 -0.369625837
v -0.103389077 0.568635106 -0.365947366
v -0.110290363 0.571213484 -0.363270313
v -0.119252525 0.571789742 -0.362667054
v -0.120227486 0.575325489 -0.356789768
v -0.130695298 0.574458957 -0.357677042
v -0.139695466 0.57503736 -0.357069135
v -0.141318202 0.577929437 -0.351856589
v -0.150674492 0.578182817 -0.351582319
v -0.153820843 0.579608142 -0.347886026
v -0.191145197 0.553285301 -0.375055313
v -0.194337055 0.554720759 -0.371320337
v -0.20161894 0.557094991 -0.368852168
v -0.208783999 0.559220314 -0.362152517
v -0.212092698 0.560904741 -0.362649053
v -0.21976991 0.562547803 -0.356445938
v -0.223608524 0.563369393 -0.353344381
v -0.227447137 0.564190924 -0.350242823
v -0.249365076 0.552991807 -0.361706555
v -0.268332392 0.544251025 -0.366114169
v -0.272213399 0.545081675 -0.362978369
v -0.276094407 0.545912266 -0.359842569
v -0.282704949 0.54862994 -0.352492839
v -0.293520749 0.547893822 -0.353191435
v -0.300914347 0.545526445 -0.353313237
v -0.321611166 0.531063437 -0.36574769
v -0.332658827 0.530237317 -0.366529644
v -0.336583227 0.531077206 -0.363358766
v -0.353389353 0.525101364 -0.369375885
v -0.362217605 0.52635783 -0.368034452
v -0.453119934 0.450191438 -0.452622265
v -0.456275016 0.44824481 -0.464144081
v -0.45166111 0.458217144 -0.465815753
v -0.456250131 0.455004632 -0.478690207
v -0.454027951 0.457872897 -0.485304117
v -0.45940721 0.448973447 -0.501761854
v -0.45829162 0.450413376 -0.50508219
v -0.456060439 0.453293264 -0.511722922
v -0.451367468 0.458371013 -0.516053319
v -0.469411314 0.438124299 -0.544622779
v -0.464144737 0.438689202 -0.551316381
v -0.468199998 0.430887431 -0.566882193
v -0.457753658 0.440705478 -0.561356783
v -0.455504715 0.443608314 -0.568050325
v -0.45041126 0.444017589 -0.574910343
v -0.45604673 0.434768051 -0.592134058
v -0.454427779 0.436666369 -0.595021248
v -0.450858563 0.440760583 -0.600468993
v -0.448504835 0.438685238 -0.610045969
v -0.444623679 0.443062723 -0.615183473
v -0.458773017 0.425644696 -0.636517644
v -0.450951815 0.433585733 -0.637820661
v -0.44073227 0.443686515 -0.636714458
v -0.438470036 0.446606487 -0.643447518
v -0.446846724 0.434821755 -0.663809419
v -0.442668557 0.43947646 -0.668673635
v -0.436561465 0.445871115 -0.671588838
v -0.447992802 0.431298107 -0.695225894
v -0.44570902 0.434245855 -0.702023089
v -0.443425268 0.437193602 -0.708820283
v -0.441141486 0.44014135 -0.715617537
v -0.438857734 0.443089098 -0.722414732
v -0.436573952 0.446036845 -0.729211926
v -0.446533889 0.432768047 -0.751783729
v -0.445385247 0.434250623 -0.755202353
v -0.443088025 0.437215745 -0.762039661
v -0.443466932 0.437763214 -0.771658301
v -0.438058913 0.448703289 -0.772050798
v -0.445148647 0.443212032 -0.788686574
v -0.444699317 0.444515347 -0.79748261
v -0.448526859 0.441970557 -0.810792327
v -0.444334805 0.451371431 -0.807769001
v -0.448161483 0.448842764 -0.821102858
v -0.448950887 0.454224527 -0.827976584
v -0.446641415 0.457205445 -0.834850311
v -0.447430789 0.462587208 -0.841723979
v -0.449374914 0.466478497 -0.845160842
v -0.462328941 0.455874503 -0.868345976
v -0.463122934 0.461287707 -0.875259876
v -0.458293289 0.471210301 -0.871446669
v -0.459085226 0.476609558 -0.878342688
v -0.459877163 0.482008785 -0.885238767
v -0.461287588 0.486864656 -0.892801762
v -0.463238478 0.490769506 -0.896250606
v -0.473132581 0.487729579 -0.908273458
v -0.47392711 0.49314642 -0.915191948
v -0.475883871 0.497063071 -0.918651164
v -0.479797453 0.504896343 -0.925569713
v -0.486024767 0.505125463 -0.93365711
v -0.506197155 0.488710076 -0.965051949
v -0.503849089 0.491740823 -0.972040474
v -0.500960112 0.500388741 -0.974993587
v -0.501761615 0.505852818 -0.981972456
v -0.499401391 0.513513625 -0.980711877
v -0.506606758 0.51298815 -0.989935338
v -0.511728644 0.519378722 -0.993425965
v -0.5163427 0.525677323 -0.99158895
v -0.522518635 0.530647695 -0.99146378
v -0.530197382 0.534357131 -0.992974281
v -0.537540078 0.532751739 -0.992764294
v -0.536813915 0.537361383 -0.979052901
v -0.542467773 0.536632657 -0.972261965
v -0.541503906 0.536901593 -0.966483414
v -0.517826498 0.560590684 -0.928348064
v -0.521880627 0.567195415 -0.926044583
v -0.528953016 0.571293533 -0.926963091
v -0.532351196 0.572917938 -0.922601402
v -0.537756741 0.577842891 -0.917086303
v -0.542801321 0.577564895 -0.909815788
v -0.55966866 0.567624211 -0.91493398
v -0.560829401 0.566125989 -0.911479235
v -0.566265881 0.565542877 -0.904569685
v -0.562673748 0.567374289 -0.891522825
v -0.568007767 0.56191957 -0.887749732
v -0.574788332 0.555280387 -0.885447443
v -0.58013767 0.549807668 -0.881644249
v -0.577672482 0.545758247 -0.873010337
v -0.583291411 0.540603697 -0.874114513
v -0.579372406 0.532759547 -0.867186427
v -0.574635744 0.531131625 -0.860883772
v -0.571383536 0.523281097 -0.859290302
v -0.578331351 0.506911933 -0.868137658
v -0.577479243 0.502573848 -0.870477617
v -0.55631578 0.510204613 -0.855190992
v -0.545472145 0.509766221 -0.855109274
v -0.539236903 0.504935443 -0.855109274
v -0.532216728 0.500772119 -0.854296267
v -0.524469733 0.501795173 -0.844843924
v -0.52099669 0.498685122 -0.835176289
v -0.524836361 0.49489817 -0.8344962
v -0.519027948 0.493796408 -0.822436154
v -0.497448951 0.506269753 -0.794207215
v -0.498596728 0.50478828 -0.790791094
v -0.495947629 0.50607729 -0.778907716
v -0.493130475 0.507514536 -0.766887307
v -0.495417356 0.504562736 -0.760080814
v -0.486357808 0.511380494 -0.741800427
v -0.491690427 0.510808468 -0.735022962
v -0.493967563 0.507869303 -0.728245497
v -0.499300152 0.507297337 -0.721468031
v -0.490240604 0.514093399 -0.703407228
v -0.495550543 0.513523877 -0.696658552
v -0.490945339 0.516981184 -0.687608004
v -0.496243834 0.516412854 -0.68087393
v -0.498452246 0.518484831 -0.671111226
v -0.499582231 0.517026365 -0.667748094
v -0.504032373 0.517177165 -0.66020155
v -0.502410173 0.522497177 -0.646775246
v -0.507687151 0.521931171 -0.640068412
v -0.502551138 0.525802612 -0.630681396
v -0.506184876 0.531511784 -0.619538307
v -0.516869545 0.526857615 -0.622456491
v -0.521013081 0.527744412 -0.619108617
v -0.514188647 0.532500923 -0.603799582
v -0.522940934 0.534358323 -0.60198921
v -0.517830014 0.537648559 -0.58838284
v -0.526319802 0.539204299 -0.581956565
v -0.52451843 0.540207565 -0.575895905
v -0.528600872 0.545435011 -0.565383911
v -0.529044271 0.54455632 -0.56143862
v -0.528685451 0.548650682 -0.549638987
v -0.531620204 0.545186102 -0.543664455
v -0.536763966 0.539877892 -0.539712131
v -0.545336604 0.536525905 -0.5361377
v -0.544712663 0.536024988 -0.526894331
v -0.534750879 0.543311656 -0.509200513
v -0.54001838 0.543205619 -0.506963134
v -0.539736867 0.547202289 -0.49541834
v -0.541281164 0.550180316 -0.489842206
v -0.540492177 0.55456984 -0.477914155
v -0.547866285 0.547440648 -0.475936413
v -0.554145277 0.546492994 -0.474597007
v -0.557584524 0.547895193 -0.470732689
v -0.566176832 0.539772034 -0.469765782
v -0.566372216 0.533809006 -0.463997751
v -0.558094323 0.539634943 -0.448183209
v -0.556478202 0.539950669 -0.438254118
v -0.556342423 0.539042473 -0.429637611
v -0.554891288 0.534477651 -0.422463089
v -0.541803181 0.54011178 -0.409434408
v -0.550664067 0.531723857 -0.408654571
v -0.558510065 0.524681807 -0.411196828
v -0.55001682 0.526000321 -0.397962123
v -0.558471501 0.517931938 -0.396770686
v -0.553008854 0.516733468 -0.38617298
v -0.548543334 0.51521343 -0.380661935
v -0.553711116 0.509879589 -0.376636982
v -0.516884029 0.535131395 -0.339427501
v -0.517296493 0.533809602 -0.331463903
v -0.526128292 0.525390804 -0.3306126
v -0.531596184 0.524535298 -0.324436396
v -0.531790972 0.52388227 -0.320444524
v -0.534882665 0.525023639 -0.312286764
v -0.540108323 0.519650459 -0.308342665
v -0.540783823 0.5138641 -0.307183802
v -0.534931242 0.509329796 -0.307183802
v -0.523039103 0.508969188 -0.293863654
v -0.513760507 0.516380429 -0.282032609
v -0.494171619 0.532091618 -0.257613778
v -0.495798796 0.529762268 -0.250790954
v -0.501350701 0.528779149 -0.2448259
v -0.502976477 0.526450455 -0.238005579
v -0.505124331 0.523678124 -0.231612891
v -0.509603977 0.524080276 -0.228841066
v -0.511228085 0.521752477 -0.22202386
v -0.508965611 0.522726715 -0.212082863
v -0.503138661 0.526733339 -0.199311659
v -0.512270987 0.522695839 -0.196239293
v -0.514412224 0.519932091 -0.189866334
v -0.516553402 0.517168283 -0.183493361
v -0.514559031 0.517917812 -0.17385909
v -0.51669699 0.515158296 -0.167495951
v -0.510044396 0.519872665 -0.154253364
v -0.526920795 0.509721041 -0.161187991
v -0.520533741 0.514197946 -0.148186132
v -0.516048968 0.517065048 -0.136708096
v -0.518178165 0.514316797 -0.13037096
v -0.520307302 0.511568606 -0.124033816
v -0.520692825 0.510303199 -0.116362087
v -0.522820592 0.507556736 -0.110029057
v -0.51628834 0.512180984 -0.0971190333
v -0.518409312 0.509443402 -0.0908063948
v -0.520530283 0.506705761 -0.0844937637
v -0.520175397 0.506077945 -0.0763227269
v -0.511198103 0.508189917 -0.0638387948
v -0.510592103 0.507786334 -0.055524677
v -0.512702465 0.505062461 -0.0492436364
v -0.514812827 0.502338529 -0.0429625958
v -0.509294927 0.501533031 -0.0331439748
v -0.511401474 0.498813987 -0.0268741809
v -0.508654058 0.500259638 -0.0170528516
v -0.51075685 0.49754554 -0.0107944207
v -0.511430025 0.496058941 -0.00349836703
v -0.508694291 0.493349671 0.000330116454
v -0.510813773 0.495228022 0.00860340148
v -0.505286992 0.503657639 0.0223450102
v -0.508091986 0.505830824 0.0223450102
v -0.516246021 0.507549882 0.0243856944
v -0.524257958 0.508937895 0.0303931553
v -0.523557603 0.509072125 0.0347432122
v -0.521773279 0.505112052 0.0417208299
v -0.513317287 0.506854117 0.0533914007
v -0.512197196 0.507356167 0.0580113716
v -0.513429165 0.509940684 0.0667552724
v -0.517132998 0.510867178 0.0699369088
v -0.520309806 0.511783123 0.0772980601
v -0.52011174 0.515558541 0.0869751722
v -0.523922205 0.515923977 0.0938655362
v -0.528857708 0.515796065 0.0961861014
v -0.524751008 0.518348873 0.106569745
v -0.528594434 0.519137084 0.109626949
v -0.522904992 0.523022175 0.121033512
v -0.526853979 0.523248613 0.127768293
v -0.531684041 0.522730529 0.13390708
v -0.518578291 0.532850325 0.150157824
v -0.522741914 0.532873094 0.156686112
v -0.523767114 0.531549752 0.159737527
v -0.524335384 0.53015095 0.166817158
v -0.529134512 0.529636204 0.172916621
v -0.519366503 0.536928415 0.186730802
v -0.508282959 0.545335352 0.201335013
v -0.513037741 0.544825375 0.20737806
v -0.514052927 0.543515027 0.210399583
v -0.510445178 0.545632958 0.22006537
v -0.512471318 0.543017745 0.226095706
v -0.517216086 0.542508841 0.232126057
v -0.519242167 0.539893627 0.238156393
v -0.517506003 0.540439487 0.246560633
v -0.496087074 0.557531714 0.267310232
v -0.503274739 0.554937482 0.271722943
v -0.498538673 0.558008015 0.281893641
v -0.502521396 0.558097363 0.288290679
v -0.493294269 0.565381169 0.297585845
v -0.492728293 0.564954638 0.305095315
v -0.497894466 0.564034939 0.310718805
v -0.498371899 0.562732458 0.317572117
v -0.503557205 0.562248409 0.319614947
v -0.502548337 0.56218785 0.327359289
v -0.509713292 0.559596121 0.331778765
v -0.491621673 0.573810875 0.349724293
v -0.515373051 0.557811499 0.340674341
v -0.491726518 0.576641023 0.361825913
v -0.496347427 0.576145351 0.367698878
v -0.492483169 0.578465641 0.377003253
v -0.500370324 0.575243413 0.380947977
v -0.504576266 0.575089514 0.387053937
v -0.499800861 0.57860738 0.393328965
v -0.4983356 0.578923464 0.401164562
v -0.505382359 0.576397896 0.405605584
v -0.509986401 0.575904071 0.411457151
v -0.510095537 0.575360119 0.414880902
v -0.515573561 0.574141383 0.420234531
v -0.515081525 0.573640347 0.427472502
v -0.519681394 0.573146999 0.433318704
v -0.496496439 0.591426611 0.453205764
v -0.524023235 0.572410643 0.442778111
v -0.502026141 0.589682043 0.461892962
v -0.506582975 0.589193285 0.467684448
v -0.506108701 0.588680029 0.474802643
v -0.512112677 0.587448776 0.476371646
v -0.510471284 0.587895393 0.484113961
v -0.515067995 0.587369382 0.489872783
v -0.495571822 0.602522433 0.507195354
v -0.51436013 0.590750933 0.501890481
v -0.496202826 0.604782104 0.518389463
v -0.500708997 0.60429877 0.524116635
v -0.505673647 0.603439331 0.529601753
v -0.50219661 0.605388105 0.538167119
v -0.510647476 0.601666331 0.541819274
v -0.507654786 0.603666127 0.546741903
v -0.514703274 0.601096153 0.551137328
v -0.510153949 0.603913605 0.560195208
v -0.517527342 0.601529956 0.561076164
v -0.514800668 0.602851152 0.56916821
v -0.519290626 0.602369606 0.574874699
v -0.500054717 0.617174685 0.591279149
v -0.50450927 0.616696894 0.596940637
v -0.505378067 0.615085006 0.603119195
v -0.509572983 0.615270078 0.605603456
v -0.510781586 0.613380253 0.611608207
v -0.515234411 0.612902641 0.617267549
v -0.507425606 0.61835438 0.627691805
v -0.512365758 0.617469192 0.633085132
v -0.512809634 0.616655827 0.636150062
v -0.517246306 0.616179943 0.64178896
v -0.504141867 0.625919163 0.654645562
v -0.503296375 0.629710734 0.662767649
v -0.503953099 0.628276765 0.668946266
v -0.508354306 0.627804697 0.674539983
v -0.507041156 0.62841779 0.678399742
v -0.502713382 0.63102603 0.686901569
v -0.505467772 0.63187772 0.69323945
v -0.505858123 0.630661488 0.699499846
v -0.503627837 0.631570101 0.706963122
v -0.510286629 0.629703343 0.708263338
v -0.507745981 0.630859375 0.715849936
v -0.495156169 0.640155792 0.727990448
v -0.498620689 0.640405059 0.733919501
v -0.499703944 0.638634205 0.739794314
v -0.501560271 0.636238158 0.745319307
v -0.494530439 0.641036451 0.754801273
v -0.491591245 0.642527521 0.762429178
v -0.487769902 0.644736528 0.770422935
v -0.484551519 0.646460593 0.778125584
v -0.482975125 0.646856487 0.785088718
v -0.479141444 0.649085939 0.79301399
v -0.47950089 0.6479159 0.799104989
v -0.472349375 0.649390876 0.804244995
v -0.46813935 0.651943743 0.812270045
v -0.462459356 0.651816428 0.81985271
v -0.45154652 0.655983686 0.829634249
v -0.445770085 0.655981481 0.837207615
v -0.43787697 0.658159494 0.842584074
v -0.429894954 0.660431564 0.847987831
v -0.426178932 0.658790231 0.854645312
v -0.413416356 0.661198556 0.861015975
v -0.403885961 0.664827347 0.867031038
v -0.398927301 0.660837889 0.870130837
v -0.400785416 0.655025363 0.871390164
v -0.416681975 0.633170784 0.868875742
v -0.414674371 0.63054657 0.87176013
v -0.408563048 0.627472043 0.875341058
v -0.390338898 0.634648383 0.883921742
v -0.383573294 0.636482418 0.885725319
v -0.375737667 0.634957433 0.890008688
v -0.367417753 0.637757361 0.895473361
v -0.366875619 0.630440533 0.893725753
v -0.356490821 0.631154954 0.899056137
v -0.298670322 0.673132718 0.920978248
v -0.287261635 0.674597323 0.929647803
v -0.284468442 0.673198164 0.929839849
v -0.284202635 0.66504854 0.933911502
v -0.28381303 0.66119051 0.93605572
v -0.283192754 0.653686285 0.937342227
v -0.278559327 0.653533459 0.941224158
v -0.274047196 0.649435639 0.944102168
v -0.270852655 0.648037732 0.947391272
v -0.263094902 0.646822155 0.95158726
v -0.252912521 0.65163511 0.957705617
v -0.245653957 0.650037944 0.961688817
v -0.241029516 0.646455169 0.961688817
v -0.23030445 0.647998631 0.967078447
v -0.223760217 0.649680316 0.971699834
v -0.218027338 0.647135139 0.972158968
v -0.208056867 0.648098886 0.977233708
v -0.204324514 0.643442035 0.979777336
v -0.195968002 0.647178948 0.982234478
v -0.185988888 0.648566306 0.984428763
v -0.178505555 0.647384882 0.988488853
v -0.157548174 0.658619106 0.998005092
v -0.148908556 0.6624313 1.00343335
v -0.147007644 0.663562775 1.00987422
v -0.143600747 0.658447027 1.01510108
v -0.140084326 0.657876194 1.01560807
v -0.122910246 0.665879607 1.02351058
v -0.117151476 0.66331774 1.02683794
v -0.11264395 0.663713157 1.02774751
v -0.10885641 0.659326732 1.030285
v -0.107968554 0.652789176 1.02603924
v -0.100043789 0.652875721 1.02461636
v -0.0983566344 0.650627553 1.02439559
v -0.0830467045 0.660737514 1.03527749
v -0.0769611597 0.662412822 1.03962195
v -0.0717143863 0.659482658 1.04273665
v -0.0648421198 0.658395529 1.04371858
v -0.0631660745 0.652329981 1.04261386
v -0.0610366315 0.650533795 1.04257989
v 0.593417168 -0.182943955 -0.43475908
v 0.617697835 -0.121854812 -0.389539003
v 0.618234813 -0.113963842 -0.389195412
v 0.618802249 -0.11413803 -0.397773802
v 0.618827164 -0.115335718 -0.407194376
v 0.604928553 -0.150360748 -0.442220867
v 0.606724322 -0.153955072 -0.439046293
v 0.59814173 -0.176584408 -0.446879655
v 0.59556371 -0.180173293 -0.441147953
v 0.594490409 -0.181558624 -0.437953502
v -0.358588517 0.494725704 -0.0197482295
v -0.37070474 0.492646158 -0.0209683254
v -0.384403646 0.490378141 -0.0350343287
v -0.384196758 0.495234132 -0.032719925
v -0.392331243 0.497642636 -0.03859514
v -0.441839904 0.458343208 -0.0786550939
v -0.447838366 0.453805387 -0.0912544876
v -0.445716947 0.456543595 -0.0975685194
v -0.457830042 0.446540296 -0.115031332
v -0.45569703 0.449293464 -0.121379815
v -0.453564018 0.452046603 -0.127728313
v -0.501771152 0.399602354 -0.174494669
v -0.503174543 0.392593831 -0.169710129
v -0.50277698 0.387624621 -0.167601496
v -0.514695227 0.371091127 -0.17108348
v -0.515093207 0.365366757 -0.16958712
v -0.516697884 0.358117551 -0.164907157
v -0.517462432 0.351623267 -0.159559384
v -0.515613616 0.347922802 -0.156291068
v -0.348692089 0.494813979 -0.0202225484
v -0.348002046 0.499720365 -0.0136722066
g path_000000
l 1 1189 1188 1187 1186 1185 1184
g path_000001
l 2 3 4 5 6 7
g path_000002
l 8 9 10 11 12 13 14 15
g path_000003
l 16 17 18 19 20 21 22 23 24 25 26 27 28 29 30 31 32 33 34 35 36 37 38 39 40 41 42 43 44 45 46 47 48 49 50 51 52 53 54 55 56 57 58 59 60 61 62 63 64 65 66 67 68 69 70 71 72 73 74 75 76 77 78 79 80 81 82 83 84 85 86 87 88 89 90 91 92 93 94 95 96 97 98 99 100 101 102 103 104 105 106 107 108 109 110 111 112 113 114 115 116 117 118 119 120 121 122 123 124 125 126 127 128 129 130 131 132 133 134 135 136 137 138 139 140 141 142 143 144 145 146 147 148
g path_000004
l 150 151
g path_000005
l 153 154 155 156 157
g path_000006
l 158 159
g path_000007
l 160 161
g path_000008
l 164 165
g path_000009
l 166 167 168 169 170 171 172
g path_000010
l 173 174
g path_000011
l 175 176
g path_000012
l 180 181
g path_000013
l 184 185 186 187 188 189 190 191 192 193 194 195 196 197 198 199 200 201 202 203
g path_000014
l 204 205 206 207 208 209
g path_000015
l 211 212
g path_000016
l 213 214 215 216 217 218 219 220 221 222 223 224 225 226 227 228 229 230 231 232 233 234 235 236 237 238 239 240 241 242 243 244 245 246 247 248 249 250 251 252
g path_000017
l 253 254 255 256 257 258 259 260 261 262 263 264 265 266 267 268 269 270 271 272 273 274 275 276 277 278 279 280 281 282 283 284 285 286 287 288 289 290 291 292 293 294 295
g path_000018
l 296 297 298
g path_000019
l 299 300 301
g path_000020
l 303 304 305 306 307 308 309 310 311 312 313 314 315 316 317 318 319 320
g path_000021
l 321 322 323 324 325 326 327 328 329 330
g path_000022
l 331 332 333 334 335 336 337 338 339 340 341 342 343 344 345 346 347 348 349 350 351 352 353 354 355 356 357 358 359 360 361 362 363 364 365 366 367
g path_000023
l 368 369 370
g path_000024
l 371 372 373 374 375 376
g path_000025
l 379 380 381 382 383 384 385 386 387 388 389 390 391 392 393 394 395 396 397 398 399 400 401 402 403
g path_000026
l 404 405 406 407 408 409 410 411 412 413 414 415 416 417
g path_000027
l 418 419 420 421 422 423 424 425 426 427 428 429 430 431 432 433 434 435 436 437 438 439 440 441
g path_000028
l 442 443 444 445 446 447
g path_000029
l 448 449 450 451 452 453 454 455 456
g path_000030
l 458 459 460 461 462 463 464 465 466 467 468 469
g path_000031
l 470 471 472 473 474 475 476 477
g path_000032
l 478 479 480 481 482 483
g path_000033
l 484 485 486 487 488 489 490 491 492 493 494 495 496 497 498 499 500
g path_000034
l 501 502 503 504 505 506 507 508 509
g path_000035
l 512 513 514 515 516 517 518 519 520 521 522 523 524
g path_000036
l 525 526 527 528 529 530 531 532 533
g path_000037
l 535 536
g path_000038
l 537 538 539 540 541 542
g path_000039
l 543 544 545 546 547 548 549 550 551 552 553 554 555 556 557 558 559 560 561 562 563 564 565
g path_000040
l 566 567 568 569 570 571 572 573 574 575 576 577 578 579
g path_000041
l 580 581
g path_000042
l 582 583 584 585 586 587 588 589 590 591 592 593 594 595 596 597 598 599 600
g path_000043
l 601 602 603 604 605 606 607
g path_000044
l 609 610 611 612 613 614 615 616 617 618 619 620 621 622 623
g path_000045
l 624 625 626 627
g path_000046
l 628 629 630 631 632 633 634 635 636 637 638 639
g path_000047
l 640 641 642 643 644 645 646 647 648 649
g path_000048
l 650 651 652 653 654 655 656 657 658 659 660 661 662 663 664 665 666 667 668 669 670 671 672 673 674 675 676 677 678 679 680 681
g path_000049
l 682 683 684 685 686 687 688 689
g path_000050
l 691 692 693 694 695 696 697 698 699 700 701 702 703 704 705 706 707 708 709 710 711 712 713 714 715 716 717 718 719 720 721 722 723 724 725 726 727 728 729 730 731 732 733 734 735 736 737 738 739 740 741 742 743 744 745 746 747 748 749 750 751 752 753 754 755 756 757 758 759 760
g path_000051
l 761 762 763 764 765 766 767 768 769 770
g path_000052
l 771 772 773 774 775 776 777 778 779 780
g path_000053
l 781 782 783 784 785 786 787 788 789 790 791 792
g path_000054
l 793 794 795 796 797 798 799 800
g path_000055
l 801 802 803 804 805 806 807
g path_000056
l 808 809 810 811 812
g path_000057
l 813 814 815 816 817 818 819 820 821
g path_000058
l 822 823 824 825 826 827 828 829 830 831 832
g path_000059
l 833 834 835 836
g path_000060
l 837 838 839
g path_000061
l 840 841 842 843 844 845
g path_000062
l 846 847 848 849 850 851 852 853 854 855 856 857 858 859
g path_000063
l 860 861 862 863 864 865 866 867 868 869 870 871
g path_000064
l 872 873 874 875 876 877 878 879 880 881 882 883 884 885
g path_000065
l 886 887 888 889 890 891 892 893 894 895 896 897 898 899 900 901 902 903 904 905
g path_000066
l 906 907 908 909 910 911 912 913
g path_000067
l 914 915 916 917 918 919 920 921 922 923 924 925 926 927 928 929 930 931 932 933 934 935 936 937 938 939 940 941 942 943 944 945 946 947 948 949 950 951 952 953 954 955 956 957 958 959 960 961 962 963 964 965 966 967 968 969
g path_000068
l 970 971 972 973 974 975 976 977 978 979 980
g path_000069
l 981 982 983 984 985 986 987 988 989 990 991 992 993 994 995 996 997 998 999 1000 1001 1002 1003 1004 1005 1006 1007 1008 1009 1010 1011 1012 1013 1014 1015 1016 1017 1018 1019 1020 1021 1022 1023 1024 1025 1026 1027 1028 1029 1030 1031 1032 1033 1034 1035 1036
g path_000070
l 1037 1038 1039 1040 1041 1042 1043 1044 1045 1046 1047 1048 1049 1050
g path_000071
l 1051 1052 1053 1054 1055 1056 1057 1058 1059 1060 1061
g path_000072
l 1064 1065 1066 1067 1068 1069 1070 1071 1072 1073 1074 1075 1076
g path_000073
l 1079 1080 1081 1082 1083 1084
g path_000074
l 1087 1088 1089 1090 1091 1092 1093 1094 1095 1096 1097
g path_000075
l 1098 1099 1100 1101 1102 1103 1104 1105 1106 1107
g path_000076
l 1108 1109 1110 1111 1112 1113 1114 1115 1116 1117 1118
g path_000077
l 1119 1120 1121 1122 1123 1124 1125 1126 1127 1128 1129 1130 1131 1132 1133 1134 1135 1136 1137 1138 1139 1140 1141
g path_000078
l 1142 1143 1144
g path_000079
l 1145 1146 1147 1148 1149 1150
g path_000080
l 1151 1152 1153 1154 1155 1156 1157 1158 1159 1160 1161 1162 1163 1164 1165 1166 1167 1168 1169 1170 1171
g path_000081
l 1172 1173 1174 1175 1176
g path_000082
l 1177 1178 1179 1180 1181 1182 1183
g path_000083
l 1190 1199 1198 1197
g path_000084
l 1191 1192 1193 1194
g path_000085
l 1195 1196
g path_000086
l 1204 1203 1202 1201 1200 1220 1219
g path_000087
l 1205 1206 1207
g path_000088
l 1208 1209 1210
g path_000089
l 1211 1212 1213 1214 1215 1216 1217 1218
