# Fixed world centers; Z up; paths immutable
v -0.0616430156 0.654401004 1.04583848
v -0.0367752537 0.658571899 1.04547489
v -0.0236808024 0.657643378 1.0466578
v -0.0252281316 0.650517762 1.0460844
v -0.0223496798 0.645453334 1.04310989
v -0.002206465 0.651033878 1.04243886
v 0.00570559176 0.647984266 1.0430131
v 0.00632143347 0.64197576 1.03977895
v 0.00325346412 0.63759172 1.03627956
v 0.0108064245 0.63799417 1.03117907
v 0.016981028 0.637803674 1.02591777
v 0.0471989922 0.647938907 1.02668941
v 0.0148666417 0.630933166 1.01645052
v 0.067010805 0.65090096 1.01730216
v 0.0737650916 0.650842786 1.0151062
v 0.071614325 0.643497944 1.01439345
v 0.0794418976 0.644096375 1.00946033
v 0.0828134716 0.642558634 1.00681758
v 0.0909685418 0.643315971 1.00195348
v 0.0934353098 0.641382635 0.999192476
v 0.0772677287 0.637734711 0.991352558
v 0.100019827 0.64481473 0.991469979
v 0.115916364 0.645857215 0.987542689
v 0.122703612 0.642689764 0.985197365
v 0.12857458 0.642306089 0.982954144
v 0.143682525 0.646095932 0.982083499
v 0.155435234 0.645385802 0.977652311
v 0.161338732 0.645053267 0.975451291
v 0.170835167 0.64335525 0.970717251
v 0.173262849 0.64145261 0.967999995
v 0.181053534 0.642006516 0.966114104
v 0.189196065 0.639724255 0.961207032
v 0.191616759 0.637827039 0.958497643
v 0.205563158 0.64140445 0.954784811
v 0.209297135 0.640126109 0.952298105
v 0.215582326 0.637027383 0.947139859
v 0.217992127 0.63513875 0.94444263
v 0.227904171 0.636898279 0.940151632
v 0.230308563 0.635013819 0.937460482
v 0.236338213 0.631818891 0.932285011
v 0.245979667 0.633485436 0.927997649
v 0.24837786 0.631605864 0.925313413
v 0.251446843 0.630043626 0.922745645
v 0.256426871 0.629526258 0.917680621
v 0.263431042 0.629974008 0.912982047
v 0.265824199 0.628098369 0.910303473
v 0.289879203 0.636692941 0.908704817
v 0.292255282 0.634830654 0.906045377
v 0.299744219 0.63242054 0.901229739
v 0.305473298 0.632174909 0.899193406
v 0.315614611 0.63106811 0.894895971
v 0.310759872 0.62558794 0.893703163
v 0.32035175 0.624228954 0.88931179
v 0.323984802 0.622990131 0.886902511
v 0.336283743 0.626111567 0.883352935
v 0.338821948 0.624350131 0.880746901
v 0.347103417 0.622404575 0.876163602
v 0.350311399 0.6209777 0.873694122
v 0.360040605 0.622891665 0.86972028
v 0.36325562 0.621477962 0.867263019
v 0.368428022 0.618030906 0.862099826
v 0.372540623 0.620190322 0.860135317
v 0.377940953 0.616866112 0.855028808
v 0.383453041 0.619730771 0.853367686
v 0.387697905 0.615840375 0.848034203
v 0.393830925 0.616019547 0.843413353
v 0.396170497 0.614185929 0.840794742
v 0.399671227 0.613046587 0.835626245
v 0.403435886 0.61505419 0.83363694
v 0.407295913 0.614100218 0.828554332
v 0.409279227 0.612090349 0.825862408
v 0.41269359 0.610911965 0.820684493
v 0.415982783 0.609670401 0.815479815
v 0.41920048 0.608392656 0.810259521
v 0.422178119 0.610014319 0.808127522
v 0.425228536 0.608653486 0.802873909
v 0.426419735 0.606238604 0.799999058
v 0.429303437 0.604790688 0.794703782
v 0.43223235 0.603365362 0.789417803
v 0.434155643 0.604554713 0.784246504
v 0.435547054 0.602237761 0.781408727
v 0.437878817 0.603637755 0.776334286
v 0.439466894 0.601519823 0.770722926
v 0.440533638 0.599030912 0.767799377
v 0.442672193 0.600332558 0.762676716
v 0.443961501 0.598053873 0.756977975
v 0.443377525 0.59794575 0.751178324
v 0.445719093 0.596110582 0.748557508
v 0.447400928 0.597176313 0.743315756
v 0.450295657 0.595724344 0.738001049
v 0.449272633 0.592229664 0.731682181
v 0.450957209 0.593297243 0.726431847
v 0.452685744 0.59123069 0.720801711
v 0.453370899 0.591682434 0.718133986
v 0.451277167 0.590777338 0.711885035
v 0.452582449 0.588482022 0.706122577
v 0.452795058 0.588779986 0.700462878
v 0.454327732 0.586505771 0.697608709
v 0.455709487 0.587415159 0.692256212
v 0.455360502 0.584242046 0.686017096
v 0.457358122 0.585474849 0.680824757
v 0.458746314 0.586387634 0.675464571
v 0.45911172 0.583583117 0.669394374
v 0.455563188 0.581898034 0.662634671
v 0.453391999 0.577653587 0.658704817
v 0.455465645 0.578927994 0.653510451
v 0.457168043 0.57681036 0.647774696
v -0.563473105 0.0332429707 0.349767298
v -0.557900667 0.0273938123 0.350170612
v -0.57418102 0.00987672154 0.344251573
v -0.595301986 -0.0104494942 0.340949595
v -0.580594361 -0.0114671113 0.343978345
v -0.597958744 -0.0254205856 0.342389405
v -0.580578506 -0.0249690022 0.346180171
v -0.598855317 -0.0439922176 0.343734503
v -0.580233455 -0.0428175107 0.347874552
v -0.600279391 -0.0629324168 0.34493506
v -0.588503718 -0.0654898137 0.347097874
v -0.585818529 -0.0730525777 0.346649051
v -0.574533224 -0.0712182 0.345245659
v -0.574555993 -0.0802826285 0.344012797
v -0.567512453 -0.0853194445 0.340777546
v -0.559627235 -0.0853410512 0.33841151
v -0.554193795 -0.0912655592 0.334716767
v -0.557596982 -0.0975658596 0.324985474
v -0.557435572 -0.101945288 0.320343882
v -0.553763628 -0.104260728 0.312676549
v -0.538505316 -0.0954420194 0.309140086
v -0.537100613 -0.0944878832 0.301451832
v -0.539802551 -0.0958644599 0.292502999
v -0.539546609 -0.0910125151 0.285096675
v -0.538599491 -0.0903960913 0.281318992
v -0.543279588 -0.0883327872 0.272376865
v -0.547362208 -0.0813697278 0.264267027
v -0.548296273 -0.0772625878 0.260556519
v -0.549230397 -0.0731554553 0.256846011
v -0.553701103 -0.0663922876 0.248601153
v -0.552509725 -0.0656373128 0.244888052
v -0.552253067 -0.0607723407 0.237461835
v -0.551996469 -0.0559073687 0.230035633
v -0.554053724 -0.0568614677 0.221171528
v -0.55281198 -0.0559844635 0.213363543
v -0.552150011 -0.0554290377 0.205360219
v -0.549762607 -0.0539161302 0.197919458
v -0.547375262 -0.052403219 0.190478697
v -0.551577151 -0.05919246 0.18424505
v -0.552425861 -0.0594781972 0.17569977
v -0.550217927 -0.0626262128 0.167451084
v -0.547822177 -0.0611079857 0.159984186
v -0.549829185 -0.0666141808 0.150272503
v -0.549679935 -0.0664402694 0.146170691
v -0.547279298 -0.0649189502 0.138688579
v -0.550689995 -0.0712264404 0.128430858
v -0.552391291 -0.076594606 0.118735105
v -0.551072001 -0.0802809894 0.110077642
v -0.54986608 -0.0795167685 0.106319055
v -0.548250079 -0.0830437839 0.0977481306
v -0.55131793 -0.0892196745 0.0874770805
v -0.543327808 -0.0846288204 0.0861557424
v -0.548609138 -0.0920657888 0.0750506073
v -0.548632741 -0.0966298506 0.0700400099
v -0.556766152 -0.105725467 0.0578169934
v -0.553494513 -0.108364068 0.0497481748
v -0.567132533 -0.120722897 0.0396399871
v -0.564156234 -0.123555675 0.0314099751
v -0.561799645 -0.126822025 0.027208548
v -0.55700314 -0.133314595 0.0188285913
v -0.556598485 -0.137713343 0.013878813
v -0.5684008 -0.153831542 -0.000860477972
v -0.566958368 -0.157666549 -0.00545459474
v -0.560709 -0.163391799 -0.0133607825
v -0.557280958 -0.166078508 -0.0171976443
v -0.553852916 -0.168765217 -0.0210345071
v -0.549524963 -0.175623789 -0.029697869
v -0.553419054 -0.182624415 -0.0364147052
v 0.442322165 0.396620303 0.350301713
v 0.447848111 0.39287281 0.351205915
v 0.440743864 0.381604433 0.347118288
v 0.448793322 0.379359514 0.349019885
v 0.447892636 0.375259429 0.351212293
v 0.451838017 0.370539218 0.35467875
v 0.447002232 0.364055336 0.355326086
v 0.448011577 0.357549638 0.357639968
v 0.450397968 0.351876199 0.360495389
v 0.446076661 0.345661402 0.361363232
v 0.445994675 0.33846125 0.363258749
v 0.454308003 0.336435467 0.365234345
v 0.447862238 0.328873366 0.365282238
v 0.456274331 0.326923162 0.367293
v 0.450230211 0.315991104 0.366867274
v 0.457132161 0.313115507 0.368286282
v 0.454696596 0.30439201 0.369270802
v 0.456566185 0.301965117 0.369363159
v 0.460254341 0.297080934 0.369528323
v 0.456830651 0.287688047 0.370131135
v 0.460396022 0.282713681 0.370245844
v 0.460815609 0.275728524 0.369133234
v 0.461473644 0.268889278 0.371330589
v 0.464580238 0.263609946 0.371264428
v 0.465117157 0.256678164 0.373416394
v 0.467485607 0.254564553 0.37370041
v 0.469836265 0.248788014 0.373338848
v 0.470434099 0.241859347 0.372292072
v 0.471035689 0.234940216 0.374471754
v 0.473933965 0.229502991 0.374321163
v 0.467863351 0.21814777 0.373904079
v 0.470396399 0.216135994 0.37424922
v 0.474457234 0.211449534 0.374548495
v 0.469310701 0.200637043 0.374496311
v 0.473696232 0.19615452 0.374918789
v 0.477718472 0.191432774 0.37520048
v 0.474357009 0.181752473 0.375846356
v 0.477797151 0.17662482 0.375898361
v 0.479865551 0.170560896 0.37541461
v 0.482768476 0.165062442 0.375256062
v 0.478687972 0.158560202 0.37626943
v 0.482000142 0.153328001 0.376268476
v 0.483262062 0.146675348 0.375465602
v 0.483597398 0.139366671 0.374297887
v 0.487281889 0.134380385 0.374440491
v 0.483466983 0.124200389 0.374911487
v 0.493501902 0.127391875 0.374927372
v 0.4840931 0.11324314 0.373199672
v 0.495486796 0.113622129 0.373095155
v 0.495557874 0.109869741 0.372468174
v 0.498503149 0.104348712 0.372317731
v 0.497931361 0.0963095725 0.370777667
v 0.492178768 0.084527351 0.367184728
v 0.496564925 0.0799220428 0.364307672
v 0.50114882 0.075545013 0.364801168
v 0.504921377 0.0704982281 0.361681551
v 0.494376093 0.0550901741 0.356127441
v 0.477274776 0.0347988158 0.347934157
v 0.483276099 0.031381458 0.348983139
v 0.494424313 0.0317798555 0.352100909
v 0.498221815 0.0305812452 0.349626482
v 0.507528365 0.0295689497 0.348703235
v 0.494253814 0.0118510406 0.341961384
v 0.49763906 0.00650906563 0.341961384
v 0.503329873 0.00290007843 0.342897922
v 0.503689408 -0.00471832417 0.341668457
v 0.497831881 -0.0129824346 0.341946721
v 0.504102468 -0.0161561314 0.343115121
v 0.496109128 -0.0300587583 0.341844916
v 0.508722067 -0.0283869188 0.345583946
v 0.501963556 -0.0414065421 0.34481743
v 0.511063814 -0.0423877463 0.347128958
v 0.499699652 -0.0550232753 0.345192581
v 0.502768934 -0.0606737286 0.345053554
v 0.496321797 -0.0735933855 0.344431341
v 0.50664109 -0.0697237998 0.344547212
v 0.50601244 -0.0782760754 0.342903316
v 0.507482886 -0.0852034166 0.342109799
v 0.52464211 -0.0800636485 0.34098199
v 0.527352273 -0.0859912485 0.340695888
v 0.531289995 -0.0870599151 0.338247538
v 0.537172139 -0.0906176493 0.335903466
v 0.538738906 -0.0935683176 0.332478374
v 0.541746616 -0.0955285579 0.326278508
v 0.545091391 -0.0972205698 0.320217222
v 0.548463523 -0.0946778059 0.318264037
v 0.546883523 -0.10032244 0.310112923
v 0.553469896 -0.0953554511 0.306158036
v 0.552950919 -0.0960962549 0.299168319
v 0.554819107 -0.0949193761 0.293199927
v 0.554070115 -0.0916259959 0.290224582
v 0.550847411 -0.0864175186 0.283521742
v 0.557860553 -0.0769299194 0.283937573
v 0.55711323 -0.0736440942 0.280969054
v 0.557318389 -0.0697546974 0.275032014
v 0.555823803 -0.0631830469 0.269094974
v 0.55507654 -0.0598972291 0.266126454
v 0.554329216 -0.0566114038 0.263157934
v 0.552668273 -0.0540449955 0.259782463
v 0.552873492 -0.0501542389 0.253843367
v 0.553093314 -0.046252057 0.247910827
v 0.551971972 -0.0472756475 0.244005233
v 0.552691281 -0.0429793485 0.238294587
v 0.554597974 -0.041771058 0.232352003
v 0.55473417 -0.0419498459 0.225597113
v 0.554921389 -0.0420889668 0.218856603
v 0.550243855 -0.0460406877 0.209849954
v 0.543236673 -0.0518197156 0.199721992
v 0.545157194 -0.0506026708 0.193736345
v -0.0885476544 -0.557751775 -0.114153139
v -0.0988110304 -0.570885301 -0.120011725
v -0.0826767609 -0.56843245 -0.118684821
v -0.154682666 -0.635776043 -0.154933304
v -0.0751059055 -0.577775359 -0.122413464
v -0.051622998 -0.569328845 -0.117502317
v -0.0362185314 -0.567252934 -0.116404988
v -0.0912228301 -0.62165314 -0.144919947
v -0.0522329845 -0.60058856 -0.132492274
v -0.104228668 -0.64782685 -0.158673272
v -0.0901908353 -0.646976888 -0.158328459
v -0.0746298805 -0.644827425 -0.157207325
v -0.0135133397 -0.600169301 -0.132705167
v -0.0626764074 -0.650728703 -0.158865437
v -0.0517383143 -0.652266502 -0.159946963
v -0.0406551212 -0.648495913 -0.159877479
v -0.0290896054 -0.649442971 -0.160601705
v -0.0217537824 -0.653636217 -0.159082249
v -0.0110071674 -0.65005523 -0.159118444
v -0.000496713736 -0.651782393 -0.160310298
v 0.00881225523 -0.649350941 -0.161019176
v 0.0246192794 -0.646549225 -0.159501866
v 0.0390764959 -0.644821346 -0.158624947
v 0.0507437102 -0.645404577 -0.159127802
v 0.0528492071 -0.648727119 -0.159127802
v 0.0740808025 -0.641340375 -0.158982158
v 0.0831321105 -0.638949513 -0.159674585
v 0.0960099921 -0.638337612 -0.159451053
v 0.106136166 -0.640051007 -0.160620078
v 0.119944677 -0.633463025 -0.158777595
v 0.124913983 -0.634502351 -0.161502659
v 0.137463659 -0.634014964 -0.161341965
v 0.153112218 -0.625714779 -0.158441156
v 0.180604279 -0.612315416 -0.154519111
v 0.183892399 -0.614737034 -0.158045068
v 0.1954142 -0.615221918 -0.16245757
v 0.202240154 -0.614510298 -0.164080143
v 0.217738509 -0.611123443 -0.162124947
v 0.231541544 -0.604171395 -0.159946755
v 0.241695881 -0.60542208 -0.160799146
v 0.251637548 -0.601835549 -0.16064848
v 0.269339383 -0.591571987 -0.160368234
v 0.279191613 -0.592969894 -0.161296129
v 0.286859691 -0.591336787 -0.162303135
v 0.308277994 -0.582520902 -0.160899118
v 0.317505091 -0.579414308 -0.16097948
v 0.326918006 -0.576116562 -0.160934031
v 0.342926055 -0.572020292 -0.162355408
v 0.352689594 -0.568337798 -0.162048608
v 0.365548551 -0.566701949 -0.161080047
v 0.379716724 -0.559221923 -0.162267879
v 0.381175518 -0.562776685 -0.162553087
v 0.400467813 -0.555392027 -0.161857307
v 0.409998894 -0.551769316 -0.161538884
v 0.424537599 -0.548658252 -0.163444966
v 0.434147745 -0.544897139 -0.163016617
v 0.445646137 -0.539347768 -0.161464885
v 0.460391641 -0.535889804 -0.163098365
v 0.463643551 -0.538007855 -0.166311607
v 0.48024419 -0.527887523 -0.16563265
v 0.49142307 -0.522500932 -0.164121449
v 0.504122496 -0.520783424 -0.166767687
v 0.517139614 -0.513911664 -0.168032259
v 0.522266805 -0.514172196 -0.170043275
v 0.537399232 -0.500448048 -0.168799669
v 0.54375267 -0.499505341 -0.170026898
v 0.551087797 -0.493185282 -0.173424989
v 0.562958777 -0.482535273 -0.174012601
v 0.569277406 -0.472444415 -0.1768094
v 0.567967892 -0.469626278 -0.184288099
v 0.567517817 -0.470386952 -0.188483074
v 0.556831121 -0.485980272 -0.204148486
v 0.55894053 -0.484643489 -0.210722953
v 0.561049998 -0.483306736 -0.21729742
v 0.563159406 -0.481969953 -0.223871887
v 0.565268874 -0.480633199 -0.230446354
v 0.567378283 -0.479296416 -0.23702082
v 0.568283319 -0.479109496 -0.244367212
v 0.563628495 -0.484232366 -0.255301028
v 0.570052326 -0.474005312 -0.257889867
v 0.54810971 -0.500078321 -0.277314812
v 0.52344662 -0.534078836 -0.303920448
v 0.52537024 -0.537114322 -0.303920448
v 0.539921641 -0.533569753 -0.305023402
v 0.54732883 -0.53164494 -0.30546242
v 0.562127948 -0.522898078 -0.305033147
v 0.565250814 -0.525085449 -0.308263987
v 0.564180017 -0.531716466 -0.318338901
v 0.586773634 -0.519768059 -0.309801728
v 0.596775055 -0.519666851 -0.305632651
v 0.600840449 -0.516415 -0.310931057
v 0.599574029 -0.513551831 -0.318548918
v 0.599384367 -0.514104486 -0.322702169
v 0.580384791 -0.528579772 -0.342419475
v 0.600573063 -0.504362881 -0.331397295
v 0.604116499 -0.501629233 -0.337029159
v 0.607451916 -0.499098033 -0.342795432
v 0.586869597 -0.519939125 -0.365104854
v 0.581766367 -0.525662124 -0.376796812
v 0.583908975 -0.52430433 -0.383474708
v 0.587963521 -0.525963485 -0.390152633
v 0.59010613 -0.524605691 -0.396830529
v 0.592248738 -0.523247898 -0.403508455
v 0.599433839 -0.516944408 -0.406599104
v 0.581443489 -0.539886057 -0.424892575
v 0.593634546 -0.52865386 -0.424419343
v 0.597698271 -0.53031677 -0.431112468
v 0.601260245 -0.527561784 -0.436782062
v 0.599237382 -0.530312061 -0.446501672
v 0.595294058 -0.534958839 -0.457649946
v 0.603040814 -0.533000886 -0.461673826
v 0.605487347 -0.531345904 -0.468163192
v 0.607638896 -0.529982448 -0.474868953
v 0.607750297 -0.525708258 -0.481664121
v 0.618403673 -0.510664582 -0.476463974
v 0.619036853 -0.510794818 -0.484267533
v 0.613654792 -0.511567056 -0.491005331
v 0.605955839 -0.514974773 -0.503651798
v 0.606159449 -0.510605097 -0.510385692
v 0.605314553 -0.506890059 -0.51374203
v 0.608081877 -0.504924178 -0.519989669
v 0.608446121 -0.505312443 -0.528062344
v 0.610600889 -0.50394696 -0.534778059
v 0.614067376 -0.496382892 -0.539012909
v 0.614683032 -0.496522784 -0.54690361
v 0.615822673 -0.496150583 -0.554399014
v 0.61259824 -0.494759887 -0.559598982
v 0.611079037 -0.496986181 -0.569178045
v 0.608391762 -0.500356734 -0.579693496
v 0.615651429 -0.489080518 -0.580928385
v 0.608024597 -0.49196595 -0.589612126
v 0.604613483 -0.496028244 -0.600747228
v 0.597410977 -0.49883762 -0.613384247
v 0.599585056 -0.497459888 -0.620160162
v 0.599078298 -0.493373513 -0.623272896
v 0.60057956 -0.487706125 -0.629036903
v 0.600813568 -0.48326996 -0.635808587
v 0.595168889 -0.489100069 -0.644594014
v 0.597347319 -0.487719625 -0.65138334
v 0.597581923 -0.483271867 -0.658172667
v 0.597816527 -0.478824139 -0.664962053
v 0.598905742 -0.478133887 -0.668356717
v 0.586587608 -0.49075526 -0.686973333
v 0.588778198 -0.489367068 -0.693800807
v 0.589014173 -0.484894335 -0.700628221
v 0.586774349 -0.487780601 -0.711111784
v 0.590926707 -0.48947981 -0.71795094
v 0.593121052 -0.488089234 -0.724790037
v 0.595315456 -0.486698657 -0.731629193
v 0.597509801 -0.485308081 -0.738468289
v 0.595396399 -0.488087982 -0.74893713
v 0.598456681 -0.490486473 -0.75236237
v 0.600654721 -0.489093572 -0.759212911
v 0.602852702 -0.487700671 -0.766063392
v 0.605050743 -0.48630777 -0.772913933
v 0.603089452 -0.483212829 -0.772913933
v 0.600891411 -0.48460573 -0.766063392
v 0.59783113 -0.482207239 -0.762638152
v 0.595633149 -0.48360014 -0.755787611
v 0.57616812 -0.492372006 -0.768906116
v 0.578379273 -0.490970761 -0.775797725
v 0.580590487 -0.489569515 -0.782689333
v 0.5828017 -0.48816824 -0.789581001
v 0.585880339 -0.490581125 -0.793026805
v 0.588091552 -0.489179879 -0.799918413
v 0.579889119 -0.497839361 -0.815799713
v 0.580397248 -0.4980869 -0.824202657
v 0.584596217 -0.499811828 -0.831130743
v 0.586351097 -0.498856157 -0.838462472
v 0.574221492 -0.516062498 -0.855268478
v 0.584020078 -0.517072856 -0.854623854
v 0.585662842 -0.520171285 -0.850472987
v 0.588493764 -0.527579248 -0.851484179
v 0.591729403 -0.534989595 -0.856605291
v 0.596551299 -0.540449977 -0.855865061
v 0.600765049 -0.546507478 -0.855661154
v 0.610523343 -0.547036648 -0.850538373
v 0.615042388 -0.553580761 -0.858979464
v 0.624830067 -0.548895538 -0.852017939
v 0.622121871 -0.562287986 -0.86245209
v 0.625224531 -0.564719677 -0.865924776
v 0.629441381 -0.566445231 -0.872870088
v 0.631669819 -0.565033078 -0.8798154
v 0.633898199 -0.563620925 -0.886760712
v 0.641885519 -0.551240802 -0.886638999
v 0.644107163 -0.54983294 -0.893563211
v 0.652735054 -0.541946113 -0.894598424
v 0.65692848 -0.543662071 -0.901505172
v 0.667536318 -0.533328176 -0.896168411
v 0.655189753 -0.53601712 -0.90841192
v 0.654320419 -0.532194614 -0.911865234
v 0.648721457 -0.527604878 -0.913386464
v 0.647851586 -0.523779929 -0.916842043
v 0.648015082 -0.5193277 -0.923823297
v 0.645166397 -0.512380183 -0.927278996
v 0.643187702 -0.509257734 -0.927278996
v 0.635350466 -0.507252991 -0.935368955
v 0.605751634 -0.531831503 -0.965548515
v 0.605993629 -0.527243733 -0.972551525
v 0.606235683 -0.522656024 -0.979554594
v 0.60535419 -0.518780231 -0.983056068
v 0.602467775 -0.511740565 -0.986557603
v 0.604371905 -0.505140126 -0.987446129
v 0.608507276 -0.506599009 -0.989993632
v 0.603491366 -0.501268566 -0.990943909
v 0.599485815 -0.494947702 -0.990943909
v 0.594688416 -0.489393651 -0.991685152
v 0.589363039 -0.483971268 -0.988369226
v 0.581547916 -0.480937988 -0.987366855
v 0.573428631 -0.483266264 -0.988491237
v 0.576891243 -0.479219526 -0.97619319
v 0.575059593 -0.480245769 -0.968807459
v 0.576528609 -0.478112429 -0.958398342
v 0.57428509 -0.479534179 -0.951405942
v 0.577725053 -0.470458895 -0.937425852
v 0.584783196 -0.457971007 -0.92023474
v 0.580685675 -0.456487805 -0.917663455
v 0.577583492 -0.454056472 -0.914191306
v 0.571379185 -0.449193835 -0.907247007
v 0.568277001 -0.446762532 -0.903774858
v 0.564060748 -0.445037186 -0.896830559
v 0.552201807 -0.450820386 -0.901122272
v 0.547971487 -0.449089319 -0.894154847
v 0.550190628 -0.441336006 -0.881521583
v 0.553832889 -0.437267393 -0.869432211
v 0.549498975 -0.435990572 -0.867043436
v 0.548689008 -0.436082512 -0.858873963
v 0.543060303 -0.435677469 -0.853166997
v 0.538847744 -0.433953643 -0.846228778
v 0.537734687 -0.434659004 -0.842759669
v 0.540629387 -0.43132481 -0.831436157
v 0.535296738 -0.430647343 -0.82547307
v 0.540289462 -0.425387233 -0.812418997
v 0.538072705 -0.426791996 -0.805510163
v 0.533877969 -0.425075442 -0.79860127
v 0.53276962 -0.425777823 -0.795146823
v 0.530552864 -0.427182585 -0.788237929
v 0.528336108 -0.428587347 -0.781329036
v 0.527146935 -0.429045737 -0.77356708
v 0.525581717 -0.429850787 -0.766122818
v 0.523366392 -0.431254685 -0.759218276
v 0.526372433 -0.427853256 -0.748030305
v 0.52826488 -0.425478935 -0.737786472
v 0.526057303 -0.426877886 -0.730906129
v 0.523849726 -0.428276867 -0.724025786
v 0.538913131 -0.418688655 -0.704783618
v 0.536718249 -0.420079559 -0.697942853
v 0.534523368 -0.421470463 -0.691102087
v 0.532328486 -0.422861397 -0.684261322
v 0.530133605 -0.424252301 -0.677420557
v 0.521819472 -0.431273073 -0.675424337
v 0.5336079 -0.424681962 -0.659079373
v 0.531417906 -0.426069766 -0.652253866
v 0.529227912 -0.427457601 -0.6454283
v 0.523351371 -0.432240367 -0.641475916
v 0.521158338 -0.433630109 -0.634640872
v 0.518258214 -0.435670704 -0.628352463
v 0.533565104 -0.426132709 -0.613782585
v 0.521327019 -0.436786443 -0.614713371
v 0.51777637 -0.439428359 -0.608929455
v 0.512537897 -0.443624854 -0.604423523
v 0.529067099 -0.432628483 -0.584849775
v 0.520665288 -0.439751506 -0.582762957
v 0.513404548 -0.445818871 -0.579777002
v 0.525562525 -0.439151317 -0.567864954
v 0.523382723 -0.440532684 -0.561071038
v 0.514967561 -0.447674245 -0.558928549
v 0.527422726 -0.440391749 -0.542685091
v 0.518788218 -0.447746217 -0.54068929
v 0.516608357 -0.449127614 -0.533895373
v 0.522313833 -0.443217635 -0.521314383
v 0.53838855 -0.43254897 -0.502614021
v 0.536228418 -0.43391782 -0.495881706
v 0.534068346 -0.435286701 -0.489149362
v 0.518043876 -0.444640577 -0.491027981
v 0.516958952 -0.445328087 -0.487646669
v 0.523891985 -0.438297719 -0.474360168
v 0.529954314 -0.4320755 -0.461751729
v 0.609440565 -0.353434205 -0.395705938
v 0.608129323 -0.345634878 -0.397985697
v 0.613155067 -0.336388677 -0.393095642
v 0.609773695 -0.33080405 -0.40082714
v 0.610722661 -0.325315148 -0.398829699
v 0.608032107 -0.319098324 -0.406068802
v 0.606417954 -0.311620384 -0.408555567
v 0.621336222 -0.293560356 -0.396585435
v 0.62069416 -0.290118873 -0.40364641
v 0.619005322 -0.282773823 -0.406175256
v 0.620952547 -0.276739568 -0.407416523
v 0.619332731 -0.26961723 -0.413851082
v 0.618522823 -0.266056061 -0.417068362
v 0.617712915 -0.262494922 -0.420285612
v 0.620800436 -0.251205236 -0.423312664
v 0.624461651 -0.24370113 -0.423284024
v 0.621819019 -0.23725608 -0.4264898
v 0.623841166 -0.226471633 -0.422365755
v 0.617340744 -0.227914408 -0.429695576
v 0.619372904 -0.217150703 -0.425564408
v 0.62670058 -0.202069774 -0.42154038
v 0.625898421 -0.198542953 -0.424726635
v 0.623271942 -0.192137182 -0.427912861
v 0.623225272 -0.183513552 -0.429223895
v 0.620075822 -0.182005063 -0.434116066
v 0.621746778 -0.171927214 -0.434172034
v 0.62094605 -0.168406636 -0.437352657
v 0.618324161 -0.16201216 -0.44053328
v 0.615702271 -0.155617684 -0.443713874
v 0.619470239 -0.143624067 -0.438309222
v 0.618671834 -0.140113622 -0.441480666
v 0.615039945 -0.134382427 -0.441480666
v 0.612425625 -0.128006399 -0.44465211
v 0.608793676 -0.122275196 -0.44465211
v 0.615697026 -0.107627757 -0.433090597
v 0.613129616 -0.105207652 -0.429749817
v 0.611514211 -0.102003939 -0.425722539
v 0.616622031 -0.0893327743 -0.423306823
v 0.615378141 -0.0907318667 -0.431966603
v 0.614159763 -0.0830862969 -0.430235326
v 0.610555768 -0.0773991346 -0.430235326
v 0.606951773 -0.0717119798 -0.430235326
v 0.603347838 -0.066024825 -0.430235326
v 0.599743843 -0.0603376664 -0.430235326
v 0.60067898 -0.0508468226 -0.423103303
v 0.601388931 -0.0417377017 -0.420015126
v 0.600897849 -0.0336108245 -0.417795628
v 0.60046345 -0.0254595373 -0.415541768
v 0.596881866 -0.0198077131 -0.415541768
v 0.600659609 -0.0124525661 -0.407733709
v 0.593091011 -0.00994268432 -0.410575747
v 0.589512944 -0.00429649558 -0.410575747
v 0.583342791 -0.000662238221 -0.412414253
v 0.579761147 0.00498958584 -0.412414253
v 0.594107926 0.0245761015 -0.395924121
v 0.590004444 0.0297669936 -0.3963103
v 0.586401284 0.0353432596 -0.396343261
v 0.582844913 0.0409553424 -0.396343261
v 0.582350373 0.0490071811 -0.390394807
v 0.580213964 0.0515362583 -0.390647501
v 0.574114621 0.055224333 -0.392428726
v 0.5705598 0.0608339272 -0.392428726
v 0.566251159 0.0658814386 -0.39295426
v 0.562335432 0.0712254271 -0.393204838
v 0.558779061 0.0768374056 -0.393204838
v 0.567424119 0.0913306549 -0.388513923
v 0.563882947 0.0969187021 -0.388513923
v 0.560341775 0.102506742 -0.388513923
v 0.556800604 0.108094789 -0.388513923
v 0.553259432 0.113682829 -0.388513923
v 0.549718201 0.119270876 -0.388513923
v 0.54518491 0.124230184 -0.385421693
v 0.541643679 0.129818231 -0.385421693
v 0.542640209 0.134663627 -0.379750848
v 0.539104044 0.140243724 -0.379750848
v 0.538412452 0.14783439 -0.377804875
v 0.535914242 0.15413633 -0.377098322
v 0.532499552 0.159789696 -0.377019018
v 0.528968692 0.165361375 -0.377019018
v 0.525437891 0.170933068 -0.377019018
v 0.524646997 0.178399831 -0.375157058
v 0.521119833 0.183965772 -0.375157058
v 0.517592609 0.189531729 -0.375157058
v 0.520372748 0.19940345 -0.370887786
v 0.521813154 0.208326921 -0.367535442
v 0.51893574 0.214299053 -0.367106795
v 0.517143607 0.22099857 -0.365947604
v 0.513634443 0.22653614 -0.365947604
v 0.511991501 0.233320072 -0.364692658
v 0.509751678 0.239696115 -0.363841861
v 0.506918669 0.245672092 -0.363391101
v 0.50131309 0.249792054 -0.368520439
v 0.498327225 0.255670875 -0.368170261
v 0.49671337 0.262442768 -0.36690256
v 0.492294848 0.267363608 -0.371233135
v 0.490541071 0.270131081 -0.371233135
v 0.487033516 0.275666058 -0.371233135
v 0.487537891 0.283780903 -0.368554115
v 0.481001109 0.287358791 -0.37429601
v 0.481514454 0.29545626 -0.37161243
v 0.49361071 0.310879141 -0.361215234
v 0.489446014 0.315945059 -0.365361989
v 0.487622023 0.322487146 -0.364255935
v 0.48685655 0.325852871 -0.367296606
v 0.490139872 0.335572332 -0.362788975
v 0.487906665 0.341836154 -0.365643978
v 0.484166205 0.347151279 -0.365822017
v 0.485085249 0.351547301 -0.367733032
v 0.482586563 0.357641309 -0.370764196
v 0.477428973 0.362087488 -0.371888161
v 0.478352219 0.366474181 -0.37379536
v 0.4807522 0.375544012 -0.373554528
v 0.483064353 0.384533256 -0.373367429
v 0.482304037 0.387876391 -0.376387745
v 0.498820007 0.405392677 -0.370321572
v 0.501384377 0.406964451 -0.372244418
v 0.51718837 0.420235604 -0.36771521
v 0.517394364 0.424141258 -0.373677045
v 0.519307256 0.425353467 -0.37963888
v 0.518556833 0.428653002 -0.382619798
v 0.520469725 0.429865211 -0.388581634
v 0.503499866 0.423556119 -0.406323373
v 0.504011631 0.423935592 -0.413296938
v 0.504219055 0.427868515 -0.419300407
v 0.505182207 0.428478837 -0.422302127
v 0.50710845 0.42969951 -0.428305596
v 0.509034693 0.430920184 -0.434309065
v 0.509242117 0.434853107 -0.440312535
v 0.511168361 0.43607378 -0.446316004
v 0.513094604 0.437294424 -0.452319473
v 0.512338936 0.440617025 -0.455321193
v 0.51426518 0.441837698 -0.461324662
v 0.516191423 0.443058372 -0.467328131
v 0.518117666 0.444279015 -0.4733316
v 0.51832509 0.448211938 -0.47933504
v 0.520251334 0.449432611 -0.485338509
v 0.512284696 0.444829315 -0.498490602
v 0.514218092 0.446054518 -0.504516423
v 0.514426351 0.450002074 -0.510542154
v 0.506310284 0.445326179 -0.523908973
v 0.495003581 0.438777506 -0.539671481
v 0.482421011 0.431480616 -0.556447208
v 0.484381855 0.432723224 -0.562558532
v 0.486342698 0.433965832 -0.568669856
v 0.488303542 0.43520841 -0.574781239
v 0.490264386 0.436451018 -0.580892563
v 0.49222523 0.437693626 -0.587003887
v 0.494186074 0.438936234 -0.593115211
v 0.496146917 0.440178841 -0.599226534
v 0.498107761 0.441421419 -0.605337918
v 0.501818299 0.439903051 -0.611449242
v 0.502798676 0.44052434 -0.614504874
v 0.50475955 0.441766948 -0.620616257
v 0.506720364 0.443009555 -0.626727581
v 0.508681238 0.444252133 -0.632838905
v 0.510642052 0.445494741 -0.638950229
v 0.512602925 0.446737349 -0.645061553
v 0.514563739 0.447979957 -0.651172876
v 0.516524613 0.449222565 -0.65728426
v 0.490369886 0.433934331 -0.68549931
v 0.492351413 0.435190022 -0.691675127
v 0.494332969 0.436445743 -0.697850943
v 0.496314496 0.437701464 -0.704026759
v 0.498296022 0.438957185 -0.710202575
v 0.500277579 0.440212876 -0.716378391
v 0.502259076 0.441468596 -0.722554207
v 0.473381221 0.428458363 -0.752173245
v 0.475384265 0.429727703 -0.758416116
v 0.477387309 0.430997044 -0.764658928
v 0.479390323 0.432266384 -0.770901799
v 0.477232397 0.431096733 -0.780546129
v 0.47923854 0.43236804 -0.786798596
v 0.481244653 0.433639318 -0.793051064
v 0.483250767 0.434910625 -0.799303532
v 0.48525691 0.436181933 -0.80555594
v 0.487263024 0.43745321 -0.811808407
v 0.489269137 0.438724518 -0.818060875
v 0.475238174 0.43059957 -0.837752521
v 0.474446476 0.434080571 -0.840897381
v 0.47646454 0.435359448 -0.847187102
v 0.478482634 0.436638296 -0.853476822
v 0.480500698 0.437917173 -0.859766543
v 0.482518762 0.43919605 -0.866056204
v 0.484536856 0.440474927 -0.872345924
v 0.484754205 0.444595367 -0.878635645
v 0.486772269 0.445874214 -0.884925365
v 0.488790363 0.447153091 -0.891215026
v 0.490808427 0.448431969 -0.897504747
v 0.492826492 0.449710816 -0.903794467
v 0.491764873 0.453087986 -0.911197424
v 0.493783921 0.454367459 -0.917490125
v 0.495279282 0.459230572 -0.922663569
v 0.496288329 0.459870011 -0.92580843
v 0.496505678 0.46399045 -0.93209815
v 0.515697956 0.479052395 -0.921648681
v 0.513635933 0.477920622 -0.92747885
v 0.522711635 0.490950882 -0.924301088
v 0.546441495 0.50842452 -0.905685782
v 0.538745165 0.511757076 -0.917312384
v 0.536050439 0.51409173 -0.922108471
v 0.508185327 0.502176404 -0.949310541
v 0.483294219 0.492089868 -0.977969587
v 0.482499868 0.49558264 -0.981125057
v 0.478886217 0.501285017 -0.981125057
v 0.487704277 0.513844073 -0.966011405
v 0.492138147 0.520225704 -0.964499712
v 0.492354751 0.524331629 -0.9707672
v 0.488315403 0.518333316 -0.980021179
v 0.492130399 0.516772211 -0.986304641
v 0.488428861 0.518631101 -0.992064118
v 0.484835684 0.52431953 -0.99205637
v 0.481233925 0.53000313 -0.99205637
v 0.475293905 0.534319401 -0.990099907
v 0.46951443 0.534901559 -0.989601374
v 0.462474197 0.534714997 -0.986158133
v 0.468824893 0.537996233 -0.972433567
v 0.466928929 0.536783993 -0.966037929
v 0.500632167 0.558745682 -0.926764369
v 0.497861922 0.560916841 -0.923663735
v 0.491970092 0.565163314 -0.921740234
v 0.485397935 0.565290213 -0.921953499
v 0.472567916 0.565939665 -0.930031896
v 0.473556548 0.573899865 -0.922086418
v 0.471820056 0.576632321 -0.918071866
v 0.474397093 0.577797472 -0.907903552
v 0.476834238 0.578889012 -0.897882402
v 0.466169745 0.576770544 -0.897599518
v 0.46417582 0.575506985 -0.891385078
v 0.458300471 0.572185099 -0.888475358
v 0.456303716 0.570919752 -0.882252038
v 0.45708704 0.567475498 -0.879140377
v 0.456491679 0.563195765 -0.873238564
v 0.45716098 0.555922627 -0.87172848
v 0.459728152 0.549661577 -0.868614256
v 0.425406098 0.527247667 -0.89511776
v 0.417916685 0.523011804 -0.893403888
v 0.418712348 0.519513309 -0.890243232
v 0.414025992 0.516787767 -0.886146665
v 0.40906024 0.513910472 -0.882267773
v 0.410745382 0.510795474 -0.874350071
v 0.408448577 0.509364009 -0.868240654
v 0.402655035 0.50603205 -0.865017891
v 0.397992164 0.503314197 -0.860842764
v 0.408662945 0.505182624 -0.849553883
v 0.40663439 0.503897071 -0.84323144
v 0.400685966 0.50047487 -0.840109229
v 0.398240447 0.498961806 -0.83411473
v 0.393870652 0.496399522 -0.82967788
v 0.391647428 0.495007426 -0.82349354
v 0.389613867 0.493718743 -0.81715554
v 0.387580276 0.492430061 -0.81081754
v 0.397114307 0.493611485 -0.796679378
v 0.394116104 0.491795838 -0.791137815
v 0.39306134 0.491043091 -0.784047544
v 0.398277849 0.493721187 -0.77200067
v 0.4038634 0.496602058 -0.759703934
v 0.407862395 0.498615772 -0.748696625
v 0.385274827 0.489921123 -0.757119536
v 0.388389409 0.491443723 -0.746802568
v 0.400033623 0.49762404 -0.729890406
v 0.398022264 0.496349454 -0.723621666
v 0.402096093 0.498398036 -0.712661326
v 0.411230445 0.503211379 -0.697847724
v 0.409231514 0.501944661 -0.691617668
v 0.394284397 0.497408479 -0.693896174
v 0.404449493 0.502859175 -0.682272673
v 0.402450562 0.501592457 -0.676042616
v 0.428385139 0.515552282 -0.648719132
v 0.40231818 0.504945576 -0.659335196
v 0.426834702 0.518100202 -0.633258224
v 0.455891937 0.533728063 -0.603939176
v 0.422107846 0.519004166 -0.624020994
v 0.438465536 0.527701259 -0.604264677
v 0.423747092 0.523263454 -0.60627383
v 0.464422971 0.545105934 -0.568755805
v 0.454322249 0.543135345 -0.567418456
v 0.461830407 0.550670564 -0.553197503
v 0.455383509 0.547104359 -0.55416739
v 0.453442812 0.545874536 -0.54811883
v 0.446001858 0.54535085 -0.544791281
v 0.44232443 0.546855688 -0.538734376
v 0.441352755 0.546239972 -0.535705924
v 0.437675297 0.547744811 -0.529649079
v 0.434232265 0.545710504 -0.524659336
v 0.413510323 0.538115025 -0.530673027
v 0.409808069 0.539630055 -0.524575293
v 0.410125047 0.53970021 -0.520614684
v 0.408211678 0.542164445 -0.513267338
v 0.415001571 0.545574605 -0.501071692
v 0.408571988 0.54562825 -0.496906459
v 0.410341024 0.546465874 -0.491964072
v 0.406654567 0.547974408 -0.485892296
v 0.405622095 0.547224462 -0.479190648
v 0.403674603 0.545990348 -0.473120868
v 0.400963098 0.548115432 -0.470086008
v 0.399015576 0.546881318 -0.464016259
v 0.398892403 0.546610713 -0.456709296
v 0.394244105 0.547609031 -0.451295286
v 0.398530155 0.549660087 -0.441036016
v 0.397570491 0.548947155 -0.43432337
v 0.393559933 0.550274193 -0.428495169
v 0.391617835 0.549043477 -0.422442228
v 0.390012145 0.547989666 -0.416166782
v 0.388070285 0.546759129 -0.410114586
v 0.390326679 0.547737479 -0.401307255
v 0.38838774 0.546508729 -0.395264149
v 0.386448771 0.54527998 -0.389221013
v 0.385016114 0.544317782 -0.382849634
v 0.38486138 0.544028401 -0.375655591
v 0.382356197 0.542501688 -0.36998263
v 0.378428578 0.540225863 -0.365217924
v 0.374150574 0.537765205 -0.360666454
v 0.362966448 0.535426438 -0.363039345
v 0.354743153 0.534554124 -0.359847546
v 0.332095116 0.526257753 -0.369400233
v 0.321916044 0.524405956 -0.36734435
v 0.313936532 0.527402878 -0.362774163
v 0.300436974 0.524094462 -0.370112538
v 0.293086588 0.527460456 -0.365094632
v 0.290331304 0.529619873 -0.362010747
v 0.272783041 0.527899563 -0.366977006
v 0.270352691 0.530363441 -0.367382497
v 0.263975173 0.534275532 -0.361702174
v 0.24770093 0.533316493 -0.365785003
v 0.237200722 0.531732082 -0.371119738
v 0.229117587 0.534977555 -0.37013799
v 0.228123888 0.538065612 -0.36591959
v 0.22174485 0.542177022 -0.363888562
v 0.214460611 0.545848608 -0.362397343
v 0.190638334 0.541377544 -0.370855987
v 0.185634941 0.542647183 -0.372782707
v 0.181015193 0.547701001 -0.369631559
v 0.17958869 0.550585747 -0.365649372
v 0.17358005 0.554961383 -0.363329232
v 0.168960318 0.560015202 -0.360178053
v 0.167155981 0.562862515 -0.360178053
v 0.155336365 0.564305961 -0.357532471
v 0.126133054 0.557637513 -0.368846953
v 0.115182422 0.556166887 -0.374219358
v 0.116302289 0.563872337 -0.363838673
v 0.107649267 0.563522995 -0.367833942
v 0.107026376 0.570384562 -0.358491272
v 0.0972635895 0.573114753 -0.358255833
v 0.0914410353 0.57396394 -0.356781006
v 0.0542007722 0.563969493 -0.372353196
v 0.0535751544 0.56727767 -0.367824674
v 0.0437756218 0.570116937 -0.367502093
v 0.0426741876 0.573201656 -0.363248914
v 0.0379252508 0.578194022 -0.356206328
v 0.0288178865 0.577799916 -0.36032933
v 0.000800275942 0.572237849 -0.366416842
v -0.0021120056 0.57452035 -0.363157243
v -0.0248407573 0.571659803 -0.369977564
v -0.0277694259 0.573955178 -0.366699606
v -0.033626765 0.578545809 -0.360143721
v -0.0485091507 0.575508535 -0.363505334
v -0.0614581257 0.576978087 -0.360830486
v -0.0961917564 0.565212667 -0.375044405
v -0.102362067 0.566132843 -0.373470336
v -0.102757655 0.569397807 -0.364808589
v -0.106184453 0.571530104 -0.361726105
v -0.118244603 0.573521018 -0.358379811
v -0.125628367 0.573936105 -0.357424825
v -0.12236692 0.578780055 -0.346807837
v -0.132668644 0.577934802 -0.347404242
v -0.482902706 0.430643171 -0.542822659
v -0.480532706 0.432145029 -0.550209165
v -0.478691608 0.429163367 -0.559032738
v -0.473677993 0.43181172 -0.564982235
v -0.473017782 0.428078324 -0.570120513
v -0.47058183 0.429609209 -0.577477038
v -0.466158092 0.427744746 -0.584904253
v -0.463786393 0.429247707 -0.592296124
v -0.469615281 0.422908336 -0.605441034
v -0.468426079 0.423661947 -0.609147429
v -0.466047645 0.42516917 -0.61656028
v -0.46366924 0.426676393 -0.623973072
v -0.461603791 0.42377004 -0.632765055
v -0.459223777 0.425278276 -0.640182853
v -0.4555161 0.427366585 -0.646842241
v -0.453136951 0.428874254 -0.654257298
v -0.4718889 0.416850418 -0.675074637
v -0.469494522 0.418367773 -0.682537138
v -0.467100143 0.419885099 -0.6899997
v -0.452625662 0.426686913 -0.690412104
v -0.450239211 0.428199232 -0.697849929
v -0.447852761 0.42971155 -0.705287755
v -0.44546631 0.43122384 -0.71272552
v -0.461839229 0.419989407 -0.72811377
v -0.459439814 0.421509951 -0.735591948
v -0.457040399 0.423030466 -0.743070185
v -0.457594842 0.423257798 -0.75232023
v -0.462219447 0.421704501 -0.764036059
v -0.459813446 0.423229218 -0.77153486
v -0.457407445 0.424753904 -0.779033601
v -0.457148314 0.4296664 -0.786532342
v -0.454742312 0.431191117 -0.794031084
v -0.452336311 0.432715803 -0.801529825
v -0.45207718 0.437628299 -0.809028566
v -0.45087418 0.438390642 -0.812777936
v -0.460237056 0.434803963 -0.827573955
v -0.46593824 0.437151283 -0.838805735
v -0.465677828 0.44208774 -0.846341074
v -0.464468956 0.442853808 -0.850108743
v -0.464208573 0.447790295 -0.857644141
v -0.4669438 0.451441765 -0.867065907
v -0.466683209 0.456382304 -0.874607444
v -0.469109058 0.45559451 -0.880679965
v -0.468848169 0.460539967 -0.888229012
v -0.466161966 0.466263384 -0.889690578
v -0.465901375 0.471203923 -0.897232115
v -0.489722878 0.470318556 -0.918802321
v -0.490677834 0.474517465 -0.922595739
v -0.491632789 0.478716373 -0.926389158
v -0.484326571 0.490949452 -0.928046584
v -0.501560748 0.488382578 -0.942319632
v -0.509929001 0.485445797 -0.956910312
v -0.507482886 0.486995906 -0.964533985
v -0.505036771 0.488546014 -0.972157717
v -0.519245803 0.483195603 -0.990677476
v -0.50942564 0.496510357 -0.990629613
v -0.511611223 0.499959201 -0.990629613
v -0.505660355 0.51162219 -0.99308902
v -0.507841289 0.515063703 -0.99308902
v -0.512337744 0.52189219 -0.993177354
v -0.520377696 0.527012825 -0.990974784
v -0.52845794 0.532414377 -0.993402183
v -0.538905501 0.536313355 -0.988131344
v -0.534403265 0.537816048 -0.980596066
v -0.533037364 0.537783265 -0.970505297
v -0.534808934 0.536502182 -0.962453604
v -0.536372721 0.539610624 -0.952874362
v -0.509470344 0.554280102 -0.929692626
v -0.516706467 0.559953392 -0.931553543
v -0.522775948 0.565803409 -0.928114653
v -0.53091538 0.570849717 -0.925987542
v -0.531157076 0.574714899 -0.920221329
v -0.534839511 0.576942325 -0.912096322
v -0.538213611 0.579586744 -0.908319831
v -0.539796829 0.578375697 -0.9002406
v -0.545375288 0.575620294 -0.894658029
v -0.561094284 0.568941593 -0.8953619
v -0.563527882 0.567399442 -0.887777269
v -0.563789964 0.56243068 -0.880192697
v -0.561043739 0.558633804 -0.870758295
v -0.560089827 0.554439545 -0.866968989
v -0.560351729 0.549474776 -0.859390497
v -0.564550817 0.543253899 -0.858750224
v -0.561422884 0.535625219 -0.854955733
v -0.558294952 0.5279966 -0.851161301
v -0.556122243 0.524568081 -0.851161301
v -0.557563066 0.515387952 -0.854697585
v -0.5465042 0.511508226 -0.855133653
v -0.542158484 0.504650593 -0.855133653
v -0.508180976 0.509892464 -0.836924255
v -0.507810473 0.509771645 -0.832191706
v -0.50428319 0.506393075 -0.822350919
v -0.492121905 0.506573141 -0.807266533
v -0.493323952 0.505811393 -0.803520143
v -0.492003292 0.505819619 -0.793771982
v -0.494302869 0.504339695 -0.78622514
v -0.490016431 0.505570054 -0.774723053
v -0.49241367 0.50405091 -0.767251611
v -0.491649121 0.50383383 -0.757896423
v -0.499186635 0.504454017 -0.752213478
v -0.490868479 0.507338405 -0.738413811
v -0.49025476 0.50705862 -0.729197562
v -0.497781545 0.507674575 -0.723515034
v -0.495968074 0.508151233 -0.718032598
v -0.486673802 0.511431158 -0.703791857
v -0.491178691 0.51327461 -0.696372151
v -0.490978926 0.512822509 -0.687464297
v -0.49705705 0.514020801 -0.680954695
v -0.499982357 0.516506791 -0.672635317
v -0.501171827 0.515753031 -0.668928087
v -0.505673528 0.517595172 -0.661513567
v -0.501726925 0.518660009 -0.650525093
v -0.505033493 0.5212515 -0.646824181
v -0.500861406 0.522402942 -0.635748684
v -0.502625346 0.525340438 -0.626839876
v -0.517497897 0.527178228 -0.624053597
v -0.510406315 0.529759824 -0.615765035
v -0.514889002 0.531594217 -0.608381867
v -0.519371748 0.533428609 -0.60099864
v -0.523657858 0.535618722 -0.597847879
v -0.516578674 0.537895024 -0.585312068
v -0.519869447 0.540474117 -0.581628859
v -0.525865972 0.541698039 -0.575087011
v -0.526976764 0.54486376 -0.565906882
v -0.518217444 0.547781885 -0.552582562
v -0.525608361 0.548723996 -0.551110208
v -0.527894914 0.547258019 -0.543723464
v -0.526878238 0.547100961 -0.534586549
v -0.528562546 0.545874298 -0.526890278
v -0.522966802 0.543391466 -0.516475141
v -0.530941308 0.544093192 -0.515274405
v -0.524148226 0.546230614 -0.503162324
v -0.536774576 0.544810951 -0.50009048
v -0.536422908 0.552667439 -0.489187807
v -0.537597716 0.551922977 -0.485526383
v -0.539600074 0.554702342 -0.476950794
v -0.551466048 0.549473882 -0.474490225
v -0.543795109 0.551923454 -0.462060153
v -0.542902768 0.55170995 -0.453104347
v -0.541475236 0.547864079 -0.449192822
v -0.526706994 0.5572384 -0.432234466
v -0.53091979 0.555019855 -0.425902367
v -0.534034848 0.549122512 -0.420052975
v -0.525712311 0.54774946 -0.408517957
v -0.526903987 0.547000527 -0.404898643
v -0.517149508 0.546218812 -0.392701507
v -0.524881005 0.542595565 -0.388109773
v -0.528153777 0.536910355 -0.386532515
v -0.511936784 0.538740754 -0.371234536
v -0.512930334 0.537801445 -0.363358736
v -0.501969934 0.541648805 -0.349711001
v -0.503575325 0.540466905 -0.34216851
v -0.508584082 0.542272568 -0.339427114
v -0.50212127 0.540242255 -0.329015702
v -0.516304553 0.534018874 -0.327470094
v -0.51909405 0.528270602 -0.321457624
v -0.533385813 0.526089311 -0.318903893
v -0.533188701 0.525898457 -0.314645886
v -0.537364781 0.523682773 -0.308276087
v -0.541291714 0.517727673 -0.306914181
v -0.476416171 0.535496771 -0.274440289
v -0.477914006 0.534367025 -0.266944706
v -0.480200946 0.532917738 -0.259817004
v -0.485612631 0.534513116 -0.257278502
v -0.487900972 0.533062935 -0.250146449
v -0.488750786 0.532194555 -0.24235864
v -0.491038233 0.530745029 -0.235229388
v -0.492532909 0.529616296 -0.22774227
v -0.488047659 0.530908704 -0.217572585
v -0.489234209 0.529906034 -0.20996803
v -0.491516262 0.528459907 -0.202855557
v -0.493672669 0.527064681 -0.195687473
v -0.497990847 0.52883172 -0.188575238
v -0.50027281 0.527385592 -0.181463018
v -0.502554834 0.525939524 -0.174350783
v -0.504836798 0.524493396 -0.167238563
v -0.507118762 0.523047268 -0.160126328
v -0.508143544 0.522110343 -0.152474627
v -0.499759823 0.520958424 -0.14167878
v -0.501831889 0.51959908 -0.134498969
v -0.500239313 0.519729495 -0.125770748
v -0.501613677 0.518654466 -0.118307285
v -0.503886461 0.517214179 -0.11122366
v -0.506159246 0.515773892 -0.104140036
v -0.50843209 0.514333606 -0.0970564112
v -0.510704875 0.512893319 -0.0899727866
v -0.511598229 0.512014985 -0.0823239684
v -0.504038036 0.510820508 -0.0760568753
v -0.504212677 0.510238826 -0.068137385
v -0.506479263 0.508802474 -0.0610731989
v -0.511302054 0.506320775 -0.0550375469
v -0.513570189 0.504883409 -0.0479684696
v -0.504719734 0.503984094 -0.037277285
v -0.506982327 0.502550304 -0.0302255992
v -0.509244859 0.501116514 -0.0231739134
v -0.503680229 0.499139518 -0.0178095512
v -0.505479336 0.497897267 -0.0105867162
v -0.507738709 0.496465474 -0.00354484445
v -0.509998143 0.495033652 0.00349702756
v -0.496723443 0.500006378 0.01651196
v -0.505623341 0.503835678 0.0225178394
v -0.509806156 0.506116509 0.0216880143
v -0.518529058 0.510035753 0.0277805049
v -0.522225797 0.508019745 0.0342626907
v -0.522743583 0.50729841 0.041942928
v -0.516624689 0.505548894 0.0474139079
v -0.509950101 0.507770419 0.0577495173
v -0.514339685 0.509452045 0.0646963194
v -0.51794529 0.511452854 0.0719317347
v -0.519067943 0.510741413 0.0754305869
v -0.521813035 0.513090432 0.0829755664
v -0.524958432 0.515274525 0.0903688371
v -0.522045255 0.515942097 0.0992158428
v -0.525164723 0.51838696 0.102707386
v -0.527151167 0.517069876 0.109780982
v -0.524954081 0.521401107 0.119041719
v -0.525901198 0.520504117 0.126465887
v -0.529013991 0.522943735 0.129949927
v -0.528383732 0.522680998 0.137916878
v -0.519399285 0.529718578 0.149454206
v -0.520303547 0.528839111 0.15684706
v -0.525837719 0.530031681 0.163330093
v -0.524770141 0.529942036 0.17138733
v -0.504631877 0.537505209 0.185872301
v -0.519515812 0.535192192 0.185344025
v -0.507346988 0.539546967 0.197068095
v -0.511527359 0.54125762 0.203953311
v -0.511035323 0.540937126 0.211730391
v -0.51019603 0.540756166 0.219610274
v -0.516316354 0.541947067 0.222050652
v -0.51547277 0.541765273 0.229922026
v -0.515301049 0.541316152 0.237563983
v -0.521852314 0.542075455 0.24367103
v -0.511161804 0.545813978 0.254653603
v -0.498245329 0.550442934 0.266287982
v -0.509911537 0.54940635 0.266981751
v -0.497877568 0.553672671 0.278277665
v -0.486924678 0.557513058 0.289179176
v -0.493541896 0.558209121 0.295195729
v -0.492191374 0.558229208 0.303072006
v -0.499845386 0.558515608 0.30878076
v -0.497201174 0.559045613 0.317033887
v -0.505059183 0.559512734 0.318969518
v -0.504229844 0.559321165 0.326663524
v -0.510913134 0.559996545 0.332688272
v -0.505998194 0.561414957 0.341575772
v -0.514825523 0.56124413 0.346972644
v -0.494457334 0.569003463 0.356637388
v -0.488381803 0.570877552 0.365777224
v -0.498705834 0.570099354 0.370713383
v -0.49160859 0.572369277 0.380107284
v -0.497738838 0.573238194 0.386253655
v -0.493453979 0.574398577 0.394801795
v -0.502905428 0.57422626 0.396350205
v -0.501671016 0.574186802 0.404027581
v -0.50855875 0.574761748 0.409976363
v -0.503352761 0.57627213 0.418729663
v -0.514104903 0.575601339 0.419967234
v -0.508508265 0.57725805 0.428804457
v -0.518013 0.57681489 0.434058547
v -0.497032762 0.584455132 0.446974725
v -0.508402467 0.583276033 0.451718658
v -0.502163529 0.585436344 0.457001269
v -0.50622195 0.587097108 0.463685632
v -0.505676746 0.586781025 0.471070319
v -0.510998905 0.587950528 0.477422684
v -0.50761652 0.588730752 0.48552084
v -0.513690889 0.589607 0.491678208
v -0.509664357 0.590897083 0.496306807
v -0.491305679 0.597461343 0.508123815
v -0.498378158 0.59793359 0.513993561
v -0.502511442 0.599541664 0.520602405
v -0.503470838 0.59890753 0.523945749
v -0.498058707 0.600460649 0.532422185
v -0.504875898 0.601031661 0.53836602
v -0.501796126 0.601684034 0.546242774
v -0.508676648 0.602230728 0.552177787
v -0.514779508 0.603079736 0.558308065
v -0.513759553 0.60320276 0.562110782
v -0.509196699 0.604415119 0.570292532
v -0.515485287 0.605188787 0.576376557
v -0.500381649 0.610422492 0.586939991
v -0.503322542 0.612727463 0.590231657
v -0.504673541 0.611679018 0.596987247
v -0.508669734 0.613314331 0.60356921
v -0.504873455 0.61422354 0.611464739
v -0.51463902 0.613664091 0.616763711
v -0.508121312 0.615870059 0.621715963
v -0.506274223 0.616036355 0.629144132
v -0.511480927 0.617203057 0.63544184
v -0.503371894 0.619740665 0.644186676
v -0.50942421 0.620580792 0.650292218
v -0.495446205 0.625333011 0.660212278
v -0.503731191 0.625588238 0.662351847
v -0.500291586 0.626350343 0.670025885
v -0.506145 0.627256513 0.67615813
v -0.501315355 0.628539205 0.684085846
v -0.505268693 0.630156934 0.690597117
v -0.504705012 0.630099893 0.69417429
v -0.500615299 0.631101072 0.701906204
v -0.505511105 0.632358432 0.708217323
v -0.50448823 0.632204294 0.71532011
v -0.505414784 0.634947956 0.722393632
v -0.495644718 0.638071716 0.731138229
v -0.492406398 0.638749361 0.738607407
v -0.5006091 0.639021039 0.740839601
v -0.502160251 0.637902141 0.747404456
v -0.488624871 0.642431855 0.756739616
v -0.484239995 0.643538833 0.764352381
v -0.488186061 0.645119667 0.770772517
v -0.484553248 0.645941913 0.778214931
v -0.482552826 0.646155357 0.785348594
v -0.473601758 0.648970544 0.793679535
v -0.466595352 0.651061058 0.801634252
v -0.465215862 0.65104723 0.808594942
v -0.460531801 0.652272284 0.816101074
v -0.449334711 0.655939937 0.824670494
v -0.445742458 0.656760514 0.831934869
v -0.445723534 0.656242609 0.838594854
v -0.426575541 0.659645677 0.844738662
v -0.418815941 0.66204536 0.8525998
v -0.398368448 0.665733397 0.862157166
v -0.396464795 0.662449658 0.868727088
v -0.37254858 0.667526007 0.878711462
v -0.367870271 0.66558367 0.882409871
v -0.352998406 0.667540014 0.887669265
v -0.318594992 0.673329592 0.898826003
v -0.314610422 0.671189964 0.902363777
v -0.308102041 0.673208773 0.909725606
v -0.293564826 0.674917817 0.917985678
v -0.276687443 0.677565932 0.926535666
v -0.275376558 0.677835345 0.929879367
v -0.275149226 0.674058914 0.935964406
v -0.264138341 0.674718857 0.940435767
v -0.239188388 0.680610538 0.949979126
v -0.229645178 0.68052423 0.957293928
v -0.219219163 0.681035578 0.961602032
v -0.197088793 0.682623923 0.970343828
v -0.190881148 0.681527734 0.974030077
v -0.172137067 0.682109833 0.979170501
v -0.161903024 0.682659805 0.983368933
v -0.130889758 0.688481092 0.987079382
v -0.150483012 0.676892579 0.990300536
v -0.139965355 0.68069011 0.997738481
v -0.134782255 0.67927587 1.00121582
v -0.119747095 0.684912384 1.00916779
v -0.109692357 0.682022572 1.01601577
v -0.0642759502 0.697010398 1.02449048
v -0.111010782 0.67432493 1.02440941
v -0.0713598579 0.687051713 1.03206182
v -0.0546605624 0.687236428 1.03665388
v -0.0528337918 0.684564233 1.03961766
v -0.0492824204 0.679383934 1.04259241
v -0.0485671759 0.673029065 1.04522622
v -0.043308299 0.668762326 1.04546785
v -0.0632717982 0.656971276 1.04583848
v 0.597988367 -0.042152591 -0.368685275
v 0.60051918 -0.0315066539 -0.360630691
v 0.594907343 -0.0274963696 -0.362048566
v 0.601590335 -0.0139524937 -0.358748883
v 0.590500116 -0.0272135418 -0.37531507
v 0.592288256 -0.0300352424 -0.37531507
v 0.595864475 -0.0356786437 -0.37531507
v 0.596976638 -0.0432852916 -0.37703827
v 0.600777864 -0.0443388596 -0.371807456
v 0.616495967 -0.178361788 -0.396227509
v 0.578929365 -0.201305613 -0.416405082
v 0.621951878 -0.156083778 -0.387188822
v 0.619347155 -0.149731219 -0.390348583
v 0.618451118 -0.146105871 -0.389700115
v 0.609719694 -0.144903824 -0.397213131
v 0.606093824 -0.139182135 -0.397213131
v 0.615202367 -0.122847982 -0.388189375
v 0.616408408 -0.117697835 -0.389921278
v 0.617121398 -0.117505088 -0.397149026
v 0.618108809 -0.117084414 -0.404188275
v 0.617084026 -0.118338689 -0.412679911
v 0.619108438 -0.117055804 -0.41898936
v 0.621807218 -0.110861301 -0.423502177
v 0.60959208 -0.125785634 -0.441480666
v 0.611759424 -0.132535383 -0.438634306
v 0.613575697 -0.135401472 -0.438634306
v 0.616190434 -0.141778618 -0.435462326
v 0.608479321 -0.152460679 -0.438470781
v 0.611102819 -0.15885897 -0.43528828
v 0.597802758 -0.178561062 -0.439709157
v 0.598608613 -0.182104185 -0.436508179
v 0.599414408 -0.185647294 -0.433307201
v 0.592546046 -0.195518762 -0.431685925
v 0.593353927 -0.199071005 -0.428476721
v 0.593132138 -0.203275755 -0.422058314
v 0.618314207 -0.181231022 -0.396227509
v -0.329329967 0.492990285 -0.0229858551
v -0.433845043 0.455718607 -0.0646006092
v -0.440458506 0.453319341 -0.0753009692
v -0.448192745 0.450438738 -0.0865088478
v -0.446117818 0.455845773 -0.0927908123
v -0.446817875 0.455774814 -0.0970854685
v -0.451926202 0.449974895 -0.108113289
v -0.457149774 0.448183268 -0.118372232
v -0.45487687 0.449623615 -0.125456154
v -0.454964757 0.445738554 -0.130394414
v -0.451471925 0.447706103 -0.136959121
v -0.460824192 0.440034807 -0.149973422
v -0.454018861 0.443438232 -0.155115142
v -0.481899261 0.423579514 -0.177245155
v -0.491308659 0.415113717 -0.178176224
v -0.493474185 0.409790277 -0.175922349
v -0.494007647 0.405175 -0.172951043
v -0.50217241 0.392805636 -0.170085415
v -0.50593859 0.38674286 -0.16850239
v -0.50737977 0.377510279 -0.166801959
v -0.519719243 0.367600888 -0.168909326
v -0.514516652 0.36128664 -0.164323807
v -0.515946388 0.356215894 -0.161702812
v -0.196282685 0.491843373 -0.0218836144
v -0.217010096 0.489850342 -0.0215621237
v -0.219990596 0.492186308 -0.0182261653
v -0.222971097 0.494522274 -0.014890207
v -0.241438285 0.493833303 -0.0172977895
v -0.253147215 0.496195495 -0.0168140307
v -0.258924484 0.497318357 -0.0146256657
v -0.2824305 0.494540602 -0.0190446414
v -0.299740791 0.494552732 -0.0208217781
v -0.302768409 0.496925622 -0.0174330585
v -0.305796057 0.499298543 -0.0140443379
v 0.489759862 0.00537967496 0.242105007
v 0.549736917 0.0579571277 0.270067453
v 0.552618623 0.0678507909 0.27281031
v 0.545656145 0.0664697513 0.2671462
v 0.562005818 0.0862577185 0.275829613
v 0.559569538 0.0920531601 0.27290976
v 0.555694818 0.0967974886 0.269353598
v 0.557186186 0.101718485 0.270747095
v 0.554769516 0.107523806 0.267837018
v -0.274074852 -0.494905442 -0.107821047
v -0.272720128 -0.498955607 -0.108190507
v -0.256242275 -0.497117251 -0.107136384
v -0.271016628 -0.518030345 -0.115704864
v -0.233147472 -0.495369822 -0.104043901
v -0.247485995 -0.516000926 -0.112448081
v -0.219821632 -0.505733967 -0.106275767
v -0.240883604 -0.531470418 -0.11776527
v -0.236266032 -0.538305819 -0.122015968
v 0.482535094 -0.0090246005 0.20643051
v 0.482351363 -0.00904977135 0.209797844
v 0.477634996 -0.0083454838 0.215346515
v 0.490850955 0.00176995667 0.228144571
v 0.493392587 0.00389312208 0.236121804
v 0.486250758 0.00264969259 0.237134293
g path_000000
l 1 1283
g path_000001
l 2 3 4 5
g path_000002
l 6 7 8 9 10 11
g path_000003
l 14 15 16 17 18 19 20
g path_000004
l 22 23 24 25 26 27 28 29 30 31 32 33 34 35 36 37 38 39 40 41 42 43 44 45 46
g path_000005
l 47 48 49 50 51 52 53 54 55 56 57 58 59 60 61 62 63 64 65 66 67 68 69 70 71 72 73 74 75 76 77 78 79 80 81 82 83 84 85 86 87 88 89 90 91 92 93 94 95 96 97 98 99 100 101 102 103 104 105 106 107
g path_000006
l 108 109
g path_000007
l 111 112 113 114
g path_000008
l 115 116
g path_000009
l 117 118 119 120 121 122 123 124 125 126 127 128 129 130 131 132 133 134 135 136 137 138 139 140 141 142 143 144 145 146 147 148 149 150 151 152 153 154 155 156 157 158 159 160 161 162 163 164 165 166 167 168
g path_000010
l 169 170 171 172 173 174 175
g path_000011
l 176 177 178 179 180 181 182 183 184 185 186 187 188 189 190 191 192 193 194 195 196 197 198 199 200 201 202 203 204 205 206 207 208 209 210 211 212 213 214 215 216 217 218 219 220 221 222 223 224 225 226 227 228 229 230 231
g path_000012
l 233 234 235 236 237
g path_000013
l 238 239 240 241 242 243 244 245 246 247 248 249 250 251 252 253 254 255 256 257 258 259 260 261 262 263 264 265 266 267 268 269 270 271 272 273 274 275 276 277 278 279 280 281 282 283 284
g path_000014
l 285 286 287
g path_000015
l 290 291
g path_000016
l 294 295 296
g path_000017
l 298 299 300 301 302 303 304 305 306 307 308 309 310 311 312 313 314 315 316 317
g path_000018
l 318 319 320 321 322 323 324 325 326 327 328
g path_000019
l 329 330 331 332 333 334 335 336 337 338 339 340 341 342 343 344 345 346 347 348 349 350 351 352 353 354 355
g path_000020
l 356 357 358 359 360 361 362 363 364
g path_000021
l 366 367 368 369 370 371 372
g path_000022
l 373 374 375 376 377
g path_000023
l 379 380 381
g path_000024
l 382 383 384 385 386 387 388
g path_000025
l 389 390 391 392 393 394 395 396 397 398 399 400 401 402 403 404 405 406 407 408 409 410 411 412 413 414 415 416 417 418 419 420 421 422 423 424 425 426
g path_000026
l 427 428 429 430 431 432 433 434 435 436 437 438 439 440 441 442 443
g path_000027
l 444 445 446 447 448 449 450 451 452 453
g path_000028
l 454 455 456 457 458 459 460 461 462 463 464 465 466 467 468 469 470 471 472 473 474 475 476 477 478 479 480 481
g path_000029
l 482 483 484 485 486 487 488 489 490 491 492 493 494 495 496 497 498 499
g path_000030
l 500 501 502 503 504 505 506 507 508 509 510 511 512 513 514 515 516 517 518 519 520 521 522 523 524 525 526 527 528 529
g path_000031
l 530 531 532 533 534 535 536 537 538 539 540 541
g path_000032
l 542 543 544 545
g path_000033
l 546 547 548 549 550 551 552 553 554 555
g path_000034
l 556 557 558 559 560 561 562
g path_000035
l 563 564 565 566 567 568 569
g path_000036
l 570 571 572 573 574 575 576 577 578 579 580 581 582 583 584 585 586 587 588 589 590 591 592 593 594 595 596 597 598 599 600 601 602 603 604 605 606 607 608 609 610 611 612 613 614 615 616
g path_000037
l 617 618 619 620 621 622 623 624 625 626 627 628 629 630 631 632 633 634 635 636 637 638 639 640 641 642 643 644 645 646 647 648 649 650 651 652 653 654 655 656 657 658 659 660 661 662
g path_000038
l 663 664 665 666 667 668 669 670 671 672 673 674 675 676
g path_000039
l 677 678
g path_000040
l 679 680 681 682 683
g path_000041
l 684 685 686 687 688 689 690 691 692 693 694 695 696 697 698 699 700 701 702
g path_000042
l 704 705 706 707 708 709 710 711 712 713 714 715 716 717 718 719 720 721
g path_000043
l 722 723 724 725 726 727 728
g path_000044
l 729 730 731 732 733 734 735 736 737 738 739
g path_000045
l 740 741 742 743 744 745 746 747 748 749 750 751 752 753 754 755 756
g path_000046
l 757 758 759
g path_000047
l 760 761 762
g path_000048
l 764 765 766
g path_000049
l 767 768 769 770 771 772 773 774 775 776 777 778 779
g path_000050
l 780 781 782 783 784 785 786 787 788 789 790 791 792 793 794 795 796
g path_000051
l 797 798 799 800 801 802 803 804 805 806 807 808 809 810 811 812 813 814 815 816 817 818 819
g path_000052
l 820 821
g path_000053
l 822 823 824 825 826 827 828 829
g path_000054
l 835 836
g path_000055
l 837 838 839 840 841 842 843 844 845 846
g path_000056
l 847 848 849 850 851 852 853 854 855 856 857 858 859 860 861 862 863 864 865 866 867 868 869 870 871 872 873 874 875 876
g path_000057
l 877 878 879 880 881 882 883 884 885 886 887 888 889 890 891
g path_000058
l 892 893 894 895 896 897 898 899
g path_000059
l 900 901 902 903 904 905 906
g path_000060
l 907 908 909 910 911 912
g path_000061
l 913 914
g path_000062
l 915 916 917 918 919
g path_000063
l 920 921 922 923 924 925 926 927
g path_000064
l 928 929 930 931 932 933 934 935 936 937 938 939 940 941 942 943
g path_000065
l 944 945 946 947 948 949 950
g path_000066
l 951 952 953 954 955 956 957 958 959 960 961 962 963 964 965 966 967 968 969 970 971 972 973
g path_000067
l 974 975 976 977 978 979 980 981 982 983 984 985 986 987 988 989 990 991 992 993 994
g path_000068
l 995 996 997 998 999 1000 1001 1002 1003 1004 1005 1006 1007 1008 1009 1010 1011 1012 1013 1014 1015 1016
g path_000069
l 1017 1018 1019 1020 1021 1022 1023 1024 1025 1026 1027 1028 1029 1030 1031 1032 1033 1034 1035 1036 1037 1038 1039 1040 1041 1042 1043 1044 1045 1046 1047 1048 1049 1050 1051 1052 1053 1054 1055 1056 1057 1058 1059 1060 1061 1062 1063 1064 1065 1066 1067
g path_000070
l 1068 1069 1070 1071 1072 1073 1074 1075 1076 1077 1078 1079 1080 1081 1082 1083 1084 1085 1086 1087
g path_000071
l 1088 1089 1090 1091 1092 1093 1094 1095 1096 1097 1098 1099 1100 1101 1102 1103 1104 1105 1106 1107 1108 1109 1110 1111 1112 1113 1114 1115 1116 1117 1118 1119 1120 1121 1122 1123 1124 1125 1126 1127 1128 1129 1130 1131 1132 1133 1134 1135 1136 1137 1138 1139 1140 1141 1142 1143 1144 1145 1146 1147 1148 1149 1150
g path_000072
l 1151 1152 1153 1154 1155 1156 1157 1158 1159 1160 1161 1162 1163 1164 1165 1166 1167 1168 1169 1170 1171 1172 1173 1174
g path_000073
l 1175 1176 1177 1178 1179 1180 1181 1182 1183 1184 1185 1186 1187
g path_000074
l 1188 1189 1190 1191 1192 1193 1194 1195 1196
g path_000075
l 1197 1198 1199 1200 1201 1202 1203 1204 1205 1206 1207 1208 1209 1210 1211 1212 1213 1214 1215 1216 1217 1218 1219 1220 1221 1222 1223 1224 1225 1226 1227 1228 1229 1230 1231 1232 1233 1234 1235 1236 1237 1238 1239 1240 1241 1242 1243 1244 1245 1246
g path_000076
l 1247 1248
g path_000077
l 1249 1250
g path_000078
l 1251 1252 1253
g path_000079
l 1254 1255 1256 1257 1258 1259 1260 1261
g path_000080
l 1262 1263 1264
g path_000081
l 1265 1266
g path_000082
l 1267 1268
g path_000083
l 1270 1271 1272 1273 1274
g path_000084
l 1277 1278 1279 1280 1281 1282
g path_000085
l 1287 1286 1285 1284 1292 1291 1290 1289 1288
g path_000086
l 1293 1319
g path_000087
l 1295 1296 1297 1298 1299
g path_000088
l 1300 1301 1302 1303 1304 1305 1306
g path_000089
l 1307 1308 1309 1310 1311 1312
g path_000090
l 1313 1314 1315 1316 1317 1318
g path_000091
l 1321 1322 1323 1324 1325 1326 1327 1328 1329 1330 1331 1332
g path_000092
l 1333 1334 1335 1336 1337 1338 1339 1340 1341 1342
g path_000093
l 1343 1344 1345 1346 1347 1348 1349
g path_000094
l 1350 1351 1352 1353
g path_000095
l 1354 1377 1376 1375
g path_000096
l 1355 1356 1357
g path_000097
l 1358 1359 1360 1361 1362
g path_000098
l 1363 1364 1365
g path_000099
l 1370 1371
g path_000100
l 1372 1373 1374
