# Fixed world centers; Z up; paths immutable
v -0.0193294324 0.661110342 1.04665959
v -0.0210544262 0.64811343 1.04425859
v -0.00746058626 0.658321798 1.04094851
v -0.000196792069 0.658738077 1.04362822
v 0.00348185608 0.65908432 1.04356146
v 0.00633877935 0.652890325 1.04369736
v 0.00919844303 0.651983798 1.04367959
v 0.0155270696 0.651331127 1.03799999
v 0.0194202755 0.652134061 1.03512084
v 0.0238913782 0.64850831 1.03235233
v 0.0389895812 0.666740119 1.02888393
v 0.0444866195 0.664570212 1.03164816
v 0.0489545949 0.660995662 1.0288955
v 0.0556950867 0.660983503 1.02602243
v 0.0569601655 0.657618463 1.02608871
v 0.060314104 0.657734394 1.02047241
v 0.0595391765 0.66197139 1.01760018
v 0.0666017979 0.662490487 1.01472306
v 0.0727211982 0.661439717 1.0146755
v 0.0764041618 0.656428397 1.017524
v 0.0806550086 0.657899261 1.01466107
v 0.0817903727 0.648972929 1.01205432
v 0.0880406201 0.653658271 1.00910509
v 0.0886915401 0.649356484 1.0063988
v 0.0937596932 0.652246058 1.00072324
v 0.0964098424 0.64569819 0.998026252
v 0.0976878703 0.653306305 0.995099962
v 0.102984212 0.651126683 0.989519
v 0.10489212 0.648751378 0.989539325
v 0.114646494 0.653671443 0.989388585
v 0.123418875 0.657120705 0.98649317
v 0.128477693 0.654436052 0.98649317
v 0.136883944 0.657346487 0.983618617
v 0.14108406 0.658775508 0.983569443
v 0.155002058 0.670822263 0.983308375
v 0.160020411 0.668159127 0.983308375
v 0.162859783 0.661917031 0.980614543
v 0.170365602 0.663414061 0.980545044
v 0.170707434 0.658498466 0.977847099
v 0.180383876 0.663686693 0.977723837
v 0.190151274 0.669149637 0.974853277
v 0.195456758 0.667076051 0.972100973
v 0.20045504 0.664423585 0.972100973
v 0.20326139 0.663676262 0.969348669
v 0.208259672 0.661023796 0.969348669
v 0.213565171 0.65895021 0.966596365
v 0.216371521 0.658202887 0.963844121
v 0.221677005 0.656129301 0.961091816
v 0.226982504 0.654055715 0.958339512
v 0.229788855 0.653308392 0.955587208
v 0.239414722 0.658854723 0.950041831
v 0.238374174 0.651319861 0.950077832
v 0.2540631 0.667614758 0.944506645
v 0.259333491 0.665554941 0.941772521
v 0.26212129 0.664812505 0.939038455
v 0.267391682 0.662752688 0.93630439
v 0.270179451 0.662010312 0.933570325
v 0.275449842 0.659950435 0.930836201
v 0.278237641 0.659208059 0.928102136
v 0.284792602 0.65946728 0.925374985
v 0.290058643 0.657409132 0.922643185
v 0.292539209 0.656092703 0.922643185
v 0.29780525 0.654034555 0.919911325
v 0.300590724 0.653292775 0.917179525
v 0.305856764 0.651234627 0.914447725
v 0.310817868 0.64860189 0.914447725
v 0.316083908 0.646543741 0.911715865
v 0.318869412 0.645801961 0.908984065
v 0.324135423 0.643743813 0.906252265
v 0.326920927 0.643002033 0.903520405
v 0.332186967 0.640943885 0.900788605
v 0.33860743 0.641058862 0.898084223
v 0.340679079 0.638975739 0.898074567
v 0.346348077 0.637686908 0.895354509
v 0.355575353 0.643168807 0.890003145
v 0.354393423 0.634889126 0.889895082
v 0.36360088 0.640377939 0.884557188
v 0.366377354 0.639638543 0.881834149
v 0.368005425 0.630608976 0.878976226
v 0.370788753 0.629867733 0.876246452
v 0.376355439 0.628385365 0.870787024
v 0.378202111 0.625823319 0.86801511
v 0.382872373 0.628734708 0.862629414
v 0.385959029 0.628567696 0.85717243
v 0.388741136 0.627826869 0.854443908
v 0.391523242 0.627085984 0.851715386
v 0.396649212 0.624741077 0.846231759
v 0.399432153 0.623999953 0.843502402
v 0.404998064 0.622517765 0.838043749
v 0.411829531 0.629820645 0.835593045
v 0.414604604 0.629081666 0.832871437
v 0.417683482 0.628915071 0.827428222
v 0.416739166 0.620701492 0.821667671
v 0.418322504 0.617555618 0.818841219
v 0.421476603 0.617516816 0.813383341
v 0.422795385 0.613822341 0.810524166
v 0.425888658 0.613655031 0.805055439
v 0.427171409 0.609867871 0.802180707
v 0.430174917 0.609511673 0.79669708
v 0.431615531 0.605979145 0.79105413
v 0.434715956 0.605811417 0.785572708
v 0.435414523 0.60718751 0.782874286
v 0.437965989 0.605901062 0.7773332
v 0.439639717 0.602814019 0.771685839
v 0.440216064 0.603943646 0.768973887
v 0.44250986 0.60211587 0.763388515
v 0.44251132 0.602017045 0.757821739
v 0.444098532 0.598726571 0.752131701
v 0.446879089 0.597879946 0.746589243
v 0.447322756 0.598739982 0.743858218
v 0.448128968 0.600292981 0.738386393
v 0.450812131 0.599243641 0.732826471
v 0.450273097 0.598019838 0.727155089
v 0.451393396 0.593726397 0.721345425
v 0.451701045 0.594306111 0.718589246
v 0.452074707 0.594965458 0.713038504
v 0.452610135 0.5894382 0.707102656
v 0.452725887 0.589561045 0.701495171
v 0.453342646 0.590723276 0.695969641
v 0.455492854 0.58858645 0.693090796
v 0.455978185 0.589475274 0.687539101
v 0.456051975 0.589508235 0.681911349
v 0.455583125 0.588412523 0.676178038
v 0.458714038 0.588243186 0.670642793
v 0.455804199 0.582053483 0.664420187
v 0.454854548 0.579949617 0.658558607
v 0.455361634 0.58088249 0.65297991
v 0.457309484 0.57821548 0.647175729
v 0.457930207 0.579385161 0.641614795
v 0.45855093 0.580554783 0.636053801
v 0.459171653 0.581724465 0.630492806
v 0.459492683 0.582267761 0.624864638
v 0.461036772 0.578806758 0.621790946
v 0.4589881 0.574383855 0.61560756
v 0.458852798 0.573969185 0.60985136
v 0.456454754 0.568813384 0.60354811
v 0.456956118 0.569732249 0.59792465
v 0.457497269 0.570734382 0.592310071
v 0.459199131 0.567491531 0.586347282
v 0.459059745 0.567063689 0.580551147
v 0.45893091 0.566657841 0.574751437
v 0.45805946 0.564691961 0.568749011
v 0.458685935 0.56587249 0.563136458
v 0.459028512 0.566456556 0.55744642
v 0.459118396 0.566509724 0.551684022
v 0.458178788 0.564399779 0.545627534
v 0.458732307 0.565426767 0.539984107
v 0.461912602 0.565254688 0.534361541
v 0.462226421 0.565846026 0.531550288
v 0.460370958 0.561798751 0.525191367
v 0.45754531 0.555707335 0.5185197
v 0.457156956 0.55474925 0.512562156
v 0.457435966 0.555196941 0.50680238
v 0.457426548 0.555036783 0.500949204
v 0.457815349 0.555715561 0.495217115
v 0.458238333 0.556466222 0.489493936
v 0.458869755 0.557656109 0.483837008
v 0.455113173 0.549600124 0.476730078
v 0.457574129 0.547844589 0.470804006
v 0.458207905 0.549038887 0.465125978
v 0.455551684 0.543283641 0.458316654
v 0.455859423 0.54378885 0.452511042
v 0.456330717 0.544639528 0.446760297
v 0.457329184 0.539760053 0.440272629
v 0.455262363 0.53523463 0.433592111
v 0.455900162 0.536436498 0.427878201
v 0.458761424 0.535474658 0.422026724
v 0.459080428 0.536075771 0.419169009
v 0.45926556 0.536316574 0.413282633
v 0.454178542 0.518433332 0.404382586
v 0.460087985 0.530853689 0.400668234
v 0.455224395 0.51338762 0.391761929
v 0.456813991 0.516698837 0.38937968
v 0.455964088 0.507739007 0.381981641
v 0.458553374 0.506109595 0.375932008
v 0.460713327 0.503635824 0.372722566
v 0.458198309 0.490995765 0.364554495
v 0.46257028 0.49325636 0.36223799
v 0.451332778 0.45465076 0.355354756
v 0.452871025 0.443555057 0.353767216
v 0.438859999 0.39841786 0.348755777
v 0.443945408 0.394914836 0.351739436
v 0.447077632 0.394410491 0.351916373
v 0.44199264 0.36836341 0.350652218
v 0.438489974 0.353295296 0.354359865
v 0.440892428 0.351207197 0.357376486
v 0.440978348 0.336468637 0.361476868
v 0.445549011 0.339098752 0.362224728
v 0.447421163 0.328154206 0.363903612
v 0.452735662 0.324936718 0.366995007
v 0.449385881 0.309752196 0.367675841
v 0.457913846 0.313673764 0.36890474
v 0.459461331 0.301792055 0.370458752
v 0.453675538 0.280810744 0.37016049
v 0.462707072 0.285879493 0.37157914
v 0.461096734 0.266468257 0.37185216
v 0.465981692 0.261902183 0.371569812
v 0.46630004 0.254800439 0.373772383
v 0.471720636 0.251448482 0.373704761
v 0.470796198 0.233266264 0.374257296
v 0.468228728 0.211037427 0.374147177
v 0.474165529 0.208741531 0.37426734
v 0.473493725 0.199063927 0.376088738
v 0.479926497 0.197931215 0.376407623
v 0.477396488 0.175342992 0.376310527
v 0.481871247 0.169386029 0.37581262
v 0.482758075 0.154834703 0.377116919
v 0.484862208 0.151483431 0.376808137
v 0.49134925 0.150358468 0.377128363
v 0.498485595 0.150858998 0.377720833
v 0.504215956 0.147901222 0.377732337
v 0.506409407 0.136106506 0.37626335
v 0.506083369 0.117891796 0.373722494
v 0.516137064 0.12550047 0.372240305
v 0.516153157 0.107965752 0.369804293
v 0.521594703 0.104122743 0.369671524
v 0.523759007 0.0916225091 0.364797354
v 0.528166831 0.084800072 0.360869199
v 0.52644527 0.071343407 0.358848572
v 0.498391837 -0.0197498333 0.343946368
v 0.497906178 -0.0303481277 0.342419863
v 0.497053415 -0.0511081554 0.34286201
v 0.4988994 -0.0649373382 0.344499439
v 0.510687649 -0.052818343 0.347053409
v 0.51590699 -0.0580290183 0.346714139
v 0.519922256 -0.0664863139 0.345834792
v 0.523690224 -0.0663046837 0.342713684
v 0.529684305 -0.0694856197 0.342713684
v 0.535767615 -0.0724243224 0.342754155
v 0.543863237 -0.0701776892 0.340248644
v 0.549556971 -0.0744726583 0.336646914
v 0.551407933 -0.0795302168 0.332643121
v 0.556153119 -0.0769421831 0.326518506
v 0.563734531 -0.0563248843 0.326655626
v 0.56370008 -0.0669016615 0.318286091
v 0.562160909 -0.0718174353 0.310595632
v 0.561362207 -0.0746834725 0.303246021
v 0.560771286 -0.0769751519 0.295983374
v 0.558978677 -0.0726959631 0.289613098
v 0.559329093 -0.0723761991 0.282811999
v 0.557292998 -0.0684502721 0.279812396
v 0.559105754 -0.0542661399 0.275306225
v 0.5598405 -0.0528816655 0.268724024
v 0.560368657 -0.0419634618 0.267075956
v 0.554237962 -0.0496247932 0.258467913
v 0.551982939 -0.0466527529 0.251881957
v 0.552718103 -0.0452674925 0.245296001
v 0.553973734 -0.042461127 0.238991633
v 0.55470854 -0.0410764292 0.232408345
v 0.555443406 -0.0396917276 0.225825056
v 0.555791676 -0.0393628739 0.219026357
v 0.556153715 -0.0389969982 0.212231144
v 0.562560976 -0.0121108629 0.214032486
v 0.563231707 -0.0108967563 0.207457811
v 0.563961864 -0.00952091068 0.200916618
v 0.563254595 -0.0120638544 0.193540901
v 0.556844711 -0.0301581156 0.182807386
v 0.556550264 -0.0413519442 0.173839018
v 0.557287633 -0.0399624668 0.167233035
v 0.558025002 -0.0385729931 0.160627052
v 0.558762372 -0.0371835195 0.154021069
v 0.559499681 -0.0357940421 0.147415072
v 0.557810366 -0.0410473421 0.139303386
v 0.55775094 -0.0418404676 0.132185206
v 0.5604164 -0.0450104065 0.124878511
v 0.560786307 -0.0443133265 0.121564381
v 0.561526179 -0.0429191664 0.114936121
v 0.562265992 -0.0415250063 0.108307861
v 0.56364423 -0.0482609943 0.100128904
v 0.56342572 -0.0495093092 0.0928552076
v 0.563544273 -0.059776172 0.0837820619
v 0.564696252 -0.0569187216 0.0809720829
v 0.563251197 -0.0715767443 0.0707833469
v 0.557610452 -0.108147673 0.0555506684
v 0.557987392 -0.107437409 0.0521738566
v 0.562709987 -0.115342826 0.0439107418
v 0.565650463 -0.11769253 0.0401711054
v 0.56816113 -0.131959498 0.0302803535
v 0.570243418 -0.126422435 0.0281012803
v 0.574149787 -0.136835337 0.0191419125
v 0.575390816 -0.144114956 0.0141224992
v 0.578421474 -0.146304592 0.0103937751
v 0.582624376 -0.145508587 0.00383982877
v 0.587956548 -0.152021348 -0.00418066652
v 0.588234842 -0.151600048 -0.00766753266
v 0.590506196 -0.167079404 -0.0180600304
v 0.591122866 -0.165676683 -0.0213033166
v 0.595096231 -0.176336721 -0.0304793026
v 0.598431587 -0.178149298 -0.0377680026
v 0.59769249 -0.191571057 -0.044542741
v 0.598808467 -0.199999839 -0.0536452122
v 0.599193692 -0.19927384 -0.057096824
v 0.604703188 -0.205697894 -0.0652386248
v 0.605528712 -0.215113744 -0.0746733919
v 0.605863452 -0.214540169 -0.0781806335
v 0.515300751 -0.509659708 -0.166291177
v 0.518625736 -0.511678338 -0.166350976
v 0.53019923 -0.501273215 -0.166422889
v 0.53749007 -0.491675287 -0.167198241
v 0.546049654 -0.490218937 -0.169728532
v 0.557685256 -0.479237229 -0.169587165
v 0.567203462 -0.462498635 -0.168308437
v 0.575408995 -0.461848557 -0.17102915
v 0.581615984 -0.443554819 -0.173646986
v 0.589467227 -0.42013815 -0.174736142
v 0.593027055 -0.410061538 -0.179572001
v 0.581211627 -0.447826982 -0.198218435
v 0.582031906 -0.446281254 -0.205567241
v 0.582572639 -0.445605993 -0.213171422
v 0.583960235 -0.442293555 -0.220000148
v 0.587085307 -0.433567882 -0.225212097
v 0.585062742 -0.440878183 -0.23519595
v 0.5858832 -0.439332157 -0.242546231
v 0.588291109 -0.432837129 -0.24839513
v 0.587524116 -0.436240107 -0.257246792
v 0.590510011 -0.415312916 -0.255287141
v 0.593213141 -0.407907337 -0.260792673
v 0.564193189 -0.511576772 -0.300206333
v 0.567913473 -0.525419116 -0.307383835
v 0.579393625 -0.502349257 -0.303628206
v 0.585534155 -0.508539915 -0.308421016
v 0.589636922 -0.520184517 -0.306938946
v 0.593984306 -0.518966854 -0.305997819
v 0.598806083 -0.516760468 -0.308736414
v 0.600187838 -0.513430953 -0.315668255
v 0.604873419 -0.499483526 -0.319236279
v 0.610188365 -0.483506143 -0.322108775
v 0.613494158 -0.486625642 -0.330463946
v 0.618526995 -0.483614534 -0.332891405
v 0.617289305 -0.476050109 -0.338958085
v 0.616219223 -0.480616927 -0.3483693
v 0.61630863 -0.480885625 -0.352427274
v 0.61376363 -0.477531284 -0.359860361
v 0.613343894 -0.47999084 -0.368621945
v 0.616753459 -0.470119357 -0.373302817
v 0.616759777 -0.483339816 -0.381083339
v 0.617870867 -0.480869085 -0.388228357
v 0.616110504 -0.487682223 -0.398499757
v 0.62148279 -0.471430868 -0.400982291
v 0.625297308 -0.472361505 -0.404672742
v 0.626127124 -0.470797807 -0.412107021
v 0.622978687 -0.494980574 -0.427780032
v 0.620417774 -0.491605282 -0.435259551
v 0.620352864 -0.492385507 -0.439543188
v 0.625637352 -0.48918438 -0.445828617
v 0.624293745 -0.494714707 -0.455797851
v 0.621938944 -0.490653664 -0.46304667
v 0.619815052 -0.511053979 -0.473653913
v 0.621991456 -0.505109906 -0.479625672
v 0.619053483 -0.502903342 -0.487567008
v 0.617930293 -0.494232953 -0.489145011
v 0.612659693 -0.499577492 -0.499810785
v 0.614660323 -0.494239658 -0.50596875
v 0.609996378 -0.497589499 -0.515952706
v 0.61847949 -0.483581245 -0.514204204
v 0.623425186 -0.481527865 -0.520863593
v 0.626410365 -0.484122485 -0.517115235
v 0.627247155 -0.482545674 -0.52461195
v 0.62468034 -0.479162633 -0.532108605
v 0.617714167 -0.490031749 -0.544935346
v 0.615812361 -0.496763021 -0.551518261
v 0.613443553 -0.492675751 -0.558797717
v 0.6121099 -0.49811852 -0.569000244
v 0.61133498 -0.488879234 -0.574325323
v 0.612176478 -0.487293512 -0.581864417
v 0.607572854 -0.489829659 -0.58761394
v 0.606442213 -0.494583011 -0.597615957
v 0.604079425 -0.490446806 -0.604895234
v 0.601264596 -0.487758875 -0.612738013
v 0.601686537 -0.486963719 -0.616518497
v 0.602530539 -0.485373348 -0.624079525
v 0.597441733 -0.48992762 -0.634800971
v 0.595910788 -0.483131081 -0.641029656
v 0.594829559 -0.487113059 -0.646725893
v 0.595675528 -0.485518932 -0.654304862
v 0.59308058 -0.482098758 -0.661883831
v 0.593926549 -0.480504632 -0.6694628
v 0.590935409 -0.478336632 -0.677553594
v 0.591781616 -0.476741999 -0.685134947
v 0.588848174 -0.487100124 -0.697651744
v 0.592273295 -0.490113348 -0.706409514
v 0.592697978 -0.489313036 -0.710214436
v 0.593547404 -0.487712443 -0.717824161
v 0.59439683 -0.48611185 -0.725433886
v 0.593404591 -0.490361214 -0.735513151
v 0.594255269 -0.488758266 -0.743134201
v 0.595105946 -0.487155288 -0.750755191
v 0.595956564 -0.485552311 -0.758376181
v 0.596807241 -0.483949333 -0.765997231
v 0.597657919 -0.482346356 -0.773618221
v 0.586789787 -0.491696209 -0.783429801
v 0.580272317 -0.487206727 -0.787253678
v 0.580699146 -0.486402422 -0.791077554
v 0.581552744 -0.484793842 -0.798725307
v 0.580523074 -0.489104629 -0.80898267
v 0.581377983 -0.487493604 -0.816641867
v 0.583712101 -0.481230974 -0.822230637
v 0.586141825 -0.487453163 -0.832557559
v 0.58885175 -0.492830276 -0.842528105
v 0.58666271 -0.525148988 -0.851138055
v 0.590170264 -0.527010381 -0.851138055
v 0.59484446 -0.538267672 -0.854504645
v 0.600592554 -0.546145499 -0.856356382
v 0.609909177 -0.542439044 -0.853038192
v 0.621385992 -0.531540215 -0.846521378
v 0.622070312 -0.556734264 -0.860320985
v 0.62602073 -0.557786226 -0.864195287
v 0.630403578 -0.558023334 -0.871943891
v 0.637331665 -0.549753726 -0.875857174
v 0.644163072 -0.541745365 -0.879856348
v 0.646247208 -0.535386026 -0.881196797
v 0.650605798 -0.535621822 -0.888902485
v 0.659679651 -0.519277871 -0.884815633
v 0.655394375 -0.535047174 -0.900460958
v 0.655824423 -0.534236789 -0.904313803
v 0.650296271 -0.526224554 -0.90655756
v 0.651155651 -0.524605215 -0.914256454
v 0.649690092 -0.517210066 -0.920129597
v 0.646627426 -0.514548063 -0.923975289
v 0.641651452 -0.505411208 -0.929876447
v 0.640341997 -0.496355444 -0.926492274
v 0.631614447 -0.499049127 -0.933718443
v 0.624637246 -0.495346487 -0.933718443
v 0.612982213 -0.507971942 -0.949912548
v 0.613413036 -0.507160187 -0.953771949
v 0.612663865 -0.510760546 -0.963984966
v 0.605043709 -0.52335453 -0.979430497
v 0.602556705 -0.519304335 -0.986926436
v 0.609419703 -0.497758299 -0.980787873
v 0.605537057 -0.498259991 -0.990441978
v 0.598521113 -0.494536787 -0.990441978
v 0.592437923 -0.488409817 -0.993529379
v 0.589033902 -0.48622483 -0.993371248
v 0.581590354 -0.483315617 -0.989509821
v 0.572602689 -0.485758066 -0.992515981
v 0.562249124 -0.491303861 -0.988497078
v 0.561302662 -0.49371168 -0.985394478
v 0.560437262 -0.495342433 -0.977641463
v 0.561580598 -0.49075079 -0.966897845
v 0.561315536 -0.490523905 -0.958269417
v 0.561964214 -0.487469286 -0.94830209
v 0.557592928 -0.487232804 -0.94057399
v 0.553661764 -0.486156732 -0.936697245
v 0.549168229 -0.473714322 -0.924088717
v 0.545238674 -0.472667873 -0.920234859
v 0.537520528 -0.470148325 -0.912326872
v 0.539453566 -0.463812292 -0.905127525
v 0.529232085 -0.468866169 -0.900766432
v 0.531216621 -0.462422967 -0.893537104
v 0.526865363 -0.462187558 -0.885844409
v 0.522327006 -0.462510407 -0.878409266
v 0.524836123 -0.454081893 -0.866100132
v 0.518081665 -0.461490661 -0.866137922
v 0.520086467 -0.454596609 -0.85456264
v 0.513416469 -0.46126315 -0.850024939
v 0.508522987 -0.462637663 -0.843065798
v 0.510022283 -0.457752466 -0.836649954
v 0.509632409 -0.457988262 -0.828350544
v 0.505290091 -0.45775336 -0.820673704
v 0.504433215 -0.45936808 -0.812996864
v 0.505577981 -0.455096394 -0.802711844
v 0.506340683 -0.451950759 -0.792948484
v 0.505486071 -0.453561097 -0.785292447
v 0.501155615 -0.453326851 -0.777636409
v 0.500301003 -0.45493719 -0.769980371
v 0.499446452 -0.456547529 -0.762324333
v 0.4985919 -0.458157867 -0.754668295
v 0.500064313 -0.452957034 -0.744094551
v 0.499211222 -0.454564571 -0.736451805
v 0.49835813 -0.456172109 -0.728809059
v 0.497505039 -0.457779646 -0.721166313
v 0.502937496 -0.4534159 -0.71439606
v 0.502085924 -0.455020547 -0.706766963
v 0.501234353 -0.456625223 -0.699137866
v 0.500382781 -0.458229899 -0.69150877
v 0.499531239 -0.459834576 -0.683879673
v 0.498679668 -0.461439252 -0.676250577
v 0.497828126 -0.463043928 -0.66862148
v 0.496976554 -0.464648604 -0.660992384
v 0.496124983 -0.466253251 -0.653363287
v 0.504895866 -0.451610088 -0.638471961
v 0.504048169 -0.453207374 -0.630877972
v 0.503200531 -0.454804689 -0.623283923
v 0.502305329 -0.456541628 -0.615745127
v 0.501457632 -0.458138973 -0.60815084
v 0.505053282 -0.459085345 -0.603694499
v 0.506785393 -0.453093469 -0.593145311
v 0.505939722 -0.454687059 -0.585568964
v 0.502511322 -0.463875353 -0.580921412
v 0.611652792 -0.131165892 -0.445751131
v 0.612209678 -0.107814454 -0.4380683
v 0.611537397 -0.0882632136 -0.431832045
v 0.610718727 -0.0697077662 -0.429669648
v 0.604498625 -0.0664068833 -0.429669648
v 0.598278522 -0.0631060004 -0.429669648
v 0.599304616 -0.0393153057 -0.421741515
v 0.596382201 -0.026865596 -0.418190807
v 0.593991637 -0.0130374385 -0.414099038
v 0.587842524 -0.00977425277 -0.414099038
v 0.581072032 -0.00822736137 -0.414765626
v 0.574144125 -0.00709276786 -0.415593743
v 0.567187488 -0.00601182133 -0.416444302
v 0.578489363 0.0446524844 -0.397984535
v 0.575950623 0.0574214496 -0.394263476
v 0.571414649 0.0647223443 -0.392669141
v 0.565918505 0.0694147572 -0.392090619
v 0.559990466 0.0729447454 -0.391965479
v 0.567601562 0.102402516 -0.384646475
v 0.561970651 0.106281281 -0.387950152
v 0.555971026 0.109465167 -0.387950152
v 0.549971342 0.112649046 -0.387950152
v 0.543971717 0.115832932 -0.387950152
v 0.537972033 0.119016819 -0.387950152
v 0.544884324 0.155232415 -0.37488544
v 0.541760802 0.165551215 -0.372048289
v 0.536528468 0.170455649 -0.371351302
v 0.530968308 0.17428571 -0.374613523
v 0.528006136 0.175857663 -0.374613523
v 0.524800241 0.185786262 -0.371911168
v 0.519744635 0.19104965 -0.37106359
v 0.514199555 0.19486931 -0.374316931
v 0.518405139 0.222841188 -0.364369273
v 0.519546986 0.234170243 -0.363943845
v 0.516357601 0.243746802 -0.361340195
v 0.509462774 0.244082257 -0.36594063
v 0.505973577 0.252851337 -0.363649994
v 0.500354826 0.256270796 -0.367002904
v 0.494881541 0.260040969 -0.370214105
v 0.492112726 0.261938065 -0.370071709
v 0.486640066 0.265707821 -0.373282552
v 0.482790768 0.27329883 -0.37492606
v 0.487630248 0.293042898 -0.367457896
v 0.493449748 0.323072374 -0.359820604
v 0.488059968 0.326785058 -0.362982869
v 0.485541552 0.328973979 -0.366145104
v 0.487144172 0.348660737 -0.366081923
v 0.484286815 0.350177079 -0.366081923
v 0.481251717 0.359057218 -0.370475233
v 0.501943886 0.414168537 -0.351311624
v 0.510669589 0.433810204 -0.349719375
v 0.512064874 0.436722219 -0.355169386
v 0.516734242 0.447108865 -0.357413143
v 0.517417192 0.448395759 -0.36353144
v 0.518100142 0.449682653 -0.369649738
v 0.51480484 0.441885322 -0.379716337
v 0.514781713 0.441559017 -0.386559516
v 0.509251475 0.436520904 -0.396129876
v 0.505344868 0.427350372 -0.406906307
v 0.506034374 0.428649664 -0.413083494
v 0.506723881 0.429948956 -0.419260681
v 0.507413387 0.431248248 -0.425437868
v 0.508102894 0.43254751 -0.431615055
v 0.505643129 0.434685439 -0.434703648
v 0.506332636 0.435984731 -0.440880835
v 0.507022142 0.437284023 -0.447058022
v 0.507711649 0.438583314 -0.453235209
v 0.508401155 0.439882576 -0.459412396
v 0.509090662 0.441181868 -0.465589583
v 0.511563718 0.454377472 -0.4669227
v 0.512250841 0.455672294 -0.473078609
v 0.512937963 0.456967086 -0.479234517
v 0.513625085 0.458261907 -0.485390395
v 0.511517346 0.461039871 -0.491546303
v 0.511860907 0.461687267 -0.494624257
v 0.512548029 0.462982088 -0.500780165
v 0.506436467 0.464646816 -0.504792929
v 0.504327357 0.467426598 -0.51095283
v 0.505014956 0.468722224 -0.517112732
v 0.502905846 0.471502006 -0.523272634
v 0.503249645 0.472149849 -0.526352584
v 0.507690012 0.481856436 -0.528388441
v 0.505586863 0.484628379 -0.534531057
v 0.506016254 0.493047982 -0.53787601
v 0.506358385 0.493692756 -0.540941477
v 0.509826243 0.49350518 -0.547072411
v 0.508059025 0.489312351 -0.555948913
v 0.486203909 0.448024184 -0.58426851
v 0.486899674 0.449335277 -0.590501785
v 0.487595439 0.450646371 -0.59673512
v 0.491121203 0.450455636 -0.602968395
v 0.491469085 0.451111168 -0.606085062
v 0.49216485 0.452422261 -0.612318337
v 0.492860615 0.453733355 -0.618551672
v 0.49355638 0.455044448 -0.624784946
v 0.494252145 0.456355542 -0.631018281
v 0.49355638 0.455044448 -0.624784946
v 0.492860615 0.453733355 -0.618551672
v 0.489334852 0.45392409 -0.612318337
v 0.488639086 0.452612996 -0.606085062
v 0.485113323 0.452803731 -0.599851727
v 0.500057995 0.493642449 -0.583213091
v 0.49795118 0.496419191 -0.589366257
v 0.498294592 0.497066289 -0.59244287
v 0.49274537 0.484551728 -0.605731308
v 0.490628749 0.487341404 -0.611913145
v 0.486255705 0.485159457 -0.620689332
v 0.48608464 0.484562039 -0.627877355
v 0.486776263 0.485865325 -0.634073436
v 0.487467855 0.48716858 -0.640269578
v 0.488159478 0.488471836 -0.646465659
v 0.4888511 0.489775091 -0.6526618
v 0.489542723 0.491078377 -0.658857882
v 0.490234315 0.492381632 -0.665054023
v 0.490925938 0.493684888 -0.671250105
v 0.49161756 0.494988173 -0.677446246
v 0.492309153 0.496291429 -0.683642328
v 0.493000776 0.497594684 -0.689838469
v 0.459285617 0.43101117 -0.730653405
v 0.460263848 0.44078058 -0.733183861
v 0.460969895 0.442111015 -0.739509225
v 0.461675912 0.44344148 -0.745834529
v 0.465253711 0.443247914 -0.752159834
v 0.465606749 0.443913132 -0.755322516
v 0.466312766 0.445243597 -0.76164782
v 0.467018813 0.446574032 -0.767973125
v 0.46772483 0.447904468 -0.774298489
v 0.471302658 0.447710931 -0.780623794
v 0.472008675 0.449041367 -0.786949098
v 0.472714722 0.450371802 -0.793274403
v 0.473420739 0.451702237 -0.799599767
v 0.476998568 0.451508701 -0.805925071
v 0.477704585 0.452839166 -0.812250376
v 0.478410631 0.454169601 -0.81857568
v 0.479116648 0.455500036 -0.824901044
v 0.482341439 0.454641283 -0.828063667
v 0.483047485 0.455971718 -0.834389031
v 0.483753502 0.457302153 -0.840714335
v 0.487331301 0.457108617 -0.84703964
v 0.491726965 0.458740383 -0.85228014
v 0.514462829 0.509362638 -0.825690985
v 0.520801306 0.507674694 -0.831907392
v 0.523623586 0.506177008 -0.831907392
v 0.529962063 0.504489064 -0.838123739
v 0.533131301 0.503645062 -0.841231942
v 0.536647499 0.503454864 -0.847448289
v 0.539816737 0.502610922 -0.850556493
v 0.543332875 0.502420664 -0.85677284
v 0.544026732 0.503728211 -0.862989247
v 0.54754293 0.503538013 -0.869205594
v 0.548236787 0.5048455 -0.875421941
v 0.548930705 0.506153047 -0.881638348
v 0.549624562 0.507460594 -0.887854695
v 0.547149181 0.509612083 -0.890962899
v 0.545020759 0.512417316 -0.897179246
v 0.542545378 0.514568806 -0.900287449
v 0.537594676 0.518871844 -0.906503797
v 0.537941635 0.519525588 -0.909612
v 0.533128262 0.516266704 -0.919641316
v 0.525684357 0.515000105 -0.92939502
v 0.522850871 0.516503811 -0.92939502
v 0.517977595 0.521160126 -0.931886196
v 0.515493274 0.523319423 -0.935005605
v 0.511526406 0.529967368 -0.936222255
v 0.493971556 0.506580949 -0.960194945
v 0.494322658 0.50724262 -0.9633407
v 0.485092014 0.494552821 -0.979638696
v 0.482573569 0.496741742 -0.982800961
v 0.491775066 0.524411619 -0.973028123
v 0.492307574 0.517619908 -0.983594656
v 0.492140204 0.517039597 -0.991122961
v 0.486779988 0.520731926 -0.994267881
v 0.485426217 0.525509477 -0.992129803
v 0.480456591 0.530125618 -0.991087437
v 0.474754781 0.533151448 -0.991087437
v 0.466718137 0.531184673 -0.994369864
v 0.457525194 0.526980579 -0.991956234
v 0.454663664 0.528499126 -0.991956234
v 0.45003739 0.526446402 -0.98712188
v 0.44216156 0.517547309 -0.986740708
v 0.441808462 0.516881943 -0.983577132
v 0.440413117 0.514096916 -0.978192568
v 0.445233285 0.52442795 -0.964331627
v 0.446479797 0.534750581 -0.951506734
v 0.458530962 0.567701042 -0.924208343
v 0.44956103 0.556395948 -0.928884506
v 0.438085109 0.547437549 -0.929450691
v 0.437735617 0.546778977 -0.926319599
v 0.432310432 0.543058276 -0.922543824
v 0.424082667 0.533550382 -0.922417402
v 0.423380435 0.532227099 -0.916126013
v 0.416172683 0.524877727 -0.914577663
v 0.415820658 0.524214327 -0.911423862
v 0.415116578 0.522887647 -0.90511632
v 0.413496047 0.519667029 -0.899988353
v 0.411306083 0.515269816 -0.895581126
v 0.405635238 0.511140764 -0.891935408
v 0.404928952 0.509809852 -0.885607958
v 0.404222697 0.50847894 -0.879280508
v 0.402574509 0.505206943 -0.87413913
v 0.397173315 0.501599193 -0.873699129
v 0.397724003 0.502852321 -0.865785778
v 0.397016793 0.50151968 -0.859450161
v 0.3957569 0.499051064 -0.853799403
v 0.389040142 0.492824346 -0.851318955
v 0.388331145 0.491488338 -0.844967186
v 0.38813749 0.491208762 -0.837985754
v 0.388783962 0.492651314 -0.829987109
v 0.388075888 0.491317034 -0.823643506
v 0.382965893 0.488342643 -0.822735906
v 0.382256895 0.487006634 -0.816384077
v 0.381676972 0.485934496 -0.809877753
v 0.382368028 0.487460792 -0.801857531
v 0.382009476 0.486841112 -0.795097232
v 0.3813667 0.485640317 -0.788676441
v 0.381828219 0.486696988 -0.780956089
v 0.38225162 0.487675548 -0.773291945
v 0.378669322 0.487869322 -0.766958594
v 0.378026873 0.486668706 -0.760550439
v 0.377647996 0.486005396 -0.75383842
v 0.377022684 0.484839648 -0.747413158
v 0.376315981 0.483507931 -0.741081893
v 0.377052486 0.485118419 -0.733104229
v 0.37857312 0.488327205 -0.724249959
v 0.377868205 0.486998856 -0.717934608
v 0.378953576 0.489319861 -0.709603071
v 0.379407346 0.490353227 -0.701997161
v 0.379243702 0.490127921 -0.695091784
v 0.378540456 0.488802731 -0.688791454
v 0.37809366 0.488000214 -0.682207346
v 0.377390534 0.486675262 -0.675908148
v 0.376687407 0.485350311 -0.669608951
v 0.383134604 0.498596936 -0.655500114
v 0.382649958 0.497716695 -0.648997843
v 0.381950378 0.496398419 -0.642730415
v 0.381250799 0.495080143 -0.636462927
v 0.380551219 0.493761867 -0.630195439
v 0.380722076 0.494217098 -0.622998297
v 0.380971879 0.494833082 -0.615725517
v 0.380273163 0.493516445 -0.609465837
v 0.379574478 0.492199838 -0.603206158
v 0.378875762 0.490883201 -0.596946537
v 0.378180355 0.4895733 -0.590683401
v 0.378237486 0.48979634 -0.583638251
v 0.382301629 0.498181671 -0.57245481
v 0.392306417 0.518666983 -0.555199385
v 0.39161545 0.517364979 -0.549009204
v 0.390924513 0.516062975 -0.542819023
v 0.394479573 0.52340889 -0.532317102
v 0.400519103 0.535814166 -0.519344509
v 0.387986004 0.517599344 -0.522295833
v 0.39635855 0.53470999 -0.507057965
v 0.398830563 0.539832711 -0.497774154
v 0.401059389 0.544460952 -0.488760918
v 0.394002199 0.53731066 -0.489583641
v 0.397257745 0.544004738 -0.479584754
v 0.399246871 0.548132181 -0.47085914
v 0.393114686 0.542905211 -0.467349857
v 0.395111501 0.547034681 -0.458646923
v 0.390038908 0.543957651 -0.454092145
v 0.390515894 0.544964314 -0.450253546
v 0.390898615 0.545825839 -0.443131208
v 0.390217155 0.544541717 -0.437026203
v 0.38676399 0.544728518 -0.430921197
v 0.38608253 0.543444455 -0.424816191
v 0.387745172 0.546874464 -0.41652903
v 0.387064815 0.545592427 -0.410433888
v 0.382561713 0.543661416 -0.405309707
v 0.38188085 0.542378485 -0.399210155
v 0.375972241 0.537645102 -0.395345241
v 0.375631243 0.537002504 -0.392290324
v 0.367222965 0.527302921 -0.390639275
v 0.36093241 0.521868527 -0.387032717
v 0.357455134 0.522015333 -0.384269446
v 0.34995091 0.521231949 -0.379219621
v 0.346816123 0.522066772 -0.376145244
v 0.339157969 0.520983279 -0.374582291
v 0.336148024 0.522045076 -0.374769688
v 0.330213904 0.524364352 -0.371691287
v 0.322344184 0.522928238 -0.37027806
v 0.318621993 0.522626221 -0.371070921
v 0.312925428 0.52542907 -0.367774487
v 0.304172456 0.522355318 -0.370454967
v 0.298069 0.524402976 -0.36748904
v 0.29133594 0.525251925 -0.368432581
v 0.285719693 0.528232336 -0.368432581
v 0.282566339 0.529072046 -0.365340024
v 0.275088608 0.528556883 -0.366888911
v 0.268808663 0.530312777 -0.367433637
v 0.261021882 0.529276252 -0.369219273
v 0.255239636 0.531978071 -0.36595571
v 0.249137059 0.534099996 -0.366340458
v 0.240072742 0.530794084 -0.369137049
v 0.234278888 0.53352046 -0.369257063
v 0.22885792 0.536904633 -0.365685314
v 0.225646362 0.537696064 -0.365999043
v 0.21928665 0.539402962 -0.36657232
v 0.213638172 0.542400479 -0.36657232
v 0.202791631 0.536092222 -0.370718479
v 0.19703269 0.538934529 -0.370791972
v 0.191365883 0.541941762 -0.370791972
v 0.185944647 0.54534173 -0.367203951
v 0.179769948 0.547451138 -0.367604077
v 0.174017146 0.550307214 -0.367671549
v 0.168350339 0.553314447 -0.367671549
v 0.162683532 0.556321681 -0.367671549
v 0.154918894 0.555704594 -0.369295478
v 0.149847418 0.559694529 -0.365439296
v 0.139504269 0.554701805 -0.369022697
v 0.130329281 0.551770866 -0.37168932
v 0.124179624 0.554027796 -0.372033417
v 0.118480153 0.557052374 -0.372033417
v 0.115734145 0.558670342 -0.368551761
v 0.109580643 0.56092912 -0.368895024
v 0.103881173 0.563953698 -0.368895024
v 0.0978864655 0.566486776 -0.369116068
v 0.0918356627 0.56885165 -0.365977138
v 0.0861001536 0.571818829 -0.366003156
v 0.0695350319 0.556987524 -0.37403661
v -0.568665266 -0.483339459 -0.84769845
v -0.567707121 -0.481533974 -0.856282294
v -0.569599271 -0.484402329 -0.866997838
v -0.570605695 -0.48581782 -0.877069592
v -0.581616879 -0.503636718 -0.894716382
v -0.584576428 -0.499736041 -0.903360188
v -0.593479335 -0.514060318 -0.919524491
v -0.592191458 -0.503313005 -0.92024523
v -0.607463062 -0.510925293 -0.935306311
v -0.610924125 -0.507916987 -0.939652264
v -0.623425424 -0.519407988 -0.955655158
v -0.624629319 -0.521096468 -0.966060758
v -0.623654485 -0.519259512 -0.974794149
v -0.617207289 -0.50008291 -0.976186633
v -0.620267212 -0.504891515 -0.983301282
v -0.621777117 -0.498586863 -0.990861237
v -0.629683554 -0.494391114 -0.990861237
v -0.636389971 -0.488139331 -0.99465847
v -0.6385113 -0.483265609 -0.988508105
v -0.648878694 -0.482995808 -0.990419567
v -0.668217063 -0.497165978 -0.989743173
v -0.666949332 -0.495310694 -0.98402828
v -0.664577067 -0.491857469 -0.972742796
v -0.665550828 -0.493692428 -0.964018822
v -0.666524589 -0.495527416 -0.955294847
v -0.654541135 -0.468571216 -0.93389529
v -0.661157429 -0.462580621 -0.928269804
v -0.666813731 -0.463351637 -0.924861491
v -0.691048503 -0.485045165 -0.927531779
v -0.691534996 -0.485961854 -0.923173547
v -0.697033465 -0.486580461 -0.914871275
v -0.697465479 -0.487570941 -0.905760169
v -0.70794034 -0.49576658 -0.905759037
v -0.708915591 -0.49760434 -0.897021711
v -0.714075267 -0.50595057 -0.891276479
v -0.708018303 -0.505129397 -0.880344391
v -0.697941661 -0.506147921 -0.874100924
v -0.694895208 -0.518183231 -0.872869551
v -0.698018551 -0.523245811 -0.870370388
v -0.00260830042 0.569770873 -0.36883828
v -0.00723902881 0.568561614 -0.370072126
v -0.0156515315 0.56750387 -0.371930301
v -0.0191422775 0.574021339 -0.366892576
v -0.0280810799 0.572182119 -0.369101822
v -0.0338650607 0.575251579 -0.369101822
v -0.0400045477 0.577651083 -0.365916878
v -0.0529866256 0.56970489 -0.370882481
v -0.0542291105 0.573654115 -0.36629945
v -0.062502861 0.572969317 -0.367993742
v -0.0779528469 0.561445475 -0.374577552
v -0.0841484219 0.563866913 -0.371363521
v -0.0941603482 0.560691714 -0.374189496
v -0.0932624191 0.567837119 -0.368149489
v -0.103294075 0.564670444 -0.370968491
v -0.10914354 0.567774653 -0.370968491
v -0.115352534 0.570201337 -0.367747486
v -0.122220919 0.571802378 -0.368424296
v -0.125506893 0.572677433 -0.365201622
v -0.133013934 0.573357046 -0.366292834
v -0.139231369 0.575787067 -0.363067448
v -0.146283805 0.57715714 -0.363848835
v -0.152504995 0.579588592 -0.360621512
v -0.182120547 0.548419237 -0.376021624
v -0.184217691 0.551081419 -0.371960014
v -0.191612139 0.552121818 -0.372904629
v -0.197908074 0.554582477 -0.369638532
v -0.204770103 0.556405604 -0.370232582
v -0.207169667 0.558616996 -0.366372466
v -0.214242294 0.560150027 -0.367095798
v -0.220339715 0.562896729 -0.363700569
v -0.226841137 0.565074086 -0.36056
v -0.233590946 0.566906333 -0.357572794
v -0.248191312 0.552247882 -0.364812791
v -0.264169037 0.541321158 -0.367493451
v -0.272324562 0.541514277 -0.368825793
v -0.275694937 0.542411864 -0.365520328
v -0.28169781 0.545597434 -0.365520328
v -0.288069636 0.548087776 -0.362214863
v -0.29144004 0.548985302 -0.358909398
v -0.302396894 0.545416653 -0.361907959
v -0.323617339 0.52776581 -0.367523849
v -0.330948085 0.529259443 -0.368287623
v -0.337382585 0.531774282 -0.364949644
v -0.351928115 0.52360177 -0.369999796
v -0.358745188 0.525648236 -0.366860509
v -0.363371879 0.525149524 -0.36779663
v -0.375297129 0.520623922 -0.371236354
v -0.446625173 0.437907308 -0.416962355
v -0.446238667 0.438635647 -0.420425117
v -0.448609918 0.441760927 -0.42735064
v -0.45098114 0.444886208 -0.434276164
v -0.453352362 0.448011488 -0.441201687
v -0.452965856 0.448739827 -0.444664448
v -0.452234387 0.450141847 -0.451615125
v -0.454605669 0.453267157 -0.458540767
v -0.456350714 0.451417923 -0.467003644
v -0.455576807 0.45287624 -0.473936915
v -0.455817372 0.458577573 -0.475854903
v -0.457563758 0.456734151 -0.484336793
v -0.456789851 0.458192468 -0.491270065
v -0.456015974 0.459650785 -0.498203307
v -0.456830084 0.459029913 -0.506132901
v -0.456343621 0.454308361 -0.515241981
v -0.455568016 0.455769867 -0.522190452
v -0.453168809 0.459360361 -0.528103054
v -0.458830804 0.446551293 -0.541204154
v -0.452611536 0.455164015 -0.544665396
v -0.457660764 0.443130732 -0.557456732
v -0.45727101 0.44386518 -0.560948431
v -0.447512269 0.45714587 -0.562055767
v -0.452541441 0.445120364 -0.574915409
v -0.450300694 0.44851464 -0.580931664
v -0.447811872 0.446375579 -0.588882327
v -0.447422147 0.447109997 -0.592374027
v -0.445184648 0.450502992 -0.598379195
v -0.447047681 0.442607373 -0.6092816
v -0.446266711 0.444079041 -0.61627841
v -0.445485711 0.44555074 -0.62327522
v -0.442052752 0.444641948 -0.630631924
v -0.441662163 0.445377946 -0.634131134
v -0.440356612 0.447544158 -0.640767217
v -0.441556275 0.446394265 -0.649139225
v -0.441058576 0.447491407 -0.656340182
v -0.44014743 0.443232834 -0.665485084
v -0.439364642 0.44470793 -0.672498226
v -0.438581824 0.446183056 -0.679511428
v -0.437799007 0.447658181 -0.68652457
v -0.437016189 0.449133277 -0.693537712
v -0.436766028 0.449902713 -0.700933576
v -0.43817839 0.448470086 -0.709533155
v -0.437394649 0.44994697 -0.716554701
v -0.436610907 0.451423854 -0.723576248
v -0.438691407 0.443179756 -0.735033572
v -0.438103437 0.444398105 -0.742219508
v -0.439205438 0.44337514 -0.750656724
v -0.438418865 0.444857299 -0.757703424
v -0.43913734 0.450058848 -0.759674489
v -0.438351512 0.451539665 -0.766714752
v -0.439651757 0.45026055 -0.775320232
v -0.438865215 0.451742738 -0.782366991
v -0.444306463 0.444987804 -0.79412818
v -0.443517774 0.446474046 -0.801194191
v -0.445937097 0.449662715 -0.808260202
v -0.445148379 0.451148957 -0.815326214
v -0.447567701 0.454337627 -0.822392225
v -0.447977602 0.454021931 -0.826544464
v -0.450397789 0.457211703 -0.833612978
v -0.449608803 0.458698481 -0.840681434
v -0.45202896 0.461888254 -0.847749949
v -0.452377349 0.467788011 -0.853202164
v -0.456415296 0.462733954 -0.8601982
v -0.454401225 0.471717626 -0.86379534
v -0.456819206 0.474904537 -0.870857418
v -0.456425071 0.475647241 -0.874388456
v -0.458843082 0.478834152 -0.881450593
v -0.4616552 0.48127836 -0.884981632
v -0.46841827 0.472972155 -0.898040593
v -0.466491222 0.487652183 -0.899105847
v -0.469377011 0.490236223 -0.90654099
v -0.472189724 0.492680937 -0.910072803
v -0.475002438 0.495125651 -0.913604558
v -0.477420926 0.498313189 -0.920668066
v -0.483046323 0.503202617 -0.927731633
v -0.484987885 0.506756186 -0.930564284
v -0.487799525 0.509199977 -0.934094727
v -0.498894036 0.501387417 -0.948142529
v -0.50336659 0.496207029 -0.959485531
v -0.502573729 0.497701079 -0.966588676
v -0.501780868 0.499195129 -0.973691821
v -0.504212916 0.502400577 -0.980795026
v -0.500052273 0.513923407 -0.982495368
v -0.502167881 0.511500835 -0.98809886
v -0.508210778 0.515663385 -0.991644263
v -0.514253616 0.519825935 -0.995189667
v -0.516857684 0.522302806 -0.994685829
v -0.520455778 0.529250801 -0.992367625
v -0.527449191 0.531963348 -0.992827117
v -0.536914825 0.531372011 -0.991425693
v -0.544860363 0.532675087 -0.988777757
v -0.545106411 0.532113373 -0.985110462
v -0.544314146 0.532570422 -0.976747394
v -0.552577436 0.527562499 -0.973052144
v -0.553625703 0.525754929 -0.966154397
v -0.546239078 0.53431046 -0.95258224
v -0.53278774 0.561790347 -0.933081686
v -0.533323765 0.572027624 -0.924692929
v -0.540254235 0.569146335 -0.927629948
v -0.554855883 0.562010825 -0.926414132
v -0.558440864 0.562965512 -0.922898173
v -0.562418282 0.563180685 -0.915866315
v -0.563730001 0.566877186 -0.910604835
v -0.572392464 0.561446726 -0.907160342
v -0.570924103 0.562680602 -0.898407221
v -0.57176286 0.561136663 -0.891415656
v -0.58749789 0.547483802 -0.897069514
v -0.580173433 0.550203323 -0.886310518
v -0.584563255 0.544378519 -0.881956875
v -0.577199221 0.547428906 -0.875016689
v -0.57645756 0.542223454 -0.869214714
v -0.574041784 0.539039433 -0.862159073
v -0.570560038 0.531816363 -0.860516667
v -0.565219283 0.532455504 -0.855103374
v -0.559206367 0.528313577 -0.851575553
v -0.556002975 0.526613653 -0.851575553
v -0.54959631 0.523213744 -0.851575553
v -0.543189585 0.519813836 -0.851575553
v -0.542790592 0.508704066 -0.852258801
v -0.530376136 0.513014019 -0.851575553
v -0.532486379 0.498711884 -0.854174018
v -0.533955336 0.496624112 -0.851442158
v -0.530457437 0.494772345 -0.843554139
v -0.52751404 0.492477924 -0.839921057
v -0.522955239 0.491970152 -0.83124572
v -0.525880277 0.487794042 -0.825761914
v -0.518587232 0.49098736 -0.818895042
v -0.51937598 0.489501119 -0.811828911
v -0.520164669 0.488014847 -0.804762781
v -0.507381856 0.497930557 -0.790080249
v -0.514318585 0.488671094 -0.787546098
v -0.51574719 0.486376315 -0.780959725
v -0.516534746 0.484892309 -0.773904324
v -0.517322242 0.483408302 -0.766848862
v -0.516138852 0.484418601 -0.758376837
v -0.503783166 0.499570727 -0.741923928
v -0.497197777 0.50742352 -0.729665875
v -0.520244837 0.483507663 -0.736197889
v -0.516021729 0.488357395 -0.72562176
v -0.499436617 0.508836269 -0.706404388
v -0.520782948 0.487093776 -0.711561322
v -0.503773272 0.508315921 -0.695936799
v -0.498185396 0.514884353 -0.684548497
v -0.502479315 0.514646888 -0.677835166
v -0.501420975 0.515495718 -0.669616997
v -0.506446719 0.514578342 -0.667149961
v -0.505323946 0.51550442 -0.658899605
v -0.509257257 0.515717149 -0.651945829
v -0.508775651 0.521464884 -0.642027915
v -0.512701511 0.521677256 -0.635087192
v -0.512212574 0.522044182 -0.631033421
v -0.51740098 0.526280046 -0.622848988
v -0.520935357 0.527221262 -0.619382739
v -0.522828221 0.524369895 -0.61318332
v -0.523730397 0.533907056 -0.602235079
v -0.524116457 0.533179522 -0.598776162
v -0.522873819 0.53422451 -0.590557635
v -0.527352214 0.539277732 -0.581999481
v -0.527737558 0.538551629 -0.578547239
v -0.526445508 0.545178115 -0.568341315
v -0.541465402 0.531683028 -0.568473816
v -0.531827033 0.543308556 -0.558700264
v -0.548548937 0.527744353 -0.559832394
v -0.537575901 0.540739715 -0.545588434
v -0.550444126 0.529935539 -0.544241786
v -0.551216722 0.528479695 -0.537320197
v -0.551893711 0.527141273 -0.530340075
v -0.54562968 0.534332931 -0.51913017
v -0.549147964 0.535269856 -0.515679717
v -0.553905725 0.534434676 -0.509294152
v -0.557810485 0.534645915 -0.502390802
v -0.55819577 0.53391993 -0.498939097
v -0.542248964 0.552911162 -0.4820925
v -0.554292619 0.543151736 -0.480062902
v -0.561267376 0.545323551 -0.476826251
v -0.562925518 0.542793453 -0.47046715
v -0.566868603 0.537482798 -0.465431899
v -0.565551817 0.533357441 -0.462815523
v -0.568950176 0.528701842 -0.457439274
v -0.557126522 0.537145615 -0.445090652
v -0.558674395 0.540211916 -0.436875939
v -0.559057772 0.539489508 -0.433441371
v -0.557903051 0.534926236 -0.427252263
v -0.571201205 0.518160284 -0.42745921
v -0.559604764 0.526604831 -0.419014603
v -0.561077774 0.524293602 -0.412526935
v -0.55872035 0.52118659 -0.405641794
v -0.554591417 0.520258904 -0.397770852
v -0.550427079 0.519383729 -0.389888525
v -0.552619755 0.516430616 -0.387450784
v -0.549705207 0.514016211 -0.380263209
v -0.558479011 0.502677619 -0.377765864
v -0.548685431 0.509010971 -0.370465457
v -0.549453497 0.507563591 -0.36358428
v -0.551103473 0.505024135 -0.357179582
v -0.551871836 0.503576219 -0.350295871
v -0.553892732 0.500576735 -0.344081253
v -0.552404583 0.501924455 -0.335995167
v -0.534020305 0.524210989 -0.319000125
v -0.537865698 0.524438858 -0.312166333
v -0.54095608 0.520122111 -0.306554556
v -0.538073361 0.512705088 -0.308290482
v -0.546299934 0.491163462 -0.312214911
v -0.549381971 0.481263638 -0.308161318
v -0.55693382 0.47158438 -0.308429152
v -0.52319026 0.507739067 -0.28531307
v -0.517657459 0.514184594 -0.275254369
v -0.518417597 0.512752235 -0.268444359
v -0.516113222 0.515158117 -0.260080397
v -0.513310671 0.518189251 -0.251484036
v -0.526208222 0.507312715 -0.25282377
v -0.521098852 0.513220429 -0.243077531
v -0.521858037 0.511789918 -0.236276388
v -0.519768059 0.513923824 -0.228071436
v -0.515572846 0.518693149 -0.218852848
v -0.516329467 0.517267346 -0.21207419
v -0.521630108 0.515642643 -0.20600377
v -0.520920336 0.516048968 -0.198516846
v -0.520437956 0.516171634 -0.191147253
v -0.52119416 0.514746606 -0.184372142
v -0.521950424 0.513321579 -0.177597031
v -0.522706687 0.511896491 -0.17082192
v -0.523462892 0.510471463 -0.164046809
v -0.524219155 0.509046435 -0.157271698
v -0.523180604 0.509866595 -0.149673134
v -0.519520044 0.51396811 -0.140890256
v -0.520274341 0.512546778 -0.134132951
v -0.521028578 0.511125445 -0.127375647
v -0.521782815 0.509704173 -0.120618343
v -0.522537112 0.50828284 -0.113861032
v -0.523291349 0.506861567 -0.107103728
v -0.522506297 0.507368088 -0.0996725708
v -0.522848785 0.506462872 -0.0927408636
v -0.517469108 0.507266641 -0.0846627653
v -0.519316554 0.504474044 -0.0783898532
v -0.52006954 0.503055096 -0.0716437772
v -0.520822585 0.501636147 -0.0648976937
v -0.512762725 0.505826771 -0.055731494
v -0.514749289 0.503091872 -0.0530423224
v -0.515500963 0.501675367 -0.0463080928
v -0.516252637 0.500258923 -0.0395738631
v -0.512336493 0.499251187 -0.0321778283
v -0.51308763 0.497835726 -0.0254482087
v -0.512713492 0.497839987 -0.018262893
v -0.50744921 0.498780727 -0.0138550317
v -0.508789182 0.496621519 -0.00737264007
v -0.510736883 0.49369368 -0.00112857099
v -0.511487424 0.492279351 0.00559553877
v -0.511594296 0.49715215 0.0137669081
v -0.515016973 0.498063624 0.0171236824
v -0.516034722 0.507440448 0.0225909501
v -0.52376765 0.508128822 0.0289429519
v -0.52414161 0.507424116 0.0322932489
v -0.524465501 0.506545544 0.0391544066
v -0.522171676 0.503522277 0.0458538011
v -0.519468129 0.501248658 0.0492169484
v -0.513410807 0.508392215 0.0584492311
v -0.517158449 0.508635223 0.0651405379
v -0.52056396 0.509542108 0.0684804767
v -0.523757279 0.51047802 0.0753729641
v -0.522486806 0.511830568 0.0793068483
v -0.524557531 0.514162123 0.0865914002
v -0.527715087 0.51513207 0.0934784263
v -0.527895451 0.514669955 0.0968797654
v -0.528764307 0.51848501 0.104562864
v -0.528993249 0.517724574 0.111399852
v -0.52877295 0.522880495 0.119427957
v -0.528998911 0.522123694 0.126249611
v -0.529028296 0.521611452 0.133134753
v -0.531536996 0.523363769 0.140195057
v -0.527521014 0.528109074 0.144976988
v -0.524765193 0.531053782 0.152758792
v -0.525099695 0.530163646 0.159507841
v -0.524999082 0.529813886 0.166395828
v -0.529580116 0.528974533 0.172738925
v -0.52914995 0.529031754 0.179726675
v -0.523887038 0.535081804 0.188233033
v -0.516336024 0.543971658 0.197420239
v -0.517069638 0.542589247 0.203992635
v -0.514799953 0.544932544 0.211486921
v -0.515532613 0.543551862 0.218050942
v -0.516265333 0.54217124 0.224614963
v -0.516997993 0.540790617 0.231178984
v -0.517730653 0.539409935 0.23774299
v -0.518301785 0.538229883 0.244354278
v -0.512025058 0.545553088 0.252948344
v -0.504145265 0.55486995 0.261961877
v -0.504873037 0.553498566 0.26848194
v -0.508197129 0.554383755 0.271741986
v -0.508924901 0.553012311 0.278262079
v -0.506679296 0.555329025 0.28560403
v -0.500300765 0.562774301 0.294059575
v -0.5040645 0.562859476 0.300526917
v -0.504697561 0.56160742 0.307043791
v -0.505422235 0.560241878 0.313535899
v -0.509094357 0.56044054 0.320027977
v -0.509818971 0.559074998 0.326520085
v -0.508863628 0.559788227 0.333441913
v -0.514215767 0.557908118 0.339504302
v -0.513938248 0.558015823 0.342911065
v -0.500729561 0.573866785 0.352861881
v -0.504378974 0.574064195 0.359313786
v -0.505099118 0.572707117 0.365765691
v -0.504591167 0.572865605 0.372511804
v -0.508596897 0.572621584 0.378875643
v -0.508739829 0.57221061 0.382151395
v -0.504699767 0.57671988 0.389705628
v -0.51256609 0.571717441 0.395173222
v -0.509058416 0.575563133 0.402577311
v -0.50865978 0.575584233 0.409262806
v -0.513305128 0.574543953 0.41547364
v -0.513445973 0.574135423 0.418739229
v -0.513375401 0.573751509 0.425344735
v -0.517718434 0.573083878 0.431627333
v -0.514571846 0.576473534 0.43887499
v -0.503930449 0.589064181 0.447656602
v -0.515505254 0.579506755 0.452422142
v -0.50826019 0.587915123 0.460442871
v -0.508208513 0.587508559 0.466988266
v -0.512589991 0.586766005 0.47322917
v -0.512946784 0.586093664 0.476425737
v -0.511772394 0.587060213 0.483180881
v -0.516102016 0.586380184 0.489433676
v -0.512984753 0.58971864 0.496535957
v -0.501904309 0.602794826 0.505075872
v -0.515719414 0.590744138 0.506328642
v -0.505848944 0.602321506 0.514597237
v -0.503961205 0.604156375 0.521401882
v -0.51014787 0.601180613 0.527292371
v -0.508048475 0.603268981 0.534118235
v -0.507720351 0.603198528 0.540631771
v -0.513419986 0.600817263 0.546620786
v -0.510923207 0.603385627 0.553482473
v -0.516487956 0.601169944 0.559501708
v -0.5162673 0.601201653 0.562762022
v -0.515036166 0.602225959 0.569400191
v -0.509023488 0.609066665 0.576755106
v -0.507157028 0.61586374 0.58388114
v -0.507860303 0.61453861 0.590181291
v -0.511423826 0.614731371 0.596481442
v -0.511775434 0.614068806 0.599631488
v -0.511969268 0.613361478 0.606002688
v -0.50983119 0.615483284 0.612689972
v -0.515595675 0.61300391 0.618685842
v -0.512304544 0.616517663 0.625506699
v -0.511815786 0.616637766 0.631945968
v -0.515648901 0.616492391 0.638194084
v -0.515598178 0.616080582 0.64457047
v -0.506013095 0.627206564 0.652088404
v -0.50608933 0.626643658 0.658415973
v -0.50962615 0.626834989 0.664668798
v -0.50993669 0.626223803 0.667799532
v -0.508716166 0.627227485 0.674264431
v -0.505522847 0.630616724 0.680931747
v -0.505379975 0.630319297 0.68725729
v -0.508216619 0.631343126 0.693562984
v -0.508578777 0.630434871 0.699829459
v -0.509274423 0.629123986 0.706061721
v -0.506638825 0.631836534 0.712608278
v -0.504676878 0.63373667 0.719075203
v -0.500075638 0.638826609 0.725762665
v -0.499270409 0.639331698 0.732094288
v -0.49996227 0.638027906 0.738292694
v -0.500654161 0.636724174 0.7444911
v -0.500362098 0.636609972 0.750766516
v -0.496851891 0.640387535 0.757279873
v -0.49558267 0.641456485 0.763607442
v -0.487891018 0.645424068 0.770179093
v -0.486385405 0.647017121 0.773389041
v -0.487072974 0.645721436 0.779548883
v -0.485569268 0.647082031 0.7858482
v -0.47944811 0.649179935 0.792247295
v -0.480133832 0.647887766 0.798390687
v -0.475934923 0.647894204 0.801562488
v -0.473247379 0.650707901 0.807884872
v -0.46848011 0.651195645 0.814153075
v -0.462125808 0.653634489 0.820485473
v -0.45792973 0.65367651 0.823625684
v -0.452288747 0.655273855 0.82989341
v -0.447714448 0.655577362 0.836096883
v -0.444034934 0.655013025 0.839194179
v -0.436911136 0.658480287 0.845477045
v -0.433105499 0.658091545 0.848565996
v -0.424783558 0.658213913 0.854757845
v -0.418720156 0.660649836 0.857910931
v -0.412181854 0.66369313 0.861069798
v -0.403053075 0.66511941 0.864213347
v -0.397410214 0.662000299 0.870266438
v -0.39443171 0.660640776 0.873295546
v -0.37955907 0.66937393 0.876559496
v -0.379743725 0.664049029 0.879496038
v -0.372057796 0.66377604 0.882558525
v -0.366859138 0.660364032 0.885559916
v -0.375658721 0.644036949 0.888329625
v -0.367616177 0.64421016 0.891400039
v -0.356720507 0.653211117 0.891557038
v -0.352070272 0.649095476 0.894548297
v -0.33000043 0.66744262 0.897829533
v -0.322279036 0.67229569 0.900887847
v -0.319415152 0.670690656 0.906837225
v -0.316551417 0.669283986 0.909811139
v -0.301822066 0.678195834 0.915830433
v -0.298933327 0.676850557 0.918788016
v -0.290283829 0.677926779 0.924711108
v -0.2879363 0.675886393 0.927658796
v -0.282912225 0.672425628 0.930606425
v -0.280564696 0.670385242 0.933554113
v -0.275169909 0.667230427 0.939447582
v -0.267803282 0.672029197 0.939434946
v -0.25616169 0.677217543 0.945277035
v -0.251534015 0.678246915 0.948191643
v -0.24435614 0.677738369 0.951100647
v -0.241345748 0.676627874 0.954018116
v -0.234344497 0.675911725 0.956918716
v -0.232333511 0.673466086 0.95984304
v -0.223036855 0.675877988 0.962703168
v -0.220785081 0.673766315 0.965618908
v -0.210528359 0.677537143 0.968444169
v -0.201191336 0.680105031 0.971270859
v -0.196246773 0.676699042 0.974171877
v -0.189411953 0.681066334 0.974088371
v -0.183240414 0.679371655 0.976956964
v -0.193356201 0.66022867 0.980133593
v -0.190908775 0.653328359 0.983105779
v -0.166735858 0.676764846 0.982645571
v -0.161691144 0.673389077 0.988408387
v -0.170312047 0.656283021 0.988715887
v -0.154046029 0.668753803 0.991292179
v -0.143689424 0.678081751 0.993934274
v -0.15268299 0.665131509 0.999961913
v -0.145308793 0.665051162 1.0056355
v -0.146221384 0.663611054 1.00854087
v -0.141649038 0.664831996 1.01133561
v -0.138897687 0.658237398 1.01717436
v -0.120452128 0.674125075 1.01946568
v -0.11637067 0.674712896 1.02224767
v -0.115622468 0.670544922 1.0251801
v -0.112368494 0.664850175 1.02812183
v -0.104956277 0.665127277 1.03086102
v -0.101416707 0.665247083 1.02796912
v -0.0962212533 0.662489951 1.02796912
v -0.0744830444 0.683914423 1.02434015
v -0.0656949505 0.691457987 1.02685773
v -0.0745713711 0.673131049 1.03307319
v -0.0764378309 0.665124774 1.03613722
v -0.0717689991 0.661371529 1.04182851
v -0.06555783 0.66002214 1.0445987
v -0.0504219793 0.677169025 1.04386711
v -0.0457157493 0.67380631 1.04389226
v -0.041640956 0.669374526 1.04676616
v -0.0402624011 0.661035299 1.04699278
v -0.0402208641 0.656005263 1.04432476
v -0.0201503765 0.675643146 1.04344475
v -0.0166851394 0.670321822 1.04634333
v -0.345590979 0.49551928 -0.0232503582
v -0.351950794 0.498004913 -0.0199511237
v -0.36644423 0.48971504 -0.0236431975
v -0.386679739 0.473996252 -0.0332970284
v -0.388685435 0.477174938 -0.0363480002
v -0.386822075 0.491167158 -0.0363915488
v -0.391523838 0.496344268 -0.0392943695
v -0.407676578 0.480491877 -0.0450200252
v -0.432421148 0.45373413 -0.061543569
v -0.434731007 0.456778467 -0.0682897717
v -0.437417328 0.459113359 -0.0716628805
v -0.443439454 0.457265854 -0.0800585896
v -0.447094262 0.452877939 -0.0887886062
v -0.448608845 0.456989676 -0.0951973274
v -0.449034482 0.456645161 -0.0989440009
v -0.452175647 0.452946365 -0.107485838
v -0.455938041 0.448432446 -0.116336294
v -0.455640167 0.449256361 -0.123343751
v -0.454881549 0.450685918 -0.130140305
v -0.518468201 0.361715764 -0.168474898
v -0.518550038 0.355290532 -0.162630707
v -0.515760958 0.352866411 -0.159128651
v -0.511170328 0.34670803 -0.152581111
v -0.52920717 0.322556734 -0.157209262
v -0.529412389 0.3099069 -0.152824059
v -0.529829621 0.303139091 -0.150767267
v -0.537751496 0.286100388 -0.148393735
v -0.539958775 0.276880592 -0.147126272
v -0.543825924 0.259097487 -0.144314602
v -0.540520668 0.257230222 -0.140528977
v -0.550042689 0.237824872 -0.138745829
v -0.554648578 0.225221768 -0.138495684
v -0.558074176 0.207757935 -0.135370269
v -0.562235177 0.195655838 -0.134884015
v -0.567616999 0.181850299 -0.134926289
v -0.575742841 0.16403766 -0.13232474
v -0.340697855 0.496513456 -0.022417726
v 0.483631462 -0.0118329041 0.213733658
v 0.548479199 0.17239365 0.254538774
v 0.557134748 0.211580858 0.258780211
v 0.554238021 0.212630287 0.255456924
v 0.548960626 0.216265529 0.252360642
v 0.547148466 0.228798449 0.25436601
v 0.541665852 0.223377466 0.249683321
v 0.537135899 0.228860855 0.246981755
v 0.551687002 0.281724513 0.257581532
v 0.550780892 0.295840412 0.256789118
v 0.545166433 0.298321664 0.25352186
v 0.544342399 0.3045035 0.25453639
v 0.537680089 0.304428875 0.250719547
v 0.536492884 0.317804396 0.252980977
v 0.526996195 0.310916692 0.247684747
v 0.526005328 0.316611737 0.248606205
v 0.526094258 0.332878351 0.251514256
v 0.51502043 0.322342128 0.245411441
v 0.514298081 0.336561561 0.247889265
v 0.51903832 0.363505363 0.253164977
v 0.519994497 0.381358206 0.256453007
v 0.514072001 0.382909328 0.253039151
v 0.51028955 0.389577657 0.253877729
v 0.506149411 0.395384222 0.254527122
v 0.501477182 0.399942011 0.254901022
v 0.503706992 0.420224905 0.258763045
v 0.501370966 0.429973513 0.260293901
v 0.496008396 0.432819337 0.260293901
v 0.495184928 0.445865333 0.262562394
v 0.491021782 0.451343268 0.263150454
v 0.485087514 0.452742338 0.259750515
v 0.483965427 0.457600236 0.260520905
v 0.478628039 0.460432649 0.260520905
v 0.473898113 0.464600503 0.260820538
v 0.469327211 0.469103307 0.261195958
v 0.472020805 0.48931089 0.262044728
v 0.472061992 0.496471882 0.260291666
v 0.474969834 0.488262713 0.252946436
v 0.47617498 0.49079603 0.250466377
v 0.476826668 0.492024064 0.244627997
v 0.474389821 0.493705183 0.238566443
v 0.469086766 0.496519417 0.238566443
v 0.461433411 0.494175255 0.234286666
v 0.464061856 0.492522746 0.228085101
v 0.464923799 0.494295746 0.225433886
v 0.467700094 0.492959321 0.21930331
v 0.46835357 0.494190723 0.213448778
v 0.471665084 0.494011581 0.207594246
v 0.471991837 0.494627297 0.204666987
v 0.472390294 0.495304406 0.1986752
v 0.473713577 0.490791827 0.191738039
v 0.474050462 0.491332978 0.185699657
v 0.475022703 0.493258715 0.180009708
v 0.474628329 0.484971374 0.172072396
v 0.475284666 0.486208171 0.166192234
v 0.0573514849 -0.436500251 -0.0752390698
v 0.0744383782 -0.418128073 -0.0735691488
v 0.0716306567 -0.443408787 -0.0791662633
v 0.0682215691 -0.470238864 -0.0851540342
v 0.0857854933 -0.440953672 -0.081142351
v 0.0856109485 -0.460677654 -0.0853021741
v 0.0985771716 -0.451145977 -0.0859214142
v 0.101075567 -0.465002894 -0.0885624141
v 0.105934709 -0.473595291 -0.0898298472
v 0.117013246 -0.458370715 -0.0894462094
v 0.12120872 -0.468462795 -0.0911105424
v 0.163368523 -0.391409606 -0.0740611255
v 0.163650051 -0.41024968 -0.0780317187
v 0.161273748 -0.435424089 -0.0836475939
v 0.181548432 -0.40807125 -0.0795476139
v 0.178131238 -0.435867548 -0.0858627334
v 0.196601972 -0.412431329 -0.0827688649
v 0.198139548 -0.418732852 -0.0839434266
v 0.200708836 -0.432608783 -0.0866225958
v 0.216820121 -0.414413989 -0.0848855004
v 0.220280051 -0.426199168 -0.0870241746
v 0.235471055 -0.409940302 -0.0857753083
v 0.238078862 -0.413709223 -0.0862900019
v 0.235378891 -0.440559775 -0.0923936516
v 0.254204929 -0.415179133 -0.0887372494
v 0.253780335 -0.436648071 -0.0934372321
v 0.273025721 -0.409873545 -0.0893896371
v 0.273718089 -0.428691626 -0.0934024602
v 0.288320273 -0.402851611 -0.0900517777
v 0.289957047 -0.419361591 -0.093466796
v 0.303003281 -0.407505631 -0.0933202952
v 0.302311242 -0.430049956 -0.0983419716
v 0.318151355 -0.410935879 -0.0962616652
v 0.319823742 -0.4171184 -0.0974266753
v 0.333112925 -0.404283762 -0.0969919711
v 0.334445447 -0.421883345 -0.100722916
v 0.345992088 -0.413395047 -0.101439223
v 0.340402842 -0.449247956 -0.110045768
v 0.487130165 -0.0753212348 -0.00628364133
v 0.483292043 -0.0751136094 0.000501947536
v 0.49034673 -0.0561391525 0.0126263415
v 0.482904524 -0.0653754175 0.0169197768
v 0.486154199 -0.0566422381 0.0227460731
v 0.486248851 -0.0558543429 0.0300591923
v 0.481585115 -0.0578548387 0.0362390466
v 0.485586017 -0.0469347313 0.0461052917
v 0.480278105 -0.0506248362 0.0518505611
v 0.479902476 -0.0513326526 0.0552157201
v 0.480808645 -0.0484596416 0.0630092472
v 0.480844557 -0.0478394367 0.070231542
v 0.488313884 -0.0279913917 0.0821350962
v 0.483954817 -0.0292883422 0.0884493738
v 0.484054655 -0.0285128448 0.0956531167
v 0.483976752 -0.0281963628 0.102738872
v 0.483231932 -0.0295999292 0.109411851
v 0.479457468 -0.0293957498 0.116084829
v 0.478712648 -0.0307993162 0.122757807
v 0.477967799 -0.0322028846 0.129430786
v 0.484667122 -0.0144763552 0.14046669
v 0.485818475 -0.0110105835 0.14820224
v 0.486368805 -0.00909028482 0.155572072
v 0.486843258 -0.00736581534 0.162885174
v 0.486972421 -0.00652911002 0.16999048
v 0.486493915 -0.00725347735 0.176746458
v 0.486191928 -0.00752480468 0.183597684
v 0.485652477 -0.00840613432 0.190313846
v 0.484915078 -0.00979568437 0.196920186
v 0.484213084 -0.0110943168 0.203545645
v 0.484000027 -0.0111384159 0.210431859
g path_000000
l 10 9 8 7 6 5 4 3 2 1 1350 1349
g path_000001
l 11 12 13 14 15 16 17 18 19 20 21 22 23 24 25 26 27 28 29 30 31 32 33 34
g path_000002
l 35 36 37 38 39 40 41 42 43 44 45 46 47 48 49 50 51 52
g path_000003
l 53 54 55 56 57 58 59 60 61 62 63 64 65 66 67 68 69 70 71 72 73 74 75 76 77 78 79 80 81 82 83 84 85 86 87 88 89 90 91 92 93 94 95 96 97 98 99 100 101 102 103 104 105 106 107 108 109 110 111 112 113 114 115 116 117 118 119 120 121 122 123 124 125 126 127 128 129 130 131 132 133 134 135 136 137 138 139 140 141 142 143 144 145 146 147 148 149 150 151 152 153 154 155 156 157 158 159 160 161 162 163 164 165 166 167 168 169
g path_000004
l 170 171
g path_000005
l 172 173 174 175 176 177 178
g path_000006
l 179 180
g path_000007
l 181 182 183
g path_000008
l 184 185 186 187 188 189 190 191 192 193
g path_000009
l 194 195
g path_000010
l 196 197 198 199 200
g path_000011
l 201 202 203 204
g path_000012
l 205 206 207 208 209 210 211 212 213 214 215 216 217 218 219
g path_000013
l 220 221
g path_000014
l 222 223 224 225 226 227 228 229 230 231 232 233
g path_000015
l 234 235 236 237 238 239 240 241 242 243 244 245 246 247 248 249 250 251 252
g path_000016
l 253 254 255 256
g path_000017
l 257 258 259 260 261 262 263 264 265 266 267 268 269 270 271 272 273
g path_000018
l 274 275 276 277 278 279 280 281 282 283 284 285 286 287 288 289 290 291 292 293 294 295
g path_000019
l 296 297 298 299 300 301 302 303 304
g path_000020
l 305 306
g path_000021
l 307 308 309 310 311 312 313 314 315 316 317
g path_000022
l 318 319
g path_000023
l 320 321 322 323 324 325 326 327 328 329 330 331 332 333 334 335 336 337 338 339 340 341
g path_000024
l 342 343 344 345 346 347 348 349 350 351 352 353 354 355 356 357 358 359 360 361 362 363 364 365 366 367 368 369 370 371 372 373 374 375 376 377 378 379 380 381 382 383 384 385 386 387 388 389 390 391 392 393 394 395 396 397 398 399
g path_000025
l 400 401 402 403 404 405
g path_000026
l 406 407 408 409 410 411 412 413 414 415 416 417 418 419 420 421 422 423 424 425 426 427 428 429 430 431 432 433 434 435 436 437 438 439 440 441 442 443 444 445 446 447 448 449 450 451 452 453 454 455 456 457 458 459 460 461 462 463 464 465 466 467 468 469 470 471 472 473 474 475 476 477 478 479 480 481 482 483 484 485 486 487 488 489
g path_000027
l 491 492 493 494 495
g path_000028
l 496 497 498 499 500 501 502
g path_000029
l 503 504 505 506 507
g path_000030
l 508 509 510 511 512 513
g path_000031
l 514 515 516 517 518 519 520 521
g path_000032
l 522 523 524 525 526 527 528 529 530 531
g path_000033
l 533 534 535
g path_000034
l 536 537 538
g path_000035
l 540 541 542 543 544 545 546 547 548 549 550 551 552 553 554 555 556 557 558 559 560 561 562 563 564 565 566 567 568 569 570 571 572 573 574 575 576
g path_000036
l 577 578 579 580 581 582 583 584 585 586 587 588 589 590
g path_000037
l 591 592 593
g path_000038
l 594 595 596 597 598 599 600 601 602 603 604 605 606 607
g path_000039
l 608 609 610 611 612 613 614 615 616 617 618 619 620 621 622 623 624 625 626 627 628 629
g path_000040
l 630 631 632 633 634 635 636 637 638 639 640 641 642 643 644 645 646 647 648 649 650 651 652 653
g path_000041
l 654 655
g path_000042
l 656 657
g path_000043
l 658 659 660 661 662 663 664 665 666 667 668 669 670 671 672 673
g path_000044
l 674 675 676 677 678 679 680 681 682 683 684 685 686 687 688 689 690 691 692 693 694 695 696 697 698 699 700 701 702 703 704 705 706 707 708 709 710 711 712 713 714 715 716 717 718 719 720 721
g path_000045
l 722 723 724 725 726 727 728 729 730 731 732 733 734
g path_000046
l 735 736 737 738 739
g path_000047
l 741 742 743 744 745 746 747 748 749 750 751 752 753 754 755 756 757 758 759 760 761 762 763 764 765 766 767 768 769 770 771 772 773 774 775 776 777 778 779 780 781 782 783 784 785 786 787 788 789 790 791 792 793 794 795 796 797 798 799 800 801 802 803 804 805 806 807
g path_000048
l 809 810 811 812
g path_000049
l 813 814 815 816 817 818 819 820 821 822 823 824 825 826 827 828 829 830 831 832 833
g path_000050
l 834 835 836
g path_000051
l 837 838 839 840 841 842 843 844 845 846 847
g path_000052
l 848 849 850 851 852 853 854 855 856 857
g path_000053
l 858 859 860 861 862 863 864 865 866 867 868 869 870
g path_000054
l 871 872 873 874 875 876 877 878 879 880
g path_000055
l 881 882 883 884 885 886 887 888
g path_000056
l 889 890 891 892 893 894 895
g path_000057
l 896 897 898 899 900 901 902 903 904 905 906 907 908 909 910 911 912 913 914 915 916 917 918 919 920 921 922 923 924 925 926 927 928 929 930 931 932 933 934 935 936 937 938 939 940 941 942 943 944 945 946 947 948 949 950 951 952 953 954 955 956 957 958 959 960 961 962 963 964 965 966 967 968 969 970 971 972 973 974 975 976 977 978 979 980 981 982 983 984 985 986 987 988 989 990 991 992
g path_000058
l 993 994 995 996 997 998 999 1000 1001 1002 1003 1004 1005 1006 1007 1008 1009 1010 1011 1012 1013 1014 1015 1016 1017 1018 1019 1020 1021 1022 1023 1024 1025
g path_000059
l 1026 1027 1028 1029 1030 1031
g path_000060
l 1032 1033
g path_000061
l 1034 1035
g path_000062
l 1038 1039 1040 1041 1042 1043 1044 1045 1046 1047 1048 1049 1050 1051 1052 1053 1054 1055 1056 1057 1058
g path_000063
l 1060 1061 1062 1063 1064 1065 1066 1067 1068
g path_000064
l 1069 1070 1071 1072 1073 1074 1075 1076 1077 1078 1079
g path_000065
l 1080 1081 1082 1083 1084 1085 1086 1087 1088 1089 1090 1091 1092 1093 1094
g path_000066
l 1095 1096 1097 1098
g path_000067
l 1099 1100 1101
g path_000068
l 1102 1103 1104 1105 1106 1107 1108 1109 1110 1111 1112 1113 1114 1115 1116 1117 1118 1119 1120 1121 1122 1123 1124 1125 1126 1127 1128 1129 1130 1131 1132 1133 1134 1135 1136 1137 1138 1139 1140 1141 1142 1143 1144 1145 1146 1147 1148 1149 1150 1151 1152 1153 1154 1155 1156 1157 1158 1159 1160 1161 1162 1163 1164 1165 1166 1167 1168 1169 1170 1171 1172 1173 1174 1175 1176 1177 1178 1179 1180 1181 1182 1183 1184 1185 1186 1187 1188 1189 1190 1191 1192 1193 1194 1195 1196
g path_000069
l 1197 1198 1199 1200 1201 1202 1203 1204 1205 1206 1207 1208 1209 1210 1211 1212 1213 1214 1215 1216 1217 1218 1219 1220 1221 1222 1223 1224 1225 1226 1227 1228 1229 1230 1231 1232 1233 1234 1235 1236 1237 1238 1239 1240 1241 1242 1243 1244 1245 1246 1247 1248 1249 1250 1251 1252 1253 1254 1255 1256 1257 1258 1259 1260 1261 1262 1263 1264 1265 1266 1267 1268 1269 1270 1271 1272 1273 1274 1275 1276 1277 1278 1279 1280 1281 1282 1283 1284 1285 1286 1287 1288 1289
g path_000070
l 1290 1291 1292 1293
g path_000071
l 1294 1295 1296 1297 1298 1299 1300 1301 1302 1303 1304 1305 1306 1307 1308 1309 1310 1311 1312 1313 1314 1315 1316 1317 1318
g path_000072
l 1319 1320
g path_000073
l 1321 1322
g path_000074
l 1324 1325 1326 1327 1328 1329 1330
g path_000075
l 1331 1332 1333 1334 1335 1336 1337
g path_000076
l 1338 1339
g path_000077
l 1340 1341 1342 1343
g path_000078
l 1344 1345 1346 1347 1348
g path_000079
l 1353 1352 1351 1387
g path_000080
l 1354 1355 1356 1357
g path_000081
l 1359 1360 1361 1362 1363 1364 1365 1366 1367 1368 1369
g path_000082
l 1370 1371 1372 1373
g path_000083
l 1374 1375 1376 1377 1378 1379 1380 1381 1382 1383 1384 1385 1386
g path_000084
l 1388 1511 1510 1509 1508 1507 1506 1505 1504 1503 1502 1501
g path_000085
l 1390 1391 1392 1393 1394 1395
g path_000086
l 1396 1397 1398 1399 1400 1401 1402 1403 1404 1405 1406
g path_000087
l 1407 1408 1409 1410 1411 1412
g path_000088
l 1413 1414 1415 1416 1417 1418 1419 1420 1421 1422
g path_000089
l 1423 1424 1425 1426 1427 1428 1429 1430 1431 1432 1433 1434 1435 1436 1437 1438 1439 1440 1441 1442
g path_000090
l 1447 1448 1449 1450 1451 1452 1453
g path_000091
l 1454 1455
g path_000092
l 1459 1460 1461
g path_000093
l 1462 1463 1464 1465
g path_000094
l 1467 1468
g path_000095
l 1469 1470
g path_000096
l 1471 1472 1473 1474
g path_000097
l 1475 1476 1477 1478 1479
g path_000098
l 1481 1482
g path_000099
l 1483 1484 1485 1486 1487 1488 1489 1490 1491 1492
g path_000100
l 1493 1494 1495 1496 1497 1498 1499 1500
