# Fixed world centers; Z up; paths immutable
v -0.382231981 -0.581020236 0.99579376
v -0.379389554 -0.587436914 0.987691879
v -0.380373895 -0.595389664 0.97925812
v -0.379724622 -0.5990569 0.974150658
v -0.378329039 -0.602320433 0.970009327
v -0.381970286 -0.6118415 0.957977533
v -0.377801389 -0.617665946 0.951420784
v -0.377438158 -0.621561587 0.94584018
v -0.376456469 -0.625118852 0.941064656
v -0.379296124 -0.634340584 0.92991668
v -0.376530975 -0.641074836 0.921331465
v -0.376320779 -0.645133376 0.915441155
v -0.376347989 -0.652849376 0.907938004
v -0.375617623 -0.656640649 0.902703762
v -0.375009149 -0.660515487 0.897286534
v -0.376200408 -0.668994963 0.888117075
v -0.378095895 -0.678679407 0.872918487
v -0.379188389 -0.683637142 0.865078032
v -0.378416479 -0.687499523 0.859764993
v -0.382285804 -0.697751164 0.846732676
v -0.377622098 -0.70367986 0.840286791
v -0.377687871 -0.707322061 0.838866293
v -0.378623694 -0.716714501 0.824600816
v -0.381103098 -0.722674906 0.814627826
v -0.380213618 -0.726583481 0.809315503
v -0.380760312 -0.73504895 0.800615549
v -0.378779948 -0.742823601 0.790162444
v -0.37693128 -0.74619031 0.786118567
v -0.375103951 -0.753262997 0.780650854
v -0.373643517 -0.756898642 0.77602756
v -0.371771097 -0.764870584 0.765243471
v -0.374994397 -0.770643771 0.759257019
v -0.377092391 -0.781257927 0.74268645
v -0.378379852 -0.786752641 0.734010518
v -0.380277425 -0.796432316 0.722994566
v -0.379027188 -0.800328076 0.717897892
v -0.376156598 -0.807911634 0.708187997
v -0.377321035 -0.812470138 0.705055296
v -0.37961489 -0.823552549 0.687744021
v -0.377835393 -0.827175856 0.683306515
v -0.369900227 -0.827684641 0.682276189
v -0.360220969 -0.827012002 0.683828115
v -0.382108331 -0.845611989 0.65012598
v -0.383425534 -0.853211939 0.650865138
v -0.3813743 -0.859561741 0.650897741
v -0.383521318 -0.863856912 0.651909411
v -0.381491959 -0.870222688 0.651909411
v -0.382668495 -0.877733707 0.652856588
v -0.380537421 -0.884030104 0.653005838
v -0.381474465 -0.891377091 0.654305577
v -0.382546455 -0.898819327 0.65540719
v -0.381531507 -0.90200305 0.65540719
v -0.382864863 -0.909631848 0.656125367
v -0.38083449 -0.916000903 0.656125367
v -0.383147418 -0.920423925 0.656896651
v -0.381116599 -0.92679441 0.656896651
v -0.382381588 -0.934383154 0.657716691
v -0.380350351 -0.94075495 0.657716691
v -0.382529914 -0.945088208 0.658685744
v -0.380964816 -0.951800466 0.65800041
v -0.372046858 -0.951584458 0.658293366
v -0.362277657 -0.950730145 0.659875154
v -0.357797801 -0.952555299 0.65932709
v -0.351044238 -0.953903377 0.656462729
v -0.341713071 -0.953336418 0.657461047
v -0.337967426 -0.951768935 0.657350659
v -0.329541445 -0.951856971 0.65703094
v -0.321253955 -0.95203799 0.656523705
v -0.319164187 -0.952942252 0.648147821
v -0.319728553 -0.955852985 0.635678053
v -0.32093361 -0.94886905 0.636935353
v -0.319452882 -0.945053816 0.6349231
v -0.32057032 -0.938010931 0.636313856
v -0.319923908 -0.930879414 0.634577334
v -0.318920553 -0.923483729 0.633385777
v -0.319831342 -0.920226574 0.63354367
v -0.318986565 -0.912948549 0.632110119
v -0.320822418 -0.906446576 0.632403851
v -0.320169955 -0.899308324 0.630676568
v -0.319325179 -0.892030299 0.629243016
v -0.320023865 -0.888622701 0.629725337
v -0.32055974 -0.881195784 0.63200438
v -0.31996724 -0.874103248 0.630187631
v -0.319123149 -0.866831005 0.628755212
v -0.320136428 -0.863652408 0.628755212
v -0.319292337 -0.856380105 0.627322793
v -0.320829213 -0.849681079 0.628071666
v -0.282859236 -0.820425332 0.681946993
v -0.27479884 -0.820746779 0.681337178
v -0.268174708 -0.822069049 0.678527713
v -0.264365822 -0.824288726 0.677122951
v -0.25774169 -0.825610995 0.674313486
v -0.248340353 -0.824956298 0.675843656
v -0.242073998 -0.82159853 0.679850698
v -0.255750388 -0.840157151 0.64945662
v -0.25352183 -0.846267164 0.64981544
v -0.254943877 -0.853870988 0.650304079
v -0.25616312 -0.861331284 0.651112556
v -0.254908204 -0.864284098 0.651511967
v -0.256024987 -0.871671736 0.652481616
v -0.253693789 -0.877705514 0.652999938
v -0.255857944 -0.881991208 0.653895974
v -0.253779262 -0.888210773 0.654017806
v -0.255254567 -0.895870447 0.654425621
v -0.25303337 -0.901984751 0.654770195
v -0.255248159 -0.906313837 0.655588567
v -0.253142983 -0.912515283 0.655750632
v -0.254588038 -0.920162797 0.656207144
v -0.255796343 -0.927633822 0.657036245
v -0.253629476 -0.933790505 0.657293558
v -0.2558752 -0.938151062 0.658066571
v -0.253872156 -0.944434404 0.658066571
v -0.255732477 -0.952418447 0.657875717
v -0.25088653 -0.953874111 0.658036888
v -0.242260486 -0.953681707 0.658279836
v -0.233073428 -0.953034937 0.659439087
v -0.225239173 -0.953438163 0.658481777
v -0.222410277 -0.952536345 0.65707022
v -0.214658186 -0.952995598 0.656001925
v -0.208746657 -0.953563511 0.657940865
v -0.200780585 -0.953833282 0.657253325
v -0.193144277 -0.954358459 0.656050861
v -0.192212403 -0.951052547 0.653194427
v -0.191875905 -0.953517854 0.641732514
v -0.193360463 -0.948201895 0.636542857
v -0.192279726 -0.944762111 0.633899868
v -0.193230659 -0.937650204 0.635613084
v -0.19227843 -0.930378795 0.63439393
v -0.193649217 -0.92361033 0.635420024
v -0.192248195 -0.919910371 0.633302391
v -0.193533897 -0.913079858 0.634467363
v -0.192983389 -0.906125963 0.632593811
v -0.192180663 -0.898974895 0.631131649
v -0.19368872 -0.892325222 0.631933749
v -0.192347571 -0.888664663 0.629718482
v -0.193656802 -0.881865919 0.630845666
v -0.193023056 -0.874845266 0.629108191
v -0.191991925 -0.867522478 0.628020406
v -0.19289498 -0.864315212 0.628177822
v -0.194327205 -0.857621372 0.629102826
v -0.193495065 -0.850452244 0.627690732
v -0.153564036 -0.819199979 0.682741702
v -0.153121129 -0.823869109 0.675907195
v -0.144238979 -0.823415518 0.676997781
v -0.136366829 -0.823708951 0.676446974
v -0.13161543 -0.821329236 0.678350091
v -0.124901786 -0.822485864 0.67590332
v -0.12134254 -0.824816823 0.674200594
v -0.116822645 -0.827653527 0.668063164
v -0.126362309 -0.84266156 0.648684978
v -0.12749736 -0.849980593 0.649550557
v -0.128515705 -0.857211113 0.650613368
v -0.127385542 -0.860192537 0.65085566
v -0.128611565 -0.867587149 0.651569486
v -0.126269817 -0.873484671 0.652190626
v -0.128555626 -0.877846301 0.652781069
v -0.126213923 -0.883742213 0.653401732
v -0.127404496 -0.891114593 0.65417558
v -0.12855114 -0.898454487 0.65502429
v -0.126317635 -0.904434681 0.655461907
v -0.128731951 -0.908909142 0.655838847
v -0.126758322 -0.915100217 0.655838847
v -0.127920061 -0.922459304 0.656663418
v -0.12587972 -0.928597152 0.656774938
v -0.128055617 -0.932885528 0.657554507
v -0.126081288 -0.939078808 0.657554507
v -0.127316684 -0.946505964 0.658256471
v -0.125501066 -0.952833295 0.657988966
v -0.116909608 -0.952465832 0.658589244
v -0.11207024 -0.953779817 0.658987224
v -0.103111893 -0.953076839 0.660260677
v -0.0965496227 -0.954386711 0.657477438
v -0.0930139646 -0.952863872 0.657364607
v -0.0854894221 -0.953350306 0.656243086
v -0.0802404508 -0.954281032 0.6574049
v -0.0720585957 -0.954185545 0.657454908
v -0.0664962754 -0.952412367 0.654679418
v -0.0662944615 -0.955267251 0.642534614
v -0.0644254163 -0.952751458 0.634968698
v -0.0659806281 -0.946205139 0.635700107
v -0.065143764 -0.939114809 0.634333193
v -0.065865837 -0.935796559 0.634795964
v -0.0650445148 -0.928720593 0.633402169
v -0.0664225519 -0.922033906 0.634442866
v -0.065209128 -0.918551862 0.632008433
v -0.0665387809 -0.91182816 0.633134305
v -0.0655305535 -0.904598713 0.632069588
v -0.0664517358 -0.897545218 0.633909464
v -0.0660089329 -0.890788853 0.631854773
v -0.0650103837 -0.883572817 0.630774677
v -0.0659870729 -0.880476236 0.63078922
v -0.0651748329 -0.87341398 0.629382312
v -0.0668909773 -0.867028534 0.629827619
v -0.0653392896 -0.863255203 0.627989948
v -0.0665711686 -0.856481075 0.629285455
v -0.0659153685 -0.84954685 0.627604902
v -0.0311590452 -0.819193423 0.684194148
v -0.0224752221 -0.818671703 0.685435474
v -0.0160464235 -0.819954991 0.6827088
v -0.0145825967 -0.823920548 0.677368402
v -0.00592102157 -0.82339251 0.678618908
v 0.00050777744 -0.824675739 0.675892234
v 0.00871186703 -0.819317997 0.684390664
v 0.0153170433 -0.820434034 0.682031214
v 0.0217236932 -0.821712911 0.679313958
v 0.0252110288 -0.824023068 0.677596748
v 0.0316184536 -0.825302064 0.674879193
v 0.0382208563 -0.826417387 0.672520876
v 0.042355258 -0.824363232 0.673768938
v 0.0487562828 -0.825640976 0.671054125
v 0.0516853109 -0.828423083 0.668298066
v 0.0646324977 -0.820313036 0.679605722
v 0.0712003931 -0.821419656 0.677266836
v 0.0615368932 -0.83883208 0.64899677
v 0.0635644644 -0.844799697 0.649181902
v 0.0613658652 -0.849069595 0.649734914
v 0.0635927171 -0.854864776 0.650295079
v 0.0624315701 -0.862101376 0.650985301
v 0.0613043681 -0.869310915 0.65174067
v 0.0623096004 -0.872303247 0.65181613
v 0.0644988492 -0.878128827 0.65230459
v 0.0634161755 -0.885302544 0.653143406
v 0.0625201538 -0.892311573 0.654334545
v 0.0645419359 -0.898284912 0.654506743
v 0.0624104105 -0.902510345 0.655189276
v 0.064523235 -0.908402085 0.6555323
v 0.0631697178 -0.915829062 0.655862749
v 0.062097501 -0.923003554 0.656724095
v 0.0630632564 -0.92603302 0.656724095
v 0.062012352 -0.933190703 0.657626212
v 0.0641494021 -0.939060867 0.65801245
v 0.061953485 -0.943356633 0.658577979
v 0.0638855621 -0.949417353 0.658577979
v 0.0694422275 -0.953774154 0.658888161
v 0.0767893121 -0.954201341 0.657886803
v 0.0859739706 -0.952881753 0.660406411
v 0.0887028649 -0.952011824 0.659044743
v 0.0959011912 -0.952553749 0.657814205
v 0.100003272 -0.954310894 0.657246292
v 0.107881941 -0.954187214 0.657356203
v 0.115696236 -0.954111516 0.657369614
v 0.12353339 -0.953999937 0.657455742
v 0.123331122 -0.955970168 0.650373042
v 0.125207275 -0.953751564 0.64251709
v 0.124733418 -0.952030957 0.636741757
v 0.125191659 -0.94544071 0.634696662
v 0.124226727 -0.942413807 0.634696662
v 0.124816149 -0.935694039 0.632909477
v 0.123800479 -0.928767383 0.634711742
v 0.124458589 -0.921983242 0.633061588
v 0.124853507 -0.915446877 0.630891085
v 0.124442905 -0.9118976 0.63198483
v 0.12469241 -0.905495584 0.629527152
v 0.124030069 -0.898258984 0.632027447
v 0.125534713 -0.894608915 0.630145967
v 0.124243803 -0.8879686 0.631404102
v 0.124946214 -0.881144166 0.629843175
v 0.123421393 -0.87472719 0.630638123
v 0.125121787 -0.870894611 0.629145563
v 0.123888336 -0.864216447 0.630515039
v 0.124514371 -0.857463539 0.628804982
v 0.124799997 -0.851016581 0.626421094
v 0.1533705 -0.822954059 0.678150415
v 0.159823343 -0.824084938 0.675756812
v 0.166498557 -0.825011909 0.673811138
v 0.170287848 -0.823146343 0.674696028
v 0.178962603 -0.822230756 0.676802456
v 0.186127692 -0.822683871 0.675899148
v 0.189744458 -0.82479161 0.674565256
v 0.196699187 -0.825428724 0.673255801
v 0.189330071 -0.837795675 0.649413526
v 0.191119984 -0.84386158 0.649186432
v 0.190250874 -0.850755334 0.650371194
v 0.188981727 -0.858028889 0.650737107
v 0.189964458 -0.860980809 0.650802672
v 0.188785791 -0.868173063 0.651355028
v 0.190980047 -0.873858571 0.651954234
v 0.189997718 -0.880865633 0.652908623
v 0.192023948 -0.886710703 0.653163731
v 0.190054297 -0.890772223 0.654043615
v 0.192170411 -0.896529198 0.654482663
v 0.191169828 -0.903557599 0.655399799
v 0.189842716 -0.910909176 0.655649841
v 0.190794021 -0.913893342 0.655649841
v 0.189876109 -0.920845151 0.656738102
v 0.191852942 -0.92674011 0.656889796
v 0.190701574 -0.933927 0.657500505
v 0.189653352 -0.941013157 0.658323467
v 0.190682992 -0.943920135 0.65848279
v 0.18887417 -0.951778412 0.657752514
v 0.193444461 -0.95297128 0.658291042
v 0.201411754 -0.952580452 0.658942819
v 0.209377199 -0.952174127 0.659626245
v 0.217018247 -0.952084959 0.659670293
v 0.220328674 -0.950584769 0.659628153
v 0.227046192 -0.951435387 0.657777488
v 0.231445834 -0.952754617 0.658048272
v 0.23888886 -0.952834249 0.657752275
v 0.245886847 -0.953370333 0.656535625
v 0.250624031 -0.954309642 0.657565415
v 0.251262188 -0.953629613 0.646808624
v 0.251799852 -0.953055978 0.635769784
v 0.251167536 -0.94973731 0.636454225
v 0.251874268 -0.943004668 0.634927273
v 0.252666175 -0.936182082 0.633583426
v 0.252144039 -0.932752669 0.63450557
v 0.252507448 -0.926377475 0.63223964
v 0.251058906 -0.9199453 0.63321352
v 0.251826704 -0.913149476 0.631818712
v 0.250507087 -0.90659219 0.633068323
v 0.252172381 -0.902832091 0.631561756
v 0.250453085 -0.896688282 0.631950498
v 0.251244366 -0.88987112 0.630607724
v 0.252035648 -0.883053958 0.629264951
v 0.251319796 -0.879838943 0.629769087
v 0.252343893 -0.872789681 0.62892884
v 0.25077194 -0.866506696 0.629633307
v 0.252185345 -0.862996161 0.627586544
v 0.250918806 -0.856413543 0.628949165
v 0.251404256 -0.849902153 0.62694931
v 0.280281842 -0.824998915 0.675176382
v 0.282925934 -0.824155986 0.673856974
v 0.289147437 -0.825397909 0.671218276
v 0.293025851 -0.827182353 0.670558214
v 0.30104816 -0.826616049 0.671889186
v 0.315404892 -0.819639623 0.687291682
v 0.320927143 -0.823551357 0.688307405
v 0.324030042 -0.826072097 0.686008036
v 0.330643773 -0.826850116 0.684382617
v 0.316357553 -0.845403373 0.650248945
v 0.318232656 -0.851273775 0.650255203
v 0.317257941 -0.858194947 0.651141167
v 0.316253871 -0.865148485 0.651962221
v 0.318325162 -0.870815337 0.652407765
v 0.316304684 -0.874917746 0.653049409
v 0.31820339 -0.880766213 0.653106987
v 0.317387015 -0.887525856 0.654349625
v 0.316250414 -0.894627094 0.65487504
v 0.31718719 -0.897565722 0.65487504
v 0.31906724 -0.903435886 0.654889584
v 0.318141401 -0.91031599 0.655887663
v 0.316878587 -0.917562485 0.656131387
v 0.317924857 -0.92038399 0.656375885
v 0.316969216 -0.927300632 0.657308757
v 0.318870932 -0.933151007 0.657369792
v 0.317808837 -0.940187335 0.658064306
v 0.316847146 -0.947115123 0.658984959
v 0.317897707 -0.949930906 0.65923804
v 0.321671486 -0.951824307 0.658317924
v 0.329212487 -0.95162493 0.658588052
v 0.333870471 -0.952515662 0.659686267
v 0.34117654 -0.952552795 0.659476817
v 0.348669827 -0.952363491 0.659724355
v 0.354896039 -0.953606308 0.657083631
v 0.357996523 -0.952242613 0.656813443
v 0.365718603 -0.951760352 0.657655776
v 0.369293272 -0.953843534 0.65633738
v 0.376859963 -0.953514874 0.656866848
v 0.378465146 -0.952098727 0.647774518
v 0.378419757 -0.954389453 0.640101373
v 0.37869826 -0.952280879 0.635380387
v 0.379478544 -0.945558488 0.63405627
v 0.378363341 -0.938808262 0.635849118
v 0.378889591 -0.932380974 0.633925557
v 0.379508853 -0.925845027 0.632221103
v 0.379114896 -0.922289073 0.633505642
v 0.379894644 -0.915571392 0.632182479
v 0.37859723 -0.909050107 0.633542597
v 0.379738361 -0.905917525 0.630859315
v 0.37876752 -0.899034381 0.632993102
v 0.379402369 -0.892482698 0.631328702
v 0.37873292 -0.885279357 0.63417232
v 0.378620028 -0.879558027 0.630739212
v 0.379234374 -0.873027444 0.629026413
v 0.378727913 -0.869622231 0.630042851
v 0.379439771 -0.862984955 0.628561974
v 0.378451616 -0.85615921 0.630651414
v 0.379848868 -0.852726817 0.628581524
v 0.378425628 -0.846381187 0.629638612
v 0.378910869 -0.839990675 0.627622485
v 0.379549444 -0.83343327 0.625969052
v 0.378754824 -0.83035183 0.626301408
v 0.379393369 -0.823793411 0.624647796
v 0.378222287 -0.81719178 0.626303911
v 0.378795236 -0.810703397 0.624496102
v 0.379573554 -0.803997993 0.623175383
v 0.379052103 -0.800636053 0.624155998
v 0.379890651 -0.793869972 0.622979522
v 0.378814697 -0.787192047 0.62485981
v 0.379734725 -0.784237385 0.621659279
v 0.378685117 -0.777538538 0.623602688
v 0.379084557 -0.771226108 0.621384382
v 0.37977156 -0.764617801 0.619848669
v 0.378429532 -0.758229196 0.621097147
v 0.379266918 -0.755339742 0.617698491
v 0.00946089718 -1.13818896 -0.285364151
v 0.0139506739 -1.14105451 -0.287450761
v 0.0237120446 -1.14094245 -0.286812901
v 0.0329547897 -1.13630533 -0.284449369
v 0.0410138816 -1.13791394 -0.287867457
v 0.0478450805 -1.13833117 -0.284190774
v 0.0568767972 -1.13890922 -0.285178691
v 0.0605571233 -1.14003944 -0.296412647
v 0.0612307563 -1.13677013 -0.301951677
v 0.0671644285 -1.13555372 -0.30767715
v 0.0767982453 -1.13551438 -0.307177991
v 0.0822392553 -1.1373626 -0.306861371
v 0.0913374424 -1.13786209 -0.307646811
v 0.101855598 -1.1368221 -0.304779291
v 0.111189961 -1.13702917 -0.304872334
v 0.115636408 -1.13482332 -0.303921878
v 0.123665564 -1.13642597 -0.307327271
v 0.128282383 -1.13911653 -0.309029967
v 0.136311531 -1.14071929 -0.312435329
v 0.146913454 -1.13946998 -0.309075773
v 0.156116232 -1.13974535 -0.309333801
v 0.160871774 -1.13714981 -0.307446033
v 0.172838852 -1.13428807 -0.300253928
v 0.182545021 -1.13392794 -0.29900226
v 0.186361328 -1.13236213 -0.299537748
v 0.194329962 -1.13395274 -0.30291748
v 0.19891198 -1.13662291 -0.304607332
v 0.206880614 -1.13821363 -0.307987034
v 0.214918524 -1.13972378 -0.311175853
v 0.225128964 -1.13869345 -0.308337033
v 0.228827044 -1.13724446 -0.309142619
v 0.241220251 -1.13359988 -0.300089747
v 0.246144354 -1.13582468 -0.300745994
v 0.254071236 -1.13740695 -0.304107994
v 0.261998117 -1.13898933 -0.307469994
v 0.269940406 -1.140553 -0.310787827
v 0.274558485 -1.13796699 -0.308879167
v 0.284319371 -1.13730407 -0.306911975
v 0.292627633 -1.13839281 -0.309103519
v 0.295987874 -1.13732159 -0.310780227
v 0.306870162 -1.13521755 -0.305384934
v 0.317265868 -1.13366914 -0.301311493
v 0.320061058 -1.13847721 -0.308129311
v 0.329934925 -1.13754284 -0.305522263
v 0.338283867 -1.13850963 -0.307426751
v 0.341966122 -1.13701391 -0.308075637
v 0.349833935 -1.13858438 -0.311412603
v 0.357739508 -1.1401062 -0.314633787
v 0.362464637 -1.13725471 -0.312058002
v 0.373331457 -1.13490832 -0.306086153
v 0.382883847 -1.1342293 -0.304078579
v 0.386832893 -1.13758218 -0.307469726
v 0.395216227 -1.13841605 -0.309059978
v 0.405273467 -1.13700163 -0.305314928
v 0.408595264 -1.1359427 -0.306972444
v 0.416528046 -1.13734543 -0.309913218
v 0.426373899 -1.13614547 -0.306672394
v 0.430517375 -1.13922858 -0.309438705
v 0.43984735 -1.1386869 -0.307767808
v 0.44671461 -1.13624048 -0.310279101
v 0.451126546 -1.13894808 -0.312160015
v 0.460672885 -1.13804984 -0.309639096
v 0.471720338 -1.13499725 -0.302004665
v 0.475893825 -1.13270855 -0.300709724
v 0.483648658 -1.13425648 -0.303998768
v 0.491403461 -1.13580441 -0.307287782
v 0.495862544 -1.13840306 -0.308932304
v 0.503617346 -1.13995099 -0.312221318
v 0.511372209 -1.14149892 -0.315510362
v 0.515776873 -1.13881946 -0.313285738
v 0.523991704 -1.13967383 -0.314927638
v 0.534499049 -1.13709688 -0.308420777
v 0.542642891 -1.13800895 -0.310201168
v 0.545924664 -1.13696277 -0.311838686
v 0.55489862 -1.13660192 -0.310592324
v 0.559447527 -1.13901269 -0.311815202
v 0.573096573 -1.13280606 -0.284059197
v 0.579194546 -1.13812137 -0.283672601
v 0.583001792 -1.13621855 -0.283250004
v 0.59152329 -1.13637078 -0.283248872
v 0.599164069 -1.13789594 -0.286489546
v 0.603557527 -1.14045632 -0.288109869
v 0.61250931 -1.13987494 -0.286383688
v 0.619297028 -1.1373204 -0.288470179
v 0.624343276 -1.13880539 -0.28755942
v 0.63227129 -1.13982916 -0.289617687
v 0.633083463 -1.13611865 -0.305978447
v 0.63276428 -1.14093578 -0.321515232
v 0.633251607 -1.13344395 -0.324984044
v 0.631975174 -1.13432014 -0.339870632
v 0.63273108 -1.12636256 -0.342314512
v 0.633861542 -1.11779583 -0.343290597
v 0.633171082 -1.10793912 -0.336944401
v 0.633666515 -1.10040426 -0.340401471
v 0.633612931 -1.09502625 -0.336090416
v 0.634143591 -1.08743405 -0.339406461
v 0.632642031 -1.07892501 -0.336254388
v 0.634675086 -1.07439411 -0.338196933
v 0.632647097 -1.06672728 -0.337110877
v 0.633329868 -1.05888891 -0.339826494
v 0.634290159 -1.05061567 -0.341456056
v 0.633590698 -1.04629791 -0.339679301
v 0.634097695 -1.03872645 -0.343085617
v 0.632585824 -1.03027952 -0.339977473
v 0.633249223 -1.02246404 -0.34276706
v 0.634165764 -1.01426065 -0.344565779
v 0.633179069 -1.01039588 -0.343916595
v 0.634173989 -1.00207472 -0.345406711
v 0.633232534 -0.992810488 -0.340067208
v 0.634156168 -0.984605372 -0.341829807
v 0.633992076 -0.979533613 -0.337963521
v 0.634015143 -0.972663939 -0.343255788
v 0.632808566 -0.963842332 -0.338970393
v 0.633765876 -0.95559454 -0.340594947
v 0.634565711 -0.94757551 -0.34283796
v 0.633574009 -0.943741858 -0.342219502
v 0.631983221 -0.935515344 -0.3394503
v 0.632232964 -0.928284228 -0.343844056
v 0.633190274 -0.920036435 -0.345468611
v 0.632564902 -0.915688753 -0.343415558
v 0.632998407 -0.908183753 -0.347093165
v 0.633023977 -0.897718012 -0.33799246
v 0.634827077 -0.893503666 -0.340785682
v 0.633221507 -0.885352015 -0.338089794
v 0.633893788 -0.877516806 -0.340818167
v 0.632480443 -0.86911726 -0.337376088
v 0.633434653 -0.860896289 -0.338995337
v 0.633945048 -0.85327822 -0.342356086
v 0.633243442 -0.849082112 -0.340614617
v 0.634197652 -0.840861142 -0.342233896
v 0.632461548 -0.832933128 -0.340061158
v 0.634006381 -0.829046905 -0.343853176
v 0.63245064 -0.820886612 -0.340973616
v 0.633404195 -0.812671602 -0.342591703
v 0.634357691 -0.804456532 -0.34420982
v 0.633066654 -0.795976698 -0.340298295
v 0.633527875 -0.788405597 -0.343842775
v 0.633415282 -0.783487141 -0.339800268
v 0.634144485 -0.775570333 -0.34229061
v 0.632759929 -0.767251134 -0.338759661
v 0.633953631 -0.763779938 -0.343906641
v 0.632580698 -0.755456686 -0.34032926
v 0.632965624 -0.747969747 -0.344165474
v 0.633840382 -0.739864409 -0.346084207
v 0.632848024 -0.731094778 -0.34101665
v 0.633798838 -0.722903013 -0.342630178
v 0.63377887 -0.717948794 -0.33823514
v 0.63468492 -0.709819257 -0.340018451
v 0.6325683 -0.702468038 -0.339377284
v 0.634657979 -0.697862327 -0.340988845
v 0.632517099 -0.690543652 -0.340443909
v 0.633327603 -0.682528317 -0.342600405
v 0.631959438 -0.674300313 -0.339032561
v 0.633137286 -0.670770407 -0.344211966
v 0.632123053 -0.662139654 -0.339258075
v 0.63210851 -0.655086219 -0.344641656
v 0.632756591 -0.647254586 -0.347435087
v 0.632864296 -0.637369454 -0.338086069
v 0.633476734 -0.634456575 -0.345473021
v 0.632774711 -0.625525475 -0.33930108
v 0.633621871 -0.617476463 -0.34130162
v 0.632038593 -0.609569252 -0.338596374
v 0.633431971 -0.60574615 -0.342909396
v 0.632004559 -0.597674847 -0.339593589
v 0.632571876 -0.589935362 -0.342686653
v 0.63305217 -0.582285404 -0.346124977
v 0.632776439 -0.572988927 -0.338298649
v 0.633551598 -0.569811463 -0.345027238
v 0.632710755 -0.56114918 -0.339418292
v 0.633532465 -0.553135037 -0.341507912
v 0.631715 -0.545536816 -0.339736432
v 0.633459806 -0.541304946 -0.342654169
v 0.632187784 -0.533145189 -0.338748842
v 0.63308996 -0.525051355 -0.340517849
v 0.634034514 -0.516913295 -0.342120767
v 0.632943034 -0.513312995 -0.341954589
v 0.633887589 -0.505175292 -0.343557447
v 0.632705808 -0.496968955 -0.339304835
v 0.634368062 -0.488121808 -0.338087618
v 0.635342717 -0.479967088 -0.339562982
v 0.634726882 -0.475907147 -0.337539226
v 0.632464409 -0.468809962 -0.337539226
v 0.633406758 -0.460691124 -0.339138389
v 0.634349167 -0.452572256 -0.340737551
v 0.633217871 -0.449023664 -0.340737551
v 0.63416028 -0.440904826 -0.342336714
v 0.632674456 -0.433074981 -0.339295357
v 0.633543611 -0.425030172 -0.341177493
v 0.635284305 -0.41617462 -0.339638531
v 0.634154737 -0.412631273 -0.339638531
v 0.635635078 -0.404029578 -0.33911711
v 0.633377135 -0.396946669 -0.33911711
v 0.634317636 -0.388844132 -0.340713054
v 0.633320034 -0.385184884 -0.340198219
v 0.634129107 -0.377200156 -0.342308998
v 0.632201195 -0.369826585 -0.341016829
v 0.633141339 -0.361726701 -0.342612237
v 0.634081542 -0.353626788 -0.344207674
v 0.632952929 -0.35008648 -0.344207674
v 0.632658064 -0.341331899 -0.336528867
v 0.63359642 -0.333247602 -0.338121235
v 0.633692801 -0.325869441 -0.343016952
v 0.633408308 -0.321629822 -0.339713573
v 0.634346664 -0.313545525 -0.341305941
v 0.632910013 -0.30581063 -0.33811
v 0.634158611 -0.301927745 -0.342898309
v 0.633006811 -0.293972492 -0.338586032
v 0.633944154 -0.285896957 -0.340176672
v 0.632383764 -0.278291941 -0.337476671
v 0.63281709 -0.270616293 -0.341038406
v 0.633568406 -0.262686551 -0.343357921
v 0.63326323 -0.258523822 -0.340144426
v 0.633380592 -0.251081318 -0.34494856
v 0.632799208 -0.242759883 -0.338413239
v 0.633587837 -0.239178479 -0.344988197
v 0.632611692 -0.231173709 -0.340001285
v 0.633547485 -0.223111406 -0.341589302
v 0.63148284 -0.215930939 -0.340876788
v 0.63223654 -0.208001345 -0.343177319
v 0.633172333 -0.199939057 -0.344765335
v 0.632230937 -0.196285978 -0.344052285
v 0.632984817 -0.188352868 -0.346353352
v 0.632404029 -0.180148453 -0.339830458
v 0.63425076 -0.175761968 -0.342236429
v 0.632216811 -0.168581232 -0.341415882
v 0.633151054 -0.160532117 -0.343001306
v 0.631423771 -0.15315181 -0.340983152
v 0.632963836 -0.148964897 -0.34458673
v 0.632118702 -0.141012162 -0.339115769
v 0.633051693 -0.132974103 -0.340699017
v 0.633984685 -0.124936044 -0.342282265
v 0.631965876 -0.117769562 -0.341416389
v 0.633932829 -0.113299608 -0.343335032
v 0.631897211 -0.106147245 -0.342536032
v 0.632829905 -0.0981118679 -0.344118744
v 0.631792963 -0.0903595388 -0.339414716
v 0.633801401 -0.085866563 -0.341158003
v 0.631829858 -0.0786927938 -0.340120316
v 0.63276124 -0.0706686676 -0.341700822
v 0.633427978 -0.062797904 -0.34431985
v 0.631710649 -0.0554849878 -0.342286438
v 0.63352263 -0.0511037372 -0.3447963
v 0.633140922 -0.043051336 -0.337534845
v 0.634070575 -0.0350419581 -0.339112461
v 0.631944478 -0.0279828459 -0.338698298
v 0.633884251 -0.0235318374 -0.340690047
v 0.632369399 -0.0161481518 -0.337883681
v 0.632581949 -0.00852097105 -0.342267632
v 0.633511603 -0.000511593709 -0.343845248
v 0.632395625 0.00298915035 -0.343845248
v 0.633325279 0.0109985275 -0.345422834
v 0.632166445 0.0185352322 -0.341220647
v 0.633095086 0.0265361648 -0.342796594
v 0.631946266 0.0340527147 -0.338568032
v 0.633987606 0.0385518111 -0.34014231
v 0.632338762 0.0458115116 -0.337878793
v 0.632903934 0.0536312386 -0.340870559
v 0.633615732 0.0615233742 -0.343290836
v 0.63347882 0.0654593408 -0.339462966
v 0.633429825 0.0730091557 -0.344865084
v 0.632667899 0.0806374848 -0.339127302
v 0.633594215 0.0886184201 -0.340699315
v 0.63452059 0.0965993553 -0.342271298
v 0.633408606 0.100087665 -0.342271298
v 0.634334922 0.1080686 -0.343843311
v 0.632864356 0.115349479 -0.340891153
v 0.633553267 0.123230666 -0.343390822
v 0.633266568 0.127040893 -0.340158552
v 0.634191692 0.1350113 -0.341728479
v 0.632279873 0.142095417 -0.340517431
v 0.633204699 0.150063396 -0.342086881
v 0.634129584 0.158031389 -0.343656331
v 0.633176446 0.16157034 -0.343040258
v 0.634351075 0.169624805 -0.343628138
v 0.632870734 0.17684108 -0.340731949
v 0.633794546 0.184800074 -0.34229961
v 0.632685542 0.188278809 -0.34229961
v 0.633609354 0.196237803 -0.343867302
v 0.632800817 0.203641891 -0.338348985
v 0.635058403 0.208187252 -0.339021027
v 0.632912338 0.21515438 -0.338753492
v 0.6338346 0.223100036 -0.340318561
v 0.634756923 0.231045693 -0.3418836
v 0.633107543 0.238151371 -0.339670479
v 0.634029269 0.246092618 -0.341234654
v 0.632922828 0.249563575 -0.341234654
v 0.633844554 0.257504821 -0.342798829
v 0.632378697 0.264638603 -0.339873523
v 0.63365978 0.268917024 -0.344363004
v 0.632391036 0.276090771 -0.340665281
v 0.633115172 0.283977836 -0.342999578
v 0.634036243 0.291913271 -0.34456262
v 0.632389069 0.298975915 -0.342352182
v 0.633040428 0.306848943 -0.344970405
v 0.63285321 0.310510755 -0.341372669
v 0.633027613 0.318284512 -0.34585923
v 0.632322669 0.325514555 -0.339965165
v 0.634202182 0.329945266 -0.342087716
v 0.632306576 0.336927533 -0.340866655
v 0.633057714 0.344816357 -0.34308517
v 0.633976996 0.352736384 -0.344645172
v 0.633123875 0.356239855 -0.343663245
v 0.63241446 0.363400549 -0.337804139
v 0.633332193 0.371307015 -0.339361459
v 0.634249926 0.379213452 -0.340918779
v 0.632616282 0.38620314 -0.338688642
v 0.634420633 0.390622884 -0.341084421
v 0.632592022 0.397579104 -0.339620173
v 0.63350904 0.405479878 -0.341176391
v 0.634272218 0.413363636 -0.343336761
v 0.634314299 0.416939944 -0.338853776
v 0.634242296 0.424734741 -0.344288796
v 0.633599639 0.431785464 -0.338180006
v 0.634515285 0.439674139 -0.339733839
v 0.632721782 0.446601599 -0.338148803
v 0.63464123 0.451033562 -0.340073168
v 0.632674038 0.457942784 -0.339170784
v 0.633453608 0.465819269 -0.341255218
v 0.634368896 0.473704815 -0.342808425
v 0.633270204 0.477151424 -0.342808425
v 0.63197577 0.484081596 -0.339274555
v 0.632274449 0.491939694 -0.343239307
v 0.63318944 0.499823004 -0.344792098
v 0.633365989 0.506758511 -0.335500777
v 0.633006096 0.511151969 -0.346344858
v 0.633183002 0.518061042 -0.337049931
v 0.634095907 0.525925994 -0.338599086
v 0.634393334 0.533795834 -0.342564434
v 0.633912921 0.537228525 -0.34014824
v 0.632020593 0.544098318 -0.33897683
v 0.632933199 0.551960945 -0.340525508
v 0.633676231 0.559829235 -0.342739493
v 0.632750273 0.563260138 -0.342074215
v 0.633662939 0.571122766 -0.343622893
v 0.631971717 0.577970266 -0.341665566
v 0.632384479 0.585858583 -0.345171601
v 0.633297086 0.593721211 -0.346720278
v 0.632531941 0.59713459 -0.345424652
v 0.631987333 0.603878975 -0.338985026
v 0.63350141 0.611675262 -0.33816722
v 0.634446442 0.619514763 -0.339575738
v 0.63335371 0.622942567 -0.339575738
v 0.634263992 0.630784988 -0.341120452
v 0.632270217 0.637619436 -0.340370029
v 0.632988811 0.645482957 -0.342665166
v 0.633899093 0.653325438 -0.34420988
v 0.632991135 0.656729341 -0.343485475
v 0.631348491 0.663510203 -0.341363132
v 0.63305521 0.671232879 -0.339783788
v 0.634387255 0.678999603 -0.339666486
v 0.633723974 0.682354927 -0.337991774
v 0.634632111 0.69017905 -0.339532882
v 0.632559299 0.697000444 -0.339111984
v 0.634450078 0.70142293 -0.34107402
v 0.632451415 0.70822984 -0.340362519
v 0.633177936 0.716086626 -0.342615128
v 0.631581545 0.72281301 -0.340330064
v 0.632087469 0.730713665 -0.343444198
v 0.63363266 0.738402903 -0.342485398
v 0.632924259 0.741738975 -0.340992838
v 0.634196937 0.749473214 -0.341097683
v 0.633027613 0.756073773 -0.3371526
v 0.634015203 0.760699809 -0.342636406
v 0.63333869 0.767172098 -0.33676061
v 0.634506881 0.774908125 -0.337266862
v 0.63235569 0.781719744 -0.337180495
v 0.633260906 0.789518118 -0.338716537
v 0.634166062 0.797316492 -0.340252578
v 0.633079469 0.800724983 -0.340252578
v 0.633984625 0.808523357 -0.34178862
v 0.63181144 0.8153404 -0.34178862
v 0.633803248 0.819730282 -0.343324661
v 0.631630063 0.826547265 -0.343324661
v 0.632535219 0.834345639 -0.344860703
v 0.631550431 0.840794683 -0.340211213
v 0.632353783 0.845552564 -0.346396714
v 0.631726325 0.851873994 -0.340347916
v 0.63263011 0.859660506 -0.341881633
v 0.633533895 0.867447078 -0.34341535
v 0.633626044 0.873479009 -0.334559888
v 0.634439647 0.878259242 -0.340684086
v 0.633712173 0.884549677 -0.335045129
v 0.634535968 0.892344952 -0.336879909
v 0.63524884 0.900182486 -0.339150757
v 0.634433031 0.90347892 -0.338104904
v 0.632268548 0.910268724 -0.338104904
v 0.633170068 0.918035924 -0.339634806
v 0.634071648 0.925803125 -0.341164708
v 0.632175088 0.9324857 -0.340115875
v 0.633890927 0.936965168 -0.34269461
v 0.632704496 0.943353057 -0.338864982
v 0.632628024 0.951522171 -0.344224513
v 0.633529544 0.959289372 -0.345754385
v 0.632447302 0.962684214 -0.345754385
v 0.633348882 0.970451415 -0.347284287
v 0.6337865 0.976086795 -0.337089062
v 0.634685755 0.983834147 -0.33861506
v 0.632672489 0.990539908 -0.338044703
v 0.63450551 0.994967699 -0.340141028
v 0.63259542 1.00162363 -0.339166701
v 0.63339144 1.00941813 -0.341096252
v 0.634145081 1.0172348 -0.343192995
v 0.633211195 1.02055001 -0.342622012
v 0.633964837 1.02836835 -0.344718993
v 0.63276726 1.03465927 -0.340952426
v 0.633394182 1.04253745 -0.343541861
v 0.632587194 1.04578233 -0.342476964
v 0.633485615 1.05352235 -0.344001502
v 0.632378697 1.05973673 -0.339890361
v 0.633276165 1.06746876 -0.341413349
v 0.634173632 1.0752008 -0.342936307
v 0.633096278 1.07858026 -0.342936307
v 0.634061992 1.08627462 -0.344191432
v 0.631907403 1.09303319 -0.344191432
v 0.632973909 1.10066903 -0.34505111
v 0.632428288 1.10374558 -0.342968374
v 0.6333251 1.11147177 -0.3444902
v 0.631820858 1.11784804 -0.341949999
v 0.632717073 1.12556922 -0.343470842
v 0.631375432 1.13183641 -0.340301901
v 0.632862687 1.13646984 -0.343716383
v 0.632727623 1.14199483 -0.335828692
v 0.633846521 1.14673114 -0.323078334
v 0.632683814 1.14720631 -0.292809218
v 0.630177855 1.14593959 -0.289361626
v 0.622684419 1.14760351 -0.287942946
v 0.61580807 1.14619875 -0.288195103
v 0.611526132 1.14869773 -0.287472069
v 0.605499864 1.14677668 -0.284465075
v 0.598468125 1.14544868 -0.285215527
v 0.590028048 1.14765429 -0.287188619
v 0.583916664 1.14577067 -0.284439385
v 0.575437427 1.1479851 -0.28644827
v 0.562957227 1.14699924 -0.310716212
v 0.559389651 1.1463263 -0.311092317
v 0.55141598 1.14821398 -0.310952246
v 0.544823647 1.14654863 -0.309680879
v 0.537903666 1.14506102 -0.309552133
v 0.532422304 1.14822137 -0.312815219
v 0.524932206 1.14703476 -0.314614743
v 0.517455637 1.14862442 -0.312529564
v 0.511334717 1.14667308 -0.309475332
v 0.503273666 1.14857805 -0.309385538
v 0.496361852 1.14704919 -0.309023261
v 0.490223944 1.14509952 -0.305992723
v 0.484596997 1.14830756 -0.30948481
v 0.47828868 1.14644146 -0.306998193
v 0.469406396 1.14592731 -0.313131928
v 0.461227983 1.14786458 -0.313190043
v 0.455050051 1.14591217 -0.310184807
v 0.449837446 1.14888382 -0.312099457
v 0.4432078 1.14715958 -0.310552955
v 0.435789108 1.14869225 -0.308013767
v 0.428894877 1.14709723 -0.307292163
v 0.422006041 1.14549339 -0.306525797
v 0.413513452 1.14756191 -0.307373732
v 0.405386358 1.14656413 -0.310476929
v 0.395716071 1.14920592 -0.314926684
v 0.392615408 1.14821744 -0.313379526
v 0.38641414 1.14624059 -0.310285211
v 0.378314257 1.14809072 -0.309690803
v 0.371538669 1.14638972 -0.308357686
v 0.363737226 1.14808869 -0.306788981
v 0.360066205 1.14737177 -0.306972504
v 0.352292895 1.1461376 -0.30862391
v 0.341717511 1.14915168 -0.315375626
v 0.335400343 1.14720201 -0.312507808
v 0.326783657 1.14927006 -0.313221842
v 0.323371202 1.14841175 -0.312532723
v 0.31692028 1.14651775 -0.310031056
v 0.3088938 1.14829993 -0.308917314
v 0.302065969 1.14657545 -0.307499051
v 0.293383062 1.14865398 -0.308251143
v 0.285297751 1.14749312 -0.310426533
v 0.27755186 1.14616561 -0.311566889
v 0.27227959 1.14910436 -0.312957913
v 0.264805436 1.14764142 -0.313246161
v 0.258523256 1.14563882 -0.310111463
v 0.249539047 1.14782238 -0.311476141
v 0.243249699 1.1458174 -0.308337867
v 0.238120928 1.14868283 -0.309215754
v 0.23177281 1.14670074 -0.306228399
v 0.224171937 1.14526296 -0.306709945
v 0.213545844 1.14813638 -0.312420487
v 0.206400752 1.14648163 -0.31154865
v 0.198547527 1.14814591 -0.309543878
v 0.190806538 1.14673722 -0.310243875
v 0.183361039 1.14519441 -0.310108006
v 0.178871408 1.14777768 -0.309086293
v 0.171675935 1.14612269 -0.308238596
v 0.162247181 1.14843798 -0.310329586
v 0.15483956 1.14685857 -0.309979588
v 0.147879988 1.14508772 -0.308422655
v 0.141803041 1.14832687 -0.311508954
v 0.135142714 1.14642429 -0.309126616
v 0.127996564 1.14471769 -0.307997614
v 0.122413464 1.14849997 -0.29702127
v 0.122414716 1.14619696 -0.28726539
v 0.112762704 1.14857602 -0.289725363
v 0.106191225 1.14664412 -0.287134588
v 0.096516706 1.14902103 -0.289557695
v 0.0901613012 1.14699507 -0.28638646
v 0.0838059038 1.14496899 -0.283215255
v 0.0778055638 1.14814842 -0.285880417
v 0.0709717199 1.14630568 -0.283878505
v 0.0591550171 1.14949882 -0.291410059
v 0.0527734496 1.14746451 -0.28822577
v 0.046391882 1.14543009 -0.285041511
v 0.040401604 1.1485939 -0.28753528
v 0.0340133905 1.14655745 -0.284347683
v 0.026497731 1.14805758 -0.281160086
v 0.0201095194 1.14602113 -0.27797249
v 0.0137213068 1.14398468 -0.274784893
v -0.000100178047 1.14786386 -0.28661406
v -0.00666029612 1.14587486 -0.283763587
v -0.014642179 1.14754415 -0.281593025
v -0.0178496726 1.14652169 -0.279992551
v -0.0258986671 1.14508092 -0.280617028
v -0.037385378 1.14803994 -0.286569983
v -0.0438216366 1.14598823 -0.283358395
v -0.0536402464 1.14832115 -0.28532657
v -0.0582412183 1.14779627 -0.28689009
v -0.0656746849 1.14609587 -0.285923809
v -0.0878872648 1.14970016 -0.318625718
v -0.0913693979 1.14874291 -0.317514271
v -0.0978830084 1.14666641 -0.314264089
v -0.105546191 1.1481961 -0.311013937
v -0.112059802 1.14611971 -0.307763785
v -0.12617892 1.14991951 -0.3189134
v -0.132716298 1.14783549 -0.315651387
v -0.139253676 1.14575136 -0.312389344
v -0.1443775 1.14857221 -0.312304229
v -0.150213525 1.14624465 -0.307496309
v -0.156750903 1.14416063 -0.304234296
v -0.167736635 1.14682221 -0.308133066
v -0.174285889 1.14473438 -0.304865122
v -0.185671836 1.14968193 -0.31823948
v -0.19224602 1.14758623 -0.314959079
v -0.198820204 1.14549041 -0.311678708
v -0.206554651 1.14703429 -0.308398306
v -0.213128835 1.14493859 -0.305117905
v -0.22772947 1.14876199 -0.316314191
v -0.231380969 1.14568686 -0.306835592
v -0.244755596 1.14908528 -0.315296173
v -0.248059407 1.14803207 -0.313647658
v -0.253972709 1.1456995 -0.308909595
v -0.263552219 1.14783895 -0.309348851
v -0.26907739 1.14538038 -0.303815931
v -0.280782938 1.14820039 -0.308564663
v -0.283106416 1.1468277 -0.304896921
v -0.287859172 1.14412248 -0.297802359
v -0.306249559 1.14905834 -0.315977544
v -0.312897116 1.14693928 -0.312660545
v -0.321021169 1.14859629 -0.309951782
v -0.327365398 1.14638114 -0.306026548
v -0.334012926 1.14426208 -0.30270955
v -0.34642601 1.14935684 -0.316750288
v -0.350670874 1.1464752 -0.308622688
v -0.358141303 1.14459825 -0.306878716
v -0.370723009 1.1476227 -0.312821865
v -0.377407283 1.14549184 -0.309486538
v -0.3819291 1.14812696 -0.30781889
v -0.388613373 1.14599609 -0.304483563
v -0.395297647 1.14386523 -0.301148236
v -0.406556934 1.14646041 -0.304329038
v -0.412772924 1.14418221 -0.300072104
v -0.424258411 1.14891243 -0.311664611
v -0.429596186 1.1463598 -0.30569613
v -0.436175644 1.14418077 -0.302096695
v -0.449329138 1.14731443 -0.308642983
v -0.454443395 1.14469457 -0.30226025
v -0.466849685 1.14759517 -0.307295591
v -0.473189026 1.14533103 -0.303193927
v -0.486146063 1.14838052 -0.309141219
v -0.489233464 1.14722037 -0.306923717
v -0.496827751 1.14531159 -0.305105329
v -0.509477675 1.14825451 -0.310345829
v -0.515703559 1.14594126 -0.305979013
v -0.527755022 1.14870107 -0.31002593
v -0.532064676 1.14788282 -0.310000598
v -0.539213121 1.14582431 -0.307276487
v -0.550946057 1.14847958 -0.3106305
v -0.559474111 1.14680076 -0.310339957
v -0.567729771 1.14503932 -0.309539467
v -0.574047029 1.14616609 -0.303148031
v -0.577093244 1.14841223 -0.298701912
v -0.580902338 1.1488384 -0.28793785
v -0.588981926 1.14703643 -0.286830038
v -0.598349929 1.149014 -0.28586176
v -0.601927519 1.147982 -0.284485638
v -0.611976385 1.14671195 -0.28675586
v -0.622122705 1.14889765 -0.287072301
v -0.630679011 1.1472044 -0.286688715
v -0.637601018 1.14161444 -0.285541892
v -0.636454701 1.13785589 -0.285639316
v -0.634027839 1.13030279 -0.285603583
v -0.635613799 1.12182093 -0.284906
v -0.636970282 1.11327565 -0.283812702
v -0.634895325 1.10580921 -0.284383506
v -0.636731923 1.09737885 -0.284113646
v -0.635972381 1.09371209 -0.284877509
v -0.633433938 1.08612418 -0.284654468
v -0.635270059 1.07768226 -0.284383118
v -0.636786699 1.06915772 -0.283560812
v -0.635581672 1.06537771 -0.283560812
v -0.633171618 1.0578177 -0.283560812
v -0.635478497 1.04946804 -0.284095913
v -0.633092225 1.04190934 -0.284139186
v -0.0815347582 0.909016073 0.672761083
v -0.0845330954 0.908283055 0.673344076
v -0.0925783813 0.90993017 0.672583282
v -0.100128822 0.908799291 0.671138585
v -0.108011149 0.910407186 0.670712471
v -0.111192189 0.909707844 0.671018541
v -0.118021548 0.908407509 0.670856714
v -0.125611186 0.909947455 0.670979738
v -0.127387166 0.906259179 0.672121108
v -0.128783986 0.899804235 0.672363222
v -0.127583638 0.894175231 0.671299994
v -0.128781512 0.887670636 0.671876013
v -0.152856931 0.888466716 0.635835528
v -0.156969205 0.890655279 0.63624227
v -0.162266344 0.888979077 0.638833702
v -0.171216354 0.89076823 0.636933446
v -0.176366985 0.887685239 0.63257885
v -0.173260644 0.881584585 0.634622097
v -0.168857291 0.875287473 0.651660085
v -0.176710114 0.876842856 0.651565015
v -0.18253082 0.875269473 0.653290153
v -0.188439131 0.877795756 0.650790274
v -0.189500898 0.873912156 0.653154314
v -0.190874994 0.867343664 0.653497875
v -0.192246765 0.860770345 0.65384692
v -0.191401735 0.857864439 0.653706849
v -0.18970497 0.852050722 0.653437197
v -0.190853134 0.845430493 0.654149771
v -0.192184702 0.838838696 0.654565871
v -0.190488473 0.833020031 0.654293776
v -0.191722736 0.826405942 0.654868543
v -0.190883249 0.82349664 0.654718101
v -0.18965818 0.817749262 0.653679192
v -0.191006988 0.81114471 0.654069304
v -0.189141199 0.805291951 0.654069304
v -0.191542998 0.801626742 0.654265642
v -0.185531735 0.80041635 0.651285172
v -0.190057933 0.800782084 0.631057739
v -0.184202313 0.801149786 0.634970307
v -0.187944457 0.801402092 0.615871549
v -0.189560175 0.801332176 0.600147367
v -0.187037542 0.800639808 0.591183424
v -0.180570245 0.800927579 0.596133828
v -0.126355365 0.789715946 0.671980679
v -0.12804544 0.785991013 0.673284054
v -0.135201901 0.781843126 0.671140373
v -0.143402308 0.783365846 0.670363545
v -0.14669551 0.782627285 0.67055583
v -0.152011871 0.780967474 0.673045635
v -0.159172669 0.782339454 0.674027979
v -0.167365849 0.781082571 0.671823442
v -0.172597557 0.783390641 0.670396566
v -0.178517982 0.781807721 0.671941936
v -0.18673867 0.783328176 0.67127651
v -0.191589966 0.77880609 0.67307198
v -0.190468132 0.77307421 0.67188251
v -0.192621082 0.769377172 0.672473907
v -0.191356674 0.763619423 0.671512902
v -0.192779541 0.757023931 0.671783745
v -0.190918237 0.751185238 0.671783745
v -0.192191586 0.744565248 0.672296345
v -0.191194087 0.74163729 0.672403753
v -0.192195088 0.734982133 0.673356175
v -0.19070822 0.729182839 0.672751069
v -0.192407161 0.722598612 0.672579288
v -0.191475511 0.719676197 0.672579288
v -0.189809799 0.713851452 0.672260404
v -0.190982938 0.707203627 0.672937274
v -0.191998333 0.70053786 0.673869491
v -0.190832257 0.694754422 0.67274344
v -0.192426205 0.68813467 0.672744393
v -0.191670835 0.685223877 0.672458291
v -0.190027878 0.679389536 0.672098517
v -0.190940574 0.672704101 0.673198998
v -0.192408681 0.666059911 0.673404932
v -0.19147934 0.663132131 0.673398316
v -0.190033495 0.657305956 0.672718823
v -0.191177681 0.650629997 0.673447847
v -0.189746439 0.644799471 0.67274338
v -0.190892801 0.638118207 0.673469961
v -0.189405605 0.632278919 0.672854424
v -0.191504017 0.628525257 0.673553884
v -0.189929605 0.622676969 0.673078001
v -0.191042066 0.61598438 0.673861384
v -0.189989358 0.610156119 0.672542393
v -0.192240059 0.606400609 0.673000634
v -0.190477386 0.600534916 0.672825336
v -0.191869557 0.59384203 0.673160493
v -0.19027409 0.587979019 0.672714174
v -0.191205367 0.581264794 0.673793435
v -0.190783948 0.578342617 0.672963023
v -0.192181736 0.571636796 0.673291445
v -0.191070095 0.56577599 0.672062159
v -0.192535192 0.559062123 0.672283888
v -0.190897554 0.553183675 0.671900749
v -0.19213298 0.546459138 0.672493875
v -0.19121708 0.543517232 0.67245841
v -0.189810306 0.537635982 0.671701074
v -0.191121668 0.530904353 0.672172546
v -0.187837631 0.528808653 0.670339823
v -0.181782782 0.527559996 0.667358339
v -0.190524533 0.526316047 0.640240073
v -0.191675887 0.519522488 0.640986443
v -0.19045341 0.516554534 0.641436279
v -0.190881193 0.509765029 0.643361688
v -0.192345828 0.505944967 0.645138502
v -0.192438602 0.499164671 0.647606194
v -0.192398369 0.492391914 0.650287926
v -0.19085604 0.489438206 0.651257932
v -0.19126755 0.482664496 0.653203785
v -0.191467941 0.475899279 0.655491054
v -0.193199337 0.472083271 0.656826317
v -0.193477765 0.465321004 0.658984303
v -0.255295038 0.456320763 0.561641812
v -0.254041284 0.453271151 0.562091887
v -0.254111439 0.446301699 0.564670682
v -0.254190564 0.440093309 0.561387599
v -0.253747195 0.434646666 0.553072512
v -0.253617972 0.428415835 0.55010432
v -0.252130836 0.426109821 0.545030117
v -0.249948189 0.423835397 0.541073143
v -0.252480358 0.418887198 0.521808505
v -0.248650879 0.419835806 0.522114933
v -0.243110403 0.418465525 0.517625272
v -0.232235968 0.420542657 0.523593783
v -0.233822212 0.415614635 0.505616069
v -0.130408913 0.419359744 0.670506656
v -0.127696484 0.413540363 0.671910822
v -0.129316598 0.406769514 0.67182982
v -0.128686622 0.403812319 0.67131865
v -0.120199613 0.402722716 0.67244035
v -0.11661572 0.40063414 0.671118617
v -0.106658064 0.402649581 0.676342845
v -0.0993424654 0.401486814 0.675570667
v -0.0927479491 0.403262526 0.675173104
v -0.086682722 0.402013242 0.672296584
v -0.0854407176 0.400415331 0.661132455
v -0.633993149 0.35684821 -0.283296853
v -0.636282027 0.347921968 -0.283728868
v -0.634461284 0.340148628 -0.284830272
v -0.636925042 0.331191003 -0.28556025
v -0.635693192 0.327326864 -0.28556025
v -0.638301671 0.318342596 -0.286535531
v -0.635459363 0.310644418 -0.285887718
v -0.636863172 0.301762015 -0.28479296
v -0.634397745 0.294028342 -0.28479296
v -0.635424614 0.285181403 -0.283050388
v -0.63419193 0.281314582 -0.283050388
v -0.635218799 0.272467643 -0.281307817
v -0.632917047 0.264715284 -0.281589001
v -0.637163103 0.255487233 -0.285374403
v -0.635628223 0.251650721 -0.284858316
v -0.631691098 0.24408792 -0.282332629
v -0.634936869 0.234952375 -0.284400761
v -0.635965466 0.22609058 -0.282655239
v -0.634730697 0.222217262 -0.282655239
v -0.632261217 0.214470625 -0.282655239
v -0.635542989 0.205292836 -0.284781218
v -0.633071005 0.197538555 -0.284781218
v -0.635669529 0.188436419 -0.285730243
v -0.636699855 0.179559782 -0.28398183
v -0.635462999 0.175679982 -0.28398183
v -0.632989347 0.167920366 -0.28398183
v -0.636055171 0.158716843 -0.285730928
v -0.633109689 0.151027411 -0.284923106
v -0.635956287 0.14593111 -0.284166068
v -0.63348031 0.138164207 -0.284166068
v -0.635818064 0.129052445 -0.284660548
v -0.634059489 0.121153735 -0.285896808
v -0.635274827 0.112227745 -0.2844598
v -0.632796466 0.104453333 -0.2844598
v -0.636791766 0.099125281 -0.285669029
v -0.63405472 0.0913938507 -0.285227448
v -0.636027932 0.0823121369 -0.28508991
v -0.633032918 0.0746311173 -0.284205943
v -0.635820806 0.0695178881 -0.283336312
v -0.633339822 0.0617352836 -0.283336312
v -0.636596859 0.0523718596 -0.285402328
v -0.632058501 0.0450146906 -0.281868726
v -0.63514781 0.0356700607 -0.283647031
v -0.632664442 0.027879877 -0.283647031
v -0.636552155 0.0225085504 -0.284659564
v -0.633962572 0.0147362379 -0.284480035
v -0.634074926 0.00602876674 -0.281138599
v -0.626140535 0.00335522043 -0.261868179
v -0.634789169 0.000744242163 -0.261178821
v -0.637057304 -0.00425473414 -0.259429663
v -0.634582579 -0.0120176794 -0.259429663
v -0.222076178 0.0846351832 0.457709461
v -0.225237876 0.0836520121 0.458631992
v -0.233806327 0.0845684782 0.458397657
v -0.23997426 0.0826388299 0.460527062
v -0.245663658 0.0844781995 0.458918482
v -0.252919525 0.0822949558 0.459247589
v -0.254110634 0.074936226 0.460101783
v -0.254591376 0.0677458122 0.462143153
v -0.25645867 0.0636475384 0.463561714
v -0.285498649 0.0630915239 0.431144357
v -0.288402975 0.0621656664 0.432593554
v -0.294211626 0.0603139475 0.435491979
v -0.301270485 0.0581625216 0.436336279
v -0.315890461 0.0541961864 0.424821854
v -0.316006392 0.0467626341 0.433711141
v -0.317891717 0.0426073708 0.435165107
v -0.318105847 0.0353859216 0.437665462
v -0.318115562 0.0317028612 0.44216758
v -0.320383579 0.023784684 0.447500288
v -0.319081932 0.0206355136 0.447946727
v -0.317029357 0.014196828 0.447946727
v -0.318824589 0.00658322638 0.447871923
v -0.31677103 0.000141461831 0.447871923
v -0.314061582 -0.00598317478 0.442750305
v -0.300543904 -0.00928714871 0.461441249
v -0.301154226 -0.0130669465 0.464942455
v -0.302276373 -0.0205849595 0.472087473
v -0.303779602 -0.0246022157 0.474123269
v -0.294737101 -0.0256270077 0.493233383
v -0.302306265 -0.0314497165 0.491520852
v -0.313432872 -0.0383054316 0.484116882
v -0.311889946 -0.044841256 0.483320326
v -0.304435372 -0.0496395305 0.492050499
v -0.293121696 -0.053307943 0.51306957
v -0.294957042 -0.0573833473 0.51452291
v -0.29600513 -0.0612211525 0.517240286
v -0.299229294 -0.0692324862 0.52085793
v -0.298267692 -0.0759190992 0.52516824
v -0.300141573 -0.0800007433 0.526552796
v -0.302731782 -0.0843063444 0.526794672
v -0.307075828 -0.0926611498 0.528618932
v -0.307355732 -0.0962387845 0.532539189
v -0.298076093 -0.100221947 0.550027192
v -0.299914718 -0.104274265 0.551445127
v -0.303591937 -0.112378903 0.554280996
v -0.305430561 -0.116431214 0.555698931
v -0.303259194 -0.122631431 0.561858773
v -0.289649636 -0.121521227 0.587598026
v -0.295854539 -0.123507902 0.589504778
v -0.307048231 -0.130620554 0.582063258
v -0.310930431 -0.135342181 0.580265403
v -0.304360479 -0.140046418 0.587413847
v -0.301828831 -0.142577454 0.595622778
v -0.298987091 -0.148439392 0.602750123
v -0.218266517 -0.120358855 0.73968941
v -0.220563516 -0.121080555 0.741632342
v -0.228779167 -0.120472282 0.74138248
v -0.237433523 -0.120007254 0.740483284
v -0.239919066 -0.120794781 0.742141783
v -0.248109892 -0.120163798 0.741986692
v -0.254378259 -0.122181095 0.743333459
v -0.255233794 -0.129029602 0.744582057
v -0.253963858 -0.13190344 0.745067
v -0.2542454 -0.138551071 0.747187912
v -0.254356891 -0.145135254 0.74956584
v -0.255960435 -0.148926154 0.751119912
v -0.256087512 -0.155509606 0.753470778
v -0.256049961 -0.162029073 0.756069064
v -0.254840642 -0.164913937 0.756462455
v -0.3190355 -0.194813445 0.667424738
v -0.318795979 -0.201455101 0.670403302
v -0.257300466 -0.182059512 0.761792302
v -0.253794521 -0.187411591 0.764222562
v -0.251490951 -0.193207219 0.764838338
v -0.253336698 -0.19740802 0.75518626
v -0.317738801 -0.228990152 0.648885965
v -0.313925922 -0.231364295 0.641889572
v -0.31691426 -0.235999957 0.635813832
v -0.235646084 -0.211396068 0.751664817
v -0.237630069 -0.215729713 0.741676331
v -0.221936896 -0.209961087 0.75485754
v -0.215894476 -0.211331502 0.751749873
v -0.22542654 -0.218677416 0.729965687
v -0.241258457 -0.232225001 0.691143095
v -0.235833421 -0.233921424 0.686814845
v -0.227206156 -0.23067461 0.694691956
v -0.221241206 -0.2321444 0.691238523
v -0.222940177 -0.236495063 0.681346476
v -0.173426509 -0.223261714 0.751074493
v -0.175266147 -0.230216622 0.756305337
v -0.176994726 -0.234026432 0.757638395
v -0.16890578 -0.233735085 0.774450064
v -0.175751463 -0.239406794 0.77322197
v -0.181182936 -0.244762987 0.768728256
v -0.18665579 -0.250149131 0.764186144
v -0.182097957 -0.255213946 0.762853026
v -0.173923314 -0.258129537 0.778255463
v -0.172059894 -0.260374039 0.785201132
v -0.166667879 -0.264410108 0.796194494
v -0.168320388 -0.268155634 0.797605574
v -0.171734422 -0.275694072 0.800256789
v -0.169196352 -0.280922085 0.806744039
v -0.171831608 -0.285099119 0.806617677
v -0.174368188 -0.289235085 0.806648672
v -0.172171995 -0.294589162 0.812583804
v -0.175847322 -0.302231133 0.814810514
v -0.177545443 -0.305989206 0.816140532
v -0.176269174 -0.308388114 0.822063506
v -0.17469129 -0.313977301 0.827006936
v -0.1734844 -0.316384435 0.832800984
v -0.172701091 -0.322313368 0.83650583
v -0.177655101 -0.330527723 0.836732328
v -0.179354325 -0.334272861 0.838042736
v -0.180922717 -0.33795622 0.839553475
v -0.169203937 -0.334944099 0.866651714
v -0.178071752 -0.34166044 0.862284184
v -0.184215695 -0.34750405 0.856820643
v -0.177521259 -0.350970507 0.864189386
v -0.172800571 -0.354927361 0.873825669
v -0.174483612 -0.358636826 0.87512368
v -0.177115649 -0.362807989 0.874984384
v -0.219153583 -0.385767341 0.820595324
v -0.224571049 -0.387512058 0.823088288
v -0.229861915 -0.389195025 0.825772166
v -0.226623893 -0.390561759 0.834513366
v -0.231922626 -0.392250925 0.837157309
v -0.225002989 -0.391352296 0.856563747
v -0.224573568 -0.39024657 0.867622912
v -0.229824618 -0.391920537 0.870243073
v -0.225713134 -0.392370641 0.885261714
v -0.226171508 -0.391703904 0.894853473
v -0.226702243 -0.394406945 0.902947962
v -0.227817312 -0.394507408 0.906412303
v -0.233017027 -0.396165013 0.909006894
v -0.247032031 -0.398794621 0.900186718
v -0.250564277 -0.396736145 0.901489437
v -0.251398355 -0.393372774 0.906673789
v -0.253158063 -0.393365949 0.914226651
v -0.252207488 -0.398688525 0.922995985
v -0.253771544 -0.401896596 0.929451644
v -0.255119503 -0.405432761 0.931214333
v -0.256628186 -0.409046739 0.932747424
v -0.364735335 -0.464634508 0.78825295
v -0.369585037 -0.466074228 0.791849971
v -0.367904931 -0.468271226 0.798072457
v -0.374149531 -0.473895967 0.798332512
v -0.376326323 -0.481007814 0.802956223
v -0.378324062 -0.481514663 0.80533874
v -0.380870551 -0.485304147 0.810771644
v -0.371030569 -0.483393341 0.828284621
v -0.365984112 -0.483358562 0.844183266
v -0.366710991 -0.486198604 0.852011502
v -0.366725504 -0.488671064 0.860789776
v -0.37383458 -0.491752118 0.856040061
v -0.374457181 -0.497980773 0.862652004
v -0.377144575 -0.498837471 0.863992929
v -0.380096972 -0.506235003 0.8673926
v -0.379124343 -0.50817132 0.877427697
v -0.381394565 -0.508816957 0.879321396
v -0.369440824 -0.505133271 0.904182673
v -0.366073996 -0.506318092 0.912395
v -0.36844793 -0.509920716 0.917728841
v -0.374753743 -0.515541553 0.917755723
v -0.374968886 -0.518547714 0.921093702
v -0.378666848 -0.522825658 0.924627185
v -0.377894163 -0.525312662 0.929273784
v -0.379562646 -0.528530538 0.935496509
v -0.374142736 -0.528050363 0.951119959
v -0.376771182 -0.528888226 0.9524315
v -0.368389964 -0.52684319 0.971868634
v -0.369980752 -0.529983044 0.978050709
v -0.370946318 -0.533324242 0.980303407
v -0.382325262 -0.541596055 0.973604441
v -0.379904419 -0.543160319 0.980304241
v -0.382004142 -0.546554565 0.98578763
v -0.380684435 -0.54868257 0.991015315
v -0.380980521 -0.551108778 0.998812258
v -0.382746786 -0.554860651 0.999999881
v -0.38250953 -0.561472833 0.997921109
v -0.381578863 -0.567722261 0.996741474
v -0.381019264 -0.574178755 0.99507606
v -0.383151531 -0.578135729 0.99579376
v -0.190384746 -0.134954572 0.700418055
v -0.270925194 -0.156918034 0.574861228
v -0.269853473 -0.153260157 0.566317558
v -0.265458524 -0.148325801 0.569024086
v -0.262126446 -0.14377284 0.570034504
v -0.261159629 -0.13650097 0.574782312
v -0.27075991 -0.132944167 0.556624413
v -0.27175945 -0.129808754 0.556624413
v -0.273356259 -0.123509251 0.545327246
v -0.271519065 -0.119460061 0.543910444
v -0.270684153 -0.112266861 0.542493582
v -0.270874888 -0.108887948 0.537799358
v -0.274512678 -0.103172831 0.523105264
v -0.272666514 -0.0991038829 0.521681547
v -0.270839214 -0.0915578455 0.521863222
v -0.269981354 -0.0878066346 0.518834054
v -0.266836226 -0.0798416883 0.515093863
v -0.271717668 -0.0778858215 0.502677798
v -0.267762154 -0.0696630478 0.50633949
v -0.269022286 -0.0665456206 0.499819458
v -0.270611852 -0.0599925593 0.488264352
v -0.281825721 -0.0633743033 0.463654459
v -0.271401495 -0.0566102788 0.470109969
v -0.262386799 -0.0502922162 0.474293947
v -0.26409173 -0.0438209064 0.474835038
v -0.271726787 -0.0390241593 0.459351867
v -0.269856542 -0.0349021181 0.457909524
v -0.267986268 -0.0307800807 0.456467211
v -0.263549298 -0.0223364327 0.45474273
v -0.249633223 -0.0182563141 0.471704721
v -0.24254325 -0.0229848735 0.467690885
v -0.240983009 -0.0295585636 0.473155886
v -0.234721094 -0.031118542 0.475720078
v -0.236112088 -0.0349458531 0.465414196
v -0.229348198 -0.0362960026 0.462545425
v -0.633090138 -0.165515348 -0.232415617
v -0.637610137 -0.171195865 -0.234488875
v -0.634696305 -0.178822353 -0.233743399
v -0.636791646 -0.188032538 -0.233799681
v -0.633895397 -0.195663646 -0.233085141
v -0.635682583 -0.204785705 -0.232618436
v -0.634216428 -0.208594888 -0.232230932
v -0.636591494 -0.217914447 -0.232759267
v -0.633455873 -0.225466669 -0.231641337
v -0.637283802 -0.235282421 -0.234631583
v -0.634420097 -0.24292928 -0.233978733
v -0.636096418 -0.252042741 -0.233318508
v -0.634856761 -0.255931377 -0.233318508
v -0.636703908 -0.265109956 -0.232946366
v -0.633517146 -0.272642851 -0.231747702
v -0.636560023 -0.282250643 -0.233402386
v -0.634510756 -0.285855561 -0.232031301
v -0.631839037 -0.293568641 -0.231706947
v -0.635120034 -0.303285599 -0.233766496
v -0.633316696 -0.311323553 -0.234920546
v -0.626831174 -0.313461274 -0.233738542
v -0.635522783 -0.325599223 -0.260576308
v -0.637661874 -0.334976196 -0.260685295
v -0.63515377 -0.342812032 -0.260669827
v -0.637503207 -0.352282226 -0.261136293
v -0.636339664 -0.356237561 -0.261284381
v -0.637753546 -0.365355819 -0.260152042
v -0.635252535 -0.373201132 -0.260152042
v -0.189231187 -0.204576239 0.504357755
v -0.178913534 -0.200255454 0.528199732
v -0.186569422 -0.195793867 0.531023204
v -0.181912884 -0.190042362 0.552926362
v -0.1852559 -0.187645838 0.555105627
v -0.191167131 -0.186053395 0.559089065
v -0.194832489 -0.183785111 0.56071955
v -0.182365909 -0.175164357 0.59524858
v -0.186079726 -0.172953114 0.59671706
v -0.192007855 -0.171414062 0.600508094
v -0.195769057 -0.169222161 0.601895273
v -0.180388913 -0.159703672 0.640617788
v -0.182379872 -0.15689455 0.644811392
v -0.188837469 -0.15560554 0.647550225
v -0.19103761 -0.152746812 0.657192051
v -0.194742203 -0.150587901 0.658558309
v -0.196983308 -0.147769064 0.668056548
v -0.19787015 -0.144595489 0.673932374
v -0.191491842 -0.138809517 0.691427648
v -0.223139718 -0.380374491 0.700773537
v -0.147014827 -0.336818725 0.823224425
v -0.145924821 -0.333364725 0.820956409
v -0.144543007 -0.326419055 0.820603192
v -0.143738344 -0.32309702 0.817883611
v -0.142867282 -0.316393495 0.816727281
v -0.14600195 -0.311948419 0.803776741
v -0.145033836 -0.308530688 0.801292241
v -0.144258007 -0.301846683 0.799975693
v -0.142550856 -0.29808411 0.798659146
v -0.144009009 -0.292783082 0.788274944
v -0.14494288 -0.289853662 0.788274944
v -0.144758731 -0.283769846 0.780469358
v -0.144041315 -0.280438662 0.777554154
v -0.145163849 -0.277928203 0.771692216
v -0.144171029 -0.271105349 0.770705819
v -0.144124448 -0.265025675 0.762614191
v -0.150686055 -0.268245876 0.74645555
v -0.140755817 -0.261150211 0.752701759
v -0.137314007 -0.256596178 0.754145145
v -0.135590509 -0.252797544 0.752815962
v -0.143385142 -0.249456257 0.743255913
v -0.142599285 -0.242685825 0.741922379
v -0.143599167 -0.240040377 0.736167014
v -0.141867325 -0.23622337 0.734831393
v -0.236787066 -0.273655474 0.570449233
v -0.238918141 -0.278419107 0.559322059
v -0.234724939 -0.280810475 0.552434087
v -0.227699682 -0.281994104 0.550173461
v -0.221022829 -0.283326864 0.547341585
v -0.237400144 -0.294352472 0.512400806
v -0.233519331 -0.296614081 0.510969579
v -0.233843446 -0.301067114 0.496294826
v -0.227068827 -0.302419424 0.493421525
v -0.220312655 -0.3037799 0.49051711
v -0.239278167 -0.316242993 0.45045808
v -0.188385993 -0.300732613 0.533051491
v -0.189790383 -0.304585874 0.535198569
v -0.190077081 -0.311140299 0.543733358
v -0.187479749 -0.313156843 0.552596688
v -0.186994106 -0.319710463 0.556219041
v -0.187867984 -0.323297352 0.559227765
v -0.189757779 -0.330527335 0.564993858
v -0.191542223 -0.334530175 0.566468298
v -0.19019255 -0.340647906 0.571511447
v -0.191321239 -0.344336689 0.574072957
v -0.186241493 -0.348655134 0.585312963
v -0.185694262 -0.351527631 0.590641916
v -0.18938157 -0.359551013 0.593339682
v -0.1884505 -0.362222046 0.59928143
v -0.18718189 -0.368294269 0.604136944
v -0.188990816 -0.372281104 0.605531931
v -0.211614445 -0.385988146 0.578669012
v -0.21543403 -0.383762211 0.580077648
v -0.216231957 -0.379599571 0.592446446
v -0.228206411 -0.380862594 0.586546898
v -0.229070604 -0.380355805 0.597110391
v -0.230423689 -0.380089343 0.6068241
v -0.250579655 -0.385722011 0.58188951
v -0.254853815 -0.383249283 0.588551819
v -0.252822518 -0.384982228 0.602066934
v -0.254045695 -0.388714343 0.604433119
v -0.223029703 -0.379984051 0.662392437
v -0.229780778 -0.382792503 0.657448292
v -0.23663944 -0.385194451 0.658141196
v -0.2091344 -0.374497712 0.711475015
v -0.213601857 -0.376209587 0.710100055
v -0.222324416 -0.427647591 0.735733986
v -0.1416706 -0.379379064 0.869106889
v -0.143579885 -0.374618649 0.858335316
v -0.141894534 -0.370904118 0.857035577
v -0.140209183 -0.367189556 0.855735838
v -0.142366856 -0.362501502 0.844507277
v -0.135257378 -0.356555074 0.846294224
v -0.13617821 -0.353666544 0.846294224
v -0.200424746 -0.379316211 0.737543404
v -0.207367361 -0.383177698 0.721014798
v -0.208919719 -0.384871036 0.707252622
v -0.199123412 -0.377515465 0.712916136
v -0.256811947 -0.410274178 0.608207583
v -0.252768338 -0.415997803 0.605578721
v -0.253172129 -0.419816196 0.603344381
v -0.249641448 -0.422695458 0.595539212
v -0.240145162 -0.418971777 0.598904252
v -0.229769766 -0.418419063 0.602132261
v -0.227453545 -0.420869738 0.604271948
v -0.224602088 -0.421992928 0.619151711
v -0.226537824 -0.421925873 0.627842724
v -0.216562793 -0.419941097 0.648141801
v -0.226025343 -0.423689693 0.644678533
v -0.210581496 -0.41838029 0.679356456
v -0.21788393 -0.421045542 0.679265201
v -0.217523098 -0.423364908 0.689770281
v -0.223532394 -0.425376505 0.691716909
v -0.219580263 -0.425857425 0.707779646
v -0.222219959 -0.426679969 0.709302664
v -0.221664205 -0.425358683 0.721452475
v -0.21637027 -0.425132155 0.739405096
v -0.0976546407 -0.396457255 0.920521677
v -0.130876198 -0.406750917 0.876961827
v -0.129266873 -0.399224788 0.882295251
v -0.131092459 -0.393498093 0.882295251
v -0.203347713 -0.42839545 0.760757685
v -0.212159395 -0.434000969 0.735893726
v -0.199417084 -0.424478829 0.751703739
v -0.218384385 -0.435297787 0.710769534
v -0.213681519 -0.430421382 0.708342075
v -0.211555377 -0.430396885 0.70031774
v -0.212363109 -0.43188557 0.687597632
v -0.204295978 -0.424737483 0.696212411
v -0.206655547 -0.427016318 0.680964053
v -0.200546846 -0.421405584 0.68073225
v -0.215015799 -0.429889768 0.645898521
v -0.210621461 -0.425131977 0.642821193
v -0.209085226 -0.425419867 0.63352704
v -0.188079923 -0.419298738 0.654227376
v -0.189869687 -0.423243403 0.655607641
v -0.191659451 -0.427188039 0.656987906
v -0.186940894 -0.431312025 0.667326987
v -0.187870666 -0.437793434 0.674340785
v -0.188465342 -0.441095978 0.677629232
v -0.190246016 -0.445020616 0.679002523
v -0.189450413 -0.451139808 0.68295759
v -0.0700083077 -0.390457302 0.8790676
v -0.0751454681 -0.39209494 0.881630957
v -0.0748376995 -0.390837699 0.892873347
v -0.0837452784 -0.391160429 0.890853822
v -0.0853594765 -0.391475379 0.893639147
v -0.0932805687 -0.391265869 0.893217623
v -0.0931131616 -0.393960446 0.89737612
v -0.091924265 -0.392264724 0.90984112
v -0.0928947031 -0.39501074 0.917449594
v -0.092843838 -0.39444986 0.922779024
g path_000000
l 32 31 30 29 28 27 26 25 24 23 22 21 20 19 18 17 16 15 14 13 12 11 10 9 8 7 6 5 4 3 2 1 1373 1372 1371 1370 1369 1368 1367 1366 1365 1364 1363 1362 1361
g path_000001
l 33 34 35 36 37 38
g path_000002
l 39 40 41 42
g path_000003
l 43 44 45 46 47 48 49 50 51 52 53 54 55 56 57 58 59 60 61 62 63 64 65 66 67 68 69 70 71 72 73 74 75 76 77 78 79 80 81 82 83 84 85 86 87
g path_000004
l 88 89 90 91 92 93 94
g path_000005
l 95 96 97 98 99 100 101 102 103 104 105 106 107 108 109 110 111 112 113 114 115 116 117 118 119 120 121 122 123 124 125 126 127 128 129 130 131 132 133 134 135 136 137 138 139 140 141
g path_000006
l 142 143 144 145 146 147 148 149
g path_000007
l 150 151 152 153 154 155 156 157 158 159 160 161 162 163 164 165 166 167 168 169 170 171 172 173 174 175 176 177 178 179 180 181 182 183 184 185 186 187 188 189 190 191 192 193 194 195 196
g path_000008
l 197 198 199 200 201 202 203 204 205 206 207 208 209 210 211
g path_000009
l 212 213
g path_000010
l 214 215 216 217 218 219 220 221 222 223 224 225 226 227 228 229 230 231 232 233 234 235 236 237 238 239 240 241 242 243 244 245 246 247 248 249 250 251 252 253 254 255 256 257 258 259 260 261 262
g path_000011
l 263 264 265 266 267 268 269 270
g path_000012
l 271 272 273 274 275 276 277 278 279 280 281 282 283 284 285 286 287 288 289 290 291 292 293 294 295 296 297 298 299 300 301 302 303 304 305 306 307 308 309 310 311 312 313 314 315 316 317 318 319 320
g path_000013
l 321 322 323 324 325
g path_000014
l 326 327 328 329
g path_000015
l 330 331 332 333 334 335 336 337 338 339 340 341 342 343 344 345 346 347 348 349 350 351 352 353 354 355 356 357 358 359 360 361 362 363 364 365 366 367 368 369 370 371 372 373 374 375 376 377 378 379 380 381 382 383 384 385 386 387 388 389 390 391 392 393 394 395
g path_000016
l 396 397 398 399 400 401 402 403 404 405 406 407 408 409 410 411 412 413 414 415 416 417 418 419 420 421 422 423 424 425 426 427 428 429 430 431 432 433 434 435 436 437 438 439 440 441 442 443 444 445 446 447 448 449 450 451 452 453 454 455 456 457 458 459 460 461 462 463 464 465 466 467 468 469 470 471
g path_000017
l 472 473 474 475 476 477 478 479 480 481 482 483 484 485 486 487 488 489 490 491 492 493 494 495 496 497 498 499 500 501 502 503 504 505 506 507 508 509 510 511 512 513 514 515 516 517 518 519 520 521 522 523 524 525 526 527 528 529 530 531 532 533 534 535 536 537 538 539 540 541 542 543 544 545 546 547 548 549 550 551 552 553 554 555 556 557 558 559 560 561 562 563 564 565 566 567 568 569 570 571 572 573 574 575 576 577 578 579 580 581 582 583 584 585 586 587 588 589 590 591 592 593 594 595 596 597 598 599 600 601 602 603 604 605 606 607 608 609 610 611 612 613 614 615 616 617 618 619 620 621 622 623 624 625 626 627 628 629 630 631 632 633 634 635 636 637 638 639 640 641 642 643 644 645 646 647 648 649 650 651 652 653 654 655 656 657 658 659 660 661 662 663 664 665 666 667 668 669 670 671 672 673 674 675 676 677 678 679 680 681 682 683 684 685 686 687 688 689 690 691 692 693 694 695 696 697 698 699 700 701 702 703 704 705 706 707 708 709 710 711 712 713 714 715 716 717 718 719 720 721 722 723 724 725 726 727 728 729 730 731 732 733 734 735 736 737 738 739 740 741 742 743 744 745 746 747 748 749 750 751 752 753 754 755 756 757 758 759 760 761 762 763 764 765 766 767 768 769 770 771 772 773 774 775 776 777 778 779 780 781 782 783 784 785 786 787 788 789 790 791 792 793 794 795 796 797 798 799 800 801 802 803 804 805 806 807 808 809 810 811 812 813 814 815 816 817 818
g path_000018
l 819 820 821 822 823 824 825 826 827 828
g path_000019
l 829 830 831 832 833 834 835 836 837 838 839 840 841 842 843 844 845 846 847 848 849 850 851 852 853 854 855 856 857 858 859 860 861 862 863 864 865 866 867 868 869 870 871 872 873 874 875 876 877 878 879 880 881 882 883 884 885 886 887 888 889 890 891 892 893 894 895 896 897 898 899 900 901 902 903 904 905 906 907 908 909 910 911 912 913 914 915 916 917 918
g path_000020
l 919 920 921 922 923 924 925 926 927 928 929 930 931 932 933 934 935 936 937 938 939 940 941 942 943 944 945 946
g path_000021
l 947 948 949 950 951 952 953 954 955 956 957 958 959 960 961 962 963 964 965 966 967 968 969 970 971 972 973 974 975 976 977 978 979 980 981 982 983 984 985 986 987 988 989 990 991 992 993 994 995 996 997 998 999 1000 1001 1002 1003
g path_000022
l 1004 1005 1006 1007 1008 1009 1010 1011 1012 1013 1014 1015
g path_000023
l 1016 1017 1018 1019 1020 1021
g path_000024
l 1022 1023 1024 1025 1026 1027 1028 1029 1030 1031 1032 1033 1034 1035 1036 1037 1038 1039 1040
g path_000025
l 1041 1042
g path_000026
l 1043 1044 1045 1046
g path_000027
l 1047 1048 1049 1050 1051 1052 1053 1054 1055 1056 1057 1058 1059 1060 1061 1062 1063 1064 1065 1066 1067 1068 1069 1070 1071 1072 1073 1074 1075 1076 1077 1078 1079 1080 1081 1082 1083 1084 1085 1086 1087 1088 1089 1090 1091 1092 1093 1094 1095 1096 1097 1098 1099 1100 1101 1102 1103 1104
g path_000028
l 1105 1106 1107 1108 1109 1110 1111 1112 1113 1114 1115 1116
g path_000029
l 1117 1118 1119 1120 1121 1122 1123 1124
g path_000030
l 1125 1126 1127 1128 1129
g path_000031
l 1130 1131 1132 1133 1134 1135 1136 1137 1138 1139 1140
g path_000032
l 1141 1142 1143 1144 1145 1146 1147 1148 1149 1150 1151 1152 1153 1154 1155 1156 1157 1158 1159 1160 1161 1162 1163 1164 1165 1166 1167 1168 1169 1170 1171 1172 1173 1174 1175 1176 1177 1178 1179 1180 1181 1182 1183 1184 1185 1186 1187 1188 1189 1190 1191
g path_000033
l 1192 1193 1194 1195 1196 1197 1198 1199 1200
g path_000034
l 1201 1202 1203 1204 1205 1206 1207 1208 1209 1210 1211 1212 1213 1214 1215
g path_000035
l 1216 1217 1218 1219
g path_000036
l 1220 1221 1222 1223 1224
g path_000037
l 1225 1226 1227 1228 1229 1230 1231 1232 1233
g path_000038
l 1234 1235 1236 1237 1238
g path_000039
l 1239 1240 1241 1242 1243 1244 1245
g path_000040
l 1246 1247 1248 1249 1250 1251 1252 1253 1254 1255 1256 1257 1258 1259 1260
g path_000041
l 1261 1262
g path_000042
l 1263 1264 1265 1266
g path_000043
l 1267 1268 1269
g path_000044
l 1270 1271
g path_000045
l 1272 1273
g path_000046
l 1275 1276 1277 1278 1279
g path_000047
l 1280 1281 1282
g path_000048
l 1283 1284 1285 1286 1287 1288 1289 1290 1291 1292 1293 1294 1295 1296 1297 1298 1299 1300 1301 1302 1303 1304 1305
g path_000049
l 1306 1307 1308 1309 1310 1311 1312
g path_000050
l 1313 1314 1315 1316 1317
g path_000051
l 1318 1319 1320 1321 1322 1323 1324 1325 1326 1327 1328 1329 1330 1331 1332 1333
g path_000052
l 1334 1335 1336 1337 1338 1339 1340
g path_000053
l 1341 1342 1343 1344 1345 1346 1347 1348 1349 1350
g path_000054
l 1351 1352 1353 1354 1355 1356 1357 1358 1359 1360
g path_000055
l 1374 1455
g path_000056
l 1375 1376 1377 1378 1379
g path_000057
l 1380 1381 1382 1383 1384 1385 1386 1387 1388 1389 1390 1391 1392 1393 1394
g path_000058
l 1395 1396 1397 1398 1399 1400 1401 1402
g path_000059
l 1403 1404 1405 1406 1407 1408
g path_000060
l 1409 1410 1411 1412 1413 1414 1415 1416 1417 1418 1419 1420 1421 1422 1423 1424 1425 1426 1427 1428 1429
g path_000061
l 1430 1431 1432 1433 1434 1435 1436
g path_000062
l 1438 1439
g path_000063
l 1440 1441 1442 1443
g path_000064
l 1444 1445 1446 1447
g path_000065
l 1448 1449 1450 1451 1452 1453 1454
g path_000066
l 1456 1522 1521
g path_000067
l 1457 1458 1459 1460 1461 1462 1463 1464 1465 1466 1467 1468 1469 1470 1471 1472 1473 1474 1475 1476 1477 1478 1479 1480
g path_000068
l 1481 1482 1483 1484 1485
g path_000069
l 1486 1487 1488 1489 1490
g path_000070
l 1492 1493 1494 1495 1496 1497 1498 1499 1500 1501 1502 1503 1504 1505 1506 1507
g path_000071
l 1508 1509 1510 1511 1512 1513
g path_000072
l 1514 1515 1516 1517
g path_000073
l 1518 1519 1520
g path_000074
l 1523 1553 1552 1551 1550 1549 1548 1547 1546
g path_000075
l 1524 1525 1526 1527 1528 1529 1530
g path_000076
l 1531 1532 1533 1534
g path_000077
l 1535 1536 1537 1538 1539 1540 1541 1542 1543
g path_000078
l 1544 1545
g path_000079
l 1554 1588 1587 1586 1585 1584 1583 1582 1581 1580 1579
g path_000080
l 1555 1556 1557
g path_000081
l 1561 1562 1563 1564 1565 1566 1567
g path_000082
l 1568 1569 1570
g path_000083
l 1571 1572 1573 1574 1575 1576 1577 1578
