# Fixed world centers; Z up; paths immutable
v 0.0612918958 0.664157569 1.02741969
v 0.159312025 0.6703794 0.987251401
v 0.0559484512 0.673811793 1.02386487
v 0.0470391586 0.68046093 1.02145827
v -0.00909130834 0.683617651 1.04020894
v -0.00964333024 0.686888814 1.03755665
v -0.00771938032 0.693452537 1.0310725
v -0.00526908785 0.696751058 1.0272454
v -0.00517917238 0.700396895 1.02121663
v -0.000852191704 0.701153219 1.01327157
v -0.00197368837 0.701865673 1.00745022
v -0.0534365401 0.699237049 1.02137411
v -0.0608485416 0.699532151 1.02123201
v -0.0641380474 0.700214505 1.01636624
v -0.0665210038 0.700904548 1.01113594
v -0.0672325045 0.701609671 1.00522673
v -0.0688574761 0.702307761 0.999678433
v -0.0680458397 0.700130701 0.992883861
v -0.0725502223 0.695007503 0.988002956
v -0.0742000863 0.695349693 0.985562503
v -0.075330697 0.690244019 0.979287446
v -0.0644255057 0.690653324 0.971643209
v -0.102836855 0.688263535 0.98109448
v -0.125471771 0.685983658 0.984088123
v -0.127102152 0.686321795 0.981676519
v -0.117792062 0.687051654 0.97155714
v -0.0619100966 0.687995374 0.941674471
v -0.153127775 0.685422301 0.973862708
v -0.114457667 0.686262727 0.951151073
v -0.062247809 0.68717891 0.922458112
v -0.0641082376 0.687879682 0.91686666
v -0.128007784 0.685403645 0.937896013
v -0.090858534 0.686245203 0.915428281
v -0.0912520587 0.686947703 0.909222245
v -0.164458454 0.684123158 0.937869847
v -0.123325117 0.684957862 0.913494706
v -0.125558183 0.685647011 0.908135653
v -0.15602088 0.683342338 0.915059805
v -0.137234032 0.684095263 0.900356233
v -0.186990052 0.681756139 0.916062415
v -0.179462314 0.682118237 0.9095397
v -0.166456327 0.682842553 0.897364378
v -0.19570975 0.680581152 0.904042006
v -0.181436419 0.681298614 0.891238868
v -0.206028461 0.679063499 0.895903647
v -0.201121658 0.679753065 0.887346029
v -0.189970881 0.680460095 0.875866592
v -0.214738935 0.677889764 0.883895934
v -0.211155072 0.678574145 0.875911415
v -0.22945632 0.676372647 0.877860248
v -0.224585503 0.677053392 0.869257569
v -0.226895899 0.677728236 0.864011288
v -0.240012795 0.675200999 0.86676681
v -0.237535268 0.675876498 0.859262466
v -0.25607878 0.673695445 0.861489475
v -0.251525402 0.674366474 0.852983773
v -0.264659673 0.672195017 0.852683067
v -0.259814173 0.672526896 0.847178519
v -0.261035293 0.673197031 0.841421366
v -0.269125134 0.671025276 0.838714778
v -0.271573037 0.671694756 0.833554089
v -0.281674325 0.669530571 0.831862867
v -0.279186398 0.67019248 0.824273169
v -0.29458636 0.667711735 0.828415394
v -0.290459543 0.668365419 0.820008099
v -0.321298271 0.666266024 0.828735828
v -0.314153969 0.666904569 0.818825245
v -0.345492303 0.66483289 0.82796222
v -0.337208986 0.665133059 0.820629597
v -0.329548806 0.665764391 0.810416222
v -0.331507504 0.666424632 0.805054069
v -0.349354237 0.664318264 0.807515025
v -0.352538466 0.664978743 0.802804947
v -0.369826078 0.66288805 0.805072725
v -0.371091574 0.663538694 0.799398065
v -0.385768801 0.661452532 0.800394833
v -0.384914219 0.661769986 0.796788335
v -0.38131085 0.662399113 0.788567007
v -0.390973985 0.660295129 0.786991
v -0.393249393 0.660947263 0.781843364
v -0.399559617 0.658513248 0.781701624
v -0.400386393 0.659156621 0.775787771
v -0.408980399 0.657058418 0.773704112
v -0.409100026 0.657696009 0.767405808
v -0.417678595 0.65560168 0.765340388
v -0.417343497 0.656234443 0.758786201
v -0.422986209 0.653807104 0.758341193
v -0.422657669 0.654437661 0.751778364
v -0.42882061 0.65233171 0.748434305
v -0.435990423 0.650237918 0.745655
v -0.434972644 0.650543451 0.741896212
v -0.441293538 0.648444891 0.738661647
v -0.438091338 0.649042845 0.730472267
v -0.444461793 0.646631181 0.730480611
v -0.443406463 0.647245705 0.723463118
v -0.443675458 0.645085573 0.716845274
v -0.447415709 0.642958164 0.712166727
v -0.453773946 0.64086163 0.708969772
v -0.451849729 0.641148508 0.704645514
v -0.455591172 0.639020503 0.699965477
v -0.446440786 0.639526367 0.688243687
v -0.449803412 0.637075007 0.68657738
v -0.449852198 0.637693584 0.680078804
v -0.453612745 0.635554671 0.675374866
v -0.457137823 0.633412361 0.670534253
v -0.449407905 0.633916795 0.659472227
v -0.45268333 0.631454766 0.657751024
v -0.454779923 0.632100463 0.652388096
v -0.457220078 0.629932046 0.646878958
v -0.460997492 0.627783537 0.642153919
v -0.456925273 0.628021955 0.636432052
v -0.460223854 0.625860751 0.631407917
v -0.464009613 0.623707533 0.626672447
v -0.451808512 0.623793006 0.616040766
v -0.460071802 0.621712267 0.61396277
v -0.450225532 0.622137725 0.601328373
v -0.454173058 0.619969666 0.596634328
v -0.461407781 0.617867708 0.593941987
v -0.457456052 0.618091047 0.588164866
v -0.464445591 0.615984619 0.585329711
v -0.455385655 0.616401494 0.573003113
v -0.461324662 0.613966167 0.572903931
v -0.445778102 0.614238501 0.55649668
v -0.449772894 0.612050593 0.551766634
v -0.459231645 0.609987855 0.550446093
v -0.456740201 0.610532105 0.542040825
v -0.463148057 0.608101845 0.542258024
v -0.467541814 0.605927408 0.53779155
v -0.451455772 0.606134474 0.520744801
v -0.47301355 0.604077339 0.530575931
v -0.456445068 0.604258597 0.513147533
v -0.460318267 0.602055609 0.508302689
v -0.464710593 0.59986639 0.503791034
v -0.458677113 0.60030061 0.492949247
v -0.469702363 0.597989321 0.496190548
v -0.442089736 0.597833157 0.471322328
v -0.444467783 0.595562756 0.465422273
v -0.470043391 0.593956053 0.474675387
v -0.448429197 0.593631566 0.457013279
v -0.453961492 0.591449022 0.45316866
v -0.450511247 0.591938555 0.443802714
v -0.456511289 0.589472592 0.443815231
v -0.456100017 0.590048909 0.436432719
v -0.460027993 0.587814808 0.431519389
v -0.463955939 0.585580647 0.426606059
v -0.452429771 0.585802615 0.411715329
v -0.455766708 0.583244503 0.409957796
v -0.450439125 0.58365792 0.399162233
v -0.454398841 0.581405699 0.394209176
v -0.458358526 0.579153538 0.38925615
v -0.459433228 0.579480529 0.386370271
v -0.463992476 0.577248633 0.38182658
v -0.449469686 0.577327549 0.364576131
v -0.453454852 0.575060904 0.359591275
v -0.457439989 0.572794259 0.35460639
v -0.454308599 0.572970033 0.348766744
v -0.45830062 0.570699453 0.343773276
v -0.442262769 0.570686638 0.325182796
v -0.461346596 0.56867969 0.33443436
v -0.445166439 0.568647265 0.315656602
v 0.396749914 0.537833691 -0.287152588
v 0.405959576 0.54218936 -0.302811533
v 0.401953846 0.546653211 -0.304255486
v 0.399067521 0.547520816 -0.311937511
v 0.397132725 0.548356414 -0.320309311
v 0.407408804 0.54481709 -0.338058621
v 0.435953021 0.544586301 -0.368489921
v 0.44595778 0.549025238 -0.38507089
v 0.447671384 0.549754322 -0.39629665
v 0.446281254 0.554607332 -0.404687583
v 0.434479952 0.55538404 -0.401073009
v 0.43931824 0.560038865 -0.414022505
v 0.442260742 0.556726694 -0.42684114
v 0.456218898 0.55668503 -0.442173302
v 0.454144239 0.55755347 -0.450765729
v 0.454483598 0.55429703 -0.461786091
v 0.431390405 0.551807046 -0.455354214
v 0.458560675 0.551706731 -0.485845506
v 0.401210785 0.549981475 -0.448550195
v 0.419180751 0.550161839 -0.472185642
v 0.0356286988 0.560178638 -0.192932978
v 0.0784338191 0.55941385 -0.234558001
v 0.43116793 0.548084557 -0.512550354
v 0.442886561 0.548482239 -0.531797111
v 0.143885523 0.5593642 -0.312687546
v 0.000229040306 0.561312973 -0.212143525
v 0.00634858198 0.561453164 -0.221440211
v 0.0265869759 0.561464608 -0.246298984
v 0.113951549 0.562938035 -0.322883785
v 0.0797265545 0.564795375 -0.305714756
v 0.0634004325 0.566057444 -0.302389055
v 0.0490882285 0.567249119 -0.300576687
v 0.0447014198 0.568117917 -0.306534052
v 0.0509048738 0.568649292 -0.320872366
v 0.0467396863 0.569513261 -0.32703349
v 0.0354946963 0.570599616 -0.327550113
v 0.0192886163 0.571837485 -0.324056298
v 0.0151476627 0.572696447 -0.330181569
v 0.00576559361 0.573716462 -0.332082778
v 0.00163130008 0.574574053 -0.338198185
v -0.0277786702 0.572563708 -0.324403763
v -0.0298301969 0.572989285 -0.327438354
v -0.0461461954 0.574219942 -0.323537678
v -0.0677982271 0.575609744 -0.315193653
v -0.0754793361 0.576563656 -0.318233371
v -0.0844059959 0.573962748 -0.320834786
v -0.086463131 0.574741304 -0.328487962
v -0.0492781661 0.574300945 -0.368774116
v -0.100380912 0.573015809 -0.336268276
v -0.0916576982 0.573450208 -0.352958292
v 0.503082097 0.559690237 -0.861480951
v 0.500662506 0.560192108 -0.865059912
v 0.496706724 0.565454423 -0.872217894
v 0.491867632 0.566458166 -0.879375875
v 0.490119308 0.571660161 -0.888410985
v 0.480053723 0.572370172 -0.885480106
v 0.476103693 0.577624798 -0.892627656
v 0.475016564 0.578531325 -0.902987182
v 0.468044549 0.575311184 -0.909063935
v 0.465235978 0.571979225 -0.918730557
v 0.465715826 0.572402 -0.924819589
v 0.457092553 0.564511299 -0.924554288
v 0.450860977 0.560845673 -0.925584316
v 0.446349859 0.552850962 -0.928871453
v 0.43825826 0.544982791 -0.929030359
v 0.434189767 0.541262805 -0.931924164
v 0.4678666 0.536562502 -0.973657966
v 0.471221864 0.537272274 -0.988131762
v 0.463805228 0.533630729 -0.988144636
v 0.45371604 0.52618438 -0.992333949
v 0.450529516 0.521984637 -0.990297556
v -0.268723935 0.54516536 -0.362915367
v -0.279762059 0.542479813 -0.358372867
v -0.292571068 0.540209532 -0.356860936
v -0.299909651 0.53770256 -0.360212117
v -0.285312146 0.537346065 -0.378011078
v -0.318638533 0.536049545 -0.357902646
v -0.327439785 0.5336321 -0.359853566
v -0.339630991 0.531081617 -0.354057521
v -0.35492155 0.529010832 -0.350017518
v -0.3587825 0.52981168 -0.355728596
v -0.47761187 0.532728374 -0.251960456
v -0.482898474 0.533577085 -0.255985767
v -0.462757319 0.539781749 -0.282238185
v -0.446932942 0.539319992 -0.30136776
v -0.454268306 0.540270269 -0.30360347
v -0.45746243 0.544356763 -0.309036195
v -0.460529804 0.548437238 -0.31458661
v -0.463487178 0.549180031 -0.32088244
v -0.47423327 0.546943784 -0.320497632
v -0.47535941 0.547298133 -0.323970973
v -0.479789048 0.544778705 -0.329511881
v -0.456549317 0.54430443 -0.360679805
v -0.455482692 0.544865251 -0.370895743
v -0.459271699 0.545651197 -0.376500428
v -0.463060737 0.546437144 -0.382105142
v -0.466698706 0.547216177 -0.387855321
v -0.472728282 0.548103571 -0.391295671
v -0.469934016 0.551652551 -0.397962868
v -0.484662741 0.549562693 -0.393621117
v -0.487456173 0.550302267 -0.400168151
v -0.492960006 0.554516137 -0.403397143
v -0.495694786 0.55860728 -0.40932703
v -0.497582853 0.558998942 -0.412119865
v -0.503647208 0.559877098 -0.41544953
v -0.507420242 0.560659707 -0.421030521
v -0.514930844 0.558250844 -0.423584074
v -0.520203114 0.5590958 -0.427660912
v -0.526613414 0.556337237 -0.426613778
v -0.520704925 0.556702495 -0.44186455
v -0.520460427 0.557313919 -0.451488405
v -0.528022945 0.554906368 -0.453960687
v -0.536036313 0.552525163 -0.455953449
v -0.526688218 0.552724004 -0.474862009
v -0.535496354 0.553732038 -0.47535035
v -0.541934371 0.554633498 -0.47822845
v -0.544513464 0.551700056 -0.481023192
v -0.511505902 0.547428727 -0.525169253
v -0.51533705 0.548223436 -0.530836284
v -0.513030887 0.548737586 -0.542860866
v -0.525424719 0.546521902 -0.540375888
v -0.52652812 0.546881199 -0.544052184
v -0.52786243 0.547559857 -0.552325189
v -0.527387023 0.544744074 -0.563248694
v -0.528123736 0.541671157 -0.568069577
v -0.528820634 0.538591981 -0.572940111
v -0.526488781 0.535656214 -0.585899472
v -0.522514582 0.532621086 -0.600654066
v -0.523622692 0.529537499 -0.605142534
v -0.519803286 0.52648145 -0.619822145
v -0.521803856 0.523432136 -0.623386681
v -0.514177561 0.520134151 -0.642235577
v -0.507369041 0.516857207 -0.660300016
v -0.51004225 0.513816774 -0.663196623
v -0.51467365 0.511182547 -0.668989897
v -0.510820687 0.511534512 -0.683223307
v -0.513501465 0.508485436 -0.686128199
v -0.508101165 0.508738399 -0.702125371
v -0.510047138 0.505921245 -0.710930347
v -0.503359139 0.506090105 -0.728460431
v -0.508042336 0.503426373 -0.734318495
v -0.508641899 0.503751457 -0.73877418
v -0.4991 0.503738225 -0.759617805
v -0.502170563 0.504508018 -0.766522288
v -0.496440142 0.504737616 -0.783264279
v -0.499613136 0.505516291 -0.790100992
v -0.496971667 0.505940735 -0.803482652
v -0.499094784 0.506657541 -0.811538577
v -0.502666533 0.507462919 -0.817968786
v -0.497838348 0.511346579 -0.833110213
v -0.501861811 0.512181103 -0.839061677
v -0.502947271 0.51643014 -0.847531915
v -0.50006932 0.520464838 -0.860562146
v -0.500132918 0.520774603 -0.865791559
v -0.491439313 0.524517059 -0.885584712
v -0.486179739 0.528162241 -0.89613837
v -0.524840117 0.53439182 -0.86125809
v -0.525381684 0.541872621 -0.864226699
v -0.510324955 0.548314452 -0.879965246
v -0.510869205 0.555832505 -0.882948637
v -0.510132909 0.559382379 -0.882948637
v -0.520314097 0.56761533 -0.880059063
v -0.528423309 0.568268955 -0.875935018
v -0.531704247 0.572633564 -0.881871879
v -0.532978415 0.576581895 -0.88484031
v -0.536992013 0.577414393 -0.89077723
v -0.537876427 0.578136504 -0.900398076
v -0.538075805 0.578836262 -0.91085279
v -0.541414976 0.572508097 -0.919359028
v -0.557667792 0.569903016 -0.906292617
v -0.562406182 0.567207932 -0.912219763
v -0.565141141 0.564097226 -0.915183306
v -0.567058563 0.557393074 -0.920001626
v -0.579987884 0.55118686 -0.911613047
v -0.582714736 0.548085392 -0.914567828
v -0.577776968 0.54105103 -0.927637994
v -0.541496634 0.535953581 -0.977710962
v -0.542592287 0.533025444 -0.988225281
v -0.547864199 0.526376367 -0.989112318
v -0.550641656 0.52321732 -0.992121935
v -0.55323261 0.516119778 -0.990776181
v -0.553531945 0.508888006 -0.992220521
v -0.552319705 0.501261115 -0.990017772
v -0.548295796 0.497078151 -0.990326762
v -0.543907046 0.488938421 -0.986482859
v -0.541868389 0.488515556 -0.98346734
v -0.535007358 0.483834803 -0.981691062
v -0.544064999 0.480281979 -0.960749507
v -0.565283775 0.477656275 -0.925323129
v -0.558099449 0.473254502 -0.929413617
v -0.553043425 0.46873194 -0.925539851
v -0.551761329 0.464759022 -0.922552884
v -0.545781255 0.460155517 -0.919760942
v -0.544421315 0.459529519 -0.910605073
v -0.537613034 0.455110848 -0.91415143
v -0.540217757 0.454809219 -0.900327861
v -0.533107936 0.450105429 -0.898831546
v -0.528241813 0.445578307 -0.894680202
v -0.527781904 0.445290029 -0.889861822
v -0.522912741 0.440760136 -0.885705292
v -0.521883428 0.440179467 -0.876219332
v -0.518329859 0.435763806 -0.87053287
v -0.516560256 0.435366601 -0.867254376
v -0.516545057 0.434880495 -0.856640279
v -0.509229124 0.430135816 -0.855286956
v -0.513930261 0.430076748 -0.839304388
v -0.50591433 0.425268948 -0.838736713
v -0.506610215 0.42486155 -0.82738924
v -0.505316854 0.424274802 -0.818332732
v -0.506387413 0.423904389 -0.806626916
v -0.499393046 0.419424444 -0.810107887
v -0.508886278 0.419842631 -0.788958907
v -0.504881561 0.41901195 -0.783035159
v -0.502065599 0.418291837 -0.775784135
v -0.499176949 0.417565376 -0.768622875
v -0.501644969 0.417339355 -0.755529463
v -0.508402944 0.417516679 -0.73774308
v -0.504871249 0.416733533 -0.731371522
v -0.5008955 0.415908873 -0.72549063
v -0.496919781 0.415084213 -0.719609797
v -0.493902862 0.414349854 -0.712683558
v -0.492099106 0.413730264 -0.704446077
v -0.509722471 0.418481767 -0.674407482
v -0.507831573 0.417855978 -0.666370809
v -0.503895462 0.417039514 -0.660548449
v -0.49995926 0.416223049 -0.654726088
v -0.503978014 0.419673532 -0.639642894
v -0.502016187 0.419266582 -0.636740923
v -0.496713579 0.418324709 -0.632401586
v -0.492787868 0.41751042 -0.626594722
v -0.510428488 0.422198236 -0.597284436
v -0.494624496 0.420294255 -0.604043782
v -0.512452424 0.424966544 -0.574743688
v -0.509420276 0.424239069 -0.568121791
v -0.528643727 0.42554307 -0.538356304
v -0.547186315 0.430211276 -0.508739591
v -0.545280039 0.429815859 -0.505919755
v -0.542883098 0.429152995 -0.498820424
v -0.53976804 0.425009131 -0.493183732
v -0.535957396 0.424218714 -0.48754704
v -0.54956764 0.425033838 -0.464128375
v -0.545781434 0.424248487 -0.458527833
v -0.542686343 0.420131177 -0.452927291
v -0.54079324 0.419738501 -0.450127035
v -0.537006974 0.418953151 -0.444526494
v -0.545581579 0.419331402 -0.426499695
v -0.545527399 0.418899894 -0.417203039
v -0.538731575 0.414451063 -0.415349603
v -0.549470842 0.415059954 -0.395336032
v -0.546406329 0.410983324 -0.389790803
v -0.545216203 0.407295465 -0.387018204
v -0.543483615 0.399985343 -0.380833328
v -0.542394996 0.396505445 -0.382584602
v -0.541888952 0.389515638 -0.37981084
v -0.542472243 0.386014879 -0.37528944
v -0.541966558 0.379029661 -0.372517496
v -0.542515874 0.372341931 -0.373323739
v -0.542010009 0.365354598 -0.370550931
v -0.543378711 0.358756095 -0.370550931
v -0.542872906 0.351768732 -0.367778152
v -0.543557227 0.348469496 -0.367778152
v -0.544494331 0.341818005 -0.368202537
v -0.545863271 0.33521843 -0.368202537
v -0.547232151 0.328618854 -0.368202537
v -0.546891868 0.321651995 -0.365266442
v -0.548260689 0.315052837 -0.365266442
v -0.549629509 0.308453679 -0.365266442
v -0.55041635 0.301774263 -0.365839541
v -0.551785469 0.295173675 -0.365839541
v -0.553154588 0.288573086 -0.365839541
v -0.554523706 0.281972498 -0.365839541
v -0.556651235 0.275484145 -0.365091264
v -0.558019996 0.268885434 -0.365091264
v -0.560368776 0.262538671 -0.368749112
v -0.561223745 0.259264499 -0.36858052
v -0.562592864 0.252664 -0.36858052
v -0.563961983 0.246063501 -0.36858052
v -0.565331042 0.239462987 -0.36858052
v -0.567539692 0.233000532 -0.367748022
v -0.569944382 0.226650923 -0.371354163
v -0.572151542 0.220192462 -0.370520771
v -0.574438632 0.213752031 -0.369607091
v -0.576342583 0.207249403 -0.369073808
v -0.578807175 0.200848833 -0.367981702
v -0.580432594 0.194354981 -0.372363448
v -0.582480431 0.187882721 -0.37168476
v -0.585042834 0.181551397 -0.375135243
v -0.586405575 0.178379625 -0.374455869
v -0.588705778 0.171961099 -0.373521924
v -0.591014624 0.165579304 -0.377226949
v -0.594300508 0.159356624 -0.375300348
v -0.596188188 0.152869225 -0.374776989
v -0.598743141 0.149963245 -0.377545506
v -0.600109696 0.14337486 -0.377545506
v -0.602222085 0.136937767 -0.376793742
v -0.604714572 0.130586296 -0.380314052
v -0.606957078 0.124180153 -0.379428655
v -0.608636081 0.121091925 -0.383082598
v -0.610877335 0.114688933 -0.382196277
v -0.613141656 0.10829547 -0.381285548
v -0.616377711 0.102099471 -0.384052247
v -0.617759347 0.0955190063 -0.384036034
v -0.620979488 0.0893195048 -0.386818916
v -0.622366428 0.0827403218 -0.38679722
v -0.624898374 0.0798315182 -0.389585584
v -0.626264036 0.0732475519 -0.389585584
v -0.629500151 0.0670515522 -0.392352283
v -0.630865812 0.0604675822 -0.392352283
v -0.634101868 0.0542715825 -0.395118952
v -0.634784698 0.0509795994 -0.395118952
v -0.63615042 0.044395633 -0.395118952
v -0.639267743 0.0381707102 -0.398007959
v -0.641202092 0.0316537693 -0.402119368
v -0.643473327 0.0252914745 -0.40118438
v -0.645806372 0.0188668352 -0.404887557
v -0.646489561 0.0155730573 -0.404887557
v -0.648226023 0.00908010267 -0.404504001
v -0.651093781 0.00278612203 -0.407655746
v -0.652829647 -0.00370501238 -0.407271802
v -0.655014873 -0.00670703501 -0.410423934
v -0.656384587 -0.0132937152 -0.410420507
v -0.658728957 -0.0197323617 -0.414121836
v -0.657340527 -0.0270674992 -0.417001128
v -0.6605829 -0.0332756117 -0.419773221
v -0.662531614 -0.0397123098 -0.419165045
v -0.665193677 -0.0460805632 -0.422545314
v -0.666457355 -0.0492167063 -0.421936512
v -0.668069482 -0.0557430387 -0.421679884
v -0.66890645 -0.0626356453 -0.42698428
v -0.673826873 -0.0682130083 -0.4232409
v -0.677575171 -0.0742684305 -0.42547372
v -0.669592261 -0.0800973177 -0.434632391
v -0.678498685 -0.0844867304 -0.426665395
v -0.680056155 -0.0911929533 -0.431219846
v -0.673021376 -0.0966291055 -0.434632391
v -0.676271558 -0.102852158 -0.437411129
v -0.67764318 -0.109464876 -0.437411129
v -0.677802026 -0.116450451 -0.438698858
v -0.678008437 -0.12342789 -0.439937353
v -0.679381371 -0.130046725 -0.439937353
v -0.680307031 -0.136806756 -0.440412998
v -0.68160975 -0.143449143 -0.440487891
v -0.681102276 -0.150459424 -0.437705994
v -0.682240307 -0.157155752 -0.437956035
v -0.681967974 -0.164089873 -0.434924096
v -0.682609797 -0.167414635 -0.43497166
v -0.683982968 -0.174034923 -0.43497166
v -0.683737218 -0.180958077 -0.431911856
v -0.683603585 -0.187842175 -0.428733826
v -0.683916271 -0.191277564 -0.429130197
v -0.683408856 -0.198287249 -0.426348537
v -0.682901382 -0.205296934 -0.423566878
v -0.68166244 -0.212818831 -0.426331788
v -0.683036923 -0.219445199 -0.426331788
v -0.683914244 -0.226246044 -0.426858604
v -0.683216155 -0.22977519 -0.423547298
v -0.683739126 -0.236703873 -0.424448758
v -0.683230996 -0.24372302 -0.421663344
v -0.68353492 -0.250737637 -0.422796339
v -0.682338834 -0.254444063 -0.420009732
v -0.682140112 -0.261353314 -0.416896492
v -0.681641877 -0.268370837 -0.414099634
v -0.680445969 -0.272076786 -0.411313385
v -0.679937661 -0.279098004 -0.408527166
v -0.67873162 -0.282807738 -0.405751526
v -0.677295744 -0.290176749 -0.40393734
v -0.67773217 -0.2971645 -0.404922396
v -0.676535368 -0.30087316 -0.40213412
v -0.676026702 -0.307899505 -0.399345875
v -0.675266325 -0.315022588 -0.396820486
v -0.676642776 -0.321658581 -0.396820486
v -0.675445855 -0.3253676 -0.394031942
v -0.672893763 -0.333540231 -0.398133308
v -0.672384262 -0.34057799 -0.395340502
v -0.673762798 -0.347224116 -0.395340502
v -0.67256403 -0.350938827 -0.392547697
v -0.672228158 -0.358271837 -0.394334584
v -0.671718299 -0.365314275 -0.391539901
v -0.669434905 -0.373452306 -0.395354807
v -0.668404341 -0.381098628 -0.397868305
v -0.66961509 -0.383834809 -0.392556161
v -0.670351684 -0.390761137 -0.393227518
v -0.6684286 -0.399191886 -0.401450038
v -0.62770468 -0.420623302 -0.454414219
v -0.604213238 -0.431253701 -0.488873154
v -0.599553287 -0.434024811 -0.503670752
v -0.600733519 -0.434356838 -0.512349844
v -0.604649723 -0.433544517 -0.518142641
v -0.59082371 -0.435985148 -0.537073076
v -0.596243441 -0.434549153 -0.541317344
v -0.597981811 -0.430885255 -0.548724771
v -0.603397608 -0.429452121 -0.552962482
v -0.609816074 -0.42759946 -0.556107104
v -0.607109249 -0.425376892 -0.563289404
v -0.611047804 -0.424559921 -0.569115281
v -0.596011102 -0.427860051 -0.594801605
v -0.601637602 -0.426347107 -0.59885484
v -0.59191817 -0.427409589 -0.618911386
v -0.597101629 -0.426085323 -0.623483002
v -0.611150503 -0.421079576 -0.618266523
v -0.60313952 -0.421426266 -0.636585295
v -0.605130911 -0.421013206 -0.639530957
v -0.609113693 -0.420187086 -0.64542222
v -0.613096476 -0.419360965 -0.651313543
v -0.608724415 -0.418185562 -0.665747941
v -0.610445201 -0.418298304 -0.674211562
v -0.611576736 -0.418656617 -0.683357775
v -0.61557889 -0.417826474 -0.689277709
v -0.596345723 -0.422780156 -0.720751822
v -0.598363936 -0.422361553 -0.723737121
v -0.602400303 -0.421524316 -0.729707658
v -0.60643667 -0.42068705 -0.735678256
v -0.610766053 -0.419728339 -0.741312027
v -0.615109801 -0.418763459 -0.746926844
v -0.618837953 -0.418054044 -0.753251851
v -0.622582197 -0.417338103 -0.759560525
v -0.619541287 -0.419444174 -0.773781061
v -0.62060982 -0.419844449 -0.783252239
v -0.618776083 -0.421455503 -0.796154678
v -0.615348876 -0.423734605 -0.810982466
v -0.619062364 -0.423039645 -0.817430973
v -0.623878956 -0.425779223 -0.82345587
v -0.626482546 -0.42555052 -0.831230462
v -0.63130182 -0.428291619 -0.837258756
v -0.623288572 -0.432541251 -0.857785761
v -0.628937364 -0.4345119 -0.85738349
v -0.630177259 -0.434870392 -0.866869986
v -0.635018885 -0.437624156 -0.872926116
v -0.639860451 -0.440377951 -0.878982306
v -0.639138222 -0.441136718 -0.885381281
v -0.640906751 -0.44521451 -0.895204902
v -0.646782398 -0.447075188 -0.894475222
v -0.648559988 -0.451159984 -0.904309571
v -0.653412461 -0.453919947 -0.910379291
v -0.656929195 -0.4567931 -0.912529171
v -0.661598206 -0.459632099 -0.918823183
v -0.66530776 -0.462416947 -0.920726895
v -0.662813902 -0.468419671 -0.935957611
v -0.642549813 -0.478345096 -0.972568154
v -0.645320415 -0.478095114 -0.980444789
v -0.649073482 -0.481404126 -0.988051116
v -0.653466225 -0.483935893 -0.989157617
v -0.659661472 -0.489645362 -0.988932371
v -0.662493408 -0.492866307 -0.992000997
v -0.665830553 -0.499340951 -0.989686131
v -0.669417262 -0.506208301 -0.992752612
v -0.670908988 -0.51351583 -0.992780566
v -0.670349538 -0.521243274 -0.989714086
v -0.668211699 -0.525703967 -0.987691462
v -0.710806906 -0.512715042 -0.924255013
v -0.712256372 -0.515969992 -0.923360765
v -0.716400027 -0.520809412 -0.908830464
v -0.704649806 -0.529755771 -0.919024587
v -0.702066422 -0.538875937 -0.92416662
v -0.706209064 -0.543688834 -0.909641087
v -0.703967392 -0.548153222 -0.907818437
v -0.695191264 -0.555207074 -0.908608675
v -0.689061821 -0.561558902 -0.911633432
v -0.685715616 -0.566010296 -0.905578494
v -0.686367154 -0.564565718 -0.893626153
v -0.682281315 -0.565413237 -0.887582421
v -0.676675737 -0.571519017 -0.889889121
v -0.656543076 -0.580128491 -0.903603435
v -0.656048894 -0.579230905 -0.893061161
v -0.654457748 -0.574889719 -0.882974923
v -0.645880699 -0.573910773 -0.881433725
v -0.64307338 -0.570717752 -0.878391683
v -0.639515162 -0.56390506 -0.875349641
v -0.63907975 -0.560136259 -0.874967098
v -0.631190658 -0.555358708 -0.877168059
v -0.644013584 -0.541954339 -0.865349293
v -0.650167525 -0.531189501 -0.856083214
v -0.646461964 -0.528438807 -0.854165912
v -0.644247711 -0.521572173 -0.855037212
v -0.631707847 -0.518390238 -0.857354641
v -0.62965703 -0.518815637 -0.854321122
v -0.632113576 -0.512742937 -0.83951211
v -0.63158083 -0.508047998 -0.828331947
v -0.625006974 -0.510018885 -0.825249851
v -0.63115716 -0.502333701 -0.806207478
v -0.629122019 -0.502755821 -0.803197145
v -0.625051796 -0.503600121 -0.79717654
v -0.627388537 -0.501571059 -0.783640862
v -0.625791192 -0.501309633 -0.774756074
v -0.624079645 -0.501101196 -0.766024411
v -0.625465274 -0.499508947 -0.753717124
v -0.625008166 -0.498744369 -0.743585348
v -0.621706486 -0.503136516 -0.737610936
v -0.629573166 -0.498643875 -0.717958808
v -0.624256968 -0.504413068 -0.719619393
v -0.627889812 -0.501811862 -0.704906821
v -0.624607563 -0.506178081 -0.698967695
v -0.621325374 -0.51054436 -0.69302851
v -0.629579067 -0.506336391 -0.678425193
v -0.631311715 -0.508425891 -0.666856468
v -0.662590504 -0.497124404 -0.622043014
v -0.641069472 -0.509715617 -0.636763871
v -0.667268217 -0.497339219 -0.602243423
v -0.638621509 -0.513177276 -0.624857843
v -0.638633847 -0.516496181 -0.620509803
v -0.635044694 -0.525279999 -0.62098372
v -0.641162753 -0.517673612 -0.603122652
v -0.638631403 -0.522144139 -0.601617873
v -0.640248775 -0.524214089 -0.590418935
v -0.638410389 -0.527864814 -0.583059847
v -0.639129877 -0.531333566 -0.583059847
v -0.636546791 -0.531524181 -0.57573837
v -0.638176322 -0.533564806 -0.564605534
v -0.641874611 -0.530853629 -0.550471425
v -0.636484861 -0.536631703 -0.552082896
v -0.634657919 -0.536473751 -0.543996394
v -0.662231863 -0.522714078 -0.504153192
v -0.656422019 -0.528154492 -0.50126332
v -0.666852057 -0.522822559 -0.485092252
v -0.674010456 -0.526440144 -0.473988771
v -0.669675946 -0.531683028 -0.474477917
v -0.666832447 -0.536234796 -0.473360568
v -0.652340293 -0.542015731 -0.478999764
v -0.648466647 -0.542819202 -0.473269969
v -0.650959492 -0.540645838 -0.460796267
v -0.648072958 -0.540990651 -0.454048604
v -0.638184488 -0.548342764 -0.455416143
v -0.633018792 -0.549750984 -0.451043159
v -0.635656059 -0.547510624 -0.438509941
v -0.631791115 -0.548312306 -0.432792962
v -0.630992174 -0.543957949 -0.42316556
v -0.627403855 -0.544632435 -0.417176723
v -0.615936458 -0.548967123 -0.419300854
v -0.612739682 -0.549457371 -0.412885398
v -0.61125797 -0.549152672 -0.404721946
v -0.62190789 -0.543228149 -0.384220958
v -0.621349871 -0.538801372 -0.374488294
v -0.636038065 -0.53153646 -0.354831338
v -0.632184803 -0.536024332 -0.34993118
v -0.631918311 -0.5351758 -0.340718329
v -0.630708694 -0.538924098 -0.337900251
v -0.626227975 -0.540024817 -0.332934976
v -0.622416735 -0.540815353 -0.327297419
v -0.6114856 -0.541212201 -0.328039646
v -0.61386466 -0.5318048 -0.314877599
v -0.611959875 -0.532199919 -0.312060088
v -0.608150303 -0.532990098 -0.306425005
v -0.5964849 -0.537368357 -0.308489323
v -0.591966569 -0.534798443 -0.302837521
v -0.56395781 -0.546587765 -0.320714861
v -0.567381501 -0.540851057 -0.311985046
v -0.564388752 -0.533861935 -0.304111212
v -0.561765313 -0.530878007 -0.301268429
v -0.550299227 -0.531384289 -0.302233666
v -0.577742517 -0.518213868 -0.266566336
v -0.581493795 -0.515631914 -0.253719389
v -0.580962002 -0.514963984 -0.24499619
v -0.592862904 -0.508761525 -0.224520206
v -0.570792556 -0.521337926 -0.236864686
v -0.56462568 -0.523636103 -0.238076732
v -0.572868824 -0.519053757 -0.221139655
v -0.564424157 -0.521914363 -0.219894186
v -0.579073966 -0.514490366 -0.197093785
v -0.557687461 -0.526756108 -0.208523765
v -0.58501786 -0.513665736 -0.17410998
v -0.579045892 -0.51543355 -0.17061238
v -0.570733607 -0.518241882 -0.169249833
v -0.560896397 -0.525348127 -0.169881999
v -0.557905197 -0.526232719 -0.168106124
v -0.54605931 -0.530614197 -0.169882029
v -0.537735283 -0.533421695 -0.168409094
v -0.528324723 -0.536709785 -0.167887941
v -0.518993556 -0.539958775 -0.16725795
v -0.505745947 -0.544944584 -0.170105159
v -0.499140501 -0.546974659 -0.166952536
v -0.487844884 -0.551084042 -0.167958617
v -0.476846576 -0.551366806 -0.168029875
v -0.472396076 -0.552433074 -0.162889719
v -0.45933634 -0.557299197 -0.165326476
v -0.448846012 -0.561026037 -0.165449098
v -0.438202888 -0.564815938 -0.165662125
v -0.42908144 -0.567931294 -0.164506152
v -0.417910516 -0.57194531 -0.165094376
v -0.404143929 -0.577096283 -0.167879224
v -0.394287437 -0.580522478 -0.167233452
v -0.389662683 -0.577892005 -0.161448509
v -0.376091242 -0.582930207 -0.163918883
v -0.364471763 -0.58710891 -0.164665967
v -0.355067909 -0.590314686 -0.163484901
v -0.342934161 -0.594709039 -0.164576009
v -0.333810091 -0.597785056 -0.163081646
v -0.321814418 -0.602109909 -0.163963124
v -0.320571572 -0.598389387 -0.159797832
v -0.304892331 -0.604297519 -0.163690552
v -0.292549372 -0.60875082 -0.1647387
v -0.271188229 -0.617109418 -0.173197657
v -0.259628922 -0.621210217 -0.173467621
v -0.259501785 -0.616497278 -0.163697928
v -0.250833511 -0.619335592 -0.161545649
v -0.246703699 -0.620214581 -0.155666113
v -0.241019577 -0.62176311 -0.151047841
v -0.235932097 -0.619635582 -0.149957553
v -0.204745531 -0.632122755 -0.165901706
v -0.195647612 -0.635122478 -0.163920105
v -0.186569452 -0.634197235 -0.161294922
v -0.173062012 -0.639067411 -0.162771225
v -0.16162689 -0.643047929 -0.16254352
v -0.151212111 -0.642648816 -0.160869181
v -0.143626183 -0.645424902 -0.162194565
v -0.131624475 -0.645670891 -0.161707163
v -0.117022835 -0.650957704 -0.163804471
v -0.107287154 -0.650208175 -0.161448136
v -0.0960360244 -0.650080085 -0.160239339
v -0.0871627703 -0.653363705 -0.162434846
v -0.0760000125 -0.653167784 -0.161086828
v -0.0700457767 -0.651219606 -0.160391405
v -0.0545405038 -0.652794898 -0.162319139
v -0.0421492681 -0.657067478 -0.162386015
v -0.0293305591 -0.653457284 -0.161557943
v -0.0219157171 -0.656082094 -0.162476361
v -0.0108908834 -0.655720532 -0.160800323
v -0.000793451269 -0.655388772 -0.163120523
v 0.00727314316 -0.649735034 -0.15856649
v 0.024297582 -0.651746273 -0.161289111
v 0.0298747923 -0.649519801 -0.160137638
v 0.0444879793 -0.650505006 -0.160963699
v 0.0518498085 -0.648969531 -0.161105648
v 0.0599928051 -0.647734046 -0.161812291
v 0.0727865398 -0.643835008 -0.160597667
v 0.0854885653 -0.64395988 -0.159848467
v 0.0926234126 -0.642271578 -0.159742936
v 0.0991028994 -0.640314758 -0.159144416
v 0.11532256 -0.637643754 -0.160289273
v 0.121561334 -0.635560513 -0.159476772
v 0.137096137 -0.632547438 -0.160033509
v 0.139620095 -0.62939024 -0.161286175
v 0.156791449 -0.626934707 -0.162954167
v 0.17369093 -0.628849447 -0.169738755
v 0.18469432 -0.623951018 -0.166859567
v 0.187687322 -0.620546818 -0.163616359
v 0.192368746 -0.617776394 -0.161576435
v 0.194473788 -0.609879434 -0.157129943
v 0.202881142 -0.603967488 -0.152357429
v 0.211135462 -0.602501214 -0.152826384
v 0.232715741 -0.605920196 -0.162670135
v 0.243123695 -0.600657523 -0.159205019
v 0.25121665 -0.599068463 -0.159484878
v 0.269550979 -0.596626818 -0.161495224
v 0.277759045 -0.595037103 -0.161805078
v 0.282655865 -0.592246711 -0.15980126
v 0.296064258 -0.588270247 -0.163120702
v 0.308995485 -0.583750665 -0.161223084
v 0.318391263 -0.582509875 -0.16227372
v 0.325936586 -0.576366305 -0.161473244
v 0.333007783 -0.574278951 -0.160897285
v 0.350892335 -0.571368337 -0.162259221
v 0.349737257 -0.566719472 -0.160911649
v 0.367961556 -0.563856781 -0.16243735
v 0.378847331 -0.563007355 -0.164373398
v 0.383441508 -0.560000896 -0.162037343
v 0.392124385 -0.554100692 -0.161893606
v 0.410342366 -0.551080227 -0.163244694
v 0.421325326 -0.550172508 -0.165147394
v 0.425835848 -0.547094405 -0.162705138
v 0.433377683 -0.540719509 -0.161722571
v 0.454478592 -0.538492203 -0.164820507
v 0.461215049 -0.536106944 -0.163813174
v 0.471154422 -0.530433416 -0.164355382
v 0.480121911 -0.52874285 -0.164791986
v 0.490181267 -0.523057878 -0.165375531
v 0.496372312 -0.520446241 -0.163956955
v 0.508014321 -0.515218616 -0.165541947
v 0.515624583 -0.51303041 -0.165024266
v 0.525461376 -0.50742662 -0.170335844
v 0.530205667 -0.499963194 -0.167375863
v 0.543055296 -0.499353826 -0.170224428
v 0.543790817 -0.490864158 -0.169599012
v 0.5536623 -0.484936833 -0.169939548
v 0.563052952 -0.478836626 -0.169951111
v 0.564757049 -0.47062096 -0.169951111
v 0.566589177 -0.462443411 -0.170033664
v 0.5708161 -0.45912832 -0.167250991
v 0.573966384 -0.451335698 -0.168180883
v 0.580070674 -0.444399297 -0.171009287
v 0.576395988 -0.43480134 -0.172507897
v 0.582825959 -0.432109296 -0.171134189
v 0.58370018 -0.423639566 -0.170599118
v 0.585400522 -0.415408283 -0.170594841
v 0.590502083 -0.408135682 -0.172773063
v 0.586046994 -0.398344547 -0.17377685
v 0.586173356 -0.389677793 -0.172761589
v 0.59048003 -0.382168114 -0.174431458
v 0.592658222 -0.374065995 -0.174733728
v 0.593332708 -0.365554899 -0.174071059
v 0.591577291 -0.356538832 -0.176806614
v 0.591181636 -0.347752512 -0.175456479
v 0.595067978 -0.340105325 -0.176856518
v 0.593436897 -0.335468292 -0.180219039
v 0.593721271 -0.326871067 -0.179304913
v 0.595427096 -0.318647265 -0.179304913
v 0.596910894 -0.310366631 -0.179162309
v 0.596939027 -0.301825792 -0.183041468
v 0.599302232 -0.29376632 -0.183464035
v 0.594982386 -0.288458437 -0.185093984
v 0.563999832 -0.272127897 -0.164048344
v 0.536354303 -0.25658825 -0.135426611
v 0.538649082 -0.257064253 -0.132032245
v 0.541641653 -0.261867642 -0.124759719
v 0.547138095 -0.258798659 -0.118016958
v 0.545969844 -0.262664825 -0.112960458
v 0.548984826 -0.258989245 -0.104659095
v 0.55317837 -0.259844244 -0.0976362154
v 0.546251297 -0.253744602 -0.0831358805
v 0.554890633 -0.255771726 -0.0837256089
v 0.554318547 -0.247097209 -0.0775212348
v 0.56346339 -0.240774393 -0.0773669034
v 0.587423623 -0.237949893 -0.0863771066
v 0.583384871 -0.232680991 -0.078537181
v 0.595702648 -0.231279284 -0.080807142
v 0.579348087 -0.218914002 -0.0648898706
v 0.585023046 -0.215952232 -0.0630700737
v 0.578268051 -0.210059792 -0.0488530658
v 0.588549972 -0.203945011 -0.0493371449
v 0.581492543 -0.198077008 -0.0397608355
v 0.585921049 -0.190630078 -0.0366797857
v 0.577894807 -0.184589162 -0.0265594069
v 0.572531521 -0.174955532 -0.0128539735
v 0.566553593 -0.165265903 -0.00354568521
v 0.565879881 -0.160931125 0.00205651275
v 0.568964303 -0.157422915 0.00539880432
v 0.563673675 -0.147954628 0.0142346323
v 0.562806308 -0.139456838 0.0250767637
v 0.563526273 -0.135464326 0.0297994073
v 0.563537121 -0.12720038 0.0354205407
v 0.560014069 -0.12233527 0.0426325873
v 0.54820776 -0.111661777 0.0551849715
v 0.549302042 -0.107792325 0.0596362166
v 0.518259823 -0.0932984725 0.0879547596
v 0.533209324 -0.0963513628 0.0837902129
v 0.495946974 -0.0807359591 0.115512878
v 0.519631803 -0.08552178 0.106297188
v 0.502702177 -0.078116864 0.125600651
v 0.484576851 -0.0705205649 0.145479411
v 0.48505047 -0.0666623637 0.154600397
v 0.489408046 -0.0675463974 0.156572908
v 0.488229215 -0.0633697435 0.16660957
v 0.496263534 -0.0649988949 0.170951441
v 0.485672534 -0.0589603074 0.181827083
v 0.49000755 -0.0598594956 0.188239396
v 0.49080193 -0.0600637943 0.196634412
v 0.489491642 -0.0558952652 0.206626371
v 0.482130677 -0.054510925 0.219508231
v 0.484278381 -0.0549827553 0.22707881
v 0.487808883 -0.0596447848 0.22907114
v 0.485687703 -0.0592762232 0.238979727
v 0.484356254 -0.0629979745 0.24799715
v 0.483753949 -0.0707876831 0.256168634
v 0.484798402 -0.0749471262 0.259517103
v 0.4844594 -0.0788269639 0.263616055
v 0.482393473 -0.0862930864 0.27255404
v 0.479993552 -0.0897386223 0.277753443
v 0.481352597 -0.0939499959 0.280919671
v 0.483763367 -0.0983800814 0.287836343
v 0.485122025 -0.102590226 0.291001648
v 0.496385992 -0.108867213 0.293190449
v 0.49458617 -0.108484298 0.302767515
v 0.492519498 -0.104121789 0.312870175
v 0.504348338 -0.106580459 0.310918242
v 0.510824323 -0.107924871 0.316105098
v 0.515438676 -0.10494718 0.322684586
v 0.520507753 -0.102064028 0.329025269
v 0.525006473 -0.0990584791 0.331378937
v 0.535814226 -0.0934045911 0.33516255
v 0.534425557 -0.0891875923 0.336284876
v 0.539960086 -0.0824431106 0.33852008
v 0.540678263 -0.0747396052 0.343235344
v 0.54336834 -0.0674083531 0.342658013
v 0.538902402 -0.0586583726 0.341484338
v 0.542339087 -0.0553961992 0.340118766
v 0.5495103 -0.0489120483 0.337236106
v 0.544444203 -0.0401013866 0.340646893
v 0.546745121 -0.0326439142 0.3359918
v 0.538047612 -0.0231500547 0.337005764
v 0.538829386 -0.0193809289 0.337005764
v 0.549193561 -0.0134352501 0.332468241
v 0.535344601 -0.00306052342 0.336147189
v 0.539275229 0.00404996891 0.334924161
v 0.544949532 0.0108654974 0.332802206
v 0.543553352 0.0189190414 0.334329545
v 0.541702926 0.0270379093 0.33608982
v 0.525074422 0.0376341045 0.345465988
v 0.517986417 0.0465667658 0.349918842
v 0.512234688 0.0552441478 0.353679776
v 0.518032968 0.0619201176 0.355720818
v 0.520693898 0.0691080242 0.35937494
v 0.522796094 0.0726283342 0.358694643
v 0.516903043 0.081266053 0.362505168
v 0.524548233 0.0876601934 0.363602638
v 0.521560788 0.095815219 0.365917683
v 0.516355157 0.104287304 0.369362742
v 0.521754444 0.107189827 0.371207744
v 0.518198073 0.115513399 0.369603038
v 0.528947771 0.117635377 0.368726134
v 0.532002449 0.124868371 0.367958754
v 0.525045574 0.133540824 0.372281343
v 0.528873146 0.14065668 0.371120393
v 0.530416965 0.148099482 0.371120393
v 0.525829196 0.156531408 0.37003696
v 0.525735974 0.164187118 0.370868772
v 0.528481007 0.171458721 0.370256841
v 0.532285929 0.178596377 0.369106829
v 0.520721972 0.18789041 0.371578127
v 0.524000823 0.191110283 0.374490321
v 0.517948389 0.199655339 0.374163479
v 0.522130966 0.206734434 0.372817636
v 0.519361496 0.214851379 0.370824516
v 0.525996089 0.217846632 0.367836207
v 0.516217947 0.226796523 0.369418085
v 0.521260917 0.233788267 0.367628783
v 0.522029221 0.237492308 0.367628783
v 0.513323545 0.246064901 0.37285009
v 0.516596079 0.253258497 0.371963412
v 0.507541895 0.262015879 0.373190135
v 0.500764251 0.270493329 0.373267978
v 0.501527846 0.274174601 0.373267978
v 0.505499959 0.281281441 0.372018427
v 0.507028103 0.288648725 0.372018427
v 0.514393866 0.295429081 0.369037479
v 0.506280184 0.303985983 0.369798034
v 0.503095567 0.308282733 0.367655069
v 0.499335438 0.316147506 0.370363742
v 0.503722668 0.323229969 0.368897676
v 0.497909188 0.331498563 0.368500024
v 0.50223732 0.334848911 0.366670728
v 0.505371869 0.342058927 0.365845472
v 0.501594543 0.350125074 0.364405155
v 0.495642513 0.354627013 0.363697886
v 0.496020585 0.362321287 0.360128522
v 0.496392816 0.370019943 0.356560469
v 0.491081774 0.37444362 0.355537295
v 0.488624543 0.382359505 0.353436828
v 0.486836642 0.386493444 0.350597471
v 0.503236294 0.39271003 0.342873186
v 0.493420452 0.400897592 0.348759174
v 0.48628363 0.405416787 0.34869808
v 0.49329114 0.412647098 0.341676921
v 0.494813979 0.419988751 0.341676921
v 0.4748016 0.425339103 0.348340303
v 0.478000343 0.432535082 0.347462445
v 0.463876218 0.441123992 0.351476222
v 0.464981139 0.44843027 0.351687908
v 0.0987506509 0.477018595 0.547340095
v 0.0515339598 0.482790023 0.575948715
v 0.0993127897 0.479468912 0.558557212
v 0.0667723194 0.484083533 0.583082318
v 0.160616294 0.47814694 0.542283416
v 0.0779961795 0.485891372 0.58866626
v 0.0565853007 0.489802986 0.607237935
v 0.16025281 0.483461499 0.561926603
v 0.0692142099 0.491526306 0.612069368
v 0.159787968 0.485978246 0.573706686
v 0.162093773 0.488621831 0.580337405
v 0.0854139179 0.495485604 0.626384974
v 0.0730003119 0.498833656 0.640130639
v 0.164620116 0.493718594 0.59830755
v 0.16697371 0.496346384 0.604874372
v 0.0580287911 0.504945636 0.662541866
v 0.172682941 0.498506665 0.613471508
v 0.0998055637 0.504922628 0.656729698
v 0.0887740925 0.508145869 0.669601977
v 0.147821233 0.504923344 0.644562066
v 0.148608729 0.50759095 0.651775599
v 0.154548436 0.510004878 0.656499207
v 0.16104953 0.512394726 0.660961449
v 0.167912424 0.511772931 0.661312163
v 0.171685249 0.514297128 0.667092204
v 0.151204899 0.518229723 0.680732429
v 0.152076274 0.520864725 0.68782568
v 0.147015348 0.523756385 0.697686493
v 0.151003674 0.526240587 0.703280747
v 0.169102967 0.525152743 0.698418558
v 0.162149489 0.531379044 0.709430933
v 0.172777146 0.530630231 0.708083212
v 0.172214106 0.533310354 0.715798199
v 0.168451354 0.536418676 0.72140038
v 0.16768162 0.539090276 0.72916925
v 0.163553521 0.545127928 0.738747299
v 0.172091261 0.544495106 0.738407731
v 0.157060906 0.550907016 0.752872884
v 0.174282417 0.549972296 0.748629749
v 0.176508471 0.555749297 0.755283952
v 0.1703206 0.558879554 0.761870861
v 0.172501981 0.561402619 0.768214166
v 0.140799865 0.565325916 0.786086023
v 0.159629136 0.570507288 0.785283029
v 0.151727378 0.573625565 0.792533398
v 0.155883297 0.579255521 0.798216343
v 0.155453026 0.582136989 0.80215323
v 0.160813138 0.584862649 0.80355829
v 0.185877949 0.589978635 0.800162613
v 0.384673566 0.587821901 0.721541762
v 0.42651853 0.58647573 0.707178831
v 0.405238479 0.589680851 0.724009633
v 0.435930729 0.588258862 0.718255937
v 0.422328293 0.591278136 0.731722474
v 0.434748173 0.590640962 0.730135441
v 0.436294347 0.58989048 0.736845911
v 0.437809974 0.592561424 0.743856132
v 0.431768805 0.59538877 0.754008651
v 0.430658847 0.598099172 0.762068748
v 0.433297753 0.597685099 0.764620841
v 0.422217906 0.60058707 0.77676487
v 0.413490206 0.603421092 0.787879586
v 0.42182976 0.602900743 0.788073957
v 0.386734277 0.606211364 0.809874117
v 0.412526369 0.605012834 0.80655539
v 0.407153994 0.608113229 0.812595963
v 0.394679248 0.610962331 0.825044572
v 0.397889316 0.610187531 0.830870688
v 0.388680041 0.612960577 0.841915786
v 0.370189786 0.61622113 0.853069723
v 0.345424652 0.619184554 0.870150685
v 0.00353806792 0.626694441 1.01180625
v 0.00630370341 0.626330256 1.01386452
v -0.00365193933 0.631735563 1.0245086
v -0.0219134782 0.634581745 1.03497696
v -0.000638395897 0.63661921 1.0331794
v 0.010552356 0.638789296 1.03533459
v 0.00913124997 0.641756654 1.03611732
v 0.00644486537 0.64734596 1.04073608
v 0.00936083589 0.652880311 1.04319763
v 0.0459126458 0.658599019 1.0296756
v 0.049017705 0.661218166 1.03186846
v 0.466616213 0.0224790629 0.262323737
v 0.471518904 0.0138351982 0.258796573
v 0.530439556 -0.000511427235 0.221789658
v 0.545810461 -0.00312782265 0.204536155
v 0.548545718 -0.00348903029 0.194166899
v 0.548261285 -0.00331122777 0.185438707
v 0.549259782 -0.00336190895 0.175977021
v 0.545749009 -0.00260833418 0.169011459
v 0.533261061 -0.0042451378 0.166634306
v 0.538041234 -0.00497889845 0.155003712
v 0.546351254 -0.00634471606 0.14133063
v 0.545551002 -0.00607716339 0.13277857
v 0.538382053 -0.00874422956 0.131896302
v 0.537158191 -0.00840399787 0.123574808
v 0.545523465 -0.00979131274 0.109726205
v 0.539219439 -0.0125655308 0.103818521
v 0.544111967 -0.0133360988 0.0918923691
v 0.536794603 -0.0159331113 0.0865592211
v 0.54877454 -0.0180040598 0.0704259127
v 0.536550939 -0.0197685268 0.072526522
v 0.553669453 -0.0227975603 0.053290531
v 0.546262741 -0.0254016872 0.0479602888
v 0.561802983 -0.0281613488 0.0295062121
v 0.548486531 -0.0297365226 0.0322966129
v 0.54320544 -0.0327402651 0.0256907176
v 0.54361397 -0.0368102044 0.0156715978
v 0.547465742 -0.0415410437 0.00354853086
v 0.55215317 -0.0423817784 -0.00395061867
v 0.546763182 -0.0494967848 -0.0110441251
v 0.554852843 -0.0510005914 -0.0206476748
v 0.548703611 -0.0579946786 -0.0273109898
v 0.555319667 -0.0633697882 -0.0365713872
v 0.55304873 -0.0670055673 -0.0451377444
v 0.561833858 -0.0728403777 -0.0557901487
v 0.555644631 -0.0798799321 -0.0624967776
v 0.552550018 -0.0833997056 -0.065850094
v 0.553224742 -0.0876583084 -0.076314874
v 0.550125182 -0.0911836848 -0.0796735212
v 0.57384783 -0.10012874 -0.104621321
v 0.609200716 -0.107264087 -0.136511758
v 0.594653189 -0.108525798 -0.137614667
v 0.580815315 -0.109919153 -0.13425757
v 0.590279222 -0.107608698 -0.149467945
v 0.591121852 -0.10354647 -0.149467945
v 0.586795628 -0.0942182094 -0.145649388
v 0.588478208 -0.0861064643 -0.145649388
v 0.587753296 -0.0775232166 -0.144121453
v 0.584734321 -0.0685063004 -0.141139552
v 0.580656886 -0.0593073852 -0.13748908
v 0.577250957 -0.0502608195 -0.13426742
v 0.579270244 -0.0422514416 -0.134485736
v 0.580945075 -0.0341768786 -0.134485736
v 0.580107689 -0.0256433394 -0.13289547
v 0.573737383 -0.0160604697 -0.13263981
v 0.575408638 -0.00800332613 -0.13263981
v 0.565974057 0.00208124379 -0.130429476
v 0.565751672 0.0104484605 -0.129230604
v 0.559344232 0.0199509673 -0.128926858
v 0.560216546 0.02395528 -0.128952459
v 0.563312232 0.03173659 -0.129861549
v 0.545794129 0.0431384183 -0.127288029
v 0.548586726 0.0468115397 -0.128538951
v 0.543764532 0.0559674092 -0.129214406
v 0.545703948 0.0639119968 -0.129394338
v 0.544809282 0.0724180862 -0.132571891
v 0.543915153 0.0809228569 -0.135749191
v 0.545025468 0.0848737955 -0.135929376
v 0.528336585 0.0957948416 -0.12898773
v 0.531781971 0.103480086 -0.13013725
v 0.525436163 0.112761624 -0.129803568
v 0.526260436 0.116735503 -0.129803568
v 0.523642361 0.125443622 -0.131853282
v 0.528239906 0.13296473 -0.133746848
v 0.520290315 0.142417818 -0.132368445
v 0.514075875 0.147521541 -0.132621944
v 0.514648199 0.155593291 -0.131932229
v 0.510293543 0.164489806 -0.132845104
v 0.504778087 0.173524484 -0.13300097
v 0.50559783 0.177476346 -0.13300097
v 0.503305018 0.186065108 -0.135231525
v 0.49575302 0.19531846 -0.134053037
v 0.497959703 0.199085265 -0.134952232
v 0.494158715 0.207836494 -0.136194572
v 0.487976104 0.216864824 -0.135883957
v 0.487811178 0.225145921 -0.139476165
v 0.487466007 0.229219586 -0.138720915
v 0.485038936 0.237764701 -0.140839562
v 0.482803464 0.246279806 -0.143079579
v 0.480392843 0.250576526 -0.140975997
v 0.479253054 0.258953571 -0.143925354
v 0.476595491 0.267493755 -0.145880938
v 0.474932998 0.275694489 -0.143729642
v 0.473510951 0.280078381 -0.147019997
v 0.469744265 0.288710266 -0.148239002
v 0.468341798 0.297088534 -0.151004791
v 0.469154239 0.301005363 -0.151004791
v 0.463882893 0.309758574 -0.151224345
v 0.461410552 0.318222821 -0.153278455
v 0.462442875 0.322111756 -0.153424203
v 0.456711739 0.330867797 -0.153325617
v 0.454554826 0.339278191 -0.155577913
v 0.452223122 0.343723655 -0.158246964
v 0.450295717 0.352103353 -0.160645589
v 0.448101461 0.360499769 -0.162864447
v 0.449499905 0.364349455 -0.163255751
v 0.448312432 0.372656375 -0.166141316
v 0.446276337 0.381027907 -0.168460906
v 0.442450315 0.385573685 -0.170123085
v -0.256645709 0.442900628 0.30408287
v -0.277480364 0.447221935 0.325960845
v -0.272505492 0.446609348 0.32647723
v -0.25508818 0.444811493 0.322625011
v -0.264743626 0.448263675 0.336998224
v -0.248016521 0.446528524 0.333668679
v -0.235904872 0.445139527 0.333404452
v -0.258833945 0.449585885 0.356279075
v -0.243182868 0.44794023 0.353731126
v -0.261240959 0.451991111 0.373298734
v -0.253947467 0.451213598 0.372376502
v -0.237986356 0.449553639 0.369696736
v -0.246211618 0.452862382 0.38286227
v -0.232649401 0.451388508 0.381764591
v -0.246858925 0.455121785 0.39863205
v -0.237614721 0.454209983 0.396542698
v -0.225528389 0.452850699 0.396431059
v -0.241468281 0.456694722 0.41425544
v -0.164400622 0.450642318 0.373771608
v -0.233256355 0.458300352 0.424383342
v -0.228416786 0.457714289 0.42509532
v -0.13712272 0.450689077 0.376328737
v -0.133486196 0.449934781 0.381707877
v -0.133260325 0.452669859 0.389573365
v -0.125549316 0.45162639 0.392466128
v -0.131914139 0.454821557 0.404300243
v -0.117612436 0.453318 0.403224379
v -0.147986352 0.458423048 0.425676256
v -0.126377985 0.456422925 0.420209736
v -0.0654161572 0.451671213 0.391349077
v -0.108123638 0.45739305 0.424764574
v -0.0497604832 0.452860028 0.397748679
v 0.0233854055 0.447286278 0.362282097
v -0.0493278727 0.455100179 0.41315639
v 0.0135258464 0.450542897 0.380150914
v 0.0280601885 0.449024528 0.379419804
v 0.00637168577 0.453329742 0.400178492
v 0.0562692173 0.44942081 0.379008442
v 0.0116413981 0.455262363 0.412901908
v 0.0645437986 0.451184392 0.390224457
v 0.0482776053 0.451748729 0.40729025
v 0.0326277465 0.455884159 0.420463026
v 0.0642462373 0.45325157 0.410186201
v 0.0308175664 0.458283782 0.437195301
v 0.0829885975 0.454318404 0.415460467
v 0.0412818044 0.459871531 0.446953714
v 0.0799460933 0.4570885 0.429141402
v 0.143183336 0.452424198 0.40162009
v 0.0976421311 0.45823878 0.435088485
v 0.408066213 0.434254855 0.26674664
v 0.409852713 0.426742852 0.264920264
v 0.408339381 0.419447005 0.264920264
v 0.408898681 0.41172123 0.267986089
v 0.411967129 0.404087812 0.265451252
v 0.412078291 0.396659702 0.264551103
v 0.417244494 0.388832062 0.260851234
v 0.423215538 0.380913079 0.256702453
v 0.421693772 0.373576522 0.256702453
v 0.420171976 0.366239965 0.256702453
v 0.41865021 0.358903378 0.256702453
v 0.417128444 0.351566821 0.256702453
v 0.415606648 0.344230264 0.256702453
v 0.416169077 0.336461395 0.259785384
v 0.414647281 0.329124838 0.259785384
v 0.414194584 0.321685493 0.259192497
v 0.417160183 0.313906193 0.256702423
v 0.416784316 0.306443423 0.2560651
v 0.429478228 0.29763934 0.248169497
v 0.430265307 0.290019035 0.246882021
v 0.42959854 0.282543868 0.246401459
v 0.425721288 0.278975993 0.252394408
v 0.427646458 0.271223217 0.250477165
v 0.427002668 0.263742834 0.249984547
v 0.426335126 0.256261498 0.249504715
v 0.424803317 0.248876587 0.249504715
v 0.425369442 0.241056502 0.252607971
v 0.431894302 0.232706025 0.248136938
v 0.431588024 0.2251551 0.247454688
v 0.430926502 0.217467666 0.251246989
v 0.430158913 0.213767111 0.251246989
v 0.429035813 0.206313595 0.251018465
v 0.438976645 0.197429121 0.244651154
v 0.427655935 0.191127628 0.25435704
v 0.434960425 0.182547599 0.249458745
v 0.437352657 0.174596265 0.24727951
v 0.4339903 0.167272583 0.252576292
v 0.436381489 0.159304932 0.250400394
v 0.434840977 0.151878089 0.250400394
v 0.435537279 0.147818863 0.253876895
v 0.44143793 0.139315516 0.249761552
v 0.444575816 0.1310592 0.251470536
v 0.444223374 0.12343581 0.250812143
v 0.444794357 0.115548782 0.253941953
v 0.445015907 0.11167343 0.25339368
v 0.444599539 0.103936657 0.257068098
v 0.44575724 0.0960658416 0.255579352
v 0.447101682 0.0918998271 0.258711457
v 0.45271939 0.08330331 0.254771143
v 0.4506706 0.0758189186 0.259348661
v 0.450759441 0.0679955333 0.262749553
v 0.45751363 0.0591568537 0.258196801
v 0.453662366 0.0558448993 0.264185697
v 0.451954573 0.0483222082 0.268569887
v 0.459151089 0.0393623896 0.263789654
v 0.459233522 0.0353991501 0.267624587
v 0.467393875 0.0262281392 0.262323737
g path_000000
l 1 1088 1087
g path_000001
l 3 4
g path_000002
l 5 6 7 8 9 10 11
g path_000003
l 12 13 14 15 16 17 18 19 20 21 22
g path_000004
l 24 25 26
g path_000005
l 30 31
g path_000006
l 33 34
g path_000007
l 36 37
g path_000008
l 40 41
g path_000009
l 45 46 47
g path_000010
l 48 49
g path_000011
l 50 51 52 53 54
g path_000012
l 55 56 57 58 59 60 61 62 63 64 65
g path_000013
l 66 67
g path_000014
l 68 69 70 71
g path_000015
l 72 73
g path_000016
l 74 75 76 77 78 79 80 81 82 83 84 85 86 87 88 89 90 91 92 93 94 95 96 97 98 99 100 101 102 103 104 105 106 107 108 109 110 111 112 113 114 115 116 117 118 119 120 121 122
g path_000017
l 123 124 125 126 127 128
g path_000018
l 131 132 133 134 135
g path_000019
l 136 137
g path_000020
l 139 140 141 142 143 144 145
g path_000021
l 146 147 148 149 150 151 152
g path_000022
l 153 154 155 156 157
g path_000023
l 161 162 163 164 165 166
g path_000024
l 167 168 169 170 171 172 173 174 175 176 177
g path_000025
l 183 184
g path_000026
l 186 187
g path_000027
l 190 191 192 193 194 195 196 197 198 199 200
g path_000028
l 201 202 203
g path_000029
l 204 205 206 207
g path_000030
l 209 210
g path_000031
l 211 212 213 214 215 216 217 218 219 220 221 222 223 224 225 226
g path_000032
l 227 228 229 230 231
g path_000033
l 232 233 234 235
g path_000034
l 237 238 239 240 241
g path_000035
l 242 243
g path_000036
l 245 246 247 248 249 250 251 252
g path_000037
l 253 254 255 256 257 258 259 260 261 262 263 264 265 266 267 268 269 270 271 272 273
g path_000038
l 274 275 276 277
g path_000039
l 278 279 280 281 282 283 284 285 286 287 288 289 290 291 292 293 294 295 296 297 298 299 300 301 302
g path_000040
l 303 304 305 306 307 308 309 310 311 312 313 314
g path_000041
l 315 316
g path_000042
l 317 318
g path_000043
l 319 320 321 322 323 324 325 326 327 328 329 330 331 332 333 334 335 336
g path_000044
l 337 338 339 340 341 342 343 344 345 346 347
g path_000045
l 349 350 351 352 353 354 355 356 357 358 359 360 361 362 363 364 365 366 367 368 369 370 371
g path_000046
l 372 373 374 375 376 377 378 379 380 381 382
g path_000047
l 383 384 385 386 387 388 389 390
g path_000048
l 391 392
g path_000049
l 393 394
g path_000050
l 396 397 398 399 400
g path_000051
l 401 402 403 404 405 406 407 408
g path_000052
l 409 410 411 412 413 414 415 416 417 418 419 420 421 422 423 424 425 426 427 428 429 430 431 432 433 434 435 436 437 438 439 440 441 442 443 444 445 446 447 448 449 450 451 452 453 454 455 456 457 458 459 460 461 462 463 464 465 466 467 468 469 470 471 472 473 474 475 476 477 478 479 480 481 482 483 484 485 486 487 488 489 490 491 492 493 494 495 496 497 498 499 500 501 502 503 504 505 506 507 508 509 510 511 512 513 514 515 516 517 518 519 520 521 522 523 524 525 526 527 528 529 530 531 532 533 534 535 536 537 538 539 540 541 542 543
g path_000053
l 545 546 547 548
g path_000054
l 549 550 551 552 553 554 555
g path_000055
l 556 557
g path_000056
l 558 559 560 561 562 563 564 565 566 567 568
g path_000057
l 569 570 571 572 573 574 575 576 577 578 579 580 581 582 583 584
g path_000058
l 585 586 587 588 589 590 591 592 593 594 595 596 597 598
g path_000059
l 599 600 601 602 603 604 605 606 607 608 609
g path_000060
l 610 611 612 613 614 615 616 617 618 619 620 621 622
g path_000061
l 623 624 625 626 627 628 629 630 631 632 633 634 635 636 637 638 639 640 641 642 643 644 645 646 647 648 649 650 651 652 653 654 655
g path_000062
l 659 660 661 662 663 664 665 666 667 668 669 670 671
g path_000063
l 672 673 674 675 676 677 678 679 680 681 682 683 684 685 686 687 688 689 690
g path_000064
l 691 692
g path_000065
l 693 694 695 696 697 698 699 700 701 702 703 704
g path_000066
l 705 706 707 708 709
g path_000067
l 710 711 712
g path_000068
l 714 715 716 717
g path_000069
l 720 721 722 723 724 725 726 727 728 729 730 731 732 733 734 735 736 737 738 739 740 741 742 743 744 745 746 747 748 749 750
g path_000070
l 751 752 753 754 755 756 757
g path_000071
l 758 759 760 761 762 763 764 765 766 767 768 769 770 771 772 773 774 775 776 777 778 779 780 781 782 783 784 785 786 787 788 789 790 791 792 793 794 795 796 797 798 799
g path_000072
l 800 801 802 803 804 805 806 807 808 809 810 811 812 813 814 815 816 817 818 819 820 821 822 823 824 825 826 827 828 829 830 831 832 833 834 835 836 837 838 839 840 841 842 843 844 845 846 847 848 849 850 851 852 853 854 855 856 857 858 859
g path_000073
l 861 862 863 864 865 866 867 868 869 870 871
g path_000074
l 872 873 874
g path_000075
l 875 876 877 878 879 880 881 882 883 884 885 886 887 888 889 890 891 892
g path_000076
l 893 894
g path_000077
l 898 899 900 901 902 903 904 905 906 907 908 909 910 911 912 913 914 915 916 917 918 919 920 921 922 923 924 925 926 927 928 929 930 931 932 933 934 935 936 937 938 939 940 941 942 943 944 945 946 947 948 949 950 951 952 953 954 955 956 957 958 959 960 961 962 963 964 965 966 967 968 969 970 971 972 973 974 975 976 977 978 979 980 981 982 983 984 985 986 987 988 989 990 991 992 993 994 995 996 997 998 999 1000 1001 1002 1003 1004 1005 1006
g path_000078
l 1016 1017
g path_000079
l 1018 1019
g path_000080
l 1020 1021
g path_000081
l 1024 1025
g path_000082
l 1026 1027 1028 1029 1030 1031
g path_000083
l 1032 1033 1034 1035 1036 1037 1038 1039 1040 1041 1042 1043
g path_000084
l 1044 1045 1046 1047 1048
g path_000085
l 1050 1051 1052 1053 1054
g path_000086
l 1059 1060 1061 1062 1063 1064 1065 1066 1067 1068 1069
g path_000087
l 1071 1072 1073 1074 1075
g path_000088
l 1078 1079 1080
g path_000089
l 1082 1083 1084 1085 1086
g path_000090
l 1090 1089 1302 1301 1300 1299 1298 1297 1296 1295 1294 1293 1292 1291 1290 1289 1288 1287 1286 1285 1284 1283 1282 1281 1280 1279 1278 1277 1276 1275 1274 1273 1272 1271 1270 1269 1268 1267 1266 1265 1264 1263 1262 1261 1260 1259 1258 1257 1256 1255 1254 1253 1252 1251 1250 1249 1248 1247 1246
g path_000091
l 1091 1092 1093 1094 1095 1096 1097 1098 1099 1100 1101 1102 1103 1104 1105 1106 1107 1108
g path_000092
l 1109 1110
g path_000093
l 1111 1112 1113 1114 1115 1116 1117 1118 1119 1120 1121 1122 1123 1124 1125 1126
g path_000094
l 1128 1129 1130 1131 1132 1133 1134 1135 1136 1137 1138 1139 1140 1141 1142 1143 1144 1145 1146 1147 1148 1149 1150 1151 1152 1153 1154 1155 1156 1157 1158 1159 1160 1161 1162 1163 1164 1165 1166 1167 1168 1169 1170 1171 1172 1173 1174 1175 1176 1177 1178 1179 1180 1181 1182 1183 1184 1185 1186 1187 1188 1189 1190 1191 1192 1193 1194 1195 1196
g path_000095
l 1198 1199 1200 1201 1202 1203
g path_000096
l 1204 1205
g path_000097
l 1206 1207 1208 1209 1210
g path_000098
l 1211 1212 1213
g path_000099
l 1216 1217
g path_000100
l 1218 1219 1220 1221 1222 1223
g path_000101
l 1231 1232
