# Fixed world centers; Z up; paths immutable
v -0.0625396073 0.636841893 1.03684294
v -0.0561953299 0.640183032 1.03703725
v -0.0523662344 0.644644558 1.03445101
v -0.0439639352 0.663018465 1.04560423
v -0.041526556 0.652801156 1.04510629
v -0.0405403003 0.646918654 1.04428875
v -0.0372213051 0.640281618 1.04016733
v -0.029875176 0.647447109 1.0400666
v -0.0279542971 0.644508958 1.04147065
v -0.0224996582 0.644735634 1.04251158
v -0.0217746869 0.638707042 1.03522277
v -0.0192136131 0.639086187 1.02955663
v -0.018578805 0.641591847 1.02825344
v -0.00912091415 0.655062497 1.03933394
v -0.009248171 0.644911289 1.03845966
v -0.00668891612 0.644482911 1.03857267
v -0.00227207737 0.641263306 1.03701746
v 0.00391876604 0.644041836 1.0399822
v 0.00704150135 0.636367798 1.03507411
v 0.0145337805 0.644387364 1.0356251
v 0.0152514661 0.637926459 1.02798927
v 0.0225725584 0.645068347 1.0310812
v 0.0237422381 0.649492443 1.03124893
v 0.023851173 0.641138971 1.01894379
v 0.0295506716 0.642605186 1.01773858
v 0.0371486731 0.650557816 1.02468538
v 0.042380657 0.650148273 1.02525365
v 0.0474038385 0.648993373 1.02525365
v 0.0536145605 0.652456999 1.02558243
v 0.056896098 0.654986799 1.02476418
v 0.0600171387 0.657191634 1.02050877
v 0.0597094893 0.646170437 1.01250529
v 0.064667739 0.644712329 1.0122757
v 0.069978267 0.644579351 1.01306081
v 0.0749790519 0.6432845 1.01295602
v 0.0814562589 0.648060143 1.0110898
v 0.0865929499 0.647495925 1.00833666
v 0.0895019621 0.648622632 1.0064373
v 0.090897128 0.643820882 0.999966741
v 0.0967207253 0.645885468 0.999232054
v 0.0981456414 0.651829183 0.997383535
v 0.0990596563 0.64502579 0.989326417
v 0.104115598 0.64386338 0.989326417
v 0.108493879 0.639958382 0.987199843
v 0.114661716 0.643416584 0.98754698
v 0.120148979 0.644123435 0.985760987
v 0.124643467 0.640624642 0.98394531
v 0.128240272 0.644573033 0.984227419
v 0.133550733 0.644542396 0.981867671
v 0.13933745 0.646534681 0.98108542
v 0.141527683 0.64451164 0.979960144
v 0.147329301 0.646590889 0.979246974
v 0.153418615 0.649962962 0.979548395
v 0.15734525 0.643846393 0.97567296
v 0.160828188 0.647474766 0.975719988
v 0.164927199 0.642028391 0.972366035
v 0.170637622 0.64374119 0.971367061
v 0.174243018 0.647993982 0.971908152
v 0.179608837 0.648179531 0.969715834
v 0.185054332 0.648729563 0.967809558
v 0.190499842 0.649279594 0.965903342
v 0.192674398 0.64702785 0.964586735
v 0.198123962 0.647578299 0.962679088
v 0.203112364 0.645885348 0.958999097
v 0.205642775 0.645303547 0.958999097
v 0.210364759 0.642225742 0.954219639
v 0.214022398 0.646987319 0.955179989
v 0.21947743 0.647538304 0.953270435
v 0.224221781 0.644464076 0.948481679
v 0.227857053 0.649222076 0.949451268
v 0.232614964 0.646150589 0.944656372
v 0.238078818 0.646702468 0.942743719
v 0.239138111 0.638309062 0.936515868
v 0.24437198 0.637527645 0.933530509
v 0.251003474 0.643875062 0.93294853
v 0.252636969 0.638332903 0.928978503
v 0.259415627 0.645565391 0.92911458
v 0.261581779 0.642894626 0.927438915
v 0.267459184 0.645171046 0.923601389
v 0.270001769 0.644586504 0.923601389
v 0.275483072 0.645140111 0.921682656
v 0.280964345 0.645693779 0.919763863
v 0.283903033 0.646831989 0.91784513
v 0.289384335 0.647385657 0.915926337
v 0.292793095 0.636048138 0.907696724
v 0.297408223 0.647354722 0.914007604
v 0.300853342 0.636017084 0.905769229
v 0.3063595 0.636573255 0.903841794
v 0.311865628 0.637129366 0.901914358
v 0.317371756 0.637685537 0.899986863
v 0.319500983 0.634319365 0.897727191
v 0.325013906 0.634876192 0.895797372
v 0.330526859 0.635433018 0.893867493
v 0.332457691 0.630581021 0.890392125
v 0.337981045 0.631138921 0.88845861
v 0.343504399 0.63169682 0.886525154
v 0.346857607 0.635626435 0.886869133
v 0.351989001 0.633401632 0.882658184
v 0.357088387 0.630842447 0.878166914
v 0.359646171 0.630194187 0.878119051
v 0.365177304 0.630752861 0.876182854
v 0.368142724 0.631901443 0.874246597
v 0.373673856 0.632460117 0.8723104
v 0.379604667 0.634757221 0.868438005
v 0.382170409 0.634167373 0.868438005
v 0.385374039 0.61575371 0.850809038
v 0.388328671 0.61661768 0.848612785
v 0.24862805 -0.601142406 -0.158690035
v 0.257370949 -0.598734617 -0.160408407
v 0.266450852 -0.59331125 -0.15962024
v 0.275029063 -0.592177212 -0.16238752
v 0.27906245 -0.592469037 -0.161872551
v 0.287961572 -0.588340521 -0.162147179
v 0.296897471 -0.583714247 -0.162000179
v 0.300877839 -0.584391713 -0.161806867
v 0.309786648 -0.579803109 -0.161683813
v 0.317714125 -0.58137691 -0.161481112
v 0.322502881 -0.57735759 -0.162584275
v 0.330450177 -0.578656077 -0.162152708
v 0.339530408 -0.571733952 -0.160067514
v 0.348303378 -0.567850828 -0.160511434
v 0.35706386 -0.56394273 -0.160928026
v 0.360998213 -0.564847291 -0.160928026
v 0.369855225 -0.559592664 -0.160209805
v 0.378436118 -0.557409585 -0.162060663
v 0.382277399 -0.559370637 -0.162948593
v 0.391050667 -0.554694057 -0.162702709
v 0.399028838 -0.554826021 -0.161297873
v 0.407671839 -0.551472843 -0.162156641
v 0.457997739 0.0346409194 0.331990063
v 0.46069935 0.0310945716 0.333942622
v 0.465813428 0.0197677724 0.334316999
v 0.469061017 0.0188755076 0.334197253
v 0.473845184 0.00211038161 0.330087453
v 0.47608608 -0.00885695592 0.325915039
v 0.474130929 -0.0276206173 0.319020629
v 0.476399332 -0.0328433812 0.323993742
v 0.475114554 -0.0413081832 0.325683683
v 0.473641485 -0.0526470169 0.32504645
v 0.472127825 -0.0645573139 0.323983848
v 0.473972321 -0.0766396224 0.323445529
v 0.473347813 -0.0805522129 0.324607402
v 0.47993356 -0.0831196457 0.323766261
v 0.485982448 -0.0819455311 0.334603339
v 0.488612205 -0.0878632963 0.33476764
v 0.495539486 -0.0843786374 0.338800132
v 0.502125144 -0.0867475346 0.338121265
v 0.508567095 -0.09194123 0.335172653
v 0.516193211 -0.0818487704 0.340206891
v 0.51825279 -0.0998995528 0.330620646
v 0.526101053 -0.0846366212 0.339801192
v 0.532657206 -0.0876473188 0.338605016
v 0.536506474 -0.085685581 0.336490571
v 0.543810427 -0.0809270367 0.337245345
v 0.550937057 -0.0803081915 0.334667444
v 0.551737428 -0.0819019973 0.324753523
v 0.556315124 -0.0718517751 0.324887604
v 0.560435593 -0.0619091354 0.329279125
v 0.564187229 -0.0622049719 0.325345665
v 0.562258244 -0.0471082367 0.32843864
v 0.562711239 -0.05924505 0.309847027
v 0.5604918 -0.0400785878 0.320653707
v 0.561215997 -0.0441774316 0.30862242
v 0.558950305 -0.0387963019 0.30376932
v 0.559972644 -0.0344776995 0.298664123
v 0.557822287 -0.0259414129 0.296447217
v 0.561608016 -0.0375184864 0.278664827
v 0.558811486 -0.034512382 0.276165009
v 0.560160935 -0.0211521946 0.278641343
v 0.557729959 -0.0202153735 0.270021141
v 0.556719899 0.0301522836 0.30767712
v 0.556147516 -0.0079292329 0.266619235
v 0.55739975 0.00257972046 0.266787589
v 0.561065614 -0.0121445674 0.246026009
v 0.548315585 -0.494483083 -0.171539232
v 0.557521045 -0.482767254 -0.170278803
v 0.562067151 -0.478241533 -0.170780525
v 0.56661427 -0.473430336 -0.171028525
v 0.571867704 -0.461850464 -0.170570955
v 0.57703501 -0.452752948 -0.172228739
v 0.581523478 -0.448978633 -0.173337504
v 0.582826495 -0.439384997 -0.175291792
v 0.588061094 -0.425991476 -0.173118979
v 0.589371324 -0.415539116 -0.174250051
v 0.590688825 -0.40460664 -0.174924567
v 0.592008471 -0.393405825 -0.175325379
v 0.593269825 -0.384709805 -0.177913979
v 0.594814241 -0.522713602 -0.305106342
v 0.600047231 -0.51616174 -0.309211165
v 0.601255774 -0.512115717 -0.316363633
v 0.598864019 -0.488615602 -0.306845903
v 0.603416383 -0.486852407 -0.309818268
v 0.608704746 -0.475009441 -0.309065491
v 0.613352299 -0.466316789 -0.305756152
v 0.618208408 -0.482969224 -0.330803901
v 0.619466901 -0.475454032 -0.334785938
v 0.617090464 -0.445266843 -0.318844438
v 0.618310511 -0.439960092 -0.324754804
v 0.619357109 -0.447537512 -0.342533976
v 0.620523989 -0.446626604 -0.35255
v 0.621869504 -0.431970686 -0.349843413
v 0.622963488 -0.437031955 -0.365432233
v 0.623746812 -0.468422413 -0.405687958
v 0.624870658 -0.472970784 -0.421019405
v 0.62587142 -0.488953203 -0.447174668
v 0.62300992 -0.49036324 -0.460587084
v 0.623592198 -0.185814142 -0.178868115
v 0.62531358 -0.135954469 -0.141774729
v 0.625230551 -0.227551788 -0.239197537
v 0.623958051 -0.422407627 -0.436026394
v 0.620756447 -0.40743342 -0.428124756
v 0.621259809 -0.458819389 -0.488672972
v 0.630260944 -0.485214949 -0.523684442
v 0.626832604 -0.481529713 -0.526749015
v 0.624036908 -0.475092888 -0.53287816
v 0.623090982 -0.280433238 -0.350277185
v 0.624148548 -0.285985589 -0.366538942
v 0.622756183 -0.187062293 -0.281426817
v 0.623385251 -0.222567588 -0.326919466
v 0.624249935 -0.241920978 -0.356763035
v 0.625625968 -0.221546799 -0.347458065
v 0.623118401 -0.207838863 -0.345531553
v 0.627488434 -0.206212699 -0.348451823
v 0.625009596 -0.190440699 -0.344394714
v 0.626118362 -0.190639824 -0.355404019
v 0.627431035 -0.174214005 -0.349730462
v 0.628346503 -0.191118434 -0.377616018
v 0.625941873 -0.168825448 -0.366835803
v 0.626298368 -0.18494013 -0.388626844
v 0.62405014 -0.151528969 -0.366437763
v 0.625109613 -0.155103654 -0.380972087
v 0.622743607 -0.132479474 -0.36957553
v 0.623290002 -0.132707462 -0.375249922
v 0.623795509 -0.177873984 -0.432751954
v 0.621368408 -0.157700196 -0.42388016
v 0.622551441 -0.152554691 -0.429610938
v 0.621881783 -0.562532306 -0.860898912
v 0.627536178 -0.557681203 -0.867405713
v 0.633244634 -0.546848357 -0.867647231
v 0.638909578 -0.539251983 -0.871249199
v 0.643863261 -0.540079117 -0.877390444
v 0.645219505 -0.531499505 -0.880984604
v 0.650189579 -0.529574454 -0.88422972
v 0.660138845 -0.518379211 -0.882929564
v 0.660807252 -0.515471756 -0.886167705
v 0.65718478 -0.511577785 -0.889405906
v 0.653544188 -0.513395369 -0.898737311
v 0.650594234 -0.504334807 -0.902817547
v 0.647598863 -0.505309284 -0.917666614
v 0.643992603 -0.496688962 -0.91583848
v 0.640334606 -0.496815711 -0.923430741
v 0.632454515 -0.485759705 -0.920014441
v 0.628828466 -0.481755018 -0.923142195
v 0.620903611 -0.476973832 -0.926499128
v 0.613008142 -0.470236927 -0.927726388
v 0.608895361 -0.496136457 -0.963486373
v 0.610111535 -0.498620391 -0.979175329
v 0.602697968 -0.495172441 -0.990606785
v 0.5984357 -0.489739478 -0.985730171
v 0.590401232 -0.485943258 -0.990268409
v 0.581748903 -0.482450426 -0.988618851
v 0.572312713 -0.486135364 -0.988360524
v 0.567938149 -0.486135393 -0.989461958
v 0.575758457 0.0619538613 -0.381673187
v 0.570119619 0.0836891979 -0.370442629
v 0.570193291 0.0714580938 -0.389438301
v 0.564684093 0.0959127843 -0.375083387
v 0.561630726 0.0991949365 -0.377812743
v 0.559140801 0.104927711 -0.383271486
v 0.556087494 0.108209871 -0.386000872
v 0.553597569 0.113942645 -0.391459614
v 0.550544202 0.117224805 -0.39418897
v 0.545148551 0.160974473 -0.346707731
v 0.542141616 0.164206758 -0.349395633
v 0.539496422 0.165637597 -0.359554589
v 0.536669433 0.172805339 -0.357777089
v 0.530668676 0.179549336 -0.362835199
v 0.527666748 0.182881743 -0.36540854
v 0.524785161 0.188538805 -0.365316033
v 0.519779623 0.213564008 -0.349310577
v 0.51734668 0.219165549 -0.354644358
v 0.514892459 0.231786311 -0.346408933
v 0.512094557 0.238029882 -0.345529288
v 0.509672999 0.243605241 -0.350838155
v 0.507220447 0.248659804 -0.356756061
v 0.504311025 0.252852052 -0.358239651
v 0.50186038 0.257948011 -0.364110321
v 0.499050528 0.263676643 -0.363774568
v 0.496631324 0.269246638 -0.369078308
v 0.495943278 0.301428169 -0.342770487
v 0.493145674 0.306680083 -0.342901081
v 0.491368234 0.321324736 -0.337229818
v 0.488984078 0.326814055 -0.342456728
v 0.48952356 0.329160571 -0.345070183
v 0.487139404 0.334649861 -0.350297093
v 0.487461567 0.378565252 -0.308992684
v 0.487992942 0.380876422 -0.31156674
v 0.489055663 0.385498732 -0.316714853
v 0.486707449 0.390905291 -0.321862966
v 0.490859807 0.439175904 -0.27348116
v 0.494999945 0.439253002 -0.283083886
v 0.498879105 0.440755486 -0.285616726
v 0.503281116 0.444532096 -0.290682346
v 0.504067659 0.445126921 -0.300652236
v 0.504946411 0.447097778 -0.308943897
v 0.505994916 0.451658249 -0.314023107
v 0.507043421 0.456218749 -0.319102347
v 0.508091927 0.46077922 -0.324181557
v 0.509140432 0.46533969 -0.329260796
v 0.510102153 0.46853745 -0.336066753
v 0.505537987 0.439209849 -0.385243297
v 0.506070018 0.441524118 -0.38782078
v 0.507134199 0.446152657 -0.392975807
v 0.508198321 0.450781196 -0.398130834
v 0.509073079 0.452435553 -0.407116294
v 0.510326684 0.460038245 -0.408440888
v 0.511948824 0.473515391 -0.402118623
v 0.516376972 0.476771027 -0.408001244
v 0.517437518 0.481383741 -0.413138658
v 0.518438399 0.485013425 -0.419564426
v 0.51615423 0.491384447 -0.423423201
v 0.517214775 0.49599722 -0.428560644
v 0.514407933 0.500150681 -0.429720968
v 0.515296459 0.502013326 -0.438504994
v 0.512951314 0.507410705 -0.443648428
v 0.513914645 0.510476708 -0.450862944
v 0.511048436 0.513745248 -0.453200072
v 0.511161923 0.503588676 -0.478221625
v 0.508800924 0.50902462 -0.483397722
v 0.510365725 0.521307111 -0.47822538
v 0.507692635 0.521892369 -0.489961326
v 0.505734444 0.538841844 -0.473673373
v 0.50736016 0.499412388 -0.537993848
v 0.505117357 0.507077754 -0.540250838
v 0.505514741 0.507288516 -0.545805871
v 0.502913594 0.509637117 -0.555389047
v 0.500093579 0.50891906 -0.569258511
v 0.499046743 0.488185018 -0.603963912
v 0.497311354 0.508946776 -0.582157493
v 0.490612328 0.504204512 -0.60290885
v 0.486980319 0.498324364 -0.618249893
v 0.483916014 0.495391488 -0.635532737
v 0.485016495 0.500177979 -0.640863657
v 0.483916014 0.495391488 -0.635532737
v 0.480340093 0.500386655 -0.623631477
v 0.473163217 0.491353393 -0.650704801
v 0.473118126 0.481678993 -0.676549375
v 0.470194817 0.486002028 -0.677699924
v 0.470622063 0.482338369 -0.695173621
v 0.468531191 0.492565304 -0.694061697
v 0.469273746 0.492857367 -0.705973029
v 0.467997074 0.468210995 -0.753830194
v 0.472391576 0.467797786 -0.76577878
v 0.472956806 0.470256358 -0.768517017
v 0.474087328 0.475173503 -0.773993492
v 0.475217849 0.480090648 -0.779469967
v 0.477716863 0.454682618 -0.828061819
v 0.478861213 0.459660053 -0.833605409
v 0.480005592 0.464637488 -0.839149058
v 0.484822959 0.468770474 -0.844692647
v 0.485395163 0.471259177 -0.847464442
v 0.486539513 0.476236612 -0.853008032
v 0.491356879 0.480369598 -0.858551681
v 0.500783324 0.497351766 -0.843629062
v 0.505004346 0.498986632 -0.846385062
v 0.512308538 0.49730733 -0.846385062
v 0.51961267 0.495627999 -0.846385062
v 0.527485788 0.496423244 -0.849141121
v 0.531137884 0.495583594 -0.849141121
v 0.539579928 0.498853356 -0.85465318
v 0.544369876 0.502962828 -0.860165238
v 0.544938803 0.505437374 -0.862921238
v 0.549728751 0.509546816 -0.868433297
v 0.550866604 0.514495909 -0.873945355
v 0.552004457 0.519445002 -0.879457414
v 0.549490213 0.525233746 -0.884969473
v 0.55005914 0.527708292 -0.887725472
v 0.543567181 0.536603034 -0.883197963
v 0.54049021 0.539910614 -0.885948479
v 0.533768535 0.544056118 -0.888698936
v 0.527010322 0.540331304 -0.910229623
v 0.523919761 0.543653488 -0.912992239
v 0.520669758 0.544372857 -0.919807494
v 0.514045298 0.550634086 -0.919306517
v 0.507792652 0.562237203 -0.910429001
v 0.50471127 0.565549493 -0.913183451
v 0.497042775 0.562099874 -0.921231866
v 0.487341911 0.526812553 -0.986063838
v 0.48415491 0.52958113 -0.989829063
v 0.477292359 0.533813536 -0.992637157
v 0.469529957 0.536138773 -0.984877348
v 0.465577304 0.534190536 -0.98930496
v 0.457284033 0.530274868 -0.991397977
v 0.448542207 0.525514066 -0.988017738
v 0.444225222 0.523753762 -0.985348463
v 0.442708731 0.555089891 -0.924080312
v 0.438184798 0.550550818 -0.925836623
v 0.433362782 0.546413839 -0.920287669
v 0.428023428 0.53712672 -0.922739387
v 0.423490286 0.53279072 -0.924126267
v 0.418652177 0.528639913 -0.918558776
v 0.418077528 0.526140511 -0.915775001
v 0.41314441 0.521094024 -0.911585331
v 0.412207335 0.518093646 -0.90294975
v 0.407241374 0.512741983 -0.899222374
v 0.406533062 0.511810958 -0.887462616
v 0.401828378 0.506091475 -0.89087075
v 0.401356637 0.507231295 -0.876006484
v 0.396301866 0.501051307 -0.873531878
v 0.396017313 0.503733397 -0.856434584
v 0.391202778 0.499602854 -0.850894213
v 0.390948802 0.499894112 -0.843966603
v 0.38989082 0.495661467 -0.837335229
v 0.384997487 0.490799665 -0.832898796
v 0.384247631 0.489194959 -0.82238394
v 0.378714502 0.478905559 -0.825962722
v 0.37852335 0.479628533 -0.818463385
v 0.378560722 0.484587818 -0.798359156
v 0.377820581 0.482977867 -0.787967801
v 0.377790034 0.487304598 -0.768960476
v 0.378011227 0.493702739 -0.747042954
v 0.37704587 0.490147769 -0.739643574
v 0.376126528 0.486971498 -0.731712282
v 0.375166655 0.483451694 -0.724292338
v 0.375064313 0.487048984 -0.706700802
v 0.37512061 0.491930455 -0.687365413
v 0.374174505 0.488480926 -0.679967582
v 0.373059511 0.483631253 -0.674566269
v 0.377158731 0.491616279 -0.649905205
v 0.375786752 0.484599382 -0.647618353
v 0.374677062 0.479772806 -0.64224273
v 0.379639953 0.495245516 -0.607415795
v 0.378264159 0.488145649 -0.605304778
v 0.374909669 0.464474171 -0.626115918
v 0.380420536 0.482472837 -0.594094276
v 0.379320532 0.477688462 -0.588765681
v 0.379480094 0.483543247 -0.568842471
v 0.386758506 0.519459188 -0.506848514
v 0.386665314 0.523156583 -0.490226805
v 0.382481754 0.519892275 -0.489971995
v 0.381614208 0.516950786 -0.482433587
v 0.382119566 0.525503933 -0.459396034
v 0.377629846 0.521652043 -0.454229474
v 0.376563311 0.517013133 -0.449062884
v 0.37642172 0.519987345 -0.433726341
v 0.378112763 0.53799206 -0.39845553
v 0.372754335 0.526687026 -0.403308183
v 0.369150817 0.529614389 -0.389274389
v 0.368624151 0.527323604 -0.386723071
v 0.360809207 0.524296701 -0.381620467
v 0.357180148 0.523161173 -0.384139091
v 0.350504547 0.528750539 -0.367717296
v 0.34618026 0.522434592 -0.377029806
v 0.3390311 0.522719204 -0.373138875
v 0.33178997 0.522305012 -0.3701666
v 0.324922204 0.523099899 -0.371161908
v 0.317955822 0.524557471 -0.365737766
v 0.314366311 0.523900092 -0.367616326
v 0.307476133 0.524583995 -0.36875695
v 0.300542712 0.526151538 -0.363189042
v 0.293566138 0.526290834 -0.365041524
v 0.286546081 0.526210725 -0.367184073
v 0.279782563 0.527765751 -0.367184073
v 0.273019075 0.529320776 -0.367184073
v 0.266255558 0.530875802 -0.367184073
v 0.259345293 0.532351494 -0.361729085
v 0.255915791 0.532834589 -0.362114668
v 0.24910374 0.534081697 -0.362517476
v 0.242314115 0.535464168 -0.362742811
v 0.235554725 0.537018239 -0.362742811
v 0.228816152 0.538684607 -0.362595022
v 0.222058669 0.540247023 -0.362583935
v 0.215327755 0.54194802 -0.362390161
v 0.208569139 0.543501914 -0.362390161
v 0.201789036 0.544946849 -0.362533957
v 0.194859505 0.54531002 -0.369688988
v 0.188080326 0.546816051 -0.369755477
v 0.181311205 0.548372388 -0.369755477
v 0.174542069 0.549928665 -0.369755477
v 0.167772949 0.551484942 -0.369755477
v 0.161003828 0.553041279 -0.369755477
v 0.154234707 0.554597557 -0.369755477
v 0.147465587 0.556153893 -0.369755477
v 0.140671968 0.557655692 -0.364229053
v 0.133863866 0.559010744 -0.364494413
v 0.126916051 0.559765399 -0.365558296
v 0.119866073 0.560103953 -0.367177218
v 0.113021605 0.561341822 -0.367601097
v 0.10592182 0.561523438 -0.369432509
v 0.099147819 0.563080847 -0.369432509
v 0.0923738256 0.564638317 -0.369432509
v 0.0892408341 0.566279709 -0.362670958
v 0.0821089372 0.566370249 -0.3646231
v 0.0749111995 0.566236913 -0.366876543
v 0.0678046346 0.566499293 -0.368604869
v 0.06044963 0.565836489 -0.371571064
v 0.0540552028 0.568590045 -0.364352852
v 0.0470143147 0.569144547 -0.365691572
v 0.039568413 0.568217397 -0.369011194
v 0.0327841528 0.569777191 -0.369011194
v 0.0298120212 0.571723104 -0.361827582
v 0.0227669589 0.572302043 -0.363134444
v 0.0152950669 0.571378231 -0.366451353
v 0.00785796996 0.570632041 -0.369535267
v 0.00190605572 0.574673295 -0.360586882
v -0.00602026703 0.572258592 -0.365897387
v -0.0139453411 0.569933116 -0.371095717
v -0.0207453929 0.571496546 -0.371095717
v -0.0277424362 0.571870208 -0.367040455
v -0.0348751582 0.572319627 -0.368529916
v -0.0416844264 0.573286653 -0.363682419
v -0.0453137979 0.573311031 -0.364693999
v -0.0524049513 0.573924363 -0.365964085
v -0.059967164 0.572440267 -0.364392072
v -0.0678513497 0.570577562 -0.368973732
v -0.0707003474 0.572481632 -0.361825436
v -0.0786004215 0.570618987 -0.366403282
v -0.0869634151 0.567392409 -0.372810751
v -0.0938738808 0.568019748 -0.368404806
v -0.101560801 0.566966653 -0.371908009
v -0.104472332 0.568563879 -0.365159929
v -0.112031408 0.567924738 -0.36810714
v -0.118645392 0.569389462 -0.36258626
v -0.126530066 0.567834914 -0.366753757
v -0.13299109 0.569712818 -0.36068213
v -0.140855655 0.568276882 -0.364689738
v -0.143602222 0.570195854 -0.357519805
v -0.151634559 0.568318486 -0.362112164
v -0.158380121 0.569316745 -0.357215434
v -0.166233987 0.568013549 -0.361042291
v -0.169150934 0.569358289 -0.354639828
v -0.180646598 0.558043718 -0.371789545
v -0.187069044 0.559967458 -0.365648359
v -0.195393547 0.55756104 -0.370947152
v -0.202706024 0.557056367 -0.368032783
v -0.209528625 0.557854831 -0.363389373
v -0.213541672 0.557098091 -0.36544162
v -0.220537275 0.557421684 -0.361429751
v -0.227874875 0.556833982 -0.358628362
v -0.231698722 0.55660224 -0.35998106
v -0.238842919 0.556518972 -0.356510818
v -0.246217966 0.555833757 -0.353838503
v -0.250112355 0.555443168 -0.355398715
v -0.260250658 0.547767341 -0.361959666
v -0.268048495 0.546079874 -0.36059767
v -0.275476247 0.54532963 -0.357997507
v -0.279726952 0.544121504 -0.360634804
v -0.286939442 0.54391706 -0.357312828
v -0.294239014 0.543491364 -0.354283541
v -0.298990369 0.541104615 -0.358466864
v -0.305763006 0.541971326 -0.35373503
v -0.313174307 0.54128027 -0.351053029
v -0.325474888 0.529989898 -0.367968172
v -0.327636153 0.532825947 -0.359594345
v -0.336689442 0.52939707 -0.366184324
v -0.343577385 0.530025065 -0.36175257
v -0.353184223 0.525410533 -0.369898111
v -0.355587184 0.52759403 -0.362375885
v -0.364154786 0.525452793 -0.367274702
v -0.370578021 0.527140498 -0.361450523
v -0.38001883 0.523083329 -0.368858367
v -0.387505203 0.523504794 -0.370404363
v -0.396003336 0.52168411 -0.374894112
v -0.402929544 0.523397565 -0.374750167
v -0.410457581 0.523784757 -0.376348317
v -0.418780208 0.52245295 -0.380208582
v -0.422586739 0.523758233 -0.385302663
v -0.453135639 0.459705234 -0.481549114
v -0.452930778 0.46259141 -0.489621878
v -0.455656886 0.459121525 -0.506181777
v -0.453459322 0.466341764 -0.508529842
v -0.451517284 0.464333802 -0.522123337
v -0.45337826 0.454008013 -0.546968758
v -0.455469847 0.441868573 -0.568280101
v -0.448035717 0.460571915 -0.555211604
v -0.444281518 0.462433368 -0.563742042
v -0.446984619 0.448878586 -0.587142229
v -0.445842057 0.453848064 -0.592676938
v -0.444666982 0.449979544 -0.609160185
v -0.44310227 0.446927667 -0.624594927
v -0.438695192 0.459105283 -0.62026602
v -0.437687695 0.453580081 -0.632948935
v -0.436538011 0.458580643 -0.638518274
v -0.438450456 0.447783023 -0.664883137
v -0.436035633 0.455596954 -0.666601717
v -0.434880197 0.460622549 -0.672198951
v -0.437183857 0.448914945 -0.700126052
v -0.436602354 0.451444209 -0.702943027
v -0.435439318 0.456502706 -0.708576918
v -0.434107929 0.461933345 -0.713682711
v -0.435733557 0.451683134 -0.739892662
v -0.437283844 0.450749576 -0.754165947
v -0.436111182 0.455850065 -0.759846628
v -0.43493852 0.460950553 -0.765527308
v -0.436816067 0.459319562 -0.780937552
v -0.435640156 0.464434236 -0.786634028
v -0.438322663 0.47023195 -0.792599499
v -0.437146664 0.475347012 -0.798296392
v -0.445434958 0.459741265 -0.834404051
v -0.445473939 0.470117271 -0.827096462
v -0.447462767 0.468355119 -0.843022883
v -0.446904629 0.481278718 -0.838555455
v -0.449758261 0.477685273 -0.857287228
v -0.448926657 0.489868015 -0.84714973
v -0.451540083 0.495885134 -0.852879226
v -0.454410553 0.492344797 -0.871663094
v -0.456256121 0.498726964 -0.870132089
v -0.461768448 0.498617291 -0.885165572
v -0.464479923 0.504484832 -0.891196489
v -0.467615694 0.508126616 -0.893802762
v -0.470327586 0.513994873 -0.899834275
v -0.473925382 0.518019259 -0.908698559
v -0.476175278 0.523504853 -0.908472061
v -0.479778051 0.527537405 -0.917343736
v -0.483001828 0.53100276 -0.920225441
v -0.498077661 0.511594117 -0.965576708
v -0.498661011 0.513175845 -0.97709769
v -0.501924694 0.516684055 -0.980015099
v -0.50731647 0.515881181 -0.989691436
v -0.51347661 0.522260785 -0.989510298
v -0.516743481 0.525772512 -0.992430568
v -0.522968471 0.531984031 -0.992491484
v -0.530628085 0.533907831 -0.992261112
v -0.538386583 0.534195483 -0.987559497
v -0.527452946 0.570833445 -0.925527811
v -0.530803442 0.572585404 -0.924143195
v -0.535402477 0.578684926 -0.910356283
v -0.539783359 0.576988161 -0.907495856
v -0.545823693 0.572113633 -0.90962851
v -0.556146145 0.567215383 -0.91315484
v -0.564342976 0.566387415 -0.910285473
v -0.569314539 0.56359756 -0.909118831
v -0.573361814 0.561089098 -0.900613189
v -0.582387149 0.549228728 -0.906665444
v -0.587516904 0.546169817 -0.905885875
v -0.586426973 0.545269847 -0.893522382
v -0.586387336 0.542409539 -0.884228885
v -0.591369212 0.530120432 -0.889433026
v -0.595894635 0.518672109 -0.893268824
v -0.596490741 0.516079247 -0.890381038
v -0.593515575 0.510658145 -0.883626103
v -0.590285838 0.507186413 -0.880739093
v -0.584392905 0.49915877 -0.876601636
v -0.578989387 0.501306057 -0.872033715
v -0.575847864 0.489395261 -0.88053143
v -0.56600225 0.493305355 -0.878791809
v -0.550309777 0.50729847 -0.855072081
v -0.54321003 0.504543066 -0.856585622
v -0.543400705 0.494338691 -0.863846481
v -0.537712157 0.494387239 -0.848968565
v -0.534225941 0.491476566 -0.845283508
v -0.528524578 0.491636276 -0.830339074
v -0.52994144 0.486020476 -0.825305879
v -0.523246646 0.488252133 -0.807414711
v -0.522572875 0.486874342 -0.796196222
v -0.523694038 0.481867611 -0.79032743
v -0.522869945 0.480807811 -0.778707743
v -0.518622041 0.486711234 -0.757022381
v -0.517772853 0.485728502 -0.745417178
v -0.522155464 0.482593089 -0.73819983
v -0.52041775 0.484766096 -0.728592932
v -0.524591327 0.482038021 -0.720827758
v -0.505989671 0.517041862 -0.657942295
v -0.510606587 0.514649689 -0.656234741
v -0.507341683 0.526818752 -0.627504528
v -0.507593691 0.533161461 -0.613425374
v -0.517887115 0.528811514 -0.621981621
v -0.52210319 0.527178526 -0.61922878
v -0.521879792 0.533021867 -0.599660158
v -0.525285542 0.532965779 -0.59470278
v -0.529221892 0.539831519 -0.58116895
v -0.529372513 0.5447855 -0.56302613
v -0.531918347 0.545005083 -0.551598847
v -0.536355078 0.542850375 -0.54964453
v -0.540795505 0.539346039 -0.543453574
v -0.548766673 0.530320585 -0.551055849
v -0.553500354 0.526259422 -0.545608521
v -0.565524459 0.509447575 -0.56392622
v -0.566280842 0.513099194 -0.547764421
v -0.543842912 0.553750932 -0.479665101
v -0.556370258 0.53592211 -0.499277264
v -0.552705824 0.547971487 -0.471889973
v -0.561384082 0.546594203 -0.476011485
v -0.567244589 0.540310681 -0.473757833
v -0.567235291 0.538974941 -0.469605982
v -0.569440961 0.532056987 -0.467080295
v -0.571026921 0.526319802 -0.462937385
v -0.572136879 0.521492004 -0.45756045
v -0.572448909 0.518194079 -0.45013091
v -0.576088548 0.508512497 -0.451250106
v -0.570358157 0.516825378 -0.428355813
v -0.578130722 0.506851614 -0.430940539
v -0.575290918 0.501967311 -0.424576312
v -0.579270482 0.49928084 -0.417477995
v -0.578748643 0.491274834 -0.421081275
v -0.580718935 0.484786779 -0.417884558
v -0.577587485 0.480454534 -0.410790235
v -0.578187108 0.477954537 -0.40821588
v -0.56915772 0.485130101 -0.386215717
v -0.55743444 0.497690111 -0.357396007
v -0.555720508 0.498431236 -0.345005453
v -0.545782745 0.515318453 -0.311969131
v -0.562176228 0.488238573 -0.336323261
v -0.562722981 0.485860318 -0.33367449
v -0.563941538 0.480858743 -0.328688294
v -0.562175751 0.475315839 -0.329027802
v -0.556589127 0.476007849 -0.315818459
v -0.557618976 0.471381336 -0.310374439
v -0.565487087 0.460977465 -0.313185066
v -0.567228734 0.456237167 -0.313486069
v -0.56292367 0.454399496 -0.303519309
v -0.561196387 0.447457373 -0.299926609
v -0.549140513 0.470202774 -0.266141325
v -0.534020424 0.497827917 -0.220970854
v -0.525204122 0.512927353 -0.191501215
v -0.52185595 0.517132282 -0.175561205
v -0.530727684 0.504486561 -0.181228921
v -0.530331671 0.504029989 -0.176406562
v -0.543923497 0.482008606 -0.193380415
v -0.528121948 0.504715085 -0.159498349
v -0.522857785 0.512774169 -0.139100492
v -0.527279913 0.508980274 -0.134011716
v -0.525876939 0.509317458 -0.123038732
v -0.526925266 0.504757822 -0.117960423
v -0.527749598 0.500647068 -0.112347722
v -0.522892833 0.507933021 -0.0932212323
v -0.52341944 0.504433453 -0.0869439244
v -0.523487568 0.501857758 -0.0795879066
v -0.523350179 0.499699444 -0.0717592686
v -0.52436471 0.495225847 -0.0666570589
v -0.525405288 0.490699887 -0.0616162829
v -0.516223431 0.499340147 -0.040415477
v -0.517257929 0.494840443 -0.0354039185
v -0.518292487 0.49034071 -0.0303923544
v -0.518841445 0.486827016 -0.0242498443
v -0.510052562 0.496016145 -0.00778082572
v -0.510089338 0.493564993 -0.000488880847
v -0.506497324 0.505973995 0.0228124671
v -0.513051927 0.507481039 0.0228124671
v -0.515681207 0.508351743 0.0279401597
v -0.52273947 0.507638812 0.0304109491
v -0.52651602 0.506188333 0.0328989737
v -0.525619328 0.505591393 0.0421724953
v -0.523368955 0.50041014 0.0471060947
v -0.516420066 0.512022257 0.0699983835
v -0.519586384 0.511746466 0.0737650543
v -0.522436082 0.512098968 0.0782289058
v -0.521883845 0.518056452 0.0938085094
v -0.528907895 0.516043484 0.0996575132
v -0.526382565 0.519882143 0.108764067
v -0.526027083 0.525352895 0.123656593
v -0.529458284 0.524464607 0.126680925
v -0.529530644 0.521956384 0.133538708
v -0.527850986 0.529993176 0.151108801
v -0.524364173 0.534547389 0.165593162
v -0.528531134 0.530972421 0.170388296
v -0.528490365 0.528706729 0.177390248
v -0.517139852 0.548850358 0.20853126
v -0.516064227 0.548667014 0.217647821
v -0.515137851 0.548195601 0.226423845
v -0.516113341 0.543952644 0.231149465
v -0.51708883 0.539709628 0.235875085
v -0.51535666 0.540857255 0.246304825
v -0.503040373 0.563107014 0.278939486
v -0.512162745 0.550686598 0.269651711
v -0.507572591 0.557538748 0.285932064
v -0.498131812 0.574073493 0.31224376
v -0.502031207 0.570858836 0.317103624
v -0.505773008 0.567955911 0.322285384
v -0.506249726 0.565882325 0.324594796
v -0.505413592 0.565290928 0.332883209
v -0.510076761 0.560552657 0.336157948
v -0.513634622 0.558007121 0.341689318
v -0.499569684 0.584729552 0.373454899
v -0.502918065 0.582539618 0.379240751
v -0.502901554 0.580343485 0.3857162
v -0.506005824 0.57862848 0.391963452
v -0.509551644 0.57603687 0.397314698
v -0.506974936 0.58000195 0.405635029
v -0.511223197 0.576013923 0.409557164
v -0.50954932 0.577083886 0.419232011
v -0.514629424 0.572566986 0.418324023
v -0.513719916 0.572127938 0.426463604
v -0.511683524 0.580471158 0.44260022
v -0.514985979 0.578308046 0.448278219
v -0.506572723 0.592594147 0.470812321
v -0.509989917 0.591270626 0.473043501
v -0.510159075 0.588737011 0.478948146
v -0.51403439 0.585412264 0.483407706
v -0.517041326 0.583782315 0.489515275
v -0.513507485 0.589579999 0.499312103
v -0.509762943 0.60108906 0.518088043
v -0.503241837 0.611626029 0.536472499
v -0.507947445 0.607702017 0.53614068
v -0.505928993 0.609458506 0.545992255
v -0.509734154 0.6061939 0.550371051
v -0.515125334 0.599850655 0.551819026
v -0.517344534 0.599664748 0.559128702
v -0.5170784 0.599091113 0.562636435
v -0.514504433 0.601909459 0.573378384
v -0.505718708 0.62301898 0.600646675
v -0.509470046 0.619800568 0.604963601
v -0.50991565 0.617862582 0.607122004
v -0.513579845 0.614812493 0.611595809
v -0.512199879 0.615326405 0.619988024
v -0.517708063 0.608710229 0.6211465
v -0.512456894 0.616697907 0.636395633
v -0.515743792 0.615424812 0.638541758
v -0.514582694 0.615519464 0.646454632
v -0.504962504 0.631952882 0.669265747
v -0.508098125 0.629855871 0.674485683
v -0.506152391 0.631488442 0.683667481
v -0.510435581 0.628229678 0.683971226
v -0.506353021 0.633975387 0.696825445
v -0.506713808 0.631170392 0.701930404
v -0.510379672 0.628025293 0.706148922
v -0.5083974 0.629735112 0.715272546
v -0.500823319 0.642239809 0.733954787
v -0.500852108 0.640097916 0.739558041
v -0.501713932 0.63634932 0.743733048
v -0.49761346 0.642197907 0.756343186
v -0.498268515 0.638858438 0.760844767
v -0.491094291 0.644747436 0.773943663
v -0.491292238 0.642308354 0.779189825
v -0.485522509 0.646564305 0.78710252
v -0.480583638 0.648221076 0.796394289
v -0.496360898 0.615280032 0.77534759
v -0.49885124 0.608342528 0.776773155
v -0.493521929 0.611728191 0.783898294
v -0.494380802 0.60799253 0.788058877
v -0.487211138 0.614040017 0.801056981
v -0.484064639 0.613194704 0.804520249
v -0.478857219 0.615451634 0.81422621
v -0.476175517 0.612713635 0.81969285
v -0.470588326 0.616803288 0.827258945
v -0.462453455 0.619969547 0.834551334
v -0.459710091 0.618412673 0.837359369
v -0.453204691 0.617386997 0.8446998
v -0.445030451 0.620794892 0.85212326
v -0.440935999 0.623025715 0.854485512
v -0.432793051 0.626480043 0.861913919
v -0.429653466 0.625830233 0.865423977
v -0.424473763 0.62322551 0.867828131
v -0.416351229 0.62773031 0.87254715
v -0.413582146 0.626354456 0.875439942
v -0.408219159 0.625121415 0.875439942
v -0.402148873 0.624460876 0.879417241
v -0.393716753 0.62979579 0.884783804
v -0.387228638 0.630114734 0.889536083
v -0.380954415 0.630920231 0.891191602
v -0.375453115 0.630069196 0.891496301
v -0.373204023 0.627651572 0.893506765
v -0.367809713 0.626571476 0.893624485
v -0.361471742 0.627573788 0.895432413
v -0.355123162 0.628625274 0.897278309
v -0.348823398 0.629594207 0.899055183
v -0.344902784 0.62437886 0.899284601
v -0.336895496 0.62922889 0.904193938
v -0.326171905 0.640317976 0.914139211
v -0.323945642 0.63792485 0.916129291
v -0.318204284 0.636938274 0.919738293
v -0.310857534 0.639680743 0.92633146
v -0.30863893 0.637295842 0.928314686
v -0.302871197 0.637278855 0.929268062
v -0.298027128 0.634291351 0.931250274
v -0.29214114 0.640533328 0.940103114
v -0.285250157 0.643251598 0.943225026
v -0.280133635 0.640993357 0.945762217
v -0.273174673 0.643951952 0.949063718
v -0.271674156 0.639904797 0.949698448
v -0.265148103 0.641871631 0.952204943
v -0.260344535 0.638909101 0.954170525
v -0.252393842 0.644424915 0.959469497
v -0.247604594 0.641471267 0.961429238
v -0.241594508 0.642301977 0.963022709
v -0.236175463 0.640934289 0.966223717
v -0.232658356 0.642653525 0.968040943
v -0.225471631 0.646520615 0.972008705
v -0.220705748 0.643581271 0.97395885
v -0.215520546 0.64243573 0.973992288
v -0.209072709 0.644536078 0.976563096
v -0.203131452 0.645368516 0.978140533
v -0.200954989 0.643028975 0.980086088
v -0.195167303 0.643493712 0.981371939
v -0.188941136 0.645133436 0.983571529
v -0.183234304 0.644754052 0.987492144
v -0.177671596 0.644699037 0.988367081
v -0.172250837 0.644278049 0.988957047
v -0.166774035 0.64401871 0.989671826
v -0.158727944 0.650111139 0.998582602
v -0.155070692 0.651241243 1.00643528
v -0.151719779 0.652848184 1.00812531
v -0.145704448 0.653582454 1.01284039
v -0.14530386 0.646433651 1.01104772
v -0.139719516 0.646615148 1.01208556
v -0.135704696 0.64179498 1.01253843
v -0.128625005 0.646824896 1.01404071
v -0.120026335 0.655054331 1.02445984
v -0.117493875 0.654472053 1.02445984
v -0.112948492 0.651231706 1.0260967
v -0.108124651 0.649365604 1.02556252
v -0.102860145 0.64934063 1.02321064
v -0.10038168 0.64859432 1.02308595
v -0.0950759128 0.648679852 1.02081728
v -0.091433987 0.643269777 1.01757872
v -0.0833264142 0.65875721 1.03304219
v -0.085446462 0.651357651 1.03382254
v -0.0810038447 0.647847295 1.03524351
v -0.0742842704 0.651227057 1.04186821
v -0.069360204 0.649728179 1.04161084
v -0.0689870119 0.642071128 1.0394671
v -0.0653746724 0.636475801 1.03613007
g path_000000
l 3 2 1 912 911 910 909 908 907 906
g path_000001
l 4 5 6 7 8 9 10 11 12 13
g path_000002
l 14 15 16 17 18 19 20 21 22 23 24 25 26 27 28 29 30 31 32 33 34 35 36 37 38 39 40 41 42 43 44 45 46 47 48 49 50 51 52 53 54 55 56 57 58 59 60 61 62 63 64 65 66 67 68 69 70 71 72 73 74 75 76 77 78 79 80 81 82 83 84 85 86 87 88 89 90 91 92 93 94 95 96 97 98 99 100 101 102 103 104 105
g path_000003
l 106 107
g path_000004
l 108 109 110 111 112 113 114 115 116 117 118 119 120 121 122 123 124 125 126 127 128 129
g path_000005
l 130 131 132 133 134 135 136 137 138 139 140 141 142 143 144 145 146 147 148 149
g path_000006
l 150 151 152 153 154 155 156 157 158 159 160
g path_000007
l 162 163 164 165 166
g path_000008
l 167 168 169 170
g path_000009
l 172 173
g path_000010
l 175 176 177 178 179 180 181 182 183 184 185 186 187
g path_000011
l 188 189 190
g path_000012
l 191 192 193 194
g path_000013
l 195 196
g path_000014
l 197 198 199 200 201 202
g path_000015
l 203 204
g path_000016
l 205 206
g path_000017
l 210 211
g path_000018
l 213 214 215
g path_000019
l 216 217
g path_000020
l 220 221 222 223 224 225 226
g path_000021
l 230 231
g path_000022
l 232 233
g path_000023
l 234 235 236
g path_000024
l 237 238 239 240 241 242 243 244 245 246 247 248 249 250 251 252 253 254 255
g path_000025
l 256 257 258 259 260 261 262 263
g path_000026
l 267 268 269 270 271 272
g path_000027
l 273 274 275 276 277 278 279
g path_000028
l 280 281 282 283 284 285 286 287 288 289
g path_000029
l 290 291 292 293 294 295
g path_000030
l 296 297 298 299
g path_000031
l 300 301 302 303 304 305 306 307 308 309 310
g path_000032
l 311 312 313 314 315 316 317 318 319 320 321 322 323 324 325 326 327
g path_000033
l 328 329 330 331
g path_000034
l 333 334 335 336 337
g path_000035
l 340 341 342 343 344 345
g path_000036
l 347 348 349 350 351
g path_000037
l 352 353 354 355 356
g path_000038
l 357 358 359 360 361 362 363
g path_000039
l 364 365 366 367 368 369 370 371 372 373 374 375 376 377 378 379 380
g path_000040
l 381 382 383 384 385 386 387
g path_000041
l 388 389 390 391 392 393 394 395
g path_000042
l 396 397 398 399 400 401 402 403 404 405 406 407 408 409 410 411 412 413 414 415 416 417 418 419 420
g path_000043
l 421 422 423 424 425 426 427 428
g path_000044
l 429 430 431
g path_000045
l 432 433
g path_000046
l 435 436 437
g path_000047
l 438 439 440 441
g path_000048
l 442 443 444 445
g path_000049
l 446 447 448 449 450 451 452 453 454 455 456 457 458 459 460 461 462 463 464 465 466 467 468 469 470 471 472 473 474 475 476 477 478 479 480 481 482 483 484 485 486 487 488 489 490 491 492 493 494 495 496 497 498 499 500 501 502 503 504 505 506 507 508 509 510 511 512 513 514 515 516 517 518 519 520 521 522 523 524 525 526 527 528 529 530 531
g path_000050
l 532 533 534 535 536 537 538 539 540 541 542 543 544 545 546 547 548 549 550 551 552
g path_000051
l 553 554 555 556 557 558 559 560 561 562 563 564 565 566 567
g path_000052
l 568 569 570 571 572
g path_000053
l 575 576
g path_000054
l 577 578 579 580 581 582 583
g path_000055
l 584 585 586
g path_000056
l 587 588 589 590
g path_000057
l 591 592 593 594 595 596 597 598
g path_000058
l 599 600 601 602 603 604 605 606 607 608 609 610 611 612 613 614 615
g path_000059
l 616 617 618 619 620 621 622 623 624
g path_000060
l 625 626 627 628 629 630 631 632 633 634 635 636 637 638 639 640 641 642 643 644 645 646
g path_000061
l 647 648 649 650 651 652 653 654 655 656 657 658 659 660 661 662
g path_000062
l 663 664
g path_000063
l 665 666 667 668 669 670 671 672 673 674 675 676 677
g path_000064
l 678 679
g path_000065
l 682 683 684 685 686 687 688 689 690
g path_000066
l 691 692 693 694 695 696 697 698
g path_000067
l 700 701
g path_000068
l 703 704 705 706 707 708 709 710 711 712
g path_000069
l 715 716 717 718
g path_000070
l 721 722 723 724 725
g path_000071
l 726 727 728 729 730 731
g path_000072
l 732 733 734 735
g path_000073
l 736 737
g path_000074
l 738 739 740 741 742 743 744
g path_000075
l 745 746 747 748 749 750 751 752 753 754 755 756 757
g path_000076
l 758 759 760 761 762 763
g path_000077
l 764 765 766
g path_000078
l 767 768 769 770 771 772 773
g path_000079
l 774 775 776 777 778 779 780 781 782 783 784 785
g path_000080
l 786 787 788 789 790 791
g path_000081
l 793 794 795 796 797 798 799 800
g path_000082
l 801 802 803 804 805 806
g path_000083
l 807 808 809
g path_000084
l 810 811 812 813 814 815 816 817
g path_000085
l 818 819 820 821 822 823 824 825 826
g path_000086
l 827 828 829 830 831 832 833 834 835 836 837 838 839 840 841 842 843 844 845 846 847 848 849 850 851 852 853 854 855 856 857 858
g path_000087
l 859 860 861 862 863 864 865 866 867 868 869 870 871 872 873 874 875 876 877 878 879 880 881 882 883 884 885 886 887 888 889 890 891 892 893 894 895 896 897
g path_000088
l 898 899 900 901 902 903 904 905
