# Fixed world centers; Z up; paths immutable
v -0.0410758108 0.653920054 1.04749274
v -0.0500056148 0.660257459 1.04027343
v -0.0568240322 0.648304462 1.04315388
v -0.0614650026 0.652867138 1.04366183
v -0.0693322793 0.650001287 1.04347348
v -0.0776705667 0.651052833 1.03970253
v -0.0821105987 0.653753102 1.0360409
v -0.0852869824 0.646184802 1.02739167
v -0.0958037153 0.664516926 1.02926719
v -0.0997239351 0.662897527 1.02915835
v -0.10718587 0.656754494 1.02865839
v -0.115010552 0.65354228 1.02844298
v -0.123873182 0.658180833 1.02100694
v -0.126932949 0.65009737 1.01629663
v -0.135283977 0.650904179 1.01646674
v -0.143260628 0.648857772 1.01237905
v -0.15149878 0.648717105 1.0084691
v -0.151626676 0.649577141 1.00455737
v -0.159460187 0.646488488 1.00037384
v -0.159449086 0.64626354 0.992369115
v -0.163185373 0.643407822 0.988166511
v -0.171613067 0.644626975 0.988362551
v -0.180027902 0.645702183 0.988545895
v -0.188134059 0.644519866 0.984533131
v -0.196350917 0.644076049 0.980583847
v -0.200692832 0.645464063 0.980747759
v -0.208747 0.643884003 0.976697147
v -0.216801152 0.642303944 0.972646534
v -0.225368693 0.644172311 0.972890675
v -0.229090706 0.641337991 0.968689799
v -0.23740603 0.641408741 0.964776099
v -0.245465025 0.639827728 0.960723102
v -0.249898344 0.641634226 0.960913658
v -0.258008361 0.640343368 0.956882417
v -0.266071916 0.638761461 0.952827096
v -0.270049721 0.637567461 0.948762953
v -0.278131366 0.636095762 0.944716454
v -0.282108903 0.634901822 0.94065249
v -0.290418178 0.634777367 0.936710298
v -0.298758 0.634800911 0.932776988
v -0.302636564 0.633017004 0.928665996
v -0.311044484 0.633398771 0.924755991
v -0.314914614 0.631570756 0.92064184
v -0.323199719 0.631211877 0.916673124
v -0.327292919 0.630653679 0.912651777
v -0.335445017 0.629329205 0.90459168
v -0.343682468 0.628649116 0.900594056
v -0.348033577 0.629678071 0.900700688
v -0.3558321 0.626565933 0.896532595
v -0.364487678 0.628311992 0.896721721
v -0.368384957 0.626650274 0.892618656
v -0.376891255 0.627540648 0.892747223
v -0.384846896 0.625283778 0.888637006
v -0.393284261 0.625554979 0.884695768
v -0.397145987 0.623715639 0.880580306
v -0.405447364 0.623250186 0.876587272
v -0.413533062 0.621663988 0.872520804
v -0.418051362 0.623395205 0.872663081
v -0.42572102 0.619470537 0.864417672
v -0.430283755 0.621391237 0.864567757
v -0.438302606 0.619216263 0.856429696
v -0.442308247 0.61811018 0.852359593
v -0.450603157 0.617521644 0.848349035
v -0.45464009 0.616563797 0.844286621
v -0.462816507 0.615139544 0.836188614
v -0.4668383 0.614103198 0.832120717
v -0.470704734 0.61207962 0.823960781
v -0.474788517 0.61133945 0.819908559
v -0.478758991 0.609812319 0.811774611
v -0.482770205 0.608724356 0.807703793
v -0.486709446 0.607048452 0.799562037
v -0.490730613 0.605755925 0.791438043
v -0.494789273 0.604887366 0.787376761
v -0.49874422 0.603281677 0.779237032
v -0.502696276 0.601662159 0.771096528
v -0.502591431 0.600922346 0.767018795
v -0.502421677 0.599627435 0.758871377
v -0.506366909 0.597977042 0.750729799
v -0.510319293 0.596359432 0.742589295
v -0.51012975 0.594974816 0.734439552
v -0.509850919 0.593181849 0.726277471
v -0.513861895 0.592093945 0.722206831
v -0.51363939 0.590560198 0.714055121
v -0.513420641 0.589043677 0.705905139
v -0.513158023 0.5873276 0.697751224
v -0.517063618 0.585505724 0.689608693
v -0.516868174 0.584096491 0.681464791
v -0.516563237 0.58219099 0.673311532
v -0.516397059 0.580914855 0.665172637
v -0.516174614 0.579383373 0.657029808
v -0.52011621 0.577731311 0.648893952
v -0.520030499 0.57708174 0.644824982
v -0.519749165 0.575286388 0.636681139
v -0.519460499 0.573457778 0.628539205
v -0.519194365 0.571731269 0.620400488
v -0.519042253 0.570519269 0.612267435
v -0.518898427 0.569344699 0.604134619
v -0.518662333 0.567753971 0.596000433
v -0.5184412 0.566230595 0.587867856
v -0.51827842 0.564970672 0.579736471
v -0.517888486 0.562686384 0.571607351
v -0.51764071 0.561043262 0.5634799
v -0.517435133 0.559590697 0.555352986
v -0.517239034 0.558180749 0.547226846
v -0.517095268 0.557006896 0.539099336
v -0.516951561 0.555833042 0.530971885
v -0.516673505 0.554053962 0.522852123
v -0.516474843 0.552632689 0.514729321
v -0.516331136 0.551459074 0.50660336
v -0.5160501 0.549667001 0.498488665
v -0.515851796 0.548247576 0.490368754
v -0.515664816 0.546879113 0.482248604
v -0.515441656 0.54534781 0.474133015
v -0.51525408 0.543976784 0.466014653
v -0.519323587 0.542929411 0.457874626
v -0.519040585 0.541131556 0.449768573
v -0.518712342 0.539130807 0.441671073
v -0.518191516 0.5362674 0.433604747
v -0.517703593 0.533551514 0.425539464
v -0.517327964 0.531339526 0.417461514
v -0.521253705 0.529669404 0.409347683
v -0.519976616 0.523440003 0.401435792
v -0.518579364 0.516675889 0.393564641
v -0.52237463 0.51447165 0.385493517
v -0.521787822 0.511598587 0.381548524
v -0.524387836 0.504122376 0.373728186
v -0.524244964 0.502955556 0.365649253
v -0.526673317 0.495041579 0.361945033
v -0.527629018 0.480457306 0.354536027
v -0.497586399 0.330879241 0.3582066
v -0.501900136 0.315095633 0.362876952
v -0.508288026 0.308470756 0.367061645
v -0.5167768 0.310901791 0.370790511
v -0.519036174 0.303537041 0.371128768
v -0.522990227 0.286591083 0.371914357
v -0.534484804 0.301688075 0.375017047
v -0.539229989 0.288275123 0.375618041
v -0.545055449 0.279500753 0.375995576
v -0.547404826 0.25664854 0.377052397
v -0.556473792 0.261366218 0.376779437
v -0.555620492 0.226083487 0.378436834
v -0.546989262 0.175478622 0.377076715
v -0.554184973 0.173224002 0.377142251
v -0.562133133 0.173959717 0.377060711
v -0.566032827 0.158805564 0.377761096
v -0.571565747 0.150213167 0.37813881
v -0.57596314 0.13706319 0.37499091
v -0.582458377 0.132126033 0.371445179
v -0.590819478 0.134627715 0.371270657
v -0.588026226 0.109125674 0.368821651
v -0.59335345 0.0997414291 0.361817777
v -0.594185293 0.0882180259 0.358700335
v -0.597266078 0.0851764902 0.355129868
v -0.596964955 0.0692659467 0.348591894
v -0.575624466 -0.0246060584 0.346737295
v -0.57746613 -0.0452068523 0.347908765
v -0.582254529 -0.0547523163 0.348423868
v -0.584333539 -0.0609137453 0.345178276
v -0.594079137 -0.0523229688 0.344607025
v -0.597510338 -0.0668587387 0.34184885
v -0.605230927 -0.0656049699 0.341718495
v -0.611948013 -0.0682306662 0.338241816
v -0.613007903 -0.077809982 0.335234255
v -0.620281518 -0.0657276437 0.32726413
v -0.623752236 -0.0667989179 0.323714912
v -0.620576382 -0.0785345882 0.317326725
v -0.624477625 -0.0783551708 0.31011793
v -0.624352098 -0.0793802515 0.303020328
v -0.616982698 -0.0926073566 0.300423831
v -0.616508067 -0.0948553979 0.293441355
v -0.617007196 -0.0807613805 0.28525281
v -0.618292689 -0.076820232 0.277767509
v -0.614665389 -0.0768969879 0.27421391
v -0.61417228 -0.0661614835 0.266192526
v -0.612156272 -0.060765218 0.258570224
v -0.616120934 -0.0472594537 0.250204206
v -0.617390156 -0.0433345921 0.242610797
v -0.618851423 -0.0387291647 0.234939009
v -0.619113386 -0.0383851007 0.227629691
v -0.623349249 -0.0239289179 0.219019279
v -0.622742772 -0.0266712289 0.21196264
v -0.619934857 -0.03722905 0.205659106
v -0.619807601 -0.0382682532 0.198463753
v -0.61493665 -0.0426150225 0.195285857
v -0.615175784 -0.042349074 0.187967673
v -0.615187883 -0.0428915583 0.180727154
v -0.619328976 -0.0420233943 0.173292264
v -0.61920172 -0.0430625714 0.166097119
v -0.619074464 -0.0441017449 0.158901989
v -0.618947208 -0.0451409183 0.151706845
v -0.618853152 -0.0460622907 0.144498587
v -0.619508326 -0.0443277024 0.136989057
v -0.619380951 -0.0453676432 0.129788607
v -0.619253635 -0.0464075841 0.12258815
v -0.623165488 -0.0463781282 0.115207978
v -0.623101771 -0.046898298 0.111606359
v -0.623006642 -0.0478247181 0.104389258
v -0.622879267 -0.0488650911 0.0971858054
v -0.626364529 -0.0503478535 0.0899823606
v -0.625119448 -0.055319421 0.0832795054
v -0.628601193 -0.0568006933 0.0760833025
v -0.627337158 -0.061823938 0.0694094375
v -0.631433129 -0.0608490333 0.0655593947
v -0.629400194 -0.0685425326 0.0592583381
v -0.632724285 -0.0705422536 0.0521490686
v -0.636197805 -0.0720200241 0.0449698865
v -0.625847757 -0.108206533 0.0463268422
v -0.62769115 -0.115193494 0.0399899483
v -0.629265726 -0.123067722 0.033800479
v -0.633110285 -0.122811206 0.0300821327
v -0.63453418 -0.131139353 0.023986917
v -0.636308789 -0.137927562 0.021301277
v -0.638868392 -0.142307907 0.0146648549
v -0.642348945 -0.143251926 0.0111325802
v -0.645566821 -0.145381466 0.00417006901
v -0.646741152 -0.154378265 -0.00173918845
v -0.650214195 -0.155320257 -0.00526385149
v -0.651731372 -0.163095921 -0.01132733
v -0.650990367 -0.166171357 -0.0180400815
v -0.654513717 -0.166918233 -0.021587614
v -0.657378316 -0.170153543 -0.0283346046
v -0.658378541 -0.179541126 -0.0340745673
v -0.662418365 -0.178859189 -0.0414403789
v -0.660202026 -0.186464489 -0.0437760465
v -0.6622504 -0.192313448 -0.0500453971
v -0.665543735 -0.194057971 -0.0569926165
v -0.663280308 -0.201768637 -0.0592650697
v -0.665369511 -0.207415164 -0.0655251965
v -0.66874516 -0.208851293 -0.0725020766
v -0.667538881 -0.213076204 -0.0753391832
v -0.669799089 -0.218114406 -0.0816714391
v -0.673168182 -0.219547734 -0.0886346921
v -0.67304498 -0.220553413 -0.0955979452
v -0.670619309 -0.228992924 -0.10120289
v -0.673981667 -0.230423391 -0.1081523
v -0.672537684 -0.235373929 -0.11080128
v -0.672387838 -0.236463442 -0.11772608
v -0.670908451 -0.241829753 -0.123840339
v -0.666643262 -0.244552717 -0.130362287
v -0.66718626 -0.243406564 -0.137705967
v -0.663009107 -0.245548815 -0.140770927
v -0.663962662 -0.243068367 -0.148382559
v -0.670154095 -0.223647043 -0.159362286
v -0.662182927 -0.238339454 -0.163514242
v -0.66612047 -0.237906262 -0.170837596
v -0.66410327 -0.256676197 -0.174254328
v -0.663705051 -0.258261919 -0.177491084
v -0.671328008 -0.257523239 -0.184942231
v -0.668096781 -0.268172383 -0.18629466
v -0.653196335 -0.33875683 -0.17529425
v -0.652710438 -0.362902731 -0.173893407
v -0.656232119 -0.374172986 -0.175159842
v -0.648108482 -0.410870999 -0.170935139
v -0.648224592 -0.42161721 -0.172160164
v -0.643923104 -0.446346462 -0.173769876
v -0.639366865 -0.461113125 -0.177359179
v -0.634954512 -0.464512169 -0.179913178
v -0.644002795 -0.436861038 -0.19273974
v -0.644753695 -0.435107559 -0.199942663
v -0.641875267 -0.444676638 -0.204627097
v -0.639735162 -0.45194006 -0.209797621
v -0.649676144 -0.432286948 -0.221152321
v -0.645594716 -0.445566207 -0.2249479
v -0.644132555 -0.450700581 -0.230578244
v -0.644016027 -0.451652229 -0.237167254
v -0.646519125 -0.444464862 -0.245669082
v -0.646584809 -0.444851965 -0.25240767
v -0.646467984 -0.445805967 -0.259013057
v -0.634555697 -0.472776234 -0.259255379
v -0.63604629 -0.468719929 -0.267025679
v -0.638160527 -0.462723315 -0.27529031
v -0.642012179 -0.451320171 -0.284915566
v -0.663452208 -0.39575702 -0.302195966
v -0.669100046 -0.400214195 -0.304766655
v -0.666959167 -0.417845011 -0.303938627
v -0.668100476 -0.435924709 -0.303066671
v -0.672059119 -0.445243239 -0.304365784
v -0.671423137 -0.457936406 -0.304692686
v -0.67120856 -0.469584584 -0.308672547
v -0.667497396 -0.481385201 -0.312468916
v -0.657411456 -0.522338688 -0.305420727
v -0.662642956 -0.517096996 -0.310244024
v -0.680367112 -0.474830031 -0.328110009
v -0.676783144 -0.486148655 -0.331965983
v -0.674940944 -0.492256612 -0.337160259
v -0.674825132 -0.493202627 -0.343710512
v -0.679052413 -0.481169075 -0.353746682
v -0.6720227 -0.492251962 -0.354066133
v -0.677320659 -0.47697553 -0.365024388
v -0.678832114 -0.473049313 -0.372942716
v -0.677173197 -0.478621632 -0.378264159
v -0.682076275 -0.485102355 -0.383539468
v -0.67672044 -0.491144121 -0.385165304
v -0.682509184 -0.47446382 -0.396672696
v -0.687838674 -0.46915862 -0.401712745
v -0.686834157 -0.472754687 -0.407574236
v -0.686007798 -0.475819707 -0.413576841
v -0.689201593 -0.477178454 -0.420177817
v -0.687099636 -0.48401916 -0.425075501
v -0.683580518 -0.495059609 -0.428726584
v -0.680444777 -0.504960001 -0.432672113
v -0.677100062 -0.505030811 -0.435948938
v -0.686485171 -0.498131603 -0.445065558
v -0.687641919 -0.495016396 -0.449417681
v -0.684973419 -0.503506124 -0.453738391
v -0.677579701 -0.515860379 -0.456744164
v -0.671495795 -0.524389029 -0.46086362
v -0.679336727 -0.511559546 -0.468293518
v -0.674818039 -0.525543272 -0.470853209
v -0.674743295 -0.526365399 -0.477416575
v -0.677519023 -0.508606195 -0.489617825
v -0.675247788 -0.505469382 -0.493896157
v -0.669014871 -0.514143229 -0.494495809
v -0.674479663 -0.498428851 -0.506277919
v -0.668151617 -0.507687926 -0.510108054
v -0.672330499 -0.49578017 -0.520761371
v -0.676378548 -0.494270593 -0.524819076
v -0.671677649 -0.498638511 -0.530188203
v -0.676711798 -0.494485617 -0.538555145
v -0.676349282 -0.496171892 -0.544915259
v -0.675977826 -0.497884303 -0.551263928
v -0.672611713 -0.497955531 -0.554561675
v -0.67302829 -0.497313768 -0.561683118
v -0.673010349 -0.497971624 -0.568379641
v -0.66962105 -0.498408526 -0.575015843
v -0.669504285 -0.499361664 -0.58161515
v -0.66828692 -0.492967606 -0.58709234
v -0.667435825 -0.496129185 -0.592956424
v -0.66731894 -0.497083485 -0.599563837
v -0.663946748 -0.497154862 -0.602867603
v -0.661180258 -0.495696157 -0.610165
v -0.661063313 -0.496651024 -0.616776288
v -0.660946369 -0.49760586 -0.623387575
v -0.655454874 -0.493928999 -0.631334424
v -0.655729771 -0.493393749 -0.634999037
v -0.659439385 -0.482722968 -0.645720005
v -0.65489763 -0.486604303 -0.651181877
v -0.651249647 -0.487773597 -0.657597721
v -0.651393294 -0.48763445 -0.661136389
v -0.652387917 -0.485195875 -0.668994427
v -0.647830307 -0.489143819 -0.674409151
v -0.648821414 -0.486706734 -0.682280183
v -0.645372391 -0.487258166 -0.688923061
v -0.645313621 -0.487737894 -0.69224447
v -0.647900164 -0.480392307 -0.701948524
v -0.642942667 -0.485566139 -0.706894875
v -0.6444785 -0.481434345 -0.715442061
v -0.645711243 -0.478237778 -0.723659456
v -0.640902996 -0.482949018 -0.728761375
v -0.641831398 -0.480680704 -0.73664397
v -0.64201349 -0.480717242 -0.743662357
v -0.643338978 -0.477225125 -0.752034724
v -0.643859446 -0.476218611 -0.759468973
v -0.643837452 -0.476886719 -0.766263664
v -0.643719316 -0.47785157 -0.772944152
v -0.643601179 -0.47881642 -0.779624701
v -0.643483043 -0.47978127 -0.786305189
v -0.643364847 -0.48074612 -0.792985737
v -0.643274605 -0.481624961 -0.799700379
v -0.643156469 -0.482589841 -0.806381106
v -0.643010437 -0.483640671 -0.813027322
v -0.646536171 -0.48411417 -0.820071161
v -0.646477103 -0.484596729 -0.823412299
v -0.646155179 -0.486187518 -0.829840481
v -0.650605679 -0.483834535 -0.838043094
v -0.653841615 -0.485211253 -0.844731331
v -0.652369022 -0.490006536 -0.846302152
v -0.655601025 -0.491381526 -0.852982044
v -0.652924001 -0.510667861 -0.852221608
v -0.658063769 -0.516081274 -0.850311518
v -0.662703156 -0.523240566 -0.851186395
v -0.667743385 -0.518519938 -0.853322804
v -0.675204754 -0.516942799 -0.854319811
v -0.680708587 -0.521474719 -0.856287003
v -0.682516694 -0.52665478 -0.857804894
v -0.689103425 -0.527946949 -0.861117482
v -0.692367494 -0.528832257 -0.86443013
v -0.706566215 -0.508073211 -0.877054572
v -0.712082148 -0.512890995 -0.882433891
v -0.711240292 -0.515626252 -0.884805799
v -0.714461505 -0.516996682 -0.891463399
v -0.717556238 -0.518416524 -0.894564927
v -0.717438519 -0.519377887 -0.901221454
v -0.7173208 -0.52033931 -0.907878041
v -0.705681801 -0.544365108 -0.904329479
v -0.702249289 -0.544913948 -0.910940588
v -0.702508509 -0.54478699 -0.918026388
v -0.699133337 -0.544858456 -0.921333015
v -0.692383111 -0.545001268 -0.92794621
v -0.690003753 -0.542176187 -0.932535231
v -0.677031398 -0.560199618 -0.927699804
v -0.675619304 -0.554555714 -0.933532536
v -0.670225739 -0.550446808 -0.938511729
v -0.673469484 -0.520650506 -0.954966962
v -0.673420131 -0.521103024 -0.958308935
v -0.673302352 -0.522064745 -0.964967728
v -0.674778938 -0.518295169 -0.973763347
v -0.67466104 -0.519258201 -0.980431259
v -0.669376969 -0.52523303 -0.984628618
v -0.669519126 -0.525421381 -0.991639972
v -0.661894381 -0.527737975 -0.993752182
v -0.656825781 -0.532527089 -0.991368234
v -0.650070906 -0.531985819 -0.99124223
v -0.643932462 -0.52957499 -0.9919734
v -0.638686121 -0.524116218 -0.990553737
v -0.632011592 -0.523298919 -0.990553737
v -0.625395894 -0.522001028 -0.987226546
v -0.624457419 -0.503013611 -0.991946459
v -0.621102989 -0.502602816 -0.991946459
v -0.621199369 -0.501705348 -0.98522687
v -0.620141149 -0.504417896 -0.976880431
v -0.613182425 -0.514732242 -0.964955032
v -0.61243844 -0.516474545 -0.957088828
v -0.613417983 -0.512808859 -0.951637626
v -0.613810956 -0.510983229 -0.945361137
v -0.610363543 -0.510320544 -0.938388884
v -0.607082784 -0.509430707 -0.935059369
v -0.600521326 -0.507651091 -0.928400338
v -0.596186578 -0.521144629 -0.918976903
v -0.594018757 -0.505390584 -0.918411851
v -0.593542218 -0.506624043 -0.914340198
v -0.587882698 -0.501948774 -0.908932209
v -0.587822855 -0.501850426 -0.905437112
v -0.58460027 -0.50047946 -0.898776531
v -0.581495702 -0.498725384 -0.892279029
v -0.580085814 -0.491739631 -0.891535759
v -0.578973293 -0.494783491 -0.88316983
v -0.576975167 -0.489402294 -0.878189743
v -0.573746562 -0.488028705 -0.871516764
v -0.573805571 -0.487546831 -0.868180275
v -0.573604882 -0.48762852 -0.861073196
v -0.570694983 -0.485209495 -0.854834259
v -0.56959331 -0.488260895 -0.846510708
v -0.567584336 -0.482872158 -0.841488183
v -0.566486299 -0.48592627 -0.83318007
v -0.56441474 -0.481016695 -0.831478715
v -0.564216852 -0.481100351 -0.824382663
v -0.563438237 -0.483110309 -0.816516817
v -0.561422169 -0.477715582 -0.811459661
v -0.560331225 -0.480775654 -0.803186238
v -0.560449064 -0.47981301 -0.796520948
v -0.560128808 -0.480309188 -0.789281309
v -0.557283103 -0.477959692 -0.786522985
v -0.557401001 -0.476997048 -0.779857695
v -0.557081997 -0.477494419 -0.772625029
v -0.557199836 -0.476532161 -0.765962541
v -0.557317674 -0.475569904 -0.759300053
v -0.557435513 -0.474607676 -0.752637506
v -0.555888832 -0.479211688 -0.743857026
v -0.556006432 -0.47825098 -0.737205148
v -0.556124091 -0.477290273 -0.730553269
v -0.556241751 -0.476329565 -0.723901391
v -0.556359351 -0.475368857 -0.717249513
v -0.55647701 -0.47440815 -0.710597694
v -0.55659467 -0.473447442 -0.703945816
v -0.556712329 -0.472486734 -0.697293937
v -0.556829929 -0.471526027 -0.690642059
v -0.559466898 -0.473699957 -0.683002114
v -0.559584439 -0.472739995 -0.676355422
v -0.559924185 -0.471038193 -0.669974685
v -0.560220838 -0.469479948 -0.663539767
v -0.560338438 -0.468519628 -0.656890512
v -0.560456038 -0.467559308 -0.650241315
v -0.560989499 -0.465209544 -0.64407897
v -0.561107159 -0.464248836 -0.637427092
v -0.561224759 -0.463288128 -0.630775273
v -0.563858271 -0.465468526 -0.623182058
v -0.564198971 -0.463765144 -0.616789997
v -0.564316511 -0.462805003 -0.610141933
v -0.564434111 -0.461844832 -0.603493869
v -0.564731538 -0.460285038 -0.597047508
v -0.566108227 -0.466631413 -0.588090479
v -0.566166878 -0.466152221 -0.584772468
v -0.566284239 -0.465193778 -0.578136325
v -0.568073392 -0.458677024 -0.573332071
v -0.568414927 -0.456972212 -0.5669294
v -0.569964468 -0.462725997 -0.558227956
v -0.57008183 -0.461767584 -0.551591873
v -0.5706622 -0.459273845 -0.545449615
v -0.570779622 -0.458314985 -0.538810551
v -0.570897043 -0.457356125 -0.532171547
v -0.569972038 -0.471547097 -0.52433449
v -0.570088983 -0.470592141 -0.517722547
v -0.569382548 -0.472360641 -0.510258675
v -0.564168632 -0.489042252 -0.498170763
v -0.563319087 -0.491288364 -0.49061051
v -0.563435256 -0.490339845 -0.484043151
v -0.563551426 -0.489391357 -0.477475762
v -0.563667536 -0.488442838 -0.470908374
v -0.560490072 -0.487091005 -0.464341015
v -0.560606182 -0.486142486 -0.457773626
v -0.560722351 -0.485193998 -0.451206267
v -0.560838521 -0.484245479 -0.444638878
v -0.557602882 -0.48336789 -0.441355199
v -0.557719052 -0.482419401 -0.43478781
v -0.557835221 -0.481470883 -0.428220421
v -0.567755103 -0.436280191 -0.434278905
v -0.530640781 -0.537763417 -0.401460379
v -0.525580347 -0.543255687 -0.396415144
v -0.518761635 -0.543672085 -0.396069825
v -0.512300134 -0.542880833 -0.396069825
v -0.505838633 -0.542089581 -0.396069825
v -0.497731239 -0.547014475 -0.394436866
v -0.490482599 -0.549014747 -0.393639952
v -0.484037161 -0.548225522 -0.393639952
v -0.47753492 -0.547900259 -0.396852911
v -0.469508469 -0.55275476 -0.395236582
v -0.462513894 -0.553979158 -0.394660383
v -0.459799588 -0.552036047 -0.398444235
v -0.451365083 -0.558512509 -0.396357834
v -0.444887429 -0.558188498 -0.399558634
v -0.437393278 -0.561356187 -0.398419678
v -0.431810558 -0.557739317 -0.4025684
v -0.421472758 -0.571599007 -0.398337215
v -0.419983149 -0.565054655 -0.403440416
v -0.41182813 -0.570885062 -0.40152362
v -0.405379623 -0.570562541 -0.404710025
v -0.402127177 -0.570631325 -0.407896429
v -0.394432366 -0.574862838 -0.406434417
v -0.384847492 -0.586740792 -0.406047821
v -0.384836644 -0.574255764 -0.41290161
v -0.375195771 -0.586488366 -0.412388265
v -0.367733061 -0.590068758 -0.411105484
v -0.361325562 -0.589748263 -0.414271623
v -0.35812363 -0.58969754 -0.417473018
v -0.3523148 -0.613381982 -0.417017996
v -0.344706833 -0.617842853 -0.415458351
v -0.341166407 -0.619038343 -0.414987177
v -0.334493488 -0.619803965 -0.414529413
v -0.32769981 -0.621540129 -0.420323491
v -0.323598683 -0.625322342 -0.422341824
v -0.320157051 -0.626626194 -0.428368568
v -0.313314587 -0.628419042 -0.430859327
v -0.310171545 -0.628052533 -0.430853903
v -0.302491099 -0.633428335 -0.432249963
v -0.298578709 -0.636565566 -0.434436351
v -0.291649014 -0.638658524 -0.433563173
v -0.285393357 -0.637892485 -0.433563173
v -0.277543753 -0.644268215 -0.434632748
v -0.272587478 -0.638069272 -0.439551711
v -0.272166342 -0.625978231 -0.4464145
v -0.513889015 0.437892258 -0.782748818
v -0.513742983 0.436699659 -0.791006207
v -0.526505172 0.47342664 -0.811328053
v -0.52635783 0.47222361 -0.819657624
v -0.53302151 0.48200053 -0.83164072
v -0.532947719 0.48139745 -0.835816324
v -0.552789152 0.529688835 -0.85596478
v -0.561259925 0.528651536 -0.85596478
v -0.569288552 0.525440872 -0.859685302
v -0.579454601 0.531274796 -0.866316259
v -0.579123318 0.529581726 -0.870194674
v -0.584039807 0.513037622 -0.874003649
v -0.588191748 0.511911511 -0.87821734
v -0.597798467 0.515043736 -0.888412178
v -0.597873688 0.515053749 -0.892834842
v -0.597574651 0.51321584 -0.901068389
v -0.598574519 0.516744792 -0.911087811
v -0.591533124 0.505027533 -0.915842235
v -0.58539176 0.496971637 -0.921788156
v -0.58655417 0.5015136 -0.927734911
v -0.575222135 0.490143001 -0.927946687
v -0.570935488 0.490052283 -0.932146311
v -0.557204127 0.46824494 -0.928767979
v -0.555282831 0.496666253 -0.942515314
v -0.558318675 0.509093285 -0.955614626
v -0.558169484 0.507874966 -0.964050472
v -0.550523162 0.493127733 -0.96760273
v -0.55324471 0.504543304 -0.975999236
v -0.553095579 0.503325462 -0.984431267
v -0.547734559 0.498381555 -0.991366923
v -0.541453779 0.489700347 -0.992541969
v -0.531709492 0.485001445 -0.990516067
v -0.523973882 0.488782376 -0.99590379
v -0.516262114 0.493280172 -0.99271214
v -0.507902205 0.494920194 -0.988507807
v -0.504221141 0.497852176 -0.989358485
v -0.503178239 0.513290405 -0.985744655
v -0.502609968 0.511260808 -0.976174533
v -0.500448108 0.50201416 -0.964118779
v -0.499720305 0.499259561 -0.954339087
v -0.495653301 0.500989795 -0.945933342
v -0.495126784 0.49886331 -0.940797746
v -0.486849219 0.501108408 -0.932397127
v -0.481342793 0.495924324 -0.926064432
v -0.477284044 0.49765107 -0.917675674
v -0.473151118 0.498772025 -0.913481295
v -0.467367411 0.492433995 -0.902406394
v -0.460057408 0.478851676 -0.888965487
v -0.460131198 0.479454279 -0.884793103
v -0.455451429 0.47814092 -0.875453889
v -0.451416701 0.479857445 -0.867114842
v -0.450517595 0.476098865 -0.857167184
v -0.446487367 0.477813452 -0.848837435
v -0.446561038 0.478414983 -0.844672561
v -0.446708351 0.479618013 -0.836342752
v -0.442678124 0.48133263 -0.828013003
v -0.442273587 0.479893178 -0.818850279
v -0.202854723 -0.650877059 -0.455832064
v -0.198802605 -0.655047834 -0.454406649
v -0.192007884 -0.657128692 -0.45351699
v -0.185723975 -0.656747639 -0.453398347
v -0.179517731 -0.65598768 -0.453398347
v -0.173311487 -0.655227661 -0.453398347
v -0.165120959 -0.664357901 -0.447081268
v -0.158934116 -0.663600266 -0.447081268
v -0.152747288 -0.662842691 -0.447081268
v -0.146560445 -0.662085056 -0.447081268
v -0.139612451 -0.665185213 -0.442660838
v -0.133433685 -0.664428592 -0.442660838
v -0.125327036 -0.674052358 -0.439438552
v -0.122193091 -0.674118698 -0.442508876
v -0.115364984 -0.67716831 -0.444529861
v -0.112234235 -0.67723453 -0.447597057
v -0.105972745 -0.677367091 -0.453731418
v -0.102182075 -0.680978835 -0.452474833
v -0.0959281921 -0.681111157 -0.458601743
v -0.0928012431 -0.681177318 -0.461665213
v -0.0862817615 -0.682570398 -0.460983336
v -0.0804639608 -0.680068552 -0.464743376
v -0.0768286809 -0.683099687 -0.466859132
v -0.070101738 -0.685932457 -0.468912512
v -0.0640295371 -0.684692562 -0.465869755
v -0.0610164851 -0.683875382 -0.462811917
v -0.054419376 -0.685933828 -0.461917311
v -0.0502264909 -0.673292696 -0.465702534
v -0.0424975231 -0.6823439 -0.462582111
v -0.036364615 -0.681592882 -0.462582111
v -0.0302857757 -0.680400312 -0.459524959
v -0.0243534334 -0.678450167 -0.46310395
v -0.0212854464 -0.678074479 -0.46310395
v -0.0141998203 -0.683556855 -0.461122006
v -0.00807549804 -0.682806909 -0.461122006
v -0.00594550651 -0.676196039 -0.46310395
v 0.00171057787 -0.685894728 -0.46616286
v 0.00788261276 -0.685586035 -0.469212621
v 0.0108016906 -0.684176564 -0.46635282
v 0.0167324338 -0.682044923 -0.463602483
v 0.0197929181 -0.681670129 -0.463602483
v 0.0260969289 -0.682228208 -0.463186085
v 0.0321615115 -0.681038439 -0.460136086
v 0.0384242721 -0.681259573 -0.453452229
v 0.0410359092 -0.677546263 -0.451315194
v 0.0473542064 -0.678244472 -0.447672576
v 0.0503725372 -0.677566707 -0.447767586
v 0.0564361289 -0.676377118 -0.444718063
v 0.0593312643 -0.6747154 -0.441932112
v 0.0653964132 -0.673525512 -0.438881844
v 0.0703793243 -0.663741708 -0.44168371
v 0.0766510218 -0.664091527 -0.444537282
v 0.0827857181 -0.66334033 -0.444537282
v 0.0859071463 -0.663406372 -0.447595328
v 0.0920418352 -0.662655175 -0.447595328
v 0.0978271142 -0.658904552 -0.451729447
v 0.104062341 -0.658968449 -0.451474369
v 0.110109299 -0.657400548 -0.451729447
v 0.116250396 -0.656648517 -0.451729447
v 0.11937508 -0.656714678 -0.454790711
v 0.125516176 -0.655962646 -0.454790711
v 0.131657273 -0.655210674 -0.454790711
v 0.13756986 -0.652282536 -0.45547232
v 0.143714994 -0.651530087 -0.45547232
v 0.149860129 -0.650777578 -0.45547232
v 0.156005263 -0.65002507 -0.45547232
v 0.161767781 -0.645461202 -0.453460068
v 0.167773068 -0.643179834 -0.453936666
v 0.173927292 -0.642426193 -0.453936666
v 0.180147052 -0.642533422 -0.450463653
v 0.186181486 -0.640475929 -0.450868875
v 0.189340577 -0.64118576 -0.447327316
v 0.19547233 -0.640207231 -0.447397053
v 0.200431257 -0.62566483 -0.448449343
v 0.20655334 -0.624463797 -0.445370406
v 0.209641606 -0.624085605 -0.445370406
v 0.215763688 -0.622884572 -0.442291498
v 0.222728014 -0.63237381 -0.435946941
v 0.229295954 -0.636965632 -0.434314281
v 0.235141635 -0.631919861 -0.438828915
v 0.238449186 -0.634931803 -0.434590489
v 0.241093397 -0.628977358 -0.433088273
v 0.247211561 -0.627982318 -0.429957211
v 0.253361493 -0.627117157 -0.429990917
v 0.25933975 -0.624066174 -0.427481443
v 0.262366086 -0.623245358 -0.424410105
v 0.267315149 -0.604188383 -0.426699311
v 0.270703703 -0.608777285 -0.421991855
v 0.277581185 -0.619623184 -0.415316999
v 0.283645421 -0.617244005 -0.415801257
v 0.28644982 -0.611701071 -0.420551598
v 0.289428622 -0.610433757 -0.414394915
v 0.294691265 -0.594043612 -0.415812939
v 0.300070554 -0.578761041 -0.416873097
v 0.303049594 -0.575856209 -0.41761741
v 0.309323013 -0.576463163 -0.413975149
v 0.315462559 -0.573880613 -0.414509863
v 0.318629712 -0.575190127 -0.410775542
v 0.324758559 -0.572286785 -0.411402315
v 0.330937564 -0.571074545 -0.408294797
v 0.337039262 -0.567276418 -0.409180105
v 0.340233535 -0.569480717 -0.405187249
v 0.346343577 -0.565681159 -0.406069785
v 0.352602303 -0.566371262 -0.402408153
v 0.358767658 -0.563703835 -0.402959466
v 0.364964545 -0.561731398 -0.403309315
v 0.37119171 -0.561726451 -0.399849147
v 0.377382904 -0.559432924 -0.40029031
v 0.380500406 -0.560273647 -0.396697849
v 0.386691421 -0.55783689 -0.39717859
v 0.392769128 -0.550979137 -0.398929358
v 0.373662412 0.459260941 -0.693121195
v 0.373805344 0.458093733 -0.701202869
v 0.373948276 0.456926525 -0.709284544
v 0.374091208 0.455759317 -0.717366219
v 0.37423414 0.454592109 -0.725447834
v 0.374358356 0.454172075 -0.733752012
v 0.374462813 0.454544038 -0.742296338
v 0.374605805 0.453376234 -0.750382185
v 0.37473774 0.452652842 -0.758602917
v 0.374848455 0.452779353 -0.767084897
v 0.374973178 0.452347994 -0.7754004
v 0.374976993 0.456776023 -0.785221398
v 0.374967933 0.461734384 -0.795228839
v 0.379477531 0.448603034 -0.79944104
v 0.37939781 0.454348624 -0.80547303
v 0.379336327 0.461757183 -0.816283703
v 0.379423827 0.462934762 -0.825146973
v 0.383655459 0.461592793 -0.833054185
v 0.383425742 0.476746619 -0.846424818
v 0.387816787 0.468778372 -0.85221529
v 0.392230392 0.459072053 -0.857412636
v 0.392112136 0.467558384 -0.864433408
v 0.39633733 0.466839999 -0.872555494
v 0.400560796 0.466207564 -0.880705774
v 0.400559366 0.469475538 -0.886050463
v 0.404615104 0.478326887 -0.897366285
v 0.408771783 0.482344717 -0.907099485
v 0.413013279 0.477800965 -0.909687936
v 0.417180806 0.481703907 -0.919395983
v 0.421275496 0.486845672 -0.925251901
v 0.429469079 0.49915871 -0.937683702
v 0.433655202 0.499070138 -0.941784859
v 0.437881529 0.50145632 -0.95104003
v 0.438026696 0.500270844 -0.959247887
v 0.438171864 0.499085426 -0.967455745
v 0.438247114 0.504594266 -0.978000641
v 0.438380003 0.504608333 -0.98664254
v 0.442692608 0.499325663 -0.993241429
v 0.446881741 0.491665512 -0.9903602
v 0.455224067 0.485182822 -0.992019415
v 0.463436753 0.48585391 -0.9919011
v 0.471577466 0.486569077 -0.987497509
v 0.475609511 0.487662673 -0.98340553
v 0.483811617 0.517187357 -0.993432045
v 0.492073089 0.518199027 -0.993432045
v 0.491927415 0.519388616 -0.985195637
v 0.496748596 -0.485324323 -0.633718252
v 0.496805102 -0.485785604 -0.636911929
v 0.496918052 -0.486708105 -0.643299341
v 0.497031033 -0.487630635 -0.649686754
v 0.497143507 -0.488687456 -0.656026304
v 0.497256488 -0.489609927 -0.662413418
v 0.497369438 -0.490532398 -0.668800592
v 0.494324178 -0.475245863 -0.681198955
v 0.494437695 -0.476172745 -0.687616706
v 0.494551182 -0.477099657 -0.694034398
v 0.494664699 -0.478026539 -0.700452149
v 0.494778216 -0.478947431 -0.706872106
v 0.494891733 -0.479874343 -0.713289797
v 0.49500522 -0.480801225 -0.719707549
v 0.495118737 -0.481728137 -0.7261253
v 0.495232224 -0.482655019 -0.732543051
v 0.495345742 -0.48358193 -0.738960803
v 0.495459229 -0.484508812 -0.745378554
v 0.495575517 -0.484529495 -0.7521438
v 0.495696843 -0.482956052 -0.759526968
v 0.495813757 -0.482842535 -0.766354382
v 0.495941877 -0.479218513 -0.774552643
v 0.496058047 -0.479412466 -0.781274736
v 0.496176273 -0.478986502 -0.788243473
v 0.499491096 -0.486160249 -0.792058229
v 0.499552637 -0.485508353 -0.795713246
v 0.499666303 -0.486436754 -0.802141309
v 0.499794722 -0.483934492 -0.809941709
v 0.499918789 -0.482492685 -0.817329288
v 0.503231168 -0.488827109 -0.821425378
v 0.503359079 -0.487077981 -0.828940153
v 0.503494561 -0.483953834 -0.837026179
v 0.506803989 -0.489951015 -0.841228366
v 0.506869793 -0.489005655 -0.845022559
v 0.506994009 -0.48829338 -0.852132976
v 0.510298848 -0.493839204 -0.856491148
v 0.510437369 -0.491397887 -0.86432153
v 0.513735771 -0.496922582 -0.868665934
v 0.513849378 -0.497850329 -0.875089645
v 0.517184615 -0.498383582 -0.881513417
v 0.517241418 -0.498847455 -0.884725273
v 0.520511329 -0.505711794 -0.888456404
v 0.520624697 -0.506637871 -0.894868374
v 0.523864567 -0.50958997 -0.896839917
v 0.527190924 -0.510121822 -0.903246522
v 0.527334154 -0.508615553 -0.910703838
v 0.530633211 -0.511378288 -0.916146874
v 0.533790112 -0.51939404 -0.915893912
v 0.537036836 -0.524673104 -0.920211613
v 0.540351152 -0.52520299 -0.926595032
v 0.543495953 -0.531879544 -0.926881015
v 0.550124705 -0.525409818 -0.936170161
v 0.553433537 -0.522921562 -0.940493584
v 0.553858817 -0.508222044 -0.953826487
v 0.554013908 -0.50707233 -0.961170912
v 0.554127455 -0.507999718 -0.967591941
v 0.554276347 -0.507170022 -0.97480458
v 0.557427645 -0.513291657 -0.975284576
v 0.557567775 -0.512952745 -0.982271254
v 0.557670355 -0.514392793 -0.988452852
v 0.564164758 -0.516833127 -0.993814766
v 0.567183971 -0.524602115 -0.990082681
v 0.573589325 -0.526817799 -0.992116868
v 0.579854965 -0.53372699 -0.991992235
v 0.58624953 -0.53299737 -0.991967618
v 0.592645586 -0.532214165 -0.991967618
v 0.595853209 -0.529323459 -0.989712417
v 0.598996699 -0.528470874 -0.986522198
v 0.605374098 -0.524189711 -0.981312752
v 0.605227351 -0.526304901 -0.97695148
v 0.608314455 -0.524991512 -0.970570982
v 0.608201563 -0.524070024 -0.964190483
v 0.611661732 -0.512615442 -0.962348998
v 0.614035845 -0.530466795 -0.947408974
v 0.616256714 -0.55332166 -0.933689713
v 0.619116187 -0.558913708 -0.927675366
v 0.626506209 -0.532417953 -0.939079523
v 0.631973565 -0.549152076 -0.924589515
v 0.635087967 -0.548307419 -0.921428859
v 0.641331673 -0.54796654 -0.917876422
v 0.64444524 -0.547122061 -0.914716542
v 0.651124716 -0.536119282 -0.91245842
v 0.654246807 -0.535272479 -0.909289956
v 0.654134691 -0.53435725 -0.902953029
v 0.657200754 -0.533052862 -0.896616101
v 0.661184907 -0.515366197 -0.900689423
v 0.66426599 -0.514055371 -0.894321322
v 0.660959661 -0.513526738 -0.887953222
v 0.657709599 -0.513457954 -0.884769201
v 0.654403269 -0.51292932 -0.87840116
v 0.651153266 -0.512860537 -0.87521708
v 0.643871963 -0.529575765 -0.861762881
v 0.640637815 -0.529507339 -0.858594418
v 0.637403667 -0.529438913 -0.855425954
v 0.630991459 -0.529759645 -0.85225749
v 0.62463522 -0.530537963 -0.85225749
v 0.624691248 -0.530995607 -0.855425954
v 0.61897701 -0.515287995 -0.862331748
v 0.61562717 -0.517855287 -0.858046293
v 0.6124717 -0.515310347 -0.855897665
v 0.606122375 -0.512976527 -0.85381943
v 0.602978468 -0.509749889 -0.851944566
v 0.597067177 -0.491101533 -0.8532179
v 0.597239256 -0.48356244 -0.852929771
v 0.593716085 -0.488997281 -0.844054937
v 0.593789637 -0.482101083 -0.840079427
v 0.590502977 -0.48227948 -0.836765885
v 0.590215683 -0.487075239 -0.828019559
v 0.586852849 -0.48765251 -0.821157455
v 0.586698413 -0.488124877 -0.814183533
v 0.586369634 -0.494553149 -0.804833949
v 0.58615768 -0.497006357 -0.797094524
v 0.586044669 -0.496083498 -0.790704787
v 0.592340827 -0.494375825 -0.784315109
v 0.592284322 -0.493914396 -0.781120241
v 0.595375836 -0.492599159 -0.774730563
v 0.595262825 -0.491676301 -0.768340826
v 0.595149875 -0.490753442 -0.761951149
v 0.595036864 -0.489830613 -0.755561411
v 0.594923854 -0.488907754 -0.749171734
v 0.598071873 -0.488053918 -0.745976865
v 0.597958863 -0.487131089 -0.739587128
v 0.597845852 -0.48620823 -0.733197451
v 0.597732842 -0.485285372 -0.726807714
v 0.597619891 -0.484362543 -0.720418036
v 0.597472847 -0.484489053 -0.713637531
v 0.597359896 -0.483566463 -0.707249761
v 0.597246885 -0.482643902 -0.70086199
v 0.593930364 -0.48211363 -0.69447422
v 0.593817353 -0.481191069 -0.68808645
v 0.593704402 -0.480268478 -0.68169868
v 0.593463123 -0.483453304 -0.67382884
v 0.593118429 -0.489962548 -0.66478169
v 0.593005836 -0.489043057 -0.658415139
v 0.596086204 -0.487732559 -0.652048528
v 0.595973611 -0.486813039 -0.645681918
v 0.595751107 -0.489332765 -0.638107598
v 0.598941386 -0.48458302 -0.632948697
v 0.598457694 -0.497150511 -0.625229061
v 0.601559579 -0.494862318 -0.619226575
v 0.601598024 -0.489467919 -0.61442399
v 0.604414225 -0.4956204 -0.605517089
v 0.604286849 -0.497230351 -0.601641595
v 0.604211092 -0.495262086 -0.595663846
v 0.607313156 -0.492942244 -0.589669347
v 0.610364795 -0.494067401 -0.585836112
v 0.610252798 -0.49315238 -0.579500616
v 0.610078633 -0.493955433 -0.57259351
v 0.613021255 -0.495927542 -0.565177739
v 0.613093972 -0.490018249 -0.560494184
v 0.615887105 -0.495910257 -0.551806331
v 0.616030991 -0.488230377 -0.54768306
v 0.615827024 -0.489749879 -0.540561855
v 0.619070649 -0.483764589 -0.53573525
v 0.622097492 -0.487224579 -0.534499288
v 0.625217021 -0.486378461 -0.531333387
v 0.62528348 -0.481044233 -0.526407957
v 0.625171363 -0.480128586 -0.520068169
v 0.625171363 -0.480128586 -0.520068169
v 0.62528348 -0.481044233 -0.526407957
v 0.618751466 -0.490125179 -0.530382812
v 0.615800917 -0.482670099 -0.529577911
v 0.615688801 -0.481754452 -0.523238063
v 0.608625233 -0.498184472 -0.511671126
v 0.611733973 -0.497336209 -0.508517921
v 0.61495477 -0.493504196 -0.506300211
v 0.614587843 -0.499401242 -0.497863173
v 0.617486835 -0.502025485 -0.490345985
v 0.620409787 -0.503866434 -0.483085036
v 0.620084107 -0.508431792 -0.475120991
v 0.617032826 -0.502435863 -0.470505387
v 0.617397547 -0.490981698 -0.470693976
v 0.620379567 -0.491496295 -0.463838071
v 0.623486638 -0.490653574 -0.460684806
v 0.62623018 -0.49689424 -0.452130169
v 0.62624681 -0.492849261 -0.446766585
v 0.623057485 -0.492148727 -0.443804175
v 0.619506061 -0.498838186 -0.435387403
v 0.622881532 -0.489150077 -0.431548566
v 0.622770071 -0.488239914 -0.425246745
v 0.622894943 -0.481375813 -0.420658618
v 0.623003006 -0.474921227 -0.415930867
v 0.626195729 -0.470321149 -0.410545021
v 0.622965813 -0.470252812 -0.4073807
v 0.622876167 -0.468775272 -0.401210487
v 0.619734347 -0.466412812 -0.398688674
v 0.618956327 -0.482766092 -0.387547106
v 0.618952036 -0.479073107 -0.382014066
v 0.619633377 -0.457559139 -0.381365001
v 0.619808495 -0.449167311 -0.377059102
v 0.620057106 -0.438846409 -0.373247594
v 0.62004745 -0.435238957 -0.367594808
v 0.619263113 -0.451842636 -0.35653317
v 0.619276166 -0.447649956 -0.351053387
v 0.618036985 -0.47620663 -0.336936384
v 0.617903888 -0.475863427 -0.330486894
v 0.619859338 -0.420772076 -0.338252604
v 0.619746149 -0.419848025 -0.331854433
v 0.618880451 -0.438695788 -0.320397466
v 0.61951983 -0.417999864 -0.319058061
v 0.625849009 -0.247451246 -0.355424374
v 0.625933588 -0.241127327 -0.350060016
v 0.626847267 -0.212913886 -0.350112319
v 0.62734133 -0.19572565 -0.347345084
v 0.624550521 -0.265374422 -0.323274046
v 0.623882353 -0.189083785 -0.334997267
v 0.624572158 -0.166104808 -0.333494931
v 0.62445116 -0.165116712 -0.326653421
v 0.617025673 -0.272604465 -0.294178814
v 0.616908133 -0.271644503 -0.287532091
v 0.616927028 -0.266868889 -0.281776309
v 0.617007792 -0.26035285 -0.276409447
v 0.617032588 -0.255392402 -0.270664454
v 0.616574049 -0.263986021 -0.261815518
v 0.61640662 -0.264422268 -0.254846066
v 0.61628896 -0.263461679 -0.248194978
v 0.616162956 -0.262737393 -0.241491362
v 0.616045356 -0.261776835 -0.234840706
v 0.615900218 -0.261591464 -0.228020579
v 0.615762472 -0.261200964 -0.221247792
v 0.615644872 -0.260240763 -0.21459955
v 0.615574837 -0.257934719 -0.20823808
v 0.615514934 -0.255337358 -0.201933131
v 0.617389619 -0.197823122 -0.207119629
v 0.617270172 -0.196847498 -0.20036447
v 0.617800355 -0.177388549 -0.197410673
v 0.613643408 -0.195311099 -0.186854169
v 0.613583684 -0.19482328 -0.183476597
v 0.613465428 -0.19381167 -0.176728681
v 0.617706537 -0.164633632 -0.175508767
v 0.617586195 -0.163650796 -0.16870372
v 0.617465854 -0.16266796 -0.161898673
v 0.617345452 -0.161685124 -0.155093625
v 0.621579945 -0.133926466 -0.153344244
v 0.624955893 -0.13301082 -0.149918124
v 0.624592543 -0.138642147 -0.141814306
v 0.624471605 -0.137654215 -0.134973913
v 0.621243536 -0.130194873 -0.132929549
v 0.617707193 -0.128988966 -0.126193419
v 0.617613971 -0.127190441 -0.119486324
v 0.61747098 -0.126828477 -0.11251653
v 0.610861421 -0.216868281 -0.0894437656
v 0.610804677 -0.214068547 -0.0830754489
v 0.607327819 -0.215810567 -0.0794074982
v 0.607511938 -0.205584466 -0.0743294656
v 0.607900679 -0.189066619 -0.0703033879
v 0.608095467 -0.178459436 -0.06521108
v 0.604370773 -0.184775025 -0.0572947189
v 0.605210304 -0.153478995 -0.0556197613
v 0.605216444 -0.148495451 -0.0494847484
v 0.601388276 -0.157579273 -0.0411037579
v 0.601605535 -0.148036122 -0.0391822793
v 0.602597237 -0.110700637 -0.0382231027
v 0.599036217 -0.109976999 -0.0313800685
v 0.599166214 -0.100493923 -0.0258463956
v 0.595676124 -0.0970110074 -0.0194157101
v 0.598804653 -0.102504976 -0.0114669669
v 0.595620811 -0.0910701975 -0.0097623514
v 0.592012823 -0.0941895694 -0.00582994195
v 0.588462651 -0.0953699872 -0.00219559786
v 0.588581681 -0.0853781477 0.00335226674
v 0.584808707 -0.0920925438 0.0113287373
v 0.588409245 -0.0834804997 0.0136496089
v 0.591616035 -0.0923349857 0.015006247
v 0.58834821 -0.082981877 0.0171020068
v 0.581283808 -0.0864473432 0.0210044812
v 0.580970049 -0.0931637064 0.0290037543
v 0.577882648 -0.0722147897 0.033019688
v 0.57783556 -0.0711243302 0.0363979489
v 0.574241221 -0.0705496371 0.0433207937
v 0.574334323 -0.0601563007 0.0489633232
v 0.574211597 -0.0591540374 0.0559028834
v 0.574088812 -0.0581517778 0.0628424436
v 0.570547163 -0.0580768287 0.0663122237
v 0.570424438 -0.0570745654 0.0732517838
v 0.566972911 -0.0492821895 0.0792664438
v 0.567310035 -0.0263276082 0.0834451988
v 0.567267716 -0.0214308817 0.0899524912
v 0.563348234 -0.0351481736 0.0987059772
v 0.563228786 -0.0339474455 0.105655462
v 0.56319654 -0.0283682775 0.112084009
v 0.563305378 -0.0156794973 0.117694877
v 0.563188732 -0.014305247 0.12465506
v 0.563065469 -0.0132665755 0.13165471
v 0.562942028 -0.0122345937 0.138655216
v 0.56281817 -0.0112231933 0.145658061
v 0.562686205 -0.0106230201 0.152705446
v 0.562526643 -0.0114276297 0.159900978
v 0.562389076 -0.0111203426 0.166973546
v 0.562195063 -0.0136930272 0.17433998
v 0.562071443 -0.0126832938 0.181331277
v 0.561924875 -0.0128464736 0.188439071
v 0.561781585 -0.0128476201 0.195526853
v 0.561611593 -0.0142229022 0.202742562
v 0.561467588 -0.0142712733 0.209825054
v 0.561332762 -0.0138487145 0.216860369
v 0.561217189 -0.0124314083 0.223803699
v 0.561133921 -0.00934321154 0.230600521
v 0.561010361 -0.00833442993 0.237585232
v 0.56088686 -0.00732564833 0.244569942
v 0.560776711 -0.00561981555 0.251496643
v 0.560701549 -0.00208520237 0.258276999
v 0.559813261 -0.0410543568 0.268450499
v 0.559488416 -0.0506596863 0.276195705
v 0.55902946 -0.0673421398 0.284441262
v 0.558728337 -0.0757950097 0.292012602
v 0.562062204 -0.0734750032 0.298799902
v 0.561958134 -0.0751721188 0.302384228
v 0.56179893 -0.0761022195 0.309369147
v 0.561677814 -0.0751132444 0.316216707
v 0.565204024 -0.0633688048 0.322379738
v 0.561699986 -0.0632946566 0.325812608
v 0.558455467 -0.0456925221 0.33159548
v 0.55119729 -0.0625181049 0.336076528
v 0.547682583 -0.0630754158 0.339548945
v 0.542800188 0.0854723901 0.337501854
v 0.54297781 0.102810659 0.34006995
v 0.543117642 0.122510962 0.346155345
v 0.543170691 0.136209995 0.352640808
v 0.539394379 0.134415314 0.359981596
v 0.535746753 0.142646909 0.366791755
v 0.532061398 0.142724901 0.370402306
v 0.524734199 0.140276581 0.374117702
v 0.521524131 0.193997383 0.375074118
v 0.514225006 0.198058143 0.374828905
v 0.507178545 0.266073048 0.375167161
v 0.499536783 0.214495957 0.377628833
v 0.492165744 0.215383574 0.37754181
v 0.484787852 0.246888444 0.37596643
v 0.477337509 0.254791349 0.375537932
v 0.469865113 0.260121435 0.375234365
v 0.464927614 0.516393006 0.366720855
v 0.460887223 0.506563485 0.375093162
v 0.460645348 0.526721656 0.382124096
v 0.460505515 0.527863443 0.390029371
v 0.460361123 0.529848158 0.397900373
v 0.456261247 0.529661417 0.40583992
v 0.45611605 0.53164649 0.413713902
v 0.455976218 0.532788396 0.421620667
v 0.455821961 0.536162376 0.429452449
v 0.45567891 0.537785769 0.437347829
v 0.455538094 0.539069951 0.445255131
v 0.455387563 0.541831374 0.453121126
v 0.455247581 0.542974472 0.461035758
v 0.455106825 0.544235468 0.46894747
v 0.454959214 0.546530128 0.476835817
v 0.454819173 0.547673523 0.484752685
v 0.454679161 0.548816919 0.492669553
v 0.4545331 0.550860226 0.500570476
v 0.454393059 0.55200386 0.508488894
v 0.458216131 0.55501157 0.51638782
v 0.458146095 0.555583537 0.520348251
v 0.458005995 0.556727529 0.528269112
v 0.457865179 0.557995021 0.536188722
v 0.457723349 0.559429288 0.544107497
v 0.457581401 0.560878217 0.552027166
v 0.457441032 0.562063634 0.5599491
v 0.457300931 0.563207805 0.567871273
v 0.45716083 0.564351976 0.575793445
v 0.4570207 0.565496147 0.583715677
v 0.45688045 0.566665113 0.591637909
v 0.456738532 0.568101466 0.599561393
v 0.456595242 0.569754064 0.607487142
v 0.456452608 0.571293294 0.615413845
v 0.456308872 0.573009968 0.623343587
v 0.456160486 0.575452387 0.631283462
v 0.456017107 0.577095985 0.639217496
v 0.455876887 0.57824111 0.647145987
v 0.455736667 0.579386175 0.655074418
v 0.455596447 0.58053124 0.663002908
v 0.455452383 0.582272291 0.67094326
v 0.455300599 0.585191727 0.678911209
v 0.45516029 0.586337447 0.686843812
v 0.455015332 0.588193893 0.694794297
v 0.454871833 0.589822412 0.702741086
v 0.450758517 0.589626789 0.710651338
v 0.450610489 0.591798067 0.718615651
v 0.450450152 0.595591068 0.726635575
v 0.450305879 0.597245693 0.734592378
v 0.446266204 0.595815539 0.738510013
v 0.44611612 0.598101854 0.746489346
v 0.445954442 0.601743042 0.75452441
v 0.441853315 0.599907696 0.762369037
v 0.441677004 0.604847133 0.770466745
v 0.437638551 0.603279531 0.774369717
v 0.437452585 0.608810067 0.782507122
v 0.433329701 0.608990788 0.790436268
v 0.429227382 0.607555211 0.798286676
v 0.428893059 0.624572992 0.807017744
v 0.424922585 0.617075741 0.810623467
v 0.42468223 0.625810862 0.818979204
v 0.420482606 0.630703449 0.827180922
v 0.416409075 0.630789638 0.831171751
v 0.408321172 0.627416074 0.838953555
v 0.404250771 0.627502203 0.842941344
v 0.400036126 0.632155478 0.851152122
v 0.395930648 0.633871615 0.855240822
v 0.387686402 0.638467371 0.86349839
v 0.383704513 0.634130299 0.867218733
v 0.37915647 0.652334452 0.876329422
v 0.375060737 0.652621388 0.880350351
v 0.36687851 0.65279454 0.888366461
v 0.362858295 0.652302265 0.888366461
v 0.354676068 0.652475417 0.89638257
v 0.34656471 0.652069688 0.900390565
v 0.342544496 0.651577413 0.900390565
v 0.334433138 0.651171684 0.90439862
v 0.32632181 0.650765955 0.908406675
v 0.322301567 0.650273681 0.908406675
v 0.314190239 0.649867952 0.91241473
v 0.306078881 0.649462223 0.916422784
v 0.297967523 0.649056494 0.920430839
v 0.293947309 0.648564219 0.920430839
v 0.285813749 0.648672581 0.924477279
v 0.281334728 0.657548726 0.929149628
v 0.272827804 0.665413022 0.933797657
v 0.268721104 0.665499926 0.937821031
v 0.260578811 0.665092647 0.941844344
v 0.252577007 0.661890507 0.945646822
v 0.244439647 0.661483467 0.949667752
v 0.240335405 0.661570311 0.953688622
v 0.232198045 0.66116327 0.957709551
v 0.228093818 0.661250174 0.96173048
v 0.219956443 0.660843134 0.96575135
v 0.211890206 0.659855366 0.96575135
v 0.207785964 0.65994221 0.969772279
v 0.199719712 0.658954501 0.969772279
v 0.191582352 0.658547461 0.973793209
v 0.183444992 0.658140421 0.977814078
v 0.179411858 0.657646596 0.977814078
v 0.1708754 0.663115323 0.982345879
v 0.163421363 0.653193653 0.981569052
v 0.155590445 0.64898771 0.981289089
v 0.147556573 0.647708893 0.981263638
v 0.139167592 0.650812685 0.985587299
v 0.135137126 0.650319159 0.985587299
v 0.127357528 0.645708501 0.985268772
v 0.119148068 0.64635849 0.989377677
v 0.111460499 0.640827656 0.988974094
v 0.103007011 0.64472568 0.989407897
v 0.0984490365 0.650013924 0.997859001
v 0.0945668221 0.647486925 1.00164032
v 0.089936316 0.653505206 1.01017499
v 0.0816676319 0.654558897 1.01433504
v 0.0780140907 0.649729192 1.01392734
v 0.0702534616 0.645362735 1.01360941
v 0.0607384965 0.660041273 1.01905906
v 0.0606257357 0.661075115 1.02313268
v 0.0532240048 0.652592421 1.0263828
v 0.0482497439 0.661857247 1.03130198
v 0.0397228152 0.665426552 1.03174698
v 0.0322620384 0.658099174 1.02715456
v 0.0251811985 0.647036374 1.02618003
v 0.0251100659 0.64761728 1.03020191
v 0.0205250662 0.652468741 1.03469312
v 0.012198912 0.653687716 1.04285014
v 0.00826301984 0.65219295 1.04274988
v 7.77300229e-05 0.652236402 1.04285336
v -0.00813165586 0.652471006 1.04297614
v -0.0175062194 0.663313925 1.04814243
v -0.0242683142 0.650204599 1.04691625
v -0.0280401651 0.647363186 1.04271185
v -0.0363725238 0.648639917 1.04293919
v 0.471001923 0.472683787 -0.697766125
v 0.480353475 -0.525329292 -0.406466275
v 0.486747861 -0.521865785 -0.413769692
v 0.486803293 -0.522318542 -0.4169043
v 0.490045995 -0.530967593 -0.420799702
v 0.493293315 -0.531486809 -0.427054077
v 0.493348598 -0.531938434 -0.430181265
v 0.493503541 -0.515173554 -0.441678673
v 0.493634015 -0.508490264 -0.450232446
v 0.493745446 -0.509400249 -0.456532925
v 0.496989936 -0.517511308 -0.460538536
v 0.497101128 -0.518419266 -0.466825128
v 0.497212321 -0.519327223 -0.473111749
v 0.497323513 -0.520235181 -0.47939837
v 0.497464091 -0.513097346 -0.488179684
v 0.497575551 -0.514007449 -0.494481027
v 0.497694343 -0.512944698 -0.501401603
v 0.49780786 -0.513317764 -0.507876277
v 0.493565381 0.531642258 -0.84249115
v 0.489515126 0.530543685 -0.846601605
v 0.481263965 0.536081374 -0.848683
v 0.473118514 0.465858757 -0.822437644
v 0.469068646 0.441803604 -0.810754001
v 0.468838662 0.467116892 -0.810280025
v 0.468695313 0.468287468 -0.802174985
v 0.468551964 0.469458073 -0.794069946
v 0.468408614 0.470628679 -0.785964847
v 0.468265295 0.471799254 -0.777859807
v 0.464057088 0.472472101 -0.769754708
v 0.463913739 0.473642677 -0.761649668
v 0.463770419 0.474813282 -0.753544569
v 0.46367836 0.465267986 -0.742236316
v 0.467590392 0.466932297 -0.734150827
v 0.4674474 0.468100071 -0.726065338
v 0.467304409 0.469267815 -0.717979848
v 0.467161417 0.47043559 -0.709894359
v 0.471073419 0.4720999 -0.70180887
v -0.228062555 0.471915424 -0.0207476038
v -0.21647355 0.451001853 -0.0136885028
v -0.207888022 0.448539555 -0.0132242311
v -0.199850559 0.449523777 -0.0132242311
v -0.191742241 0.449929327 -0.017230792
v -0.18328394 0.44802627 -0.0209223628
v -0.179267317 0.448518127 -0.0209223628
v -0.171172753 0.448885053 -0.0290059298
v -0.175990492 0.453634173 -0.0338208862
v -0.180052102 0.453293175 -0.0379335284
v -0.175321013 0.448846936 -0.0454186462
v -0.167776346 0.453275383 -0.0418152064
v -0.163754091 0.453767926 -0.0418152064
v -0.159607396 0.45359531 -0.0335413665
v -0.150939181 0.450231194 -0.0329364687
v -0.146851733 0.450144678 -0.036940936
v -0.138581246 0.449373305 -0.0407795981
v -0.130560517 0.450360417 -0.0448655039
v -0.126772478 0.452429712 -0.0491770767
v -0.118985362 0.455173641 -0.0535187609
v -0.110290073 0.451304436 -0.0528219044
v -0.106853925 0.456071645 -0.0575267673
v -0.0981719717 0.452201456 -0.0568255074
v -0.0907023028 0.457461923 -0.0615347736
v -0.0820358768 0.453572899 -0.0608265921
v -0.0735227689 0.450752497 -0.0602739751
v -0.0661155432 0.456672698 -0.0650802851
v -0.0620982386 0.457164645 -0.0650802851
v -0.0538548194 0.456436902 -0.0648301765
v -0.0453525409 0.453502059 -0.0642577559
v -0.0371582955 0.453048795 -0.0640480295
v -0.0291365292 0.45403108 -0.0640480295
v -0.0224347245 0.466569364 -0.0698293746
v -0.0130930003 0.455995709 -0.0640480295
v -0.00507123535 0.456977993 -0.0640480295
v 0.00294413208 0.458018929 -0.0640565827
v 0.0106586432 0.461867034 -0.0644745976
v 0.0177134387 0.472073495 -0.0658196509
v 0.025757255 0.473058492 -0.0658196509
v 0.0309499595 0.462034583 -0.0600578003
v 0.0384936891 0.467759341 -0.0607446246
v 0.0477726832 0.455992997 -0.0548240654
v 0.0537475497 0.477882743 -0.0578316338
v 0.0599868894 0.455179185 -0.0504242219
v 0.0654739588 0.482788742 -0.0542287827
v 0.0736190528 0.482553452 -0.0499607734
v 0.0841814056 0.455408692 -0.0378373973
v 0.0868007839 0.471227109 -0.0399838649
v 0.0965146869 0.452747315 -0.0331986062
v 0.100577369 0.452661335 -0.0371787995
v 0.104879692 0.449794531 -0.0407672189
v 0.113067612 0.448560625 -0.0445128866
v 0.116996028 0.449498028 -0.0405190326
v 0.116896704 0.450151473 -0.0324980281
v 0.117058851 0.44767186 -0.0240491144
v 0.120973043 0.448733479 -0.0200767349
v 0.129116446 0.447251141 -0.0156942122
v 0.137079865 0.448226303 -0.0156942122
v 0.145043284 0.449201465 -0.0156942122
v 0.153006703 0.450176626 -0.0156942122
v 0.160672605 0.455203205 -0.0162417926
v 0.169169247 0.448835433 -0.0152494404
v 0.177126735 0.449809849 -0.0152494404
v 0.185148686 0.449835658 -0.0151213147
v 0.193222761 0.449021369 -0.0148797957
v 0.196083471 0.467110723 -0.0213147141
v 0.204068795 0.468088537 -0.0213147141
v 0.212910697 0.455161244 -0.0194252934
v 0.221318096 0.448656857 -0.0184092559
v 0.229314461 0.448774397 -0.0182930529
v 0.237259701 0.449747324 -0.0182930529
v 0.245354459 0.447968453 -0.0179194696
v 0.253320903 0.448442698 -0.0178518668
v 0.26138097 0.447035164 -0.0175289381
v 0.269319713 0.447931617 -0.0175187308
v 0.277292043 0.448110014 -0.0174111295
v 0.285234123 0.448892146 -0.0173854511
v 0.293203145 0.449039668 -0.0172737408
v 0.301134855 0.450010926 -0.0172737408
v 0.309136361 0.449230343 -0.0170363281
v 0.317064911 0.450201213 -0.0170363281
v 0.320241004 0.474540561 -0.0283728298
v 0.325328946 0.447345555 -0.0326307006
v 0.329361707 0.447260201 -0.0365815833
v 0.337330341 0.446950555 -0.0364023745
v 0.345146835 0.45129782 -0.0368749984
v 0.353169203 0.452701747 -0.045003742
v 0.357205331 0.452616334 -0.0489579178
v 0.365193218 0.455557764 -0.0573158264
v 0.369232178 0.455472291 -0.0612727888
v 0.373341113 0.454815328 -0.0691867173
v 0.377380103 0.454729855 -0.0731436834
v 0.376195908 0.508024633 -0.0892174616
v 0.381495386 0.456220031 -0.0854245201
v 0.380402803 0.507789612 -0.101388723
v 0.385530084 0.464074731 -0.102753386
v 0.384846777 0.499651134 -0.116428405
v 0.384734154 0.50983876 -0.126223952
v 0.384747088 0.51444304 -0.135168105
v 0.384777516 0.518277705 -0.144008934
v 0.384910733 0.517519116 -0.152116552
v 0.385120541 0.513327539 -0.159657612
v 0.3854101 0.505548298 -0.166587293
v 0.386807054 0.114459746 -0.105057962
v 0.3808451 0.0600375868 -0.0960501879
v 0.37166515 0.127020121 -0.103711061
v 0.368277192 0.116150774 -0.101966746
v 0.36250627 0.0632310063 -0.093255043
v 0.353413671 0.117743805 -0.0987784863
v 0.347160012 0.08440198 -0.0933731124
v 0.340990245 0.0520016924 -0.0881222636
v 0.334236443 0.135500982 -0.0983394161
v 0.328114867 0.101641603 -0.0928758606
v 0.322227001 0.0649593025 -0.0869417712
v 0.312245131 0.12729466 -0.0936604813
v 0.303586274 0.155360714 -0.0984399915
v 0.297553062 0.123891816 -0.0933973119
v 0.288253278 0.162408799 -0.096101597
v 0.283337623 0.110314481 -0.0876991451
v 0.27475366 0.13256678 -0.0877255499
v 0.269081116 0.169877112 -0.0938922912
v 0.261614442 0.168962777 -0.0938922912
v 0.257424891 0.109419696 -0.0843139887
v 0.246892035 0.162876859 -0.0893911645
v 0.240741119 0.140013576 -0.0858238265
v 0.23562628 0.101572208 -0.0797225758
v 0.224390492 0.161651075 -0.0858314261
v 0.221084863 0.154577106 -0.0847615004
v 0.214920774 0.134197518 -0.0816131309
v 0.209445655 0.10469985 -0.0769884437
v 0.197468728 0.169720262 -0.0838388652
v 0.19086276 0.156578779 -0.0818716809
v 0.185439274 0.12790525 -0.0774038509
v 0.179792866 0.103552938 -0.0736296624
v 0.168905661 0.148137867 -0.077155754
v 0.165182784 0.147681981 -0.077155754
v 0.158964247 0.131365433 -0.0746887848
v 0.152188286 0.122580945 -0.0734272003
v 0.145755306 0.110026911 -0.071561113
v 0.137408718 0.120444715 -0.0733754337
v 0.130005762 0.119538188 -0.0733754337
v 0.122602813 0.118631661 -0.0733754337
v 0.115199856 0.117725141 -0.0733754337
v 0.106511503 0.130541518 -0.0717885122
v 0.097948283 0.141516954 -0.0698861703
v 0.0910934582 0.134442881 -0.0689087957
v 0.0876825079 0.0924657881 -0.0623937659
v 0.0818480775 0.076270014 -0.0599668473
v 0.0716074258 0.140933886 -0.066500701
v 0.064973779 0.132054061 -0.0652433932
v 0.0605824813 0.101989605 -0.0606416836
v 0.0547583401 0.0864138529 -0.0583253726
v 0.0459081903 0.0993184298 -0.0605054349
v 0.0364061184 0.117626801 -0.0597587824
v 0.0321746208 0.0882421061 -0.0552863814
v 0.0243441109 0.0914404467 -0.0559304766
v 0.0202038009 0.0625653341 -0.0515352972
v 0.0129098762 0.0614386164 -0.0514991134
v 0.00810448639 0.0394455679 -0.0481828153
v -0.000219027803 0.0471556224 -0.049535282
v -0.00867538713 0.055687692 -0.0510176234
v -0.0163759757 0.0578828081 -0.0515038185
v -0.0236965604 0.0569863692 -0.0515038185
v -0.0301870201 0.0496282242 -0.0504869334
v -0.0375584178 0.0492135324 -0.0505625345
v -0.0447569042 0.0474771522 -0.0504300855
v -0.0514747426 0.0421778448 -0.0497364961
v -0.0609603152 0.057367485 -0.0522698499
v -0.0697509646 0.0670785382 -0.0539411977
v -0.0771548375 0.0665730014 -0.054003343
v -0.0847862586 0.0676658452 -0.0543174446
v -0.0932657644 0.0746248439 -0.0555565059
v -0.098126553 0.0564547069 -0.0528335609
v -0.11364153 0.111185677 -0.0616075918
v -0.11983905 0.101945713 -0.0602935888
v -0.126647323 0.0969628617 -0.0596507452
v -0.123991482 0.0299608372 -0.0529385656
v -0.12706764 0.0257929247 -0.0523477085
v -0.134702399 0.0271299928 -0.0527017936
v -0.14681986 0.0569166169 -0.0575752594
v -0.154912233 0.060691271 -0.0583179742
v -0.152941734 0.00173221633 -0.0527891293
v -0.162523538 0.0151499426 -0.0550764874
v -0.163355738 -0.0249998048 -0.0524735451
v -0.170302689 -0.02744288 -0.0522224568
v -0.209948301 0.164217636 -0.0832089558
v -0.213679194 0.163624883 -0.0793340579
v -0.214782506 0.12503016 -0.0733049661
v -0.223758236 0.132712632 -0.0746816024
v -0.230343267 0.126390591 -0.077638194
v -0.235065043 0.109805942 -0.0751143023
v -0.229892477 0.0382091366 -0.0637250543
v -0.239971995 0.0525015965 -0.0661733076
v -0.253374666 0.0846867785 -0.0715070516
v -0.265215188 0.107727662 -0.0753687546
v -0.255135357 0.0124418987 -0.0638701618
v -0.261699378 0.0275703426 -0.0663969442
v -0.267135859 0.0166935083 -0.0647775009
v -0.279032409 0.039834857 -0.0686786622
v -0.290583223 0.0607147217 -0.072214447
v -0.289463758 0.0159249362 -0.0688179284
v -0.30013898 0.0321412459 -0.0716131404
v -0.309082448 0.0393104739 -0.0729314089
v -0.303205997 -0.0278158821 -0.0658003166
v -0.314670235 -0.00780113926 -0.0692364573
v -0.325243026 0.00746210292 -0.0718928128
v -0.339552283 0.0405588336 -0.0774835646
v -0.446793616 0.520098865 -0.152312711
v -0.446866363 0.520692825 -0.148200125
v -0.446345925 0.518678427 -0.139460146
v -0.446143657 0.518193543 -0.130975202
v -0.445214599 0.514212489 -0.121947631
v -0.445140332 0.514342248 -0.113577142
v -0.44431591 0.510862708 -0.104657471
v -0.440317035 0.512389004 -0.0964368656
v -0.439635277 0.50957644 -0.0876434892
v -0.436406165 0.514581263 -0.0841300264
v -0.43389973 0.502887249 -0.0740454942
v -0.429052681 0.500211358 -0.0652423054
v -0.425030351 0.501302361 -0.0611601844
v -0.419847697 0.496911794 -0.0521341674
v -0.401890785 0.449748725 -0.0370707773
v -0.396944553 0.445735097 -0.0364394002
v -0.391381323 0.459412336 -0.0382157192
v -0.388642967 0.487935424 -0.0379234962
v -0.384638935 0.48902142 -0.0338599384
v -0.368809193 0.450784326 -0.0202292651
v -0.359957218 0.447734654 -0.0196793135
v -0.351863593 0.448600531 -0.0196626522
v -0.343793422 0.449588746 -0.0196626522
v -0.335364878 0.448650956 -0.0194005687
v -0.326978028 0.447900414 -0.0191640779
v -0.318914562 0.448887825 -0.0191640779
v -0.310851097 0.449875236 -0.0191640779
v -0.302708328 0.450418562 -0.019103704
v -0.294140935 0.448549688 -0.0187154897
v -0.28608349 0.449536353 -0.0187154897
v -0.278441399 0.452923983 -0.0190416835
v -0.27099669 0.457517385 -0.0195315145
v -0.262964994 0.458722323 -0.0195609741
v -0.25635922 0.468450367 -0.0207476038
v -0.24827446 0.469440401 -0.0207476038
v -0.240189701 0.470430404 -0.0207476038
v -0.232104942 0.471420437 -0.0207476038
v 0.469694734 0.471047133 0.0991697013
v 0.478422552 -0.0313123092 0.153831497
v 0.478548318 -0.0337072723 0.147000879
v 0.478672177 -0.0349667184 0.140047848
v 0.478795618 -0.035974931 0.133067086
v 0.4789235 -0.039895419 0.126423642
v 0.479050249 -0.0431781374 0.119715728
v 0.479179829 -0.0485001393 0.113259643
v 0.475801051 -0.0458594151 0.105801687
v 0.475867957 -0.0486516245 0.102595784
v 0.47599116 -0.0496578515 0.0956287608
v 0.476114392 -0.0506640822 0.0886617303
v 0.476237595 -0.0516703092 0.0816946998
v 0.476360828 -0.0526765399 0.0747276694
v 0.476489931 -0.0564345568 0.0681218356
v 0.476619303 -0.0603908598 0.0615523942
v 0.476742357 -0.0613956191 0.0545955375
v 0.476873219 -0.0662089363 0.0481593721
v 0.480490655 -0.0747386962 0.0423109531
v 0.480614513 -0.0768105462 0.0355252773
v 0.480741233 -0.08165773 0.0291380621
v 0.480865657 -0.0845220909 0.0224793646
v 0.480994284 -0.0916987807 0.016456265
v 0.481124431 -0.100848772 0.0107470518
v 0.481246978 -0.102428585 0.00393613288
v 0.481368959 -0.103424713 -0.00296096015
v 0.48149094 -0.104420841 -0.00985805318
v 0.481617451 -0.110769346 -0.0159257967
v 0.481740862 -0.113745145 -0.0225027204
v 0.481866986 -0.120336145 -0.028498983
v 0.481998801 -0.134994969 -0.033180315
v 0.478651017 -0.115515493 -0.0434199981
v 0.473638296 0.476460963 -0.135506362
v 0.46955356 0.465113908 -0.125643015
v 0.469408274 0.467724174 -0.117948383
v 0.469263613 0.470132589 -0.110216923
v 0.469115227 0.473560035 -0.102637857
v 0.468951315 0.481292337 -0.0957058817
v 0.464868069 0.472495019 -0.0863365531
v 0.464797944 0.473067641 -0.0823717341
v 0.464649469 0.476020873 -0.0747091323
v 0.464485258 0.482379138 -0.0675366372
v 0.460380614 0.479595363 -0.0590984002
v 0.460232824 0.482081681 -0.0513529778
v 0.460046023 0.491550624 -0.0445831716
v 0.456101686 0.473951787 -0.0381390676
v 0.455953389 0.476352602 -0.0303904023
v 0.455765098 0.484850794 -0.0234656781
v 0.45174244 0.472354949 -0.0137648666
v 0.45161438 0.471911103 -0.00564140501
v 0.451465815 0.474205822 0.00211907597
v 0.451290488 0.480028152 0.00943003315
v 0.459202111 0.475274771 0.0141948024
v 0.463099152 0.47633177 0.0181497727
v 0.46694988 0.472111911 0.0267903134
v 0.466880023 0.472682357 0.030740073
v 0.466643721 0.497455597 0.0357514843
v 0.462579161 0.486388266 0.0451051146
v 0.46238026 0.499196053 0.0516425408
v 0.454584599 0.463703752 0.0597440712
v 0.458459824 0.465860724 0.0635546148
v 0.46227774 0.466536343 0.0715444237
v 0.462208062 0.467105329 0.0754840598
v 0.466020316 0.468727201 0.0833633468
v 0.469834059 0.469909281 0.0912911966
v 0.469764829 0.470350683 0.0952444151
v 0.467650265 0.493777901 0.212893665
v 0.476533353 0.00118384103 0.257169217
v 0.48018387 -0.00663785124 0.250758559
v 0.480307579 -0.0075661377 0.243749887
v 0.483886927 -0.0313902013 0.242293358
v 0.484010011 -0.0323953703 0.235333666
v 0.484133095 -0.0334005393 0.228373989
v 0.484256208 -0.034463428 0.221419588
v 0.484379083 -0.0338726379 0.214311153
v 0.476406276 0.485108703 0.165817752
v 0.476336569 0.485678077 0.169760033
v 0.472242862 0.486332595 0.17764461
v 0.472103417 0.487471342 0.185529187
v 0.471960902 0.489670515 0.193321496
v 0.471816301 0.492553204 0.201059356
v 0.467721969 0.492702901 0.208991051
v -0.491277963 0.278461069 0.248277649
v -0.487415552 0.296608001 0.250843376
v -0.529038131 0.496557504 0.227202863
v -0.528823256 0.495072782 0.219124079
v -0.532756388 0.49345839 0.211015925
v -0.532672465 0.492819518 0.206968516
v -0.532509863 0.491564691 0.19887206
v -0.536430597 0.489896655 0.19076851
v -0.53598398 0.487404943 0.182783112
v -0.535652578 0.485415488 0.174756765
v -0.535509288 0.484245688 0.16665712
v -0.539440572 0.482632011 0.158552378
v -0.539368927 0.482047111 0.154502511
v -0.5392133 0.480823725 0.146407992
v -0.538727462 0.478168458 0.138456285
v -0.538584232 0.476999044 0.130359352
v -0.538441062 0.475829631 0.122262411
v -0.53807795 0.473707139 0.114265695
v -0.533608258 0.471875221 0.106294602
v -0.533465147 0.470706373 0.0982015207
v -0.529238462 0.469926685 0.0901203826
v -0.52885282 0.467698663 0.0821467116
v -0.524651945 0.467027009 0.0740557685
v -0.524580419 0.466442734 0.070010297
v -0.515976965 0.464743584 0.0620979406
v -0.51590544 0.464159489 0.0580538623
v -0.518588722 0.47548297 0.048467353
v -0.524559915 0.464457929 0.0414354987
v -0.524989665 0.465799451 0.0330301337
v -0.525433183 0.467200428 0.0246079508
v -0.521297157 0.467112929 0.0205559004
v -0.519539058 0.477530241 0.0151655516
v -0.509431064 0.469264537 0.00808775239
v -0.50935936 0.468679011 0.00403349241
v -0.514593542 0.472824007 -0.00484276237
v -0.514727175 0.472880721 -0.0131265605
v -0.514306366 0.470478743 -0.021081103
v -0.514146149 0.46923247 -0.0291901324
v -0.519224465 0.472637683 -0.0380175225
v -0.519152582 0.472050697 -0.0420816951
v -0.518089294 0.466818511 -0.0496323705
v -0.517784894 0.464936107 -0.0576509424
v -0.52326858 0.470098168 -0.0667689592
v -0.523124754 0.468923658 -0.074901104
v -0.527716994 0.470126539 -0.0834644139
v -0.527341545 0.467938513 -0.0914481506
v -0.526981056 0.46581617 -0.0994381756
v -0.531626463 0.467508197 -0.103934675
v -0.531167269 0.464960039 -0.11185883
v -0.530700684 0.462379783 -0.11977274
v -0.530556798 0.461205035 -0.127906561
v -0.530131519 0.458804995 -0.135841742
v -0.529987693 0.457630575 -0.143973321
v -0.529857993 0.456517518 -0.152115062
v -0.460760325 0.121554255 -0.104401767
v -0.437717944 0.00559613714 -0.0887602344
v -0.44834125 0.0187425464 -0.0911309719
v -0.449700922 -0.00776411593 -0.0905395076
v -0.456416041 -0.0111483391 -0.0901167542
v -0.457159072 -0.0240051877 -0.091727972
v -0.469587773 -0.00356475799 -0.0953722075
v -0.494238764 0.066802755 -0.10754925
v -0.513562977 0.114326537 -0.115827568
v -0.545849085 0.213582069 -0.132953167
v -0.543022394 0.169947699 -0.129561856
v -0.556408584 0.1918782 -0.133494437
v -0.560227752 0.175608948 -0.130857959
v -0.525454283 0.0226873774 -0.108402938
v -0.56632334 0.152784094 -0.131068513
v -0.57313019 0.148670405 -0.130518213
v -0.576070786 0.129413009 -0.131222844
v -0.58219707 0.122895941 -0.130250052
v -0.588284791 0.116313487 -0.129265428
v -0.588681102 0.102742694 -0.130837321
v -0.594775856 0.0963794589 -0.129884675
v -0.532421827 -0.164934441 -0.0806689858
v -0.533774912 -0.159335434 -0.0744323507
v -0.535256565 -0.153255299 -0.0682603195
v -0.539703727 -0.136106998 -0.0639344379
v -0.54105401 -0.130512565 -0.0576221161
v -0.541179299 -0.12948963 -0.0505393445
v -0.541304529 -0.128466681 -0.043456573
v -0.541581631 -0.126876891 -0.0364650413
v -0.542542219 -0.122734264 -0.029877441
v -0.540983915 -0.114258453 -0.023890581
v -0.541109562 -0.11323265 -0.0167880394
v -0.541235149 -0.112206854 -0.00968549494
v -0.543203771 -0.0906808302 -0.00927066337
v -0.543330073 -0.0896495432 -0.00213014218
v -0.543455601 -0.0886210203 0.00501078926
v -0.541350186 -0.0820526108 0.0114030633
v -0.541476667 -0.0810199678 0.0185529813
v -0.540993392 -0.0822916552 0.0260323938
v -0.539898932 -0.0718567744 0.0319132991
v -0.539962292 -0.0713395625 0.0354943946
v -0.539836228 -0.071264036 0.0427891687
v -0.53943032 -0.0722510368 0.0502252653
v -0.539099574 -0.0588470958 0.0557772107
v -0.53949213 -0.0567983799 0.0628216565
v -0.540093184 -0.0539548807 0.0697659701
v -0.539741158 -0.0547431931 0.0771851242
v -0.539868176 -0.0537061356 0.0843656063
v -0.53873682 -0.0432644375 0.0904245302
v -0.538864136 -0.0422249995 0.0976214856
v -0.538991392 -0.0411855653 0.104818441
v -0.539118707 -0.0401461273 0.112015396
v -0.53870064 -0.0411942974 0.119457945
v -0.538827837 -0.0401554145 0.126651064
v -0.538955092 -0.0391165316 0.133844197
v -0.539082289 -0.0380776487 0.141037315
v -0.540577114 -0.031800326 0.147653222
v -0.541352987 -0.0282758866 0.154586852
v -0.541509628 -0.0271232761 0.16178225
v -0.541637063 -0.0260823201 0.168989733
v -0.54180336 -0.0248925276 0.176181927
v -0.542258978 -0.0225937534 0.183262795
v -0.542899847 -0.0195845403 0.190277994
v -0.543027461 -0.0185426902 0.197491661
v -0.543477833 -0.0162629522 0.20458734
v -0.543911219 -0.0140480213 0.211693659
v -0.544159472 -0.0125429975 0.218869358
v -0.544287145 -0.0115003884 0.226088285
v -0.544414818 -0.0104577793 0.233307213
v -0.542330325 -0.00354836206 0.24005948
v -0.542394221 -0.00302634202 0.243673906
v -0.542522073 -0.00198230194 0.250902742
v -0.539206207 0.000208098572 0.258074373
v -0.536898434 0.0206292737 0.260159642
v -0.55676347 0.11270871 0.249027103
v -0.548643887 0.111006401 0.249239907
v -0.541193008 0.111918792 0.249239907
v -0.533742189 0.112831175 0.249239907
v -0.530719995 0.131583586 0.247789323
v -0.519899249 0.118953444 0.248890549
v -0.512440562 0.119866796 0.248890549
v -0.5066908 0.127824664 0.248318136
v -0.500786185 0.135249123 0.247789323
v -0.509724021 0.204923555 0.242204815
v -0.500763893 0.200417832 0.246478349
v -0.496442854 0.215290353 0.245359316
v -0.491805851 0.212493896 0.249462008
v -0.485074639 0.217239529 0.249159575
v -0.481422782 0.218656212 0.252928406
g path_000000
l 129 128 127 126 125 124 123 122 121 120 119 118 117 116 115 114 113 112 111 110 109 108 107 106 105 104 103 102 101 100 99 98 97 96 95 94 93 92 91 90 89 88 87 86 85 84 83 82 81 80 79 78 77 76 75 74 73 72 71 70 69 68 67 66 65 64 63 62 61 60 59 58 57 56 55 54 53 52 51 50 49 48 47 46 45 44 43 42 41 40 39 38 37 36 35 34 33 32 31 30 29 28 27 26 25 24 23 22 21 20 19 18 17 16 15 14 13 12 11 10 9 8 7 6 5 4 3 2 1 1218 1217 1216 1215 1214 1213 1212 1211 1210 1209 1208 1207 1206 1205 1204 1203 1202 1201 1200 1199 1198 1197 1196 1195 1194 1193 1192 1191 1190 1189 1188 1187 1186 1185 1184 1183 1182 1181 1180 1179 1178 1177 1176 1175 1174 1173 1172 1171 1170 1169 1168 1167 1166 1165 1164 1163 1162 1161 1160 1159 1158 1157 1156 1155 1154 1153 1152 1151 1150 1149 1148 1147 1146 1145 1144 1143 1142 1141 1140 1139 1138 1137 1136 1135 1134 1133 1132 1131 1130 1129 1128 1127 1126 1125 1124 1123 1122 1121 1120 1119 1118 1117 1116 1115 1114 1113 1112 1111 1110 1109 1108 1107 1106 1105 1104 1103 1102 1101 1100 1099 1098 1097 1096 1095 1094 1093 1092 1091 1090 1089 1088 1087
g path_000001
l 130 131 132 133 134 135 136 137 138 139 140
g path_000002
l 142 143 144 145 146 147 148 149
g path_000003
l 150 151 152 153 154
g path_000004
l 155 156 157 158 159 160 161 162 163 164 165 166 167 168 169 170 171 172 173 174 175 176 177 178 179 180 181 182 183 184 185 186 187 188 189 190 191 192 193 194 195 196 197 198 199 200 201 202 203 204 205 206
g path_000005
l 207 208 209 210 211 212 213 214 215 216 217 218 219 220 221 222 223 224 225 226 227 228 229 230 231 232 233 234 235 236 237 238 239 240 241 242
g path_000006
l 243 244 245 246 247 248 249
g path_000007
l 251 252
g path_000008
l 253 254
g path_000009
l 255 256 257
g path_000010
l 258 259 260 261
g path_000011
l 262 263 264 265 266 267 268
g path_000012
l 269 270 271 272
g path_000013
l 273 274 275 276 277 278 279 280
g path_000014
l 281 282
g path_000015
l 283 284 285 286 287 288 289 290 291 292 293
g path_000016
l 294 295 296 297 298 299 300 301 302 303 304 305 306 307 308 309 310
g path_000017
l 311 312 313
g path_000018
l 314 315 316 317 318 319 320 321 322 323 324 325 326 327 328 329 330 331 332 333 334 335 336 337 338 339 340 341 342 343 344 345 346 347 348 349 350 351 352 353 354 355 356 357 358 359 360 361 362 363 364 365 366 367 368 369 370 371 372 373 374 375 376 377
g path_000019
l 378 379 380 381 382 383 384
g path_000020
l 385 386 387 388 389 390
g path_000021
l 391 392 393
g path_000022
l 394 395 396 397 398 399 400 401 402 403 404 405 406 407 408 409 410 411 412 413 414 415 416 417 418 419 420 421 422 423 424 425 426 427 428 429 430 431 432 433 434 435 436 437 438 439 440 441 442 443 444 445 446 447 448 449 450 451 452 453 454 455 456 457 458 459 460 461 462 463 464 465 466 467 468 469 470 471 472 473 474 475 476 477 478 479 480 481 482 483 484
g path_000023
l 485 486 487 488 489 490 491 492 493 494 495 496
g path_000024
l 498 499 500 501 502 503 504 505 506 507 508 509 510 511 512 513 514 515 516 517 518 519 520 521 522 523 524 525
g path_000025
l 526 527 528 529 530 531 532 533 534 535 536 537 538 539 540 541
g path_000026
l 542 543
g path_000027
l 544 545 546 547
g path_000028
l 548 549 550 551 552 553 554 555 556 557 558 559 560 561 562 563
g path_000029
l 565 566 567 568 569 570 571 572 573 574 575 576 577 578 579 580 581 582 583 584 585 586 587 588 589 590 591 592 593 594 595 596 597 598
g path_000030
l 599 600 601 602 603 604 605 606 607 608 609 610 611 612 613 614 615 616 617 618 619 620 621 622 623 624 625 626 627 628 629 630 631 632 633 634 635 636 637 638 639 640 641 642 643 644 645 646 647 648 649 650 651 652 653 654 655 656 657 658 659 660 661 662 663 664 665 666 667 668 669 670 671 672 673 674 675 676 677 678 679 680 681 682 683 684
g path_000031
l 685 686 687 688 689 690 691 692 693 694 695 696 697 698 699 700 701 702 703 704 705 706 707 708 709
g path_000032
l 710 711 712 713 714 715 716 717 718 719 720 721 722 723 724 725 726 727 728 729 730 731 732 733 734 735 736 737 738 739 740 741 742 743 744 745 746 747 748 749 750 751 752
g path_000033
l 753 754 755
g path_000034
l 756 757 758 759 760 761 762
g path_000035
l 763 764 765 766 767 768 769 770 771 772 773 774 775 776 777 778 779 780 781 782 783 784 785 786 787 788 789 790 791 792 793 794 795 796 797 798 799 800 801 802 803 804 805 806 807 808
g path_000036
l 809 810 811 812 813 814 815 816 817 818 819 820 821 822 823 824 825 826 827 828
g path_000037
l 830 831
g path_000038
l 833 834 835 836 837 838 839 840 841 842 843 844 845 846
g path_000039
l 847 848 849 850 851 852 853 854 855 856 857
g path_000040
l 858 859 860 861 862 863 864 865 866 867 868 869 870 871 872 873 874 875 876 877 878 879 880 881 882 883 884 885 886 887 888 889 890 891 892 893 894 895 896 897 898 899 900 901 902 903 904 905 906 907 908 909 910 911 912 913
g path_000041
l 914 915 916 917 918
g path_000042
l 919 920 921 922 923 924 925 926 927 928 929 930 931 932 933 934 935 936 937 938 939 940 941
g path_000043
l 942 943
g path_000044
l 944 945 946 947
g path_000045
l 948 949
g path_000046
l 950 951
g path_000047
l 952 953
g path_000048
l 956 957
g path_000049
l 958 959
g path_000050
l 962 963
g path_000051
l 964 965 966 967 968 969 970 971 972 973 974 975 976 977 978
g path_000052
l 979 980 981
g path_000053
l 982 983 984
g path_000054
l 985 986 987 988
g path_000055
l 989 990 991 992 993 994 995 996
g path_000056
l 997 998 999 1000 1001 1002 1003
g path_000057
l 1004 1005 1006 1007
g path_000058
l 1008 1009 1010 1011 1012 1013 1014 1015 1016 1017 1018 1019 1020 1021 1022
g path_000059
l 1023 1024 1025 1026 1027 1028 1029 1030 1031
g path_000060
l 1032 1033 1034 1035 1036 1037 1038 1039 1040 1041 1042 1043 1044 1045 1046 1047 1048 1049 1050 1051 1052 1053 1054 1055 1056 1057
g path_000061
l 1058 1059 1060 1061 1062 1063 1064 1065 1066 1067 1068 1069 1070
g path_000062
l 1071 1072 1073 1074 1075 1076 1077 1078
g path_000063
l 1079 1080
g path_000064
l 1082 1083
g path_000065
l 1084 1085 1086
g path_000066
l 1219 1255 1254 1253 1252 1251 1250 1249 1248 1247 1246 1245 1244 1243 1242
g path_000067
l 1220 1221 1222 1223 1224 1225
g path_000068
l 1226 1227 1228 1229 1230 1231 1232 1233 1234 1235 1236
g path_000069
l 1237 1238 1239
g path_000070
l 1256 1499 1498 1497 1496 1495 1494 1493 1492 1491 1490 1489 1488 1487 1486 1485 1484 1483 1482
g path_000071
l 1257 1258 1259 1260 1261 1262 1263 1264 1265 1266 1267 1268 1269 1270 1271 1272 1273 1274 1275 1276 1277 1278 1279 1280 1281 1282 1283 1284 1285 1286 1287 1288 1289 1290 1291 1292 1293 1294 1295 1296 1297 1298
g path_000072
l 1300 1301
g path_000073
l 1302 1303 1304 1305 1306 1307 1308 1309 1310 1311 1312 1313 1314 1315 1316 1317 1318 1319 1320 1321 1322 1323 1324 1325 1326 1327 1328 1329 1330 1331 1332 1333 1334 1335 1336
g path_000074
l 1338 1339 1340 1341 1342 1343 1344 1345 1346 1347
g path_000075
l 1352 1353 1354 1355 1356 1357 1358
g path_000076
l 1361 1362
g path_000077
l 1376 1377
g path_000078
l 1382 1383 1384
g path_000079
l 1386 1387
g path_000080
l 1390 1391 1392 1393 1394 1395 1396 1397 1398 1399 1400 1401
g path_000081
l 1402 1403
g path_000082
l 1404 1405
g path_000083
l 1406 1407 1408 1409
g path_000084
l 1410 1411
g path_000085
l 1412 1413
g path_000086
l 1414 1415 1416 1417 1418 1419 1420 1421 1422 1423 1424 1425 1426 1427 1428
g path_000087
l 1429 1430 1431
g path_000088
l 1432 1433 1434
g path_000089
l 1435 1436
g path_000090
l 1437 1438
g path_000091
l 1439 1440
g path_000092
l 1441 1442
g path_000093
l 1443 1444 1445 1446
g path_000094
l 1447 1448
g path_000095
l 1451 1452 1453
g path_000096
l 1456 1457 1458
g path_000097
l 1460 1461
g path_000098
l 1463 1464 1465 1466 1467 1468 1469 1470 1471 1472 1473 1474 1475 1476
g path_000099
l 1477 1478 1479
g path_000100
l 1480 1481
g path_000101
l 1500 1565 1564 1563 1562 1561 1560 1559
g path_000102
l 1501 1502 1503 1504 1505 1506 1507 1508 1509 1510 1511 1512 1513 1514 1515 1516 1517 1518 1519 1520 1521 1522 1523 1524 1525 1526 1527 1528 1529 1530
g path_000103
l 1532 1533 1534 1535 1536 1537 1538 1539 1540 1541 1542 1543 1544 1545 1546 1547 1548 1549 1550 1551 1552 1553 1554 1555
g path_000104
l 1556 1557 1558
g path_000105
l 1566 1581 1580 1579 1578 1577 1576 1575
g path_000106
l 1567 1568 1569
g path_000107
l 1570 1571 1572 1573 1574
g path_000108
l 1582 1583
g path_000109
l 1584 1585 1586 1587 1588 1589 1590 1591 1592 1593 1594 1595 1596 1597 1598 1599 1600 1601 1602 1603 1604 1605 1606 1607 1608 1609 1610 1611 1612 1613 1614 1615 1616 1617 1618 1619 1620 1621 1622 1623 1624 1625 1626 1627 1628 1629 1630 1631 1632 1633 1634 1635
g path_000110
l 1637 1638
g path_000111
l 1639 1640 1641
g path_000112
l 1647 1648
g path_000113
l 1650 1651 1652 1653 1654 1655 1656
g path_000114
l 1657 1658 1659 1660 1661 1662 1663 1664 1665 1666 1667 1668 1669 1670 1671 1672 1673 1674 1675 1676 1677 1678 1679 1680 1681 1682 1683 1684 1685 1686 1687 1688 1689 1690 1691 1692 1693 1694 1695 1696 1697 1698 1699 1700 1701 1702 1703 1704 1705 1706 1707 1708 1709
g path_000115
l 1710 1711 1712 1713 1714 1715 1716 1717 1718
g path_000116
l 1719 1720 1721 1722 1723 1724
