# Fixed world centers; Z up; paths immutable
v -0.603211582 -0.503758907 -0.171770602
v -0.593401968 -0.50522089 -0.169429824
v -0.587625563 -0.510767817 -0.169429824
v -0.577712297 -0.51209712 -0.16675882
v -0.572714269 -0.518402934 -0.168799907
v -0.56644392 -0.517688572 -0.168091163
v -0.560392141 -0.522948563 -0.167342588
v -0.551841438 -0.525598228 -0.168221474
v -0.542324662 -0.52726382 -0.166491479
v -0.53944242 -0.530031502 -0.166491479
v -0.530168772 -0.531924903 -0.165378749
v -0.524828017 -0.537891865 -0.166524485
v -0.516456664 -0.540708721 -0.167854965
v -0.509302437 -0.53901577 -0.164600283
v -0.503462076 -0.5444538 -0.164366543
v -0.494904399 -0.547058165 -0.165148422
v -0.488710791 -0.546349049 -0.164489865
v -0.480018258 -0.548798323 -0.164870888
v -0.474541545 -0.554617226 -0.165644109
v -0.465913922 -0.55713129 -0.166198581
v -0.459780723 -0.556463003 -0.165657952
v -0.450374573 -0.558104455 -0.163951024
v -0.445030063 -0.564064205 -0.165101543
v -0.439556628 -0.564114094 -0.166427985
v -0.429767936 -0.565295041 -0.163547873
v -0.420511514 -0.567055106 -0.162175119
v -0.417999238 -0.570214212 -0.163219839
v -0.409677029 -0.573031485 -0.16457814
v -0.400589913 -0.574961662 -0.16365768
v -0.391672701 -0.577076375 -0.163217068
v -0.389399081 -0.580522716 -0.164995983
v -0.380174398 -0.582265198 -0.163609341
v -0.374523371 -0.582086205 -0.164347246
v -0.365737885 -0.584331155 -0.164251864
v -0.360090941 -0.589926422 -0.16449663
v -0.351755917 -0.592707098 -0.165771291
v -0.344729632 -0.590836108 -0.162211582
v -0.336266249 -0.593442023 -0.163049892
v -0.327905267 -0.596172035 -0.16420424
v -0.325045824 -0.598917902 -0.16420424
v -0.315862805 -0.600611269 -0.162740499
v -0.30757156 -0.603418589 -0.164094776
v -0.304714084 -0.606162548 -0.164094776
v -0.295320928 -0.607552826 -0.161885798
v -0.286485404 -0.609642446 -0.161442727
v -0.280650705 -0.609174311 -0.161460266
v -0.272033811 -0.611531436 -0.161694571
v -0.26356253 -0.614074111 -0.162396684
v -0.260895729 -0.617058218 -0.163011506
v -0.252609611 -0.619846344 -0.164328441
v -0.244323477 -0.62263453 -0.165645376
v -0.238625795 -0.622325361 -0.166067809
v -0.229556009 -0.624034047 -0.164697886
v -0.221047357 -0.626500964 -0.165221095
v -0.218408287 -0.629528403 -0.165945545
v -0.20954752 -0.631496489 -0.165234655
v -0.200413764 -0.633062959 -0.163535327
v -0.191315651 -0.634658158 -0.161915511
v -0.185317948 -0.633875132 -0.1611702
v -0.176789209 -0.636260509 -0.161511764
v -0.173947781 -0.638989031 -0.161511764
v -0.165450394 -0.641411543 -0.161948994
v -0.160037443 -0.641460896 -0.163260773
v -0.151024833 -0.643106818 -0.161790699
v -0.142437786 -0.645371795 -0.161848485
v -0.137030333 -0.645421088 -0.163158938
v -0.128019452 -0.647026598 -0.161602154
v -0.122615919 -0.647075891 -0.162911654
v -0.114251599 -0.649654686 -0.163746804
v -0.105407916 -0.651479781 -0.162738949
v -0.0991965756 -0.650252461 -0.160923138
v -0.0908764005 -0.65287292 -0.161869377
v -0.0854814127 -0.652922094 -0.163176805
v -0.0773614347 -0.655861676 -0.16490303
v -0.0711864904 -0.654647291 -0.163124576
v -0.0599825196 -0.654055119 -0.16405046
v -0.0538746081 -0.65291959 -0.162460551
v -0.0459207073 -0.656111121 -0.164811701
v -0.0398589298 -0.655029893 -0.16335699
v -0.0315660201 -0.657647669 -0.164310366
v -0.0201371629 -0.656609774 -0.164147139
v -0.0137956459 -0.655002296 -0.16140765
v -0.00838290155 -0.654982686 -0.162542254
v 0.00243918877 -0.654946923 -0.164819852
v 0.00781160593 -0.654995918 -0.166121826
v 0.0198710226 -0.652752101 -0.162999973
v 0.0256977286 -0.651973069 -0.162275031
v 0.0318730436 -0.650555611 -0.159987062
v 0.0428335965 -0.650203705 -0.16148299
v 0.0482546389 -0.650132358 -0.162486643
v 0.0596722215 -0.648915708 -0.161862001
v 0.065481469 -0.648107231 -0.16105783
v 0.0764751211 -0.647641122 -0.162267789
v 0.0794154778 -0.644237339 -0.1617001
v 0.0906702504 -0.643244922 -0.161610633
v 0.0961968005 -0.64293313 -0.162018165
v 0.102155685 -0.641775668 -0.160344794
v 0.110211752 -0.638819277 -0.162030339
v 0.121791691 -0.63710326 -0.16014199
v 0.124495082 -0.634125113 -0.160588205
v 0.135419622 -0.633674562 -0.161815211
v 0.140586555 -0.634043276 -0.163897753
v 0.149693474 -0.628896415 -0.160130724
v 0.155598134 -0.627733946 -0.158415526
v 0.163909316 -0.624169171 -0.158544451
v 0.169251129 -0.624150693 -0.159664959
v 0.177249789 -0.621221244 -0.161365002
v 0.182393506 -0.621620059 -0.163525209
v 0.190540805 -0.618365884 -0.164411798
v 0.201097682 -0.618588746 -0.167299509
v 0.204184785 -0.614729941 -0.16549851
v 0.215256408 -0.613798857 -0.165492728
v 0.217839524 -0.611032963 -0.166417792
v 0.229309022 -0.609170735 -0.16406329
v 0.235042244 -0.608220637 -0.162836149
v 0.243474826 -0.604210019 -0.161768734
v 0.248812124 -0.604137421 -0.162745148
v 0.256989896 -0.600679874 -0.163056374
v 0.264479339 -0.598825395 -0.167416498
v 0.270727545 -0.596584499 -0.16289942
v 0.278902382 -0.593083024 -0.163073942
v 0.284261376 -0.592923403 -0.163824484
v 0.292382151 -0.589524329 -0.164246932
v 0.297651708 -0.58957237 -0.165523961
v 0.306402087 -0.584580064 -0.161870524
v 0.314230144 -0.581856728 -0.16399163
v 0.31991148 -0.580836535 -0.162533984
v 0.327995837 -0.577437878 -0.162915051
v 0.33304745 -0.578010738 -0.165534839
v 0.341300279 -0.574149609 -0.164719641
v 0.352394551 -0.572668135 -0.163207978
v 0.354887486 -0.570072055 -0.16447936
v 0.365828186 -0.568946123 -0.163871706
v 0.368527621 -0.565782368 -0.163669884
v 0.379076689 -0.565686226 -0.16571404
v 0.381904095 -0.562150419 -0.16454044
v 0.389992058 -0.558578908 -0.164408624
v 0.397819638 -0.555726886 -0.166137099
v 0.403133005 -0.555538118 -0.166789338
v 0.41396302 -0.554546297 -0.166492611
v 0.41654259 -0.551676273 -0.167019546
v 0.424778879 -0.547556937 -0.165416509
v 0.435295165 -0.547422588 -0.167346045
v 0.438166618 -0.543637276 -0.165457368
v 0.448717594 -0.543357015 -0.167000189
v 0.451142728 -0.540942729 -0.168700725
v 0.459461093 -0.536409855 -0.165956825
v 0.467078656 -0.534092307 -0.169041678
v 0.472522736 -0.533367515 -0.168262899
v 0.480644524 -0.529366195 -0.166885465
v 0.485813439 -0.529522002 -0.16843307
v 0.493610799 -0.526569664 -0.169823185
v 0.501412809 -0.523587286 -0.17112802
v 0.504220665 -0.519834459 -0.169238776
v 0.512122154 -0.516462147 -0.16948545
v 0.520069242 -0.512896001 -0.169202015
v 0.527875066 -0.509813309 -0.170204133
v 0.530339181 -0.50724721 -0.171460822
v 0.538080573 -0.50438422 -0.173045576
v 0.543450892 -0.497572094 -0.17100364
v 0.551106811 -0.494992405 -0.173338845
v 0.553567469 -0.492429942 -0.174593747
v 0.558949709 -0.485498518 -0.172166899
v 0.555086017 -0.542869866 -0.331281632
v 0.563013554 -0.540268719 -0.33391428
v 0.565886319 -0.536292732 -0.331603199
v 0.574813604 -0.52944845 -0.322546571
v 0.583725572 -0.522492528 -0.313126743
v 0.586756706 -0.52418983 -0.310388982
v 0.592472792 -0.522561848 -0.307062745
v 0.600384653 -0.519754887 -0.309045136
v 0.599931896 -0.515277803 -0.312683523
v 0.599567294 -0.510398626 -0.315221071
v 0.601302743 -0.504827559 -0.324518323
v 0.60602802 -0.50113982 -0.331608415
v 0.611142099 -0.495705634 -0.333804756
v 0.61365509 -0.486627132 -0.333300918
v 0.618699253 -0.481501222 -0.336357892
v 0.616958678 -0.508391857 -0.431168258
v 0.620074987 -0.496490985 -0.423034668
v 0.622368157 -0.495205939 -0.428435594
v 0.626354754 -0.495584309 -0.447847426
v 0.625931442 -0.484068334 -0.448820472
v 0.62575525 -0.468568355 -0.411472112
v 0.617371082 -0.484900147 -0.485000849
v 0.619167745 -0.495686531 -0.535807133
v 0.622456551 -0.48303768 -0.525660455
v 0.623689532 -0.470389336 -0.505787969
v 0.620508254 -0.462067038 -0.507130086
v 0.620233417 -0.456535667 -0.508472145
v 0.598848343 -0.575296283 -0.888575971
v 0.608517587 -0.568618834 -0.880068481
v 0.61550647 -0.563893795 -0.866963863
v 0.62062633 -0.575754702 -0.884636104
v 0.627489805 -0.563979328 -0.869794607
v 0.63318181 -0.558051765 -0.872697473
v 0.638673902 -0.553168714 -0.878812671
v 0.644691706 -0.545528769 -0.876439691
v 0.650381207 -0.539603889 -0.879341304
v 0.656070769 -0.533678949 -0.882242918
v 0.661810637 -0.527472913 -0.884264052
v 0.664357841 -0.518532693 -0.887165129
v 0.661216557 -0.515516222 -0.887165129
v 0.654934049 -0.509483337 -0.887165129
v 0.651034534 -0.502921462 -0.896382987
v 0.647334337 -0.495238632 -0.902099311
v 0.643887222 -0.486220747 -0.903553605
v 0.640737891 -0.483196557 -0.903553605
v 0.631235778 -0.481826633 -0.907647848
v 0.624151111 -0.479457498 -0.919666648
v 0.617828965 -0.473386526 -0.919666648
v 0.611709118 -0.466403365 -0.916667461
v 0.605356514 -0.460488021 -0.917168558
v 0.600292802 -0.456299961 -0.902066112
v 0.593992293 -0.450249761 -0.902066112
v 0.588401854 -0.432557225 -0.852079093
v 0.623673975 -0.275090486 -0.366954237
v 0.622621477 -0.27296415 -0.378968447
v 0.62242192 -0.267377347 -0.379376173
v 0.622566819 -0.267956942 -0.411058575
v 0.625985265 -0.241506994 -0.359579504
v 0.624035954 -0.242891654 -0.383931726
v 0.625183523 -0.239371285 -0.40195775
v 0.626862168 -0.226366416 -0.376459867
v 0.626598477 -0.221059024 -0.377747595
v 0.627171755 -0.219746262 -0.403764337
v 0.627305865 -0.206492379 -0.397137225
v 0.628374219 -0.196020395 -0.379951
v 0.628332496 -0.189866915 -0.378165364
v 0.626802981 -0.183080554 -0.394617766
v 0.624277353 -0.186307877 -0.427188218
v 0.623745203 -0.175597206 -0.42978695
v 0.623479128 -0.170241877 -0.431086332
v 0.623282671 -0.164629355 -0.431424975
v 0.62275064 -0.153921127 -0.434023112
v 0.622484565 -0.148567006 -0.435322195
v 0.619405329 -0.140511408 -0.436621279
v 0.619139314 -0.135157287 -0.437920362
v 0.620547175 -0.117639743 -0.414091587
v 0.620542228 -0.111413509 -0.411850035
v 0.620356023 -0.105826914 -0.412079901
v 0.618222475 -0.094681628 -0.400924921
v 0.617290676 -0.0916489214 -0.411216706
v 0.618665159 -0.0867179111 -0.425854206
v 0.61604923 -0.0772156641 -0.42113328
v 0.613594711 -0.0672362074 -0.414373606
v 0.61296308 -0.0631253868 -0.420561254
v 0.608903944 -0.0529095195 -0.400596827
v 0.608583033 -0.0478041694 -0.402640373
v 0.605599225 -0.0396625325 -0.403163463
v 0.605176151 -0.0348686501 -0.406523675
v 0.602847636 -0.0247362405 -0.398629189
v 0.600024164 -0.0161553789 -0.397196621
v 0.596989334 -0.00821609981 -0.398476928
v 0.596032381 -0.000286206923 -0.375766039
v 0.593622863 0.00934634451 -0.369489819
v 0.59313941 0.0139527023 -0.373526841
v 0.590124428 0.0218400024 -0.374798775
v 0.587431908 0.0306100491 -0.372142702
v 0.58536154 0.0410244912 -0.362036228
v 0.58280164 0.0441509262 -0.359825581
v 0.579799294 0.0520051606 -0.36109218
v 0.578394294 0.054246407 -0.375969946
v 0.575382173 0.0621263199 -0.377240688
v 0.572370052 0.070006229 -0.378511429
v 0.572870553 0.0771423504 -0.370894641
v 0.569864869 0.0850055143 -0.37216267
v 0.566085577 0.0910034031 -0.382323682
v 0.56333369 0.0936459675 -0.382323653
v 0.560082018 0.100964107 -0.386306077
v 0.560061336 0.106763221 -0.384865165
v 0.557049215 0.114643134 -0.386135906
v 0.55379349 0.121974878 -0.390120775
v 0.5502792 0.13165608 -0.368234754
v 0.548025727 0.13250418 -0.39139235
v 0.545337915 0.143837646 -0.360883057
v 0.542453945 0.151893258 -0.360983342
v 0.537445247 0.15808551 -0.356142461
v 0.536807418 0.162502244 -0.361422926
v 0.533816695 0.170326144 -0.362684637
v 0.530826032 0.178150058 -0.363946348
v 0.52783531 0.185973957 -0.36520806
v 0.525102973 0.188597739 -0.36520806
v 0.52211225 0.196421653 -0.366469771
v 0.519125462 0.204252914 -0.367691338
v 0.517488182 0.20889315 -0.356653512
v 0.514643431 0.216945946 -0.356530547
v 0.514061987 0.221548945 -0.361029267
v 0.511330545 0.229801387 -0.359776735
v 0.508494198 0.237856269 -0.359594166
v 0.508164644 0.242916137 -0.361562312
v 0.505449295 0.25116685 -0.360208601
v 0.50246942 0.258962482 -0.361465752
v 0.501385927 0.26426971 -0.345607996
v 0.499232084 0.271939427 -0.363980055
v 0.497060061 0.281017929 -0.357476652
v 0.495994717 0.284916371 -0.366494358
v 0.493828744 0.293970704 -0.359986275
v 0.493721455 0.299371958 -0.359813482
v 0.490748107 0.307150394 -0.361067861
v 0.490802795 0.312785387 -0.359370947
v 0.487831563 0.320558339 -0.360624433
v 0.487574875 0.325724572 -0.361877918
v 0.487061501 0.336057037 -0.36438489
v 0.486166507 0.34123525 -0.347376734
v 0.485655218 0.351525545 -0.349873453
v 0.485399574 0.356670678 -0.351121843
v 0.485381812 0.367627889 -0.349011928
v 0.485396951 0.373129547 -0.347734571
v 0.485141754 0.378265858 -0.348980814
v 0.487060845 0.385592461 -0.353999883
v 0.489518583 0.393627912 -0.353965729
v 0.491706997 0.401308954 -0.356458187
v 0.494150609 0.403853655 -0.357704401
v 0.50629884 0.418370545 -0.29008171
v 0.510136724 0.422115862 -0.301982522
v 0.511512339 0.428677589 -0.312114656
v 0.512337685 0.434553891 -0.327775508
v 0.512733817 0.434483886 -0.349143058
v 0.507420838 0.432629347 -0.426572233
v 0.509638131 0.440411925 -0.429097652
v 0.510236025 0.446680784 -0.4217439
v 0.511788905 0.453635067 -0.430942774
v 0.51381427 0.461181283 -0.435411155
v 0.515257895 0.462500244 -0.447248846
v 0.503309667 0.45318839 -0.59581846
v 0.508444428 0.458535582 -0.59843713
v 0.510743678 0.466605633 -0.601055801
v 0.515878439 0.471952826 -0.603674531
v 0.493885487 0.451600969 -0.835992634
v 0.499289453 0.457228541 -0.838748634
v 0.49801141 0.461380869 -0.88159138
v 0.503462017 0.467057019 -0.884371161
v 0.503177404 0.472785443 -0.885761082
v 0.50862807 0.478461593 -0.888540864
v 0.520135105 0.484842271 -0.856697142
v 0.525545537 0.490476549 -0.85945642
v 0.533943653 0.493241787 -0.862215638
v 0.53664887 0.496058941 -0.863595307
v 0.542059302 0.501693189 -0.866354585
v 0.547469735 0.507327437 -0.869113863
v 0.552880108 0.512961745 -0.87187314
v 0.552315056 0.524334073 -0.874632418
v 0.55203259 0.530020177 -0.876012027
v 0.546057105 0.535758257 -0.876012027
v 0.539870441 0.541265011 -0.878545821
v 0.533891737 0.54700613 -0.878545821
v 0.527913034 0.552747309 -0.878545821
v 0.518230319 0.554667413 -0.888525486
v 0.512237072 0.56042254 -0.888525486
v 0.506243885 0.566177607 -0.888525486
v 0.500250697 0.571932733 -0.888525486
v 0.493682742 0.57120347 -0.896380723
v 0.484676629 0.573888481 -0.897975504
v 0.478734374 0.579715967 -0.897282243
v 0.469980508 0.5766716 -0.897675216
v 0.464642912 0.577051938 -0.892351747
v 0.458955288 0.571178257 -0.892055869
v 0.449806511 0.56781131 -0.896146834
v 0.444038004 0.561869383 -0.896448493
v 0.438522696 0.556138396 -0.894259453
v 0.436679393 0.54859513 -0.913206339
v 0.430399686 0.542206466 -0.917988896
v 0.424981773 0.536551654 -0.914550483
v 0.41949603 0.530838907 -0.91175276
v 0.41826719 0.52328521 -0.897682726
v 0.413549334 0.518244147 -0.888038695
v 0.456048697 0.559448659 -0.430090487
v 0.451146841 0.559743166 -0.426275343
v 0.441559017 0.560496688 -0.416947484
v 0.436379045 0.560543895 -0.415692151
v 0.432297379 0.556114316 -0.406069756
v 0.426496357 0.555645049 -0.410084128
v 0.414733469 0.549778402 -0.441539079
v 0.407743901 0.553227007 -0.432417035
v 0.402650952 0.552740216 -0.409192562
v 0.395767599 0.551461279 -0.421365291
v 0.389683962 0.550164938 -0.406472892
v 0.38795799 0.548171222 -0.399495333
v 0.385514557 0.544973493 -0.37796402
v 0.377958238 0.542506814 -0.375098914
v 0.374713212 0.538685322 -0.360206038
v 0.367256373 0.536284685 -0.35679394
v 0.361988753 0.536233068 -0.356495827
v 0.354407161 0.533736706 -0.35400483
v 0.349655062 0.528750479 -0.350567877
v 0.344965577 0.528428674 -0.327678412
v 0.338837862 0.527718723 -0.333536923
v 0.331103057 0.525834143 -0.350409716
v 0.32153061 0.52722007 -0.360986739
v 0.310770214 0.52699846 -0.361462325
v 0.305607647 0.527045548 -0.360211223
v 0.30044511 0.527092576 -0.358960122
v 0.292172432 0.529465556 -0.360323638
v 0.281840831 0.529559731 -0.357819855
v 0.278625131 0.531824768 -0.361044466
v 0.268597454 0.532124817 -0.356577903
v 0.263551414 0.532251358 -0.354568958
v 0.255056828 0.534505546 -0.357116729
v 0.252342939 0.53711164 -0.357116729
v 0.241773099 0.537063241 -0.355984896
v 0.233323127 0.539370954 -0.358088464
v 0.228416994 0.539583743 -0.355228961
v 0.220252082 0.542074382 -0.355579227
v 0.216156974 0.543863654 -0.363619685
v 0.206774801 0.54453969 -0.355404615
v 0.198436573 0.546943963 -0.356648803
v 0.194635317 0.548939288 -0.362770557
v 0.185319036 0.549632907 -0.354311138
v 0.181525186 0.551647246 -0.360280246
v 0.173411846 0.554201841 -0.36011377
v 0.168424234 0.55436033 -0.357738853
v 0.16023311 0.556875825 -0.357973754
v 0.151489422 0.559105694 -0.361131549
v 0.14712286 0.5595873 -0.355457008
v 0.137362763 0.561305106 -0.363879889
v 0.132673904 0.561615765 -0.35992676
v 0.123911977 0.562536716 -0.34895885
v 0.113725901 0.564074814 -0.359276831
v 0.108608 0.564165235 -0.35757336
v 0.100208268 0.566611111 -0.358636081
v 0.0953010544 0.566803098 -0.355878234
v 0.0852613598 0.567074597 -0.3515279
v 0.0818525627 0.569377899 -0.354850054
v 0.0716935545 0.56959188 -0.351086974
v 0.0664875358 0.569639325 -0.349825323
v 0.061334867 0.569711268 -0.348308891
v 0.0505612642 0.571100831 -0.360467106
v 0.0405696332 0.571398437 -0.355816573
v 0.0354015119 0.571469009 -0.354311168
v 0.0269302633 0.57392323 -0.355404556
v 0.0217077266 0.573970795 -0.354138911
v 0.0112626534 0.574065983 -0.351607621
v 0.00604011724 0.574113607 -0.350341976
v 0.000789038662 0.574149072 -0.349203825
v -0.00972649641 0.574214876 -0.346982092
v -0.0136582041 0.576352417 -0.352222145
v -0.025995899 0.575676024 -0.357858926
v -0.0312358811 0.575723767 -0.356589079
v -0.0417158417 0.575819254 -0.354049325
v -0.0469558239 0.575867057 -0.352779448
v -0.0544069186 0.573433697 -0.349064082
v -0.0603549555 0.573198259 -0.350769192
v -0.0714826435 0.573039889 -0.350894928
v -0.0770893469 0.572945893 -0.351112425
v -0.0886667669 0.572620928 -0.352983117
v -0.0939198583 0.572668791 -0.351710081
v -0.099156186 0.57272315 -0.350369453
v -0.107299663 0.570020139 -0.349401176
v -0.113901928 0.569553196 -0.353489637
v -0.125062793 0.569408059 -0.353448808
v -0.130832925 0.569265962 -0.354151636
v -0.140241101 0.569781721 -0.34723106
v -0.142711207 0.567189157 -0.345838726
v -0.154405877 0.566851377 -0.347768962
v -0.159813672 0.566847682 -0.347026497
v -0.166670457 0.564625621 -0.3410182
v -0.172711343 0.564388812 -0.342662841
v -0.183766216 0.564296186 -0.342043847
v -0.184116378 0.562473297 -0.332774222
v -0.194635913 0.562569141 -0.330224901
v -0.187513486 0.567064524 -0.283690125
v 0.123251304 0.681425214 0.881239176
v 0.119917333 0.6815961 0.883534014
v 0.11287304 0.681802034 0.886740863
v 0.109266192 0.681874454 0.888033509
v 0.105697371 0.681959689 0.88945663
v 0.0986402854 0.682156622 0.89256984
v 0.0952295512 0.682294548 0.894527256
v 0.089485459 0.682933569 0.9021281
v 0.0872293934 0.683457553 0.908002198
v 0.0851925388 0.684050918 0.914578736
v 0.0744046271 0.684231639 0.897970736
v 0.0669758543 0.68429935 0.899771035
v -0.467894018 0.51429975 -0.898815334
v -0.474663317 0.522286713 -0.911390841
v -0.477689534 0.52536881 -0.910928488
v -0.483811229 0.531509221 -0.91024071
v -0.491023332 0.539435983 -0.924169242
v -0.497367203 0.545527816 -0.924169242
v -0.503703237 0.551621914 -0.924143434
v -0.504428208 0.559316337 -0.905706108
v -0.510747313 0.565384388 -0.905706108
v -0.518250704 0.571127474 -0.909558296
v -0.527879059 0.5740996 -0.90952301
v -0.534210861 0.580172956 -0.909540951
v -0.539456844 0.580434144 -0.905578494
v -0.541578114 0.575434744 -0.891168177
v -0.552957177 0.571843445 -0.896219969
v -0.561836898 0.568919659 -0.893302441
v -0.564697206 0.565940976 -0.891843736
v -0.570024014 0.56009084 -0.887695074
v -0.574201047 0.55455935 -0.879979074
v -0.583502829 0.547611892 -0.888183534
v -0.583890498 0.53922832 -0.878534377
v -0.588608861 0.529617071 -0.882272005
v -0.590303421 0.523014307 -0.886959255
v -0.598746419 0.516241491 -0.892350674
v 0.0107966429 0.700028896 0.996806979
v 0.00931606814 0.700681865 1.00415921
v 0.00388926547 0.702550948 1.0052408
v 0.00111437577 0.702820837 1.00860655
v -0.00356763322 0.701252103 1.01223302
v -0.00702998508 0.700033009 1.01945651
v -0.0131894387 0.699332952 1.01273441
v -0.508693993 0.561163366 -0.417249292
v -0.51809603 0.560099006 -0.427464694
v -0.521609128 0.560697436 -0.420460016
v -0.0429219306 0.69726485 0.994529068
v -0.0442647487 0.697933376 1.00198424
v -0.049788937 0.699792206 1.00286222
v -0.0533661731 0.699837685 1.00386989
v -0.0588901043 0.701696396 1.00474787
v -0.0650020465 0.702065885 1.00968349
v -0.0702661797 0.701659977 1.00596213
v -0.0748441666 0.697767496 1.00456488
v -0.111862212 0.685044825 0.913276911
v -0.11568822 0.685058236 0.913974166
v -0.126779258 0.684160411 0.905952156
v -0.130786225 0.684129179 0.906196833
v -0.140938878 0.683499098 0.900909722
v -0.145422876 0.683344901 0.899904907
v -0.149396613 0.68332684 0.900286019
v -0.156948254 0.683395684 0.90211612
v -0.160724059 0.683430076 0.90303117
v -0.169529334 0.683173656 0.901555359
v -0.177432835 0.682142079 0.891638517
v -0.18859069 0.681294978 0.884169936
v -0.19273074 0.681244314 0.884225547
v -0.196869224 0.681194663 0.884291649
v -0.195958078 0.681011558 0.902944326
v -0.201059565 0.680711567 0.900490224
v -0.213237837 0.679619491 0.890627086
v -0.217789292 0.679466605 0.889659703
v -0.232546732 0.677750766 0.873526514
v -0.239145279 0.677096367 0.86751467
v -0.223229438 0.680617213 0.923235297
v -0.231837675 0.679448307 0.912121058
v -0.259535849 0.67454505 0.864271224
v -0.269573539 0.673056901 0.849986911
v -0.243077725 0.679119885 0.930671573
v -0.250367939 0.67828846 0.922997594
v -0.27626434 0.673879504 0.880431294
v -0.284477353 0.672849596 0.870805502
v -0.301429778 0.669706583 0.840240359
v -0.322504103 0.666575015 0.810399532
v -0.326752126 0.666535676 0.810608387
v -0.334964365 0.666526198 0.811712086
v -0.340341657 0.666219413 0.809274316
v -0.350638747 0.665720642 0.805538177
v -0.357237309 0.665132284 0.800318599
v -0.359292001 0.66410315 0.811009407
v -0.364175826 0.663918316 0.809796929
v -0.370288044 0.663446784 0.805769265
v -0.382523149 0.662510693 0.797789633
v -0.386750013 0.662486732 0.798161089
v -0.396677762 0.66209954 0.795576453
v -0.389742494 0.662180364 0.816494942
v -0.397499412 0.662284613 0.818723023
v -0.404129475 0.661703944 0.813674092
v -0.392993093 0.663691998 0.853405654
v -0.396898925 0.663727582 0.854352236
v -0.397842616 0.662938952 0.86689204
v -0.401734322 0.662974417 0.867835164
v -0.416986704 0.661342502 0.853376806
v -0.420900136 0.661378145 0.854325175
v -0.42921713 0.658897877 0.850699902
v -0.437333882 0.657980919 0.842571318
v -0.447808236 0.655007601 0.834416449
v -0.463173598 0.653389573 0.820340693
v -0.468513846 0.650641143 0.813922644
v -0.484329402 0.643943369 0.790229023
v -0.4860304 0.635436356 0.787706256
v -0.485204667 0.631572843 0.790012538
v -0.478544623 0.625077546 0.805276096
v -0.478346229 0.621084452 0.806244969
v -0.48068431 0.614953458 0.806831121
v -0.483487666 0.612747014 0.805887461
v -0.492878705 0.604804337 0.791566968
v -0.496211678 0.600295544 0.770471513
v -0.502833307 0.595980108 0.75185585
v -0.507897139 0.59092772 0.72675401
v -0.510820508 0.586383879 0.706023395
v -0.508103848 0.58596915 0.701966405
v -0.510280967 0.581565976 0.682586849
v -0.506941855 0.58130604 0.67978847
v -0.508395135 0.577045202 0.661745369
v -0.503644466 0.575976372 0.651751518
v -0.508763671 0.571841836 0.635640919
v -0.501936734 0.571317494 0.630022585
v -0.502532184 0.568402827 0.623784125
v -0.500847399 0.566420197 0.60659188
v -0.502563298 0.563159645 0.597763598
v -0.500674009 0.561191499 0.580748141
v -0.491228998 0.562625825 0.591362953
v -0.501945734 0.55546689 0.551231503
v -0.493740231 0.556551158 0.559028506
v -0.495493442 0.551907361 0.538933456
v -0.490096539 0.549325049 0.535092533
v -0.493650287 0.546948731 0.515828192
v -0.490274489 0.543730319 0.507171094
v -0.485901445 0.543690443 0.506111324
v -0.507563591 0.531299651 0.44482097
v -0.509430885 0.524793386 0.42949605
v -0.512365282 0.517899394 0.411563009
v -0.517943323 0.510104835 0.387279332
v -0.523987949 0.500513136 0.367959797
v -0.531088352 0.488929421 0.352341533
v -0.533108711 0.483608454 0.348147273
v -0.540192842 0.475032449 0.338285178
v -0.539964318 0.470433235 0.339401066
v -0.537969589 0.466438025 0.344675571
v -0.544669747 0.457926482 0.335759491
v -0.547050297 0.450888604 0.337017745
v -0.547917664 0.445891142 0.335565329
v -0.550246239 0.438862473 0.336954385
v -0.554093242 0.431281149 0.334800452
v -0.554677725 0.426363707 0.334020525
v -0.559674323 0.421563596 0.334872276
v -0.561965823 0.414528549 0.336370707
v -0.561729133 0.409905523 0.337508887
v -0.563699961 0.402988225 0.339753509
v -0.563612521 0.398308307 0.340545982
v -0.567051172 0.39082408 0.339397162
v -0.569405437 0.385188222 0.334545851
v -0.575825751 0.37650457 0.326542795
v -0.57574743 0.37179172 0.327319056
v -0.582335711 0.362989843 0.318972021
v -0.570180357 0.363133967 0.347552896
v -0.570431709 0.356911421 0.353754759
v -0.569481134 0.352582604 0.356532663
v -0.572335958 0.345302522 0.356746346
v -0.574306667 0.338385582 0.358990848
v -0.57828635 0.330619037 0.356647551
v -0.578056216 0.325987518 0.357771307
v -0.578493714 0.321069449 0.357371002
v -0.581179261 0.313832074 0.357998908
v -0.580948889 0.309196293 0.359123677
v -0.583190024 0.298728973 0.355220795
v -0.585680604 0.291555434 0.356310904
v -0.583287239 0.287882388 0.362352222
v -0.583374262 0.283099562 0.362756401
v -0.585897267 0.272449493 0.35823071
v -0.589323699 0.264827549 0.3572101
v -0.58764708 0.260847896 0.361614794
v -0.58769989 0.256065547 0.362099767
v -0.59254241 0.247757345 0.35788548
v -0.592753291 0.238116652 0.358622909
v -0.590937316 0.234220713 0.363335013
v -0.590398431 0.229714185 0.36515975
v -0.59720403 0.220390812 0.356542349
v -0.595697105 0.216349512 0.360550374
v -0.594710886 0.207278639 0.363992482
v -0.594479144 0.202614352 0.365124196
v -0.595716059 0.192420915 0.363556504
v -0.595484018 0.187751442 0.364689469
v -0.59705317 0.177359194 0.362377077
v -0.596749127 0.172720879 0.363673091
v -0.596516788 0.168045402 0.364807516
v -0.597663999 0.157839164 0.363449484
v -0.5984236 0.152629137 0.362352818
v -0.59882772 0.142792627 0.362670034
v -0.600118816 0.137278676 0.360380262
v -0.600242615 0.132392883 0.360716045
v -0.597544193 0.125333637 0.361854434
v -0.599491715 0.114602335 0.358698726
v -0.596442997 0.112556197 0.36000517
v -0.598035932 0.101993151 0.357643008
v -0.597802222 0.0972892791 0.358784318
v -0.597530246 0.0888107494 0.354435235
v -0.597587526 0.0839306787 0.354921162
v -0.599007845 0.0744256079 0.346732914
v -0.605456531 0.0657713935 0.332782865
v -0.606079996 0.0556292534 0.33261317
v -0.608927488 0.0529264957 0.33243987
v -0.609424114 0.0428422429 0.332562715
v -0.609807611 0.0377137698 0.332320154
v -0.609820843 0.027905399 0.333533883
v -0.60958451 0.0231480952 0.334688157
v -0.61119616 0.0123403864 0.332305431
v -0.611224592 0.00741129275 0.332864553
v -0.612918556 0.00143669022 0.329676867
v -0.614731491 -0.00955234934 0.326848209
v -0.614669502 -0.0144415684 0.327612996
v -0.616705298 -0.0215869974 0.329931676
v -0.616467893 -0.0263651498 0.331090987
v -0.620049775 -0.0345109552 0.329947531
v -0.620447576 -0.0397070833 0.329685271
v -0.621124864 -0.0500337966 0.329427093
v -0.622511804 -0.055894319 0.326952964
v -0.624212384 -0.0669314712 0.324409455
v -0.621819973 -0.069440268 0.324118704
v -0.611844897 -0.0709609538 0.335201204
v -0.613612711 -0.0820582584 0.332482427
v -0.608576655 -0.0868942365 0.332482427
v -0.604930222 -0.0926909223 0.329339325
v -0.602534771 -0.0993743986 0.323336691
v -0.59508729 -0.0975750536 0.328175515
v -0.588836789 -0.100793771 0.324557722
v -0.58216244 -0.103722781 0.321889669
v -0.582262397 -0.108012952 0.315844297
v -0.573303521 -0.108583212 0.311947018
v -0.566564262 -0.103013113 0.321126074
v -0.559553146 -0.104972117 0.312716067
v -0.557585657 -0.10707286 0.304863632
v -0.552535117 -0.106225774 0.297653317
v -0.547417045 -0.101063997 0.296568692
v -0.53557837 -0.095294714 0.30548352
v -0.536160946 -0.0907376632 0.303497553
v -0.534536362 -0.0881024152 0.294103861
v -0.537471712 -0.084478654 0.279799253
v -0.537068188 -0.0791863799 0.280171394
v -0.648725748 -0.157298699 -0.00223892578
v -0.650416493 -0.163102046 -0.0129312901
v -0.652155042 -0.174397901 -0.0231339391
v -0.656311095 -0.182848349 -0.0325350165
v -0.658907115 -0.194877103 -0.0448641516
v -0.66588515 -0.210214376 -0.0678597838
v -0.661623895 -0.216557607 -0.0710724518
v -0.664113462 -0.228721529 -0.0832986161
v -0.661310494 -0.231413126 -0.0832986161
v -0.661862552 -0.241476908 -0.0983833
v -0.655257404 -0.245430321 -0.103550546
v -0.651727736 -0.252463549 -0.108750373
v -0.63950789 -0.24721007 -0.0930676237
v -0.632599592 -0.251594424 -0.0898504555
v -0.626979828 -0.256976753 -0.0898302794
v -0.663649261 -0.296556711 -0.188009307
v -0.663552284 -0.307867974 -0.186470971
v -0.663419068 -0.313457817 -0.185489476
v -0.66366303 -0.319353431 -0.185451373
v -0.663392127 -0.330537111 -0.183476314
v -0.660353422 -0.333172917 -0.183078915
v -0.659967363 -0.344265223 -0.180816486
v -0.659621239 -0.349685252 -0.179301754
v -0.660260499 -0.361637503 -0.179605648
v -0.656352639 -0.363543719 -0.177033216
v -0.657384574 -0.375841975 -0.178325653
v -0.657750607 -0.381872088 -0.178595111
v -0.654575586 -0.39011544 -0.177218005
v -0.654302895 -0.395604581 -0.175886169
v -0.654085815 -0.406867921 -0.174046561
v -0.652342439 -0.416366071 -0.176269218
v -0.649106622 -0.41883257 -0.175391719
v -0.64954716 -0.430694312 -0.175209001
v -0.646658599 -0.433468074 -0.175209001
v -0.644092441 -0.442272991 -0.175379634
v -0.643819213 -0.447772473 -0.174045295
v -0.640656352 -0.45604676 -0.172710955
v -0.634872377 -0.461592138 -0.172699034
v -0.63237834 -0.470482379 -0.173065946
v -0.626137078 -0.475607991 -0.171892777
v -0.623720109 -0.484581321 -0.172466949
v -0.620828748 -0.487357855 -0.172466949
v -0.615045965 -0.492910892 -0.172466949
v -0.608993411 -0.498206854 -0.171770602
v -0.606102467 -0.500982881 -0.171770602
v -0.617487133 -0.0343173966 0.0187655166
v -0.520073056 0.0369266793 0.269199342
v -0.5187307 0.0427409522 0.271885306
v -0.516686082 0.0499171913 0.269556642
v -0.51692456 0.0547159463 0.268392324
v -0.514879942 0.0618921854 0.26606366
v -0.512835324 0.0690684244 0.263735026
v -0.511007547 0.0751480758 0.267637163
v -0.507580221 0.0831673667 0.268716663
v -0.507162988 0.0883558095 0.269165009
v -0.505292296 0.0954093486 0.266429007
v -0.505143285 0.105356283 0.265645355
v -0.503686786 0.107234083 0.262462556
v -0.503342807 0.117293373 0.26216343
v -0.503580511 0.122076944 0.261002809
v -0.501542389 0.129230469 0.258681506
v -0.501780033 0.13401404 0.257520884
v -0.500848591 0.140527233 0.252455086
v -0.499979615 0.145951122 0.25403893
v -0.494753748 0.158758312 0.265863866
v -0.494134188 0.164006501 0.266832858
v -0.492960483 0.170647815 0.262395829
v -0.493197203 0.175412327 0.261239797
v -0.492815167 0.185412139 0.261056274
v -0.492405355 0.190527305 0.261509448
v -0.492641836 0.195286781 0.260354638
v -0.492114127 0.201595336 0.254303724
v -0.491732746 0.211579427 0.254124343
v -0.491323411 0.216682702 0.254580677
v -0.491559893 0.221442178 0.253425866
v -0.487069428 0.23353526 0.263506889
v -0.486584812 0.238649189 0.264154464
v -0.487055898 0.248130098 0.261854112
v -0.484800607 0.250478685 0.260703921
v -0.485271662 0.259959579 0.258403569
v -0.48550719 0.264700055 0.257253379
v -0.484986871 0.274667025 0.257435799
v -0.4812828 0.281322241 0.266153723
v -0.479899675 0.286828339 0.269060463
v -0.480368584 0.296265393 0.26677072
v -0.480304867 0.30112502 0.266373128
v -0.480161548 0.310845524 0.265618503
v -0.479402512 0.316020817 0.266965151
v -0.479870766 0.325445175 0.264678508
v -0.480104893 0.33015734 0.263535202
v -0.48033902 0.334869504 0.262391865
v -0.480807275 0.344293833 0.260105252
v -0.481041402 0.349005997 0.258961916
v -0.481509656 0.358430326 0.256675303
v -0.477020353 0.365167737 0.267394662
v -0.477253675 0.369864136 0.26625517
v -0.475378215 0.380237252 0.269861162
v -0.47561118 0.384925842 0.268723547
v -0.475021064 0.394734204 0.26910302
v -0.473866165 0.399981201 0.271455199
v -0.473619819 0.409625322 0.270973235
v -0.47210452 0.411660939 0.268048346
v -0.471859097 0.42129913 0.267568082
v -0.469706148 0.426900119 0.272446454
v -0.469938189 0.431570232 0.271313339
v -0.467948407 0.438554078 0.269047111
v -0.468020082 0.448040366 0.267772615
v -0.468252063 0.452709168 0.266639829
v -0.466526836 0.458093196 0.270455062
v -0.464540422 0.46506533 0.268192619
v -0.328838915 0.516782761 0.599747181
v -0.326379955 0.514739335 0.600360036
v -0.31238994 0.515323102 0.618664503
v -0.302316159 0.517434299 0.632746398
v -0.297380924 0.514757097 0.628011227
v -0.295347512 0.510985911 0.615691483
v -0.298447996 0.506875634 0.601875842
v -0.29794237 0.502461731 0.585331023
v -0.290155441 0.500793636 0.58778733
v -0.28369832 0.498620927 0.586761057
v -0.291028887 0.492765158 0.561414957
v -0.272524118 0.496598899 0.585998297
v -0.279905647 0.490673482 0.560276031
v -0.276821822 0.487119257 0.550022542
v -0.283778667 0.479492903 0.512458801
v -0.264940739 0.485320419 0.550879061
v -0.245693445 0.489599347 0.578130841
v -0.255845875 0.482391566 0.544140458
v -0.51251322 0.368115783 -0.167766437
v -0.518146336 0.36266911 -0.167081982
v -0.517684877 0.357539475 -0.165262341
v -0.519906521 0.349741876 -0.162732065
v -0.522331119 0.341856718 -0.160755381
v -0.522064745 0.336644858 -0.159470379
v -0.5242939 0.328843027 -0.156959414
v -0.527519822 0.320598066 -0.15715529
v -0.530510902 0.317786127 -0.157266662
v -0.533393204 0.309683084 -0.156513184
v -0.532460928 0.299426675 -0.152861267
v -0.535358965 0.296650022 -0.15271157
v -0.537896574 0.288695067 -0.151018158
v -0.538076818 0.283265948 -0.150934488
v -0.540982783 0.275131345 -0.150224313
v -0.543375373 0.267234802 -0.148130178
v -0.546060741 0.259196073 -0.146817207
v -0.549416661 0.256187171 -0.147864282
v -0.548583984 0.245873705 -0.14449054
v -0.551837921 0.242907122 -0.145257756
v -0.554207206 0.235010251 -0.143086806
v -0.553947091 0.229775041 -0.141816586
v -0.556717813 0.221674785 -0.140708297
v -0.559404731 0.213612124 -0.13937217
v -0.563065052 0.205047682 -0.140600652
v -0.56561321 0.202422366 -0.139469132
v -0.568214297 0.194390893 -0.137888864
v -0.568159103 0.189038828 -0.137156203
v -0.572454512 0.180112824 -0.140014887
v -0.57563597 0.171757981 -0.139934719
v -0.577875555 0.163897336 -0.137383983
v -0.582181215 0.160328522 -0.140813649
v -0.584636748 0.152343571 -0.138814598
v -0.584391177 0.147071496 -0.137578949
v -0.587737799 0.138596609 -0.137890011
v -0.589768171 0.130837515 -0.134780139
v -0.592994571 0.127830416 -0.135365278
v -0.59523952 0.119950831 -0.132808387
v -0.599211931 0.111102767 -0.134697393
v -0.599180877 0.105697386 -0.134011999
v -0.604542613 0.0960373804 -0.139447927
v -0.604571998 0.0905837566 -0.138914987
v -0.607156515 0.0824853703 -0.137198851
v -0.609409869 0.07457643 -0.134632438
v -0.611663222 0.0666674897 -0.132066026
v -0.614902079 0.0636239499 -0.132623136
v -0.618286848 0.0550444648 -0.132927552
v -0.617690325 0.0499472916 -0.130795732
v -0.620541751 0.0416743942 -0.129737481
v -0.624727249 0.0325934626 -0.132047549
v -0.626552701 0.0260261483 -0.136044741
v -0.628814995 0.0180858932 -0.133468166
v -0.633063018 0.00892663095 -0.135893151
v -0.632798851 0.00361022237 -0.134603217
v -0.637574136 -0.00590034807 -0.138331398
v -0.637309551 -0.0112252831 -0.137039393
v -0.639826477 -0.0193445291 -0.135077581
v -0.639561832 -0.0246703066 -0.133785382
v -0.642607987 -0.0331295468 -0.133144811
v -0.644176483 -0.039631974 -0.13643755
v -0.650154829 -0.0499978438 -0.143097863
v -0.649623513 -0.060692165 -0.140503079
v -0.655038297 -0.065213576 -0.146355361
v -0.655855179 -0.076816611 -0.147114918
v -0.655588806 -0.0821780339 -0.145814061
v -0.585945606 -0.0335199498 0.0487696081
v -0.594311893 -0.0346886143 0.0347196199
v -0.604208946 -0.0334179699 0.0308469012
v -0.607253194 -0.0320120454 0.0372039489
g path_000000
l 163 162 161 160 159 158 157 156 155 154 153 152 151 150 149 148 147 146 145 144 143 142 141 140 139 138 137 136 135 134 133 132 131 130 129 128 127 126 125 124 123 122 121 120 119 118 117 116 115 114 113 112 111 110 109 108 107 106 105 104 103 102 101 100 99 98 97 96 95 94 93 92 91 90 89 88 87 86 85 84 83 82 81 80 79 78 77 76 75 74 73 72 71 70 69 68 67 66 65 64 63 62 61 60 59 58 57 56 55 54 53 52 51 50 49 48 47 46 45 44 43 42 41 40 39 38 37 36 35 34 33 32 31 30 29 28 27 26 25 24 23 22 21 20 19 18 17 16 15 14 13 12 11 10 9 8 7 6 5 4 3 2 1 757 756 755 754 753 752 751 750 749 748 747 746 745 744 743 742 741 740 739 738 737 736 735 734 733 732 731 730 729 728
g path_000001
l 164 165 166 167 168 169 170 171 172 173 174 175 176 177 178
g path_000002
l 179 180 181 182 183
g path_000003
l 186 187 188 189 190
g path_000004
l 191 192 193 194 195 196 197 198 199 200 201 202 203 204 205 206 207 208 209 210 211 212 213 214 215
g path_000005
l 217 218 219
g path_000006
l 222 223
g path_000007
l 224 225
g path_000008
l 226 227 228 229 230
g path_000009
l 231 232 233 234 235 236 237 238
g path_000010
l 239 240 241 242 243 244 245 246 247 248 249 250 251 252 253 254
g path_000011
l 255 256 257 258 259 260 261 262 263 264 265 266 267 268 269 270 271 272 273
g path_000012
l 276 277 278 279 280 281 282 283 284 285 286 287 288 289 290 291 292 293 294 295 296 297 298 299 300 301 302 303 304 305 306 307 308 309 310 311 312 313 314
g path_000013
l 315 316 317 318 319
g path_000014
l 320 321 322 323 324 325
g path_000015
l 326 327 328 329
g path_000016
l 330 331
g path_000017
l 332 333 334 335
g path_000018
l 336 337 338 339 340 341 342 343 344 345 346 347 348 349 350 351 352 353 354 355 356 357 358 359 360 361 362 363 364 365 366 367
g path_000019
l 368 369 370 371 372 373
g path_000020
l 374 375
g path_000021
l 376 377 378 379 380 381 382 383 384 385 386
g path_000022
l 387 388 389 390 391 392 393 394 395 396 397 398 399 400 401 402 403 404 405 406 407 408 409 410 411 412 413 414 415 416 417 418 419 420 421 422 423 424 425 426 427 428 429 430 431 432 433 434 435 436 437 438 439 440 441 442 443 444 445 446 447 448 449 450 451 452 453 454 455 456 457 458 459 460 461
g path_000023
l 463 464 465 466 467 468 469 470 471 472
g path_000024
l 473 474
g path_000025
l 475 476 477 478 479 480 481 482 483 484 485 486 487 488 489 490 491 492 493 494 495 496 497 498
g path_000026
l 499 500 501 502 503 504 505
g path_000027
l 506 507 508
g path_000028
l 509 510 511 512 513 514 515 516
g path_000029
l 517 518 519 520 521 522 523 524 525 526 527 528 529 530
g path_000030
l 531 532 533 534
g path_000031
l 535 536
g path_000032
l 537 538
g path_000033
l 541 542
g path_000034
l 543 544
g path_000035
l 546 547 548 549 550 551 552 553 554 555 556 557
g path_000036
l 558 559 560
g path_000037
l 561 562 563 564
g path_000038
l 565 566 567 568 569
g path_000039
l 570 571
g path_000040
l 572 573 574
g path_000041
l 575 576 577 578
g path_000042
l 583 584
g path_000043
l 585 586
g path_000044
l 587 588 589 590 591 592 593 594 595
g path_000045
l 596 597
g path_000046
l 598 599
g path_000047
l 600 601 602
g path_000048
l 603 604 605
g path_000049
l 608 609 610 611 612 613 614 615 616 617 618 619 620 621 622 623 624 625 626 627 628
g path_000050
l 629 630 631 632 633 634 635 636 637 638 639 640 641 642 643 644 645 646 647 648 649 650 651 652 653 654 655 656 657 658 659 660 661 662 663 664 665 666 667 668 669 670 671 672 673 674 675 676 677 678 679 680 681 682 683 684 685 686 687 688 689 690 691 692 693 694 695 696 697 698 699 700 701 702 703 704 705 706 707 708 709 710 711 712
g path_000051
l 713 714 715 716 717
g path_000052
l 718 719 720 721 722 723 724 725 726 727
g path_000053
l 758 909 908 907 906
g path_000054
l 759 760 761 762 763 764 765 766 767 768 769 770 771 772 773 774 775 776 777 778 779 780 781 782 783 784 785 786 787 788 789 790 791 792 793 794 795 796 797 798 799 800 801 802 803 804 805 806 807 808 809 810 811 812 813 814 815 816 817 818 819 820 821 822
g path_000055
l 823 824
g path_000056
l 825 826 827 828 829 830 831 832
g path_000057
l 835 836
g path_000058
l 841 842 843 844 845 846 847 848 849 850 851 852 853 854 855 856 857 858 859 860 861 862 863 864 865 866 867 868 869 870 871 872 873 874 875 876 877 878 879 880 881 882 883 884 885 886 887 888 889 890 891 892 893 894 895 896 897 898 899 900 901 902 903 904 905
