# Fixed world centers; Z up; paths immutable
v -0.0390804149 0.648698628 1.04591382
v -0.0384282209 0.642086089 1.04265416
v -0.0287234522 0.634726703 1.03620589
v -0.0624924749 0.634676814 1.0359199
v -0.0289375782 0.631694913 1.02968478
v -0.0397636667 0.629686654 1.02303147
v -0.0645222738 0.628995836 1.01614845
v -0.0675182715 0.626046777 1.01280546
v -0.0352869742 0.629975736 1.00672197
v -0.0829460323 0.631346643 1.00264215
v -0.091628626 0.628922164 0.999166846
v -0.114858873 0.631428957 0.99206233
v -0.110233612 0.627855361 0.98545295
v -0.0394015536 0.618074059 0.980351448
v -0.0271370392 0.61720711 0.974062026
v -0.0358090587 0.618306041 0.967263222
v -0.202257678 0.630585492 0.959491611
v -0.205853999 0.631216288 0.952511191
v -0.241367728 0.631278157 0.944540679
v -0.26870206 0.630382121 0.940206528
v -0.213061571 0.625579059 0.935022771
v -0.235375986 0.624373436 0.927327037
v -0.294294715 0.626426995 0.918225348
v -0.292918414 0.626451552 0.914741993
v -0.298967868 0.623687685 0.907427788
v -0.3460778 0.624546528 0.898427188
v -0.364039779 0.622769415 0.890485942
v -0.363061666 0.622832596 0.886922359
v -0.375236988 0.620520711 0.879153728
v -0.403303921 0.619406879 0.874245524
v -0.41885978 0.617325485 0.86620605
v -0.416614562 0.617431343 0.858988404
v -0.433426976 0.615429401 0.850794673
v -0.447808385 0.613044858 0.846359551
v -0.445912957 0.613182843 0.839065611
v -0.451416314 0.610183895 0.831351757
v -0.469845861 0.608236015 0.822879493
v -0.467041612 0.608153105 0.819314539
v -0.466580093 0.604634523 0.811874747
v -0.443821192 0.603072286 0.805801809
v -0.180567831 0.578204274 0.818335235
v -0.0820454285 0.570516706 0.817611992
v -0.111797579 0.566241026 0.808827281
v -0.0982216597 0.561967194 0.802847385
v -0.117735595 0.560145199 0.798081279
v -0.106448069 0.556058407 0.791956246
v -0.0803060085 0.554183781 0.790356696
v -0.0895047039 0.551686943 0.782837451
v -0.136076033 0.548472345 0.772501767
v -0.0981830955 0.545788109 0.771859527
v -0.104339547 0.543021441 0.764483809
v -0.127859667 0.541374624 0.759195507
v -0.120789684 0.537618041 0.752787054
v -0.133226186 0.53525418 0.744819403
v -0.144190058 0.532763362 0.736922681
v -0.123287648 0.531422436 0.735168159
v -0.117786147 0.527784526 0.728651881
v -0.18106471 0.528742552 0.719706178
v -0.20578526 0.527107477 0.71043849
v -0.210313439 0.524077415 0.702885151
v -0.152505934 0.52033323 0.704542398
v -0.192099676 0.519657731 0.693827152
v -0.212266028 0.51764518 0.684790432
v -0.131115019 0.512589216 0.685392439
v -0.155822381 0.510777473 0.679471493
v -0.164481133 0.508021474 0.671522975
v -0.139639184 0.506680787 0.666912436
v -0.21805352 0.508194506 0.655443072
v -0.218861863 0.504878283 0.648134649
v -0.208966076 0.504507065 0.641958654
v -0.207010403 0.501023233 0.634942353
v -0.145381078 0.497481942 0.634396434
v -0.15758799 0.494904667 0.625929892
v -0.146616429 0.494358748 0.623580098
v -0.229379222 0.495983332 0.607134044
v -0.235507876 0.492950886 0.599139929
v -0.236533865 0.493131101 0.595380008
v -0.146916762 0.488080978 0.598563731
v -0.230392262 0.48960796 0.581492603
v -0.228218332 0.486079365 0.574432075
v -0.230654299 0.486337364 0.570488751
v -0.171254709 0.483161122 0.570496082
v -0.235173851 0.483420044 0.555277586
v -0.157329217 0.479243129 0.557811081
v -0.226135448 0.479732096 0.541746438
v -0.228355452 0.476439357 0.53410089
v -0.238283977 0.47710216 0.529131114
v -0.223933086 0.476544529 0.523680747
v -0.225508437 0.47321108 0.516097128
v -0.215129122 0.472878397 0.510164499
v -0.222354963 0.469733417 0.505470812
v -0.225209087 0.470115811 0.497718513
v -0.223262325 0.470241517 0.490626007
v -0.244044304 0.467908204 0.480253458
v -0.24761878 0.468326718 0.472321153
v -0.236899972 0.464314759 0.466426909
v -0.229843229 0.464175761 0.460055918
v -0.229249418 0.460700095 0.452697933
v -0.232909054 0.461000651 0.448437512
v -0.223603025 0.460750282 0.442431092
v -0.232860714 0.457771063 0.433545172
v -0.233135715 0.458010286 0.426059693
v -0.231671795 0.458161891 0.418841213
v -0.240259916 0.455016851 0.413710415
v -0.23373425 0.454916954 0.407286435
v -0.506141305 0.460829645 0.355402559
v -0.511782646 0.453218728 0.35440129
v -0.514009655 0.445434153 0.353955626
v -0.514467001 0.437564373 0.353798002
v -0.517193198 0.429783672 0.353270888
v -0.51668185 0.421865106 0.353270888
v -0.51570034 0.414035887 0.349350452
v -0.531218171 0.410649061 0.346766859
v -0.534959733 0.402638912 0.354098499
v -0.520639539 0.398293883 0.352376223
v -0.539742887 0.390989274 0.349180311
v -0.541470051 0.386967838 0.352877229
v -0.544177175 0.378997028 0.356376469
v -0.546960413 0.371020436 0.359867364
v -0.549008191 0.363016993 0.363479435
v -0.546351552 0.358970076 0.363861769
v -0.551794887 0.351041257 0.366936266
v -0.543562055 0.342899263 0.368159473
v -0.554872334 0.335069776 0.370311052
v -0.551464438 0.331019431 0.370807528
v -0.545308232 0.322946519 0.37169674
v -0.543093204 0.31495139 0.371964812
v -0.554610848 0.30705604 0.374093205
v -0.558505595 0.299117357 0.373401731
v -0.551535964 0.291063249 0.37441361
v -0.55815649 0.283132434 0.373294562
v -0.55395776 0.275115758 0.373872072
v -0.54817909 0.267106384 0.374697566
v -0.558821559 0.259077579 0.376977563
v -0.544057906 0.25114575 0.37518245
v -0.545714736 0.247157067 0.374882102
v -0.557119429 0.239082918 0.377041668
v -0.558776677 0.231075883 0.376702517
v -0.558259964 0.223074406 0.376702517
v -0.557743311 0.215072945 0.376702517
v -0.557226598 0.207071483 0.376702517
v -0.552180886 0.199122488 0.377409518
v -0.570042908 0.190828606 0.378583103
v -0.569783866 0.186816335 0.378583103
v -0.569220603 0.178792536 0.378590107
v -0.568484485 0.170771986 0.378623933
v -0.567966342 0.16274792 0.378623933
v -0.568155885 0.154708624 0.378514051
v -0.568677843 0.146659002 0.378352493
v -0.568159461 0.138631791 0.378352493
v -0.560361207 0.130840808 0.375445753
v -0.566058397 0.122646093 0.374474525
v -0.567648351 0.114554435 0.374145031
v -0.568869948 0.106467076 0.373873025
v -0.556348443 0.102891341 0.371752173
v -0.567637324 0.0944631845 0.369895637
v -0.551901758 0.0870187506 0.368252218
v -0.564594209 0.0784978196 0.366162479
v -0.560153127 0.0706487745 0.362736106
v -0.553325355 0.062911056 0.359697044
v -0.569194674 0.0582044721 0.357115448
v -0.5602386 0.0505571514 0.354413837
v -0.562520921 0.0424100608 0.349906147
v -0.567620397 0.0381332636 0.349038273
v -0.554596663 0.0307016186 0.351063371
v -0.573016882 0.021713689 0.343926281
v -0.572496116 0.0136486311 0.343926281
v -0.573940694 0.00547543727 0.343606055
v -0.577148616 -0.00280513219 0.342998445
v -0.5758214 -0.0108332485 0.343129754
v -0.577629745 -0.0190524459 0.346826196
v -0.577084601 -0.0271271728 0.34683004
v -0.576449215 -0.0351960286 0.346848488
v -0.576203167 -0.043290142 0.346803844
v -0.576948106 -0.0514524095 0.346598476
v -0.576426446 -0.059531156 0.346598476
v -0.57614845 -0.0676273033 0.346558958
v -0.581020117 -0.0761014149 0.345684111
v -0.583876252 -0.0844551772 0.341050178
v -0.593658745 -0.0892666578 0.339411527
v -0.569225311 -0.0955504179 0.335160524
v -0.572906911 -0.0999137312 0.330427289
v -0.57537812 -0.104189858 0.325886697
v -0.576946974 -0.108417429 0.317397654
v -0.566908658 -0.107643135 0.310918033
v -0.55924958 -0.107060395 0.3040573
v -0.55678159 -0.106895812 0.296312481
v -0.559537649 -0.107152142 0.287649095
v -0.56161207 -0.103271306 0.283233583
v -0.545500994 -0.0939168185 0.278009325
v -0.544692278 -0.0898168832 0.274114668
v -0.543883562 -0.0857169554 0.270220011
v -0.546131313 -0.0778038278 0.261725456
v -0.550478756 -0.0740781724 0.256881744
v -0.553175509 -0.0661700293 0.248276919
v -0.552103281 -0.0661007911 0.244370505
v -0.551572382 -0.0620146394 0.236303434
v -0.55592382 -0.0582659096 0.227304637
v -0.555050075 -0.0582159199 0.219234139
v -0.556827128 -0.0583504923 0.210645884
v -0.556278348 -0.0583231486 0.202497482
v -0.567951679 -0.06323421 0.191880345
v -0.566872537 -0.0631645247 0.187948778
v -0.560248613 -0.0627100989 0.180979073
v -0.555387914 -0.0623800531 0.173669964
v -0.559246778 -0.0667520463 0.16454035
v -0.553517699 -0.0663574263 0.157413334
v -0.560545146 -0.0709587112 0.15175657
v -0.557108819 -0.0707268193 0.144152582
v -0.559499264 -0.0750118494 0.135272115
v -0.565163255 -0.0795489028 0.125678509
v -0.55939889 -0.0791313052 0.122731388
v 0.502442539 -0.00340988603 0.342755824
v 0.507076502 -0.00929343421 0.343666553
v 0.511879563 -0.015147984 0.34461388
v 0.51227951 -0.0213417597 0.34461388
v 0.510931849 -0.0276798718 0.344237745
v 0.512800455 -0.033736553 0.347722322
v 0.513200402 -0.0399293303 0.347722322
v 0.512083888 -0.0462557524 0.347397268
v 0.511935294 -0.052500695 0.347279638
v 0.51233542 -0.0586972721 0.347279638
v 0.507775664 -0.0653585419 0.346216053
v 0.50298816 -0.0720599443 0.345103353
v 0.506644905 -0.0779851824 0.342624515
v 0.506664276 -0.0811083838 0.342585504
v 0.503927827 -0.0876631886 0.338727683
v 0.505153954 -0.0938283578 0.335723549
v 0.508001208 -0.0966966823 0.333117217
v 0.516533315 -0.102125488 0.328540057
v 0.519499481 -0.101847552 0.326017499
v 0.522227347 -0.104747444 0.32022506
v 0.520264387 -0.108111814 0.316562235
v 0.521909475 -0.108005591 0.310568869
v 0.526714385 -0.107561864 0.305295497
v 0.540615022 -0.106146306 0.302123934
v 0.540821195 -0.106193498 0.295826554
v 0.531141877 -0.107297242 0.287214845
v 0.525589108 -0.104833379 0.279578924
v 0.541775286 -0.0968956575 0.283483952
v 0.544368923 -0.0935489386 0.280964702
v 0.547478974 -0.0870167613 0.281793982
v 0.520881891 -0.083509393 0.269201726
v 0.523358166 -0.0801627263 0.266638935
v 0.528548956 -0.073456645 0.261581182
v 0.505583286 -0.0725568682 0.252872825
v -0.622116446 -0.189020053 -0.0287345052
v -0.621544302 -0.193203375 -0.0329659507
v -0.628726423 -0.198159993 -0.0391054004
v -0.638963282 -0.207662106 -0.0460823551
v -0.644081235 -0.212493002 -0.0560833625
v -0.645193279 -0.216881379 -0.0607674643
v -0.634305179 -0.224292919 -0.0668499246
v -0.639151096 -0.229079381 -0.0724793077
v -0.613646448 -0.230627388 -0.0704223514
v -0.614044368 -0.239090398 -0.0706602558
v -0.611795664 -0.24731487 -0.0745474547
v -0.615081608 -0.256214529 -0.0841772184
v -0.613971353 -0.256142855 -0.088222079
v -0.613261402 -0.260388345 -0.0967740119
v -0.611040056 -0.260244906 -0.104866937
v -0.608645678 -0.260081768 -0.112914294
v -0.597867131 -0.258964539 -0.118736342
v -0.598030269 -0.259092301 -0.127449676
v -0.388736933 -0.239339143 -0.0757150427
v -0.395583034 -0.24817349 -0.0776899904
v -0.396684051 -0.256354511 -0.0781238526
v -0.401889056 -0.265035868 -0.0796591565
v -0.403003454 -0.27323848 -0.0800969526
v -0.401533812 -0.281126291 -0.0798412338
v -0.418492258 -0.291333944 -0.0845325962
v -0.422295928 -0.299924135 -0.0856931657
v -0.389136285 -0.303799957 -0.0810710266
v -0.402865022 -0.313662797 -0.0849102437
v -0.398154408 -0.321115077 -0.0837799311
v -0.416264743 -0.331644535 -0.0888016373
v -0.428192317 -0.341394693 -0.0921575353
v -0.436883539 -0.350740999 -0.0946415588
v -0.437597662 -0.358995765 -0.094974868
v -0.400695741 -0.361956239 -0.0893219262
v -0.414528072 -0.372053415 -0.0932068154
v -0.438742846 -0.383729964 -0.0999037623
v -0.446056485 -0.392985493 -0.102025673
v -0.400848567 -0.390398502 -0.0940175131
v -0.423971027 -0.402005523 -0.100443274
v -0.434572756 -0.411779672 -0.103466898
v -0.40695551 -0.415752441 -0.10027355
v -0.436689466 -0.428551137 -0.108529136
v -0.421769291 -0.434455007 -0.108790606
v -0.421508729 -0.438490123 -0.108790606
v -0.439991087 -0.449640989 -0.113996454
v -0.419135898 -0.454518735 -0.112617716
v -0.390198916 -0.453929305 -0.108898431
v -0.41648531 -0.466420919 -0.11629574
v -0.406773776 -0.473049074 -0.117944188
v -0.57191211 -0.509384632 -0.16383487
v -0.556678295 -0.515331864 -0.164098725
v -0.555688858 -0.523591936 -0.163973331
v -0.53625381 -0.524519265 -0.162961513
v -0.521071911 -0.53034842 -0.163179696
v -0.504591763 -0.535892308 -0.163005516
v -0.502371967 -0.539665282 -0.162456408
v -0.483226329 -0.544647992 -0.161497891
v -0.467263281 -0.550149143 -0.161404923
v -0.441935331 -0.549731672 -0.158547103
v -0.443687469 -0.558299541 -0.159194395
v -0.425102055 -0.563165843 -0.158287555
v -0.416148961 -0.565706193 -0.16002807
v -0.399906516 -0.570924819 -0.15973483
v -0.388662159 -0.572978795 -0.16077736
v -0.371338636 -0.577896118 -0.160116836
v -0.358577073 -0.583650231 -0.160748288
v -0.344260216 -0.589051604 -0.160903901
v -0.344002634 -0.593040824 -0.160903901
v -0.310781121 -0.594711304 -0.159640834
v -0.309114218 -0.598385513 -0.159226939
v -0.299533427 -0.604594409 -0.160691664
v -0.256078184 -0.603920937 -0.15622206
v -0.258100927 -0.608305991 -0.156896383
v -0.254827201 -0.615706146 -0.160164461
v -0.250518978 -0.618916929 -0.16304493
v -0.232418686 -0.623152018 -0.161865279
v -0.216791809 -0.627852678 -0.161394715
v -0.198070481 -0.62790966 -0.159887061
v -0.184326038 -0.632916093 -0.159924731
v -0.169134468 -0.63755703 -0.159498021
v -0.152648777 -0.637977421 -0.158573776
v -0.14376539 -0.6439237 -0.160016835
v -0.126820549 -0.644173682 -0.158897832
v -0.100865349 -0.646367311 -0.159012914
v -0.0979010016 -0.649533272 -0.158173427
v -0.0846829042 -0.654512823 -0.16214408
v -0.0715278015 -0.655485094 -0.162072867
v -0.042436827 -0.65671438 -0.16098541
v -0.0244117659 -0.65270853 -0.159230426
v -0.0111055411 -0.657479286 -0.162972778
v 0.0014098204 -0.654723465 -0.16288875
v 0.0343736149 -0.651076615 -0.160190567
v 0.0365527198 -0.654450595 -0.163420647
v 0.0647915825 -0.648129642 -0.162013784
v 0.0957052335 -0.64117378 -0.159632549
v 0.109067351 -0.642006874 -0.162946731
v 0.125722483 -0.638391316 -0.165056229
v 0.139340818 -0.635492682 -0.168111041
v 0.135951892 -0.636622906 -0.176779851
v 0.0863443092 -0.648712635 -0.200948149
v 0.0873069763 -0.648650467 -0.204455376
v 0.0990100801 -0.646206498 -0.20816572
v 0.123110704 -0.640818655 -0.207622021
v 0.146656394 -0.635558665 -0.20717822
v 0.0979388729 -0.651140153 -0.231585711
v 0.114921711 -0.647423446 -0.233384058
v 0.104393683 -0.650269508 -0.244697243
v -0.022430189 -0.684514403 -0.292893797
v -0.0121349441 -0.686192274 -0.297303706
v -0.00613458222 -0.68509686 -0.303112298
v -0.0069863433 -0.68547672 -0.307374954
v -0.00362920854 -0.685017467 -0.314108521
v 0.0348387845 -0.683438659 -0.304499209
v 0.0392029658 -0.686309338 -0.306948513
v 0.0471712127 -0.684716582 -0.311929524
v 0.0580854304 -0.682403386 -0.315818071
v 0.0738271475 -0.675181508 -0.317823738
v 0.0943025798 -0.674256265 -0.318210363
v 0.0991569087 -0.669538021 -0.320224285
v 0.10801705 -0.667726815 -0.32471478
v 0.114006616 -0.670308828 -0.330331057
v 0.112782508 -0.670955837 -0.338540018
v 0.115362376 -0.666974604 -0.345243961
v 0.115444295 -0.667127728 -0.349094093
v 0.116143763 -0.671003342 -0.356685996
v 0.117409468 -0.671041846 -0.363978654
v 0.119341828 -0.670917034 -0.371018678
v 0.120778613 -0.670913756 -0.378249586
v 0.165874928 -0.656543434 -0.368487
v 0.164324358 -0.657094002 -0.372939587
v 0.139192283 -0.663580775 -0.390459061
v 0.128203467 -0.666614294 -0.402541399
v 0.101162672 -0.673576713 -0.421009332
v 0.164751172 -0.654699087 -0.403567195
v 0.158947796 -0.660132766 -0.413714409
v 0.178434834 -0.655706584 -0.413667172
v 0.188717797 -0.653532028 -0.417253971
v 0.193870321 -0.652613282 -0.422883034
v 0.19976151 -0.651512861 -0.428197861
v 0.204426333 -0.65071243 -0.433997691
v 0.211887166 -0.645420372 -0.434695214
v 0.237150356 -0.635976911 -0.431881189
v 0.25742805 -0.627618134 -0.427230895
v 0.285917133 -0.617313027 -0.419139147
v 0.288791716 -0.609500587 -0.417760938
v 0.287915289 -0.602592409 -0.417936474
v 0.546234429 -0.538218677 -0.317877948
v 0.544275165 -0.538979709 -0.325707883
v 0.55178982 -0.544102192 -0.329747081
v 0.558259547 -0.542707086 -0.330526203
v 0.559772193 -0.539348781 -0.336800814
v 0.560963929 -0.539363861 -0.343301266
v 0.553104877 -0.541534543 -0.353676081
v 0.50886333 -0.552374721 -0.379733473
v 0.514339685 -0.554723203 -0.384596944
v 0.519264519 -0.553697228 -0.38602975
v 0.518087208 -0.5576334 -0.393761963
v 0.554042697 -0.542512774 -0.381456733
v 0.556707501 -0.545339108 -0.383914381
v 0.563937485 -0.54060328 -0.387706667
v 0.543245077 -0.54902035 -0.400441825
v 0.547538638 -0.551620781 -0.405736715
v 0.547711611 -0.548558354 -0.41266644
v 0.548580468 -0.548502207 -0.415831774
v 0.563427866 -0.54855746 -0.416383207
v 0.558786333 -0.549982131 -0.425558239
v 0.567374706 -0.548216939 -0.428776085
v 0.575953364 -0.543146193 -0.431873441
v 0.566337228 -0.549079359 -0.443440795
v 0.568218768 -0.548778355 -0.446133107
v 0.571280718 -0.548345387 -0.451833606
v 0.573882759 -0.5478701 -0.454188019
v 0.583123744 -0.542636931 -0.456918955
v 0.595138669 -0.53675288 -0.458326787
v 0.576652229 -0.544804335 -0.474140048
v 0.581999421 -0.543668926 -0.475196034
v 0.585047603 -0.543239534 -0.48087725
v 0.583752811 -0.540543497 -0.488506287
v 0.584407389 -0.537225127 -0.491658539
v 0.574393094 -0.536598146 -0.503452182
v 0.587856114 -0.530230105 -0.500507474
v 0.575203955 -0.533531547 -0.513700306
v 0.566295862 -0.539283454 -0.52525562
v 0.563361526 -0.540286481 -0.533867598
v 0.570501924 -0.538886547 -0.537606895
v 0.571292996 -0.539001167 -0.544420183
v 0.573036253 -0.538888574 -0.550771117
v 0.566353083 -0.537443399 -0.561164737
v 0.572287738 -0.536334157 -0.565461576
v 0.568931282 -0.534089863 -0.574247718
v 0.572455883 -0.533405006 -0.576112807
v 0.573989749 -0.529999495 -0.582475781
v 0.572001517 -0.527273357 -0.5869838
v 0.574291468 -0.527032912 -0.593079209
v 0.572625697 -0.527723551 -0.601170659
v 0.563623667 -0.526783109 -0.612891138
v 0.571564376 -0.525218964 -0.616133034
v 0.571920395 -0.52528435 -0.619589508
v 0.57196784 -0.522216558 -0.626737237
v 0.567828357 -0.519972861 -0.632398188
v 0.566090882 -0.520672619 -0.640595973
v 0.567634165 -0.517246187 -0.646997869
v 0.56939137 -0.517132759 -0.653399765
v 0.570056021 -0.51376307 -0.656600714
v 0.564676166 -0.515298724 -0.666740775
v 0.566222787 -0.51186496 -0.6731565
v 0.567983806 -0.511751235 -0.679572165
v 0.569744766 -0.511637568 -0.68598789
v 0.571291387 -0.508203745 -0.692403555
v 0.573052406 -0.508090079 -0.69881928
v 0.574813366 -0.507976353 -0.705234945
v 0.575479507 -0.504599392 -0.708442807
v 0.575137794 -0.504966557 -0.715994716
v 0.576899886 -0.504852712 -0.722414494
v 0.578662038 -0.504738927 -0.728834271
v 0.580209613 -0.501303017 -0.735254049
v 0.581971705 -0.501189232 -0.741673827
v 0.592969477 -0.498968899 -0.74300015
v 0.594726682 -0.498855442 -0.749401927
v 0.596483827 -0.498741955 -0.755803704
v 0.598454952 -0.501941383 -0.762205541
v 0.599333525 -0.501884639 -0.76540643
v 0.585016429 -0.505460322 -0.780836344
v 0.586782217 -0.505346298 -0.787269533
v 0.588548005 -0.505232275 -0.793702722
v 0.574276805 -0.50880307 -0.809251785
v 0.573805094 -0.509204805 -0.816998184
v 0.57337153 -0.509598136 -0.8247329
v 0.57199502 -0.513611913 -0.833144605
v 0.570102096 -0.514345765 -0.8417449
v 0.567977786 -0.518545151 -0.850621939
v 0.569760561 -0.518430054 -0.857117057
v 0.586421013 -0.518103123 -0.851293266
v 0.589091599 -0.52426672 -0.849987388
v 0.590569198 -0.530857861 -0.85312444
v 0.592248559 -0.537399948 -0.856142879
v 0.592464387 -0.540742517 -0.856142879
v 0.601968527 -0.545382261 -0.854566813
v 0.608258247 -0.547393262 -0.854735315
v 0.599886119 -0.556216717 -0.859913707
v 0.590758324 -0.565427125 -0.869296074
v 0.589508832 -0.572710097 -0.874049664
v 0.598478079 -0.574192882 -0.87638855
v 0.610815823 -0.57125622 -0.872815073
v 0.620836973 -0.572444081 -0.874459147
v 0.622814834 -0.575654447 -0.8808828
v 0.623696387 -0.575597525 -0.884094656
v 0.625459611 -0.57548362 -0.890518367
v 0.62700814 -0.572045565 -0.896942019
v 0.628556669 -0.568607569 -0.903365731
v 0.629223585 -0.565226436 -0.906577528
v 0.630772114 -0.56178838 -0.913001239
v 0.645853758 -0.554978669 -0.911135495
v 0.650004447 -0.550746441 -0.91219449
v 0.651331306 -0.544019639 -0.918584466
v 0.64763248 -0.541567206 -0.920730889
v 0.63464886 -0.537998259 -0.928462327
v 0.61536032 -0.536209226 -0.9476282
v 0.601016462 -0.536412239 -0.960155249
v 0.602798462 -0.536297143 -0.966647565
v 0.604580522 -0.536182106 -0.973139942
v 0.598329902 -0.534421682 -0.980713069
v 0.599569201 -0.531017959 -0.987425566
v 0.606385767 -0.52257055 -0.982878447
v 0.605951846 -0.51585114 -0.982878447
v 0.595488846 -0.511608779 -0.992983103
v 0.601538599 -0.506938279 -0.992859244
v 0.601103961 -0.500207424 -0.992859244
v 0.599776804 -0.493534207 -0.989607573
v 0.595809042 -0.487454563 -0.988010526
v 0.595591545 -0.484086424 -0.988010526
v 0.584491372 -0.482858539 -0.987179816
v 0.580149651 -0.480113328 -0.982103467
v 0.578356922 -0.48022908 -0.975572288
v 0.58038187 -0.479499936 -0.966684759
v 0.578591228 -0.479615569 -0.96016109
v 0.588255227 -0.477198094 -0.946620464
v 0.61145407 -0.468404442 -0.92474103
v 0.603408813 -0.466643542 -0.925744772
v 0.602305472 -0.463355273 -0.922512293
v 0.591173768 -0.458703965 -0.921451271
v 0.599010527 -0.456879377 -0.91293633
v 0.595603406 -0.453952104 -0.907323658
v 0.590667605 -0.451347947 -0.902621031
v 0.582531333 -0.449548393 -0.903592229
v 0.578104556 -0.446819186 -0.898552537
v 0.576075792 -0.443580657 -0.892077565
v 0.576087773 -0.443448454 -0.888296068
v 0.573185682 -0.440393388 -0.882338643
v 0.567254066 -0.437966108 -0.87815845
v 0.570309103 -0.437075675 -0.868823469
v 0.568296492 -0.433961302 -0.866106987
v 0.566700339 -0.434037954 -0.859506071
v 0.564701378 -0.430793315 -0.853013813
v 0.56783241 -0.429898798 -0.843683183
v 0.56583643 -0.426658988 -0.837200522
v 0.564946711 -0.426716417 -0.833959162
v 0.564670146 -0.426524341 -0.826616883
v 0.561758101 -0.423472285 -0.820659578
v 0.563772798 -0.422816634 -0.812025249
v 0.562379479 -0.4228535 -0.80533427
v 0.566427112 -0.421786129 -0.795582056
v 0.557107627 -0.420036227 -0.79322964
v 0.5564484 -0.419925332 -0.786128819
v 0.555055857 -0.419962525 -0.77944082
v 0.553279042 -0.420077264 -0.772967517
v 0.552471876 -0.41999656 -0.765959203
v 0.5515365 -0.419941813 -0.759025693
v 0.550199032 -0.419968188 -0.752315998
v 0.552021563 -0.419358373 -0.743886113
v 0.552341878 -0.419051439 -0.736287594
v 0.555304468 -0.418213159 -0.727270246
v 0.554199636 -0.418193668 -0.720463395
v 0.556068838 -0.417576313 -0.712065279
v 0.554301083 -0.417690456 -0.705624878
v 0.566904426 -0.41839993 -0.695333838
v 0.566696823 -0.418200076 -0.688095152
v 0.564936876 -0.418313712 -0.681683481
v 0.56317699 -0.418427348 -0.675271809
v 0.553413332 -0.420155138 -0.673053324
v 0.551649153 -0.420269042 -0.666626215
v 0.549885035 -0.420382977 -0.660199046
v 0.548120916 -0.420496881 -0.653771877
v 0.546356738 -0.420610785 -0.647344768
v 0.565027535 -0.419959784 -0.630546451
v 0.563274086 -0.420073003 -0.624158323
v 0.555716038 -0.421359777 -0.620721877
v 0.553959489 -0.421473205 -0.614322543
v 0.550862551 -0.421857446 -0.608598948
v 0.558989823 -0.423321068 -0.59734261
v 0.558113813 -0.423377633 -0.59415096
v 0.556361675 -0.423490763 -0.587767661
v 0.553464532 -0.423836112 -0.58195287
v 0.547032595 -0.42489779 -0.577880383
v 0.567215741 -0.423896194 -0.56079334
v 0.549566567 -0.42724666 -0.562234342
v 0.547814429 -0.42735979 -0.555850983
v 0.576134264 -0.424672335 -0.534965456
v 0.575266063 -0.424728394 -0.531802416
v 0.559581161 -0.427690417 -0.532205582
v 0.557837427 -0.42780304 -0.52585274
v 0.550901234 -0.428975761 -0.521982491
v 0.592840612 -0.423464924 -0.494927377
v 0.597246706 -0.422319472 -0.485743314
v 0.589412749 -0.420391083 -0.48225987
v 0.598045826 -0.41839087 -0.47111845
v 0.597525477 -0.418257713 -0.464299232
v 0.596916735 -0.418142736 -0.457526296
v 0.595199823 -0.418253601 -0.451271206
v 0.570985198 -0.419642955 -0.455287844
v 0.570120931 -0.419698745 -0.45213908
v 0.568392396 -0.419810385 -0.445841581
v 0.566663802 -0.419921994 -0.439544052
v 0.564724803 -0.41677472 -0.433246523
v 0.547806382 -0.416627407 -0.433707207
v 0.603330314 -0.402132004 -0.405068755
v 0.602300048 -0.395703971 -0.40185231
v 0.601884484 -0.389268428 -0.40185231
v 0.609972119 -0.384329021 -0.394646496
v 0.609557688 -0.377911419 -0.394646496
v 0.609143317 -0.371493816 -0.394646496
v 0.608728886 -0.365076214 -0.394646496
v 0.608314455 -0.358658582 -0.394646496
v 0.608234525 -0.352281243 -0.397978544
v 0.607820094 -0.345862597 -0.397978544
v 0.608671129 -0.339215785 -0.397411019
v 0.608049512 -0.336179703 -0.401079386
v 0.607635021 -0.329761088 -0.401079386
v 0.610306382 -0.322801232 -0.399692655
v -0.63110745 -0.531848252 -0.966915548
v -0.630703747 -0.531906068 -0.971540213
v -0.628355801 -0.531754434 -0.980094194
v -0.627467692 -0.527252018 -0.984371185
v -0.626865447 -0.518323004 -0.988648176
v -0.622752011 -0.508801758 -0.991318047
v -0.623323262 -0.499955475 -0.991318047
v -0.628186464 -0.491816044 -0.99328202
v -0.62964654 -0.487464488 -0.989004314
v -0.643119216 -0.480581433 -0.990066707
v 0.6177091 -0.273427278 -0.412339896
v 0.61822933 -0.266958714 -0.415393233
v 0.619030595 -0.260446459 -0.418318182
v 0.618744493 -0.257336527 -0.421834171
v 0.619657338 -0.250807047 -0.4247078
v 0.623340189 -0.243784875 -0.422830582
v 0.622927427 -0.237392634 -0.422830582
v 0.618771017 -0.234856024 -0.428122103
v 0.618357658 -0.228454351 -0.428122103
v 0.617944241 -0.222052693 -0.428122103
v 0.613680422 -0.216201365 -0.429889828
v 0.615862906 -0.209426194 -0.428698003
v 0.613702595 -0.203328028 -0.43298611
v 0.617981851 -0.196275815 -0.43082732
v 0.611521542 -0.193987176 -0.437193573
v 0.618210614 -0.18662101 -0.433919162
v 0.611543715 -0.181104347 -0.44029215
v 0.611980021 -0.17463547 -0.443390727
v 0.616741002 -0.167558327 -0.440994978
v 0.616787136 -0.161096528 -0.440782219
v 0.616373718 -0.154693633 -0.440782219
v 0.61596024 -0.148290738 -0.440782219
v 0.615086913 -0.141943142 -0.440994978
v 0.614673376 -0.135539353 -0.440994978
v 0.614259899 -0.129135549 -0.440994978
v 0.613846362 -0.12273176 -0.440994978
v 0.613538086 -0.11631614 -0.440946311
v 0.613846362 -0.12273176 -0.440994978
v 0.617919087 -0.125444919 -0.435725361
v 0.618332028 -0.131839469 -0.435725361
v 0.61874491 -0.138234019 -0.435725361
v 0.619157851 -0.144628569 -0.435725361
v 0.618722856 -0.151077867 -0.432636142
v 0.619135737 -0.157472417 -0.432636142
v 0.621627331 -0.163602725 -0.431678385
v 0.614024103 -0.167744532 -0.431791842
v 0.621398926 -0.17324315 -0.428591132
v 0.620505273 -0.179748923 -0.425714433
v 0.621376812 -0.186078802 -0.42550391
v 0.601653576 -0.195085973 -0.427752614
v 0.60186106 -0.198299289 -0.427752614
v 0.60142386 -0.204780951 -0.424647927
v 0.597374856 -0.208525494 -0.423091292
v 0.609254658 -0.213201165 -0.410913497
v 0.61006248 -0.209789768 -0.406976134
v 0.593424737 -0.205638349 -0.414301723
v 0.613086045 -0.196393803 -0.401765645
v 0.612673104 -0.189999163 -0.401765645
v 0.619564354 -0.182633892 -0.39847666
v 0.617742717 -0.179599851 -0.395740032
v 0.57490778 -0.178673103 -0.411286563
v 0.584789515 -0.170892462 -0.406672359
v 0.604640424 -0.165018946 -0.390741467
v 0.61950326 -0.159973055 -0.387478203
v 0.611982346 -0.154531971 -0.39411971
v 0.605696678 -0.148860291 -0.396750033
v 0.605283439 -0.14246057 -0.396750033
v 0.604870141 -0.136060849 -0.396750033
v 0.60360831 -0.129715934 -0.39365831
v 0.604250312 -0.126461267 -0.396750033
v 0.6044572 -0.123256274 -0.400036961
v 0.613408864 -0.119101964 -0.402857959
v 0.615353286 -0.11896421 -0.408914506
v 0.617046714 -0.118854858 -0.415084153
v 0.615336835 -0.119130947 -0.42280969
v 0.61908108 -0.112355314 -0.427855253
v 0.619928062 -0.112300619 -0.430940986
v 0.616206527 -0.106237173 -0.428985775
v 0.614501655 -0.103166349 -0.42619592
v 0.610442519 -0.0971252918 -0.424386054
v 0.611474335 -0.0938299522 -0.427298784
v 0.613189936 -0.0904977843 -0.433376968
v 0.611021638 -0.0842477456 -0.430702478
v 0.610372186 -0.0778720006 -0.430810869
v 0.603271663 -0.0721018463 -0.430391937
v 0.603064656 -0.0688961595 -0.430391937
v 0.602650642 -0.0624847896 -0.430391937
v 0.601386487 -0.0561283156 -0.427294582
v 0.602274179 -0.0495747849 -0.423217148
v 0.599915266 -0.0465661585 -0.424197257
v 0.598651111 -0.0402096882 -0.421099931
v 0.595631063 -0.0340053551 -0.418798357
v 0.593313038 -0.0277517755 -0.419661045
v 0.594159126 -0.0244380813 -0.415699363
v 0.591840208 -0.0181789547 -0.416560262
v 0.590574622 -0.0118153924 -0.41345948
v 0.589309037 -0.0054518315 -0.410358697
v 0.589101791 -0.00224257144 -0.410358697
v 0.587836206 0.0041209897 -0.407257915
v 0.585022509 0.010371699 -0.404849917
v 0.580490232 0.0165011529 -0.406692326
v 0.583548963 0.0199490227 -0.401747674
v 0.577716827 0.0260021817 -0.404165536
v 0.574070871 0.0322221778 -0.402116716
v 0.572801709 0.0386037901 -0.399007112
v 0.569299161 0.0416142307 -0.400470138
v 0.570394754 0.0481468923 -0.396309435
v 0.567332327 0.0544287451 -0.39748162
v 0.568888068 0.0577478632 -0.393211931
v 0.564837575 0.0639819205 -0.394817561
v 0.564863801 0.0704428554 -0.391132087
v 0.562761843 0.0767977014 -0.39187485
v 0.561490774 0.0831889212 -0.388760597
v 0.558479726 0.0862864628 -0.393486112
v 0.558062971 0.0927399918 -0.393486112
v 0.556790471 0.0991382599 -0.390368402
v 0.556373775 0.105591789 -0.390368402
v 0.555309653 0.108763292 -0.387250692
v 0.554892898 0.115216821 -0.387250692
v 0.553620458 0.121615089 -0.384133011
v 0.552347958 0.128013358 -0.381015301
v 0.533941627 0.1305632 -0.385439098
v 0.532871962 0.133751243 -0.382305145
v 0.523078322 0.139929608 -0.386371285
v 0.52751869 0.14655669 -0.380752563
v 0.521163404 0.152878404 -0.383320332
v 0.520425618 0.159343243 -0.379942238
v 0.519882858 0.162586883 -0.380085826
v 0.519366801 0.169089884 -0.380127221
v 0.518513024 0.175549269 -0.376799822
v 0.517473876 0.182041362 -0.377066165
v 0.517020404 0.18525061 -0.373657405
v 0.515981019 0.191744491 -0.373923182
v 0.515560925 0.198250383 -0.373923182
v 0.514278114 0.204700559 -0.37078017
v 0.51385802 0.211206451 -0.37078017
v 0.513074815 0.217708811 -0.370935529
v 0.511853933 0.224160179 -0.367765725
v 0.503713548 0.230621263 -0.371060014
v 0.502136111 0.237085655 -0.368033618
v 0.501719952 0.240346029 -0.368121088
v 0.497844845 0.246864691 -0.369590878
v 0.497044444 0.253394037 -0.369752049
v 0.496622771 0.259923786 -0.369752049
v 0.495732605 0.26645577 -0.369951338
v 0.494913638 0.272927403 -0.366597533
v 0.494491965 0.279457152 -0.366597533
v 0.494070321 0.2859869 -0.366597533
v 0.493648678 0.292516649 -0.366597533
v 0.493227035 0.299046397 -0.366597533
v 0.48803246 0.30565384 -0.36862132
v 0.487610221 0.312192798 -0.36862132
v 0.485229522 0.318771183 -0.369451523
v 0.484630644 0.3253178 -0.369526297
v 0.484208137 0.33186087 -0.369526297
v 0.48339653 0.338414043 -0.369691163
v 0.482973963 0.344957858 -0.369691163
v 0.482551426 0.351501673 -0.369691163
v 0.482128859 0.358045489 -0.369691163
v 0.481706291 0.364589334 -0.369691163
v 0.482151449 0.371189177 -0.372852474
v 0.48194018 0.374461085 -0.372852474
v -0.463360757 0.417427778 -0.778416276
v -0.47984919 0.41829136 -0.794498086
v -0.485654056 0.418745011 -0.806067646
v -0.492349565 0.419233888 -0.818055153
v -0.490384936 0.423595726 -0.826204896
v -0.488147974 0.423740178 -0.834354639
v -0.487301826 0.428029805 -0.838429451
v -0.485064894 0.428174257 -0.846579194
v -0.483100265 0.432536125 -0.854728937
v -0.496038109 0.43331483 -0.869603395
v -0.485239089 0.437193632 -0.869272947
v -0.487846226 0.441761106 -0.879473567
v -0.491246104 0.446373463 -0.890048563
v -0.494881123 0.451007575 -0.90075177
v -0.508172512 0.451741546 -0.911353707
v -0.493535429 0.459771097 -0.913705111
v -0.49268496 0.464082658 -0.917800784
v -0.491460502 0.468375534 -0.921726108
v 0.475204915 0.423666179 -0.488450348
v 0.476011693 0.42382744 -0.495266557
v 0.477739424 0.423941851 -0.50166142
v 0.479491591 0.42405498 -0.508045018
v 0.481243789 0.42416814 -0.514428616
v 0.482995987 0.424281269 -0.520812213
v 0.464064658 0.422141612 -0.537024796
v 0.452032357 0.422949851 -0.549965739
v 0.453802466 0.423064142 -0.556414604
v 0.444655329 0.420392096 -0.568171263
v 0.445543259 0.420449436 -0.571406186
v 0.44731912 0.420564115 -0.577876031
v 0.449094981 0.420678794 -0.584345877
v 0.451087028 0.417445362 -0.590815723
v 0.452862889 0.417560041 -0.597285569
v 0.449378639 0.417931587 -0.606325269
v 0.456630826 0.414441317 -0.61022526
v 0.457518756 0.414498627 -0.613460183
v 0.459294617 0.414613307 -0.619930089
v 0.450079024 0.415256292 -0.631852746
v 0.441702425 0.415860176 -0.643404663
v 0.464838386 0.411609232 -0.639339626
v 0.466614246 0.411723912 -0.645809472
v 0.457422227 0.412357599 -0.657815337
v 0.449067384 0.41295287 -0.669444263
v 0.450854212 0.413068265 -0.675954163
v 0.445445538 0.413525403 -0.686142743
v 0.447236151 0.413641036 -0.692666292
v 0.456432313 0.410045594 -0.695483863
v 0.451035351 0.410496384 -0.705713451
v 0.452825963 0.410612017 -0.712237
v 0.454616547 0.41072765 -0.71876061
v 0.45640716 0.410843283 -0.725284159
v 0.458197773 0.410958886 -0.731807768
v 0.459988385 0.411074519 -0.738331318
v 0.461778969 0.411190152 -0.744854867
v 0.463569582 0.411305785 -0.751378477
v 0.456133127 0.411856502 -0.762840807
v 0.457928568 0.411972433 -0.769382
v 0.442846537 0.416277379 -0.784912348
v 0.443748623 0.416335613 -0.788198888
v 0.445552826 0.41645211 -0.794771969
v 0.447357029 0.416568637 -0.801344991
v 0.449161202 0.416685134 -0.807918072
v 0.450745761 0.420203149 -0.814491153
v 0.452549964 0.420319647 -0.821064234
v 0.454354137 0.420436144 -0.827637315
v 0.45615834 0.420552641 -0.834210396
v 0.45774287 0.424070656 -0.840783477
v 0.458644986 0.42412892 -0.844070017
v 0.460449189 0.424245417 -0.850643098
v 0.462033719 0.427763432 -0.857216179
v 0.463837922 0.42787993 -0.86378926
v 0.465422451 0.431397945 -0.870362341
v 0.466324568 0.431456208 -0.873648882
v 0.467909098 0.434974223 -0.880221963
v 0.4697133 0.435090721 -0.886795044
v 0.47129783 0.438608736 -0.893368125
v 0.47288239 0.442126751 -0.899941206
v 0.473784477 0.442184985 -0.903227746
v 0.475369036 0.445703 -0.909800768
v 0.47605148 0.449162751 -0.913087308
v 0.477636009 0.452680767 -0.919660389
v 0.479220569 0.456198782 -0.92623347
v 0.479903013 0.459658563 -0.929520011
v 0.481487572 0.463176578 -0.936093092
v 0.482170016 0.46663633 -0.939379632
v 0.482904315 0.473479778 -0.94250536
v 0.480068684 0.477173924 -0.947879434
v 0.474752963 0.477766097 -0.958701253
v 0.468474597 0.478423625 -0.970130801
v 0.470288604 0.478540748 -0.976739645
v 0.467881024 0.482349902 -0.985758722
v 0.474018961 0.485456318 -0.98577714
v 0.480205655 0.49182272 -0.98177731
v 0.479765028 0.498646498 -0.98177731
v 0.478419542 0.505411863 -0.978480697
v 0.469285071 0.512904882 -0.983715236
v 0.474940896 0.515996397 -0.984022677
v 0.479066372 0.515932739 -0.989222169
v 0.491408616 0.515226424 -0.989417791
v 0.487538338 0.522306919 -0.991502464
v 0.482681245 0.529349506 -0.990342259
v 0.476836592 0.533092976 -0.989904702
v 0.475710601 0.536448956 -0.986605704
v 0.474441051 0.536286533 -0.97968173
v 0.476241857 0.535866678 -0.970919311
v 0.479229212 0.535347939 -0.961464465
v 0.513726592 0.538892746 -0.933022082
v 0.516230166 0.541890502 -0.927620888
v 0.49576667 0.550258875 -0.935710132
v 0.50146693 0.552974582 -0.928408742
v 0.500135064 0.559671521 -0.925145507
v 0.504882336 0.562308729 -0.914646208
v 0.503770769 0.565621674 -0.91138947
v 0.476515532 0.574632645 -0.919507325
v 0.477050453 0.574437797 -0.915389061
v 0.478433549 0.577388585 -0.906852782
v 0.479392022 0.58037442 -0.898577809
v 0.478493541 0.580316424 -0.895304441
v 0.476915359 0.576812565 -0.888757765
v 0.473799288 0.576822937 -0.882967412
v 0.47222048 0.573317707 -0.876418173
v 0.482895285 0.568806052 -0.866670907
v 0.483953983 0.565068543 -0.858648777
v 0.483494759 0.558260262 -0.855387628
v 0.48281756 0.554827213 -0.852126479
v 0.505968392 0.545950413 -0.835532546
v 0.505512357 0.539189458 -0.832294047
v 0.505728781 0.53583765 -0.832294047
v 0.481657833 0.531027079 -0.842342973
v 0.479460061 0.524488926 -0.843825042
v 0.478782356 0.521053195 -0.84056139
v 0.445203274 0.516680241 -0.852064013
v 0.443378687 0.516693175 -0.849283338
v 0.442710549 0.5130952 -0.842180192
v 0.440901905 0.512978435 -0.835590959
v 0.439313471 0.509451747 -0.829001725
v 0.437504858 0.509334981 -0.82241255
v 0.436820716 0.505866706 -0.819117904
v 0.437363654 0.505575597 -0.811243832
v 0.438469678 0.505243123 -0.803073645
v 0.436663806 0.505126536 -0.796494484
v 0.437115192 0.501456678 -0.788815498
v 0.437052399 0.501213193 -0.781303644
v 0.438807219 0.500837684 -0.772826195
v 0.433225036 0.50438112 -0.768159807
v 0.435884833 0.504060566 -0.762978494
v 0.434892416 0.503884614 -0.755984306
v 0.43731162 0.503457963 -0.747193098
v 0.443138927 0.50278163 -0.736629009
v 0.433493793 0.506618023 -0.734081984
v 0.439329535 0.505934715 -0.723546922
v 0.438104481 0.505776465 -0.716709852
v 0.440864056 0.508686364 -0.707702935
v 0.449876398 0.507759809 -0.695611179
v 0.448121905 0.507641971 -0.689084172
v 0.44697839 0.510955811 -0.685845613
v 0.449084997 0.510545135 -0.677352548
v 0.443219393 0.514091551 -0.672808409
v 0.445297807 0.513679862 -0.664346576
v 0.443295538 0.516929805 -0.65784359
v 0.442403048 0.516872227 -0.654592097
v 0.453407258 0.519102097 -0.641593397
v 0.452522159 0.518917322 -0.634670913
v 0.457038313 0.524966121 -0.624864042
v 0.457343161 0.528139591 -0.620936573
v 0.455569655 0.528025091 -0.61447525
v 0.460929185 0.530651808 -0.604415536
v 0.459828883 0.533931136 -0.601191759
v 0.459852517 0.533668339 -0.593872011
v 0.458924949 0.536800385 -0.586916327
v 0.464492559 0.539512575 -0.580474138
v 0.466773719 0.53905642 -0.572098434
v 0.463644475 0.545670211 -0.566125333
v 0.46369499 0.545532763 -0.562468171
v 0.465613693 0.545101106 -0.554295242
v 0.463465363 0.548322201 -0.547962189
v 0.46164453 0.54821372 -0.541575134
v 0.458522618 0.548218548 -0.535798311
v 0.449016482 0.548778415 -0.532997847
v 0.46155116 0.54412514 -0.52001518
v 0.471360087 0.543150246 -0.511853099
v 0.483423352 0.541851342 -0.499085784
v 0.472908288 0.545771897 -0.496659338
v 0.47985816 0.551450014 -0.48610732
v 0.480940759 0.551220596 -0.4820351
v 0.479475737 0.55435288 -0.475456119
v 0.474162728 0.554558992 -0.470715612
v 0.475517035 0.551032782 -0.46662581
v 0.479766726 0.550391138 -0.457575798
v 0.469875216 0.554270208 -0.454777807
v 0.468011171 0.554167986 -0.448469192
v 0.455789745 0.558405399 -0.450231314
v 0.470722914 0.553524792 -0.436572045
v 0.464440674 0.5570876 -0.432123005
v 0.457832783 0.557411134 -0.427891284
v 0.45545727 0.560767174 -0.425269574
v 0.448347509 0.561139762 -0.421227783
v 0.440881848 0.558255315 -0.417409867
v 0.437319815 0.558303714 -0.411795795
v 0.434447408 0.558290243 -0.405878901
v 0.435753852 0.554748774 -0.401838332
v 0.433358759 0.551401377 -0.395807654
v 0.445535243 0.550072193 -0.383517772
v 0.430089802 0.547862768 -0.383005321
v 0.43574208 0.543826997 -0.373595715
v 0.435561121 0.543711245 -0.370114326
v 0.431058526 0.543832242 -0.364878029
v 0.4401218 0.542799532 -0.354016036
v 0.438839257 0.542647243 -0.347459018
v 0.444385886 0.541915476 -0.338105708
v 0.443676472 0.541845381 -0.334863752
v 0.439298421 0.541956127 -0.329584211
v 0.424711168 0.542930961 -0.328424543
v 0.412196726 0.547021806 -0.32629168
v 0.412354231 0.546744823 -0.319126129
v 0.411423385 0.546561003 -0.31240204
v 0.407619119 0.546622574 -0.306820303
v 0.399517685 0.543751299 -0.303009212
v 0.416138023 0.538937271 -0.293004513
v 0.416942954 0.535330892 -0.285709739
v 0.423838854 0.534507155 -0.275970191
v 0.422712415 0.53434366 -0.269372791
v 0.420348644 0.53428179 -0.263254553
v 0.173940524 0.557733834 -0.350568771
v 0.127341121 0.561459243 -0.364617586
v 0.133902743 0.560636997 -0.354513317
v 0.113902792 0.565569818 -0.354399592
v 0.112006634 0.56544739 -0.347491473
v 0.0637501404 0.56919831 -0.35792461
v 0.0575228594 0.569433928 -0.352534115
v 0.0564779304 0.569236755 -0.345208704
v 0.0553656109 0.569045246 -0.337911636
v 0.0612432845 0.568271995 -0.328059584
v 0.0593263954 0.568148196 -0.321075946
v 0.0393122099 0.569528401 -0.320642829
v 0.0168002956 0.571113229 -0.3210361
v 0.0807055905 0.562096536 -0.294305712
v 0.0410050265 0.565072119 -0.300861657
v 0.010814555 0.567263186 -0.303890377
v 0.00722021144 0.567273736 -0.297418535
v 0.461463481 0.526645422 -0.130328313
v 0.459753782 0.526535034 -0.124099515
v 0.458044082 0.526424646 -0.117870718
v 0.456334382 0.526314259 -0.111641921
v 0.454624683 0.526203871 -0.105413124
v 0.452915013 0.526093423 -0.0991843268
v 0.451205313 0.525983036 -0.0929555222
v 0.449495614 0.525872648 -0.0867267251
v 0.139685825 0.550484478 -0.183730796
v 0.124135569 0.551461458 -0.181501538
v 0.0992228985 0.553186297 -0.182318002
v 0.0787719265 0.554550827 -0.181574896
v 0.0648634285 0.555389583 -0.178618029
v 0.0410807654 0.557015419 -0.178824574
v 0.019159561 0.558489501 -0.178343192
v -0.021535242 0.561457634 -0.183813676
v -0.0246420968 0.55779177 -0.177206308
v -0.048512768 0.559391975 -0.177107349
v -0.0635146648 0.556764066 -0.178070933
v -0.0857500955 0.558212042 -0.177322626
v -0.102793649 0.555553198 -0.174947709
v -0.127688855 0.553457558 -0.17495136
v -0.142066866 0.554405332 -0.175479516
v -0.16313833 0.548209846 -0.174243525
v 0.458906114 0.499093086 0.0203849897
v 0.458893448 0.505328 0.0238490868
v 0.454052627 0.508749127 0.0257770624
v 0.461568266 0.507945836 0.0347359627
v 0.461717278 0.507698357 0.0414435007
v 0.459823281 0.510772586 0.0475948565
v 0.458749413 0.507567525 0.0505409203
v 0.45579794 0.504383743 0.0562585667
v 0.454771608 0.507394493 0.062668696
v 0.457714051 0.51010257 0.0702341869
v 0.460927337 0.509740353 0.0744869336
v 0.460670978 0.512682259 0.0810962766
v 0.465143472 0.51210165 0.0889981315
v 0.463258117 0.515161872 0.095121406
v 0.463518262 0.515022337 0.0984957963
v 0.470579684 0.514237285 0.107084543
v 0.468699783 0.517288685 0.113190174
v 0.469762444 0.520107329 0.12011496
v 0.468088001 0.519999206 0.126215324
v 0.46620971 0.523047984 0.13231571
v 0.466188848 0.522928715 0.135589197
v 0.466031343 0.522699654 0.142100051
v 0.463646084 0.525787294 0.148059174
v 0.460596561 0.528929949 0.153842419
v 0.459932059 0.528861821 0.156938061
v 0.46607092 0.528118074 0.165106505
v 0.457910568 0.531675935 0.169538274
v 0.462527156 0.531051278 0.177276433
v 0.441449106 0.535809875 0.175106972
v 0.456391603 0.534322619 0.185519144
v 0.406537622 0.541386783 0.179315463
v 0.450872123 0.537423909 0.197199643
v 0.40576002 0.544125676 0.192380011
v 0.444956481 0.540561676 0.20879595
v 0.406192929 0.546756923 0.205724016
v 0.411887199 0.546144485 0.210426003
v 0.453967333 0.542305589 0.227336273
v 0.406350255 0.549278438 0.222254828
v 0.427531391 0.547202826 0.233945325
v 0.396640807 0.552905858 0.229809254
v 0.403876424 0.552021623 0.238112912
v 0.423130482 0.550096631 0.249234274
v 0.400293261 0.55498749 0.250418186
v 0.413226873 0.553599358 0.259984761
v 0.396710068 0.557953298 0.262723476
v 0.40965876 0.556552708 0.272238344
v 0.391656399 0.561050117 0.274693787
v 0.392282486 0.560864627 0.27810508
v 0.405249774 0.559451818 0.287555307
v 0.388699293 0.563830435 0.29041037
v 0.401681662 0.562405169 0.29980889
v 0.38511613 0.566796303 0.302715659
v 0.396949232 0.565594316 0.308561116
v 0.411861539 0.563984931 0.318285286
v 0.395386249 0.56836623 0.321252674
v 0.408308387 0.566925883 0.33048752
v 0.395478398 0.570982754 0.334278405
v 0.405192733 0.569826663 0.342781246
v 0.412010878 0.568938375 0.350641578
v 0.396462381 0.573379159 0.350690931
v 0.404091537 0.572408497 0.358704507
v 0.392903507 0.576324821 0.362912714
v 0.397250056 0.575653851 0.370232821
v 0.405174166 0.57464987 0.378242165
v 0.391629547 0.578922212 0.37880829
v 0.398244411 0.578033686 0.386539578
v 0.388073862 0.581865251 0.391019166
v 0.396385938 0.580809534 0.399046361
v 0.384518176 0.58480835 0.403230041
v 0.391985863 0.583959818 0.407857835
v 0.408659607 0.582098544 0.417394102
v 0.390130401 0.586732805 0.420354277
v 0.410497755 0.58450228 0.430500001
v 0.387405664 0.589587748 0.432679832
v 0.41778475 0.586369216 0.444549769
v 0.450491667 0.582929909 0.456718355
v 0.402827322 0.590530455 0.451414943
v 0.422271639 0.588359952 0.461178899
v 0.412861526 0.59211123 0.465878844
v 0.418768436 0.591259599 0.47320959
v 0.411928177 0.594761252 0.478374988
v 0.416090757 0.594212532 0.482232571
v 0.444461882 0.591127813 0.493281513
v 0.412587553 0.597112179 0.494263262
v 0.441232592 0.593977988 0.505247891
v 0.411565542 0.599761844 0.506696403
v 0.430817336 0.597551227 0.516059875
v 0.4088898 0.602712691 0.515712917
v 0.41837126 0.601477027 0.523479044
v 0.414108425 0.604718745 0.529093981
v 0.415456593 0.604306579 0.535551131
v 0.411288083 0.607539892 0.541188061
v 0.41046536 0.607486725 0.54418546
v 0.4332515 0.604867399 0.553833842
v 0.409300953 0.610135257 0.556518793
v 0.420301855 0.60871917 0.564355016
v 0.404305577 0.613319337 0.565167189
v 0.417237431 0.611691833 0.573250055
v 0.400814354 0.61620909 0.577156782
v 0.414168626 0.614526629 0.585246325
v 0.401282281 0.618679583 0.589692116
v 0.410692453 0.617403924 0.597184181
v 0.400439769 0.621284068 0.602023184
v 0.407626897 0.6203776 0.606083095
v 0.423074037 0.61845237 0.614301264
v 0.404150277 0.623255253 0.618022382
v 0.419614553 0.621315837 0.626181841
v 0.400673687 0.626132846 0.629961669
v 0.409840375 0.625001729 0.634198368
v 0.423794657 0.623214424 0.642077446
v 0.396787643 0.628913045 0.644935727
v 0.416326404 0.626507223 0.653446794
v 0.393251777 0.631796837 0.65686655
v 0.412871331 0.629366994 0.665312052
v 0.390243858 0.634765744 0.665779531
v 0.405776531 0.632769644 0.673704028
v 0.42416507 0.630462289 0.681888044
v 0.401814818 0.635688782 0.685529113
v 0.416429818 0.633784831 0.693233788
v 0.38282302 0.640428841 0.692680776
v 0.397539437 0.638499975 0.700381994
v 0.374269247 0.643876195 0.704090059
v 0.388902962 0.641944587 0.711734176
v 0.375870496 0.646183491 0.716556966
v 0.376299948 0.645989597 0.719666004
v 0.384621263 0.644759953 0.726609051
v 0.373940378 0.648739159 0.731707215
v 0.375739515 0.648243189 0.737997055
v 0.360994309 0.652697623 0.742758572
v 0.361364186 0.652361751 0.748922825
v 0.376057804 0.650390804 0.756358862
v 0.353804737 0.655859649 0.757456303
v 0.355048448 0.655421793 0.763692498
v 0.366206914 0.653845727 0.770760715
v 0.341019094 0.659524381 0.774777412
v 0.343725532 0.658915043 0.781131029
v 0.359036207 0.656851172 0.788474381
v 0.414858699 0.650115907 0.798918724
v 0.355563521 0.659725547 0.800400198
v 0.367752224 0.658162296 0.804362297
v 0.399302423 0.654206753 0.812747657
v 0.403932393 0.653378248 0.819081724
v 0.405657738 0.652887404 0.825190306
v 0.39373222 0.657000721 0.830365837
v 0.392116725 0.656896353 0.836251497
v 0.385723531 0.657348573 0.84182632
v 0.383541524 0.65730983 0.847684264
v 0.381247044 0.657284021 0.853537261
v 0.362515271 0.662211478 0.858419657
v 0.360889137 0.662106514 0.864343941
v 0.353850394 0.662634432 0.869962513
v 0.34936896 0.662862599 0.875739694
v 0.335833967 0.664147437 0.881046057
v 0.319228709 0.665788531 0.886235356
v 0.323834747 0.664953947 0.89252913
v 0.322195292 0.664848089 0.898501992
v 0.29613328 0.667585731 0.903345168
v 0.286626756 0.668393195 0.90900898
v 0.269443512 0.670091808 0.914370477
v 0.267782032 0.669984519 0.920423627
v 0.256523013 0.67099148 0.926097929
v 0.241492078 0.672434449 0.931662202
v 0.233359247 0.673075497 0.937520683
v 0.230280116 0.673130035 0.943574786
v 0.222820342 0.673691452 0.949490368
v 0.203609914 0.675611258 0.955060899
v 0.198012188 0.675954521 0.961089909
v 0.186284572 0.677005231 0.966962516
v 0.1632552 0.679358959 0.972575426
v 0.142809257 0.681411147 0.978322804
v 0.105902858 0.68535763 0.983760893
v 0.0101242643 0.696079791 0.988084495
v 0.00902361702 0.699360192 0.991309226
v 0.0087180892 0.699076056 0.997785687
v 0.00651337765 0.702323675 1.00422895
v 0.00414598733 0.702279091 1.01066732
v 0.0022339928 0.702181399 1.0171138
v -0.000327780755 0.699005961 1.02031434
v -0.00273052719 0.695650041 1.02675688
v -0.00632185116 0.692427814 1.0331912
v -0.00830606278 0.689177692 1.03640842
v -0.0137338974 0.682832479 1.04283965
v -0.0139707038 0.679536521 1.04283655
v -0.0169601068 0.673061669 1.04605472
v -0.01878177 0.666605473 1.04604149
v -0.0190895721 0.659982622 1.04603708
v -0.021947423 0.65362072 1.04601765
v -0.0245984402 0.650560856 1.0460006
v 0.598131657 -0.0399299525 -0.36582014
v 0.600845814 -0.0332548171 -0.361001611
v 0.59170866 -0.0276147984 -0.364807844
v 0.592143714 -0.0211648922 -0.367897332
v 0.591019571 -0.0244899075 -0.371941745
v 0.592281401 -0.0308344997 -0.375033289
v 0.593543172 -0.0371790938 -0.378124833
v 0.593749821 -0.0403787866 -0.378124833
v 0.601084411 -0.0461518168 -0.375075221
v 0.599184632 -0.0430682227 -0.368905157
v 0.612142265 -0.0962395519 -0.354423821
v 0.609348893 -0.0900917798 -0.352018952
v 0.60893786 -0.0837262422 -0.352018952
v 0.609370887 -0.0773061961 -0.355094135
v 0.608959854 -0.0709406585 -0.355094135
v 0.609598398 -0.0677033812 -0.358169347
v 0.606124878 -0.0648623183 -0.363044024
v 0.608981848 -0.058155071 -0.358169347
v 0.587768674 -0.0569100752 -0.36387381
v 0.585825324 -0.05064518 -0.364539832
v 0.587790847 -0.0440456718 -0.366967946
v 0.599184632 -0.0430682227 -0.368905157
v 0.601084411 -0.0461518168 -0.375075221
v 0.602137327 -0.0492900871 -0.378160238
v 0.601671994 -0.0557824671 -0.38200891
v 0.605814338 -0.0618419722 -0.383815974
v 0.604477406 -0.0651825443 -0.38450098
v 0.584686935 -0.0735276788 -0.389989197
v 0.583398044 -0.0800620988 -0.38378194
v 0.606958508 -0.0776687413 -0.369940966
v 0.582960963 -0.0865415111 -0.380678296
v 0.582523942 -0.0930209309 -0.377574682
v 0.581879437 -0.0962881371 -0.374471039
v 0.610358238 -0.0964639932 -0.358645409
v -0.593249321 -0.044539988 -0.00668287743
v 0.546023011 0.0368061736 0.2706469
v 0.548126817 0.0431261212 0.271246225
v 0.549039185 0.0493648238 0.271560013
v 0.548641622 0.0555219762 0.271560013
v 0.549060464 0.0617318489 0.268585503
v 0.548662841 0.0678890049 0.268585503
v 0.548265278 0.0740461573 0.268585503
v 0.548546493 0.080238007 0.268748641
v 0.549170792 0.0864442438 0.268994182
v 0.545116007 0.0893481299 0.264894098
v 0.54836899 0.0956804603 0.265774727
v 0.543671787 0.101660803 0.261562079
v 0.548161864 0.108035199 0.2627455
v 0.547992766 0.114200868 0.262800813
v 0.543494046 0.117126986 0.258583575
v 0.544552624 0.123347878 0.258937538
v 0.547815263 0.129643321 0.259826899
v 0.542804897 0.135665104 0.255528927
v 0.544175982 0.141888633 0.255960345
v 0.546602666 0.148138046 0.256649047
v 0.547041535 0.154319614 0.256852984
v 0.543689251 0.160426423 0.252956241
v 0.546226323 0.166663095 0.253674388
v 0.5458287 0.172820538 0.253674388
v 0.546382785 0.178998396 0.253907204
v 0.545985281 0.18515408 0.253907204
v 0.54431057 0.191325337 0.250419408
v 0.544534385 0.194412217 0.25052315
v 0.544252634 0.200572729 0.250551611
v 0.543854952 0.20673129 0.250551611
v 0.54345727 0.21288985 0.250551611
v 0.543059587 0.219048396 0.250551611
v 0.542661905 0.225206956 0.250551611
v 0.542264223 0.231365517 0.250551611
v 0.541866541 0.237524077 0.250551611
v 0.541352808 0.243682399 0.25052315
v 0.540700734 0.249841124 0.250460774
v 0.539225757 0.256002158 0.250196606
v 0.53749299 0.26216805 0.249869332
v 0.535456717 0.268340498 0.249467701
v 0.535058558 0.274507225 0.249467701
v 0.534660339 0.280673921 0.249467701
v 0.53350538 0.286848873 0.249282256
v 0.531823456 0.293033302 0.248967722
v 0.528553605 0.299245596 0.248264194
v 0.527410328 0.305433571 0.248081833
v 0.524655461 0.311653703 0.247504726
v 0.524256289 0.317835182 0.247504726
v 0.526139498 0.323895782 0.251247704
v 0.524995744 0.330089241 0.251065999
v 0.522239089 0.336326689 0.250490993
v 0.521839976 0.342508197 0.250490993
v 0.519536972 0.348745376 0.250026792
v 0.520221949 0.354818225 0.253477275
v 0.520022392 0.357908964 0.253477275
v 0.517279446 0.364169717 0.2529082
v 0.514146626 0.370453 0.252244592
v 0.509976566 0.376785219 0.251329362
v 0.512526155 0.382781655 0.255235374
v 0.509786546 0.389068723 0.254669756
v 0.507954121 0.395325422 0.254323512
v 0.508165002 0.401405931 0.257662624
v -0.466926217 0.453154832 0.0189323723
v -0.462259084 0.453054875 0.0159484651
v -0.440954775 0.452295035 0.0129278218
v -0.425491035 0.451806337 0.00854090694
v -0.413181037 0.451463878 0.00342167821
v -0.417093009 0.447935581 -0.00578133995
v -0.386722267 0.446769983 -0.00630070409
v -0.381282002 0.446750015 -0.0130451676
v -0.393494427 0.443499506 -0.0202848837
v -0.389300168 0.443539292 -0.0273591746
v -0.393009603 0.443936795 -0.0364709422
v -0.412381321 0.44899717 -0.0496215932
v -0.190694436 0.438961536 0.000385556923
v -0.441981673 0.45083642 -0.0738826469
v -0.449168801 0.451405317 -0.0840819031
v -0.462542951 0.44825685 -0.0960469171
v -0.463790327 0.448431104 -0.100552157
v -0.454717845 0.448252022 -0.106438152
v -0.47873348 0.445557922 -0.121408053
v -0.459727615 0.444940269 -0.124571718
v -0.456411242 0.445024967 -0.1320173
v -0.461586922 0.441474289 -0.141900107
v -0.459450155 0.441612244 -0.149684832
v -0.464639276 0.437934041 -0.155414671
v -0.458211005 0.437886894 -0.161993846
v -0.463635385 0.434325576 -0.172018334
v -0.466445178 0.430528462 -0.177107483
v -0.480702847 0.422918081 -0.177120909
v -0.486493468 0.414937109 -0.174696222
v -0.493063807 0.406964332 -0.172483176
v -0.492801309 0.402899384 -0.172483176
v -0.495737165 0.39477849 -0.169230133
v -0.502963901 0.386782169 -0.167183295
v -0.502700865 0.382708788 -0.167183295
v -0.508612156 0.374643952 -0.164754167
v -0.506463945 0.366444379 -0.164298102
v -0.512132525 0.362421423 -0.161718756
v -0.510745347 0.354238391 -0.161477625
v -0.515463769 0.346098036 -0.158698261
v -0.513780475 0.337906212 -0.158375263
v -0.516560495 0.329709709 -0.155049473
v -0.520460367 0.321522951 -0.152030393
v -0.520196378 0.31743446 -0.152030393
v -0.525279462 0.30933243 -0.153588176
v -0.528343022 0.301103681 -0.150326386
v -0.532813311 0.292879045 -0.14744781
v -0.531002998 0.288765907 -0.147021577
v -0.530424416 0.280569077 -0.147007987
v -0.535373986 0.272324204 -0.144255549
v -0.534354448 0.264118105 -0.144120902
v -0.539673626 0.255849987 -0.141462147
v -0.537209511 0.247638702 -0.140932262
v -0.545897782 0.243451476 -0.139114097
v -0.545366764 0.235227928 -0.139114097
v -0.544401228 0.227006689 -0.138995424
v -0.549333572 0.218682155 -0.136213303
v -0.549652576 0.210443586 -0.136444837
v -0.556876481 0.206193015 -0.134203404
v -0.556398451 0.197948039 -0.134218156
v -0.558194518 0.18967168 -0.134849966
v -0.566159785 0.181236967 -0.132867128
v -0.56264776 0.173026368 -0.132061616
v -0.567654431 0.164662465 -0.133560017
v -0.572200656 0.156240031 -0.130639911
v -0.575581551 0.14787516 -0.131695345
v -0.57731384 0.139536738 -0.132306576
v -0.581921279 0.131071359 -0.129389957
v -0.586349189 0.126794443 -0.130651668
v -0.585813105 0.118491985 -0.130651668
v -0.585276961 0.110189535 -0.130651668
v -0.594058633 0.101542413 -0.12884143
v -0.59739089 0.0930886418 -0.129877865
v -0.59689939 0.084762007 -0.129890203
v -0.602867544 0.0761839971 -0.131633222
v -0.60123992 0.0678912699 -0.131341368
v -0.609572172 0.0633398294 -0.129316181
v -0.609033048 0.0549907945 -0.129316181
v -0.608482003 0.0466423072 -0.129312992
v -0.607942879 0.0382932946 -0.129312992
v -0.621284425 0.0292448476 -0.128679499
v -0.620743752 0.0208720695 -0.128679499
v -0.625949562 0.0121953404 -0.130209401
v -0.623889625 0.0038950257 -0.129805043
v -0.626793385 -0.00468070479 -0.130722418
v -0.629895031 -0.0132808872 -0.131692722
v -0.629352987 -0.0216747299 -0.131692722
v -0.586802363 -0.0274541155 -0.120501943
v -0.587884247 -0.0358735062 -0.12093325
v -0.562832296 -0.0425747409 -0.114401124
v -0.525241375 -0.0483335108 -0.104525939
v -0.449935138 -0.0513296463 -0.088778533
v -0.47059536 -0.0568411201 -0.0943748653
v -0.471146762 -0.0650161281 -0.0904590487
v -0.439290732 -0.0708011091 -0.0862788633
v 0.53832984 -0.00431296928 0.178421468
v 0.537893355 -0.00433660485 0.181532636
v 0.536242366 -0.00444321427 0.18754752
v 0.53420192 -0.00457952498 0.193460435
v 0.538750291 -0.00421342254 0.201087162
v 0.540941417 -0.0040271217 0.208081946
v 0.506552994 -0.00348033383 0.20574826
v -0.623795569 -0.0843758658 -0.0749212801
v -0.634601474 -0.0809576139 -0.0732664913
v -0.624188602 -0.0759746581 -0.0619263835
v -0.625566721 -0.0718673542 -0.0578887574
v -0.628053069 -0.0678316057 -0.0498135053
v -0.629431188 -0.0637243018 -0.0457758792
v -0.629363537 -0.0595129468 -0.0370739549
v -0.630740881 -0.0554079637 -0.0330386162
v -0.623071432 -0.050695207 -0.0225057248
v -0.614711106 -0.050133355 -0.016193321
v -0.5511868 0.0150622465 0.253707796
v -0.528486788 0.0243106838 0.262055039
v -0.526114404 0.0324805416 0.262584299
v -0.522397876 0.0407039039 0.263359517
v -0.521852732 0.0487863533 0.259488046
v -0.520785034 0.0568699427 0.259779632
v -0.521825075 0.0648826361 0.255616546
v -0.520498693 0.0689549521 0.255909562
v -0.51580143 0.0771715268 0.25687331
v -0.510216296 0.0854310393 0.25394401
v -0.507583916 0.0935359523 0.254528701
v -0.506897628 0.101563297 0.254751891
v -0.51018852 0.10548868 0.25013113
v -0.507814169 0.113570683 0.250670403
v -0.507127821 0.121592544 0.250894636
v -0.509507895 0.129564732 0.246489435
v -0.509142637 0.137577072 0.2466546
v -0.508608639 0.145590231 0.24685134
v -0.503895521 0.153691843 0.247831151
v -0.500046253 0.161756903 0.248648882
v -0.496015608 0.169809401 0.249500394
v -0.498146921 0.177793607 0.245151564
v -0.49687916 0.185785249 0.24548699
v -0.496502161 0.193758845 0.245654717
v -0.497016191 0.201719269 0.245654717
v -0.497530222 0.209679693 0.245654717
v -0.498044252 0.217640132 0.245654717
v -0.498558283 0.225600556 0.245654717
v -0.499072313 0.233560979 0.245654717
v -0.499586344 0.241521418 0.245654717
v -0.500100374 0.249481842 0.245654717
v -0.491579086 0.257427871 0.247353584
v -0.492092043 0.265371859 0.247353584
v -0.492605031 0.273315877 0.247353584
v -0.493118018 0.281259894 0.247353584
v -0.490965545 0.289180279 0.247854516
v -0.486452669 0.297065765 0.248798877
v -0.486964762 0.304995805 0.248798877
v -0.487476826 0.312925845 0.248798877
v -0.484588802 0.316759199 0.253414184
v -0.485100389 0.32468161 0.253414184
v -0.485611975 0.332604021 0.253414184
v -0.486123562 0.340526462 0.253414184
v -0.48703441 0.348457813 0.253339589
v -0.490604162 0.356455147 0.252768248
v -0.486530662 0.364169121 0.257646382
v -0.489220411 0.372148275 0.257241517
v -0.489731967 0.380070686 0.257241517
v -0.488588929 0.387941003 0.257548958
v -0.489100307 0.395860434 0.257548958
v -0.491266727 0.403837919 0.257241517
v -0.497112453 0.411957204 0.256250679
v -0.483724147 0.419351131 0.258832425
v -0.474287093 0.422811598 0.264637172
v -0.468755454 0.430448949 0.265753418
v -0.467894793 0.438266248 0.26600641
v -0.46840325 0.44614026 0.26600641
v -0.237365156 0.443393767 0.30120495
v -0.247799918 0.440374702 0.291614801
v -0.246807888 0.440438777 0.288000673
v -0.252998829 0.440943778 0.279209524
v -0.241466641 0.440631628 0.273809105
v -0.252379149 0.441355616 0.264070243
v -0.243276238 0.441155016 0.258221
v -0.243617311 0.441391051 0.250522852
v -0.241876811 0.441530824 0.243233278
v -0.243986279 0.441849351 0.235164031
v -0.241996899 0.441977799 0.22791627
v -0.241793662 0.442189366 0.22030057
v -0.23392719 0.442044139 0.214271039
v -0.217641816 0.441505671 0.210028917
v 0.458646387 0.403748393 0.35176912
v 0.457129121 0.400706053 0.351408631
v 0.445977807 0.394865125 0.352182359
v 0.446014971 0.391830504 0.348950297
v 0.453665555 0.385285139 0.350470632
v 0.462642699 0.378631979 0.355452657
v 0.478148282 0.371863037 0.358608127
v 0.470413297 0.365855306 0.360083163
v 0.460985303 0.36298418 0.36126247
v 0.47054106 0.356467873 0.363158375
v 0.458031982 0.350553393 0.363668382
v 0.472443968 0.343932003 0.366557688
v 0.457809061 0.341144562 0.366681457
v 0.458831877 0.334892303 0.366808772
v 0.471002668 0.32838738 0.369225621
v 0.47397843 0.322118819 0.369754434
v 0.462603867 0.316066325 0.370514721
v 0.459001392 0.309906304 0.369695663
v 0.466647774 0.303556651 0.371177286
v 0.475547969 0.297216147 0.372915715
v 0.477299273 0.290991843 0.373191983
v 0.472202301 0.284841567 0.372067094
v 0.472603679 0.278625786 0.372067094
v 0.479067206 0.272370905 0.373307765
v 0.485393226 0.266138822 0.3745206
v 0.473049968 0.259924978 0.375083476
v 0.469833463 0.253712773 0.374346167
v 0.473510444 0.247493342 0.375013709
v 0.474330068 0.241278172 0.375098974
v 0.475285411 0.235065147 0.375211924
v 0.476371944 0.228854984 0.375351638
v 0.476908952 0.222642824 0.375379324
v 0.477490425 0.216431603 0.3754161
v 0.481647879 0.210263357 0.376182258
v 0.483632445 0.204079166 0.376505345
v 0.487880498 0.197935835 0.377290308
v 0.491320759 0.191792578 0.377910614
v 0.492598474 0.185619041 0.378089786
v 0.493211538 0.179434776 0.378133357
v 0.493611157 0.173246413 0.378133357
v 0.494010746 0.167058066 0.378133357
v 0.490281045 0.160760388 0.377290308
v 0.486147404 0.154436156 0.376364589
v 0.483191669 0.148130804 0.375679165
v 0.482738614 0.141893163 0.375504732
v 0.482708067 0.135666668 0.375416577
v 0.497763008 0.129999936 0.37525335
v 0.497501791 0.126889408 0.375158727
v 0.497138649 0.120671906 0.375002176
v 0.484837979 0.113971516 0.372395098
v 0.498758763 0.108345665 0.37201196
v 0.493469566 0.101906396 0.370838583
v 0.485145062 0.0953074545 0.36903879
v 0.500145614 0.0929044187 0.368932009
v 0.492443264 0.0863212794 0.367252797
v 0.49479869 0.0802260935 0.364490718
v 0.484744281 0.0734777153 0.362313569
v 0.496771336 0.0710035786 0.361608863
v 0.497994244 0.0648545101 0.358612597
v 0.487895906 0.0580565929 0.356405973
v -0.606038868 -0.008161515 0.134836033
v -0.599157393 -0.00777971465 0.144654036
v -0.59658289 -0.0076462524 0.153557047
v -0.612513483 -0.00445254007 0.15874511
v -0.613518 -0.00451807678 0.162735701
v -0.612244308 -0.0044628093 0.171372622
v -0.604458809 -0.00403785566 0.181286156
v -0.605145872 -0.00409382628 0.18950057
v -0.565106213 -0.00183750701 0.205622822
v -0.555750847 -0.00132310251 0.215683088
v -0.547013581 -0.00084370625 0.225582808
v -0.550737619 0.0029836602 0.23313953
v -0.551559627 0.00291908858 0.241194695
v -0.558621824 0.0065744766 0.244032264
v -0.550926208 0.0110267224 0.253707796
g path_000000
l 3 2 1 1229 1228 1227 1226 1225 1224 1223 1222 1221 1220 1219 1218 1217 1216 1215 1214 1213
g path_000001
l 5 6
g path_000002
l 7 8
g path_000003
l 10 11
g path_000004
l 12 13
g path_000005
l 14 15 16
g path_000006
l 17 18
g path_000007
l 23 24 25
g path_000008
l 26 27 28 29
g path_000009
l 30 31 32 33 34 35 36 37 38 39
g path_000010
l 43 44 45 46
g path_000011
l 47 48
g path_000012
l 50 51
g path_000013
l 52 53 54 55 56 57
g path_000014
l 59 60
g path_000015
l 65 66
g path_000016
l 68 69 70 71
g path_000017
l 72 73 74
g path_000018
l 75 76 77
g path_000019
l 79 80 81
g path_000020
l 85 86 87 88 89 90 91 92 93
g path_000021
l 94 95 96 97 98 99 100 101 102 103 104 105
g path_000022
l 106 107 108 109 110 111 112 113 114 115 116 117 118 119 120 121 122 123 124 125 126 127 128 129 130 131 132 133 134 135 136 137 138 139 140 141 142 143 144 145 146 147 148 149 150 151 152 153 154 155 156 157 158 159 160 161 162 163 164 165 166 167 168 169 170 171 172 173 174 175 176 177 178 179 180
g path_000023
l 181 182 183 184 185 186 187 188 189 190 191 192 193 194 195 196 197 198 199 200 201 202 203 204 205 206 207 208 209 210 211 212
g path_000024
l 213 214 215 216 217 218 219 220 221 222 223 224 225 226 227 228 229 230 231 232 233 234 235 236 237 238 239 240 241 242
g path_000025
l 243 244 245
g path_000026
l 247 248 249 250 251 252 253 254
g path_000027
l 255 256 257 258 259 260 261 262 263 264
g path_000028
l 265 266 267 268 269 270 271 272
g path_000029
l 273 274 275 276 277 278 279
g path_000030
l 280 281
g path_000031
l 282 283
g path_000032
l 285 286
g path_000033
l 288 289 290 291 292
g path_000034
l 294 295
g path_000035
l 296 297 298 299 300 301 302 303 304
g path_000036
l 305 306 307 308 309 310 311 312 313 314
g path_000037
l 315 316 317
g path_000038
l 318 319 320 321 322 323 324 325 326 327 328 329
g path_000039
l 330 331 332 333
g path_000040
l 334 335 336 337
g path_000041
l 338 339
g path_000042
l 341 342 343 344 345
g path_000043
l 346 347 348
g path_000044
l 351 352 353
g path_000045
l 354 355 356 357 358
g path_000046
l 359 360 361 362 363 364 365 366 367 368 369 370 371 372 373 374
g path_000047
l 375 376
g path_000048
l 377 378
g path_000049
l 380 381 382 383 384 385 386 387
g path_000050
l 390 391 392
g path_000051
l 393 394 395 396 397 398 399
g path_000052
l 400 401 402 403
g path_000053
l 404 405 406
g path_000054
l 407 408 409 410 411 412 413 414 415 416 417 418 419 420
g path_000055
l 421 422 423 424 425 426 427 428 429 430 431 432 433 434 435 436 437 438 439 440 441 442 443 444 445 446 447 448 449 450 451 452 453 454 455 456 457 458 459 460 461 462 463 464 465 466 467 468
g path_000056
l 469 470 471
g path_000057
l 472 473 474 475 476 477 478 479 480 481 482 483 484 485 486 487 488 489 490 491 492 493 494 495 496 497 498 499 500 501 502 503
g path_000058
l 504 505 506 507 508 509 510 511 512 513 514 515 516 517 518 519 520 521 522 523
g path_000059
l 524 525 526 527 528 529 530 531 532 533 534 535 536 537 538 539 540 541 542 543 544 545 546 547 548 549 550 551 552 553 554 555 556 557 558 559 560 561 562 563 564 565 566 567 568 569 570
g path_000060
l 571 572 573 574 575 576 577 578 579 580
g path_000061
l 581 582 583
g path_000062
l 584 585 586 587 588
g path_000063
l 589 590 591 592 593 594 595
g path_000064
l 596 597 598 599 600 601
g path_000065
l 602 603 604 605 606 607 608 609 610 611 612 613 614 615
g path_000066
l 616 617 618 619 620 621 622 623 624 625
g path_000067
l 626 627 628 629 630 631 632 633 634 635 636 637 638 639 640 641 642 643 644 645 646 647 648 649 650 651 652 653 654 655 656 657 658 659 660 661 662 663 664
g path_000068
l 665 666 667 668 669 670 671
g path_000069
l 672 673 674 675
g path_000070
l 676 677
g path_000071
l 678 679 680 681 682 683 684 685 686 687 688 689 690 691 692 693 694 695 696 697 698 699 700 701 702 703 704 705 706 707 708 709 710 711 712 713 714 715 716 717 718 719 720 721 722 723 724 725 726 727 728 729 730 731 732 733 734 735 736 737 738 739 740 741 742 743 744 745 746 747 748 749 750 751 752 753 754 755 756 757 758 759 760 761 762 763 764 765 766 767 768 769 770 771 772 773 774 775 776 777
g path_000072
l 778 779 780 781 782 783 784 785 786 787 788 789 790 791 792 793 794 795
g path_000073
l 796 797 798 799 800 801
g path_000074
l 802 803 804 805 806 807 808 809 810 811 812 813 814 815 816
g path_000075
l 817 818 819 820 821 822 823 824 825 826 827 828 829 830 831 832 833 834
g path_000076
l 835 836 837 838 839 840 841 842 843 844 845 846 847 848 849 850 851 852 853 854 855 856 857 858 859 860 861 862 863 864 865 866 867 868 869 870 871 872 873 874 875 876 877 878 879 880 881 882 883
g path_000077
l 884 885
g path_000078
l 886 887 888 889 890
g path_000079
l 891 892 893 894 895 896 897 898 899 900 901 902
g path_000080
l 903 904 905
g path_000081
l 906 907 908
g path_000082
l 909 910 911 912 913 914 915 916 917 918 919 920 921 922 923 924 925 926 927 928 929 930 931 932 933 934 935 936 937 938 939 940 941 942 943 944 945 946 947 948 949 950 951 952 953 954 955 956 957 958 959 960 961 962 963 964 965 966 967 968 969
g path_000083
l 970 971 972 973 974 975 976 977 978 979 980 981 982 983 984 985 986 987 988 989 990 991 992 993 994 995
g path_000084
l 996 997 998 999 1000
g path_000085
l 1002 1003 1004 1005
g path_000086
l 1006 1007 1008 1009 1010 1011 1012
g path_000087
l 1016 1017
g path_000088
l 1018 1019 1020 1021 1022 1023 1024 1025
g path_000089
l 1026 1027
g path_000090
l 1028 1029 1030
g path_000091
l 1033 1034
g path_000092
l 1035 1036
g path_000093
l 1037 1038
g path_000094
l 1039 1040 1041
g path_000095
l 1042 1043 1044 1045 1046 1047 1048 1049 1050 1051 1052 1053 1054 1055 1056 1057 1058 1059 1060 1061 1062 1063 1064 1065 1066 1067 1068 1069
g path_000096
l 1070 1071
g path_000097
l 1076 1077
g path_000098
l 1081 1082
g path_000099
l 1084 1085 1086 1087 1088 1089 1090 1091 1092 1093 1094 1095 1096 1097 1098 1099 1100 1101 1102 1103 1104 1105 1106 1107 1108 1109 1110 1111
g path_000100
l 1119 1120 1121 1122 1123
g path_000101
l 1129 1130 1131 1132 1133 1134
g path_000102
l 1136 1137 1138 1139 1140 1141 1142 1143 1144 1145 1146
g path_000103
l 1147 1148
g path_000104
l 1149 1150 1151
g path_000105
l 1156 1157
g path_000106
l 1159 1160
g path_000107
l 1161 1162
g path_000108
l 1163 1164 1165 1166 1167 1168 1169 1170 1171 1172
g path_000109
l 1173 1174 1175
g path_000110
l 1176 1177 1178
g path_000111
l 1180 1181
g path_000112
l 1182 1183 1184 1185 1186 1187 1188 1189
g path_000113
l 1190 1191 1192 1193 1194 1195 1196 1197
g path_000114
l 1198 1199 1200 1201 1202 1203 1204 1205 1206
g path_000115
l 1207 1208 1209
g path_000116
l 1247 1246 1245 1244 1243 1242 1241 1240 1263
g path_000117
l 1248 1249 1250 1251 1252 1253 1254 1255 1256
g path_000118
l 1257 1258
g path_000119
l 1260 1261 1262
g path_000120
l 1264 1437 1436 1435 1434 1433 1432 1431 1430 1429 1428
g path_000121
l 1265 1266 1267 1268 1269 1270 1271 1272 1273 1274 1275 1276 1277 1278 1279 1280 1281 1282 1283 1284 1285 1286 1287 1288 1289 1290 1291 1292 1293 1294 1295 1296 1297 1298 1299 1300 1301 1302 1303 1304 1305 1306 1307 1308 1309 1310 1311 1312 1313 1314 1315 1316 1317 1318 1319 1320 1321 1322 1323 1324 1325 1326
g path_000122
l 1327 1328 1329 1330 1331 1332
g path_000123
l 1333 1334 1335 1336 1337
g path_000124
l 1340 1341 1342 1343 1344
g path_000125
l 1345 1346 1347 1348 1349 1350 1351 1352 1353 1354 1355 1356 1357 1358 1359 1360 1361 1362 1363 1364 1365 1366 1367 1368 1369 1370 1371 1372 1373 1374 1375 1376 1377 1378 1379 1380 1381 1382 1383 1384 1385 1386 1387 1388 1389 1390 1391 1392 1393 1394 1395 1396 1397 1398 1399 1400 1401 1402 1403 1404 1405 1406 1407 1408 1409 1410 1411 1412
g path_000126
l 1413 1414
g path_000127
l 1417 1418 1419
g path_000128
l 1421 1422 1423 1424 1425 1426
g path_000129
l 1438 1583 1582 1581 1580 1579 1578 1577
g path_000130
l 1439 1440 1441 1442 1443 1444 1445 1446 1447 1448 1449 1450 1451 1452 1453 1454 1455 1456 1457 1458 1459 1460 1461 1462 1463 1464 1465 1466 1467 1468 1469 1470 1471 1472 1473 1474 1475 1476 1477 1478 1479 1480 1481 1482 1483 1484 1485 1486 1487 1488 1489 1490 1491 1492 1493 1494
g path_000131
l 1495 1496 1497 1498 1499 1500 1501 1502 1503 1504 1505 1506 1507 1508
g path_000132
l 1509 1510 1511 1512 1513 1514 1515 1516 1517 1518 1519 1520 1521 1522 1523 1524 1525 1526 1527 1528 1529 1530 1531 1532 1533 1534 1535 1536 1537 1538 1539 1540 1541 1542 1543 1544 1545 1546 1547 1548 1549 1550 1551 1552 1553 1554 1555 1556 1557 1558 1559 1560 1561 1562 1563 1564 1565 1566 1567 1568
g path_000133
l 1569 1570 1571 1572 1573 1574 1575 1576
g path_000134
l 1230 1231 1232 1233 1234 1235 1236 1237 1238 1239 1230
