# Fixed world centers; Z up; paths immutable
v -0.115581065 0.651252687 1.02682829
v -0.10861741 0.648058295 1.02589655
v -0.0752654523 0.653541148 1.04217708
v -0.0714108422 0.651916385 1.0434612
v -0.0680599958 0.647553802 1.04065263
v -0.0667860657 0.642463386 1.03672063
v -0.0671072602 0.639389753 1.03576064
v -0.0601403899 0.636280119 1.03489435
v -0.0388006978 0.641577601 1.03958631
v -0.0358838402 0.637079418 1.03655493
v -0.0254033767 0.63821578 1.03844619
v -0.0224329401 0.636691868 1.03624272
v -0.0221429411 0.631620884 1.028723
v -0.00121251633 0.636538744 1.0364306
v 0.00698991399 0.637265861 1.03411222
v 0.0103455409 0.639185846 1.02991271
v 0.0149081983 0.638251603 1.02862179
v 0.00395141076 0.628760099 1.01783645
v 0.00751817133 0.627807975 1.01291394
v 0.0137384236 0.630420506 1.01336074
v 0.0293165036 0.639714241 1.01687574
v 0.0155646205 0.632495701 1.00214803
v 0.0316403173 0.636090815 1.00436056
v 0.0345956609 0.634574652 1.0021683
v 0.0375510044 0.633058429 0.999976039
v 0.0517737418 0.633080482 1.00038719
v 0.0479000285 0.629056334 0.994257092
v 0.0534885526 0.628856122 0.990525424
v 0.0558149703 0.627450287 0.984895587
v 0.0648562163 0.631136894 0.987104893
v 0.0693144277 0.630524814 0.982733607
v 0.0637372211 0.626182079 0.972439647
v 0.0652547926 0.62708503 0.970245659
v 0.0991108492 0.637414694 0.983310759
v 0.113060735 0.640363276 0.98465538
v 0.113281421 0.637860119 0.980882704
v 0.123653866 0.639490128 0.980136037
v 0.136132404 0.641922712 0.980692923
v 0.139033452 0.640434384 0.978540957
v 0.147734135 0.641461372 0.976857603
v 0.150630295 0.639975548 0.974709272
v 0.157550782 0.640338242 0.971966445
v 0.160444051 0.638853908 0.969820201
v 0.168107569 0.639507413 0.967553318
v 0.178493664 0.641208827 0.966990411
v 0.180538982 0.639408648 0.964332283
v 0.18825449 0.640099049 0.962144613
v 0.18971321 0.638073623 0.959120095
v 0.196352273 0.638356209 0.956276536
v 0.19877243 0.636701524 0.953852355
v 0.207533777 0.63781482 0.952365816
v 0.21292232 0.637622595 0.94876194
v 0.214894623 0.635796964 0.94605732
v 0.221038282 0.635902524 0.942941368
v 0.223910242 0.634429097 0.940810978
v 0.228843346 0.634063601 0.936928511
v 0.234736636 0.634077907 0.93367058
v 0.236059159 0.631994128 0.930538833
v 0.243074059 0.632456005 0.928018451
v 0.245926052 0.630978167 0.925880313
v 0.250504047 0.63047719 0.921781301
v 0.253150225 0.628917277 0.9195081
v -0.572604954 0.29168871 0.369935364
v -0.575566292 0.282312632 0.369667768
v -0.571818173 0.276013374 0.369667768
v -0.576250076 0.269922107 0.36966908
v -0.576468349 0.261619657 0.371215194
v -0.582660019 0.250840724 0.368833631
v -0.580777824 0.247677311 0.368833631
v -0.58139509 0.239171162 0.370123774
v -0.590163529 0.22723645 0.366059363
v -0.585350335 0.22132045 0.366739601
v -0.588998735 0.215461239 0.36728707
v -0.587030172 0.207995072 0.370285839
v -0.588332236 0.199130192 0.371138722
v -0.586439431 0.195949048 0.371138722
v -0.587178648 0.187307715 0.372362822
v -0.589429915 0.178318575 0.368396819
v -0.594012737 0.167964578 0.367102891
v -0.594978571 0.159166709 0.368186951
v -0.594605625 0.155294478 0.367183238
v -0.595000744 0.146728054 0.368644029
v -0.58942908 0.141108662 0.369799823
v -0.590686321 0.13214387 0.370694995
v -0.590866745 0.128003433 0.369326204
v -0.586353838 0.121908501 0.36978513
v -0.578567684 0.117303617 0.372397572
v -0.587309003 0.104892604 0.368371099
v -0.585541725 0.0975274444 0.367020011
v -0.586379528 0.0889492333 0.363950044
v -0.581900656 0.0828157887 0.364378572
v -0.577969551 0.0807990059 0.361462504
v -0.584645033 0.0691934004 0.358772844
v -0.577278852 0.0646544993 0.356846988
v -0.581644654 0.054327786 0.35140577
v -0.609639943 0.0366617069 0.335857809
v -0.608339429 0.0289137382 0.334147841
v -0.606556058 0.021147592 0.337069511
v -0.605488002 0.0132676372 0.335202634
v -0.606234908 0.00426763762 0.336448282
v -0.607055843 -0.000342986343 0.334614098
v -0.602502346 -0.00655963505 0.335053831
v -0.614601314 -0.0213765875 0.333106399
v -0.613571048 -0.0295663215 0.335539997
v -0.61161828 -0.032848265 0.335539997
v -0.608982384 -0.0402443297 0.339036524
v -0.609710872 -0.0493193232 0.340307921
v -0.61052072 -0.0539891496 0.338479728
v -0.606472492 -0.0606799796 0.342911631
v -0.602174938 -0.0670512766 0.343169242
v -0.601268172 -0.0751477033 0.341180891
v -0.601403177 -0.0837930664 0.338496804
v -0.591265976 -0.0870080069 0.338280261
v -0.593461752 -0.0924361572 0.335516095
v -0.584855914 -0.0964288414 0.334287137
v -0.570416629 -0.0972165987 0.332624435
v -0.564430654 -0.0982424766 0.330979317
v -0.566815376 -0.103645124 0.323691756
v -0.563151002 -0.105744958 0.316098541
v -0.553816915 -0.104868881 0.312351823
v -0.553847671 -0.104600146 0.303557247
v -0.537328064 -0.0956291705 0.30610165
v -0.537990212 -0.0956923142 0.296871841
v -0.535043359 -0.0895505622 0.291463971
v -0.537220836 -0.0905463398 0.285555661
v -0.537776053 -0.0862316564 0.277708232
v -0.543556392 -0.0847854838 0.270630628
v -0.535961926 -0.0719097331 0.269811988
v -0.535856783 -0.0673968866 0.26683268
v -0.552419424 -0.0670011267 0.249119282
v -0.552313685 -0.062464878 0.246124536
v -0.548648894 -0.0602450967 0.239798203
v -0.548543096 -0.0557081811 0.23680301
v -0.552968204 -0.0576259531 0.224744409
v -0.552378714 -0.0569772832 0.216203675
v -0.552714884 -0.0568011701 0.206982583
v -0.554840028 -0.0575386435 0.196454823
v -0.548989594 -0.0541983731 0.19162859
v -0.555634081 -0.0615976229 0.176355436
v -0.55088383 -0.0631763861 0.169268802
v -0.545273006 -0.0599538647 0.164248466
v -0.549358368 -0.0662505776 0.155257761
v -0.549924731 -0.0662048161 0.145696029
v -0.553793073 -0.0722494051 0.132204488
v -0.55447942 -0.0768379718 0.125615418
v -0.551962256 -0.0796162859 0.116758592
v -0.548608541 -0.0819691792 0.108500384
v -0.552209496 -0.0879526585 0.0950191543
v -0.571249008 -0.10217952 0.0745654181
v -0.613615572 -0.128682271 0.0364800766
v -0.622334123 -0.14220278 0.0220286082
v -0.616517186 -0.14355047 0.0200696159
v -0.621224403 -0.155040503 0.00856503751
v -0.63639009 -0.172165826 -0.0109528918
v -0.625737369 -0.170960039 -0.00927097257
v -0.621658683 -0.177749902 -0.0190451499
v -0.639291465 -0.19187212 -0.0341772437
v -0.633857131 -0.198131293 -0.0381188542
v -0.637459695 -0.209312394 -0.049044624
v -0.633138418 -0.211529329 -0.0522501133
v -0.64410603 -0.226817399 -0.0689654648
v -0.633718967 -0.225724667 -0.0674817562
v -0.640093565 -0.233752117 -0.0840326026
v -0.626475811 -0.230867967 -0.0799961761
v -0.616137564 -0.234667987 -0.0702415258
v -0.615261197 -0.243618459 -0.0728624836
v -0.611367822 -0.250819832 -0.0780858919
v -0.606300652 -0.252634913 -0.0807277486
v -0.607652962 -0.257996798 -0.0934350714
v -0.594707072 -0.250560075 -0.0931325033
v -0.590371192 -0.25278452 -0.0963488221
v -0.588584483 -0.251641572 -0.104913764
v -0.58413142 -0.248991981 -0.111351624
v -0.658859849 -0.29593733 -0.183428451
v -0.66134578 -0.307154924 -0.183788896
v -0.658278346 -0.31522125 -0.17966643
v -0.656593382 -0.31914106 -0.180055887
v -0.658501208 -0.330070168 -0.179946065
v -0.658926606 -0.34016332 -0.178637475
v -0.656754553 -0.343813777 -0.178637475
v -0.658104539 -0.354465097 -0.178073049
v -0.656289697 -0.363279015 -0.17495589
v -0.652494788 -0.370914608 -0.175402626
v -0.654610932 -0.382062525 -0.175453857
v -0.650366902 -0.384494066 -0.173787028
v -0.652344525 -0.395584017 -0.17372565
v -0.648569465 -0.403257102 -0.174195796
v -0.651587963 -0.410031468 -0.173214734
v -0.645767927 -0.416481018 -0.17203784
v -0.645564258 -0.426305562 -0.170216292
v -0.644326508 -0.435545623 -0.17274031
v -0.639730334 -0.442743659 -0.172554672
v -0.641699791 -0.448920876 -0.170724645
v -0.638109207 -0.456744343 -0.171354055
v -0.632971942 -0.463611811 -0.170732498
v -0.62860316 -0.470954269 -0.170732498
v -0.624000072 -0.478149772 -0.17054221
v -0.617575288 -0.484195858 -0.168870285
v -0.612171054 -0.490875661 -0.168024823
v -0.601642787 -0.494383514 -0.168192998
v -0.596503973 -0.501211643 -0.167555481
v -0.587257028 -0.505504489 -0.16874823
v -0.578936815 -0.510263562 -0.165490121
v -0.568365216 -0.513660491 -0.165563583
v -0.56647867 -0.517496884 -0.165799201
v -0.555120587 -0.520350039 -0.165199235
v -0.545044482 -0.524015009 -0.165638074
v -0.542877555 -0.527656853 -0.165638074
v -0.528954089 -0.528750181 -0.162849292
v -0.519315183 -0.532644033 -0.163603693
v -0.507634282 -0.535154939 -0.162628144
v -0.506104052 -0.539198577 -0.163153991
v -0.494807929 -0.541929483 -0.16247344
v -0.485007346 -0.545640528 -0.163030669
v -0.479784817 -0.547176659 -0.16043365
v -0.472435951 -0.552520216 -0.163042754
v -0.464660317 -0.552490771 -0.163456768
v -0.45217967 -0.554298878 -0.161670446
v -0.441029131 -0.556984186 -0.160989732
v -0.432457328 -0.561423838 -0.162498415
v -0.430138677 -0.564892173 -0.162343264
v -0.417931557 -0.566780329 -0.160703033
v -0.406021923 -0.568839014 -0.159287855
v -0.397794485 -0.568379283 -0.1591914
v -0.389727116 -0.573090136 -0.161066815
v -0.378790051 -0.575756252 -0.160426661
v -0.37723583 -0.579730034 -0.16092439
v -0.369152427 -0.584397793 -0.16275993
v -0.360370755 -0.583470404 -0.162106633
v -0.349636853 -0.586203575 -0.161578089
v -0.340445608 -0.590021968 -0.162389919
v -0.33727622 -0.592813134 -0.161456078
v -0.326280773 -0.595291793 -0.160643712
v -0.315721661 -0.598057985 -0.160193488
v -0.308858931 -0.598423123 -0.161141112
v -0.296153963 -0.599564314 -0.158724397
v -0.279821455 -0.597977638 -0.153005421
v -0.278212994 -0.601859689 -0.153443694
v -0.2713283 -0.607227504 -0.156197295
v -0.26457113 -0.612687349 -0.159063548
v -0.258602411 -0.613644063 -0.160740271
v -0.251595438 -0.618906379 -0.16337055
v -0.245148063 -0.61948806 -0.164594978
v -0.233156651 -0.620951533 -0.162639841
v -0.223620698 -0.624248326 -0.162910745
v -0.211815104 -0.625782013 -0.161065444
v -0.209733531 -0.629280448 -0.161065444
v -0.199270189 -0.631801426 -0.16042766
v -0.191954777 -0.631633699 -0.160761341
v -0.182678327 -0.635028601 -0.161185637
v -0.17235142 -0.632484794 -0.158669755
v -0.164466158 -0.636919618 -0.160355017
v -0.153254181 -0.638724804 -0.158896685
v -0.145341709 -0.643102407 -0.16052565
v -0.137047529 -0.642063081 -0.15982756
v -0.131584972 -0.643258035 -0.161799595
v -0.120441936 -0.64501822 -0.160312951
v -0.110668339 -0.647840202 -0.160104945
v -0.103436634 -0.647581875 -0.160344467
v -0.0928600058 -0.649710119 -0.159321964
v -0.0865142941 -0.650137305 -0.16038011
v -0.0797926933 -0.655352831 -0.16304417
v -0.0710215569 -0.653783679 -0.16172801
v -0.055045221 -0.651873708 -0.160552964
v -0.045107428 -0.654386401 -0.160019413
v -0.0394905023 -0.655344069 -0.161708519
v -0.0333759561 -0.655883849 -0.162900001
v -0.0166095011 -0.653164983 -0.160759985
v -0.00935410801 -0.652720034 -0.160776034
v 0.00235663261 -0.654138446 -0.163553134
v 0.0094238501 -0.653818846 -0.163715273
v 0.0265374128 -0.650627434 -0.160995036
v 0.0341728292 -0.64978385 -0.160528585
v 0.0418162718 -0.648918688 -0.160034999
v 0.0547370091 -0.649161577 -0.161396667
v 0.0634501949 -0.647341967 -0.159760952
v 0.0755422264 -0.643158019 -0.159836322
v 0.0822499692 -0.643018961 -0.160197318
v 0.0970730931 -0.641491234 -0.159422025
v 0.101945661 -0.637845099 -0.159578562
v 0.114134014 -0.638534188 -0.161441416
v 0.122534573 -0.636857808 -0.15994978
v 0.134278655 -0.632822871 -0.160124779
v 0.138447776 -0.634807765 -0.163018599
v 0.155317456 -0.626235068 -0.157711133
v 0.173876151 -0.616123557 -0.150506854
v 0.177897334 -0.618186533 -0.153489739
v 0.18410635 -0.618911684 -0.159322396
v 0.191020489 -0.619010627 -0.164396897
v 0.194211483 -0.62180984 -0.168270618
v 0.206982777 -0.616680801 -0.167004615
v 0.215376467 -0.609803677 -0.163114309
v 0.231106192 -0.606976688 -0.160628065
v 0.236136228 -0.608085215 -0.162447199
v 0.250281572 -0.601597846 -0.159455478
v 0.258171529 -0.600724399 -0.163277686
v 0.262373567 -0.597554326 -0.163830385
v 0.277725816 -0.59487915 -0.161472857
v 0.28711614 -0.592594266 -0.163536429
v 0.294132888 -0.586838007 -0.160885319
v 0.30483982 -0.583317518 -0.161401078
v 0.310256273 -0.583974481 -0.162646621
v 0.322243959 -0.579236388 -0.161640853
v 0.328532189 -0.579064488 -0.161861509
v 0.338259816 -0.576363087 -0.163336918
v 0.350736529 -0.571092725 -0.161623284
v 0.361813068 -0.567089021 -0.16145049
v 0.365703374 -0.569084883 -0.164336279
v 0.375876188 -0.560944378 -0.162948936
v 0.381928563 -0.560903251 -0.163303897
v 0.392982602 -0.55684185 -0.162999988
v 0.404289037 -0.552514672 -0.162343502
v 0.410126835 -0.552627504 -0.162878811
v 0.419656098 -0.549932361 -0.164232761
v 0.431036979 -0.545460165 -0.1633486
v 0.437103033 -0.545312166 -0.163547277
v 0.447697908 -0.541538715 -0.163510159
v 0.449640095 -0.540390909 -0.166375428
v 0.461278051 -0.535590708 -0.165018246
v 0.472160012 -0.531483054 -0.164509028
v 0.475044161 -0.53432709 -0.168455586
v 0.486316681 -0.524910212 -0.165148139
v 0.494135529 -0.528590918 -0.170509398
v 0.499531746 -0.524092555 -0.16909866
v 0.509540498 -0.515848458 -0.167192817
v 0.519347191 -0.512662351 -0.167749092
v 0.527783215 -0.505919337 -0.167682484
v 0.533481479 -0.506701708 -0.17326957
v 0.543838143 -0.498064011 -0.170727402
v 0.551349521 -0.492197275 -0.171699077
v 0.557932317 -0.487233371 -0.173806995
v 0.564781249 -0.477169633 -0.173247457
v 0.56698674 -0.475747138 -0.175651535
v 0.574554563 -0.464996666 -0.17412807
v 0.555731893 -0.484813362 -0.208566785
v 0.559595048 -0.482514769 -0.2141518
v 0.563458204 -0.480216205 -0.219736814
v 0.56732136 -0.477917612 -0.225321829
v 0.516545713 -0.533311486 -0.298753887
v 0.523343146 -0.538184464 -0.305686325
v 0.528128862 -0.53925401 -0.307346135
v 0.5387972 -0.535272062 -0.306741208
v 0.544910133 -0.535001695 -0.306624323
v 0.548859358 -0.532651901 -0.312333733
v 0.549664795 -0.543492496 -0.327197492
v 0.553605974 -0.540352702 -0.327452421
v 0.559442341 -0.541154027 -0.333174974
v 0.588829756 -0.523242652 -0.309752434
v 0.593280613 -0.523745537 -0.306263924
v 0.598343074 -0.520253956 -0.310368568
v 0.60133636 -0.513860106 -0.314751804
v 0.59984076 -0.511188805 -0.319741994
v 0.597072124 -0.510599494 -0.331962526
v 0.601851821 -0.502405703 -0.333921134
v 0.610367358 -0.495447963 -0.333282292
v 0.600525558 -0.506967485 -0.357839584
v 0.576240361 -0.537324965 -0.399459511
v 0.57673806 -0.538478255 -0.410051882
v 0.58501327 -0.531771839 -0.40987286
v 0.581836879 -0.54176116 -0.428272724
v 0.588752866 -0.530480742 -0.42164138
v 0.582789242 -0.543318987 -0.444043636
v 0.596195519 -0.53138268 -0.436597914
v 0.60018903 -0.529006481 -0.442371458
v 0.597984493 -0.532940388 -0.456950605
v 0.601989865 -0.530557215 -0.462741196
v 0.603313088 -0.535195589 -0.469326317
v 0.608194768 -0.531918347 -0.47387293
v 0.60829711 -0.52752918 -0.47677061
v 0.61506021 -0.512084782 -0.473121047
v 0.618131518 -0.514921129 -0.477197796
v 0.619717777 -0.509878337 -0.483722568
v 0.61578095 -0.509601772 -0.492468894
v 0.608223557 -0.508679152 -0.509537697
v 0.607330382 -0.50528121 -0.513892651
v 0.610016108 -0.504238486 -0.521661699
v 0.609288096 -0.501500726 -0.531645417
v 0.613217652 -0.499204725 -0.537622929
v 0.6225034 -0.49149853 -0.535699248
v 0.620044768 -0.490509689 -0.548278034
v 0.618070543 -0.493335366 -0.557105601
v 0.609407902 -0.498575002 -0.578978777
v 0.614293993 -0.489323825 -0.57479471
v 0.618343592 -0.486914307 -0.580649257
v 0.598987162 -0.497643471 -0.615790308
v 0.601225495 -0.491861463 -0.621564507
v 0.601329803 -0.487385929 -0.624519169
v 0.594406605 -0.490731895 -0.644101024
v 0.59645915 -0.489510596 -0.647068501
v 0.59861654 -0.483794391 -0.653003454
v 0.600773931 -0.478078187 -0.658938348
v 0.595439017 -0.478974909 -0.670176089
v 0.590611935 -0.485396951 -0.689774871
v 0.594745278 -0.482937604 -0.695750535
v 0.59064889 -0.488654643 -0.714382529
v 0.595411897 -0.485575706 -0.719434619
v 0.599560201 -0.483107418 -0.725431979
v 0.595499158 -0.488814801 -0.744199932
v 0.599663734 -0.486336827 -0.750220776
v 0.603828371 -0.483858883 -0.75624162
v 0.601852357 -0.480537891 -0.75624162
v 0.597687721 -0.483015835 -0.750220776
v 0.59362942 -0.480933785 -0.747210324
v 0.588205099 -0.482668042 -0.765108287
v 0.587665856 -0.48485437 -0.778541267
v 0.581233382 -0.498231053 -0.80443877
v 0.578295588 -0.502835572 -0.821828246
v 0.581824958 -0.50639081 -0.832235038
v 0.573427141 -0.515626609 -0.852015734
v 0.579355657 -0.52138412 -0.855468988
v 0.561587811 -0.549279928 -0.883804262
v 0.563625634 -0.552704871 -0.883804262
v 0.570353091 -0.556860149 -0.879559159
v 0.576888144 -0.561184585 -0.875606477
v 0.582710266 -0.566215158 -0.872784138
v 0.588913262 -0.571769238 -0.875878692
v 0.593084991 -0.573909461 -0.878973305
v 0.612161756 -0.561517835 -0.86441201
v 0.62052089 -0.564746857 -0.863907576
v 0.624662936 -0.566871822 -0.866980076
v 0.630930185 -0.567732275 -0.873125076
v 0.633163929 -0.561813712 -0.879270077
v 0.635289133 -0.56054914 -0.882342637
v 0.640657783 -0.551344872 -0.883292079
v 0.644901812 -0.548819661 -0.889427722
v 0.653712511 -0.541499496 -0.887936413
v 0.657947063 -0.538979888 -0.894058406
v 0.667105913 -0.531280577 -0.891892254
v 0.667213738 -0.526655138 -0.89494586
v 0.658271313 -0.525070131 -0.903241396
v 0.64917624 -0.524534047 -0.918397784
v 0.64928472 -0.519881129 -0.921469569
v 0.646017909 -0.513242364 -0.926828265
v 0.644031763 -0.504356146 -0.923386812
v 0.642154098 -0.501740038 -0.929796398
v 0.636483073 -0.496626079 -0.932541132
v 0.614578068 -0.507959187 -0.962460101
v 0.608363688 -0.505055845 -0.979459107
v 0.605659187 -0.503177285 -0.987297714
v 0.60125339 -0.496616364 -0.987824798
v 0.599207401 -0.493177801 -0.987824798
v 0.593818367 -0.487590611 -0.98999244
v 0.585386455 -0.484148771 -0.990502715
v 0.58275342 -0.480435789 -0.984764755
v 0.57638967 -0.479562104 -0.978525162
v 0.573227763 -0.480997115 -0.970386326
v 0.591698468 -0.461212575 -0.926796198
v 0.584508657 -0.455846488 -0.918789208
v 0.588072479 -0.451562881 -0.906437993
v 0.581253469 -0.445884258 -0.89790827
v 0.577111244 -0.443759143 -0.894835591
v 0.572740436 -0.441854149 -0.892130435
v 0.566701353 -0.440773547 -0.885617495
v 0.562424481 -0.438008517 -0.876300097
v 0.556291461 -0.43778795 -0.876399457
v 0.559783816 -0.432937026 -0.857998133
v 0.553538799 -0.432079613 -0.851874888
v 0.543639123 -0.435429424 -0.857881129
v 0.545176029 -0.432482272 -0.842690051
v 0.535561562 -0.434803337 -0.841815174
v 0.545790493 -0.423686534 -0.813227296
v 0.541576803 -0.426193684 -0.807135463
v 0.535363793 -0.425340682 -0.80104363
v 0.535841405 -0.423446476 -0.787760794
v 0.532218695 -0.425402701 -0.780793607
v 0.528015256 -0.427903771 -0.774716616
v 0.52642709 -0.427956402 -0.764675975
v 0.522228658 -0.430454463 -0.758606315
v 0.540529549 -0.417079479 -0.721662283
v 0.534833431 -0.421705425 -0.724090815
v 0.52995199 -0.4248541 -0.719139457
v 0.525784731 -0.427333623 -0.713114798
v 0.521617532 -0.429813117 -0.707090199
v 0.534804821 -0.42121172 -0.678284168
v 0.530445755 -0.423880816 -0.672628582
v 0.524749756 -0.427800208 -0.668936253
v 0.533153057 -0.424357861 -0.653443933
v 0.52641201 -0.429262966 -0.651308596
v 0.522282004 -0.431720287 -0.64533782
v 0.527498543 -0.430543184 -0.628629088
v 0.521739483 -0.434532106 -0.625057995
v 0.508761883 -0.445279509 -0.631883204
v 0.517103553 -0.441172451 -0.610777557
v 0.502452612 -0.453499168 -0.619924784
v 0.527411938 -0.434475958 -0.581050336
v 0.514208257 -0.445467561 -0.588139951
v 0.521174669 -0.44260183 -0.569228411
v 0.513279021 -0.448613256 -0.568711162
v 0.518920898 -0.446976423 -0.551779091
v 0.516880333 -0.44819057 -0.548829019
v 0.5088045 -0.454376757 -0.548539996
v 0.61031431 -0.357537687 -0.394859254
v 0.609966576 -0.353028625 -0.392763704
v 0.61016506 -0.344512135 -0.398386151
v 0.611645699 -0.334153593 -0.396676511
v 0.611744761 -0.329901934 -0.399483413
v 0.611072242 -0.3215653 -0.400788367
v 0.611171305 -0.317315787 -0.403593779
v 0.611369371 -0.30881682 -0.409204662
v 0.618382514 -0.297620595 -0.396757841
v 0.618579805 -0.289157659 -0.402344942
v 0.618678391 -0.284926176 -0.405138493
v 0.618777037 -0.280694693 -0.407932043
v 0.619673967 -0.271599978 -0.412529767
v 0.619772553 -0.267369926 -0.415322363
v 0.619969785 -0.258909822 -0.420907587
v 0.621784508 -0.253143787 -0.421263605
v 0.621645093 -0.244419575 -0.421791136
v 0.6217435 -0.240196243 -0.424579293
v 0.624399722 -0.229015976 -0.421130002
v 0.622671723 -0.221732244 -0.423912287
v 0.620845437 -0.218662918 -0.423912287
v 0.624203503 -0.206935018 -0.419469327
v 0.624399483 -0.198526829 -0.425020278
v 0.624497533 -0.19432272 -0.427795768
v 0.622773707 -0.18705681 -0.430571228
v 0.622871697 -0.1828527 -0.433346719
v 0.621761024 -0.175061092 -0.43524757
v 0.620933771 -0.171150133 -0.433830887
v 0.623306632 -0.160404772 -0.430766672
v 0.621587515 -0.153158769 -0.433534533
v 0.620777607 -0.149732992 -0.437597603
v 0.619057775 -0.14248383 -0.440366685
v 0.616332591 -0.135613337 -0.439070284
v 0.615520358 -0.132179886 -0.443135768
v 0.61188519 -0.126070365 -0.443135768
v 0.620855331 -0.109994255 -0.43068561
v 0.615398109 -0.105427854 -0.433301568
v 0.613297284 -0.101770625 -0.422801912
v 0.617626131 -0.0896450356 -0.417010695
v 0.615250647 -0.091998145 -0.425813913
v 0.616135001 -0.0876068473 -0.432899863
v 0.614602268 -0.0839386955 -0.427061766
v 0.613812029 -0.0756005794 -0.423072904
v 0.613077044 -0.0676354617 -0.424445152
v 0.609205365 -0.0617963262 -0.424825847
v 0.605602622 -0.0557413921 -0.424825847
v 0.601999938 -0.049686458 -0.424825847
v 0.604362786 -0.0389468074 -0.416440219
v 0.602829516 -0.031300649 -0.413550526
v 0.601719379 -0.0233431291 -0.410078019
v 0.601841271 -0.0144544709 -0.404894412
v 0.598666966 -0.00812988635 -0.404330283
v 0.595089257 -0.00211698376 -0.404330283
v 0.592593133 0.0047180797 -0.402825475
v 0.589017272 0.0107278954 -0.402825475
v 0.592170775 0.0217976645 -0.393494099
v 0.591950595 0.0302892234 -0.388864577
v 0.588391781 0.0362704061 -0.388864577
v 0.584832966 0.0422515906 -0.388864577
v 0.581274152 0.0482327752 -0.388864577
v 0.577715337 0.0542139597 -0.388864577
v 0.574156523 0.0601951443 -0.388864577
v 0.570833743 0.0663471073 -0.388541043
v 0.567275345 0.0723276287 -0.388541043
v 0.563947201 0.0784728974 -0.388226539
v 0.561229348 0.0850505307 -0.387080848
v 0.564452827 0.0913736522 -0.385520935
v 0.562772632 0.098455824 -0.388226211
v 0.559221148 0.104424603 -0.388226211
v 0.555669725 0.110393383 -0.388226211
v 0.552118301 0.116362162 -0.388226211
v 0.548566878 0.122330934 -0.388226211
v 0.545015395 0.128299713 -0.388226211
v 0.548566878 0.122330934 -0.388226211
v 0.55673784 0.128321409 -0.366717994
v 0.554971933 0.131289288 -0.366717994
v 0.55144012 0.137225062 -0.366717994
v 0.547908306 0.14316082 -0.366717994
v 0.544376552 0.149096593 -0.366717994
v 0.541219592 0.155284375 -0.366215169
v 0.538316667 0.161639035 -0.365373939
v 0.530457079 0.164564833 -0.376352429
v 0.528459549 0.17153433 -0.374289662
v 0.52857846 0.179882646 -0.369408309
v 0.525046647 0.185818404 -0.369408309
v 0.521802604 0.191941038 -0.369025469
v 0.523959637 0.201548874 -0.361468822
v 0.52267462 0.208904415 -0.358501762
v 0.512780368 0.210668698 -0.372098625
v 0.512035251 0.214286163 -0.370745599
v 0.515016258 0.224338084 -0.36212942
v 0.512677372 0.230996028 -0.360569388
v 0.509159625 0.236908183 -0.360569388
v 0.507030666 0.243634343 -0.363862157
v 0.503977656 0.249835342 -0.363249004
v 0.501441538 0.256314933 -0.367077142
v 0.498795629 0.262762517 -0.36592865
v 0.496554524 0.269449353 -0.36425218
v 0.494182318 0.272013545 -0.37017265
v 0.493133366 0.279414654 -0.366930246
v 0.498119533 0.290405124 -0.355790585
v 0.490204543 0.293671161 -0.366659492
v 0.492960453 0.303275079 -0.35845837
v 0.491320461 0.306295156 -0.3633973
v 0.489552468 0.313202024 -0.361126125
v 0.487895548 0.320185989 -0.36379388
v 0.486238658 0.327169925 -0.366461664
v 0.486484587 0.335208535 -0.361566722
v 0.486578614 0.339242667 -0.364229977
v 0.484924525 0.346214801 -0.366893232
v 0.483599693 0.35337308 -0.369125903
v 0.481522292 0.356124938 -0.369556487
v 0.479868203 0.363097072 -0.372219741
v 0.480291992 0.367315292 -0.374451607
v 0.485412151 0.37804386 -0.368251622
v 0.483763337 0.384993702 -0.370906353
v 0.483857095 0.3890149 -0.373561084
v 0.498815 0.401261687 -0.361759871
v 0.498908192 0.405259222 -0.364398986
v 0.505560458 0.412917465 -0.363437384
v 0.513531744 0.421273261 -0.36069867
v 0.523999393 0.427138984 -0.356885821
v 0.527620971 0.429293871 -0.362121642
v 0.520890474 0.42957446 -0.373829365
v 0.524523497 0.431736082 -0.379081666
v 0.501713276 0.423492789 -0.41746974
v 0.505387604 0.425679028 -0.422781795
v 0.505481362 0.429702193 -0.425437808
v 0.509155691 0.431888431 -0.430749863
v 0.512830019 0.43407467 -0.436061919
v 0.514760971 0.439190954 -0.441373974
v 0.518435299 0.441377193 -0.446686029
v 0.520366251 0.446493477 -0.451998085
v 0.522203445 0.447586596 -0.454654098
v 0.525877774 0.449772835 -0.459966153
v 0.529552102 0.451959074 -0.465278208
v 0.512267351 0.442999363 -0.499608397
v 0.51360327 0.447839975 -0.505823791
v 0.476951003 0.42866376 -0.567415714
v 0.480730623 0.430912644 -0.57287997
v 0.486303538 0.430147529 -0.578344226
v 0.479454815 0.426750034 -0.59878087
v 0.466504216 0.420113891 -0.62794739
v 0.470330715 0.42239067 -0.633479416
v 0.474157214 0.424667448 -0.639011443
v 0.477983713 0.426944226 -0.644543529
v 0.481810212 0.429221004 -0.650075555
v 0.485636711 0.431497782 -0.655607581
v 0.48946321 0.433774561 -0.661139667
v 0.493289709 0.436051339 -0.666671693
v 0.497116208 0.438328117 -0.67220372
v 0.500942707 0.440604895 -0.677735806
v 0.504769206 0.442881674 -0.683267832
v 0.508595705 0.445158452 -0.688799858
v 0.485858321 0.43336156 -0.733478487
v 0.489731312 0.435666025 -0.739077747
v 0.480591625 0.431079268 -0.763986945
v 0.484487474 0.433397293 -0.769619286
v 0.488383323 0.435715348 -0.775251567
v 0.492279172 0.438033372 -0.780883849
v 0.496175021 0.440351427 -0.78651619
v 0.50007087 0.442669451 -0.792148471
v 0.477945685 0.431225538 -0.837206125
v 0.480017304 0.43671459 -0.842905223
v 0.481988341 0.437887341 -0.845754743
v 0.485930383 0.440232873 -0.851453841
v 0.489872426 0.442578405 -0.857152939
v 0.493814439 0.444923908 -0.862851977
v 0.495886087 0.450412959 -0.868551075
v 0.49982813 0.452758491 -0.874250174
v 0.491119921 0.44847247 -0.899587929
v 0.4912211 0.452813625 -0.902453899
v 0.495185852 0.455172688 -0.90818578
v 0.499150634 0.45753172 -0.91391772
v 0.501234174 0.463052392 -0.919649661
v 0.515898108 0.475089461 -0.905595124
v 0.523906469 0.479540676 -0.904876411
v 0.546282887 0.495340675 -0.872532427
v 0.550177217 0.497657835 -0.878162622
v 0.550376058 0.506186068 -0.883792758
v 0.552323222 0.507344604 -0.886607885
v 0.552522004 0.515872836 -0.892238021
v 0.552621424 0.520136952 -0.895053148
v 0.546555817 0.525157988 -0.898826301
v 0.542856157 0.531375885 -0.898826301
v 0.529128551 0.532830596 -0.920680642
v 0.494560897 0.516136944 -0.987730742
v 0.490774602 0.522500515 -0.987730742
v 0.487312585 0.529021919 -0.987215281
v 0.480592668 0.53374362 -0.985819578
v 0.475446492 0.535360336 -0.990966976
v 0.472814202 0.537734151 -0.98004961
v 0.509164274 0.558966935 -0.913917661
v 0.49848637 0.561915994 -0.924836814
v 0.497950524 0.569203436 -0.908027947
v 0.492160082 0.570237339 -0.908265233
v 0.476901531 0.570866048 -0.920289099
v 0.476480842 0.578420997 -0.909264624
v 0.475950539 0.577915251 -0.904208779
v 0.469741881 0.578517735 -0.8991732
v 0.465722769 0.576138556 -0.893633544
v 0.460669667 0.573282301 -0.889671743
v 0.456739366 0.570943773 -0.883989692
v 0.453244001 0.56480819 -0.880477846
v 0.445604056 0.556737304 -0.883228898
v 0.449284226 0.554439068 -0.880487323
v 0.427052528 0.535432458 -0.908111274
v 0.426950991 0.531076849 -0.905235767
v 0.421125442 0.527835548 -0.902267098
v 0.419033259 0.522292018 -0.896511436
v 0.417042673 0.521107614 -0.893633604
v 0.411780864 0.518129766 -0.889791548
v 0.410969287 0.513195276 -0.882122278
v 0.406598359 0.510640264 -0.876945555
v 0.417121351 0.511148095 -0.852499664
v 0.413161397 0.508791864 -0.846774638
v 0.408927381 0.506304085 -0.841452956
v 0.40496695 0.503947616 -0.835727274
v 0.40100652 0.501591146 -0.830001593
v 0.397046089 0.499234706 -0.824275911
v 0.402136236 0.497181714 -0.808134019
v 0.40016219 0.496007144 -0.805280089
v 0.396214068 0.493658006 -0.799572229
v 0.395404428 0.492825329 -0.789344847
v 0.400115848 0.494662583 -0.771224976
v 0.42405349 0.505800188 -0.72569257
v 0.444108367 0.51507014 -0.685967267
v 0.421904832 0.507870853 -0.703894198
v 0.441427022 0.516852558 -0.665219128
v 0.440810174 0.516124547 -0.655158281
v 0.457043111 0.527634203 -0.624333203
v 0.455270886 0.530229867 -0.6135149
v 0.458887368 0.535388947 -0.595228612
v 0.461695433 0.540134966 -0.578172743
v 0.464057475 0.544868767 -0.567124069
v 0.464686394 0.548535764 -0.553234994
v 0.46366173 0.547823668 -0.549378157
v 0.454045832 0.546637774 -0.549624026
v 0.448534131 0.547394454 -0.544219851
v 0.447134733 0.546503305 -0.5408777
v 0.441624165 0.547259867 -0.535474658
v 0.442003101 0.546967387 -0.524504602
v 0.438272595 0.54474771 -0.519111395
v 0.429918617 0.544167757 -0.517547965
v 0.431962907 0.544650733 -0.50441736
v 0.426165998 0.545502663 -0.504614651
v 0.42066732 0.546257615 -0.499223202
v 0.415168613 0.547012508 -0.493831754
v 0.413304001 0.545903027 -0.491136044
v 0.409318924 0.547357738 -0.483753711
v 0.410738677 0.547520638 -0.471619546
v 0.405255944 0.548273325 -0.466243744
v 0.39977324 0.549026072 -0.460867971
v 0.403509915 0.550492644 -0.450918287
v 0.406192452 0.551225722 -0.437289149
v 0.400821716 0.552012801 -0.431833863
v 0.400587499 0.551401436 -0.422039419
v 0.399422556 0.550364435 -0.413465738
v 0.392619371 0.550741196 -0.414892197
v 0.388924927 0.548543036 -0.409551084
v 0.389345467 0.548229158 -0.398995221
v 0.387128294 0.546708643 -0.391806245
v 0.385017484 0.545237541 -0.384496033
v 0.381334484 0.543046176 -0.379171431
v 0.380197555 0.542022884 -0.37066412
v 0.376534343 0.539841115 -0.365325719
v 0.372855395 0.537652135 -0.360006988
v 0.363532841 0.536612213 -0.359507471
v 0.359847754 0.534419596 -0.354179859
v 0.356162637 0.53222692 -0.348852217
v 0.334812611 0.525957286 -0.367941052
v 0.327216357 0.525742769 -0.365160912
v 0.320298731 0.52610445 -0.366485298
v 0.315305799 0.52708149 -0.360506088
v 0.304021001 0.525486588 -0.367074549
v 0.294466972 0.528197229 -0.364419848
v 0.286297649 0.528042018 -0.367152929
v 0.277071625 0.527429461 -0.371124357
v 0.269393235 0.531018853 -0.366136402
v 0.26573661 0.53289479 -0.363423914
v 0.255390793 0.535318196 -0.361584783
v 0.242104143 0.532993257 -0.370222986
v 0.237146914 0.534321129 -0.369004607
v 0.230447263 0.538377881 -0.362781256
v 0.221306071 0.541694403 -0.364343345
v 0.217624083 0.543583393 -0.361612082
v 0.213942081 0.545472324 -0.358880788
v 0.205042049 0.548599124 -0.355193943
v 0.186156645 0.547859192 -0.367911488
v 0.183267161 0.55010128 -0.364227444
v 0.181040078 0.552618265 -0.359788299
v 0.170661539 0.555519521 -0.362617642
v 0.166953728 0.557421744 -0.359867215
v 0.159538105 0.56122613 -0.354366362
v 0.155830294 0.563128352 -0.351615936
v 0.128268257 0.558726609 -0.368815988
v 0.124005891 0.560430586 -0.366634279
v 0.116506964 0.564256489 -0.36111477
v 0.110429689 0.565233707 -0.360952765
v 0.10668841 0.567153096 -0.358177513
v 0.0946051255 0.569160521 -0.357724458
v 0.0908572227 0.571083307 -0.354944319
v 0.0640335456 0.567310989 -0.370645016
v 0.0876641795 0.576239407 -0.339766949
v 0.0547549948 0.570114553 -0.362013489
v 0.0503751934 0.571815372 -0.359872073
v 0.0383585021 0.573958457 -0.359113961
v 0.042225875 0.575057209 -0.350016594
v 0.033333011 0.578411639 -0.345866442
v 0.0244617239 0.578391552 -0.348545015
v 0.0244537126 0.581367254 -0.336809099
v 0.0188270453 0.582597256 -0.335986853
v -0.0235911626 0.573251307 -0.367456108
v -0.0291841738 0.574547052 -0.36649099
v -0.0332085751 0.576009631 -0.358939767
v -0.0136325303 0.582963526 -0.333381355
v -0.051290188 0.575597286 -0.359308869
v -0.458168715 0.428089947 -0.78982681
v -0.453646421 0.430780709 -0.796364725
v -0.451269865 0.437077701 -0.802902699
v -0.456474662 0.4361628 -0.819760025
v -0.449811101 0.444058299 -0.821765602
v -0.464274019 0.43923676 -0.842865229
v -0.461880684 0.445578188 -0.849449277
v -0.459487349 0.451919615 -0.856033385
v -0.458270103 0.457306713 -0.858144641
v -0.467533052 0.459426165 -0.877260089
v -0.46513173 0.465788811 -0.883866191
v -0.465015084 0.470792055 -0.887169242
v -0.462613761 0.477154702 -0.893775344
v -0.473757774 0.478155583 -0.909277439
v -0.475816548 0.486833453 -0.912592232
v -0.475699484 0.491854489 -0.915907025
v -0.508212149 0.486046642 -0.960520864
v -0.503575981 0.488805175 -0.967223525
v -0.501139522 0.495260775 -0.973926127
v -0.509089231 0.49307856 -0.988532066
v -0.504780948 0.504079819 -0.984880865
v -0.506138504 0.513701499 -0.993343353
v -0.508342028 0.517404854 -0.993343353
v -0.515149593 0.523403585 -0.990072131
v -0.521206915 0.530259371 -0.991875827
v -0.525734961 0.532582402 -0.988516986
v -0.533122361 0.533957124 -0.988268793
v -0.530655801 0.537981451 -0.971442699
v -0.505256236 0.549547255 -0.929950237
v -0.511908591 0.555503726 -0.926631451
v -0.514087021 0.559164822 -0.926631451
v -0.519746244 0.566066384 -0.928029895
v -0.526401281 0.572025239 -0.924709797
v -0.530877113 0.574321449 -0.921389699
v -0.536054313 0.58011055 -0.910737753
v -0.538348138 0.578745723 -0.907421529
v -0.538492978 0.577427328 -0.896090388
v -0.54590708 0.573800445 -0.892452896
v -0.559514642 0.568199158 -0.895301819
v -0.564112782 0.565463245 -0.888654232
v -0.563798308 0.559936047 -0.879155099
v -0.566061676 0.557950556 -0.870087385
v -0.568627059 0.547141612 -0.865871072
v -0.579052448 0.543139756 -0.870977819
v -0.571189165 0.536319554 -0.861641586
v -0.571189702 0.53132391 -0.858197272
v -0.575965524 0.520356953 -0.861953676
v -0.584994376 0.508531749 -0.87584281
v -0.57699585 0.502369642 -0.872097433
v -0.574573815 0.494333625 -0.874137402
v -0.57462728 0.486025244 -0.884518445
v -0.489163369 0.506022573 -0.794281602
v -0.484444469 0.507087231 -0.783760607
v -0.484804124 0.505838931 -0.772949636
v -0.490340948 0.507127702 -0.765312016
v -0.494838685 0.504451513 -0.758809566
v -0.483738482 0.50715977 -0.736310184
v -0.490337938 0.50806582 -0.729839444
v -0.489817381 0.507684231 -0.723791301
v -0.492515862 0.509927034 -0.713370204
v -0.481284827 0.512665272 -0.691025019
v -0.485615939 0.514887273 -0.687812269
v -0.492169291 0.515786946 -0.681386709
v -0.492434621 0.514571488 -0.670772552
v -0.497947514 0.515821874 -0.663325429
v -0.503304839 0.517689109 -0.661146879
v -0.500734508 0.521676123 -0.645689309
v -0.501437068 0.524539649 -0.633537889
v -0.496604979 0.52560544 -0.623400867
v -0.503104985 0.526497841 -0.617027581
v -0.511696696 0.530905604 -0.610654354
v -0.510068655 0.530877829 -0.603728116
v -0.52040571 0.534696221 -0.599067688
v -0.512277186 0.536824763 -0.585865796
v -0.520617068 0.541287899 -0.579306006
v -0.512005985 0.547150612 -0.55845809
v -0.52620244 0.546070218 -0.564827919
v -0.525738001 0.549227953 -0.551872849
v -0.526123166 0.548517287 -0.546992421
v -0.526086211 0.547362924 -0.536482096
v -0.529414296 0.545106053 -0.529186726
v -0.527275205 0.54464823 -0.516738832
v -0.523745656 0.544652998 -0.503025115
v -0.525086105 0.551329374 -0.490070254
v -0.524638474 0.550895393 -0.484491974
v -0.536058009 0.554259717 -0.480996579
v -0.544866025 0.554354966 -0.476963878
v -0.520776033 0.557483196 -0.451434076
v -0.549793422 0.550995588 -0.466095448
v -0.546134174 0.551598489 -0.457598567
v -0.52590853 0.557008386 -0.428826481
v -0.534110367 0.553180337 -0.426182181
v -0.541525364 0.549605906 -0.422796905
v -0.541638672 0.544313908 -0.414619386
v -0.535828173 0.540978849 -0.401089281
v -0.527641058 0.53902179 -0.390482396
v -0.536660194 0.534906149 -0.388562322
v -0.501228213 0.541469276 -0.348492175
v -0.501754344 0.544225335 -0.337242633
v -0.500145376 0.544202626 -0.33085674
v -0.513382971 0.53869462 -0.332772851
v -0.516628981 0.532454073 -0.327551663
v -0.520609915 0.530018151 -0.321195394
v -0.520718098 0.525377274 -0.318131596
v -0.531029761 0.52487582 -0.315579951
v -0.538314819 0.525391936 -0.31034556
v -0.538423121 0.520743787 -0.307276934
v -0.480600417 0.53505671 -0.248699352
v -0.481099159 0.533814073 -0.239484251
v -0.480801314 0.532842696 -0.229600623
v -0.485714704 0.534092605 -0.222543865
v -0.487791836 0.532856703 -0.219540954
v -0.488235086 0.531635642 -0.210347041
v -0.49029097 0.529873073 -0.20255591
v -0.494437635 0.527405798 -0.196560994
v -0.488839716 0.528232515 -0.182281926
v -0.494935244 0.529069364 -0.176305279
v -0.499069303 0.5266096 -0.170328632
v -0.503203332 0.524149895 -0.164351985
v -0.505500555 0.522311151 -0.156836554
v -0.503841162 0.521812856 -0.146028772
v -0.506668687 0.519798279 -0.138987601
v -0.510791183 0.517345309 -0.133027583
v -0.501569331 0.519422114 -0.116044365
v -0.505552709 0.517020822 -0.11000865
v -0.508337259 0.515027344 -0.102990277
v -0.5116117 0.512867987 -0.096379973
v -0.5072245 0.51331985 -0.0835344344
v -0.50693202 0.5123806 -0.0740609616
v -0.511018097 0.509949386 -0.0681536272
v -0.498235524 0.509379804 -0.0502079912
v -0.501631737 0.507190168 -0.0437891074
v -0.510986388 0.502953768 -0.042144388
v -0.515059352 0.500530303 -0.0362560414
v -0.50140208 0.500316024 -0.0178022664
v -0.503428578 0.499110281 -0.0148725566
v -0.505063832 0.49753505 -0.00710042845
v -0.494799465 0.500081241 0.0100388359
v -0.491663337 0.504033267 0.0229965672
v -0.504610896 0.502429366 0.0233212393
v -0.506522655 0.505642414 0.0233212393
v -0.517801285 0.508502424 0.026482448
v -0.521512032 0.51007992 0.0340455808
v -0.523296297 0.508959472 0.0371378176
v -0.509775817 0.50869453 0.0550161451
v -0.511047661 0.511089563 0.0643770322
v -0.509126306 0.511236846 0.0702779591
v -0.516961396 0.511387467 0.0745835379
v -0.515092492 0.514835417 0.0862729177
v -0.488677472 0.523296118 0.110702366
v -0.509171784 0.519131899 0.105355486
v -0.52175945 0.517664433 0.106046505
v -0.527633965 0.518471003 0.111806452
v -0.473344654 0.53626132 0.15675129
v -0.522496223 0.522465527 0.130125061
v -0.528199255 0.523833692 0.131630108
v -0.483443648 0.537823558 0.17341733
v -0.513554513 0.530465901 0.161136359
v -0.521148443 0.530667961 0.165524349
v -0.445744365 0.554840386 0.229219913
v -0.501516163 0.539428353 0.194065362
v -0.444624633 0.557380617 0.243889019
v -0.487138152 0.545894861 0.222767681
v -0.504034996 0.542971671 0.220325515
v -0.480815947 0.550168157 0.241235897
v -0.511722326 0.542601526 0.228768572
v -0.427682221 0.569432378 0.297130525
v -0.504068792 0.547301173 0.248129755
v -0.435159266 0.569072366 0.305342615
v -0.452547938 0.565943718 0.30248189
v -0.476034999 0.560827494 0.295404136
v -0.447362155 0.569258749 0.323694021
v -0.48247534 0.560827792 0.304467618
v -0.442413032 0.57298249 0.340546072
v -0.449123681 0.57336694 0.345194519
v -0.464403719 0.570949912 0.34393397
v -0.436978519 0.57942009 0.366868138
v -0.455091387 0.576068521 0.363647342
v -0.476263046 0.571741283 0.358410448
v -0.430421799 0.585668266 0.397651404
v -0.472752512 0.574948847 0.374060124
v -0.436392635 0.585762382 0.406652451
v -0.44230485 0.586376548 0.411741793
v -0.4857454 0.575353324 0.387675911
v -0.421588272 0.595111787 0.438595772
v -0.440984279 0.591347933 0.43462047
v -0.491154045 0.577688456 0.410299063
v -0.503251791 0.57633996 0.411394119
v -0.455856293 0.591070354 0.446620941
v -0.505407751 0.577674806 0.423021168
v -0.515098214 0.577107191 0.425739497
v -0.472123891 0.59035188 0.457739413
v -0.489881516 0.587177813 0.455116719
v -0.505405307 0.584734857 0.45400852
v -0.484802037 0.59078759 0.47122401
v -0.49980399 0.588507116 0.470457017
v -0.434072077 0.608403802 0.520335793
v -0.440197021 0.60890013 0.525115192
v -0.503265619 0.591874003 0.489869356
v -0.44105649 0.610560298 0.537024081
v -0.44933778 0.61037153 0.540432155
v -0.477928311 0.603781462 0.531092227
v -0.436498463 0.616343856 0.560878277
v -0.462944686 0.610427499 0.552914143
v -0.49137035 0.60392189 0.543833971
v -0.503228486 0.602641821 0.545136213
v -0.47016108 0.612489462 0.569359243
v -0.503201723 0.604568243 0.557577252
v -0.512874484 0.603977859 0.560258389
v -0.482688516 0.612879455 0.582487226
v -0.509997189 0.606780112 0.574375391
v -0.425224751 0.632163286 0.633284092
v -0.488227755 0.615440905 0.59984225
v -0.500571609 0.614004731 0.600866437
v -0.43109411 0.634530246 0.649976373
v -0.439775735 0.634181261 0.653048217
v -0.499014914 0.618224382 0.62607491
v -0.439818054 0.63599813 0.664892256
v -0.463759392 0.63094753 0.658960581
v -0.509611487 0.619187117 0.640237331
v -0.448092699 0.637594998 0.680027187
v -0.481758863 0.629581332 0.668519735
v -0.494767129 0.627934635 0.66918087
v -0.434893906 0.645253301 0.711140752
v -0.494081497 0.629964948 0.681433141
v -0.49631995 0.631611943 0.688342512
v -0.438067526 0.648356915 0.728951156
v -0.499636739 0.632408023 0.698217273
v -0.43325156 0.651596904 0.743223667
v -0.483831406 0.638493299 0.722494304
v -0.489048034 0.639209509 0.727609217
v -0.485966474 0.63962841 0.732900023
v -0.485716164 0.641995668 0.741069674
v -0.459703624 0.648846745 0.762674034
v -0.486183017 0.643107653 0.755860925
v -0.476117253 0.645124733 0.768472135
v -0.488066435 0.644300342 0.766286135
v -0.481065124 0.645385981 0.777150512
v -0.481849968 0.647413135 0.78460902
v -0.472154766 0.649312019 0.796862066
v -0.45882991 0.652315438 0.811030626
v -0.466663152 0.652703881 0.811115563
v -0.457098067 0.654568791 0.823167086
v -0.444581032 0.657332778 0.836749852
v -0.424955457 0.659043968 0.853204429
v -0.394958496 0.661276698 0.870913863
v -0.397057205 0.656957805 0.872281969
v -0.383123368 0.654870272 0.878021479
v -0.405664414 0.640531838 0.870959103
v -0.408992916 0.635801554 0.871686697
v -0.402549028 0.630913854 0.876761794
v -0.402635664 0.627197325 0.87921536
v -0.371584535 0.630622685 0.894022226
v -0.354966611 0.629549801 0.901172817
v -0.280427575 0.64716965 0.939219058
v -0.273445547 0.642324507 0.947747529
v -0.261720896 0.643031895 0.953159511
v -0.240221858 0.643872321 0.962962151
v -0.216034666 0.645675361 0.974217892
v -0.137964457 0.665428519 1.01424265
v -0.141678214 0.65739733 1.01687098
v -0.140163153 0.654911876 1.01688707
v -0.118531197 0.65621084 1.02682829
v -0.117056131 0.653731763 1.02682829
v 0.5970698 -0.183909073 -0.432024777
v 0.621260285 -0.153687373 -0.387454629
v 0.619844735 -0.146248236 -0.389793962
v 0.62010479 -0.136944294 -0.384376794
v 0.615761757 -0.131513119 -0.385415643
v 0.611270428 -0.131175324 -0.394581854
v 0.616210461 -0.118473604 -0.38802436
v 0.618189454 -0.117719091 -0.396052718
v 0.620114863 -0.11249195 -0.401635826
v 0.61828053 -0.114448592 -0.409647673
v 0.620167196 -0.113770813 -0.417857617
v 0.61188519 -0.126070365 -0.443135768
v 0.614515841 -0.132559896 -0.439070284
v 0.613507271 -0.13751395 -0.437597603
v 0.608536303 -0.149913892 -0.438836724
v 0.608438313 -0.154117897 -0.436061323
v 0.601549447 -0.168187216 -0.439981014
v 0.599194586 -0.174317896 -0.440386653
v 0.599096179 -0.178539917 -0.437599361
v 0.597168207 -0.179687053 -0.434812069
v -0.618761778 -0.00324243214 0.188278928
v -0.516739786 0.0545912869 0.262938112
v -0.514035523 0.0644553602 0.263192207
v -0.514683843 0.0685396269 0.259727687
v -0.513828337 0.0733433142 0.257324517
v -0.50116694 0.0878940001 0.264633268
v -0.497547328 0.0981028453 0.265558004
v -0.502877772 0.0999638513 0.258792043
v -0.50469172 0.107609741 0.255871415
v -0.503026009 0.116873719 0.255420119
v -0.506402552 0.119679593 0.25003016
v -0.508216441 0.12732549 0.247109547
v -0.502600014 0.13810198 0.25382185
v -0.507980883 0.140006393 0.247009903
v -0.509495795 0.147777706 0.244304091
v -0.490699887 0.164724156 0.256063908
v -0.484327197 0.171649352 0.261953771
v -0.486122429 0.1792164 0.259063274
v -0.488558233 0.18649821 0.255716175
v -0.488147318 0.190712631 0.257360727
v -0.489941627 0.19827573 0.254471749
v -0.494047105 0.204824716 0.249934018
v -0.495842695 0.212393284 0.247042924
v -0.496659964 0.216052517 0.247813761
v -0.499535978 0.223151207 0.244151846
v -0.501331568 0.230719775 0.241260752
v -0.502146959 0.234372824 0.242033541
v -0.50502485 0.241477698 0.238369673
v 0.368811131 0.619644642 0.861587942
v 0.371643931 0.618191361 0.85948658
v 0.376252472 0.617739975 0.855515838
v 0.37876302 0.616149545 0.853182495
v 0.384506404 0.616184115 0.850036025
v 0.386717767 0.614466071 0.847485721
v 0.391002506 0.613877833 0.843284547
v 0.395287246 0.613289535 0.839083374
v 0.399640054 0.612730682 0.834932268
v 0.402074844 0.614019156 0.833555996
v 0.406357646 0.613431156 0.82935673
v 0.408060551 0.611489654 0.826419711
v 0.411709785 0.610624731 0.821744263
v 0.414227515 0.60926497 0.816217065
v 0.416921616 0.607749045 0.814008474
v 0.421211302 0.607160091 0.809802473
v 0.424054027 0.605935156 0.804500401
v 0.426230818 0.607118189 0.802943408
v 0.427559942 0.605224252 0.79647845
v 0.430727959 0.604135931 0.791401684
v 0.432159364 0.602276266 0.784982204
v 0.434238523 0.603418946 0.783349276
v 0.437574655 0.602399111 0.778382182
v 0.433212161 0.597732544 0.770682275
v 0.436626911 0.596736491 0.765743911
v 0.437803745 0.594737649 0.759048939
v 0.441381842 0.596554339 0.758582234
v 0.432969987 0.590253532 0.744321883
v 0.437316746 0.58965677 0.740059853
v 0.445096493 0.593580902 0.739631176
v 0.443137527 0.589937031 0.733666897
v 0.449868649 0.593394101 0.732424796
v 0.450432271 0.591094315 0.725142896
v 0.438161463 0.582979083 0.707501471
v -0.590087712 0.113688327 -0.126901373
v -0.596655011 0.101617344 -0.130638346
v -0.605824172 0.092720598 -0.134801045
v -0.611048222 0.0811841786 -0.13743569
v -0.611159444 0.0764115304 -0.134284869
v -0.609202504 0.068163 -0.131134048
v -0.60942471 0.0633386374 -0.128072262
v -0.609779418 0.054005608 -0.12677595
v -0.609992921 0.0447263755 -0.125364214
v -0.623415947 0.0336477719 -0.132869229
v -0.621768713 0.0252021048 -0.129957646
v -0.627811372 0.0175716076 -0.1315303
v -0.630565941 0.00699339388 -0.13213177
v -0.637129724 -0.00545096677 -0.135769948
v -0.636196136 -0.0143008456 -0.133417621
v -0.634103894 -0.0178172234 -0.133417621
v -0.633516312 -0.026843911 -0.131340936
v -0.642666459 -0.0361149609 -0.135354564
v -0.638264 -0.0430685394 -0.135191128
v -0.647614539 -0.0570718534 -0.141034126
v -0.654333889 -0.0698240101 -0.144769207
v -0.650111318 -0.0769207701 -0.144769207
v -0.651766479 -0.0825697854 -0.142781362
v -0.64754194 -0.0896698162 -0.142781362
v -0.654319406 -0.10256552 -0.146562472
v -0.650330782 -0.109995283 -0.141754121
v -0.655153394 -0.108008191 -0.138907701
v -0.659565032 -0.105810396 -0.1357335
v -0.672950566 -0.108174123 -0.139657989
v -0.672431111 -0.108297236 -0.129255518
v -0.643559575 -0.0940004885 -0.0966220051
v -0.645379245 -0.0905262157 -0.0914746225
v -0.627833843 -0.077456519 -0.066323027
v -0.632109642 -0.0752629191 -0.0631512851
v -0.629812002 -0.0654285923 -0.0484115146
v -0.634073853 -0.0632421151 -0.0452500768
v -0.642597675 -0.0588691682 -0.0389272012
v -0.646859527 -0.0566826947 -0.0357657634
v -0.638700843 -0.0485567451 -0.0183000844
v -0.636740863 -0.0433128774 -0.010432261
v -0.627546012 -0.0347375423 0.00767213246
v -0.633924723 -0.033861801 0.0139264287
v -0.621994376 -0.0282141455 0.0276633594
v -0.62701416 -0.0266882982 0.0348895639
v -0.608151019 -0.0178747233 0.0584147051
v -0.619662464 -0.0193336885 0.0560355783
v -0.615088463 -0.017543694 0.0688049421
v -0.621750593 -0.0168543644 0.0747182816
v -0.603591442 -0.00843210518 0.0974070877
v -0.608570933 -0.00694804499 0.104483724
v -0.609905779 -0.00805431325 0.112742916
v -0.617387414 -0.00779403327 0.11798016
v -0.619063795 -0.00883965846 0.121368982
v -0.610131383 -0.00495049823 0.137018576
v -0.607307255 -0.00403197715 0.148199156
v -0.613523126 -0.00317859487 0.154293746
v -0.609069765 -0.00147474406 0.166575938
v -0.611599982 -0.0031627072 0.173845097
v -0.609523356 -0.00261048414 0.184368134
v -0.6112023 -0.00365496846 0.187695876
g path_000000
l 2 1 1072 1071
g path_000001
l 3 4 5 6 7 8
g path_000002
l 9 10 11 12 13
g path_000003
l 14 15 16 17
g path_000004
l 18 19 20
g path_000005
l 22 23 24 25 26 27 28 29 30 31 32 33
g path_000006
l 34 35 36 37 38 39 40 41 42 43 44 45 46 47 48 49 50 51 52 53 54 55 56 57 58 59 60 61 62
g path_000007
l 63 64 65 66 67 68 69 70 71 72 73 74 75 76 77 78 79 80 81 82 83 84 85 86 87 88 89 90 91 92 93 94 95
g path_000008
l 96 97 98 99 100 101 102 103 104 105 106 107 108 109 110 111 112 113 114 115 116 117 118 119 120 121 122 123 124 125 126 127 128 129
g path_000009
l 130 131 132 133 134 135 136 137 138 139 140 141 142 143 144 145 146 147 148
g path_000010
l 150 151 152 153
g path_000011
l 154 155 156
g path_000012
l 157 158 159 160
g path_000013
l 161 162 163 164 165 166 167 168 169 170 171 172 173
g path_000014
l 174 175 176 177 178 179 180 181 182 183 184 185 186 187 188 189 190 191 192 193 194 195 196 197 198 199 200 201 202 203 204 205 206 207 208 209 210 211 212 213 214 215 216 217 218 219 220 221 222 223 224 225 226 227 228 229 230 231 232 233 234 235 236 237 238 239 240 241 242 243 244 245 246 247 248 249 250 251 252 253 254 255 256 257 258 259 260 261 262 263 264 265 266 267 268 269 270 271 272 273 274 275 276 277 278 279 280 281 282 283 284 285 286 287 288 289 290 291 292 293 294 295 296 297 298 299 300 301 302 303 304 305 306 307 308 309 310 311 312 313 314 315 316 317 318 319 320 321 322 323 324 325 326 327 328 329 330 331 332 333 334
g path_000015
l 335 336 337 338
g path_000016
l 339 340 341 342 343 344 345 346 347
g path_000017
l 348 349 350 351 352 353 354 355
g path_000018
l 357 358 359 360 361
g path_000019
l 362 363 364 365 366 367 368 369 370 371 372 373 374 375 376 377 378 379 380 381
g path_000020
l 382 383 384
g path_000021
l 385 386 387 388 389 390 391 392 393 394 395 396 397 398 399 400 401 402 403 404 405
g path_000022
l 406 407 408 409 410
g path_000023
l 411 412 413 414 415 416 417
g path_000024
l 418 419 420 421 422 423 424 425 426 427 428 429 430 431 432 433 434 435 436
g path_000025
l 437 438 439 440 441 442 443 444 445 446
g path_000026
l 447 448 449 450 451 452 453 454 455 456 457 458 459 460
g path_000027
l 461 462 463 464 465 466 467 468
g path_000028
l 469 470 471 472 473
g path_000029
l 474 475 476 477 478 479 480 481 482
g path_000030
l 483 484
g path_000031
l 485 486 487 488 489 490 491
g path_000032
l 492 493 494 495 496 497 498 499 500 501 502 503 504 505 506 507 508 509 510 511 512 513 514 515 516 517 518 519 520 521 522 523 524 525 526
g path_000033
l 527 528 529 530 531 532 533 534 535 536 537 538 539 540 541 542 543 544 545 546 547 548 549 550 551 552 553 554 555 556 557 558 559 560 561 562 563 564 565
g path_000034
l 566 567 568 569 570 571 572 573 574 575 576 577 578 579 580 581 582 583 584 585 586 587 588 589 590 591 592 593 594 595 596 597 598 599 600 601 602 603 604 605 606 607 608
g path_000035
l 609 610 611 612 613 614 615 616
g path_000036
l 617 618 619 620 621 622 623 624 625 626 627
g path_000037
l 628 629
g path_000038
l 630 631 632
g path_000039
l 634 635 636 637 638 639 640 641 642 643 644 645
g path_000040
l 646 647
g path_000041
l 648 649 650 651 652 653
g path_000042
l 654 655 656 657 658 659 660 661
g path_000043
l 662 663 664 665 666
g path_000044
l 667 668
g path_000045
l 669 670 671 672 673 674 675 676
g path_000046
l 678 679 680 681 682 683
g path_000047
l 684 685 686 687 688 689 690 691 692 693 694 695 696 697
g path_000048
l 698 699 700 701 702 703 704 705
g path_000049
l 706 707 708 709 710 711 712 713 714 715 716
g path_000050
l 720 721
g path_000051
l 722 723 724 725 726 727 728 729 730 731 732 733 734 735 736 737 738 739 740 741 742 743 744 745 746 747 748 749 750 751 752 753 754 755 756 757 758 759 760 761
g path_000052
l 762 763 764 765 766 767 768 769 770 771 772 773 774 775 776 777 778 779
g path_000053
l 780 781 782 783 784 785 786
g path_000054
l 787 788 789 790 791 792 793
g path_000055
l 796 797 798 799 800 801 802 803
g path_000056
l 804 805 806
g path_000057
l 809 810 811 812 813
g path_000058
l 814 815 816 817 818 819 820 821 822 823 824
g path_000059
l 825 826 827 828 829 830 831 832 833 834 835 836
g path_000060
l 837 838 839 840 841 842 843 844 845 846 847 848 849 850 851 852 853 854 855 856 857 858 859
g path_000061
l 860 861 862 863 864
g path_000062
l 865 866 867 868
g path_000063
l 869 870 871 872 873 874 875 876 877 878 879 880 881 882 883 884 885 886 887 888 889 890 891 892 893 894 895
g path_000064
l 897 898
g path_000065
l 899 900 901 902 903 904 905
g path_000066
l 906 907 908 909 910 911 912 913 914 915
g path_000067
l 916 917 918 919 920 921 922 923 924 925 926 927 928 929 930 931 932 933 934 935 936 937 938 939 940 941 942
g path_000068
l 943 944 945 946 947 948 949 950 951 952 953 954 955 956 957
g path_000069
l 958 959 960 961
g path_000070
l 963 964
g path_000071
l 966 967
g path_000072
l 971 972
g path_000073
l 977 978
g path_000074
l 982 983 984
g path_000075
l 985 986
g path_000076
l 990 991
g path_000077
l 993 994
g path_000078
l 995 996
g path_000079
l 998 999
g path_000080
l 1000 1001 1002
g path_000081
l 1003 1004
g path_000082
l 1005 1006
g path_000083
l 1008 1009
g path_000084
l 1013 1014
g path_000085
l 1016 1017
g path_000086
l 1021 1022
g path_000087
l 1023 1024
g path_000088
l 1030 1031
g path_000089
l 1033 1034
g path_000090
l 1038 1039 1040 1041
g path_000091
l 1043 1044 1045 1046 1047 1048
g path_000092
l 1049 1050 1051 1052
g path_000093
l 1054 1055 1056
g path_000094
l 1057 1058 1059 1060
g path_000095
l 1061 1062
g path_000096
l 1063 1064 1065
g path_000097
l 1068 1069 1070
g path_000098
l 1073 1092 1091 1090 1089 1088 1087 1086 1085 1084
g path_000099
l 1074 1075 1076 1077 1078 1079 1080 1081 1082 1083
g path_000100
l 1093 1214 1213 1212 1211 1210 1209 1208 1207 1206 1205 1204 1203
g path_000101
l 1094 1095 1096 1097 1098 1099 1100 1101 1102 1103 1104 1105 1106 1107
g path_000102
l 1108 1109 1110 1111 1112 1113 1114 1115 1116 1117 1118 1119 1120
g path_000103
l 1121 1122 1123 1124 1125 1126 1127 1128 1129 1130 1131 1132 1133 1134 1135 1136 1137 1138 1139 1140 1141 1142 1143 1144 1145 1146 1147
g path_000104
l 1148 1149 1150 1151 1152 1153
g path_000105
l 1155 1156 1157 1158 1159 1160 1161 1162 1163 1164 1165 1166 1167 1168 1169 1170 1171 1172 1173 1174 1175 1176 1177 1178 1179 1180 1181 1182 1183 1184
g path_000106
l 1185 1186
g path_000107
l 1187 1188 1189 1190 1191 1192 1193 1194 1195 1196 1197 1198
g path_000108
l 1199 1200 1201 1202
