# Fixed world centers; Z up; paths immutable
v 0.351589769 0.654768348 0.89972192
v 0.325212449 0.650857329 0.916497648
v 0.31978479 0.653598726 0.913068235
v 0.3169595 0.656526446 0.911353528
v 0.291671872 0.655987263 0.927102029
v 0.275102317 0.653732717 0.943069637
v 0.272097588 0.659688234 0.941379368
v 0.265370607 0.665075004 0.939135313
v 0.265150934 0.668143153 0.939135313
v 0.227622539 0.663137019 0.967264175
v 0.224874943 0.665984213 0.965596616
v 0.209293574 0.668231189 0.972259104
v 0.206557378 0.671066582 0.970598459
v 0.196557641 0.672084033 0.972004294
v 0.184217259 0.671581388 0.97994113
v 0.179408118 0.67367208 0.980380177
v 0.164751574 0.673004091 0.98655349
v 0.15955171 0.67563045 0.983267963
v 0.154565454 0.675273418 0.979982495
v 0.151212066 0.677849174 0.978994608
v 0.145417854 0.677205026 0.976532519
v 0.139940664 0.67972964 0.97353518
v 0.132768303 0.68093127 0.976458788
v 0.11924088 0.680545211 0.981735945
v 0.111724623 0.682304442 0.980888009
v 0.109037392 0.685089111 0.979257107
v 0.0589010157 0.671244919 1.02253425
v 0.0547189675 0.673406959 1.02253902
v 0.0485575162 0.678532362 1.02027416
v 0.0533658825 0.683299661 1.01505423
v 0.041392155 0.680300415 1.01928151
v 0.0401658677 0.684285164 1.01208019
v 0.0327227265 0.682965457 1.01160753
v 0.00704015605 0.680686712 1.02997088
v 0.00349424104 0.68229109 1.03349733
v -0.0110118687 0.681186199 1.04040933
v -0.00741252489 0.688441694 1.03616118
v -0.00346721709 0.696609914 1.027421
v -0.00199128198 0.700897694 1.02149928
v -0.00772475777 0.700192153 1.01932085
v -0.0133856926 0.699513674 1.01707184
v -0.0185228363 0.696085393 1.01448727
v -0.0356075652 0.690941691 1.02457476
v -0.0478061773 0.689857244 1.03338528
v -0.0542114899 0.691789925 1.03182352
v -0.0556402057 0.694917977 1.02900839
v -0.0595423058 0.697841704 1.02472603
v -0.0618924238 0.70139128 1.01873612
v -0.0653112531 0.701588869 1.01412392
v -0.0660765469 0.702854931 1.00657535
v -0.0704561844 0.699733138 1.00322104
v -0.0723203272 0.69977212 1.00106895
v -0.0754032135 0.697169781 0.99626857
v -0.0758221298 0.694846034 0.992727399
v -0.106820755 0.681091428 1.01911628
v -0.104569554 0.683543324 1.00817955
v -0.114364073 0.684087157 1.01052284
v -0.116727784 0.68391794 1.00896537
v -0.121715292 0.683474541 1.00614476
v -0.123206876 0.681529105 0.999584496
v -0.121342428 0.686775744 0.988709688
v -0.127973065 0.685672581 0.987733662
v -0.132064819 0.685598254 0.983856976
v -0.139888108 0.684005737 0.984276354
v -0.148101732 0.685163081 0.984938383
v -0.150486946 0.684985757 0.983401775
v -0.155218735 0.684646904 0.980283976
v -0.162446812 0.683281481 0.980080545
v -0.169221193 0.682099104 0.979366601
v -0.175861388 0.683874726 0.978274643
v -0.181610778 0.683108568 0.97638458
v -0.187573671 0.68225193 0.9747563
v -0.192355603 0.681885421 0.971734643
v -0.197067425 0.681548059 0.968629956
v -0.205759615 0.682443857 0.970050991
v -0.208301276 0.682195604 0.968729794
v -0.214358613 0.68128854 0.967262924
v -0.219624415 0.680713117 0.964851201
v -0.224388406 0.680348814 0.961835742
v -0.229617476 0.679787457 0.959387124
v -0.234314039 0.679451168 0.95629245
v -0.239010587 0.679114878 0.953197837
v -0.24370715 0.678778589 0.950103223
v -0.248403698 0.678442299 0.94700861
v -0.253404796 0.677975774 0.944291651
v -0.258438915 0.677494586 0.941618562
v -0.263368845 0.677057505 0.938818395
v -0.269285709 0.676195383 0.937258005
v -0.27397719 0.675859451 0.93416667
v -0.278668672 0.675523579 0.931075394
v -0.283823967 0.674986839 0.928572178
v -0.288839817 0.674509823 0.92589587
v -0.293529391 0.674174011 0.922805846
v -0.298818082 0.673577309 0.920483947
v -0.302384436 0.670837104 0.916209996
v -0.307074815 0.670501292 0.913119435
v -0.311765164 0.67016542 0.910028934
v -0.316776276 0.669689238 0.907355726
v -0.32146582 0.669353426 0.904265702
v -0.326155394 0.669017673 0.901175678
v -0.330844939 0.66868186 0.898085654
v -0.336121947 0.668086827 0.895771563
v -0.342056751 0.66719985 0.894335389
v -0.346884131 0.666801274 0.891437948
v -0.351568729 0.666465819 0.888351202
v -0.356626719 0.665964246 0.885765076
v -0.362421721 0.665133238 0.884174764
v -0.36753425 0.664605081 0.881673694
v -0.372920245 0.663953722 0.879547954
v -0.378357798 0.663277805 0.8774997
v -0.38351053 0.662728548 0.875070035
v -0.388980061 0.662035525 0.873079836
v -0.39380005 0.661634445 0.870203674
v -0.398472399 0.661299884 0.867124975
v -0.403144747 0.660965323 0.864046335
v -0.407817125 0.660630763 0.860967636
v -0.413115352 0.660010993 0.858763933
v -0.417786062 0.659676552 0.855686367
v -0.422544479 0.659301996 0.852732241
v -0.42721498 0.658967555 0.849654794
v -0.432237744 0.658471167 0.847077429
v -0.436907321 0.658136785 0.844000578
v -0.440121233 0.655586362 0.839127481
v -0.444794118 0.655251741 0.836048484
v -0.449467003 0.654917181 0.832969427
v -0.45332557 0.654959857 0.828711867
v -0.457515448 0.651959717 0.825217485
v -0.458954841 0.652208507 0.822369218
v -0.46363306 0.651873529 0.819286644
v -0.466387391 0.652433753 0.81338191
v -0.470870137 0.649296224 0.810295939
v -0.473521948 0.649907172 0.804206789
v -0.476749927 0.64735204 0.799247563
v -0.479096085 0.647184074 0.797701657
v -0.482071102 0.647649646 0.792046607
v -0.485093087 0.64519006 0.786743581
v -0.487705022 0.64291954 0.780806959
v -0.490058094 0.642751038 0.779256463
v -0.493364304 0.640156031 0.774342775
v -0.494943231 0.641279399 0.766485214
v -0.497383147 0.639085948 0.760211349
v -0.496795326 0.641228378 0.74896884
v -0.49722901 0.639030755 0.744750857
v -0.501769125 0.635853052 0.741625428
v -0.506309211 0.632675409 0.738499999
v -0.508428752 0.632622898 0.736546874
v -0.507086456 0.632177591 0.724276602
v -0.506237924 0.631495893 0.712705791
v -0.508222401 0.629494846 0.705507278
v -0.508917212 0.630110562 0.701268494
v -0.513499796 0.626903176 0.698113799
v -0.512999415 0.625109494 0.69229126
v -0.514960587 0.623109758 0.684965491
v -0.515979886 0.621540487 0.676108778
v -0.518180132 0.618488491 0.674523115
v -0.522728741 0.615290821 0.671258807
v -0.52229619 0.613443613 0.665451765
v -0.512264252 0.616906643 0.638701499
v -0.515286624 0.614393711 0.632860482
v -0.518649757 0.610789359 0.633099318
v -0.514671981 0.611453652 0.615862072
v -0.519080997 0.608301163 0.612199187
v -0.52131635 0.605200469 0.610588253
v -0.525825918 0.602001846 0.607086122
v -0.528061509 0.598900855 0.605475008
v -0.512040555 0.604937077 0.568074346
v -0.514303744 0.60179776 0.566443324
v -0.515064836 0.600262582 0.556575775
v -0.517815292 0.596900642 0.555742681
v -0.519608319 0.594895005 0.54753685
v -0.524351716 0.590644777 0.550036252
v -0.525331259 0.588994026 0.540430903
v -0.513505816 0.59301281 0.509170711
v -0.511612594 0.591679156 0.500434101
v -0.509481132 0.59137255 0.485319436
v -0.511429727 0.588326156 0.483037114
v -0.51557827 0.585242212 0.478524268
v -0.52020371 0.578826308 0.475190908
v -0.50935334 0.584493339 0.450543642
v -0.525526702 0.573025167 0.467032313
v -0.506234884 0.582337797 0.427654952
v -0.510925472 0.575831532 0.424274623
v -0.510391712 0.576989412 0.417197973
v -0.515416741 0.570331037 0.414380103
v -0.517690778 0.568024337 0.406360924
v -0.520304918 0.564648867 0.405124128
v -0.522149265 0.562518299 0.396302462
v -0.523359001 0.559737921 0.392578125
v -0.526827455 0.55690676 0.386573255
v -0.529187858 0.553632617 0.384872168
v -0.513399839 0.558943689 0.34448278
v -0.515789509 0.555629015 0.342760652
v -0.517363906 0.55357033 0.333161294
v -0.521178961 0.550564706 0.327550083
v -0.523646355 0.54721117 0.325951755
v -0.527325749 0.544258714 0.32007283
v -0.52249372 0.543943346 0.305206567
v -0.520395935 0.543381512 0.288706928
v -0.525459707 0.539837301 0.285220981
v -0.513700664 0.54562968 0.257029533
v -0.511460781 0.545099854 0.239967227
v -0.516590178 0.541509748 0.236436114
v -0.521719575 0.537919641 0.232904986
v -0.523968637 0.537905633 0.230337501
v -0.524772048 0.536098957 0.218709096
v -0.531978369 0.530739367 0.225842744
v -0.532682955 0.528963625 0.213981286
v -0.537225246 0.525609732 0.209305212
v -0.534310877 0.525298953 0.190462843
v -0.528694034 0.528505683 0.172858208
v -0.533889472 0.524869323 0.169281632
v -0.536370933 0.521427274 0.167493328
v -0.53581959 0.520121396 0.152867317
v -0.53290993 0.519759059 0.133593783
v -0.535412073 0.51628834 0.131790578
v -0.532676458 0.515828967 0.112689361
v -0.530158103 0.514358222 0.101078883
v -0.53159517 0.507897079 0.0976067409
v -0.523621261 0.50855124 0.0752686784
v -0.513163149 0.506710947 0.0484492518
v -0.519005537 0.506213188 0.0452480912
v -0.52325213 0.509789348 0.0384238772
v -0.525181293 0.506487429 0.0353295058
v -0.524234295 0.500862002 0.0269993898
v -0.525470972 0.497820854 0.0225070417
v -0.499541372 0.506228864 -0.0437109135
v -0.508653879 0.504497409 -0.0406807847
v -0.486761183 0.518449485 -0.100561485
v -0.489551634 0.519221723 -0.110487632
v -0.495366514 0.518805385 -0.114319146
v -0.49996376 0.518871486 -0.120637581
v -0.504747868 0.518866122 -0.126595154
v -0.498826116 0.523129344 -0.154636577
v -0.504688978 0.522709548 -0.158499688
v -0.500536799 0.526303351 -0.183191732
v -0.487884134 0.533336341 -0.22583358
v -0.46772489 0.543437541 -0.284584969
v -0.46277833 0.547450066 -0.311763942
v -0.471505582 0.545945227 -0.310193241
v -0.477587253 0.545509756 -0.31420055
v -0.482299656 0.545632601 -0.321135014
v -0.48785156 0.540648222 -0.317207277
v -0.491326272 0.541272938 -0.326811463
v -0.49797985 0.544352472 -0.330157936
v -0.504919529 0.539819062 -0.331744105
v -0.506846428 0.540058255 -0.336172044
v -0.512614548 0.539752901 -0.340874374
v -0.49321416 0.553643286 -0.401480883
v -0.49498257 0.557781518 -0.407010764
v -0.502642691 0.556720257 -0.407818645
v -0.506334841 0.561137736 -0.418012172
v -0.51229912 0.560789883 -0.422592878
v -0.519352794 0.559979498 -0.424731761
v -0.526024401 0.55551666 -0.427116334
v -0.533613384 0.554476082 -0.428006113
v -0.540573061 0.549892843 -0.429696172
v -0.534318566 0.553643823 -0.453057736
v -0.540528238 0.553199172 -0.457149357
v -0.540152073 0.555572093 -0.47642073
v -0.551896274 0.548929691 -0.467150748
v -0.558675945 0.548242033 -0.469924778
v -0.560751855 0.544629395 -0.47375077
v -0.568181932 0.53983587 -0.474370211
v -0.564903319 0.533563495 -0.480803907
v -0.572773933 0.524765015 -0.479759216
v -0.57254225 0.522104084 -0.489046216
v -0.553265154 0.527320266 -0.543383062
v -0.561068237 0.518486083 -0.542699754
v -0.563947439 0.514492393 -0.544774652
v -0.568601906 0.506952703 -0.551563501
v -0.567165315 0.508590817 -0.5646348
v -0.56417191 0.50201261 -0.570509195
v -0.554269135 0.499189377 -0.602666259
v -0.555083275 0.491023451 -0.599400759
v -0.543631971 0.48864457 -0.63539362
v -0.509085298 0.499066353 -0.727878094
v -0.505088747 0.498630196 -0.757125735
v -0.5091573 0.499140471 -0.767672956
v -0.507194817 0.501997292 -0.793035924
v -0.49646613 0.512423635 -0.840869248
v -0.501322031 0.511596859 -0.839402735
v -0.488572001 0.527142525 -0.893506229
v -0.490712762 0.531588674 -0.899596095
v -0.494406283 0.535416067 -0.901837766
v -0.510382354 0.539541841 -0.884805262
v -0.507740498 0.543647766 -0.881442726
v -0.508320391 0.551746666 -0.881442726
v -0.508900285 0.559845567 -0.881442726
v -0.516248226 0.567459822 -0.885902286
v -0.52491641 0.569109499 -0.875540733
v -0.531953514 0.572663784 -0.879987061
v -0.535616577 0.576459646 -0.882210255
v -0.540199578 0.576930404 -0.892186403
v -0.543091297 0.578155518 -0.906561315
v -0.557482004 0.570129812 -0.890619993
v -0.564876318 0.565199435 -0.892616391
v -0.567303479 0.565373123 -0.897281826
v -0.570630789 0.562231839 -0.90988481
v -0.580028772 0.551034629 -0.894828439
v -0.587813139 0.545943737 -0.89571631
v -0.586718202 0.543485224 -0.908922553
v -0.589386344 0.539390326 -0.912231624
v -0.58855772 0.531432807 -0.91289556
v -0.598089874 0.520286381 -0.897261739
v -0.598590016 0.517107368 -0.906293869
v -0.592526257 0.511336029 -0.920862079
v -0.58987385 0.502974808 -0.915202618
v -0.587977707 0.499594271 -0.919456244
v -0.58128351 0.492859215 -0.924469709
v -0.576620519 0.484202772 -0.912998259
v -0.571759105 0.481953859 -0.924993932
v -0.562529683 0.475066036 -0.925449371
v -0.558852375 0.471255451 -0.923217595
v -0.550390363 0.464049906 -0.921619833
v -0.54671067 0.460236788 -0.919386566
v -0.542219818 0.455716491 -0.908301711
v -0.538545787 0.451909274 -0.906071901
v -0.533075869 0.44776997 -0.897567749
v -0.531001329 0.447540343 -0.892021775
v -0.528195322 0.442465961 -0.876856089
v -0.522815228 0.438332945 -0.868272424
v -0.519550741 0.434408575 -0.865075529
v -0.512531042 0.430863053 -0.860640109
v -0.516435981 0.427662492 -0.829810798
v -0.502581954 0.427408755 -0.85290724
v -0.506115496 0.424378604 -0.823199272
v -0.499139637 0.420855224 -0.818791568
v -0.507609069 0.416215122 -0.7774297
v -0.50138694 0.416552484 -0.772071064
v -0.485789508 0.415955484 -0.788663924
v -0.479127288 0.41643253 -0.784274101
v -0.491305351 0.414705575 -0.735533237
v -0.48800987 0.414941549 -0.733361781
v -0.481418908 0.415413469 -0.729018867
v -0.485151321 0.412467122 -0.700299501
v -0.486244291 0.414408028 -0.678675354
v -0.474637896 0.416559905 -0.686264217
v -0.480698407 0.416842073 -0.653264761
v -0.475148052 0.417839646 -0.656470597
v -0.482634604 0.417622626 -0.620484889
v -0.467390597 0.421008766 -0.636453748
v -0.469395101 0.422611505 -0.61337173
v -0.470668465 0.425287127 -0.601591527
v -0.478022397 0.425045699 -0.566602468
v -0.4719055 0.429326981 -0.56239152
v -0.549340665 0.402317554 -0.378183156
v -0.552974403 0.392845362 -0.359950602
v -0.543553293 0.387724936 -0.371131331
v -0.543292403 0.384081423 -0.371131331
v -0.543234408 0.376645476 -0.370090008
v -0.544123471 0.36891374 -0.366923451
v -0.543602288 0.36163491 -0.366923451
v -0.543381393 0.354263693 -0.366249889
v -0.545506835 0.346888185 -0.369139761
v -0.545379996 0.33949095 -0.368253529
v -0.547017753 0.331577063 -0.363403738
v -0.549482226 0.324106663 -0.365521789
v -0.549570858 0.31666404 -0.36415121
v -0.550277889 0.309052646 -0.361390322
v -0.551826358 0.305548251 -0.366151571
v -0.552641213 0.297914892 -0.363142312
v -0.5551548 0.290437907 -0.365141064
v -0.557175875 0.282500088 -0.359404176
v -0.557408452 0.279331058 -0.367139786
v -0.559426069 0.271410316 -0.361399859
v -0.561544716 0.26404506 -0.364281952
v -0.56339097 0.256745279 -0.367786407
v -0.565955043 0.248728201 -0.360784709
v -0.565962732 0.245569706 -0.369054824
v -0.568202496 0.237652093 -0.362777919
v -0.57176435 0.2299456 -0.362365425
v -0.57255888 0.226574808 -0.368857265
v -0.574862361 0.218680069 -0.362411082
v -0.577366054 0.211232498 -0.364401966
v -0.578514218 0.207762957 -0.370096326
v -0.580474913 0.199979216 -0.364411354
v -0.584028542 0.192308784 -0.363985479
v -0.587211311 0.184725717 -0.364403427
v -0.587822974 0.181349531 -0.371345073
v -0.590325952 0.173903987 -0.373335421
v -0.594352663 0.166152313 -0.371794701
v -0.59471041 0.162418664 -0.370366573
v -0.597210109 0.154982969 -0.372354269
v -0.599709749 0.147547275 -0.374341995
v -0.602513254 0.14005518 -0.375621378
v -0.603367627 0.136241913 -0.373027027
v -0.607036173 0.128927335 -0.381314725
v -0.608490229 0.125013441 -0.377304792
v -0.611563861 0.117484294 -0.377939612
v -0.614069521 0.110055737 -0.379904121
v -0.616824448 0.106234349 -0.381889492
v -0.619321227 0.0988073349 -0.383874893
v -0.621818006 0.0913803205 -0.385860294
v -0.623041868 0.0875450224 -0.382353663
v -0.625536323 0.080124937 -0.384337217
v -0.627155542 0.0764752477 -0.389013618
v -0.629706323 0.0690419897 -0.390868664
v -0.632242501 0.0616112612 -0.392757982
v -0.635129571 0.0541335605 -0.393807858
v -0.635514081 0.0504446141 -0.39227137
v -0.638065457 0.0430172421 -0.394118518
v -0.640120447 0.0392873362 -0.397776574
v -0.642433643 0.0318863392 -0.400199592
v -0.644677281 0.0244918112 -0.402792364
v -0.647173405 0.0170666371 -0.404777259
v -0.647810876 0.0133634824 -0.402612954
v -0.650686204 0.00590248732 -0.40367496
v -0.652238727 0.00220876746 -0.408569872
v -0.654734731 -0.00521605881 -0.410554677
v -0.657308638 -0.0127148954 -0.403040409
v -0.658168554 -0.0163548216 -0.409624785
v -0.660662651 -0.0237739235 -0.41160807
v -0.666169941 -0.0314405486 -0.406215817
v -0.666310191 -0.0386632048 -0.413957328
v -0.669061005 -0.0424788855 -0.415939778
v -0.669694841 -0.0497603379 -0.413114786
v -0.671261549 -0.0534927063 -0.418007731
v -0.671348691 -0.0607315674 -0.416523367
v -0.675491452 -0.0682805777 -0.42384395
v -0.675446093 -0.0755101517 -0.422680259
v -0.677858889 -0.0829236656 -0.424863338
v -0.680051506 -0.0867142305 -0.428234935
v -0.677322149 -0.0937372148 -0.42427668
v -0.673012137 -0.0971769914 -0.434313774
v -0.680896223 -0.104801312 -0.422936529
v -0.68364495 -0.108614057 -0.42491743
v -0.682506919 -0.115791753 -0.426466614
v -0.680438876 -0.123100474 -0.439814985
v -0.680661976 -0.130333394 -0.437970966
v -0.681339443 -0.137565434 -0.434996516
v -0.682829261 -0.144982815 -0.439494491
v -0.683766842 -0.152203545 -0.435865551
v -0.68433702 -0.159410834 -0.433155715
v -0.684008956 -0.166612864 -0.432687581
v -0.685145617 -0.173798054 -0.428568363
v -0.684751213 -0.180990621 -0.428267419
v -0.684236109 -0.18818444 -0.428267419
v -0.683721006 -0.195378244 -0.428267419
v -0.684189498 -0.202543393 -0.425818771
v -0.684521377 -0.209703922 -0.423711717
v -0.684031069 -0.21688816 -0.423651606
v -0.687423408 -0.223904267 -0.413935155
v -0.683002114 -0.231258303 -0.423651606
v -0.68320924 -0.238405392 -0.421858162
v -0.683164358 -0.245560154 -0.420692116
v -0.683241189 -0.252702981 -0.419224471
v -0.682727277 -0.259879649 -0.419224471
v -0.681221962 -0.266698897 -0.412279069
v -0.680965364 -0.270282537 -0.412279069
v -0.680452168 -0.277449787 -0.412279069
v -0.680125356 -0.284140319 -0.402455807
v -0.679613233 -0.291292697 -0.402455807
v -0.67910111 -0.298445076 -0.402455807
v -0.677430272 -0.30520764 -0.395987004
v -0.677174509 -0.308779567 -0.395987004
v -0.676662982 -0.315923393 -0.395987004
v -0.675660312 -0.323120117 -0.397193849
v -0.674917638 -0.330292165 -0.397761196
v -0.672746658 -0.337070882 -0.39254272
v -0.671715915 -0.344274819 -0.393814564
v -0.671141922 -0.351426125 -0.393967658
v -0.670630395 -0.35856986 -0.393967658
v -0.670118868 -0.365713596 -0.393967658
v -0.669607341 -0.372857332 -0.393967658
v -0.669095814 -0.380001068 -0.393967658
v -0.668873966 -0.38710174 -0.393259913
v -0.670412004 -0.393929869 -0.388253331
v -0.672881663 -0.401276171 -0.390217125
v -0.672712207 -0.409053683 -0.398655295
v -0.671531737 -0.413489759 -0.410237253
v -0.621198118 -0.423328996 -0.553353965
v -0.596302927 -0.424508214 -0.625427783
v -0.611786962 -0.423437268 -0.606765091
v -0.609208047 -0.421633154 -0.633752823
v -0.615525305 -0.422085494 -0.637915373
v -0.611908495 -0.420434773 -0.667879999
v -0.618266344 -0.420890033 -0.672069311
v -0.607866883 -0.419576198 -0.709456503
v -0.622428 -0.418696731 -0.692816377
v -0.628808618 -0.419153601 -0.69702059
v -0.61913234 -0.418467999 -0.743479609
v -0.62340486 -0.41928789 -0.753382504
v -0.619290113 -0.421502084 -0.785268247
v -0.623061121 -0.42242223 -0.796718121
v -0.629292369 -0.426783532 -0.801007688
v -0.628262222 -0.427747786 -0.814497232
v -0.63198173 -0.428697228 -0.826271892
v -0.630077958 -0.434507668 -0.852412879
v -0.632940352 -0.43563205 -0.866721332
v -0.638181806 -0.439410955 -0.862884402
v -0.639043808 -0.440912366 -0.882709384
v -0.645364583 -0.445336372 -0.887060642
v -0.650593758 -0.449964881 -0.894399405
v -0.656438768 -0.454483658 -0.900074601
v -0.657310903 -0.455186337 -0.908962786
v -0.662480235 -0.459849685 -0.916562378
v -0.665827155 -0.463988215 -0.917861998
v -0.671469927 -0.468567014 -0.924176097
v -0.680782497 -0.476294696 -0.919411361
v -0.684089184 -0.476531476 -0.921590209
v -0.694396138 -0.484001815 -0.913896739
v -0.69968158 -0.487687737 -0.909630597
v -0.703387439 -0.491709173 -0.909822583
v -0.709405363 -0.500056565 -0.914159477
v -0.710061312 -0.508652806 -0.922259033
v -0.710412979 -0.512446344 -0.920443475
v -0.717274308 -0.51956439 -0.910755932
v -0.715402484 -0.522846103 -0.903741777
v -0.705916882 -0.531867623 -0.917676151
v -0.705352485 -0.539750218 -0.917676151
v -0.704687238 -0.546572149 -0.906428337
v -0.701790273 -0.550095081 -0.902359664
v -0.693307817 -0.5539819 -0.902627528
v -0.687147796 -0.562230289 -0.906946719
v -0.687701941 -0.564831257 -0.893201232
v -0.679643571 -0.568615735 -0.892237604
v -0.673068821 -0.568144977 -0.887905359
v -0.660751939 -0.574195206 -0.909923911
v -0.65454495 -0.58136946 -0.902895808
v -0.653732121 -0.580456138 -0.893888295
v -0.648937702 -0.575629294 -0.88539356
v -0.64012748 -0.571873784 -0.88784039
v -0.639095485 -0.567169964 -0.880288184
v -0.629568219 -0.563579023 -0.884609282
v -0.621976256 -0.560549319 -0.894719005
v -0.626582146 -0.551616073 -0.883862495
v -0.62714839 -0.543707609 -0.883862495
v -0.609622359 -0.538054824 -0.910242498
v -0.609257877 -0.53320533 -0.900897324
v -0.607420504 -0.527709067 -0.88450098
v -0.604390979 -0.52350682 -0.882317722
v -0.601235032 -0.518352985 -0.869546592
v -0.616634965 -0.510085344 -0.81889838
v -0.617384315 -0.50801456 -0.795516491
v -0.62117523 -0.505295753 -0.764408648
v -0.621584237 -0.503337026 -0.74233532
v -0.667535961 -0.498872638 -0.601673841
v -0.676087677 -0.499714375 -0.568963468
v -0.663096607 -0.504435539 -0.581638396
v -0.665690184 -0.50566113 -0.554505348
v -0.639786243 -0.515187144 -0.61969924
v -0.637210727 -0.522210419 -0.614854693
v -0.639078319 -0.524504423 -0.599469125
v -0.639682591 -0.529779553 -0.576786041
v -0.643131137 -0.531647325 -0.557626069
v -0.671217144 -0.531135142 -0.476269513
v -0.667926252 -0.534545302 -0.474272221
v -0.662305534 -0.534003854 -0.469181269
v -0.653443217 -0.54235208 -0.480335474
v -0.647101283 -0.545555294 -0.476328343
v -0.643666744 -0.545435011 -0.475292265
v -0.644277096 -0.543350935 -0.454921544
v -0.63664937 -0.546865642 -0.454119742
v -0.630793869 -0.549942791 -0.448996812
v -0.630468488 -0.548091531 -0.431192756
v -0.62443018 -0.547659159 -0.427214026
v -0.617128134 -0.551087856 -0.425631672
v -0.616101265 -0.55038029 -0.41889742
v -0.61300689 -0.549227357 -0.407960713
v -0.608080447 -0.548528433 -0.401407152
v -0.620621085 -0.543591499 -0.353925198
v -0.622942388 -0.54116714 -0.330705017
v -0.614876091 -0.544744253 -0.33120206
v -0.584009826 -0.554830313 -0.393285275
v -0.577706695 -0.558009684 -0.389350414
v -0.574423194 -0.553369403 -0.379672915
v -0.57426554 -0.551527143 -0.362322748
v -0.566825926 -0.5514431 -0.361646533
v -0.571928024 -0.544857681 -0.333150834
v -0.558493972 -0.550638258 -0.354194641
v -0.565317392 -0.54717201 -0.321438611
v -0.557231188 -0.543740511 -0.322851837
v -0.555745959 -0.539672792 -0.318119258
v -0.542012691 -0.541032672 -0.331457138
v -0.519639373 -0.544351876 -0.363730967
v -0.511326849 -0.544435203 -0.364736229
v -0.512545288 -0.542354226 -0.344824255
v -0.505338967 -0.549287379 -0.342296541
v -0.502438903 -0.549045205 -0.340060502
v -0.49727869 -0.544867992 -0.334765822
v -0.475858778 -0.55238831 -0.371963948
v -0.47768563 -0.55015862 -0.350933433
v -0.468705624 -0.553956807 -0.352622151
v -0.457360983 -0.558300734 -0.359291792
v -0.455658138 -0.55777663 -0.35443455
v -0.448116034 -0.561255813 -0.35295397
v -0.441765815 -0.564463198 -0.348941594
v -0.429060102 -0.569138646 -0.358241469
v -0.430871069 -0.567798197 -0.346057564
v -0.413922489 -0.577066898 -0.363530934
v -0.413581759 -0.576212883 -0.355858177
v -0.406936824 -0.58309865 -0.351825297
v -0.396255732 -0.583731592 -0.357169449
v -0.391023606 -0.587632477 -0.3590478
v -0.373541623 -0.59713012 -0.377075821
v -0.353011489 -0.60571593 -0.418441534
v -0.353186518 -0.613017201 -0.416992068
v -0.345448196 -0.620280445 -0.414824396
v -0.342324257 -0.620056808 -0.41276601
v -0.334822237 -0.619918525 -0.411179543
v -0.31811884 -0.629424632 -0.426970929
v -0.314978868 -0.628193796 -0.416542172
v -0.302772611 -0.63392061 -0.432026982
v -0.294261754 -0.637726247 -0.431719512
v -0.285936177 -0.641488671 -0.431011081
v -0.284394354 -0.6408571 -0.425743073
v -0.273780167 -0.645196378 -0.429503679
v -0.263636202 -0.653145313 -0.431743711
v -0.260469019 -0.652918518 -0.429656804
v -0.256326169 -0.651910603 -0.421228111
v -0.249998927 -0.651457548 -0.417058975
v -0.240489572 -0.655526042 -0.418492109
v -0.234290913 -0.655037582 -0.414052427
v -0.228636384 -0.659162402 -0.416199595
v -0.225992009 -0.657775879 -0.404978573
v -0.219660535 -0.657322526 -0.400806665
v -0.228134185 -0.656860352 -0.368184209
v -0.202864721 -0.664899588 -0.399208397
v -0.196521893 -0.6644454 -0.395029008
v -0.184708223 -0.665362537 -0.401040882
v -0.181172162 -0.667933762 -0.391107261
v -0.182264253 -0.67035836 -0.380615056
v -0.183538347 -0.672724605 -0.369824618
v -0.179229975 -0.671762407 -0.361958295
v -0.17517601 -0.670740128 -0.353657395
v -0.177291304 -0.671863735 -0.333653539
v -0.171010062 -0.671414018 -0.329514712
v -0.16276215 -0.671457767 -0.328930855
v -0.15926896 -0.670309186 -0.319758564
v -0.156192243 -0.673757732 -0.317094356
v -0.108041696 -0.68002373 -0.388340741
v -0.135968268 -0.674770474 -0.322479963
v -0.126827419 -0.678732097 -0.322885752
v -0.125219822 -0.678120136 -0.318069696
v -0.118645601 -0.681440651 -0.313915819
v -0.107643835 -0.685873449 -0.317531139
v -0.107107125 -0.68498981 -0.310858339
v -0.100797549 -0.684538007 -0.306700855
v -0.0918501988 -0.68474257 -0.307124466
v -0.0687667578 -0.688445807 -0.33196035
v -0.0645196587 -0.683727264 -0.3245821
v -0.0599430278 -0.682835698 -0.317327261
v -0.0578650832 -0.685068667 -0.305363625
v -0.0565081015 -0.688122988 -0.299717069
v -0.0501710884 -0.687669218 -0.295541525
v -0.0413354933 -0.684096217 -0.296050549
v -0.0338829681 -0.683909655 -0.293734789
v -0.0251393411 -0.684032083 -0.293569744
v -0.0148911625 -0.688254595 -0.295430154
v -0.0113643482 -0.688109636 -0.293906182
v -0.00576737197 -0.684714556 -0.296278447
v 0.00829570182 -0.679544926 -0.313150048
v 0.0164346099 -0.679491818 -0.311792016
v 0.0260487087 -0.683557749 -0.312388331
v 0.0307748131 -0.683683574 -0.312764734
v 0.0366206206 -0.683087945 -0.307581872
v 0.0462250598 -0.683368981 -0.308536947
v 0.0563596599 -0.679975986 -0.310760289
v 0.0595817156 -0.679745317 -0.308637202
v -0.0218094829 -0.655510783 -0.162967712
v -0.01265446 -0.655737698 -0.163645402
v -0.00138393801 -0.656437337 -0.167675063
v 0.00440941472 -0.652235866 -0.163323924
v 0.0076775956 -0.652048707 -0.161528736
v 0.0182943959 -0.652580082 -0.164409891
v 0.0260428395 -0.652469635 -0.162702575
v 0.0338786803 -0.652375996 -0.161113948
v 0.0435358286 -0.652679801 -0.162361354
v 0.0481041037 -0.649089456 -0.162981167
v 0.0583763719 -0.649512768 -0.165125057
v 0.0649805889 -0.649137437 -0.161523804
v 0.0743274838 -0.645655155 -0.162576616
v 0.0833116919 -0.645782292 -0.162616387
v 0.0903429016 -0.641787648 -0.160039201
v 0.0963608474 -0.642166495 -0.162373692
v 0.10558971 -0.64233017 -0.162707284
v 0.114070632 -0.638615668 -0.162279844
v 0.121606149 -0.634696305 -0.160392389
v 0.131191343 -0.634911478 -0.161172107
v 0.140685797 -0.631370962 -0.162184805
v 0.148504809 -0.632080257 -0.167081296
v 0.156933129 -0.628299892 -0.166425616
v 0.173012927 -0.629772544 -0.176729828
v 0.17470549 -0.625490487 -0.172813877
v 0.182825342 -0.625375867 -0.171203554
v 0.188654914 -0.621051371 -0.166598663
v 0.194505736 -0.61673218 -0.162028015
v 0.198219731 -0.616604269 -0.160699964
v 0.20410575 -0.612291753 -0.156181306
v 0.210425988 -0.608061016 -0.15229708
v 0.22614944 -0.609336853 -0.161650211
v 0.229075655 -0.605277896 -0.159541383
v 0.240509048 -0.605739415 -0.162580654
v 0.248938113 -0.601855993 -0.161644042
v 0.259094119 -0.598270535 -0.163155034
v 0.265800834 -0.598661959 -0.166024581
v 0.272886306 -0.594510078 -0.163093463
v 0.28298977 -0.594690382 -0.164040774
v 0.292907417 -0.591016173 -0.165077314
v 0.296051681 -0.586951613 -0.163217306
v 0.305321962 -0.586968124 -0.162905708
v 0.315090656 -0.583237052 -0.163650379
v 0.322969884 -0.579176545 -0.161723256
v 0.328763038 -0.579368174 -0.163140148
v 0.338213563 -0.575552166 -0.163357884
v 0.34807089 -0.571788371 -0.164105088
v 0.352607816 -0.571762741 -0.163732216
v 0.362806648 -0.56803441 -0.164896294
v 0.370031834 -0.563821614 -0.161948889
v 0.382249594 -0.564247489 -0.165421203
v 0.385652274 -0.560166776 -0.163832083
v 0.396190107 -0.556441665 -0.165332153
v 0.407258302 -0.556661427 -0.167127296
v 0.410075486 -0.552474439 -0.164721042
v 0.420996368 -0.548769951 -0.166641399
v 0.429413766 -0.548572838 -0.164785355
v 0.438899934 -0.544633865 -0.164713755
v 0.443974346 -0.54075706 -0.165295884
v 0.456359327 -0.541118383 -0.168649271
v 0.464805931 -0.536996365 -0.167111382
v 0.469149828 -0.53299123 -0.166681081
v 0.479069084 -0.529057741 -0.167049363
v 0.489827633 -0.525224268 -0.168484077
v 0.494398803 -0.525157392 -0.167942435
v 0.504271269 -0.521184385 -0.168163806
v 0.513522983 -0.517115831 -0.167545944
v 0.517609894 -0.513035297 -0.166712821
v 0.529704452 -0.505360782 -0.170099676
v 0.534875989 -0.505354702 -0.170274302
v 0.544543326 -0.497333109 -0.170464605
v 0.550946057 -0.493504047 -0.172561601
v 0.561052084 -0.485493332 -0.173258558
v 0.560517251 -0.481456846 -0.172941521
v 0.569275498 -0.473261833 -0.171886891
v 0.572502792 -0.465049475 -0.170250759
v 0.572215557 -0.461037844 -0.170250759
v 0.577554166 -0.453045577 -0.171295598
v 0.577243686 -0.445042163 -0.171631843
v 0.58264339 -0.441022485 -0.172378615
v 0.582830429 -0.433059454 -0.173346385
v 0.585622907 -0.424779385 -0.171143651
v 0.586392164 -0.416863531 -0.172848061
v 0.587159991 -0.408939868 -0.174551323
v 0.592397153 -0.404865533 -0.175071701
v 0.591820419 -0.396811187 -0.175071701
v 0.590664029 -0.388709128 -0.174337938
v 0.591268003 -0.380750328 -0.175832599
v 0.594697535 -0.372502238 -0.174423963
v 0.596204817 -0.364597768 -0.177059039
v 0.596405923 -0.35658896 -0.17804344
v 0.594574153 -0.348437667 -0.176457122
v 0.594924927 -0.340435505 -0.177631229
v 0.596614122 -0.332511246 -0.18049933
v 0.594817281 -0.324367255 -0.178956687
v 0.595150411 -0.31635046 -0.180109724
v 0.596858621 -0.308402091 -0.183004171
v 0.597067714 -0.300364614 -0.184001371
v 0.597260416 -0.292321801 -0.184978232
v 0.59827292 -0.284311444 -0.186994076
v 0.599537849 -0.276302576 -0.189330637
v 0.592426538 -0.267208815 -0.168087587
v 0.55009383 -0.261243582 -0.10862691
v 0.557955146 -0.260815531 -0.105821855
v 0.561038733 -0.260210693 -0.0970263481
v 0.569090903 -0.255839229 -0.0948120505
v 0.572400808 -0.255602241 -0.0926311165
v 0.59267503 -0.247661352 -0.10591086
v 0.598677933 -0.243192896 -0.101074874
v 0.600470006 -0.238938347 -0.0973415077
v 0.600910068 -0.234650791 -0.0919479951
v 0.599314868 -0.226039603 -0.0781549588
v 0.595181048 -0.221987754 -0.0734280422
v 0.596378207 -0.213500753 -0.0631311908
v 0.596176624 -0.209253684 -0.0570206791
v 0.598139226 -0.201110974 -0.0539071076
v 0.595042586 -0.192909986 -0.0446365476
v 0.592719257 -0.188678101 -0.035986796
v 0.592125595 -0.180555165 -0.0297990572
v 0.586932659 -0.172427878 -0.018051751
v 0.583830655 -0.168502524 -0.0146326562
v 0.581447899 -0.160442457 -0.00632034848
v 0.582648039 -0.156306237 -0.00201793457
v 0.575406313 -0.148305267 0.0121195186
v 0.572479546 -0.140333772 0.0210239664
v 0.563969553 -0.132647738 0.0306017194
v 0.56635195 -0.128553882 0.0334210135
v 0.563941658 -0.120655879 0.0416574404
v 0.561534464 -0.112786852 0.0498705767
v 0.55516386 -0.109041579 0.0571737774
v 0.546063602 -0.101363823 0.0733637959
v 0.548988998 -0.0973060355 0.0754720122
v 0.53629756 -0.0898014903 0.0958753377
v 0.538745284 -0.0856345668 0.104397297
v 0.530671656 -0.0819101781 0.119514741
v 0.531151831 -0.0778332651 0.13027975
v 0.515871108 -0.0743860975 0.153801695
v 0.520843446 -0.0702156425 0.159152091
v 0.510555387 -0.066562131 0.18237783
v 0.526028574 -0.0658037588 0.17569901
v 0.513884842 -0.0623642504 0.195250914
v 0.509943426 -0.062277101 0.211156487
v 0.484583229 -0.0666235313 0.252072603
v 0.476589084 -0.0704395026 0.26716724
v 0.473880559 -0.0777098611 0.276419103
v 0.477445334 -0.084775351 0.278424352
v 0.478979737 -0.088383995 0.276959032
v 0.480496734 -0.0953537524 0.286810219
v 0.483019054 -0.0987898186 0.289701551
v 0.491985649 -0.1055796 0.291004241
v 0.495286942 -0.109000556 0.293007821
v 0.498917013 -0.108609937 0.29979381
v 0.504993021 -0.108174875 0.303797364
v 0.509733379 -0.107764564 0.309304208
v 0.51302141 -0.107381649 0.316429377
v 0.519782305 -0.10693422 0.319651127
v 0.53912288 -0.106249109 0.308868587
v 0.54103452 -0.102243826 0.317242622
v 0.539672315 -0.0984725878 0.323842376
v 0.540288031 -0.0908826888 0.333307415
v 0.543355763 -0.0870266184 0.334983647
v 0.549719512 -0.0830800533 0.333033204
v 0.544785321 -0.0759391338 0.337891728
v 0.554719567 -0.0682194233 0.331735075
v 0.56114769 -0.0605834052 0.32945168
v 0.559805274 -0.053323593 0.330352068
v 0.559066534 -0.0460436679 0.330590099
v 0.55822587 -0.0387692899 0.330940187
v 0.556424022 -0.031540595 0.332345933
v 0.551937699 -0.0281722099 0.331641138
v 0.552672207 -0.0208289549 0.330259115
v 0.552349865 -0.0135344015 0.330039859
v 0.548054457 -0.00650785677 0.328839362
v 0.547914922 0.000796882494 0.328418046
v 0.546901047 0.00805091392 0.328961223
v 0.544395387 0.015208398 0.331150711
v 0.549161732 0.0191924293 0.330966204
v 0.548487306 0.0264646113 0.331134766
v 0.546030343 0.0336118937 0.333267808
v 0.545509279 0.0408888012 0.333267808
v 0.545091271 0.0481734239 0.333154231
v 0.539648414 0.0550687648 0.338581294
v 0.527867973 0.0614294074 0.350999892
v 0.531268597 0.0689544976 0.352005243
v 0.534818053 0.0764970556 0.35284999
v 0.527692318 0.0831539035 0.360115469
v 0.529716611 0.0905487984 0.362626702
v 0.534883797 0.0946591794 0.356669366
v 0.531869471 0.101587661 0.36471194
v 0.530234039 0.108699284 0.365938246
v 0.529059231 0.115851067 0.36665985
v 0.533391416 0.119834632 0.366921663
v 0.532792509 0.127046168 0.367011368
v 0.528795004 0.133894667 0.370823413
v 0.529706419 0.141261443 0.369259447
v 0.535518885 0.149062812 0.367620409
v 0.535437405 0.156335905 0.36714378
v 0.532299876 0.16325295 0.370010704
v 0.5333094 0.170653388 0.368340343
v 0.53279233 0.177874818 0.368340343
v 0.530329883 0.185014501 0.365176529
v 0.5232777 0.191402569 0.372344673
v 0.529503644 0.195670441 0.370526135
v 0.531478107 0.203215152 0.367797554
v 0.528983593 0.210171834 0.369963765
v 0.530683041 0.217693448 0.367535412
v 0.527740955 0.224783733 0.364895314
v 0.523590565 0.231490523 0.368884653
v 0.526090562 0.239144132 0.365571588
v 0.521067381 0.245700762 0.370521218
v 0.521425724 0.25304392 0.369560212
v 0.524488688 0.260806322 0.365626782
v 0.519702792 0.267618239 0.36501506
v 0.521649957 0.271575332 0.362586319
v 0.515024185 0.27809003 0.364005268
v 0.515918732 0.285262346 0.367759705
v 0.516546369 0.289014339 0.366783798
v 0.516619623 0.296328336 0.366133779
v 0.514135778 0.303507388 0.362989157
v 0.511659324 0.310389817 0.365152895
v 0.511624515 0.317688853 0.364620775
v 0.512903988 0.325223893 0.362636685
v 0.510360479 0.332079321 0.364875615
v 0.506101847 0.338945717 0.363694012
v 0.505899072 0.346217513 0.363346666
v 0.501210868 0.349343717 0.362930685
v 0.502820015 0.356958061 0.360572428
v 0.499828458 0.364062577 0.35798502
v 0.49488011 0.36713016 0.357862502
v 0.496652693 0.374794304 0.355312467
v 0.504234552 0.384019136 0.340918124
v 0.503715515 0.391268134 0.340918124
v 0.503196418 0.398517132 0.340918124
v 0.491574973 0.403868735 0.347955137
v 0.496263772 0.412193954 0.342129111
v 0.495745271 0.419435292 0.342129111
v 0.49246034 0.422839314 0.340135455
v 0.488259882 0.429720908 0.338879138
v 0.486104965 0.436599255 0.340718269
v 0.48091346 0.443248928 0.340584517
v 0.481497973 0.447054029 0.339634806
v 0.480136871 0.454095006 0.340584517
v 0.480641365 0.461561322 0.339432955
v 0.477767497 0.468245447 0.342087477
v 0.479761034 0.47606498 0.339257628
v 0.469000518 0.480854392 0.350802928
v 0.462348819 0.486579597 0.357720345
v 0.462579459 0.493433505 0.362242252
v 0.458856314 0.499301404 0.371199489
v 0.454401404 0.501844406 0.37591812
v 0.451667637 0.507376492 0.38904503
v 0.452926069 0.510788083 0.392649502
v 0.449938834 0.516204894 0.405976325
v 0.452485055 0.516310155 0.408404201
v 0.446272194 0.521408796 0.419994682
v 0.448138922 0.524398088 0.428099841
v 0.448960632 0.527660906 0.432125151
v 0.444856554 0.532677114 0.446485013
v 0.442024022 0.534964859 0.454496831
v 0.445812166 0.538418233 0.460375607
v 0.453518629 0.539319932 0.462236583
v 0.444927096 0.540076852 0.476463526
v 0.445039004 0.542546093 0.486276329
v 0.438347876 0.543202698 0.503413081
v 0.440294296 0.543156981 0.506362498
v 0.440069258 0.545510769 0.516417503
v 0.438807786 0.547577798 0.527542114
v 0.441697627 0.547784746 0.529446304
v 0.4404006 0.54983139 0.540546119
v 0.438918501 0.551816165 0.551792979
v 0.441493452 0.551377833 0.558947682
v 0.441626698 0.554349363 0.563477695
v 0.444471925 0.557479084 0.570049763
v 0.450203508 0.557889521 0.573826432
v 0.4469482 0.559935153 0.581881225
v 0.446515322 0.56216383 0.59182775
v 0.447424173 0.564747334 0.600333571
v 0.449149579 0.567545831 0.607958794
v 0.448453397 0.566783428 0.613504469
v 0.440539002 0.566934526 0.63104701
v 0.439920813 0.569065869 0.640980721
v 0.442740619 0.569267809 0.642838717
v 0.448138595 0.573045909 0.646554708
v 0.452301472 0.576482952 0.651532054
v 0.456356347 0.57702589 0.652128696
v 0.454982311 0.578929901 0.662725151
v 0.442742407 0.577806056 0.684277356
v 0.442946583 0.580694616 0.688494503
v 0.445258081 0.583587289 0.695228517
v 0.447407275 0.586429358 0.702104867
v 0.447959632 0.586003363 0.70617789
v 0.445923537 0.587662935 0.717200398
v 0.442984939 0.589055836 0.729071796
v 0.437898815 0.590410173 0.738463998
v 0.437943995 0.59262085 0.747285366
v 0.439030319 0.595119119 0.755043924
v 0.435077369 0.596758604 0.763228357
v 0.433556616 0.598493636 0.773491859
v 0.429983377 0.600216448 0.781250656
v 0.426991642 0.601504445 0.792876303
v 0.428487033 0.604667425 0.795636415
v 0.418051153 0.607075453 0.814206183
v 0.414944261 0.609469056 0.817002952
v 0.401532769 0.611510396 0.83398062
v 0.401359856 0.617414415 0.83807385
v 0.404170007 0.624200821 0.839271724
v 0.406622589 0.627602816 0.841039181
v 0.390513539 0.629281163 0.856168568
v 0.392945856 0.632661045 0.857930899
v 0.369568884 0.632017314 0.880057037
v 0.371758819 0.638531685 0.881798446
v 0.36864233 0.64402765 0.884366274
v 0.352764666 0.645506084 0.899239421
v 0.351814598 0.651628554 0.89972192
v 0.464869261 0.0314505175 0.261171997
v 0.46275717 0.0239762366 0.269781619
v 0.468967736 0.017058881 0.263183236
v 0.470399648 0.00981076248 0.262129217
v 0.480645031 0.00305030611 0.245277911
v 0.477839977 -0.000840598601 0.243256405
v 0.496307075 0.000159896939 0.210484758
v 0.494295806 -0.00376477651 0.201816395
v 0.487549335 -0.00791504048 0.204364553
v 0.486650974 -0.00806365348 0.194048405
v 0.480316401 -0.0122416178 0.190428317
v 0.476424158 -0.0125604942 0.183598787
v 0.470481336 -0.0167199429 0.179507703
v 0.46696949 -0.0206916984 0.178265259
v 0.46507895 -0.0209146068 0.169008732
v 0.464621216 -0.0248057507 0.158314481
v 0.481672049 -0.0278650317 0.126471177
v 0.47860232 -0.0280865114 0.124313734
v 0.476547152 -0.0321104974 0.115375139
v 0.473113865 -0.0362087712 0.108078495
v 0.469153583 -0.040337868 0.101402685
v 0.467481911 -0.0404984914 0.0975158587
v 0.487039804 -0.0436370373 0.0619589388
v 0.480944395 -0.047903277 0.0577628091
v 0.478033096 -0.0519415252 0.0556647442
v 0.473484218 -0.0561489575 0.0495545864
v 0.473257869 -0.0600913167 0.0441245213
v 0.478681266 -0.0639602914 0.0255785026
v 0.475752831 -0.068022348 0.0234680679
v 0.488299996 -0.0717152208 -0.00411469955
v 0.485468835 -0.0758020133 -0.00638733618
v 0.587755322 -0.0647725537 -0.141670644
v 0.587180853 -0.0567489564 -0.141670644
v 0.586606324 -0.0487253591 -0.141670644
v 0.581472635 -0.0408933423 -0.135943323
v 0.58089906 -0.032882832 -0.135943323
v 0.580325484 -0.0248723254 -0.135943323
v 0.578219056 -0.016939478 -0.134016618
v 0.576620996 -0.0089882547 -0.132728145
v 0.571972907 -0.00528205372 -0.133649781
v 0.570117712 0.00264397613 -0.132034063
v 0.568285286 0.0105639799 -0.130446449
v 0.562361479 0.0181897394 -0.130106613
v 0.561317682 0.0221339744 -0.129149541
v 0.562686145 0.0302508008 -0.131600335
v 0.557579577 0.0379175134 -0.132286847
v 0.55700773 0.045904588 -0.132286847
v 0.551900208 0.0495474897 -0.132603079
v 0.551303744 0.0575283282 -0.132571548
v 0.550732136 0.0655110329 -0.132571548
v 0.54471153 0.0730774105 -0.132081702
v 0.546253502 0.0812376216 -0.13476932
v 0.540236294 0.0887919366 -0.134277806
v 0.540784776 0.096872367 -0.135704979
v 0.532273948 0.104172714 -0.132019639
v 0.532409608 0.108196825 -0.132557228
v 0.531894147 0.116170011 -0.132627577
v 0.525139511 0.123605214 -0.131166026
v 0.527423859 0.13186729 -0.134821266
v 0.522668719 0.139503524 -0.135917321
v 0.521492481 0.143387765 -0.134773731
v 0.521406233 0.151405364 -0.135394871
v 0.515557885 0.158904254 -0.135078818
v 0.514988065 0.166862696 -0.135078818
v 0.511092901 0.174583048 -0.137269929
v 0.504076958 0.181912169 -0.135429442
v 0.504179657 0.185935944 -0.135929853
v 0.503610432 0.193886384 -0.135929853
v 0.497839123 0.201349244 -0.135684252
v 0.495290071 0.20923847 -0.139609769
v 0.495318472 0.213255882 -0.14001596
v 0.494749248 0.221205667 -0.14001596
v 0.490273774 0.22883378 -0.14144434
v 0.489978135 0.23682186 -0.14180012
v 0.485536844 0.244450599 -0.143270522
v 0.484768182 0.252367407 -0.143010229
v 0.481163293 0.256102979 -0.145198092
v 0.480880797 0.264094621 -0.145572484
v 0.476386696 0.271707594 -0.146969274
v 0.476809442 0.279815048 -0.148268163
v 0.472305089 0.287423819 -0.149650753
v 0.471412748 0.29129529 -0.148852885
v 0.472506464 0.299524128 -0.151035741
v 0.468615472 0.307236224 -0.153224498
v 0.463744581 0.31477493 -0.154121429
v 0.463460058 0.318748444 -0.154121429
v 0.459393412 0.326425552 -0.156075478
v 0.460890472 0.334753573 -0.158805817
v 0.456727833 0.342417538 -0.160637394
v 0.456447899 0.350424647 -0.161020786
v 0.452543736 0.354105979 -0.162816793
v 0.453089118 0.362275779 -0.164296582
v 0.448377013 0.369830281 -0.165397942
v 0.444484651 0.377545089 -0.167587474
v 0.444656521 0.381614327 -0.168196186
v 0.441042632 0.389388114 -0.170759007
v 0.437470615 0.397172511 -0.173379466
v 0.432378411 0.404635012 -0.17396231
v 0.43209368 0.408611149 -0.17396231
v 0.42866677 0.416426867 -0.176777199
v 0.467579573 0.433103889 -0.229872465
v 0.444739968 0.435680777 -0.193233967
v 0.452369213 0.436878979 -0.196779326
v 0.459061652 0.437358171 -0.19236958
v 0.45431459 0.439339101 -0.173124716
v 0.455806315 0.443214238 -0.16886425
v 0.466276407 0.444549531 -0.169514909
v 0.47266078 0.449018031 -0.165119857
v 0.448512942 0.450548112 -0.120997377
v 0.451810479 0.450784236 -0.118824586
v 0.45915851 0.455440611 -0.115831733
v 0.452417821 0.456843048 -0.0944916382
v 0.433712125 0.455960989 -0.0641247556
v 0.44093141 0.456591427 -0.0607496686
v 0.441672027 0.459674269 -0.0493715405
v 0.402101487 0.453303307 0.0137630384
v 0.432931572 0.456072628 -0.0192293879
v 0.408489615 0.453760713 0.0179722551
v 0.414877713 0.454218149 0.0221814699
v 0.421265811 0.454675555 0.0263906866
v 0.427653909 0.455132961 0.0305999015
v 0.434450686 0.455685288 0.0342934839
v 0.440839767 0.456142753 0.0385033526
v 0.450217068 0.457291961 0.0389706306
v 0.456877738 0.457811058 0.0428553037
v 0.451075226 0.459839642 0.0558339618
v 0.45082593 0.462628245 0.0679199174
v 0.458835661 0.463467985 0.0700718239
v 0.454874128 0.465378195 0.0866551846
v 0.458044529 0.465605199 0.0887442082
v 0.46352464 0.465858221 0.0939771086
v 0.465771675 0.469208509 0.102819286
v 0.469076872 0.468953371 0.110670388
v 0.465662122 0.471478105 0.120412625
v 0.469952106 0.471455455 0.127010986
v 0.470872581 0.474470854 0.1373301
v 0.464856297 0.475830555 0.155942559
v 0.466094524 0.47889325 0.165765226
v 0.46922034 0.479117095 0.167824879
v 0.46860075 0.481726855 0.17981033
v 0.458162308 0.482488692 0.197668612
v 0.405575573 0.461948633 0.266436994
v 0.406096071 0.454679459 0.266436994
v 0.406616569 0.447410256 0.266436994
v 0.408200115 0.440384209 0.265176117
v 0.409597963 0.433310211 0.264135927
v 0.410118848 0.426035643 0.264135927
v 0.410639733 0.418761045 0.264135927
v 0.41327396 0.411502838 0.267234504
v 0.414554387 0.404393762 0.266335934
v 0.415075243 0.397119641 0.266335934
v 0.412831843 0.389685392 0.26400733
v 0.413787633 0.386192292 0.263183802
v 0.416497588 0.379363686 0.260591924
v 0.417685986 0.37221548 0.259802371
v 0.41754055 0.36479789 0.260591924
v 0.415871829 0.35708499 0.263183802
v 0.416392863 0.349808186 0.263183802
v 0.416913927 0.342531353 0.263183802
v 0.418596208 0.335826904 0.256202012
v 0.419118077 0.328538418 0.256202012
v 0.419639945 0.321249932 0.256202012
v 0.420161843 0.313961476 0.256202012
v 0.420580566 0.306654751 0.256324112
v 0.421102434 0.299366564 0.256324112
v 0.421624273 0.292078376 0.256324112
v 0.422146142 0.284790188 0.256324112
v 0.42266801 0.277502 0.256324112
v 0.423189849 0.270213813 0.256324112
v 0.423711717 0.262925595 0.256324112
v 0.424855143 0.255735099 0.255589247
v 0.426331639 0.248592541 0.25446102
v 0.426853806 0.241299987 0.25446102
v 0.428311676 0.23414664 0.253355443
v 0.428834021 0.226851508 0.253355443
v 0.429356396 0.219556361 0.253355443
v 0.429958016 0.212272346 0.253261864
v 0.432456076 0.205248833 0.250929356
v 0.432978839 0.197948009 0.250929356
v 0.433501601 0.190647185 0.250929356
v 0.434024364 0.183346361 0.250929356
v 0.434547126 0.176045537 0.250929356
v 0.435069889 0.168744713 0.250929356
v 0.436040044 0.161497965 0.250401795
v 0.43589747 0.157652795 0.256478667
v 0.43642804 0.15036124 0.256468803
v 0.437889308 0.143175617 0.255363941
v 0.439557195 0.136007726 0.254016489
v 0.44144392 0.128857166 0.25241217
v 0.441153467 0.121365927 0.258958161
v 0.443820626 0.114294834 0.256440997
v 0.44434315 0.106997512 0.256440997
v 0.446409911 0.0998502448 0.254629582
v 0.446027398 0.0960640907 0.260965645
v 0.448698521 0.0889725164 0.258450061
v 0.449504435 0.0817007646 0.258118391
v 0.452145427 0.0745395869 0.261215091
v 0.453315139 0.0672988594 0.260459155
v 0.456238538 0.0601667538 0.263223678
v 0.457764834 0.052950684 0.262053907
v 0.457298011 0.0455621183 0.268760145
v 0.46124208 0.0421948656 0.264477342
v 0.463330567 0.0350107439 0.262656778
g path_000000
l 1 973 972
g path_000001
l 2 3 4
g path_000002
l 6 7 8 9
g path_000003
l 10 11 12 13 14 15 16 17 18 19 20 21 22 23 24 25 26
g path_000004
l 27 28 29 30 31 32 33
g path_000005
l 34 35 36 37 38 39 40 41 42
g path_000006
l 43 44 45 46 47 48 49 50 51 52 53 54
g path_000007
l 55 56 57 58 59 60 61 62 63 64 65 66 67 68 69 70 71 72 73 74 75 76 77 78 79 80 81 82 83 84 85 86 87 88 89 90 91 92 93 94 95 96 97 98 99 100 101 102 103 104 105 106 107 108 109 110 111 112 113 114 115 116 117 118 119 120 121 122 123 124 125 126 127 128 129 130 131 132 133 134 135 136 137 138 139 140 141 142 143 144 145 146 147 148 149 150 151 152 153 154 155 156 157
g path_000008
l 158 159 160
g path_000009
l 161 162 163 164 165
g path_000010
l 166 167 168 169 170 171 172
g path_000011
l 173 174 175 176 177 178
g path_000012
l 181 182 183 184 185 186 187 188 189 190
g path_000013
l 191 192 193 194 195 196 197 198 199
g path_000014
l 200 201 202 203 204 205 206 207 208 209 210 211 212 213 214 215 216 217 218
g path_000015
l 220 221 222 223 224 225
g path_000016
l 226 227
g path_000017
l 228 229 230 231 232
g path_000018
l 233 234
g path_000019
l 238 239 240 241 242 243 244 245 246 247
g path_000020
l 248 249 250 251 252 253 254 255 256
g path_000021
l 257 258 259 260 261 262 263 264 265 266
g path_000022
l 267 268 269 270 271 272
g path_000023
l 273 274
g path_000024
l 277 278
g path_000025
l 280 281
g path_000026
l 282 283 284 285 286 287 288 289 290 291 292 293 294 295 296 297 298 299 300 301 302 303 304 305 306 307 308 309 310 311 312 313 314 315 316 317 318 319 320 321 322 323
g path_000027
l 326 327
g path_000028
l 328 329 330 331
g path_000029
l 332 333 334
g path_000030
l 335 336 337
g path_000031
l 338 339
g path_000032
l 340 341 342 343
g path_000033
l 344 345
g path_000034
l 346 347 348 349 350 351 352 353 354 355 356 357 358 359 360 361 362 363 364 365 366 367 368 369 370 371 372 373 374 375 376 377 378 379 380 381 382 383 384 385 386 387 388 389 390 391 392 393 394 395 396 397 398 399 400 401 402 403 404 405 406 407 408 409 410 411 412 413 414 415 416 417 418 419 420 421 422 423 424 425 426 427 428 429 430 431 432 433 434 435 436 437 438 439 440 441 442 443 444 445 446 447 448 449 450 451 452 453 454 455 456 457 458 459 460 461 462 463 464 465 466 467 468 469 470
g path_000035
l 474 475
g path_000036
l 476 477
g path_000037
l 478 479 480
g path_000038
l 481 482
g path_000039
l 483 484 485 486 487
g path_000040
l 488 489 490 491 492 493 494 495 496 497 498 499 500 501 502 503 504 505 506 507 508 509 510 511 512 513 514 515 516 517
g path_000041
l 518 519 520 521 522 523 524 525 526 527
g path_000042
l 528 529 530 531 532
g path_000043
l 533 534
g path_000044
l 535 536
g path_000045
l 538 539
g path_000046
l 541 542 543
g path_000047
l 544 545
g path_000048
l 546 547 548 549 550 551 552 553 554 555 556 557 558 559 560
g path_000049
l 562 563
g path_000050
l 564 565 566 567 568
g path_000051
l 571 572 573 574
g path_000052
l 575 576 577 578 579 580
g path_000053
l 581 582 583 584 585 586 587 588 589
g path_000054
l 590 591 592 593 594
g path_000055
l 596 597 598 599 600
g path_000056
l 601 602 603 604 605 606 607 608 609 610 611 612 613 614 615 616
g path_000057
l 618 619 620 621 622 623 624 625 626 627 628 629 630
g path_000058
l 632 633 634 635 636 637 638 639
g path_000059
l 640 641 642 643 644 645 646 647 648 649 650 651 652 653 654 655 656 657 658 659
g path_000060
l 660 661 662 663 664 665 666 667 668 669 670 671 672 673 674 675 676 677 678 679 680 681 682 683 684 685 686 687 688 689 690 691 692 693 694 695 696 697 698 699 700 701 702 703 704 705 706 707 708 709 710 711 712 713 714 715 716 717 718 719 720 721 722 723 724 725 726 727 728 729 730 731 732 733 734 735 736 737 738 739 740 741 742 743 744 745 746 747 748 749 750 751 752 753 754 755 756 757 758 759 760 761
g path_000061
l 762 763 764 765 766
g path_000062
l 767 768 769 770 771 772 773 774 775 776 777 778 779 780 781 782 783 784 785 786 787 788 789 790 791
g path_000063
l 792 793 794 795
g path_000064
l 796 797
g path_000065
l 798 799
g path_000066
l 800 801
g path_000067
l 802 803 804 805 806 807 808 809 810 811 812 813 814 815
g path_000068
l 816 817 818 819 820 821 822 823 824 825 826 827 828 829 830 831 832 833 834 835 836 837 838 839 840 841 842 843 844 845 846 847 848 849 850 851 852 853 854 855 856 857 858 859 860 861 862 863 864 865 866 867 868 869 870 871 872 873 874 875 876 877 878 879 880 881 882 883 884 885 886 887 888 889 890 891 892 893 894 895 896 897 898 899 900 901 902 903 904 905 906 907 908 909 910 911 912 913 914 915 916 917 918 919 920 921 922 923 924 925 926 927 928 929 930 931 932 933 934 935 936 937 938 939 940 941 942 943 944 945
g path_000069
l 946 947 948 949 950 951 952 953 954 955 956 957 958 959 960
g path_000070
l 961 962
g path_000071
l 963 964 965 966
g path_000072
l 967 968
g path_000073
l 969 970 971
g path_000074
l 979 978 977 976 975 974 1176 1175 1174 1173 1172 1171 1170 1169 1168 1167 1166 1165 1164 1163 1162 1161 1160 1159 1158 1157 1156 1155 1154 1153 1152 1151 1150 1149 1148 1147 1146 1145 1144 1143 1142 1141 1140 1139 1138 1137 1136 1135 1134 1133 1132 1131 1130 1129 1128 1127 1126 1125 1124 1123 1122 1121 1120 1119 1118 1117 1116 1115
g path_000075
l 980 981 982 983 984 985 986 987 988 989
g path_000076
l 990 991 992 993 994 995
g path_000077
l 996 997 998 999 1000 1001 1002
g path_000078
l 1003 1004
g path_000079
l 1005 1006 1007 1008 1009 1010 1011 1012 1013 1014 1015 1016 1017 1018 1019 1020 1021 1022 1023 1024 1025 1026 1027 1028 1029 1030 1031 1032 1033 1034 1035 1036 1037 1038 1039 1040 1041 1042 1043 1044 1045 1046 1047 1048 1049 1050 1051 1052 1053 1054 1055 1056 1057 1058 1059 1060 1061 1062 1063 1064 1065 1066 1067 1068 1069 1070 1071 1072 1073
g path_000080
l 1075 1076 1077 1078 1079 1080 1081
g path_000081
l 1082 1083 1084 1085
g path_000082
l 1086 1087 1088
g path_000083
l 1091 1092 1093 1094 1095 1096 1097 1098 1099 1100 1101 1102 1103 1104 1105 1106 1107 1108 1109 1110 1111 1112 1113 1114
