# Fixed world centers; Z up; paths immutable
v 0.123846285 0.908841014 0.672908664
v 0.115958884 0.908089459 0.672329783
v 0.107891805 0.90680629 0.672343254
v 0.101327851 0.90884763 0.673344374
v 0.0928793103 0.895856678 0.684742212
v 0.0906502008 0.910493731 0.671737134
v 0.0825637951 0.909089744 0.671884894
v 0.0742974281 0.90712142 0.672661841
v 0.0709020346 0.907767594 0.673575819
v 0.0632241741 0.907523632 0.672437131
v 0.056936074 0.910308897 0.672604561
v 0.048960112 0.909135938 0.672497988
v 0.0404082872 0.906152129 0.674405813
v 0.0372945443 0.907617509 0.674405813
v 0.0263021793 0.896888554 0.68492347
v 0.0220923238 0.907480955 0.671743512
v 0.0186447855 0.907880306 0.672927916
v 0.0108490363 0.907168031 0.672313631
v 0.00443194248 0.909461796 0.673018157
v -0.00341349794 0.908555806 0.672619283
v -0.0111823529 0.907882452 0.671963036
v -0.0143265352 0.909224033 0.672097445
v -0.0226435252 0.906690001 0.673510075
v -0.0291511752 0.908600032 0.674633741
v -0.0367228501 0.896503925 0.685053766
v -0.0411375575 0.907173395 0.671791553
v -0.0477123111 0.908813 0.673214436
v -0.05232298 0.90676868 0.672463298
v -0.0586731546 0.909160733 0.673047721
v -0.0662991554 0.908853471 0.671988308
v -0.0742174387 0.907485425 0.672108829
v -0.0804385915 0.910304785 0.672215402
v -0.085197866 0.907663465 0.672131777
v -0.0916027352 0.909789681 0.673006356
v -0.0996065885 0.908005714 0.673589766
v -0.103987135 0.906723857 0.671999454
v -0.110171877 0.909634471 0.671999454
v -0.118046105 0.908271849 0.672116578
v -0.125834942 0.907205403 0.671905935
v -0.129876077 0.907228351 0.668866277
v -0.128763735 0.90035969 0.670265079
v -0.128700823 0.905128777 0.65563482
v -0.129295215 0.907376289 0.643762171
v -0.128642887 0.900927424 0.639980972
v -0.129025131 0.904000282 0.627084434
v -0.141363025 0.874055803 0.653225958
v -0.144502029 0.875311434 0.653450191
v -0.152114779 0.874890625 0.652535319
v -0.158250928 0.87795496 0.652356386
v -0.166123644 0.876457751 0.652660608
v -0.16880098 0.879581392 0.65076834
v -0.176953569 0.876896143 0.652418137
v -0.184778228 0.875515401 0.652592719
v -0.192204013 0.875788271 0.650894046
v -0.193374932 0.873540521 0.648762584
v -0.191687465 0.871594667 0.639933169
v -0.192110091 0.875248015 0.626323521
v -0.191148132 0.870179296 0.620978117
v -0.191805139 0.870120883 0.616292119
v -0.193019152 0.870445251 0.606381416
v -0.193416998 0.874261737 0.592385948
v -0.193176329 0.866072655 0.590552747
v -0.19247435 0.874558687 0.571008563
v -0.192604512 0.864757717 0.57101351
v -0.194566324 0.861964047 0.564549625
v -0.197056964 0.856937408 0.560693979
v -0.194669381 0.857781947 0.548147082
v -0.193453193 0.865699768 0.533851504
v -0.191289932 0.880463421 0.506409526
v -0.19348906 0.861770213 0.516899168
v -0.19341439 0.867673099 0.499850303
v -0.196070954 0.862028301 0.496570677
v -0.195538864 0.854882836 0.49329105
v -0.195340946 0.858524799 0.483849853
v -0.196448922 0.859467983 0.472567856
v -0.195131212 0.8555969 0.465246826
v -0.193104014 0.869841158 0.437646955
v -0.193170652 0.875279367 0.420661122
v -0.192628592 0.86800009 0.417320073
v -0.194027662 0.867794514 0.40714556
v -0.19348444 0.860499442 0.403797269
v -0.194152668 0.860527992 0.398516834
v -0.193373024 0.869577348 0.376739502
v -0.191924199 0.897203386 0.333613724
v -0.201381981 0.875343382 0.357472628
v -0.20870547 0.872169137 0.370600045
v -0.214730263 0.877624691 0.367657304
v -0.22126931 0.880843937 0.367497981
v -0.229498252 0.879702687 0.367455423
v -0.233220279 0.879244328 0.36994192
v -0.240332454 0.86992532 0.372862071
v -0.242293075 0.867663801 0.36508283
v -0.248528302 0.875732064 0.353546321
v -0.256552398 0.875543952 0.352321088
v -0.256158412 0.863892913 0.359643012
v -0.256080896 0.871384442 0.339559793
v -0.255608827 0.863632917 0.336633533
v -0.256094933 0.864901781 0.329648823
v -0.255069762 0.859737754 0.323422641
v -0.256790668 0.858752966 0.313833833
v -0.244342878 0.956816852 0.187453553
v -0.249210432 0.95539248 0.185686454
v -0.258765101 0.953429401 0.181020424
v -0.261912137 0.956481874 0.179187998
v -0.271655768 0.953630626 0.175650701
v -0.276225746 0.953736246 0.1719203
v -0.285407186 0.953815818 0.164616004
v -0.274570733 1.02973676 0.0692834705
v -0.282028407 1.03109133 0.0718192682
v -0.289162993 1.0341177 0.0722090378
v -0.297553301 1.03519237 0.0692673698
v -0.30240196 1.03463578 0.066279605
v -0.308478594 1.03233981 0.059673816
v -0.306538731 1.03187573 0.046379704
v -0.304593712 1.02635098 0.0454666801
v -0.316536576 0.949580252 0.131165996
v -0.319974482 0.956276417 0.118814863
v -0.322811365 0.950443506 0.114830628
v -0.328009218 0.952514052 0.102645196
v -0.330043197 0.951249897 0.092632547
v -0.332328141 0.948600411 0.0844006315
v -0.333923489 0.949905872 0.0709122643
v -0.335502744 0.951362669 0.0571563281
v -0.335524023 0.940030038 0.0581465587
v -0.335309952 0.930060863 0.0573518388
v -0.335390091 0.934798837 0.0450525731
v -0.334133297 0.93070823 0.0363424346
v -0.332779229 0.92199558 0.0398364551
v -0.330786169 0.921987057 0.0255733803
v -0.326498657 0.929608583 0.00694421958
v -0.322300792 0.920345068 0.0028291177
v -0.286723673 1.14417422 -0.306200117
v -0.296054363 1.14422965 -0.307960778
v -0.305608213 1.14299357 -0.307958722
v -0.309292734 1.14574897 -0.309247404
v -0.318894923 1.14417601 -0.308785677
v -0.326587051 1.14779603 -0.308785677
v -0.336585313 1.14368403 -0.304863453
v -0.342127264 1.14145768 -0.305972427
v -0.349763334 1.14534128 -0.306340337
v -0.359042257 1.14555669 -0.308314979
v -0.368485868 1.14468408 -0.308805436
v -0.372201383 1.14730895 -0.309921294
v -0.381799847 1.14533973 -0.308916122
v -0.391245276 1.14433777 -0.309228301
v -0.395065576 1.14624441 -0.309367269
v -0.404571116 1.14474142 -0.308995515
v -0.414992303 1.13639426 -0.299280524
v -0.421939075 1.1452359 -0.30643028
v -0.427466482 1.14284861 -0.307306588
v -0.435120523 1.14645064 -0.307306588
v -0.44436875 1.14666533 -0.309274673
v -0.450041145 1.14303279 -0.308450103
v -0.457524359 1.14801085 -0.310329199
v -0.466982275 1.14640963 -0.309820533
v -0.476494402 1.14422596 -0.308515042
v -0.485964596 1.14228106 -0.307532609
v -0.489695996 1.1448698 -0.308613151
v -0.499007493 1.14429176 -0.309495866
v -0.50664258 1.14788496 -0.309495866
v -0.512104452 1.14576602 -0.31072709
v -0.519787848 1.14885139 -0.310036123
v -0.529198885 1.14707005 -0.309278369
v -0.53516084 1.13946319 -0.303015739
v -0.542274237 1.14856386 -0.310537964
v -0.551679492 1.14657438 -0.309494346
v -0.560995519 1.14548051 -0.309669912
v -0.570282459 1.14464331 -0.310194165
v -0.573771417 1.13384628 -0.28650865
v -0.575979888 1.13897836 -0.284561962
v -0.578092396 1.14534724 -0.284291744
v -0.587269843 1.14521074 -0.285766184
v -0.594914556 1.14777458 -0.284411788
v -0.604119956 1.14713526 -0.28520456
v -0.610085905 1.13646936 -0.274813026
v -0.617090046 1.14847612 -0.286267161
v -0.626322985 1.14719284 -0.286186188
v -0.6355865 1.14520931 -0.285154313
v -0.637186408 1.14140809 -0.28647688
v -0.636796653 1.12874401 -0.284638047
v -0.638676107 1.1444943 -0.319198668
v -0.637813151 1.14000309 -0.328642726
v -0.637451112 1.10256076 -0.286161661
v -0.638450325 1.13363826 -0.342166215
v -0.638129771 1.1195457 -0.338401556
v -0.637868583 1.08053446 -0.293304026
v -0.637566745 1.06651604 -0.289371967
v -0.638967514 1.08999753 -0.335427552
v -0.637689471 1.06877375 -0.314807475
v -0.637756407 1.04843664 -0.301940024
v -0.637710094 1.03018379 -0.291886002
v -0.638901174 1.05677307 -0.342908382
v -0.637872815 1.03157806 -0.316303909
v -0.637787521 1.01401198 -0.307112575
v -0.637733698 0.996046603 -0.297240734
v -0.637880385 1.01651967 -0.333349645
v -0.637970388 0.996030986 -0.31983912
v -0.63781786 0.979745686 -0.312278122
v -0.637796044 0.961411059 -0.301639825
v -0.638190448 0.977406025 -0.331688672
v -0.637758434 0.965777695 -0.330840558
v -0.637777686 0.946781695 -0.319121063
v -0.638497174 0.95732832 -0.341443032
v -0.637965798 0.947352588 -0.342991889
v -0.637489319 0.914527476 -0.303797871
v -0.637533128 0.895539939 -0.291733474
v -0.638517439 0.923277199 -0.346752822
v -0.638606429 0.90328455 -0.333206028
v -0.637696445 0.877982736 -0.304676443
v -0.637567163 0.861937881 -0.29677406
v -0.639256477 0.877759516 -0.334446251
v -0.637755692 0.86205405 -0.320164174
v -0.637640476 0.845804393 -0.311854362
v -0.637611985 0.828307509 -0.301530451
v -0.637545884 0.811526477 -0.292187721
v -0.637934387 0.826165497 -0.321646512
v -0.637799323 0.810383141 -0.313831896
v -0.638225675 0.786020637 -0.292578042
v -0.638240457 0.806335509 -0.331147134
v -0.6382218 0.788794756 -0.320461124
v -0.637412608 0.783543527 -0.328956723
v -0.637603462 0.762979627 -0.313333601
v -0.637929916 0.77822578 -0.34444797
v -0.637717843 0.763763249 -0.338433504
v -0.638762593 0.710671663 -0.263789237
v -0.638638139 0.752241969 -0.344119579
v -0.63887471 0.731046855 -0.327158481
v -0.637203276 0.71908313 -0.317796648
v -0.637164295 0.702410817 -0.307857662
v -0.636790931 0.690790534 -0.305994749
v -0.638576567 0.703006625 -0.340112269
v -0.637313068 0.68511802 -0.320908099
v -0.637185395 0.669903398 -0.313107878
v -0.637163401 0.653252065 -0.302839518
v -0.63806057 0.659015834 -0.319502234
v -0.637656271 0.647920549 -0.31835717
v -0.637463391 0.633812308 -0.312153161
v -0.637105644 0.622155666 -0.309959769
v -0.637917042 0.629010201 -0.328664869
v -0.637649596 0.616006851 -0.324216753
v -0.637405157 0.602745593 -0.319259197
v -0.638217866 0.609515846 -0.338004678
v -0.637638688 0.600992143 -0.341087312
v -0.636973977 0.575635076 -0.308106184
v -0.63744688 0.552594125 -0.28615284
v -0.637927771 0.581666946 -0.350710869
v -0.637981832 0.564240992 -0.338403255
v -0.637397647 0.538189888 -0.303635389
v -0.637782156 0.516646326 -0.283807307
v -0.639018774 0.534524024 -0.329706967
v -0.637694418 0.518958986 -0.312848955
v -0.637529433 0.505015135 -0.306129634
v -0.63751477 0.489117801 -0.295861989
v -0.638716221 0.507132053 -0.342668146
v -0.63782537 0.485835761 -0.315318525
v -0.637668788 0.471905619 -0.308410317
v -0.637215555 0.462028056 -0.308680177
v -0.638049245 0.467628598 -0.326256394
v -0.637780368 0.455233395 -0.322011083
v -0.637510478 0.442917645 -0.317836046
v -0.638671279 0.444079816 -0.327515692
v -0.638075888 0.43608439 -0.33118543
v -0.637583196 0.426735431 -0.332369417
v -0.637299716 0.398572832 -0.291243285
v -0.638371408 0.416935384 -0.340359777
v -0.637776077 0.408939958 -0.344029516
v -0.637438238 0.381625742 -0.303997159
v -0.637297809 0.36797744 -0.296887934
v -0.637266099 0.353033543 -0.28723985
v -0.637933135 0.375903815 -0.345750242
v -0.637517393 0.349999756 -0.307669371
v -0.637489319 0.335055053 -0.297873825
v -0.63756305 0.318942189 -0.285715848
v -0.637438595 0.335769385 -0.325668663
v -0.637455702 0.320277303 -0.314705759
v -0.637532353 0.304159403 -0.302390844
v -0.637398839 0.290755719 -0.295195401
v -0.637219191 0.307956517 -0.336506397
v -0.637595952 0.28815496 -0.31685701
v -0.63740468 0.27547878 -0.3109909
v -0.638082623 0.281984746 -0.331711471
v -0.63781935 0.270152956 -0.3274979
v -0.637441516 0.245293424 -0.289380103
v -0.638406277 0.262719929 -0.339958668
v -0.638447583 0.24722676 -0.328309983
v -0.637863398 0.239381209 -0.331910938
v -0.637556314 0.214052603 -0.292140186
v -0.638737559 0.228436708 -0.337312371
v -0.638153374 0.220591158 -0.340913296
v -0.637486398 0.199660823 -0.309628844
v -0.637434483 0.185724691 -0.30054903
v -0.637447774 0.171128213 -0.289977551
v -0.638133526 0.190729886 -0.346827507
v -0.637453377 0.170254126 -0.315893322
v -0.63773334 0.15262562 -0.298842192
v -0.637430847 0.141789779 -0.295852751
v -0.637456179 0.154917955 -0.331680238
v -0.637568593 0.139254078 -0.318566412
v -0.637488842 0.125885651 -0.310163826
v -0.63778919 0.13576591 -0.339503646
v -0.637966692 0.119436368 -0.324748784
v -0.637504637 0.11041189 -0.325539112
v -0.63744843 0.0968924612 -0.316567689
v -0.63836664 0.0996197909 -0.330865324
v -0.637790561 0.0918834955 -0.334416121
v -0.637389421 0.0695385337 -0.297540665
v -0.637155354 0.0582253188 -0.293020159
v -0.638076484 0.073355101 -0.34329313
v -0.637500405 0.0656187981 -0.346843928
v -0.63743788 0.0399184488 -0.301791012
v -0.637202561 0.0287068505 -0.297308624
v -0.638346493 0.0410195366 -0.342064083
v -0.637847304 0.0202568099 -0.307504684
v -0.637779832 0.00731016183 -0.298965633
v -0.6370067 0.00186162302 -0.307399929
v -0.636807084 -0.00959887356 -0.302100092
v -0.637114763 -0.000991568202 -0.330535412
v -0.637068629 -0.0141084744 -0.321437299
v -0.637049377 -0.0274151489 -0.311760455
v -0.63736552 -0.0189987607 -0.340105832
v -0.637570262 -0.0346562117 -0.32489571
v -0.636861563 -0.0522383042 -0.296176791
v -0.638419747 -0.0452913456 -0.330144465
v -0.637852073 -0.0529151261 -0.333643615
v -0.637284338 -0.0605389103 -0.337142766
v -0.636577904 -0.0779185221 -0.308328062
v -0.638133824 -0.0711740479 -0.342391521
v -0.637566149 -0.0787978247 -0.345890671
v -0.63685745 -0.0960346013 -0.317007512
v -0.636828721 -0.108842783 -0.307682931
v -0.636548758 -0.119121142 -0.304421514
v -0.638485491 -0.116569929 -0.328824639
v -0.636976779 -0.125630781 -0.319471687
v -0.636826932 -0.137146324 -0.313057423
v -0.636772811 -0.149510801 -0.30440551
v -0.636999905 -0.14124082 -0.334302008
v -0.636965752 -0.15384151 -0.325048298
v -0.637014687 -0.167145029 -0.313863903
v -0.637726784 -0.16360411 -0.332130194
v -0.637628853 -0.175516486 -0.324395001
v -0.637146771 -0.183756888 -0.325976878
v -0.637112796 -0.196147576 -0.31679517
v -0.637906611 -0.193514228 -0.333017766
v -0.637347043 -0.201028958 -0.336466849
v -0.636868656 -0.21907407 -0.302840054
v -0.638184369 -0.21151197 -0.341640532
v -0.6376248 -0.2190267 -0.345089614
v -0.637471497 -0.230237722 -0.338694572
v -0.636841416 -0.246614173 -0.308766365
v -0.636401653 -0.25506115 -0.309458286
v -0.638201475 -0.252266824 -0.336279929
v -0.637116194 -0.264421314 -0.317297816
v -0.636676252 -0.272855818 -0.317983776
v -0.637013495 -0.288045526 -0.300092518
v -0.63872093 -0.284704417 -0.328807086
v -0.637137175 -0.292270035 -0.322024673
v -0.637286603 -0.305742711 -0.308571309
v -0.636850953 -0.314111322 -0.309217185
v -0.637361467 -0.309614658 -0.331747562
v -0.637298226 -0.321211368 -0.323352814
v -0.637250125 -0.332862616 -0.31465444
v -0.637461185 -0.32590872 -0.344504803
v -0.637271047 -0.336402416 -0.339123785
v -0.637553632 -0.35079059 -0.322377622
v -0.637569427 -0.362846881 -0.312155366
v -0.637969613 -0.357698619 -0.337318867
v -0.638388515 -0.373101592 -0.317216367
v -0.63693583 -0.381300122 -0.307854235
v -0.636793435 -0.391882539 -0.301576883
v -0.638660252 -0.390707314 -0.325651318
v -0.638112843 -0.398058385 -0.329025298
v -0.637025595 -0.409091026 -0.310881227
v -0.637139678 -0.421604484 -0.2984761
v -0.636731923 -0.429942042 -0.298604399
v -0.63719672 -0.425826579 -0.321661681
v -0.636894286 -0.435035944 -0.319195807
v -0.63686651 -0.446333528 -0.310177267
v -0.637173295 -0.441068262 -0.337163985
v -0.636995792 -0.451238036 -0.331645191
v -0.636840105 -0.461522341 -0.325645179
v -0.636908472 -0.473445982 -0.314316779
v -0.637447357 -0.470135748 -0.335652202
v -0.637192547 -0.479622781 -0.332021356
v -0.637230039 -0.491252005 -0.321385056
v -0.637922943 -0.489179045 -0.339042425
v -0.637379527 -0.496476322 -0.342391729
v -0.637651205 -0.509782076 -0.326035738
v -0.63662076 -0.520417154 -0.307144761
v -0.638507128 -0.520255029 -0.32989347
v -0.637966633 -0.527513444 -0.333224952
v -0.636870742 -0.537593067 -0.315838277
v -0.636808515 -0.548190951 -0.307768911
v -0.637682796 -0.565307438 -0.277389526
v -0.637625515 -0.55834049 -0.312376201
v -0.637650132 -0.5694682 -0.302205503
v -0.637617767 -0.580125153 -0.293466538
v -0.637410641 -0.589514971 -0.288964093
v -0.637420833 -0.583240151 -0.322367013
v -0.637414217 -0.594058633 -0.312934101
v -0.637615621 -0.606215358 -0.29856959
v -0.637595356 -0.599856377 -0.332843661
v -0.637556493 -0.610413551 -0.324134171
v -0.637697041 -0.622101665 -0.311163545
v -0.637457848 -0.631190181 -0.307398349
v -0.637821913 -0.627610087 -0.332373083
v -0.638143599 -0.64042598 -0.314960003
v -0.637166858 -0.650466442 -0.295487672
v -0.638881028 -0.650006592 -0.321298212
v -0.638407588 -0.657531321 -0.323155224
v -0.637875736 -0.664673448 -0.326433331
v -0.63737613 -0.677587867 -0.295508444
v -0.637262404 -0.687257946 -0.288876593
v -0.638139725 -0.681778789 -0.334628522
v -0.637346208 -0.692734957 -0.310645133
v -0.637331963 -0.702997148 -0.301574856
v -0.637046516 -0.711540222 -0.29905203
v -0.636833429 -0.70497793 -0.337484598
v -0.637510359 -0.719432712 -0.311688721
v -0.637388229 -0.728938401 -0.305218369
v -0.637296498 -0.73857373 -0.29806608
v -0.637209892 -0.733025551 -0.333384871
v -0.637355983 -0.744112432 -0.32038191
v -0.637517035 -0.755202055 -0.307097256
v -0.637775183 -0.751811266 -0.334190816
v -0.637314916 -0.75929141 -0.335810602
v -0.637269735 -0.769149005 -0.327422827
v -0.637290895 -0.779323637 -0.317495137
v -0.637777388 -0.777406037 -0.339069128
v -0.638075292 -0.789144158 -0.32234183
v -0.637105286 -0.798202753 -0.303288311
v -0.636858582 -0.806716681 -0.299936593
v -0.638335526 -0.806004405 -0.33041966
v -0.637146771 -0.813785195 -0.316548944
v -0.637116969 -0.823459029 -0.307957888
v -0.636954725 -0.832365036 -0.302593201
v -0.638071477 -0.829904556 -0.341728598
v -0.637055576 -0.838502824 -0.323677599
v -0.637212515 -0.84907043 -0.310596764
v -0.636907399 -0.857157707 -0.308665365
v -0.637281418 -0.855106115 -0.332512707
v -0.637303114 -0.864913464 -0.322631329
v -0.637020946 -0.873107731 -0.320117891
v -0.637212992 -0.883662164 -0.30625701
v -0.637561202 -0.881636143 -0.330643237
v -0.637217224 -0.889498532 -0.329601139
v -0.637233377 -0.899119794 -0.319908768
v -0.637819231 -0.898358822 -0.338655114
v -0.637299299 -0.905341208 -0.341859847
v -0.637210488 -0.914413095 -0.334646285
v -0.6368469 -0.925535619 -0.301594257
v -0.637622952 -0.922379196 -0.348277777
v -0.637927175 -0.933273137 -0.331498653
v -0.637078404 -0.941955626 -0.310079515
v -0.637037516 -0.951041996 -0.301922768
v -0.638505399 -0.951400638 -0.331639111
v -0.637124062 -0.957529306 -0.323044688
v -0.637005091 -0.966229737 -0.316711605
v -0.636779428 -0.974409103 -0.312979519
v -0.636716783 -0.98327446 -0.305381835
v -0.636864841 -0.980995238 -0.334148198
v -0.63703382 -0.990893424 -0.320877194
v -0.637309432 -1.00117469 -0.305123866
v -0.637800753 -1.00049496 -0.325615823
v -0.63748163 -1.00820422 -0.324106187
v -0.637465179 -1.01716816 -0.315329134
v -0.637420475 -1.02595949 -0.307286292
v -0.637735665 -1.02466869 -0.331994385
v -0.637365043 -1.03212559 -0.331735492
v -0.637265086 -1.04312038 -0.292937726
v -0.637989759 -1.04113328 -0.339882612
v -0.637477875 -1.04800785 -0.343037903
v -0.63727957 -1.05846381 -0.306418329
v -0.637077987 -1.06646252 -0.302232862
v -0.637737393 -1.06449378 -0.35079366
v -0.637738466 -1.07335603 -0.341490299
v -0.636841357 -1.0808785 -0.321750432
v -0.63725692 -1.09115827 -0.302749068
v -0.637124598 -1.09931219 -0.296954155
v -0.636882126 -1.09641719 -0.334661216
v -0.636918783 -1.10523438 -0.324685574
v -0.637109876 -1.11455035 -0.311063409
v -0.637640297 -1.12499762 -0.289393097
v -0.636867166 -1.12044346 -0.339805633
v -0.636827707 -1.12890005 -0.331660002
v -0.637288511 -1.13903666 -0.311546385
v -0.637832999 -1.13923883 -0.330323786
v -0.630530715 -1.1394527 -0.328459054
v -0.622480035 -1.13728523 -0.343229443
v -0.619440317 -1.13871586 -0.343229443
v -0.611950338 -1.13845444 -0.344690651
v -0.604598999 -1.13862503 -0.343126237
v -0.59707576 -1.13831937 -0.344896972
v -0.593984425 -1.13962507 -0.345789284
v -0.586499095 -1.13946462 -0.346548557
v -0.582311213 -1.13853347 -0.34265703
v -0.574940979 -1.138677 -0.34128207
v -0.567455292 -1.13854325 -0.34184739
v -0.560088098 -1.13870597 -0.340337634
v -0.556816518 -1.13962281 -0.343966931
v -0.54928869 -1.13944232 -0.344865024
v -0.545125306 -1.13852954 -0.340829879
v -0.537654161 -1.13848543 -0.340766907
v -0.530214846 -1.13851953 -0.340156466
v -0.522839606 -1.13869071 -0.338586956
v -0.519445956 -1.13944471 -0.343372345
v -0.511980772 -1.13945866 -0.342904925
v -0.508015335 -1.13889134 -0.336438984
v -0.500348806 -1.13852084 -0.338658035
v -0.492962956 -1.13868928 -0.337106675
v -0.489552498 -1.1394875 -0.341592848
v -0.482159674 -1.13965905 -0.340019584
v -0.474752218 -1.13980544 -0.338623106
v -0.470433295 -1.13856244 -0.336873084
v -0.463025302 -1.13870883 -0.335476458
v -0.455086321 -1.13799214 -0.340110928
v -0.451823682 -1.1391151 -0.342347503
v -0.444061667 -1.13873136 -0.344663918
v -0.43664515 -1.1389035 -0.343085617
v -0.429228634 -1.13907564 -0.341507316
v -0.426156372 -1.14051521 -0.341541201
v -0.418652743 -1.14055979 -0.340858102
v -0.414392263 -1.13941514 -0.338384569
v -0.406885922 -1.13945949 -0.337700754
v -0.399467647 -1.13963175 -0.336122096
v -0.39637655 -1.14104688 -0.336329252
v -0.388378352 -1.14043283 -0.340270102
v -0.380568594 -1.14009821 -0.342248201
v -0.376594275 -1.13933086 -0.337108135
v -0.368689567 -1.13888586 -0.339848816
v -0.361252159 -1.13905847 -0.338266075
v -0.357528627 -1.13969076 -0.343993127
v -0.350080311 -1.13986361 -0.342408061
v -0.342632025 -1.14003658 -0.340822995
v -0.33832863 -1.13883495 -0.338705808
v -0.330881327 -1.13900781 -0.33712095
v -0.323386431 -1.13912475 -0.335927129
v -0.320253342 -1.1405158 -0.336343497
v -0.31268841 -1.14055574 -0.335691005
v -0.305097431 -1.1405704 -0.33521542
v -0.300825477 -1.13940036 -0.332871407
v -0.29262206 -1.1387434 -0.33708933
v -0.284675956 -1.13839078 -0.339178354
v -0.280545622 -1.13872516 -0.347031921
v -0.273061186 -1.13889885 -0.345439196
v -0.269081295 -1.13804507 -0.340839893
v -0.26118952 -1.13778865 -0.342253685
v -0.253705114 -1.13796246 -0.34066093
v -0.246779338 -1.14013922 -0.345848292
v -0.242677018 -1.13914549 -0.342208475
v -0.23515822 -1.13929129 -0.340811312
v -0.227397561 -1.13920164 -0.341063708
v -0.224005997 -1.14037979 -0.343039423
v -0.216385573 -1.14043689 -0.34226501
v -0.208595216 -1.14033675 -0.34259519
v -0.204734758 -1.13955462 -0.337461203
v -0.1971163 -1.13961565 -0.336656779
v -0.18919 -1.13939798 -0.337804824
v -0.185229495 -1.14008236 -0.343259305
v -0.177715614 -1.14025664 -0.341660291
v -0.17331107 -1.13896775 -0.340061277
v -0.165797189 -1.13914216 -0.338462263
v -0.158283308 -1.13931656 -0.33686322
v -0.150769427 -1.13949096 -0.335264206
v -0.147250697 -1.1406045 -0.337718874
v -0.139732093 -1.14077902 -0.336118847
v -0.135324761 -1.13948929 -0.33451882
v -0.127376989 -1.13930714 -0.335414261
v -0.119489148 -1.13918233 -0.335907847
v -0.111781955 -1.13921106 -0.335327268
v -0.108555995 -1.14058852 -0.335950673
v -0.100860715 -1.14063203 -0.335269094
v -0.0965978801 -1.13946116 -0.332818449
v -0.0884970799 -1.13918805 -0.334347993
v -0.0800044835 -1.13862014 -0.337938607
v -0.0718665645 -1.13834095 -0.339510232
v -0.0681963265 -1.13939595 -0.342426211
v -0.0606376976 -1.13957131 -0.34081769
v -0.0562069081 -1.13827479 -0.339209139
v -0.0486482829 -1.13845015 -0.337600589
v -0.0411150865 -1.14045548 -0.34419778
v -0.0366768166 -1.1391567 -0.342586517
v -0.0291054212 -1.13933241 -0.340975255
v -0.0215340257 -1.13950813 -0.339364022
v -0.0139626311 -1.13968384 -0.337752759
v -0.0107958689 -1.14113462 -0.337919503
v -0.00306656235 -1.14120018 -0.337081671
v 0.00118015846 -1.14003527 -0.334530234
v 0.00875155348 -1.14021099 -0.332918972
v 0.0168946758 -1.13999617 -0.334043056
v 0.0256653745 -1.13936412 -0.338088214
v 0.0296189375 -1.14029479 -0.341929168
v 0.0377131291 -1.14013875 -0.342646092
v 0.0416662954 -1.13916826 -0.338696539
v 0.0497676767 -1.1390115 -0.339411557
v 0.0574839599 -1.13911188 -0.338326216
v 0.0609071814 -1.14041209 -0.339589775
v 0.0685103685 -1.14058852 -0.337971777
v 0.0761135519 -1.14076495 -0.336353749
v 0.0805704594 -1.1394608 -0.334735721
v 0.0881736428 -1.13963723 -0.333117694
v 0.0957768261 -1.13981366 -0.331499666
v 0.100137956 -1.14054203 -0.336777389
v 0.10881637 -1.14006507 -0.33974281
v 0.117941283 -1.13932753 -0.34453395
v 0.120555848 -1.13914752 -0.335007757
v 0.129474714 -1.13854241 -0.338855565
v 0.137775108 -1.13831949 -0.340028703
v 0.141292512 -1.13959432 -0.341516376
v 0.149003834 -1.1397289 -0.340190858
v 0.153314263 -1.13851678 -0.33787778
v 0.16104728 -1.13863862 -0.336639732
v 0.169141829 -1.13855278 -0.336853951
v 0.176916406 -1.13865435 -0.335757464
v 0.182365194 -1.13884187 -0.344874859
v 0.190026239 -1.13901973 -0.343244523
v 0.197687283 -1.13919747 -0.341614187
v 0.201249972 -1.14047098 -0.343149245
v 0.209586769 -1.14027727 -0.344128519
v 0.217255935 -1.14045525 -0.342496455
v 0.220711574 -1.1397084 -0.336880773
v 0.229058906 -1.13951397 -0.337857336
v 0.237089872 -1.13949573 -0.337600261
v 0.240263462 -1.1409893 -0.337600261
v 0.249342218 -1.14041841 -0.341226071
v 0.257436395 -1.14037812 -0.34112668
v 0.261523366 -1.13927937 -0.337957531
v 0.269622326 -1.1392386 -0.337856859
v 0.277977079 -1.13906837 -0.338661224
v 0.281464398 -1.14040768 -0.339769036
v 0.289153904 -1.14058614 -0.33813265
v 0.293477625 -1.1393609 -0.335839421
v 0.301350892 -1.13944554 -0.334859848
v 0.309040397 -1.139624 -0.333223462
v 0.316729903 -1.13980246 -0.331587076
v 0.322244465 -1.14014089 -0.339718789
v 0.330639631 -1.13997948 -0.340465754
v 0.334321439 -1.13906956 -0.335938036
v 0.342172414 -1.13917673 -0.334799379
v 0.350579768 -1.13901472 -0.335543334
v 0.358454198 -1.1391145 -0.334456265
v 0.362031609 -1.14043093 -0.335755795
v 0.37018472 -1.14040077 -0.335581005
v 0.37426734 -1.13928676 -0.332472622
v 0.382612675 -1.13916755 -0.33291626
v 0.393238306 -1.14019334 -0.346835941
v 0.396582663 -1.13942277 -0.341275901
v 0.404820234 -1.13937068 -0.341252536
v 0.413275748 -1.13922143 -0.341910154
v 0.421415597 -1.13922095 -0.341525108
v 0.42482838 -1.14063585 -0.34218514
v 0.432577789 -1.14081573 -0.340535998
v 0.436922431 -1.13957584 -0.338260978
v 0.444670618 -1.13975561 -0.336612076
v 0.452418804 -1.13993549 -0.334963202
v 0.460368663 -1.14002609 -0.333939433
v 0.465555757 -1.1406635 -0.340061039
v 0.473317325 -1.14084363 -0.338409334
v 0.477867097 -1.1395123 -0.3367576
v 0.486146659 -1.1394676 -0.336680114
v 0.493911356 -1.13964772 -0.335027695
v 0.502242625 -1.13958514 -0.335075051
v 0.507516384 -1.14021993 -0.341238171
v 0.515296757 -1.14040053 -0.339582443
v 0.519659221 -1.13914979 -0.337339282
v 0.527637839 -1.13924646 -0.336271018
v 0.536565244 -1.13894749 -0.337970614
v 0.540224671 -1.14028227 -0.339246213
v 0.549792111 -1.13972807 -0.34274444
v 0.558408558 -1.13957357 -0.343438178
v 0.561814368 -1.13871479 -0.338420331
v 0.570399284 -1.1385746 -0.33900699
v 0.578519881 -1.13862669 -0.338249087
v 0.582429528 -1.13987195 -0.34017393
v 0.590738177 -1.1398524 -0.33992058
v 0.599138677 -1.13979852 -0.339906991
v 0.602801144 -1.13882387 -0.335686803
v 0.611661911 -1.13858855 -0.33693707
v 0.620395899 -1.13840806 -0.337804049
v 0.622154117 -1.13817835 -0.328390718
v 0.631189525 -1.14021456 -0.335424036
v 0.631929398 -1.14036918 -0.323306382
v 0.630282938 -1.13912845 -0.2995224
v 0.633302927 -1.13607895 -0.288508505
v 0.631705701 -1.13162863 -0.287593424
v 0.632164478 -1.12405097 -0.286974609
v 0.630651653 -1.11955965 -0.286290497
v 0.630643308 -1.11215758 -0.284411937
v 0.632653594 -1.10391343 -0.287970155
v 0.630780518 -1.09955537 -0.286322743
v 0.630282223 -1.09233737 -0.283119559
v 0.631752014 -1.08427572 -0.285218
v 0.630148411 -1.07979381 -0.284301966
v 0.630440712 -1.07221746 -0.283226252
v 0.633585632 -1.06857514 -0.286422521
v 0.630060792 -1.05972421 -0.283747971
v 0.631336927 -1.05167711 -0.285319477
v 0.634246588 -1.04810989 -0.287867993
v 0.629546165 -1.03977013 -0.282041669
v 0.631820738 -1.03648126 -0.282879919
v 0.627573729 -1.02793705 -0.2782754
v 0.627508521 -1.02046931 -0.276229113
v 0.629894257 -1.01711297 -0.277362943
v 0.62798816 -1.00743604 -0.279075742
v 0.631719887 -1.00341308 -0.283824593
v 0.633386374 -0.995058417 -0.286429763
v 0.629593849 -0.986245513 -0.283086866
v 0.63460952 -0.981540442 -0.291275024
v 0.634522974 -0.974007726 -0.289154142
v 0.632621288 -0.969588578 -0.287477881
v 0.632077336 -0.962284267 -0.284125328
v 0.63017565 -0.957865119 -0.282449067
v 0.629631698 -0.950560808 -0.279096544
v 0.629087806 -0.943256497 -0.275744021
v 0.62718606 -0.938837349 -0.27406776
v 0.630425155 -0.929500997 -0.280903786
v 0.628188908 -0.925248325 -0.278334886
v 0.629431009 -0.916949928 -0.279789865
v 0.630370438 -0.908799291 -0.280425072
v 0.628086567 -0.904566586 -0.277735174
v 0.630905211 -0.89534235 -0.283433288
v 0.628130853 -0.891378522 -0.279427439
v 0.629927874 -0.882692218 -0.282372475
v 0.62937963 -0.875330389 -0.278993547
v 0.628016055 -0.870555997 -0.278795362
v 0.628151417 -0.862791419 -0.277257919
v 0.628810942 -0.854710102 -0.277130604
v 0.626815975 -0.8502931 -0.275235981
v 0.629267812 -0.841119945 -0.279938281
v 0.63252151 -0.8370713 -0.283301592
v 0.6300776 -0.827260137 -0.283703953
v 0.630776286 -0.819085538 -0.283673227
v 0.627904654 -0.815182626 -0.279432625
v 0.628654361 -0.806962788 -0.2795403
v 0.630619049 -0.803667426 -0.279416919
v 0.62675637 -0.794691503 -0.276012182
v 0.628415167 -0.785861492 -0.278567463
v 0.632248819 -0.781357169 -0.283463806
v 0.627972245 -0.772611976 -0.278965861
v 0.630148172 -0.769158185 -0.279393286
v 0.631567001 -0.760421515 -0.281287104
v 0.630062938 -0.757344842 -0.266390949
v 0.634761274 -0.755970001 -0.264685273
v 0.631048799 -0.746871948 -0.261696309
v 0.6316728 -0.738649666 -0.261437148
v 0.633419752 -0.735466659 -0.260703266
v 0.630793154 -0.725614429 -0.260630816
v 0.632536888 -0.722427964 -0.25988251
v 0.632870138 -0.714368701 -0.258837253
v 0.630978405 -0.703966737 -0.260744691
v 0.632366002 -0.701018214 -0.259031624
v 0.630736947 -0.694306612 -0.252736777
v 0.632180214 -0.695217848 -0.242312148
v 0.631074131 -0.688165367 -0.237427488
v 0.631654978 -0.679919183 -0.237031952
v 0.633140326 -0.676906168 -0.235592782
v 0.630471587 -0.667026043 -0.235390976
v 0.631455481 -0.658456624 -0.236063749
v 0.63386476 -0.654765904 -0.237068012
v 0.629977584 -0.645732939 -0.233641639
v 0.631365299 -0.642784238 -0.231928453
v 0.633211792 -0.633534491 -0.234882593
v 0.63079536 -0.623376608 -0.235381082
v 0.632239044 -0.62038058 -0.233802006
v 0.633454084 -0.611551285 -0.23507303
v 0.632281244 -0.606423259 -0.235422432
v 0.632636726 -0.598222494 -0.234408319
v 0.630683064 -0.593682587 -0.232686251
v 0.632723272 -0.584157825 -0.236149326
v 0.632461727 -0.576406658 -0.233491257
v 0.631633282 -0.570968509 -0.234767824
v 0.295754731 -0.827501535 0.648706615
v 0.298871845 -0.826857746 0.651458204
v 0.30520457 -0.826920927 0.652511179
v 0.313790828 -0.829561293 0.635153949
v 0.317473978 -0.828146815 0.621247888
v 0.315734923 -0.838880479 0.631156504
v 0.314655572 -0.841173947 0.629823983
v 0.313708991 -0.8512187 0.63761735
v 0.314139813 -0.857004404 0.634961843
v 0.313064307 -0.859289706 0.63363409
v 0.316076994 -0.86629045 0.630978584
v 0.315001488 -0.868575752 0.629650831
v 0.316208929 -0.876904666 0.631749809
v 0.316938668 -0.877861857 0.625667572
v 0.314459234 -0.888850629 0.637471139
v 0.314132899 -0.895152032 0.636817455
v 0.315434307 -0.89877373 0.636014283
v 0.315862685 -0.904526055 0.633374095
v 0.316767752 -0.908425272 0.633612871
v 0.317260057 -0.914129555 0.630805135
v 0.316027254 -0.919512451 0.636664152
v 0.315895379 -0.92563498 0.635502338
v 0.31733948 -0.929136634 0.63431412
v 0.316693574 -0.935601592 0.634504497
v 0.317541867 -0.939502716 0.634879231
v 0.31727764 -0.945691288 0.634067416
v 0.315798432 -0.952684045 0.63645345
v 0.31728515 -0.956138849 0.635142982
v 0.324076504 -0.955863595 0.634798765
v 0.327688277 -0.954806685 0.636109948
v 0.334142953 -0.954757512 0.636662364
v 0.340598553 -0.954709947 0.637221336
v 0.346648961 -0.956497669 0.634792328
v 0.350265592 -0.955439329 0.636105299
v 0.356435329 -0.955582559 0.63741827
v 0.36308682 -0.955418169 0.637516081
v 0.366334528 -0.956179082 0.63577044
v 0.373067766 -0.95596993 0.635690212
v 0.376824349 -0.956048787 0.646986067
v 0.377886325 -0.953792214 0.648297071
v 0.377309352 -0.950992882 0.657603502
v 0.378508449 -0.944254756 0.656203747
v 0.377022445 -0.94080162 0.657513559
v 0.377599508 -0.934444249 0.657653868
v 0.376725674 -0.930588126 0.657445788
v 0.378161073 -0.92364943 0.655463219
v 0.377843529 -0.917852938 0.657821715
v 0.376599997 -0.914224684 0.658524096
v 0.378967822 -0.906622708 0.654238641
v 0.377489895 -0.903138936 0.655515015
v 0.377116412 -0.897362292 0.658016086
v 0.374780506 -0.889967322 0.659031689
v 0.379632413 -0.885090768 0.650981367
v 0.376657307 -0.87810117 0.653563499
v 0.379340857 -0.874699473 0.650892913
v 0.376149803 -0.867849529 0.654003978
v 0.377504587 -0.865371108 0.654628515
v 0.374499857 -0.858388841 0.657276988
v 0.37583825 -0.851345181 0.655541122
v 0.374627441 -0.847636104 0.656138182
v 0.376123607 -0.840450585 0.654012501
v 0.37708056 -0.835140765 0.649223268
v 0.376498491 -0.829449356 0.652258575
v 0.374973953 -0.827593803 0.664030373
v 0.373720676 -0.8301543 0.677461147
v 0.377730519 -0.827332675 0.68182528
v 0.378655225 -0.823687196 0.687440217
v 0.375835091 -0.819724262 0.695928514
v 0.376901776 -0.817457736 0.697245359
v 0.377998173 -0.813703179 0.70240438
v 0.37331298 -0.811189115 0.715400457
v 0.375237554 -0.806827486 0.71850574
v 0.374812275 -0.801116109 0.721127152
v 0.376935661 -0.796604156 0.723748565
v 0.379059047 -0.792092264 0.726369977
v 0.378142267 -0.786761045 0.730176568
v 0.379203498 -0.784506023 0.731486738
v 0.381218463 -0.780079603 0.734365344
v 0.375066191 -0.778851867 0.750732183
v 0.376970351 -0.774527252 0.753837109
v 0.376028001 -0.772444308 0.763734579
v 0.374456823 -0.769093096 0.765264571
v 0.376383364 -0.764760554 0.76829201
v 0.378501236 -0.760276556 0.77086252
v 0.376783609 -0.755650759 0.776539505
v 0.378886968 -0.751181364 0.77913624
v 0.37768805 -0.746152461 0.783573568
v 0.378739029 -0.743919253 0.784871042
v 0.380833745 -0.73945874 0.787483156
v 0.376508921 -0.736994505 0.799275577
v 0.379359037 -0.731924176 0.80008775
v 0.381847858 -0.727147281 0.801756084
v 0.391182393 -0.723257065 0.799217701
v 0.391062677 -0.721984088 0.803233922
v 0.392690033 -0.71791178 0.806917787
v 0.391466111 -0.712933242 0.811369538
v 0.391316295 -0.707069099 0.813332558
v 0.392898619 -0.704396367 0.813393056
v 0.431430429 -0.669501245 0.7319839
v 0.431235462 -0.663485706 0.734104455
v 0.383928746 -0.695337713 0.835258782
v 0.378444672 -0.695366442 0.845850229
v 0.38012743 -0.691286743 0.849331319
v 0.383176684 -0.686039686 0.84966445
v 0.389968216 -0.6842103 0.852877498
v 0.390846312 -0.682138741 0.854530215
v 0.392925739 -0.677720249 0.857097328
v 0.391837895 -0.672704816 0.861190856
v 0.391421646 -0.667114854 0.863756537
v 0.393294543 -0.664184332 0.863147378
v 0.390766382 -0.657079339 0.864840686
v 0.375502795 -0.665820837 0.897526324
v 0.374125004 -0.661143422 0.902260363
v 0.376127809 -0.656823695 0.904913962
v 0.378182203 -0.65245831 0.907450199
v 0.377047479 -0.64757812 0.911620617
v 0.378136247 -0.645341158 0.912747562
v 0.379754037 -0.641368449 0.916262329
v 0.374216646 -0.640466034 0.930324733
v 0.428401232 -0.597352564 0.823658466
v 0.429150492 -0.594070435 0.82935816
v 0.430855274 -0.589933634 0.832915723
v 0.429367781 -0.586477041 0.834226847
v 0.428594112 -0.582372069 0.833947778
v 0.379444093 -0.62115556 0.945052326
v 0.377438664 -0.618362784 0.947595835
v 0.379478604 -0.614028215 0.95011425
v 0.376258761 -0.611139715 0.958875537
v 0.377393603 -0.607649386 0.963381708
v 0.379133701 -0.60360086 0.966540217
v 0.377336532 -0.600640714 0.968620658
v 0.379227221 -0.59645462 0.971441984
v 0.380437493 -0.592906237 0.975757539
v 0.378232747 -0.589136899 0.982215047
v 0.379201114 -0.585827887 0.987039208
v 0.377586544 -0.581525505 0.992187321
v 0.379197061 -0.577618122 0.995588005
v 0.380013764 -0.572194517 0.991955578
v 0.379674315 -0.566679001 0.994312584
v 0.378160059 -0.563471854 0.995770872
v 0.377754122 -0.558020294 0.998273015
v 0.377442867 -0.552476585 1.00056839
v 0.372647941 -0.550117135 1.00041294
v 0.368789583 -0.551529765 1.00006735
v 0.362516761 -0.551783144 0.999690652
v 0.357563645 -0.54958427 0.999891222
v 0.366005808 -0.536461413 0.979223669
v 0.363342434 -0.533224642 0.986753047
v 0.356467694 -0.532917142 0.991170704
v 0.349942952 -0.533409238 0.991307378
v 0.343863398 -0.533454597 0.990455568
v 0.341422081 -0.532305658 0.990455568
v 0.336168647 -0.531504989 0.987730742
v 0.333406568 -0.531798899 0.984881401
v 0.332151592 -0.526847839 0.972949564
v 0.329283863 -0.532042742 0.972319007
v 0.345257908 -0.512926519 0.926142514
v 0.339466035 -0.512539566 0.924308181
v 0.333435565 -0.512399614 0.923024833
v 0.304612279 -0.536242425 0.975304663
v 0.302287847 -0.533876419 0.978673875
v 0.297503203 -0.534128428 0.987837493
v 0.290846437 -0.533742905 0.992059588
v 0.286917597 -0.53526932 0.991958678
v 0.282313645 -0.532704949 0.99134624
v 0.276194572 -0.532833278 0.990682006
v 0.27184248 -0.531039894 0.985762537
v 0.268394679 -0.532048821 0.984510899
v 0.26673612 -0.527275085 0.972972631
v 0.284304291 -0.506205857 0.916478336
v 0.280611426 -0.507415593 0.915587306
v 0.27206701 -0.510066628 0.920529366
v 0.272021949 -0.5061782 0.914474547
v 0.240797311 -0.534228384 0.976025224
v 0.234147206 -0.531923413 0.988044262
v 0.228389069 -0.535554767 0.992618501
v 0.222054034 -0.53597182 0.992599845
v 0.219634771 -0.534833312 0.992599845
v 0.213464081 -0.535070002 0.992181182
v 0.208780378 -0.533593774 0.987964809
v 0.206538588 -0.529264569 0.977417648
v 0.204108581 -0.528120995 0.977417648
v 0.203603417 -0.53065455 0.970981479
v 0.215070426 -0.510206342 0.924491286
v 0.211562917 -0.511232793 0.923217952
v 0.204618379 -0.512228787 0.924476624
v 0.198640525 -0.512090027 0.923204482
v 0.171242416 -0.535689831 0.986962497
v 0.172485799 -0.533267617 0.9875741
v 0.167654172 -0.53099376 0.9875741
v 0.631086826 0.0430273898 -0.257438689
v 0.628995359 0.0478875302 -0.255595148
v 0.223620936 -0.445666403 0.838435829
v 0.224513337 -0.442654043 0.844375968
v 0.230392635 -0.437873572 0.843859255
v 0.229323491 -0.438222289 0.850822806
v 0.227405801 -0.442971319 0.870810032
v 0.225654945 -0.443208665 0.883556128
v 0.226560861 -0.444480389 0.895886421
v 0.225425392 -0.443976909 0.906887829
v 0.228306741 -0.443763405 0.909936786
v 0.234837219 -0.438152403 0.907560408
v 0.243898228 -0.436609775 0.893241584
v 0.243442431 -0.4413957 0.900879383
v 0.248503566 -0.443746507 0.900831938
v 0.248577148 -0.445903748 0.914947629
v 0.249513015 -0.442842454 0.920448601
v 0.250611961 -0.439589977 0.925521553
v 0.252015382 -0.435975671 0.929815292
v 0.251597613 -0.430365235 0.932390332
v 0.251611918 -0.424231142 0.93388176
v 0.250150591 -0.420835406 0.935169816
v 0.250267565 -0.414568603 0.93640393
v 0.24992615 -0.409795374 0.934878588
v 0.25048542 -0.403900802 0.931084454
v 0.248063341 -0.398302823 0.92450583
v 0.244615272 -0.394864887 0.916497767
v 0.236893445 -0.402013808 0.921798289
v 0.230948985 -0.406038076 0.926600218
v 0.226758108 -0.401716501 0.928438187
v 0.220670894 -0.40159601 0.92718786
v 0.219405621 -0.39882347 0.923949242
v 0.213032871 -0.399059951 0.9234249
v 0.207248643 -0.398541331 0.921362102
v 0.198016658 -0.407788277 0.931001186
v 0.193296835 -0.409486562 0.936879218
v 0.629959643 0.172574803 -0.228795931
v 0.627854407 0.177466929 -0.226940259
v 0.311925501 -0.240793154 0.630029321
v 0.312551141 -0.239025533 0.632891595
v 0.314879686 -0.234077647 0.635766268
v 0.311969042 -0.23104091 0.645073712
v 0.313994616 -0.226497561 0.648723602
v 0.315363795 -0.222823918 0.654085636
v 0.314404845 -0.217238367 0.658242464
v 0.313940197 -0.210998654 0.661106348
v 0.315100104 -0.208534017 0.66253829
v 0.314108193 -0.203002259 0.666776896
v 0.313717663 -0.196665868 0.669446945
v 0.310934335 -0.195355996 0.669446945
v 0.312025905 -0.182775512 0.656463981
v 0.311454237 -0.17236869 0.647755206
v 0.300753087 -0.181061283 0.673064291
v 0.298125356 -0.17435883 0.665282845
v 0.631375194 0.303020239 -0.230113268
v 0.631124556 0.310616374 -0.233235747
v 0.626776934 0.319345355 -0.235213012
v 0.630982041 0.340293109 -0.2601192
v 0.251725078 -0.193465918 0.756979108
v 0.252854526 -0.191065997 0.758373439
v 0.251726091 -0.185962677 0.762967288
v 0.251682907 -0.180068269 0.76025027
v 0.255142421 -0.168311745 0.752588928
v 0.253553331 -0.164619118 0.753989637
v 0.634199619 0.398980588 -0.261830986
v 0.627605438 0.405703098 -0.251949668
v 0.635394812 0.418195575 -0.266747057
v 0.63477391 0.42653361 -0.262920082
v 0.632603049 0.431578189 -0.261006564
v 0.631982148 0.439916223 -0.257179588
v 0.627640426 0.450005382 -0.253352582
v 0.629616022 0.453939795 -0.252577513
v 0.634664297 0.470855385 -0.263905972
v 0.629965663 0.472097486 -0.255244434
v 0.631860614 0.48429513 -0.258140981
v 0.629680455 0.489361256 -0.256219298
v 0.632149935 0.502489805 -0.260652423
v 0.633328557 0.513665915 -0.261623949
v 0.631060541 0.518624783 -0.259480447
v 0.630515277 0.527151763 -0.255839169
v 0.628327668 0.532235265 -0.253910929
v 0.630127132 0.544442236 -0.256545871
v 0.632352054 0.55735147 -0.260311693
v 0.630156338 0.562453747 -0.2583763
v 0.631523192 0.574055076 -0.259844691
v 0.633415103 0.592678785 -0.285215348
v 0.632397115 0.599740565 -0.286483973
v 0.63299942 0.610240698 -0.285905749
v 0.634430826 0.622099042 -0.287554234
v 0.632210553 0.62725848 -0.285597146
v 0.633179963 0.638403535 -0.286001623
v 0.631329477 0.644178331 -0.285045475
v 0.634340882 0.658714116 -0.290947795
v 0.632114291 0.663897991 -0.288989693
v 0.631743968 0.672902226 -0.285779893
v 0.631106317 0.681465387 -0.281849593
v 0.628876805 0.686646163 -0.279884428
v 0.632554412 0.702444077 -0.28757897
v 0.629663825 0.706539273 -0.28384316
v 0.629962981 0.716709971 -0.28243205
v 0.629323244 0.725300729 -0.278489053
v 0.627229571 0.73074162 -0.276903093
v 0.631400228 0.747556508 -0.285923481
v 0.630772889 0.756202161 -0.282006055
v 0.628528416 0.761417747 -0.280027688
v 0.630315423 0.765784025 -0.272260189
v 0.631262422 0.768699229 -0.262267411
v 0.631776929 0.779297113 -0.261412442
v 0.634381175 0.784435749 -0.262122363
v 0.630562901 0.796017408 -0.25995332
v 0.632074833 0.808404207 -0.261763364
v 0.634369195 0.8130216 -0.261628002
v 0.629873991 0.823467374 -0.257665753
v 0.63501066 0.833110392 -0.265127599
v 0.63050437 0.843581915 -0.261155576
v 0.629859924 0.852236032 -0.257183522
v 0.631565154 0.855826557 -0.255455464
v 0.627557099 0.867195189 -0.252818823
v 0.631243706 0.874350369 -0.256387532
v 0.636408806 0.893510103 -0.267940044
v 0.629189849 0.899160266 -0.256749928
v 0.634050608 0.908494771 -0.263435036
v 0.633402109 0.917203665 -0.259437829
v 0.631134689 0.922472596 -0.257439226
v 0.630486131 0.93118149 -0.253442019
v 0.62821877 0.936450422 -0.251443416
v 0.628737509 0.947321832 -0.250568897
v 0.632074594 0.963450253 -0.257225692
v 0.63010478 0.969308853 -0.256038219
v 0.631638229 0.982142985 -0.257868797
v 0.629358649 0.987440169 -0.255859464
v 0.63146168 1.00139427 -0.259213746
v 0.632389903 1.01316178 -0.259416968
v 0.630944192 1.02007318 -0.259652644
v 0.632396758 1.04155242 -0.284677088
v 0.631285489 1.04919207 -0.285858691
v 0.633553386 1.06368649 -0.289679706
v 0.631128192 1.06882918 -0.287332028
v 0.630961418 1.07865739 -0.284591407
v 0.630300701 1.08753002 -0.280519038
v 0.629660845 1.09616435 -0.282985955
v 0.631511986 1.10997891 -0.285679132
v 0.633169115 1.11349964 -0.283644885
v 0.630378604 1.12791097 -0.284529567
v 0.631547272 1.1404562 -0.285376281
v 0.634425819 1.14640093 -0.286610454
v 0.623363495 1.1437614 -0.284776807
v 0.615293682 1.14728975 -0.284481019
v 0.605200529 1.13664782 -0.274335563
v 0.601424336 1.14883697 -0.285784155
v 0.590743721 1.14688277 -0.284880966
v 0.584713697 1.14441895 -0.285819978
v 0.576553762 1.14772797 -0.285233855
v 0.570442975 1.14500225 -0.292636752
v 0.569893777 1.14369941 -0.304552794
v 0.561274767 1.14604282 -0.309493959
v 0.550388992 1.14364386 -0.307966977
v 0.546988249 1.14675534 -0.309652001
v 0.53514272 1.1422745 -0.305284917
v 0.525971651 1.14345956 -0.308644593
v 0.521989644 1.14533353 -0.308644593
v 0.513552308 1.14805543 -0.307246983
v 0.18724069 0.456436276 0.638639092
v 0.189747602 0.461763144 0.641734004
v 0.185487553 0.46035251 0.650705278
v 0.187339619 0.464244366 0.655707717
v 0.187841073 0.473170042 0.655834913
v 0.187894821 0.48122713 0.652042568
v 0.190576881 0.495023191 0.645730793
v 0.187520072 0.50424242 0.647459149
v 0.185758621 0.50833559 0.649011791
v 0.185321882 0.515407383 0.646631479
v 0.186449438 0.534148455 0.635885179
v 0.18344897 0.527176201 0.650120914
v 0.187504932 0.527749717 0.65762341
v 0.189757362 0.53250134 0.661504149
v 0.187358111 0.534976065 0.670179844
v 0.188024268 0.544383943 0.669845521
v 0.186671808 0.549403489 0.670198083
v 0.187589675 0.559418917 0.669124126
v 0.189795852 0.56426096 0.667899668
v 0.189502031 0.571524858 0.670392513
v 0.185971126 0.579729855 0.673504829
v 0.188638553 0.585661173 0.67093271
v 0.190022141 0.596835077 0.668508947
v 0.187843636 0.600003242 0.671265781
v 0.187920153 0.608166099 0.672676504
v 0.186395198 0.612861574 0.673513174
v 0.187561274 0.623604536 0.671724379
v 0.189525947 0.63626039 0.667597175
v 0.187746361 0.640395701 0.66916579
v 0.187853366 0.648695588 0.670493782
v 0.185756996 0.652080178 0.672991693
v 0.185563371 0.659672916 0.675202549
v 0.185054064 0.66651237 0.678341746
v 0.186154887 0.677233577 0.676753938
v 0.185290188 0.683601558 0.675624907
v 0.186494336 0.694621503 0.673734486
v 0.190305993 0.703487337 0.667877793
v 0.185223997 0.708163083 0.675436854
v 0.186207205 0.718706906 0.674199462
v 0.187780887 0.722146928 0.674919069
v 0.184193864 0.73048234 0.678080797
v 0.185763508 0.733917236 0.678813219
v 0.18789956 0.747371852 0.674205482
v 0.186617389 0.752836764 0.674273551
v 0.187886998 0.764201283 0.672208846
v 0.188606501 0.774218619 0.671763957
v 0.187305316 0.779680133 0.671874404
v 0.181107968 0.782580137 0.671890736
v 0.188998789 0.810866117 0.650237918
v 0.187429786 0.815743506 0.651096106
v 0.188415155 0.826594174 0.6498546
v 0.188581541 0.835369587 0.651038051
v 0.186898783 0.839982867 0.652223229
v 0.187099025 0.848864853 0.653306544
v 0.187326387 0.857829332 0.654312074
v 0.18598406 0.863346398 0.654483616
v 0.187021211 0.874447286 0.653095007
v 0.183836579 0.875813961 0.653221846
v 0.175971583 0.875270307 0.652422071
v 0.168035448 0.874526024 0.651850581
v 0.161613762 0.87710011 0.652282298
v 0.158988565 0.88992393 0.641116619
v 0.150453776 0.877575219 0.652002573
v 0.142233834 0.876008868 0.652363181
v 0.134035364 0.874473155 0.652690947
v 0.127117217 0.865472674 0.664559722
v 0.126405492 0.871936083 0.668368161
v 0.122764587 0.880396664 0.671577454
v 0.124411061 0.884127975 0.672094405
v 0.125306487 0.895096064 0.670864105
v 0.123482555 0.899334431 0.672471821
v 0.125634864 0.904494107 0.671415687
v -0.266221344 0.917514622 0.0522133857
v -0.255738735 0.926907599 0.0411317274
v -0.255985349 0.896476984 0.0656710863
v -0.254976749 0.905185461 0.0478980578
v -0.257019997 0.903217375 0.038499888
v -0.256432116 0.895322442 0.0348762609
v -0.209933087 1.1421634 -0.305704504
v -0.217637762 1.14587927 -0.305816323
v -0.228575885 1.13809872 -0.296900094
v -0.275474936 0.943868041 -0.0275300033
v -0.28901276 0.910169423 0.0289336871
v -0.284659445 0.90837127 0.0351683274
v -0.276537865 0.906221807 0.0396255329
v -0.270084918 0.910796881 0.0432461426
v -0.268589705 0.914054751 0.0448648557
v -0.267686278 0.914401889 0.0504048988
v -0.258316785 0.928053141 0.167643502
v -0.25611791 0.902406037 0.196708411
v -0.256824642 0.906621814 0.179863289
v -0.255223513 0.900091231 0.180569112
v -0.255782694 0.905012786 0.162687764
v -0.258644015 0.898932874 0.159155369
v -0.258070916 0.891236663 0.155622974
v -0.249758795 0.953437746 0.0698855445
v -0.258262396 0.953635097 0.0680759028
v -0.264785379 0.959508419 0.0646983534
v -0.268288195 0.972114861 0.064310059
v -0.269873738 0.979283452 0.0629964694
v -0.271183193 0.98788476 0.0598252676
v -0.281738311 0.925652742 0.152648151
v -0.272200346 0.927407682 0.157621384
v -0.267322987 0.928834915 0.159392059
v -0.262695283 0.929039001 0.162748814
g path_000000
l 45 44 43 42 41 40 39 38 37 36 35 34 33 32 31 30 29 28 27 26 25 24 23 22 21 20 19 18 17 16 15 14 13 12 11 10 9 8 7 6 5 4 3 2 1 1194 1193 1192 1191 1190 1189 1188 1187 1186 1185 1184 1183 1182 1181 1180 1179 1178 1177 1176 1175 1174 1173 1172 1171
g path_000001
l 46 47 48 49 50 51 52 53 54 55 56 57 58 59 60 61 62
g path_000002
l 63 64 65 66 67 68
g path_000003
l 70 71 72 73 74 75 76
g path_000004
l 77 78 79 80 81 82
g path_000005
l 85 86 87 88 89 90 91 92 93 94 95 96 97 98 99 100
g path_000006
l 101 102 103 104 105 106 107
g path_000007
l 108 109 110 111 112 113 114 115
g path_000008
l 116 117 118 119 120 121 122 123 124 125 126 127 128 129 130 131
g path_000009
l 132 133 134 135 136 137 138 139 140 141 142 143 144 145 146 147 148 149 150 151 152 153 154 155 156 157 158 159 160 161 162 163 164 165 166 167 168
g path_000010
l 169 170 171 172 173 174 175 176 177 178 179 180
g path_000011
l 181 182
g path_000012
l 184 185
g path_000013
l 186 187
g path_000014
l 189 190 191
g path_000015
l 193 194 195
g path_000016
l 196 197 198 199
g path_000017
l 200 201 202 203 204
g path_000018
l 205 206
g path_000019
l 207 208
g path_000020
l 209 210
g path_000021
l 211 212 213 214 215
g path_000022
l 216 217
g path_000023
l 219 220 221
g path_000024
l 223 224
g path_000025
l 227 228 229 230
g path_000026
l 232 233 234 235 236 237 238 239 240 241 242 243
g path_000027
l 246 247
g path_000028
l 250 251 252 253
g path_000029
l 255 256 257 258 259 260 261 262 263
g path_000030
l 265 266
g path_000031
l 267 268 269
g path_000032
l 271 272 273
g path_000033
l 274 275 276 277
g path_000034
l 279 280 281 282
g path_000035
l 284 285 286
g path_000036
l 288 289
g path_000037
l 290 291 292
g path_000038
l 295 296
g path_000039
l 297 298 299
g path_000040
l 300 301 302 303 304 305
g path_000041
l 306 307
g path_000042
l 308 309
g path_000043
l 310 311
g path_000044
l 313 314 315 316
g path_000045
l 317 318 319
g path_000046
l 320 321
g path_000047
l 323 324 325
g path_000048
l 327 328
g path_000049
l 329 330 331
g path_000050
l 332 333 334 335
g path_000051
l 336 337 338 339 340 341 342 343 344
g path_000052
l 346 347 348
g path_000053
l 349 350
g path_000054
l 352 353
g path_000055
l 355 356 357 358
g path_000056
l 359 360 361
g path_000057
l 362 363
g path_000058
l 364 365
g path_000059
l 367 368 369
g path_000060
l 370 371 372 373 374
g path_000061
l 375 376 377
g path_000062
l 378 379 380 381 382 383 384 385 386 387
g path_000063
l 389 390 391 392
g path_000064
l 394 395 396 397
g path_000065
l 398 399 400
g path_000066
l 401 402 403 404
g path_000067
l 408 409 410
g path_000068
l 411 412
g path_000069
l 414 415 416
g path_000070
l 418 419 420
g path_000071
l 421 422 423
g path_000072
l 424 425 426 427
g path_000073
l 428 429
g path_000074
l 430 431
g path_000075
l 432 433 434 435
g path_000076
l 436 437 438 439
g path_000077
l 440 441 442 443
g path_000078
l 444 445 446 447 448 449
g path_000079
l 451 452
g path_000080
l 453 454
g path_000081
l 455 456 457 458 459
g path_000082
l 460 461 462
g path_000083
l 463 464 465 466
g path_000084
l 467 468
g path_000085
l 470 471
g path_000086
l 472 473
g path_000087
l 474 475
g path_000088
l 477 478
g path_000089
l 479 480 481
g path_000090
l 483 484
g path_000091
l 485 486 487 488 489 490 491 492 493 494 495 496 497 498 499 500 501 502 503 504 505 506 507 508 509 510 511 512 513 514 515 516 517 518 519 520 521 522 523 524 525 526 527 528 529 530 531 532 533 534 535 536 537 538 539 540 541 542 543 544 545 546 547 548 549 550 551 552 553 554 555 556 557 558 559 560 561 562 563 564 565 566 567 568 569 570 571 572 573 574 575 576 577 578 579 580 581 582 583 584 585 586 587 588 589 590 591 592 593 594 595 596 597 598 599 600 601 602 603 604 605 606 607 608 609 610 611 612 613 614 615 616 617 618 619 620 621 622 623 624 625 626 627 628 629 630 631 632 633 634 635 636 637 638 639 640 641 642 643 644 645 646 647 648 649 650 651 652 653 654 655 656 657 658 659 660 661 662 663 664 665 666 667 668 669 670 671 672 673 674 675 676 677 678 679 680 681
g path_000092
l 682 683 684 685 686 687 688 689 690 691 692 693 694 695 696 697 698 699 700 701 702 703 704 705 706 707 708 709 710 711 712 713 714 715 716 717 718 719 720 721 722 723 724 725 726 727 728 729 730 731 732 733 734 735 736 737 738 739 740 741 742 743 744 745 746 747 748 749 750 751 752 753 754 755 756 757 758 759 760 761 762 763 764 765 766 767 768 769 770
g path_000093
l 771 772 773
g path_000094
l 774 775 776 777 778 779 780 781 782 783 784 785 786 787 788 789 790 791 792 793 794 795 796 797 798 799 800 801 802 803 804 805 806 807 808 809 810 811 812 813 814 815 816 817 818 819 820 821 822 823 824 825 826 827 828 829 830 831 832 833 834 835 836 837 838 839 840 841 842 843 844 845 846 847 848
g path_000095
l 849 850 851 852 853 854 855 856 857 858 859 860 861 862 863 864 865 866 867 868
g path_000096
l 869 870
g path_000097
l 871 872 873 874 875 876 877 878 879 880 881
g path_000098
l 882 883 884 885 886 887 888 889
g path_000099
l 890 891 892 893 894
g path_000100
l 895 896 897 898 899 900 901 902 903 904 905 906 907 908 909 910 911 912 913 914 915 916
g path_000101
l 917 918 919 920 921 922 923 924 925 926
g path_000102
l 927 928 929
g path_000103
l 930 931 932 933 934 935 936 937 938 939
g path_000104
l 940 941 942 943
g path_000105
l 944 945 946 947 948 949 950 951 952 953
g path_000106
l 954 955 956 957
g path_000107
l 958 959 960
g path_000108
l 961 962
g path_000109
l 963 964 965 966
g path_000110
l 967 968 969 970 971 972
g path_000111
l 973 974 975 976 977 978 979 980 981 982 983 984 985 986 987 988 989 990 991 992 993 994 995 996
g path_000112
l 997 998
g path_000113
l 999 1000 1001 1002 1003 1004 1005 1006 1007 1008 1009 1010 1011 1012
g path_000114
l 1013 1014
g path_000115
l 1015 1016 1017
g path_000116
l 1019 1020 1021 1022 1023 1024
g path_000117
l 1025 1026 1027 1028 1029 1030 1031 1032 1033 1034 1035 1036 1037 1038 1039 1040 1041 1042 1043 1044 1045
g path_000118
l 1046 1047 1048 1049 1050 1051 1052 1053 1054 1055 1056 1057 1058 1059 1060 1061 1062 1063 1064 1065 1066 1067 1068 1069 1070 1071 1072 1073 1074 1075 1076 1077 1078 1079 1080 1081 1082 1083 1084 1085 1086 1087 1088 1089 1090 1091 1092 1093 1094
g path_000119
l 1095 1096 1097 1098 1099 1100 1101 1102 1103 1104 1105 1106 1107 1108 1109 1110 1111 1112 1113 1114 1115 1116 1117 1118 1119 1120 1121 1122
g path_000120
l 1123 1124 1125 1126 1127 1128 1129 1130 1131 1132
g path_000121
l 1133 1134 1135 1136 1137 1138 1139 1140 1141 1142 1143 1144 1145 1146 1147 1148 1149 1150 1151 1152 1153 1154 1155 1156 1157 1158 1159 1160 1161 1162 1163 1164 1165 1166 1167 1168 1169 1170
g path_000122
l 1196 1195 1210 1209 1208 1207 1206 1205
g path_000123
l 1197 1198 1199 1200
g path_000124
l 1201 1202 1203
g path_000125
l 1211 1227 1226 1225 1224
g path_000126
l 1212 1213 1214 1215 1216 1217
g path_000127
l 1218 1219 1220 1221 1222 1223
