# Fixed world centers; Z up; paths immutable
v -0.445777863 0.633247495 0.846740007
v -0.432135582 0.61771369 0.861517727
v -0.438783258 0.614325464 0.85657078
v -0.45286718 0.615486085 0.842703938
v -0.461622447 0.613307476 0.835261226
v -0.467815012 0.610005796 0.826177359
v -0.474336922 0.606864214 0.816688657
v -0.482311606 0.607891262 0.808659852
v -0.49014461 0.605464101 0.797586203
v -0.49500975 0.605030239 0.788507581
v -0.493248105 0.601071477 0.782583535
v -0.500959754 0.598924458 0.766763151
v -0.503988028 0.597336352 0.759832323
v -0.503945172 0.594360948 0.751743078
v -0.502271354 0.593814671 0.748899758
v -0.503942251 0.591841877 0.738679469
v -0.507070184 0.590713918 0.726635635
v -0.509375513 0.588644147 0.720494926
v -0.513532579 0.588086128 0.707111359
v -0.511596501 0.583936036 0.701174259
v -0.50887382 0.582773685 0.699546218
v -0.511814535 0.58147043 0.687552392
v -0.515787184 0.580750763 0.674225926
v -0.510870337 0.57831037 0.675293326
v -0.514895856 0.577604353 0.661831677
v -0.5135445 0.573752284 0.655035913
v -0.508042097 0.571403146 0.651745737
v -0.519220948 0.574389577 0.634277225
v -0.510896742 0.570407629 0.634489954
v -0.510425746 0.567042291 0.626493931
v -0.509262025 0.563266873 0.619349003
v -0.505095124 0.56127739 0.619466186
v -0.509792745 0.560874701 0.604824483
v -0.506254673 0.55966717 0.598912477
v -0.505326986 0.556003928 0.591373503
v -0.514673114 0.558229148 0.57058686
v -0.511869967 0.557032406 0.568910718
v -0.514971077 0.555645406 0.556064606
v -0.509346843 0.553244233 0.552701592
v -0.511873245 0.551102817 0.545863807
v -0.506239355 0.548697531 0.542495012
v -0.503005505 0.5436638 0.537782192
v -0.498753309 0.542047739 0.53259486
v -0.499013096 0.538596809 0.528667033
v -0.505183101 0.542917967 0.509710312
v -0.511072755 0.543044508 0.492849916
v -0.505374193 0.540611625 0.489442438
v -0.509717405 0.539835811 0.474511504
v -0.512365341 0.537678182 0.467315704
v -0.506634951 0.535231709 0.463889182
v -0.511214912 0.534548283 0.448498785
v -0.517374873 0.53433603 0.436519861
v -0.515444994 0.529946208 0.429785579
v -0.512967944 0.525242865 0.423771292
v -0.514491796 0.522769213 0.412316591
v -0.515904129 0.519460976 0.412316591
v -0.516859293 0.516643822 0.40159148
v -0.517497838 0.513635695 0.391254067
v -0.517078876 0.509662688 0.388046741
v -0.520046115 0.503795564 0.376415193
v -0.521340847 0.500743985 0.37084356
v -0.523803651 0.498320937 0.363660574
v -0.525441945 0.491313368 0.359558046
v -0.52849102 0.485054463 0.353515595
v -0.533952653 0.483870119 0.347983479
v -0.534623682 0.476301134 0.345200717
v -0.537176132 0.469420701 0.345631242
v -0.537233531 0.461521775 0.343690753
v -0.542276144 0.45594728 0.340707928
v -0.537886143 0.449827909 0.342899799
v -0.539314389 0.442371905 0.344869196
v -0.551197648 0.440047979 0.338317871
v -0.546173453 0.433625847 0.341362178
v -0.550099969 0.427451015 0.339914203
v -0.553231895 0.420866817 0.339554101
v -0.555860758 0.414028049 0.339880466
v -0.563867211 0.409661829 0.338657528
v -0.556103885 0.397871196 0.347348362
v -0.564148784 0.393719256 0.34030959
v -0.569285274 0.388110757 0.337232471
v -0.559766829 0.375378042 0.354014248
v -0.562485218 0.368624061 0.354199558
v -0.562074959 0.360374898 0.35861209
v -0.570279837 0.356098205 0.35709092
v -0.569411874 0.351670027 0.360180974
v -0.570389509 0.344111353 0.36270076
v -0.574621677 0.338082731 0.360843062
v -0.572668791 0.329287052 0.361617953
v -0.573973596 0.321905732 0.363690108
v -0.577718616 0.31564784 0.362485588
v -0.573316634 0.30974555 0.364635587
v -0.578404605 0.304095715 0.361627311
v -0.579828084 0.300761551 0.361627311
v -0.581753731 0.293682247 0.362860262
v -0.578108728 0.284188986 0.365894943
v -0.58633399 0.279898882 0.358694434
v -0.583725393 0.270875275 0.360337913
v -0.583409488 0.262843788 0.36456275
v -0.586931169 0.256481171 0.363654196
v -0.581278265 0.246202365 0.369361967
v -0.584419072 0.243613198 0.367061555
v -0.589684546 0.237989843 0.363823891
v -0.59108007 0.230733469 0.365747988
v -0.592820406 0.223593444 0.361587882
v -0.592500627 0.215639979 0.36579442
v -0.5866431 0.209286898 0.369869918
v -0.591670811 0.203546405 0.366947085
v -0.593833029 0.196636677 0.367840558
v -0.592769325 0.188362762 0.367417961
v -0.591743112 0.180110201 0.366947055
v -0.596543849 0.174253017 0.364328831
v -0.592847228 0.164962217 0.367408305
v -0.594957173 0.161918715 0.366483927
v -0.595488131 0.154282868 0.363942415
v -0.597072303 0.147176385 0.365598649
v -0.593442798 0.141809672 0.366709769
v -0.597235024 0.135552302 0.365427166
v -0.597684145 0.127884939 0.36299634
v -0.597609997 0.120020397 0.361260682
v -0.59417659 0.11475163 0.362114996
v -0.596759379 0.108042799 0.362438768
v -0.598275185 0.100761123 0.358588904
v -0.59502089 0.0955738425 0.359206945
v -0.595985353 0.0880879685 0.356088519
v -0.5944978 0.0835386068 0.354353815
v -0.596309483 0.0763424858 0.350100726
v -0.596235335 0.0684761032 0.348364651
v -0.593580782 0.0635184422 0.348188162
v -0.598311782 0.0573081523 0.340020955
v -0.606013238 0.0523294881 0.333512634
v -0.607857406 0.0453431457 0.33484149
v -0.606920183 0.0371635891 0.334252864
v -0.608559787 0.0339144282 0.333957702
v -0.611397147 0.02726846 0.333957702
v -0.611322761 0.019379383 0.33221662
v -0.610997736 0.0114093851 0.330810189
v -0.61135596 0.00365939015 0.32849133
v -0.610832274 -0.000281628745 0.331085175
v -0.610496938 -0.00824707001 0.329694092
v -0.613045752 -0.014976603 0.330075949
v -0.615399718 -0.0217644665 0.33071667
v -0.618044198 -0.0284606069 0.330969065
v -0.615613699 -0.0370516814 0.332368851
v -0.61702925 -0.0403672941 0.332368851
v -0.62185663 -0.0464047715 0.329714298
v -0.615069151 -0.0562576428 0.336907685
v -0.61866188 -0.0630471185 0.330292374
v -0.623903453 -0.0652540177 0.325200915
v -0.612345338 -0.0768282861 0.333158404
v -0.612271309 -0.0846808627 0.331425369
v -0.613348365 -0.0885057226 0.326268077
v -0.60947752 -0.0941496193 0.322103977
v -0.612718463 -0.0973890424 0.314025402
v -0.603605986 -0.100784928 0.31498611
v -0.603875577 -0.105295889 0.305219442
v -0.601139069 -0.106933542 0.297564328
v -0.58294481 -0.10867887 0.314646095
v -0.581751347 -0.109884098 0.304915279
v -0.577660561 -0.108184516 0.297166318
v -0.581246853 -0.108067259 0.280786157
v -0.567527771 -0.108590014 0.291953921
v -0.557364404 -0.108574435 0.292537481
v -0.555094004 -0.105927713 0.28796798
v -0.549236953 -0.100572728 0.286400855
v -0.539779663 -0.0962499008 0.289852709
v -0.540799141 -0.0926433578 0.280669034
v -0.537966907 -0.0860094428 0.280669034
v -0.536063433 -0.079102166 0.279368252
v -0.578164816 -0.0636830032 0.206506982
v -0.583510637 -0.0667184666 0.189077824
v -0.580609143 -0.0679679438 0.1871811
v -0.57870543 -0.0693238527 0.177856311
v -0.580945671 -0.0733153075 0.164669275
v -0.583499968 -0.0772425905 0.150976852
v -0.595431268 -0.0780822933 0.129936919
v -0.595875859 -0.0826793462 0.119137101
v -0.602361083 -0.0855841637 0.0996143445
v -0.601175308 -0.0902495608 0.0972568169
v -0.612668216 -0.0957300738 0.0725448057
v -0.613981128 -0.0997347161 0.0665523484
v -0.613701642 -0.104186743 0.0628517419
v -0.620539606 -0.110622078 0.0510150641
v -0.627774775 -0.116998956 0.0385924615
v -0.625031233 -0.122145198 0.0384309143
v -0.628524303 -0.129563034 0.0314093865
v -0.631680131 -0.137092799 0.0248711854
v -0.637294352 -0.139565617 0.0189170856
v -0.640656233 -0.147084922 0.0120744659
v -0.640579641 -0.151567817 0.00802142173
v -0.647127986 -0.158331111 -0.00346338237
v -0.644708693 -0.167903021 -0.0083101606
v -0.656232893 -0.169023693 -0.0228747576
v -0.654074252 -0.1785772 -0.0281408243
v -0.652478993 -0.183479398 -0.0300230309
v -0.651941419 -0.188132405 -0.0334518813
v -0.657756984 -0.195240617 -0.0439483784
v -0.657885432 -0.204312935 -0.0526044294
v -0.662871957 -0.207743183 -0.0641686693
v -0.665516138 -0.215667382 -0.0700544268
v -0.670462132 -0.21915929 -0.081592083
v -0.663372993 -0.225971296 -0.0819684565
v -0.661866248 -0.230899155 -0.0840231255
v -0.66522336 -0.239396334 -0.0975654274
v -0.661295593 -0.24091053 -0.098330155
v -0.659388244 -0.24661839 -0.106402889
v -0.65652287 -0.25253883 -0.113072
v -0.649049342 -0.255482495 -0.115173608
v -0.636084378 -0.259565383 -0.109008938
v -0.63071245 -0.262068003 -0.114225887
v -0.668074369 -0.259742349 -0.181781486
v -0.66633898 -0.264806509 -0.183576912
v -0.664912105 -0.269808292 -0.185840055
v -0.661089838 -0.276021451 -0.191281229
v -0.660834491 -0.284034401 -0.186126053
v -0.659512877 -0.292984366 -0.186164454
v -0.661078691 -0.296652079 -0.186164454
v -0.663458288 -0.304128289 -0.185023248
v -0.658545732 -0.313720137 -0.179611146
v -0.656308353 -0.322795987 -0.178254321
v -0.662099898 -0.329636067 -0.182304353
v -0.657940447 -0.33510536 -0.180402413
v -0.660097063 -0.342583865 -0.178938016
v -0.6594491 -0.351356208 -0.179993734
v -0.655110002 -0.360732257 -0.175443321
v -0.657791615 -0.364196658 -0.177149534
v -0.656193912 -0.373102456 -0.17675969
v -0.654695213 -0.381982118 -0.17651768
v -0.652542353 -0.390951425 -0.175279006
v -0.654097199 -0.394593328 -0.175279006
v -0.653244972 -0.403353125 -0.17601575
v -0.650704622 -0.412350118 -0.17418398
v -0.652766347 -0.415914863 -0.174957439
v -0.645909011 -0.426408499 -0.173303127
v -0.648087084 -0.429955274 -0.174258143
v -0.646904111 -0.438728064 -0.174483702
v -0.6389063 -0.449320644 -0.17106089
v -0.641826391 -0.452770174 -0.173155338
v -0.635778546 -0.463082165 -0.172690377
v -0.632466137 -0.468265027 -0.172008544
v -0.626914799 -0.478484333 -0.172274292
v -0.624418378 -0.48355484 -0.172829986
v -0.616539299 -0.490225106 -0.171860516
v -0.609917939 -0.491966456 -0.168413043
v -0.605138719 -0.498269528 -0.172191232
v -0.601195693 -0.503476024 -0.170477882
v -0.59179008 -0.506504178 -0.169438019
v -0.584397435 -0.513069272 -0.169110805
v -0.575356185 -0.516044319 -0.168576643
v -0.662585735 -0.515761673 -0.307338595
v -0.659213185 -0.521043837 -0.306619883
v -0.653741777 -0.527597964 -0.309665024
v -0.650398195 -0.525124133 -0.313984185
v -0.645219088 -0.523899496 -0.322527647
v -0.638107479 -0.530619919 -0.322975069
v -0.631661117 -0.533397377 -0.326996773
v -0.627089262 -0.539870679 -0.331476301
v -0.623827398 -0.541263282 -0.333426744
v -0.612938881 -0.544445455 -0.330301225
v -0.595647514 -0.540503561 -0.321887851
v -0.592726171 -0.54185909 -0.324354082
v -0.623231709 -0.545137525 -0.38582027
v -0.608537138 -0.544782281 -0.379143775
v -0.632260859 -0.548799634 -0.430078447
v -0.625343204 -0.550535202 -0.426170081
v -0.631328762 -0.552271128 -0.450940192
v -0.580255926 -0.555064559 -0.384154379
v -0.441586316 -0.565664768 -0.171138704
v -0.435016751 -0.567292333 -0.167207271
v -0.427776754 -0.570024371 -0.169139624
v -0.41746977 -0.573018312 -0.165912241
v -0.405553758 -0.57250005 -0.162448585
v -0.40324229 -0.577390075 -0.163052946
v -0.393336862 -0.576697648 -0.162918746
v -0.384917766 -0.579514384 -0.16273284
v -0.376598299 -0.582318425 -0.162687525
v -0.368993104 -0.585059285 -0.163838401
v -0.361146063 -0.587817013 -0.164553627
v -0.353684962 -0.59054029 -0.165912956
v -0.343599707 -0.593469381 -0.162702546
v -0.337121427 -0.596107602 -0.165719926
v -0.329939902 -0.598799527 -0.167503029
v -0.320611626 -0.601653397 -0.165504307
v -0.313930005 -0.604301095 -0.168124273
v -0.304596215 -0.607144892 -0.166045621
v -0.294234425 -0.610057473 -0.162096992
v -0.27923882 -0.609735548 -0.152457967
v -0.273185462 -0.612319887 -0.156077594
v -0.267071784 -0.614908576 -0.159588814
v -0.261018574 -0.617492914 -0.163208336
v -0.254965395 -0.620077193 -0.166827857
v -0.248971969 -0.622657359 -0.170556128
v -0.242918596 -0.625241697 -0.174175754
v -0.236865222 -0.627826095 -0.17779538
v -0.224548995 -0.626194596 -0.16523689
v -0.217305392 -0.628850043 -0.166602179
v -0.209078282 -0.631567478 -0.166126862
v -0.307839453 -0.631079078 -0.361822397
v -0.195085511 -0.636831522 -0.169676393
v -0.20976679 -0.637001395 -0.204585075
v -0.253051817 -0.636538804 -0.300968468
v -0.250650764 -0.638961554 -0.311889112
v -0.270694107 -0.643744349 -0.362481654
v -0.264388621 -0.646436334 -0.366252035
v -0.243926361 -0.646254182 -0.345916599
v -0.237659827 -0.648929536 -0.349663705
v -0.232212692 -0.65155983 -0.354988694
v -0.229797721 -0.654028535 -0.366189122
v -0.222636789 -0.65675652 -0.36823681
v -0.202905983 -0.656490982 -0.348731309
v -0.199430212 -0.65784198 -0.34990266
v -0.181462154 -0.664726079 -0.327648818
v -0.17742449 -0.670878589 -0.332635105
v -0.174324408 -0.67220211 -0.334488809
v -0.157171547 -0.675341487 -0.316508174
v -0.154598713 -0.676634967 -0.319363207
v -0.155225322 -0.6753757 -0.339593261
v -0.135359779 -0.675040603 -0.318923026
v -0.12300963 -0.67794317 -0.31013605
v -0.116874993 -0.680562258 -0.313804299
v -0.105917871 -0.683383465 -0.307687104
v -0.0997988284 -0.685995877 -0.311345994
v -0.0938394293 -0.683869481 -0.310295701
v -0.091830723 -0.682752728 -0.325443506
v -0.0846360698 -0.680677891 -0.321851075
v -0.0871526971 -0.682924509 -0.343386352
v -0.0569760352 -0.686543763 -0.297160208
v -0.0607340857 -0.688742995 -0.321301281
v -0.0647271127 -0.687394321 -0.349245578
v -0.0758845881 -0.689335823 -0.389351755
v -0.065935798 -0.68853426 -0.388327807
v -0.0421210453 -0.687115908 -0.349405378
v -0.0539380759 -0.689014375 -0.391331851
v -0.0316432789 -0.688718915 -0.363755614
v -0.0436370336 -0.693017364 -0.394705325
v -0.0332094207 -0.692234218 -0.392509371
v -0.0209375583 -0.691527307 -0.386253983
v -0.0193833094 -0.690397263 -0.403251678
v -0.016453255 -0.688120008 -0.408745557
v 0.000729333144 -0.686446965 -0.38301307
v -0.0158481374 -0.688130379 -0.436726183
v -0.0163174178 -0.690519512 -0.455251753
v 0.00889762957 -0.686737776 -0.42354995
v -0.000505543605 -0.687533677 -0.453277379
v 0.00937476009 -0.686728656 -0.452238739
v 0.0206934977 -0.685989022 -0.44790712
v 0.025075864 -0.683758557 -0.450306416
v 0.0323358886 -0.682843983 -0.455092281
v 0.0494514517 -0.682384431 -0.437367052
v 0.0562877767 -0.680282295 -0.434086502
v 0.0664249584 -0.679513633 -0.432118475
v 0.0751985908 -0.677519321 -0.42428109
v 0.0880979821 -0.676900446 -0.415760309
v 0.0933891758 -0.674747825 -0.4158912
v 0.101642966 -0.673900068 -0.418081403
v 0.118732944 -0.668835521 -0.393924445
v 0.11107479 -0.665957451 -0.424522579
v 0.131911352 -0.665849507 -0.39682126
v 0.138360694 -0.663792014 -0.394054443
v 0.140324801 -0.662578583 -0.411087394
v 0.14593631 -0.660467803 -0.410322189
v 0.154050782 -0.659626007 -0.412670672
v 0.161626741 -0.658750713 -0.41631332
v 0.166198149 -0.656577647 -0.418033719
v 0.17305316 -0.65565455 -0.423443347
v 0.180638716 -0.653685212 -0.417754233
v 0.18840085 -0.6528247 -0.420903295
v 0.195964679 -0.651950777 -0.424540102
v 0.202650711 -0.651014924 -0.430373073
v 0.207425505 -0.648859501 -0.431566149
v 0.211950049 -0.646686375 -0.433385283
v 0.220445722 -0.641234338 -0.428909153
v 0.224963099 -0.63906467 -0.430725396
v 0.234063968 -0.638315678 -0.430411488
v 0.241154417 -0.632777572 -0.429408252
v 0.246920973 -0.630719364 -0.42798835
v 0.261116922 -0.626852632 -0.418186218
v 0.262588114 -0.623406649 -0.418186218
v 0.274730951 -0.619392574 -0.413545877
v 0.283123344 -0.618612707 -0.414792299
v 0.287586719 -0.616460145 -0.416633368
v 0.289920121 -0.609525025 -0.418220133
v 0.288375318 -0.604800642 -0.416418701
v 0.303747088 -0.599294841 -0.383576035
v 0.313772738 -0.59422332 -0.374415517
v 0.318077445 -0.592080534 -0.376532704
v 0.324717015 -0.587557614 -0.386054426
v 0.330838084 -0.585630834 -0.383311391
v 0.343490928 -0.580952585 -0.366806984
v 0.347612947 -0.578796387 -0.369367629
v 0.354753971 -0.574335515 -0.377517819
v 0.353628933 -0.571473658 -0.394485414
v 0.365996033 -0.566833138 -0.37843287
v 0.370558947 -0.564733148 -0.379800141
v 0.381452501 -0.560788929 -0.377606809
v 0.385860831 -0.558671653 -0.379379213
v 0.390046805 -0.557351232 -0.391878337
v 0.397641629 -0.555702507 -0.384696424
v 0.413837373 -0.552597404 -0.367278337
v 0.409604132 -0.552761137 -0.389496088
v 0.422879249 -0.549225271 -0.380244911
v 0.430226713 -0.548376322 -0.383777678
v 0.434620082 -0.546266198 -0.385544091
v 0.448400468 -0.546456873 -0.370315194
v 0.451340407 -0.547712028 -0.372073144
v 0.464011103 -0.544160783 -0.364022493
v 0.473921984 -0.543755472 -0.359758496
v 0.47684738 -0.545004427 -0.361507744
v 0.481372178 -0.547283411 -0.368969947
v 0.486616224 -0.549683452 -0.374313354
v 0.48868826 -0.551568866 -0.389261484
v 0.49464047 -0.554090023 -0.392545849
v 0.506442785 -0.553978503 -0.382315099
v 0.51347065 -0.552328944 -0.375858456
v 0.516652942 -0.554387093 -0.387567312
v 0.521007359 -0.552295685 -0.389318049
v 0.516899407 -0.545924425 -0.432847917
v 0.519857168 -0.54718715 -0.434616506
v 0.538111627 -0.548209667 -0.403793573
v 0.543551505 -0.550640881 -0.408645809
v 0.550846875 -0.549797952 -0.412153572
v 0.555464745 -0.548489094 -0.424266875
v 0.558404267 -0.54974407 -0.426024586
v 0.565278649 -0.54882282 -0.430957884
v 0.567129791 -0.550632775 -0.44762823
v 0.573597491 -0.549631953 -0.45401749
v 0.577435374 -0.547424495 -0.457608074
v 0.579553306 -0.545635223 -0.47851643
v 0.584222138 -0.543562889 -0.479433894
v 0.572236776 -0.539145648 -0.548045278
v 0.573730707 -0.536435008 -0.559932411
v 0.57718575 -0.531058669 -0.582369566
v 0.571154296 -0.526843786 -0.620216548
v 0.575099885 -0.520047486 -0.616922259
v 0.565132499 -0.515612185 -0.681219518
v 0.559039652 -0.511200368 -0.720178068
v 0.524456441 -0.509561002 -0.860794783
v 0.530920982 -0.512320936 -0.864660263
v 0.530595601 -0.517752469 -0.886875927
v 0.534318924 -0.519231021 -0.887131214
v 0.536277235 -0.525143623 -0.901472747
v 0.540468276 -0.531496823 -0.907958925
v 0.545254707 -0.537964344 -0.912338376
v 0.548509181 -0.539353788 -0.914284408
v 0.56290108 -0.547511995 -0.884001613
v 0.558307707 -0.554638088 -0.889208615
v 0.560456693 -0.559789658 -0.889370978
v 0.568462908 -0.562802434 -0.887639642
v 0.574800014 -0.56947428 -0.886197567
v 0.583120346 -0.572522998 -0.883183122
v 0.587460101 -0.578863978 -0.888986528
v 0.593900979 -0.581613779 -0.892837882
v 0.599215388 -0.57939446 -0.892807186
v 0.60537219 -0.57338959 -0.895477772
v 0.611980736 -0.571386337 -0.89054811
v 0.619460225 -0.574300706 -0.890411973
v 0.629013181 -0.56971246 -0.894252777
v 0.630578041 -0.566047192 -0.894252777
v 0.63691932 -0.5600878 -0.896173239
v 0.644212961 -0.554302156 -0.89440304
v 0.652542174 -0.548723817 -0.888551295
v 0.654102981 -0.545068026 -0.888551295
v 0.660427868 -0.539124012 -0.89046675
v 0.665694654 -0.532963157 -0.89656347
v 0.66405046 -0.527934968 -0.894646168
v 0.663968563 -0.519247591 -0.892728925
v 0.662324429 -0.514219403 -0.890811622
v 0.657473922 -0.507822335 -0.886977077
v 0.65316534 -0.502181709 -0.895469308
v 0.646766305 -0.491362929 -0.903702855
v 0.643543601 -0.489987046 -0.901775777
v 0.638668358 -0.483557403 -0.897921741
v 0.63222295 -0.480805635 -0.894067645
v 0.620161831 -0.472588539 -0.917629719
v 0.613640249 -0.469810694 -0.913888812
v 0.610846221 -0.464438438 -0.916230202
v 0.606264591 -0.462153316 -0.905166388
v 0.601362169 -0.455687851 -0.901290834
v 0.598223686 -0.45378983 -0.884988666
v 0.598407149 -0.448683113 -0.862362683
v 0.596181452 -0.447571993 -0.856780231
v 0.593434393 -0.441726893 -0.84516871
v 0.587289691 -0.439060479 -0.840330422
v 0.582435608 -0.432658702 -0.836493075
v 0.579712927 -0.430934697 -0.81933248
v 0.577247143 -0.429287434 -0.801414967
v 0.571621001 -0.426772505 -0.794926763
v 0.569591165 -0.425256014 -0.775739729
v 0.572360575 -0.425080836 -0.739852607
v 0.570019543 -0.423494667 -0.722226381
v 0.574258804 -0.423754424 -0.681891441
v 0.56965965 -0.421552092 -0.672536194
v 0.583802819 -0.424620807 -0.598870039
v 0.625692248 -0.435539722 -0.431295812
v 0.624186277 -0.430934131 -0.429539651
v 0.620779157 -0.425374418 -0.422513366
v 0.619728088 -0.420513749 -0.407564312
v 0.617458463 -0.419457316 -0.40360558
v 0.617643297 -0.41499421 -0.384665161
v 0.620085001 -0.41161114 -0.369758844
v 0.617107928 -0.402506649 -0.366287231
v 0.61703378 -0.394641489 -0.364551425
v 0.612668335 -0.389173746 -0.372385591
v 0.609633923 -0.380625844 -0.391959429
v 0.60813421 -0.376039535 -0.390210629
v 0.609185159 -0.368762165 -0.396213621
v 0.609533608 -0.360970497 -0.393050402
v 0.614349127 -0.354739308 -0.374998182
v 0.61188978 -0.346204281 -0.392710686
v 0.61348778 -0.338872582 -0.38537237
v 0.613242149 -0.334925354 -0.390959203
v 0.615583897 -0.328049481 -0.392677277
v 0.615509033 -0.320109874 -0.39092505
v 0.617818654 -0.313211352 -0.392758578
v 0.616861939 -0.308825999 -0.389172822
v 0.618917704 -0.301821768 -0.391860783
v 0.620503068 -0.294617921 -0.396146804
v 0.620428085 -0.286664218 -0.394391447
v 0.619289458 -0.278304011 -0.40789184
v 0.620208919 -0.270757616 -0.414494008
v 0.622084618 -0.263599485 -0.406130463
v 0.623008788 -0.256028444 -0.412729681
v 0.624674201 -0.24875848 -0.416842163
v 0.621802509 -0.243521631 -0.419680715
v 0.62172699 -0.235509515 -0.417912483
v 0.623015344 -0.228027716 -0.423329145
v 0.623092294 -0.224122584 -0.416144252
v 0.624382496 -0.216625184 -0.421558499
v 0.624306858 -0.208602071 -0.419787824
v 0.620926917 -0.198980823 -0.429247946
v 0.62237376 -0.195591763 -0.429247946
v 0.622297943 -0.187545851 -0.427472234
v 0.624806225 -0.180574611 -0.428786516
v 0.624730349 -0.172526032 -0.427010238
v 0.623207152 -0.167867616 -0.42523396
v 0.623339355 -0.159655005 -0.434655517
v 0.621956527 -0.150900751 -0.437329233
v 0.620427966 -0.146226004 -0.435546726
v 0.620351851 -0.138149202 -0.433764219
v 0.620275676 -0.130072385 -0.431981683
v 0.618747115 -0.125397637 -0.430199176
v 0.61867094 -0.117320836 -0.428416669
v 0.621826291 -0.110656917 -0.427565217
v 0.621703207 -0.106774494 -0.421013862
v 0.619269669 -0.102007009 -0.410462976
v 0.615317225 -0.0959645063 -0.416875631
v 0.618094265 -0.0886494964 -0.429174453
v 0.616855025 -0.0845929682 -0.41454494
v 0.614314139 -0.0793328136 -0.416180968
v 0.612892807 -0.0704656467 -0.418928295
v 0.611980557 -0.0661535934 -0.415069044
v 0.611154377 -0.0618967935 -0.410928398
v 0.609757125 -0.0530261509 -0.413576722
v 0.607747197 -0.0443092473 -0.406501889
v 0.606218815 -0.0396351218 -0.404719591
v 0.604495704 -0.0348410904 -0.403585702
v 0.602699757 -0.0300007332 -0.402691722
v 0.600023866 -0.0202951282 -0.40954572
v 0.596959233 -0.0109226871 -0.405971944
v 0.595426917 -0.00623646751 -0.404185057
v 0.593894541 -0.00155024754 -0.402398169
v 0.589378059 0.00875780359 -0.403597683
v 0.587843895 0.0134497145 -0.401808619
v 0.584775507 0.0228335354 -0.398230493
v 0.583241284 0.0275254454 -0.39644146
v 0.581885874 0.0320993736 -0.394069582
v 0.578817964 0.0414818004 -0.390491992
v 0.577283978 0.0461730175 -0.388703197
v 0.574445784 0.0554003976 -0.384383351
v 0.575828314 0.058113534 -0.373187512
v 0.571127951 0.0693636015 -0.386312485
v 0.569592118 0.074060522 -0.384521514
v 0.569633305 0.0812953189 -0.370954752
v 0.568294346 0.0858458579 -0.368550509
v 0.568025112 0.094074674 -0.36738196
v 0.562766016 0.101391464 -0.377503753
v 0.555680871 0.113646522 -0.386694163
v 0.555471659 0.117408536 -0.380661249
v 0.552597642 0.123075761 -0.383098722
v 0.552109122 0.13062717 -0.371297896
v 0.552520752 0.133915007 -0.363347888
v 0.547989368 0.139891148 -0.359765649
v 0.545939982 0.144964099 -0.359585196
v 0.538791239 0.157368004 -0.368743926
v 0.537249565 0.162082657 -0.366946191
v 0.534166336 0.171511963 -0.363350749
v 0.532624722 0.176226616 -0.361553013
v 0.531083047 0.180941269 -0.359755278
v 0.525798202 0.19203791 -0.362962276
v 0.524253845 0.196760803 -0.361161381
v 0.520960152 0.206363603 -0.358189911
v 0.518553913 0.211749479 -0.359033167
v 0.517008305 0.216476366 -0.357230753
v 0.513426602 0.226311132 -0.35512358
v 0.511880398 0.231039837 -0.353320509
v 0.506410837 0.243448451 -0.367947608
v 0.504858077 0.248197153 -0.366136909
v 0.501752496 0.257694572 -0.362515479
v 0.500759602 0.261997074 -0.359010369
v 0.499854863 0.270862758 -0.359703302
v 0.498301774 0.275612473 -0.357892215
v 0.498107493 0.283913761 -0.356434077
v 0.496554255 0.288663894 -0.354622841
v 0.493565172 0.298067838 -0.350647837
v 0.493370414 0.306371152 -0.349189073
v 0.487797141 0.315681428 -0.370371968
v 0.48814854 0.322329611 -0.356322587
v 0.486157626 0.328709304 -0.366729707
v 0.484032601 0.338692367 -0.371043891
v 0.385062337 0.432604223 -0.677250922
v 0.388352036 0.431199759 -0.679217994
v 0.39032048 0.427200198 -0.692254186
v 0.399506629 0.42217043 -0.688308001
v 0.396641612 0.420886904 -0.70415169
v 0.403244585 0.418067873 -0.708099961
v 0.394719958 0.422998488 -0.753679633
v 0.401387691 0.42015183 -0.757666647
v 0.408055425 0.417305171 -0.761653602
v 0.406044036 0.421906412 -0.792833149
v 0.412147015 0.41956386 -0.79875803
v 0.425956488 0.415797859 -0.785440683
v 0.423082292 0.421245277 -0.819956303
v 0.43145588 0.42221275 -0.823982477
v 0.4348225 0.420775443 -0.825995564
v 0.443196088 0.421742946 -0.830021739
v 0.449431628 0.419308305 -0.835673869
v 0.454440445 0.421714008 -0.837687671
v 0.462817162 0.422681868 -0.841715336
v 0.47119385 0.423649728 -0.845743001
v 0.474561721 0.422211885 -0.847756863
v 0.484579355 0.427023292 -0.851784527
v 0.480472237 0.437808543 -0.884627879
v 0.48551625 0.440231144 -0.886655867
v 0.495604306 0.445076376 -0.890711844
v 0.50064832 0.447499007 -0.892739832
v 0.507344782 0.453792185 -0.894767821
v 0.510649741 0.461533338 -0.894767821
v 0.508706152 0.474355727 -0.91302681
v 0.515430272 0.480674863 -0.915063143
v 0.517089546 0.484561414 -0.915063143
v 0.520408094 0.492334485 -0.915063143
v 0.535480738 0.488353014 -0.873666704
v 0.542142272 0.49461332 -0.875684083
v 0.548803806 0.500873685 -0.877701461
v 0.550447643 0.504724026 -0.877701461
v 0.553735316 0.512424767 -0.877701461
v 0.553649127 0.521565855 -0.875684083
v 0.551919103 0.526856601 -0.873666704
v 0.550189078 0.532147408 -0.871649265
v 0.545085251 0.53887856 -0.867614448
v 0.536440849 0.549325764 -0.876065373
v 0.529673994 0.552214742 -0.872019112
v 0.522907138 0.555103719 -0.867972851
v 0.516140282 0.557992697 -0.863926589
v 0.504187644 0.566256166 -0.877714753
v 0.49739328 0.569156885 -0.873652101
v 0.483310312 0.573958814 -0.888700366
v 0.479486644 0.575837135 -0.888052762
v 0.470997751 0.574856341 -0.883971155
v 0.46571058 0.572632015 -0.882636607
v 0.455272764 0.568039656 -0.879496813
v 0.450119942 0.562056601 -0.885532379
v 0.443714619 0.560916126 -0.887835026
v 0.440091342 0.553386688 -0.888781965
v 0.443889439 0.542371333 -0.891927779
v 0.441481233 0.539182663 -0.894365728
v 0.446324706 0.521707296 -0.854335308
v 0.513448834 0.448815763 -0.604706287
v 0.507039666 0.451552004 -0.600873947
v 0.494440645 0.467004538 -0.634287417
v 0.49112612 0.477141112 -0.630422294
v 0.487894148 0.47852093 -0.628489733
v 0.496381819 0.479028791 -0.599112451
v 0.494735509 0.484063625 -0.597192645
v 0.499261826 0.488283962 -0.580548823
v 0.499495327 0.496643454 -0.577629328
v 0.506939173 0.497895181 -0.551697612
v 0.506595194 0.503396809 -0.557747483
v 0.505782247 0.510944903 -0.546128333
v 0.503560185 0.511352181 -0.541191578
v 0.499789149 0.516660988 -0.534127355
v 0.509237289 0.513917506 -0.490326852
v 0.50916034 0.51730752 -0.483624339
v 0.51009059 0.524791479 -0.478572667
v 0.507708907 0.525370598 -0.474334389
v 0.505728722 0.528839171 -0.461976111
v 0.505480468 0.539326966 -0.472278535
v 0.499196887 0.547149837 -0.473322242
v 0.496013522 0.548534989 -0.471582383
v 0.497111112 0.538644493 -0.440389454
v 0.492580205 0.539591014 -0.431439459
v 0.480574906 0.548049092 -0.445314616
v 0.482116371 0.542915642 -0.417963654
v 0.473025799 0.553514957 -0.427473009
v 0.466880202 0.551012933 -0.418913543
v 0.461268872 0.554824412 -0.424502581
v 0.453157008 0.559342921 -0.426319003
v 0.45160073 0.55231899 -0.404243946
v 0.47648263 0.524414599 -0.309310645
v 0.460175961 0.532081008 -0.331157267
v 0.453525096 0.536888778 -0.33976081
v 0.448753774 0.538181841 -0.332152814
v 0.441668838 0.541725814 -0.331234783
v 0.435088485 0.544776857 -0.328845024
v 0.46801126 0.504907191 -0.210073665
v 0.472034663 0.502637744 -0.182421386
v 0.467891276 0.503462493 -0.173909172
v 0.464604646 0.509799421 -0.177117124
v 0.459076017 0.516716123 -0.176530063
v 0.466878951 0.506050229 -0.134860292
v 0.462788135 0.513138473 -0.140292048
v 0.470206708 0.507550001 -0.104025021
v 0.464564383 0.520836234 -0.117659643
v 0.461643726 0.522083104 -0.115913242
v 0.457225472 0.527910113 -0.112420432
v 0.451384217 0.530403912 -0.10892763
v 0.45580247 0.524576962 -0.112420432
v 0.461643726 0.522083104 -0.115913242
v 0.471623749 0.510869086 -0.104025021
v 0.467298388 0.508791625 -0.102285974
v 0.464475423 0.505273223 -0.0964231491
v 0.460895747 0.510286391 -0.090721637
v 0.460780919 0.507312775 -0.0717764869
v 0.458256096 0.506668627 -0.0595122203
v 0.454479605 0.502613842 -0.0469380245
v 0.453316271 0.500720501 -0.03123069
v 0.46381411 0.487822503 0.0153542403
v 0.464952171 0.48980841 0.023923656
v 0.467875242 0.494609922 0.0335608982
v 0.466429293 0.499031961 0.0352470502
v 0.464610785 0.506845117 0.0414539203
v 0.458975613 0.509250939 0.0448234826
v 0.463676751 0.497288167 0.0787621215
v 0.466215819 0.497876227 0.090783447
v 0.467445165 0.504171491 0.095836401
v 0.468800515 0.507346153 0.095836401
v 0.472083598 0.510128796 0.11511486
v 0.473407894 0.511807323 0.123893216
v 0.47176668 0.514853001 0.133759752
v 0.47035259 0.519177556 0.135408729
v 0.475524902 0.515568376 0.162723422
v 0.474350721 0.519637644 0.164950728
v 0.470209181 0.525099695 0.168224782
v 0.472173929 0.524581015 0.187040597
v 0.469197541 0.528894067 0.193204388
v 0.469830215 0.526770413 0.203315794
v 0.46807912 0.529877603 0.212499112
v 0.466916323 0.532402396 0.223109379
v 0.464332134 0.533438861 0.225028723
v 0.460409611 0.53866905 0.228684232
v 0.459874153 0.540571451 0.240740091
v 0.457310289 0.541592181 0.242682502
v 0.452973574 0.54286015 0.248510256
v 0.462859452 0.534552157 0.285976022
v 0.461690933 0.54137373 0.292994261
v 0.459768534 0.5417822 0.296394169
v 0.457721591 0.54514426 0.304387152
v 0.463006079 0.542755485 0.322099954
v 0.459005296 0.548031807 0.325262725
v 0.45825541 0.550095081 0.336247712
v 0.458641142 0.551028371 0.349892229
v 0.457292795 0.555151939 0.35146457
v 0.458979934 0.554775894 0.368111879
v 0.459255666 0.553024709 0.376558661
v 0.466056287 0.551781595 0.402155578
v 0.464324504 0.554772377 0.410434395
v 0.461734742 0.555877984 0.411982924
v 0.460868627 0.562211514 0.419282943
v 0.458282351 0.56331569 0.420829415
v 0.454369932 0.568475544 0.42392233
v 0.453043759 0.572531223 0.425468802
v 0.462554812 0.564237118 0.459714264
v 0.459929109 0.572267056 0.462776154
v 0.461992949 0.568711877 0.474980712
v 0.459433645 0.572493792 0.481021821
v 0.458126634 0.576490879 0.482545942
v 0.454323173 0.581523299 0.485714078
v 0.451729327 0.585333943 0.491636842
v 0.450942129 0.588802397 0.49433893
v 0.460763842 0.580032945 0.528362215
v 0.459471941 0.583983839 0.529868662
v 0.459311038 0.585302651 0.541108727
v 0.45808816 0.589176059 0.542758405
v 0.458933353 0.589456558 0.556177914
v 0.457019418 0.596640408 0.560633004
v 0.454931498 0.59728545 0.563053548
v 0.454180509 0.599175692 0.572783291
v 0.459592313 0.596236467 0.589118123
v 0.461680591 0.595200002 0.605003059
v 0.460480392 0.60158056 0.610902131
v 0.460531652 0.600043893 0.617920578
v 0.457244724 0.604507267 0.621837795
v 0.455751449 0.608608603 0.622809589
v 0.45415619 0.611325979 0.630404413
v 0.454121411 0.613917291 0.634544849
v 0.453589082 0.615527153 0.644390523
v 0.454408884 0.615732789 0.657102227
v 0.451508999 0.619783342 0.661741912
v 0.45316425 0.620597482 0.669446528
v 0.453098148 0.621700823 0.680108607
v 0.451194972 0.622191191 0.682689071
v 0.454076767 0.62023288 0.699537933
v 0.451138079 0.624310076 0.703954279
v 0.451616824 0.626312554 0.709033191
v 0.451517761 0.627429128 0.719405413
v 0.44689852 0.629281402 0.722695053
v 0.446268052 0.632427573 0.725399017
v 0.446553349 0.633139014 0.736466169
v 0.445158273 0.631649971 0.74640286
v 0.44335556 0.634533644 0.753024876
v 0.441968888 0.636981487 0.760476708
v 0.439954102 0.63761425 0.762666285
v 0.439328671 0.639268756 0.771630824
v 0.435651302 0.640176773 0.776684642
v 0.432077318 0.64098233 0.78192836
v 0.428483188 0.645722449 0.784769654
v 0.427432388 0.645363867 0.788865089
v 0.426358789 0.643592417 0.799085379
v 0.422554433 0.644654095 0.803776562
v 0.421777844 0.646480322 0.812190115
v 0.419189394 0.646298051 0.819245398
v 0.415871769 0.646874487 0.824822545
v 0.412372053 0.647643566 0.830016971
v 0.408231586 0.649073958 0.833935797
v 0.406498402 0.651895642 0.84030652
v 0.40414992 0.652898312 0.841710806
v 0.398308724 0.652223408 0.844519377
v 0.393611759 0.654228628 0.847327948
v 0.391217113 0.653896451 0.854554832
v 0.38663888 0.655785918 0.857570827
v 0.384085894 0.655627608 0.86443764
v 0.381202191 0.655811429 0.870642424
v 0.3753874 0.655139625 0.873438299
v 0.370711654 0.657135844 0.876234174
v 0.366035938 0.659132004 0.879030049
v 0.364354193 0.655671597 0.883771241
v 0.360206038 0.657145977 0.887530923
v 0.355537921 0.659138918 0.890322208
v 0.347921103 0.660259962 0.889786124
v 0.342108428 0.659588397 0.892580986
v 0.33977142 0.660586119 0.893978417
v 0.332849592 0.661000848 0.894760787
v 0.326940119 0.660418808 0.897391021
v 0.322262228 0.662415922 0.900188148
v 0.316444755 0.66174376 0.902985334
v 0.314105839 0.662742317 0.904383898
v 0.309427947 0.66473943 0.907181025
v 0.303719759 0.663962126 0.910171509
v 0.301349223 0.663743258 0.917030871
v 0.297876358 0.662075281 0.918427169
v 0.293206066 0.664069176 0.921219766
v 0.288535774 0.666063011 0.924012363
v 0.282727748 0.665391982 0.92680496
v 0.278057486 0.667385817 0.929597557
v 0.274584591 0.66571784 0.930993915
v 0.269914299 0.667711735 0.933786511
v 0.264106274 0.667040646 0.936579108
v 0.259436011 0.669034541 0.939371705
v 0.253627986 0.668363452 0.942164302
v 0.248957694 0.670357347 0.944956899
v 0.245484814 0.66868937 0.946353197
v 0.240814537 0.670683205 0.949145854
v 0.235006511 0.670012176 0.95193845
v 0.229113922 0.673132956 0.952706516
v 0.2256383 0.671463668 0.954103887
v 0.220964357 0.673459113 0.956898689
v 0.215151772 0.672787488 0.959693491
v 0.209339187 0.672115922 0.962488294
v 0.204665229 0.674111366 0.965283096
v 0.198852643 0.673439741 0.968077898
v 0.194840014 0.675952077 0.966774404
v 0.188449919 0.675794125 0.968655527
v 0.18376936 0.67779237 0.971454322
v 0.180106789 0.676283777 0.972563565
v 0.174285337 0.675611198 0.975362659
v 0.169604257 0.677609682 0.978161693
v 0.163310796 0.677355766 0.980218709
v 0.159811333 0.675698936 0.981591105
v 0.153490394 0.675464451 0.983614206
v 0.143387049 0.678544223 0.979768753
v 0.141038969 0.679546654 0.9811728
v 0.132420406 0.681297421 0.979693353
v 0.126297697 0.681901217 0.97706008
v 0.119666114 0.681893587 0.978694201
v 0.113486871 0.681490123 0.981028974
v 0.107044809 0.681310475 0.982969224
v 0.102792762 0.683944523 0.981510043
v 0.0966653377 0.683484912 0.983947694
v 0.0931538269 0.681798339 0.98535955
v 0.0863805115 0.685561657 0.985110223
v 0.0796465948 0.685607135 0.986663342
v 0.0781926289 0.681184232 0.996066809
v 0.0752768442 0.678999841 0.998354912
v 0.0714706257 0.680247605 1.0025177
v 0.064798519 0.680248976 1.00414741
v 0.0598818399 0.682430267 1.00667405
v 0.056246724 0.683539927 1.01107037
v 0.0529290065 0.68170017 1.01275218
v 0.049306117 0.679164886 1.01880932
v 0.0426796004 0.679127336 1.02051115
v 0.0381662399 0.681916356 1.01881576
v 0.0333379246 0.677684307 1.01997685
v 0.0126502113 0.696472168 0.998339534
v 0.0105122942 0.700016558 1.00327086
v 0.00832560286 0.700874031 1.00496626
v 0.00552332541 0.701298058 1.01057863
v 0.00190502929 0.702396154 1.01501894
v -0.00132328284 0.699523985 1.02161837
v -0.00292531517 0.696261764 1.02573109
v -0.00733096851 0.694374979 1.03063416
v -0.0135321328 0.690318346 1.03462613
v -0.0114925988 0.685048819 1.03905225
v -0.0230321102 0.685289979 1.03564441
v -0.0379610546 0.692700207 1.02135861
v -0.0457429215 0.697138667 1.020069
v -0.0489051342 0.694252729 1.02670598
v -0.0566821955 0.698675454 1.02545762
v -0.0588236377 0.695858717 1.02879357
v -0.0529141724 0.683941662 1.03994858
v -0.0584609471 0.681054413 1.03557253
v -0.0677897632 0.680248201 1.03074312
v -0.0682578608 0.673371136 1.03324223
v -0.0717995614 0.671670079 1.03466618
v -0.0781105384 0.668486297 1.03393424
v -0.102283537 0.68539989 1.01087916
v -0.101105064 0.680041432 1.01865768
v -0.107929386 0.679998159 1.02040398
v -0.11544314 0.676841497 1.0227958
v -0.116921239 0.674330056 1.02239108
v -0.116878897 0.667051196 1.02553213
v -0.136861682 0.673981249 1.00695574
v -0.139025122 0.667547762 1.01182616
v -0.145345688 0.667839944 1.00971186
v -0.174966455 0.681641459 0.978820086
v -0.179357499 0.680437446 0.979318202
v -0.193088666 0.681630373 0.973932445
v -0.196576953 0.680488706 0.970975339
v -0.206829429 0.67908603 0.970160484
v -0.206272066 0.675001502 0.972420394
v -0.224657804 0.679407418 0.961235762
v -0.235564798 0.679096878 0.955052853
v -0.238217339 0.677285373 0.953216791
v -0.244405434 0.673572779 0.953082681
v -0.249086142 0.672485113 0.953330696
v -0.269682735 0.678857386 0.93501395
v -0.26811868 0.670333505 0.940072238
v -0.278461218 0.669429898 0.93478024
v -0.287172228 0.671077192 0.930036664
v -0.287270308 0.663712442 0.932988048
v -0.300371379 0.664612532 0.924322844
v -0.306837976 0.661577821 0.919321239
v -0.320003629 0.666150689 0.909122229
v -0.324011534 0.661386847 0.907216012
v -0.346209079 0.668195486 0.887432814
v -0.350968719 0.666999221 0.887791932
v -0.3589921 0.664211333 0.885672212
v -0.371892005 0.664022684 0.882280469
v -0.371416062 0.659945011 0.884403169
v -0.384799451 0.660028577 0.880475342
v -0.389409482 0.659277737 0.876381814
v -0.401349425 0.658931315 0.869600236
v -0.406888008 0.654398322 0.870634973
v -0.413302779 0.650984347 0.865920007
v -0.427225113 0.655576885 0.85530442
v -0.4304519 0.650062621 0.854475915
v -0.439405471 0.648173571 0.846740007
v -0.445567191 0.644480765 0.842386246
v -0.451628059 0.640700221 0.838163853
v -0.471680909 0.419297308 0.266408324
v -0.471756607 0.427326769 0.2681804
v -0.469304085 0.434322029 0.267550379
v -0.46889022 0.442409813 0.263964474
v -0.532560945 0.477088034 0.159174457
v -0.529501736 0.475781977 0.157345206
v -0.531241715 0.47307381 0.144378692
v -0.52510643 0.470454484 0.140710086
v -0.526154697 0.467037767 0.135025278
v -0.52903682 0.469216675 0.118046291
v -0.526420295 0.468473643 0.109105535
v -0.529666841 0.466515154 0.0936579034
v -0.523689091 0.46398589 0.0896258503
v -0.51994729 0.462644637 0.0822467878
v -0.518190026 0.462359637 0.0718603134
v -0.514631748 0.461119324 0.0641376674
v -0.522342145 0.461495429 0.0416428819
v -0.519427359 0.460597187 0.0328295678
v -0.506484091 0.458753765 0.0369343646
v -0.503358066 0.457419157 0.0350651667
v -0.493064582 0.456970006 0.0351903141
v -0.489971578 0.455991268 0.0266019888
v -0.495636702 0.459705651 0.00443789409
v -0.507405758 0.461919963 -0.0181518774
v -0.50817585 0.463009387 -0.0329542272
v -0.51223892 0.461400419 -0.0505576283
v -0.514966905 0.459053397 -0.0661609769
v -0.521965265 0.463436455 -0.0909924358
v -0.525354683 0.461064339 -0.100829154
v -0.520793915 0.454803973 -0.105168946
v -0.524426818 0.452852517 -0.122470155
v -0.521194577 0.45147258 -0.124402888
v -0.525517762 0.449855715 -0.142913088
v -0.537990451 0.452155083 -0.167353243
v -0.533279181 0.445759803 -0.171621963
v -0.52941674 0.444362372 -0.179803908
v -0.524687886 0.442514509 -0.186624855
v -0.522696137 0.437524438 -0.195311755
v -0.54114455 0.443113059 -0.237129897
v -0.53783536 0.44170028 -0.239108622
v -0.492555112 0.409772635 -0.174931929
v -0.493949234 0.405967355 -0.174624562
v -0.500294745 0.39990285 -0.17256853
v -0.502051711 0.391776085 -0.170288786
v -0.502796888 0.383153975 -0.166380748
v -0.509201348 0.377135247 -0.164441198
v -0.512318254 0.369710088 -0.164370641
v -0.515479028 0.362306714 -0.164370641
v -0.518639743 0.354903311 -0.164370641
v -0.521800458 0.347499907 -0.164370641
v -0.52447468 0.339864403 -0.163592607
v -0.525123656 0.331274182 -0.159582168
v -0.526485384 0.323037803 -0.156719491
v -0.52664572 0.314255834 -0.151951104
v -0.530987263 0.307427496 -0.15384616
v -0.533545494 0.299773335 -0.152903363
v -0.534099579 0.291213542 -0.148784146
v -0.537456751 0.283935815 -0.149116412
v -0.539933443 0.276263326 -0.148054972
v -0.54145354 0.268172264 -0.145485133
v -0.543313026 0.260242432 -0.143457651
v -0.545643151 0.252527118 -0.142177075
v -0.548478246 0.245035827 -0.141694635
v -0.550548017 0.237219363 -0.140010849
v -0.553404868 0.229744688 -0.139566645
v -0.556820035 0.222506866 -0.13999863
v -0.559959948 0.215152279 -0.13999863
v -0.56191963 0.2073102 -0.138154015
v -0.564457178 0.199713364 -0.137216344
v -0.567544639 0.19234404 -0.137138307
v -0.56975615 0.184622914 -0.135696918
v -0.569374204 0.175783485 -0.13715446
v -0.574462533 0.173604757 -0.135700062
v -0.577598751 0.166258782 -0.135700062
v -0.580927491 0.158987775 -0.135998443
v -0.578653514 0.153698742 -0.136955708
v -0.579885721 0.145623475 -0.134006739
v -0.583578348 0.138497472 -0.134872347
v -0.591164827 0.132995874 -0.134856597
v -0.589285135 0.12360727 -0.134006739
v -0.591201484 0.120067783 -0.13454622
v -0.593007505 0.112239793 -0.132501498
v -0.595162451 0.104548365 -0.130999014
v -0.599082708 0.0975003988 -0.132212043
v -0.60291326 0.0904148147 -0.133284286
v -0.606045783 0.0830775276 -0.133284286
v -0.609178305 0.0757402331 -0.133284286
v -0.612310827 0.068402946 -0.133284286
v -0.615443289 0.0610656589 -0.133284286
v -0.61905241 0.0538901612 -0.134010687
v -0.618458509 0.0450068414 -0.135152817
v -0.621111929 0.0375104435 -0.134423271
v -0.623021424 0.0297726952 -0.132564113
v -0.62614882 0.0224397629 -0.132559761
v -0.629279077 0.0151077695 -0.132559761
v -0.632482231 0.00779900141 -0.132670239
v -0.632400215 -0.000904682034 -0.134591103
v -0.635961294 -0.00810271315 -0.135243252
v -0.63965565 -0.0152626513 -0.136095166
v -0.638578832 -0.0242727958 -0.136511967
v -0.641139388 -0.0276375171 -0.13801682
v -0.547824085 -0.0634544119 0.0141071463
v -0.549587011 -0.0581797473 0.0221498869
v -0.54480499 -0.0592373908 0.0357794762
v -0.534987509 -0.0575086027 0.061067529
v -0.537299454 -0.0521290563 0.0681431517
v -0.541163325 -0.0466443077 0.0665369481
v -0.545775712 -0.0405613109 0.0701832324
v -0.537787914 -0.0423236378 0.0946621895
v -0.545529842 -0.0356419049 0.0873334408
v -0.537413239 -0.0374768637 0.11185839
v -0.540451109 -0.0319320336 0.117716849
v -0.544116437 -0.026194958 0.122643888
v -0.532396436 -0.0292345081 0.152131245
v -0.530542731 -0.0252923854 0.164988354
v -0.533528626 -0.0240176078 0.166773796
v -0.5365206 -0.0224176757 0.174651712
v -0.543072999 -0.0158136636 0.175276577
v -0.545809329 -0.014302602 0.18348816
v -0.551520407 -0.0082788663 0.179271862
v -0.545749485 -0.0095215803 0.199622408
v -0.536509097 -0.0118918614 0.224791735
v -0.540974259 -0.00600299099 0.228321642
v -0.545439482 -0.000114120718 0.231851563
v -0.547080755 0.000717333634 0.235467836
v -0.543859661 0.00407461915 0.249818772
v -0.535878479 0.0093628373 0.262918174
v -0.533023179 0.0160508417 0.262918174
v -0.528029084 0.0220137052 0.265936494
v -0.525176406 0.0286955349 0.265936494
v -0.523172796 0.0356708691 0.264735252
v -0.520710051 0.042491585 0.264181525
v -0.520123124 0.0501942858 0.266869724
v -0.518696427 0.0535360351 0.266869724
v -0.516503513 0.060455624 0.265932947
v -0.513649344 0.0671410412 0.265932947
v -0.510795116 0.073826462 0.265932947
v -0.510452569 0.0814349279 0.262357414
v -0.508095801 0.0883133113 0.261643946
v -0.507432997 0.0958290845 0.258511156
v -0.508529842 0.104024306 0.252856106
v -0.504647255 0.110483631 0.260266542
v -0.50544554 0.118591182 0.255034685
v -0.50289768 0.125425652 0.25458023
v -0.502637565 0.133262202 0.256818324
v -0.501204967 0.136617839 0.256818324
v -0.499092728 0.143627718 0.255738854
v -0.498414814 0.151295707 0.258576512
v -0.496301651 0.158310428 0.257497609
v -0.496189684 0.166144624 0.253541648
v -0.495499521 0.173809364 0.256401241
v -0.497756839 0.182650164 0.249033481
v -0.494793564 0.185416684 0.257223815
v -0.495042533 0.193444848 0.252741307
v -0.493519515 0.200745955 0.250797749
v -0.492244393 0.208164692 0.254504502
v -0.490719736 0.215474516 0.252562016
v -0.490446836 0.219331175 0.256895155
v -0.489357501 0.226835862 0.254326284
v -0.488084882 0.234239146 0.258030951
v -0.489156008 0.242712379 0.252345651
v -0.4862881 0.245400637 0.260420918
v -0.487792253 0.254086703 0.254111916
v -0.48439455 0.260525018 0.260881484
v -0.484989256 0.268832117 0.25587818
v -0.485064715 0.276835352 0.257644475
v -0.485568136 0.285137177 0.252763122
v -0.483700931 0.288209677 0.259410739
v -0.484202325 0.296528459 0.254532039
v -0.483509362 0.30418244 0.257409662
v -0.483267546 0.312182546 0.253596336
v -0.482144028 0.315569848 0.259177983
v -0.481900603 0.323583215 0.255366713
v -0.480104953 0.330702305 0.25983876
v -0.480180502 0.33871749 0.261607677
v -0.479488909 0.346357167 0.264482915
v -0.478814691 0.350108773 0.263376594
v -0.478123546 0.357744604 0.266251236
v -0.477909029 0.365823805 0.262399703
v -0.477524459 0.36951524 0.266914397
v -0.477034569 0.377472728 0.263458908
v -0.475419164 0.384638608 0.267670363
v -0.475494742 0.392656296 0.269439816
v -0.474434465 0.400348544 0.266806394
v -0.474006325 0.408111751 0.269304454
v -0.474169016 0.412325293 0.266985714
v -0.473124862 0.415915191 0.266408324
g path_000000
l 1 967 966 965 964 963 962 961 960 959 958 957 956 955 954 953
g path_000001
l 2 3
g path_000002
l 4 5 6 7 8 9 10 11 12 13 14 15 16 17 18 19 20 21 22 23 24 25 26 27
g path_000003
l 28 29 30 31 32 33 34 35
g path_000004
l 36 37 38 39 40 41 42 43 44 45 46 47 48 49 50 51 52 53 54 55 56 57 58 59 60 61 62 63 64 65 66 67 68 69 70 71 72 73 74 75 76 77 78 79 80
g path_000005
l 81 82 83 84 85 86 87 88 89 90 91 92 93 94 95 96 97 98 99 100 101 102 103 104 105 106 107 108 109 110 111 112 113 114 115 116 117 118 119 120 121 122 123 124 125 126 127 128 129 130 131 132 133 134 135 136 137 138 139 140 141 142 143 144 145 146 147 148 149 150 151 152 153 154 155 156
g path_000006
l 157 158 159 160 161 162 163 164 165 166 167 168
g path_000007
l 169 170 171 172 173 174
g path_000008
l 175 176 177 178
g path_000009
l 179 180 181 182 183 184 185 186 187 188 189 190 191 192 193 194 195 196 197 198 199 200 201 202 203 204 205 206 207 208 209
g path_000010
l 210 211 212 213 214 215 216 217 218 219 220 221 222 223 224 225 226 227 228 229 230 231 232 233 234 235 236 237 238 239 240 241 242 243 244 245 246 247 248
g path_000011
l 249 250 251 252 253 254 255 256 257 258 259 260
g path_000012
l 261 262
g path_000013
l 263 264
g path_000014
l 267 268 269 270 271 272 273 274 275 276 277 278 279 280 281 282 283 284 285 286 287 288 289 290 291 292 293 294 295 296
g path_000015
l 300 301
g path_000016
l 302 303
g path_000017
l 304 305 306 307 308
g path_000018
l 309 310
g path_000019
l 311 312 313
g path_000020
l 314 315 316
g path_000021
l 317 318 319 320 321 322 323 324 325
g path_000022
l 329 330
g path_000023
l 334 335 336 337 338
g path_000024
l 340 341
g path_000025
l 343 344 345 346 347
g path_000026
l 348 349 350 351 352 353 354
g path_000027
l 357 358 359 360 361 362 363 364 365 366 367 368 369 370 371 372 373 374 375 376 377 378 379 380 381 382
g path_000028
l 383 384 385 386 387 388 389 390 391 392 393 394 395 396 397
g path_000029
l 399 400 401 402 403 404 405 406 407 408 409 410 411 412 413 414 415
g path_000030
l 416 417
g path_000031
l 418 419 420 421 422 423 424 425 426 427 428
g path_000032
l 429 430
g path_000033
l 432 433
g path_000034
l 436 437 438 439 440 441 442 443
g path_000035
l 444 445 446 447 448 449 450 451 452 453 454 455 456 457 458 459 460 461 462 463 464 465 466 467 468 469 470 471 472
g path_000036
l 473 474 475 476 477 478 479 480 481 482 483 484 485 486 487
g path_000037
l 488 489
g path_000038
l 490 491
g path_000039
l 493 494 495 496 497 498 499 500 501 502 503 504 505 506 507 508 509 510 511 512 513 514 515 516 517 518 519 520 521 522 523 524 525 526 527 528 529 530 531 532 533 534 535 536 537 538 539 540 541 542 543 544 545 546 547 548 549 550 551 552 553 554 555 556 557 558 559 560 561 562 563 564 565 566 567 568 569 570 571 572 573 574 575 576 577 578 579 580 581 582 583 584 585 586 587 588 589 590 591 592 593 594 595 596 597 598 599 600 601 602 603 604
g path_000040
l 605 606 607 608
g path_000041
l 609 610 611 612 613 614
g path_000042
l 615 616 617
g path_000043
l 618 619 620
g path_000044
l 621 622 623 624 625 626 627 628 629 630
g path_000045
l 631 632 633 634 635 636 637 638 639 640
g path_000046
l 641 642 643 644 645 646 647 648 649 650 651 652 653 654 655 656 657 658 659 660 661 662 663 664 665
g path_000047
l 667 668
g path_000048
l 669 670 671
g path_000049
l 672 673 674 675
g path_000050
l 676 677 678 679 680
g path_000051
l 681 682 683 684 685 686 687 688
g path_000052
l 689 690 691
g path_000053
l 692 693 694 695 696 697
g path_000054
l 699 700 701 702 703
g path_000055
l 705 706 707 708
g path_000056
l 709 710
g path_000057
l 711 712 713 714 715 716 717 718 719 720 721 722 723 724 725
g path_000058
l 726 727 728 729 730 731
g path_000059
l 732 733 734 735 736 737 738 739
g path_000060
l 740 741 742 743 744 745 746 747 748 749 750 751 752
g path_000061
l 753 754 755 756 757 758 759 760 761 762 763
g path_000062
l 764 765 766 767 768 769 770
g path_000063
l 771 772 773 774 775 776 777 778
g path_000064
l 779 780 781 782 783 784 785 786 787 788 789 790 791 792 793 794 795 796 797 798 799 800 801 802 803 804 805 806 807 808 809 810 811 812 813 814 815 816 817 818 819 820 821 822 823 824 825 826 827 828 829 830 831 832 833 834 835 836 837 838 839 840 841 842 843 844 845 846 847 848 849 850 851 852 853 854 855 856 857 858 859 860 861 862 863 864 865 866 867 868 869 870 871 872 873 874 875 876 877 878 879 880 881 882 883 884 885 886 887 888 889 890 891 892 893 894 895 896 897 898 899 900 901
g path_000065
l 902 903 904 905 906 907 908 909 910 911 912
g path_000066
l 913 914 915 916 917 918 919 920 921 922 923
g path_000067
l 924 925 926 927 928 929
g path_000068
l 930 931 932
g path_000069
l 933 934 935 936 937 938
g path_000070
l 939 940 941 942 943
g path_000071
l 944 945 946 947 948 949 950 951 952
g path_000072
l 971 970 969 968 1154 1153 1152 1151 1150 1149 1148 1147 1146 1145 1144 1143 1142 1141 1140 1139 1138 1137 1136 1135 1134 1133 1132 1131 1130 1129 1128 1127 1126 1125 1124 1123 1122 1121 1120 1119 1118 1117 1116 1115 1114 1113 1112 1111 1110 1109 1108 1107 1106 1105 1104 1103 1102 1101 1100 1099 1098 1097 1096 1095 1094 1093 1092 1091 1090 1089
g path_000073
l 972 973 974 975 976 977 978 979 980 981 982 983
g path_000074
l 984 985 986 987 988 989 990
g path_000075
l 991 992 993 994
g path_000076
l 995 996 997 998 999 1000
g path_000077
l 1001 1002 1003 1004 1005
g path_000078
l 1006 1007
g path_000079
l 1008 1009 1010 1011 1012 1013 1014 1015 1016 1017 1018 1019 1020 1021 1022 1023 1024 1025 1026 1027 1028 1029 1030 1031 1032 1033 1034 1035 1036 1037 1038 1039 1040 1041 1042 1043 1044 1045 1046 1047 1048 1049 1050 1051 1052 1053 1054 1055 1056 1057 1058 1059 1060 1061 1062 1063 1064 1065 1066 1067 1068
g path_000080
l 1069 1070 1071
g path_000081
l 1072 1073 1074 1075
g path_000082
l 1076 1077
g path_000083
l 1078 1079 1080
g path_000084
l 1081 1082 1083 1084 1085 1086 1087 1088
