# Fixed world centers; Z up; paths immutable
v 0.376929611 -0.552610636 1.00173914
v 0.380326778 -0.558208644 0.994502604
v 0.379309714 -0.568645775 0.987595439
v 0.381306142 -0.587032557 0.981071591
v 0.380219758 -0.598202825 0.974114358
v 0.380429804 -0.597720265 0.966457844
v 0.380405635 -0.599345565 0.958913505
v 0.380214065 -0.602479398 0.951438785
v 0.379310727 -0.61202389 0.944276989
v 0.379561812 -0.611178875 0.936563611
v 0.379849255 -0.61000663 0.928832889
v 0.382860929 -0.619073808 0.925379395
v 0.380681574 -0.640316606 0.918645859
v 0.380992025 -0.63894695 0.910851359
v 0.381302506 -0.637577355 0.90305692
v 0.381112874 -0.640755296 0.895444572
v 0.380912244 -0.644036353 0.887820601
v 0.381159335 -0.643246531 0.880031526
v 0.38114211 -0.644862711 0.872324467
v 0.383878678 -0.657655895 0.86494863
v 0.391343594 -0.662251353 0.865042627
v 0.394308478 -0.672586501 0.861447871
v 0.394430637 -0.673002541 0.853640795
v 0.393896788 -0.679595768 0.846005678
v 0.408152074 -0.583774686 0.835542023
v 0.415796191 -0.585507452 0.835542023
v 0.42357415 -0.585925579 0.83550638
v 0.431216031 -0.587657809 0.83550638
v 0.431308299 -0.588451564 0.827849329
v 0.431757987 -0.585671723 0.820100367
v 0.428090036 -0.584127843 0.816243947
v 0.420348555 -0.583354235 0.816265821
v 0.412778288 -0.580907345 0.81624949
v 0.392411888 -0.699892104 0.815056622
v 0.392727494 -0.698499739 0.80713284
v 0.392275423 -0.704350114 0.79934293
v 0.392591536 -0.702955544 0.791406572
v 0.393476933 -0.696186423 0.783389449
v 0.389133394 -0.699972332 0.779502034
v 0.380836695 -0.740394354 0.77609247
v 0.38063243 -0.743849754 0.768139362
v 0.380951792 -0.742440879 0.760121524
v 0.381010622 -0.743454695 0.752123356
v 0.381280363 -0.742508292 0.744104266
v 0.39802137 -0.662759066 0.735711694
v 0.402079344 -0.662195206 0.735705018
v 0.409889013 -0.663965523 0.735705018
v 0.417803138 -0.664704382 0.73570025
v 0.425912887 -0.663441539 0.735686243
v 0.430045277 -0.662881374 0.731746554
v 0.430537671 -0.6596843 0.723870397
v 0.430362642 -0.663257957 0.716002345
v 0.422727495 -0.659777343 0.716001868
v 0.414798111 -0.659238398 0.716002226
v 0.406645209 -0.660809994 0.71600306
v 0.398680031 -0.66049242 0.716003478
v 0.381644458 -0.784494281 0.707931578
v 0.381664187 -0.785918355 0.699816942
v 0.381472975 -0.789327383 0.691682577
v 0.379396051 -0.810471475 0.683412373
v 0.379541814 -0.810723543 0.675239921
v 0.378644586 -0.820790946 0.666961491
v 0.376539201 -0.922071576 0.657575428
v 0.379596531 -0.933470547 0.657450497
v 0.378417075 -0.946611583 0.648875058
v 0.3786062 -0.946541131 0.640452504
v 0.380785316 -0.927238822 0.632355571
v 0.379718333 -0.858335495 0.625225484
v 0.37930879 -0.823519826 0.621754169
v 0.380550891 -0.773797572 0.618650019
v 0.37948361 -0.709340572 0.611909866
v 0.362747282 -0.787968159 0.606010318
v 0.365331501 -0.728295088 0.603342175
v 0.357732683 -0.72314918 0.603423119
v 0.349820971 -0.720830917 0.603435516
v 0.341851383 -0.71902436 0.603435516
v 0.332712054 -0.727094889 0.603195667
v 0.341215968 -0.620211661 0.613674462
v 0.340038449 -0.59607774 0.618128479
v 0.332279921 -0.594319046 0.618128479
v 0.324645072 -0.622818232 0.625400424
v 0.326833844 -0.572181821 0.630299449
v 0.319114327 -0.570431948 0.630299449
v 0.304013014 -0.627134681 0.625226319
v 0.303163201 -0.602923572 0.621750295
v 0.296275526 -0.594789743 0.617946506
v 0.288502365 -0.593027711 0.617946506
v 0.279679686 -0.599116087 0.617776036
v 0.271892846 -0.597350955 0.617776036
v 0.268155932 -0.595778048 0.613847136
v 0.31626904 -0.216864482 0.615173221
v 0.316084862 -0.219031125 0.607888818
v 0.315663517 -0.196248591 0.601266503
v 0.309025824 -0.19133848 0.601358712
v 0.305621564 -0.189905554 0.597779512
v 0.303187251 -0.156355977 0.591560543
v 0.303328723 -0.155731812 0.588008463
v 0.306198865 -0.136330426 0.581508338
v 0.309566528 -0.138835415 0.574332654
v 0.30881682 -0.144878969 0.566986918
v 0.300552726 -0.15264672 0.559487045
v 0.301400423 -0.121907152 0.557091057
v 0.302101016 -0.117758311 0.55015403
v 0.300370932 -0.105157278 0.547100186
v 0.300651044 -0.103921592 0.540067911
v 0.300931156 -0.102685906 0.533035696
v 0.301820397 -0.0972500667 0.526203215
v 0.30039534 -0.0830561891 0.519779027
v 0.301317781 -0.077414684 0.513001323
v 0.301596403 -0.0761854723 0.506005943
v 0.299620986 -0.0659109429 0.499462545
v 0.300500631 -0.0605839826 0.492713541
v 0.307218283 -0.0396684967 0.486933589
v 0.310197413 -0.0439541414 0.483221442
v 0.309830099 -0.0471797511 0.476005912
v 0.306042254 -0.0494320393 0.468786448
v 0.304150671 -0.0383653864 0.465922654
v 0.303021193 -0.022250209 0.463402629
v 0.302879661 -0.0238623805 0.456298351
v 0.312216699 0.0150049543 0.451997191
v 0.314998001 0.00934607629 0.444717586
v 0.316866308 -0.00235904916 0.440468013
v 0.315737784 -0.0108454814 0.432878911
v 0.317070335 -0.00232072105 0.426521569
v 0.316297084 -0.00835444685 0.419080257
v 0.316572011 -0.00714169489 0.412178546
v 0.3163445 -0.00940413121 0.404999256
v 0.315507561 0.00847128127 0.399389207
v 0.315636724 0.00868406147 0.392426461
v 0.315910816 0.00989323854 0.385545105
v 0.313026547 0.0139245288 0.382333279
v 0.305560499 0.0110704694 0.381953776
v 0.302247733 0.0121885454 0.378488868
v 0.293397725 -8.10086385e-06 0.37378177
v 0.286564231 0.0013454837 0.370254695
v 0.279987544 0.0049475641 0.373945028
v 0.276152283 0.00306718773 0.373710692
v 0.269582719 0.00666808523 0.37739867
v 0.26705125 0.0133380843 0.381414413
v 0.254665405 -0.0200619511 0.374858826
v 0.25227806 -0.0129387118 0.371885359
v 0.254609674 -0.0211747512 0.364154279
v 0.254887104 -0.019950958 0.357189775
v 0.254464775 -0.0231016483 0.349815011
v 0.253161371 -0.0317625143 0.341897577
v 0.253439784 -0.0305342339 0.334907502
v 0.253718227 -0.0293059535 0.327917427
v 0.252607852 -0.0367645212 0.320049375
v 0.252886891 -0.0355335027 0.313043714
v 0.25166744 -0.0436780639 0.305056244
v 0.251947165 -0.0424440913 0.298033744
v 0.251796603 -0.0439028852 0.29071942
v 0.252018154 -0.0430334099 0.283651829
v 0.252030969 -0.0434706919 0.276436508
v 0.252311021 -0.0422352217 0.269405514
v 0.253080249 -0.0606489256 0.260192782
v 0.254043758 -0.055111099 0.253632784
v 0.252832979 -0.0632694587 0.245453864
v 0.252838165 -0.0637690946 0.238168597
v 0.252980709 -0.0634034947 0.230983362
v 0.25282985 -0.0648875087 0.223563939
v 0.253037751 -0.0641108006 0.216420934
v 0.253394157 -0.0623980463 0.209396541
v 0.256865472 -0.0637100935 0.205707267
v 0.264719456 -0.0599614531 0.206398293
v 0.268277377 -0.0598461442 0.213749051
v 0.272612303 -0.0549539924 0.21808365
v 0.279609382 -0.056540098 0.21808365
v 0.287236273 -0.0539373085 0.218613461
v 0.293275595 -0.0619208701 0.217804417
v 0.300276607 -0.0635078698 0.217804417
v 0.30399701 -0.0631373152 0.214341134
v 0.302792698 -0.0720923394 0.20596081
v 0.309653223 -0.0500904657 0.205302492
v 0.314896673 -0.0638126805 0.203724861
v 0.316198349 -0.0804581866 0.19803746
v 0.316108167 -0.0818370134 0.190595359
v 0.316390932 -0.0805896819 0.183496878
v 0.316532761 -0.0803351551 0.176263005
v 0.31647101 -0.0815158933 0.168827131
v 0.316318274 -0.0833388641 0.161292359
v 0.314635754 -0.0703830793 0.155730188
v 0.31521377 -0.0670662448 0.148937359
v 0.316369474 -0.0597007535 0.14274171
v 0.311249167 -0.0450260751 0.144647777
v 0.303483784 -0.0490891412 0.140202656
v 0.302487135 -0.0562386923 0.135524228
v 0.29912132 -0.0548219532 0.131985471
v 0.292744458 -0.0489627607 0.132619858
v 0.285738558 -0.0473746583 0.132619858
v 0.278732657 -0.0457865521 0.132619858
v 0.269541144 -0.0583279394 0.130517796
v 0.267222524 -0.0492707044 0.139010176
v 0.25461483 -0.083198078 0.133788884
v 0.252746135 -0.0953404754 0.128328606
v 0.253031552 -0.0940813795 0.121163182
v 0.252817869 -0.072749801 0.116920196
v 0.249632001 -0.0702992454 0.109850541
v 0.252047986 -0.0553940311 0.108491607
v 0.250413477 -0.0433431119 0.102952197
v 0.246959478 -0.0424473397 0.0993270129
v 0.239936695 -0.0408554114 0.0993270129
v 0.316288322 0.46641621 0.175789014
v 0.313945413 0.471222192 0.17327264
v 0.314190954 0.472305417 0.167108238
v 0.314436495 0.473388612 0.160943821
v 0.314682007 0.474471807 0.154779404
v 0.314927548 0.475555003 0.148614988
v 0.301744312 0.375860661 0.125568315
v 0.299415261 0.341290653 0.113258764
v 0.304590046 0.352628291 0.112024195
v 0.312177986 0.35900268 0.113362327
v 0.311804831 0.336447716 0.11292427
v 0.256933719 -0.051882904 0.0506979413
v 0.263822556 -0.0545121506 0.0505233668
v 0.271360755 -0.0529614538 0.0510563217
v 0.278406978 -0.0545586944 0.0510563217
v 0.286221474 -0.051058244 0.0519183241
v 0.292499363 -0.057753168 0.0510563217
v 0.299545556 -0.0593504049 0.0510563217
v 0.304903299 -0.0725799128 0.0490917414
v 0.315543711 -0.0496083461 0.0495910533
v 0.324230701 -0.0394439101 0.051585976
v 0.330889404 -0.0434984006 0.0511675291
v 0.337896883 -0.0450868644 0.0511675291
v 0.344052821 -0.0529413372 0.0501055792
v 0.351525873 -0.0511430353 0.0506797582
v 0.358807713 -0.0506965257 0.0510245599
v 0.36751619 -0.0392495915 0.0532311387
v 0.373376727 -0.0495870188 0.0517499521
v 0.379576415 -0.0575015545 0.0506797582
v 0.38658905 -0.0590911806 0.0506797582
v 0.393930852 -0.0580051765 0.0511319339
v 0.40093872 -0.0595937222 0.0511319339
v 0.408585787 -0.0558268987 0.0520362481
v 0.415876806 -0.0554986596 0.0487248152
v 0.419374824 -0.0562915914 0.0487248152
v 0.42671138 -0.0549100451 0.0492281355
v 0.434176028 -0.0522983335 0.0499396212
v 0.441079795 -0.0545965359 0.049818404
v 0.443925977 -0.0947181061 0.0396243632
v 0.442448735 -0.109586887 0.0297302399
v 0.443612665 -0.133029029 0.0221294574
v 0.442926198 -0.140751317 0.0133683253
v 0.441933393 -0.151310518 0.00407238025
v 0.442216069 -0.150088578 -0.00316288695
v 0.443582207 -0.172965586 -0.0146005955
v 0.442818284 -0.181515247 -0.0236608889
v 0.443049163 -0.180788815 -0.0310493391
v 0.442656785 -0.185880691 -0.0395221934
v 0.439529508 -0.181236684 -0.0425764583
v 0.432044864 -0.181941628 -0.0430147983
v 0.428364784 -0.182374179 -0.047019504
v 0.434175611 -0.197784424 -0.0533921383
v 0.441524148 -0.198608458 -0.0532369725
v 0.442363381 -0.192206368 -0.059586972
v 0.441545874 -0.201285183 -0.068898581
v 0.441707999 -0.201211929 -0.0764696375
v 0.441361785 -0.205894247 -0.0849785879
v 0.438284189 -0.201269582 -0.0918292254
v 0.434499562 -0.201089993 -0.0881576389
v 0.427240491 -0.199279949 -0.088125959
v 0.419406116 -0.202593654 -0.0891058743
v 0.41212073 -0.200942189 -0.0891058743
v 0.404548138 -0.201764911 -0.0895947665
v 0.397258312 -0.200112447 -0.0895947665
v 0.443037271 0.244197562 -0.00544733508
v 0.392709285 -0.208659738 -0.102897719
v 0.396364331 -0.209488273 -0.102897719
v 0.403943896 -0.208822772 -0.102432266
v 0.411484659 -0.208422288 -0.102020279
v 0.418786943 -0.210077569 -0.102020279
v 0.426089197 -0.211732849 -0.102020279
v 0.434390664 -0.204895332 -0.104127675
v 0.441823214 -0.2051965 -0.103856236
v 0.350078583 -1.10849762 -0.294456989
v 0.35860154 -1.1141603 -0.295195699
v 0.363610715 -1.1107353 -0.298948675
v 0.370545447 -1.13316143 -0.30777359
v 0.379721224 -1.13281703 -0.307289124
v 0.391426474 -1.10542631 -0.29663831
v 0.39669165 -1.09790993 -0.294905722
v 0.405558318 -1.0999198 -0.294905722
v 0.413635194 -1.11041605 -0.296629459
v 0.42289573 -1.10827863 -0.295786709
v 0.43145597 -1.11501241 -0.301387548
v 0.434877992 -1.12877977 -0.308644533
v 0.443964392 -1.1287446 -0.308223993
v 0.45506084 -1.103616 -0.298040867
v 0.463732034 -1.10647798 -0.293587118
v 0.472482711 -1.1097703 -0.293847442
v 0.48134008 -1.11177802 -0.293847442
v 0.490710855 -1.1086787 -0.297437668
v 0.494535238 -1.11904693 -0.30397588
v 0.502343774 -1.13520253 -0.306863785
v 0.511376321 -1.1353066 -0.306473643
v 0.522670984 -1.10186565 -0.294628412
v 0.527393162 -1.09846735 -0.293735415
v 0.535983324 -1.103778 -0.294407547
v 0.544406295 -1.11177027 -0.295623124
v 0.553285897 -1.1130687 -0.295480371
v 0.561967313 -1.12152171 -0.306033403
v 0.571820378 -1.03324556 -0.283234239
v 0.573074281 -1.0803932 -0.283467829
v 0.570073485 -1.12503457 -0.283232212
v 0.579181433 -1.12259078 -0.282343656
v 0.584766567 -1.10149562 -0.273337603
v 0.588898242 -1.10480309 -0.269203305
v 0.597625673 -1.10803342 -0.269447774
v 0.606413484 -1.11023498 -0.269488692
v 0.615051687 -1.11529696 -0.270094782
v 0.623139679 -1.13684118 -0.283188373
v 0.628786504 -1.11601472 -0.283435702
v 0.633875012 -1.10581708 -0.285783619
v 0.633075595 -1.12786651 -0.299441963
v 0.633659244 -1.12160909 -0.307389736
v 0.633360565 -1.13345373 -0.319061279
v 0.633660674 -1.1330235 -0.328222871
v 0.634071529 -1.13031745 -0.33690995
v 0.635244489 -1.11190939 -0.34226054
v 0.634952188 -1.03320312 -0.334851176
v 0.635300994 -1.03166425 -0.343609393
v 0.633819282 -0.976453543 -0.336391419
v 0.635928869 -0.939739704 -0.337354273
v 0.63289845 -0.919844449 -0.342109829
v 0.634773195 -0.888228178 -0.343977034
v 0.633592546 -0.831140459 -0.335854352
v 0.633927763 -0.829661727 -0.344269872
v 0.633947194 -0.75394696 -0.336026192
v 0.634146512 -0.754979014 -0.344880462
v 0.634459317 -0.675971925 -0.335463941
v 0.633127451 -0.629686356 -0.333378017
v 0.634288132 -0.610526323 -0.333098084
v 0.635082424 -0.600356579 -0.339072466
v 0.632492959 -0.578649759 -0.342485368
v 0.634973109 -0.537887931 -0.341044486
v 0.633221626 -0.500212193 -0.336321115
v 0.635380089 -0.465725929 -0.336147845
v 0.633605301 -0.432096064 -0.336271942
v 0.635132372 -0.409181029 -0.338701159
v 0.632949531 -0.383879453 -0.340670645
v 0.634330094 -0.363776058 -0.34363696
v 0.634503305 -0.297005892 -0.33106935
v 0.634802282 -0.29568705 -0.338574827
v 0.633571863 -0.256426603 -0.336625367
v 0.633868158 -0.255119532 -0.344063967
v 0.632977068 -0.209406763 -0.336385071
v 0.633270204 -0.2081137 -0.343743891
v 0.633138776 -0.152871519 -0.337207615
v 0.63343513 -0.151478872 -0.344439805
v 0.632692158 -0.105925359 -0.336408764
v 0.63297832 -0.104663186 -0.34359172
v 0.632558286 -0.0567842089 -0.338484168
v 0.634025455 -0.0365028083 -0.340441585
v 0.632932365 -0.000759263698 -0.338333905
v 0.633211374 0.000471581356 -0.345338583
v 0.633115709 0.0524971709 -0.334917396
v 0.634189725 0.0662181005 -0.338366896
v 0.63381362 0.110900275 -0.33334896
v 0.634231627 0.114365704 -0.339524955
v 0.633256733 0.148793206 -0.337153524
v 0.633600175 0.152576521 -0.339623362
v 0.633158445 0.194166526 -0.335041076
v 0.633473992 0.196090072 -0.341497183
v 0.633570373 0.244691685 -0.33465156
v 0.634112954 0.250024408 -0.340020508
v 0.631829798 0.263768941 -0.33967486
v 0.634143531 0.295121908 -0.337339729
v 0.633111656 0.325037748 -0.335529476
v 0.634720743 0.345830232 -0.33611533
v 0.63416034 0.38159433 -0.332345575
v 0.634776354 0.389183283 -0.333403856
v 0.633364439 0.411958486 -0.333391517
v 0.63429898 0.422770351 -0.336731672
v 0.634710193 0.470499367 -0.328913331
v 0.634957135 0.47158879 -0.335113078
v 0.63353461 0.492818236 -0.335265577
v 0.633657336 0.493359834 -0.338347703
v 0.635689378 0.561473548 -0.323683888
v 0.634547114 0.54357022 -0.335717976
v 0.633176565 0.56427604 -0.335770011
v 0.634078622 0.57540375 -0.335412681
v 0.632440269 0.591960669 -0.336680681
v 0.632051289 0.584597588 -0.345394075
v 0.634224534 0.651426494 -0.330263108
v 0.634341896 0.65194422 -0.333209485
v 0.634576619 0.652979672 -0.339102238
v 0.632187247 0.658553481 -0.34371689
v 0.634083152 0.719588697 -0.329918861
v 0.634313285 0.720603764 -0.335695684
v 0.631681085 0.722267687 -0.341472477
v 0.631796122 0.722775221 -0.344360888
v 0.635506272 0.768463016 -0.335012347
v 0.63497889 0.796346545 -0.331768692
v 0.634227812 0.820842206 -0.3295798
v 0.634339392 0.8213346 -0.332382053
v 0.634562671 0.822319448 -0.337986529
v 0.63200897 0.823933721 -0.343591005
v 0.632232189 0.824918509 -0.34919548
v 0.633716524 0.876198769 -0.337340027
v 0.636111557 0.937492847 -0.321742326
v 0.63632977 0.939313412 -0.323966593
v 0.63651067 0.939846218 -0.329515457
v 0.634084105 0.941817939 -0.33476755
v 0.634299219 0.942766845 -0.340168029
v 0.631730974 0.943847895 -0.342868268
v 0.631946087 0.94479686 -0.348268747
v 0.635431647 1.01655459 -0.328005224
v 0.635930479 1.02089345 -0.332021683
v 0.633592665 1.02388477 -0.333939761
v 0.633802235 1.02480912 -0.339200646
v 0.633486271 1.05040932 -0.335487098
v 0.631626904 1.02739036 -0.349669397
v 0.63396883 1.0832175 -0.334473878
v 0.634174407 1.08412421 -0.339633882
v 0.631795406 1.08600771 -0.341890931
v 0.632000864 1.08691406 -0.347049356
v 0.632783175 1.12361073 -0.338696629
v 0.632986009 1.12450576 -0.343789756
v 0.631511867 1.13607645 -0.342255384
v 0.629434526 1.14078844 -0.343358517
v 0.624730825 1.14470696 -0.344983429
v 0.619704306 1.14573824 -0.345024645
v 0.614577651 1.14573538 -0.345468491
v 0.60945791 1.14642799 -0.342936188
v 0.60443902 1.14756572 -0.342936188
v 0.599024415 1.14482522 -0.344444096
v 0.59392786 1.14528632 -0.344707906
v 0.588900626 1.14642584 -0.344707906
v 0.583873332 1.14756548 -0.344707906
v 0.578186989 1.14269245 -0.347049654
v 0.57623142 1.1488291 -0.342171341
v 0.571120143 1.1492219 -0.342461646
v 0.565489769 1.14510095 -0.344507486
v 0.560147583 1.14363027 -0.345524013
v 0.554871142 1.14279985 -0.346292138
v 0.549824297 1.14394391 -0.346292138
v 0.544777453 1.14508796 -0.346292138
v 0.539744079 1.1467123 -0.343385041
v 0.534582257 1.14692855 -0.343745679
v 0.529535413 1.1480726 -0.343745679
v 0.524488509 1.14921653 -0.343745679
v 0.519441664 1.15036058 -0.343745679
v 0.516816795 1.15048516 -0.341199219
v 0.51176995 1.15162921 -0.341199219
v 0.506723046 1.15277326 -0.341199219
v 0.500934899 1.14855504 -0.343284696
v 0.495411515 1.14637303 -0.344579756
v 0.489828616 1.14386189 -0.34600395
v 0.485183716 1.14821947 -0.342025131
v 0.479603589 1.14582419 -0.343401879
v 0.474517226 1.14686 -0.343445927
v 0.469142526 1.14597404 -0.344237417
v 0.464068919 1.14712417 -0.344237417
v 0.458995283 1.1482743 -0.344237417
v 0.453862697 1.14925098 -0.341570109
v 0.451282889 1.1495496 -0.341677487
v 0.446209252 1.15069962 -0.341677487
v 0.441135645 1.15184975 -0.341677487
v 0.435884625 1.15190732 -0.342102438
v 0.430120856 1.14886963 -0.343732238
v 0.424265891 1.14538121 -0.345538914
v 0.418830752 1.1444962 -0.346333116
v 0.413979203 1.14723825 -0.342969596
v 0.408887058 1.14839256 -0.342969596
v 0.403440416 1.14750993 -0.343761891
v 0.397442997 1.14354229 -0.345755249
v 0.392337412 1.14469957 -0.345755249
v 0.387129217 1.14540434 -0.343179166
v 0.382023633 1.14656162 -0.343179166
v 0.376918077 1.14771891 -0.343179166
v 0.371812493 1.14887631 -0.343179166
v 0.366706908 1.15003359 -0.343179166
v 0.361601323 1.151191 -0.343179166
v 0.356242985 1.15111208 -0.340907484
v 0.353556246 1.15099919 -0.341176182
v 0.348116934 1.15045595 -0.341837376
v 0.342086941 1.14694118 -0.343654573
v 0.336286068 1.14467335 -0.344988257
v 0.330764413 1.14386547 -0.345754892
v 0.325633913 1.14502847 -0.345754892
v 0.320432574 1.14584494 -0.345889866
v 0.315269798 1.14689958 -0.343166262
v 0.310139298 1.14806259 -0.343166262
v 0.305008799 1.14922559 -0.343166262
v 0.299878299 1.1503886 -0.343166262
v 0.293908745 1.14763582 -0.344690681
v 0.28824991 1.14639151 -0.345628917
v 0.286873847 1.1524955 -0.340711921
v 0.281023562 1.15037835 -0.341986984
v 0.275290459 1.14884984 -0.343034267
v 0.269287407 1.14615977 -0.344534308
v 0.263904214 1.1462903 -0.344937831
v 0.257677943 1.14272809 -0.346779585
v 0.253497273 1.14816916 -0.342338473
v 0.247722536 1.14664173 -0.343386114
v 0.241464764 1.14308858 -0.345222324
v 0.236299008 1.14425957 -0.345222324
v 0.231133267 1.14543056 -0.345222324
v 0.225863695 1.14614356 -0.342615873
v 0.220697954 1.14731443 -0.342615873
v 0.215532199 1.14848542 -0.342615873
v 0.210366458 1.14965641 -0.342615873
v 0.205200702 1.15082741 -0.342615873
v 0.200034946 1.1519984 -0.342615873
v 0.194869205 1.15316939 -0.342615873
v 0.192182511 1.15329683 -0.340009451
v 0.187016755 1.15446782 -0.340009451
v 0.181836709 1.1555829 -0.340031147
v 0.175516963 1.15228534 -0.34176901
v 0.168174863 1.14512837 -0.345009923
v 0.162984625 1.14630497 -0.345009923
v 0.157753304 1.14726055 -0.34229821
v 0.15249984 1.14819777 -0.342391133
v 0.147309601 1.14937437 -0.342391133
v 0.14164561 1.14879847 -0.343072623
v 0.134994283 1.14462352 -0.345154881
v 0.12979047 1.14580321 -0.345154881
v 0.124660037 1.14716518 -0.342279226
v 0.122058749 1.14775479 -0.342279226
v 0.116676375 1.14829075 -0.342529237
v 0.111472569 1.14947045 -0.342529237
v 0.106268764 1.15065002 -0.342529237
v 0.0992080942 1.14532745 -0.345059335
v 0.093674548 1.14540672 -0.345488787
v 0.088564977 1.14686465 -0.342569262
v 0.0831329226 1.1473099 -0.342855811
v 0.0779145509 1.14849269 -0.342855811
v 0.0726961792 1.14967561 -0.342855811
v 0.0674778074 1.15085852 -0.342855811
v 0.0600795746 1.14477241 -0.345685422
v 0.0562027805 1.15033257 -0.341166288
v 0.0495097525 1.14668059 -0.343045384
v 0.0434163064 1.14505279 -0.344139248
v 0.0381785631 1.14624012 -0.344139248
v 0.0329408199 1.14742744 -0.344139248
v 0.0277030747 1.14861476 -0.344139248
v 0.022360066 1.14933765 -0.341496497
v 0.0197411943 1.14993131 -0.341496497
v 0.0145034492 1.15111852 -0.341496497
v 0.00926570594 1.15230584 -0.341496497
v 0.0024110449 1.14846361 -0.343452841
v -0.00460597267 1.14418399 -0.345581144
v -0.0102599543 1.14415979 -0.346054584
v -0.0142756952 1.14900661 -0.341799706
v -0.0204856396 1.14729345 -0.342928171
v -0.0261467118 1.14727068 -0.343400419
v -0.0314070582 1.14846301 -0.343400419
v -0.0366674028 1.14965546 -0.343400419
v -0.0419277474 1.15084791 -0.343400419
v -0.0472938158 1.1515739 -0.340746254
v -0.0499239862 1.15217018 -0.340746254
v -0.0551843345 1.15336251 -0.340746254
v -0.0604973398 1.15440249 -0.34080556
v -0.0674750954 1.15065289 -0.342728108
v -0.0753956288 1.14426541 -0.345679045
v -0.0806805566 1.14546335 -0.345679045
v -0.0860716999 1.14619279 -0.343012482
v -0.0913566276 1.14739084 -0.343012482
v -0.0966415554 1.14858878 -0.343012482
v -0.101926483 1.14978683 -0.343012482
v -0.107211411 1.15098476 -0.343012482
v -0.112496339 1.15218282 -0.343012482
v -0.115245014 1.15231323 -0.340345919
v -0.120620169 1.1532656 -0.340441346
v -0.127691507 1.14962983 -0.342320383
v -0.135671407 1.1436038 -0.345130652
v -0.141762495 1.14271402 -0.34594503
v -0.147075459 1.1439184 -0.34594503
v -0.152008668 1.14593923 -0.342764318
v -0.157319129 1.14714301 -0.342764318
v -0.163121164 1.14706039 -0.343264312
v -0.168434128 1.14826477 -0.343264312
v -0.173747107 1.14946914 -0.343264312
v -0.179060072 1.15067351 -0.343264312
v -0.184479833 1.15140676 -0.340583593
v -0.189792797 1.15261114 -0.340583593
v -0.195105776 1.15381551 -0.340583593
v -0.200418741 1.15501976 -0.340583593
v -0.207307756 1.15227544 -0.342119753
v -0.216342181 1.14422655 -0.345721841
v -0.221681014 1.14543676 -0.345721841
v -0.223550513 1.14781165 -0.342156857
v -0.229796574 1.1467787 -0.343028098
v -0.235135406 1.14798892 -0.343028098
v -0.240474254 1.14919913 -0.343028098
v -0.245813087 1.15040934 -0.343028098
v -0.251151919 1.15161955 -0.343028098
v -0.256598055 1.15235639 -0.340334326
v -0.263765931 1.14920592 -0.342028677
v -0.269956142 1.14841902 -0.342805803
v -0.277445495 1.14458656 -0.344768018
v -0.282875746 1.1456399 -0.344831049
v -0.288237333 1.14685524 -0.344831049
v -0.293637067 1.14775717 -0.34206292
v -0.296387494 1.1482029 -0.342125803
v -0.30174908 1.14941823 -0.342125803
v -0.307110667 1.15063369 -0.342125803
v -0.313605487 1.1492604 -0.343132704
v -0.320995033 1.14587891 -0.344922006
v -0.328597337 1.14206135 -0.346882671
v -0.331854612 1.14783943 -0.342209578
v -0.337230384 1.1490581 -0.342209578
v -0.344862729 1.14524639 -0.344165236
v -0.350248456 1.14646721 -0.344165236
v -0.355634183 1.14768803 -0.344165236
v -0.361019909 1.14890885 -0.344165236
v -0.366513878 1.14965224 -0.3414478
v -0.371899575 1.15087306 -0.3414478
v -0.377285302 1.15209389 -0.3414478
v -0.382671028 1.15331471 -0.3414478
v -0.38936314 1.15173244 -0.342538536
v -0.395820558 1.15067768 -0.343424857
v -0.401324779 1.15142238 -0.340702355
v -0.404022694 1.15203404 -0.340702355
v -0.411239505 1.14941287 -0.342196435
v -0.419406533 1.14483058 -0.344454378
v -0.424821496 1.14605796 -0.344454378
v -0.430236489 1.14728546 -0.344454378
v -0.435651481 1.14851296 -0.344454378
v -0.441175282 1.1492604 -0.34172219
v -0.446590275 1.15048778 -0.34172219
v -0.452005267 1.15171528 -0.34172219
v -0.45742023 1.15294278 -0.34172219
v -0.46489498 1.14999664 -0.343346357
v -0.47455436 1.14268124 -0.346673131
v -0.479994714 1.14391446 -0.346673131
v -0.482114196 1.14547157 -0.343375355
v -0.488264591 1.14528191 -0.343928158
v -0.493704945 1.14651513 -0.343928158
v -0.499145299 1.14774835 -0.343928158
v -0.504585683 1.14898157 -0.343928158
v -0.513026834 1.14433277 -0.346218586
v -0.521870613 1.13894951 -0.348797292
v -0.521644413 1.15097785 -0.341657758
v -0.529492795 1.14755714 -0.343467653
v -0.535786808 1.14717102 -0.344098657
v -0.543841958 1.14342046 -0.346039683
v -0.549307346 1.1446594 -0.346039683
v -0.551225066 1.14655721 -0.342597395
v -0.55761528 1.14603317 -0.343282074
v -0.563080668 1.14727211 -0.343282074
v -0.568546057 1.14851093 -0.343282074
v -0.574011385 1.14974988 -0.343282074
v -0.579476774 1.15098882 -0.343282074
v -0.586923659 1.14826465 -0.341875374
v -0.593409598 1.14762914 -0.34260425
v -0.59976089 1.14725757 -0.343231231
v -0.605240285 1.14849973 -0.343231231
v -0.612660885 1.14619362 -0.344611734
v -0.618147433 1.14743733 -0.344611734
v -0.62491411 1.1460737 -0.342667043
v -0.632121682 1.14421856 -0.343871385
v -0.63384068 1.14612067 -0.337453216
v -0.636265337 1.14703321 -0.334382415
v -0.636110842 1.1467346 -0.328582674
v -0.635371685 1.14748847 -0.322384715
v -0.635592163 1.14651561 -0.316848576
v -0.635314763 1.14643919 -0.310974687
v -0.637169361 1.1483674 -0.30753386
v -0.63738966 1.14739549 -0.302003175
v -0.637609959 1.1464237 -0.29647246
v -0.63710767 1.14675093 -0.290462047
v -0.635549366 1.14342785 -0.285569251
v -0.633442938 1.13579118 -0.284964502
v -0.634502113 1.12797999 -0.28463617
v -0.632438481 1.12017441 -0.284062862
v -0.630614638 1.11755431 -0.281823367
v -0.619940817 1.12517309 -0.272706091
v -0.620022535 1.11906087 -0.271723747
v -0.61831665 1.11621773 -0.269560874
v -0.612219155 1.11604261 -0.269176573
v -0.614859819 1.09937108 -0.271713346
v -0.632699549 1.0601095 -0.28245756
v -0.631402493 1.05047107 -0.282405019
v -0.623715103 1.05866385 -0.276270956
v -0.620936215 1.05739939 -0.270473719
v -0.617467821 1.05179226 -0.26897952
v -0.611221075 1.05169654 -0.268567979
v -0.622566521 1.0239172 -0.275000662
v -0.633247077 0.991179585 -0.282866001
v -0.626011074 0.992461383 -0.278904021
v -0.625714183 0.992742002 -0.27574116
v -0.620807767 0.989289641 -0.270349562
v -0.614673436 0.988769472 -0.270083219
v -0.614518523 0.976375043 -0.270799845
v -0.611317515 0.976356506 -0.270584136
v -0.623054087 0.940346658 -0.276181132
v -0.623839378 0.932173491 -0.275606602
v -0.6205706 0.931632519 -0.269336998
v -0.619562507 0.927225947 -0.270591795
v -0.613127768 0.927087128 -0.270195425
v -0.610220969 0.919677854 -0.26911056
v -0.633501768 0.859762788 -0.282283008
v -0.623029113 0.874049544 -0.277326733
v -0.6227265 0.867476881 -0.272940427
v -0.619876981 0.866277456 -0.269944489
v -0.613691568 0.865430593 -0.269780904
v -0.61346221 0.852248132 -0.270479381
v -0.624772429 0.815499663 -0.278818965
v -0.628620088 0.800545037 -0.280232012
v -0.625498056 0.799475491 -0.273899436
v -0.626240849 0.79078269 -0.273242652
v -0.635171592 0.764959097 -0.274789125
v -0.634691358 0.765365422 -0.268145502
v -0.634937048 0.764281511 -0.261976928
v -0.633040547 0.76091218 -0.259561777
v -0.634559274 0.743158877 -0.258145481
v -0.63148576 0.742462218 -0.258145481
v -0.629694939 0.731421769 -0.254586041
v -0.620490074 0.743215919 -0.247462019
v -0.634378076 0.706465602 -0.251956284
v -0.636429191 0.701884031 -0.250052631
v -0.636120677 0.70195061 -0.24342756
v -0.636370361 0.700848997 -0.237158373
v -0.63545233 0.695264399 -0.235319927
v -0.633832574 0.683577061 -0.231768236
v -0.633473635 0.669419944 -0.232228175
v -0.628080249 0.673512459 -0.230807096
v -0.633835018 0.645905077 -0.231863037
v -0.625946462 0.655320346 -0.228888586
v -0.62467593 0.642842591 -0.22878857
v -0.631828368 0.611795664 -0.230700806
v -0.623709857 0.621762037 -0.227599308
v -0.623433471 0.60686177 -0.228130594
v -0.617070377 0.605419397 -0.228130594
v -0.615709722 0.592998266 -0.231301129
v -0.613332331 0.582715034 -0.233851761
v -0.606930614 0.58126384 -0.233851761
v -0.600528896 0.579812706 -0.233851761
v -0.594127178 0.578361571 -0.233851761
v -0.449041396 0.888360262 -0.141034275
v -0.444883674 0.890291691 -0.13722302
v -0.447894573 0.890434563 -0.134302065
v -0.447479904 0.890863657 -0.128048241
v -0.446274519 0.885901451 -0.12313062
v -0.439926714 0.885845959 -0.122777529
v -0.43413651 0.884533465 -0.122777529
v -0.428346336 0.883220911 -0.122777529
v -0.422002465 0.883181095 -0.122420691
v -0.415104836 0.884432852 -0.121702164
v -0.409322113 0.883121967 -0.121702164
v -0.401914656 0.885842502 -0.123631008
v -0.396138728 0.884533167 -0.123631008
v -0.615051925 0.353602737 -0.268749058
v -0.615259886 0.344311059 -0.271132529
v -0.621100903 0.312439471 -0.27597329
v -0.379139483 0.87911582 -0.114875093
v -0.381472826 0.888104916 -0.106648058
v -0.388782889 0.885754883 -0.107655831
v -0.394548982 0.887061894 -0.107655831
v -0.401180953 0.886348426 -0.108213358
v -0.40695098 0.887656391 -0.108213358
v -0.412720978 0.888964295 -0.108213358
v -0.418490976 0.89027226 -0.108213358
v -0.424260974 0.891580224 -0.108213358
v -0.431825191 0.888802826 -0.109343089
v -0.43783766 0.889581084 -0.109490126
v -0.444550782 0.888784349 -0.110073209
v -0.447481662 0.889100075 -0.107107602
v -0.447010428 0.889658093 -0.100838669
v -0.447343409 0.888406634 -0.0950678959
v -0.447635591 0.887246966 -0.0892714262
v -0.444918036 0.885701656 -0.0834023058
v -0.445150375 0.884676754 -0.0775695071
v -0.445556611 0.883259237 -0.0718401372
v -0.439301461 0.883024812 -0.0715567991
v -0.433522701 0.88171488 -0.0715567991
v -0.427579612 0.880781353 -0.0714577585
v -0.421052217 0.881196439 -0.0710041225
v -0.414703935 0.881214201 -0.0706553385
v -0.408706427 0.880429626 -0.070517689
v -0.402935326 0.879121423 -0.070517689
v -0.394981593 0.883176029 -0.0721510276
v -0.391544968 0.883830726 -0.0718064383
v -0.385785758 0.882525206 -0.0718064383
v -0.380026519 0.881219745 -0.0718064383
v -0.375990838 0.875562549 -0.0699074343
v -0.37656936 0.873711526 -0.0643036962
v -0.38004306 0.872489691 -0.0587029718
v -0.382927984 0.873143673 -0.0587029718
v -0.38919577 0.873273611 -0.0590072498
v -0.396811277 0.870242476 -0.0601286329
v -0.402698696 0.871302307 -0.0601933822
v -0.408479691 0.872612774 -0.0601933822
v -0.415375918 0.87133646 -0.0608627014
v -0.422653615 0.869204938 -0.0617539845
v -0.426550388 0.874626696 -0.0576389097
v -0.432334095 0.87593776 -0.0576389097
v -0.440457582 0.871926069 -0.0590131432
v -0.446881145 0.871814191 -0.0593812838
v -0.444933146 0.875724733 -0.0522661693
v -0.446681976 0.871264815 -0.0472991019
v -0.447715759 0.868423343 -0.0419098921
v -0.44505012 0.866738319 -0.0360596776
v -0.445387572 0.865473092 -0.0302683003
v -0.446442246 0.86257863 -0.0248768106
v -0.443978757 0.860676587 -0.0221285094
v -0.438255161 0.859179914 -0.0221728925
v -0.432814389 0.857031167 -0.0223768372
v -0.42509535 0.860383451 -0.0242853854
v -0.419856995 0.857772887 -0.0246037506
v -0.414057732 0.856458306 -0.0246037506
v -0.408258498 0.855143726 -0.0246037506
v -0.400739819 0.857881069 -0.0236101281
v -0.394948363 0.856568277 -0.0236101281
v -0.389156878 0.855255485 -0.0236101281
v -0.382331222 0.856416643 -0.0230042413
v -0.376439065 0.855358481 -0.0229421798
v -0.375029206 0.850894511 -0.020825807
v -0.380932629 0.843852103 -0.0165934246
v -0.388555765 0.840818584 -0.0176454354
v -0.395439923 0.839587927 -0.0182621088
v -0.401591659 0.840117753 -0.0184531491
v -0.408174992 0.839637995 -0.0188888554
v -0.4148601 0.838937402 -0.0193784498
v -0.420687556 0.84025836 -0.0193784498
v -0.426620245 0.841090262 -0.0164314751
v -0.432721227 0.841778874 -0.0165842511
v -0.438850075 0.842409551 -0.0167511553
v -0.444852144 0.843337119 -0.016846424
v -0.447884679 0.843481004 -0.0139044765
v -0.447946489 0.842841208 -0.00792646222
v -0.446133316 0.839160323 -0.00251360005
v -0.447620362 0.835257232 0.00270006387
v -0.44481805 0.834077656 0.00564634381
v -0.445934445 0.831017613 0.0110699181
v -0.445144296 0.824952602 0.0159639698
v -0.439674973 0.822741807 0.0157610327
v -0.444975942 0.802501321 0.0174518563
v -0.448038727 0.802646637 0.0204231571
v -0.445141703 0.801374137 0.0264643002
v -0.445202529 0.793223321 0.0309744366
v -0.445321113 0.792700231 0.0339515433
v -0.443710774 0.788413167 0.0393418185
v -0.444683969 0.778317451 0.0403787792
v -0.440109462 0.773561895 0.0427399725
v -0.445090145 0.75368005 0.0448168032
v -0.445854962 0.743662715 0.0490692817
v -0.4428657 0.742985129 0.0490692817
v -0.44290781 0.726809204 0.0522006825
v -0.440301567 0.725183129 0.0520013534
v -0.443772137 0.700845718 0.0503250211
v -0.437835902 0.699201405 0.0502677895
v -0.326762974 0.952074587 0.106455244
v -0.32258895 0.954604149 0.110020757
v -0.322812319 0.953618765 0.115628488
v -0.31998232 0.952673197 0.121372491
v -0.31600371 0.954756737 0.124824703
v -0.312820494 0.954690278 0.13073495
v -0.310270071 0.953078091 0.136332259
v -0.310381562 0.952586293 0.13913092
v -0.303092778 0.955197275 0.145675883
v -0.300435305 0.954078674 0.14846988
v -0.297889143 0.95246911 0.154057905
v -0.29523167 0.95135057 0.156851903
v -0.288995028 0.951419652 0.162876189
v -0.285062879 0.953505278 0.166270658
v -0.279640317 0.951778948 0.169062495
v -0.27698791 0.950662494 0.171851218
v -0.269379467 0.954493642 0.175670996
v -0.266273588 0.946670055 0.180214345
v -0.261326462 0.951639712 0.181237802
v -0.255777568 0.950269341 0.18408832
v -0.255441606 0.943184257 0.18579182
v -0.252563089 0.934850156 0.187395826
v -0.24893415 0.928404331 0.189351216
v -0.25653097 0.908361971 0.188676566
v -0.256755471 0.907371581 0.194312751
v -0.256807208 0.906832516 0.200027391
v -0.2559008 0.908797204 0.206170425
v -0.256125063 0.907807946 0.211800143
v -0.255736738 0.908419669 0.217698663
v -0.255960852 0.907430947 0.223325342
v -0.255850017 0.907317996 0.229095623
v -0.255301535 0.908349514 0.235047936
v -0.253428966 0.905125082 0.237520486
v -0.318020284 0.718483269 0.213825941
v -0.318258286 0.717433393 0.219800785
v -0.318496257 0.716383517 0.225775614
v -0.318734258 0.715333641 0.231750458
v -0.317679644 0.717693329 0.238240898
v -0.317917377 0.716644585 0.244209275
v -0.31815508 0.715595841 0.250177652
v -0.317472011 0.716976941 0.25649932
v -0.317700505 0.715952873 0.26246655
v -0.317437142 0.707950413 0.264478475
v -0.314081937 0.69977659 0.263505727
v -0.310497254 0.691935003 0.265656531
v -0.311861277 0.679418087 0.267068565
v -0.301437676 0.698345721 0.275950491
v -0.247347683 0.85171479 0.302920818
v -0.252989292 0.852993608 0.302920818
v -0.255612493 0.853960693 0.305879623
v -0.253347665 0.859593928 0.312457979
v -0.253724933 0.866304934 0.319068849
v -0.255995691 0.867964387 0.32499671
v -0.25430733 0.87223798 0.328442723
v -0.254532486 0.871244669 0.334095597
v -0.254074723 0.872060895 0.339974761
v -0.253309488 0.873692274 0.345947325
v -0.25551489 0.875491738 0.351853371
v -0.255284905 0.867664397 0.356753886
v -0.255089819 0.859907031 0.35879603
v -0.253579348 0.855421782 0.36412856
v -0.25242272 0.849974573 0.369362116
v -0.24829942 0.852653623 0.372633517
v -0.242297083 0.860404551 0.376467735
v -0.237158939 0.857688189 0.379188508
v -0.231555015 0.856417894 0.379188508
v -0.227257162 0.851389408 0.381655991
v -0.249831185 0.772481918 0.376047999
v -0.247468814 0.770221174 0.378831774
v -0.246660814 0.772065103 0.384944707
v -0.243901357 0.770903587 0.387845963
v -0.239963353 0.773008764 0.391088754
v -0.235547245 0.77627337 0.397391498
v -0.229581907 0.775431573 0.400383294
v -0.191001311 0.874723971 0.413387358
v -0.190154657 0.876739502 0.419281095
v -0.190377384 0.875756919 0.424873024
v -0.190075338 0.876246095 0.430604756
v -0.189707726 0.876919568 0.436347991
v -0.188991129 0.878572404 0.442174256
v -0.188872606 0.878547907 0.44784081
v -0.191511884 0.879166365 0.453505188
v -0.191734046 0.878186285 0.459082752
v -0.191917032 0.877315879 0.464669526
v -0.191985205 0.87676686 0.470282137
v -0.19128713 0.878363013 0.476064324
v -0.190905452 0.879073858 0.481767833
v -0.19112727 0.878095388 0.487336457
v -0.191349074 0.877116859 0.49290508
v -0.191570878 0.87613833 0.498473734
v -0.191792697 0.87515986 0.504042387
v -0.1920145 0.87418133 0.509611011
v -0.192236304 0.873202801 0.515179634
v -0.191088542 0.876061976 0.520996749
v -0.191143095 0.875552654 0.526587665
v -0.190548703 0.876862288 0.532287776
v -0.188968837 0.880934834 0.538142681
v -0.189189792 0.87996012 0.543689668
v -0.189410731 0.878985405 0.549236715
v -0.189631686 0.87801069 0.554783702
v -0.18985264 0.877036035 0.560330749
v -0.19007358 0.87606132 0.565877736
v -0.190294534 0.875086606 0.571424723
v -0.190488085 0.874188721 0.576975286
v -0.189697221 0.876052916 0.582647502
v -0.193595335 0.873272836 0.58529228
v -0.193816289 0.872298121 0.590839326
v -0.192740947 0.874951482 0.596529603
v -0.192798078 0.874435723 0.60208714
v -0.192093372 0.876052856 0.607719302
v -0.19175157 0.876654506 0.613307357
v -0.191971913 0.875682473 0.618839085
v -0.192192256 0.874710441 0.624370873
v -0.192130566 0.874528348 0.629925013
v -0.191866204 0.87491411 0.635491252
v -0.191771239 0.874825656 0.641040802
v -0.191392303 0.875533044 0.646605194
v -0.191464871 0.874975681 0.652136862
v -0.188364953 0.866874576 0.654770553
v -0.186564118 0.855194569 0.654561937
v -0.184207246 0.844981849 0.654382825
v -0.181722298 0.835034907 0.654209197
v -0.181377083 0.818822801 0.653910577
v -0.191434115 0.780916393 0.656017065
v -0.191560686 0.780206382 0.66170305
v -0.191120923 0.781133652 0.667413056
v -0.191421911 0.779919624 0.67308706
v -0.185795903 0.778644323 0.67308706
v -0.179601103 0.779032409 0.673109472
v -0.173694462 0.77859211 0.673120737
v -0.177072689 0.75936693 0.678588629
v -0.176306903 0.761294246 0.684322357
v -0.168197006 0.767319262 0.684394002
v -0.165379584 0.766680598 0.684394002
v -0.158940598 0.767810524 0.684417546
v -0.16211091 0.739874005 0.687026262
v -0.154862121 0.743345141 0.687068462
v -0.147965387 0.745800018 0.687101662
v -0.156764999 0.700186253 0.686708689
v -0.150845602 0.699428797 0.686713457
v -0.146602556 0.693477452 0.68667227
v -0.142861053 0.685904324 0.686616778
v -0.114468612 0.755660534 0.687245727
v -0.106313072 0.762352824 0.687316239
v -0.0989274904 0.766695738 0.68736589
v -0.0990486965 0.747098207 0.687203884
v -0.0934070647 0.74581933 0.687203884
v -0.0902016759 0.736650705 0.687134206
v -0.0945044979 0.702914417 0.686847687
v -0.0935946628 0.685862303 0.686708629
v -0.0851499811 0.693477452 0.686787307
v -0.0798971206 0.690605104 0.686773419
v -0.0894869193 0.638095498 0.686322033
v -0.0503790751 0.748766124 0.687308729
v -0.0455349945 0.744863868 0.687285602
v -0.0399100594 0.743588805 0.687285602
v -0.0493828766 0.690513492 0.686829746
v -0.0413512886 0.697207391 0.68690002
v -0.110959142 0.445358485 0.687800825
v -0.379336238 -0.513867021 0.684228539
v -0.37907055 -0.498656422 0.692255735
v -0.379365534 -0.499976814 0.700173497
v -0.383446157 -0.499783188 0.704132199
v -0.383761525 -0.50117439 0.712049603
v -0.432755917 -0.656309605 0.720149815
v -0.382667691 -0.483554065 0.727826059
v -0.381595641 -0.480149776 0.73568517
v -0.382356584 -0.483079195 0.743568778
v -0.380356371 -0.490707695 0.747552335
v -0.379347235 -0.487505019 0.755396783
v -0.383888125 -0.474784732 0.763138354
v -0.383668363 -0.474178791 0.767051041
v -0.384534121 -0.477463931 0.77493161
v -0.380953789 -0.479727179 0.78278923
v -0.381266773 -0.48110792 0.790646911
v -0.382082701 -0.484227449 0.79853797
v -0.382905483 -0.487371027 0.806435823
v -0.413944483 -0.580337226 0.816411436
v -0.42293933 -0.58208257 0.816492558
v -0.431535751 -0.58242631 0.816541672
v -0.434156746 -0.577064037 0.820439517
v -0.434487432 -0.578511894 0.828472257
v -0.431866467 -0.584359646 0.83660084
v -0.423557311 -0.584988713 0.836568654
v -0.415082246 -0.585030496 0.836520493
v -0.381419539 -0.497798294 0.838005066
v -0.3815763 -0.498489857 0.841940641
v -0.38230297 -0.501306772 0.849856198
v -0.382909417 -0.503706634 0.857763171
v -0.383223146 -0.505090535 0.865638793
v -0.383838743 -0.507522404 0.873552442
v -0.380119532 -0.509339213 0.881412745
v -0.381053209 -0.512882471 0.889375448
v -0.381855786 -0.515969455 0.897326887
v -0.382827818 -0.519646883 0.905310035
v -0.38384068 -0.523466825 0.913307786
v -0.380244613 -0.525740027 0.921199918
v -0.380558997 -0.527126849 0.92909205
v -0.380999088 -0.528953254 0.937006414
v -0.381787241 -0.531996548 0.944985986
v -0.382540494 -0.534917951 0.952964783
v -0.383299351 -0.537859201 0.960950196
v -0.384055972 -0.540792942 0.968940675
v -0.380297035 -0.542375147 0.972892821
v -0.380983889 -0.545069456 0.980875671
v -0.381595254 -0.547498941 0.988846779
v -0.382593244 -0.551285326 0.996908128
v -0.378350556 -0.551180184 1.00075519
v -0.370093495 -0.551472247 1.00065923
v -0.361736059 -0.551386058 1.00053883
v -0.353197873 -0.550625324 1.00037491
v -0.344778866 -0.550261199 1.00023687
v -0.336532652 -0.550496995 1.00013757
v -0.328213274 -0.550443351 1.00001967
v -0.319925249 -0.550480127 0.999907732
v -0.31161052 -0.550393283 0.999787867
v -0.303601444 -0.55142498 0.999740243
v -0.295198679 -0.550961673 0.999596298
v -0.286798567 -0.55047667 0.999451101
v -0.278657794 -0.550951362 0.999367774
v -0.270167798 -0.55006218 0.999196768
v -0.26229322 -0.551605463 1.00307035
v -0.253863037 -0.550885201 1.00290835
v -0.245880947 -0.551892519 1.00285888
v -0.237619877 -0.551782191 1.00273669
v -0.229449317 -0.552005589 1.00263631
v -0.221157014 -0.55171591 1.00250268
v -0.213065684 -0.552210331 1.00242019
v -0.204589322 -0.551112056 1.0022341
v -0.196384564 -0.551088452 1.00211811
v -0.188327089 -0.551648557 1.00204003
v -0.180119932 -0.551564157 1.00192022
v -0.171990216 -0.551777363 1.00181985
v -0.163865462 -0.55198735 1.00171936
v -0.155519843 -0.551227331 1.00155592
v -0.14724867 -0.550748408 1.00141096
v -0.139040038 -0.550505519 1.00128126
v -0.131162375 -0.551681697 1.00124371
v -0.122865118 -0.550993621 1.00108552
v -0.114761516 -0.551128447 1.00098062
v -0.106447786 -0.550292373 1.00081301
v -0.0987149775 -0.552045226 1.00081301
v -0.0901782289 -0.550124943 1.00057542
v -0.0823719054 -0.551508069 1.0005517
v -0.0740395337 -0.55044049 1.00036955
v -0.0660182238 -0.550782323 1.00027859
v -0.0579087101 -0.550682843 1.00015914
v -0.0497399569 -0.55026865 1.00001955
v -0.0418782495 -0.551293433 0.999972939
v -0.0334639736 -0.549623787 0.999752522
v -0.0255233366 -0.550212204 0.999677896
v -0.0173815265 -0.549785852 0.999537945
v -0.009380823 -0.550023556 0.999440849
v -0.00113924954 -0.54902184 0.999264002
v 0.00674836989 -0.549766541 0.999199748
v 0.0146308234 -0.550519168 0.999136031
v 0.0181276258 -0.553062737 1.00307941
v 0.0262537487 -0.552534997 1.00293148
v 0.0343578346 -0.552079678 1.00278831
v 0.0422776677 -0.552558124 1.00270605
v 0.0505365208 -0.551199019 1.00250435
v 0.0585241541 -0.551243961 1.00239408
v 0.0664882958 -0.551383674 1.00229013
v 0.0743677542 -0.551958025 1.00221443
v 0.0824886635 -0.5511657 1.00205004
v 0.0905038267 -0.550916374 1.00192094
v 0.0983700156 -0.551472127 1.00184429
v 0.10623271 -0.55202359 1.00176752
v 0.114369147 -0.550963879 1.0015862
v 0.122287363 -0.551123321 1.00148404
v 0.130347267 -0.550410688 1.00132549
v 0.138110772 -0.551418602 1.00127852
v 0.146049157 -0.551353455 1.00116205
v 0.153981552 -0.551285386 1.00104558
v 0.161823958 -0.551733732 1.0009625
v 0.169764221 -0.551541805 1.00083816
v 0.177944794 -0.549787462 1.00061285
v 0.185568199 -0.55151552 1.00061285
v 0.193614364 -0.55050981 1.00043619
v 0.201496497 -0.550513268 1.00032485
v 0.209424525 -0.550172329 1.00019133
v 0.217089012 -0.551547348 1.00016868
v 0.22502628 -0.55106473 1.00002623
v 0.233017117 -0.550160527 0.999856651
v 0.240878269 -0.550092399 0.999741137
v 0.248680085 -0.55039686 0.999649704
v 0.25656417 -0.550079584 0.999518335
v 0.264306873 -0.55072999 0.999449313
v 0.272182465 -0.55038166 0.999316096
v 0.279929638 -0.550929546 0.999240696
v 0.287972212 -0.549230874 0.999020755
v 0.295553148 -0.550949335 0.999020755
v 0.303021908 -0.553030312 1.00282562
v 0.310978949 -0.551807404 1.00263417
v 0.318684161 -0.552496374 1.00256717
v 0.326510102 -0.552186728 1.00243545
v 0.334265441 -0.552393913 1.00233734
v 0.342025936 -0.552514851 1.00223362
v 0.349795789 -0.552510202 1.00212193
v 0.357529759 -0.552759826 1.0020268
v 0.365250647 -0.553077817 1.0019362
v 0.373046458 -0.552695513 1.00180018
v -0.419486582 0.890190959 -0.135753006
v -0.425381809 0.890988648 -0.132837117
v -0.432054728 0.890264809 -0.13341625
v -0.439000219 0.889193177 -0.137161911
v -0.573362768 0.577546537 -0.232833058
v -0.441259325 0.877590597 -0.149531737
v -0.608899176 0.481038988 -0.26716581
v -0.629609704 0.425149173 -0.279598624
v -0.622479796 0.424364895 -0.275843352
v -0.622614145 0.423772186 -0.272470325
v -0.381960779 0.884822071 -0.0801464319
v -0.388381809 0.884321988 -0.0775856078
v -0.39492026 0.883798122 -0.0780714676
v -0.401089877 0.884634733 -0.0842858851
v -0.401799351 0.883218884 -0.0877128094
v -0.40148288 0.884439349 -0.0934810862
v -0.39836663 0.884808421 -0.0993024483
v -0.394598961 0.886465788 -0.10172043
v -0.387868673 0.887433708 -0.101097971
v -0.382223576 0.885617018 -0.0981912613
v -0.377955765 0.887788415 -0.0913379267
v -0.378187031 0.886768222 -0.0855319947
v -0.378966838 0.884679973 -0.083050929
v -0.423176438 0.884339511 -0.0794916674
v -0.42923376 0.884751379 -0.0766809881
v -0.436689466 0.882484198 -0.080682911
v -0.439407974 0.883779168 -0.0835660473
v -0.438905656 0.885416389 -0.0892350972
v -0.438719124 0.886337399 -0.0950961038
v -0.432376981 0.886802673 -0.100723848
v -0.428768039 0.888037503 -0.103261612
v -0.42244333 0.88774091 -0.0999304876
v -0.419672757 0.886574686 -0.0970175564
v -0.416226506 0.886722386 -0.0906985998
v -0.416439831 0.885742128 -0.0848648176
v -0.419703364 0.885279894 -0.0821152031
v -0.417732656 0.86343509 -0.032357879
v -0.424862355 0.861411393 -0.0301350188
v -0.431751728 0.860213518 -0.0307574254
v -0.437631875 0.861596525 -0.0337958112
v -0.439623952 0.864577174 -0.0362714119
v -0.438716561 0.867143869 -0.0417355672
v -0.437938869 0.869414151 -0.0472687669
v -0.431050718 0.870856464 -0.0496203974
v -0.423984379 0.872485518 -0.0488707982
v -0.418383211 0.870508552 -0.0459914915
v -0.415607512 0.869340181 -0.0430731662
v -0.417149484 0.865275204 -0.0379982218
v -0.417265862 0.864761889 -0.0350769386
v -0.38792941 0.858885944 -0.0318581387
v -0.393716842 0.860197842 -0.0318581387
v -0.399798095 0.861056685 -0.0350190997
v -0.401161015 0.865552008 -0.0371075422
v -0.400928557 0.866577446 -0.0429431908
v -0.39698258 0.868883371 -0.048286438
v -0.392429858 0.872392535 -0.0502700694
v -0.386072755 0.872471869 -0.0499159172
v -0.381902158 0.866881192 -0.0449187346
v -0.378078282 0.868229926 -0.0413706675
v -0.37997973 0.863214433 -0.0365450121
v -0.384733856 0.858950078 -0.0316795707
v -0.334519535 0.953665435 0.0334655344
v -0.397461891 0.817372382 0.0043766317
v -0.399823815 0.827245891 0.00330305402
v -0.402014017 0.829873264 0.000699681463
v -0.398922801 0.837694407 -0.00357668311
v -0.39094308 0.84177196 -0.005351461
v -0.305173248 1.03210247 0.0430785976
v -0.304808915 1.03275692 0.0460917577
v -0.3049182 1.03227472 0.0488357991
v -0.417044848 0.831633508 0.00646540429
v -0.427821666 0.821163416 0.00678915577
v -0.434332192 0.820964932 0.00643462781
v -0.437726587 0.828235567 0.00474580377
v -0.439821273 0.83105731 0.00218062662
v -0.437350214 0.837251544 -0.002495897
v -0.4283683 0.843716443 -0.00677212467
v -0.425457984 0.843056738 -0.00677212467
v -0.419979244 0.840696096 -0.00395989604
v -0.416060477 0.834427595 0.000993608846
v -0.41617763 0.833910823 0.00393478014
v 0.434155762 -0.200057507 -0.0651881769
v 0.427527457 -0.191955149 -0.0601662621
v 0.420176387 -0.191161007 -0.0603286289
v 0.411997318 -0.198213607 -0.0657828674
v 0.415013522 -0.205800161 -0.0746828094
v 0.415150702 -0.205235898 -0.0783759877
v 0.422549725 -0.206561029 -0.0821157098
v 0.43028456 -0.203457266 -0.0773872808
v 0.433810622 -0.204625919 -0.0736561641
v 0.43778047 -0.201677099 -0.0691327006
v 0.252661169 0.197831303 0.00848440826
v 0.312859923 0.588060856 0.0833020583
v 0.311241955 0.596391499 0.0816843063
v 0.316713691 0.662652373 0.0881839618
v 0.3139247 0.663826287 0.0852516592
v 0.298725575 0.594587207 0.0653187484
v -0.00143004186 -1.1318543 -0.281646252
v 0.0140367318 -1.09686756 -0.269566745
v 0.249396056 0.237940192 -0.00139275019
v 0.255061328 0.231474265 0.00450462289
v 0.25361684 0.2032547 0.00606673816
v -0.253993005 0.909278393 0.156942889
v -0.245301321 0.947526038 0.166794151
v -0.252517134 0.944594026 0.163126513
v -0.255943805 0.943716586 0.159957677
v -0.262089729 0.94381088 0.153962195
v -0.26473546 0.944754899 0.154022843
v -0.270657569 0.945446253 0.148134857
v -0.274100661 0.944573581 0.14495106
v -0.280804098 0.943322122 0.138668403
v -0.28367129 0.94393146 0.135766134
v -0.289592117 0.944691002 0.1298666
v -0.290913522 0.941591501 0.12634176
v -0.296121627 0.944162965 0.120795123
v -0.296139985 0.944331586 0.117922969
v -0.298697352 0.945948184 0.112310439
v -0.301366448 0.947071671 0.109504178
v -0.402794063 0.687845588 0.0496138819
v -0.400479972 0.677123666 0.0476598367
v -0.397047728 0.669112563 0.0462738238
v -0.390961379 0.667732894 0.0462738238
v -0.379551739 0.679863632 0.0490939356
v -0.374114394 0.676899433 0.0487621091
v -0.370991141 0.667982876 0.0471891761
v -0.435285121 0.484909415 0.0126704592
v -0.432147115 0.47494036 0.0109049119
v -0.416801065 0.49669984 0.0157180894
v -0.255276024 0.90956229 0.104367897
v -0.254522264 0.911127388 0.11055094
v -0.25474754 0.91013366 0.116206199
v -0.254972786 0.909139931 0.121861458
v -0.255198061 0.908146203 0.127516717
v -0.255245686 0.907616973 0.133263201
v -0.253318608 0.912253499 0.140012011
v -0.253543407 0.911261797 0.145655632
v -0.253768206 0.910270095 0.151299268
v -0.25388059 0.909774244 0.154121071
v -0.190288872 -0.154842809 0.38859868
v -0.222429752 -0.246309847 0.384862751
v -0.229886413 -0.244619578 0.384862751
v -0.238301724 -0.246466592 0.384578943
v -0.246347621 -0.246910289 0.38440752
v -0.254155964 -0.246459767 0.384307772
v -0.192698896 -0.0090392502 0.396102905
v -0.192415848 -0.00779055431 0.388996631
v -0.193059877 -0.0235203747 0.380500793
v -0.192917764 -0.0228934214 0.37693283
v -0.192633525 -0.0216395129 0.369796902
v -0.192349285 -0.0203856044 0.362660974
v -0.192456871 -0.0205566697 0.35539338
v -0.192526907 -0.0205910821 0.348133355
v -0.192477867 -0.0201922935 0.340910167
v -0.194474727 -0.0409782007 0.331686676
v -0.19525212 -0.0435966961 0.32411772
v -0.19496578 -0.0423335284 0.316929102
v -0.194679454 -0.0410703607 0.309740484
v -0.190974459 -0.041246172 0.306146175
v -0.19107531 -0.0414005257 0.298806787
v -0.190127537 -0.0657970607 0.296384335
v -0.191182062 -0.0698941424 0.303322196
v -0.186975837 -0.0685159266 0.307233989
v -0.188028112 -0.0726149604 0.314179659
v -0.194083348 -0.0952306092 0.319288522
v -0.190767378 -0.097326763 0.326565981
v -0.192645386 -0.104505002 0.333277017
v -0.189698607 -0.107999057 0.340434015
v -0.190341085 -0.11049363 0.343906641
v -0.191419467 -0.114712857 0.350932598
v -0.190933615 -0.12744385 0.357281446
v -0.193025187 -0.135466278 0.364010453
v -0.189684629 -0.137577981 0.371341884
v -0.193010792 -0.150263086 0.377717495
v -0.189164102 -0.150414571 0.381503105
v -0.189660743 -0.152380794 0.385069788
v 0.127556369 0.470883071 0.457542151
v 0.0156025263 -0.0036402673 0.425049871
v 0.188352913 0.798987091 0.485007852
v 0.18748869 0.807992876 0.480018198
v 0.187240168 0.806883454 0.474310368
v 0.187461153 0.807858348 0.468762398
v 0.187630177 0.808602571 0.463195473
v 0.187644109 0.808658302 0.457569808
v 0.187687129 0.808843136 0.451951861
v 0.187908247 0.809818625 0.446400374
v 0.187370181 0.80742383 0.440546989
v 0.187482581 0.807916641 0.434945136
v 0.187275946 0.806993127 0.429209411
v 0.187216818 0.806724548 0.423528969
v 0.187303513 0.807103217 0.417906672
v 0.189642191 0.804600716 0.412059307
v -0.0461462699 -0.264001101 0.302753389
v -0.0510355309 -0.321363062 0.301078111
v -0.0472636633 -0.32221806 0.301078111
v 0.128625363 0.446072251 0.383374125
v 0.1283779 0.444980562 0.389586747
v 0.125175938 0.445132524 0.392693043
v 0.124928482 0.444040865 0.398905635
v 0.124681026 0.442949176 0.405118257
v 0.124433562 0.441857517 0.411330849
v 0.125562698 0.447034448 0.418086976
v 0.131143942 0.472484797 0.426540613
v 0.131373212 0.473563641 0.43287313
v 0.128290966 0.474123746 0.43909955
v 0.128046095 0.473043531 0.445247084
v 0.127801225 0.471963286 0.451394618
v 0.127678797 0.471423179 0.454468369
v 0.155288115 -0.01151051 0.423214853
v 0.149261117 -0.00514568202 0.427100658
v 0.141503617 -0.00812795758 0.426762998
v 0.134434804 -0.00742710894 0.426698774
v 0.127529949 -0.00586191379 0.426698774
v 0.23929733 0.587574899 0.464790642
v 0.239418432 0.603754818 0.46299535
v 0.236806124 0.590210259 0.455967844
v 0.239561647 0.619666278 0.452306956
v 0.2382759 0.628359377 0.447032899
v 0.237881094 0.626279294 0.443896055
v 0.191219628 0.389377147 0.417738974
v 0.189618841 0.381089151 0.410646021
v 0.189292103 0.37926513 0.404094189
v 0.0981848389 -0.102042429 0.354036242
v 0.105413266 -0.103099741 0.350446403
v 0.110444494 -0.115466684 0.349460065
v 0.118497826 -0.112182528 0.349909008
v 0.125609159 -0.113794528 0.349909008
v 0.126816094 -0.126980186 0.352431685
v 0.125946745 -0.131348252 0.359353304
v 0.129347324 -0.132788345 0.366611451
v 0.127501726 -0.142395988 0.373102695
v 0.126405776 -0.147990808 0.379958868
v 0.129007339 -0.153784126 0.386880845
v 0.127983674 -0.159149975 0.390115172
v 0.126828849 -0.165081277 0.396987915
v 0.12476173 -0.175917402 0.40350014
v 0.129987106 -0.167805806 0.40786013
v -0.18731229 0.495204329 0.491946846
v -0.207245991 0.453052759 0.492253721
v -0.213359669 0.455020219 0.489105731
v -0.215316176 0.469761461 0.489987105
v -0.199321687 0.52988863 0.490800649
v -0.19907622 0.530971527 0.484637916
v -0.207757562 0.524745703 0.477859259
v -0.210695982 0.525982499 0.474769861
v -0.210723683 0.5461573 0.473007977
v -0.13020286 0.801513135 0.488668889
v -0.129828423 0.802962184 0.483028084
v -0.129750773 0.803507507 0.477319002
v -0.129568189 0.80437237 0.471633554
v -0.12955828 0.80471158 0.465904921
v -0.12935771 0.80563134 0.460222065
v -0.128928274 0.807247639 0.454598099
v -0.128702223 0.808244944 0.448922694
v -0.128757283 0.808386683 0.443171352
v -0.128540739 0.80935508 0.437491715
v -0.128474221 0.809867024 0.431769758
v -0.128368378 0.810498774 0.426057249
v -0.12869902 0.80980283 0.420215547
v -0.128941879 0.809374213 0.414393663
v -0.129168168 0.80899632 0.408571452
v -0.131046861 0.803593874 0.402231723
v -0.13089104 0.804378867 0.396510363
v -0.130664036 0.805380344 0.390811086
v -0.130365863 0.806598067 0.385135084
v -0.130138874 0.807599485 0.379436195
v -0.129982993 0.808384717 0.373713225
v -0.129919156 0.808890283 0.367957741
v -0.129736856 0.809755921 0.362241864
v -0.129576474 0.810555041 0.356517673
v -0.127016425 0.809418142 0.350638509
v -0.126789242 0.810420394 0.344934881
v -0.126644462 0.811171532 0.339200407
v -0.126935437 0.810595334 0.333299398
v -0.126756996 0.81144923 0.327573508
v -0.126561001 0.812356651 0.321853906
v -0.250546128 0.424650759 0.265529066
v -0.248160392 0.421473175 0.2652089
v -0.257089972 0.372663558 0.262371689
v -0.251407057 0.368601441 0.265373945
v -0.254433751 0.369805574 0.268771023
v -0.25526163 0.377610981 0.27632913
v -0.253785878 0.381817669 0.283501476
v -0.257136256 0.381976664 0.286751807
v -0.256090075 0.384847432 0.293737382
v -0.256348699 0.38370648 0.300230503
v -0.254011601 0.379919052 0.306499302
v -0.255537003 0.374869674 0.312546134
v -0.253260642 0.371040225 0.315509617
v -0.251525283 0.36551556 0.31828618
v -0.248741299 0.352576703 0.316988021
v -0.244784161 0.354257643 0.313929051
v -0.235044569 0.363243997 0.311797559
v -0.22822842 0.362918973 0.311928391
v -0.221441403 0.36251533 0.312050104
v -0.214988261 0.361052513 0.312050104
v -0.185779095 0.433006287 0.323727071
v -0.185641333 0.433302104 0.327011019
v -0.188906282 0.433370769 0.333436638
v -0.188737795 0.433612347 0.339957446
v -0.188991517 0.432493061 0.346327186
v -0.189245224 0.431373805 0.352696955
v -0.192655027 0.430969954 0.359066695
v -0.192908749 0.429850668 0.365436435
v -0.186432838 0.450364828 0.373962998
v -0.186485305 0.449894488 0.380355477
v -0.189947262 0.449407369 0.383457512
v -0.19019939 0.448295146 0.389787227
v -0.186838463 0.458764642 0.397195518
v -0.186182484 0.460564673 0.403769195
v -0.190466627 0.457256228 0.409812063
v -0.189810053 0.459049523 0.416374296
v -0.189274266 0.460457265 0.4228926
v -0.187952489 0.464378148 0.429611981
v -0.19356066 0.456988603 0.432131559
v -0.193022102 0.458397865 0.43863824
v -0.191694796 0.462321788 0.445334405
v -0.191386908 0.46299684 0.451760858
v -0.195311874 0.460817993 0.457912356
v -0.187880516 0.484130263 0.465996087
v -0.185418248 0.491650939 0.472857356
v -0.183736771 0.496690869 0.479513377
v -0.189000264 0.490161717 0.485313445
v -0.187719256 0.494068146 0.488725781
v 0.126404017 0.494745821 0.542427301
v 0.189325064 0.803453445 0.558133841
v 0.187311187 0.807287216 0.555512428
v 0.187531129 0.808257461 0.549990654
v 0.18775107 0.809227705 0.54446888
v 0.188878238 0.801425993 0.538478613
v 0.0116502903 -0.00483889412 0.488650262
v 0.125863239 0.492253959 0.523862898
v 0.125620633 0.491183668 0.529953957
v 0.126038849 0.493084043 0.536202133
v 0.125917658 0.49254936 0.53924495
v -0.252668202 -0.202063799 0.508106053
v -0.0689556003 0.483317524 0.545947731
v -0.0686413497 0.507570386 0.547088563
v -0.0696095079 0.526985109 0.547988832
v -0.0762133002 0.526394427 0.547890961
v -0.08270064 0.52623564 0.547814488
v -0.088751547 0.527607262 0.547814488
v -0.270829409 -0.075720422 0.510305583
v -0.270685732 -0.0750866234 0.506698668
v -0.133449256 0.396771938 0.525183141
v -0.130361632 0.419088989 0.519987106
v -0.129117042 0.41202727 0.51643306
v -0.243690491 -0.00724186283 0.488883913
v -0.235855103 -0.0060295891 0.489047378
v -0.228830591 -0.00762191042 0.489047378
v -0.221188217 -0.00703355344 0.489174306
v -0.213516861 -0.00631233118 0.489308864
v -0.205919817 -0.00582510326 0.489429712
v -0.251633435 -0.197498932 0.482127696
v -0.251929075 -0.198803186 0.489550084
v -0.252224714 -0.200107425 0.496972471
v -0.252520382 -0.201411679 0.504394889
v 0.019790139 -0.598451614 0.616548419
v 0.02430938 -0.532516062 0.62189585
v 0.016538512 -0.530754566 0.62189585
v 0.00800546538 -0.532853723 0.621814251
v -0.000915485085 -0.536827922 0.621693015
v -0.0223023575 -0.602769136 0.616256356
v 0.187951773 0.458300352 0.636567354
v 0.187907845 0.45795235 0.630442858
v 0.188150495 0.45902282 0.624350905
v 0.188393161 0.46009329 0.618258953
v 0.187659681 0.456331551 0.612021506
v 0.190046161 0.452345461 0.605781376
v 0.188598737 0.445009768 0.599389553
v 0.188842639 0.446085781 0.59326607
v 0.189012766 0.446794748 0.587128937
v 0.188966587 0.446427822 0.580948412
v 0.189120829 0.447057635 0.574803472
v 0.191852018 0.444702774 0.568558812
v 0.196117625 0.450101078 0.565734506
v 0.202798888 0.467967868 0.572677314
v 0.207480296 0.459804475 0.575465083
v 0.210380539 0.458583713 0.578514338
v 0.21570766 0.453514457 0.578366578
v 0.221757606 0.452143043 0.578366578
v 0.228472665 0.454273403 0.578506291
v 0.23201032 0.456210554 0.575542033
v 0.236455858 0.462995648 0.57278353
v 0.239486441 0.445301592 0.565944433
v 0.245881811 0.445754886 0.566023827
v 0.251937151 0.44438228 0.566023827
v 0.251692772 0.442783445 0.55979234
v 0.250841141 0.437856942 0.553394675
v 0.253399819 0.434276044 0.547074795
v 0.127949297 -0.277524859 0.516089559
v 0.131165609 -0.280525565 0.523450971
v 0.129325733 -0.29059124 0.526726842
v 0.127390996 -0.30101338 0.533750772
v 0.125739411 -0.309859008 0.54087311
v 0.128882572 -0.313409001 0.548266709
v 0.126213789 -0.327977389 0.555214584
v 0.125166759 -0.333478928 0.562538505
v 0.0996971503 -0.453477144 0.56203258
v 0.092069611 -0.451748133 0.56203258
v 0.0842517614 -0.451056212 0.561995864
v 0.0762550384 -0.451308697 0.561925769
v 0.0683184266 -0.451201081 0.56186831
v 0.0650069192 -0.447505206 0.565842032
v 0.0640285909 -0.431367904 0.574085176
v 0.0655464679 -0.423071474 0.582052946
v 0.0676395074 -0.411734343 0.590074718
v 0.0635552406 -0.412218064 0.597704411
v 0.0633503497 -0.413037658 0.605347395
v 0.0630464852 -0.414378166 0.612976134
v 0.0587794669 -0.415821463 0.620583832
g path_000000
l 24 23 22 21 20 19 18 17 16 15 14 13 12 11 10 9 8 7 6 5 4 3 2 1 1146 1145 1144 1143 1142 1141 1140 1139 1138 1137 1136 1135 1134 1133 1132 1131 1130 1129 1128 1127 1126 1125 1124 1123 1122 1121 1120 1119 1118 1117 1116 1115 1114 1113 1112 1111 1110 1109 1108 1107 1106 1105 1104 1103 1102 1101 1100 1099 1098 1097 1096 1095 1094 1093 1092 1091 1090 1089 1088 1087 1086 1085 1084 1083 1082 1081 1080 1079 1078 1077 1076 1075 1074 1073 1072 1071 1070 1069 1068 1067 1066 1065 1064 1063 1062 1061 1060 1059 1058 1057 1056 1055 1054 1053 1052 1051 1050 1049 1048 1047 1046 1045 1044 1043 1042 1041 1040 1039 1038 1037 1036 1035 1034 1033 1032 1031 1030
g path_000001
l 25 26 27 28 29 30 31 32 33
g path_000002
l 34 35 36 37 38 39
g path_000003
l 40 41 42 43 44
g path_000004
l 45 46 47 48 49 50 51 52 53 54 55 56
g path_000005
l 57 58 59 60 61 62
g path_000006
l 63 64 65 66 67
g path_000007
l 73 74 75 76 77
g path_000008
l 79 80
g path_000009
l 82 83
g path_000010
l 85 86 87 88 89 90
g path_000011
l 91 92
g path_000012
l 93 94 95
g path_000013
l 96 97 98 99 100 101
g path_000014
l 102 103 104 105 106 107 108 109 110 111 112
g path_000015
l 113 114 115 116 117 118 119
g path_000016
l 120 121 122 123 124 125 126 127 128 129 130 131 132 133 134 135 136 137 138 139
g path_000017
l 140 141 142 143 144 145 146 147 148 149 150 151 152 153 154 155 156 157 158 159 160 161 162 163 164 165 166 167 168 169 170 171 172 173
g path_000018
l 174 175 176 177 178 179 180 181 182 183 184 185 186 187 188 189 190 191 192 193
g path_000019
l 194 195 196 197 198 199 200 201 202
g path_000020
l 203 204 205 206 207 208
g path_000021
l 210 211 212
g path_000022
l 214 215 216 217 218 219 220 221
g path_000023
l 222 223 224 225 226 227 228 229 230 231 232 233 234 235 236 237 238 239 240
g path_000024
l 241 242
g path_000025
l 243 244 245 246
g path_000026
l 247 248 249 250 251 252 253 254 255 256 257 258 259 260 261 262 263 264 265 266
g path_000027
l 268 269 270 271 272 273 274 275
g path_000028
l 276 277 278 279 280
g path_000029
l 281 282 283 284 285 286 287 288
g path_000030
l 289 290 291 292 293 294 295 296
g path_000031
l 297 298 299 300 301 302
g path_000032
l 305 306 307 308 309 310 311 312 313 314 315 316 317 318 319 320
g path_000033
l 321 322
g path_000034
l 324 325
g path_000035
l 327 328
g path_000036
l 329 330
g path_000037
l 332 333 334 335
g path_000038
l 339 340
g path_000039
l 341 342
g path_000040
l 343 344
g path_000041
l 345 346
g path_000042
l 347 348
g path_000043
l 349 350
g path_000044
l 351 352
g path_000045
l 353 354
g path_000046
l 355 356
g path_000047
l 357 358
g path_000048
l 359 360
g path_000049
l 361 362
g path_000050
l 363 364
g path_000051
l 365 366 367
g path_000052
l 371 372
g path_000053
l 373 374
g path_000054
l 375 376
g path_000055
l 377 378
g path_000056
l 381 382 383 384
g path_000057
l 385 386 387 388
g path_000058
l 389 390 391 392
g path_000059
l 395 396 397 398 399
g path_000060
l 401 402 403 404 405 406 407
g path_000061
l 408 409 410 411
g path_000062
l 414 415 416 417
g path_000063
l 418 419 420 421 422 423 424 425 426 427 428 429 430 431 432 433 434 435 436 437 438 439 440 441 442 443 444 445 446 447 448 449 450 451 452 453 454 455 456 457 458 459 460 461 462 463 464 465 466 467 468 469 470 471 472 473 474 475 476 477 478 479 480 481 482 483 484 485 486 487 488 489 490 491 492 493 494 495 496 497 498 499 500 501 502 503 504 505 506 507 508 509 510 511 512 513 514 515 516 517 518 519 520 521 522 523 524 525 526 527 528 529 530 531 532 533 534 535 536 537 538 539 540 541 542 543 544 545 546 547 548 549 550 551 552 553 554 555 556 557 558 559 560 561 562 563 564 565 566 567 568 569 570 571 572 573 574 575 576 577 578 579 580 581 582 583 584 585 586 587 588 589 590 591 592 593 594 595 596 597 598 599 600 601 602 603 604 605 606 607 608 609 610 611 612 613 614 615 616 617 618 619 620 621 622 623 624 625 626 627 628 629 630 631 632 633 634 635 636 637 638 639 640 641 642 643 644 645 646 647 648 649 650 651 652 653 654 655 656 657 658 659 660 661 662 663 664 665 666 667 668 669 670 671 672
g path_000064
l 674 675 676 677 678 679
g path_000065
l 681 682 683 684 685 686 687
g path_000066
l 688 689 690 691 692 693
g path_000067
l 695 696 697 698 699
g path_000068
l 700 701 702 703
g path_000069
l 704 705 706 707 708 709 710 711
g path_000070
l 712 713 714 715 716 717 718 719
g path_000071
l 720 721 722
g path_000072
l 723 724 725 726 727 728 729 730 731
g path_000073
l 732 733 734 735 736 737 738 739 740 741 742 743 744
g path_000074
l 745 746
g path_000075
l 748 749 750 751 752 753 754 755 756 757 758 759 760 761 762 763 764 765 766 767 768 769 770 771 772 773 774 775 776 777 778 779 780 781 782 783 784 785 786 787 788 789 790 791 792 793 794 795 796 797 798 799 800 801 802 803 804 805 806 807 808 809 810 811 812 813 814 815 816 817 818 819 820 821 822 823 824 825 826 827 828 829
g path_000076
l 830 831 832 833 834 835 836 837
g path_000077
l 838 839 840 841 842
g path_000078
l 843 844
g path_000079
l 845 846 847 848 849 850 851 852 853 854 855 856 857 858 859 860 861 862 863 864 865 866 867
g path_000080
l 868 869 870 871 872 873 874 875 876 877
g path_000081
l 878 879 880 881 882 883 884 885 886 887 888 889 890
g path_000082
l 892 893 894 895 896 897 898 899 900 901 902 903 904 905 906 907 908 909 910 911
g path_000083
l 912 913 914 915 916 917 918
g path_000084
l 919 920 921 922 923 924 925 926 927 928 929 930 931 932 933 934 935 936 937 938 939 940 941 942 943 944 945 946 947 948 949 950 951 952 953 954 955 956 957 958 959 960 961 962 963 964 965 966 967
g path_000085
l 968 969 970 971 972 973 974
g path_000086
l 975 976 977 978 979
g path_000087
l 980 981 982
g path_000088
l 983 984 985 986
g path_000089
l 987 988 989
g path_000090
l 990 991 992
g path_000091
l 993 994 995 996
g path_000092
l 998 999 1000
g path_000093
l 1001 1002
g path_000094
l 1004 1005 1006 1007 1008
g path_000095
l 1010 1011 1012 1013 1014 1015 1016 1017 1018 1019 1020 1021
g path_000096
l 1022 1023 1024 1025 1026 1027 1028 1029
g path_000097
l 1147 1148 1149 1150
g path_000098
l 1154 1155 1156
g path_000099
l 1209 1210 1211 1212 1213
g path_000100
l 1214 1215 1216
g path_000101
l 1238 1248
g path_000102
l 1239 1240
g path_000103
l 1241 1242
g path_000104
l 1246 1247
g path_000105
l 1249 1284 1283 1282 1281 1280 1279 1278 1277 1276 1275
g path_000106
l 1250 1251 1252 1253 1254 1255 1256 1257 1258 1259 1260 1261 1262 1263 1264
g path_000107
l 1265 1266 1267 1268 1269 1270 1271
g path_000108
l 1272 1273
g path_000109
l 1285 1321 1320 1319 1318 1317 1316 1315 1314 1313 1312 1311 1310
g path_000110
l 1286 1287 1288 1289 1290
g path_000111
l 1291 1292 1293 1294 1295 1296 1297 1298 1299
g path_000112
l 1300 1301 1302 1303 1304 1305
g path_000113
l 1306 1307 1308 1309
g path_000114
l 1322 1353 1352 1351 1350 1349 1348
g path_000115
l 1324 1325 1326 1327 1328 1329 1330 1331 1332 1333 1334 1335 1336 1337
g path_000116
l 1339 1340
g path_000117
l 1341 1342 1343 1344 1345 1346 1347
g path_000118
l 1354 1355 1356 1357 1358
g path_000119
l 1359 1360 1361
g path_000120
l 1362 1363 1364
g path_000121
l 1365 1366 1367
g path_000122
l 1368 1369 1370 1371 1372 1373 1374 1375 1376 1377 1378 1379 1380 1381 1382
g path_000123
l 1383 1469 1468 1467 1466 1465
g path_000124
l 1384 1385 1386
g path_000125
l 1387 1388 1389 1390
g path_000126
l 1392 1393 1394 1395 1396 1397 1398 1399 1400 1401 1402 1403 1404 1405 1406 1407 1408 1409 1410 1411 1412 1413 1414 1415 1416 1417 1418 1419 1420 1421
g path_000127
l 1422 1423
g path_000128
l 1424 1425 1426 1427 1428 1429 1430 1431 1432 1433 1434 1435 1436 1437 1438 1439 1440 1441
g path_000129
l 1442 1443 1444 1445 1446 1447 1448 1449
g path_000130
l 1450 1451 1452 1453 1454 1455 1456 1457 1458 1459 1460 1461 1462 1463 1464
g path_000131
l 1470 1480 1479 1478 1477
g path_000132
l 1471 1472 1473 1474 1475
g path_000133
l 1481 1502 1501 1500 1499
g path_000134
l 1484 1485 1486 1487
g path_000135
l 1488 1489
g path_000136
l 1491 1492
g path_000137
l 1493 1494 1495 1496 1497 1498
g path_000138
l 1504 1505 1506 1507
g path_000139
l 1509 1510 1511 1512 1513 1514 1515 1516 1517 1518 1519 1520 1521
g path_000140
l 1522 1523 1524 1525 1526 1527 1528 1529
g path_000141
l 1530 1531 1532 1533 1534 1535
g path_000142
l 1536 1537 1538 1539 1540 1541 1542 1543
g path_000143
l 1544 1545 1546 1547 1548 1549 1550 1551 1552 1553 1554 1555 1556
g path_000144
l 1157 1158 1159 1160 1161 1162 1163 1164 1165 1166 1167 1168 1169 1157
g path_000145
l 1170 1171 1172 1173 1174 1175 1176 1177 1178 1179 1180 1181 1182 1170
g path_000146
l 1183 1184 1185 1186 1187 1188 1189 1190 1191 1192 1193 1194 1195 1183
g path_000147
l 1196 1197 1198 1199 1200 1201 1202 1203 1204 1205 1206 1207 1196
g path_000148
l 1217 1218 1219 1220 1221 1222 1223 1224 1225 1226 1227 1217
g path_000149
l 1228 1229 1230 1231 1232 1233 1234 1235 1236 1237 1228
