# Fixed world centers; Z up; paths immutable
v -0.380386621 -0.557126343 1.00140667
v -0.377520353 -0.578301787 0.997059166
v -0.382050484 -0.582817614 0.994389772
v -0.381097794 -0.585232675 0.991686583
v -0.382595509 -0.589654446 0.986193538
v -0.380711645 -0.594428658 0.98080045
v -0.382690728 -0.597787142 0.975236177
v -0.382025391 -0.599568903 0.972497106
v -0.379808426 -0.605057299 0.967188001
v -0.381485611 -0.609054148 0.961693406
v -0.383408993 -0.612511635 0.956156433
v -0.381450534 -0.617420614 0.95082742
v -0.383597672 -0.620383084 0.945255876
v -0.382191986 -0.623752415 0.942684889
v -0.380325645 -0.628452659 0.937362432
v -0.382418126 -0.631516814 0.931814075
v -0.379747689 -0.637936652 0.926680148
v -0.383161813 -0.63781178 0.923705697
v -0.380566686 -0.644057453 0.918572903
v -0.383235365 -0.64586693 0.912912786
v -0.380925775 -0.651489019 0.907738388
v -0.382824421 -0.654934883 0.902258277
v -0.381104887 -0.659287214 0.896968484
v -0.383436501 -0.661800861 0.891394675
v -0.382026404 -0.665143788 0.888887525
v -0.38085109 -0.668330312 0.883486509
v -0.382275939 -0.672757685 0.878143251
v -0.380184531 -0.677882254 0.872983873
v -0.383226365 -0.678525031 0.870085359
v -0.394439757 -0.6686728 0.865825653
v -0.395800024 -0.672886848 0.863345504
v -0.396255314 -0.679336965 0.858254313
v -0.395667523 -0.681270897 0.852712154
v -0.395704538 -0.681895792 0.847004235
v -0.395219803 -0.683613956 0.841433346
v -0.383474171 -0.702263534 0.838184416
v -0.381357819 -0.707401216 0.833102226
v -0.384819269 -0.707144618 0.830082119
v -0.382221729 -0.713280082 0.825148404
v -0.38374725 -0.717414737 0.819847643
v -0.392088801 -0.70699352 0.81541127
v -0.39553827 -0.713400066 0.813193321
v -0.39663431 -0.718423486 0.808012545
v -0.395748913 -0.720965505 0.802598238
v -0.395267516 -0.722671926 0.797065437
v -0.393244237 -0.720992088 0.791149199
v -0.386693239 -0.734915316 0.790322661
v -0.382060349 -0.745215595 0.786104202
v -0.384485364 -0.74743557 0.780567408
v -0.382318646 -0.752617836 0.77560842
v -0.38447085 -0.755392671 0.770163894
v -0.383252144 -0.758257627 0.767736375
v -0.381297171 -0.762992561 0.762734652
v -0.383250058 -0.766162932 0.75736618
v -0.387365192 -0.764898837 0.751275659
v -0.385583133 -0.768907309 0.749052286
v -0.382505506 -0.775925219 0.744457901
v -0.383421034 -0.781198323 0.739459455
v -0.38133949 -0.786164999 0.73455286
v -0.382979959 -0.789938211 0.729319334
v -0.380616039 -0.795470238 0.724533558
v -0.38259238 -0.798544705 0.719192505
v -0.381774664 -0.800565004 0.716677487
v -0.380930007 -0.802998126 0.711366177
v -0.38313818 -0.805594683 0.705946684
v -0.384677023 -0.809543848 0.700775981
v -0.383227378 -0.812834918 0.698507309
v -0.381660372 -0.816722751 0.69348228
v -0.383360803 -0.820326924 0.688266635
v -0.381784678 -0.82422626 0.683259428
v -0.383174837 -0.828442931 0.678173423
v -0.381154865 -0.826578796 0.675088644
v -0.381832033 -0.82593739 0.669208825
v -0.382183194 -0.825953662 0.663449585
v -0.382015944 -0.827014506 0.657892168
v -0.381829143 -0.828115046 0.652340233
v -0.373918891 -0.85725075 0.652181208
v -0.374721766 -0.861856401 0.652963161
v -0.37722531 -0.869230449 0.654153824
v -0.374622226 -0.887036562 0.654635787
v -0.376934141 -0.894645095 0.655884087
v -0.375705302 -0.909520984 0.655805051
v -0.379489481 -0.914116919 0.656441331
v -0.381215662 -0.922693729 0.657900155
v -0.377936065 -0.935375631 0.657563925
v -0.380288064 -0.942617953 0.658756077
v -0.381696403 -0.951997995 0.657606065
v -0.381365687 -0.953372955 0.652315795
v -0.381496847 -0.953858912 0.646835387
v -0.381870419 -0.953878939 0.641250193
v -0.381362706 -0.955595493 0.636026502
v -0.37848413 -0.955656588 0.633404016
v -0.372444719 -0.955591202 0.633715451
v -0.366149455 -0.956035674 0.634137511
v -0.359679729 -0.956837475 0.634636819
v -0.363983542 -0.936892748 0.627812922
v -0.363818884 -0.937942088 0.622414947
v -0.360583901 -0.93867451 0.619927526
v -0.353828371 -0.940350652 0.617818236
v -0.349708319 -0.942484319 0.618459344
v -0.344391644 -0.940984428 0.618459344
v -0.339303821 -0.938673258 0.621089697
v -0.335427433 -0.934287608 0.620452285
v -0.334012985 -0.924922109 0.618716121
v -0.350609422 -0.878369927 0.614505589
v -0.34785074 -0.877702951 0.614526927
v -0.342429936 -0.876173675 0.614526927
v -0.339744478 -0.869052052 0.613305986
v -0.334312946 -0.867519736 0.613305986
v -0.332428843 -0.858322084 0.614509165
v -0.350306183 -0.814255416 0.610945165
v -0.347306103 -0.814319134 0.608211994
v -0.342550635 -0.811159253 0.607866406
v -0.339656591 -0.804091513 0.606678188
v -0.334356844 -0.801684082 0.609418094
v -0.255720913 -0.954757333 0.639815867
v -0.25553146 -0.955480874 0.637205005
v -0.252647549 -0.955617905 0.634627283
v -0.24643746 -0.956191778 0.635073483
v -0.240547255 -0.956101775 0.635375023
v -0.234209329 -0.956984818 0.635887444
v -0.238283843 -0.93577069 0.628822267
v -0.238430619 -0.93608582 0.623321176
v -0.233430743 -0.941070855 0.619016647
v -0.22938177 -0.943390727 0.619696259
v -0.224121079 -0.941906631 0.619696259
v -0.218860388 -0.940422475 0.619696259
v -0.213986516 -0.938089609 0.619508207
v -0.210706696 -0.932234466 0.618540466
v -0.205913961 -0.929387152 0.621025562
v -0.206392169 -0.92142719 0.622227967
v -0.225225568 -0.872569084 0.614521742
v -0.217783183 -0.875680089 0.61553067
v -0.21241796 -0.874166489 0.61553067
v -0.209214494 -0.867770076 0.614467144
v -0.205212623 -0.863138437 0.613788903
v -0.223635241 -0.813745737 0.608979881
v -0.218165621 -0.812202692 0.608979881
v -0.212695986 -0.810659587 0.608979881
v -0.207226351 -0.809116542 0.608979881
v -0.204219893 -0.801568568 0.610578537
v -0.206212088 -0.789209723 0.613897383
v -0.226875156 -0.733817339 0.602315426
v -0.127249077 -0.952939212 0.646359146
v -0.126802623 -0.954521716 0.64122808
v -0.12667349 -0.955360711 0.635935664
v -0.123856656 -0.955420494 0.633369446
v -0.117957264 -0.955638587 0.633735597
v -0.11222364 -0.955480337 0.634019434
v -0.106862344 -0.954447389 0.634112716
v -0.11194703 -0.935887933 0.624726832
v -0.111073479 -0.938494205 0.619789004
v -0.104108229 -0.941225469 0.620719254
v -0.0981259421 -0.941626728 0.621133029
v -0.0929219946 -0.940158606 0.621133029
v -0.0879210159 -0.938195467 0.621023655
v -0.0827161372 -0.936727107 0.621023655
v -0.0794933513 -0.930374622 0.619945467
v -0.0796189085 -0.922646582 0.621163547
v -0.0921797156 -0.876755059 0.614213884
v -0.086871773 -0.875257611 0.614213884
v -0.0843630359 -0.866734326 0.61267972
v -0.079295136 -0.864360094 0.615298986
v -0.0766344965 -0.863609493 0.615298986
v -0.0935843512 -0.812641799 0.61010915
v -0.0881718099 -0.811114848 0.61010915
v -0.0837043598 -0.807164371 0.609588265
v -0.0782872736 -0.805636108 0.609588265
v -0.0792612359 -0.795128226 0.610362053
v -0.0893408284 -0.753049195 0.604603827
v -0.0838326663 -0.751495302 0.604603827
v -0.255906612 -0.283562154 0.502160251
v -0.255357146 -0.285509884 0.495845079
v -0.254807681 -0.287457585 0.489529908
v -0.254258186 -0.289405286 0.483214766
v -0.25370872 -0.291353017 0.476899624
v -0.256350428 -0.294201016 0.470584452
v -0.25607568 -0.295174867 0.467426866
v -0.255526185 -0.297122568 0.461111724
v -0.254593313 -0.300073832 0.455025733
v -0.254043996 -0.302020967 0.448712438
v -0.25349468 -0.303968102 0.442399174
v -0.256255776 -0.306501657 0.436012357
v -0.255761206 -0.308306068 0.429664701
v -0.2552118 -0.310253471 0.423350573
v -0.254662424 -0.312200874 0.417036414
v -0.254058301 -0.314290911 0.410756886
v -0.255280793 -0.302365094 0.401272982
v -0.252078027 -0.301461518 0.401272982
v -0.251291633 -0.284842908 0.397656649
v -0.24782601 -0.275409847 0.392366558
v -0.252797157 -0.252966046 0.383636862
v -0.246612459 -0.250312746 0.383434832
v -0.239637598 -0.249773547 0.383752495
v -0.232161775 -0.250602633 0.384405822
v -0.224671185 -0.251501948 0.385075688
v -0.217845723 -0.250614434 0.385306537
v -0.210325003 -0.251648605 0.386008292
v -0.201800123 -0.255491436 0.387397557
v -0.196803004 -0.249804437 0.383007228
v -0.194427162 -0.236942291 0.373378724
v -0.194627449 -0.236591816 0.369830608
v -0.190818161 -0.237658471 0.363399625
v -0.187008873 -0.238725111 0.356968611
v -0.192802832 -0.222643167 0.349421918
v -0.254077315 -0.050829906 0.298519433
v -0.253486812 -0.0529229902 0.291732937
v -0.252896339 -0.0550160743 0.284946442
v -0.255735219 -0.058076635 0.278159946
v -0.255144715 -0.0601697192 0.271373421
v -0.254554212 -0.0622628033 0.264586926
v -0.253963739 -0.0643558875 0.25780043
v -0.253077596 -0.0672768205 0.251237333
v -0.256219536 -0.0694887936 0.244221777
v -0.255280226 -0.0725556165 0.237702057
v -0.29454875 0.0259991344 0.206643507
v -0.30191651 0.024425257 0.198959082
v -0.274747849 -0.0614807196 0.218807638
v -0.282934308 -0.0598784797 0.217819735
v -0.289834261 -0.0618250631 0.217819735
v -0.299041003 -0.057516735 0.216075718
v -0.303385049 -0.066389896 0.218007103
v -0.306109965 -0.0695647821 0.214915931
v -0.317660093 -0.0595894083 0.204133108
v -0.320823699 -0.0616223589 0.200707957
v -0.316904604 -0.0827407092 0.199004874
v -0.31604597 -0.085548535 0.192391485
v -0.32033056 -0.0848235488 0.184476212
v -0.320033789 -0.0858755857 0.181065157
v -0.319917828 -0.0867146403 0.173872679
v -0.320452392 -0.0858313814 0.16616717
v -0.316406667 -0.0869642347 0.159336999
v -0.319224268 -0.0800128207 0.149799466
v -0.315430492 -0.0804508254 0.142742217
v -0.308353454 -0.0789144039 0.142867401
v -0.306279212 -0.0641690269 0.135266736
v -0.305980146 -0.0652290732 0.131829694
v -0.298938781 -0.0741325095 0.131071255
v -0.441908538 0.33422485 -0.00058322947
v -0.441460609 0.32120958 -0.00110259664
v -0.443947077 0.304749936 -0.000870725547
v -0.440572649 0.284045309 0.00103719719
v -0.440955549 0.262268037 0.00298694801
v -0.439858943 0.236777052 0.00613762904
v -0.443199337 0.234557912 0.00649693422
v -0.44017148 0.204308003 0.0111925239
v -0.438854098 0.189664721 0.0113862203
v -0.43987304 0.170718879 0.0166721307
v -0.441537946 0.153331116 0.01745026
v -0.435040593 0.11505352 0.0248720348
v -0.440345764 0.107741974 0.0265303329
v -0.429980218 0.0705045313 0.0340454802
v -0.437023252 0.0678763092 0.0342289619
v -0.441751242 0.0593982786 0.0362730883
v -0.436391354 0.0252911989 0.042565003
v -0.441324443 0.0175974071 0.0443741232
v -0.435675442 -0.00680066878 0.0479641147
v -0.443476766 -0.00718043791 0.0474396162
v -0.442014784 -0.0307740532 0.0505009443
v -0.444457948 -0.0445591547 0.0504425354
v -0.443744212 -0.0563136265 0.0500750914
v -0.446552902 -0.0597502664 0.043175742
v -0.44101423 -0.0831711069 0.0466753505
v -0.445848703 -0.0907952636 0.0447037369
v -0.446430624 -0.0995324925 0.0396190137
v -0.446758419 -0.108508147 0.0384529307
v -0.445859134 -0.111357704 0.0317751057
v -0.446180016 -0.111269563 0.0241115745
v -0.444992274 -0.133180335 0.0270264521
v -0.446695 -0.139094874 0.0210982896
v -0.445768267 -0.141653776 0.0181702003
v -0.446373641 -0.150160879 0.0131511344
v -0.445057333 -0.153989673 0.00687751547
v -0.445371151 -0.1539381 -0.000737769355
v -0.438922942 -0.151150867 -0.00482886611
v -0.434625059 -0.152154133 -0.00413806783
v -0.426679671 -0.152623773 -0.00329282857
v -0.419114828 -0.152196795 -0.00276058633
v -0.411176741 -0.152695581 -0.00190689741
v -0.402248561 -0.15564622 -0.000201723931
v -0.3957268 -0.153044626 -0.00421811314
v -0.38880685 -0.15109241 -0.00421811314
v -0.379570216 -0.155221388 -0.00588664645
v -0.376943707 -0.171923205 -0.00793758873
v -0.380404323 -0.17284748 -0.00795400701
v -0.390478283 -0.166613072 -0.00704746274
v -0.397485912 -0.168289334 -0.00714207161
v -0.404813349 -0.169189334 -0.00750931865
v -0.412404984 -0.169460267 -0.0080979364
v -0.419583738 -0.170744032 -0.00833123457
v -0.427907825 -0.168947443 -0.00585864577
v -0.431610048 -0.169330761 -0.00606603315
v -0.439141214 -0.169805259 -0.00658365199
v -0.446055233 -0.171755821 -0.00658365199
v -0.444476843 -0.176192373 -0.0126030566
v -0.447303206 -0.179354578 -0.0194116589
v -0.445700496 -0.183841079 -0.025397744
v -0.444484472 -0.187414438 -0.0317020901
v -0.447332472 -0.190160379 -0.0348569714
v -0.441975713 -0.185265377 -0.0435189754
v -0.434096217 -0.185619459 -0.0426833704
v -0.426098078 -0.186281204 -0.0417371504
v -0.418044776 -0.187103003 -0.0407339893
v -0.410262883 -0.187298894 -0.0399586037
v -0.402003407 -0.18867673 -0.0387562849
v -0.400814623 -0.182550803 -0.0444142632
v -0.392510831 -0.184048146 -0.0431654342
v -0.385620952 -0.182104409 -0.0431654342
v -0.375233024 -0.189128995 -0.0436970741
v -0.621121883 0.407105893 -0.269637108
v -0.380335331 -0.196389571 -0.0531023182
v -0.387003869 -0.198820636 -0.0529213957
v -0.393872947 -0.200758517 -0.0529213957
v -0.403074384 -0.196719527 -0.051328741
v -0.410619885 -0.197055146 -0.0519170798
v -0.417501837 -0.198996648 -0.0519170798
v -0.424753338 -0.200057924 -0.0522401035
v -0.433922112 -0.196236551 -0.0505599231
v -0.437368602 -0.197208852 -0.0505599231
v -0.444737494 -0.198034376 -0.0509699583
v -0.44713372 -0.202184528 -0.0573968105
v -0.446635187 -0.204065546 -0.0642997995
v -0.446041703 -0.206169248 -0.0711206943
v -0.445246041 -0.208746701 -0.0777638331
v -0.444987059 -0.210066617 -0.0848794952
v -0.441243231 -0.210146099 -0.0882902443
v -0.434118748 -0.208745062 -0.0880845562
v -0.42542094 -0.211083919 -0.0864655599
v -0.629545212 0.283430994 -0.277297556
v -0.622707963 0.245629758 -0.272422224
v -0.434487462 -0.209280834 -0.103129901
v -0.441948324 -0.209911436 -0.10363365
v -0.445102632 -0.211938426 -0.107048757
v -0.584276617 0.103264995 -0.23682186
v -0.631654322 0.203359142 -0.280190617
v -0.622109652 0.160330862 -0.272841781
v -0.626470864 0.160069123 -0.277409345
v -0.623249531 0.132072225 -0.275747299
v -0.636951685 0.153669238 -0.284671813
v -0.620267808 0.0951739997 -0.270868301
v -0.623778462 0.0930874422 -0.274658799
v -0.628129959 0.0828746781 -0.279826492
v -0.634461761 0.0875841752 -0.282135099
v -0.594707012 -0.0211361479 -0.24357377
v -0.601798296 -0.0237748083 -0.243346363
v -0.609142244 -0.0258466396 -0.243346363
v -0.619709611 -0.0207931437 -0.2462098
v -0.605095267 -0.0625870973 -0.233874172
v -0.611745477 -0.0660193935 -0.233318061
v -0.619021475 -0.0680720657 -0.233318061
v -0.626332879 -0.0700477809 -0.23334913
v -0.630782247 -0.0782106742 -0.230880558
v -0.626065612 -0.0976687148 -0.227453426
v -0.632983506 -0.100811191 -0.231029883
v -0.629754663 -0.116910867 -0.228906184
v -0.629233301 -0.136259153 -0.229827777
v -0.628435254 -0.14701663 -0.229814604
v -0.631319821 -0.158494085 -0.229898259
v -0.628920555 -0.172518283 -0.22848849
v -0.62965256 -0.188789055 -0.23048681
v -0.633773446 -0.18858172 -0.230989873
v -0.631869555 -0.210193947 -0.230689883
v -0.625941753 -0.231264427 -0.22619088
v -0.629144788 -0.242013812 -0.230329096
v -0.633051395 -0.242166519 -0.230682448
v -0.638816953 -0.247583941 -0.237058192
v -0.635765314 -0.262425572 -0.23506391
v -0.632523179 -0.286095172 -0.233561009
v -0.635040164 -0.289004505 -0.232731551
v -0.63577652 -0.304387033 -0.234703079
v -0.63731277 -0.309682369 -0.236705631
v -0.636889517 -0.311444253 -0.243685395
v -0.63685441 -0.312424451 -0.251009047
v -0.623479724 -0.340266913 -0.246512264
v -0.631097198 -0.341577083 -0.254494756
v -0.630599856 -0.350849092 -0.254664749
v -0.626103222 -0.368059307 -0.251280934
v -0.618744373 -0.399012834 -0.245949209
v -0.623642087 -0.396958858 -0.247296512
v -0.622871161 -0.414624393 -0.247818083
v -0.62895149 -0.41070205 -0.253816426
v -0.629576325 -0.425500214 -0.255568057
v -0.624500036 -0.443370879 -0.251650214
v -0.620504498 -0.466469824 -0.245730311
v -0.620064616 -0.475160241 -0.245931506
v -0.621870458 -0.479479313 -0.248125136
v -0.629930139 -0.479531199 -0.256464124
v -0.633250058 -0.480467796 -0.256464124
v -0.63275528 -0.496896118 -0.257206351
v -0.620027661 -0.528832555 -0.246487752
v -0.622104287 -0.539629102 -0.246010169
v -0.629835069 -0.532576323 -0.253453046
v -0.634623706 -0.538685739 -0.258871466
v -0.633948326 -0.547495723 -0.258853167
v -0.634745061 -0.561004281 -0.260718256
v -0.636672497 -0.564873755 -0.263007939
v -0.637046278 -0.565119565 -0.270284981
v -0.636526227 -0.567031622 -0.276767373
v -0.634167671 -0.572367728 -0.28159225
v -0.621470153 -0.603394866 -0.270675212
v -0.628811479 -0.60450083 -0.278362632
v -0.626475573 -0.616143823 -0.27678296
v -0.629042983 -0.626000285 -0.280155331
v -0.619046748 -0.651567936 -0.271643221
v -0.622027516 -0.660016298 -0.271983236
v -0.621700048 -0.667763591 -0.272209972
v -0.624962807 -0.676082611 -0.276196986
v -0.626067698 -0.681176901 -0.277713448
v -0.628959835 -0.683035374 -0.280844688
v -0.635016501 -0.685786664 -0.283975929
v -0.621580005 -0.72382158 -0.272875547
v -0.623922527 -0.726104319 -0.272166908
v -0.609698534 -0.76466459 -0.25706771
v -0.615507245 -0.76706022 -0.256736219
v -0.621468604 -0.769181967 -0.256543547
v -0.627578199 -0.771040916 -0.25648427
v -0.633201003 -0.773747563 -0.255993605
v -0.627677739 -0.790073633 -0.251643807
v -0.621018887 -0.814929724 -0.246823981
v -0.619982481 -0.823323965 -0.24644497
v -0.625446498 -0.826584935 -0.249137208
v -0.62117368 -0.840471447 -0.24588877
v -0.625741005 -0.845682681 -0.251022279
v -0.625093639 -0.853277326 -0.250984907
v -0.634133816 -0.85037446 -0.256864488
v -0.62815696 -0.866951287 -0.252101243
v -0.624754131 -0.885495007 -0.250150979
v -0.625051677 -0.891355038 -0.250947297
v -0.621731699 -0.909572244 -0.249054939
v -0.624706388 -0.910411477 -0.249054939
v -0.630143583 -0.913905442 -0.254941702
v -0.63286221 -0.915652454 -0.257885098
v -0.632318974 -0.922798395 -0.257929951
v -0.641274154 -0.919985712 -0.263771862
v -0.629612744 -0.951533079 -0.254475176
v -0.630530477 -0.956165314 -0.255813479
v -0.633218765 -0.957892835 -0.258724004
v -0.638848484 -0.960450172 -0.261634499
v -0.634486437 -0.979673028 -0.258807749
v -0.634517133 -0.985658765 -0.259354532
v -0.634936929 -0.990998447 -0.260245413
v -0.638611913 -0.99659282 -0.261439383
v -0.636746109 -1.00555468 -0.260302186
v -0.637266099 -1.01115823 -0.26437363
v -0.635203898 -1.00996768 -0.271314204
v -0.635245562 -1.01087356 -0.277547717
v -0.634745419 -1.01264644 -0.283296227
v -0.620956779 -1.04059076 -0.271326274
v -0.623244405 -1.04820395 -0.271271855
v -0.626156211 -1.04991758 -0.277436763
v -0.626847148 -1.05466235 -0.278530598
v -0.631521165 -1.05844128 -0.280632347
v -0.630789578 -1.06539237 -0.280442894
v -0.632103682 -1.07487988 -0.282567501
v -0.618988335 -1.10110414 -0.271181643
v -0.620568752 -1.10951972 -0.270521581
v -0.622813106 -1.11169505 -0.273011595
v -0.632056713 -1.10869515 -0.282286257
v -0.63241154 -1.11379158 -0.2830697
v -0.632449508 -1.11936021 -0.283565521
v -0.636544704 -1.12380457 -0.285180807
v -0.636901379 -1.13442183 -0.286427438
v -0.635286033 -1.13737285 -0.287964404
v -0.635899544 -1.13741481 -0.294516146
v -0.636014402 -1.13821757 -0.300621003
v -0.63601923 -1.13918853 -0.30662933
v -0.63553524 -1.14090419 -0.312191814
v -0.637556553 -1.13880801 -0.320066273
v -0.635063648 -1.13850248 -0.326385826
v -0.634945989 -1.13966191 -0.332301438
v -0.634518504 -1.13620067 -0.340568811
v -0.630506456 -1.13771367 -0.342470437
v -0.624270141 -1.1375246 -0.344927341
v -0.616010964 -1.13996959 -0.34244287
v -0.608616233 -1.14111018 -0.340763986
v -0.605674803 -1.14100003 -0.343654394
v -0.598088324 -1.14246523 -0.341774583
v -0.590559661 -1.14386487 -0.339937389
v -0.586610377 -1.14015257 -0.344554037
v -0.579095066 -1.14155495 -0.342713594
v -0.571549416 -1.14302981 -0.340830803
v -0.565944672 -1.14144862 -0.340830803
v -0.56290096 -1.14151323 -0.343603671
v -0.557296216 -1.13993204 -0.343603671
v -0.549803615 -1.14137828 -0.341739833
v -0.54247719 -1.14258206 -0.340027422
v -0.536444068 -1.14218163 -0.342594415
v -0.530473948 -1.14121914 -0.342215776
v -0.523673117 -1.14161623 -0.341000885
v -0.521848321 -1.13970649 -0.344981343
v -0.515054107 -1.14010477 -0.343764305
v -0.509468436 -1.13852894 -0.343764305
v -0.501353264 -1.14113736 -0.341189414
v -0.49805665 -1.13622963 -0.346527725
v -0.485383362 -1.14647579 -0.339246482
v -0.479024708 -1.14624524 -0.338422894
v -0.474024266 -1.14418709 -0.341997147
v -0.467671573 -1.14395773 -0.341172129
v -0.462114602 -1.14239001 -0.341172129
v -0.456557631 -1.14082241 -0.341172129
v -0.453539938 -1.14088643 -0.343921334
v -0.447982997 -1.1393187 -0.343921334
v -0.44239381 -1.13780653 -0.34388718
v -0.436629832 -1.1370312 -0.346670568
v -0.431072891 -1.13546348 -0.346670568
v -0.424126208 -1.13632023 -0.34517765
v -0.413848847 -1.1430347 -0.340081662
v -0.416399926 -1.13334262 -0.348833799
v -0.407455981 -1.13775265 -0.345151216
v -0.397758126 -1.14355135 -0.340618014
v -0.390876591 -1.14440429 -0.339133769
v -0.385583997 -1.14285672 -0.34237811
v -0.379597396 -1.14213169 -0.341865093
v -0.374076605 -1.14057422 -0.341865093
v -0.3683182 -1.13985908 -0.344596416
v -0.362797409 -1.13830161 -0.344596416
v -0.356042117 -1.1390003 -0.343207359
v -0.349973649 -1.13845873 -0.342583179
v -0.347964585 -1.13670969 -0.346428186
v -0.341546267 -1.13681793 -0.345402718
v -0.335348099 -1.13653255 -0.344620705
v -0.328261733 -1.13791597 -0.342812985
v -0.324088246 -1.13426387 -0.347347349
v -0.316017359 -1.13752759 -0.34438026
v -0.30545795 -1.14554286 -0.338492692
v -0.300832629 -1.14276028 -0.342481405
v -0.296884298 -1.14428318 -0.341066539
v -0.290647745 -1.14418495 -0.340175122
v -0.283131689 -1.14656019 -0.337762743
v -0.278905004 -1.14299929 -0.342226028
v -0.271959543 -1.14430916 -0.340468109
v -0.266491175 -1.14276648 -0.340468109
v -0.264982045 -1.13997567 -0.344933122
v -0.258053243 -1.14128685 -0.343173504
v -0.250979304 -1.14291191 -0.341222674
v -0.24375999 -1.14485598 -0.33907789
v -0.239821032 -1.14066374 -0.343924701
v -0.234081 -1.13968027 -0.343581408
v -0.225195304 -1.14502978 -0.339339942
v -0.223201156 -1.13687468 -0.346626759
v -0.21601975 -1.13882697 -0.344474584
v -0.208623841 -1.1412518 -0.342034101
v -0.199880019 -1.14648104 -0.337870747
v -0.200220913 -1.13977826 -0.344728291
v -0.194775224 -1.13824189 -0.344728291
v -0.18520081 -1.14528036 -0.33944881
v -0.179274246 -1.14479101 -0.338807732
v -0.174708754 -1.14179504 -0.342904896
v -0.168202266 -1.14253259 -0.341507316
v -0.162195072 -1.14223516 -0.34074834
v -0.160899788 -1.13879383 -0.345591336
v -0.154405564 -1.139534 -0.344191372
v -0.147656173 -1.14084518 -0.34244144
v -0.144375786 -1.13502669 -0.348277777
v -0.137339443 -1.13697731 -0.346131414
v -0.13107352 -1.13728535 -0.344999462
v -0.124504603 -1.13827634 -0.343448371
v -0.120837897 -1.13321531 -0.348814219
v -0.113532014 -1.13585448 -0.346245766
v -0.103686742 -1.14418924 -0.340173453
v -0.09520486 -1.14957869 -0.335920811
v -0.0953812599 -1.14269352 -0.342863977
v -0.0872036591 -1.1474514 -0.338995636
v -0.0815272778 -1.14660597 -0.338581681
v -0.0761488527 -1.14508867 -0.338581681
v -0.0705389082 -1.14439201 -0.341242582
v -0.0651604831 -1.14287472 -0.341242582
v -0.059782058 -1.1413573 -0.341242582
v -0.0541721135 -1.14066064 -0.343903482
v -0.051482901 -1.139902 -0.343903482
v -0.0461044759 -1.1383847 -0.343903482
v -0.0380132683 -1.14327395 -0.339960724
v -0.0351161063 -1.13617063 -0.346564353
v -0.0265178718 -1.14234197 -0.341828734
v -0.0190171544 -1.1459645 -0.338667691
v -0.0136170108 -1.14483249 -0.341585726
v -0.00826460216 -1.14332247 -0.341585726
v -0.00107538875 -1.14629865 -0.338823617
v 0.00267061824 -1.14111924 -0.344233751
v 0.00552526675 -1.14080369 -0.343962818
v 0.0125121158 -1.14334559 -0.341466963
v 0.017855119 -1.14183819 -0.341466963
v 0.021810092 -1.13709104 -0.346610367
v 0.0287711229 -1.13963878 -0.34411034
v 0.0357505642 -1.14228094 -0.341555059
v 0.0416446179 -1.14220381 -0.340676397
v 0.0423586257 -1.13668573 -0.346753716
v 0.0498711355 -1.14076114 -0.343313992
v 0.0555752926 -1.14022219 -0.342719704
v 0.0622788109 -1.14229763 -0.340517312
v 0.0664633736 -1.13802838 -0.345356315
v 0.0735057667 -1.14104021 -0.342575341
v 0.0812559128 -1.14598417 -0.338608325
v 0.0856496692 -1.14225209 -0.343110383
v 0.0889964327 -1.14335024 -0.341971904
v 0.095279865 -1.14447641 -0.340355933
v 0.100881316 -1.14378738 -0.339859128
v 0.105746336 -1.14128745 -0.343599707
v 0.111418799 -1.14079702 -0.342979789
v 0.117924698 -1.14262021 -0.340936244
v 0.121908396 -1.13765311 -0.346195877
v 0.12881133 -1.1406225 -0.343444139
v 0.135155275 -1.14207625 -0.341628879
v 0.138053402 -1.13397241 -0.348820716
v 0.142215654 -1.13751233 -0.346177101
v 0.148608416 -1.13915229 -0.344246089
v 0.156161696 -1.14417338 -0.340235442
v 0.158926442 -1.13555503 -0.347738653
v 0.166942224 -1.14200127 -0.342846006
v 0.172218919 -1.1405127 -0.342846006
v 0.178723827 -1.14265358 -0.340611964
v 0.182999447 -1.13834059 -0.34545657
v 0.186680511 -1.14070857 -0.343538761
v 0.19265838 -1.14134812 -0.342229187
v 0.199638292 -1.1450485 -0.339037359
v 0.204859808 -1.14357603 -0.342125237
v 0.210374907 -1.14288521 -0.341637284
v 0.217577785 -1.14741814 -0.337934017
v 0.222820595 -1.14593911 -0.337934017
v 0.227645054 -1.14324296 -0.34177053
v 0.233531907 -1.14378095 -0.340527803
v 0.238774732 -1.1423018 -0.340527803
v 0.244243219 -1.14162278 -0.343121588
v 0.246864632 -1.14088321 -0.343121588
v 0.252107441 -1.13940406 -0.343121588
v 0.259200186 -1.14395046 -0.339413762
v 0.262818754 -1.13724589 -0.345715404
v 0.270647168 -1.14431214 -0.340452671
v 0.277277648 -1.14751637 -0.337573141
v 0.281322718 -1.14216125 -0.343037814
v 0.284137636 -1.1421051 -0.342618257
v 0.29054147 -1.14463365 -0.340153545
v 0.295757174 -1.14316213 -0.340153545
v 0.301197439 -1.14248657 -0.342733949
v 0.306413144 -1.14101517 -0.342733949
v 0.31174624 -1.13995409 -0.342481345
v 0.317770988 -1.1413368 -0.340725422
v 0.319676995 -1.13813245 -0.345314324
v 0.3248927 -1.13666093 -0.345314324
v 0.331146449 -1.13891983 -0.343018085
v 0.33814019 -1.14391863 -0.339038879
v 0.342284292 -1.13859212 -0.344475865
v 0.348753721 -1.14178014 -0.341609001
v 0.355116934 -1.14464962 -0.338941455
v 0.359545022 -1.14030671 -0.343769312
v 0.366913646 -1.14704573 -0.338716865
v 0.372333348 -1.14650846 -0.338148594
v 0.376648843 -1.14168727 -0.343267173
v 0.380318671 -1.14510822 -0.340708852
v 0.385493726 -1.14364827 -0.340708852
v 0.391158283 -1.14410567 -0.339528829
v 0.396066606 -1.141518 -0.34326914
v 0.401723206 -1.14197695 -0.342087179
v 0.408254117 -1.1459837 -0.338722616
v 0.413816124 -1.14615762 -0.337719977
v 0.416216403 -1.1445874 -0.341275513
v 0.421773314 -1.14476228 -0.340271235
v 0.427456111 -1.14548826 -0.338928849
v 0.432308882 -1.14263952 -0.342822492
v 0.437571794 -1.14163256 -0.342546552
v 0.443135083 -1.14191377 -0.341477931
v 0.448287487 -1.14046013 -0.341477931
v 0.45366165 -1.1397928 -0.344026983
v 0.458814055 -1.13833916 -0.344026983
v 0.463966429 -1.13688564 -0.344026983
v 0.469340622 -1.13621819 -0.346576065
v 0.471916825 -1.13549149 -0.346576065
v 0.478147894 -1.13892436 -0.343567014
v 0.484353751 -1.14233744 -0.340573668
v 0.488654375 -1.13680744 -0.346111238
v 0.494840235 -1.14022458 -0.343113035
v 0.500491738 -1.14122105 -0.341608226
v 0.505326748 -1.13811171 -0.345652401
v 0.508404255 -1.13983357 -0.344145179
v 0.51358825 -1.13865805 -0.343978167
v 0.519495964 -1.14102316 -0.341632009
v 0.524063587 -1.13654745 -0.346514821
v 0.530762315 -1.14293921 -0.341686398
v 0.53595376 -1.14189959 -0.341438591
v 0.54106456 -1.14045775 -0.341438591
v 0.543839991 -1.14051664 -0.34396708
v 0.549072504 -1.1397053 -0.343578696
v 0.554665864 -1.1407975 -0.342018902
v 0.559511602 -1.13760197 -0.346106559
v 0.565107226 -1.13876414 -0.344502479
v 0.570582628 -1.13933384 -0.343264997
v 0.575682938 -1.13789487 -0.343264997
v 0.581002831 -1.13723433 -0.3457883
v 0.586103201 -1.13579535 -0.3457883
v 0.59212333 -1.13957679 -0.342574984
v 0.597432375 -1.13891745 -0.345093161
v 0.599977374 -1.13819945 -0.345093161
v 0.605080247 -1.13683927 -0.34504649
v 0.610621274 -1.13807571 -0.343401611
v 0.615924656 -1.1374172 -0.345917076
v 0.621157408 -1.13688338 -0.345362306
v 0.626240075 -1.13544941 -0.345362306
v 0.628562629 -1.13395691 -0.342847735
v 0.63299489 -1.12904191 -0.341991097
v 0.631634593 -1.12171113 -0.340483934
v 0.631686926 -1.10646152 -0.343325883
v 0.630495012 -1.08316386 -0.35097596
v 0.630272567 -1.08237553 -0.348419785
v 0.632411122 -1.0800699 -0.343307436
v 0.632456124 -1.06432843 -0.346247733
v 0.634291112 -1.07674372 -0.335777849
v 0.630332708 -1.03507769 -0.354111999
v 0.631380558 -1.04315186 -0.343181431
v 0.632058918 -1.0311811 -0.343706489
v 0.634448707 -1.02959657 -0.341137975
v 0.633997142 -1.02799594 -0.335948348
v 0.636168063 -1.02565563 -0.33075875
v 0.638202965 -1.02241611 -0.32609275
v 0.638113141 -1.02251494 -0.322974324
v 0.633551419 -0.975386441 -0.343707979
v 0.637301922 -1.00174856 -0.322295159
v 0.635529101 -0.972193182 -0.335793197
v 0.637498975 -0.986813188 -0.321208
v 0.632740438 -0.937647343 -0.342662424
v 0.634819806 -0.934207141 -0.337914169
v 0.634355366 -0.932560921 -0.332576543
v 0.635771453 -0.923827946 -0.333943337
v 0.636355937 -0.929330647 -0.32457009
v 0.637544394 -0.919764042 -0.323240489
v 0.635221183 -0.885876179 -0.335433155
v 0.634985685 -0.885041595 -0.332727134
v 0.636412203 -0.876787305 -0.330535024
v 0.63400811 -0.861707985 -0.332507104
v 0.634143412 -0.844278038 -0.335281253
v 0.634907484 -0.831072092 -0.335673898
v 0.635062695 -0.832995713 -0.331412226
v 0.636374056 -0.823540926 -0.329710066
v 0.635381401 -0.797591925 -0.336896777
v 0.637041688 -0.810271382 -0.326814413
v 0.633170843 -0.763488889 -0.345091909
v 0.638028562 -0.800034106 -0.318996578
v 0.634682953 -0.755834997 -0.338950276
v 0.636761904 -0.772603691 -0.323494285
v 0.636156797 -0.748757303 -0.32920137
v 0.636145353 -0.728960514 -0.33267355
v 0.637677133 -0.741984904 -0.319266498
v 0.631565034 -0.676299214 -0.349965394
v 0.637773335 -0.723792493 -0.318531692
v 0.634272039 -0.677860141 -0.335387975
v 0.635875762 -0.669338882 -0.332713723
v 0.635625601 -0.668452084 -0.329838455
v 0.638031125 -0.665858746 -0.324087888
v 0.637411714 -0.663193703 -0.31879285
v 0.632463813 -0.605163753 -0.341237396
v 0.634132743 -0.596592069 -0.338382542
v 0.634659231 -0.601618946 -0.332451373
v 0.636332333 -0.593040466 -0.329579681
v 0.632764339 -0.544061005 -0.346904069
v 0.632505238 -0.543142557 -0.343925983
v 0.634292901 -0.535006046 -0.340679556
v 0.633773804 -0.533165872 -0.334713101
v 0.635287702 -0.522823155 -0.33251664
v 0.634628475 -0.495319039 -0.338700593
v 0.634366214 -0.494389504 -0.335686773
v 0.632031381 -0.453304917 -0.348343551
v 0.633698344 -0.468773842 -0.333831668
v 0.633678257 -0.444528133 -0.341653168
v 0.634655714 -0.42913124 -0.34162873
v 0.634122074 -0.427239656 -0.335495591
v 0.636954486 -0.425419539 -0.332429022
v 0.636420846 -0.423527956 -0.326295882
v 0.637917817 -0.412088245 -0.324270248
v 0.638337076 -0.391710848 -0.326417357
v 0.637251854 -0.385332793 -0.32233271
v 0.63536936 -0.344461232 -0.337503195
v 0.636621773 -0.357315183 -0.324352235
v 0.637444556 -0.339704603 -0.324975818
v 0.63467145 -0.291859508 -0.339479595
v 0.634395301 -0.29088065 -0.336305737
v 0.63314563 -0.255192757 -0.344991207
v 0.636498272 -0.286060244 -0.323610425
v 0.635222435 -0.249932989 -0.332351774
v 0.63529855 -0.224833995 -0.335966378
v 0.635017931 -0.223839223 -0.332740933
v 0.635694146 -0.203567639 -0.334069729
v 0.63653183 -0.213593677 -0.322223723
v 0.638124049 -0.199644163 -0.324345082
v 0.63755995 -0.197644651 -0.317862004
v 0.635012567 -0.148936361 -0.331545085
v 0.633858323 -0.111749262 -0.339975983
v 0.635052025 -0.123722918 -0.330978543
v 0.635442555 -0.0997735783 -0.333492637
v 0.634752274 -0.0658777952 -0.340218574
v 0.634169042 -0.0638104528 -0.333515525
v 0.634086728 -0.0333191454 -0.342406064
v 0.633799672 -0.033930216 -0.334498674
v 0.633039653 0.00148024934 -0.341511041
v 0.635888457 0.00455154385 -0.334700733
v 0.635592163 0.00560175581 -0.33129558
v 0.632208049 0.065826796 -0.348478764
v 0.634919465 0.0376068093 -0.328884065
v 0.634468019 0.0713654086 -0.334767252
v 0.634726286 0.0990079343 -0.337988615
v 0.634564519 0.0987686962 -0.333966881
v 0.636215091 0.113725372 -0.331855863
v 0.635048389 0.155506968 -0.340637892
v 0.635021508 0.153949559 -0.336036146
v 0.635642231 0.179292202 -0.337962329
v 0.636908174 0.163561314 -0.323659986
v 0.63390255 0.22389172 -0.339498997
v 0.634887755 0.24655588 -0.340084493
v 0.634574771 0.247665226 -0.336487591
v 0.635861516 0.267701268 -0.335930824
v 0.635232925 0.269929409 -0.328706443
v 0.63601619 0.297157198 -0.334929198
v 0.636295974 0.290444613 -0.324166387
v 0.633973062 0.346736997 -0.33747974
v 0.635356426 0.366932034 -0.336641431
v 0.635035276 0.368070215 -0.332951009
v 0.635351539 0.399277151 -0.336237013
v 0.63622272 0.425329298 -0.337443054
v 0.633241296 0.451260924 -0.338912487
v 0.634601116 0.475080043 -0.343301505
v 0.634179175 0.475005448 -0.33484441
v 0.637103975 0.48081696 -0.328192323
v 0.634255946 0.546673119 -0.34381336
v 0.633922338 0.547855496 -0.339979619
v 0.635456026 0.568852484 -0.338766485
v 0.634786129 0.571227014 -0.331067324
v 0.637828946 0.576576948 -0.32405144
v 0.634012103 0.655037582 -0.343478382
v 0.633708 0.655853748 -0.339417934
v 0.636327982 0.666459858 -0.334117591
v 0.635057271 0.675186872 -0.328517228
v 0.634397388 0.723992705 -0.341112852
v 0.633809686 0.725322664 -0.332772106
v 0.635348916 0.748373032 -0.331673324
v 0.632992446 0.814694524 -0.345614821
v 0.632724106 0.815021574 -0.341249019
v 0.635329545 0.827314317 -0.336155146
v 0.63447547 0.878558815 -0.344437182
v 0.634544969 0.872325838 -0.333249629
v 0.632453799 0.941097081 -0.351804018
v 0.632055163 0.940007448 -0.342274487
v 0.635200977 0.947394073 -0.335219771
v 0.633341789 1.01245606 -0.347480923
v 0.635855496 0.980633616 -0.332212657
v 0.635537922 1.02860475 -0.338553369
v 0.634959519 1.02941227 -0.329541117
v 0.635131419 1.07242239 -0.333989859
v 0.63446945 1.1260432 -0.341738403
v 0.633578479 1.13348281 -0.339438766
v 0.632547379 1.13948047 -0.331933647
v 0.635921359 1.14598536 -0.324184597
v 0.63536346 1.14637411 -0.314864337
v 0.634818852 1.14661121 -0.305504739
v 0.634335577 1.14612663 -0.295927018
v 0.633881629 1.14530289 -0.28625524
v 0.626099169 1.13257122 -0.283030838
v 0.621796131 1.12814295 -0.277335584
v 0.613243639 1.12183344 -0.271441609
v 0.607766688 1.13068962 -0.269892603
v 0.598815024 1.13154173 -0.270916522
v 0.590422213 1.12630165 -0.270045757
v 0.58270371 1.11668766 -0.272496939
v 0.572645843 1.13132763 -0.282537401
v 0.569579542 1.11964893 -0.283955902
v 0.573106766 1.00011766 -0.256284088
v 0.55685699 1.11813807 -0.29403913
v 0.54626143 1.13217366 -0.294540554
v 0.537560999 1.1298008 -0.294565618
v 0.528947651 1.12660801 -0.294331461
v 0.52139926 1.1157341 -0.296379238
v 0.509229004 1.14498949 -0.30644545
v 0.500426114 1.1431284 -0.306637138
v 0.493053734 1.12672174 -0.29747501
v 0.489029825 1.12261569 -0.29656297
v 0.478882581 1.13064313 -0.295150936
v 0.470906764 1.12190843 -0.293166429
v 0.461610883 1.12432325 -0.294708043
v 0.450457633 1.14351118 -0.306318164
v 0.445921928 1.14354193 -0.306720436
v 0.437240958 1.1404264 -0.306515813
v 0.429716349 1.12659812 -0.298157871
v 0.420030296 1.12990534 -0.295238733
v 0.411284894 1.12743819 -0.295238733
v 0.441837907 0.859782159 -0.206451356
v 0.444351941 0.870375037 -0.200443149
v 0.443423837 0.874546945 -0.192771003
v 0.442674041 0.877357125 -0.184670955
v 0.442655057 0.874598265 -0.174857348
v 0.434451163 0.871797562 -0.17471315
v 0.425857365 0.871898353 -0.175461948
v 0.417587519 0.869565308 -0.175461948
v 0.409049302 0.869166613 -0.176057979
v 0.403516054 0.876707494 -0.174252316
v 0.395135105 0.875034153 -0.174456581
v 0.386847079 0.872695982 -0.174456581
v 0.378932178 0.867791653 -0.173666984
v 0.373301238 0.874451458 -0.167091757
v 0.376358032 0.881922066 -0.164523482
v 0.385392785 0.879163325 -0.162969783
v 0.393850684 0.880338669 -0.162615344
v 0.402833015 0.877732933 -0.161110774
v 0.411478102 0.877436519 -0.160310045
v 0.420244128 0.876178741 -0.159217894
v 0.428762406 0.876666188 -0.158657119
v 0.437159479 0.878017306 -0.15835917
v 0.441292197 0.879183233 -0.15835917
v 0.444221944 0.886635184 -0.151315749
v 0.44363451 0.888204813 -0.142844558
v 0.443034589 0.889870942 -0.134405807
v 0.44303751 0.886929393 -0.124607913
v 0.435150653 0.881793618 -0.123777814
v 0.425340086 0.889649868 -0.122327529
v 0.421187192 0.888614655 -0.122366302
v 0.412534446 0.889064312 -0.123187952
v 0.404413104 0.885623395 -0.122861154
v 0.396139681 0.883289337 -0.122861154
v 0.443879366 0.48821488 -0.00264205341
v 0.391756356 0.880130529 -0.108890161
v 0.395887852 0.881296039 -0.108890161
v 0.404582173 0.880532682 -0.107985072
v 0.413326412 0.880646408 -0.111789912
v 0.421957165 0.880209386 -0.110979006
v 0.430666804 0.879105031 -0.109973401
v 0.439064145 0.880271852 -0.109633945
v 0.442830533 0.882692158 -0.105556145
v 0.442368925 0.883315086 -0.0968519747
v 0.442005962 0.883188248 -0.0879392624
v 0.442606747 0.875719845 -0.0769370869
v 0.441020936 0.884917498 -0.070707798
v 0.442843795 0.868162215 -0.0571304522
v 0.442816645 0.865503192 -0.0475773178
v 0.442801625 0.862758458 -0.0380202122
v 0.442979842 0.858552396 -0.0280794781
v 0.444684803 0.842762947 -0.0149857793
v 0.44435823 0.842410982 -0.00616908632
v 0.44296965 0.81834209 0.00874573458
v 0.444574177 0.803498566 0.0213919226
v 0.443400562 0.778353035 0.0364193805
v 0.443065405 0.779504657 0.0403963849
v 0.439734846 0.742851198 0.049547825
v 0.433270961 0.729889512 0.0524018891
v 0.422345996 0.749190032 0.0466664881
v 0.41316545 0.754373431 0.0489542075
v 0.405195177 0.752124906 0.0489542075
v 0.398586839 0.740493119 0.0514480285
v 0.38887161 0.750233293 0.0482613966
v 0.38071245 0.749220848 0.0479321927
v 0.372925133 0.745711088 0.048267398
v 0.365600795 0.739198804 0.0494025312
v 0.35875383 0.729700089 0.0513345376
v 0.345817506 0.78521502 0.0405520126
v 0.324780613 0.946439743 0.00697559351
v 0.326696306 0.931958139 0.019679442
v 0.328181416 0.949423075 0.0198729709
v 0.329888582 0.936205745 0.0321957953
v 0.332447976 0.945652246 0.0389397889
v 0.331955552 0.9467296 0.0475397147
v 0.331720024 0.946130693 0.0565579832
v 0.33114028 0.947781622 0.0649996176
v 0.330437452 0.95023632 0.073237665
v 0.330091685 0.950362682 0.082050927
v 0.326759338 0.941792488 0.0927014872
v 0.325050324 0.95077014 0.0993275493
v 0.320837945 0.947953701 0.108544469
v 0.320185125 0.951122999 0.112186193
v 0.315737396 0.949853241 0.121017933
v 0.310959816 0.950712025 0.129335612
v 0.310524225 0.952477515 0.133316308
v 0.301846176 0.950651348 0.141987786
v 0.296943575 0.952311397 0.15011324
v 0.292493969 0.952106118 0.154280826
v 0.288060009 0.951808095 0.15846926
v 0.279350907 0.950259209 0.167062148
v 0.314406484 0.71012491 0.230084673
v 0.314582944 0.708210886 0.234671146
v 0.317054689 0.716421187 0.241375536
v 0.316719323 0.716746688 0.249604434
v 0.317110837 0.71265614 0.258798838
v 0.311997205 0.717088878 0.265864611
v 0.307890892 0.717096925 0.265621006
v 0.303354263 0.695238054 0.269918501
v 0.299185842 0.694108725 0.278167993
v 0.289111376 0.704393387 0.279588223
v 0.250113994 0.906294823 0.240027934
v 0.241729155 0.905142903 0.239778861
v 0.238350704 0.874758303 0.250118166
v 0.232697114 0.881843209 0.252648711
v 0.224456176 0.880077183 0.252535015
v 0.214974537 0.885168254 0.250955045
v 0.206814617 0.882866204 0.250955045
v 0.195804015 0.896685839 0.243184716
v 0.193050355 0.888941824 0.240285397
v 0.188793615 0.865034461 0.249248281
v 0.188177884 0.867693722 0.252972186
v 0.188051924 0.867107689 0.261681557
v 0.187351316 0.869591057 0.269733489
v 0.18896088 0.882655561 0.275818586
v 0.205863059 0.836256862 0.294458479
v 0.209894732 0.837394297 0.294458479
v 0.217781872 0.841317534 0.289872497
v 0.226368517 0.840713501 0.290469289
v 0.236475542 0.830792546 0.297226399
v 0.237363636 0.825089514 0.302625984
v 0.241093487 0.850998998 0.302019387
v 0.250618517 0.844914377 0.30372563
v 0.253435791 0.852248192 0.306700021
v 0.252344847 0.856995404 0.314215809
v 0.252129674 0.856696546 0.322746158
v 0.251051873 0.86136663 0.330284804
v 0.253527284 0.869955242 0.337287754
v 0.25296703 0.871639311 0.345426649
v 0.253401756 0.867569983 0.35466674
v 0.252780646 0.845301151 0.367126644
v 0.249709517 0.838055432 0.372482121
v 0.2371784 0.85994333 0.376334399
v 0.234014824 0.853979051 0.377240032
v 0.225996107 0.850920916 0.381591886
v 0.231068283 0.775766671 0.399339795
v 0.235856086 0.703687549 0.416395366
v 0.237918422 0.669679999 0.426520705
v 0.237785816 0.647259831 0.438473135
v 0.239054456 0.618165195 0.44756484
v 0.227904931 0.676815748 0.444988847
v 0.231379583 0.63595897 0.456127286
v 0.188877046 0.861690342 0.424176484
v 0.187641069 0.867045879 0.431626678
v 0.190835997 0.871367157 0.439463347
v 0.190271318 0.873135746 0.447545588
v 0.190130383 0.872633576 0.456010222
v 0.190029159 0.871920347 0.464499384
v 0.190097213 0.870302081 0.473127037
v 0.189853966 0.870353043 0.481466055
v 0.189181268 0.872704506 0.489423186
v 0.18932344 0.870694637 0.49807933
v 0.189180225 0.870214283 0.50647676
v 0.189302862 0.868313432 0.515086114
v 0.188743621 0.870061398 0.523114502
v 0.188624457 0.869457006 0.531500399
v 0.189201608 0.865132511 0.540438056
v 0.189067453 0.864612579 0.548782527
v 0.188247561 0.86775738 0.556575179
v 0.188846469 0.863324642 0.565475523
v 0.18852815 0.863792837 0.573645115
v 0.190764233 0.873042464 0.580718815
v 0.190463737 0.873405457 0.588902771
v 0.190247223 0.873319209 0.597141504
v 0.189955011 0.87364012 0.605315506
v 0.189793035 0.873264372 0.613575935
v 0.18954815 0.873334289 0.621766984
v 0.189216346 0.873870969 0.629888177
v 0.188955426 0.87402916 0.638051689
v 0.188754544 0.873867214 0.646247983
v 0.188276708 0.875188589 0.654248118
v 0.180195287 0.873682201 0.654155493
v 0.19031468 0.776073694 0.670183241
v 0.185263276 0.780490041 0.673492134
v 0.17712608 0.780122697 0.673264563
v 0.174712256 0.749872327 0.680731952
v 0.174379244 0.751052737 0.684559166
v 0.163456723 0.764529288 0.686621487
v 0.155232817 0.76466614 0.686337769
v 0.119301282 0.902273595 0.67339021
v 0.11112792 0.900837719 0.673290491
v 0.111738615 0.876568079 0.68018353
v 0.109650269 0.885887265 0.687248707
v 0.100476891 0.889456809 0.686558545
v 0.092347905 0.887884736 0.686477661
v 0.379555494 -0.512342155 0.858207285
v 0.379160881 -0.511047482 0.863740921
v 0.379738271 -0.514418066 0.86980176
v 0.379962236 -0.516090691 0.875655234
v 0.379757345 -0.515704513 0.881270707
v 0.380158514 -0.518225014 0.887195468
v 0.380443603 -0.520187318 0.893045962
v 0.378613442 -0.525684834 0.896360219
v 0.379454792 -0.530283928 0.902457893
v 0.378981769 -0.52860719 0.907894433
v 0.379184633 -0.530155897 0.913653612
v 0.37959823 -0.532708883 0.919500053
v 0.380017549 -0.535287559 0.925334036
v 0.379546255 -0.53361702 0.930750489
v 0.37975359 -0.535182536 0.936467826
v 0.379784524 -0.535905778 0.942096889
v 0.37994656 -0.537253141 0.947773397
v 0.378854752 -0.546359181 0.954052329
v 0.378632218 -0.545865357 0.959537208
v 0.378653109 -0.546526015 0.96511519
v 0.378338486 -0.545594513 0.970553756
v 0.37861833 -0.547481596 0.97621721
v 0.378795296 -0.548879862 0.981829703
v 0.37890929 -0.549978375 0.9874084
v 0.379137099 -0.551615298 0.993018091
v 0.379409313 -0.553461552 0.998631716
v 0.376261055 -0.552398562 1.00123382
v 0.370548964 -0.552504301 1.00113022
v 0.364908546 -0.552966654 1.00105262
v 0.359242648 -0.553329647 1.00096774
v 0.353640944 -0.554004848 1.00090551
v 0.347852319 -0.553848803 1.00078249
v 0.34208408 -0.553811908 1.00066805
v 0.336430967 -0.554312706 1.00059283
v 0.330676824 -0.55438447 1.00048614
v 0.324688971 -0.553456604 1.00030625
v 0.318914354 -0.553493977 1.00019681
v 0.313162297 -0.553652406 1.00009608
v 0.307318032 -0.553438306 0.999968052
v 0.301776618 -0.554535747 0.999936044
v 0.295722544 -0.553483129 0.999746203
v 0.290099323 -0.554269195 0.999691188
v 0.284320235 -0.554421008 0.999589562
v 0.27784583 -0.55186826 1.00204802
v 0.272165865 -0.552480578 1.00198078
v 0.266278893 -0.552268684 1.00185359
v 0.260498315 -0.55251056 1.00175917
v 0.254868567 -0.553373277 1.00170994
v 0.248808801 -0.552543342 1.00153744
v 0.243005276 -0.552755296 1.00144064
v 0.237184659 -0.552919984 1.00134027
v 0.231429949 -0.553359807 1.0012598
v 0.225653827 -0.55373323 1.00117445
v 0.219723001 -0.55353266 1.00104725
v 0.214018956 -0.554216683 1.00098443
v 0.208013833 -0.553779364 1.00083959
v 0.202224195 -0.554175377 1.00075555
v 0.196305767 -0.554109454 1.00063765
v 0.190451697 -0.55430311 1.00053859
v 0.184654713 -0.554724395 1.00045609
v 0.178708717 -0.554619372 1.0003351
v 0.173004463 -0.555409789 1.00027943
v 0.166876853 -0.55469209 1.00011325
v 0.16082342 -0.554269195 0.999968529
v 0.154885232 -0.554280519 0.999855518
v 0.149197072 -0.555191338 0.999808371
v 0.142661631 -0.553139508 1.00233209
v 0.13980478 -0.553564787 1.00230658
v 0.133864179 -0.553637981 1.00219893
v 0.127926394 -0.553740084 1.00209343
v 0.122058846 -0.554100811 1.00200653
v 0.115672067 -0.552716374 1.00179267
v 0.109650098 -0.552598774 1.00167084
v 0.10406705 -0.553971827 1.00165725
v 0.0983089581 -0.554764986 1.00160146
v 0.0920590237 -0.553942204 1.00142789
v 0.0860819295 -0.554045558 1.00132167
v 0.0801052228 -0.554168344 1.00121677
v 0.0739059225 -0.553587019 1.00106037
v 0.0679202154 -0.553720713 1.00095606
v 0.0620323867 -0.554185629 1.00087583
v 0.0560679249 -0.554419994 1.00077856
v 0.0499144271 -0.554072261 1.00063872
v 0.0436135605 -0.553284228 1.00046659
v 0.0376410298 -0.553551137 1.00037146
v 0.0317113362 -0.553966761 1.00028706
v 0.0255450252 -0.553665221 1.00015008
v 0.0195112638 -0.553792894 1.00004447
v 0.0136323944 -0.554410458 0.999974549
v 0.00750327995 -0.554279864 0.999849737
v 0.00140669069 -0.554267228 0.999733508
v -0.00499640219 -0.553222895 1.0023632
v -0.0110498713 -0.553376555 1.00226021
v -0.0172411669 -0.553138018 1.0021286
v -0.0234370939 -0.552906573 1.00199735
v -0.0294552818 -0.553216815 1.00190532
v -0.035620261 -0.55311358 1.00178325
v -0.0418771766 -0.552762985 1.00164294
v -0.0478395969 -0.553282678 1.00156593
v -0.0541674085 -0.552767277 1.00141346
v -0.0602820218 -0.552882731 1.00130677
v -0.0662067086 -0.553552687 1.00124037
v -0.0724603385 -0.553305745 1.0011071
v -0.0784263313 -0.553884983 1.0010339
v -0.0847621188 -0.553444624 1.0008862
v -0.0910052061 -0.553283274 1.00075877
v -0.097072877 -0.553624511 1.00066793
v -0.103227817 -0.553739905 1.0005604
v -0.109324075 -0.554031134 1.00046575
v -0.115432955 -0.554302037 1.00036943
v -0.121809945 -0.553863645 1.00022113
v -0.127821058 -0.554428637 1.00014615
v -0.134259492 -0.553863764 0.999988377
v -0.140438959 -0.554009259 0.99988246
v -0.146341473 -0.554901481 0.9998312
v -0.152466029 -0.555217505 0.99973762
v -0.158907339 -0.554718852 0.999584138
v -0.162514582 -0.553241849 1.00227463
v -0.168961346 -0.552763224 1.00212431
v -0.175306708 -0.552567601 1.00199425
v -0.181327492 -0.55322361 1.00192595
v -0.187908798 -0.552457571 1.00175428
v -0.193848908 -0.553344905 1.00170267
v -0.200242698 -0.55309242 1.00156808
v -0.20628044 -0.55375427 1.00149989
v -0.212775156 -0.553281784 1.00134897
v -0.218976617 -0.553560317 1.00125265
v -0.225193724 -0.553813219 1.00115442
v -0.231517911 -0.553815544 1.00103784
v -0.23750037 -0.554672062 1.00098336
v -0.243931696 -0.554440081 1.00084937
v -0.250862777 -0.553012013 1.00062788
v -0.256944299 -0.553667367 1.0005585
v -0.263308704 -0.553651512 1.00043988
v -0.269825369 -0.553286791 1.00029564
v -0.276109576 -0.55349499 1.00019324
v -0.282167703 -0.554252684 1.00013089
v -0.288209349 -0.555057466 1.000072
v -0.29474768 -0.554703414 0.999928117
v -0.301160872 -0.554660559 0.999806881
v -0.307741046 -0.554245055 0.999658108
v -0.314113617 -0.554329216 0.999545932
v -0.320108533 -0.555297971 0.999498665
v -0.327582836 -0.552571774 1.0020752
v -0.333979279 -0.552648962 1.00196362
v -0.340571374 -0.552296042 1.00182056
v -0.346819967 -0.552738249 1.00173521
v -0.35300529 -0.5533337 1.00166082
v -0.35941124 -0.553444147 1.00155115
v -0.365938514 -0.553297818 1.00142264
v -0.371860504 -0.554511666 1.00139308
v -0.377927929 -0.555407703 1.00134039
v -0.439602196 -0.20244953 -0.0641779527
v -0.432302892 -0.201119065 -0.0601525307
v -0.424677461 -0.200927913 -0.0595056042
v -0.415895253 -0.204206154 -0.0651615113
v -0.415759623 -0.204871744 -0.0687082559
v -0.419486731 -0.205843925 -0.0763022453
v -0.422632813 -0.207865611 -0.0797084197
v -0.431376576 -0.205406621 -0.0813628137
v -0.439175218 -0.204513654 -0.0748163238
v -0.43939355 -0.203293756 -0.0676652193
v -0.398994118 -0.174984083 -0.0164720062
v -0.392540842 -0.171636432 -0.0131857404
v -0.382948667 -0.176671609 -0.0144988922
v -0.379211336 -0.176750943 -0.017903721
v -0.378677934 -0.178704947 -0.0247655716
v -0.383946568 -0.185259745 -0.030672688
v -0.387385309 -0.18622987 -0.030672688
v -0.395394206 -0.185408548 -0.0316656977
v -0.400853842 -0.180807889 -0.0260962695
v -0.402143925 -0.177008182 -0.0198822338
v -0.434589356 -0.172476605 -0.0166749489
v -0.426572919 -0.172830388 -0.0120700197
v -0.417996496 -0.175580904 -0.0179846734
v -0.416449904 -0.179644719 -0.0203279126
v -0.419017911 -0.18340914 -0.0269046761
v -0.42168802 -0.18658419 -0.0299021453
v -0.429534674 -0.186252683 -0.03072007
v -0.437990814 -0.184151039 -0.0283819325
v -0.440150738 -0.178330988 -0.0228757691
v -0.437214196 -0.175776884 -0.0196439009
v -0.398700893 -0.133931324 0.0160825048
v -0.392386377 -0.13010022 0.0192398969
v -0.384101838 -0.131806627 0.0166927055
v -0.37639308 -0.141757146 0.0166320093
v -0.381868392 -0.147930115 0.0105123073
v -0.385325402 -0.148905411 0.0105123073
v -0.392795742 -0.149481848 0.0100393696
v -0.40253523 -0.144173011 0.0113312611
v -0.401412964 -0.137101993 0.0130360816
v -0.437182665 -0.134291947 0.016663203
v -0.432608664 -0.126563743 0.0146991629
v -0.423656046 -0.129423141 0.0163420346
v -0.41504696 -0.141279891 0.0169201419
v -0.419892758 -0.148974046 0.0113017624
v -0.423357278 -0.149951428 0.0113017624
v -0.429988027 -0.152963489 0.00787373725
v -0.44006595 -0.146694854 0.0126333944
v -0.438220918 -0.141472802 0.0149784181
v 0.41301474 0.875549138 -0.191137105
v 0.4213112 0.87647593 -0.186206505
v 0.430116773 0.87492615 -0.185002699
v 0.435458839 0.869878292 -0.192043737
v 0.436343312 0.866056561 -0.199820846
v 0.433421612 0.857224107 -0.201896742
v 0.424839735 0.857288659 -0.202650338
v 0.415216506 0.863531947 -0.200859159
v 0.409393877 0.871909201 -0.194862008
v 0.374137819 0.874609649 -0.189621061
v 0.381892234 0.879555643 -0.185925975
v 0.391285211 0.874279261 -0.183568135
v 0.39614591 0.872918248 -0.191774175
v 0.397319406 0.867137611 -0.198962107
v 0.393994719 0.861455142 -0.202040896
v 0.38571316 0.85911876 -0.202040896
v 0.375554621 0.868451715 -0.201207861
v 0.374495327 0.873342454 -0.193729714
v 0.41310975 0.888870478 -0.136542112
v 0.422370106 0.882614017 -0.129516795
v 0.430583417 0.886729121 -0.134512275
v 0.43520537 0.885644376 -0.138307929
v 0.435719997 0.88460964 -0.146936268
v 0.428406537 0.877927661 -0.154567048
v 0.424272925 0.876761496 -0.154567048
v 0.414495587 0.882772982 -0.148139656
v 0.413413614 0.887990236 -0.140754163
v 0.442461252 0.44694829 -0.00324064633
v 0.38805601 0.880856633 -0.127299562
v 0.396156818 0.886956513 -0.137365624
v 0.396493316 0.885835409 -0.141508371
v 0.39734292 0.882340372 -0.149417058
v 0.389246613 0.879912376 -0.153871238
v 0.379532009 0.886236608 -0.152003229
v 0.441640526 0.429007351 -0.0103204623
v 0.443267137 0.442467481 -0.0059524267
v 0.315921724 0.711153865 0.179818287
v 0.288157672 0.932024002 0.127717525
v 0.292646885 0.931928694 0.123627707
v 0.297183573 0.932486832 0.114986576
v 0.302030653 0.931129634 0.106803559
v 0.302226335 0.930869639 0.102467783
v 0.306892514 0.930656374 0.0940019041
v 0.307248712 0.930372179 0.0852603912
v 0.306642115 0.936150372 0.0749980062
v 0.312311023 0.929667473 0.0680796653
v 0.312574625 0.929988801 0.0591617785
v 0.308423907 0.930827677 0.0498023629
v 0.308781058 0.929561675 0.0456975996
v 0.309057802 0.929789186 0.0367759429
v 0.309560657 0.928592622 0.0282139368
v 0.305068851 0.931504607 0.0182635002
v 0.300683647 0.932713449 0.0131890429
v 0.295994133 0.93672359 0.00290717324
v 0.318731278 0.744658291 0.0489254594
v 0.309569776 0.749463975 0.0470454171
v 0.301559895 0.747204244 0.0470454171
v 0.319524705 0.590141356 0.0924379751
v 0.323056251 0.592410803 0.0962615088
v 0.317995161 0.645351589 0.0909166336
v 0.318614572 0.665437579 0.0901325271
v 0.317067534 0.698843658 0.0859158188
v 0.315438449 0.706999719 0.0922533423
v 0.314800382 0.70915252 0.100153364
v 0.315123409 0.705489993 0.109533466
v 0.317889184 0.712095082 0.116576977
v 0.317567408 0.712324619 0.124951564
v 0.317157567 0.713091195 0.133184135
v 0.316704452 0.714121997 0.141345173
v 0.316701382 0.712420464 0.15017055
v 0.316701174 0.710704744 0.158983707
v 0.316485494 0.710299909 0.167464882
v 0.315938115 0.711909473 0.175453246
v -0.192811638 0.0644095168 0.4055565
v -0.157018065 -0.0217904765 0.428474635
v -0.148894146 -0.0239763912 0.429369628
v -0.140304834 -0.027656626 0.430589497
v -0.131801724 -0.0311382487 0.431764811
v -0.129555017 -0.0151616782 0.425114095
v -0.122762352 -0.0132453637 0.425114095
v -0.115969688 -0.0113290492 0.425114095
v -0.105864882 -0.0200129021 0.427429795
v -0.0978047848 -0.0222475175 0.428334922
v -0.315729737 0.693749905 0.26797992
v -0.302416235 0.622653246 0.278871834
v -0.30550608 0.618563652 0.275321603
v -0.302171081 0.580290198 0.279130369
v -0.304002911 0.558784842 0.279266447
v -0.248912513 0.371677399 0.316884518
v -0.252443433 0.357081085 0.319687992
v -0.258030444 0.348754853 0.313162565
v -0.256534457 0.343962938 0.310289651
v -0.314796656 0.498461157 0.266365439
v -0.31788817 0.481728613 0.265602797
v -0.317955613 0.46881941 0.264235497
v -0.317651808 0.467567414 0.256327301
v -0.318234771 0.46902895 0.247774497
v -0.317798167 0.467370093 0.239949018
v -0.296962529 0.390748739 0.253886521
v -0.300674856 0.376642466 0.252718508
v -0.128177732 -0.157053784 0.384130508
v -0.193237528 0.0398892872 0.344414622
v -0.192496255 0.037960887 0.352245212
v -0.192424908 0.0380570069 0.35958764
v -0.191960484 0.0484566167 0.364766061
v -0.192765549 0.0512046367 0.371502876
v -0.193364307 0.0533270016 0.378384322
v -0.19392018 0.0553193055 0.385295063
v -0.193864554 0.0554565527 0.39261964
v -0.192378402 0.0627907142 0.398560435
v -0.19251214 0.0633478761 0.402114302
v 0.187740088 0.458233297 0.45331946
v 0.126547381 0.79666245 0.39043197
v 0.126230389 0.79915297 0.38160032
v 0.126198679 0.800245762 0.373016864
v 0.125994325 0.802187324 0.364256799
v 0.126639292 0.799961805 0.356290549
v 0.127328768 0.797517836 0.34836638
v 0.302798808 -0.0799436495 0.513667345
v 0.301530302 -0.0907365382 0.519002557
v 0.301155716 -0.0896449909 0.525534928
v 0.190097407 0.44970426 0.427859992
v 0.188615471 0.456071794 0.434379667
v 0.188067049 0.457899779 0.441776574
v 0.187597379 0.459345222 0.449243784
g path_000000
l 1 1217 1216 1215 1214 1213 1212 1211 1210 1209 1208 1207 1206 1205 1204 1203 1202 1201 1200 1199 1198 1197 1196 1195 1194 1193 1192 1191 1190 1189 1188 1187 1186 1185 1184 1183 1182 1181 1180 1179 1178 1177 1176 1175 1174 1173 1172 1171 1170 1169 1168 1167 1166 1165 1164 1163 1162 1161 1160 1159 1158 1157 1156 1155 1154 1153 1152 1151 1150 1149 1148 1147 1146 1145 1144 1143 1142 1141 1140 1139 1138 1137 1136 1135 1134 1133 1132 1131 1130 1129 1128 1127 1126 1125 1124 1123 1122 1121 1120 1119 1118 1117 1116 1115 1114 1113 1112 1111 1110 1109 1108 1107 1106 1105 1104 1103 1102 1101 1100 1099 1098 1097 1096 1095 1094 1093 1092 1091 1090 1089 1088 1087 1086 1085 1084 1083 1082 1081 1080 1079 1078 1077 1076 1075 1074 1073 1072 1071 1070 1069 1068 1067 1066
g path_000001
l 2 3 4 5 6 7 8 9 10 11 12 13 14 15 16 17 18 19 20 21 22 23 24 25 26 27 28 29 30 31 32 33 34 35
g path_000002
l 36 37 38 39 40 41 42 43 44 45 46 47 48 49 50 51 52 53 54 55 56 57 58 59 60 61 62 63 64 65 66 67 68 69 70 71 72 73 74 75 76
g path_000003
l 77 78 79
g path_000004
l 80 81 82 83 84 85 86 87 88 89 90 91 92 93 94 95
g path_000005
l 96 97 98 99 100 101 102 103 104
g path_000006
l 105 106 107 108 109 110
g path_000007
l 111 112 113 114 115
g path_000008
l 116 117 118 119 120 121
g path_000009
l 122 123 124 125 126 127 128 129 130 131
g path_000010
l 132 133 134 135 136
g path_000011
l 137 138 139 140 141 142
g path_000012
l 144 145 146 147 148 149 150
g path_000013
l 151 152 153 154 155 156 157 158 159
g path_000014
l 160 161 162 163 164
g path_000015
l 165 166 167 168 169
g path_000016
l 170 171
g path_000017
l 172 173 174 175 176 177 178 179 180 181 182 183 184 185 186 187 188 189 190 191
g path_000018
l 192 193 194 195 196 197 198 199 200 201 202 203 204 205
g path_000019
l 206 207 208 209 210 211 212 213 214 215
g path_000020
l 216 217
g path_000021
l 218 219 220 221 222 223 224 225 226 227 228 229 230 231 232 233 234 235 236 237 238
g path_000022
l 239 240 241 242 243
g path_000023
l 244 245
g path_000024
l 246 247 248 249
g path_000025
l 250 251
g path_000026
l 252 253 254
g path_000027
l 255 256
g path_000028
l 257 258
g path_000029
l 259 260 261 262
g path_000030
l 263 264 265 266 267 268
g path_000031
l 269 270 271 272 273 274 275 276 277 278 279 280 281 282 283 284 285 286 287 288 289 290 291 292 293 294 295 296 297 298 299 300 301 302 303 304 305 306 307 308 309
g path_000032
l 311 312 313 314 315 316 317 318 319 320 321 322 323 324 325 326 327 328
g path_000033
l 331 332 333
g path_000034
l 336 337
g path_000035
l 340 341 342 343
g path_000036
l 344 345 346 347
g path_000037
l 348 349 350 351 352 353 354 355 356 357 358 359 360 361 362
g path_000038
l 363 364 365 366 367
g path_000039
l 368 369 370 371 372 373
g path_000040
l 374 375 376 377
g path_000041
l 378 379 380 381 382 383
g path_000042
l 384 385 386 387 388 389
g path_000043
l 390 391 392 393 394 395 396 397 398 399
g path_000044
l 400 401 402 403
g path_000045
l 404 405 406 407 408 409 410
g path_000046
l 411 412
g path_000047
l 413 414 415 416 417 418
g path_000048
l 419 420 421 422 423 424 425 426
g path_000049
l 427 428 429 430 431 432 433 434
g path_000050
l 435 436 437 438
g path_000051
l 439 440 441 442 443 444 445 446 447
g path_000052
l 448 449 450 451 452 453 454
g path_000053
l 455 456 457 458 459 460 461 462 463 464 465 466 467 468 469 470 471 472 473 474 475 476 477 478 479 480 481 482 483 484 485 486 487 488 489 490 491 492 493 494
g path_000054
l 495 496 497 498 499 500 501 502 503 504 505 506 507 508 509 510 511 512 513 514 515 516 517 518 519 520 521 522 523 524 525 526 527 528 529 530 531 532 533 534 535 536 537 538 539 540 541 542 543 544 545 546 547 548 549 550 551 552 553 554 555 556 557 558 559 560 561 562 563 564 565 566 567 568 569 570 571 572 573 574 575 576 577 578 579 580 581 582 583 584 585 586 587 588 589 590 591 592 593 594 595 596 597 598 599 600 601 602 603 604 605 606 607 608 609 610 611 612 613 614 615 616 617 618 619 620 621 622 623 624 625 626 627 628 629 630 631 632 633 634 635 636 637 638 639 640 641 642 643 644 645 646 647 648 649 650 651 652 653 654 655 656 657 658 659 660 661 662 663 664 665 666 667 668 669 670 671 672 673 674 675 676 677 678 679 680 681 682 683 684 685 686 687 688 689 690 691 692 693 694 695 696 697 698 699 700 701
g path_000055
l 702 703 704 705
g path_000056
l 707 708 709 710 711 712 713 714
g path_000057
l 719 720 721 722 723 724
g path_000058
l 725 726 727 728
g path_000059
l 729 730 731 732
g path_000060
l 733 734
g path_000061
l 744 745 746 747 748
g path_000062
l 749 750 751 752
g path_000063
l 753 754 755 756 757
g path_000064
l 758 759
g path_000065
l 762 763 764 765 766 767
g path_000066
l 768 769
g path_000067
l 770 771 772
g path_000068
l 773 774
g path_000069
l 778 779 780 781 782 783
g path_000070
l 785 786
g path_000071
l 788 789
g path_000072
l 790 791
g path_000073
l 792 793 794
g path_000074
l 798 799 800
g path_000075
l 801 802
g path_000076
l 803 804
g path_000077
l 806 807 808 809
g path_000078
l 810 811
g path_000079
l 812 813 814
g path_000080
l 818 819 820
g path_000081
l 821 822 823 824 825
g path_000082
l 826 827 828 829
g path_000083
l 830 831 832
g path_000084
l 833 834 835
g path_000085
l 836 837
g path_000086
l 838 839 840
g path_000087
l 843 844
g path_000088
l 846 847 848 849 850 851 852 853 854 855 856 857 858 859 860 861 862
g path_000089
l 864 865 866 867 868
g path_000090
l 869 870 871 872 873 874 875 876 877 878 879 880 881
g path_000091
l 882 883 884 885 886 887 888 889 890 891 892 893 894 895 896 897 898 899 900 901 902 903 904 905 906 907 908 909 910 911 912 913 914
g path_000092
l 916 917 918 919 920 921 922 923 924 925 926 927 928 929 930 931 932 933
g path_000093
l 934 935
g path_000094
l 936 937
g path_000095
l 938 939 940 941 942 943 944 945 946 947 948
g path_000096
l 950 951 952 953 954 955 956 957 958 959 960 961 962 963 964 965 966 967 968 969 970 971
g path_000097
l 972 973 974 975 976 977 978 979 980 981
g path_000098
l 982 983
g path_000099
l 984 985 986 987 988 989 990
g path_000100
l 991 992 993 994 995
g path_000101
l 996 997 998 999 1000 1001
g path_000102
l 1002 1003 1004 1005 1006 1007 1008 1009 1010
g path_000103
l 1011 1012
g path_000104
l 1013 1014 1015
g path_000105
l 1023 1024 1025 1026 1027 1028 1029 1030 1031 1032 1033 1034 1035 1036 1037 1038 1039 1040 1041 1042 1043 1044 1045 1046 1047 1048 1049 1050 1051 1052
g path_000106
l 1053 1054 1055
g path_000107
l 1056 1057 1058 1059
g path_000108
l 1060 1061
g path_000109
l 1062 1063 1064 1065
g path_000110
l 1293 1301 1300
g path_000111
l 1294 1295 1296 1297 1298 1299
g path_000112
l 1302 1338 1337 1336 1335 1334 1333 1332 1331 1330 1329 1328 1327
g path_000113
l 1303 1304 1305 1306 1307 1308 1309 1310 1311 1312 1313 1314 1315 1316 1317 1318 1319
g path_000114
l 1320 1321 1322
g path_000115
l 1323 1324
g path_000116
l 1325 1326
g path_000117
l 1339 1376 1375 1374 1373 1372 1371 1370 1369 1368 1367
g path_000118
l 1340 1341 1342 1343 1344 1345 1346 1347 1348
g path_000119
l 1350 1351
g path_000120
l 1352 1353
g path_000121
l 1354 1355 1356 1357
g path_000122
l 1358 1359 1360 1361 1362 1363
g path_000123
l 1364 1365
g path_000124
l 1377 1390 1389 1388 1387
g path_000125
l 1378 1379 1380 1381 1382 1383
g path_000126
l 1384 1385 1386
g path_000127
l 1218 1219 1220 1221 1222 1223 1224 1225 1226 1227 1218
g path_000128
l 1228 1229 1230 1231 1232 1233 1234 1235 1236 1237 1228
g path_000129
l 1238 1239 1240 1241 1242 1243 1244 1245 1246 1247 1238
g path_000130
l 1248 1249 1250 1251 1252 1253 1254 1255 1256 1248
g path_000131
l 1257 1258 1259 1260 1261 1262 1263 1264 1265 1257
g path_000132
l 1266 1267 1268 1269 1270 1271 1272 1273 1274 1266
g path_000133
l 1275 1276 1277 1278 1279 1280 1281 1282 1283 1275
g path_000134
l 1284 1285 1286 1287 1288 1289 1290 1291 1292 1284
