<svg xmlns="http://www.w3.org/2000/svg" width="800" height="800" viewBox="0 0 800 800"><rect width="800" height="800" fill="#fff"/>
<polyline points="493.00,335.00 498.00,336.00" fill="none" stroke="#000" stroke-width="1.2" stroke-linecap="round"/>
<polyline points="485.00,340.00 485.00,345.00" fill="none" stroke="#000" stroke-width="1.2" stroke-linecap="round"/>
<polyline points="237.00,350.00 238.00,357.00" fill="none" stroke="#000" stroke-width="1.2" stroke-linecap="round"/>
<polyline points="570.00,377.00 567.00,379.00" fill="none" stroke="#000" stroke-width="1.2" stroke-linecap="round"/>
<polyline points="640.00,388.00 643.00,389.00" fill="none" stroke="#000" stroke-width="1.2" stroke-linecap="round"/>
<polyline points="253.00,397.00 262.00,396.00 269.00,400.00" fill="none" stroke="#000" stroke-width="1.2" stroke-linecap="round"/>
<polyline points="498.00,403.00 505.00,407.00" fill="none" stroke="#000" stroke-width="1.2" stroke-linecap="round"/>
<polyline points="198.00,411.00 201.00,411.00" fill="none" stroke="#000" stroke-width="1.2" stroke-linecap="round"/>
<polyline points="724.00,413.00 723.00,417.00" fill="none" stroke="#000" stroke-width="1.2" stroke-linecap="round"/>
<polyline points="255.00,421.00 257.00,423.00 261.00,423.00" fill="none" stroke="#000" stroke-width="1.2" stroke-linecap="round"/>
<polyline points="267.00,421.00 275.00,421.00" fill="none" stroke="#000" stroke-width="1.2" stroke-linecap="round"/>
<polyline points="331.00,422.00 328.00,423.00" fill="none" stroke="#000" stroke-width="1.2" stroke-linecap="round"/>
<polyline points="185.00,429.00 183.00,432.00 184.00,439.00" fill="none" stroke="#000" stroke-width="1.2" stroke-linecap="round"/>
<polyline points="497.00,434.00 497.00,438.00" fill="none" stroke="#000" stroke-width="1.2" stroke-linecap="round"/>
<polyline points="173.00,451.00 177.00,452.00" fill="none" stroke="#000" stroke-width="1.2" stroke-linecap="round"/>
<polyline points="166.00,460.00 166.00,464.00" fill="none" stroke="#000" stroke-width="1.2" stroke-linecap="round"/>
<polyline points="623.00,462.00 625.00,467.00 623.00,477.00" fill="none" stroke="#000" stroke-width="1.2" stroke-linecap="round"/>
<polyline points="164.00,474.00 159.00,475.00 158.00,477.00" fill="none" stroke="#000" stroke-width="1.2" stroke-linecap="round"/>
<polyline points="254.00,477.00 256.00,476.00 258.00,478.00 259.00,477.00 263.00,479.00 280.00,477.00" fill="none" stroke="#000" stroke-width="1.2" stroke-linecap="round"/>
<polyline points="291.00,479.00 311.00,480.00 319.00,478.00 321.00,480.00 341.00,480.00" fill="none" stroke="#000" stroke-width="1.2" stroke-linecap="round"/>
<polyline points="482.00,481.00 488.00,481.00" fill="none" stroke="#000" stroke-width="1.2" stroke-linecap="round"/>
<polyline points="490.00,480.00 497.00,480.00" fill="none" stroke="#000" stroke-width="1.2" stroke-linecap="round"/>
<polyline points="178.00,486.00 178.00,494.00 180.00,497.00" fill="none" stroke="#000" stroke-width="1.2" stroke-linecap="round"/>
<polyline points="155.00,489.00 155.00,495.00" fill="none" stroke="#000" stroke-width="1.2" stroke-linecap="round"/>
<polyline points="155.00,501.00 154.00,505.00" fill="none" stroke="#000" stroke-width="1.2" stroke-linecap="round"/>
<polyline points="577.00,503.00 573.00,505.00" fill="none" stroke="#000" stroke-width="1.2" stroke-linecap="round"/>
<polyline points="259.00,508.00 263.00,508.00 266.00,506.00 271.00,508.00 279.00,508.00" fill="none" stroke="#000" stroke-width="1.2" stroke-linecap="round"/>
<polyline points="324.00,507.00 320.00,509.00" fill="none" stroke="#000" stroke-width="1.2" stroke-linecap="round"/>
<polyline points="292.00,509.00 301.00,510.00 311.00,508.00 313.00,510.00 316.00,510.00" fill="none" stroke="#000" stroke-width="1.2" stroke-linecap="round"/>
<polyline points="331.00,509.00 340.00,510.00" fill="none" stroke="#000" stroke-width="1.2" stroke-linecap="round"/>
<polyline points="143.00,518.00 144.00,521.00" fill="none" stroke="#000" stroke-width="1.2" stroke-linecap="round"/>
<polyline points="567.00,543.00 567.00,546.00" fill="none" stroke="#000" stroke-width="1.2" stroke-linecap="round"/>
<polyline points="463.00,549.00 464.00,552.00" fill="none" stroke="#000" stroke-width="1.2" stroke-linecap="round"/>
<polyline points="568.00,549.00 568.00,554.00" fill="none" stroke="#000" stroke-width="1.2" stroke-linecap="round"/>
<polyline points="490.00,552.00 493.00,552.00" fill="none" stroke="#000" stroke-width="1.2" stroke-linecap="round"/>
<polyline points="259.00,557.00 259.00,578.00" fill="none" stroke="#000" stroke-width="1.2" stroke-linecap="round"/>
<polyline points="469.00,558.00 473.00,556.00 481.00,558.00" fill="none" stroke="#000" stroke-width="1.2" stroke-linecap="round"/>
<polyline points="284.00,559.00 284.00,562.00" fill="none" stroke="#000" stroke-width="1.2" stroke-linecap="round"/>
<polyline points="504.00,559.00 516.00,561.00" fill="none" stroke="#000" stroke-width="1.2" stroke-linecap="round"/>
<polyline points="561.00,559.00 561.00,563.00" fill="none" stroke="#000" stroke-width="1.2" stroke-linecap="round"/>
<polyline points="287.00,560.00 288.00,564.00" fill="none" stroke="#000" stroke-width="1.2" stroke-linecap="round"/>
<polyline points="291.00,562.00 290.00,582.00" fill="none" stroke="#000" stroke-width="1.2" stroke-linecap="round"/>
<polyline points="320.00,562.00 319.00,578.00" fill="none" stroke="#000" stroke-width="1.2" stroke-linecap="round"/>
<polyline points="317.00,564.00 317.00,571.00" fill="none" stroke="#000" stroke-width="1.2" stroke-linecap="round"/>
<polyline points="287.00,566.00 288.00,578.00" fill="none" stroke="#000" stroke-width="1.2" stroke-linecap="round"/>
<polyline points="301.00,577.00 309.00,577.00" fill="none" stroke="#000" stroke-width="1.2" stroke-linecap="round"/>
<polyline points="320.00,581.00 316.00,586.00" fill="none" stroke="#000" stroke-width="1.2" stroke-linecap="round"/>
<polyline points="271.00,589.00 279.00,589.00" fill="none" stroke="#000" stroke-width="1.2" stroke-linecap="round"/>
<polyline points="296.00,591.00 294.00,594.00" fill="none" stroke="#000" stroke-width="1.2" stroke-linecap="round"/>
<polyline points="313.00,591.00 301.00,593.00" fill="none" stroke="#000" stroke-width="1.2" stroke-linecap="round"/>
<polyline points="372.00,607.00 374.00,612.00" fill="none" stroke="#000" stroke-width="1.2" stroke-linecap="round"/>
<polyline points="486.00,613.00 485.00,616.00" fill="none" stroke="#000" stroke-width="1.2" stroke-linecap="round"/>
<polyline points="368.00,614.00 367.00,620.00" fill="none" stroke="#000" stroke-width="1.2" stroke-linecap="round"/>
<polyline points="326.00,618.00 334.00,619.00" fill="none" stroke="#000" stroke-width="1.2" stroke-linecap="round"/>
<polyline points="526.00,627.00 528.00,635.00" fill="none" stroke="#000" stroke-width="1.2" stroke-linecap="round"/>
<polyline points="329.00,629.00 329.00,632.00" fill="none" stroke="#000" stroke-width="1.2" stroke-linecap="round"/>
<polyline points="341.00,628.00 342.00,634.00" fill="none" stroke="#000" stroke-width="1.2" stroke-linecap="round"/>
<polyline points="163.00,632.00 166.00,633.00" fill="none" stroke="#000" stroke-width="1.2" stroke-linecap="round"/>
<polyline points="185.00,635.00 185.00,639.00" fill="none" stroke="#000" stroke-width="1.2" stroke-linecap="round"/>
<polyline points="328.00,636.00 327.00,640.00" fill="none" stroke="#000" stroke-width="1.2" stroke-linecap="round"/>
<polyline points="528.00,637.00 528.00,640.00" fill="none" stroke="#000" stroke-width="1.2" stroke-linecap="round"/>
<polyline points="165.00,639.00 170.00,639.00" fill="none" stroke="#000" stroke-width="1.2" stroke-linecap="round"/>
<polyline points="176.00,639.00 176.00,642.00" fill="none" stroke="#000" stroke-width="1.2" stroke-linecap="round"/>
<polyline points="182.00,639.00 184.00,641.00 186.00,648.00" fill="none" stroke="#000" stroke-width="1.2" stroke-linecap="round"/>
<polyline points="172.00,641.00 169.00,641.00 167.00,643.00 165.00,642.00" fill="none" stroke="#000" stroke-width="1.2" stroke-linecap="round"/>
<polyline points="526.00,647.00 526.00,650.00" fill="none" stroke="#000" stroke-width="1.2" stroke-linecap="round"/>
<polyline points="528.00,646.00 527.00,654.00" fill="none" stroke="#000" stroke-width="1.2" stroke-linecap="round"/>
<polyline points="312.00,649.00 316.00,651.00 315.00,654.00" fill="none" stroke="#000" stroke-width="1.2" stroke-linecap="round"/>
<polyline points="523.00,649.00 525.00,654.00" fill="none" stroke="#000" stroke-width="1.2" stroke-linecap="round"/>
<polyline points="312.00,657.00 315.00,657.00" fill="none" stroke="#000" stroke-width="1.2" stroke-linecap="round"/>
<polyline points="526.00,656.00 527.00,665.00" fill="none" stroke="#000" stroke-width="1.2" stroke-linecap="round"/>
<polyline points="697.00,657.00 699.00,656.00 708.00,658.00" fill="none" stroke="#000" stroke-width="1.2" stroke-linecap="round"/>
<polyline points="300.00,672.00 299.00,675.00" fill="none" stroke="#000" stroke-width="1.2" stroke-linecap="round"/>
<polyline points="167.00,689.00 172.00,691.00 176.00,690.00" fill="none" stroke="#000" stroke-width="1.2" stroke-linecap="round"/>
<polyline points="170.00,700.00 173.00,701.00" fill="none" stroke="#000" stroke-width="1.2" stroke-linecap="round"/>
<polyline points="172.00,723.00 177.00,723.00" fill="none" stroke="#000" stroke-width="1.2" stroke-linecap="round"/>
<polyline points="173.00,728.00 180.00,728.00" fill="none" stroke="#000" stroke-width="1.2" stroke-linecap="round"/>
<polyline points="172.00,730.00 175.00,730.00" fill="none" stroke="#000" stroke-width="1.2" stroke-linecap="round"/>
<polyline points="170.00,766.00 170.00,769.00" fill="none" stroke="#000" stroke-width="1.2" stroke-linecap="round"/>
<polyline points="176.00,766.00 180.00,767.00" fill="none" stroke="#000" stroke-width="1.2" stroke-linecap="round"/>
<polyline points="175.00,769.00 179.00,769.00" fill="none" stroke="#000" stroke-width="1.2" stroke-linecap="round"/>
<polyline points="172.00,771.00 181.00,771.00" fill="none" stroke="#000" stroke-width="1.2" stroke-linecap="round"/>
<polyline points="246.00,782.00 244.00,784.00 245.00,790.00" fill="none" stroke="#000" stroke-width="1.2" stroke-linecap="round"/>
<polyline points="248.00,783.00 247.00,791.00" fill="none" stroke="#000" stroke-width="1.2" stroke-linecap="round"/>
</svg>