<svg xmlns="http://www.w3.org/2000/svg" width="800" height="800" viewBox="0 0 800 800"><rect width="800" height="800" fill="#fff"/>
<polyline points="563.00,261.00 564.00,265.00 562.00,272.00" fill="none" stroke="#000" stroke-width="1.2" stroke-linecap="round"/>
<polyline points="561.00,276.00 561.00,291.00" fill="none" stroke="#000" stroke-width="1.2" stroke-linecap="round"/>
<polyline points="559.00,297.00 559.00,310.00 557.00,315.00" fill="none" stroke="#000" stroke-width="1.2" stroke-linecap="round"/>
<polyline points="560.00,312.00 558.00,317.00 558.00,325.00" fill="none" stroke="#000" stroke-width="1.2" stroke-linecap="round"/>
<polyline points="519.00,320.00 520.00,324.00 518.00,327.00" fill="none" stroke="#000" stroke-width="1.2" stroke-linecap="round"/>
<polyline points="130.00,594.00 134.00,594.00" fill="none" stroke="#000" stroke-width="1.2" stroke-linecap="round"/>
<polyline points="128.00,597.00 131.00,599.00" fill="none" stroke="#000" stroke-width="1.2" stroke-linecap="round"/>
<polyline points="142.00,609.00 149.00,610.00 151.00,615.00" fill="none" stroke="#000" stroke-width="1.2" stroke-linecap="round"/>
<polyline points="139.00,618.00 137.00,618.00 137.00,620.00" fill="none" stroke="#000" stroke-width="1.2" stroke-linecap="round"/>
<polyline points="160.00,624.00 166.00,627.00" fill="none" stroke="#000" stroke-width="1.2" stroke-linecap="round"/>
<polyline points="176.00,633.00 179.00,633.00" fill="none" stroke="#000" stroke-width="1.2" stroke-linecap="round"/>
<polyline points="202.00,644.00 206.00,646.00" fill="none" stroke="#000" stroke-width="1.2" stroke-linecap="round"/>
<polyline points="208.00,648.00 211.00,649.00" fill="none" stroke="#000" stroke-width="1.2" stroke-linecap="round"/>
<polyline points="250.00,730.00 250.00,737.00" fill="none" stroke="#000" stroke-width="1.2" stroke-linecap="round"/>
<polyline points="452.00,763.00 455.00,764.00" fill="none" stroke="#000" stroke-width="1.2" stroke-linecap="round"/>
<polyline points="468.00,767.00 471.00,768.00" fill="none" stroke="#000" stroke-width="1.2" stroke-linecap="round"/>
<polyline points="480.00,773.00 488.00,774.00" fill="none" stroke="#000" stroke-width="1.2" stroke-linecap="round"/>
<polyline points="478.00,775.00 483.00,777.00 484.00,776.00" fill="none" stroke="#000" stroke-width="1.2" stroke-linecap="round"/>
<polyline points="516.00,776.00 517.00,779.00" fill="none" stroke="#000" stroke-width="1.2" stroke-linecap="round"/>
<polyline points="499.00,782.00 508.00,782.00" fill="none" stroke="#000" stroke-width="1.2" stroke-linecap="round"/>
</svg>