<svg xmlns="http://www.w3.org/2000/svg" width="800" height="800" viewBox="0 0 800 800"><rect width="800" height="800" fill="#fff"/>
<polyline points="191.67,421.22 173.32,452.65 158.02,478.11 151.64,494.60 152.61,505.48 153.87,514.95 154.58,527.70 155.76,538.23 157.21,547.25 157.64,556.84 159.23,566.56 159.54,580.51 160.41,590.20 161.41,600.19 162.00,609.56 163.78,619.64 165.51,635.28 166.02,643.91 167.55,659.92 168.79,671.32 170.57,681.06 170.27,690.12 171.11,704.84 172.12,714.26 173.92,724.31 174.48,733.17" fill="none" stroke="#000" stroke-width="1.2" stroke-linecap="round"/>
<polyline points="295.87,378.20 302.75,376.82 313.43,377.84 329.61,377.53 343.51,377.89 353.53,378.12 363.34,377.73 373.43,377.19 383.24,377.53 394.81,378.58 406.26,379.70 418.13,378.20 432.79,379.09 444.00,379.17 454.87,379.22 467.10,376.62 474.18,373.68" fill="none" stroke="#000" stroke-width="1.2" stroke-linecap="round"/>
<polyline points="487.93,369.31 493.21,367.99 499.30,365.32 506.78,362.80 513.68,359.74 522.01,357.06 529.01,356.77" fill="none" stroke="#000" stroke-width="1.2" stroke-linecap="round"/>
<polyline points="329.42,531.28 329.20,524.35 329.02,516.80" fill="none" stroke="#000" stroke-width="1.2" stroke-linecap="round"/>
<polyline points="326.45,472.85 326.25,466.75 324.96,455.03 324.57,446.68 324.69,440.62 324.57,430.56" fill="none" stroke="#000" stroke-width="1.2" stroke-linecap="round"/>
<polyline points="320.10,362.76 319.39,351.08" fill="none" stroke="#000" stroke-width="1.2" stroke-linecap="round"/>
<polyline points="570.70,418.41 570.28,427.87 569.95,435.58" fill="none" stroke="#000" stroke-width="1.2" stroke-linecap="round"/>
<polyline points="569.52,514.44 569.31,522.47 569.65,534.61" fill="none" stroke="#000" stroke-width="1.2" stroke-linecap="round"/>
<polyline points="335.25,302.96 341.87,302.98 349.76,303.23 356.87,303.02 363.95,303.04 373.93,303.28 381.09,303.42 390.23,303.04 398.35,303.14 407.89,303.17 416.84,303.18 425.43,303.32 433.62,303.30 444.08,303.18 458.81,303.69 465.96,303.33 487.72,303.65" fill="none" stroke="#000" stroke-width="1.2" stroke-linecap="round"/>
<polyline points="506.59,303.31 513.82,303.22 522.93,303.63 530.64,303.31 537.87,303.53" fill="none" stroke="#000" stroke-width="1.2" stroke-linecap="round"/>
<polyline points="187.41,386.57 189.10,389.01 191.53,391.41 193.49,394.59 195.41,396.92 197.16,400.51 199.02,401.80" fill="none" stroke="#000" stroke-width="1.2" stroke-linecap="round"/>
<polyline points="634.99,335.93 639.20,336.87 643.97,338.63 648.42,341.12 653.32,342.98 657.98,343.62 664.60,345.95" fill="none" stroke="#000" stroke-width="1.2" stroke-linecap="round"/>
<polyline points="208.50,404.98 220.97,405.31 239.50,405.44 250.05,406.08 265.67,406.74 281.29,406.67 291.22,407.20 301.84,407.41 321.65,407.28 332.85,407.31 347.05,407.75 359.29,408.14 370.88,409.32 391.55,409.21 406.13,409.16 418.16,409.07 430.88,409.40 443.55,409.67 460.44,409.83 473.74,410.26 493.66,410.63 504.50,410.68" fill="none" stroke="#000" stroke-width="1.2" stroke-linecap="round"/>
<polyline points="161.28,349.44 159.70,346.79 158.57,345.48" fill="none" stroke="#000" stroke-width="1.2" stroke-linecap="round"/>
<polyline points="532.86,337.15 528.17,335.54 524.00,333.62 519.84,331.32 515.15,329.50 509.44,327.37 506.42,325.23 501.14,324.85 497.99,322.98 493.29,322.04 489.48,322.40 489.74,342.49 489.98,351.00" fill="none" stroke="#000" stroke-width="1.2" stroke-linecap="round"/>
<polyline points="272.21,341.16 279.89,339.28 287.65,336.23 293.35,335.17 299.43,333.30 306.94,331.28 313.07,330.34 322.97,327.35 328.46,326.34 334.49,324.40 341.02,323.10 351.75,320.35 357.65,319.52 365.50,319.09 377.40,318.36 384.65,318.96 392.52,319.10 400.18,318.60 407.30,319.19 416.21,318.87 423.42,318.86 436.93,319.35 444.34,319.18 452.01,319.80 465.00,319.60 475.82,320.22 483.31,321.06" fill="none" stroke="#000" stroke-width="1.2" stroke-linecap="round"/>
<polyline points="678.71,357.28 687.37,366.27 693.73,372.01 701.43,380.00 708.87,387.20 714.13,393.69 728.34,408.67 728.05,417.46 727.84,425.76 727.02,434.76 726.61,442.70 726.23,450.81 725.81,459.09 725.99,467.88 725.85,482.87 725.27,491.51 724.12,504.35 723.62,512.41 722.31,522.81 722.58,532.15 721.84,540.06 721.43,548.82 722.38,556.14 721.40,566.62 719.77,575.49 720.24,582.69 719.94,593.41 719.64,602.35 717.99,610.14 718.39,617.03 718.70,629.55 717.48,637.24 717.05,644.27 716.32,652.33" fill="none" stroke="#000" stroke-width="1.2" stroke-linecap="round"/>
<polyline points="184.96,337.11 192.96,335.75 204.19,332.75 213.03,330.47 220.61,328.98 233.37,326.49 241.21,324.02 247.28,322.43 254.97,320.52 261.80,319.06 267.46,317.76" fill="none" stroke="#000" stroke-width="1.2" stroke-linecap="round"/>
<polyline points="285.67,313.34 295.24,310.91 300.68,310.04 307.46,308.30 312.26,307.62 320.21,305.17" fill="none" stroke="#000" stroke-width="1.2" stroke-linecap="round"/>
<polyline points="297.04,377.95 295.05,375.27 291.92,373.10" fill="none" stroke="#000" stroke-width="1.2" stroke-linecap="round"/>
<polyline points="569.48,311.84 565.93,310.76 561.14,309.26" fill="none" stroke="#000" stroke-width="1.2" stroke-linecap="round"/>
<polyline points="662.75,350.23 658.55,352.04 653.11,354.02 648.54,357.84 643.75,357.48 637.59,361.63 633.39,363.14 629.06,363.64 623.24,366.58 617.06,368.83 611.87,370.91 606.88,373.12 601.36,375.26 591.79,379.39 585.99,381.75 580.84,383.81 574.87,386.25 569.78,388.39 561.69,391.29 554.62,394.13 548.57,396.69 541.36,399.61 533.19,403.64 525.11,406.92" fill="none" stroke="#000" stroke-width="1.2" stroke-linecap="round"/>
<polyline points="574.10,550.52 576.39,554.53 581.61,557.62" fill="none" stroke="#000" stroke-width="1.2" stroke-linecap="round"/>
<polyline points="126.57,378.31 119.39,385.63" fill="none" stroke="#000" stroke-width="1.2" stroke-linecap="round"/>
<polyline points="118.57,457.25 118.00,464.83 119.02,474.09 120.17,483.28 120.97,492.06 122.62,501.53 122.87,508.75 124.23,516.81 125.70,530.24 126.08,537.57 126.85,545.89 128.46,554.74 128.67,563.00 130.03,574.32 131.35,586.20 132.19,596.77 133.59,606.57 134.87,619.25" fill="none" stroke="#000" stroke-width="1.2" stroke-linecap="round"/>
<polyline points="521.36,430.95 533.02,461.23 541.60,483.95 547.67,507.62 548.53,518.02 548.45,527.71 549.02,542.60 549.26,553.52 547.87,565.34 546.64,576.83 547.24,587.95 546.84,599.01 547.81,614.70 546.33,628.59 547.50,638.54 549.01,647.30 547.79,665.02 547.66,681.45 546.81,693.19 546.33,708.47 546.79,719.50 546.96,732.16 546.97,741.70 546.54,753.84 545.81,765.21 546.77,774.66 548.25,791.38" fill="none" stroke="#000" stroke-width="1.2" stroke-linecap="round"/>
<polyline points="699.00,647.00 705.89,651.55 710.43,655.75" fill="none" stroke="#000" stroke-width="1.2" stroke-linecap="round"/>
</svg>