# Fixed world centers; Z up; paths immutable
v -0.497660637 0.640339375 0.760911524
v -0.500662148 0.636017203 0.750161171
v -0.502734363 0.630499661 0.745225251
v -0.504449189 0.624523997 0.742523849
v -0.503917873 0.620363653 0.742498577
v -0.499984384 0.612117052 0.763562143
v -0.499603122 0.603688359 0.773778737
v -0.504641354 0.600729167 0.764911771
v -0.509010911 0.597839713 0.745922804
v -0.509954274 0.595375478 0.736856818
v -0.511812449 0.590355873 0.718845725
v -0.513315916 0.588464618 0.706279933
v -0.515274525 0.583432257 0.68753463
v -0.517488837 0.582253516 0.670513749
v -0.518535376 0.579752207 0.660671175
v -0.518287957 0.576588571 0.643846095
v -0.519806623 0.574553251 0.630978048
v -0.517606676 0.569215477 0.626085818
v -0.516191423 0.564715207 0.616208136
v -0.515842617 0.561341345 0.599482119
v -0.51962781 0.561624706 0.572003424
v -0.515498161 0.5586676 0.566814661
v -0.516484559 0.555926442 0.556908488
v -0.51451242 0.550741613 0.549999595
v -0.512485266 0.545486689 0.543368459
v -0.516591132 0.546622336 0.496798784
v -0.51407063 0.544672728 0.496771663
v -0.514718652 0.542139173 0.472158104
v -0.514473855 0.53797847 0.469961256
v -0.518826127 0.534569919 0.433650345
v -0.516612291 0.532943726 0.431295365
v -0.517894447 0.526293218 0.415019602
v -0.518801749 0.523206472 0.405087233
v -0.52010715 0.516467214 0.38854745
v -0.525140703 0.516814768 0.368491143
v -0.527278662 0.510250509 0.363771707
v -0.530971467 0.505129933 0.348818362
v -0.529643178 0.499786943 0.353635252
v -0.531813145 0.493190438 0.348761857
v -0.537079334 0.489027113 0.340887249
v -0.535926938 0.483861476 0.344501704
v -0.537954092 0.477089643 0.340626389
v -0.543046653 0.472710967 0.334002912
v -0.544488788 0.465399206 0.33397454
v -0.543891728 0.460723788 0.333946168
v -0.545333803 0.453412026 0.333917797
v -0.549614549 0.448304057 0.332620114
v -0.548491478 0.443203002 0.335966617
v -0.55264622 0.437995613 0.335465133
v -0.554200113 0.430774301 0.334722221
v -0.555497587 0.423354208 0.335609049
v -0.55753839 0.420721114 0.335592628
v -0.561661601 0.41548565 0.335298896
v -0.562754452 0.407923311 0.337453485
v -0.563957155 0.400449067 0.338911861
v -0.565323532 0.39309597 0.339342684
v -0.568234622 0.391069204 0.333909392
v -0.57246846 0.385902435 0.332949162
v -0.57508707 0.379371017 0.325684369
v -0.576532304 0.372043371 0.325655907
v -0.578771055 0.369527131 0.324461937
v -0.581197917 0.362816125 0.318445921
v -0.583322167 0.355891764 0.314300567
v -0.58247596 0.351041734 0.315771431
v -0.579153121 0.340846807 0.344755709
v -0.579461396 0.332898229 0.351578295
v -0.582279325 0.330729961 0.346810281
v -0.585695386 0.324560404 0.334845454
v -0.581809521 0.318055391 0.354673326
v -0.583952367 0.311170906 0.350374997
v -0.585321367 0.303857297 0.350746423
v -0.58647567 0.296434402 0.352403134
v -0.589186609 0.294160485 0.348326474
v -0.587759078 0.284728914 0.34969613
v -0.591159284 0.282777339 0.341521055
v -0.595119298 0.276687801 0.326484114
v -0.594732642 0.268509954 0.337333351
v -0.591923177 0.262825042 0.350462228
v -0.592954636 0.255367249 0.352830082
v -0.594486475 0.248136386 0.352225751
v -0.600047827 0.247023255 0.331387371
v -0.594876349 0.236024588 0.354833513
v -0.596754789 0.228933886 0.352182716
v -0.600283086 0.226903677 0.34336859
v -0.602543831 0.219926909 0.338516712
v -0.600675225 0.214780495 0.345956773
v -0.61010623 0.210396901 0.299114555
v -0.601849437 0.202953354 0.34395346
v -0.604829252 0.196193174 0.334906906
v -0.612643659 0.190996915 0.29769063
v -0.605673909 0.184212238 0.334850192
v -0.613336563 0.17884545 0.298566848
v -0.61273396 0.174126625 0.298538208
v -0.61402899 0.16670002 0.299443603
v -0.60784626 0.155878186 0.32841152
v -0.604431391 0.150432587 0.344825238
v -0.61321789 0.145050317 0.302001238
v -0.608094573 0.139195889 0.328326285
v -0.613805354 0.132900029 0.303482831
v -0.612804532 0.128094733 0.305777162
v -0.614257097 0.120729871 0.305748582
v -0.613655686 0.116020486 0.305720001
v -0.611492455 0.106410116 0.311256975
v -0.610435247 0.101619966 0.313891232
v -0.611796141 0.0942554697 0.314377278
v -0.61119616 0.0895571783 0.314348757
v -0.608908951 0.0799879655 0.320634007
v -0.607842922 0.0752269104 0.323332727
v -0.606564403 0.0704419613 0.327278554
v -0.608673155 0.0632082522 0.32337442
v -0.609476268 0.0558013506 0.327084064
v -0.60813272 0.0510348268 0.331397921
v -0.609379768 0.0437015444 0.332504928
v -0.611014783 0.0364077315 0.33135733
v -0.617089808 0.0341160223 0.30803737
v -0.616624355 0.029420685 0.30722487
v -0.611457229 0.0197538026 0.330145568
v -0.610859871 0.0150759071 0.330117166
v -0.612302721 0.00776029006 0.330088764
v -0.611880779 0.00308900489 0.329044223
v -0.613423109 -0.00422602799 0.328443319
v -0.614866614 -0.0115447845 0.328414917
v -0.614232302 -0.0162249617 0.328597993
v -0.618160427 -0.0215022452 0.329480797
v -0.620110095 -0.0288249683 0.326553166
v -0.619160175 -0.0335003436 0.328541189
v -0.620771289 -0.0408238135 0.327553988
v -0.622411072 -0.0481522419 0.326407909
v -0.624666631 -0.0508021861 0.325194508
v -0.623598218 -0.0601774715 0.324409604
v -0.625838637 -0.067560479 0.31986016
v -0.623193979 -0.0696061179 0.319831699
v -0.623360336 -0.0791088641 0.311974823
v -0.620710075 -0.0811588019 0.311946303
v -0.616089165 -0.087766774 0.319796056
v -0.613987625 -0.0946338177 0.31311664
v -0.608688951 -0.0987322852 0.313059628
v -0.611000836 -0.103808835 0.295987844
v -0.681867182 -0.123688146 -0.126704171
v -0.685091197 -0.126789376 -0.132153824
v -0.6849159 -0.137502953 -0.139060348
v -0.682471752 -0.142469615 -0.128710121
v -0.664753079 -0.147445083 -0.0457921028
v -0.664095163 -0.152596951 -0.0458233729
v -0.667649865 -0.161050007 -0.0574210174
v -0.666800618 -0.166176841 -0.0563361757
v -0.664837539 -0.176362395 -0.0525990687
v -0.667269647 -0.184630424 -0.0575788468
v -0.666033328 -0.18965666 -0.0542124324
v -0.666843295 -0.195187658 -0.0629107282
v -0.671242595 -0.204012558 -0.0794434026
v -0.673045576 -0.212190181 -0.0806545466
v -0.67316252 -0.217604801 -0.0852731243
v -0.670591712 -0.225375161 -0.0913993642
v -0.67308408 -0.231533527 -0.110104494
v -0.669509411 -0.239061922 -0.110429108
v -0.662835896 -0.243377432 -0.105861507
v -0.663347721 -0.248993903 -0.112970993
v -0.675055742 -0.261769563 -0.205517098
v -0.668873072 -0.268574476 -0.190534651
v -0.662146389 -0.267395228 -0.182053849
v -0.662374496 -0.278634608 -0.191841558
v -0.664437652 -0.281543642 -0.19023104
v -0.662908316 -0.292144597 -0.189273238
v -0.664167702 -0.300327539 -0.186955065
v -0.663487136 -0.305656582 -0.186987415
v -0.662529409 -0.310869128 -0.185324848
v -0.664137542 -0.319184661 -0.185144186
v -0.663457334 -0.324511319 -0.185176507
v -0.661853433 -0.335053682 -0.18375206
v -0.660739541 -0.340177089 -0.18112731
v -0.65959847 -0.3509247 -0.182530001
v -0.658449173 -0.356018335 -0.179678351
v -0.660130501 -0.364357561 -0.179959387
v -0.659334958 -0.369618326 -0.179278776
v -0.658052027 -0.380295664 -0.179807499
v -0.657140434 -0.385491431 -0.178411096
v -0.656461358 -0.390809089 -0.178443372
v -0.655044675 -0.401411742 -0.17814669
v -0.677955031 -0.421818584 -0.309103966
v -0.677237153 -0.427290916 -0.309027642
v -0.679007709 -0.435911477 -0.309549868
v -0.678307533 -0.441394567 -0.309583157
v -0.676886857 -0.452348292 -0.309524834
v -0.676239133 -0.457863778 -0.309881717
v -0.675542474 -0.463349313 -0.309936941
v -0.680346668 -0.473917395 -0.329154432
v -0.680080295 -0.479708403 -0.33188349
v -0.676269174 -0.487622887 -0.331950396
v -0.675714552 -0.493234098 -0.332909882
v -0.667914271 -0.496957272 -0.323052764
v -0.664111018 -0.504855454 -0.323119521
v -0.66216737 -0.50947541 -0.315325767
v -0.662788153 -0.517289162 -0.30861339
v -0.656199396 -0.521771491 -0.306092739
v -0.650950015 -0.527242541 -0.31210345
v -0.644238293 -0.524323106 -0.319693953
v -0.639558911 -0.524236798 -0.325056255
v -0.635751188 -0.532135665 -0.325103045
v -0.630578339 -0.537744939 -0.332011849
v -0.621961057 -0.539444327 -0.332078755
v -0.618854046 -0.541847527 -0.332112193
v -0.609895051 -0.543266773 -0.329840481
v -0.599180758 -0.53714633 -0.310431302
v -0.597702086 -0.540879488 -0.321699679
v -0.588030159 -0.541664481 -0.314170241
v -0.559773326 -0.5264135 -0.173295751
v -0.58345747 -0.557096124 -0.388101846
v -0.548154235 -0.530081391 -0.171038881
v -0.539594591 -0.531482577 -0.169167802
v -0.531299889 -0.533118308 -0.16923219
v -0.527937889 -0.535087645 -0.166456416
v -0.522255838 -0.539990008 -0.168778136
v -0.514037848 -0.541698217 -0.169428915
v -0.508541226 -0.540833831 -0.167951703
v -0.502590179 -0.545486629 -0.168239668
v -0.494198412 -0.547021389 -0.16750212
v -0.485949427 -0.5486992 -0.167907357
v -0.479851454 -0.553198814 -0.166985735
v -0.474413157 -0.552375793 -0.165865526
v -0.466167331 -0.554054618 -0.166280761
v -0.460294992 -0.558791995 -0.167241007
v -0.455199659 -0.558343709 -0.169061676
v -0.449002951 -0.562722981 -0.167216897
v -0.440893352 -0.564566314 -0.168893844
v -0.432600886 -0.566201627 -0.168958202
v -0.42413789 -0.567630351 -0.167436153
v -0.421068907 -0.569843888 -0.166716829
v -0.412699163 -0.571375847 -0.166000098
v -0.40698424 -0.576330721 -0.16858314
v -0.401156574 -0.574973345 -0.163465768
v -0.395573139 -0.580105722 -0.167384997
v -0.387284398 -0.58174026 -0.16744934
v -0.378831029 -0.583146811 -0.165811718
v -0.370446712 -0.584640503 -0.16483213
v -0.367614061 -0.587171316 -0.166500956
v -0.359260976 -0.588707685 -0.16584231
v -0.350975841 -0.590341508 -0.165906623
v -0.348114878 -0.592844486 -0.167351365
v -0.33962813 -0.594168127 -0.165140823
v -0.333945483 -0.599253714 -0.168584585
v -0.328395873 -0.598173082 -0.165683195
v -0.320008636 -0.599635184 -0.164503187
v -0.314197272 -0.604529262 -0.166543916
v -0.305848241 -0.606052041 -0.165810779
v -0.300434738 -0.605168104 -0.164354369
v -0.294635057 -0.610101998 -0.166662261
v -0.286349416 -0.61173594 -0.166726574
v -0.280882478 -0.610736191 -0.164461181
v -0.27507633 -0.615680635 -0.166823044
v -0.266737789 -0.617207289 -0.166132301
v -0.258440584 -0.618813634 -0.166004851
v -0.250071108 -0.620261967 -0.164772198
v -0.24723193 -0.622893214 -0.167048156
v -0.238946274 -0.624527156 -0.16711247
v -0.233508646 -0.623528123 -0.164900765
v -0.227673188 -0.628471851 -0.16720894
v -0.219387531 -0.630105793 -0.167273253
v -0.214089289 -0.629428983 -0.16730541
v -0.205670178 -0.630713463 -0.164964512
v -0.199749306 -0.635469139 -0.165963799
v -0.191466555 -0.637102544 -0.166028097
v -0.186004028 -0.635946691 -0.162791461
v -0.177848369 -0.637941897 -0.165325448
v -0.179592475 -0.666658044 -0.328076869
v -0.173342109 -0.671302795 -0.327116489
v -0.167278454 -0.668720424 -0.314537764
v -0.158923 -0.671179771 -0.319745421
v -0.152731985 -0.675968468 -0.319812059
v -0.144944802 -0.672539592 -0.322304368
v -0.133544132 -0.648758411 -0.167964801
v -0.133113697 -0.676042616 -0.318508774
v -0.124279223 -0.676644683 -0.311353266
v -0.118100516 -0.681423843 -0.311419785
v -0.112621501 -0.680723965 -0.311453044
v -0.106355503 -0.685068905 -0.308682024
v -0.0954206139 -0.68375653 -0.309314847
v -0.0899444595 -0.68305701 -0.309348077
v -0.0820621252 -0.679162621 -0.308675617
v -0.0765868574 -0.678463221 -0.308708847
v -0.0709151551 -0.686652064 -0.331140846
v -0.0653981566 -0.685851991 -0.33053723
v -0.058544632 -0.68562454 -0.29786092
v -0.055452764 -0.687905788 -0.297240824
v -0.0445062146 -0.68627435 -0.295769632
v -0.0390426926 -0.685527742 -0.295481592
v -0.0281061139 -0.683891177 -0.29396835
v -0.0226500109 -0.683195591 -0.29401052
v -0.0141290398 -0.685067236 -0.295307964
v -0.00560882268 -0.687053978 -0.297347009
v -0.00331263756 -0.685837209 -0.309504002
v 0.00751314592 -0.688704193 -0.337479711
v 0.00994584803 -0.684471369 -0.330082327
v 0.0209753551 -0.68022722 -0.311450392
v 0.0240648407 -0.682449996 -0.310392231
v 0.0326238088 -0.683476925 -0.306124896
v 0.0411884673 -0.685578763 -0.308898717
v 0.0466629229 -0.684879482 -0.308931947
v 0.0545535162 -0.681779265 -0.313475221
v 0.0600336604 -0.681079209 -0.313508481
v 0.0648275763 -0.675135076 -0.315076739
v 0.0734248906 -0.677167177 -0.317405999
v 0.0764490068 -0.648574412 -0.167503163
v 0.0868620574 -0.673491895 -0.322936386
v 0.0922700241 -0.671951771 -0.317367941
v 0.0978006274 -0.671672881 -0.320221484
v 0.108965553 -0.671767592 -0.330319703
v 0.114501022 -0.671321392 -0.332073718
v 0.122213498 -0.666219652 -0.323363096
v 0.121126033 -0.640176773 -0.16776365
v 0.128663048 -0.636097968 -0.164957315
v 0.139216647 -0.634575963 -0.1638598
v 0.141567975 -0.631826043 -0.165463537
v 0.152186126 -0.630631745 -0.166615114
v 0.15754433 -0.630254328 -0.168707341
v 0.165061459 -0.626196384 -0.166003019
v 0.170354858 -0.625520229 -0.166035146
v 0.180941865 -0.624168694 -0.166105136
v 0.183236495 -0.621129811 -0.165726617
v 0.193837136 -0.619830728 -0.166163668
v 0.199144304 -0.619202495 -0.166531831
v 0.206725493 -0.615469933 -0.16606085
v 0.21202603 -0.614817441 -0.166260049
v 0.219598994 -0.611067116 -0.16565682
v 0.224921525 -0.610480309 -0.166324303
v 0.235391304 -0.608797669 -0.164031342
v 0.243113935 -0.605476499 -0.16648896
v 0.248434007 -0.604870498 -0.16702567
v 0.253729135 -0.604196846 -0.167076409
v 0.261385381 -0.600666702 -0.16805996
v 0.268686861 -0.596281767 -0.162824199
v 0.274149746 -0.596011639 -0.165815607
v 0.284839541 -0.594893277 -0.167589873
v 0.286987692 -0.591554105 -0.164988562
v 0.297677726 -0.590428412 -0.166719869
v 0.299986452 -0.58744365 -0.166719869
v 0.310464472 -0.585874379 -0.16517289
v 0.315755844 -0.585198462 -0.165205002
v 0.32342425 -0.581669867 -0.166217729
v 0.328791022 -0.581131518 -0.16728203
v 0.336310357 -0.57731992 -0.166180283
v 0.343984544 -0.57378763 -0.167184919
v 0.349325478 -0.573192358 -0.167832464
v 0.356942058 -0.569552124 -0.168028831
v 0.362190664 -0.568800449 -0.167483747
v 0.369560808 -0.564769447 -0.164663658
v 0.380282551 -0.563634515 -0.166403711
v 0.38544029 -0.562754691 -0.164857864
v 0.393300354 -0.559481263 -0.167896032
v 0.398467839 -0.558621407 -0.166494831
v 0.406065077 -0.554956079 -0.166487798
v 0.41129756 -0.554196835 -0.16586484
v 0.419172674 -0.550909638 -0.168849632
v 0.424468011 -0.550233245 -0.168881774
v 0.431892186 -0.546336412 -0.167039812
v 0.437018424 -0.545446932 -0.165364951
v 0.444895595 -0.542135537 -0.16819942
v 0.455484271 -0.540782988 -0.168263689
v 0.457759261 -0.537756681 -0.167930871
v 0.468490303 -0.536571503 -0.169357911
v 0.470799983 -0.533585429 -0.169357911
v 0.47846061 -0.529985249 -0.169904798
v 0.48382318 -0.529382527 -0.170546725
v 0.513967872 -0.554995418 -0.368154526
v 0.517438054 -0.546343446 -0.328224391
v 0.523077488 -0.540183663 -0.308541447
v 0.52854836 -0.539484799 -0.308574647
v 0.534491241 -0.539268196 -0.312649161
v 0.54535532 -0.543275476 -0.332084417
v 0.553802729 -0.544818223 -0.330872834
v 0.561933279 -0.541242361 -0.332811594
v 0.564332604 -0.538140416 -0.332811594
v 0.57215476 -0.534262002 -0.332217962
v 0.575945795 -0.527130365 -0.324227154
v 0.582465708 -0.522101462 -0.313581437
v 0.585553825 -0.524490118 -0.313614696
v 0.593777597 -0.525875092 -0.311066508
v 0.597867906 -0.519105136 -0.305866808
v 0.600632846 -0.511478007 -0.31400609
v 0.600377023 -0.506376326 -0.317338198
v 0.602614641 -0.498257428 -0.321440995
v 0.609091103 -0.493442118 -0.334120482
v 0.613719642 -0.487100154 -0.332844466
v 0.618772089 -0.481093675 -0.334717423
v 0.617815733 -0.475395143 -0.332811087
v 0.615674078 -0.468798935 -0.322132736
v 0.616431415 -0.459520847 -0.315201342
v 0.615731776 -0.454041809 -0.315168083
v 0.617784142 -0.445733935 -0.317803293
v 0.620365739 -0.437785894 -0.324308366
v 0.619664609 -0.432295233 -0.324275047
v 0.617318094 -0.420674533 -0.317251891
v 0.616070449 -0.414826453 -0.313179314
v 0.615217924 -0.404228926 -0.317152053
v 0.614517868 -0.398747057 -0.317118794
v 0.595198631 -0.381450474 -0.179091454
v 0.596899986 -0.3731893 -0.179533392
v 0.596254289 -0.367900431 -0.179739445
v 0.597988129 -0.35965535 -0.180418193
v 0.599596024 -0.351334453 -0.180166334
v 0.599089146 -0.346122354 -0.181394652
v 0.597862482 -0.335571885 -0.182288483
v 0.600464582 -0.332731545 -0.184385076
v 0.599107146 -0.322101831 -0.184320554
v 0.600746453 -0.313790113 -0.184288308
v 0.600263238 -0.308573335 -0.185694158
v 0.599584281 -0.303256661 -0.185661882
v 0.601658583 -0.295149416 -0.188820437
v 0.607165575 -0.288612187 -0.217101425
v 0.603844345 -0.282061964 -0.197731376
v 0.606790066 -0.274291962 -0.207212061
v 0.609688342 -0.267519146 -0.194422796
v 0.617641687 -0.262864798 -0.218211383
v 0.614695668 -0.256599963 -0.201884344
v 0.603262007 -0.243208051 -0.107884988
v 0.608100414 -0.237429142 -0.109924115
v 0.608349085 -0.228776678 -0.100212492
v 0.6100775 -0.225648537 -0.0963639095
v 0.609561443 -0.216796458 -0.0813539699
v 0.607751787 -0.206270665 -0.0778569281
v 0.606567562 -0.200927258 -0.0741231143
v 0.60699302 -0.192485556 -0.0658166856
v 0.605513275 -0.187084049 -0.0599852726
v 0.602035582 -0.176183492 -0.0446085259
v 0.608599901 -0.174426213 -0.0751350895
v 0.605894029 -0.163729236 -0.0652808547
v 0.60351336 -0.158154115 -0.0530545302
v 0.604683518 -0.150006458 -0.0500668064
v 0.604026318 -0.144860014 -0.0500355698
v 0.621113002 -0.141614377 -0.1384653
v 0.621884465 -0.133231163 -0.132480934
v 0.621844828 -0.124730721 -0.120865986
v 0.621176183 -0.119494878 -0.120834202
v 0.61755538 -0.111975513 -0.120770641
v 0.601074159 -0.104440622 -0.00942031853
v 0.553446054 -0.0883232728 0.317511916
v 0.555794299 -0.0857199654 0.315363586
v 0.56008482 -0.0804581046 0.313947767
v 0.560332417 -0.0730102137 0.322311252
v 0.564412296 -0.0677355453 0.322311252
v 0.563563883 -0.0630386472 0.324075043
v 0.562123954 -0.0536735766 0.325835168
v 0.56149435 -0.048998978 0.32609123
v 0.559728622 -0.0396337695 0.330124825
v 0.559704244 -0.0349812098 0.326176316
v 0.559155047 -0.0303094536 0.325873882
v 0.55586338 -0.0235981084 0.326351613
v 0.55471462 -0.0142525872 0.326094955
v 0.554073334 -0.00958068203 0.326436669
v 0.550748348 -0.00287363958 0.327156365
v 0.550151765 0.00179799937 0.327184707
v 0.5489586 0.0111412778 0.327241421
v 0.552970648 0.0139065292 0.313281059
v 0.549896538 0.023126645 0.326635212
v 0.554770589 0.0260139965 0.306615502
v 0.556186199 0.0333571956 0.306879073
v 0.556525171 0.0381595381 0.300291181
v 0.546596646 0.0417063273 0.333248734
v 0.549603522 0.0492113717 0.322144717
v 0.548408687 0.0585680082 0.32220149
v 0.54781127 0.0632463247 0.322229892
v 0.547121942 0.0679089427 0.322913319
v 0.545888305 0.077256538 0.323248804
v 0.548078597 0.0847226977 0.317948401
v 0.547014534 0.0893076956 0.321301669
v 0.549306989 0.0968176499 0.315288395
v 0.548686266 0.101499744 0.31547457
v 0.548087716 0.10618683 0.315503001
v 0.550710797 0.113820001 0.307157278
v 0.549471319 0.12320435 0.307497263
v 0.551559865 0.125864178 0.30721429
v 0.550360084 0.135259479 0.307271332
v 0.549791813 0.13996689 0.307074368
v 0.545523584 0.148360312 0.329043984
v 0.543451965 0.152534798 0.339619368
v 0.550462425 0.161764354 0.299906582
v 0.549622953 0.166385993 0.301636547
v 0.549022138 0.171090975 0.301665097
v 0.551074564 0.178678051 0.297409594
v 0.54971385 0.188035756 0.298592895
v 0.549002469 0.192699671 0.299408317
v 0.548401237 0.197407633 0.299436897
v 0.549963593 0.204817891 0.298678637
v 0.548919737 0.214307442 0.297599465
v 0.548318207 0.219017833 0.297628075
v 0.547720373 0.223729983 0.297629952
v 0.544459164 0.230492979 0.297713846
v 0.543256164 0.239913777 0.297771007
v 0.542654634 0.244624168 0.297799617
v 0.54205054 0.249333218 0.297846794
v 0.54084748 0.258753985 0.297903985
v 0.54024595 0.263464361 0.297932565
v 0.53904289 0.272885084 0.297989756
v 0.53844136 0.27759546 0.298018336
v 0.537658453 0.282198131 0.299372762
v 0.53637296 0.291564643 0.300037265
v 0.535771728 0.296272576 0.300065845
v 0.534290314 0.305508792 0.302174658
v 0.53368938 0.310214132 0.302203208
v 0.532915354 0.314804494 0.303508162
v 0.529418468 0.321393371 0.30537498
v 0.528217733 0.330796272 0.305432051
v 0.527617335 0.335497707 0.305460572
v 0.526604593 0.339901209 0.308562487
v 0.522605538 0.346091568 0.31424877
v 0.521387637 0.355457276 0.314455986
v 0.519876838 0.359443545 0.321349114
v 0.519660056 0.364423335 0.318505377
v 0.515586793 0.370484173 0.324884117
v 0.514392197 0.379838705 0.32494089
v 0.510807812 0.381091267 0.332211882
v 0.5096156 0.39042753 0.332268566
v 0.509860516 0.39582184 0.325841486
v 0.510801911 0.406225652 0.293634921
v 0.510199547 0.410942644 0.293663561
v 0.501379669 0.412634939 0.337012261
v 0.500472009 0.417008281 0.339476228
v 0.497249871 0.423699617 0.339532793
v 0.492616624 0.428363234 0.334657848
v 0.492293507 0.433295041 0.33251816
v 0.488655448 0.439590335 0.335855275
v 0.485830218 0.446696669 0.332684934
v 0.484834403 0.450952679 0.335940212
v 0.483643174 0.460280865 0.335996807
v 0.480779797 0.462066352 0.337926149
v 0.479806423 0.471626163 0.336209565
v 0.47922647 0.476307303 0.336110055
v 0.475985497 0.482988119 0.336294472
v 0.475389898 0.487652063 0.336322784
v 0.472973406 0.495560229 0.346505791
v 0.471775711 0.499504626 0.351530164
v 0.467878073 0.50535655 0.357300341
v 0.467285842 0.509994209 0.357328475
v 0.464817733 0.517689586 0.368127286
v 0.461541116 0.518874466 0.373790532
v 0.456876814 0.523690939 0.403267294
v 0.459812611 0.52746278 0.395382851
v 0.454626828 0.531455517 0.429254234
v 0.454705894 0.536839843 0.440396041
v 0.455184162 0.537440479 0.452924818
v 0.455167383 0.542647958 0.464701027
v 0.450877041 0.542141736 0.511892736
v 0.452814788 0.544646919 0.511892736
v 0.452694058 0.549595654 0.524207175
v 0.453749657 0.550826907 0.547125041
v 0.452407628 0.554056168 0.569120526
v 0.455532223 0.558055282 0.574670672
v 0.455045253 0.562380612 0.589438915
v 0.456761211 0.56458652 0.590873241
v 0.456760406 0.569536209 0.601599634
v 0.458079636 0.571042717 0.621045887
v 0.453755111 0.570117652 0.650978982
v 0.45507139 0.576791286 0.65100491
v 0.454482794 0.580782592 0.666029811
v 0.452662557 0.582983017 0.690631568
v 0.453599155 0.5840801 0.69768846
v 0.450132877 0.589048266 0.716478288
v 0.453033268 0.592957914 0.70808959
v 0.446970642 0.594037116 0.747179687
v 0.446318597 0.598002315 0.748164654
v 0.445259959 0.606292248 0.74821496
v 0.443959653 0.609271407 0.754301012
v 0.44420132 0.614582241 0.748265266
v 0.444527298 0.625015199 0.737389565
v 0.443300366 0.628088653 0.74291271
v 0.442529708 0.631360054 0.759095311
v 0.438702494 0.635745287 0.766839623
v 0.437242448 0.638365746 0.774279416
v 0.430825561 0.639043391 0.788621545
v 0.428093016 0.639497578 0.806417525
v 0.42226541 0.640978932 0.816520393
v 0.4172571 0.643785417 0.820115566
v 0.41313526 0.647326767 0.831089616
v 0.41025725 0.648042083 0.836113989
v 0.404540837 0.649488688 0.84600848
v 0.399572998 0.652215958 0.849748194
v 0.392958969 0.652844608 0.852675498
v 0.387178898 0.653995335 0.863752961
v 0.381348938 0.654966652 0.875554144
v 0.37736389 0.654457629 0.875578284
v 0.372383744 0.656978846 0.880064011
v 0.365213215 0.656308293 0.888916314
v 0.359007329 0.657532096 0.888964474
v 0.35277006 0.658690333 0.889315844
v 0.350532711 0.660420895 0.889339924
v 0.34432745 0.661644578 0.889388084
v 0.34018147 0.660750031 0.891197622
v 0.333526015 0.660963118 0.895888627
v 0.327180803 0.661836922 0.897530735
v 0.319978654 0.660700023 0.908377647
v 0.317754716 0.662420213 0.908401608
v 0.311493814 0.663413167 0.909468174
v 0.307164997 0.661968231 0.913788438
v 0.29940021 0.659167409 0.932129264
v 0.294657469 0.661743343 0.935977519
v 0.290747941 0.661243916 0.936001241
v 0.284633964 0.662449598 0.936048687
v 0.280225158 0.665859818 0.936096191
v 0.274111211 0.667065501 0.936143637
v 0.270201653 0.666566074 0.936167359
v 0.264087707 0.667771757 0.936214805
v 0.257967651 0.668959141 0.936344266
v 0.255763292 0.670664191 0.936367989
v 0.249648318 0.671866179 0.936431885
v 0.243069902 0.671581447 0.943124175
v 0.238788009 0.669839978 0.948694527
v 0.232231125 0.669467926 0.955747485
v 0.226155281 0.670666099 0.955794632
v 0.223761395 0.671644568 0.958993614
v 0.217624411 0.672596037 0.960127592
v 0.211200818 0.672450602 0.966105759
v 0.209017426 0.67413944 0.966129243
v 0.202961728 0.675333619 0.966176271
v 0.196897849 0.676494181 0.966371
v 0.193025753 0.675999582 0.966394484
v 0.186970338 0.677193701 0.966441512
v 0.18087168 0.678191066 0.967350602
v 0.17833887 0.678260028 0.974452436
v 0.170647115 0.677431047 0.973808944
v 0.16460605 0.678622365 0.973855853
v 0.160756767 0.678200483 0.973566532
v 0.154763594 0.679658294 0.972450495
v 0.15253672 0.681076825 0.973636866
v 0.144856378 0.68036598 0.972479641
v 0.142631695 0.681774735 0.973707199
v 0.136589989 0.682966173 0.973754108
v 0.128721744 0.681000888 0.978055656
v 0.126546428 0.682683468 0.978079081
v 0.120513141 0.683873236 0.97812593
v 0.116647206 0.683317661 0.97842133
v 0.110614456 0.68450731 0.97846818
v 0.102886476 0.683403313 0.979028285
v 0.100721039 0.685175002 0.978664875
v 0.0946423337 0.685880661 0.980799794
v 0.0907548517 0.685025752 0.982388437
v 0.0847085863 0.68595624 0.983546257
v 0.0769565776 0.68427676 0.986595333
v 0.074822627 0.68648231 0.984347105
v 0.0670917854 0.684971869 0.986665428
v 0.0648251325 0.684830248 0.994517028
v 0.0586996339 0.683250308 1.00643206
v 0.052665025 0.682873964 1.01314676
v 0.0488507003 0.682386696 1.01316988
v 0.0428948775 0.683975339 1.01145005
v 0.0390783213 0.683487833 1.0114733
v 0.0331100896 0.684699357 1.01137197
v 0.0276317634 0.686526775 0.992209017
v 0.0237973928 0.684639215 0.998236001
v 0.0194754936 0.687886715 0.998694241
v 0.0151669793 0.690408051 1.0022403
v 0.0125350542 0.695138514 1.00553036
v 0.00824844278 0.697480738 1.00975478
v 0.0077584153 0.701386392 1.0094161
v 0.00183454785 0.701157033 1.01533914
v -0.00191714172 0.699172795 1.02161896
v -0.00574017828 0.699099362 1.01991725
v -0.0134082362 0.699108899 1.01585174
v -0.0150706517 0.696959674 1.01585174
v -0.0228183288 0.697777331 1.00836456
v -0.0266543627 0.697488666 1.00754845
v -0.0342589021 0.696047604 1.00955248
v -0.0379018039 0.693617463 1.01776528
v -0.0438590348 0.694792211 1.01781154
v -0.0481548309 0.698114991 1.01785779
v -0.0519298203 0.697316408 1.019189
v -0.0562237501 0.700637698 1.01923525
v -0.0638948083 0.700106084 1.0174377
v -0.066163905 0.702704847 1.01355374
v -0.0694952384 0.698429108 1.01344252
v -0.0730216876 0.695546985 1.00744915
v -0.0765551552 0.692605197 1.00163686
v -0.0798960701 0.688285887 1.00163686
v -0.0857380629 0.687781394 0.992467165
v -0.0930897072 0.684853017 1.00087166
v -0.0948247835 0.684066594 1.0114187
v -0.100860909 0.685606718 1.00991428
v -0.104738496 0.685428679 1.00861144
v -0.109789483 0.680546284 1.01825202
v -0.113965802 0.681888163 1.01041758
v -0.120139562 0.684028745 1.00633335
v -0.125647023 0.68145299 1.00605845
v -0.13045083 0.685352445 0.987172663
v -0.138148203 0.684369206 0.987219393
v -0.14199689 0.683877587 0.987242758
v -0.149971053 0.683996022 0.982525647
v -0.153901502 0.683798492 0.981273115
v -0.157757834 0.68330586 0.981296539
v -0.163986504 0.685226619 0.978181481
v -0.16788666 0.684877634 0.977581263
v -0.175608888 0.683891237 0.977628112
v -0.179591715 0.683812976 0.975852966
v -0.187573686 0.683663428 0.972264469
v -0.191504568 0.683372021 0.971407712
v -0.199463353 0.683068931 0.968473434
v -0.203336224 0.682574213 0.968496919
v -0.207236603 0.682161987 0.968161047
v -0.215413496 0.682420194 0.962765574
v -0.221290499 0.680596411 0.959024429
v -0.225202188 0.68017441 0.958722651
v -0.229112104 0.679745197 0.958452046
v -0.23694396 0.678912401 0.957796872
v -0.2408306 0.678415954 0.957820475
v -0.246912375 0.677001357 0.952227175
v -0.250806123 0.676503956 0.952250838
v -0.258628398 0.675594032 0.951923013
v -0.26402843 0.678715169 0.935940444
v -0.26971966 0.676171064 0.935239732
v -0.273775607 0.675996542 0.933816493
v -0.279401302 0.673287392 0.933840275
v -0.283320576 0.6727916 0.933843613
v -0.291587859 0.67273283 0.929679751
v -0.294160634 0.672381163 0.921337426
v -0.302155018 0.67164588 0.920174539
v -0.306817144 0.672654331 0.913407207
v -0.312766075 0.670508742 0.910806954
v -0.316875428 0.670331717 0.909353793
v -0.322713971 0.667931855 0.907877803
v -0.328790933 0.665978968 0.904355288
v -0.333781928 0.667450309 0.8953771
v -0.342589855 0.668068767 0.887982368
v -0.346565485 0.667560935 0.888006508
v -0.350541085 0.667053103 0.888030648
v -0.358608842 0.666245103 0.887128949
v -0.363227814 0.666868627 0.881972969
v -0.368957669 0.664129615 0.881924093
v -0.37299937 0.663720369 0.881489992
v -0.381223381 0.663131356 0.879563153
v -0.385486066 0.663079977 0.877476692
v -0.394622207 0.663940966 0.868845165
v -0.398622364 0.663429976 0.868869424
v -0.404550225 0.660952508 0.867552698
v -0.40868777 0.660653472 0.866591871
v -0.414865345 0.658543646 0.863545597
v -0.420017987 0.659775913 0.855434179
v -0.425993919 0.657306671 0.854010761
v -0.430080146 0.656892717 0.853568792
v -0.437059939 0.655872464 0.845310807
v -0.446091503 0.656232595 0.838808894
v -0.448587567 0.654999375 0.833871484
v -0.454598665 0.652484775 0.832553148
v -0.461882561 0.651711941 0.822917104
v -0.463995636 0.649891794 0.82067585
v -0.471099615 0.648791552 0.812489629
v -0.476014525 0.646006405 0.803747177
v -0.484054893 0.646022737 0.789971948
v -0.488816589 0.642923236 0.782511771
v -0.493288606 0.639413953 0.776965618
v -0.479835033 0.338950723 0.2631993
v -0.478365779 0.346400052 0.263228208
v -0.5554443 0.402127087 -0.357972473
v -0.554914415 0.3967067 -0.359354258
v -0.546780229 0.385691553 -0.326803327
v -0.542299092 0.377538621 -0.298118323
v -0.539493322 0.365911394 -0.264088392
v -0.538799942 0.36048162 -0.264121354
v -0.539553642 0.351384938 -0.257184416
v -0.53164351 0.341284424 -0.202533111
v -0.542827308 0.339368314 -0.25148651
v -0.543694258 0.330407768 -0.245504677
v -0.541680932 0.319748402 -0.218042567
v -0.484378219 0.278026521 0.261152923
v -0.484748065 0.28265053 0.262939095
v -0.483516872 0.290244937 0.261210769
v -0.483887136 0.294863254 0.262996912
v -0.482565612 0.302406311 0.261933416
v -0.483026177 0.307075977 0.263054729
v -0.481704414 0.314622581 0.261991262
v -0.482165217 0.319288701 0.263112575
v -0.480722517 0.326756179 0.262944579
v -0.481304258 0.331501395 0.263170391
v -0.479373544 0.334290326 0.262078017
g path_000000
l 5 4 3 2 1 747 746 745 744 743 742 741 740 739 738 737 736 735 734 733 732 731 730 729 728 727 726 725 724 723 722 721 720 719 718 717 716 715 714 713 712 711 710 709 708 707 706
g path_000001
l 6 7 8
g path_000002
l 9 10
g path_000003
l 11 12
g path_000004
l 13 14 15 16 17 18 19 20
g path_000005
l 21 22 23 24 25
g path_000006
l 26 27
g path_000007
l 28 29
g path_000008
l 30 31 32 33 34
g path_000009
l 35 36 37 38 39 40 41 42 43 44 45 46 47 48 49 50 51 52 53 54 55 56 57 58 59 60 61 62 63 64
g path_000010
l 65 66 67 68
g path_000011
l 69 70 71 72 73 74 75 76 77 78 79 80
g path_000012
l 82 83 84 85 86
g path_000013
l 88 89
g path_000014
l 92 93 94
g path_000015
l 95 96
g path_000016
l 99 100 101 102 103 104 105 106 107 108 109 110 111 112 113 114
g path_000017
l 115 116
g path_000018
l 117 118 119 120 121 122 123 124 125 126 127 128 129 130 131 132 133 134 135 136 137 138
g path_000019
l 139 140 141 142
g path_000020
l 143 144 145 146 147 148 149 150 151 152 153 154 155 156 157 158
g path_000021
l 159 160 161 162 163 164 165 166 167 168 169 170 171 172 173 174 175 176 177 178 179
g path_000022
l 180 181 182 183 184 185 186 187 188 189 190 191 192 193 194 195 196 197 198 199 200 201 202 203 204 205 206
g path_000023
l 209 210 211 212 213 214 215 216 217 218 219 220 221 222 223 224 225 226 227 228 229 230 231 232 233 234 235 236 237 238 239 240 241 242 243 244 245 246 247 248 249 250 251 252 253 254 255 256 257 258 259 260 261 262 263 264
g path_000024
l 265 266 267 268 269 270
g path_000025
l 272 273 274 275 276 277 278 279 280
g path_000026
l 281 282
g path_000027
l 283 284 285 286 287 288 289 290 291
g path_000028
l 292 293 294 295 296 297 298 299 300 301 302
g path_000029
l 304 305 306 307 308 309
g path_000030
l 310 311 312 313 314 315 316 317 318 319 320 321 322 323 324 325 326 327 328 329 330 331 332 333 334 335 336 337 338 339 340 341 342 343 344 345 346 347 348 349 350 351 352 353 354 355 356 357 358 359 360 361 362 363
g path_000031
l 365 366 367 368 369 370 371 372 373 374 375 376 377 378 379 380 381 382 383 384 385 386 387 388 389 390 391 392 393 394 395
g path_000032
l 396 397 398 399 400 401 402 403 404 405 406 407 408
g path_000033
l 409 410 411 412
g path_000034
l 413 414
g path_000035
l 415 416 417 418 419 420 421 422 423 424
g path_000036
l 425 426 427 428 429
g path_000037
l 430 431 432 433 434
g path_000038
l 436 437 438 439 440 441 442 443 444 445 446 447 448 449 450 451 452 453 454
g path_000039
l 455 456 457
g path_000040
l 458 459 460 461 462 463 464 465 466 467 468 469 470 471 472 473
g path_000041
l 474 475
g path_000042
l 476 477 478 479 480 481 482 483 484 485 486 487 488 489 490 491 492 493 494 495 496 497 498 499 500 501 502 503 504 505 506 507 508 509 510 511 512 513
g path_000043
l 514 515
g path_000044
l 516 517 518 519 520 521 522 523 524 525 526 527 528 529 530 531 532 533 534 535
g path_000045
l 536 537
g path_000046
l 538 539 540 541
g path_000047
l 542 543 544
g path_000048
l 546 547 548 549 550
g path_000049
l 552 553 554
g path_000050
l 555 556
g path_000051
l 557 558
g path_000052
l 559 560 561 562 563 564 565 566 567 568 569
g path_000053
l 570 571 572 573 574 575 576 577 578 579 580 581 582 583 584 585 586 587 588 589 590 591 592 593
g path_000054
l 594 595 596 597 598 599 600 601 602 603 604 605 606 607 608 609 610 611 612 613 614 615 616 617 618 619 620 621 622 623 624 625 626 627 628 629 630 631 632 633 634 635 636 637 638 639 640 641 642 643 644 645 646
g path_000055
l 647 648 649 650 651 652 653 654 655 656 657 658 659 660 661 662 663 664 665 666 667 668 669 670 671 672 673 674 675 676 677 678 679 680 681
g path_000056
l 682 683 684 685 686 687 688 689 690 691 692 693 694 695 696 697 698 699 700 701 702 703 704 705
g path_000057
l 749 748 771 770 769 768 767 766 765 764 763 762 761
g path_000058
l 750 751
g path_000059
l 754 755 756
g path_000060
l 758 759
