# Fixed world centers; Z up; paths immutable
v -0.0186916031 0.675254464 1.04380262
v -0.0402288623 0.660322249 1.04617047
v -0.04436462 0.666267633 1.04592586
v -0.0466203541 0.674534976 1.04501283
v -0.051312089 0.680169344 1.04144311
v -0.055682335 0.686215162 1.03775203
v -0.0582859777 0.688906014 1.03429008
v -0.0598966032 0.692838788 1.03046417
v -0.0673938468 0.689805388 1.02524316
v -0.0976208821 0.663861573 1.02754354
v -0.102273472 0.663563192 1.02837753
v -0.110562325 0.66421628 1.02967393
v -0.114292733 0.67098695 1.02577865
v -0.119444616 0.670411706 1.02330327
v -0.120826595 0.675006628 1.01590145
v -0.141604587 0.660495341 1.0149591
v -0.142957896 0.66472584 1.01106274
v -0.149054587 0.662899733 1.00898433
v -0.143976316 0.675791085 0.999071896
v -0.155537874 0.667361379 0.995610058
v -0.154397026 0.669236839 0.991643429
v -0.155423492 0.679531336 0.986637294
v -0.165468901 0.678200543 0.985194147
v -0.170379683 0.677878022 0.982670903
v -0.179850906 0.677238643 0.981026053
v -0.187020034 0.673948824 0.979428589
v -0.191162467 0.680225074 0.975651741
v -0.201972619 0.678201616 0.971061707
v -0.207143575 0.677484214 0.968680739
v -0.215971678 0.671933174 0.967817903
v -0.221647799 0.676162958 0.964680791
v -0.226947784 0.675241113 0.962376058
v -0.235143378 0.676573753 0.956772923
v -0.239872023 0.676393747 0.954241633
v -0.249622703 0.675622344 0.949317932
v -0.255692095 0.673622727 0.947376549
v -0.265843451 0.672263026 0.94266206
v -0.272075266 0.670009255 0.940817177
v -0.276009649 0.670850754 0.937978089
v -0.283336908 0.667578757 0.933104277
v -0.290436804 0.670286596 0.927101672
v -0.293986768 0.671640515 0.924100399
v -0.298021913 0.672330976 0.921316922
v -0.3052468 0.669154584 0.916437685
v -0.310275197 0.668470383 0.914114475
v -0.315495402 0.668026388 0.908345103
v -0.322579861 0.670728326 0.902355611
v -0.326458842 0.665887773 0.900606513
v -0.339612961 0.660153508 0.897468925
v -0.347718358 0.655136049 0.896637619
v -0.353573889 0.658945084 0.893660724
v -0.357370257 0.65990299 0.890814543
v -0.366434723 0.659747601 0.8858307
v -0.374484986 0.654711366 0.885037839
v -0.37662822 0.663726568 0.880283058
v -0.385725379 0.65716809 0.880022407
v -0.392891139 0.659627855 0.874166548
v -0.396398008 0.660965383 0.871201694
v -0.400099367 0.662025273 0.868333042
v -0.409525275 0.661242723 0.863607585
v -0.413942009 0.661266029 0.861104369
v -0.422545552 0.655839682 0.857164919
v -0.426040292 0.657172501 0.854210317
v -0.431686044 0.655983865 0.848798394
v -0.44099465 0.655278027 0.844088912
v -0.443120718 0.652785659 0.84163028
v -0.448128968 0.652501225 0.835912585
v -0.451271713 0.654333413 0.832784116
v -0.457526326 0.652225554 0.827725768
v -0.462186009 0.652442932 0.821832776
v -0.463446319 0.65120548 0.818931997
v -0.469269782 0.649713874 0.813664198
v -0.473926693 0.649931192 0.807774723
v -0.476318389 0.647644043 0.801909208
v -0.480975211 0.647861302 0.796019852
v -0.482441247 0.646318913 0.793235898
v -0.484981209 0.643812478 0.787454069
v -0.489183933 0.64470011 0.781313479
v -0.491531491 0.64247793 0.775424182
v -0.49387908 0.64025569 0.769534886
v -0.49592644 0.638478339 0.76347512
v -0.497754574 0.63702625 0.75728786
v -0.499370009 0.635890305 0.750974715
v -0.500617802 0.635300577 0.744443655
v -0.502865195 0.63322866 0.738486767
v -0.504778326 0.631653249 0.732333362
v -0.506769896 0.629961789 0.726223111
v -0.506294847 0.631936133 0.718648314
v -0.507196844 0.631866872 0.711874545
v -0.508882403 0.630634069 0.705560386
v -0.509503782 0.625087678 0.699998081
v -0.510682106 0.623972297 0.697042108
v -0.511525393 0.623990238 0.690209925
v -0.512767792 0.623416662 0.683611095
v -0.513416648 0.623727202 0.67663908
v -0.513740659 0.618613958 0.670891047
v -0.515816927 0.616802275 0.664790154
v -0.513356447 0.62173295 0.65585041
v -0.517549813 0.6108675 0.652522027
v -0.513200223 0.618595064 0.642354727
v -0.514130056 0.618490577 0.635493577
v -0.514424086 0.612766862 0.633435965
v -0.515354693 0.612658322 0.626568615
v -0.51486057 0.614665508 0.618773341
v -0.514944255 0.609882832 0.61284399
v -0.517274559 0.607701004 0.606856704
v -0.517313361 0.602984667 0.600898385
v -0.518500924 0.601860583 0.597919226
v -0.520742476 0.599810064 0.591872871
v -0.520914912 0.594896019 0.586002529
v -0.513563395 0.607034564 0.573571503
v -0.514136851 0.601506531 0.567942023
v -0.514795601 0.601166308 0.564591467
v -0.515165329 0.601887584 0.557245612
v -0.516610563 0.595069408 0.552204847
v -0.516403556 0.596638978 0.544450819
v -0.518150687 0.589375436 0.539622247
v -0.518773139 0.589718163 0.532417715
v -0.520210326 0.582913697 0.527386427
v -0.520066917 0.583752871 0.523464561
v -0.520619154 0.58419776 0.516189635
v -0.522380769 0.576913953 0.511391759
v -0.512880743 0.592146397 0.497042298
v -0.514751911 0.584054053 0.496161282
v -0.513093472 0.587745965 0.487267673
v -0.514532506 0.586889565 0.480546117
v -0.514571905 0.582110882 0.474508911
v -0.516978443 0.579832852 0.468471736
v -0.517017782 0.575054109 0.46243453
v -0.512960076 0.582256734 0.451713234
v -0.519463658 0.567997396 0.450360149
v -0.51393342 0.576720417 0.442429572
v -0.511888206 0.580969334 0.43310225
v -0.511927783 0.576164424 0.427031994
v -0.512246013 0.576949477 0.419406474
v -0.513177216 0.570214331 0.417926639
v -0.513892293 0.570415199 0.410586447
v -0.515782058 0.568900526 0.404112846
v -0.515935183 0.56392473 0.398121297
v -0.516661286 0.564108968 0.390763074
v -0.517185926 0.557968438 0.389006525
v -0.517079234 0.559363782 0.381006539
v -0.519068778 0.557703674 0.374589473
v -0.519108474 0.552886844 0.368504137
v -0.513927698 0.561675429 0.356551796
v -0.521573842 0.545773864 0.356333494
v -0.512185335 0.560674012 0.341054171
v -0.515390992 0.551228762 0.337406725
v -0.513445079 0.554674566 0.331873357
v -0.515884876 0.552365124 0.325752825
v -0.515924752 0.547520459 0.319632292
v -0.517321706 0.546725571 0.312683761
v -0.518404424 0.540366292 0.307391226
v -0.518771589 0.540448308 0.303649664
v -0.516117871 0.545529783 0.29343605
v -0.517509937 0.538712442 0.288387388
v -0.516064644 0.542035997 0.279102176
v -0.518514514 0.539716959 0.272956222
v -0.518554628 0.534852147 0.266810268
v -0.516164422 0.539541841 0.256691277
v -0.513734698 0.544294655 0.246500984
v -0.516189992 0.54197365 0.240320623
v -0.518651545 0.539643586 0.234145403
v -0.521113098 0.537313461 0.227970198
v -0.52357465 0.534983397 0.221794993
v -0.523931384 0.535708904 0.213841274
v -0.526076496 0.527765334 0.209444568
v -0.527307272 0.526600301 0.206356958
v -0.52712822 0.528099716 0.197926447
v -0.529592991 0.525766611 0.19174324
v -0.529549778 0.527073681 0.183397561
v -0.528742015 0.529494047 0.174368978
v -0.528782427 0.524585843 0.168168172
v -0.531254172 0.522246063 0.161967367
v -0.532040119 0.522352338 0.15428707
v -0.533639133 0.521280408 0.147309795
v -0.532442212 0.517537355 0.144205481
v -0.531154692 0.520648062 0.13466008
v -0.533319771 0.518756926 0.128159851
v -0.533674657 0.513377547 0.122219838
v -0.532109439 0.51688832 0.112366594
v -0.530748308 0.513981819 0.104870617
v -0.529534459 0.510855973 0.0974991992
v -0.530755937 0.509710848 0.0943586305
v -0.529645145 0.506430805 0.0870705172
v -0.525755227 0.506530762 0.0815024674
v -0.522329271 0.506560862 0.072082594
v -0.521130085 0.502773166 0.068958573
v -0.515926421 0.499204278 0.06013925
v -0.513596773 0.503738523 0.049420435
v -0.518589139 0.503331125 0.0474549644
v -0.523556769 0.503562927 0.0411724746
v -0.525678337 0.507273734 0.0365447402
v -0.526906312 0.500591755 0.0313679539
v -0.52694726 0.495617867 0.0250842124
v -0.525735855 0.491829485 0.0219423436
v -0.524210811 0.489093512 0.0141821047
v -0.522342265 0.480121732 0.0127436779
v -0.513259232 0.493650436 -0.000162761222
v -0.514052629 0.493722767 -0.00811348855
v -0.511699378 0.498280674 -0.0190786272
v -0.513691366 0.496650428 -0.0259244014
v -0.516217351 0.494259387 -0.0322611704
v -0.517365575 0.500014842 -0.0423339121
v -0.519896328 0.497619271 -0.048682645
v -0.520013869 0.498676538 -0.057386376
v -0.522547543 0.496278167 -0.0637426078
v -0.525607288 0.493126482 -0.06958092
v -0.520206153 0.507706761 -0.0818068609
v -0.523119926 0.504767954 -0.0878235921
v -0.525663912 0.502359807 -0.094205603
v -0.524037123 0.505945921 -0.104762606
v -0.526586294 0.503532887 -0.111157678
v -0.528553784 0.501956642 -0.118140183
v -0.531103671 0.499542922 -0.124537081
v -0.533653617 0.497129172 -0.130933985
v -0.531037688 0.502155662 -0.14261578
v -0.527710021 0.508214235 -0.15507485
v -0.528499603 0.502047777 -0.160735995
v -0.531062484 0.499621779 -0.167165369
v -0.53246659 0.498864025 -0.174799398
v -0.534102201 0.497774303 -0.182202101
v -0.535784483 0.49661842 -0.189564168
v -0.540294528 0.485094786 -0.191303641
v -0.543097436 0.482322395 -0.197472692
v -0.533620834 0.497228414 -0.216665462
v -0.531140745 0.502072334 -0.228513807
v -0.538723588 0.48547098 -0.222336069
v -0.537526846 0.488455832 -0.232820749
v -0.535056531 0.493277907 -0.244709328
v -0.534552813 0.495275497 -0.254520148
v -0.542720854 0.478464097 -0.2522071
v -0.540553331 0.482844532 -0.263828605
v -0.543135285 0.480400473 -0.270305902
v -0.541250229 0.484383434 -0.281682998
v -0.522890031 0.517864227 -0.309360862
v -0.532301962 0.517778277 -0.309372514
v -0.536635876 0.52371496 -0.305541724
v -0.54289639 0.515931726 -0.308040261
v -0.545655131 0.5132429 -0.314410865
v -0.545001924 0.509078145 -0.321728826
v -0.543859422 0.511400938 -0.327742219
v -0.548072159 0.500163972 -0.329603344
v -0.551409841 0.503069103 -0.338208884
v -0.552761853 0.501764715 -0.341425329
v -0.555369616 0.499296278 -0.347967267
v -0.548566401 0.510539114 -0.365259171
v -0.540717006 0.529840171 -0.386815488
v -0.545947731 0.530084252 -0.39343068
v -0.55353421 0.520335078 -0.394306749
v -0.549749136 0.533116758 -0.406550318
v -0.556661963 0.524338305 -0.408183426
v -0.561888754 0.524582148 -0.414793581
v -0.558248401 0.537225902 -0.426996112
v -0.562449515 0.532422185 -0.431789577
v -0.571895957 0.519860268 -0.430334985
v -0.560904682 0.537523687 -0.453199327
v -0.558940053 0.548486471 -0.468519181
v -0.568285942 0.536046803 -0.467144072
v -0.563202083 0.538375556 -0.479991704
v -0.572918892 0.524688423 -0.473175853
v -0.574402153 0.517299771 -0.47807166
v -0.570643425 0.517659128 -0.489337802
v -0.570590258 0.511837721 -0.491166413
v -0.563489676 0.517085314 -0.506538749
v -0.561952829 0.514125526 -0.515145302
v -0.559843361 0.517918885 -0.522705078
v -0.558926463 0.520660341 -0.533807397
v -0.561597109 0.518132329 -0.540507197
v -0.564493477 0.51527226 -0.546926558
v -0.56820184 0.504588902 -0.549061179
v -0.566055357 0.509134412 -0.561765313
v -0.565928221 0.504079342 -0.568682432
v -0.560076833 0.506709635 -0.577754557
v -0.560555458 0.500068367 -0.578886628
v -0.556608617 0.500572443 -0.590623498
v -0.554038763 0.499051899 -0.600649059
v -0.553902328 0.493304133 -0.602548718
v -0.552604675 0.48924613 -0.605914235
v -0.547708809 0.497695535 -0.62226373
v -0.54665494 0.486639947 -0.6219666
v -0.541262686 0.489133894 -0.635626376
v -0.541306794 0.483779222 -0.642391205
v -0.536518335 0.491332769 -0.653613746
v -0.536430895 0.48615095 -0.66056776
v -0.535254478 0.481871068 -0.663791776
v -0.535298705 0.476500154 -0.670577109
v -0.536559463 0.476006657 -0.679225504
v -0.535194397 0.472645432 -0.687838793
v -0.53075105 0.473666787 -0.700453997
v -0.532108307 0.472382009 -0.703858912
v -0.530993879 0.468641579 -0.712178648
v -0.528518021 0.473466069 -0.725783288
v -0.526912808 0.470404446 -0.734777868
v -0.526990175 0.470942408 -0.739884913
v -0.524359465 0.475983799 -0.753792822
v -0.52545315 0.475730658 -0.762823999
v -0.526058972 0.469499946 -0.768943727
v -0.523357034 0.481333375 -0.786653221
v -0.521730423 0.484308213 -0.794109166
v -0.523383737 0.483268857 -0.802482069
v -0.526135743 0.480663836 -0.809385955
v -0.521202087 0.495782614 -0.830365956
v -0.523261607 0.500954211 -0.841971338
v -0.521110356 0.511525989 -0.854000092
v -0.525659084 0.518629313 -0.855258524
v -0.522198677 0.536664248 -0.86210537
v -0.52768892 0.542464256 -0.86210537
v -0.533179164 0.548264265 -0.86210537
v -0.540485561 0.552124262 -0.865023494
v -0.543230116 0.55502367 -0.865023494
v -0.551321924 0.55771172 -0.866841376
v -0.562539101 0.556482613 -0.869711101
v -0.563733459 0.562445402 -0.877334654
v -0.568068027 0.564496577 -0.886022568
v -0.57154268 0.560059667 -0.886576116
v -0.581332684 0.546921849 -0.883608818
v -0.586104333 0.548288405 -0.891631603
v -0.589635253 0.537539721 -0.893606305
v -0.58807838 0.541417241 -0.906795442
v -0.598296404 0.520649791 -0.899096012
v -0.598506153 0.521099508 -0.904259861
v -0.597895324 0.516586661 -0.912152052
v -0.593321085 0.51723218 -0.920314014
v -0.590324879 0.509313107 -0.927725613
v -0.587597251 0.50643158 -0.927725613
v -0.582141995 0.500668526 -0.927725613
v -0.577258587 0.494790554 -0.93238008
v -0.556158364 0.52030915 -0.969945669
v -0.556278288 0.521595061 -0.980878294
v -0.554920495 0.517349124 -0.984399676
v -0.554752588 0.512087047 -0.991753995
v -0.550532341 0.504355371 -0.989860117
v -0.54888618 0.500531614 -0.993799984
v -0.543441832 0.49458912 -0.993689299
v -0.537921309 0.488757133 -0.993689299
v -0.532640874 0.481901258 -0.987804294
v -0.520583212 0.484722137 -0.991651714
v -0.515007317 0.484461963 -0.984600008
v -0.515330195 0.483337969 -0.978614986
v -0.51404202 0.483838439 -0.969414115
v -0.511235476 0.486495048 -0.962373555
v -0.521697998 0.470334291 -0.936667025
v -0.522753239 0.454016238 -0.916632831
v -0.518635035 0.452445596 -0.913151145
v -0.514285386 0.451199889 -0.909990847
v -0.506048083 0.448058248 -0.9030267
v -0.499538392 0.449818194 -0.902832925
v -0.501498222 0.439179748 -0.885635853
v -0.493028343 0.443656147 -0.888110578
v -0.49189651 0.437356472 -0.875215173
v -0.486403346 0.437100202 -0.868268073
v -0.482880861 0.434135467 -0.858674109
v -0.481497556 0.435444891 -0.855203867
v -0.476009578 0.43518883 -0.848263323
v -0.471904904 0.433623344 -0.844793081
v -0.469419748 0.435857624 -0.83747977
v -0.469658047 0.427799672 -0.822996199
v -0.464094758 0.427667975 -0.816194713
v -0.464550346 0.425912857 -0.805076063
v -0.461795717 0.428520352 -0.798165619
v -0.454483986 0.431329876 -0.7988922
v -0.451725155 0.433941364 -0.791971207
v -0.452199608 0.43217665 -0.780889571
v -0.456688255 0.424984425 -0.764694214
v -0.453943044 0.427583009 -0.757807374
v -0.451197863 0.430181563 -0.750920594
v -0.448452652 0.432780147 -0.744033813
v -0.44570747 0.43537873 -0.737147033
v -0.442962259 0.437977314 -0.730260253
v -0.46010679 0.420173675 -0.701816201
v -0.455574453 0.425198078 -0.697245479
v -0.45284915 0.427777827 -0.690408587
v -0.450123847 0.430357575 -0.683571696
v -0.447398514 0.432937324 -0.676734805
v -0.460279495 0.421408147 -0.659048915
v -0.457569063 0.423973829 -0.652249336
v -0.451880753 0.430567145 -0.649095595
v -0.449166507 0.433136433 -0.64228642
v -0.455751032 0.42954722 -0.627414763
v -0.452032119 0.433480293 -0.621854365
v -0.454451114 0.435514331 -0.612087011
v -0.453099161 0.436794072 -0.608695388
v -0.447927266 0.442699462 -0.604876578
v -0.456427634 0.436469406 -0.587849915
v -0.45414418 0.438461244 -0.580593765
v -0.454100072 0.443814009 -0.573831379
v -0.461541355 0.438966364 -0.558186054
v -0.454153359 0.448473603 -0.561976254
v -0.4606525 0.444891542 -0.54749006
v -0.451415509 0.456372589 -0.548460722
v -0.463852108 0.445224851 -0.531993449
v -0.462311596 0.446204603 -0.523937583
v -0.45963347 0.448739678 -0.517219007
v -0.461938232 0.450843453 -0.507769167
v -0.46263355 0.448764682 -0.497154087
v -0.463064909 0.447050452 -0.486874819
v -0.460397989 0.449574947 -0.480184376
v -0.553163409 0.31563282 -0.361418039
v -0.551933467 0.311786592 -0.3646079
v -0.549473584 0.304094136 -0.370987594
v -0.559393704 0.284654349 -0.356774628
v -0.558875084 0.280391335 -0.363757551
v -0.557652414 0.276567727 -0.366928667
v -0.566515744 0.253748357 -0.360265404
v -0.566204011 0.248735711 -0.36237812
v -0.565341055 0.244954288 -0.369725257
v -0.56671685 0.237695634 -0.369885296
v -0.566757917 0.232710138 -0.376183689
v -0.581096172 0.20288536 -0.363034666
v -0.57709527 0.208663329 -0.372253954
v -0.590681672 0.179980278 -0.359892398
v -0.590406358 0.180807412 -0.36476326
v -0.590623021 0.175654426 -0.370773911
v -0.60167706 0.150497317 -0.361237586
v -0.602643251 0.149679646 -0.364634603
v -0.602947772 0.144445688 -0.37049827
v -0.613280594 0.125649616 -0.360017389
v -0.61568439 0.117705084 -0.363364309
v -0.61716938 0.110969543 -0.367783874
v -0.617549598 0.110909656 -0.371843815
v -0.619229376 0.103925437 -0.376021892
v -0.627827644 0.0879654214 -0.371939778
v -0.627673686 0.0829666555 -0.373769164
v -0.627713382 0.078143768 -0.379862159
v -0.627849698 0.0731961802 -0.385839254
v -0.628948033 0.0721965283 -0.389025062
v -0.62900722 0.0673484653 -0.395094603
v -0.629735589 0.0616398193 -0.400355518
v -0.644334733 0.0377219357 -0.384329081
v -0.645842314 0.0310590807 -0.388590395
v -0.647346914 0.0244073551 -0.392846137
v -0.648549139 0.0232693311 -0.395862132
v -0.649055123 0.0123898676 -0.398440927
v -0.647425592 0.0148580913 -0.404910177
v -0.647464871 0.0100834593 -0.410942197
v -0.649787664 0.00241165701 -0.414169848
v -0.656124413 -0.0107142422 -0.407967269
v -0.664163113 -0.0255732425 -0.404112071
v -0.664920509 -0.0315841213 -0.404745758
v -0.667216599 -0.0391504429 -0.407925874
v -0.668470025 -0.0399860032 -0.415283054
v -0.671135068 -0.0534053184 -0.41508016
v -0.669987738 -0.0569930859 -0.418055654
v -0.673579395 -0.066139333 -0.419578344
v -0.674763262 -0.0672599673 -0.422548264
v -0.677301466 -0.0750766098 -0.425358921
v -0.679357409 -0.0826318264 -0.424316704
v -0.679515302 -0.0874673873 -0.430088878
v -0.675500572 -0.0928091183 -0.43374157
v -0.684118032 -0.108413912 -0.42444554
v -0.682982028 -0.111966565 -0.427391917
v -0.681885421 -0.120512128 -0.431805372
v -0.679976881 -0.117846295 -0.438635975
v -0.680485368 -0.128675058 -0.436597496
v -0.68388164 -0.142655045 -0.435335636
v -0.682750225 -0.146193206 -0.438270003
v -0.68539089 -0.159490928 -0.433541954
v -0.68426311 -0.16301769 -0.436466873
v -0.684147537 -0.172930643 -0.435220599
v -0.686601877 -0.186161727 -0.426367521
v -0.685480297 -0.189669177 -0.429276407
v -0.680917978 -0.194488883 -0.429276407
v -0.686988771 -0.211585194 -0.420289427
v -0.686631501 -0.215968415 -0.422230422
v -0.685835719 -0.224888027 -0.421872973
v -0.686301827 -0.230219916 -0.422776639
v -0.682925045 -0.23609215 -0.425663382
v -0.684166253 -0.247317955 -0.4227539
v -0.6838063 -0.256885678 -0.417549461
v -0.682698429 -0.260350257 -0.420422792
v -0.681460381 -0.269085377 -0.412042588
v -0.684295774 -0.282198757 -0.402917475
v -0.684709847 -0.292486012 -0.396842241
v -0.680799603 -0.292733669 -0.403184444
v -0.6791448 -0.300639093 -0.39969033
v -0.675813198 -0.306432694 -0.402538449
v -0.681116045 -0.322071701 -0.390463382
v -0.677801609 -0.327835441 -0.393296808
v -0.674487174 -0.33359918 -0.396130204
v -0.67404592 -0.337914497 -0.393934309
v -0.673084199 -0.346257955 -0.393869072
v -0.67199409 -0.349666953 -0.396696299
v -0.672968566 -0.360097349 -0.394245744
v -0.669668853 -0.365835577 -0.397066593
v -0.667456746 -0.368172467 -0.397066593
v -0.667396247 -0.377410799 -0.395903498
v -0.667498052 -0.386647344 -0.398736
v -0.666413546 -0.390038788 -0.401548684
v -0.672194064 -0.405452102 -0.393189996
v -0.666972518 -0.399736613 -0.403808296
v -0.678882301 -0.416842312 -0.394741237
v -0.680727422 -0.42318514 -0.398081064
v -0.68114388 -0.423367172 -0.405905604
v -0.681875288 -0.428651631 -0.406446338
v -0.682292879 -0.428838909 -0.414278895
v -0.682329237 -0.433257461 -0.419861078
v -0.679332316 -0.429830521 -0.432006449
v -0.681563675 -0.431942701 -0.437604129
v -0.680484474 -0.435317457 -0.440402985
v -0.682715833 -0.437429607 -0.446000665
v -0.682752311 -0.441860437 -0.451598316
v -0.676053286 -0.434548825 -0.468573093
v -0.67471832 -0.437556475 -0.47594887
v -0.671500385 -0.433929026 -0.488575935
v -0.672809899 -0.43973428 -0.492585748
v -0.672662199 -0.439461917 -0.497042835
v -0.674912214 -0.441591799 -0.502687454
v -0.674643695 -0.445739627 -0.508727193
v -0.673294783 -0.448758513 -0.516170442
v -0.674418151 -0.449821621 -0.518998682
v -0.672882855 -0.452652395 -0.526696086
v -0.675136745 -0.454785943 -0.532350421
v -0.669895828 -0.45387122 -0.540606141
v -0.663353145 -0.446840435 -0.557823837
v -0.663390279 -0.451346785 -0.563516915
v -0.655938625 -0.443389893 -0.582041264
v -0.658219635 -0.445549011 -0.587763488
v -0.655590355 -0.447312474 -0.597025692
v -0.646933854 -0.438125044 -0.617330492
v -0.642551959 -0.433370084 -0.632021844
v -0.652173102 -0.447969258 -0.620554149
v -0.645958602 -0.441333026 -0.637722075
v -0.641120255 -0.436119735 -0.653115332
v -0.636733115 -0.431372106 -0.667964995
v -0.643469214 -0.442896813 -0.664711237
v -0.6390903 -0.438172817 -0.679601312
v -0.638811946 -0.437684268 -0.688961744
v -0.638380229 -0.437036693 -0.698556364
v -0.633975506 -0.432282686 -0.713631868
v -0.636309266 -0.434491813 -0.719486594
v -0.630495787 -0.428279459 -0.736604571
v -0.637514353 -0.440230697 -0.728268683
v -0.635945201 -0.438414663 -0.739540219
v -0.629972219 -0.432055593 -0.756981432
v -0.632320821 -0.434278756 -0.762873292
v -0.631272316 -0.432997376 -0.773528218
v -0.632733166 -0.434304237 -0.780685246
v -0.635086954 -0.436532348 -0.786590219
v -0.63392216 -0.435129374 -0.797479093
v -0.632641673 -0.433606356 -0.808565974
v -0.632608354 -0.433369875 -0.81790936
v -0.634973884 -0.435609043 -0.823843598
v -0.634898543 -0.435328364 -0.833282053
v -0.63661927 -0.436901599 -0.840156853
v -0.637543321 -0.442518234 -0.844822586
v -0.639911532 -0.444759935 -0.850763619
v -0.642279685 -0.447001666 -0.856704652
v -0.644647896 -0.449243367 -0.862645686
v -0.647016108 -0.451485068 -0.868586719
v -0.64938432 -0.453726798 -0.874527752
v -0.65137887 -0.450714797 -0.884455025
v -0.65375042 -0.452959687 -0.890404463
v -0.656121969 -0.455204546 -0.896353841
v -0.66256249 -0.461654842 -0.896242261
v -0.664928973 -0.463894933 -0.902178943
v -0.667295456 -0.466135025 -0.908115685
v -0.693464279 -0.488172859 -0.881703079
v -0.697014332 -0.486930877 -0.884518683
v -0.70017904 -0.49000296 -0.889137149
v -0.699461997 -0.489040911 -0.899650872
v -0.706407607 -0.496042877 -0.898502827
v -0.705467463 -0.4948484 -0.909381211
v -0.710069478 -0.504334748 -0.90353471
v -0.715494394 -0.51454109 -0.90112102
v -0.716008544 -0.514868259 -0.909749091
v -0.713783443 -0.517157078 -0.919084191
v -0.711489737 -0.519580185 -0.919084191
v -0.700655758 -0.518027306 -0.928687632
v -0.704917789 -0.53184104 -0.919801772
v -0.670959651 -0.501897812 -0.977977753
v -0.67284745 -0.503650606 -0.984678626
v -0.672184765 -0.507732093 -0.986905932
v -0.673266232 -0.513498604 -0.99124378
v -0.670314729 -0.520080686 -0.993401587
v -0.668171525 -0.522733629 -0.99311012
v -0.665340781 -0.529491305 -0.990285814
v -0.658845007 -0.532586396 -0.99311012
v -0.652869642 -0.536315858 -0.985545754
v -0.644767344 -0.533177376 -0.984781206
v -0.643580675 -0.532054126 -0.981804252
v -0.667412519 -0.56036222 -0.932682097
v -0.668383479 -0.566043973 -0.923052549
v -0.660515487 -0.567724466 -0.923299968
v -0.65592134 -0.572577834 -0.923299968
v -0.653849721 -0.575249791 -0.918288946
v -0.65395844 -0.580047011 -0.905386627
v -0.645808578 -0.576855421 -0.904778361
v -0.634624243 -0.570743382 -0.913260818
v -0.632282734 -0.568526924 -0.907386839
v -0.629941285 -0.566310525 -0.901512861
v -0.624544442 -0.561154664 -0.900107026
v -0.622199237 -0.558934748 -0.894223809
v -0.624478281 -0.556512833 -0.884969771
v -0.607073843 -0.535048187 -0.908983111
v -0.600873649 -0.529101729 -0.908608735
v -0.604596019 -0.528041899 -0.897225976
v -0.598465562 -0.522153974 -0.896720827
v -0.593032718 -0.516942382 -0.895177782
v -0.590659678 -0.514696062 -0.889224589
v -0.588286638 -0.512449741 -0.883271396
v -0.595098019 -0.51439184 -0.867563069
v -0.59025985 -0.509750783 -0.865140975
v -0.587892056 -0.50750947 -0.859201014
v -0.585524261 -0.505268097 -0.853260994
v -0.583156466 -0.503026783 -0.847320974
v -0.580788672 -0.50078547 -0.841380954
v -0.578420877 -0.498544127 -0.835440934
v -0.578878105 -0.499046475 -0.825570405
v -0.584383011 -0.504450798 -0.808726668
v -0.584990084 -0.505098164 -0.798724651
v -0.584285498 -0.5044716 -0.790556729
v -0.575501263 -0.500668466 -0.794886887
v -0.57314533 -0.498438418 -0.788976729
v -0.570789456 -0.49620837 -0.783066571
v -0.568433583 -0.493978322 -0.777156472
v -0.566077709 -0.491748244 -0.771246314
v -0.563721836 -0.489518195 -0.765336156
v -0.566701829 -0.492456377 -0.752243042
v -0.576413929 -0.50191474 -0.730166137
v -0.5740785 -0.499704033 -0.724307239
v -0.571743011 -0.497493297 -0.718448341
v -0.569407582 -0.495282561 -0.712589443
v -0.567072093 -0.493071854 -0.706730545
v -0.575066805 -0.500865161 -0.687244296
v -0.577815771 -0.503577948 -0.674746871
v -0.58384347 -0.509465575 -0.657998621
v -0.581673205 -0.507414162 -0.652029574
v -0.577095687 -0.507627726 -0.646240532
v -0.574788094 -0.505443394 -0.640451491
v -0.57248044 -0.503259003 -0.63466239
v -0.589400053 -0.519647181 -0.604133606
v -0.594904125 -0.529531121 -0.585543633
v -0.593767226 -0.528454959 -0.582691491
v -0.592635512 -0.527403176 -0.575531781
v -0.592544615 -0.527354121 -0.567060292
v -0.588041723 -0.527564228 -0.561365664
v -0.586142421 -0.525771797 -0.555203974
v -0.581640422 -0.525981843 -0.54951036
v -0.598253429 -0.541941345 -0.520216227
v -0.576003611 -0.525117695 -0.540969968
v -0.592670202 -0.541085422 -0.511757016
v -0.588211 -0.541293442 -0.506117523
v -0.591350555 -0.54430747 -0.49383989
v -0.58385998 -0.541617095 -0.491948575
v -0.585782468 -0.543453872 -0.485403657
v -0.583540618 -0.541331768 -0.479779512
v -0.579093516 -0.541539252 -0.474155366
v -0.584702432 -0.546874702 -0.459028363
v -0.573525488 -0.540685654 -0.465719134
v -0.571283579 -0.53856349 -0.460094988
v -0.566836476 -0.538770974 -0.454470813
v -0.564594626 -0.53664881 -0.448846668
v -0.557062924 -0.533946693 -0.446886182
v -0.565831184 -0.542210281 -0.42821762
v -0.553458512 -0.534941673 -0.431974232
v -0.561153233 -0.542177081 -0.418793589
v -0.574328959 -0.554564714 -0.395135343
v -0.561160564 -0.550892413 -0.397265911
v -0.558974683 -0.553201616 -0.397265911
v -0.554566503 -0.553407311 -0.391691029
v -0.550218999 -0.549322009 -0.388570338
v -0.528358459 -0.537676096 -0.400511384
v -0.525033057 -0.538944364 -0.397699952
v -0.521707654 -0.540212631 -0.39488852
v -0.511920989 -0.539895356 -0.396918178
v -0.506379366 -0.543500245 -0.394100904
v -0.503047049 -0.544771135 -0.391283602
v -0.497505486 -0.548375964 -0.388466328
v -0.488664567 -0.548994958 -0.389347404
v -0.480439961 -0.545904517 -0.396079123
v -0.474873513 -0.549525559 -0.393249214
v -0.469307065 -0.553146541 -0.390419304
v -0.467087865 -0.555490971 -0.390419304
v -0.458764493 -0.55666244 -0.390637577
v -0.450965047 -0.558389962 -0.394339502
v -0.445382446 -0.562021494 -0.391501367
v -0.433695555 -0.560383141 -0.399437279
v -0.42922914 -0.565101564 -0.399437279
v -0.425860763 -0.566386223 -0.396589488
v -0.418608159 -0.568691015 -0.399624109
v -0.408753991 -0.5687747 -0.405473709
v -0.404270589 -0.573511064 -0.405473709
v -0.398647696 -0.577168822 -0.4026151
v -0.394164294 -0.581905186 -0.4026151
v -0.387717158 -0.584979177 -0.404728174
v -0.383229703 -0.589719832 -0.404728174
v -0.368435115 -0.585815489 -0.415773839
v -0.366763204 -0.592818916 -0.408647388
v -0.36451298 -0.595196128 -0.408647388
v -0.355275154 -0.596022606 -0.413689494
v -0.35188815 -0.601853132 -0.416589797
v -0.352904946 -0.611444175 -0.418894768
v -0.351323426 -0.614372253 -0.41818127
v -0.345809788 -0.618153691 -0.415169775
v -0.33790502 -0.619992733 -0.414685547
v -0.334376872 -0.621340454 -0.416031063
v -0.323990792 -0.621526957 -0.426316112
v -0.319467545 -0.626305401 -0.426316112
v -0.312108725 -0.628819108 -0.429295927
v -0.301766276 -0.628981948 -0.435392916
v -0.300099432 -0.63203609 -0.43886584
v -0.295503467 -0.636609852 -0.434819788
v -0.288879007 -0.639581621 -0.432895482
v -0.284212679 -0.639914453 -0.431289613
v -0.27695629 -0.642597735 -0.434102088
v -0.271008372 -0.646317184 -0.435549408
v -0.265626401 -0.650484383 -0.436406553
v -0.242196456 -0.640562475 -0.451734453
v -0.237607822 -0.645410001 -0.451734453
v -0.23414728 -0.646729827 -0.44880873
v -0.227927759 -0.650336683 -0.450475663
v -0.218047217 -0.650961578 -0.451745152
v -0.208293483 -0.65171057 -0.45285517
v -0.198598459 -0.652530968 -0.453876138
v -0.196270198 -0.65495342 -0.45389694
v -0.190481797 -0.658718824 -0.450954199
v -0.187001079 -0.660046339 -0.448011458
v -0.17800045 -0.661434054 -0.448280334
v -0.174515054 -0.662763298 -0.44533363
v -0.161189631 -0.660998225 -0.4498671
v -0.155375227 -0.664780557 -0.446911126
v -0.151878878 -0.666114032 -0.443955153
v -0.14606449 -0.669896364 -0.44099921
v -0.140962347 -0.670065045 -0.439618468
v -0.135175481 -0.67387253 -0.436629891
v -0.129357308 -0.677657306 -0.433671981
v -0.124875754 -0.678828418 -0.439886153
v -0.11184106 -0.677749395 -0.448046923
v -0.103614822 -0.680141926 -0.451508135
v -0.0970775858 -0.684036911 -0.457450718
v -0.0849725232 -0.683457553 -0.460509419
v -0.0778879076 -0.682604313 -0.465091586
v -0.0705101714 -0.685689449 -0.467679471
v -0.0620434061 -0.687434494 -0.463008553
v -0.0534570701 -0.68498677 -0.460684866
v -0.0511023104 -0.68747437 -0.460684866
v -0.0356641598 -0.684436977 -0.462590903
v -0.0304799303 -0.684680998 -0.461112618
v -0.025174994 -0.684846997 -0.459740132
v -0.0186245888 -0.688285708 -0.457303494
v -0.00579520827 -0.687456906 -0.460748881
v 0.00750238635 -0.686679602 -0.468751401
v 0.0083475085 -0.685455441 -0.461211413
v 0.0176831353 -0.682939947 -0.463522524
v 0.0288352277 -0.683019042 -0.461104006
v 0.0326548107 -0.684246659 -0.458259642
v 0.0348648764 -0.682094693 -0.451968402
v 0.0427052602 -0.680291831 -0.448646635
v 0.0475454926 -0.680841625 -0.446724594
v 0.0552714057 -0.679129183 -0.443262219
v 0.0533309877 -0.679746509 -0.433192521
v 0.0588489212 -0.679847419 -0.431871444
v 0.0675929561 -0.677465618 -0.429295242
v 0.0930036604 -0.664378047 -0.445791662
v 0.105120771 -0.663965762 -0.443940014
v 0.108771004 -0.665357947 -0.440853953
v 0.133389786 -0.656771898 -0.450010866
v 0.142404616 -0.654673934 -0.451619864
v 0.141975492 -0.658402205 -0.440692902
v 0.151007295 -0.656307459 -0.442283481
v 0.167227015 -0.649179697 -0.445918888
v 0.17216906 -0.649410307 -0.439668804
v 0.171373889 -0.653733015 -0.432651818
v 0.515640914 -0.43556881 -0.733301997
v 0.51617676 -0.436061919 -0.743225694
v 0.513560772 -0.438593984 -0.750417113
v 0.520926356 -0.434677333 -0.766358435
v 0.518115044 -0.437338501 -0.773411155
v 0.517093539 -0.438844293 -0.782043636
v 0.51496017 -0.4410685 -0.789702356
v 0.512146652 -0.443731785 -0.796760678
v 0.511966527 -0.44469732 -0.80616802
v 0.508116543 -0.45273459 -0.809830606
v 0.510871649 -0.451819032 -0.821882665
v 0.517738163 -0.448265702 -0.837671816
v 0.50880909 -0.459567994 -0.836742759
v 0.518761218 -0.454059601 -0.855382621
v 0.515026093 -0.461599052 -0.854304731
v 0.517299891 -0.461018771 -0.866032124
v 0.517253578 -0.466638476 -0.873131752
v 0.513520956 -0.474157125 -0.872024536
v 0.522953987 -0.469053388 -0.890341759
v 0.522293091 -0.47978282 -0.894333959
v 0.525651395 -0.483266562 -0.904574096
v 0.527023315 -0.487556785 -0.908132136
v 0.526480973 -0.49304539 -0.909926534
v 0.531300485 -0.500326872 -0.918955386
v 0.538548648 -0.50096786 -0.927940667
v 0.569487691 -0.482688218 -0.966375947
v 0.566405594 -0.485537529 -0.973389268
v 0.564902782 -0.487407327 -0.981874764
v 0.559705496 -0.496299297 -0.98426789
v 0.558896601 -0.502467036 -0.990751922
v 0.558125556 -0.508132994 -0.992324829
v 0.562585711 -0.514812708 -0.991219938
v 0.568223298 -0.520768344 -0.991219938
v 0.574064374 -0.526600778 -0.991409779
v 0.580819488 -0.531883359 -0.992450595
v 0.586773217 -0.537156582 -0.987815022
v 0.591025174 -0.538778186 -0.984220266
v 0.588659763 -0.539199293 -0.972202718
v 0.604372203 -0.533462822 -0.974249065
v 0.571674705 -0.556638718 -0.931917906
v 0.574463844 -0.559585214 -0.931917906
v 0.576713204 -0.566948712 -0.924036443
v 0.584644258 -0.571440637 -0.926183939
v 0.586476564 -0.574438989 -0.920478761
v 0.593986869 -0.578164816 -0.912572205
v 0.595490754 -0.580829978 -0.901777506
v 0.596904159 -0.579492033 -0.898231804
v 0.620297134 -0.569372892 -0.907028496
v 0.62451458 -0.570981383 -0.903462887
v 0.627357185 -0.568290532 -0.896331668
v 0.63019985 -0.56559974 -0.889200449
v 0.627581596 -0.566094577 -0.877252996
v 0.627627969 -0.560459495 -0.870133936
v 0.647791207 -0.543018579 -0.880666673
v 0.664047122 -0.532962561 -0.890073538
v 0.659837723 -0.525642514 -0.886475086
v 0.64226675 -0.52574265 -0.866338909
v 0.640885651 -0.521423638 -0.862756968
v 0.636695623 -0.514137208 -0.859175026
v 0.647209644 -0.503682494 -0.875679672
v 0.641565859 -0.497720271 -0.875679672
v 0.60819906 -0.508531868 -0.851306796
v 0.601182163 -0.503967285 -0.854874074
v 0.597040117 -0.502310932 -0.858509839
v 0.559524238 -0.515468359 -0.825448155
v 0.562338233 -0.512804568 -0.818388641
v 0.55577147 -0.51174587 -0.810273767
v 0.558513463 -0.509127975 -0.803166866
v 0.549166024 -0.513942361 -0.785485923
v 0.551964402 -0.511293471 -0.778465748
v 0.540095747 -0.517670214 -0.758705437
v 0.54562062 -0.517928004 -0.751718223
v 0.570487678 -0.512806118 -0.777914584
v 0.569085121 -0.514133751 -0.781433046
v 0.571890175 -0.511478484 -0.774396122
v 0.57469523 -0.508823276 -0.767359138
v 0.577500284 -0.506168067 -0.760322213
v 0.580305338 -0.5035128 -0.753285289
v 0.576236546 -0.505066454 -0.740386307
v 0.579035461 -0.502417028 -0.733364701
v 0.561689258 -0.512114525 -0.70928371
v 0.554466248 -0.515616536 -0.69386518
v 0.560757697 -0.515388012 -0.687576652
v 0.55734688 -0.516549706 -0.675443769
v 0.562836349 -0.516805828 -0.668501377
v 0.562296927 -0.516671717 -0.663430154
v 0.560954571 -0.521094143 -0.650835812
v 0.554756701 -0.523950219 -0.636519313
v 0.567808509 -0.520043433 -0.640451312
v 0.561460793 -0.522981882 -0.626057744
v 0.572318852 -0.524461329 -0.621352375
v 0.564610302 -0.528207183 -0.605937243
v 0.568682611 -0.529760301 -0.602494299
v 0.563332617 -0.532069206 -0.589068115
v 0.565903604 -0.534052849 -0.579899788
v 0.574996531 -0.532560587 -0.580508053
v 0.572760582 -0.537436843 -0.567509115
v 0.571622074 -0.537184238 -0.557572186
v 0.57443881 -0.539000332 -0.548666477
v 0.576651394 -0.536728621 -0.541418195
v 0.571446538 -0.53448379 -0.53044498
v 0.566823363 -0.536809921 -0.52232796
v 0.579330981 -0.532770157 -0.521079481
v 0.577117562 -0.533170044 -0.510399997
v 0.573280513 -0.538979292 -0.496416807
v 0.575685143 -0.54148519 -0.491764516
v 0.57889396 -0.543504894 -0.487739533
v 0.583788574 -0.544042289 -0.480575681
v 0.587896109 -0.540640712 -0.474851698
v 0.601808727 -0.535788953 -0.474559486
v 0.599683881 -0.536112309 -0.46406725
v 0.590934157 -0.535998642 -0.450603843
v 0.575838685 -0.544583917 -0.434781224
v 0.578529954 -0.542036355 -0.428029656
v 0.583609343 -0.538055003 -0.423069328
v 0.572932065 -0.53916198 -0.408293962
v 0.574526131 -0.537277818 -0.400747985
v 0.567756474 -0.540434957 -0.38699919
v 0.569159448 -0.534301341 -0.381294131
v 0.570497572 -0.533034623 -0.377937108
v 0.571779251 -0.531344771 -0.370196521
v 0.556934118 -0.539413869 -0.350638092
v 0.562907696 -0.539239287 -0.344472975
v 0.558838665 -0.540787339 -0.33290416
v 0.570392072 -0.532894373 -0.332689524
v 0.572497427 -0.530710995 -0.325607598
v 0.581423819 -0.524400175 -0.323432684
v 0.590022743 -0.527006865 -0.317229748
v 0.590580106 -0.526212275 -0.313328832
v 0.59421277 -0.523105204 -0.307323426
v 0.596153617 -0.517115891 -0.306271344
v 0.594720304 -0.509243906 -0.308989555
v 0.596636713 -0.499306738 -0.314103633
v 0.599261224 -0.492405474 -0.309213012
v 0.606812239 -0.482921004 -0.312127352
v 0.60709995 -0.473002911 -0.307425231
v 0.608446121 -0.471728623 -0.304048061
v 0.519129336 -0.517317414 -0.236146957
v 0.513834953 -0.519744217 -0.224018723
v 0.516447067 -0.517271638 -0.217465833
v 0.512595415 -0.518809795 -0.206407681
v 0.515202045 -0.516342402 -0.199868515
v 0.517808616 -0.513875008 -0.193329364
v 0.49527806 -0.527025938 -0.169473603
v 0.512885928 -0.519525409 -0.171543762
v 0.515959918 -0.517195046 -0.169502899
v 0.53235054 -0.506175995 -0.172388062
v 0.544429481 -0.497826517 -0.172271967
v 0.555303991 -0.49021998 -0.171290696
v 0.561326206 -0.47693941 -0.170483381
v 0.568856597 -0.471813887 -0.171367601
v 0.574211955 -0.458879292 -0.170064375
v 0.574176013 -0.449713618 -0.169329256
v 0.582190871 -0.43983832 -0.17224437
v 0.580907762 -0.431408614 -0.170666128
v 0.583629251 -0.424841881 -0.170017317
v 0.585645914 -0.414271504 -0.17064409
v 0.589373887 -0.402567089 -0.172413468
v 0.588062763 -0.398944139 -0.173295185
v 0.587149203 -0.390181005 -0.171957046
v 0.59319365 -0.376880169 -0.175274983
v 0.590554237 -0.374091864 -0.175274983
v 0.590831816 -0.36448887 -0.174731836
v 0.592736363 -0.353791773 -0.175275922
v 0.594968736 -0.347393006 -0.174262732
v 0.592012882 -0.340240836 -0.175833851
v 0.591194153 -0.331655324 -0.178844124
v 0.591746569 -0.321751177 -0.178484783
v 0.595868945 -0.314028203 -0.17873019
v 0.592760146 -0.306905538 -0.180220544
v 0.59783262 -0.293880016 -0.182890922
v 0.594561994 -0.28682074 -0.184287339
v 0.604073107 -0.270685017 -0.189944744
v 0.605439305 -0.269391805 -0.186517492
v 0.596653163 -0.265329719 -0.175554872
v 0.588334739 -0.266005099 -0.167459115
v 0.593813837 -0.252186567 -0.166037574
v 0.587298572 -0.25632447 -0.157376483
v 0.587457538 -0.255514652 -0.148853168
v 0.592851043 -0.255766273 -0.142032132
v 0.585177183 -0.260345101 -0.12839134
v 0.58959496 -0.256604105 -0.122708693
v 0.592306495 -0.25403741 -0.115906395
v 0.596509397 -0.25044328 -0.110070623
v 0.596553802 -0.245056406 -0.103265114
v 0.601330936 -0.241409779 -0.10206718
v 0.600429714 -0.236671805 -0.0946468562
v 0.59999907 -0.231610462 -0.0875318572
v 0.596868813 -0.22842896 -0.0786964521
v 0.599798739 -0.226050198 -0.0762971416
v 0.598470032 -0.216937542 -0.0703136623
v 0.59982717 -0.215652898 -0.0669090897
v 0.596378148 -0.208021089 -0.0595793203
v 0.5975492 -0.201839492 -0.0534817129
v 0.595534325 -0.198229328 -0.0496351421
v 0.59126991 -0.196212292 -0.044376269
v 0.591469705 -0.19071804 -0.0376716629
v 0.589881361 -0.181779474 -0.0315154381
v 0.593208909 -0.179091737 -0.0293416865
v 0.58787328 -0.172820896 -0.0208483469
v 0.583767772 -0.170722753 -0.0157126281
v 0.582457423 -0.166625023 -0.0123141911
v 0.585614622 -0.15900287 -0.00744021684
v 0.580433428 -0.152649879 0.000939235848
v 0.5804528 -0.152333722 0.00515930401
v 0.575244904 -0.146021098 0.0135410549
v 0.571907103 -0.143405586 0.0181780662
v 0.56744796 -0.13657248 0.0260885693
v 0.565611303 -0.132872328 0.0298019685
v 0.564709246 -0.128487065 0.0329453163
v 0.562094688 -0.120310813 0.039726261
v 0.56422621 -0.11845573 0.0426440872
v 0.560686588 -0.110962778 0.0499853306
v 0.55776304 -0.108075775 0.0543510392
v 0.55249089 -0.106942825 0.0601293966
v 0.546932042 -0.100987032 0.068670176
v 0.548392415 -0.0996270254 0.071983695
v 0.5478037 -0.0947487056 0.0791241303
v 0.545594692 -0.0910899416 0.0872262791
v 0.543328106 -0.0877427682 0.0911774188
v 0.538347781 -0.0861885101 0.100907035
v 0.533586979 -0.0844853818 0.110485233
v 0.536557138 -0.0819834024 0.112892956
v 0.532815874 -0.0795212761 0.121849291
v 0.535752714 -0.0767892748 0.1284284
v 0.526085377 -0.079093948 0.136672676
v 0.53586781 -0.0711591691 0.139258146
v 0.526900411 -0.0727006271 0.151194006
v 0.530044973 -0.069810994 0.157628968
v 0.533390284 -0.0667682365 0.163951457
v 0.531360209 -0.0630420819 0.171843618
v 0.534032643 -0.06051239 0.178547844
v 0.54225421 -0.0537421182 0.18211472
v 0.544931412 -0.0512079075 0.188830927
v 0.547608614 -0.0486736931 0.195547134
v 0.550285816 -0.0461394824 0.202263355
v 0.552963018 -0.043605268 0.208979562
v 0.549182653 -0.046010904 0.219261602
v 0.546336293 -0.0477038585 0.228996426
v 0.529020548 -0.0604716763 0.246616453
v 0.524639606 -0.0683201849 0.254471958
v 0.496014565 -0.0990593955 0.280854493
v 0.500422955 -0.10037633 0.279858917
v 0.50677979 -0.104639031 0.283185601
v 0.516152561 -0.10688132 0.280908287
v 0.521787703 -0.10704381 0.283250332
v 0.535875499 -0.105273046 0.286451161
v 0.542427182 -0.104769103 0.288329393
v 0.542256713 -0.104374886 0.296394736
v 0.542727113 -0.103502199 0.304108649
v 0.546597183 -0.100086451 0.310031801
v 0.543516517 -0.0972209051 0.318239719
v 0.544826508 -0.0959808603 0.32152611
v 0.54209137 -0.0928662643 0.329537839
v 0.544638336 -0.0857818425 0.334812969
v 0.54337132 -0.0818195716 0.338099062
v 0.540750861 -0.0742075518 0.340755552
v 0.542999268 -0.0675731748 0.342236668
v 0.541803956 -0.0590954982 0.340195566
v 0.54814893 -0.0445824228 0.338246465
v 0.540082157 -0.0413195565 0.339730501
v 0.52107507 -0.0465176068 0.346863478
v 0.542446434 -0.0202870462 0.337152809
v 0.535704553 -0.0207566004 0.339289695
v 0.522807777 -0.0212763287 0.343270898
v 0.539883256 0.00182973722 0.335761964
v 0.536192536 0.00853649061 0.334973663
v 0.536308289 0.0184648857 0.336229473
v 0.54212594 0.0280956458 0.335896343
v 0.545793951 0.0408981778 0.335330844
v 0.52937454 0.0375420749 0.341098934
v 0.525305331 0.0393404104 0.345868498
v 0.525451839 0.0493596271 0.347117275
v 0.526314974 0.0601701997 0.352025688
v 0.529298961 0.0676427484 0.353176236
v 0.527551055 0.0713047609 0.356755167
v 0.52482599 0.0790697113 0.359492511
v 0.525883198 0.0850115642 0.361639947
v 0.531122923 0.099469915 0.36435771
v 0.530402839 0.108924747 0.366084874
v 0.520828307 0.106008716 0.369614244
v 0.531862676 0.125322178 0.369416028
v 0.529753625 0.128550395 0.369146526
v 0.524777353 0.134540439 0.373039603
v 0.528683007 0.147919536 0.372434348
v 0.526045322 0.155731156 0.371087402
v 0.529530764 0.163814321 0.372040898
v 0.526812077 0.171595126 0.370728612
v 0.511234879 0.168538794 0.375945061
v 0.522447824 0.188250914 0.371623576
v 0.522988439 0.193909317 0.374078244
v 0.517097473 0.199046642 0.374367058
v 0.522962511 0.209263965 0.374124736
v 0.523300648 0.219761044 0.371245712
v 0.522607565 0.229408175 0.368881077
v 0.511632919 0.2302026 0.371745557
v 0.515047431 0.243548065 0.371385902
v 0.515120387 0.254033774 0.372732103
v 0.509619474 0.259575784 0.372803152
v 0.503938198 0.26495865 0.372966439
v 0.509236932 0.280101418 0.371644646
v 0.506548524 0.28294155 0.371644646
v 0.50024116 0.287797451 0.372120231
v 0.502699852 0.300522059 0.372244358
v 0.497409195 0.306298316 0.372195244
v 0.502074242 0.321067691 0.371191621
v 0.504986048 0.328961819 0.368320048
v 0.498587996 0.333790183 0.368825436
v 0.493767709 0.340039521 0.368522555
v 0.494148135 0.351017565 0.365543753
v 0.490334541 0.358211339 0.364715278
v 0.476320803 0.356035948 0.364988387
v 0.480010986 0.370116711 0.360269666
v 0.469460011 0.371091515 0.35875842
v 0.49449417 0.399628222 0.348508537
v 0.487574011 0.40405786 0.349264652
v 0.47759679 0.405630022 0.35161835
v 0.48328957 0.421819836 0.345790863
v 0.470783085 0.421009898 0.349471033
v 0.472720981 0.433763385 0.349809408
v 0.462250054 0.434824169 0.352427274
v 0.461196333 0.44478482 0.354329616
v 0.458360434 0.447580367 0.354381919
v 0.451668233 0.452196062 0.355022579
v 0.461902946 0.472992837 0.355235636
v 0.458428055 0.47519508 0.355617046
v 0.461313069 0.48902294 0.359705687
v 0.458407491 0.491753191 0.364022732
v 0.457522035 0.496432304 0.367286474
v 0.456856042 0.501294017 0.374668568
v 0.456345707 0.506304383 0.381967127
v 0.454201639 0.509759903 0.385880142
v 0.450903147 0.512047768 0.394601464
v 0.453055412 0.514106393 0.397715539
v 0.451032877 0.517629623 0.405769765
v 0.452806383 0.51927793 0.41328153
v 0.446839988 0.524508595 0.421923816
v 0.4482328 0.525826991 0.4254179
v 0.4537552 0.531146586 0.431038976
v 0.449451536 0.532411814 0.440195888
v 0.452408642 0.535217106 0.447094768
v 0.454675078 0.537344158 0.454334199
v 0.448509097 0.536812782 0.460191101
v 0.451157212 0.539314568 0.467227608
v 0.453936428 0.541945338 0.474199772
v 0.446089059 0.539685249 0.484983265
v 0.448857129 0.542305291 0.491939098
v 0.450249106 0.543569267 0.499551803
v 0.452983826 0.546156526 0.506519675
v 0.447012782 0.545718551 0.516312063
v 0.447889924 0.546472132 0.52413553
v 0.450611442 0.549046576 0.531087577
v 0.451504648 0.549816191 0.538888037
v 0.449168354 0.552944958 0.546916008
v 0.449580103 0.553293705 0.550823092
v 0.450979263 0.554560602 0.558365822
v 0.453142673 0.556583405 0.565553367
v 0.455899507 0.559192955 0.572469294
v 0.452429265 0.561184883 0.580967426
v 0.45518288 0.563791454 0.587875307
v 0.457936466 0.566397965 0.594783187
v 0.453776836 0.567693472 0.603551209
v 0.45338428 0.567241013 0.60777986
v 0.455549568 0.569264054 0.614929676
v 0.451794565 0.565412819 0.624655724
v 0.449791372 0.568821371 0.632421434
v 0.452531248 0.571414888 0.639294863
v 0.455271125 0.574008465 0.646168351
v 0.453800648 0.577940285 0.653686941
v 0.454303384 0.578306437 0.661502957
v 0.448029816 0.577438056 0.671026945
v 0.448313713 0.577651799 0.674905956
v 0.451043487 0.580235779 0.681754053
v 0.453457028 0.582504392 0.688733101
v 0.450461715 0.584887087 0.696832836
v 0.453188449 0.587468207 0.703673303
v 0.447717816 0.587436736 0.708789051
v 0.448674679 0.588246644 0.716336668
v 0.444994837 0.589916527 0.724666417
v 0.445102334 0.589872181 0.732531488
v 0.441682398 0.591785431 0.740724981
v 0.443038672 0.593069255 0.744127452
v 0.440162122 0.59551698 0.752086103
v 0.440732807 0.59593004 0.759723723
v 0.438513637 0.599026263 0.767400205
v 0.433748782 0.599544406 0.776053786
v 0.434548467 0.600266635 0.779655576
v 0.430201143 0.601189137 0.788119376
v 0.429104984 0.605389774 0.795321286
v 0.420399636 0.60195595 0.801523507
v 0.41801244 0.604824841 0.809191406
v 0.417162389 0.609250546 0.816269577
v 0.410749078 0.608096123 0.821559966
v 0.405610174 0.608225763 0.826363087
v 0.405948848 0.613846242 0.832972527
v 0.402310729 0.615494967 0.83720243
v 0.391918719 0.615559876 0.846799672
v 0.38990137 0.618848562 0.850415766
v 0.385859638 0.625410736 0.857646227
v 0.383105963 0.627928257 0.861527205
v 0.368565172 0.623550892 0.872564971
v 0.3672809 0.627566993 0.875895739
v 0.365996629 0.631583154 0.879226506
v 0.354592234 0.630360007 0.889066041
v 0.353311867 0.634364069 0.892386794
v 0.339589059 0.63075906 0.899229884
v 0.328590333 0.629959464 0.905086458
v 0.326001376 0.632694483 0.905086458
v 0.322139502 0.639410198 0.908387899
v 0.318277627 0.646125972 0.911689281
v 0.315688699 0.648860991 0.911689281
v 0.311826825 0.655576706 0.914990664
v 0.30664894 0.661046684 0.914990664
v 0.27859813 0.641652048 0.926902771
v 0.2747688 0.648311198 0.930176318
v 0.265936017 0.644223869 0.932404578
v 0.261632025 0.650342107 0.935842395
v 0.260372818 0.654279888 0.939108193
v 0.256552607 0.660923183 0.942373931
v 0.228983253 0.641477287 0.954013586
v 0.227734655 0.645381927 0.957251847
v 0.223946631 0.651969254 0.960490108
v 0.220158592 0.658556521 0.963728428
v 0.217619166 0.661239266 0.963728428
v 0.213831127 0.667826593 0.966966689
v 0.210043103 0.67441386 0.970204949
v 0.201632798 0.670521915 0.97225678
v 0.184432685 0.66224122 0.976504505
v 0.176311553 0.66410327 0.97758323
v 0.166016966 0.663480401 0.979429722
v 0.159524426 0.666892171 0.983598411
v 0.154498935 0.672201216 0.983598411
v 0.137888253 0.664508402 0.984036684
v 0.126703843 0.662704051 0.986223876
v 0.1217089 0.66798085 0.986223876
v 0.0943740457 0.641688704 0.99864161
v 0.0853045583 0.641607463 1.00728309
v 0.0865576416 0.648261547 1.0095644
v 0.0789088681 0.650050998 1.01410067
v 0.0794353336 0.655869663 1.01663828
v 0.0739749074 0.660467088 1.0168221
v 0.0592260212 0.654151976 1.02025902
v 0.0575402491 0.6570822 1.02712727
v 0.0495864153 0.658680439 1.02818716
v 0.0480670594 0.662081957 1.03142416
v 0.0431614444 0.667264402 1.03142416
v 0.0160957929 0.646359384 1.03561735
v 0.0149658257 0.650179625 1.03869689
v 0.00800410099 0.652502298 1.04296029
v 0.00161485176 0.655799389 1.04349387
v -0.0049725459 0.65916425 1.04057097
v -0.0211796425 0.650559068 1.04456282
v -0.0197170097 0.657489419 1.04671586
v -0.0208782926 0.667076647 1.04542363
v -0.29068929 0.448070943 -0.0172040593
v -0.291845113 0.434393525 -0.00748132449
v -0.618597507 0.0132785421 0.272241473
v -0.618633687 0.00888913125 0.266696125
v -0.619641066 0.00796544179 0.263839185
v -0.618965805 0.00446489966 0.257679105
v -0.61950171 -0.000882215216 0.256293416
v -0.621711314 -0.00297377585 0.250750333
v -0.620165229 -0.00539084291 0.24382861
v -0.622376621 -0.00748410495 0.238281012
v -0.624588013 -0.00957736745 0.232733414
v -0.626466036 -0.0112551777 0.226891547
v -0.624256015 -0.0078356415 0.21742186
v -0.194524229 0.540672004 -0.172999859
v -0.198552251 0.542208254 -0.176405326
v -0.20795022 0.543163478 -0.177387655
v -0.212126479 0.544504881 -0.18065156
v -0.219803631 0.547605336 -0.18316032
v -0.237853155 0.53747946 -0.176235914
v -0.245117739 0.534839511 -0.176644772
v -0.254630029 0.53548646 -0.177398399
v -0.263808459 0.530341446 -0.176006854
v -0.277877986 0.52549696 -0.177094072
v -0.282441795 0.526245654 -0.179902613
v -0.298366129 0.518897593 -0.179159075
v -0.29899776 0.524263442 -0.181021944
v -0.314025313 0.517984629 -0.181026965
v -0.322409451 0.513672054 -0.180173829
v -0.332852602 0.513300776 -0.184398666
v -0.3417781 0.508212686 -0.182964787
v -0.349030375 0.505309045 -0.183100969
v -0.357952952 0.506357372 -0.184105754
v -0.362148076 0.507480025 -0.187148303
v -0.377567589 0.500311911 -0.186400279
v -0.383686692 0.498826832 -0.187539563
v -0.39798829 0.49303472 -0.18775031
v -0.400995076 0.495706081 -0.191902936
v -0.415249467 0.489882201 -0.192059249
v -0.422660291 0.486553937 -0.191823155
v -0.461384058 0.439444989 -0.151338071
v -0.459611267 0.440794498 -0.144126162
v -0.461888552 0.442717314 -0.135411665
v -0.459329188 0.445140004 -0.128991023
v -0.456769794 0.447562665 -0.122570373
v -0.454210401 0.449985355 -0.116149724
v -0.452858895 0.450762123 -0.108558528
v -0.452119172 0.450706691 -0.100387171
v -0.450423956 0.451954156 -0.0931489989
v -0.449954271 0.451534301 -0.084745802
v -0.444379091 0.451994121 -0.0788308233
v -0.442394674 0.45363909 -0.0718884468
v -0.438038886 0.452966064 -0.0692246705
v -0.437141478 0.45314157 -0.0612649731
v -0.431663245 0.453470439 -0.055256784
v -0.426613003 0.453731239 -0.0532347895
v -0.422817171 0.451790661 -0.0456562154
v -0.417369395 0.452576548 -0.0439906418
v -0.409237802 0.450428337 -0.03809442
v -0.404791147 0.449858993 -0.0354917347
v -0.399765283 0.44454959 -0.0354917347
v -0.391016692 0.443678945 -0.034506496
v -0.388987005 0.44540295 -0.0276133791
v -0.389666975 0.449525803 -0.0205488
v -0.38916707 0.449706614 -0.0166433547
v -0.380692065 0.44846341 -0.0153797865
v -0.374381393 0.444358259 -0.0121715125
v -0.360372812 0.450762242 -0.0201463904
v -0.36555478 0.437595248 -0.00896323938
v -0.350215793 0.445650727 -0.0180684105
v -0.343875617 0.441526383 -0.0148451459
v -0.33588919 0.445451885 -0.0152801517
v -0.326732427 0.444919229 -0.0144980159
v -0.318767309 0.442833036 -0.0126588484
v -0.313188583 0.444030911 -0.0152976383
v -0.306815386 0.43988511 -0.0120575977
v -0.302983046 0.438423514 -0.00881755725
v 0.286510587 0.446526498 -0.0175732467
v 0.294769555 0.443287075 -0.0149106812
v 0.362266719 0.499505699 -0.066361025
v 0.368458211 0.505774975 -0.0752288476
v 0.375869632 0.513342619 -0.0896079913
v 0.380614817 0.518244565 -0.102205031
v 0.381629676 0.519416094 -0.112254187
v 0.387316525 0.525261402 -0.125594988
v 0.387287647 0.52538991 -0.134975925
v 0.386362791 0.524622381 -0.143743142
v 0.383777708 0.522194088 -0.15134646
v 0.380844742 0.519417763 -0.158704311
v 0.378883064 0.517613292 -0.166756824
v 0.37958771 0.518476903 -0.176731065
v 0.379784167 0.518832326 -0.186362043
v 0.37770471 0.516910553 -0.194363534
v 0.374763161 0.514126122 -0.201742932
v 0.333172798 0.484347522 -0.180330575
v 0.316007227 0.473051012 -0.174549982
v 0.319458544 0.488311857 -0.181271076
v 0.311413556 0.491977572 -0.179552957
v 0.294101179 0.486283541 -0.175682545
v 0.290550858 0.494478166 -0.177265793
v 0.288647026 0.504382491 -0.180077836
v 0.268602639 0.495725036 -0.174095407
v 0.263807684 0.50262785 -0.174751431
v 0.25451535 0.499056458 -0.174612716
v 0.246549308 0.502642155 -0.17288442
v 0.243875906 0.51174736 -0.175131992
v 0.231683239 0.511025012 -0.1749008
v 0.220931143 0.511622846 -0.171041682
v 0.203389809 0.505145788 -0.166685998
v 0.203043297 0.510734141 -0.168562949
v 0.201661095 0.521208167 -0.17180264
v 0.187777668 0.518516243 -0.170178622
v 0.186279744 0.528891861 -0.173345923
v 0.178668946 0.532897055 -0.176515684
v 0.173030689 0.538838685 -0.176510364
v 0.164816007 0.536150336 -0.177025899
v 0.152945757 0.535485148 -0.176861361
v 0.146628797 0.540644705 -0.176312506
v 0.142396629 0.542258859 -0.179890573
v 0.136784837 0.548187256 -0.179890573
v 0.121809669 0.543986678 -0.177218392
v 0.0961677954 0.527866006 -0.166056499
v 0.0933895931 0.530800939 -0.166056484
v 0.0934144482 0.542907715 -0.170484349
v 0.0827311873 0.543298542 -0.17108649
v 0.0681020841 0.539208591 -0.168505594
v 0.0651243255 0.547969282 -0.170563653
v 0.0539835244 0.541679263 -0.16850616
v 0.0423232391 0.540822506 -0.168222502
v 0.0393253975 0.549548149 -0.170268759
v 0.0282872189 0.543271124 -0.168215841
v 0.0244998317 0.551086187 -0.169622883
v -0.541828215 -0.096073322 0.296962261
v -0.539794981 -0.0941813514 0.30259043
v -0.537894726 -0.0924425647 0.308324456
v -0.535702944 -0.0903678313 0.313822955
v -0.0571236163 0.448851258 -0.0606197864
v -0.0510435142 0.443848372 -0.0567677766
v -0.0477786362 0.441735804 -0.0572502539
v -0.0324487984 0.447237372 -0.0607026555
v -0.0205227211 0.448809475 -0.0614204593
v -0.0148889422 0.449082285 -0.0592703745
v 0.0011626411 0.455220342 -0.0631518215
v 0.00385728572 0.452398896 -0.0631608516
v 0.011951115 0.449312001 -0.0563179776
v 0.0186810978 0.44493407 -0.0528965406
v 0.0252768211 0.44621861 -0.0514332689
v 0.0333166942 0.443276465 -0.0490054041
v 0.045409508 0.450595975 -0.051708892
v 0.0558511317 0.450032234 -0.046584975
v 0.058548864 0.447182298 -0.046584975
v 0.0704783276 0.448215961 -0.0425548181
v 0.0756130591 0.447816014 -0.0399038307
v 0.0816214457 0.448168129 -0.0334266908
v 0.0856988281 0.446613044 -0.0299794953
v 0.102360427 0.453241736 -0.0428082012
v 0.10938412 0.449215025 -0.0439879969
v 0.113483332 0.447651625 -0.0405223481
v 0.119612686 0.448263168 -0.0385518745
v 0.109931663 0.449091524 -0.0264681261
v 0.114526406 0.448071033 -0.0233773254
v 0.122711137 0.444949448 -0.0164575968
v 0.126803502 0.443388671 -0.0129977316
v 0.134741157 0.445921034 -0.0123166703
v 0.1497989 0.45022586 -0.014782764
v 0.156634927 0.445778966 -0.0113074211
v 0.160745591 0.444211215 -0.00783207826
v 0.175345451 0.44805479 -0.0143526094
v 0.182204351 0.443593025 -0.0108656306
v 0.19989951 0.450411886 -0.0150356703
v 0.202644721 0.447511792 -0.0150356703
v 0.211189255 0.444748729 -0.012700839
v 0.225252435 0.447659224 -0.0142185865
v 0.229691431 0.446482986 -0.015396798
v 0.236603335 0.44198674 -0.0118828723
v 0.252602637 0.446865499 -0.0191707239
v 0.259540349 0.442352474 -0.0156436767
v 0.268794447 0.445915401 -0.0156215858
v 0.275744617 0.441394269 -0.0120882038
v 0.466880262 0.49512592 0.227642715
v 0.41087684 0.430066526 0.262342602
v 0.405806422 0.414191097 0.268273443
v 0.407295197 0.40465343 0.266246647
v 0.400649965 0.392859697 0.271515429
v 0.404703677 0.385810375 0.268050045
v 0.408757389 0.378761083 0.264584661
v 0.410282969 0.374767393 0.265255153
v 0.414335042 0.367720902 0.26179114
v 0.41479218 0.35731408 0.260352194
v 0.418839365 0.350276083 0.256892383
v 0.421310484 0.347184896 0.257028699
v 0.424758732 0.339593321 0.253906518
v 0.426933765 0.336200088 0.249972731
v 0.409851402 0.309752554 0.262655526
v 0.410615861 0.299785823 0.261055529
v 0.414628267 0.292808294 0.257625431
v 0.417250067 0.289856434 0.253461063
v 0.419364125 0.281203926 0.255304664
v 0.425343007 0.276011556 0.250765234
v 0.429355443 0.269034028 0.247335121
v 0.421843052 0.257020801 0.253093302
v 0.425841808 0.250066996 0.249674857
v 0.420162112 0.234554857 0.255899638
v 0.423244983 0.232023522 0.251494497
v 0.426150441 0.224214092 0.252869487
v 0.421952963 0.210062072 0.254078716
v 0.425925255 0.203154325 0.25068292
v 0.431251138 0.197527915 0.25068292
v 0.432560474 0.193433389 0.247287139
v 0.437886387 0.187806979 0.247287139
v 0.441858679 0.180899248 0.243891343
v 0.446352959 0.17455405 0.244359329
v 0.439831406 0.158615425 0.246872857
v 0.431494832 0.146370932 0.253055513
v 0.436464965 0.140515313 0.253233224
v 0.440407485 0.133659363 0.249862894
v 0.445693463 0.128075138 0.249862894
v 0.43606326 0.109876171 0.258216292
v 0.454358757 0.11516054 0.246808186
v 0.443332613 0.0958920121 0.255933076
v 0.445466459 0.0877292529 0.257676959
v 0.448506445 0.0803413615 0.258909583
v 0.45375368 0.0747980848 0.258909583
v 0.455043674 0.0707640499 0.255563974
v 0.460290879 0.0652207732 0.255563974
v 0.465538085 0.0596774928 0.255563974
v 0.46647802 0.0506122075 0.257952332
v 0.464981943 0.0395907424 0.261680871
v 0.465673417 0.0303872805 0.264187783
v 0.469570398 0.023619229 0.260857403
v 0.470283717 0.0144772483 0.263345361
v 0.47268039 0.0113654332 0.259405226
v 0.47557798 0.00380899152 0.256629109
v 0.480670989 0.00284372107 0.251193374
v 0.480627596 -0.00242458656 0.244537666
v 0.481913418 -0.00179922662 0.235680148
v 0.481869966 -0.00707435096 0.229015827
v 0.488079369 -0.00254501263 0.217352346
v 0.485415131 -0.00506696478 0.210668638
v 0.482750863 -0.00758891692 0.203984916
v 0.483834058 -0.0117811793 0.200760126
v 0.481375158 -0.0141403731 0.19395934
v 0.479733825 -0.0158518646 0.186686963
v 0.478536993 -0.017211521 0.179152071
v 0.477025092 -0.023666922 0.173315033
v 0.4743945 -0.0261624064 0.16660893
v 0.474235773 -0.0267047286 0.158454627
v 0.479392618 -0.0230482407 0.147158369
v 0.471524775 -0.034526322 0.145071507
v 0.471553773 -0.0347146653 0.140918896
v 0.479318947 -0.0290179402 0.128018185
v 0.476641208 -0.0315526649 0.121300608
v 0.476597399 -0.0368699431 0.114583038
v 0.476056188 -0.0377252065 0.106578216
v 0.47387585 -0.0447219461 0.101147898
v 0.477076262 -0.0426470526 0.0908595622
v 0.478057444 -0.0423138328 0.0818931088
v 0.476665586 -0.0484818779 0.0801681355
v 0.479832381 -0.0464457646 0.0698442459
v 0.479788393 -0.051785294 0.0630985647
v 0.481260329 -0.0510836765 0.0537781343
v 0.478878409 -0.0582508072 0.0484751165
v 0.479869992 -0.0577049106 0.0436457768
v 0.479825944 -0.0630517378 0.0368908755
v 0.478206962 -0.0647667125 0.0294623598
v 0.478162885 -0.0701154321 0.0227050725
v 0.478118837 -0.0754641443 0.0159477852
v 0.48150748 -0.0730781704 0.00957041699
v 0.481463373 -0.0784352049 0.00280261552
v 0.481419235 -0.0837922469 -0.00396518642
v 0.485030472 -0.0812522694 -0.0105191274
v 0.484986275 -0.0866180286 -0.0172979478
v 0.484740555 -0.0921381488 -0.0239470806
v 0.485092729 -0.0921124965 -0.0284347367
v 0.487419546 -0.0956690088 -0.0367514156
v 0.487375259 -0.101041578 -0.0435388461
v 0.484420329 -0.108377099 -0.0441601984
v 0.484376132 -0.113742173 -0.0509381555
v 0.485160112 -0.113654487 -0.0600003302
v 0.48332563 -0.120125078 -0.0613311902
v 0.5803563 -0.0422015972 -0.13563703
v 0.580906808 -0.0315334275 -0.13519831
v 0.576802671 -0.024396332 -0.131689772
v 0.574051261 -0.0214897208 -0.131689772
v 0.575970173 -0.00971488655 -0.132152349
v 0.567348182 -0.00629411777 -0.130099162
v 0.566974103 0.00374895311 -0.12905255
v 0.56504792 0.00730839837 -0.129601717
v 0.563955128 0.0168233495 -0.128080413
v 0.559438407 0.0234442893 -0.128745094
v 0.554889143 0.0300461259 -0.129390553
v 0.554518223 0.0399602763 -0.132812992
v 0.554734588 0.0505890809 -0.132168055
v 0.550642014 0.0524637848 -0.131289855
v 0.5431059 0.0567190126 -0.12996076
v 0.54552263 0.0691539645 -0.130786106
v 0.538497686 0.073823072 -0.129801273
v 0.530066788 0.0773441344 -0.127874121
v 0.536026955 0.0927328318 -0.13107796
v 0.534383059 0.101982944 -0.129203275
v 0.532602429 0.105739243 -0.129871339
v 0.527798593 0.112241395 -0.130379856
v 0.522233367 0.118120655 -0.130379841
v 0.522450268 0.128956273 -0.129757658
v 0.52166158 0.138822839 -0.132968888
v 0.516079843 0.144719556 -0.132968888
v 0.510501921 0.150619552 -0.132971525
v 0.51313436 0.158275738 -0.132106721
v 0.507545292 0.164180145 -0.132106721
v 0.503623486 0.171496987 -0.133232459
v 0.500069022 0.179137915 -0.134610802
v 0.502222598 0.191800177 -0.135321304
v 0.494025171 0.195502535 -0.133566722
v 0.491352051 0.203944132 -0.135554925
v 0.493252724 0.216478273 -0.136106417
v 0.488135099 0.22284998 -0.13644731
v 0.484598815 0.230603904 -0.137866259
v 0.481755823 0.238979578 -0.139763415
v 0.479683936 0.24805288 -0.142194584
v 0.475976676 0.255708426 -0.143515006
v 0.477366775 0.262499243 -0.141818106
v 0.475271136 0.27161333 -0.144249439
v 0.470740438 0.278581977 -0.145018384
v 0.468968123 0.288028181 -0.147687092
v 0.463628083 0.294295698 -0.147907734
v 0.46369049 0.305441499 -0.151858255
v 0.459666014 0.312925786 -0.152997315
v 0.4560785 0.320819765 -0.154443413
v 0.452648312 0.328872979 -0.156004161
v 0.460315198 0.34716484 -0.160642207
v 0.455187559 0.353724092 -0.161043823
v 0.449849457 0.360093057 -0.161300361
v 0.445283115 0.367181361 -0.162096426
v 0.440942645 0.37448886 -0.163053468
v 0.436924398 0.38210839 -0.164239869
v 0.433678031 0.390466273 -0.165972576
v 0.427770436 0.390610188 -0.16849716
v 0.432600319 0.406624079 -0.171252981
v 0.465770245 0.443796903 -0.187173605
v 0.469427943 0.447259933 -0.180277064
v 0.471059024 0.443000406 -0.16995436
v 0.469635427 0.447452307 -0.16626218
v 0.47201547 0.455511421 -0.160489634
v 0.464455754 0.454130113 -0.152559578
v 0.463618994 0.453319997 -0.142589152
v 0.466555178 0.456099361 -0.135223225
v 0.467866063 0.457332522 -0.126750454
v 0.457792908 0.45352152 -0.117183693
v 0.460833013 0.456400007 -0.109919816
v 0.463759363 0.459170073 -0.102578573
v 0.460988194 0.462288409 -0.0933442414
v 0.461962074 0.463193566 -0.0847064629
v 0.450941533 0.458402485 -0.0700048283
v 0.455597341 0.462827861 -0.0638586506
v 0.450190991 0.463399708 -0.0575583279
v 0.451145053 0.464278698 -0.0489725955
v 0.446467668 0.459757656 -0.0367046818
v 0.448917568 0.46207118 -0.0291365739
v 0.443350524 0.462433994 -0.0182109643
v 0.444065034 0.463079393 -0.0095400745
v 0.450253099 0.46898371 -0.00440981146
v 0.445463628 0.464341164 0.00778163085
v 0.443302572 0.462224066 0.0182487052
v 0.447235852 0.460263342 0.0220833197
v 0.460112423 0.461130589 0.0265813712
v 0.461768538 0.46268788 0.0345968306
v 0.461018682 0.461947352 0.0441114008
v 0.448300511 0.461160988 0.0530391261
v 0.44973743 0.462521136 0.0566438548
v 0.455438048 0.46225518 0.063853316
v 0.457552046 0.464248419 0.0715321749
v 0.464465052 0.465141743 0.0779942423
v 0.464761496 0.465412766 0.0822984651
v 0.467215329 0.467732012 0.0897619948
v 0.468948722 0.469363272 0.0976602435
v 0.47054702 0.470865548 0.105633371
v 0.47107318 0.471343964 0.114243336
v 0.472327411 0.472517699 0.122404143
v 0.473923832 0.474018246 0.130351841
v 0.475114316 0.475131154 0.138532519
v 0.468970388 0.474894941 0.149368674
v 0.470941246 0.476751506 0.15705955
v 0.473798543 0.479456216 0.164227605
v 0.468074113 0.479614794 0.170343652
v 0.470927328 0.48231566 0.177501455
v 0.464532197 0.481794208 0.188381344
v 0.468717784 0.485774815 0.194754526
v 0.470226556 0.487184435 0.202666596
v 0.467206061 0.489886761 0.21155639
v 0.464038968 0.492436379 0.220514864
v 0.465515614 0.493835151 0.224047095
g path_000000
l 1 1218 1217 1216 1215 1214 1213 1212 1211
g path_000001
l 2 3 4 5 6 7 8 9
g path_000002
l 10 11 12 13 14 15
g path_000003
l 16 17 18 19 20 21 22 23 24 25 26 27 28 29 30 31 32 33 34 35 36 37 38 39 40 41 42 43 44 45 46 47 48 49 50 51 52 53 54 55 56 57 58 59 60 61 62 63 64 65 66 67 68 69 70 71 72 73 74 75 76 77 78 79 80 81 82 83 84 85 86 87 88 89 90 91 92 93 94 95 96 97 98 99 100 101 102 103 104 105 106 107 108 109 110 111 112 113 114 115 116 117 118 119 120 121 122
g path_000004
l 123 124 125 126 127 128 129 130 131 132 133 134 135 136 137 138 139 140 141 142 143 144 145 146
g path_000005
l 147 148 149 150 151 152 153 154 155 156 157 158 159 160 161 162 163 164 165 166 167 168 169 170 171 172 173 174 175 176 177 178 179 180 181 182 183 184 185 186 187 188 189 190 191 192 193 194 195 196 197 198 199 200 201 202 203 204 205 206 207 208 209 210 211 212 213 214 215 216 217 218 219 220 221 222 223 224 225
g path_000006
l 226 227 228 229 230 231 232 233 234 235
g path_000007
l 236 237 238 239 240 241 242 243 244 245 246 247
g path_000008
l 248 249 250 251 252 253 254 255 256
g path_000009
l 257 258 259 260 261 262 263 264 265 266 267 268 269 270 271 272 273 274 275 276 277 278 279 280 281 282 283 284 285 286 287 288 289 290 291 292 293 294 295 296 297 298 299 300 301 302
g path_000010
l 303 304 305 306 307 308 309 310 311 312 313 314 315 316 317 318 319 320
g path_000011
l 321 322 323 324 325 326 327 328
g path_000012
l 329 330 331 332 333 334 335 336 337 338 339 340 341 342
g path_000013
l 344 345 346 347 348 349 350 351 352 353 354 355 356 357 358 359 360 361 362 363 364 365 366 367 368 369 370
g path_000014
l 371 372 373 374 375
g path_000015
l 376 377 378 379 380 381 382 383 384 385 386 387 388 389 390 391
g path_000016
l 392 393 394 395 396 397 398
g path_000017
l 399 400 401
g path_000018
l 402 403 404
g path_000019
l 405 406 407 408 409
g path_000020
l 410 411
g path_000021
l 412 413 414
g path_000022
l 415 416 417
g path_000023
l 418 419 420 421 422 423 424 425 426 427 428 429
g path_000024
l 430 431 432 433 434 435 436 437 438 439 440 441 442 443 444 445 446 447 448 449 450 451 452 453 454 455 456 457 458 459 460 461 462 463
g path_000025
l 464 465 466 467 468 469 470 471 472 473 474 475 476 477
g path_000026
l 478 479 480 481 482 483 484 485 486 487 488 489 490 491
g path_000027
l 492 493 494 495 496 497 498 499 500 501 502
g path_000028
l 503 504 505 506 507 508 509 510 511 512 513 514
g path_000029
l 515 516
g path_000030
l 517 518 519
g path_000031
l 520 521
g path_000032
l 522 523 524 525 526 527 528 529 530 531 532 533 534 535 536 537 538 539 540 541 542 543 544 545 546 547 548 549 550 551 552 553 554 555 556 557
g path_000033
l 558 559 560 561 562 563 564 565 566 567 568 569 570
g path_000034
l 571 572 573 574 575 576 577 578 579 580 581
g path_000035
l 582 583 584 585 586 587 588 589 590 591 592 593 594
g path_000036
l 595 596 597 598 599 600 601 602 603 604 605 606 607 608 609 610 611 612 613 614 615 616 617 618 619
g path_000037
l 620 621 622 623 624
g path_000038
l 625 626 627 628 629 630 631
g path_000039
l 633 634 635 636 637 638 639
g path_000040
l 642 643 644 645 646 647 648 649 650 651 652 653 654
g path_000041
l 655 656 657
g path_000042
l 658 659 660 661 662
g path_000043
l 663 664 665 666 667 668 669 670 671 672 673 674 675 676 677 678 679 680 681 682 683 684 685 686 687 688 689 690 691 692 693 694 695 696 697 698 699 700 701 702 703 704 705 706 707 708
g path_000044
l 709 710 711 712 713 714 715 716 717 718 719 720 721 722 723 724 725 726 727 728 729 730 731 732 733 734 735 736 737 738 739 740 741 742 743 744 745 746 747 748 749 750 751 752 753 754
g path_000045
l 755 756 757
g path_000046
l 758 759 760 761 762 763 764
g path_000047
l 765 766 767 768 769 770 771 772 773 774 775 776 777 778 779 780 781 782 783 784 785 786 787 788 789
g path_000048
l 790 791 792 793 794 795 796 797 798 799 800 801 802 803
g path_000049
l 804 805 806 807 808 809 810 811
g path_000050
l 812 813 814 815 816 817
g path_000051
l 818 819 820
g path_000052
l 821 822 823 824 825
g path_000053
l 826 827 828
g path_000054
l 829 830 831 832 833 834 835 836
g path_000055
l 837 838 839 840 841 842 843 844
g path_000056
l 845 846 847 848 849 850 851 852 853 854 855 856 857 858 859 860 861 862 863 864 865 866 867 868 869 870 871 872 873 874 875 876
g path_000057
l 877 878 879 880 881 882 883 884 885
g path_000058
l 886 887 888 889 890 891 892 893 894 895 896 897 898 899 900 901
g path_000059
l 902 903 904 905 906 907
g path_000060
l 908 909 910 911 912 913 914 915 916 917 918 919 920 921 922 923 924 925 926 927 928 929 930 931 932 933 934 935 936 937 938 939 940 941 942 943 944 945 946 947 948 949 950 951 952 953 954 955 956 957 958 959 960 961 962 963 964 965 966 967 968 969 970 971 972 973 974 975 976 977 978 979 980 981 982 983 984 985 986 987 988 989 990 991 992 993 994 995 996 997 998 999 1000 1001 1002 1003
g path_000061
l 1004 1005
g path_000062
l 1006 1007 1008 1009 1010 1011 1012 1013 1014 1015 1016 1017 1018 1019 1020 1021 1022 1023 1024 1025 1026
g path_000063
l 1027 1028 1029
g path_000064
l 1030 1031 1032 1033 1034 1035 1036 1037 1038 1039 1040 1041 1042 1043 1044 1045 1046 1047 1048 1049 1050 1051 1052 1053 1054 1055 1056 1057 1058 1059 1060 1061 1062 1063 1064 1065 1066 1067 1068 1069 1070 1071 1072 1073 1074 1075 1076 1077 1078
g path_000065
l 1079 1080 1081 1082 1083 1084 1085 1086 1087 1088 1089 1090 1091 1092 1093 1094 1095 1096 1097 1098 1099 1100 1101 1102 1103 1104 1105 1106 1107 1108 1109 1110 1111 1112 1113 1114 1115 1116 1117 1118 1119 1120 1121 1122 1123 1124 1125 1126 1127 1128 1129 1130 1131 1132 1133 1134 1135 1136 1137 1138 1139 1140 1141 1142 1143 1144 1145 1146 1147 1148 1149 1150 1151 1152 1153 1154 1155 1156 1157 1158 1159 1160 1161 1162 1163 1164 1165 1166 1167 1168 1169 1170 1171 1172 1173 1174 1175 1176 1177
g path_000066
l 1178 1179 1180 1181 1182 1183
g path_000067
l 1184 1185 1186 1187 1188 1189 1190 1191 1192 1193 1194 1195 1196 1197 1198 1199
g path_000068
l 1200 1201 1202 1203 1204 1205 1206 1207 1208 1209 1210
g path_000069
l 1220 1219 1294 1293 1292 1291 1290 1289 1288 1287 1286 1285 1284 1283 1282 1281 1280 1279 1278 1277 1276 1275 1274 1273 1272 1271 1270 1269 1268 1267 1266 1265 1264 1263 1262 1261 1260 1259 1258
g path_000070
l 1221 1222 1223 1224 1225 1226 1227 1228 1229 1230 1231
g path_000071
l 1232 1233 1234 1235 1236 1237 1238 1239 1240 1241 1242 1243 1244 1245 1246 1247 1248 1249 1250 1251 1252 1253 1254 1255 1256 1257
g path_000072
l 1296 1295 1396 1395 1394 1393 1392 1391 1390 1389 1388 1387 1386 1385 1384 1383 1382 1381 1380 1379 1378 1377 1376 1375 1374 1373 1372 1371 1370 1369 1368 1367 1366 1365 1364 1363 1362 1361 1360 1359 1358 1357 1356 1355 1354
g path_000073
l 1297 1298 1299 1300 1301 1302 1303 1304 1305 1306 1307 1308 1309 1310 1311
g path_000074
l 1312 1313 1314 1315 1316 1317 1318 1319 1320 1321 1322 1323 1324 1325 1326 1327 1328 1329 1330 1331 1332 1333 1334 1335 1336 1337 1338
g path_000075
l 1339 1340 1341 1342 1343 1344 1345 1346 1347 1348 1349
g path_000076
l 1350 1351 1352 1353
g path_000077
l 1397 1608 1607 1606 1605 1604 1603 1602 1601 1600 1599 1598 1597 1596 1595 1594 1593 1592 1591 1590 1589 1588 1587 1586 1585 1584 1583 1582 1581 1580 1579 1578 1577 1576 1575 1574 1573 1572 1571 1570 1569 1568 1567 1566 1565 1564 1563 1562 1561 1560 1559 1558 1557 1556
g path_000078
l 1398 1399 1400 1401 1402 1403 1404 1405 1406 1407 1408 1409 1410
g path_000079
l 1411 1412 1413 1414 1415 1416 1417 1418 1419 1420 1421 1422 1423 1424 1425 1426 1427 1428 1429 1430 1431 1432 1433 1434 1435 1436
g path_000080
l 1437 1438 1439 1440 1441 1442 1443 1444 1445 1446 1447 1448 1449 1450 1451 1452 1453 1454 1455 1456 1457 1458 1459 1460 1461 1462 1463 1464 1465 1466 1467 1468 1469 1470 1471 1472 1473 1474 1475 1476 1477 1478 1479 1480 1481 1482 1483 1484 1485 1486 1487 1488 1489 1490 1491 1492 1493 1494 1495 1496 1497
g path_000081
l 1498 1499 1500 1501 1502 1503 1504 1505 1506 1507 1508 1509 1510 1511 1512 1513 1514 1515 1516 1517 1518 1519 1520 1521 1522 1523 1524 1525 1526 1527 1528 1529 1530 1531 1532 1533 1534 1535 1536 1537 1538 1539 1540 1541 1542 1543 1544 1545 1546 1547 1548 1549 1550 1551 1552 1553 1554 1555
