# Fixed world centers; Z up; paths immutable
v -0.0382303186 0.64341408 1.04307222
v -0.0325970314 0.647780716 1.04018342
v -0.027886631 0.643538296 1.04070604
v -0.0248438325 0.647045493 1.04324937
v -0.01906473 0.652248085 1.04402387
v -0.0181217473 0.66070646 1.04363227
v -0.0164731201 0.653590381 1.03583837
v -0.0109983142 0.655985057 1.03779864
v -0.00943711866 0.646639884 1.03775477
v -0.00711065996 0.643997848 1.03920615
v -0.00228204043 0.640914261 1.03742766
v 0.00334518403 0.644682765 1.04031098
v 0.00761990808 0.636614561 1.03514302
v 0.0110199545 0.644087732 1.03729546
v 0.0163488127 0.645671487 1.03560317
v 0.0212399382 0.643189669 1.03113222
v 0.0244060382 0.648794174 1.03202963
v 0.0240693092 0.646093905 1.02397072
v 0.0287136044 0.641006172 1.01767993
v 0.0325126573 0.652802169 1.02285969
v 0.0374951065 0.650639892 1.02479994
v 0.0427696556 0.651562989 1.02575886
v 0.0479038805 0.651093364 1.02575886
v 0.0533929244 0.654439569 1.02528417
v 0.0559880845 0.654531002 1.02550888
v 0.0591729879 0.661059618 1.02397573
v 0.0630339906 0.646526337 1.01112425
v 0.0654565245 0.644592106 1.01307166
v 0.0706345364 0.644377291 1.01324928
v 0.0757413432 0.643331826 1.01285243
v 0.0814037025 0.648632824 1.01060534
v 0.0837270245 0.645284414 1.00844562
v 0.0891547799 0.647960722 1.00750434
v 0.0942410901 0.64593792 1.00015926
v 0.0969824791 0.647441685 0.998234928
v 0.0993863195 0.644021809 0.989713013
v 0.101976305 0.643784881 0.989713013
v 0.107312359 0.645017564 0.98775655
v 0.109503388 0.639606476 0.987281919
v 0.115055762 0.643915474 0.987481713
v 0.120392688 0.645148337 0.985524893
v 0.125514522 0.643744409 0.984870791
v 0.128296271 0.64576304 0.983299494
v 0.13340053 0.644001424 0.98239243
v 0.138771161 0.64575249 0.980799317
v 0.143868819 0.643740118 0.979714096
v 0.146865353 0.649735928 0.980952561
v 0.151780888 0.644274354 0.977428019
v 0.157285437 0.648709297 0.97773385
v 0.162233412 0.643382967 0.974300027
v 0.167676747 0.646708846 0.973821104
v 0.173060477 0.648878634 0.972526312
v 0.17561315 0.647705913 0.971862078
v 0.180993751 0.649875343 0.970568061
v 0.186142921 0.648465753 0.969903052
v 0.188892573 0.649937272 0.967944026
v 0.194235608 0.651171505 0.965985
v 0.199515074 0.653557897 0.968025684
v 0.204851642 0.654790699 0.966068983
v 0.207597986 0.656260431 0.964112341
v 0.212778464 0.655786574 0.964112341
v 0.218115032 0.657019377 0.9621557
v 0.220861375 0.658489048 0.960198998
v 0.226197943 0.659721851 0.958242357
v 0.231534511 0.660954654 0.956285655
v 0.23412475 0.660717726 0.956285655
v 0.239461333 0.661950529 0.954329014
v 0.2447979 0.663183272 0.952372313
v 0.247369602 0.650305331 0.940025508
v 0.252668917 0.644506514 0.932950914
v 0.255430937 0.644930124 0.930206597
v 0.260818362 0.646174669 0.928231299
v 0.266205817 0.647419155 0.926256001
v 0.271593273 0.6486637 0.924280643
v 0.274208188 0.648424566 0.924280643
v 0.279604137 0.643728971 0.917960465
v 0.285005063 0.644976616 0.91598016
v 0.287626565 0.644736826 0.91598016
v 0.29302749 0.64598453 0.913999915
v 0.298270464 0.645504951 0.913999915
v 0.301049948 0.646992385 0.91201961
v 0.306292892 0.646512866 0.91201961
v 0.311693847 0.64776051 0.910039365
v 0.317094803 0.649008155 0.90805912
v 0.322337776 0.648528636 0.90805912
v 0.32511723 0.650016069 0.906078815
v 0.330360204 0.64953649 0.906078815
v 0.33576116 0.650784135 0.90409857
v 0.338540614 0.652271569 0.902118266
v 0.343783587 0.651792049 0.902118266
v 0.349184543 0.653039694 0.900138021
v 0.355055213 0.64010936 0.887622297
v 0.357851326 0.641605735 0.88563019
v 0.363527209 0.636239231 0.878700793
v 0.369140893 0.633254409 0.873533845
v 0.371620208 0.637255967 0.876703143
v 0.377248317 0.634272993 0.871532619
v 0.382866114 0.637279332 0.867530107
v 0.386085182 0.62986052 0.858819962
v 0.389133811 0.626511931 0.853152275
v 0.394905269 0.622089446 0.846845806
v 0.397648513 0.625352561 0.846149087
v 0.403567314 0.623504817 0.838418126
v 0.406402916 0.625022292 0.836397886
v 0.412123829 0.622575283 0.831546605
v 0.414884627 0.625462592 0.830565751
v 0.417745262 0.631092191 0.828316867
v 0.424159348 0.6220873 0.815032482
v 0.427355319 0.61811316 0.808772445
v 0.47314766 -0.0605834238 0.291379988
v 0.472586304 -0.0628526956 0.298339874
v 0.473975241 -0.0422411971 0.322960109
v 0.473901123 -0.0520057119 0.324139506
v 0.471001923 -0.0655878857 0.317909926
v 0.470876932 -0.074725762 0.319631279
v 0.473967731 -0.0805316269 0.324121743
v 0.480873555 -0.0867803469 0.3242127
v 0.483427405 -0.0790732503 0.334531784
v 0.490210652 -0.0836053938 0.335905373
v 0.493518084 -0.087247394 0.337713242
v 0.500411868 -0.0880188122 0.337607443
v 0.507061779 -0.0855014622 0.339954525
v 0.514388382 -0.0920053124 0.335573852
v 0.520853221 -0.0823432878 0.338963449
v 0.527678132 -0.0872106105 0.340087086
v 0.531323612 -0.085259743 0.337489814
v 0.53824687 -0.0864432454 0.33707583
v 0.544912875 -0.0799728259 0.338092536
v 0.548683167 -0.0795018524 0.334392339
v 0.552483976 -0.0747476444 0.329609811
v 0.555571318 -0.0621386692 0.330756247
v 0.558996558 -0.0624519587 0.330756247
v 0.562269568 -0.0521835871 0.330175519
v 0.562014639 -0.0405369215 0.330438018
v 0.558707237 -0.0324038751 0.327823102
v 0.559601724 -0.0331273228 0.318685412
v 0.556674063 -0.0291189346 0.312914312
v 0.557463884 -0.0332104787 0.305454165
v 0.55787617 -0.0287030116 0.300286293
v 0.558190644 -0.0231403448 0.295936793
v 0.558850229 -0.0212969184 0.288698196
v 0.559729218 -0.0217916686 0.279617608
v 0.560142398 -0.0172743816 0.274438471
v 0.55629164 0.0327191688 0.305049956
v 0.556793809 0.0361564346 0.299148887
v 0.556263626 0.0147281364 0.273281574
v 0.561746538 -0.0031370034 0.25498262
v 0.563347518 -0.0111534605 0.239807352
v 0.563762665 -0.00661490113 0.234603822
v 0.560701311 -0.00141881546 0.229675353
v 0.551226676 0.107837312 0.308875769
v 0.551250517 0.116196051 0.307071626
v 0.551470578 0.122465894 0.303594977
v 0.551194847 0.133927777 0.3043603
v 0.551309049 0.141267136 0.301796228
v 0.547568917 0.154716894 0.304017872
v 0.550465286 0.167046636 0.305866063
v 0.550663352 0.169211909 0.303383559
v 0.551059425 0.173542455 0.298418522
v 0.547410548 0.186100259 0.300043613
v 0.547159135 0.197153315 0.300711811
v 0.550625503 0.199008375 0.298242092
v 0.590074778 -0.159481466 -0.0107501429
v 0.595699668 -0.169832692 -0.0288468748
v 0.601020932 -0.181432635 -0.0432016514
v 0.60705322 -0.194942474 -0.0641210526
v 0.607440472 -0.189387366 -0.0692507848
v 0.604506433 -0.151749879 -0.047034353
v 0.604530632 -0.142797992 -0.0491521768
v 0.607047081 -0.157807961 -0.0718143359
v 0.604810536 -0.127182052 -0.0552832484
v 0.605255723 -0.12231458 -0.0608638898
v 0.607216358 -0.13187626 -0.078965582
v 0.607663572 -0.126986399 -0.0845718831
v 0.609850764 -0.138567731 -0.104574502
v 0.61670059 -0.158919737 -0.132072657
v 0.6143502 -0.132418796 -0.11380402
v 0.618278623 -0.125520706 -0.117393479
v 0.623604476 -0.135873735 -0.131222561
v 0.623790205 -0.128536269 -0.134746492
v 0.624506831 -0.126008242 -0.142533481
v 0.620104909 -0.110630892 -0.139168873
v 0.618623972 -0.12189465 -0.159612864
v 0.617231309 -0.173835322 -0.211924121
v 0.617666602 -0.173239961 -0.216534153
v 0.614581943 -0.170443386 -0.224638626
v 0.615922749 -0.173680574 -0.237910926
v 0.618545234 -0.188882113 -0.262117684
v 0.619046867 -0.184144214 -0.268258154
v 0.619474888 -0.178718299 -0.27377066
v 0.619939685 -0.173636392 -0.279597133
v 0.609630764 -0.108030982 -0.224753886
v 0.62127322 -0.171899527 -0.293776572
v 0.615844369 -0.147515193 -0.282045573
v 0.616307259 -0.142454162 -0.287848115
v 0.625943542 -0.191364139 -0.338388562
v 0.624407649 -0.167854086 -0.32709679
v 0.625172436 -0.165452257 -0.335505933
v 0.625810325 -0.161879882 -0.342830032
v 0.626114964 -0.155274063 -0.347295254
v 0.620951653 -0.133814484 -0.337986022
v 0.622388363 -0.137578398 -0.352261603
v 0.622001052 -0.124702267 -0.350687027
v 0.623497248 -0.128950536 -0.365491331
v 0.61876446 -0.116068259 -0.358832031
v 0.61848855 -0.104205742 -0.358139366
v 0.615738869 -0.10467878 -0.369686186
v 0.616431773 -0.101672202 -0.377549469
v 0.616571665 -0.0935942531 -0.380481213
v 0.617019415 -0.0883423984 -0.386158288
v 0.619144022 -0.0983384624 -0.406811208
v 0.620653152 -0.102664277 -0.421980292
v 0.61367166 -0.069322221 -0.394877344
v 0.615647554 -0.0780353248 -0.414371729
v 0.61635524 -0.0751252398 -0.422402591
v 0.611917436 -0.0602155104 -0.418823898
v 0.662657678 -0.514990211 -0.885371864
v 0.602731109 -0.027013611 -0.408056796
v 0.65463531 -0.505925953 -0.895965457
v 0.650395334 -0.496530026 -0.899503827
v 0.637541413 -0.410753161 -0.819334328
v 0.642322481 -0.48694703 -0.909560204
v 0.578565955 0.0618610941 -0.362947673
v 0.579557598 0.0568534695 -0.373426676
v 0.570815444 0.0792238563 -0.361938775
v 0.572510898 0.0670356378 -0.37982589
v 0.56765902 0.0878996402 -0.369436175
v 0.564119399 0.0957341269 -0.372422785
v 0.560835481 0.100995988 -0.378064007
v 0.561060548 0.103456147 -0.380884618
v 0.55777663 0.108718008 -0.38652584
v 0.554267704 0.111519694 -0.38934648
v 0.550983787 0.116781555 -0.394987702
v 0.539387226 0.16711776 -0.34811148
v 0.535933077 0.169899732 -0.350858897
v 0.532702625 0.175075904 -0.356408268
v 0.529474497 0.180226311 -0.361985028
v 0.523923635 0.206819832 -0.339377344
v 0.520720303 0.211952567 -0.344880134
v 0.523011386 0.190604433 -0.373056382
v 0.519493103 0.199117675 -0.375019968
v 0.515900552 0.208580002 -0.375933647
v 0.510023832 0.240267351 -0.347431839
v 0.506725848 0.246694043 -0.351480126
v 0.503312528 0.254556537 -0.35395515
v 0.503757238 0.25418818 -0.359692246
v 0.500346899 0.262043178 -0.362159103
v 0.494551212 0.299684435 -0.331886321
v 0.494938105 0.299911171 -0.336932689
v 0.493550688 0.327163935 -0.317456901
v 0.481238425 0.447467536 -0.195031986
v 0.480482042 0.466519266 -0.183956072
v 0.481241494 0.466585666 -0.193956435
v 0.482106656 0.46537295 -0.205424279
v 0.481556147 0.481701255 -0.197218984
v 0.485446334 0.443256229 -0.250709474
v 0.485860169 0.447780728 -0.255896896
v 0.484811395 0.510881186 -0.194186017
v 0.494865566 0.440742731 -0.283893049
v 0.498886853 0.438542783 -0.291251987
v 0.498944342 0.447254479 -0.291721106
v 0.50260675 0.449214429 -0.294330478
v 0.503579497 0.447471529 -0.306799203
v 0.503965318 0.452389598 -0.311620265
v 0.504414201 0.456597447 -0.317262203
v 0.504831553 0.461160421 -0.322493732
v 0.505248904 0.465723366 -0.327725232
v 0.501994848 0.468321592 -0.330340981
v 0.502071321 0.47672224 -0.33106491
v 0.506154776 0.440141618 -0.384777129
v 0.506578267 0.444771558 -0.390085399
v 0.507001758 0.449401468 -0.39539367
v 0.506432772 0.465044975 -0.387581378
v 0.50710386 0.466897219 -0.39616394
v 0.510808408 0.473577648 -0.398593158
v 0.514679372 0.473842889 -0.403303117
v 0.515101373 0.478456706 -0.408592939
v 0.515550613 0.482781351 -0.414232731
v 0.516059935 0.486474335 -0.420642078
v 0.516350925 0.492471427 -0.424251288
v 0.516772866 0.497084945 -0.429540753
v 0.513355553 0.505604804 -0.430428028
v 0.51343596 0.513813496 -0.431272864
v 0.511243224 0.509359121 -0.44813773
v 0.511454403 0.511667907 -0.450784802
v 0.508244097 0.517991424 -0.454356521
v 0.509944618 0.508872628 -0.476782382
v 0.510048747 0.516941011 -0.477810621
v 0.510153651 0.524976492 -0.478849679
v 0.506266356 0.538539886 -0.473291546
v 0.502967536 0.541275084 -0.475797176
v 0.507553697 0.500536263 -0.538589954
v 0.50770992 0.503520727 -0.54047358
v 0.508393586 0.505462229 -0.549366295
v 0.504813135 0.510648608 -0.548854589
v 0.502412081 0.507532358 -0.564669609
v 0.49905622 0.510175169 -0.567420661
v 0.496499658 0.50851655 -0.58145386
v 0.496109694 0.481682748 -0.628124535
v 0.486924112 0.505326271 -0.598383904
v 0.484017968 0.502280533 -0.60855037
v 0.485068649 0.499596387 -0.623672605
v 0.478848368 0.497855514 -0.638498187
v 0.479066879 0.500244737 -0.641237497
v 0.479066879 0.500244737 -0.641237497
v 0.472485274 0.492266983 -0.652548432
v 0.473164797 0.488749981 -0.663052797
v 0.470620215 0.485244423 -0.679941535
v 0.467401594 0.490401715 -0.6854707
v 0.468428999 0.487499833 -0.701240361
v 0.464599222 0.495347261 -0.697248518
v 0.465421736 0.495091587 -0.7095595
v 0.465864182 0.499928921 -0.715105534
v 0.468552083 0.475057393 -0.760537207
v 0.469339401 0.47547704 -0.772177935
v 0.469787866 0.480380148 -0.777799368
v 0.470236331 0.485283226 -0.783420861
v 0.474405646 0.489845991 -0.789042294
v 0.477205604 0.46485731 -0.835511863
v 0.477659374 0.469818443 -0.841199875
v 0.481651157 0.471954644 -0.844043911
v 0.482104927 0.476915777 -0.849731922
v 0.486323595 0.481532544 -0.855419934
v 0.490542263 0.486149311 -0.861107945
v 0.494760931 0.490766108 -0.866795957
v 0.497539461 0.501644373 -0.85116607
v 0.505035877 0.500958681 -0.85116607
v 0.508784056 0.500615895 -0.85116607
v 0.516054571 0.497460634 -0.84833467
v 0.523550928 0.496775001 -0.84833467
v 0.531047344 0.496089339 -0.84833467
v 0.535021424 0.498216063 -0.85116607
v 0.542969525 0.50246954 -0.856828809
v 0.546943605 0.504596233 -0.859660208
v 0.551143587 0.509192526 -0.865322948
v 0.55159533 0.514131665 -0.870985746
v 0.552047074 0.519070745 -0.876648545
v 0.552498877 0.524009883 -0.882311285
v 0.549202442 0.529291809 -0.887974083
v 0.545680106 0.532104254 -0.890805423
v 0.537757635 0.541437209 -0.884810925
v 0.53424412 0.54424262 -0.887635291
v 0.528234839 0.539837122 -0.907676876
v 0.524746239 0.542263031 -0.911075413
v 0.517678678 0.548008919 -0.916586876
v 0.514150441 0.550826013 -0.919422984
v 0.509813786 0.562148869 -0.90991801
v 0.502556264 0.565298438 -0.912744343
v 0.495717078 0.563766599 -0.922391295
v 0.491968423 0.564109445 -0.922391295
v 0.48793605 0.529161811 -0.980860353
v 0.481026262 0.531896412 -0.990977466
v 0.477157146 0.532958806 -0.989931047
v 0.469439596 0.534900606 -0.988105595
v 0.462064445 0.532361865 -0.992851555
v 0.454128861 0.525919318 -0.990182579
v 0.450315237 0.526225388 -0.990245461
v 0.442478478 0.518031478 -0.99010855
v 0.438149661 0.514047265 -0.983311772
v 0.437899709 0.511834323 -0.979982972
v 0.431556612 0.540056288 -0.926667333
v 0.427725136 0.535180867 -0.927764475
v 0.423334777 0.533258438 -0.918169975
v 0.419492215 0.528409421 -0.919209123
v 0.415304869 0.52301091 -0.914605439
v 0.411133587 0.517262697 -0.91049248
v 0.410497546 0.515653789 -0.899999857
v 0.406565189 0.512205362 -0.899003565
v 0.402439117 0.505507648 -0.89622283
v 0.401763707 0.504936755 -0.884310365
v 0.397801101 0.502048969 -0.88251245
v 0.396972924 0.504856408 -0.865920007
v 0.392690927 0.501709819 -0.85819304
v 0.388499528 0.49664253 -0.853151441
v 0.387855202 0.496011704 -0.841480911
v 0.383814365 0.487538368 -0.84115696
v 0.383534133 0.486329406 -0.836570263
v 0.382923067 0.485138655 -0.825729907
v 0.378871679 0.476771951 -0.825218499
v 0.378250659 0.476014763 -0.813822925
v 0.377265304 0.484452605 -0.789970875
v 0.376632184 0.484168321 -0.778060853
v 0.372767597 0.471460253 -0.783421993
v 0.372410119 0.472502738 -0.775878966
v 0.371885151 0.46959272 -0.76754874
v 0.371154666 0.472224444 -0.751824796
v 0.373826832 0.482501417 -0.725532353
v 0.373381555 0.477633119 -0.719950736
v 0.372936279 0.47276482 -0.714369178
v 0.372509003 0.467418849 -0.709417343
v 0.372090489 0.461833596 -0.704775512
v 0.374250174 0.484835386 -0.662264884
v 0.373809606 0.480018407 -0.656742156
v 0.373545945 0.470567018 -0.657242596
v 0.373176098 0.463855445 -0.654152095
v 0.376148432 0.473125905 -0.635846496
v 0.375708789 0.468319267 -0.630335629
v 0.375448495 0.458884031 -0.63076514
v 0.377754301 0.47647807 -0.596162677
v 0.377567261 0.465417415 -0.59870249
v 0.380674988 0.470119864 -0.586515188
v 0.380541652 0.45790869 -0.590474367
v 0.382079542 0.492311537 -0.535094976
v 0.380855739 0.506644487 -0.505736291
v 0.379824281 0.516557336 -0.482088536
v 0.378919214 0.523573875 -0.462188452
v 0.378406703 0.521130919 -0.454165906
v 0.377983898 0.516508341 -0.44886604
v 0.37724486 0.519711196 -0.433894843
v 0.373326331 0.515422881 -0.428611487
v 0.373115569 0.513118804 -0.425969839
v 0.372073174 0.524672687 -0.400886208
v 0.367915362 0.527599871 -0.386861026
v 0.360568702 0.523668289 -0.381626785
v 0.357155293 0.522406995 -0.383547515
v 0.350002855 0.52109766 -0.38051486
v 0.3427701 0.522874057 -0.373739362
v 0.339322239 0.522650301 -0.374395072
v 0.332150042 0.522744477 -0.36966902
v 0.32524094 0.5228374 -0.37032342
v 0.318319738 0.523470461 -0.37032342
v 0.311398536 0.524103522 -0.37032342
v 0.304228455 0.526046157 -0.363363147
v 0.297317207 0.526678324 -0.363363147
v 0.290404975 0.527479053 -0.363158882
v 0.283493757 0.52826649 -0.36297068
v 0.276583284 0.529683769 -0.362019032
v 0.269877136 0.530186236 -0.367549181
v 0.266419709 0.530502439 -0.367549181
v 0.259504855 0.531134903 -0.367549181
v 0.252596349 0.532436013 -0.36673668
v 0.245703414 0.534703135 -0.364749551
v 0.238822818 0.537185669 -0.362499475
v 0.231958672 0.540011287 -0.359831005
v 0.225209594 0.540011942 -0.365972966
v 0.218318045 0.541231632 -0.365256101
v 0.211473852 0.544136763 -0.362483948
v 0.204592645 0.545324326 -0.361805052
v 0.201263189 0.544960439 -0.36801523
v 0.194363296 0.545715988 -0.367863595
v 0.187541083 0.548617005 -0.365089059
v 0.180671394 0.549962342 -0.364215463
v 0.17385523 0.549760759 -0.370622873
v 0.166975558 0.550941944 -0.369949162
v 0.16016075 0.55343622 -0.36766535
v 0.153307259 0.554944694 -0.366589189
v 0.146505252 0.557336807 -0.364428639
v 0.139638036 0.55837518 -0.363927841
v 0.132804573 0.558660746 -0.369743139
v 0.129356548 0.558976114 -0.369743139
v 0.122460499 0.55960685 -0.369743139
v 0.115564451 0.560237646 -0.369743139
v 0.108668409 0.560868382 -0.369743139
v 0.101862833 0.562774181 -0.368173838
v 0.0950210989 0.564092278 -0.367327213
v 0.0881381184 0.564821184 -0.367205709
v 0.0812461153 0.565429509 -0.36723271
v 0.0743557885 0.566059709 -0.36723271
v 0.0674654618 0.566689968 -0.36723271
v 0.0605706275 0.567268908 -0.367295891
v 0.0536778532 0.567873716 -0.367327213
v 0.0467715859 0.56833601 -0.367534429
v 0.0398584567 0.568736911 -0.367817372
v 0.0328425802 0.56811589 -0.36936155
v 0.0259474013 0.568746507 -0.36936155
v 0.0190522242 0.569377184 -0.36936155
v 0.0120404186 0.568925858 -0.370697767
v 0.00512478035 0.569399357 -0.370892227
v -0.0017787941 0.569987118 -0.370945662
v -0.00867758226 0.570618093 -0.370945662
v -0.015576371 0.571249127 -0.370945662
v -0.0223552417 0.572294533 -0.365023315
v -0.0294233952 0.571507514 -0.366773158
v -0.0363466218 0.571918786 -0.367044091
v -0.0433793962 0.571500421 -0.368339986
v -0.0502781831 0.572131395 -0.368339986
v -0.0572280958 0.571640611 -0.364314467
v -0.0642836317 0.571120739 -0.365734309
v -0.071583353 0.568926394 -0.369221658
v -0.0785857737 0.568897188 -0.370037645
v -0.0857347846 0.567900538 -0.372048795
v -0.0889155194 0.569188952 -0.36543116
v -0.0960654691 0.568201005 -0.367428243
v -0.103216462 0.567266226 -0.369360834
v -0.110194504 0.567485929 -0.369869918
v -0.116918311 0.56832695 -0.364195287
v -0.123920664 0.568375647 -0.364913791
v -0.131287098 0.566252291 -0.368309915
v -0.138206646 0.566867471 -0.368331403
v -0.14138779 0.567756534 -0.362209469
v -0.148567751 0.566821456 -0.364138722
v -0.155706674 0.566170514 -0.365718991
v -0.162433535 0.566751361 -0.36036849
v -0.169748366 0.565157175 -0.363106579
v -0.178005978 0.558523417 -0.372045994
v -0.184011996 0.562959135 -0.361949444
v -0.19208926 0.557507157 -0.369425833
v -0.199123576 0.557638109 -0.370044619
v -0.202402472 0.557724595 -0.364902675
v -0.209641099 0.556808054 -0.366805673
v -0.216679007 0.556938946 -0.367423952
v -0.22372438 0.555791795 -0.364185542
v -0.230644301 0.555241048 -0.360219091
v -0.234195262 0.555152774 -0.36071527
v -0.241382062 0.554588616 -0.362182558
v -0.248422369 0.553441882 -0.358945221
v -0.25712648 0.54587996 -0.368967056
v -0.259483546 0.55005002 -0.358837575
v -0.268271208 0.542290866 -0.369086772
v -0.274605602 0.544417262 -0.361842215
v -0.282414138 0.541270256 -0.366455525
v -0.289076477 0.541866004 -0.361080468
v -0.295864344 0.541864574 -0.356439859
v -0.299616545 0.54100132 -0.357876152
v -0.307216793 0.538910449 -0.361193001
v -0.314393222 0.537252665 -0.358561754
v -0.323303819 0.529815257 -0.368368983
v -0.329420537 0.532600045 -0.360335022
v -0.333690226 0.529728949 -0.364204288
v -0.341058224 0.528824925 -0.366076171
v -0.347872049 0.528705537 -0.361565799
v -0.355417281 0.527136087 -0.364241511
v -0.363156825 0.524857819 -0.367777675
v -0.370615721 0.523727298 -0.369924277
v -0.378042936 0.522756636 -0.371878177
v -0.385052443 0.523397744 -0.371878177
v -0.392763346 0.521419406 -0.375055999
v -0.39964202 0.522571921 -0.374436289
v -0.406797111 0.522703052 -0.375055999
v -0.413853019 0.523203731 -0.375227332
v -0.421435595 0.523377717 -0.381259382
v -0.425162673 0.524496973 -0.385761142
v -0.43129763 0.518689215 -0.404236913
v -0.434614778 0.521337807 -0.406903386
v -0.43658635 0.517574549 -0.422588944
v -0.438011914 0.515746891 -0.43595928
v -0.437583923 0.520426154 -0.441324115
v -0.44186309 0.508643866 -0.467161834
v -0.454237133 0.455525666 -0.544324338
v -0.450611621 0.45834735 -0.551929951
v -0.446511865 0.462834001 -0.557457626
v -0.446291357 0.465244651 -0.560221493
v -0.446297258 0.455157399 -0.584161282
v -0.445672423 0.447202295 -0.605526268
v -0.443056405 0.458161891 -0.597494364
v -0.442166954 0.451095283 -0.617827952
v -0.440860629 0.459045261 -0.619492173
v -0.439071566 0.453496188 -0.632082939
v -0.436494529 0.466015756 -0.627871692
v -0.437561542 0.465474814 -0.6404441
v -0.437502831 0.455310374 -0.665089488
v -0.437053621 0.46022135 -0.670720041
v -0.433747649 0.461656392 -0.680439353
v -0.436248064 0.455956876 -0.699972987
v -0.432723522 0.471938431 -0.691125631
v -0.432273865 0.476854593 -0.696762085
v -0.432183295 0.465032309 -0.71798867
v -0.434335738 0.460594267 -0.736089945
v -0.435408413 0.460064709 -0.749082148
v -0.436619699 0.45905152 -0.762772918
v -0.436163872 0.464035124 -0.768486738
v -0.435708046 0.469018728 -0.774200499
v -0.435252219 0.474002361 -0.77991432
v -0.436718553 0.472116828 -0.794932365
v -0.439180136 0.480561525 -0.796445847
v -0.442178458 0.473305792 -0.818879187
v -0.444312841 0.469141185 -0.837200582
v -0.445296258 0.481176585 -0.827504039
v -0.447441906 0.47704041 -0.845856607
v -0.449361771 0.487446755 -0.844682693
v -0.451540917 0.483273178 -0.86320138
v -0.452592671 0.496672511 -0.85782975
v -0.455946833 0.502046943 -0.863591671
v -0.456829101 0.500738025 -0.871824622
v -0.461404711 0.501968384 -0.883432031
v -0.463777751 0.508986592 -0.880480647
v -0.464954495 0.508472621 -0.894092739
v -0.468771935 0.512349904 -0.902028978
v -0.471918553 0.516739428 -0.902767897
v -0.475740224 0.520621777 -0.910709441
v -0.47910893 0.526019514 -0.916496396
v -0.482708484 0.52889359 -0.919389844
v -0.486077189 0.534291387 -0.925176799
v -0.489967048 0.536224425 -0.929428697
v -0.500907063 0.517246068 -0.970544159
v -0.50318718 0.513513088 -0.98923552
v -0.509531438 0.52237314 -0.990674198
v -0.51330024 0.523074806 -0.990167499
v -0.520027876 0.528825104 -0.989459157
v -0.523668528 0.531731963 -0.992385626
v -0.53121537 0.533060789 -0.991476059
v -0.539270401 0.532827556 -0.992857695
v -0.546281695 0.533919513 -0.985629916
v -0.538826525 0.578295648 -0.915106833
v -0.5443483 0.571680903 -0.91874963
v -0.554424882 0.563253701 -0.925521135
v -0.557471693 0.564029992 -0.918358326
v -0.56408149 0.565841794 -0.910211086
v -0.56843245 0.562761962 -0.908672571
v -0.578540742 0.552564323 -0.911420286
v -0.582586348 0.550399363 -0.908537924
v -0.587301731 0.544459462 -0.904586792
v -0.586173356 0.54398936 -0.892283261
v -0.595158517 0.525820553 -0.905800104
v -0.595389366 0.523296237 -0.902905941
v -0.599575877 0.518902421 -0.896685183
v -0.595738292 0.514849722 -0.888993025
v -0.592326581 0.50958252 -0.883027554
v -0.588728726 0.506709754 -0.880135417
v -0.584945738 0.504377663 -0.876484096
v -0.578514636 0.496380389 -0.87385267
v -0.575531363 0.493515044 -0.87737
v -0.567861259 0.492813498 -0.87737
v -0.554383576 0.511479735 -0.856683254
v -0.547112703 0.507911444 -0.854310811
v -0.54230535 0.49674207 -0.862536073
v -0.543620408 0.490877599 -0.864306748
v -0.53798008 0.492544681 -0.848734081
v -0.534119725 0.490535855 -0.844668031
v -0.534579575 0.485508472 -0.838904083
v -0.529465318 0.485664725 -0.825539351
v -0.523563981 0.488381773 -0.808726966
v -0.522789657 0.487285435 -0.797669828
v -0.523184896 0.482487589 -0.791680694
v -0.522369444 0.481538624 -0.780482709
v -0.520775735 0.483077914 -0.765967906
v -0.519530058 0.48352623 -0.752983093
v -0.522672355 0.482328087 -0.742716491
v -0.520861804 0.486325979 -0.731219471
v -0.524465024 0.483624697 -0.723025739
v -0.522115886 0.487570643 -0.705570817
v -0.526157677 0.485191345 -0.703095138
v -0.530010104 0.481658012 -0.69607091
v -0.518129766 0.527481556 -0.624100327
v -0.52154237 0.526865005 -0.619418502
v -0.522323787 0.532709599 -0.60036999
v -0.525493085 0.532790184 -0.594812632
v -0.527744472 0.545479655 -0.567405403
v -0.542555869 0.509769499 -0.608450234
v -0.535158873 0.540425122 -0.557364225
v -0.544087946 0.522853255 -0.574718952
v -0.552110493 0.508149862 -0.588301361
v -0.558757365 0.509055555 -0.582131505
v -0.560538769 0.511498332 -0.567727745
v -0.56457448 0.508904278 -0.565657675
v -0.56587255 0.512719333 -0.54957366
v -0.566524923 0.507297397 -0.544909418
v -0.556560516 0.533570409 -0.500007033
v -0.556019902 0.544447899 -0.480938166
v -0.562923074 0.544057369 -0.476591796
v -0.567041516 0.541035712 -0.475162506
v -0.567056954 0.537557304 -0.468241572
v -0.574379027 0.523416519 -0.475113332
v -0.568734825 0.525748968 -0.460495114
v -0.568949819 0.523398876 -0.457800776
v -0.569217145 0.519179642 -0.451814473
v -0.574975669 0.509608507 -0.452864468
v -0.570964813 0.51801616 -0.431279838
v -0.576865733 0.508010626 -0.432852447
v -0.577661574 0.502235353 -0.428793371
v -0.578230023 0.497128457 -0.42390874
v -0.579247236 0.490693748 -0.42063576
v -0.580364823 0.483957201 -0.417713374
v -0.580795109 0.479252487 -0.412319362
v -0.577055693 0.477718413 -0.408242404
v -0.57359767 0.484615445 -0.388919324
v -0.566064417 0.481865227 -0.380464613
v -0.566617787 0.478503406 -0.379006267
v -0.555456817 0.497876823 -0.344639719
v -0.561336458 0.487701118 -0.34627977
v -0.560312808 0.487441659 -0.335774899
v -0.560172677 0.484515756 -0.32844609
v -0.565563142 0.477499336 -0.331691116
v -0.562162519 0.475129038 -0.328709602
v -0.557112873 0.476122588 -0.316426218
v -0.56343025 0.466247588 -0.322965145
v -0.562998414 0.464211404 -0.314606577
v -0.563422859 0.459570855 -0.309286118
v -0.564353764 0.453383923 -0.305750221
v -0.562057018 0.445954978 -0.303258657
v -0.554772258 0.453900218 -0.28313598
v -0.552799642 0.458336592 -0.272768795
v -0.543604314 0.472411573 -0.245829105
v -0.538832903 0.483981609 -0.222251788
v -0.531635284 0.503151417 -0.190211713
v -0.530294478 0.504112899 -0.178882733
v -0.543486536 0.483424246 -0.197754189
v -0.543577313 0.479896069 -0.191435039
v -0.538419545 0.483319521 -0.182122543
v -0.535043001 0.490616471 -0.163769305
v -0.532768428 0.494503498 -0.149298832
v -0.528892398 0.503417075 -0.129331782
v -0.52752924 0.504500628 -0.118106969
v -0.52793622 0.500051558 -0.113005988
v -0.526629627 0.50097841 -0.102018684
v -0.524701536 0.503871381 -0.0889287516
v -0.52510643 0.499444634 -0.0838534236
v -0.525139987 0.49618721 -0.0775115341
v -0.525030375 0.493384391 -0.0706881806
v -0.524879873 0.49071455 -0.0637344196
v -0.517230093 0.500912011 -0.0426805355
v -0.517631888 0.496519268 -0.037644159
v -0.518033683 0.492126495 -0.0326077826
v -0.518435478 0.487733722 -0.0275714062
v -0.511284471 0.498099953 -0.0114424191
v -0.511509478 0.494289666 -0.00584119558
v -0.510870278 0.493255019 0.00267060194
v -0.512024462 0.508195162 0.0272433534
v -0.518598616 0.508796453 0.0272433534
v -0.521904767 0.507494986 0.0303154197
v -0.524689972 0.506280959 0.038213063
v -0.524769843 0.502947509 0.0442021787
v -0.523476899 0.493290573 0.0439566188
v -0.518910944 0.506185293 0.061982587
v -0.523244858 0.510626495 0.0753026232
v -0.523259699 0.518008649 0.091884546
v -0.526311815 0.517373323 0.0955669805
v -0.529455662 0.516444266 0.0989452079
v -0.527578294 0.519230127 0.111021325
v -0.527589202 0.526465058 0.127258852
v -0.53149718 0.523102224 0.128131881
v -0.531063318 0.521404326 0.135560587
v -0.525433779 0.53581214 0.159159213
v -0.528280079 0.534153581 0.166239545
v -0.52866441 0.52995187 0.171056837
v -0.526088595 0.534918427 0.184990868
v -0.524959207 0.535421789 0.194436848
v -0.520592988 0.545985937 0.213781133
v -0.519631922 0.5460006 0.222643346
v -0.519605994 0.543115199 0.228633523
v -0.520390511 0.537707388 0.232151642
v -0.527836978 0.51151365 0.215454727
v -0.528771222 0.505607486 0.218580917
v -0.520590842 0.528199136 0.249245778
v -0.51031065 0.557428241 0.286110818
v -0.528173029 0.508710206 0.247720882
v -0.536506236 0.501543701 0.244682997
v -0.535458863 0.503297269 0.250742406
v -0.534838676 0.502240658 0.258475274
v -0.535192072 0.498165816 0.2633228
v -0.510767758 0.561349034 0.332019806
v -0.508726418 0.564844251 0.343763709
v -0.51400882 0.556760848 0.340109944
v -0.503781676 0.585785329 0.375727773
v -0.508781493 0.577073514 0.375638068
v -0.550468743 0.454543322 0.269706547
v -0.557256699 0.440669954 0.265271962
v -0.557449222 0.438565135 0.267685205
v -0.564054608 0.425305098 0.263898164
v -0.564441025 0.421080202 0.268742055
v -0.518269241 0.560951829 0.405470133
v -0.513539195 0.572748303 0.424442589
v -0.51709193 0.568499625 0.428481579
v -0.514535785 0.574980378 0.438432187
v -0.506581545 0.596768618 0.466226131
v -0.509907305 0.593129039 0.470710278
v -0.509753823 0.590797961 0.476612002
v -0.513411999 0.587533832 0.477436483
v -0.51294452 0.586167574 0.484191567
v -0.51585269 0.583805442 0.489803612
v -0.504626632 0.615566492 0.525879323
v -0.507898688 0.611985683 0.530290961
v -0.506167769 0.614541113 0.540334821
v -0.511201382 0.606926143 0.537299395
v -0.509606659 0.609050989 0.546934724
v -0.514322579 0.601035058 0.547460258
v -0.511904299 0.60567534 0.559237659
v -0.517242432 0.597139001 0.555463135
v -0.515303731 0.600297332 0.565915525
v -0.517616212 0.599614084 0.572788537
v -0.50895524 0.623291731 0.600762427
v -0.512172222 0.619771183 0.605099857
v -0.512284398 0.616700709 0.610044003
v -0.510961354 0.618011057 0.618699551
v -0.515469193 0.611911178 0.617074013
v -0.512081206 0.619499624 0.631000519
v -0.511989355 0.617065787 0.636432409
v -0.515187621 0.613565743 0.640744627
v -0.507264256 0.634970188 0.666054726
v -0.507228792 0.632393837 0.671274185
v -0.510599315 0.629645705 0.67245549
v -0.510470331 0.627351582 0.677903056
v -0.507825732 0.632719696 0.689653397
v -0.506748915 0.633329332 0.697443187
v -0.509894252 0.629887223 0.701683939
v -0.509914756 0.627155602 0.706712723
v -0.508367181 0.629204154 0.715615451
v -0.503392398 0.641720235 0.732947767
v -0.503522456 0.638682783 0.737652481
v -0.503755867 0.635330796 0.742100894
v -0.499690086 0.636395991 0.750282466
v -0.497843295 0.639448762 0.759815097
v -0.501802146 0.624643028 0.755135417
v -0.50741601 0.60471189 0.746469438
v -0.501389384 0.611814559 0.759394348
v -0.50170511 0.609521508 0.761137366
v -0.501892745 0.606310725 0.765704572
v -0.5008111 0.607042372 0.773345351
v -0.496855289 0.607841194 0.781209767
v -0.492590994 0.610953033 0.787333786
v -0.492924601 0.607305527 0.791515768
v -0.487752974 0.612031758 0.802339196
v -0.484611988 0.611700058 0.80575788
v -0.480226249 0.614055276 0.814697087
v -0.474423885 0.611968696 0.820404589
v -0.469806075 0.616468966 0.827471256
v -0.46622923 0.617657781 0.832003772
v -0.461087823 0.61355269 0.836136639
v -0.453862906 0.617563307 0.842967808
v -0.449987918 0.619848847 0.848292232
v -0.447428584 0.617805362 0.850349545
v -0.439523667 0.624288917 0.858990133
v -0.43350032 0.624569118 0.862959623
v -0.430453748 0.625459552 0.863811672
v -0.424987972 0.623897731 0.866395235
v -0.418425858 0.626126051 0.871801555
v -0.412752867 0.625341535 0.874952912
v -0.410051107 0.625094414 0.874952912
v -0.404810429 0.622820139 0.876993775
v -0.397535205 0.627769351 0.884384513
v -0.394707203 0.628001988 0.88473922
v -0.388567507 0.630218148 0.886744738
v -0.38275528 0.630108893 0.890369117
v -0.377340525 0.629761875 0.890475929
v -0.372028381 0.627865791 0.892775953
v -0.366439164 0.62817502 0.893366158
v -0.363957882 0.625998855 0.895277023
v -0.35787192 0.628198087 0.897255599
v -0.352505356 0.627707183 0.897255599
v -0.34730047 0.625448406 0.899282575
v -0.34138158 0.627097428 0.900852203
v -0.33402282 0.634413362 0.90657711
v -0.331511706 0.632408381 0.908595622
v -0.32472682 0.636511087 0.91525358
v -0.322222382 0.634511411 0.917266726
v -0.316539437 0.634334385 0.920782983
v -0.310080439 0.637351274 0.926611245
v -0.304691672 0.636079669 0.929317176
v -0.301941991 0.636223793 0.929597557
v -0.296339422 0.63586992 0.932963133
v -0.292428434 0.639812529 0.939247251
v -0.286339551 0.641622126 0.944152713
v -0.280731827 0.642518878 0.945145905
v -0.275332153 0.641492724 0.948000073
v -0.270096511 0.639776468 0.950356126
v -0.267148286 0.640890002 0.951326966
v -0.262032688 0.638669968 0.953319132
v -0.25534454 0.644504547 0.957835197
v -0.253757238 0.638556838 0.956986666
v -0.247612238 0.642049849 0.959822118
v -0.2425102 0.639835656 0.96180898
v -0.236729369 0.640769958 0.966032326
v -0.230413675 0.645267546 0.969567776
v -0.225314289 0.643130898 0.971597433
v -0.222430825 0.644140601 0.97248286
v -0.217111781 0.644043505 0.972753644
v -0.211518869 0.644331872 0.976495147
v -0.205836445 0.646064579 0.978058219
v -0.20337975 0.644102991 0.98003304
v -0.198108271 0.643840194 0.980184972
v -0.192463711 0.645472348 0.981673062
v -0.187044144 0.645086527 0.984921455
v -0.181332543 0.647161543 0.986717165
v -0.176286191 0.644912958 0.988648415
v -0.174579263 0.639033258 0.987868607
v -0.168370515 0.644704342 0.989004016
v -0.162667409 0.64687866 0.990864336
v -0.158764854 0.652848184 0.998379409
v -0.157084793 0.645893455 0.999998927
v -0.153350979 0.651068389 1.00692165
v -0.148444861 0.648223042 1.00841701
v -0.143203974 0.647254348 1.01121509
v -0.138565198 0.642866731 1.0116446
v -0.135931402 0.64286828 1.01180971
v -0.130257711 0.645252943 1.01378679
v -0.122906901 0.657638729 1.02267814
v -0.118000045 0.654943109 1.02425897
v -0.115713835 0.652199984 1.02564645
v -0.110442311 0.652454555 1.02614617
v -0.105672054 0.649617791 1.02451801
v -0.100894943 0.646758497 1.02287483
v -0.0950340331 0.651455104 1.02331614
v -0.0910617337 0.643336117 1.01804531
v -0.0883571208 0.643189013 1.02123141
v -0.0871363357 0.649778724 1.03198254
v -0.0842447355 0.651639223 1.03341854
v -0.0806467682 0.640884697 1.02637362
v -0.0794129223 0.648448825 1.03465819
v -0.073420845 0.653081536 1.04123819
v -0.0711442679 0.650250375 1.04255736
v -0.0663781986 0.647259831 1.04084098
v -0.0625992417 0.636644065 1.03703761
v -0.0564789027 0.643664122 1.03903341
v -0.0535810664 0.646362364 1.03793669
v -0.0506063066 0.6502074 1.03453004
v -0.0460726023 0.664335132 1.04435682
v -0.04198239 0.655241847 1.04462802
v -0.0424704812 0.651074111 1.04487288
v -0.0405064635 0.645831585 1.04455376
g path_000000
l 26 25 24 23 22 21 20 19 18 17 16 15 14 13 12 11 10 9 8 7 6 5 4 3 2 1 899 898 897 896
g path_000001
l 27 28 29 30 31 32 33 34 35 36 37 38 39 40 41 42 43 44 45 46 47 48 49 50 51 52 53 54 55 56 57 58 59 60 61 62 63 64 65 66 67 68
g path_000002
l 69 70 71 72 73 74 75 76 77 78 79 80 81 82 83 84 85 86 87 88 89 90 91
g path_000003
l 92 93 94 95 96 97 98 99 100 101 102 103 104 105 106 107
g path_000004
l 108 109
g path_000005
l 110 111
g path_000006
l 112 113 114 115 116 117 118 119 120 121 122 123 124 125 126 127 128 129 130 131 132 133 134 135 136 137 138 139 140 141 142 143
g path_000007
l 144 145
g path_000008
l 147 148 149 150
g path_000009
l 151 152 153 154 155 156 157 158 159 160 161 162
g path_000010
l 163 164 165
g path_000011
l 166 167
g path_000012
l 168 169
g path_000013
l 171 172 173 174
g path_000014
l 177 178 179 180 181 182
g path_000015
l 184 185 186 187
g path_000016
l 188 189 190 191
g path_000017
l 194 195
g path_000018
l 197 198 199 200
g path_000019
l 201 202 203 204 205 206 207 208 209 210 211 212
g path_000020
l 213 214 215 216
g path_000021
l 219 220
g path_000022
l 223 224
g path_000023
l 225 226
g path_000024
l 227 228 229 230 231 232 233
g path_000025
l 234 235 236 237
g path_000026
l 238 239
g path_000027
l 240 241 242
g path_000028
l 243 244 245 246 247
g path_000029
l 248 249
g path_000030
l 252 253 254 255
g path_000031
l 256 257
g path_000032
l 259 260 261 262 263 264 265 266 267 268 269
g path_000033
l 270 271 272 273 274 275 276 277 278 279 280 281 282 283 284 285 286
g path_000034
l 287 288 289 290 291
g path_000035
l 292 293 294 295 296 297 298
g path_000036
l 300 301 302 303 304
g path_000037
l 305 306 307 308 309 310 311 312 313
g path_000038
l 314 315 316 317 318
g path_000039
l 319 320 321 322 323 324 325 326 327 328 329 330 331 332 333 334 335 336 337 338 339 340 341 342 343 344 345 346 347 348 349 350
g path_000040
l 351 352 353 354 355 356 357 358 359 360
g path_000041
l 361 362 363 364 365 366 367 368 369 370 371 372 373 374 375 376 377 378 379 380
g path_000042
l 381 382 383 384 385 386
g path_000043
l 387 388 389 390 391
g path_000044
l 392 393 394 395 396 397 398
g path_000045
l 399 400 401 402
g path_000046
l 405 406 407 408 409 410 411
g path_000047
l 412 413 414 415 416 417 418 419 420 421 422 423 424 425 426 427 428 429 430 431 432 433 434 435 436 437 438 439 440 441 442 443 444 445 446 447 448 449 450 451 452 453 454 455 456 457 458 459 460 461 462 463 464 465 466 467 468 469 470 471 472 473 474 475 476 477 478 479 480 481 482 483 484 485 486 487 488 489 490 491 492 493 494 495 496 497 498 499 500 501 502 503 504 505 506 507 508 509 510 511 512 513 514 515 516 517 518 519 520 521 522 523 524 525 526 527 528 529 530 531 532 533 534 535 536 537
g path_000048
l 539 540 541 542
g path_000049
l 544 545 546 547 548 549 550
g path_000050
l 551 552 553 554 555 556
g path_000051
l 557 558 559 560 561 562 563 564 565
g path_000052
l 566 567 568 569 570 571 572 573 574 575 576 577 578 579 580 581 582 583 584
g path_000053
l 585 586 587 588 589 590 591 592 593
g path_000054
l 594 595 596 597 598 599 600 601 602 603
g path_000055
l 604 605 606 607 608 609 610 611 612 613
g path_000056
l 614 615 616 617 618 619 620 621 622 623 624 625 626 627 628 629 630 631 632 633
g path_000057
l 634 635 636 637
g path_000058
l 641 642 643 644 645 646 647
g path_000059
l 649 650 651 652 653 654 655 656 657
g path_000060
l 658 659 660 661 662 663 664 665 666 667 668
g path_000061
l 669 670 671 672 673 674 675 676 677 678 679 680
g path_000062
l 681 682
g path_000063
l 685 686
g path_000064
l 687 688 689 690 691
g path_000065
l 692 693 694 695 696 697 698 699 700
g path_000066
l 701 702 703 704
g path_000067
l 705 706 707
g path_000068
l 708 709 710 711 712 713
g path_000069
l 714 715 716 717 718 719 720 721 722
g path_000070
l 723 724 725 726 727
g path_000071
l 728 729 730 731
g path_000072
l 732 733
g path_000073
l 736 737 738 739 740
g path_000074
l 741 742 743
g path_000075
l 744 745
g path_000076
l 746 747 748 749 750
g path_000077
l 752 753 754
g path_000078
l 755 756 757 758 759 760
g path_000079
l 761 762 763 764 765 766 767 768 769 770
g path_000080
l 771 772 773 774 775 776 777 778
g path_000081
l 779 780 781 782 783 784 785 786 787
g path_000082
l 788 789 790 791 792 793
g path_000083
l 794 795 796 797 798 799 800 801 802 803 804 805 806 807 808 809 810 811 812 813 814 815 816 817 818 819 820 821 822 823 824 825 826 827 828 829 830 831 832 833 834 835 836 837 838 839 840 841 842 843 844 845 846 847 848 849 850 851 852 853 854 855 856 857 858 859 860 861 862 863 864 865 866 867 868 869 870 871 872 873 874 875
g path_000084
l 876 877 878 879 880 881 882 883 884 885 886 887 888 889 890 891 892 893 894 895
