# Fixed world centers; Z up; paths immutable
v -0.064671509 0.658971012 1.04495394
v -0.0678402185 0.652220368 1.04183531
v -0.0762546659 0.650770783 1.04075515
v -0.0874093026 0.652443945 1.03534281
v -0.108443379 0.664206922 1.03065264
v -0.111235626 0.656965435 1.02762043
v -0.114539787 0.655220985 1.02734435
v -0.115065858 0.65081358 1.02429032
v -0.135295987 0.661744475 1.01622403
v -0.138518333 0.654660404 1.01665366
v -0.142141849 0.648234427 1.01337051
v -0.144512683 0.645713508 1.00976729
v -0.14644897 0.642740071 1.00628805
v -0.156970501 0.643393397 1.00098944
v -0.157841846 0.64473772 0.993501723
v -0.162682325 0.644720316 0.989149511
v -0.174602211 0.646279931 0.990663946
v -0.174954399 0.641644597 0.987627149
v -0.188612148 0.645133257 0.985005379
v -0.196442798 0.642860472 0.980456829
v -0.207631886 0.643745542 0.978565753
v -0.215269133 0.64120996 0.974064827
v -0.219508141 0.635236919 0.970563471
v -0.225454122 0.635983348 0.969512582
v -0.238017395 0.638298035 0.963539302
v -0.244862169 0.634863615 0.959252179
v -0.251000673 0.635742426 0.958143413
v -0.260754377 0.635144055 0.952982962
v -0.267632693 0.631668389 0.948671579
v -0.27455315 0.633261383 0.947328031
v -0.276792228 0.625360787 0.940686941
v -0.28828612 0.626340508 0.934971809
v -0.301231802 0.633751571 0.931807637
v -0.303484619 0.625802457 0.925125837
v -0.312052697 0.628893673 0.923270285
v -0.31893605 0.62540257 0.915166318
v -0.320804924 0.622126937 0.911587954
v -0.33724007 0.627638578 0.9042961
v -0.361298978 0.640229881 0.898441017
v -0.351863086 0.626074672 0.898297071
v -0.366300792 0.629364789 0.89538312
v -0.369911671 0.62243396 0.891995609
v -0.378848195 0.620418847 0.890769958
v -0.37984553 0.616245449 0.887423098
v -0.392549694 0.617867053 0.881230235
v -0.405309707 0.619480729 0.875006914
v -0.409571648 0.613085687 0.871401727
v -0.420509607 0.618053913 0.868786812
v -0.425967455 0.612844706 0.860962987
v -0.431506515 0.612738013 0.860016286
v -0.443114311 0.613184571 0.850249887
v -0.449182481 0.613629341 0.845270216
v -0.456481874 0.610018194 0.836810589
v -0.461634815 0.609581947 0.832097113
v -0.474440575 0.610959768 0.821850061
v -0.478450567 0.609435916 0.81747663
v -0.479115427 0.604933977 0.810266495
v -0.48082909 0.606581211 0.805805027
v -0.489169806 0.603775978 0.796910584
v -0.487158984 0.60202688 0.793643892
v -0.493893653 0.603015721 0.784413815
v -0.494996518 0.598879457 0.777016044
v -0.500904858 0.599012613 0.771959722
v -0.500064373 0.598398626 0.764343441
v -0.503556848 0.59640336 0.756117523
v -0.506691813 0.59407407 0.747996509
v -0.505320549 0.592907071 0.744495273
v -0.510698259 0.592585266 0.735588908
v -0.510572791 0.592606366 0.727671504
v -0.508007467 0.590432107 0.720587373
v -0.511122704 0.588056207 0.712412715
v -0.509499669 0.586728275 0.704988003
v -0.514261007 0.585753202 0.700212479
v -0.511786222 0.583659887 0.693074524
v -0.516684532 0.582856476 0.684218228
v -0.514143109 0.580703259 0.677089632
v -0.512398958 0.579263806 0.669671237
v -0.517729998 0.57877022 0.66464144
v -0.514902711 0.576361418 0.657602608
v -0.512198865 0.574062943 0.650518656
v -0.519296706 0.575189114 0.640758574
v -0.515553653 0.571963727 0.634043276
v -0.513906062 0.570607662 0.626546681
v -0.51748395 0.568576097 0.618046045
v -0.515185177 0.566583753 0.614848197
v -0.511744916 0.563629627 0.60801816
v -0.509223163 0.561493456 0.600839078
v -0.514887333 0.561306834 0.59149605
v -0.513171673 0.559887111 0.583987355
v -0.510391772 0.557521284 0.576889277
v -0.518896341 0.559835136 0.566371799
v -0.51610899 0.557462931 0.559254706
v -0.514927208 0.556515753 0.551498234
v -0.512370288 0.554348111 0.544284701
v -0.515707135 0.552004874 0.539865971
v -0.512916386 0.549629807 0.532740116
v -0.510431707 0.547525883 0.525489748
v -0.508539498 0.545946896 0.517995358
v -0.510573804 0.542489529 0.509949684
v -0.51295501 0.544688582 0.500673354
v -0.511419177 0.543423712 0.493002534
v -0.511029124 0.543172181 0.484844923
v -0.513659656 0.540219724 0.476501197
v -0.514537156 0.54103899 0.471958011
v -0.513043821 0.539809823 0.464235604
v -0.510435998 0.537596762 0.456983328
v -0.513194501 0.534741879 0.448545277
v -0.508652389 0.530823946 0.44212091
v -0.516943216 0.532828867 0.431259423
v -0.508128524 0.525155365 0.426695466
v -0.516018748 0.52675283 0.420178115
v -0.514836431 0.520412862 0.413422376
v -0.516535819 0.516596973 0.405394465
v -0.516496301 0.51659584 0.401190013
v -0.517991066 0.512592852 0.393239439
v -0.516887963 0.506320238 0.386447191
v -0.521259248 0.504812717 0.377189875
v -0.517780781 0.501813412 0.374521166
v -0.518167913 0.496835083 0.367053181
v -0.51865834 0.491922438 0.363780916
v -0.52561307 0.487244278 0.358758509
v -0.523456454 0.480050385 0.356694847
v -0.527837276 0.473148316 0.352845699
v -0.523337126 0.458648294 0.353064775
v -0.521278262 0.446282417 0.352173388
v -0.527750611 0.446492672 0.35040465
v -0.534739435 0.441831052 0.34960115
v -0.52572161 0.423642248 0.351895154
v -0.536123693 0.421873987 0.349522471
v -0.527740359 0.404324055 0.351528019
v -0.535992563 0.406010032 0.353157878
v -0.547763169 0.405348271 0.350169092
v -0.555070102 0.400942951 0.349220306
v -0.528892219 0.368827224 0.359299064
v -0.540284693 0.373081803 0.35948661
v -0.538027108 0.36086902 0.362860441
v -0.551403701 0.361541033 0.363340616
v -0.550379753 0.350382566 0.366138279
v -0.553516209 0.342641115 0.367056221
v -0.550767541 0.330152452 0.370613545
v -0.559480608 0.326947808 0.369021773
v -0.559636652 0.316853404 0.371264815
v -0.56248796 0.308944851 0.372296423
v -0.556844592 0.299281776 0.371819943
v -0.557070196 0.289325148 0.374019504
v -0.562773049 0.283735424 0.373767316
v -0.572805285 0.281556875 0.371586353
v -0.559829235 0.26118207 0.375525594
v -0.571540892 0.260323852 0.372588813
v -0.563234508 0.243722588 0.374448299
v -0.570343912 0.24426195 0.372418523
v -0.580965221 0.242511377 0.369969517
v -0.557777166 0.214520365 0.378456086
v -0.561701715 0.207651675 0.378972769
v -0.566785634 0.201677963 0.378972769
v -0.588185787 0.208152294 0.371735364
v -0.573615909 0.187069759 0.376360506
v -0.588451207 0.188483059 0.372034967
v -0.569440901 0.169072837 0.377509683
v -0.574656069 0.163234562 0.377443045
v -0.571301877 0.150834739 0.377103448
v -0.584096372 0.150674045 0.373670429
v -0.574929059 0.138836354 0.374789745
v -0.585186422 0.136766151 0.372479111
v -0.584775448 0.126627982 0.370834976
v -0.588470042 0.119536512 0.367368966
v -0.585057378 0.107233986 0.367068529
v -0.586263001 0.103309989 0.367653757
v -0.5863837 0.0936386585 0.365784913
v -0.587548077 0.08953017 0.36233139
v -0.591409922 0.0825950727 0.358797163
v -0.587828517 0.0750556216 0.357469231
v -0.589574277 0.0666095838 0.354886174
v -0.589243174 0.0565048307 0.349188149
v -0.591331184 0.0530708246 0.345326036
v -0.579754949 0.0351563767 0.348767877
v -0.59065491 0.0381942466 0.344976604
v -0.603957355 0.0379866138 0.337184012
v -0.602626204 0.0274009202 0.336000919
v -0.604165435 0.0190606583 0.337572247
v -0.604058325 0.0140813552 0.334706396
v -0.6027897 0.0038087524 0.337543994
v -0.582442701 -0.0199045241 0.344972879
v -0.585958719 -0.0267429054 0.345627666
v -0.582660675 -0.0384881608 0.345355779
v -0.585137129 -0.0413980521 0.345355779
v -0.596802115 -0.0426162332 0.34232688
v -0.603261471 -0.04742603 0.341652602
v -0.601411104 -0.0581228025 0.340718985
v -0.605295777 -0.0646735653 0.341202021
v -0.602810562 -0.0757494196 0.340557396
v -0.606801629 -0.0824415684 0.336995155
v -0.604489625 -0.0887953192 0.335164785
v -0.608381748 -0.0912328213 0.32653138
v -0.606834173 -0.0970672593 0.324362516
v -0.607552409 -0.0970770195 0.316034287
v -0.611195445 -0.0994532704 0.311493456
v -0.606037676 -0.103379473 0.305848628
v -0.603937328 -0.105270848 0.298799157
v -0.604419708 -0.105444394 0.290544033
v -0.596390963 -0.106724836 0.285099715
v -0.582515419 -0.107363746 0.281262666
v -0.577569306 -0.106120676 0.282431215
v -0.56385231 -0.106229566 0.286581516
v -0.559967339 -0.0999736786 0.282082438
v -0.567410767 -0.0906006023 0.273353636
v -0.561520576 -0.0856615752 0.269778669
v -0.608087361 -0.0498075075 0.238130242
v -0.587130487 -0.0596720055 0.242933959
v -0.599262953 -0.0518472716 0.22889103
v -0.607704103 -0.0465446487 0.21657449
v -0.604997873 -0.0488478206 0.209664449
v -0.594651937 -0.0563603416 0.206516236
v -0.588384271 -0.0610903911 0.201387554
v -0.58568716 -0.0633858144 0.194500774
v -0.582989991 -0.065681234 0.187613979
v -0.588923454 -0.0667635202 0.177654713
v -0.588578105 -0.0674610808 0.169566348
v -0.585874021 -0.0697623789 0.162661925
v -0.591092229 -0.0711198598 0.157150984
v -0.588384867 -0.0734239742 0.150238141
v -0.59669584 -0.0729383752 0.138970181
v -0.585999489 -0.0806469545 0.13614966
v -0.595698476 -0.0790006667 0.128291398
v -0.592983723 -0.081311062 0.121359698
v -0.599008083 -0.0824069232 0.111194678
v -0.604660392 -0.0837719291 0.101197779
v -0.604470849 -0.0890694484 0.0942409262
v -0.603108525 -0.0902288407 0.0907625034
v -0.603164017 -0.0953625888 0.0836762935
v -0.61135745 -0.0948185474 0.07648471
v -0.612632871 -0.0991525576 0.0687346384
v -0.616835654 -0.106224224 0.0607735142
v -0.621641994 -0.107976168 0.0553473569
v -0.621451676 -0.113296263 0.0483608618
v -0.623137116 -0.117118001 0.0445952453
v -0.627780914 -0.123932131 0.03637629
v -0.628959656 -0.128091365 0.0328801312
v -0.63149631 -0.13136512 0.0286508258
v -0.634622991 -0.13918823 0.0212395862
v -0.635161042 -0.143765569 0.0180891939
v -0.641727865 -0.149374306 0.00880377274
v -0.637624741 -0.152302578 0.00679155672
v -0.643068373 -0.158649087 -0.00189429324
v -0.644705892 -0.162523389 -0.00564696407
v -0.64210099 -0.1694002 -0.01132489
v -0.645397067 -0.172216028 -0.0159909707
v -0.649844587 -0.179226667 -0.0241487511
v -0.653145432 -0.182054818 -0.0288263876
v -0.650884211 -0.188702852 -0.034690246
v -0.654107988 -0.191585973 -0.0393312909
v -0.656847894 -0.199694827 -0.0465545282
v -0.652984738 -0.20242466 -0.0486693308
v -0.661616445 -0.206851766 -0.059195552
v -0.655712485 -0.21084784 -0.0601602942
v -0.662564695 -0.216403887 -0.0697042868
v -0.66484189 -0.219903544 -0.0738330111
v -0.662230015 -0.22674869 -0.0794854686
v -0.663413405 -0.230924159 -0.0829952806
v -0.663222134 -0.236269474 -0.0900149047
v -0.663075924 -0.241587177 -0.0970602706
v -0.661701322 -0.242757052 -0.100570135
v -0.66279304 -0.247317389 -0.108327955
v -0.655698776 -0.252315253 -0.112840161
v -0.653296649 -0.254442126 -0.120053545
v -0.65054965 -0.256779999 -0.12706764
v -0.647802591 -0.259117842 -0.134081721
v -0.648303449 -0.259471476 -0.143005699
v -0.642028809 -0.259397089 -0.149455205
v -0.650723517 -0.254734278 -0.163267136
v -0.651910722 -0.258923471 -0.166788474
v -0.651506662 -0.264081746 -0.169362515
v -0.65751034 -0.270255864 -0.178568959
v -0.656130373 -0.271430254 -0.182092413
v -0.597234607 -0.316765815 -0.152383149
v -0.654804945 -0.291154027 -0.183846071
v -0.659282684 -0.297558218 -0.183460549
v -0.647619784 -0.313913971 -0.177753076
v -0.651890934 -0.315886974 -0.178782865
v -0.655962229 -0.322488815 -0.178168163
v -0.654290199 -0.332823306 -0.178439498
v -0.656157017 -0.340693265 -0.176516011
v -0.65472728 -0.350833714 -0.17693156
v -0.653624117 -0.355935276 -0.174758852
v -0.650947988 -0.366752028 -0.174427539
v -0.648078263 -0.377645373 -0.173975855
v -0.650233865 -0.385245144 -0.172247589
v -0.647852361 -0.391396433 -0.173592091
v -0.652402461 -0.397604465 -0.173297539
v -0.648059845 -0.409234256 -0.171965882
v -0.644425452 -0.420421183 -0.171051115
v -0.646935642 -0.423370749 -0.171051115
v -0.644147456 -0.434034973 -0.170639277
v -0.640121639 -0.441020697 -0.170977652
v -0.636808157 -0.451919168 -0.170239687
v -0.636984348 -0.460849851 -0.171585187
v -0.630860448 -0.468936265 -0.170645446
v -0.625758886 -0.481124967 -0.173025027
v -0.617463708 -0.490349412 -0.170749113
v -0.604429841 -0.498291612 -0.171276003
v -0.591620326 -0.510340691 -0.170394808
v -0.572179854 -0.517541826 -0.168406323
v -0.565430105 -0.521632552 -0.168447956
v -0.55866158 -0.52613163 -0.172616646
v -0.539704502 -0.533102512 -0.170757547
v -0.561421096 -0.522010803 -0.192478538
v -0.562404692 -0.522272885 -0.201445013
v -0.563900888 -0.522256494 -0.210749596
v -0.566361547 -0.521714926 -0.220679179
v -0.564961493 -0.523284972 -0.228207245
v -0.567709744 -0.522590458 -0.238360628
v -0.670177579 -0.471421957 -0.305794179
v -0.665562451 -0.483485401 -0.308348656
v -0.664848149 -0.488641381 -0.310628474
v -0.647769034 -0.503035963 -0.306825876
v -0.646906734 -0.508239627 -0.308990836
v -0.656154037 -0.51147759 -0.30734995
v -0.658952236 -0.518595576 -0.305927277
v -0.657005668 -0.524360299 -0.30740729
v -0.654300869 -0.526662171 -0.314313531
v -0.650431871 -0.524856091 -0.317766666
v -0.638828576 -0.527602792 -0.320573151
v -0.634291708 -0.5308792 -0.326281369
v -0.625586092 -0.536374748 -0.329280794
v -0.613780975 -0.543517053 -0.330234259
v -0.619885504 -0.54069674 -0.338514775
v -0.62318325 -0.539801776 -0.3493056
v -0.620546341 -0.537779331 -0.357879698
v -0.639494359 -0.528545558 -0.379050076
v -0.624809623 -0.537229419 -0.378060162
v -0.641803384 -0.532935321 -0.39201057
v -0.622624695 -0.543985426 -0.38799876
v -0.638970256 -0.536181808 -0.407639444
v -0.647031724 -0.537109256 -0.420119286
v -0.643234968 -0.539996028 -0.426366448
v -0.635785222 -0.54481262 -0.430140257
v -0.65906775 -0.533394992 -0.45473069
v -0.666601896 -0.53466332 -0.466993719
v -0.664205074 -0.536818087 -0.474259466
v -0.652283907 -0.539193571 -0.472303867
v -0.646405041 -0.543181956 -0.477157772
v -0.64572984 -0.544426382 -0.485585541
v -0.640238285 -0.539513767 -0.49422732
v -0.638234794 -0.536659658 -0.499071002
v -0.633344352 -0.535335779 -0.501908541
v -0.641222835 -0.532027483 -0.51635915
v -0.635339499 -0.53603363 -0.521196127
v -0.637330115 -0.535858393 -0.531570256
v -0.633960962 -0.538529396 -0.538174927
v -0.636175513 -0.538238943 -0.548744678
v -0.63424778 -0.535763502 -0.55821985
v -0.635005534 -0.536245048 -0.567797422
v -0.636153162 -0.532123208 -0.579528987
v -0.630803645 -0.531452 -0.586604714
v -0.631430089 -0.531558692 -0.59160018
v -0.629289985 -0.529171169 -0.601017952
v -0.625139534 -0.527414382 -0.604429722
v -0.628618717 -0.526430011 -0.616096497
v -0.617452264 -0.528865159 -0.618930161
v -0.617179573 -0.525461137 -0.629775345
v -0.612516105 -0.524409473 -0.637395144
v -0.620190263 -0.520715296 -0.647685349
v -0.616943061 -0.518888891 -0.656398833
v -0.611557543 -0.518213153 -0.663522184
v -0.612875581 -0.517935038 -0.669123113
v -0.607485652 -0.517258763 -0.676252246
v -0.617817104 -0.512536407 -0.693326056
v -0.603911996 -0.516029119 -0.689386487
v -0.611409903 -0.512830496 -0.704371035
v -0.605998099 -0.51215148 -0.711529076
v -0.607677758 -0.512104452 -0.722133338
v -0.598639905 -0.51339227 -0.726506889
v -0.610737324 -0.507679641 -0.745214283
v -0.609662175 -0.509130776 -0.753760695
v -0.611604393 -0.508944333 -0.764672101
v -0.606156349 -0.508260727 -0.771878064
v -0.604745269 -0.509461641 -0.775481105
v -0.605827212 -0.509740889 -0.785764396
v -0.616019666 -0.509602964 -0.801190495
v -0.613185346 -0.512015104 -0.808427393
v -0.613580763 -0.512678206 -0.818235457
v -0.621844709 -0.513183534 -0.827469766
v -0.645001173 -0.506136417 -0.853391349
v -0.657426178 -0.508141458 -0.854249239
v -0.66965276 -0.50571239 -0.857042313
v -0.6750018 -0.511997581 -0.857042313
v -0.68428266 -0.516201675 -0.86015594
v -0.68905884 -0.522799015 -0.859698117
v -0.692974448 -0.530314744 -0.863371491
v -0.68974179 -0.537020445 -0.863505483
v -0.695377707 -0.544106603 -0.873350739
v -0.699760437 -0.546846032 -0.879519522
v -0.688256145 -0.558280587 -0.87787044
v -0.677410603 -0.564839005 -0.878824174
v -0.682916343 -0.566987514 -0.885896683
v -0.679543674 -0.569687307 -0.892808676
v -0.679923356 -0.570457876 -0.902740002
v -0.658111393 -0.57814604 -0.896900773
v -0.654373229 -0.581030428 -0.903473139
v -0.654989243 -0.577179074 -0.91575408
v -0.652027547 -0.574686408 -0.920326471
v -0.646375597 -0.569077611 -0.924880505
v -0.642051816 -0.567287445 -0.928343296
v -0.636727929 -0.561031818 -0.928343296
v -0.62997359 -0.555993617 -0.931995749
v -0.656900525 -0.537729144 -0.961337447
v -0.659060001 -0.537527025 -0.972904146
v -0.653477728 -0.536826611 -0.980287671
v -0.653048277 -0.53339982 -0.991990089
v -0.643901289 -0.529065669 -0.988835514
v -0.637750566 -0.528206825 -0.990834832
v -0.622608542 -0.527115345 -0.982605755
v -0.618685484 -0.519585371 -0.978925407
v -0.624967992 -0.507424355 -0.993674397
v -0.623722255 -0.50302881 -0.989979625
v -0.623970568 -0.493184716 -0.989821792
v -0.625419378 -0.491951674 -0.98612237
v -0.620608687 -0.493694931 -0.972245574
v -0.623499751 -0.491234541 -0.964863777
v -0.625132322 -0.489461988 -0.956431746
v -0.60298121 -0.496097356 -0.930449128
v -0.591377497 -0.502026081 -0.915950835
v -0.592333972 -0.49188447 -0.916327417
v -0.591101348 -0.487535149 -0.912671447
v -0.58863616 -0.478836536 -0.905359626
v -0.588835359 -0.473268658 -0.898047745
v -0.594392121 -0.465124249 -0.899994969
v -0.587650955 -0.463436157 -0.886955619
v -0.589082718 -0.462217659 -0.883299887
v -0.589281917 -0.456650048 -0.875988305
v -0.589481115 -0.451082438 -0.868676782
v -0.590761662 -0.449949205 -0.864897728
v -0.578403473 -0.456103444 -0.845215678
v -0.58519417 -0.446829975 -0.843280911
v -0.577636838 -0.450296342 -0.8275792
v -0.589243889 -0.438281387 -0.829497874
v -0.590140402 -0.436963856 -0.820630431
v -0.572585583 -0.446135342 -0.797021449
v -0.592731416 -0.429647774 -0.810465932
v -0.5870893 -0.432062566 -0.796410322
v -0.580648005 -0.434937328 -0.781769812
v -0.5798769 -0.434580833 -0.771662772
v -0.160314947 -0.665943563 -0.443801999
v -0.139839545 -0.674013674 -0.433540851
v -0.130705327 -0.675933361 -0.436356902
v -0.119997859 -0.678434491 -0.433761895
v -0.115770198 -0.677540779 -0.440450519
v -0.104038224 -0.680994749 -0.441093206
v -0.106619187 -0.679832339 -0.447297692
v -0.0967475399 -0.682217419 -0.449403018
v -0.0942969546 -0.684302986 -0.455660224
v -0.0894780383 -0.683760703 -0.461845279
v -0.0835110694 -0.68355912 -0.462955683
v -0.0725616068 -0.686600506 -0.464083076
v -0.0660641342 -0.686727047 -0.464722782
v -0.0493480116 -0.68887198 -0.45876357
v -0.0470863618 -0.686214507 -0.45876357
v -0.0380885452 -0.683864236 -0.459155589
v -0.0335860811 -0.682854176 -0.461396515
v -0.0153205078 -0.690344512 -0.456216872
v -0.00961892679 -0.686091602 -0.459300071
v -0.00185863941 -0.687057972 -0.458754539
v 0.00390914967 -0.687141955 -0.463969082
v 0.00735685416 -0.68553251 -0.467046171
v 0.0150347771 -0.682192385 -0.464332104
v 0.0309973899 -0.684195578 -0.458637714
v 0.0370475836 -0.679920316 -0.45728153
v 0.0505108647 -0.679916561 -0.445506394
v 0.0549542159 -0.674695551 -0.445506394
v 0.06983082 -0.675935805 -0.436563611
v 0.0812892541 -0.675111413 -0.43052578
v 0.0807149634 -0.671052933 -0.436969519
v 0.0857910067 -0.666802227 -0.444524378
v 0.0951182321 -0.668671668 -0.438362151
v 0.101900943 -0.665505409 -0.444415748
v 0.106139354 -0.664457798 -0.446703196
v 0.11173483 -0.660283983 -0.449729025
v 0.115125097 -0.65870136 -0.452754855
v 0.128441736 -0.659465849 -0.448976606
v 0.13182196 -0.657887936 -0.451993495
v 0.137400895 -0.653726459 -0.455010384
v 0.143592298 -0.649961293 -0.457482338
v 0.149169892 -0.645800829 -0.460498512
v 0.159754366 -0.648682177 -0.453005105
v 0.165313825 -0.644535303 -0.456011474
v 0.17193526 -0.640859246 -0.454000115
v 0.177489862 -0.636715889 -0.457003832
v 0.202266484 -0.649104774 -0.436628193
v 0.209476158 -0.645916045 -0.434034556
v 0.214975312 -0.641814113 -0.437008291
v 0.222593054 -0.638926685 -0.434025943
v 0.232601464 -0.637878239 -0.432878882
v 0.235922992 -0.636327684 -0.435843378
v 0.238366351 -0.629974306 -0.437562406
v 0.248299003 -0.628528059 -0.428397566
v 0.253726214 -0.628426313 -0.429417372
v 0.25866583 -0.623797178 -0.428837359
v 0.262270629 -0.618064523 -0.425464094
v 0.271872193 -0.620510638 -0.414603889
v 0.280183464 -0.618443668 -0.414906114
v 0.286961883 -0.615323424 -0.416607797
v 0.289850056 -0.609308124 -0.417901903
v 0.289746404 -0.605037928 -0.415974915
v 0.290500969 -0.597332239 -0.415237993
v 0.309620231 -0.602827013 -0.401485771
v 0.318808913 -0.601328254 -0.396912515
v 0.323067188 -0.596324682 -0.396912515
v 0.326340497 -0.594796658 -0.399833977
v 0.330598801 -0.589793086 -0.399833977
v 0.336585045 -0.586043835 -0.398215503
v 0.342626512 -0.582346499 -0.39653942
v 0.34802103 -0.578322589 -0.39945659
v 0.352273077 -0.573326349 -0.39945659
v 0.356525123 -0.568330169 -0.39945659
v 0.361919641 -0.564306259 -0.402373761
v 0.366171688 -0.559310019 -0.402373761
v 0.383452177 -0.564081728 -0.389972687
v 0.376799583 -0.555122972 -0.402325243
v 0.390931189 -0.55759573 -0.392873734
v 0.396295935 -0.553594053 -0.395774782
v 0.410515606 -0.55623728 -0.386170208
v 0.413752109 -0.554726422 -0.389058828
v 0.419093847 -0.550741911 -0.391947448
v 0.424435586 -0.5467574 -0.394836068
v 0.431925237 -0.548442423 -0.389603674
v 0.437254488 -0.544467211 -0.392485529
v 0.450641364 -0.546852946 -0.391454995
v 0.452735305 -0.544392586 -0.391454995
v 0.45917365 -0.541387022 -0.39720127
v 0.461267561 -0.538926661 -0.39720127
v 0.484435439 -0.549139202 -0.386334598
v 0.486669272 -0.551040351 -0.392038345
v 0.494225502 -0.553067863 -0.394494832
v 0.498786449 -0.55266577 -0.395967245
v 0.497451156 -0.547578692 -0.403366476
v 0.503782392 -0.548647225 -0.407028824
v 0.509625912 -0.549333334 -0.411168158
v 0.509206474 -0.549056292 -0.415576398
v 0.508722186 -0.548785806 -0.4240475
v 0.51166302 -0.547145486 -0.43116039
v 0.511407018 -0.547053158 -0.439433515
v 0.515728056 -0.546510994 -0.445148826
v 0.51796639 -0.548415959 -0.450864166
v 0.517811656 -0.544221759 -0.457212836
v 0.520053446 -0.546129584 -0.462936848
v 0.521370411 -0.543159962 -0.471816987
v 0.519870698 -0.542052388 -0.481488109
v 0.522956133 -0.540493608 -0.488556176
v 0.521549642 -0.539406121 -0.49410814
v 0.52589798 -0.5388605 -0.499859542
v 0.526431501 -0.539385855 -0.507444918
v 0.532498777 -0.540231884 -0.511362374
v 0.533037424 -0.540758312 -0.518956721
v 0.536262035 -0.539252996 -0.521834671
v 0.530512333 -0.534662366 -0.53625077
v 0.534307241 -0.533647537 -0.542650044
v 0.516792834 -0.519453526 -0.569996476
v 0.519076288 -0.521396875 -0.575827003
v 0.522342682 -0.519872069 -0.578742266
v 0.524626195 -0.521815419 -0.584572792
v 0.52566272 -0.522740245 -0.591780961
v 0.53005892 -0.522175014 -0.597630739
v 0.519849658 -0.513890386 -0.617376506
v 0.53269875 -0.520237982 -0.613834202
v 0.520459592 -0.510264516 -0.635982394
v 0.509376884 -0.501240909 -0.656939924
v 0.508218408 -0.500361085 -0.666787148
v 0.510540128 -0.502337039 -0.672715485
v 0.509786308 -0.50178957 -0.682142556
v 0.514274597 -0.501226425 -0.688079119
v 0.513042271 -0.500246346 -0.69378823
v 0.509951055 -0.497771263 -0.705954134
v 0.508337677 -0.496511668 -0.716459274
v 0.510675013 -0.498500884 -0.722427368
v 0.513012409 -0.500490129 -0.728395402
v 0.513533711 -0.500986159 -0.736477435
v 0.511782169 -0.499613643 -0.747228324
v 0.513648927 -0.501216173 -0.753771126
v 0.509853244 -0.498163521 -0.76697588
v 0.510271132 -0.498575121 -0.775258005
v 0.512623787 -0.500577331 -0.78126514
v 0.514976382 -0.50257957 -0.787272274
v 0.515734971 -0.498892576 -0.797792196
v 0.514496326 -0.497935921 -0.808112741
v 0.514225066 -0.497776479 -0.817300379
v 0.513285339 -0.497066498 -0.827314496
v 0.51565218 -0.499080807 -0.833357871
v 0.518019021 -0.501095116 -0.839401186
v 0.519399285 -0.502296686 -0.846645176
v 0.520353377 -0.503147244 -0.854417503
v 0.522722781 -0.505163729 -0.860467434
v 0.51977247 -0.50721091 -0.870342433
v 0.520958841 -0.508220553 -0.873371661
v 0.523331583 -0.510239899 -0.879430175
v 0.526563585 -0.512965202 -0.884424806
v 0.531119764 -0.516778409 -0.887767613
v 0.534932196 -0.519980431 -0.892019451
v 0.531436622 -0.521584749 -0.902637601
v 0.537636757 -0.526740551 -0.903896272
v 0.543018579 -0.531225562 -0.906152248
v 0.567485273 -0.555648744 -0.877108634
v 0.563344538 -0.561015725 -0.885757506
v 0.568067253 -0.564945161 -0.888718128
v 0.568261027 -0.565190971 -0.897401452
v 0.571248293 -0.56770879 -0.902548969
v 0.576245725 -0.571861267 -0.905125737
v 0.589869678 -0.578726709 -0.89940536
v 0.591032445 -0.579716265 -0.902374268
v 0.589981377 -0.578943014 -0.912660837
v 0.595670044 -0.575033903 -0.919870079
v 0.597725332 -0.572393656 -0.920016348
v 0.606329978 -0.570850551 -0.918955028
v 0.611081243 -0.566137075 -0.922894955
v 0.587358236 -0.542092502 -0.961280465
v 0.579423845 -0.535542905 -0.980816662
v 0.583996773 -0.534969151 -0.986865163
v 0.587062716 -0.533136368 -0.994909823
v 0.59419632 -0.534671783 -0.988375664
v 0.602934241 -0.533139348 -0.978034675
v 0.607323945 -0.5279814 -0.978034675
v 0.610534191 -0.521819592 -0.975023031
v 0.612729073 -0.519240618 -0.975023031
v 0.607723653 -0.506037474 -0.987556159
v 0.60992831 -0.503446996 -0.987556159
v 0.608743548 -0.502438724 -0.984531164
v 0.640898407 -0.525643647 -0.935487449
v 0.658247709 -0.53619951 -0.910778284
v 0.658024609 -0.527227879 -0.912309825
v 0.660020828 -0.5201841 -0.906388998
v 0.659181774 -0.515057862 -0.905867815
v 0.660180748 -0.511532843 -0.902904749
v 0.653645813 -0.505868971 -0.902552009
v 0.651629388 -0.499719799 -0.899061263
v 0.651467443 -0.495193958 -0.893117785
v 0.649139762 -0.493212968 -0.887174308
v 0.649083912 -0.493230075 -0.878259242
v 0.644484341 -0.489250928 -0.875287414
v 0.633953989 -0.48448807 -0.881677866
v 0.608324051 -0.462064624 -0.905900836
v 0.602921903 -0.461898893 -0.900958478
v 0.601057649 -0.460324258 -0.894285083
v 0.599041641 -0.458616883 -0.887810409
v 0.601322591 -0.456169873 -0.878653228
v 0.600143075 -0.455166072 -0.875641584
v 0.597784102 -0.453158468 -0.869618356
v 0.595425189 -0.451150864 -0.863595128
v 0.595132589 -0.446451306 -0.857734501
v 0.593521595 -0.445101321 -0.850767374
v 0.592955887 -0.444670141 -0.842492878
v 0.590902328 -0.442930967 -0.836097121
v 0.588546395 -0.440925926 -0.830081522
v 0.586190403 -0.438920885 -0.824065924
v 0.583834469 -0.436915815 -0.818050385
v 0.584321022 -0.441870809 -0.810272574
v 0.58320111 -0.4409495 -0.802749336
v 0.582113147 -0.440056145 -0.79519701
v 0.579764128 -0.438057005 -0.789199173
v 0.577415168 -0.436057866 -0.783201337
v 0.577584326 -0.436266571 -0.774140894
v 0.577696979 -0.436425507 -0.76516974
v 0.578665912 -0.437334985 -0.755184352
v 0.582180738 -0.436016917 -0.744777679
v 0.58231014 -0.436195254 -0.735852063
v 0.582981825 -0.436849833 -0.726297557
v 0.58204639 -0.436092228 -0.718684494
v 0.580453575 -0.434756905 -0.711864352
v 0.579483688 -0.433968872 -0.704312086
v 0.579454482 -0.434007198 -0.695660114
v 0.579925716 -0.43004629 -0.688981235
v 0.578540981 -0.428895503 -0.681948006
v 0.583260596 -0.433119684 -0.667781174
v 0.582176447 -0.432233214 -0.660437107
v 0.57986325 -0.430264592 -0.654530764
v 0.585914314 -0.435660034 -0.638939977
v 0.584122121 -0.434149802 -0.632465899
v 0.581818461 -0.432189286 -0.626583934
v 0.579514802 -0.43022877 -0.620701969
v 0.590625823 -0.440077156 -0.599501073
v 0.578202784 -0.424769491 -0.611878991
v 0.596929431 -0.44136402 -0.582082093
v 0.60992676 -0.452902287 -0.558943629
v 0.658940136 -0.49197948 -0.49757731
v 0.658786237 -0.487678051 -0.491928548
v 0.632867873 -0.464746356 -0.517033696
v 0.630040586 -0.462319463 -0.511977434
v 0.622075379 -0.455339432 -0.512659729
v 0.626595795 -0.455127209 -0.501711786
v 0.62373209 -0.452666938 -0.49668327
v 0.625250161 -0.449799448 -0.489105463
v 0.623010755 -0.44789359 -0.48338747
v 0.630522311 -0.45037961 -0.469223112
v 0.629406691 -0.449430168 -0.466374516
v 0.627175391 -0.447531253 -0.460677326
v 0.62702018 -0.443192929 -0.454980135
v 0.62478894 -0.441294014 -0.449282944
v 0.62574935 -0.437905163 -0.446434349
v 0.623518109 -0.436006218 -0.440737158
v 0.622384667 -0.435090929 -0.433853626
v 0.621131599 -0.429769009 -0.429342777
v 0.622292995 -0.43091625 -0.420002043
v 0.620567679 -0.425117373 -0.420038402
v 0.621024191 -0.425636977 -0.411469996
v 0.618796527 -0.423741102 -0.405781955
v 0.617132127 -0.41804859 -0.401697934
v 0.616413891 -0.417513907 -0.394405872
v 0.615268826 -0.412287831 -0.389763445
v 0.604449749 -0.398234993 -0.399346918
v 0.606978118 -0.3919065 -0.397036105
v 0.607943058 -0.388501823 -0.394174188
v 0.600618303 -0.373143882 -0.402255088
v 0.603683889 -0.367259741 -0.399379164
v 0.604810059 -0.363982677 -0.396338254
v 0.605244279 -0.355577618 -0.400306344
v 0.609101236 -0.350414842 -0.39659515
v 0.612170875 -0.344522864 -0.393715411
v 0.613485336 -0.341322392 -0.394544721
v 0.616556168 -0.335428238 -0.391663939
v 0.613016784 -0.323182821 -0.399864614
v 0.617584109 -0.318676561 -0.395399004
v 0.623784781 -0.315739661 -0.389201343
v 0.622769713 -0.310290664 -0.392509669
v 0.625502586 -0.303923219 -0.394081861
v 0.616858721 -0.286705911 -0.403660536
v 0.616712153 -0.281896591 -0.410198599
v 0.614041865 -0.270199001 -0.417588204
v 0.618300617 -0.265194952 -0.417588204
v 0.622559309 -0.260190874 -0.417588204
v 0.626818001 -0.255186826 -0.417588204
v 0.62420857 -0.243555635 -0.420821458
v 0.627331495 -0.237561435 -0.417891741
v 0.621679485 -0.227310732 -0.426275522
v 0.623649538 -0.22030136 -0.420408189
v 0.626784027 -0.214284912 -0.417467594
v 0.616227567 -0.199003547 -0.431134075
v 0.619713604 -0.193102881 -0.432024837
v 0.623693109 -0.187883943 -0.428175718
v 0.627182066 -0.181978926 -0.429065317
v 0.626554072 -0.17679894 -0.427861482
v 0.629711211 -0.17073907 -0.424899697
v 0.621595263 -0.152867168 -0.438356012
v 0.621505082 -0.143608123 -0.434665442
v 0.623678625 -0.141054198 -0.434665442
v 0.625689626 -0.133958265 -0.428700775
v 0.626695156 -0.130410284 -0.425718427
v 0.625689626 -0.133958265 -0.428700775
v 0.621342599 -0.139066115 -0.428700775
v 0.61961776 -0.146667928 -0.430116355
v 0.616440892 -0.152765617 -0.433096677
v 0.61961329 -0.165355816 -0.429239064
v 0.617447793 -0.167900339 -0.429239064
v 0.614280462 -0.173979744 -0.432210416
v 0.614994109 -0.18417117 -0.426795155
v 0.613093853 -0.191504523 -0.428407639
v 0.610934734 -0.194041476 -0.428407639
v 0.626388729 -0.219067201 -0.403089255
v 0.623391628 -0.216412172 -0.397966892
v 0.62206614 -0.206111789 -0.395608127
v 0.623866141 -0.203250974 -0.395971596
v 0.62654227 -0.19695887 -0.389356047
v 0.620680511 -0.186334103 -0.397860616
v 0.625310957 -0.181811512 -0.393331349
v 0.624377549 -0.181245878 -0.38597995
v 0.620427966 -0.182316691 -0.379557163
v 0.61614424 -0.178158298 -0.379905015
v 0.624287724 -0.177219793 -0.371695876
v 0.603488684 -0.146297365 -0.402351707
v 0.619685233 -0.153384626 -0.389806122
v 0.620618105 -0.149792477 -0.386913389
v 0.6208781 -0.140732318 -0.387015671
v 0.621878326 -0.137203112 -0.384049088
v 0.609065056 -0.118657991 -0.408349633
v 0.608472288 -0.117599726 -0.417460114
v 0.613001168 -0.117031455 -0.423450351
v 0.616247237 -0.115350246 -0.426563323
v 0.619045675 -0.113199838 -0.430159152
v 0.620055795 -0.109635554 -0.427163094
v 0.611699224 -0.0915741995 -0.43231982
v 0.615207195 -0.0903830007 -0.430906922
v 0.615816712 -0.0863748938 -0.428333193
v 0.614652216 -0.0807307884 -0.423386395
v 0.611672282 -0.0682330132 -0.422724724
v 0.612391889 -0.0640695468 -0.424309671
v 0.610220432 -0.0622634068 -0.418062091
v 0.608757913 -0.0513304584 -0.415748924
v 0.606367409 -0.0490308367 -0.414005905
v 0.604942203 -0.0381021947 -0.411631018
v 0.604506493 -0.0329246894 -0.410145253
v 0.591900766 -0.0148727195 -0.417232364
v 0.592929542 -0.011242603 -0.414180964
v 0.592763305 -0.00659543043 -0.408078164
v 0.593715012 -0.00288158562 -0.405107915
v 0.593548715 0.00176575489 -0.399004877
v 0.592899323 0.00693991268 -0.393407583
v 0.585326374 0.0199698247 -0.399351507
v 0.585159361 0.0246369354 -0.393222541
v 0.574654341 0.0409394614 -0.402180254
v 0.570738077 0.0497513115 -0.399912894
v 0.568945885 0.056542661 -0.39976719
v 0.57161051 0.0581233874 -0.390653878
v 0.570475817 0.0690293685 -0.387804031
v 0.561705887 0.0835986584 -0.394842505
v 0.553840697 0.0972054973 -0.400929421
v 0.553670824 0.101953745 -0.394693911
v 0.555773139 0.109371878 -0.388458371
v 0.556824327 0.113080941 -0.385340631
v 0.556654453 0.117829181 -0.379105091
v 0.557705581 0.121538252 -0.375987351
v 0.571717978 0.0999206826 -0.350712717
v 0.567258537 0.109787241 -0.353209913
v 0.544154882 0.140357092 -0.370240599
v 0.537918508 0.152318403 -0.374487579
v 0.537747264 0.157103762 -0.368203312
v 0.533472478 0.166889325 -0.370437831
v 0.533300877 0.171686336 -0.364138246
v 0.533129215 0.176483348 -0.35783869
v 0.52691257 0.188529417 -0.3619757
v 0.523769498 0.202085689 -0.360925108
v 0.526135683 0.199013457 -0.354160547
v 0.521441698 0.214382395 -0.354629844
v 0.500543952 0.24344793 -0.37330085
v 0.50110513 0.252919763 -0.368480057
v 0.501870632 0.257099628 -0.365586609
v 0.502416909 0.261535227 -0.362909675
v 0.504579782 0.269166917 -0.356494635
v 0.50472641 0.274073899 -0.354210347
v 0.506890178 0.281708807 -0.347792596
v 0.507972062 0.285526276 -0.34458372
v 0.482827634 0.325766057 -0.369506478
v 0.483923465 0.32963267 -0.366256297
v 0.404491633 0.435479462 -0.4539195
v 0.407134563 0.433230191 -0.460667819
v 0.410915077 0.434994996 -0.464041978
v 0.413558006 0.432745725 -0.470790267
v 0.407468975 0.44088918 -0.486298174
v 0.409126163 0.439816892 -0.494074881
v 0.411780179 0.437558174 -0.500851572
v 0.400265813 0.44630605 -0.519494653
v 0.40293324 0.444035918 -0.526305556
v 0.394972026 0.448520511 -0.541437626
v 0.396310389 0.447381467 -0.544854999
v 0.393907785 0.445245057 -0.554347038
v 0.399173379 0.439898849 -0.55852443
v 0.395987123 0.438685298 -0.568844914
v 0.389496595 0.441360444 -0.582611024
v 0.390840739 0.440216511 -0.586043119
v 0.395018816 0.436167985 -0.591353774
v 0.39308399 0.433447272 -0.600432575
v 0.396404386 0.430413753 -0.606635749
v 0.383671731 0.440405011 -0.627104282
v 0.387401074 0.436453491 -0.628046691
v 0.39617461 0.426998287 -0.628509045
v 0.398868054 0.424706012 -0.635386407
v 0.385054082 0.435944498 -0.657195449
v 0.388043821 0.43330875 -0.663814187
v 0.390841156 0.430899352 -0.670637369
v 0.38572672 0.431864262 -0.683270812
v 0.388442069 0.42955336 -0.690204024
v 0.391157418 0.427242458 -0.697137237
v 0.394625306 0.424046248 -0.703249753
v 0.397685289 0.421329498 -0.709802508
v 0.385871619 0.430151075 -0.729909301
v 0.387235641 0.428990215 -0.733392119
v 0.389963657 0.426668525 -0.740357697
v 0.392691702 0.424346834 -0.747323334
v 0.395419747 0.422025114 -0.754288971
v 0.391667426 0.42732656 -0.768493533
v 0.392623127 0.42709291 -0.777474523
v 0.394143045 0.426196456 -0.785835624
v 0.401903272 0.423942178 -0.790032566
v 0.404639512 0.421613514 -0.797019124
v 0.403350234 0.424038351 -0.808594346
v 0.411289722 0.421111971 -0.807498932
v 0.410011977 0.423535913 -0.819092333
v 0.411494553 0.428720772 -0.830483735
v 0.41398713 0.426684529 -0.837786674
v 0.416197866 0.4310278 -0.848392367
v 0.42321533 0.429183125 -0.84830308
v 0.420986593 0.43278414 -0.861140966
v 0.425760508 0.434094578 -0.868800402
v 0.43023473 0.435288131 -0.871680081
v 0.435010821 0.436599165 -0.87934196
v 0.436609924 0.44174394 -0.890797973
v 0.440553367 0.4435848 -0.894317508
v 0.444227397 0.446249187 -0.903336883
v 0.448173672 0.448091388 -0.906858981
v 0.456658363 0.451053172 -0.91318512
v 0.460603625 0.452894896 -0.916706324
v 0.468108088 0.457052886 -0.924221039
v 0.448600292 0.481559157 -0.95334971
v 0.447619885 0.483819813 -0.965090811
v 0.446991295 0.485651135 -0.976432204
v 0.450371325 0.482551485 -0.982835174
v 0.456566304 0.482234389 -0.988961399
v 0.460558802 0.484098166 -0.992524743
v 0.471886724 0.482578933 -0.984841585
v 0.477066576 0.488665342 -0.984841585
v 0.482410431 0.493986011 -0.979333818
v 0.487586677 0.500068188 -0.979333818
v 0.486742973 0.513764024 -0.986929715
v 0.49073261 0.51562649 -0.990490496
v 0.493133694 0.524098694 -0.983368933
v 0.494139463 0.521643579 -0.971469402
v 0.501817822 0.517022431 -0.954474568
v 0.510464609 0.511717141 -0.941580653
v 0.514959514 0.511687517 -0.933906555
v 0.524828255 0.51164335 -0.927961111
v 0.532576561 0.513677597 -0.919415534
v 0.533760428 0.51785475 -0.915904343
v 0.548169851 0.510568082 -0.893774152
v 0.550714731 0.513558388 -0.893774152
v 0.553069353 0.521866798 -0.886790335
v 0.554246664 0.526020944 -0.883298397
v 0.554056406 0.531339049 -0.87631458
v 0.551321268 0.53366679 -0.869330764
v 0.548586071 0.535994589 -0.862346888
v 0.534814894 0.55278182 -0.869000196
v 0.532065928 0.555121362 -0.861981094
v 0.526759148 0.554455459 -0.854961932
v 0.525384665 0.5556252 -0.85145241
v 0.520077884 0.554959357 -0.844433248
v 0.513587892 0.550118268 -0.840923727
v 0.509655654 0.548282623 -0.837414145
v 0.504540145 0.542271852 -0.837414145
v 0.498050123 0.537430763 -0.833904564
v 0.485582948 0.547098875 -0.845778406
v 0.480114728 0.541481555 -0.846172929
v 0.474975795 0.535443246 -0.846172929
v 0.471217602 0.528229713 -0.849698603
v 0.466078669 0.522191405 -0.849698603
v 0.462320507 0.514977872 -0.853224218
v 0.460518271 0.504236996 -0.844111741
v 0.470374316 0.485246301 -0.824302375
v 0.483982801 0.467265874 -0.79808116
v 0.478733301 0.466607183 -0.791137755
v 0.47737363 0.467764348 -0.787666023
v 0.474654287 0.470078647 -0.780722618
v 0.471934944 0.472392946 -0.773779213
v 0.475434065 0.467010945 -0.759655654
v 0.485860795 0.453063935 -0.7376194
v 0.484342366 0.453902036 -0.729386151
v 0.500621319 0.438740164 -0.703691363
v 0.497946411 0.441016644 -0.696861446
v 0.516387045 0.423107028 -0.668889999
v 0.517528832 0.427135795 -0.665503502
v 0.517344296 0.432293266 -0.658730567
v 0.51469171 0.434550762 -0.651957572
v 0.514507174 0.439708263 -0.645184636
v 0.513180912 0.440836996 -0.641798139
v 0.510528326 0.443094492 -0.635025203
v 0.51034379 0.448251992 -0.628252208
v 0.487676948 0.475491136 -0.643679678
v 0.490142673 0.477913231 -0.63880676
v 0.48615253 0.481833994 -0.633428693
v 0.485966355 0.487037957 -0.626594722
v 0.486240357 0.49772045 -0.621991575
v 0.493581533 0.487948328 -0.609051645
v 0.493395925 0.493136853 -0.60223794
v 0.494544536 0.49718982 -0.598831058
v 0.498544574 0.497087896 -0.587457359
v 0.500837624 0.499128699 -0.577964187
v 0.498667151 0.507376015 -0.578166127
v 0.502607644 0.507313371 -0.566897631
v 0.507446229 0.50608927 -0.55468595
v 0.50611943 0.507218421 -0.551298141
v 0.503953636 0.508856118 -0.543999314
v 0.501416385 0.517013013 -0.539741218
v 0.499948472 0.51775986 -0.531694651
v 0.495213836 0.522668064 -0.52712369
v 0.500065148 0.515371144 -0.512407064
v 0.497608632 0.523979902 -0.512822509
v 0.501481771 0.523952484 -0.501780033
v 0.508761704 0.519546866 -0.487188041
v 0.509964347 0.523468494 -0.4837493
v 0.508728027 0.523916662 -0.475548387
v 0.502458215 0.536858618 -0.475151181
v 0.50478369 0.539346874 -0.470540792
v 0.500320196 0.543937445 -0.46567902
v 0.494972587 0.544178486 -0.463917613
v 0.511218429 0.516207457 -0.435227036
v 0.50091362 0.534281194 -0.438898534
v 0.498280227 0.536522329 -0.432174593
v 0.494258016 0.534527719 -0.424373984
v 0.498298556 0.522815287 -0.413120538
v 0.490371585 0.53180933 -0.411764443
v 0.482509434 0.540715516 -0.410299063
v 0.485786498 0.529996336 -0.399890244
v 0.482400775 0.527222097 -0.391506106
v 0.477495313 0.526381135 -0.384642929
v 0.47164312 0.532696486 -0.381119788
v 0.489379257 0.503817499 -0.356655031
v 0.490834594 0.50091368 -0.346037716
v 0.493040919 0.497066885 -0.33472231
v 0.48117736 0.510957718 -0.337089628
v 0.485567868 0.50436151 -0.323686182
v 0.483252048 0.512103796 -0.319112897
v 0.485136002 0.515082598 -0.315059364
v 0.482678801 0.517115831 -0.30829221
v 0.476002276 0.524480164 -0.305549234
v 0.471844852 0.518458486 -0.309458882
v 0.455364794 0.526824713 -0.315947771
v 0.454229057 0.521822512 -0.310144722
v 0.480212837 0.482495695 -0.27426976
v 0.480755568 0.480799705 -0.264768034
v 0.481862962 0.484707117 -0.26148355
v 0.479516476 0.486614168 -0.254703671
v 0.476944059 0.488803446 -0.248135358
v 0.480953515 0.482780457 -0.235482603
v 0.479369998 0.489523619 -0.230228156
v 0.476803482 0.491707861 -0.223674923
v 0.4770073 0.490432203 -0.214590892
v 0.477172166 0.489207655 -0.205564111
v 0.478625447 0.486377627 -0.195391938
v 0.471374631 0.500700772 -0.199683741
v 0.470420539 0.500870168 -0.191682726
v 0.470593363 0.499632984 -0.182683662
v 0.473660707 0.494783103 -0.171121463
v 0.465115458 0.510217369 -0.172047153
v 0.467692792 0.505969703 -0.160946995
v 0.468375206 0.504095733 -0.151558429
v 0.467374623 0.504328012 -0.143673167
v 0.467746615 0.502846956 -0.134599671
v 0.46913588 0.50009805 -0.124663137
v 0.468590677 0.50550586 -0.118485771
v 0.462486625 0.519421637 -0.130216807
v 0.462486625 0.519421637 -0.130216807
v 0.459930807 0.52159673 -0.123690896
v 0.470384508 0.513219953 -0.107982859
v 0.45719716 0.528741241 -0.110639073
v 0.454641342 0.530916393 -0.104113169
v 0.452085525 0.533091545 -0.0975872576
v 0.452085525 0.533091545 -0.0975872576
v 0.452263325 0.528122187 -0.104113169
v 0.453541219 0.527034581 -0.107376121
v 0.466440052 0.506163538 -0.102962628
v 0.46561709 0.500958383 -0.097307153
v 0.463078707 0.503118634 -0.0908257663
v 0.463799626 0.50121659 -0.0815755576
v 0.462560713 0.501759231 -0.0740075931
v 0.460027397 0.503915191 -0.0675392076
v 0.457812965 0.505674183 -0.0608035885
v 0.460179716 0.501731515 -0.0502480306
v 0.458082169 0.497665375 -0.0414865166
v 0.457259744 0.497701198 -0.0336351022
v 0.456678361 0.491779983 -0.0236720853
v 0.454160601 0.49392274 -0.0172433797
v 0.451759428 0.495921195 -0.0107197789
v 0.449241817 0.498063833 -0.00429140357
v 0.450449049 0.490447164 0.00280576549
v 0.462585032 0.4862082 0.0130506344
v 0.463662297 0.490009308 0.0162457731
v 0.463746339 0.49455443 0.022843441
v 0.4659006 0.502155781 0.02923299
v 0.466683626 0.500682414 0.0340541378
v 0.4665097 0.50554359 0.0404379517
v 0.464009523 0.507671356 0.0468217619
v 0.458772033 0.508072793 0.0487009063
v 0.452594936 0.504002094 0.0516825765
v 0.457780659 0.502202332 0.0622736327
v 0.461616576 0.502061963 0.0717796609
v 0.462689251 0.505846858 0.0749611408
v 0.465709895 0.506700039 0.0838064402
v 0.465549916 0.506404042 0.0878241286
v 0.467244416 0.508902609 0.0956177413
v 0.468531936 0.512404144 0.098958604
v 0.470006406 0.509555757 0.108343832
v 0.471514314 0.51226908 0.115963325
v 0.47250703 0.51562345 0.123180561
v 0.470671922 0.516924381 0.129993856
v 0.473655254 0.517766654 0.138702467
v 0.472418547 0.518819153 0.141860172
v 0.472015262 0.518318892 0.149728477
v 0.469557136 0.520405591 0.156047806
v 0.469385237 0.525210261 0.16235739
v 0.467203647 0.526948631 0.168881238
v 0.468071461 0.524847388 0.177648947
v 0.470986545 0.525751352 0.186213031
v 0.469754666 0.526799738 0.189358473
v 0.467290878 0.52889657 0.195649371
v 0.466896385 0.528385878 0.203439921
v 0.466480792 0.533480287 0.209548652
v 0.464019001 0.53557539 0.215834469
v 0.462110728 0.536972404 0.222515941
v 0.460566431 0.537910998 0.229452372
v 0.458590031 0.539394975 0.236076504
v 0.456130356 0.54148829 0.242356896
v 0.455353558 0.541462064 0.249816447
v 0.454638451 0.541359723 0.257307172
v 0.457163036 0.537181437 0.267032892
v 0.462723374 0.53472203 0.277249247
v 0.460742354 0.536218464 0.283809245
v 0.461794317 0.539930284 0.286929339
v 0.461727709 0.539010167 0.294792801
v 0.461166739 0.538715839 0.30230388
v 0.459116518 0.54583478 0.307260126
v 0.458557695 0.54553473 0.314760864
v 0.4597103 0.543075621 0.323394537
v 0.458269805 0.549922526 0.324840009
v 0.458323121 0.548847437 0.332722545
v 0.458126396 0.548090577 0.340422451
v 0.455718189 0.555655539 0.345159858
v 0.456078589 0.554190218 0.353211015
v 0.457981914 0.550775528 0.362248957
v 0.457153916 0.556836545 0.364129335
v 0.455419093 0.558023989 0.370783687
v 0.458239138 0.553444147 0.380367041
v 0.459663957 0.556135297 0.387577057
v 0.464655071 0.554289997 0.397055477
v 0.462238729 0.556346416 0.403225183
v 0.459822416 0.558402836 0.40939492
v 0.460862488 0.562072754 0.412479788
v 0.456592083 0.566486001 0.417486429
v 0.455033213 0.567451954 0.424197435
v 0.454688519 0.572376847 0.430260181
v 0.45737803 0.567936957 0.439588189
v 0.460436702 0.568515778 0.447731644
v 0.45923236 0.569540739 0.450806826
v 0.457684636 0.570494175 0.457482368
v 0.457517147 0.575175762 0.463630348
v 0.455109328 0.57722497 0.469778329
v 0.454941809 0.581906557 0.47592634
v 0.452825248 0.583583951 0.482248425
v 0.452487707 0.582991362 0.489626229
v 0.451462209 0.589278877 0.491474122
v 0.454448283 0.584435701 0.500804007
v 0.458657473 0.583504856 0.50950706
v 0.457726479 0.583669186 0.516484261
v 0.455960393 0.584902823 0.522966743
v 0.456602037 0.589039028 0.525798738
v 0.455394506 0.589556396 0.532599628
v 0.455664247 0.593651831 0.53896296
v 0.457226068 0.590617537 0.547330856
v 0.45705983 0.595263541 0.553432107
v 0.455107391 0.596736133 0.559780061
v 0.456224084 0.599732041 0.56660068
v 0.455030203 0.600748062 0.569648981
v 0.456366181 0.597995639 0.577818692
v 0.459389091 0.598527193 0.585671961
v 0.457198292 0.600309074 0.591854572
v 0.45799771 0.603693902 0.598461092
v 0.457870275 0.603338122 0.602079034
v 0.456921697 0.603521347 0.608927727
v 0.457763821 0.606843114 0.615540683
v 0.455388218 0.608864903 0.62160641
v 0.454701573 0.60871017 0.628574014
v 0.454964697 0.613294899 0.631200314
v 0.453732699 0.613841414 0.637868822
v 0.453160733 0.61353761 0.644877493
v 0.453435898 0.617580116 0.651163459
v 0.451887965 0.618534982 0.657646239
v 0.45282647 0.616280913 0.665410161
v 0.452801466 0.620702207 0.671525359
v 0.451629877 0.621171832 0.678179562
v 0.452560008 0.61892736 0.685894549
v 0.452366292 0.623557925 0.691910684
v 0.451473802 0.624189734 0.695071697
v 0.450937837 0.623838723 0.702016532
v 0.449264675 0.624959409 0.708383799
v 0.448841602 0.629881561 0.714279294
v 0.446741432 0.631554067 0.720431209
v 0.446304083 0.631075561 0.727394164
v 0.444887578 0.631865144 0.733869612
v 0.443674713 0.632392287 0.740437448
v 0.444059163 0.636261344 0.746713638
v 0.442881942 0.637263238 0.749719501
v 0.440527499 0.639266968 0.755731225
v 0.438722134 0.640560448 0.76200211
v 0.43661806 0.642240703 0.768129468
v 0.432498902 0.641123056 0.774336576
v 0.430006355 0.64330548 0.78028065
v 0.4273673 0.645676732 0.786158323
v 0.425013691 0.647679746 0.792167902
v 0.42200008 0.6451419 0.798870027
v 0.42228502 0.643753171 0.806061208
v 0.421377987 0.643898785 0.812704086
v 0.420073569 0.644556224 0.819161892
v 0.419779181 0.643917263 0.826058209
v 0.413196295 0.645985007 0.831146538
v 0.411756247 0.647325337 0.834026575
v 0.407087415 0.646933079 0.839959979
v 0.403636903 0.650340974 0.845480025
v 0.400277704 0.648772836 0.848478138
v 0.394425482 0.649882913 0.853915513
v 0.389889538 0.649313807 0.859915078
v 0.387194812 0.652244031 0.862278283
v 0.381163716 0.653565764 0.867661715
v 0.375018716 0.655023456 0.873008311
v 0.370583206 0.654315174 0.879064381
v 0.368833452 0.656039596 0.881836712
v 0.364287674 0.655469179 0.887849271
v 0.361493915 0.653174698 0.891086638
v 0.356373549 0.653326392 0.896868169
v 0.342894226 0.659074724 0.896732926
v 0.339514643 0.657497048 0.899749219
v 0.326880962 0.661638737 0.903483689
v 0.323493123 0.660057247 0.906507373
v 0.320105255 0.658475697 0.909531057
v 0.313329518 0.655312717 0.915578485
v 0.309941679 0.653731167 0.918602169
v 0.287163466 0.670178235 0.918590069
v 0.283038616 0.67478615 0.920527339
v 0.27621001 0.671598434 0.926621914
v 0.272795737 0.670004606 0.929669142
v 0.268188 0.669426441 0.935763717
v 0.264773697 0.667832553 0.938811004
v 0.25794512 0.664644897 0.944905579
v 0.254530817 0.663051009 0.947952807
v 0.244971052 0.668434739 0.952271223
v 0.237884998 0.671241641 0.954016387
v 0.227504581 0.672266245 0.958884776
v 0.224073604 0.670664608 0.961946964
v 0.217211634 0.667461276 0.968071342
v 0.213780642 0.66585964 0.971133471
v 0.203191176 0.667467237 0.972497225
v 0.199753493 0.665862501 0.975565374
v 0.194079742 0.661630273 0.978633523
v 0.187705576 0.663475454 0.980705023
v 0.174760833 0.667741954 0.981325328
v 0.162948743 0.675899029 0.981598377
v 0.162669748 0.665686011 0.983014882
v 0.152728885 0.666342854 0.984688938
v 0.147013769 0.662079811 0.987779438
v 0.144761398 0.659433246 0.987779438
v 0.125433564 0.671182632 0.98288101
v 0.116818614 0.670179605 0.985047221
v 0.102835082 0.675280511 0.985470891
v 0.0985529199 0.67454195 0.988337219
v 0.0927789658 0.670235038 0.991459548
v 0.086036019 0.672278047 0.993538737
v 0.0803026184 0.678082764 0.998743773
v 0.0858442262 0.665873468 1.00824988
v 0.0788428485 0.662628114 1.01448119
v 0.0719693825 0.664797068 1.01654744
v 0.0550323278 0.678244352 1.01550913
v 0.057864029 0.669164479 1.02410793
v 0.0510191061 0.666030347 1.02691388
v 0.0475843437 0.664312661 1.03006589
v 0.0381464884 0.664363503 1.02858973
v 0.00116663065 0.69420594 1.02588546
v 0.00553519791 0.68380487 1.03141713
v -0.00556104816 0.690163016 1.03587472
v -0.005898125 0.685280859 1.03645658
v -0.0126520516 0.68159461 1.04288876
v -0.0143425083 0.672979712 1.04374111
v -0.0180529021 0.671507537 1.04685521
v -0.0212701149 0.664578199 1.04725826
v -0.0381615907 0.672458231 1.0437088
v -0.0448405407 0.668948829 1.0466522
v -0.0405815691 0.654234648 1.04567766
v -0.0435229316 0.652201355 1.04549551
v -0.0547119752 0.654071987 1.04007328
v -0.0613147914 0.655658066 1.04237676
v 0.557386935 0.0171043128 0.271696389
v 0.170070633 0.44532311 -0.0120536368
v 0.176254511 0.449935824 -0.0153976576
v 0.189197525 0.441367626 -0.00774266198
v 0.19685331 0.444325328 -0.00997725222
v 0.200782865 0.445846736 -0.0131584043
v 0.215807348 0.44068566 -0.00994709041
v 0.221940011 0.445260167 -0.01326341
v 0.225655749 0.446994722 -0.0165797286
v 0.233244866 0.44995144 -0.0188096371
v 0.248220608 0.444656253 -0.0154970726
v 0.255543232 0.441990852 -0.0118111847
v 0.265064895 0.44304204 -0.0167915169
v 0.278459013 0.439353347 -0.0145485699
v 0.280900091 0.442110777 -0.0145120695
v 0.286971807 0.446639806 -0.0177954342
v 0.293043524 0.451168835 -0.0210787989
v 0.297643721 0.451462507 -0.0193882193
v 0.313034445 0.445306063 -0.0154963909
v 0.319077343 0.449813604 -0.0187641717
v 0.325448215 0.448014051 -0.0156795252
v 0.330182135 0.443327665 -0.0205120333
v 0.326115668 0.442864954 -0.0260795057
v 0.330676287 0.443915457 -0.0328988582
v 0.334759682 0.445129842 -0.0358282775
v 0.341799825 0.448069125 -0.0340330005
v 0.350206822 0.450196207 -0.0396820754
v 0.353858054 0.451900661 -0.0429408178
v 0.363325804 0.452769637 -0.0477279127
v 0.364248484 0.452097923 -0.0512659438
v 0.369523883 0.452302188 -0.0574951991
v 0.373962998 0.453072667 -0.0601116344
v 0.374146163 0.453692287 -0.0685414821
v 0.379728138 0.453535676 -0.0745222196
v 0.385349721 0.453328609 -0.0804646015
v 0.386568457 0.452735633 -0.0880744234
v 0.388232142 0.451616347 -0.0953256562
v 0.390784979 0.449443758 -0.101843968
v 0.3901712 0.451025903 -0.111007534
v 0.392350048 0.449298054 -0.117851384
v 0.394707173 0.447358936 -0.12454778
v 0.397264123 0.44518286 -0.13107653
v 0.399547279 0.443331808 -0.137838066
v 0.396314621 0.441974133 -0.142917588
v 0.397933275 0.440911084 -0.150257528
v 0.343617052 0.493808448 -0.192535788
v 0.339876592 0.49206233 -0.189197406
v 0.325924397 0.501893163 -0.190052867
v 0.320027351 0.502653182 -0.188508779
v 0.312421829 0.499666035 -0.186333552
v 0.303884655 0.503477216 -0.186976209
v 0.291498572 0.505588233 -0.184286043
v 0.286602706 0.505123794 -0.181846261
v 0.267564595 0.514835477 -0.184564531
v 0.260590971 0.516720951 -0.183788419
v 0.256551594 0.515223145 -0.180594265
v 0.240438402 0.521404803 -0.180735171
v 0.233271673 0.523449481 -0.180051059
v 0.217902675 0.528665364 -0.179464534
v 0.211080402 0.530268192 -0.178449169
v 0.193997398 0.537308991 -0.179114714
v 0.185930461 0.54026103 -0.179034024
v 0.179285526 0.535832644 -0.175817683
v 0.17711468 0.532509446 -0.175551355
v 0.153200716 0.546961308 -0.181405365
v 0.150677592 0.543996632 -0.181405365
v 0.13924773 0.544439554 -0.177345529
v 0.131467625 0.541166306 -0.174941912
v 0.121279031 0.546284378 -0.176352814
v 0.109256372 0.547614455 -0.177187845
v 0.105860323 0.545566797 -0.177847609
v 0.0980491713 0.541920424 -0.170876101
v 0.0875587761 0.547250628 -0.172414094
v 0.077791743 0.546005964 -0.171430558
v 0.0663644299 0.552280605 -0.173616946
v 0.0577471256 0.549729586 -0.171713725
v 0.0497436747 0.546502471 -0.16933614
v 0.561534107 -0.00638408167 0.220254138
v 0.56453979 -0.010077944 0.229827806
v 0.562321842 -0.00819035806 0.235490993
v 0.560103953 -0.00630277256 0.241154164
v 0.559752643 -0.00640801806 0.248189554
v 0.559598446 -0.00209930842 0.253847867
v 0.558611751 0.00310144806 0.258898556
v 0.557503283 0.00404479168 0.261728823
v 0.557349086 0.00835515372 0.267389297
v 0.557811022 0.0122514805 0.26986289
v -0.425546467 0.50193125 -0.0640685111
v -0.352532953 0.447452486 -0.0186378956
v -0.337351203 0.444818735 -0.0171318687
v -0.324051797 0.443829417 -0.0167299118
v -0.321418732 0.446923316 -0.0167299118
v -0.308771133 0.446468353 -0.0166901723
v -0.294515848 0.444498658 -0.0156319346
v -0.291894525 0.447578758 -0.0156319346
v -0.273059279 0.441323221 -0.0117014572
v -0.266434878 0.446264535 -0.0152836945
v -0.259810448 0.45120582 -0.0188659318
v -0.256873518 0.453970134 -0.0186625496
v -0.239246592 0.448638558 -0.0153556401
v -0.225074202 0.446342438 -0.00972948968
v -0.221087873 0.448203325 -0.0132873114
v -0.207154229 0.446176231 -0.01219841
v -0.200591415 0.45107162 -0.0157473441
v -0.188527629 0.445255816 -0.0141483871
v -0.180596858 0.448958039 -0.0212266427
v -0.179210782 0.447778404 -0.0247657709
v -0.182202727 0.45091027 -0.0355633982
v -0.17980893 0.448770881 -0.0384595394
v -0.174448714 0.44944346 -0.0455493852
v -0.166756168 0.453094214 -0.043903809
v -0.148663342 0.446564227 -0.0310382955
v -0.143611312 0.447343826 -0.0338418111
v -0.138284311 0.448012233 -0.0408877172
v -0.134337053 0.449854881 -0.044410672
v -0.123600937 0.450777709 -0.0495713837
v -0.113820955 0.446932763 -0.0492060706
v -0.106721088 0.451185852 -0.0523140319
v -0.098446168 0.448768437 -0.0529151782
v -0.0821670741 0.444147497 -0.0542434901
v -0.0783473775 0.445886612 -0.0533842295
v 0.473240346 -0.0932948589 0.310700059
v 0.475360453 -0.0950877294 0.305016994
v 0.477563977 -0.0969630554 0.299390614
v 0.481694251 -0.1007431 0.295091242
v 0.49101451 -0.105232738 0.292980999
v -0.164840505 0.539188087 -0.168618605
v -0.16588223 0.534502864 -0.167506754
v -0.187823623 0.544670403 -0.179054677
v -0.197955072 0.542962193 -0.177750736
v -0.207995951 0.541138828 -0.176365331
v -0.209114477 0.536508024 -0.175304756
v -0.21741426 0.532971025 -0.172712043
v -0.229738563 0.533470035 -0.177491561
v -0.242435262 0.53411454 -0.177858904
v -0.248867169 0.534421742 -0.175762832
v -0.248162389 0.522344649 -0.171664044
v -0.260940015 0.52300036 -0.172043368
v -0.260320991 0.511051238 -0.168026403
v -0.278052062 0.522022665 -0.173498034
v -0.277751774 0.510379076 -0.169705227
v -0.277668834 0.498982102 -0.166071132
v -0.304121107 0.512305796 -0.17549254
v -0.306235313 0.502941906 -0.173322409
v -0.325653046 0.509534717 -0.177969247
v -0.330401361 0.502592981 -0.177540466
v -0.329883218 0.490812421 -0.173641294
v -0.34680751 0.500613332 -0.178347245
v -0.348079562 0.490476876 -0.175633743
v -0.345397264 0.476770312 -0.17034024
v -0.371861994 0.489473432 -0.179447189
v -0.367043644 0.47385478 -0.172780484
v -0.385964185 0.485226035 -0.178656965
v -0.384336293 0.472511053 -0.174084887
v -0.443056405 0.51937896 -0.200865716
v -0.443542778 0.51968199 -0.191719696
v -0.44500196 0.520856738 -0.183209389
v -0.441554129 0.517636001 -0.17159012
v -0.444504976 0.520147324 -0.164055526
v -0.447161973 0.522395432 -0.15633595
v -0.449023873 0.523931503 -0.148119971
v -0.446500182 0.521539807 -0.137175694
v -0.445639968 0.520638347 -0.127296045
v -0.440172285 0.515611053 -0.114592746
v -0.443105519 0.518107355 -0.107103243
v -0.438353121 0.513721645 -0.094911471
v -0.438165754 0.513424098 -0.0855442658
v -0.42851913 0.504657328 -0.0704629421
v -0.473314553 0.431939125 0.262421489
v -0.46909833 0.438936472 0.266201705
v -0.527727067 0.495029718 0.227251351
v -0.527389944 0.494778454 0.218675211
v -0.530986369 0.492463648 0.213834167
v -0.52811712 0.490021765 0.206508011
v -0.529774249 0.486043215 0.198244706
v -0.526903391 0.483599931 0.190914378
v -0.533150673 0.483550549 0.184701473
v -0.530275404 0.481103539 0.177359864
v -0.537166417 0.48160091 0.166378066
v -0.534581184 0.479402959 0.158867568
v -0.532228529 0.477404714 0.151234806
v -0.534423351 0.473853141 0.142627254
v -0.532082498 0.471864134 0.134977713
v -0.530970037 0.470927715 0.126678482
v -0.530979395 0.4709526 0.117775857
v -0.530454338 0.470519572 0.1091417
v -0.533379316 0.467565835 0.10455516
v -0.527795374 0.468266487 0.0971693769
v -0.526482403 0.467158347 0.0889324546
v -0.525027215 0.465928316 0.0807638988
v -0.523259163 0.464430243 0.0727576911
v -0.514857352 0.462718487 0.0669014603
v -0.513410509 0.461487114 0.0632070601
v -0.510516703 0.45902437 0.0558182672
v -0.520821452 0.462401032 0.0426090509
v -0.518727958 0.460624129 0.0347454846
v -0.521066725 0.462645501 0.0243972782
v -0.512745738 0.466529876 0.0169707034
v -0.508585215 0.468472093 0.0132574141
v -0.506333768 0.466563255 0.00545760943
v -0.500044882 0.461173803 -4.14110509e-05
v -0.510392547 0.464586645 -0.008952206
v -0.508516371 0.462999582 -0.0169898234
v -0.505601108 0.460518569 -0.0244334191
v -0.50795126 0.462567925 -0.0349317603
v -0.51328963 0.461649001 -0.0456153825
v -0.511112452 0.459801823 -0.0535215586
v -0.50985074 0.458740801 -0.0619704351
v -0.523150444 0.464621991 -0.0774182752
v -0.522039592 0.463678718 -0.0813832581
v -0.523930728 0.465317011 -0.0917625129
v -0.52580601 0.461371928 -0.100521758
v -0.519375384 0.455884278 -0.10595303
v -0.524129212 0.454395205 -0.116453588
v -0.525216222 0.45533067 -0.126420498
v -0.520797551 0.451566368 -0.13306275
v -0.523881257 0.448631942 -0.13793315
v -0.524161994 0.448873669 -0.147446156
v -0.532072067 0.450029612 -0.15997377
v -0.535248458 0.44714132 -0.16962105
v -0.53376615 0.445879817 -0.173405886
v -0.527204812 0.445885122 -0.180454582
v -0.526998639 0.440122426 -0.188022316
v -0.489117652 0.402458102 -0.172000751
v -0.489296168 0.397102714 -0.170407191
v -0.498539329 0.393910736 -0.168123305
v -0.499837816 0.384024531 -0.165540129
v -0.501380801 0.374370605 -0.163117468
v -0.505299151 0.366718113 -0.162175596
v -0.510716617 0.36031729 -0.162164718
v -0.515215695 0.3531591 -0.161586404
v -0.519338906 0.345698416 -0.16077818
v -0.516618133 0.332647532 -0.155757964
v -0.51970309 0.324381024 -0.154323801
v -0.521213889 0.314852655 -0.151928246
v -0.52640909 0.308327615 -0.151798293
v -0.527132213 0.298204511 -0.148933038
v -0.529177368 0.289171845 -0.146884635
v -0.533187807 0.281730026 -0.146041304
v -0.535962045 0.273314327 -0.144448236
v -0.536555827 0.263189077 -0.141535357
v -0.541072488 0.256188333 -0.141012058
v -0.544333279 0.248206869 -0.139729813
v -0.547481835 0.240151241 -0.13838391
v -0.543863654 0.23197414 -0.13912487
v -0.546717167 0.223722592 -0.137607828
v -0.550667524 0.216336086 -0.136757776
v -0.554731965 0.209046558 -0.135979295
v -0.55907768 0.201981127 -0.135372564
v -0.561694443 0.193600044 -0.133729234
v -0.559849262 0.18170993 -0.133938238
v -0.562478185 0.173382029 -0.132312045
v -0.570526659 0.169163838 -0.133938238
v -0.572875023 0.160641849 -0.132149473
v -0.572698951 0.150101602 -0.133368537
v -0.575362623 0.146971777 -0.133368537
v -0.579687715 0.139966205 -0.132770076
v -0.581468642 0.131081119 -0.130656779
v -0.587537766 0.125383019 -0.131102696
v -0.58906734 0.116343476 -0.128849432
v -0.588969767 0.10596621 -0.130126402
v -0.594876945 0.100164577 -0.13048172
v -0.590944886 0.0870390981 -0.129481345
v -0.596127212 0.0807317123 -0.129413173
v -0.601539373 0.074590452 -0.129481345
v -0.607951939 0.0691655874 -0.130140871
v -0.601283431 0.059194617 -0.12910156
v -0.609189808 0.0548488721 -0.130650535
v -0.618656337 0.0515939966 -0.133115575
v -0.613844812 0.0380247869 -0.131619334
v -0.616834521 0.0302035362 -0.130266532
v -0.620905161 0.0231527742 -0.129554465
v -0.625959933 0.016795421 -0.129423246
v -0.625266969 0.0111564351 -0.131917298
v -0.625877142 0.00172691047 -0.129175261
v -0.628673911 -0.00639468431 -0.132168204
v -0.634996414 -0.0118558826 -0.132788956
v -0.637790382 -0.019973211 -0.135780767
v -0.638172925 -0.0297263265 -0.13735351
v -0.642391443 -0.0317373611 -0.138287008
v -0.646215677 -0.0388944484 -0.137442961
v -0.643647492 -0.0506003425 -0.137285188
v -0.644767225 -0.0549493618 -0.140831634
v -0.544996321 -0.126221836 -0.0720819086
v -0.549418211 -0.118061103 -0.0675681531
v -0.549608588 -0.112739198 -0.0605792738
v -0.548373878 -0.113329411 -0.0555767529
v -0.548564136 -0.10801173 -0.0485934205
v -0.549890876 -0.102162085 -0.0465447456
v -0.547577143 -0.0985401496 -0.0381184183
v -0.547767401 -0.0932224616 -0.0311350878
v -0.54913491 -0.0920586661 -0.0276434198
v -0.547941983 -0.087684378 -0.0198737569
v -0.545824766 -0.08394631 -0.0115866456
v -0.54515481 -0.0794504508 -0.00838500913
v -0.544037998 -0.0797628239 0.000758074981
v -0.545702934 -0.0734433457 0.00689933589
v -0.546394885 -0.0680112019 0.00933977682
v -0.543805122 -0.0693501756 0.0192806926
v -0.544712901 -0.0635515898 0.0258462764
v -0.549506843 -0.0550628118 0.0302661993
v -0.541381776 -0.0602486469 0.043216709
v -0.543881893 -0.053567227 0.0446751565
v -0.541810036 -0.054574281 0.0542592183
v -0.543064177 -0.0485419445 0.0606292263
v -0.540761232 -0.0497183055 0.0703062564
v -0.544614971 -0.0420892797 0.07105764
v -0.539961517 -0.0449117161 0.0819836929
v -0.542498767 -0.0379896201 0.0876602903
v -0.539969146 -0.0393417925 0.0974045247
v -0.541086793 -0.0334140919 0.103840992
v -0.541515052 -0.0329093523 0.107800253
v -0.541188002 -0.0327290744 0.116336644
v -0.535392463 -0.0363795087 0.127730995
v -0.539202511 -0.0285782907 0.13274163
v -0.537562847 -0.0293260273 0.141919345
v -0.537731946 -0.028804753 0.150137603
v -0.540455103 -0.0217670072 0.155728415
v -0.540744245 -0.0211655051 0.163873166
v -0.541105092 -0.020514112 0.171969041
v -0.546051383 -0.0119066481 0.176442012
v -0.544985354 -0.0124622406 0.181121752
v -0.54534322 -0.0118170734 0.189205304
v -0.54346633 -0.0127498526 0.19840014
v -0.542129636 -0.0133023672 0.20730184
v -0.542316973 -0.00806610566 0.214178249
v -0.54501009 -0.00577414362 0.221054643
v -0.542731106 -0.00700133014 0.230381906
v -0.546543956 0.000608098519 0.231369242
v -0.54568553 0.000380611309 0.239984304
v -0.546951652 0.00165971601 0.247546837
v -0.54309541 0.00872964319 0.255160809
v -0.537149787 0.00939261168 0.260911942
v -0.536503136 0.0183776692 0.258802682
v -0.529776812 0.0231880341 0.263721049
v -0.524780691 0.0290586241 0.263721049
v -0.533902645 0.0451744795 0.256857574
v -0.529347956 0.0514080375 0.25663206
v -0.524329305 0.0573049672 0.25663206
v -0.519310713 0.0632018968 0.25663206
v -0.514292121 0.0690988302 0.25663206
v -0.511541009 0.0766745806 0.255521208
v -0.508165479 0.0791309774 0.260049313
v -0.505357206 0.0866745785 0.258966684
v -0.515313566 0.103777952 0.251619101
v -0.513566017 0.112182692 0.249998838
v -0.508515537 0.118117146 0.249998838
v -0.503656566 0.124196626 0.249904409
v -0.499771476 0.131140962 0.253463805
v -0.496370792 0.13833423 0.252650291
v -0.495760083 0.147674754 0.250456274
v -0.49188602 0.154644027 0.254013449
v -0.513039351 0.180830613 0.241060361
v -0.507961631 0.186946332 0.245225072
v -0.506423116 0.190727293 0.244725659
v -0.505328536 0.199844718 0.242743492
v -0.497592539 0.203879997 0.248224929
v -0.497505575 0.213814408 0.245742857
v -0.49030602 0.213243529 0.252221435
v -0.491089225 0.22388646 0.249310061
v -0.486464292 0.230350837 0.253254294
v -0.482808471 0.237508029 0.252535731
v -0.478761137 0.24443081 0.25619477
v -0.476517558 0.247681335 0.256040931
v -0.47660628 0.257932156 0.257654279
v -0.49118346 0.279857278 0.247899175
v -0.487419635 0.287081629 0.251430124
v -0.48365581 0.29430601 0.254961103
v -0.484858602 0.300411612 0.253092915
v -0.488844126 0.313953549 0.248564646
v -0.485065132 0.321206987 0.252109826
v -0.480978161 0.32304126 0.257083744
v -0.482822299 0.334905118 0.253616154
v -0.479038447 0.342167884 0.257165879
v -0.475254595 0.34943065 0.260715604
v -0.471470773 0.356693417 0.264265329
v -0.468883753 0.359733224 0.264265329
v -0.465099901 0.36699599 0.267815083
v -0.462169021 0.374979764 0.270944566
v -0.475354344 0.391379237 0.26316759
v -0.472478062 0.399468273 0.266279101
v -0.475127578 0.412283301 0.262405455
v -0.473921239 0.416539937 0.265983492
v -0.475533694 0.428529561 0.262616009
g path_000000
l 4 3 2 1 1251 1250 1249 1248 1247 1246 1245 1244 1243 1242 1241 1240 1239 1238
g path_000001
l 5 6 7 8
g path_000002
l 9 10 11 12 13 14 15 16 17 18 19 20 21 22 23 24 25 26 27 28 29 30 31 32 33 34 35 36 37 38
g path_000003
l 39 40 41 42 43 44 45 46 47 48 49 50 51 52 53 54 55 56 57 58 59 60 61 62 63 64 65 66 67 68 69 70 71 72 73 74 75 76 77 78 79 80 81 82 83 84 85 86 87 88 89 90 91 92 93 94 95 96 97 98 99 100 101 102 103 104 105 106 107 108 109 110 111 112 113 114 115 116 117 118 119 120 121 122 123 124 125 126 127 128 129 130 131 132 133
g path_000004
l 134 135 136 137 138 139 140 141 142 143 144 145 146 147
g path_000005
l 148 149 150 151 152
g path_000006
l 153 154 155 156
g path_000007
l 157 158
g path_000008
l 159 160 161 162 163 164 165 166 167 168 169 170 171 172 173 174 175 176 177 178 179 180 181 182
g path_000009
l 183 184 185 186 187 188 189 190 191 192 193 194 195 196 197 198 199 200 201 202 203 204 205 206 207
g path_000010
l 209 210 211 212 213 214 215 216 217 218 219 220 221 222 223 224 225 226 227 228 229 230 231 232 233 234 235 236 237 238 239 240 241 242 243 244 245 246 247 248 249 250 251 252 253 254 255 256 257 258 259 260 261 262 263 264 265 266 267 268 269 270 271 272 273 274
g path_000011
l 276 277 278 279 280 281 282 283 284 285 286 287 288 289 290 291 292 293 294 295 296 297 298 299 300 301 302 303 304 305
g path_000012
l 306 307 308 309 310 311
g path_000013
l 312 313 314 315 316 317 318 319 320 321 322 323 324 325 326 327 328
g path_000014
l 329 330 331 332
g path_000015
l 333 334 335 336
g path_000016
l 337 338 339 340 341 342 343 344 345 346 347 348 349 350 351 352 353 354 355 356 357 358 359 360 361 362 363 364 365 366 367 368 369 370 371 372 373 374 375 376 377 378 379 380 381 382
g path_000017
l 383 384 385 386 387 388 389 390 391 392 393 394 395 396 397 398 399 400 401 402 403 404 405
g path_000018
l 406 407 408 409 410 411 412 413 414 415 416 417 418 419 420
g path_000019
l 421 422 423 424 425 426 427 428 429 430 431 432 433 434 435 436 437
g path_000020
l 439 440 441 442
g path_000021
l 444 445 446 447 448 449 450 451 452 453 454 455 456 457 458 459 460 461 462 463 464 465 466 467 468 469 470 471 472 473 474 475 476 477 478 479 480 481 482 483 484 485 486 487
g path_000022
l 488 489 490 491 492 493 494 495 496 497 498 499 500 501 502 503 504
g path_000023
l 505 506 507 508 509 510 511 512 513 514 515 516
g path_000024
l 517 518 519 520 521 522 523 524 525 526 527 528 529 530
g path_000025
l 531 532 533 534 535 536 537 538 539 540 541 542 543 544 545 546 547 548 549 550 551 552 553 554 555 556
g path_000026
l 557 558 559 560 561 562
g path_000027
l 563 564
g path_000028
l 566 567 568 569 570 571 572 573 574 575 576 577 578 579 580 581 582 583 584 585 586 587 588 589 590 591 592 593 594 595 596 597 598 599 600
g path_000029
l 601 602 603 604 605 606 607 608 609 610 611 612 613
g path_000030
l 615 616 617 618 619 620 621 622 623 624 625
g path_000031
l 627 628 629 630 631 632 633 634 635 636 637 638
g path_000032
l 639 640 641 642 643 644 645 646 647 648 649 650 651 652 653 654 655 656 657 658 659 660 661 662 663 664 665 666 667 668 669 670 671 672 673 674 675 676 677
g path_000033
l 682 683
g path_000034
l 684 685 686 687 688 689 690 691 692 693 694 695 696 697 698 699 700 701 702 703 704 705 706
g path_000035
l 707 708 709 710 711 712 713 714 715 716 717 718 719 720 721 722
g path_000036
l 723 724 725 726 727 728 729 730 731 732 733
g path_000037
l 734 735 736 737 738 739
g path_000038
l 740 741 742 743 744 745 746 747 748 749 750 751 752 753 754
g path_000039
l 755 756 757 758 759 760 761 762 763 764 765
g path_000040
l 767 768 769 770
g path_000041
l 771 772 773 774 775 776
g path_000042
l 777 778 779 780 781 782 783 784 785 786 787
g path_000043
l 788 789 790 791 792 793 794 795
g path_000044
l 796 797 798 799 800 801 802 803 804 805 806 807
g path_000045
l 808 809
g path_000046
l 810 811 812 813 814 815 816 817 818 819
g path_000047
l 820 821 822 823 824 825 826 827
g path_000048
l 828 829
g path_000049
l 830 831 832 833 834 835 836
g path_000050
l 837 838 839 840 841 842 843 844 845 846 847 848
g path_000051
l 849 850 851 852
g path_000052
l 853 854 855 856 857 858 859 860
g path_000053
l 861 862 863 864 865 866 867 868 869 870 871 872 873 874 875 876 877 878 879 880 881 882 883 884 885 886 887 888
g path_000054
l 889 890 891 892 893 894 895 896 897 898 899 900 901 902 903 904 905 906 907 908
g path_000055
l 909 910 911 912 913 914 915 916 917 918 919 920 921 922 923 924 925 926 927 928 929 930 931
g path_000056
l 933 934 935 936 937 938
g path_000057
l 939 940
g path_000058
l 941 942
g path_000059
l 943 944 945 946 947 948 949 950
g path_000060
l 951 952 953 954 955 956 957 958 959 960 961 962 963 964 965 966 967 968 969 970 971 972 973 974 975 976 977 978
g path_000061
l 979 980 981 982 983 984 985 986 987 988 989
g path_000062
l 990 991 992 993 994 995 996 997 998 999 1000 1001
g path_000063
l 1002 1003 1004 1005 1006 1007 1008 1009 1010 1011 1012 1013 1014 1015 1016 1017 1018 1019 1020 1021 1022 1023 1024
g path_000064
l 1025 1026 1027 1028 1029 1030
g path_000065
l 1031 1032 1033
g path_000066
l 1034 1035 1036 1037 1038 1039 1040 1041 1042 1043 1044 1045 1046 1047 1048 1049 1050 1051 1052 1053 1054 1055 1056 1057 1058 1059 1060 1061 1062 1063 1064 1065 1066 1067 1068 1069 1070 1071 1072 1073 1074 1075 1076 1077 1078 1079 1080 1081 1082 1083 1084 1085 1086 1087 1088 1089 1090 1091 1092 1093 1094 1095 1096 1097 1098 1099 1100 1101 1102 1103 1104 1105 1106 1107 1108 1109 1110 1111 1112 1113 1114 1115 1116 1117 1118 1119 1120 1121 1122 1123 1124 1125 1126 1127 1128 1129 1130 1131 1132 1133 1134 1135 1136 1137 1138 1139 1140 1141 1142 1143 1144 1145 1146 1147 1148 1149 1150 1151 1152 1153 1154 1155 1156 1157 1158 1159 1160 1161 1162 1163 1164 1165 1166 1167 1168 1169 1170 1171 1172 1173 1174 1175 1176 1177 1178 1179 1180 1181 1182 1183 1184 1185 1186 1187 1188 1189 1190 1191 1192 1193 1194 1195 1196 1197 1198
g path_000067
l 1199 1200 1201 1202 1203 1204 1205 1206 1207 1208 1209 1210 1211 1212 1213 1214 1215 1216 1217 1218 1219 1220 1221 1222
g path_000068
l 1223 1224 1225 1226 1227 1228 1229 1230 1231 1232
g path_000069
l 1233 1234 1235 1236 1237
g path_000070
l 1252 1338 1337 1336 1335 1334 1333 1332 1331 1330 1329
g path_000071
l 1253 1254 1255 1256 1257 1258 1259 1260 1261 1262 1263 1264 1265 1266 1267 1268 1269 1270 1271 1272 1273 1274 1275 1276 1277 1278 1279 1280 1281 1282 1283 1284 1285 1286 1287 1288 1289 1290 1291 1292 1293 1294 1295 1296
g path_000072
l 1297 1298 1299 1300 1301 1302 1303 1304 1305 1306 1307 1308 1309 1310 1311 1312 1313 1314 1315
g path_000073
l 1316 1317 1318 1319 1320 1321 1322 1323 1324 1325 1326 1327 1328
g path_000074
l 1339 1419 1418 1417 1416 1415 1414 1413 1412 1411 1410 1409 1408 1407 1406
g path_000075
l 1340 1341 1342 1343 1344 1345 1346 1347 1348 1349 1350 1351 1352 1353 1354 1355 1356 1357 1358 1359 1360 1361 1362 1363 1364 1365 1366 1367 1368 1369 1370 1371 1372
g path_000076
l 1373 1374 1375 1376 1377
g path_000077
l 1378 1379
g path_000078
l 1380 1381 1382 1383 1384 1385 1386 1387 1388 1389 1390 1391 1392 1393
g path_000079
l 1394 1395 1396 1397 1398 1399 1400 1401
g path_000080
l 1402 1403 1404 1405
g path_000081
l 1421 1420 1635 1634 1633 1632 1631 1630 1629 1628 1627 1626 1625 1624 1623 1622 1621 1620 1619 1618 1617
g path_000082
l 1422 1423 1424 1425 1426 1427 1428 1429 1430 1431 1432 1433 1434 1435 1436 1437 1438 1439 1440 1441 1442 1443 1444 1445 1446 1447 1448 1449 1450 1451 1452 1453 1454 1455 1456 1457 1458 1459 1460 1461 1462 1463 1464 1465 1466 1467 1468 1469 1470 1471 1472 1473 1474
g path_000083
l 1475 1476 1477 1478 1479 1480 1481 1482 1483 1484 1485 1486 1487 1488 1489 1490 1491 1492 1493 1494 1495 1496 1497 1498 1499 1500 1501 1502 1503 1504 1505 1506 1507 1508 1509 1510 1511 1512 1513 1514 1515 1516 1517 1518 1519 1520 1521 1522 1523 1524 1525 1526 1527 1528 1529 1530 1531 1532 1533 1534
g path_000084
l 1535 1536 1537 1538 1539 1540 1541 1542 1543 1544 1545 1546 1547 1548 1549 1550 1551 1552 1553 1554 1555 1556 1557 1558 1559 1560 1561 1562 1563 1564 1565 1566 1567 1568 1569 1570 1571 1572 1573 1574 1575 1576 1577 1578 1579 1580 1581 1582 1583 1584 1585 1586 1587 1588 1589 1590 1591 1592 1593 1594 1595 1596 1597 1598 1599 1600 1601 1602 1603
g path_000085
l 1604 1605 1606 1607 1608 1609 1610 1611 1612 1613 1614 1615 1616
