# Fixed world centers; Z up; paths immutable
v 0.464757025 0.523850203 -0.0935050175
v 0.462401658 0.525644481 -0.100297198
v 0.460046321 0.52743876 -0.10708937
v 0.455445915 0.526286066 -0.113881551
v 0.453090578 0.528080344 -0.120673724
v 0.450735211 0.529874682 -0.127465904
v 0.448379874 0.531668961 -0.134258077
v 0.450735211 0.529874682 -0.127465904
v 0.453090578 0.528080344 -0.120673724
v 0.455445915 0.526286066 -0.113881551
v 0.457801282 0.524491727 -0.10708937
v 0.46015662 0.522697449 -0.100297198
v 0.463579327 0.524747312 -0.0969011113
v 0.00636800332 0.65596503 1.04481387
v 0.00655760011 0.662633061 1.04259789
v -0.00295887818 0.67446214 1.04226506
v -0.0102901096 0.681830287 1.04118299
v 0.0109264161 0.677300274 1.03488433
v 0.0453377292 0.662163556 1.03140879
v 0.0517203137 0.665614307 1.02797043
v 0.0563777313 0.669985712 1.02486408
v 0.0545307063 0.674469888 1.02267981
v 0.0691756159 0.670574725 1.01433396
v 0.0552329421 0.681358993 1.01455545
v 0.0566894338 0.684343994 1.00882053
v 0.077472724 0.68063122 0.999527395
v 0.147005558 0.648323238 0.982821822
v 0.153207764 0.651882648 0.982311785
v 0.15690352 0.656734049 0.982311785
v 0.159629956 0.662323833 0.979516447
v 0.15508166 0.667751551 0.983804345
v 0.158768654 0.672591448 0.983804345
v 0.196905017 0.660338223 0.973821759
v 0.205425918 0.659441948 0.972470522
v 0.202873662 0.667749345 0.970725596
v 0.205625862 0.673391998 0.967903852
v 0.223747984 0.668024778 0.961544096
v 0.230670601 0.671906948 0.954806089
v 0.246888474 0.667564511 0.948779881
v 0.266184121 0.665436983 0.939402938
v 0.267086506 0.668686986 0.936531723
v 0.26798892 0.671937048 0.933660567
v 0.267895669 0.67594558 0.927918136
v 0.269809306 0.678703845 0.924830794
v 0.321845978 0.660895348 0.908264577
v 0.322762758 0.664197266 0.905347526
v 0.34814319 0.659486175 0.894381583
v 0.369834214 0.652566731 0.890080035
v 0.358588725 0.658535779 0.886189222
v 0.373173535 0.655632615 0.877041996
v 0.371120185 0.65719682 0.871120811
v 0.3779127 0.658046722 0.863647878
v 0.391970605 0.651935518 0.854053199
v 0.397543311 0.65310657 0.850014985
v 0.395472825 0.654683888 0.844044268
v 0.403633237 0.654938459 0.836160004
v 0.410336018 0.652361035 0.828123212
v 0.397594303 0.655162871 0.827404141
v 0.395519286 0.656743586 0.821420372
v 0.403149754 0.653720558 0.813120246
v 0.408091724 0.651975811 0.805429161
v 0.410908014 0.651241124 0.798226416
v 0.412071109 0.65129149 0.791408718
v 0.42378968 0.646343648 0.781976819
v 0.422762841 0.647435069 0.775657117
v 0.427333236 0.645877898 0.767931759
v 0.434686303 0.643006682 0.759478152
v 0.430565327 0.641974032 0.753393829
v 0.437304854 0.639388561 0.745040357
v 0.442671835 0.637456298 0.737006724
v 0.437729478 0.636798978 0.731101632
v 0.44393298 0.634465873 0.722804546
v 0.438759387 0.633912265 0.716947854
v 0.440912664 0.633193672 0.713031054
v 0.442634225 0.63298595 0.705869973
v 0.438476592 0.63194418 0.699731529
v 0.440488219 0.631596446 0.692468047
v 0.436937869 0.629957676 0.68951875
v 0.44507429 0.626689017 0.68055135
v 0.440899462 0.625642955 0.674387515
v 0.44621399 0.623715341 0.666144252
v 0.449418187 0.622797072 0.658464253
v 0.443540454 0.622248948 0.656149507
v 0.451273769 0.619162738 0.647160053
v 0.447074294 0.618110478 0.640959859
v 0.450564951 0.617049098 0.633132696
v 0.445056438 0.616619349 0.62730056
v 0.447250336 0.616176188 0.619820416
v 0.442394465 0.61543119 0.613794625
v 0.443395883 0.615254045 0.610072076
v 0.439183861 0.614198625 0.603853285
v 0.440393209 0.614223123 0.596624434
v 0.438099086 0.612240732 0.589818418
v 0.437390655 0.612884521 0.586591482
v 0.436766088 0.610092819 0.579263926
v 0.44738546 0.605574608 0.569096446
v 0.443145871 0.604512274 0.562836945
v 0.444538802 0.604444265 0.555466056
v 0.440294743 0.603380859 0.549199998
v 0.442912996 0.602415621 0.544899404
v 0.438597351 0.601383507 0.538647711
v 0.441304356 0.600674212 0.530815184
v 0.436774492 0.599741697 0.524621785
v 0.436961293 0.599951863 0.521069288
v 0.434206098 0.598155379 0.514297664
v 0.441812068 0.595057428 0.504809976
v 0.438739479 0.593403876 0.498110652
v 0.448388934 0.589003861 0.491407245
v 0.447324246 0.590125382 0.484704584
v 0.442765176 0.589184046 0.47846657
v 0.438023031 0.588332713 0.47229147
v 0.438679397 0.588611364 0.464996666
v 0.434389889 0.587536573 0.458663493
v 0.433291793 0.588373065 0.455496907
v 0.435872614 0.587708712 0.447517246
v 0.440535247 0.582240582 0.438066691
v 0.437012225 0.580776274 0.431433827
v 0.444202125 0.577543795 0.425348043
v 0.446663171 0.576934516 0.417325079
v 0.441657871 0.576185763 0.411181688
v 0.436660349 0.575434446 0.405038744
v 0.439583808 0.574589849 0.39681077
v 0.435254425 0.573505044 0.390418708
v 0.435532033 0.57366538 0.386719972
v 0.431200862 0.572580099 0.380325258
v 0.442518085 0.56757921 0.368960351
v 0.438169509 0.566489577 0.362539947
v 0.442663461 0.564561129 0.357251346
v 0.445498824 0.563752651 0.348931819
v 0.438431263 0.564001262 0.343506098
v 0.442674726 0.562491119 0.334627151
v 0.434540689 0.563267946 0.329609722
v 0.443593621 0.559364915 0.318858594
v 0.431704342 0.562005877 0.315283477
v 0.440913767 0.557720184 0.308079332
v 0.451767683 0.55291611 0.29653573
v 0.441797823 0.554590583 0.292216182
v 0.447460562 0.552362919 0.282631844
v 0.440941453 0.552021742 0.280660182
v 0.448677987 0.548753202 0.27021721
v 0.439336687 0.550113976 0.265670598
v 0.445876062 0.547436535 0.255649596
v 0.455799192 0.543071806 0.244227976
v 0.454016775 0.544557154 0.237490252
v 0.449501008 0.543192863 0.234714285
v 0.454590917 0.54123944 0.225170627
v 0.454212844 0.542023182 0.217839032
v 0.449771374 0.540910304 0.211281493
v 0.454415232 0.539177239 0.201851875
v 0.449964672 0.538062096 0.195280939
v 0.461487591 0.532873094 0.182915092
v 0.457018912 0.531753361 0.176317394
v 0.45889616 0.531106234 0.171739101
v 0.461465061 0.530409276 0.163067058
v 0.457888365 0.528832614 0.156067625
v 0.464863986 0.525914848 0.145462707
v 0.464433908 0.522740543 0.137070939
v 0.466011465 0.522241712 0.132565901
v 0.461510003 0.521113753 0.125919804
v 0.460428476 0.522251785 0.118736885
v 0.462555438 0.517768443 0.109161764
v 0.46698457 0.516119182 0.0995102525
v 0.46362105 0.514104784 0.0961729139
v 0.459100246 0.512971997 0.0894982442
v 0.458754539 0.513735473 0.0819377154
v 0.456079394 0.511368632 0.0782868639
v 0.453772992 0.509104013 0.0706001744
v 0.449448317 0.507866085 0.0638234019
v 0.45045647 0.507641971 0.0594892539
v 0.462953806 0.505889058 0.0470061302
v 0.460625619 0.507662654 0.0402923077
v 0.45525369 0.510985851 0.0349914581
v 0.450498492 0.509955585 0.0283825938
v 0.447118491 0.507931292 0.0250289012
v 0.449823558 0.498733252 0.0177728739
v 0.445315182 0.497280449 0.014939067
v 0.436875105 0.498144418 0.0100606093
v 0.448280931 0.496908814 -0.00213592593
v 0.445944786 0.498688489 -0.008872726
v 0.448575616 0.497915268 -0.0179975238
v 0.449640304 0.502022922 -0.0253111161
v 0.448470086 0.502914369 -0.0286856294
v 0.446129709 0.504697263 -0.0354346596
v 0.458176225 0.503197134 -0.0481192991
v 0.455827415 0.504986405 -0.0548925586
v 0.451695174 0.507686377 -0.0607866682
v 0.446702063 0.510825157 -0.0662460476
v 0.452194244 0.512398541 -0.0718257129
v 0.458979934 0.509538531 -0.0831522942
v 0.456624806 0.511332631 -0.0899438113
v 0.462050438 0.509169281 -0.100650363
v 0.457288951 0.512188256 -0.106243707
v 0.456109524 0.513086796 -0.109644845
v 0.456149131 0.513664842 -0.117668077
v 0.453788608 0.515463114 -0.124475166
v 0.454032511 0.515938699 -0.13262035
v 0.453156561 0.516983747 -0.140199855
v 0.455040187 0.516628921 -0.149217293
v 0.452673852 0.518431544 -0.15604113
v 0.450307518 0.520234227 -0.162864968
v 0.448230207 0.521890402 -0.169840723
v 0.4345918 0.525312245 -0.171901166
v 0.43672365 0.524829149 -0.181091666
v 0.434360266 0.526629567 -0.187906966
v 0.43491295 0.52695024 -0.196283981
v 0.433111906 0.528465927 -0.203408778
v 0.438020945 0.526579142 -0.214162126
v 0.435650021 0.528385341 -0.220999196
v 0.433279127 0.530191481 -0.227836266
v 0.430908203 0.531997621 -0.234673321
v 0.419558078 0.534247994 -0.237812296
v 0.423906475 0.532643437 -0.248347461
v 0.430921555 0.529688656 -0.260395736
v 0.429167837 0.531183541 -0.267599761
v 0.414646953 0.535037935 -0.268922031
v 0.417812139 0.533730865 -0.274784327
v 0.475766808 0.512969077 -0.308908463
v 0.481556535 0.513917029 -0.306709886
v 0.474845409 0.52178359 -0.305809289
v 0.474236012 0.526881576 -0.312475711
v 0.470340312 0.525296569 -0.319878608
v 0.466839641 0.523199975 -0.323352009
v 0.455625236 0.529469669 -0.325277269
v 0.450160623 0.536994278 -0.329142898
v 0.440158576 0.542638719 -0.331690639
v 0.450535148 0.538053632 -0.345964521
v 0.443451166 0.542232335 -0.350179285
v 0.465838224 0.531630516 -0.371527731
v 0.471944392 0.533385754 -0.382130861
v 0.470480889 0.534434438 -0.385474026
v 0.472200423 0.538394392 -0.393532783
v 0.477769971 0.540445507 -0.403869033
v 0.471737593 0.54408592 -0.408731431
v 0.480141193 0.544421375 -0.416557491
v 0.49273029 0.543033183 -0.431119978
v 0.471261203 0.554292321 -0.426781207
v 0.466836065 0.557127357 -0.432572931
v 0.456612855 0.558335662 -0.432035238
v 0.489071816 0.547127903 -0.458670646
v 0.496929377 0.548119605 -0.470540136
v 0.493373096 0.545989692 -0.474068761
v 0.480079204 0.553202212 -0.474511236
v 0.474625409 0.552348673 -0.481123984
v 0.469228446 0.551468492 -0.487767726
v 0.474516273 0.549175978 -0.495298237
v 0.468485981 0.544390798 -0.503007948
v 0.465128869 0.546383381 -0.505204856
v 0.469316244 0.540724337 -0.517842352
v 0.463269562 0.544381976 -0.522648513
v 0.465258062 0.544037402 -0.532494903
v 0.461703479 0.546453476 -0.538860202
v 0.465972126 0.549207389 -0.548701346
v 0.467221648 0.545004249 -0.559619188
v 0.466369927 0.545752645 -0.563401043
v 0.461727202 0.544473052 -0.570584476
v 0.463936508 0.539448619 -0.57784313
v 0.458429277 0.53859508 -0.584486544
v 0.454854041 0.536453903 -0.588033974
v 0.46008569 0.534470797 -0.600131452
v 0.450892866 0.531199455 -0.605917513
v 0.457340866 0.528588355 -0.61887449
v 0.453750283 0.526437938 -0.622437179
v 0.441289663 0.524814427 -0.626069248
v 0.44362554 0.523944318 -0.631992757
v 0.438801944 0.522735655 -0.639114499
v 0.439792365 0.518566489 -0.650126278
v 0.438239932 0.51568228 -0.659464598
v 0.439318389 0.515443563 -0.664595246
v 0.434478462 0.514230788 -0.671741068
v 0.432418466 0.515904903 -0.679170787
v 0.428399533 0.513961911 -0.682459831
v 0.426338762 0.515635967 -0.689890862
v 0.421883047 0.514225602 -0.697301805
v 0.432167292 0.509566188 -0.713247001
v 0.427307814 0.508348525 -0.720421731
v 0.428006709 0.508606017 -0.729811609
v 0.430594355 0.507894337 -0.740536213
v 0.422449857 0.508051336 -0.740970254
v 0.426999956 0.506324351 -0.753097177
v 0.429797322 0.505501866 -0.764026046
v 0.429361016 0.506344795 -0.772695184
v 0.43482548 0.504154146 -0.785566092
v 0.432318121 0.506064236 -0.792796671
v 0.435923964 0.504833043 -0.804401577
v 0.433412045 0.50674665 -0.81164521
v 0.442834437 0.506916881 -0.825761616
v 0.455304772 0.505558789 -0.842121899
v 0.469318718 0.50313139 -0.855076432
v 0.480802447 0.501379132 -0.857042074
v 0.514467537 0.492520243 -0.868566215
v 0.51947403 0.493774742 -0.861174464
v 0.520755649 0.492798388 -0.857478559
v 0.525762141 0.494052887 -0.850086808
v 0.529487014 0.49628371 -0.846390963
v 0.535655141 0.50172174 -0.842695057
v 0.540541589 0.508136094 -0.842695057
v 0.544146359 0.515526831 -0.846390963
v 0.547751188 0.522917509 -0.850086808
v 0.535412252 0.533381641 -0.839662135
v 0.537725568 0.541713297 -0.847022593
v 0.536449373 0.542685509 -0.850702822
v 0.536329806 0.547823489 -0.858063281
v 0.533777416 0.549767911 -0.865423739
v 0.531224966 0.551712334 -0.872784197
v 0.528672576 0.553656757 -0.880144596
v 0.526120186 0.55560118 -0.887505054
v 0.504479647 0.566815317 -0.881053925
v 0.507569075 0.566017151 -0.892460883
v 0.502927065 0.568972766 -0.898262382
v 0.487409323 0.572512984 -0.893284798
v 0.480357975 0.576639116 -0.897272587
v 0.477377474 0.578785121 -0.904232681
v 0.472438812 0.57754761 -0.911524236
v 0.47259295 0.573824286 -0.922597289
v 0.468913078 0.571620405 -0.926248491
v 0.463352472 0.565985978 -0.930297792
v 0.454820156 0.561479032 -0.927527666
v 0.451386541 0.559156895 -0.931357503
v 0.478308737 0.537351072 -0.959834874
v 0.472628474 0.53644526 -0.966680765
v 0.470930427 0.537963986 -0.974695742
v 0.477620989 0.535299897 -0.989098132
v 0.470724583 0.534656644 -0.990371168
v 0.460190117 0.531424761 -0.990713239
v 0.454994291 0.525191128 -0.99046582
v 0.451455623 0.522877812 -0.994286001
v 0.44558388 0.516989768 -0.993517399
v 0.440332681 0.510469854 -0.988558114
v 0.442781448 0.500316143 -0.994194329
v 0.441621512 0.496138573 -0.990503728
v 0.441741407 0.490986079 -0.983122528
v 0.443618208 0.48938933 -0.975219429
v 0.445176005 0.487957925 -0.967077017
v 0.447734326 0.486009002 -0.959699512
v 0.431296319 0.493896425 -0.937957644
v 0.409791917 0.495587528 -0.916136086
v 0.40864563 0.491459101 -0.912488878
v 0.407499343 0.487330705 -0.90884167
v 0.40520677 0.479073882 -0.901547313
v 0.401286393 0.476409316 -0.895818591
v 0.400218189 0.471949577 -0.887642622
v 0.400259435 0.467196673 -0.884886146
v 0.399191588 0.462740183 -0.876713991
v 0.39679718 0.458995163 -0.867561579
v 0.393838614 0.455559582 -0.858002484
v 0.389330208 0.457686752 -0.850100279
v 0.389448136 0.452618182 -0.842839301
v 0.3976852 0.443462074 -0.846113503
v 0.388538867 0.44782117 -0.830271006
v 0.390942931 0.441522002 -0.824686944
v 0.394715667 0.434475064 -0.820090771
v 0.392319798 0.435494363 -0.813795507
v 0.388288289 0.43712309 -0.801786184
v 0.398614734 0.426520586 -0.801918447
v 0.39091897 0.430150121 -0.787292778
v 0.389456093 0.43039614 -0.777193964
v 0.391966075 0.428484052 -0.769955933
v 0.389060527 0.429516464 -0.758862317
v 0.383577943 0.431952238 -0.745970249
v 0.386077821 0.43004781 -0.738761306
v 0.388010353 0.428452194 -0.731153011
v 0.390509784 0.426548094 -0.72394526
v 0.393009245 0.424644023 -0.716737509
v 0.395508707 0.422739953 -0.709529817
v 0.398008168 0.420835853 -0.702322066
v 0.391328156 0.428345263 -0.687137485
v 0.393818945 0.426447749 -0.679954648
v 0.399555594 0.422784448 -0.674993992
v 0.402048826 0.420885116 -0.667804182
v 0.404542059 0.418985784 -0.660614431
v 0.388261437 0.43196553 -0.643535435
v 0.394987077 0.427770108 -0.63925451
v 0.402187556 0.423315227 -0.635270238
v 0.40565294 0.420889199 -0.628760338
v 0.392469853 0.431890577 -0.60957098
v 0.396911263 0.428938687 -0.603748202
v 0.399606615 0.431306303 -0.595202565
v 0.400842756 0.430364579 -0.591637909
v 0.40439263 0.427897483 -0.585216165
v 0.408143878 0.429691166 -0.577379048
v 0.411171108 0.427507699 -0.57061094
v 0.412769943 0.430461138 -0.561386764
v 0.418999553 0.42655018 -0.556689322
v 0.406870991 0.437169552 -0.543003619
v 0.410050392 0.434907645 -0.536365449
v 0.406278372 0.440725356 -0.523790777
v 0.408734143 0.438854575 -0.516709089
v 0.411189914 0.436983794 -0.509627342
v 0.413645655 0.435112983 -0.502545595
v 0.189043641 0.551662326 -0.358331263
v 0.185026959 0.550291955 -0.365231782
v 0.17813617 0.550225377 -0.366279572
v 0.170643419 0.550744653 -0.370957851
v 0.125308037 0.567861557 -0.352766991
v 0.131907061 0.564507723 -0.360986024
v 0.117613077 0.564789891 -0.362538546
v 0.108114555 0.566236198 -0.361772329
v 0.0750385597 0.576938689 -0.351011157
v 0.0696901754 0.576154947 -0.352862328
v 0.0626885593 0.576292157 -0.353624225
v 0.0540846661 0.573590398 -0.358660221
v 0.050845813 0.571650684 -0.361873865
v 0.0443681106 0.567771137 -0.368301153
v 0.0411292575 0.565831363 -0.371514827
v 0.0369589925 0.564415753 -0.374107301
v 0.00216363231 0.57654494 -0.361543626
v -0.00902669877 0.579146981 -0.359358132
v -0.0213858522 0.578497648 -0.357766449
v -0.0267952327 0.577852488 -0.359431177
v -0.0309574399 0.572765172 -0.367263556
v -0.0334796794 0.570470572 -0.370885015
v -0.0672260001 0.58223176 -0.354575187
v -0.0663371459 0.577998161 -0.360488594
v -0.0871156156 0.582404375 -0.352930307
v -0.0893497467 0.579987884 -0.356683463
v -0.0997561365 0.578428864 -0.356209934
v -0.106041186 0.574664772 -0.3624461
v -0.109698713 0.572898984 -0.361333579
v -0.114387497 0.568194807 -0.368682235
v -0.120405667 0.567835152 -0.36590758
v -0.122733809 0.561724901 -0.374918401
v -0.129191726 0.557887375 -0.377149284
v -0.131080121 0.555254996 -0.381154537
v -0.141634956 0.553890526 -0.380464047
v -0.180221915 0.573246598 -0.35444507
v -0.18813096 0.570415437 -0.355527431
v -0.19153899 0.565019429 -0.363659441
v -0.193569437 0.562354147 -0.363659441
v -0.200975627 0.559233725 -0.365085602
v -0.201790959 0.555980921 -0.369802356
v -0.212039605 0.554625809 -0.3691549
v -0.215302587 0.548964977 -0.37357074
v -0.219400093 0.547589898 -0.372062087
v -0.246416464 0.55676204 -0.359107196
v -0.256344527 0.555334032 -0.358585447
v -0.259403557 0.553501964 -0.361620694
v -0.263966322 0.548581541 -0.361215472
v -0.269030809 0.544116497 -0.364250094
v -0.271541148 0.5419361 -0.367691189
v -0.276606679 0.537470162 -0.370726407
v -0.281672239 0.533004165 -0.373761654
v -0.28673777 0.528538167 -0.376796901
v -0.291176677 0.527476549 -0.37497291
v -0.316236407 0.536000073 -0.362957329
v -0.324402571 0.533622324 -0.36359331
v -0.327432036 0.531807959 -0.366599232
v -0.332448602 0.527385175 -0.369605124
v -0.340941101 0.529058278 -0.364659339
v -0.351953983 0.528619111 -0.363073736
v -0.361598998 0.52740854 -0.366283834
v -0.364609689 0.52560544 -0.3692711
v -0.375082344 0.524878502 -0.368023932
v -0.37984845 0.524259746 -0.369641572
v -0.391450405 0.52443099 -0.371244788
v -0.398122549 0.525116742 -0.371349424
v -0.416386038 0.533649445 -0.362373292
v -0.433769673 0.537854075 -0.359280944
v -0.434788048 0.538629889 -0.362217665
v -0.44202581 0.539851129 -0.365511596
v -0.442576975 0.540391743 -0.372555435
v -0.444612294 0.541942239 -0.378424734
v -0.446120977 0.543134451 -0.384715587
v -0.448156744 0.544685304 -0.390586138
v -0.450192481 0.546236157 -0.396456689
v -0.451076359 0.547003627 -0.403259605
v -0.452499509 0.548137963 -0.409631342
v -0.452166975 0.548078597 -0.417438507
v -0.454206109 0.549632013 -0.423318833
v -0.455930591 0.550971568 -0.429457664
v -0.460228056 0.550187469 -0.435079485
v -0.457573771 0.548543632 -0.444847316
v -0.45961678 0.550099969 -0.450738758
v -0.462585628 0.548321903 -0.453684509
v -0.463823318 0.549328566 -0.460249692
v -0.464118391 0.549691856 -0.467611343
v -0.468112826 0.548690975 -0.473508894
v -0.466122389 0.54748857 -0.482822567
v -0.474213868 0.549212217 -0.48143518
v -0.471147597 0.547266304 -0.491683364
v -0.470504254 0.543073058 -0.501564205
v -0.467447281 0.541126668 -0.511869967
v -0.469891965 0.539037824 -0.519156516
v -0.469146818 0.538675845 -0.527517259
v -0.47214064 0.536882818 -0.530487835
v -0.468882442 0.534783006 -0.541061401
v -0.478224814 0.537443995 -0.542370021
v -0.482248753 0.536435664 -0.548311114
v -0.477980018 0.533548474 -0.555946171
v -0.481812298 0.53239888 -0.562077284
v -0.480637699 0.531722188 -0.570906103
v -0.482069045 0.528895855 -0.579191685
v -0.486600786 0.528224111 -0.5847224
v -0.481952786 0.525048435 -0.592801809
v -0.477107078 0.521801949 -0.605010211
v -0.481169641 0.52078402 -0.611008286
v -0.471993387 0.51450032 -0.62721622
v -0.486272186 0.520558298 -0.620005429
v -0.476485252 0.51382941 -0.636833191
v -0.45647049 0.499937147 -0.663104415
v -0.453795731 0.498192996 -0.673582017
v -0.460495919 0.498965502 -0.677299738
v -0.459463954 0.498367339 -0.686297357
v -0.457611799 0.497193784 -0.696077824
v -0.456431448 0.496492147 -0.705257475
v -0.453208655 0.494357407 -0.716370404
v -0.446020484 0.489440441 -0.731243014
v -0.464618385 0.498549074 -0.723775446
v -0.461586773 0.496478766 -0.730698228
v -0.453382999 0.490833312 -0.74661392
v -0.449294716 0.488083094 -0.758681417
v -0.448289067 0.487501204 -0.767846406
v -0.450429201 0.48913157 -0.77401793
v -0.452569366 0.490761906 -0.780189514
v -0.4547095 0.492392272 -0.786361098
v -0.453786492 0.491869271 -0.795498073
v -0.45549953 0.493199527 -0.802094698
v -0.456268579 0.493866354 -0.80961436
v -0.459785819 0.496464849 -0.814455211
v -0.46235761 0.498398721 -0.820214748
v -0.464500397 0.500031114 -0.826393962
v -0.46079275 0.50167501 -0.836332798
v -0.461947829 0.502615213 -0.843503237
v -0.462717533 0.503285468 -0.851063371
v -0.464865655 0.504921913 -0.857257962
v -0.467434913 0.506853461 -0.863031149
v -0.469582677 0.508489609 -0.869224727
v -0.473735839 0.511530995 -0.873397768
v -0.476648599 0.513703048 -0.878811181
v -0.475982368 0.517485738 -0.885774791
v -0.478894442 0.519655943 -0.89118433
v -0.484558612 0.523749292 -0.893780828
v -0.48010543 0.524818122 -0.900425613
v -0.485730082 0.528877735 -0.903047442
v -0.510555625 0.554437935 -0.881755769
v -0.509595394 0.557896256 -0.884810984
v -0.508635163 0.561354578 -0.887866139
v -0.515009284 0.56590569 -0.889587998
v -0.514627695 0.569832742 -0.896184623
v -0.524851918 0.572925687 -0.891824424
v -0.526215672 0.574018061 -0.898682714
v -0.528325677 0.575625479 -0.904767454
v -0.53593117 0.577002525 -0.907202005
v -0.534983814 0.576495409 -0.916488409
v -0.534998894 0.572544694 -0.922744691
v -0.539830387 0.567888141 -0.926056325
v -0.547913253 0.565440118 -0.921761453
v -0.552726626 0.564831436 -0.922945976
v -0.523805797 0.536459088 -0.966413856
v -0.532005012 0.538254619 -0.968271375
v -0.529517889 0.536556363 -0.975163877
v -0.526179731 0.534316242 -0.987225115
v -0.533283949 0.535334349 -0.990249515
v -0.538159728 0.534724891 -0.991422176
v -0.542780519 0.529760599 -0.99083209
v -0.547925889 0.525224209 -0.9939152
v -0.552037358 0.519898713 -0.993876815
v -0.553584278 0.512676835 -0.992386937
v -0.554203808 0.508930981 -0.989683628
v -0.554087937 0.504612029 -0.983529925
v -0.55154562 0.498559326 -0.984261334
v -0.550737679 0.497900069 -0.976635277
v -0.54930222 0.492612839 -0.971901536
v -0.59207058 0.515625 -0.92585057
v -0.593025565 0.512185574 -0.922812104
v -0.591505647 0.506894886 -0.918266058
v -0.586360395 0.498941302 -0.92179209
v -0.586261392 0.49468562 -0.915695608
v -0.585600138 0.494152218 -0.908044457
v -0.584070385 0.488855571 -0.907657504
v -0.581955373 0.487244338 -0.901558399
v -0.577567697 0.483944148 -0.897873163
v -0.575450659 0.482331365 -0.891768157
v -0.549545646 0.463038862 -0.910762131
v -0.542746067 0.457945466 -0.909497499
v -0.539190173 0.45526281 -0.904800415
v -0.537046432 0.453629702 -0.89861834
v -0.534902632 0.451996565 -0.892436326
v -0.532758892 0.450363457 -0.886254251
v -0.530615091 0.44873032 -0.880072176
v -0.528471351 0.447097212 -0.873890162
v -0.526146829 0.445329726 -0.867893755
v -0.523878694 0.443604171 -0.8618384
v -0.521634519 0.441896379 -0.855757713
v -0.518440187 0.435274839 -0.852722943
v -0.517437041 0.434491634 -0.845372081
v -0.515291154 0.432856917 -0.839183986
v -0.513494253 0.431482196 -0.832644463
v -0.513021946 0.431094617 -0.824777663
v -0.510877848 0.429461271 -0.818594754
v -0.512584507 0.43069759 -0.808572888
v -0.513350129 0.43123275 -0.799512327
v -0.511211991 0.429603934 -0.793346584
v -0.50921607 0.428081095 -0.787040532
v -0.509088635 0.427950799 -0.77889818
v -0.506835639 0.422042251 -0.774849355
v -0.504697502 0.420413435 -0.768683612
v -0.504716158 0.420395821 -0.760417342
v -0.510889351 0.42497611 -0.746192336
v -0.511333346 0.425276488 -0.737564504
v -0.509206653 0.423656374 -0.731431723
v -0.509928346 0.424164295 -0.722563267
v -0.512689352 0.42619592 -0.711762071
v -0.517836452 0.430010349 -0.698717952
v -0.515722871 0.428400218 -0.69262296
v -0.51360929 0.426790088 -0.686527967
v -0.511495709 0.425179988 -0.680432975
v -0.513326049 0.426516712 -0.670629084
v -0.511215925 0.424909204 -0.664543986
v -0.516796291 0.429048061 -0.6512779
v -0.523932695 0.434349865 -0.636614978
v -0.522622168 0.433340073 -0.629844487
v -0.521739066 0.428535342 -0.624529481
v -0.520977914 0.427951843 -0.621243596
v -0.519381881 0.42672953 -0.614742577
v -0.518778563 0.426250786 -0.607335091
v -0.521501601 0.428263515 -0.596900105
v -0.538988829 0.441334575 -0.573064446
v -0.555993617 0.454044759 -0.549794137
v -0.555897295 0.449906081 -0.543865323
v -0.560838103 0.453592479 -0.531634212
v -0.561767101 0.450246751 -0.528678477
v -0.563989639 0.451899827 -0.518936336
v -0.563893795 0.447780699 -0.513035476
v -0.567696929 0.450633138 -0.501923859
v -0.568190098 0.446969122 -0.495514572
v -0.567606449 0.446515828 -0.48834008
v -0.567168713 0.442151099 -0.482760847
v -0.566491187 0.441633523 -0.479518175
v -0.565864682 0.441150248 -0.472396791
v -0.565769196 0.437047213 -0.466519028
v -0.570029616 0.440276742 -0.455149144
v -0.569934428 0.436184615 -0.449286968
v -0.57100004 0.436994642 -0.444548965
v -0.570129693 0.436330646 -0.437688351
v -0.568933666 0.435418814 -0.431115717
v -0.568004549 0.43069759 -0.425980031
v -0.569570243 0.431893349 -0.417048961
v -0.567892015 0.430615187 -0.410906285
v -0.566485703 0.429544389 -0.404534936
v -0.566434801 0.425496727 -0.40243569
v -0.564757049 0.424219519 -0.39629519
v -0.562730372 0.42267558 -0.390450746
v -0.560703635 0.421131641 -0.384606302
v -0.558676958 0.419587702 -0.378761858
v -0.555128515 0.412862569 -0.375794947
v -0.542914152 0.395424604 -0.381626517
v -0.542353213 0.390946567 -0.379917055
v -0.543278992 0.387612373 -0.376971483
v -0.545130491 0.380943954 -0.371080399
v -0.540180743 0.368955642 -0.374608397
v -0.541109562 0.36561054 -0.371653229
v -0.543991923 0.359701008 -0.368698031
v -0.544216156 0.355776697 -0.370128334
v -0.543223083 0.346800536 -0.370377004
v -0.54460609 0.343805373 -0.367041558
v -0.548070371 0.338306725 -0.367414892
v -0.550959468 0.332383335 -0.364452809
v -0.549399078 0.322892278 -0.365169406
v -0.547036529 0.312724501 -0.366546929
v -0.548451424 0.309698701 -0.367002964
v -0.552384555 0.304535687 -0.367002964
v -0.555286109 0.298586816 -0.364028096
v -0.557047904 0.291706204 -0.361997098
v -0.553182185 0.284344673 -0.366831571
v -0.555323958 0.277683169 -0.368328273
v -0.558236241 0.271712333 -0.365342438
v -0.562183917 0.266530305 -0.365342438
v -0.564477384 0.2600438 -0.362870872
v -0.563812673 0.250999272 -0.366711229
v -0.565127552 0.243585497 -0.368913829
v -0.56804949 0.237594843 -0.36591807
v -0.570029855 0.234995216 -0.36591807
v -0.573990643 0.229795948 -0.36591807
v -0.577951431 0.224596679 -0.36591807
v -0.574416459 0.213074192 -0.368325859
v -0.577714503 0.207281128 -0.368890524
v -0.57993716 0.200553969 -0.370360047
v -0.581433475 0.193183735 -0.372445434
v -0.585122049 0.187705502 -0.372690886
v -0.587679446 0.181353539 -0.369999558
v -0.588351846 0.177584752 -0.371110737
v -0.5897488 0.170078471 -0.373294652
v -0.592632234 0.163867429 -0.374228686
v -0.596621811 0.158630431 -0.374228686
v -0.595477939 0.148815259 -0.378585666
v -0.598395586 0.142598942 -0.379504442
v -0.602395713 0.137348026 -0.379504442
v -0.606395841 0.13209711 -0.379504442
v -0.604765952 0.121739849 -0.384315759
v -0.60715276 0.114997983 -0.385705143
v -0.611165345 0.109730713 -0.385705143
v -0.615177929 0.104463436 -0.385705143
v -0.619190514 0.0991961658 -0.385705143
v -0.62069428 0.091605179 -0.387867719
v -0.620231569 0.0821656883 -0.391735852
v -0.624256313 0.0768825039 -0.391735852
v -0.628280997 0.0715993196 -0.391735852
v -0.632305741 0.0663161352 -0.391735852
v -0.636330485 0.0610329509 -0.391735852
v -0.640085816 0.0554939695 -0.391970456
v -0.63459456 0.04113435 -0.400274217
v -0.638116181 0.0353304408 -0.400728941
v -0.642158985 0.0300235339 -0.400728941
v -0.645922065 0.0244465247 -0.400974274
v -0.645915985 0.0152122686 -0.404532611
v -0.649966419 0.00989532564 -0.404532611
v -0.654016852 0.00457838271 -0.404532611
v -0.658067286 -0.000738560222 -0.404532611
v -0.660921216 -0.00723520527 -0.405591518
v -0.651823878 -0.0258179605 -0.421282262
v -0.65590173 -0.0311709531 -0.421282262
v -0.659979641 -0.0365239456 -0.421282262
v -0.664057553 -0.0418769419 -0.421282262
v -0.665899813 -0.0494805202 -0.423282474
v -0.668338418 -0.0564999059 -0.424755394
v -0.672423303 -0.0618620478 -0.424755394
v -0.674992085 -0.0687694326 -0.426119149
v -0.667937458 -0.0855387971 -0.436160266
v -0.677125812 -0.0857097134 -0.43157348
v -0.676099658 -0.0963781774 -0.436208487
v -0.679130077 -0.102591261 -0.433101505
v -0.67462039 -0.116948791 -0.440908372
v -0.678743958 -0.122361697 -0.440908372
v -0.679724157 -0.125892058 -0.4377895
v -0.680742204 -0.134568736 -0.440610081
v -0.683788419 -0.14081414 -0.437486917
v -0.680790722 -0.148556158 -0.43797338
v -0.683716416 -0.154946238 -0.434958935
v -0.682717919 -0.165518925 -0.435502768
v -0.684790015 -0.168238923 -0.435502768
v -0.686141551 -0.175998211 -0.429794222
v -0.685696781 -0.186037406 -0.429830581
v -0.686683714 -0.189591944 -0.4266904
v -0.687670648 -0.193146467 -0.423550189
v -0.688366055 -0.201993406 -0.422548503
v -0.682206273 -0.21832417 -0.427737206
v -0.683198273 -0.221897051 -0.424580783
v -0.683485746 -0.231265575 -0.42394191
v -0.685224056 -0.239063099 -0.421993762
v -0.683061957 -0.246491924 -0.425832242
v -0.685053468 -0.253664315 -0.419495881
v -0.682515681 -0.261165202 -0.41950649
v -0.682412624 -0.265595257 -0.413160205
v -0.68208468 -0.270660579 -0.411174148
v -0.683408201 -0.278598666 -0.405424923
v -0.678266287 -0.289059192 -0.407730371
v -0.677894711 -0.298932403 -0.403475076
v -0.676757216 -0.304946631 -0.402190596
v -0.677760065 -0.308558643 -0.398999631
v -0.67976588 -0.315782607 -0.392617702
v -0.672155321 -0.334335089 -0.398931831
v -0.585619867 -0.437951863 -0.477591723
v -0.590132892 -0.439082712 -0.484254926
v -0.59218663 -0.437615454 -0.491148174
v -0.594192684 -0.436202765 -0.498086244
v -0.581582785 -0.44603458 -0.516224384
v -0.574245811 -0.45483011 -0.52725774
v -0.576577902 -0.453053504 -0.533982873
v -0.581989825 -0.447766513 -0.537900746
v -0.574738979 -0.451452672 -0.551346719
v -0.577075303 -0.449672878 -0.558084011
v -0.583683372 -0.443029225 -0.560883284
v -0.572520494 -0.45070833 -0.573572695
v -0.580689192 -0.442300111 -0.57492727
v -0.583025515 -0.440520316 -0.581664622
v -0.570236504 -0.450460643 -0.600440681
v -0.572585583 -0.448671103 -0.607214868
v -0.581998527 -0.43885687 -0.607342422
v -0.572675288 -0.444839865 -0.622999609
v -0.57739383 -0.440363228 -0.627537429
v -0.583658099 -0.434130698 -0.630586445
v -0.589134514 -0.428789616 -0.634358227
v -0.572192848 -0.442960203 -0.652921379
v -0.574550748 -0.441163957 -0.659720957
v -0.577846348 -0.438304543 -0.665616572
v -0.584831953 -0.431259423 -0.667933881
v -0.58718431 -0.42946741 -0.674717426
v -0.576883316 -0.436523497 -0.69164741
v -0.579246104 -0.434723526 -0.698460996
v -0.581608891 -0.432923585 -0.705274522
v -0.584003985 -0.431086957 -0.71205616
v -0.587335706 -0.428188115 -0.71791023
v -0.590713263 -0.425236583 -0.723711252
v -0.576219738 -0.436583012 -0.740471244
v -0.578593969 -0.434774339 -0.747317791
v -0.580968201 -0.432965666 -0.754164398
v -0.583342433 -0.431156993 -0.761011004
v -0.585716665 -0.42934829 -0.767857611
v -0.585184932 -0.430835366 -0.777652383
v -0.584818125 -0.432137579 -0.787302136
v -0.583554506 -0.434459597 -0.797890484
v -0.597476602 -0.425084233 -0.795243979
v -0.594711185 -0.429124594 -0.807391346
v -0.59253633 -0.432496548 -0.818968177
v -0.601738036 -0.428476453 -0.821114659
v -0.60117662 -0.430020958 -0.831047416
v -0.601960957 -0.430031002 -0.839593112
v -0.607021153 -0.430279464 -0.84135288
v -0.600339413 -0.438842297 -0.857789278
v -0.609689355 -0.434643179 -0.859724939
v -0.614351392 -0.435811341 -0.866608083
v -0.609177649 -0.442229003 -0.876847029
v -0.613852501 -0.443400383 -0.883749068
v -0.618527293 -0.444571763 -0.890651107
v -0.616125226 -0.447822303 -0.897988319
v -0.62596041 -0.4486624 -0.90178591
v -0.62624079 -0.454954028 -0.913487196
v -0.629726589 -0.457041681 -0.916945875
v -0.633212388 -0.459129333 -0.920404494
v -0.640183985 -0.463304639 -0.927321851
v -0.643669784 -0.465392292 -0.93078053
v -0.629097521 -0.483565718 -0.956557095
v -0.62767452 -0.486251444 -0.967808366
v -0.630095065 -0.484407514 -0.974788487
v -0.629283786 -0.486376554 -0.985400617
v -0.639751673 -0.480781287 -0.985916257
v -0.644447327 -0.481484264 -0.988063931
v -0.651462317 -0.485182583 -0.990184486
v -0.657274544 -0.490306824 -0.993667126
v -0.662073553 -0.496117473 -0.993444681
v -0.666974962 -0.501802623 -0.993103981
v -0.671281755 -0.508204997 -0.993444681
v -0.672637224 -0.511830032 -0.989662945
v -0.674755573 -0.514526308 -0.985007346
v -0.674642503 -0.519385338 -0.978046596
v -0.669042766 -0.530938745 -0.977340519
v -0.668440044 -0.531119823 -0.973160982
v -0.696400166 -0.501684487 -0.934330404
v -0.70233345 -0.505415738 -0.927965164
v -0.704608023 -0.508401513 -0.927965164
v -0.709397137 -0.513513088 -0.922896087
v -0.716674745 -0.515526474 -0.91499877
v -0.717263341 -0.519449532 -0.907340348
v -0.70597887 -0.538710594 -0.917906404
v -0.705866814 -0.543527961 -0.911005318
v -0.70467025 -0.544439495 -0.907554805
v -0.706055939 -0.54155755 -0.896411538
v -0.705944061 -0.546366751 -0.889522135
v -0.701277792 -0.545197546 -0.882632673
v -0.691688418 -0.555971563 -0.883734286
v -0.683744311 -0.564692974 -0.882955611
v -0.683067739 -0.55911088 -0.876388371
v -0.678380787 -0.55793643 -0.869468451
v -0.675936997 -0.554560244 -0.86486733
v -0.662541628 -0.558278561 -0.864936054
v -0.66667974 -0.547384202 -0.857950509
v -0.658338904 -0.545431852 -0.85727191
v -0.655484736 -0.537327766 -0.855410874
v -0.652330697 -0.529604137 -0.853880525
v -0.649212778 -0.521851182 -0.852317333
v -0.645842612 -0.514941454 -0.855772674
v -0.639186382 -0.510920942 -0.853270233
v -0.631892323 -0.519120276 -0.856330574
v -0.633579731 -0.510333419 -0.842608154
v -0.633339822 -0.504388452 -0.835710883
v -0.6309461 -0.506211996 -0.828808069
v -0.635633469 -0.493932813 -0.812058508
v -0.629202783 -0.500548065 -0.809423029
v -0.647032142 -0.472767979 -0.779085159
v -0.644742072 -0.474481046 -0.772187352
v -0.645688772 -0.472367704 -0.761941791
v -0.646193981 -0.470779002 -0.752177894
v -0.644405127 -0.478011876 -0.751718938
v -0.646199524 -0.474892139 -0.740647435
v -0.64535898 -0.474893481 -0.732300699
v -0.645248652 -0.479635507 -0.725507557
v -0.647669196 -0.475771755 -0.713869512
v -0.650568187 -0.476933032 -0.704047203
v -0.650192261 -0.47688058 -0.699856758
v -0.654977262 -0.475787401 -0.688162923
v -0.655370295 -0.47432223 -0.678668201
v -0.656430304 -0.478139818 -0.675295591
v -0.654091239 -0.479921728 -0.668550372
v -0.653981686 -0.484630257 -0.661805212
v -0.653872132 -0.489338815 -0.655059993
v -0.660912812 -0.479927063 -0.639052868
v -0.658459544 -0.487924278 -0.639155388
v -0.660205364 -0.490399063 -0.630603135
v -0.6611377 -0.493842274 -0.622859538
v -0.663358688 -0.496757716 -0.622859538
v -0.661512852 -0.497950941 -0.615666926
v -0.666896999 -0.496028662 -0.603596151
v -0.664640844 -0.49771744 -0.59682858
v -0.670428097 -0.489732355 -0.582287073
v -0.670615077 -0.500115275 -0.581914961
v -0.673513114 -0.495585352 -0.570206821
v -0.674561501 -0.499361157 -0.566871166
v -0.677873135 -0.494324476 -0.554813206
v -0.675565422 -0.496082485 -0.548158467
v -0.675875425 -0.494678825 -0.539017379
v -0.671475172 -0.498964459 -0.534352124
v -0.667879403 -0.507826567 -0.530987382
v -0.669025838 -0.505407631 -0.521077633
v -0.672334254 -0.500379264 -0.509172976
v -0.668805122 -0.509670615 -0.51012522
v -0.679760158 -0.500897706 -0.493173957
v -0.680030227 -0.510591507 -0.4882375
v -0.679204643 -0.511073589 -0.484626651
v -0.678828537 -0.516023636 -0.47825256
v -0.672003448 -0.528847635 -0.477817416
v -0.673400939 -0.526613533 -0.47215271
v -0.673061669 -0.525972962 -0.463721782
v -0.670377731 -0.522649229 -0.455447406
v -0.661609232 -0.532273114 -0.45469138
v -0.66920054 -0.521993041 -0.439113379
v -0.667733014 -0.522735953 -0.431756258
v -0.670470953 -0.512861013 -0.418689579
v -0.669328153 -0.513731599 -0.415394098
v -0.652855933 -0.532670498 -0.421411991
v -0.66434443 -0.512218475 -0.400650918
v -0.662033558 -0.513990998 -0.394088924
v -0.656834722 -0.519253492 -0.390058279
v -0.66277045 -0.505593181 -0.374393314
v -0.668716073 -0.497418314 -0.360690355
v -0.671251953 -0.493358493 -0.349996597
v -0.675061285 -0.493692875 -0.344329625
v -0.67435354 -0.493541479 -0.336475819
v -0.668147385 -0.500022829 -0.333340198
v -0.66185832 -0.506600559 -0.330245823
v -0.661599636 -0.511348188 -0.323838145
v -0.663873374 -0.513540566 -0.319512039
v -0.662381649 -0.514330506 -0.312324047
v -0.66105181 -0.52037245 -0.30682224
v -0.655327559 -0.521338046 -0.305594176
v -0.650659919 -0.516575098 -0.310105026
v -0.630503595 -0.529377639 -0.319113612
v -0.635109782 -0.517905354 -0.309214801
v -0.628264308 -0.520146489 -0.30886963
v -0.612435222 -0.532579958 -0.311691672
v -0.60910517 -0.530585587 -0.308387518
v -0.598205864 -0.531613886 -0.305248648
v -0.591955364 -0.53305769 -0.304316193
v -0.634005725 -0.472219735 -0.262341201
v -0.632561505 -0.472985595 -0.255193263
v -0.632418275 -0.472222954 -0.247003391
v -0.624748051 -0.485656261 -0.246587634
v -0.626234114 -0.483438641 -0.241240636
v -0.630701661 -0.47724703 -0.229382768
v -0.628454089 -0.478959233 -0.222901449
v -0.624440491 -0.482747972 -0.217815205
v -0.625103772 -0.481038064 -0.20903863
v -0.631330252 -0.467491329 -0.194259435
v -0.642811239 -0.453114122 -0.177131772
v -0.637748718 -0.463410944 -0.174567834
v -0.630084395 -0.477249771 -0.178074971
v -0.625489175 -0.481727332 -0.17344591
v -0.616226554 -0.491689533 -0.172382772
v -0.607787192 -0.495345503 -0.169003129
v -0.594273806 -0.504917145 -0.169441268
v -0.588604391 -0.511089265 -0.169624701
v -0.577836514 -0.512036622 -0.166256458
v -0.569306195 -0.51615268 -0.166917071
v -0.557055712 -0.524105012 -0.166196242
v -0.553744376 -0.522121787 -0.16291064
v -0.536436439 -0.530471206 -0.164232552
v -0.527588248 -0.534830511 -0.164998159
v -0.515914381 -0.536571264 -0.162044778
v -0.507166743 -0.540750444 -0.162672639
v -0.495874405 -0.542405784 -0.163524508
v -0.487419188 -0.546188354 -0.163885325
v -0.473129928 -0.550715864 -0.162650287
v -0.467278749 -0.551492572 -0.161079153
v -0.455851614 -0.553123832 -0.161893979
v -0.447931617 -0.561605155 -0.163346156
v -0.44145447 -0.557609916 -0.160586447
v -0.432759434 -0.561498284 -0.160964027
v -0.416608334 -0.567822635 -0.160776019
v -0.40720284 -0.572429061 -0.161580786
v -0.396946341 -0.572505832 -0.16138263
v -0.388969809 -0.575470567 -0.161139473
v -0.370804697 -0.583768666 -0.162118196
v -0.36239481 -0.587141335 -0.162106529
v -0.353979558 -0.585033178 -0.1605196
v -0.347125053 -0.586660087 -0.159403354
v -0.326295227 -0.597598374 -0.161956266
v -0.324010104 -0.59459877 -0.161956266
v -0.310109705 -0.59790647 -0.159711316
v -0.301427186 -0.60140264 -0.159728572
v -0.281087041 -0.611892343 -0.165977478
v -0.274709195 -0.612844348 -0.164390132
v -0.25880152 -0.618070364 -0.163264051
v -0.254732162 -0.616522253 -0.160109654
v -0.247210145 -0.613127887 -0.157697409
v -0.242699116 -0.612038553 -0.154824808
v -0.236795202 -0.606918395 -0.151342154
v -0.202699184 -0.631016016 -0.161820233
v -0.194069371 -0.634166896 -0.161537811
v -0.189682618 -0.632864237 -0.158503577
v -0.174583986 -0.637172461 -0.16082406
v -0.167810336 -0.638321638 -0.159289241
v -0.15614146 -0.638974965 -0.159351766
v -0.144885197 -0.63915652 -0.15912275
v -0.137483835 -0.640888214 -0.157930866
v -0.123603523 -0.643686652 -0.159302652
v -0.114893839 -0.646707416 -0.158888295
v -0.103828482 -0.646540165 -0.158432826
v -0.0897031501 -0.64943403 -0.159852505
v -0.07704252 -0.650784075 -0.160324022
v -0.0746425167 -0.647633672 -0.160324022
v -0.0610775985 -0.649825692 -0.16131486
v -0.0542951487 -0.650747716 -0.159585699
v -0.0429460704 -0.650641859 -0.159160838
v -0.028485639 -0.653586388 -0.160602629
v -0.0255166218 -0.65095371 -0.160936311
v -0.014128767 -0.65077889 -0.160469681
v -0.000134068687 -0.653128088 -0.161548436
v -0.617287815 -0.0411975272 0.215264812
v -0.616887152 -0.0411479808 0.222033471
v -0.615563512 -0.0420050882 0.228243276
v -0.616136849 -0.0410006903 0.235571846
v -0.616042733 -0.0450441241 0.241364241
v -0.614034116 -0.0465743132 0.24715665
v -0.614441991 -0.0501234978 0.253242135
v -0.615352035 -0.0534011275 0.256137729
v -0.615257978 -0.0574436896 0.261928886
v -0.616168022 -0.0607213192 0.26482445
v -0.617988169 -0.0672765821 0.270615608
v -0.618898213 -0.0705542117 0.273511171
v -0.618804157 -0.0745967701 0.279302329
v -0.621530652 -0.0758222342 0.286704808
v -0.618062854 -0.08347518 0.287101001
v -0.610356092 -0.0953930169 0.285093218
v -0.617043734 -0.0970883071 0.293666005
v -0.616037369 -0.0978549868 0.296568215
v -0.614700615 -0.0942654386 0.303831428
v -0.611049891 -0.0974431187 0.308712095
v -0.610905766 -0.0971017182 0.315553188
v -0.607965052 -0.0951306671 0.321895629
v -0.609963655 -0.0884666592 0.327502996
v -0.601502776 -0.0920164809 0.330797672
v -0.598249197 -0.0903657675 0.33695662
v -0.598677814 -0.085525386 0.33823055
v -0.589238346 -0.0858298987 0.338627815
v -0.58352232 -0.0824296251 0.341053575
v -0.574792743 -0.0863902271 0.340834767
v -0.57795763 -0.0744778365 0.344592929
v -0.56609726 -0.0770671666 0.343741953
v -0.562253594 -0.0720216408 0.343741953
v -0.558338344 -0.0670453906 0.343703866
v -0.557858467 -0.0589584522 0.342051655
v -0.555150568 -0.0571969934 0.341632217
v -0.556774199 -0.0471098907 0.341102302
v -0.550912738 -0.0440149494 0.340023637
v -0.553982615 -0.0369299501 0.339244008
v -0.558761358 -0.0239061825 0.340404868
v -0.560636818 -0.0136860628 0.340023518
v -0.555921316 -0.00953628961 0.339541167
v -0.561193824 0.00382997491 0.340974629
v -0.559293926 0.0063239173 0.340974629
v -0.554317415 0.0102120647 0.340347797
v -0.566475511 0.030060662 0.348835826
v -0.558358908 0.0311566256 0.349917978
v -0.550641537 0.0284084473 0.35022673
v -0.544106901 0.030851312 0.348780155
v -0.538622379 0.0342780836 0.347890615
v -0.558695495 0.0609485693 0.357065618
v -0.55467695 0.0657964125 0.360291243
v -0.561478376 0.0803184733 0.365820467
v -0.556786776 0.0843725428 0.365324259
v -0.551207423 0.0877700225 0.367711604
v -0.552242637 0.0928426385 0.369224042
v -0.551877797 0.100776523 0.370977134
v -0.548434138 0.105940111 0.37112838
v -0.539938509 0.106611587 0.368663788
v -0.544900417 0.119230434 0.373162895
v -0.545115232 0.127603114 0.375198126
v -0.547825098 0.138027161 0.375201494
v -0.542787731 0.141744673 0.374518901
v -0.538954973 0.146521255 0.374458849
v -0.547249734 0.157689482 0.376384377
v -0.540765643 0.160137996 0.374951005
v -0.527320862 0.15659526 0.369941056
v -0.537961185 0.173737109 0.374020457
v -0.526032925 0.171546325 0.369789571
v -0.539561689 0.187049389 0.374405921
v -0.529953301 0.186854899 0.37136206
v -0.523918808 0.189732075 0.370163202
v -0.526425838 0.199762896 0.370055914
v -0.519763291 0.202117071 0.368532807
v -0.520108402 0.210293025 0.367314517
v -0.518333614 0.216749281 0.368300438
v -0.520949721 0.222824126 0.367303878
v -0.514309824 0.225212887 0.365788102
v -0.518528759 0.236603737 0.369843572
v -0.517280042 0.243377894 0.367812544
v -0.519982636 0.253442615 0.371082038
v -0.522589147 0.263334036 0.371032953
v -0.520759106 0.265736312 0.371032953
v -0.523499846 0.275694311 0.371056795
v -0.514307857 0.276003152 0.368218005
v -0.51808244 0.28676033 0.368770987
v -0.514912426 0.291938186 0.369017094
v -0.521108449 0.300725132 0.369881332
v -0.513318062 0.302187741 0.36775431
v -0.516019046 0.311988056 0.367762059
v -0.509296834 0.314319044 0.366181999
v 0.471378595 -0.451740384 -0.133494481
v -0.50640744 0.323491991 0.364256591
v 0.480269253 -0.442689091 -0.138671443
v 0.551270247 -0.487429261 -0.167699233
v 0.557765663 -0.481602818 -0.168356255
v 0.49746114 -0.424022436 -0.139623165
v 0.518499494 -0.429607064 -0.147723526
v 0.568437397 -0.462713689 -0.167168602
v 0.569473922 -0.452695847 -0.169681951
v 0.57531178 -0.446360826 -0.170006022
v 0.524091244 -0.396597564 -0.146011129
v 0.545914531 -0.407869756 -0.1557758
v 0.581293344 -0.423983455 -0.171077371
v 0.584378541 -0.415583014 -0.170013204
v 0.583535671 -0.404232293 -0.17157422
v 0.586488307 -0.395766079 -0.170448467
v 0.58414042 -0.388664216 -0.172553286
v 0.590323091 -0.382624865 -0.173063859
v 0.587665558 -0.37000975 -0.173701346
v 0.590637863 -0.36161539 -0.172593847
v 0.590780377 -0.351119846 -0.174643859
v 0.590049028 -0.340007633 -0.176247314
v 0.593581259 -0.337326318 -0.176731825
v 0.592001379 -0.325628847 -0.177902609
v 0.486297131 -0.238698274 -0.121837057
v 0.480067998 -0.229186103 -0.113014475
v 0.478315502 -0.222982064 -0.102071851
v 0.477333844 -0.217351973 -0.0915534571
v 0.518646359 -0.247167483 -0.103259511
v 0.518328667 -0.241917491 -0.0974327996
v 0.530904174 -0.251057565 -0.0947637185
v 0.536040127 -0.249770641 -0.0871808529
v 0.535500228 -0.244365171 -0.0812657699
v 0.540629685 -0.243079856 -0.0736924112
v 0.54881835 -0.243906692 -0.0720151141
v 0.551214159 -0.235471144 -0.0707543716
v 0.48736304 -0.180276275 -0.0376284048
v 0.489319801 -0.171904385 -0.0275582373
v 0.485807598 -0.164578706 -0.0203977935
v -0.518297374 0.543472111 0.464714974
v -0.519111454 0.547400594 0.471986055
v -0.52193594 0.549318314 0.476342797
v -0.522182107 0.549377203 0.482506335
v -0.520594597 0.55161041 0.488605797
v -0.522044718 0.552506864 0.495304078
v -0.520263195 0.551148474 0.500502825
v -0.530669749 0.56172502 0.512044072
v -0.529146671 0.560547352 0.517325461
v -0.529101491 0.560399055 0.523272336
v -0.526273847 0.561736226 0.528726578
v -0.525403261 0.561071455 0.531314373
v -0.523979187 0.559962392 0.53663069
v -0.521804988 0.558331847 0.541613519
v -0.524328291 0.563380361 0.549411774
v -0.52342099 0.562629759 0.554936469
v -0.521638513 0.561271906 0.560076594
v -0.523741603 0.566073895 0.564679205
v -0.529205799 0.569735885 0.572928548
v -0.52756995 0.568480194 0.57810235
v -0.524371743 0.569531977 0.583329916
v -0.525286496 0.57003969 0.589581013
v -0.524967849 0.569694757 0.595300257
v -0.528153002 0.575145721 0.603181541
v -0.526387572 0.573800802 0.608272672
v -0.523970068 0.575374842 0.61378926
v -0.52308768 0.57470268 0.616333723
v -0.521322966 0.573358297 0.621422648
v -0.520671487 0.57614398 0.627647877
v -0.518985033 0.574853599 0.632761776
v -0.521859944 0.580052078 0.6403808
v -0.523934126 0.581409335 0.644097567
v -0.522178233 0.580071747 0.649161041
v -0.520298839 0.581992984 0.654837132
v -0.518544078 0.58065623 0.659897387
v -0.516355336 0.57902211 0.664788187
v -0.519265592 0.58428371 0.669442892
v -0.516731083 0.582413971 0.674189746
v 0.470576376 -0.0929806381 0.300525457
v 0.474353343 -0.0957557634 0.307128668
v 0.471541286 -0.0893433988 0.317128628
v -0.51505959 0.587370276 0.69766283
v -0.509883285 0.583702683 0.701411843
v -0.513084292 0.589128315 0.706072986
v -0.511340499 0.587799907 0.711101532
v -0.512921214 0.592038393 0.717965126
v -0.511612535 0.59430635 0.723747194
v -0.511578441 0.594209969 0.726558387
v -0.50984031 0.592885911 0.731570601
v -0.510695577 0.596611023 0.738110125
v -0.508942544 0.595277131 0.7431072
v -0.506891429 0.597029448 0.748584926
v -0.505276978 0.599072576 0.754209518
v -0.504909575 0.598748803 0.756883144
v -0.503571093 0.600972354 0.762591541
v -0.501152098 0.59919095 0.767345488
v -0.500742674 0.602112293 0.770568073
v -0.498049527 0.603418589 0.775791705
v -0.496341944 0.60211575 0.780786812
v -0.495021135 0.604418576 0.783684134
v -0.49190098 0.605435729 0.788755357
v -0.490372717 0.604252636 0.793806791
v -0.487921953 0.605714917 0.7990973
v -0.485703081 0.607412696 0.801684737
v -0.482589334 0.608430982 0.806751668
v -0.479231447 0.609286964 0.811738014
v -0.477830917 0.608273268 0.814054847
v -0.474423707 0.609097242 0.819026589
v -0.470554471 0.60961628 0.823851228
v -0.4683927 0.611350477 0.826453805
v -0.464484394 0.611845255 0.83126837
v -0.461515963 0.613049388 0.833616853
v -0.458011389 0.613811195 0.838561475
v -0.452361643 0.616411686 0.843353212
v -0.450668752 0.61521256 0.845591545
v -0.445641845 0.61822319 0.850579321
v -0.4421148 0.619070888 0.852765501
v -0.435243249 0.617656529 0.856703639
v -0.433653653 0.619764566 0.859480441
v -0.425576568 0.617584229 0.863079011
v -0.423054814 0.619094491 0.865581155
v -0.417582959 0.621840358 0.870459676
v -0.414135963 0.622758865 0.87269187
v -0.406314701 0.624011576 0.876894712
v -0.4019593 0.624359965 0.878873169
v -0.398147792 0.624948204 0.883770764
v -0.396903902 0.627387702 0.883889258
v -0.38288185 0.62475276 0.886364162
v -0.379129052 0.625505328 0.888537884
v -0.370078504 0.626049399 0.892462552
v -0.367503673 0.62755096 0.894975305
v -0.364871949 0.629016936 0.897472382
v -0.360242903 0.632466257 0.899878681
v -0.350620925 0.632695496 0.903684139
v -0.345305175 0.632505715 0.905458033
v -0.334718406 0.629064023 0.905812025
v -0.325947285 0.6298756 0.909906209
v -0.323121428 0.628006697 0.9119277
v -0.317995787 0.631076455 0.917013466
v -0.312866688 0.630908132 0.921657205
v -0.310302198 0.632444024 0.924201727
v -0.306172043 0.633024812 0.926339269
v -0.300213665 0.632361114 0.930784643
v -0.29405728 0.634819269 0.935621321
v -0.291199774 0.636183739 0.938097596
v -0.288270146 0.637505293 0.940556288
v -0.276821643 0.636787057 0.944076598
v -0.271209985 0.636363685 0.948655427
v -0.268117309 0.637599349 0.951086581
v -0.26480183 0.638702869 0.95346415
v -0.256336927 0.639821768 0.957778156
v -0.251611501 0.640093625 0.959821641
v -0.242744446 0.640998065 0.964063883
v -0.237973958 0.641257286 0.966111183
v -0.23538363 0.642808676 0.968681335
v -0.221123129 0.640571356 0.971686602
v -0.216772035 0.641099453 0.973855436
v -0.212465495 0.644896269 0.9764359
v -0.20815447 0.645455778 0.97862041
v -0.195665836 0.644338727 0.982115328
v -0.186385393 0.638781548 0.982791841
v -0.184939429 0.644274712 0.986043811
v -0.177248552 0.642906725 0.987492204
v -0.170478523 0.64533031 0.989545226
v -0.160277665 0.645797908 0.990839124
v -0.15418084 0.645385742 0.992675662
v -0.157480344 0.643853247 0.995833695
v -0.155058876 0.642123938 1.00091469
v -0.147452429 0.644102633 1.00281429
v -0.146144614 0.643010557 1.00814533
v -0.135462001 0.643076777 1.01220953
v -0.131097808 0.643673956 1.01445842
v -0.134554654 0.652130842 1.01592565
v -0.128698289 0.655307412 1.01541638
v -0.116573773 0.651546657 1.0160296
v -0.111062616 0.648083925 1.02050281
v -0.109680019 0.650195837 1.02620292
v -0.0784792379 0.635589123 1.02579582
v -0.0802230909 0.639657319 1.02934253
v -0.0696689114 0.636662066 1.03322923
v -0.0659885406 0.637700498 1.03567886
v -0.0605999008 0.637790859 1.03779054
v -0.069664225 0.649174511 1.04311538
v -0.0588875376 0.64974165 1.04167616
v -0.0431984961 0.644170344 1.041767
v -0.0390164144 0.64822787 1.04447865
v -0.0398060642 0.65519917 1.04531884
v -0.0222160015 0.651950002 1.04542565
v -0.0215541758 0.658135533 1.04598069
v -0.0180289596 0.662763 1.04598069
v 0.00758519955 0.65202415 1.04423869
v 0.373755872 0.455692202 -0.0672742724
v 0.284906328 0.495248556 -0.0206135232
v 0.273878574 0.493447036 -0.0210673586
v 0.267394513 0.493207783 -0.0227151364
v 0.247187242 0.496467948 -0.0184399374
v 0.243908733 0.494504422 -0.0216929372
v 0.228770986 0.495063066 -0.0199483857
v 0.212807968 0.496125638 -0.0177404359
v 0.209550381 0.494174659 -0.0209726803
v 0.197065458 0.493365735 -0.0205168892
v 0.447104305 0.350124806 -0.155882403
v 0.454343081 0.354963601 -0.161372811
v 0.445611626 0.36890012 -0.162628174
v 0.446704865 0.372837454 -0.166106552
v 0.443035841 0.379393339 -0.167081699
v 0.441904843 0.389070481 -0.172280818
v 0.440032482 0.394356191 -0.170085207
v 0.431286812 0.403895617 -0.17244938
v 0.428635746 0.414335608 -0.176802814
v 0.420790881 0.423069626 -0.175507531
v 0.392734557 0.442150533 -0.155354142
v 0.391528517 0.446443975 -0.145461023
v 0.390812337 0.446302027 -0.137036517
v 0.390730381 0.449976325 -0.127785072
v 0.393086165 0.448181719 -0.120991647
v 0.391951859 0.448263407 -0.112392873
v 0.384694993 0.456038982 -0.103493415
v 0.383494735 0.456154794 -0.0949085206
v 0.374714196 0.460340589 -0.0824675187
v 0.372187942 0.457057744 -0.0743914843
v 0.37258935 0.456580848 -0.0706382021
g path_000000
l 17 16 15 14 1286
g path_000001
l 19 20 21 22 23 24 25
g path_000002
l 27 28 29 30 31 32
g path_000003
l 33 34 35 36
g path_000004
l 37 38 39
g path_000005
l 40 41 42 43 44
g path_000006
l 45 46
g path_000007
l 48 49 50 51 52 53 54 55 56 57 58 59 60 61 62 63 64 65 66 67 68 69 70 71 72 73 74 75 76 77 78 79 80 81 82 83 84 85 86 87 88 89 90 91 92 93 94 95 96 97 98 99 100 101 102 103 104 105 106 107 108 109 110 111 112 113 114 115 116 117 118 119 120 121 122 123 124 125 126 127 128 129 130 131 132 133 134 135 136 137 138 139 140 141 142 143 144 145 146 147 148 149 150 151 152 153 154 155 156 157 158 159 160 161 162 163 164 165 166 167 168 169 170 171 172 173 174 175 176 177 178 179 180 181 182 183 184 185 186 187 188 189 190 191 192 193 194 195 196 197 198 199 200 201 202 203 204 205 206 207 208 209 210 211 212 213 214 215 216
g path_000008
l 217 218 219 220 221 222 223 224 225 226 227
g path_000009
l 228 229 230 231 232 233 234 235
g path_000010
l 236 237 238
g path_000011
l 239 240 241 242 243 244 245 246 247 248 249 250 251 252 253 254 255 256 257 258 259 260 261 262 263 264 265 266 267 268 269 270 271 272 273 274 275 276 277 278 279 280 281 282 283 284 285 286 287 288 289
g path_000012
l 290 291 292 293 294 295 296 297 298 299 300 301 302 303 304 305 306
g path_000013
l 307 308 309 310 311 312 313 314 315 316 317 318
g path_000014
l 319 320 321 322 323 324 325 326 327 328 329 330 331 332 333 334
g path_000015
l 336 337 338 339 340 341 342 343 344 345 346 347 348 349 350 351 352 353 354 355 356 357 358 359 360 361 362 363 364 365 366 367 368 369 370
g path_000016
l 371 372 373 374
g path_000017
l 375 376 377 378 379 380 381 382 383 384 385 386 387 388 389
g path_000018
l 390 391 392 393
g path_000019
l 394 395 396 397
g path_000020
l 398 399 400 401 402 403 404 405
g path_000021
l 406 407 408 409 410 411
g path_000022
l 412 413
g path_000023
l 414 415 416 417 418 419 420 421 422 423 424
g path_000024
l 425 426 427 428 429 430 431 432 433
g path_000025
l 434 435 436 437 438 439 440 441 442 443
g path_000026
l 444 445 446 447 448 449 450 451 452 453 454 455
g path_000027
l 456 457 458 459 460 461 462 463 464 465 466 467 468 469 470 471 472 473 474 475 476 477 478 479 480 481 482 483 484 485 486 487 488 489 490 491 492 493 494 495 496 497
g path_000028
l 499 500 501 502 503 504 505 506
g path_000029
l 507 508 509 510 511 512 513 514 515 516 517 518 519 520 521 522 523 524 525 526 527 528 529 530 531 532 533
g path_000030
l 534 535 536 537 538 539 540 541 542 543 544 545 546 547
g path_000031
l 548 549 550 551 552 553 554 555 556 557 558 559 560 561 562
g path_000032
l 563 564 565 566 567 568 569 570 571 572
g path_000033
l 573 574 575 576 577 578 579 580 581 582 583 584 585 586 587 588 589 590 591 592 593 594 595 596 597 598 599 600 601 602 603 604 605 606 607 608 609 610 611 612 613 614 615 616
g path_000034
l 618 619 620 621 622 623 624 625 626 627 628 629 630 631 632 633 634 635 636 637 638 639 640 641 642 643 644 645
g path_000035
l 646 647 648 649 650 651 652 653 654 655 656 657 658 659 660 661 662 663 664 665 666 667 668 669 670 671 672 673 674 675 676 677 678 679 680 681 682 683 684 685 686 687 688 689 690 691 692 693 694 695 696 697 698 699 700 701 702 703 704 705 706 707 708 709
g path_000036
l 710 711 712 713 714 715 716 717
g path_000037
l 718 719 720 721 722 723 724 725 726 727 728 729 730 731 732 733 734 735 736 737 738 739 740 741 742 743 744 745 746 747 748 749 750
g path_000038
l 752 753 754 755
g path_000039
l 756 757 758 759 760 761 762 763 764 765
g path_000040
l 766 767 768 769 770 771 772
g path_000041
l 773 774 775 776 777 778 779 780 781 782 783
g path_000042
l 784 785 786 787 788 789 790 791 792 793 794 795 796 797 798 799 800 801 802 803 804 805 806 807 808 809 810 811
g path_000043
l 812 813 814 815 816 817 818 819 820 821 822 823 824 825 826 827
g path_000044
l 828 829 830 831 832 833
g path_000045
l 834 835 836 837 838 839 840 841 842 843 844 845 846 847 848 849 850 851 852 853 854 855 856 857 858
g path_000046
l 859 860 861 862 863 864 865 866 867 868 869 870 871 872 873 874 875 876 877 878 879 880 881 882 883 884 885 886 887 888 889 890 891 892 893 894 895
g path_000047
l 896 897 898 899 900 901 902 903 904 905 906 907 908
g path_000048
l 910 911 912
g path_000049
l 913 914 915 916 917 918 919 920 921 922 923 924 925
g path_000050
l 926 927 928 929 930 931 932
g path_000051
l 933 934 935 936 937 938 939 940 941 942
g path_000052
l 943 944 945 946 947 948 949 950 951 952 953 954 955 956 957 958 959 960 961 962 963 964 965 966 967 968 969 970 971 972 973 974
g path_000053
l 975 976 977 978
g path_000054
l 979 980 981 982 983 984 985
g path_000055
l 986 987 988 989 990 991 992 993 994 995 996 997 998 999 1000 1001 1002 1003 1004 1005 1006
g path_000056
l 1007 1008 1009 1010 1011 1012 1013 1014 1015 1016 1017 1018 1019 1020 1021 1022 1023 1024 1025 1026 1027 1028 1029 1030 1031 1032 1033 1034 1035 1036 1037 1038 1039 1040 1041 1042 1043 1044 1045 1046 1047 1048 1049 1050
g path_000057
l 1051 1052 1053 1054 1055
g path_000058
l 1056 1057 1058 1059 1060 1061 1062 1063 1064 1065 1066 1067 1068 1069 1070 1071 1072
g path_000059
l 1073 1074
g path_000060
l 1075 1076 1077 1078 1079 1080 1081 1082 1083 1084 1085 1086 1087 1088 1089 1090 1091 1092 1093 1094 1095 1096
g path_000061
l 1100 1101
g path_000062
l 1102 1103
g path_000063
l 1104 1105 1106
g path_000064
l 1109 1110 1111 1112 1113 1114 1115 1116 1117 1118 1119 1120
g path_000065
l 1121 1122 1123 1124
g path_000066
l 1125 1126 1127 1128 1129 1130 1131 1132
g path_000067
l 1133 1134 1135
g path_000068
l 1136 1137 1138 1139 1140 1141 1142
g path_000069
l 1143 1144 1145 1146 1147 1148 1149 1150 1151 1152 1153 1154 1155 1156 1157 1158 1159 1160 1161 1162 1163 1164 1165 1166 1167 1168 1169 1170 1171 1172 1173
g path_000070
l 1174 1175 1176
g path_000071
l 1177 1178 1179 1180 1181 1182 1183 1184 1185 1186 1187 1188 1189 1190 1191 1192 1193 1194 1195 1196 1197 1198 1199 1200 1201 1202 1203 1204 1205 1206 1207 1208 1209 1210 1211 1212 1213 1214 1215 1216 1217 1218 1219 1220 1221 1222 1223 1224 1225 1226 1227 1228 1229 1230 1231 1232 1233 1234 1235 1236 1237 1238 1239 1240 1241 1242 1243 1244 1245 1246 1247 1248 1249 1250 1251 1252 1253 1254 1255 1256 1257 1258 1259 1260 1261 1262 1263 1264 1265 1266 1267 1268 1269 1270 1271 1272
g path_000072
l 1273 1274 1275 1276 1277 1278 1279 1280 1281 1282
g path_000073
l 1283 1284 1285
g path_000074
l 1287 1317 1316 1315 1314 1313 1312 1311 1310 1309 1308 1307
g path_000075
l 1288 1289 1290 1291 1292 1293 1294 1295 1296
g path_000076
l 1297 1298 1299 1300 1301 1302 1303 1304 1305 1306
g path_000077
l 1 2 3 4 5 6 7 8 9 10 11 12 13 1
