# Fixed world centers; Z up; paths immutable
v -0.379118919 -0.558273852 1.00140357
v -0.38112241 -0.565474272 0.996744633
v -0.37876448 -0.57261163 0.995766103
v -0.380198479 -0.579596758 0.997204244
v -0.380759239 -0.584026933 0.992134869
v -0.382503897 -0.586822927 0.989515722
v -0.380376905 -0.589835405 0.984521985
v -0.381146997 -0.594042897 0.979371667
v -0.381833196 -0.598336816 0.974256575
v -0.382527083 -0.602621496 0.969139636
v -0.381388307 -0.604203701 0.966677964
v -0.381927639 -0.608646512 0.961627662
v -0.382522196 -0.613030255 0.956556082
v -0.3815808 -0.614406288 0.954015315
v -0.3823874 -0.618568957 0.94885689
v -0.379926503 -0.621916711 0.944023013
v -0.380764931 -0.626043737 0.938854158
v -0.382598191 -0.628740668 0.936200559
v -0.380238622 -0.631979704 0.9313308
v -0.380992293 -0.63619101 0.926201224
v -0.381857634 -0.640287101 0.921024144
v -0.380591869 -0.641992509 0.918630421
v -0.381405413 -0.64613986 0.913477719
v -0.382255107 -0.65024966 0.908309758
v -0.381035417 -0.651905715 0.905899584
v -0.381862968 -0.656036437 0.900743127
v -0.38283205 -0.660022974 0.895524383
v -0.380722344 -0.662996233 0.890564442
v -0.382577926 -0.665665865 0.887901366
v -0.380722791 -0.668380082 0.882829905
v -0.38128534 -0.672775149 0.877796948
v -0.383332521 -0.675251007 0.875046849
v -0.393542677 -0.669946253 0.865621507
v -0.395381629 -0.677197635 0.861134768
v -0.394619107 -0.678389132 0.858515501
v -0.395926982 -0.68205142 0.853127122
v -0.394754589 -0.684082329 0.847724557
v -0.382421792 -0.697253585 0.847515702
v -0.383343846 -0.701279283 0.842326343
v -0.382532179 -0.702517748 0.839743316
v -0.383443058 -0.706554234 0.834559679
v -0.380812794 -0.710031033 0.829871237
v -0.383474737 -0.711895525 0.826825857
v -0.384759098 -0.715561688 0.821465135
v -0.395379901 -0.714087725 0.812834144
v -0.39395842 -0.71592772 0.810534656
v -0.394939065 -0.719908953 0.805304646
v -0.393906265 -0.721806765 0.799837589
v -0.381952256 -0.734431505 0.799680948
v -0.382649273 -0.738669336 0.794610023
v -0.381087184 -0.740641534 0.792400479
v -0.381899029 -0.74476409 0.787276268
v -0.382820606 -0.74877888 0.782098472
v -0.380486816 -0.751944661 0.777300417
v -0.382324696 -0.75461942 0.774646878
v -0.38310501 -0.758769572 0.769541502
v -0.380985945 -0.761722863 0.764642477
v -0.382822216 -0.764398336 0.761989713
v -0.381057888 -0.767006516 0.756914794
v -0.381647438 -0.771337986 0.751909673
v -0.382419288 -0.775492013 0.746813357
v -0.383081794 -0.779750407 0.741773725
v -0.381556153 -0.781672299 0.739568651
v -0.382501721 -0.785655975 0.734386563
v -0.383032501 -0.790036738 0.729418993
v -0.381729454 -0.791741908 0.727104366
v -0.382420361 -0.795966506 0.722056985
v -0.380371004 -0.798842192 0.717143893
v -0.382320732 -0.801404119 0.71443218
v -0.383178324 -0.805467725 0.709299982
v -0.381224513 -0.80825001 0.704340458
v -0.381884664 -0.812499404 0.699314594
v -0.383725911 -0.815164208 0.696659327
v -0.381660163 -0.818050086 0.69176358
v -0.382043064 -0.822558105 0.68688947
v -0.382866353 -0.826648951 0.681780934
v -0.381508529 -0.82839632 0.679511368
v -0.38208288 -0.824861407 0.67184782
v -0.381145298 -0.826683402 0.666336656
v -0.381496519 -0.827291965 0.660116911
v -0.3807019 -0.828980803 0.654517591
v -0.37650606 -0.837800801 0.652168095
v -0.373874933 -0.848569691 0.653352201
v -0.375121921 -0.851305544 0.654031336
v -0.374748647 -0.859908104 0.653967381
v -0.376298368 -0.866218328 0.655835927
v -0.374923199 -0.871831954 0.65496242
v -0.373460382 -0.881358385 0.655498862
v -0.377281517 -0.885512412 0.656102121
v -0.375442773 -0.891505003 0.655489862
v -0.37727198 -0.897456348 0.657182157
v -0.377407372 -0.905413747 0.656832814
v -0.378539115 -0.9124403 0.65593642
v -0.378832728 -0.919712543 0.658456683
v -0.37796092 -0.924745083 0.657321036
v -0.379208237 -0.931114435 0.659307897
v -0.380563051 -0.937857568 0.658286333
v -0.380155057 -0.946151555 0.65823245
v -0.38193059 -0.948279083 0.658587694
v -0.382032067 -0.952884734 0.653991342
v -0.382128835 -0.953794956 0.648063064
v -0.381308496 -0.955519199 0.642635822
v -0.381738842 -0.956136346 0.63650775
v -0.373548448 -0.956493139 0.635428727
v -0.367155939 -0.955262661 0.633351088
v -0.359625608 -0.958274245 0.636227608
v -0.354237586 -0.955675542 0.636539698
v -0.348668575 -0.953730404 0.634014845
v -0.35898912 -0.941192508 0.623826265
v -0.35266301 -0.944127023 0.620128453
v -0.346665502 -0.942050517 0.620781898
v -0.341810346 -0.938943207 0.620781898
v -0.337884784 -0.934987962 0.620246708
v -0.335816532 -0.929325819 0.618637502
v -0.333401531 -0.923487246 0.620191872
v -0.33527872 -0.917484581 0.620676458
v -0.319969058 -0.926861167 0.634011507
v -0.317547321 -0.925311267 0.634011507
v -0.319755524 -0.915196717 0.632911623
v -0.324446619 -0.903189361 0.627411604
v -0.346451551 -0.874920905 0.61189276
v -0.25701496 -0.951545477 0.657878339
v -0.256292164 -0.952674866 0.655395627
v -0.255750328 -0.954085886 0.649902403
v -0.255256236 -0.955452919 0.644376397
v -0.252331644 -0.955345392 0.638875186
v -0.248504519 -0.956084073 0.633903384
v -0.242676988 -0.957808912 0.635951102
v -0.233808592 -0.958660066 0.638401449
v -0.227989167 -0.957089067 0.636136889
v -0.222526252 -0.955181003 0.633660138
v -0.233920515 -0.94097507 0.62245357
v -0.224734902 -0.943020165 0.61926198
v -0.222351179 -0.941494584 0.61926198
v -0.216515332 -0.939471424 0.619912386
v -0.211750254 -0.936421812 0.619912386
v -0.208932981 -0.931483984 0.618721306
v -0.204888806 -0.927298307 0.621212482
v -0.205989853 -0.918085456 0.620557547
v -0.196698636 -0.922465265 0.630643249
v -0.194317535 -0.920941353 0.630643249
v -0.192139402 -0.914930046 0.631996036
v -0.18983829 -0.912906647 0.634877264
v -0.200316042 -0.894755661 0.625567913
v -0.21271579 -0.874580145 0.615039706
v -0.20787704 -0.871483386 0.615039706
v -0.126723841 -0.945245624 0.659094512
v -0.125588372 -0.950605154 0.658359826
v -0.127660245 -0.952753723 0.655647635
v -0.127848476 -0.953367293 0.649782717
v -0.127497047 -0.954520047 0.644245088
v -0.126847997 -0.955970228 0.638887823
v -0.123040527 -0.956347466 0.636929095
v -0.115125179 -0.957012951 0.636094272
v -0.109755643 -0.955137491 0.63365984
v -0.0996458977 -0.957652807 0.637122989
v -0.0927505344 -0.957342267 0.635678589
v -0.105037123 -0.941423893 0.623440981
v -0.1003002 -0.942750633 0.62207967
v -0.0972509757 -0.942365289 0.619637191
v -0.0911673456 -0.940810442 0.620547056
v -0.0864943638 -0.937819779 0.620547056
v -0.0837895796 -0.932802796 0.619268596
v -0.0791119859 -0.929809153 0.619268596
v -0.0805291682 -0.920118451 0.618206382
v -0.0729994699 -0.923263609 0.627396524
v -0.0680041611 -0.924167573 0.632022202
v -0.0669969767 -0.91698575 0.63254714
v -0.0634453073 -0.912451982 0.634721577
v -0.0611079596 -0.910956085 0.634721577
v -0.0871499479 -0.875513971 0.614733219
v -0.0824023038 -0.872475505 0.614733219
v -0.0808145329 -0.866073251 0.612667203
v -0.0767824501 -0.861900091 0.615150928
v -0.0790906921 -0.85500443 0.615046144
v -0.0634365752 -0.867017269 0.629607022
v -0.0626892522 -0.859350264 0.629952848
v -0.058672376 -0.85519284 0.632427216
v -0.06514173 -0.844095767 0.626665413
v -0.0878945217 -0.811111093 0.608686388
v -0.08306963 -0.808023214 0.608686388
v -0.0789784342 -0.8037889 0.611206532
v -0.0791260302 -0.795226157 0.607940733
v -0.0658705607 -0.804961443 0.621049762
v -0.0584304221 -0.808658659 0.627331614
v -0.0473483093 -0.812243581 0.63442415
v -0.0365794972 -0.816190422 0.635389864
v -0.0341979712 -0.814666212 0.635389864
v -0.0294349212 -0.811617911 0.635389864
v -0.0238516368 -0.809492409 0.635932088
v -0.0184779316 -0.80713737 0.636338115
v 0.0102979979 -0.831321478 0.652292848
v 0.0157116819 -0.829125524 0.652768016
v 0.0208215266 -0.82688874 0.650111198
v 0.0258671083 -0.824575663 0.647409201
v 0.014892214 -0.808059335 0.635480344
v 0.0271503273 -0.813998759 0.637619853
v 0.0302268192 -0.813610017 0.635155499
v 0.0618203953 -0.842044234 0.65057683
v 0.0722240433 -0.85855037 0.656375766
v 0.0752421692 -0.870602131 0.65870893
v 0.0739679039 -0.87766242 0.658103347
v 0.0713615716 -0.878781796 0.657893419
v 0.0698363855 -0.885527015 0.657113433
v 0.0678298995 -0.891703486 0.656004012
v 0.0687061399 -0.90112555 0.656862736
v 0.0664179176 -0.902589977 0.656862736
v 0.0658726916 -0.910358965 0.656746745
v 0.0682591274 -0.921382964 0.658628583
v 0.0667592436 -0.92370826 0.659157276
v 0.0629004464 -0.927702069 0.656780303
v 0.065620333 -0.938994706 0.658881187
v 0.0647652596 -0.946278334 0.658547461
v 0.0625015944 -0.947727025 0.658547461
v 0.0621915683 -0.951961875 0.654211283
v 0.0630395487 -0.953531206 0.649121344
v 0.0641952828 -0.955439389 0.644239843
v 0.0640916526 -0.955963254 0.638486624
v 0.067259796 -0.955824912 0.636267781
v 0.0712518394 -0.956596375 0.634623349
v 0.0796567574 -0.957992017 0.63732785
v 0.0848626494 -0.956173718 0.634967566
v 0.0904916003 -0.954520822 0.635747671
v 0.0923279151 -0.95290941 0.632607341
v 0.0859831572 -0.942435324 0.620811164
v 0.0929097757 -0.942509294 0.619643509
v 0.0974491313 -0.939604163 0.619643509
v 0.10299059 -0.937834382 0.62036103
v 0.107527427 -0.934930861 0.62036103
v 0.112064272 -0.93202728 0.62036103
v 0.112728894 -0.924396813 0.620439887
v 0.112369396 -0.919632435 0.621417999
v 0.123691447 -0.928309739 0.630791724
v 0.120715134 -0.916461051 0.628258586
v 0.123164549 -0.91084677 0.629623055
v 0.124746256 -0.908311903 0.631997526
v 0.11588759 -0.889746666 0.622345448
v 0.115594178 -0.880828559 0.621729076
v 0.1112931 -0.867421448 0.615307927
v 0.11092405 -0.858311534 0.614625275
v 0.112924255 -0.856196165 0.617323041
v 0.122679226 -0.858817399 0.62686187
v 0.122630551 -0.854539514 0.625165522
v 0.126541942 -0.850491285 0.627574921
v 0.130453333 -0.846443057 0.629984319
v 0.116689697 -0.825615585 0.618372202
v 0.104672104 -0.802480519 0.606293797
v 0.117752753 -0.809401095 0.615340412
v 0.112747997 -0.794367671 0.611280382
v 0.13085711 -0.811871827 0.625665665
v 0.134096041 -0.806681097 0.630527973
v 0.136423305 -0.805191696 0.630527973
v 0.15223603 -0.816213071 0.635697901
v 0.156863064 -0.813251793 0.635697901
v 0.159880176 -0.812870502 0.633281052
v 0.202408433 -0.866095901 0.658681512
v 0.201048791 -0.873115599 0.658138037
v 0.198367819 -0.87403512 0.657826066
v 0.196479157 -0.880376101 0.656890869
v 0.19834286 -0.887096405 0.657057047
v 0.1968375 -0.893863559 0.656402707
v 0.19234471 -0.896738946 0.656402707
v 0.195741281 -0.905261576 0.65769136
v 0.194537058 -0.912327826 0.657252371
v 0.194641575 -0.92094332 0.657770634
v 0.193761289 -0.928340197 0.657565832
v 0.192004919 -0.93032968 0.657910526
v 0.191979393 -0.938707113 0.658326209
v 0.192120045 -0.947245121 0.658861458
v 0.189902827 -0.948664129 0.658861458
v 0.189397708 -0.952619791 0.65449512
v 0.190746069 -0.954726636 0.64986372
v 0.190365791 -0.95479244 0.64395541
v 0.191037223 -0.956100762 0.638816059
v 0.194089845 -0.955921352 0.636614501
v 0.201859221 -0.957286954 0.636281967
v 0.206965655 -0.955503404 0.633966863
v 0.210269704 -0.955384076 0.634785652
v 0.218120232 -0.956650674 0.637367249
v 0.211750299 -0.941318095 0.62352705
v 0.209914312 -0.939352036 0.619287431
v 0.219692558 -0.943164349 0.62051034
v 0.22480987 -0.941131651 0.621024847
v 0.227708325 -0.940765381 0.618703067
v 0.232153386 -0.93792057 0.618703067
v 0.235922515 -0.934019566 0.621024847
v 0.237556532 -0.927716792 0.618847787
v 0.241331995 -0.92380929 0.621173441
v 0.250025392 -0.929951489 0.631866217
v 0.251720637 -0.927670598 0.634299338
v 0.252154231 -0.919854701 0.631205797
v 0.25369975 -0.917377889 0.633525908
v 0.255356133 -0.910834491 0.634213865
v 0.232302666 -0.873374104 0.612884104
v 0.236136749 -0.869405866 0.615245879
v 0.240061998 -0.865755141 0.614781797
v 0.241635814 -0.86323297 0.617144406
v 0.246454358 -0.860322654 0.623166323
v 0.254827797 -0.866507828 0.630799711
v 0.249655664 -0.851006627 0.626178265
v 0.253155559 -0.846601069 0.628280282
v 0.253347129 -0.842474163 0.626670659
v 0.234359607 -0.809034109 0.608343482
v -0.316287041 -0.0885617808 0.16902563
v -0.317217857 -0.0878380314 0.160436943
v 0.31817919 -0.910252452 0.656184137
v 0.318200648 -0.918958843 0.656847775
v 0.322651446 -0.929136038 0.659283698
v 0.319466799 -0.933624327 0.657411277
v 0.320939571 -0.944088757 0.659216344
v 0.318786532 -0.949860513 0.658155441
v 0.316616058 -0.951249599 0.658155441
v 0.317702144 -0.953013599 0.653435349
v -0.439500391 0.00656822044 0.0482594967
v -0.439152926 -0.000271291588 0.0469625778
v -0.445116967 -0.0049060015 0.0473027751
v -0.437212378 -0.0275981929 0.0504330546
v -0.443570971 -0.0316676721 0.0504330546
v -0.44068408 -0.0415982753 0.0511529818
v -0.444451034 -0.0491779335 0.0491166562
v -0.446873575 -0.0584101677 0.0481433608
v -0.445910633 -0.0599148087 0.0448357128
v -0.435881466 -0.0789113641 0.0471887961
v -0.442920744 -0.0820356086 0.0466039069
v -0.442271054 -0.089051269 0.0455694757
v -0.444476366 -0.0987413302 0.0407232903
v -0.446665198 -0.102249138 0.0374374203
v -0.444976985 -0.110816032 0.0331981331
v -0.444808424 -0.111675791 0.0252370033
v -0.436117142 -0.110596471 0.0271700658
v -0.431573749 -0.110628322 0.0242503937
v -0.422747344 -0.109747559 0.026310917
v -0.415136814 -0.107697539 0.0233459082
v -0.404699683 -0.108858451 0.0267417207
v -0.394287229 -0.110330433 0.0260927584
v -0.384257615 -0.111354902 0.0251541194
v -0.375736475 -0.116424106 0.0255682841
v -0.37402603 -0.124756888 0.0255200937
v -0.382359296 -0.1258073 0.0278112516
v -0.388584405 -0.129791349 0.0278112516
v -0.40124014 -0.125511333 0.0265843365
v -0.407480061 -0.129504859 0.0265843365
v -0.413701057 -0.12737225 0.028096851
v -0.42120862 -0.129823968 0.0270754695
v -0.431729198 -0.128286809 0.0276640635
v -0.441621959 -0.127544522 0.0287816264
v -0.444948941 -0.129313543 0.0286259558
v -0.444475114 -0.136354119 0.0234465618
v -0.446653575 -0.139845297 0.0201762654
v -0.446066052 -0.14700909 0.0150976162
v -0.445760459 -0.153824151 0.00979962293
v -0.443520099 -0.157202408 0.0035433732
v -0.440206319 -0.155769408 -0.000342899642
v -0.433002084 -0.153253108 -0.00360915042
v -0.42042616 -0.15692398 0.00157941284
v -0.418081015 -0.154317036 -0.00309553929
v -0.405785918 -0.157714188 0.00190315978
v -0.397465259 -0.156618178 -0.000394648465
v -0.387852162 -0.157124013 -0.0016058468
v -0.379482627 -0.156117439 -0.00383905834
v -0.376540899 -0.160060778 -0.00540717551
v -0.3807289 -0.166829541 -0.00774740567
v -0.392514765 -0.163641274 -0.00838032458
v -0.394696325 -0.166763261 -0.00760789216
v -0.404616743 -0.165899351 -0.00665439386
v -0.411743253 -0.168782189 -0.00740385428
v -0.417154372 -0.167656809 -0.00526920799
v -0.425101876 -0.169567481 -0.00668442016
v -0.436341345 -0.167198643 -0.00675343303
v -0.443449706 -0.17015785 -0.00746050896
v -0.445744425 -0.17349425 -0.0108218975
v -0.44679451 -0.178666413 -0.0172037762
v -0.444761664 -0.181792989 -0.0236170273
v -0.446934223 -0.185274735 -0.0268784743
v -0.444596946 -0.188762456 -0.0330389738
v -0.443157166 -0.190828204 -0.0358934142
v -0.439087182 -0.19031392 -0.0391535759
v -0.42911154 -0.190779924 -0.0360407084
v -0.41954878 -0.191130877 -0.037299294
v -0.412813455 -0.188099965 -0.0409184918
v -0.402318865 -0.189275473 -0.0373168364
v -0.398739994 -0.188189462 -0.040964257
v -0.387407273 -0.190434709 -0.0366202965
v -0.374414623 -0.195079759 -0.0348720551
v -0.375411123 -0.188414022 -0.0424098447
v -0.374310166 -0.190400377 -0.0495615713
v -0.379853398 -0.195497811 -0.0530451536
v -0.39153102 -0.192496166 -0.0536787473
v -0.401538044 -0.191557348 -0.0528541319
v -0.404815644 -0.193348497 -0.0529952236
v -0.416759133 -0.19011876 -0.0537814461
v -0.419877648 -0.197839946 -0.0511517152
v -0.4319309 -0.188810319 -0.0546167605
v -0.435193568 -0.196361497 -0.0521128625
v -0.441594452 -0.20016712 -0.0522461943
v -0.44630447 -0.200286373 -0.0535731278
v -0.445166051 -0.202355146 -0.0607362464
v -0.447183669 -0.206387877 -0.0679306537
v -0.446342319 -0.208109304 -0.0753543451
v -0.444665909 -0.21081531 -0.082077466
v -0.440869629 -0.209967762 -0.0855832547
v -0.42923376 -0.212702021 -0.0850639194
v -0.421140283 -0.211263031 -0.0875503346
v -0.417828321 -0.209495053 -0.0873853266
v -0.621820807 0.0329742208 -0.271635741
v -0.429561734 -0.201952443 -0.102965064
v -0.436589599 -0.205063209 -0.103618607
v -0.446323693 -0.204623133 -0.102492534
v -0.609941244 -0.0241281763 -0.241147608
v -0.625637174 -0.0178830307 -0.248823419
v -0.61896807 -0.0321482196 -0.244645491
v -0.630918086 -0.0307331011 -0.253493071
v -0.60707742 -0.0648466125 -0.234655112
v -0.614828587 -0.0674087107 -0.231266648
v -0.627566099 -0.0642319247 -0.232094467
v -0.629583001 -0.0678696632 -0.230986282
v -0.62656492 -0.0836164802 -0.227151647
v -0.628349423 -0.0938093811 -0.227377117
v -0.628971756 -0.0994130448 -0.229416221
v -0.62992084 -0.110497117 -0.22893931
v -0.622645915 -0.1249917 -0.224306956
v -0.628225744 -0.130766705 -0.227744073
v -0.633805513 -0.136541709 -0.231181189
v -0.633914769 -0.142647356 -0.232778341
v -0.626528502 -0.162839651 -0.225281268
v -0.62844789 -0.166883081 -0.228397027
v -0.631518245 -0.175359994 -0.229725242
v -0.628935397 -0.184360921 -0.229039147
v -0.634329557 -0.190233484 -0.232331038
v -0.620656669 -0.217424139 -0.223760173
v -0.629995048 -0.212836638 -0.228907302
v -0.62623322 -0.228603274 -0.224485278
v -0.627321959 -0.233468592 -0.226883188
v -0.632802844 -0.239141211 -0.230259359
v -0.634149134 -0.2497385 -0.234350413
v -0.639429331 -0.24960205 -0.236081198
v -0.634629607 -0.266738772 -0.23498033
v -0.637946546 -0.268694043 -0.235063165
v -0.632350385 -0.286569506 -0.233278245
v -0.635438263 -0.294680446 -0.234644428
v -0.63362813 -0.302512944 -0.234578878
v -0.636905551 -0.310380548 -0.236107931
v -0.63608849 -0.311736524 -0.239576951
v -0.63686794 -0.31191507 -0.248565882
v -0.634922087 -0.314955503 -0.255249649
v -0.61486733 -0.342348695 -0.243724346
v -0.621130884 -0.34649381 -0.243655205
v -0.623134077 -0.350243926 -0.24679482
v -0.624211669 -0.360774755 -0.250571787
v -0.626045585 -0.364690304 -0.253564388
v -0.630930185 -0.370750487 -0.256457329
v -0.630452454 -0.377035141 -0.257473558
v -0.6174317 -0.40138492 -0.245072693
v -0.618696153 -0.4110322 -0.244885996
v -0.624013603 -0.416535676 -0.24816151
v -0.629194677 -0.416998714 -0.253997654
v -0.629433155 -0.422463626 -0.255614489
v -0.629872561 -0.432874173 -0.254724324
v -0.627093911 -0.441336751 -0.253759354
v -0.62134546 -0.457852691 -0.247589961
v -0.621539712 -0.468366295 -0.2465031
v -0.623513997 -0.477074742 -0.246939436
v -0.627277136 -0.478946984 -0.251548886
v -0.631047487 -0.480819196 -0.25616622
v -0.633118629 -0.489403993 -0.25668326
v -0.632808268 -0.500840724 -0.259208441
v -0.636326969 -0.502408803 -0.259569824
v -0.620711565 -0.528104007 -0.245003477
v -0.618568599 -0.535674751 -0.244557783
v -0.622727394 -0.542058051 -0.246872976
v -0.632506728 -0.543595314 -0.25798589
v -0.632619262 -0.548959732 -0.25946334
v -0.634913504 -0.557121277 -0.260183305
v -0.635269821 -0.562230468 -0.261866361
v -0.637102842 -0.565929234 -0.264810681
v -0.637525201 -0.566670001 -0.273170471
v -0.633527994 -0.566164911 -0.276372373
v -0.634835899 -0.570937812 -0.282868683
v -0.615703166 -0.599876344 -0.269049168
v -0.619691432 -0.600923419 -0.269870281
v -0.620498836 -0.610910177 -0.2732611
v -0.625892043 -0.610642612 -0.275297701
v -0.62750268 -0.619855106 -0.279381603
v -0.631555617 -0.626193821 -0.281607479
v -0.631572783 -0.63151437 -0.282966167
v -0.619438529 -0.652763247 -0.271209806
v -0.621153951 -0.655880332 -0.270093232
v -0.623700082 -0.663501501 -0.271032155
v -0.623606145 -0.668850601 -0.272285849
v -0.626923382 -0.676330924 -0.277814537
v -0.629011929 -0.679678023 -0.280949831
v -0.634101748 -0.684945881 -0.284085155
v -0.634536326 -0.689785302 -0.285790592
v -0.632076621 -0.701829493 -0.282404006
v -0.621803582 -0.720805228 -0.27227807
v -0.622991502 -0.729454637 -0.27205804
v -0.626967371 -0.731066585 -0.276808351
v -0.633832455 -0.730124474 -0.284056962
v -0.607878804 -0.762109935 -0.25655371
v -0.613433242 -0.766155303 -0.256276101
v -0.622241855 -0.766733587 -0.254952699
v -0.629494965 -0.764227986 -0.254799992
v -0.62881285 -0.774340093 -0.253031552
v -0.617962897 -0.793845952 -0.246403381
v -0.624091744 -0.792939186 -0.249141783
v -0.614793062 -0.810977399 -0.243826434
v -0.62264812 -0.808587372 -0.248048604
v -0.623552144 -0.817160547 -0.24764742
v -0.619316697 -0.830710948 -0.246649742
v -0.622217298 -0.832567275 -0.246649742
v -0.619975626 -0.844351232 -0.247346327
v -0.628917634 -0.8410936 -0.252507597
v -0.616179109 -0.861667871 -0.244235829
v -0.620553315 -0.867153645 -0.246808559
v -0.61987257 -0.872609138 -0.247523546
v -0.62339586 -0.878788352 -0.249371022
v -0.621141374 -0.885527134 -0.248739168
v -0.623772144 -0.892416179 -0.249826983
v -0.620298386 -0.900124192 -0.248149753
v -0.625152886 -0.905148506 -0.251140058
v -0.627010643 -0.908450663 -0.254015714
v -0.631999254 -0.913365066 -0.257120669
v -0.62888515 -0.920710623 -0.255747437
v -0.633588791 -0.925839126 -0.258611232
v -0.633830547 -0.93456459 -0.257666141
v -0.627458334 -0.944467425 -0.253506958
v -0.629531324 -0.951656163 -0.25413087
v -0.63150692 -0.954822302 -0.257096648
v -0.635735273 -0.960271835 -0.259561896
v -0.631700337 -0.968208253 -0.257392645
v -0.633258402 -0.975742579 -0.257580787
v -0.637105346 -0.9814533 -0.259725183
v -0.636120439 -0.986923873 -0.260157585
v -0.63637042 -0.995428026 -0.259233862
v -0.637378752 -0.999314845 -0.26136452
v -0.638171673 -1.00735509 -0.260906368
v -0.635474563 -1.01079392 -0.265939832
v -0.636017203 -1.01171947 -0.273751408
v -0.635634005 -1.01336491 -0.280777842
v -0.620659292 -1.03026867 -0.272768974
v -0.619882166 -1.03942966 -0.270922661
v -0.622674465 -1.04121673 -0.270922661
v -0.622146428 -1.0508182 -0.272944301
v -0.624086142 -1.05392683 -0.275856197
v -0.629691064 -1.05815303 -0.279526144
v -0.628978133 -1.063272 -0.280146182
v -0.633015335 -1.06867874 -0.282463014
v -0.632441044 -1.07367384 -0.283201128
v -0.632522762 -1.08202863 -0.282102972
v -0.62028116 -1.09571433 -0.27275461
v -0.620216548 -1.1040926 -0.271538556
v -0.621845722 -1.11118543 -0.271789044
v -0.623761415 -1.11425555 -0.274664968
v -0.634952843 -1.11429048 -0.283172011
v -0.633543909 -1.11981153 -0.283179164
v -0.637851655 -1.12491763 -0.285742015
v -0.636196852 -1.13505626 -0.286754727
v -0.637602687 -1.13849163 -0.289188415
v -0.63497448 -1.13804257 -0.296491176
v -0.635301411 -1.13850534 -0.300378025
v -0.634991944 -1.14013159 -0.307320714
v -0.636768878 -1.14024734 -0.316098064
v -0.63427031 -1.13969779 -0.323563784
v -0.634763122 -1.14074624 -0.331246465
v -0.631160498 -1.14029098 -0.334132254
v -0.626969159 -1.13718414 -0.342584521
v -0.617442548 -1.14104962 -0.340194345
v -0.605949044 -1.14259183 -0.338479221
v -0.602357924 -1.14213812 -0.34135583
v -0.591531992 -1.14322305 -0.340194732
v -0.585198522 -1.14101088 -0.343066186
v -0.573287427 -1.14293826 -0.34087348
v -0.565767586 -1.14473593 -0.336531192
v -0.559460461 -1.14253294 -0.339390725
v -0.552039862 -1.1411643 -0.341230422
v -0.545544803 -1.14223564 -0.337783664
v -0.534472167 -1.14363801 -0.336239606
v -0.523890078 -1.14469647 -0.335115016
v -0.524464369 -1.14112282 -0.341779113
v -0.5140692 -1.14205742 -0.340801597
v -0.507797837 -1.13986707 -0.343644887
v -0.504001856 -1.13894701 -0.342640817
v -0.485158414 -1.14641523 -0.333683372
v -0.481628954 -1.14596927 -0.336510569
v -0.47112155 -1.14708996 -0.335303098
v -0.463016242 -1.14637363 -0.336342037
v -0.456650406 -1.14431489 -0.339022905
v -0.453574002 -1.14288151 -0.338663459
v -0.447355628 -1.14070952 -0.341482759
v -0.443836033 -1.14026487 -0.344302028
v -0.436567396 -1.13828361 -0.342503041
v -0.426416337 -1.1392256 -0.341519266
v -0.409730077 -1.14537668 -0.334172934
v -0.416815042 -1.13652587 -0.347253233
v -0.400059879 -1.14277816 -0.339772254
v -0.389412314 -1.14420354 -0.338191897
v -0.382625133 -1.14579225 -0.334159821
v -0.376473039 -1.14364338 -0.33694908
v -0.372990966 -1.1432035 -0.339738309
v -0.366838872 -1.14105463 -0.342527539
v -0.358760595 -1.14047253 -0.343400538
v -0.352613717 -1.13832557 -0.346187413
v -0.346790344 -1.13920033 -0.343031973
v -0.34060359 -1.13709605 -0.345766306
v -0.334359795 -1.13503921 -0.348442793
v -0.3256253 -1.13835108 -0.342316955
v -0.315192431 -1.13978994 -0.340724111
v -0.296815127 -1.14787328 -0.331015885
v -0.293376297 -1.14743876 -0.333770484
v -0.286618203 -1.14588821 -0.335826278
v -0.279751122 -1.14443374 -0.337764472
v -0.271053344 -1.14785624 -0.331523716
v -0.264998525 -1.14574146 -0.334268838
v -0.26166302 -1.14523089 -0.337108761
v -0.255516708 -1.1431936 -0.339759082
v -0.249461889 -1.14107871 -0.342504203
v -0.239118233 -1.14264214 -0.340750545
v -0.2350934 -1.14216888 -0.339277864
v -0.224287957 -1.14417255 -0.336989492
v -0.227032691 -1.13842094 -0.346229881
v -0.220989928 -1.13631022 -0.348969549
v -0.213558957 -1.13540924 -0.350229353
v -0.189286336 -1.14870799 -0.32989186
v -0.185899064 -1.14827991 -0.332605153
v -0.17991443 -1.14618969 -0.335318476
v -0.173537925 -1.14444566 -0.337608367
v -0.1678873 -1.14548814 -0.334304869
v -0.161912575 -1.14340138 -0.337013692
v -0.153746501 -1.14327085 -0.337332517
v -0.152802795 -1.1406666 -0.342701077
v -0.146827355 -1.13857949 -0.345410198
v -0.140851915 -1.13649237 -0.348119348
v -0.132028699 -1.14046204 -0.341240674
v -0.124591932 -1.13972366 -0.342301279
v -0.128657252 -1.13253975 -0.353266567
v -0.117893554 -1.1348238 -0.350628674
v -0.0891731977 -1.15309656 -0.324272811
v -0.0824756995 -1.15178084 -0.326037735
v -0.0799473673 -1.15061748 -0.329614818
v -0.073801659 -1.14879537 -0.331997931
v -0.0677082613 -1.1469264 -0.334438086
v -0.0648088157 -1.14561021 -0.334047526
v -0.0589198507 -1.14355326 -0.336717457
v -0.0530308895 -1.14149642 -0.339387387
v -0.049697753 -1.14107525 -0.342057317
v -0.0438087918 -1.1390183 -0.344727248
v -0.0379198268 -1.13696146 -0.347397178
v -0.0266324468 -1.14363039 -0.337250084
v -0.0135843595 -1.14844537 -0.331522405
v -0.0125046102 -1.14589739 -0.336775929
v -0.00443774648 -1.14598751 -0.336818546
v 0.00140301534 -1.14394748 -0.339466631
v 0.00724377716 -1.14190745 -0.342114717
v 0.0154513977 -1.1457938 -0.335381657
v 0.0212747399 -1.14375973 -0.338021845
v 0.0270980839 -1.14172578 -0.340662003
v 0.0296254344 -1.14010835 -0.340662003
v 0.0417358428 -1.14427054 -0.335733891
v 0.0484683327 -1.14316249 -0.337242514
v 0.0445765257 -1.13563228 -0.348572344
v 0.0575525872 -1.14072144 -0.342502564
v 0.0633535311 -1.13869524 -0.345132589
v 0.0721889809 -1.1434164 -0.337395668
v 0.0781385079 -1.14156675 -0.339809537
v 0.0914208591 -1.14713109 -0.333163857
v 0.0910188332 -1.14301169 -0.340308666
v 0.0993828848 -1.1436373 -0.339694321
v 0.109460637 -1.14562607 -0.333358645
v 0.111056022 -1.14352 -0.338034809
v 0.117205143 -1.14192307 -0.340138882
v 0.12772277 -1.14484107 -0.336723924
v 0.130210772 -1.14324868 -0.336723924
v 0.137811676 -1.14318848 -0.336950988
v 0.151613876 -1.14961934 -0.329249024
v 0.146779597 -1.14077866 -0.342143655
v 0.152506247 -1.13877857 -0.344740003
v 0.166241333 -1.14522946 -0.337002486
v 0.168715373 -1.14364612 -0.337002486
v 0.177585691 -1.14502239 -0.335472763
v 0.183275789 -1.14303493 -0.338052541
v 0.186496377 -1.14262795 -0.340632319
v 0.192186475 -1.1406405 -0.343212068
v 0.207091212 -1.14823055 -0.33008495
v 0.208922178 -1.14634395 -0.334460974
v 0.214583769 -1.1443665 -0.337027818
v 0.221607134 -1.14387429 -0.337779284
v 0.229695573 -1.1484611 -0.330258667
v 0.235333741 -1.14649177 -0.332814872
v 0.240971893 -1.14452243 -0.335371107
v 0.244163066 -1.14411926 -0.337927312
v 0.249801219 -1.14214993 -0.340483546
v 0.255439371 -1.14018059 -0.343039751
v 0.25788635 -1.13861454 -0.343039751
v 0.27191931 -1.14607072 -0.334080517
v 0.279681474 -1.14653933 -0.333657265
v 0.279933721 -1.14284003 -0.34023118
v 0.287640125 -1.14325762 -0.339867443
v 0.295642644 -1.1440345 -0.339063972
v 0.300613791 -1.14538622 -0.33551234
v 0.306201547 -1.14343452 -0.338045686
v 0.311789274 -1.14148295 -0.340579063
v 0.314481705 -1.14023995 -0.340201586
v 0.322083294 -1.14062905 -0.339876205
v 0.327914745 -1.13897383 -0.342047155
v 0.330821127 -1.13828111 -0.344935685
v 0.336651206 -1.13662624 -0.347105831
v 0.342230082 -1.13467777 -0.349635154
v 0.35292241 -1.14291394 -0.337680787
v 0.363728046 -1.14722311 -0.332564235
v 0.373371363 -1.15020239 -0.329071581
v 0.372388989 -1.14489591 -0.337579161
v 0.378502011 -1.14366436 -0.339230269
v 0.388326585 -1.14692295 -0.335389823
v 0.390719235 -1.1453917 -0.335389823
v 0.396232218 -1.14346611 -0.337889314
v 0.404264361 -1.14461958 -0.336625606
v 0.414138436 -1.14806414 -0.332561225
v 0.4182868 -1.14871466 -0.329905331
v 0.423768073 -1.14680016 -0.332390428
v 0.426870495 -1.14640808 -0.334875524
v 0.432351768 -1.14449358 -0.33736065
v 0.437961757 -1.14274013 -0.339648843
v 0.443000257 -1.14455473 -0.33557269
v 0.448471159 -1.14264381 -0.338053077
v 0.45394209 -1.14073288 -0.340533465
v 0.457038611 -1.14034164 -0.343013883
v 0.462509513 -1.13843083 -0.34549427
v 0.467980415 -1.13651991 -0.347974658
v 0.470354825 -1.13500035 -0.347974658
v 0.481179833 -1.14000273 -0.342006832
v 0.489679694 -1.14205551 -0.339642704
v 0.496035546 -1.14135146 -0.34064734
v 0.499486715 -1.14126933 -0.338903993
v 0.506881952 -1.14195204 -0.338215768
v 0.508699715 -1.13991582 -0.342689484
v 0.515375257 -1.1396699 -0.343133599
v 0.520798802 -1.13777554 -0.345592529
v 0.530612171 -1.1462121 -0.333447129
v 0.536166966 -1.14454281 -0.335630417
v 0.541560769 -1.14265883 -0.338075846
v 0.544613659 -1.14227307 -0.340521276
v 0.550577164 -1.1411618 -0.342021942
v 0.555968702 -1.13927865 -0.344466358
v 0.560163796 -1.14031601 -0.341368884
v 0.567806363 -1.14153695 -0.34002009
v 0.573417008 -1.13998461 -0.342059761
v 0.573979497 -1.13616979 -0.34869206
v 0.58112359 -1.1366148 -0.34449631
v 0.588703394 -1.13782072 -0.343167871
v 0.59375596 -1.14026189 -0.342147589
v 0.599577367 -1.13904476 -0.343776911
v 0.605017364 -1.13729441 -0.346057981
v 0.612674654 -1.13870037 -0.344480574
v 0.614994526 -1.13721561 -0.344480574
v 0.621935129 -1.13763618 -0.344109535
v 0.626569211 -1.13467038 -0.344109535
v 0.630636632 -1.13088357 -0.345109314
v 0.632086515 -1.12806153 -0.342975646
v 0.633442938 -1.12015927 -0.341433495
v 0.631494343 -1.1123507 -0.345301449
v 0.62698555 -1.09574974 -0.354124933
v 0.626921833 -1.09063768 -0.354670227
v 0.628553987 -1.08802199 -0.352220088
v 0.629472792 -1.08429182 -0.347319782
v 0.632737041 -1.07906055 -0.342419505
v 0.634369135 -1.07644486 -0.339969367
v 0.635837853 -1.0735842 -0.337807775
v 0.62430805 -1.04604638 -0.359041631
v 0.625959337 -1.04340005 -0.356562704
v 0.629261971 -1.03810728 -0.351604819
v 0.632098079 -1.04238665 -0.342847705
v 0.631842852 -1.0316869 -0.344167978
v 0.633494139 -1.02904046 -0.34168905
v 0.636796772 -1.0237478 -0.336731166
v 0.63844806 -1.02110136 -0.334252238
v 0.640099347 -1.01845503 -0.331773281
v 0.641028941 -1.01468098 -0.326815397
v 0.642680287 -1.01203454 -0.324336469
v 0.645746052 -1.00637138 -0.319796652
v 0.64264822 -0.996273935 -0.32570377
v 0.634601474 -0.973041654 -0.340797693
v 0.636274159 -0.970360994 -0.338286638
v 0.639335334 -0.964547932 -0.333766878
v 0.638888538 -0.963857412 -0.330753475
v 0.639239192 -0.953710675 -0.331017733
v 0.632106602 -0.936909854 -0.344054073
v 0.635483146 -0.931498647 -0.338985234
v 0.637171388 -0.928793013 -0.336450815
v 0.63832134 -0.92521584 -0.334867567
v 0.639810085 -0.922228932 -0.328847557
v 0.641498327 -0.919523358 -0.326313138
v 0.644339085 -0.913235486 -0.322190106
v 0.644003272 -0.907206774 -0.323229879
v 0.646453679 -0.900245965 -0.319798648
v 0.638182878 -0.881056249 -0.334860981
v 0.642392576 -0.882543564 -0.324006259
v 0.64084971 -0.874422073 -0.327176601
v 0.632579446 -0.849429488 -0.342675656
v 0.634301424 -0.846669793 -0.340090603
v 0.636023402 -0.843910158 -0.337505519
v 0.638214409 -0.836274743 -0.334548861
v 0.636587918 -0.827839375 -0.33788085
v 0.64090848 -0.829572856 -0.326786041
v 0.639289081 -0.821119905 -0.330097586
v 0.641288877 -0.81308794 -0.327480137
v 0.64301908 -0.810315132 -0.324882746
v 0.640815973 -0.79500103 -0.329691857
v 0.640026152 -0.78784436 -0.33154878
v 0.631359935 -0.761141717 -0.34779337
v 0.645270288 -0.785458446 -0.319255769
v 0.636975884 -0.759318411 -0.334813148
v 0.635865867 -0.751488566 -0.337236345
v 0.637623966 -0.748671055 -0.334597081
v 0.640186965 -0.741352618 -0.331002384
v 0.641603887 -0.737926424 -0.328966349
v 0.642150283 -0.733115435 -0.324466228
v 0.643750668 -0.73000896 -0.322105944
v 0.64224416 -0.715368271 -0.325694889
v 0.637424409 -0.700716197 -0.334671944
v 0.630974233 -0.6769768 -0.347007275
v 0.632765114 -0.674106717 -0.344318777
v 0.634555995 -0.671236634 -0.34163028
v 0.638219595 -0.671970725 -0.33156842
v 0.63914597 -0.661403358 -0.330876261
v 0.640936911 -0.658533275 -0.328187764
v 0.642727792 -0.655663192 -0.325499266
v 0.646309555 -0.649922967 -0.320122272
v 0.646202028 -0.643537343 -0.320788056
v 0.64432621 -0.634081125 -0.320493042
v 0.632046998 -0.604997098 -0.34263137
v 0.633852839 -0.59574753 -0.340403348
v 0.635673106 -0.59283036 -0.337670743
v 0.639313638 -0.586996019 -0.332205534
v 0.641133964 -0.584078848 -0.329472929
v 0.64295423 -0.581161678 -0.326740324
v 0.63986975 -0.569189787 -0.328524321
v 0.631278932 -0.53993845 -0.344649404
v 0.632495403 -0.535781443 -0.342988938
v 0.634340107 -0.532825172 -0.340219647
v 0.638029516 -0.52691251 -0.334681094
v 0.637234867 -0.518844843 -0.336575031
v 0.635081887 -0.501530647 -0.341365397
v 0.640097022 -0.511605024 -0.328297585
v 0.637984395 -0.49431029 -0.333002001
v 0.637713373 -0.487158567 -0.333971113
v 0.63006264 -0.458765686 -0.348469824
v 0.631017685 -0.453934848 -0.347280711
v 0.631710768 -0.448574871 -0.346555173
v 0.631248176 -0.434131294 -0.348375231
v 0.63652885 -0.438252985 -0.335266799
v 0.634196043 -0.426797956 -0.339880943
v 0.636082172 -0.423775285 -0.337049514
v 0.639854372 -0.417729944 -0.331386656
v 0.641740501 -0.414707243 -0.328555226
v 0.637826085 -0.39301011 -0.336478859
v 0.639723659 -0.38996911 -0.333630234
v 0.645588994 -0.395451009 -0.319466293
v 0.642689407 -0.382591218 -0.325084388
v 0.642062366 -0.367385238 -0.327197403
v 0.634266436 -0.344266802 -0.341474444
v 0.636185229 -0.341191798 -0.338594019
v 0.645262599 -0.353436232 -0.318726718
v 0.64110285 -0.330656528 -0.327072263
v 0.643021643 -0.327581525 -0.324191809
v 0.641742945 -0.317786396 -0.326956451
v 0.635070682 -0.289393246 -0.339761704
v 0.637010276 -0.286284894 -0.336850017
v 0.63080436 -0.258586884 -0.348852277
v 0.640041709 -0.278743654 -0.328114927
v 0.643920898 -0.27252695 -0.322291523
v 0.636367142 -0.249038547 -0.33613804
v 0.639724731 -0.24158673 -0.331243485
v 0.641679704 -0.238453716 -0.328308672
v 0.639475048 -0.226294726 -0.332723498
v 0.639052689 -0.210528985 -0.334515601
v 0.639834821 -0.21276699 -0.328663796
v 0.64083755 -0.200045452 -0.327931017
v 0.640774846 -0.192418575 -0.32856223
v 0.644721389 -0.186093926 -0.322637737
v 0.645890772 -0.18114984 -0.321095616
v 0.637093067 -0.14641504 -0.337697119
v 0.638291061 -0.141439036 -0.336111158
v 0.640210271 -0.138660461 -0.328714937
v 0.641410232 -0.133679599 -0.327123314
v 0.636201799 -0.106507696 -0.337378442
v 0.635893285 -0.0980359241 -0.338456541
v 0.637907147 -0.0948085338 -0.335433334
v 0.633056879 -0.0680878609 -0.345080465
v 0.64105469 -0.0869785026 -0.326363742
v 0.636226416 -0.0602031015 -0.335947484
v 0.638254344 -0.0569531508 -0.332903147
v 0.635032594 -0.0336183943 -0.339668095
v 0.635971487 -0.0277967919 -0.338550776
v 0.631735623 -0.00185447349 -0.347124547
v 0.633790255 0.00143832411 -0.344040096
v 0.634946942 0.00613423716 -0.337871164
v 0.637001574 0.00942703523 -0.334786683
v 0.639056265 0.0127198324 -0.331702232
v 0.635559201 0.0373308808 -0.338968962
v 0.629300654 0.0604267828 -0.350575536
v 0.633184612 0.0677569211 -0.344818711
v 0.635265589 0.0710918233 -0.341694802
v 0.636437058 0.0758477822 -0.335447013
v 0.638517976 0.0791826844 -0.332323104
v 0.635860562 0.102364056 -0.33811897
v 0.635564089 0.111516088 -0.339197785
v 0.63527441 0.120683305 -0.340266734
v 0.639474332 0.127414092 -0.333961815
v 0.633429527 0.150771454 -0.345211893
v 0.634619236 0.155601665 -0.338866532
v 0.636732697 0.15898864 -0.335693866
v 0.639688432 0.168916091 -0.331593663
v 0.636882901 0.184548602 -0.337112099
v 0.636587083 0.202720046 -0.338766664
v 0.633215904 0.219937295 -0.345295936
v 0.638149917 0.215453073 -0.332288504
v 0.636561453 0.228259891 -0.335655808
v 0.635103106 0.249671564 -0.339365155
v 0.637253284 0.253117472 -0.336137265
v 0.6349684 0.267869443 -0.340745956
v 0.633077443 0.290694088 -0.34523958
v 0.633697867 0.298147172 -0.344721526
v 0.640146792 0.289640576 -0.328979015
v 0.639640868 0.29999876 -0.330443203
v 0.641432524 0.313545614 -0.328427106
v 0.632134795 0.346904099 -0.345429689
v 0.636515737 0.35392499 -0.338852972
v 0.63626349 0.363852501 -0.339883447
v 0.634114146 0.378813446 -0.344271362
v 0.638361096 0.375904769 -0.332351565
v 0.635699213 0.401683569 -0.338215798
v 0.637908399 0.405223995 -0.334899366
v 0.636208475 0.419202983 -0.33848983
v 0.632449865 0.44829917 -0.34631604
v 0.630084991 0.46424675 -0.351093531
v 0.63180536 0.468119621 -0.343560815
v 0.633583307 0.472949415 -0.341013163
v 0.637101412 0.482732415 -0.33598569
v 0.639341414 0.486322194 -0.332623065
v 0.639045298 0.506611645 -0.334339738
v 0.641293705 0.510214925 -0.330964416
v 0.643542111 0.513818204 -0.327589124
v 0.644807816 0.518956959 -0.320838511
v 0.633862555 0.569134712 -0.341356993
v 0.636138439 0.57278204 -0.337940395
v 0.638414323 0.576429427 -0.334523797
v 0.638765275 0.595546126 -0.335116893
v 0.641048729 0.599205554 -0.33168897
v 0.646523237 0.592573047 -0.317440867
v 0.644617617 0.608083785 -0.321405292
v 0.634334505 0.657771647 -0.340775907
v 0.636644781 0.661474109 -0.337307692
v 0.640470564 0.671166003 -0.331776112
v 0.628980696 0.714696646 -0.352707237
v 0.631317556 0.718441725 -0.349199116
v 0.63263309 0.723782599 -0.342182875
v 0.637306809 0.731272757 -0.335166633
v 0.639643729 0.735017836 -0.331658512
v 0.638997078 0.747516751 -0.333421618
v 0.636586845 0.775960565 -0.338931084
v 0.632647991 0.798362017 -0.346525043
v 0.631905913 0.809926569 -0.343078732
v 0.631970286 0.820588589 -0.343590677
v 0.636025667 0.830281436 -0.337686777
v 0.638402224 0.834090054 -0.334119111
v 0.643155277 0.841707289 -0.326983809
v 0.634183705 0.87986213 -0.343479574
v 0.634857416 0.888938129 -0.342929065
v 0.634874105 0.898487866 -0.338075966
v 0.62930131 0.9379583 -0.349187434
v 0.631655276 0.942054212 -0.345672011
v 0.634078622 0.945937812 -0.342034131
v 0.638925254 0.953705013 -0.334758341
v 0.641280532 0.957799911 -0.331240773
v 0.63087219 1.01320767 -0.350955129
v 0.645068228 0.967222512 -0.320326507
v 0.634252489 1.02416646 -0.340709448
v 0.636074007 1.03008842 -0.338142574
v 0.640604258 1.03915751 -0.331442714
v 0.637614608 1.06038857 -0.33738333
v 0.633438289 1.08550096 -0.345428288
v 0.638637364 1.07901943 -0.331273884
v 0.637456 1.09468019 -0.334011376
v 0.634220243 1.12901986 -0.341039509
v 0.631113112 1.13540959 -0.335178018
v 0.6328789 1.14176881 -0.332714558
v 0.634603143 1.14644825 -0.324657232
v 0.633732438 1.14561629 -0.31486991
v 0.632832468 1.14488649 -0.305156678
v 0.631827652 1.14450216 -0.295646966
v 0.634317517 1.14849246 -0.291909158
v 0.631529331 1.14184606 -0.28494364
v 0.62121588 1.14563477 -0.284759134
v 0.617038786 1.12981892 -0.274140835
v 0.61144793 1.13220382 -0.271992803
v 0.601586819 1.13447523 -0.270992517
v 0.594444633 1.12987924 -0.270981461
v 0.588241398 1.1223681 -0.269420564
v 0.573616862 1.14087188 -0.281702697
v 0.572828829 1.13160181 -0.282645524
v 0.573898554 1.10505819 -0.280191809
v 0.571413517 1.10107565 -0.283922434
v 0.552859426 1.12947953 -0.297001958
v 0.546590567 1.13364327 -0.295795232
v 0.540088534 1.12692261 -0.294662118
v 0.529908776 1.12963402 -0.293910921
v 0.52269727 1.12501872 -0.293910921
v 0.507597864 1.14360654 -0.306391448
v 0.497338861 1.14625192 -0.305593014
v 0.493707865 1.14392817 -0.305593014
v 0.487676084 1.13425016 -0.298171341
v 0.479272783 1.13147855 -0.294462681
v 0.472022414 1.12683833 -0.294462681
v 0.465118229 1.12121511 -0.293934017
v 0.456348032 1.12087047 -0.296246111
v 0.442552805 1.14576757 -0.306160599
v 0.435251564 1.1410948 -0.306160599
v 0.426113486 1.1401751 -0.303432077
v 0.419163644 1.13318968 -0.297443599
v 0.413417816 1.13530457 -0.295088351
v 0.406115323 1.13063097 -0.295088351
v 0.39813292 1.12780583 -0.296081722
v 0.383185834 1.14377952 -0.307192117
v 0.37365514 1.1437031 -0.304904014
v 0.365924627 1.14002299 -0.305454165
v 0.361219972 1.12708318 -0.296249062
v 0.355488032 1.12899494 -0.293769926
v 0.443261683 0.884386718 -0.159183905
v 0.442350417 0.88453722 -0.150305167
v 0.443943799 0.889379561 -0.14276135
v 0.442533582 0.890843749 -0.134601146
v 0.442729056 0.888074458 -0.124221042
v 0.4328596 0.890399039 -0.123305164
v 0.429414809 0.888194442 -0.123305164
v 0.421813846 0.885634184 -0.124279052
v 0.411504537 0.888979018 -0.12389788
v 0.404600799 0.884560645 -0.12389788
v 0.395708978 0.8841784 -0.121552505
v 0.388800949 0.879757285 -0.121552505
v 0.381996751 0.885008931 -0.12100561
v 0.374395728 0.881295383 -0.116903581
v 0.3807289 0.875246942 -0.108101323
v 0.388314486 0.877920687 -0.107189901
v 0.396259069 0.880695581 -0.11079181
v 0.405287206 0.879636407 -0.107928172
v 0.415071994 0.877626896 -0.109020822
v 0.423868418 0.877045751 -0.106413648
v 0.428347349 0.877611697 -0.110001393
v 0.435822368 0.880419493 -0.109169953
v 0.443302095 0.883196294 -0.108324222
v 0.445035249 0.887626648 -0.100620173
v 0.444537461 0.886692226 -0.0912794024
v 0.443512857 0.887152672 -0.082677193
v 0.443040729 0.88615942 -0.0733413026
v 0.43937102 0.883515477 -0.0687014759
v 0.4428792 0.872084677 -0.0540665165
v 0.443772256 0.86753726 -0.0429954492
v 0.441857308 0.870367348 -0.0356912427
v 0.440049648 0.86185509 -0.0237700623
v 0.442709923 0.841763556 -0.0060756621
v 0.442068756 0.830391228 0.0071766777
v 0.443487883 0.825649261 0.0138490265
v 0.443369359 0.803300142 0.02714267
v 0.441746444 0.795724869 0.0341234207
v 0.439298242 0.780674875 0.0394934267
v 0.432217866 0.777531922 0.0389404446
v 0.415420622 0.797977388 0.0309008528
v 0.415843219 0.775814056 0.0398149528
v 0.401038766 0.801508009 0.0302330907
v 0.401157498 0.780209243 0.0387066342
v 0.385377586 0.797591865 0.0322061218
v 0.385499179 0.77646035 0.0405945107
v 0.372103989 0.787753403 0.0371260382
v 0.36737892 0.778642893 0.0395276695
v 0.301653653 0.927261353 -0.0311578214
v 0.306670636 0.934595764 -0.0236774627
v 0.306471318 0.9458341 -0.0281308908
v 0.313611567 0.937201619 -0.0138748307
v 0.318260044 0.945413113 -0.00684131915
v 0.320678145 0.949288368 -0.00321125099
v 0.323633075 0.950863421 0.00596492644
v 0.32559523 0.945031822 0.0132105527
v 0.328052312 0.947809935 0.0217646044
v 0.330780119 0.94990164 0.0306335837
v 0.331384331 0.947422087 0.0362169817
v 0.33191821 0.944147706 0.0465552695
v 0.33331424 0.949523747 0.053815946
v 0.332806677 0.948836982 0.0628904998
v 0.330881625 0.951685786 0.0702911839
v 0.329610765 0.952905834 0.0784493685
v 0.328993767 0.952500582 0.0873526707
v 0.324752867 0.95036006 0.096024856
v 0.323014677 0.952751994 0.103611298
v 0.318786412 0.950605154 0.112265088
v 0.317741781 0.952237368 0.115853183
v 0.313319683 0.950589299 0.124264069
v 0.311101913 0.954171479 0.131290451
v 0.307073921 0.952504396 0.135374039
v 0.301581621 0.953504086 0.142573372
v 0.296353519 0.953859687 0.150060952
v 0.291897446 0.953249454 0.153665215
v 0.286262721 0.954597712 0.160707474
v 0.281787932 0.954032302 0.164291888
v 0.27265358 0.953345537 0.171264142
v 0.268019021 0.953161895 0.174680278
v 0.25822705 0.95403403 0.180969015
v 0.253749073 0.953468204 0.184556022
v 0.245368361 0.95181334 0.18765676
v 0.240229607 0.952801764 0.190564245
v 0.25140816 0.904464662 0.21832931
v 0.253915817 0.907909214 0.222024143
v 0.253335416 0.907649577 0.230624318
v 0.251468599 0.91041255 0.237908319
v 0.245288298 0.904666305 0.238514006
v 0.238581106 0.909431994 0.239765525
v 0.232425377 0.903619707 0.240397245
v 0.229509503 0.888828218 0.253350168
v 0.220205233 0.890325963 0.250849098
v 0.210491166 0.891958535 0.252518475
v 0.209926635 0.884095609 0.250732362
v 0.205093533 0.875369787 0.252622694
v 0.188999295 0.892757952 0.239010051
v 0.187871829 0.886174858 0.236663148
v 0.191696018 0.867107928 0.248221278
v 0.189637333 0.870324671 0.255292624
v 0.191106752 0.865641713 0.265746564
v 0.189052269 0.86885184 0.272803426
v 0.212846205 0.834146917 0.293578267
v 0.229349971 0.81622684 0.302989423
v 0.230185807 0.834399819 0.292937875
v 0.238795877 0.833513618 0.299275041
v 0.235690832 0.839873195 0.300738543
v 0.250048429 0.825757861 0.31261614
v 0.249231935 0.847941339 0.300935626
v 0.251597971 0.85155344 0.304463148
v 0.24970302 0.854414701 0.311557263
v 0.251811475 0.857858002 0.319294065
v 0.252455026 0.865463376 0.321165472
v 0.251183122 0.866876721 0.328857571
v 0.253003567 0.870982826 0.33631292
v 0.251748323 0.872355521 0.344007313
v 0.253106683 0.867655814 0.354153633
v 0.247999892 0.868131459 0.361324012
v 0.249325648 0.855257034 0.36565882
v 0.238264948 0.860458434 0.365952581
v 0.237372607 0.871545732 0.366458714
v 0.235909939 0.863641381 0.376982749
v 0.231793702 0.853620172 0.379291058
v 0.222817987 0.853991926 0.381540447
v 0.215425685 0.851456344 0.380856246
v 0.20486109 0.856046021 0.37731874
v 0.208676293 0.839254797 0.374997199
v 0.188972145 0.873165369 0.364619315
v 0.189854786 0.869809449 0.374224454
v 0.189789534 0.868580461 0.382956207
v 0.188395455 0.870328963 0.390492082
v 0.19204548 0.870379508 0.399527997
v 0.191306829 0.871346831 0.40324989
v 0.190251812 0.872335494 0.411058575
v 0.191702127 0.867711186 0.421034068
v 0.191026345 0.86785537 0.429138035
v 0.189590454 0.869703948 0.436575711
v 0.188555017 0.870656908 0.444349408
v 0.190299198 0.874934614 0.451657832
v 0.1904369 0.873253942 0.460407764
v 0.190604284 0.871510208 0.469161063
v 0.190835521 0.86962676 0.477945924
v 0.190210566 0.869665027 0.485997528
v 0.190313295 0.868075788 0.494635969
v 0.189764798 0.867947757 0.502719223
v 0.190198243 0.865624607 0.511588812
v 0.191486835 0.870856106 0.518461287
v 0.190080166 0.872650445 0.525813341
v 0.190296218 0.870809138 0.534461379
v 0.189506605 0.871224284 0.54228574
v 0.189037561 0.87092346 0.550352335
v 0.189850092 0.867756009 0.559413314
v 0.188714132 0.868953407 0.56692189
v 0.19059357 0.873493433 0.570029199
v 0.189932525 0.873622656 0.577899516
v 0.189870253 0.872411907 0.586219132
v 0.189844489 0.87112236 0.594548047
v 0.189250037 0.871109664 0.602424502
v 0.189138189 0.870018542 0.610653102
v 0.188117057 0.870965481 0.618179321
v 0.190054372 0.874656379 0.625475645
v 0.189687461 0.874134123 0.633473277
v 0.18851009 0.875430822 0.640855968
v 0.188533753 0.874037802 0.649113595
v 0.186019465 0.869663954 0.653759599
v 0.175087973 0.874752283 0.654633164
v 0.171136469 0.874232948 0.654123664
v 0.163661331 0.872227192 0.653419256
v 0.156352356 0.869835794 0.652839661
v 0.145797804 0.873905897 0.654052854
v 0.125406533 0.907951534 0.650129497
v 0.12514694 0.907283545 0.658220172
v 0.124994025 0.906385481 0.666369379
v 0.122998945 0.909502804 0.673222184
v 0.115498878 0.907342613 0.672571719
v 0.108617522 0.903828144 0.672352493
v 0.104336992 0.903287232 0.67578131
v 0.104790486 0.892000616 0.686537564
v 0.0962744355 0.892026603 0.685201049
v 0.0866390616 0.893831015 0.687217355
v 0.0873823836 0.883755386 0.685830772
v 0.0812965855 0.878589749 0.686140954
v 0.0735480711 0.87692827 0.685336173
v 0.0514982976 0.905165792 0.675000489
v 0.0435270071 0.903783441 0.674092829
v 0.0469496846 0.887173414 0.682657599
v 0.0342529863 0.894589782 0.686843395
v 0.0265013184 0.892743409 0.686090589
v 0.0197208188 0.888885796 0.685974121
v 0.0144663071 0.881913006 0.686846614
v 0.0158613175 0.870725155 0.685794413
v -0.00887404289 0.903276801 0.674062312
v -0.015893124 0.899772465 0.673822761
v -0.0181296784 0.885765493 0.68487072
v -0.0253719483 0.89106822 0.686478317
v -0.0340772793 0.890944242 0.685170174
v -0.0407207459 0.886692464 0.685170174
v -0.0475294515 0.882767022 0.685066402
v -0.0529091433 0.876028836 0.685857713
v -0.0770707503 0.906078577 0.674928188
v -0.0808720961 0.9048177 0.674646735
v -0.0796395615 0.884717166 0.683683634
v -0.0860475376 0.888160586 0.685900748
v -0.0946356654 0.895804584 0.686795413
v -0.100498237 0.88992548 0.687301219
v 0.00733903795 0.665621579 0.760848403
v -0.000489307276 0.672213793 0.761900187
v -0.00819465052 0.670812726 0.761066139
v -0.0132229961 0.664310694 0.761841953
v -0.0188527722 0.658965945 0.762253404
v -0.0141791617 0.642802894 0.759203851
v -0.0312592313 0.659309804 0.748865426
v -0.0304337274 0.650103331 0.747378588
v -0.028947087 0.639979303 0.742418289
v -0.0309219901 0.644260168 0.733449221
v -0.125274539 0.812620282 0.673980176
v -0.159180745 0.859036386 0.65740943
v -0.176148638 0.873397052 0.655348182
v -0.182376444 0.86812222 0.655660748
v -0.189436287 0.864380777 0.655472398
v -0.188455865 0.846228719 0.655967236
v -0.148477852 0.764882863 0.685955882
v -0.155304462 0.761110246 0.685811281
v -0.167570114 0.766910195 0.686484158
v -0.174134985 0.762625158 0.686504364
v -0.174948752 0.748274028 0.685875297
v -0.178240731 0.746167183 0.685875297
v -0.187881947 0.755819559 0.674059391
v -0.166897133 0.7028175 0.68633008
v -0.170335785 0.701039433 0.686226606
v -0.176261604 0.69580102 0.686580598
v -0.17717135 0.681953669 0.685893714
v -0.188795984 0.687100708 0.67490238
v -0.166643038 0.640821278 0.685940206
v -0.172778562 0.636129618 0.686129928
v -0.173430204 0.62211585 0.685602307
v -0.176650852 0.620054662 0.685602307
v -0.190909579 0.629687726 0.673096836
v -0.175917953 0.59648037 0.679921985
v -0.171668306 0.574137509 0.686216474
v -0.173184007 0.561896563 0.685181856
v -0.179084525 0.557015181 0.685460269
v -0.190058023 0.568399668 0.673054516
v -0.192152619 0.564483345 0.673707545
v -0.191730544 0.549037516 0.673817277
v -0.19247219 0.535621345 0.673240781
v -0.189319536 0.530559421 0.667312384
v -0.188830212 0.52995652 0.659800947
v -0.192369923 0.528723717 0.65177238
v -0.187138021 0.527448237 0.64909178
v -0.177838296 0.526601136 0.650864184
v -0.113082096 0.424993813 0.684390604
v -0.126782313 0.433882296 0.672203541
v -0.134547696 0.439704269 0.669364274
v -0.160950124 0.469279647 0.660970151
v -0.166860521 0.464650482 0.661192179
v -0.178605035 0.469586968 0.661764324
v -0.185471296 0.466508448 0.661420226
v -0.192963362 0.464448333 0.660705149
v -0.191276461 0.461830199 0.653991163
v -0.18992424 0.459760994 0.647073567
v -0.192615137 0.457066327 0.643481791
v -0.19162564 0.455588996 0.636337101
v -0.189764693 0.452685416 0.629718721
v -0.192367122 0.449907631 0.622293651
v -0.190603673 0.447163224 0.615609407
v -0.188986793 0.444658279 0.608832777
v -0.192466334 0.443234891 0.60473758
v -0.190953031 0.440897912 0.597888827
v -0.189385593 0.438472688 0.591071129
v -0.210436702 0.458475053 0.573944986
v -0.214586765 0.457950652 0.577269256
v -0.219758332 0.451952636 0.578017831
v -0.229509577 0.453286171 0.579828858
v -0.237577826 0.451967239 0.574838161
v 0.379984081 -0.541285038 0.964258015
v 0.3788504 -0.544586003 0.970545352
v 0.378486574 -0.544027507 0.97311002
v 0.378766507 -0.544516027 0.978851438
v 0.378690392 -0.549475253 0.985734701
v 0.378293097 -0.548881352 0.991035521
v 0.378503531 -0.549253583 0.996693492
v 0.374196053 -0.552462101 0.999571323
v 0.370175987 -0.55111891 1.00127935
v 0.364231706 -0.551736534 1.00042808
v 0.358183831 -0.552213609 1.00228167
v 0.35166961 -0.551974773 1.00110781
v 0.346275508 -0.553502679 1.00059533
v 0.341114134 -0.550439954 1.00166786
v 0.335733712 -0.552016795 1.0011723
v 0.330748856 -0.554212987 1.00090837
v 0.321746618 -0.550237119 1.00109863
v 0.317105621 -0.552990079 1.00104105
v 0.308982849 -0.550421774 1.00176466
v 0.303676456 -0.552186728 1.00133431
v 0.297514528 -0.552670598 1.00042129
v 0.292278707 -0.549636781 1.00152254
v 0.287716419 -0.552556634 1.00152254
v 0.175414085 -0.394557714 0.944012582
v 0.17282784 -0.395828724 0.94687748
v 0.168078542 -0.399046361 0.949886918
v 0.162755311 -0.401405513 0.952574968
v 0.157313943 -0.403653979 0.952254236
v 0.153851956 -0.403622657 0.954631567
v 0.146031812 -0.402472168 0.95007056
v 0.213667616 -0.506470144 0.985497653
v 0.238388211 -0.55224371 1.00155497
v 0.232214168 -0.552902341 1.00069654
v 0.224117666 -0.550720274 1.00158727
v 0.219067857 -0.553038299 1.00134981
v 0.213101655 -0.554048598 1.00062001
v 0.207896069 -0.551288903 1.00185275
v 0.203218117 -0.554164946 1.00182223
v 0.196349964 -0.553934872 1.0006237
v 0.18799977 -0.551530302 1.00143933
v 0.18252477 -0.553314805 1.00099528
v 0.174299046 -0.551138639 1.00190151
v 0.0753003135 -0.422211617 0.955366611
v 0.0696894974 -0.419242531 0.956664026
v 0.0647128299 -0.417168558 0.958301127
v 0.0580281094 -0.417842776 0.957381666
v 0.0524350069 -0.42004326 0.957029879
v 0.136224195 -0.545316875 0.999824524
v 0.134396642 -0.552221 1.00129199
v 0.129329562 -0.554674089 1.00108993
v 0.121781826 -0.553614378 1.00242794
v 0.114324667 -0.552847862 1.00101495
v 0.107340179 -0.552595675 1.00266135
v 0.104560487 -0.553512216 1.002442
v 0.098601155 -0.554815412 1.0018034
v 0.0899128616 -0.552322865 1.00261307
v 0.0840815455 -0.553832531 1.00204968
v 0.0777189359 -0.554648876 1.00122428
v 0.0728783756 -0.552695632 1.00280714
v 0.0661532655 -0.553063452 1.00181234
v 0.0601110309 -0.554348588 1.00115979
v 0.0515878499 -0.552217066 1.00211465
v -0.052657444 -0.420428663 0.955130041
v -0.0612293519 -0.418759435 0.956362844
v -0.069603689 -0.417373568 0.957706571
v -0.0735987052 -0.422082961 0.955212951
v -0.0757336766 -0.424155653 0.955389798
v 0.0126204137 -0.547293842 1.00037527
v 0.00852511358 -0.551204085 1.00069809
v 0.00311250053 -0.553428173 1.00038767
v -0.00478275539 -0.552292585 1.0017314
v -0.0106351674 -0.553980589 1.00121796
v -0.0349228904 -0.527621448 0.993685544
v -0.145453706 -0.3974213 0.946777284
v -0.149787486 -0.401384264 0.950149775
v -0.153102413 -0.401803136 0.952805161
v -0.159345001 -0.403611124 0.952266157
v -0.167406946 -0.40292114 0.953904629
v -0.170238912 -0.404445142 0.950753689
v -0.0596852861 -0.550877929 1.00135994
v -0.0652304068 -0.553058863 1.00102174
v -0.0731701031 -0.552062809 1.00243711
v -0.0807278827 -0.551804304 1.00118148
v -0.0866330415 -0.553583086 1.00068855
v -0.0925319567 -0.550639391 1.00195885
v -0.0987180471 -0.552102029 1.00134563
v -0.10493847 -0.553535223 1.0007199
v -0.113325477 -0.552110016 1.00198412
v -0.120466642 -0.552470565 1.00095332
v -0.126392767 -0.55430156 1.00047302
v -0.132470503 -0.551234901 1.0017103
v -0.139270589 -0.552052379 1.0008477
v -0.148052767 -0.550260365 1.00198519
v -0.153595805 -0.552598119 1.00169086
v -0.160415456 -0.55344218 1.00083447
v -0.169807285 -0.551000834 1.00173259
v -0.172421709 -0.55237031 1.00165892
v -0.178936109 -0.553614974 1.00094974
v -0.187495813 -0.552200794 1.00223815
v -0.194475085 -0.552940667 1.00133729
v -0.201451436 -0.553701162 1.00044191
v -0.210448951 -0.551849127 1.00157142
v -0.21689336 -0.553257108 1.00091696
v -0.224440306 -0.553104281 1.00268877
v -0.227834493 -0.553624213 1.00229192
v -0.234307975 -0.555032313 1.00163519
v -0.243740425 -0.552785873 1.0026257
v -0.251694262 -0.55256176 1.00135362
v -0.25854677 -0.553596854 1.0005517
v -0.263179719 -0.552435398 1.00255096
v -0.271448851 -0.551914632 1.00116408
v -0.278341681 -0.552950084 1.0003587
v -0.286070049 -0.552731276 1.00212204
v -0.293075293 -0.553673029 1.00127983
v -0.301860631 -0.552322268 1.00262284
v -0.309488505 -0.552617133 1.00153565
v -0.316467255 -0.553641498 1.00071979
v -0.322014689 -0.551556528 1.00239336
v -0.329918683 -0.551603377 1.00120938
v -0.336794108 -0.552786171 1.0004493
v -0.345304817 -0.551849961 1.00195944
v -0.352226824 -0.553014219 1.00119042
v -0.359240562 -0.554094672 1.00038791
v -0.364825696 -0.552040577 1.00208759
v -0.370589763 -0.554480135 1.00179434
v -0.376601219 -0.55666256 1.00140357
v -0.436500192 -0.201582029 -0.0627633333
v -0.428172588 -0.200067401 -0.0610035434
v -0.420401156 -0.203973159 -0.0611233041
v -0.415019393 -0.205385908 -0.0673122108
v -0.419134557 -0.206884623 -0.0762920007
v -0.421368212 -0.210285217 -0.0796037391
v -0.435693562 -0.203969747 -0.0783499628
v -0.439687431 -0.204583034 -0.0750141293
v -0.440136105 -0.203331649 -0.0672584325
v -0.39880228 -0.174283803 -0.0179525577
v -0.392021984 -0.170675188 -0.013441829
v -0.378592819 -0.176191747 -0.0154380826
v -0.37765047 -0.177664161 -0.0186748877
v -0.379659325 -0.181618556 -0.0258220583
v -0.381816208 -0.185075179 -0.0290599857
v -0.390628844 -0.185862675 -0.0312697738
v -0.399564564 -0.180108026 -0.0281039923
v -0.400964856 -0.177749544 -0.0211990178
v -0.439151794 -0.176690042 -0.0200960226
v -0.433225244 -0.171970412 -0.0163138676
v -0.421722382 -0.174656287 -0.0160047729
v -0.415695757 -0.176514938 -0.0176275354
v -0.417083263 -0.18126227 -0.024270406
v -0.419698656 -0.184193209 -0.0278965961
v -0.426267952 -0.18811363 -0.0322231501
v -0.438518077 -0.18422012 -0.0291284416
v -0.440969825 -0.180944845 -0.0271094441
v -0.439479232 -0.176647186 -0.0244104769
v -0.402115405 -0.137367979 0.0148362927
v -0.396575272 -0.132208064 0.0183009934
v -0.385550767 -0.134165809 0.0222480129
v -0.376936376 -0.139624387 0.0187408235
v -0.379457504 -0.142641813 0.0151977511
v -0.384025753 -0.149268329 0.00850393251
v -0.387804866 -0.150427535 0.00794635806
v -0.401561737 -0.144507885 0.00978450011
v -0.402509242 -0.14302741 0.0130390339
v -0.437128156 -0.13432847 0.0162443258
v -0.429009259 -0.132256746 0.0217874739
v -0.415981174 -0.137188271 0.0192194786
v -0.417259514 -0.141761065 0.016687382
v -0.419430733 -0.145240664 0.0134279383
v -0.424652547 -0.150801599 0.0102252243
v -0.435749471 -0.148587108 0.0103130741
v -0.438911676 -0.138300419 0.013293081
v 0.413291335 0.887581348 -0.136581779
v 0.425379276 0.877451897 -0.124424867
v 0.432265013 0.884049475 -0.134506509
v 0.436927199 0.884174109 -0.137870714
v 0.433432668 0.884311974 -0.148062333
v 0.429766238 0.883769989 -0.153433144
v 0.419583589 0.886770964 -0.152911961
v 0.414880455 0.886701107 -0.14956595
v 0.41380173 0.887337148 -0.140932843
v 0.373564541 0.887412131 -0.138080716
v 0.385027289 0.8793751 -0.126993552
v 0.391922653 0.884883881 -0.132046789
v 0.396434367 0.885453999 -0.135660782
v 0.39796102 0.883642912 -0.143674463
v 0.396102935 0.879420221 -0.151590258
v 0.387248099 0.87988615 -0.154211357
v 0.379985988 0.886246979 -0.154294327
v 0.374416471 0.887286186 -0.147018418
v 0.372977912 0.889899969 -0.1439026
v -0.190585643 -0.850982308 0.627183914
v -0.193948671 -0.839116216 0.625136256
v -0.213829055 -0.810675621 0.60994184
v -0.208914027 -0.807529986 0.60994184
v -0.126627296 -0.884592414 0.654766202
v -0.120953985 -0.894770503 0.656825483
v -0.121504329 -0.902452171 0.656497538
v -0.123576015 -0.908164859 0.658128619
v -0.120458014 -0.915636361 0.658611715
v -0.123064622 -0.921152115 0.657009482
v -0.125338525 -0.926600575 0.658501446
v -0.12659888 -0.933446944 0.657727897
v -0.205540732 -0.86148572 0.614995897
v -0.206385419 -0.856235266 0.615975142
v -0.181637287 -0.876371384 0.635595679
v -0.187405735 -0.866583586 0.630595863
v -0.192160621 -0.853388667 0.627701342
v -0.197965488 -0.797100127 0.618198872
v -0.201144651 -0.785133362 0.616248488
v -0.164229497 -0.815439522 0.635962427
v -0.158635914 -0.813485801 0.633426428
v -0.115433335 -0.863229096 0.658721447
v -0.118412562 -0.868492067 0.656890452
v -0.119672403 -0.871547639 0.654653966
v -0.12441913 -0.874585569 0.654653966
v -0.202373639 -0.797043681 0.613971293
v -0.317954689 -0.856550097 0.627730072
v -0.313778132 -0.852227449 0.630302846
v -0.348882198 -0.815462291 0.602467597
v -0.252516657 -0.912317038 0.656903565
v -0.252404988 -0.920514286 0.656828642
v -0.251220435 -0.92970103 0.657378376
v -0.331875026 -0.856451988 0.614922941
v -0.322131246 -0.860872746 0.625157356
v -0.318757594 -0.859709501 0.62868768
v 0.233470529 0.956363559 0.143757924
v 0.25372839 0.928438902 0.16258724
v 0.262018383 0.93111223 0.154732376
v 0.267021805 0.930411041 0.151720479
v 0.271969378 0.929835856 0.148653865
v 0.280813128 0.931191802 0.141391724
v 0.285771489 0.931460977 0.133625567
v 0.291002691 0.930188119 0.130881578
v 0.296173364 0.929949105 0.123345196
v 0.295651317 0.932114124 0.118025057
v 0.30116865 0.931049168 0.110857524
v 0.302943468 0.92854774 0.103338711
v 0.307461351 0.929925382 0.0950345397
v 0.308251292 0.929833889 0.0863800645
v 0.308814466 0.93029958 0.0774500892
v 0.314822644 0.927134335 0.0756112561
v 0.31536305 0.927668631 0.0666373894
v 0.310687631 0.930340946 0.0555853881
v 0.311677903 0.929772973 0.0470926017
v 0.313775837 0.926494956 0.0398864709
v 0.30661425 0.934280455 0.0306926686
v 0.310160458 0.92746824 0.0251669809
v 0.306907564 0.926602185 0.0156981051
v 0.300578982 0.932280302 0.00744053302
v 0.297528476 0.930869281 -0.00181586726
v 0.28964287 0.930497348 -0.0126995072
v 0.285169572 0.931561947 -0.0187742505
v 0.275313497 0.934911489 -0.0271003228
v 0.273660779 0.929159641 -0.0298251808
v 0.329913497 0.775169313 0.0402284041
v 0.318047583 0.782230377 0.0388756394
v 0.314680725 0.78007555 0.0388756394
v 0.310081303 0.770758629 0.0413728468
v 0.25324735 0.89208293 -0.0113454331
v 0.253135741 0.901049674 -0.00579945138
v 0.253278583 0.899889886 -0.00078594638
v 0.254638135 0.905409455 0.00646501314
v 0.255818903 0.900979161 0.0174887348
v 0.255276859 0.900598764 0.026509583
v 0.25480774 0.900050402 0.035595011
v 0.255170137 0.897555411 0.0456000529
v 0.256258488 0.893363714 0.0563917905
v 0.2546148 0.895579398 0.0640946403
v 0.255865455 0.902112246 0.0664129034
v 0.25669834 0.898510933 0.0768680423
v 0.255376756 0.899971187 0.0849086121
v 0.255636483 0.897723734 0.0946788043
v 0.254217625 0.899416685 0.102586322
v 0.254472047 0.897189319 0.112306707
v 0.253474385 0.908138573 0.11693012
v 0.253719181 0.905923903 0.126618758
v 0.253275871 0.90532887 0.135542437
v 0.252560019 0.905376315 0.144156665
v 0.252303451 0.904349506 0.153243124
v 0.232025877 0.960586846 0.13750425
v 0.235778287 0.437693119 0.498635918
v 0.226871341 0.471883535 0.489914924
v 0.250605434 0.439482301 0.504867256
v 0.223542303 0.512496591 0.47260341
v 0.227013752 0.522110164 0.470274746
v 0.235221237 0.521367133 0.47604689
v 0.217517436 0.567480981 0.454066813
v 0.226848513 0.565028429 0.456720769
v 0.222263172 0.583854795 0.4459185
v 0.213302836 0.620802104 0.428449452
v 0.131723091 0.795230269 0.348296672
v 0.129334122 0.792234302 0.340381563
v 0.13136068 0.789067805 0.333420634
v 0.133387238 0.785901248 0.326459706
v 0.133364573 0.787083566 0.31765765
v 0.13176775 0.791610301 0.30741325
v 0.133209839 0.789688468 0.29989329
v 0.135058388 0.786904097 0.292738676
v 0.136483341 0.785019994 0.285193205
v 0.134047657 0.782086015 0.277167529
v 0.130711585 0.789728284 0.269647628
v 0.125589505 0.801733255 0.255982637
v 0.127382264 0.799075425 0.248704761
v 0.0822542831 0.876969337 0.203832656
v 0.172185063 0.678031921 0.29102698
v 0.175278157 0.653122127 0.304303199
v 0.17330128 0.656211019 0.311093509
v 0.174182639 0.636142492 0.322163463
v 0.169964463 0.635609448 0.325542331
v 0.1599278 0.638354003 0.326577604
v 0.156688541 0.636280894 0.326577604
v 0.158341616 0.615427971 0.333912015
v 0.152944103 0.609151721 0.3348566
v 0.144195184 0.609715819 0.332793504
v 0.146336958 0.588631809 0.336233437
v 0.139005154 0.586789846 0.331194133
v -0.0176726226 0.893369853 0.194299251
v -0.0273736008 0.893394291 0.201079711
v -0.0308686849 0.891157448 0.201079711
v 0.189097002 0.443059951 0.406041831
v 0.189674348 0.449238688 0.411945701
v 0.189858332 0.448058456 0.420197576
v 0.191038355 0.453028589 0.426623404
v 0.190128863 0.454436779 0.429874748
v 0.188884422 0.456104904 0.436870068
v 0.189460292 0.462282479 0.442777604
v 0.188296422 0.46378687 0.449836522
v 0.18834576 0.462863386 0.457914799
v 0.188486516 0.470323712 0.459441781
v 0.189361215 0.467736959 0.468203425
v 0.206774876 0.440062463 0.488208562
v 0.226041436 0.417390347 0.499265224
v 0.232940525 0.419561476 0.499974132
v 0.237406224 0.427116901 0.494681209
v 0.239516228 0.430498391 0.497848749
v 0.251602799 -0.12949127 0.726755142
v -0.216725543 0.692448974 0.390844494
v -0.199864179 0.67924571 0.398100406
v -0.238110498 0.754178822 0.359468967
v -0.233767971 0.754985511 0.355779737
v -0.254209876 0.807632089 0.327038109
v -0.251581877 0.811567605 0.321989417
v -0.252012342 0.829300106 0.31207633
v -0.243875846 0.831988573 0.308474183
v -0.239259109 0.824031472 0.307473779
v -0.237133875 0.820710719 0.300173849
v -0.224847496 0.815752566 0.304169625
v -0.229002327 0.840343773 0.291283637
v -0.217909798 0.837499797 0.294390768
v -0.198571146 0.811479568 0.302032918
v -0.184829563 0.787243903 0.3037135
v -0.189259708 0.795720339 0.291446
v -0.238072664 0.875217974 0.251920104
v -0.252891213 0.884760976 0.241405368
v -0.255062968 0.880253136 0.237924606
v -0.25681749 0.866411924 0.237518504
v -0.234148636 0.817879438 0.253282756
v -0.242248312 0.815301239 0.252446413
v -0.25744155 0.825590968 0.237137496
v -0.253580302 0.810581744 0.238344774
v 0.299860418 -0.172419161 0.667702973
v 0.298430175 -0.182490468 0.673958302
v 0.295035273 -0.182919443 0.676677704
v 0.288859755 -0.184707999 0.679261923
v 0.28342548 -0.187649623 0.679089308
v 0.25704211 -0.154855639 0.666422844
v 0.254114896 -0.149965048 0.66757679
v 0.253046125 -0.148375019 0.673493862
v 0.252511889 -0.147699565 0.679804623
v 0.253421515 -0.143293783 0.685222745
v 0.252361715 -0.141720682 0.691134572
v 0.251348734 -0.14022772 0.697076321
v 0.252655715 -0.136383057 0.699443221
v 0.25195083 -0.13542147 0.705606461
v 0.251491129 -0.134880811 0.711940169
v 0.25239107 -0.130466595 0.717346489
v 0.251589328 -0.129340962 0.723422706
v 0.187464818 0.532255232 0.635758579
v 0.0742022246 0.780963957 0.546843946
v 0.0846860632 0.777029097 0.549790561
v 0.0919906124 0.779598594 0.550373435
v 0.0954701006 0.781744599 0.546381056
v 0.101997711 0.785922229 0.546381056
v 0.111443952 0.78398639 0.548597038
v 0.120126493 0.784136653 0.546090722
v 0.124079101 0.793171763 0.548291922
v 0.125100911 0.800553381 0.542405903
v 0.125758961 0.800266266 0.534557283
v 0.127746493 0.797160745 0.527730346
v 0.125541389 0.802951097 0.517622411
v 0.127515882 0.799875855 0.510765493
v 0.129335001 0.797130466 0.503785372
v 0.130712017 0.795324266 0.496451348
v 0.131944969 0.793824792 0.488996029
v 0.127400503 0.795522451 0.479523391
v 0.128647685 0.79399246 0.472054392
v 0.130226359 0.791760266 0.464848161
v 0.13160494 0.789953113 0.457474053
v 0.130781621 0.792819917 0.448280096
v 0.129680485 0.796280086 0.438828856
v 0.131066963 0.794461489 0.431420952
v 0.132229164 0.793120086 0.423819125
v 0.127979919 0.794136047 0.414434642
v 0.127760381 0.795162201 0.409946501
v 0.221655428 0.588514864 0.483674824
v 0.237235218 0.538003027 0.506133974
v 0.235581145 0.540974855 0.508762956
v 0.22786887 0.53921932 0.515514851
v 0.251357168 0.481226981 0.541515589
v 0.251469076 0.48002097 0.549482167
v 0.251169533 0.463657618 0.558129907
v 0.249957889 0.449316293 0.565965772
v 0.238420919 0.464507729 0.56296742
v 0.237130105 0.474444002 0.567300022
v 0.237282246 0.465475827 0.573759079
v 0.232771546 0.458443552 0.574988484
v 0.225807279 0.456011087 0.578145921
v 0.219596416 0.452479392 0.578014851
v 0.192956477 0.498003513 0.563316703
v 0.189336136 0.504476666 0.568342447
v 0.190240487 0.509956539 0.574517787
v 0.1886722 0.512267828 0.581155539
v 0.189411476 0.509894252 0.589567065
v 0.190036222 0.516372859 0.59160763
v 0.188946113 0.517711043 0.598601639
v 0.189006716 0.516709685 0.606462955
v 0.189231396 0.523560643 0.612118483
v 0.187775522 0.525642455 0.618820131
v 0.1889745 0.530510187 0.625214696
v 0.188394949 0.530801892 0.63256371
v -0.0648568943 0.522018731 0.597772896
v 0.00797242485 0.407254636 0.646062732
v 0.0189926848 0.402342737 0.649355412
v 0.024770366 0.407001346 0.645351112
v -0.18161869 0.786723316 0.499926925
v -0.183337927 0.790317893 0.490289688
v -0.182441667 0.789197922 0.482411623
v -0.182315037 0.7894665 0.473994285
v -0.195054129 0.804602563 0.459015548
v -0.192978397 0.801359177 0.4518857
v -0.190902665 0.798115849 0.444755852
v -0.188826948 0.794872522 0.437626004
v -0.186751217 0.791629136 0.430496186
v -0.184675485 0.788385808 0.423366338
v -0.185290888 0.789989591 0.414310038
v -0.224436209 0.85250926 0.379995853
v -0.228111744 0.850636363 0.3798545
v -0.2408977 0.856590271 0.375685513
v -0.228392079 0.826324403 0.378360838
v -0.234043002 0.827991307 0.376793981
v -0.216594353 0.780165017 0.398551643
v -0.22239764 0.773920238 0.399300039
v -0.231386557 0.773281217 0.39778772
v -0.219338834 0.735859156 0.411134839
v -0.205467433 0.695552051 0.42568028
v -0.212910578 0.700294137 0.427059561
v -0.205780655 0.672004223 0.436747938
v -0.0660203546 0.415426791 0.546531916
v -0.0678214729 0.425745279 0.547043025
v -0.0672844723 0.439463586 0.547014654
v -0.0647201315 0.449727446 0.548386633
v -0.0625430718 0.453401178 0.547723591
v -0.0660332814 0.474140376 0.548847675
v -0.066810064 0.483039051 0.546131253
v -0.0614605546 0.488575727 0.549426496
v -0.0628193393 0.505979538 0.548076272
v -0.0660047382 0.519061089 0.547656417
v -0.0650205389 0.524569094 0.554109037
v -0.064639248 0.523479104 0.562323868
v -0.0644993186 0.522818804 0.570355952
v -0.0649177879 0.52315098 0.577993572
v -0.0645682961 0.522120118 0.586135685
v -0.0638967529 0.520518482 0.594474971
v 0.126916379 0.571216702 0.625706613
v 0.132183164 0.576667726 0.628950894
v 0.162339553 0.53246963 0.64632231
v 0.170628294 0.532022834 0.647895813
v 0.179088578 0.531187236 0.649605691
v 0.0636575967 0.783994317 0.55219245
v 0.0642831177 0.783194005 0.548497856
v 0.184905022 0.520679355 0.642261863
v 0.189006522 0.504233122 0.647525668
v 0.18452999 0.49711889 0.648698509
v 0.180315495 0.489097834 0.65389365
v 0.183346599 0.467050672 0.660494804
g path_000000
l 37 36 35 34 33 32 31 30 29 28 27 26 25 24 23 22 21 20 19 18 17 16 15 14 13 12 11 10 9 8 7 6 5 4 3 2 1 1426 1425 1424 1423 1422 1421 1420 1419 1418 1417 1416 1415 1414 1413 1412 1411 1410 1409 1408 1407 1406 1405 1404 1403 1402 1401 1400 1399 1398 1397 1396 1395 1394 1393 1392 1391 1390 1389 1388 1387 1386 1385 1384 1383 1382 1381 1380
g path_000001
l 38 39 40 41 42 43 44 45 46 47 48 49 50 51 52 53 54 55 56 57 58 59 60 61 62 63 64 65 66 67 68 69 70 71 72 73 74 75 76 77 78 79 80 81 82 83 84 85 86 87 88 89 90 91 92 93 94 95 96 97 98 99 100 101 102 103 104 105 106 107 108
g path_000002
l 109 110 111 112 113 114 115 116
g path_000003
l 117 118 119 120
g path_000004
l 122 123 124 125 126 127 128 129 130 131
g path_000005
l 132 133 134 135 136 137 138 139 140 141 142 143
g path_000006
l 145 146
g path_000007
l 147 148 149 150 151 152 153 154 155 156 157
g path_000008
l 158 159 160 161 162 163 164 165 166 167 168 169 170
g path_000009
l 171 172 173 174 175
g path_000010
l 176 177 178 179
g path_000011
l 180 181 182 183
g path_000012
l 184 185 186 187 188 189 190 191
g path_000013
l 192 193 194 195
g path_000014
l 196 197 198
g path_000015
l 200 201 202 203 204 205 206 207 208 209 210 211 212 213 214 215 216 217 218 219 220 221 222 223 224
g path_000016
l 225 226 227 228 229 230 231 232
g path_000017
l 233 234 235 236
g path_000018
l 237 238 239 240 241 242 243 244 245
g path_000019
l 248 249
g path_000020
l 250 251 252
g path_000021
l 253 254 255
g path_000022
l 256 257 258 259 260 261 262 263 264 265 266 267 268 269 270 271 272 273 274 275 276 277 278 279
g path_000023
l 280 281 282 283 284 285 286 287 288 289 290 291 292 293
g path_000024
l 294 295 296 297 298 299
g path_000025
l 300 301 302
g path_000026
l 304 305
g path_000027
l 306 307 308 309 310 311 312 313
g path_000028
l 314 315 316
g path_000029
l 317 318 319 320 321 322 323 324 325 326 327 328 329 330 331 332 333 334 335 336 337 338 339 340 341 342 343 344 345 346 347 348 349 350 351 352 353 354 355 356 357 358 359 360 361 362 363 364 365 366 367 368 369 370 371 372 373 374 375 376 377 378 379 380 381 382 383 384 385 386 387 388 389 390 391 392 393 394 395 396 397 398 399 400 401 402 403 404
g path_000030
l 406 407 408
g path_000031
l 409 410 411 412
g path_000032
l 413 414 415 416 417 418 419 420 421 422 423 424 425 426 427 428 429
g path_000033
l 430 431 432 433 434 435 436 437 438 439 440 441 442 443 444 445
g path_000034
l 446 447 448 449 450 451 452
g path_000035
l 453 454 455 456 457 458 459 460 461 462 463 464 465 466 467
g path_000036
l 468 469 470 471 472 473 474 475 476 477 478
g path_000037
l 479 480 481 482 483 484 485
g path_000038
l 486 487 488 489 490 491 492 493 494
g path_000039
l 495 496 497 498
g path_000040
l 499 500 501 502 503
g path_000041
l 504 505
g path_000042
l 506 507 508 509 510 511 512
g path_000043
l 513 514 515 516 517 518 519 520 521 522 523 524 525 526 527 528 529 530 531 532 533 534 535 536 537 538 539
g path_000044
l 540 541 542 543 544 545 546 547 548 549
g path_000045
l 550 551 552 553 554 555 556 557 558 559 560 561 562 563 564 565 566 567 568 569 570 571 572 573 574 575 576 577 578 579 580 581 582
g path_000046
l 583 584 585 586 587 588 589 590 591 592
g path_000047
l 593 594
g path_000048
l 595 596 597 598 599 600 601 602 603 604 605 606 607
g path_000049
l 608 609 610 611 612 613 614 615 616 617 618 619 620 621 622
g path_000050
l 623 624 625 626 627 628 629 630 631 632 633 634 635 636
g path_000051
l 637 638 639 640 641 642 643 644 645 646 647 648 649 650 651 652 653 654 655 656 657 658 659 660 661 662 663 664 665 666 667 668 669 670 671 672 673 674 675 676 677 678 679 680 681 682
g path_000052
l 683 684 685 686 687 688 689 690 691 692 693
g path_000053
l 694 695 696 697 698 699 700 701 702 703 704 705 706 707
g path_000054
l 708 709 710 711 712 713 714 715 716 717 718 719 720 721 722 723 724 725 726 727 728 729 730 731 732 733 734 735 736 737
g path_000055
l 738 739 740 741 742 743 744 745 746 747 748 749 750 751 752 753 754 755 756 757 758 759 760
g path_000056
l 761 762 763 764 765 766 767
g path_000057
l 768 769 770 771 772 773 774 775 776 777 778 779 780
g path_000058
l 781 782 783 784 785
g path_000059
l 786 787 788 789 790 791 792 793 794
g path_000060
l 795 796 797
g path_000061
l 798 799 800 801 802 803 804 805 806 807 808
g path_000062
l 811 812 813 814 815 816 817 818 819
g path_000063
l 820 821 822 823 824 825 826 827 828 829
g path_000064
l 830 831 832 833 834 835 836
g path_000065
l 837 838 839 840 841 842 843 844 845
g path_000066
l 846 847 848 849 850 851 852 853 854
g path_000067
l 855 856 857 858 859
g path_000068
l 860 861
g path_000069
l 863 864 865
g path_000070
l 866 867
g path_000071
l 869 870
g path_000072
l 871 872 873 874 875 876 877 878 879 880
g path_000073
l 881 882 883 884
g path_000074
l 885 886 887
g path_000075
l 890 891
g path_000076
l 892 893
g path_000077
l 894 895 896 897 898
g path_000078
l 900 901 902 903 904
g path_000079
l 905 906 907 908
g path_000080
l 909 910 911 912 913 914 915 916 917 918 919 920
g path_000081
l 921 922 923 924 925
g path_000082
l 926 927 928 929 930
g path_000083
l 931 932 933
g path_000084
l 934 935 936 937 938 939 940 941 942 943
g path_000085
l 944 945 946 947 948 949 950
g path_000086
l 951 952 953
g path_000087
l 954 955 956 957 958 959
g path_000088
l 960 961 962 963 964 965 966
g path_000089
l 967 968 969
g path_000090
l 970 971 972 973 974
g path_000091
l 977 978 979 980
g path_000092
l 981 982 983
g path_000093
l 984 985 986 987 988 989 990 991 992 993 994 995 996 997 998
g path_000094
l 999 1000
g path_000095
l 1001 1002
g path_000096
l 1003 1004 1005 1006 1007
g path_000097
l 1008 1009 1010 1011 1012 1013 1014 1015
g path_000098
l 1016 1017 1018 1019 1020 1021 1022 1023 1024 1025 1026 1027
g path_000099
l 1028 1029 1030 1031 1032 1033 1034 1035 1036 1037 1038 1039 1040 1041 1042 1043 1044 1045 1046 1047 1048 1049 1050 1051 1052 1053 1054 1055 1056 1057 1058 1059
g path_000100
l 1060 1061 1062
g path_000101
l 1063 1064 1065 1066
g path_000102
l 1069 1070
g path_000103
l 1071 1072 1073 1074
g path_000104
l 1075 1076 1077 1078 1079 1080 1081 1082 1083 1084 1085 1086 1087 1088 1089 1090 1091 1092 1093 1094 1095 1096 1097 1098 1099 1100 1101 1102 1103 1104 1105 1106 1107 1108 1109
g path_000105
l 1110 1111 1112 1113 1114 1115 1116 1117 1118 1119 1120 1121
g path_000106
l 1122 1123 1124 1125 1126 1127
g path_000107
l 1129 1130 1131 1132 1133
g path_000108
l 1134 1135 1136 1137 1138 1139 1140 1141 1142 1143 1144 1145 1146 1147 1148 1149 1150 1151 1152
g path_000109
l 1153 1154 1155 1156 1157 1158 1159 1160 1161 1162 1163 1164 1165 1166 1167 1168 1169 1170 1171 1172 1173 1174 1175 1176 1177 1178 1179 1180 1181 1182 1183 1184 1185 1186 1187 1188 1189 1190 1191 1192 1193 1194 1195
g path_000110
l 1196 1197 1198 1199 1200 1201 1202 1203 1204 1205 1206 1207 1208
g path_000111
l 1209 1210 1211 1212 1213 1214 1215 1216
g path_000112
l 1217 1218 1219 1220 1221 1222 1223 1224
g path_000113
l 1225 1226 1227 1228 1229 1230
g path_000114
l 1231 1232 1233 1234 1235 1236
g path_000115
l 1237 1238 1239 1240
g path_000116
l 1242 1243 1244 1245 1246
g path_000117
l 1247 1248 1249 1250 1251 1252 1253
g path_000118
l 1254 1255 1256 1257 1258
g path_000119
l 1259 1260 1261 1262 1263
g path_000120
l 1265 1266 1267 1268 1269 1270 1271 1272 1273 1274 1275 1276
g path_000121
l 1277 1278 1279
g path_000122
l 1280 1281 1282 1283 1284 1285 1286 1287 1288 1289 1290 1291 1292 1293 1294 1295
g path_000123
l 1296 1297 1298 1299 1300
g path_000124
l 1301 1302 1303 1304 1305 1306 1307 1308 1309 1310 1311 1312 1313 1314 1315 1316 1317 1318 1319 1320 1321 1322 1323
g path_000125
l 1324 1325 1326 1327 1328 1329 1330
g path_000126
l 1332 1333 1334 1335 1336 1337 1338 1339 1340 1341 1342
g path_000127
l 1343 1344 1345 1346 1347
g path_000128
l 1348 1349 1350 1351 1352 1353 1354 1355 1356 1357 1358 1359 1360 1361 1362
g path_000129
l 1363 1364 1365 1366 1367
g path_000130
l 1368 1369 1370 1371 1372
g path_000131
l 1374 1375 1376 1377 1378 1379
g path_000132
l 1492 1491 1507 1506 1505
g path_000133
l 1493 1494
g path_000134
l 1495 1496 1497 1498 1499 1500 1501 1502
g path_000135
l 1503 1504
g path_000136
l 1509 1508 1516
g path_000137
l 1510 1511
g path_000138
l 1512 1513 1514 1515
g path_000139
l 1518 1517 1525 1524 1523
g path_000140
l 1520 1521 1522
g path_000141
l 1526 1580
g path_000142
l 1527 1528 1529 1530 1531 1532 1533 1534 1535 1536 1537 1538 1539 1540 1541 1542 1543 1544 1545 1546 1547 1548 1549 1550 1551 1552 1553 1554
g path_000143
l 1555 1556 1557 1558
g path_000144
l 1559 1560 1561 1562 1563 1564 1565 1566 1567 1568 1569 1570 1571 1572 1573 1574 1575 1576 1577 1578 1579
g path_000145
l 1581 1635 1634 1633 1632
g path_000146
l 1584 1585 1586
g path_000147
l 1587 1588 1589
g path_000148
l 1591 1592 1593 1594 1595 1596 1597 1598 1599 1600 1601 1602 1603
g path_000149
l 1606 1607 1608 1609 1610 1611 1612 1613 1614 1615 1616
g path_000150
l 1617 1618 1619
g path_000151
l 1620 1621 1622 1623 1624 1625 1626 1627 1628 1629 1630
g path_000152
l 1636 1677 1676 1675 1674 1673 1672 1671 1670 1669 1668 1667 1666
g path_000153
l 1637 1638
g path_000154
l 1639 1640
g path_000155
l 1641 1642 1643 1644 1645 1646 1647
g path_000156
l 1648 1649
g path_000157
l 1651 1652
g path_000158
l 1653 1654 1655 1656
g path_000159
l 1657 1658 1659 1660
g path_000160
l 1661 1662 1663 1664 1665
g path_000161
l 1678 1730 1729 1728 1727 1726 1725 1724 1723 1722 1721 1720 1719
g path_000162
l 1679 1680 1681 1682 1683 1684 1685 1686 1687 1688 1689 1690 1691 1692 1693 1694 1695 1696 1697 1698 1699 1700 1701 1702 1703 1704
g path_000163
l 1706 1707 1708
g path_000164
l 1709 1710 1711 1712 1713 1714 1715 1716 1717 1718
g path_000165
l 1731 1773 1772 1771 1770 1769 1768 1767 1766 1765 1764 1763 1762 1761 1760 1759 1758
g path_000166
l 1732 1733 1734
g path_000167
l 1735 1736 1737 1738
g path_000168
l 1739 1740 1741 1742 1743 1744 1745
g path_000169
l 1746 1747 1748
g path_000170
l 1749 1750
g path_000171
l 1751 1752 1753
g path_000172
l 1755 1756
g path_000173
l 1774 1775
g path_000174
l 1776 1777 1778
g path_000175
l 1779 1780
g path_000176
l 1781 1782 1783 1784
g path_000177
l 1427 1428 1429 1430 1431 1432 1433 1434 1435 1427
g path_000178
l 1436 1437 1438 1439 1440 1441 1442 1443 1444 1436
g path_000179
l 1445 1446 1447 1448 1449 1450 1451 1452 1453 1454 1445
g path_000180
l 1455 1456 1457 1458 1459 1460 1461 1462 1463 1455
g path_000181
l 1464 1465 1466 1467 1468 1469 1470 1471 1464
g path_000182
l 1472 1473 1474 1475 1476 1477 1478 1479 1480 1472
g path_000183
l 1481 1482 1483 1484 1485 1486 1487 1488 1489 1490 1481
