# True static 3D polylines; use tube GLB/OBJ if the importer ignores OBJ l records.
o curve_0
v -0.0624175908188 0.637220002706 1.0371274165
v -0.0556835724142 0.641780606456 1.03824078093
v -0.0523673261313 0.644641106568 1.03444840483
v -0.0464556088566 0.646211253353 1.03651145684
v -0.0408924617218 0.645798280791 1.04344583183
v -0.0356090518215 0.645450470732 1.04405409666
v -0.0300465044731 0.646893790072 1.03964914005
v -0.0266864820665 0.639868201243 1.03841332363
v -0.021749117814 0.638371168222 1.0381589408
v -0.0209637917863 0.641786935152 1.03435463569
v -0.0176578707227 0.644623186864 1.03055033057
v -0.0107290564537 0.649726974491 1.03529323945
v -0.00899862639418 0.645742833535 1.03908693593
v -0.00397149411967 0.644587035156 1.03908693593
v 0.000837769426419 0.642693473128 1.03853103087
v 0.00580194210138 0.641316720003 1.038364913
v 0.0112229543241 0.641864276025 1.03646725546
v 0.0170992103718 0.644335980015 1.03283861685
v 0.021561890623 0.641533800044 1.02840336917
v 0.0233105277893 0.648316868099 1.02716599393
v 0.0287487385746 0.648927089061 1.02531630943
v 0.0341690041905 0.649474569671 1.02341891324
v 0.039540658887 0.649548371823 1.02435628917
v 0.0451234863312 0.65040700687 1.02589053852
v 0.0501447938246 0.649252547678 1.02589053852
v 0.0559483300005 0.651500383548 1.02210123768
v 0.0590769523526 0.653718686143 1.01784687236
v 0.0625588560633 0.646821857391 1.01344804075
v 0.0675944205102 0.645664120354 1.01344804075
v 0.072482672014 0.643947463132 1.01302030898
v 0.0780577742327 0.645054623864 1.01154801086
v 0.0834855635083 0.64560286441 1.00964798098
v 0.0888274611766 0.645993237101 1.00441310125
v 0.093952465352 0.64533286902 1.00157948016
v 0.0968764871199 0.646657093228 0.996604059939
v 0.0990228129332 0.644879511031 0.989212885055
v 0.104079084893 0.643717013087 0.989212885055
v 0.109135356852 0.642554515143 0.989212885055
v 0.114551611077 0.642966668936 0.987197627594
v 0.120054696117 0.643734396262 0.985458534938
v 0.125228240233 0.643061350456 0.985838847234
v 0.130769083369 0.643999359832 0.984233127893
v 0.136216873921 0.644549620632 0.982326096442
v 0.141988907213 0.646492222691 0.981505372398
v 0.147112455024 0.645650142231 0.97851203354
v 0.152560245576 0.646200403031 0.976605002089
v 0.157684694157 0.645349913461 0.976848568436
v 0.163131728544 0.645900097883 0.974941801685
v 0.168578762931 0.646450282306 0.973035034935
v 0.174117490321 0.647419842884 0.971457481243
v 0.179614721699 0.648206743377 0.96973722262
v 0.185060161931 0.64875676678 0.967831013912
v 0.190505602164 0.649306790183 0.965924805205
v 0.194523785456 0.64320253358 0.962031252304
v 0.199922355817 0.643469008226 0.959896227083
v 0.205303000276 0.643641144851 0.957686097052
v 0.210677638155 0.643774607215 0.955444588401
v 0.216137717816 0.644326109291 0.953533255075
v 0.221597797477 0.644877611368 0.951621921748
v 0.227234433069 0.646026290993 0.946909173813
v 0.232436026498 0.645220703966 0.943915732108
v 0.237902137167 0.645772815212 0.942002287591
v 0.242844675102 0.643534930196 0.937860728446
v 0.247822845864 0.64141735183 0.933809515076
v 0.253037425456 0.640522623385 0.930731838352
v 0.258782806504 0.642058364038 0.926297657044
v 0.26395867788 0.640877506613 0.922982374484
v 0.26938637931 0.641082980964 0.920779899148
v 0.274800213575 0.641198750555 0.918504351576
v 0.279884894376 0.639375642399 0.914662346273
v 0.285381621296 0.639930846077 0.912738184355
v 0.290812746197 0.640090969018 0.910494183785
v 0.296310438788 0.640646270235 0.908569683829
v 0.301176716679 0.638021970478 0.907393575476
v 0.306677956477 0.638577629985 0.905467833799
v 0.312179196275 0.639133289491 0.903542092123
v 0.317659335797 0.639552000381 0.9015049627
v 0.323160910485 0.640107693714 0.899579103793
v 0.327507827822 0.633863873511 0.895451910054
v 0.33281131326 0.632988081687 0.892353968433
v 0.338324200177 0.633513638995 0.890396639368
v 0.343794775993 0.633740343466 0.888195032703
v 0.349312707374 0.634294662698 0.886260786403
v 0.354684897959 0.633787128688 0.883456581422
v 0.360042831073 0.633135734 0.880532105313
v 0.365410187491 0.632511387981 0.877627283281
v 0.371305581281 0.634569572561 0.873562471123
v 0.37649037011 0.632441099388 0.869410945346
v 0.379903216857 0.616044505129 0.853467170028
l 1 2 3 4 5 6 7 8 9 10 11 12 13 14 15 16 17 18 19 20 21 22 23 24 25 26 27 28 29 30 31 32 33 34 35 36 37 38 39 40 41 42 43 44 45 46 47 48 49 50 51 52 53 54 55 56 57 58 59 60 61 62 63 64 65 66 67 68 69 70 71 72 73 74 75 76 77 78 79 80 81 82 83 84 85 86 87 88 89
o curve_1
v 0.266989035535 -0.482500076521 -0.0647759206371
v 0.27117833345 -0.51707679365 -0.0970772696583
v 0.277345812999 -0.532933661446 -0.108756459762
v 0.281485455818 -0.570569365376 -0.143674751282
v 0.288490852465 -0.583449329454 -0.158077584
v 0.297016582882 -0.582588177544 -0.161062066588
v 0.304926223952 -0.584406699482 -0.161062066588
v 0.313725644017 -0.580836371837 -0.161787845742
v 0.322626287525 -0.576105789028 -0.16153927772
v 0.330525878071 -0.577869587216 -0.161496493682
v 0.339430076451 -0.572803168362 -0.16096074342
v 0.348369661536 -0.567125695977 -0.159904880041
v 0.356976947702 -0.564919664105 -0.161746245962
v 0.364944889786 -0.565609325048 -0.160808715195
v 0.373583889143 -0.562879114451 -0.162207241022
v 0.382356983882 -0.558397501145 -0.162131902493
v 0.391070479123 -0.554444435067 -0.162492966105
v 0.398932159734 -0.55608127691 -0.162352131972
v 0.407626673441 -0.552078415239 -0.162665885409
l 90 91 92 93 94 95 96 97 98 99 100 101 102 103 104 105 106 107 108
o curve_2
v 0.462279591551 0.0115559579301 0.32251080193
v 0.468310212899 0.00783665674967 0.324978500124
v 0.473831425154 0.00190168631412 0.329913896511
v 0.475073284233 -0.0187939877923 0.321997205195
v 0.473478234964 -0.0319873538147 0.319745397854
v 0.47539545463 -0.0426906266529 0.320218382386
v 0.474365944061 -0.0471710615068 0.325201493194
v 0.47286502761 -0.0589117238367 0.324256956831
v 0.471305156519 -0.0715009802378 0.322664689198
v 0.473591339997 -0.0767646874734 0.327676787875
v 0.480233010767 -0.0782916877368 0.327676787875
v 0.485996028895 -0.0817194089413 0.334785752306
v 0.492129637303 -0.085240659281 0.337492859759
v 0.498764938757 -0.0867661951617 0.337492859759
v 0.505386749611 -0.088544541729 0.337289610929
v 0.512022614424 -0.0900702071328 0.337289610929
v 0.518801765085 -0.0886630305209 0.339645075188
v 0.525956228695 -0.0877526989291 0.337295323086
v 0.53265575481 -0.0876799103776 0.338578807714
v 0.539848077541 -0.0857416221061 0.337058311808
v 0.547603306154 -0.0802095778985 0.334133125536
v 0.551468713682 -0.0776360736418 0.332519668603
v 0.552609518533 -0.0702291150604 0.329901636753
v 0.560383355866 -0.0633930521628 0.328071335719
v 0.564754911729 -0.0583814657323 0.324151798559
v 0.562484313822 -0.0531536427032 0.319173868801
v 0.560213715915 -0.0479258196741 0.314195939043
v 0.561237915678 -0.0435530138979 0.309138127631
v 0.558890674489 -0.0404533160276 0.302395540273
v 0.55986428681 -0.0375153486707 0.296136690953
v 0.557497096962 -0.0348456793521 0.289010104498
v 0.561832253094 -0.0311264151096 0.284021402005
v 0.559606125355 -0.0245127387919 0.280188989616
v 0.560635462003 -0.0200356503507 0.275202639314
v 0.555368593544 -0.00576421391378 0.277231080294
v 0.556394996383 -0.0012998860432 0.272258942057
v 0.557421399221 0.00316444182737 0.267286803821
l 109 110 111 112 113 114 115 116 117 118 119 120 121 122 123 124 125 126 127 128 129 130 131 132 133 134 135 136 137 138 139 140 141 142 143 144 145
o curve_3
v 0.553347782943 -0.475762318459 -0.159862838585
v 0.562247068147 -0.472315431615 -0.165673445756
v 0.57114635335 -0.468868544772 -0.171484052927
v 0.576314285407 -0.460023538824 -0.173380743699
v 0.581509160381 -0.449555451668 -0.173839387438
v 0.582837513829 -0.438933703658 -0.17489770713
v 0.588049776524 -0.426484966789 -0.173551307343
v 0.589377426221 -0.41526941606 -0.174012925198
v 0.590711487024 -0.40359152063 -0.174028909412
v 0.591897779813 -0.398431753178 -0.179775592402
v 0.593084072602 -0.393271985726 -0.185522275393
l 146 147 148 149 150 151 152 153 154 155 156
o curve_4
v 0.599441617744 -0.518272371694 -0.305716104459
v 0.600674364237 -0.512910554368 -0.311687820184
v 0.601907110729 -0.507548737042 -0.317659535908
v 0.603391449726 -0.488233926836 -0.311062710179
v 0.608565572734 -0.483431946578 -0.316677143191
v 0.613832678824 -0.472361299668 -0.316605729254
v 0.619025865397 -0.46527680999 -0.320120963574
v 0.616426438969 -0.451686942803 -0.319328675091
v 0.617647898812 -0.446374216634 -0.325245715615
v 0.618869358655 -0.441061490465 -0.33116275614
v 0.620090818499 -0.435748764296 -0.337079796664
v 0.621140007042 -0.44374175757 -0.355318991472
v 0.62231724504 -0.442306139193 -0.364882723513
v 0.62337596133 -0.450767414532 -0.383702162765
v 0.624307592991 -0.470719474185 -0.413366888895
v 0.625549838497 -0.465316341002 -0.41938462009
v 0.626792084004 -0.45991320782 -0.425402351285
l 157 158 159 160 161 162 163 164 165 166 167 168 169 170 171 172 173
o curve_5
v 0.623446562281 -0.296644289507 -0.371483243431
v 0.624813823581 -0.278038793042 -0.364217513973
v 0.622545689023 -0.243948141433 -0.342529772796
v 0.623815417401 -0.232244695713 -0.341820486891
v 0.625064701753 -0.221790668943 -0.342300222019
v 0.626244995481 -0.216656994342 -0.348017844138
v 0.627455522483 -0.208980530312 -0.351205590631
v 0.624856682435 -0.202430668886 -0.356369102489
v 0.626035798483 -0.197302116587 -0.362081019651
v 0.627310347048 -0.184242490716 -0.359816412712
v 0.62839403058 -0.187045011991 -0.373504853975
v 0.625887740228 -0.173143920404 -0.37121084483
v 0.626921330965 -0.179730006664 -0.388804382874
v 0.62449953334 -0.159409885477 -0.379915745261
v 0.625493279414 -0.168588958884 -0.40024242481
v 0.622826763815 -0.166848791413 -0.410346792627
v 0.623910223798 -0.169187395298 -0.42379089516
v 0.621199677427 -0.169678833783 -0.436284241129
v 0.62204665235 -0.189340007879 -0.467836484842
l 174 175 176 177 178 179 180 181 182 183 184 185 186 187 188 189 190 191 192
o curve_6
v 0.626901405204 -0.557208033445 -0.86061471871
v 0.632517714093 -0.555886385034 -0.870800342261
v 0.633860972601 -0.550043896911 -0.877307404339
v 0.643847858127 -0.54266914846 -0.880115933747
v 0.645207897331 -0.53357671121 -0.883178120593
v 0.655170034772 -0.523795956511 -0.883393779765
v 0.664429936477 -0.522860648725 -0.886635263375
v 0.65717746165 -0.51506467536 -0.893118230595
v 0.654209251341 -0.512005168989 -0.903607621958
v 0.651242953976 -0.506734764367 -0.911755699042
v 0.643979171087 -0.498926635517 -0.918248774507
v 0.640347279643 -0.495022571091 -0.92149531224
v 0.632434485614 -0.487884831678 -0.92231352751
v 0.624505786689 -0.482994917759 -0.925557908957
v 0.616577087763 -0.47810500384 -0.928802290404
v 0.608861393085 -0.498213787906 -0.965753559826
v 0.610078175736 -0.500707348112 -0.98146103802
v 0.602740798607 -0.492820109889 -0.988019899173
v 0.59472644576 -0.487877370115 -0.991299329749
v 0.586035117195 -0.485879128788 -0.991299329749
v 0.577368662964 -0.482915890877 -0.990234361617
v 0.568040512225 -0.482549129761 -0.985508806058
l 193 194 195 196 197 198 199 200 201 202 203 204 205 206 207 208 209 210 211 212 213 214
o curve_7
v 0.575788175075 0.0629026131983 -0.380628584346
v 0.569905380685 0.0773066402145 -0.377498942602
v 0.567610070609 0.0889424423097 -0.376447078494
v 0.56159877278 0.0983265533826 -0.378780432612
v 0.559144729473 0.105031459943 -0.383155443066
v 0.556667706586 0.111094381794 -0.388243030898
v 0.55063239248 0.119373648791 -0.391766151753
v 0.544941913664 0.156242161151 -0.352046625995
v 0.53895317824 0.163492350823 -0.356554521393
v 0.536767162857 0.174885368896 -0.355411762422
v 0.530772186333 0.181648831125 -0.360437857097
v 0.525163982432 0.19587246666 -0.356907373653
v 0.519379510623 0.20615564493 -0.357840009754
v 0.517305106688 0.218409626424 -0.355518012242
v 0.512027697049 0.236865687601 -0.346880373873
v 0.509652902045 0.243261647795 -0.351238441651
v 0.50728749604 0.249786827301 -0.355438078471
v 0.502037580595 0.267283029093 -0.34769504897
v 0.499965845112 0.278220755736 -0.346629847166
v 0.497890043035 0.288916943345 -0.345801657427
v 0.495729663789 0.298144678052 -0.346670901234
v 0.493511408729 0.306377773391 -0.348692403594
v 0.491349666585 0.315365503402 -0.349785677976
v 0.48936905362 0.32689714001 -0.347790045717
v 0.487774587461 0.343809631575 -0.339247820659
v 0.486254784053 0.361430555563 -0.329741589832
v 0.487701155949 0.371451060319 -0.328403209614
v 0.485719567398 0.382184815418 -0.327107638297
v 0.487668475354 0.399273937439 -0.317021286838
v 0.49062525913 0.430735430758 -0.289169531379
v 0.498405788405 0.433748999082 -0.294249669633
v 0.502820401731 0.437536432103 -0.299329807887
v 0.503454758476 0.435777065616 -0.312250693734
v 0.504475411224 0.439878805298 -0.317930718001
v 0.505292147848 0.440835924219 -0.327543486106
v 0.506202231559 0.443202783507 -0.335420856406
v 0.507256349557 0.447787658162 -0.340527253436
v 0.508075590254 0.448702989304 -0.350266964513
v 0.508806760969 0.448199594387 -0.36183724564
v 0.505698108615 0.441681484847 -0.382099309277
v 0.506507132922 0.442365396979 -0.392278630934
v 0.507430966515 0.444799965176 -0.400250953217
v 0.508496720614 0.449435450921 -0.40541371827
v 0.509562474713 0.454070936665 -0.410576483322
v 0.511190474334 0.467599833622 -0.404224297552
v 0.515810850377 0.473881031966 -0.406190609536
v 0.516871630701 0.478494884328 -0.411329280442
v 0.517962044316 0.483595917507 -0.415830618106
v 0.519025048299 0.488249139557 -0.420915335319
v 0.516649274102 0.493119222472 -0.42674529316
v 0.514348281865 0.49920008203 -0.430978674591
v 0.515408758605 0.50381261396 -0.436115874869
v 0.512959149043 0.507533690921 -0.44348447464
v 0.5137006739 0.507092142628 -0.455390550825
v 0.510975950445 0.506677247964 -0.468365212964
v 0.512042037161 0.511314180422 -0.473529589292
v 0.509686394825 0.516737809684 -0.47869396562
v 0.510659529985 0.519941214173 -0.485804795441
v 0.504878661069 0.52615529987 -0.4909722982
v 0.507430958134 0.500490698486 -0.536518705621
v 0.504925197555 0.504201490656 -0.544200899273
v 0.505928169284 0.507731063746 -0.551051894777
v 0.50313967299 0.507335455719 -0.56445017606
v 0.50011204363 0.503664739885 -0.582461709882
v 0.496690528225 0.500096657068 -0.594476960514
v 0.490535010962 0.503142920661 -0.604392902992
v 0.48382308499 0.499055095111 -0.624363962372
v 0.484878266725 0.503264179725 -0.630477897975
v 0.48444679463 0.497525969992 -0.638562740205
v 0.479813739246 0.493551128787 -0.633231228665
v 0.473115625872 0.490756353425 -0.651546869338
v 0.473199258859 0.482700895485 -0.675102914158
v 0.470517633062 0.485532625453 -0.684489869821
v 0.470986607661 0.482362029999 -0.701296816766
v 0.468492854339 0.487691288467 -0.707199012426
v 0.468814387206 0.482764988302 -0.726658022345
v 0.469071191789 0.476965912794 -0.74747689223
v 0.473004745619 0.470862278911 -0.767640398077
v 0.474004806823 0.47412607891 -0.775514354457
v 0.475016730741 0.477528050044 -0.78320426532
v 0.479587183433 0.479088684713 -0.792380431819
v 0.48053164077 0.481547098755 -0.801491330798
v 0.481320475817 0.481937487837 -0.813673692939
v 0.4857335101 0.481051202542 -0.826549470888
v 0.48632493525 0.478591875044 -0.843054054515
v 0.491132642533 0.482716555502 -0.848586547596
v 0.495940349815 0.486841235961 -0.854119040677
v 0.504624372215 0.493284755913 -0.854919385763
v 0.512219340163 0.495903867179 -0.848484229781
v 0.51959623162 0.495355722933 -0.846792046315
v 0.527485795626 0.496423270475 -0.849141057509
v 0.535358900312 0.497218503119 -0.851897084583
v 0.540148846268 0.501327945588 -0.85740913873
v 0.544938792225 0.505437388057 -0.862921192877
v 0.549728738181 0.509546830526 -0.868433247023
v 0.550866596333 0.514495932056 -0.87394530117
v 0.552004454485 0.519445033586 -0.879457355317
v 0.549490224831 0.525233794176 -0.884969409464
v 0.546975995178 0.531022554767 -0.890481463611
v 0.5401837745 0.534095222885 -0.894902175129
v 0.533177057969 0.53342880274 -0.905102803239
v 0.526977123462 0.539763621703 -0.91110966688
v 0.520794504386 0.546409564612 -0.916636292999
v 0.514041452181 0.550574414896 -0.919399606058
v 0.507288399977 0.55473926518 -0.922162919117
v 0.500535347772 0.558904115464 -0.924926232176
v 0.492197437285 0.541446931839 -0.961699568406
v 0.485216494136 0.543487437192 -0.967899585561
v 0.477326587341 0.534244608434 -0.991955634176
v 0.46930613798 0.53343449306 -0.989148028223
v 0.462095434466 0.537822049814 -0.98491764395
v 0.453958651917 0.539560780202 -0.971326103027
v 0.445386884564 0.53624074815 -0.965729341972
v 0.44219672358 0.549696228465 -0.932526827536
v 0.437369538267 0.545554837203 -0.926971920014
v 0.432542352954 0.54141344594 -0.921417012493
v 0.423635196928 0.534208761422 -0.92192653589
v 0.418696383013 0.529064832189 -0.917901794938
v 0.417465470824 0.523282574454 -0.913543487338
v 0.412626614662 0.519131170411 -0.90797514953
v 0.40796487746 0.516619274871 -0.899897662226
v 0.406816194343 0.511623090274 -0.894333169386
v 0.402037346423 0.507989102018 -0.887986623637
v 0.401292974962 0.506654651987 -0.876879757486
v 0.396592839352 0.503644444575 -0.869617747885
v 0.395831188325 0.502078280254 -0.858923772446
v 0.391130851178 0.498973349816 -0.851837892118
v 0.390095709956 0.494948119613 -0.844876310155
v 0.385617808218 0.493706401347 -0.835036910066
v 0.38467370744 0.490437798928 -0.826983442203
v 0.383624661551 0.486263850775 -0.820286272403
v 0.379295825274 0.486142297901 -0.808867725461
v 0.378507663318 0.484141267048 -0.799014626948
v 0.378365576958 0.48755592026 -0.781272301102
v 0.37809466538 0.489858655521 -0.76523859619
v 0.377715268972 0.491226192599 -0.750638840501
v 0.377225382927 0.491647233574 -0.737474224789
v 0.376584651701 0.490790801844 -0.726206654848
v 0.375862596439 0.489242644935 -0.715974557873
v 0.37514685957 0.487734632675 -0.705719517676
v 0.374401984364 0.485972662367 -0.695861340364
v 0.373576271886 0.483530370787 -0.687001720631
v 0.372639514423 0.480162006192 -0.679477966749
v 0.37691934265 0.489617249131 -0.652724202682
v 0.37633738059 0.489188986498 -0.641169302693
v 0.375248098283 0.484523784733 -0.635590900026
v 0.377749740494 0.479347715214 -0.629586806643
v 0.37748135272 0.481574084688 -0.614436572579
v 0.377018858619 0.482147933145 -0.601644620268
v 0.380884211313 0.488667136971 -0.579587644073
v 0.380334642034 0.488520335985 -0.567928301855
l 215 216 217 218 219 220 221 222 223 224 225 226 227 228 229 230 231 232 233 234 235 236 237 238 239 240 241 242 243 244 245 246 247 248 249 250 251 252 253 254 255 256 257 258 259 260 261 262 263 264 265 266 267 268 269 270 271 272 273 274 275 276 277 278 279 280 281 282 283 284 285 286 287 288 289 290 291 292 293 294 295 296 297 298 299 300 301 302 303 304 305 306 307 308 309 310 311 312 313 314 315 316 317 318 319 320 321 322 323 324 325 326 327 328 329 330 331 332 333 334 335 336 337 338 339 340 341 342 343 344 345 346 347 348 349 350 351 352 353 354 355 356 357 358 359 360 361 362 363 364 365
o curve_8
v 0.387231648773 0.521244196745 -0.510216120013
v 0.386895752054 0.522880223468 -0.496382842061
v 0.382454764528 0.519665323191 -0.490280552134
v 0.382094505375 0.520981566599 -0.47697316998
v 0.381821750623 0.523009057832 -0.462763708296
v 0.377447230576 0.520143814869 -0.456258739405
v 0.376784370577 0.518835885172 -0.44661925513
v 0.376948806461 0.524325436339 -0.427931276089
v 0.377104582461 0.529708701451 -0.409481391393
v 0.373071011467 0.529253391422 -0.39990318292
v 0.368847517924 0.527189315932 -0.392481423945
v 0.364503999392 0.524132135496 -0.386383732513
v 0.357552065972 0.52602669287 -0.380366092994
v 0.349740270844 0.5230010146 -0.375265540337
v 0.342450777437 0.522234597563 -0.372755329249
v 0.33569180661 0.523788566525 -0.372755329249
v 0.328406373218 0.523052692345 -0.370205020004
v 0.321517935266 0.523713160024 -0.371376936605
v 0.314361968999 0.523870787127 -0.367654710758
v 0.307593923793 0.525364617039 -0.367733551575
v 0.300308305057 0.524628724138 -0.365183177449
v 0.293418513625 0.525349967814 -0.366274390873
v 0.286642129082 0.526811562999 -0.366396282395
v 0.279804872413 0.527902687217 -0.367004420391
v 0.273041754245 0.529457609702 -0.367004420391
v 0.266278636077 0.531012532188 -0.367004420391
v 0.259222075322 0.531634370303 -0.362670208752
v 0.252462850828 0.533188397586 -0.362670208752
v 0.245703626334 0.534742424869 -0.362670208752
v 0.238944401841 0.536296452153 -0.362670208752
v 0.232185177347 0.537850479436 -0.362670208752
v 0.225434548311 0.539450531411 -0.36260961019
v 0.218682916967 0.541043845252 -0.362557809084
v 0.211923938021 0.542597816081 -0.362557809084
v 0.205164959074 0.54415178691 -0.362557809084
v 0.198401366527 0.545682549183 -0.362588447752
v 0.191594378032 0.546679670943 -0.368906163425
v 0.184822929118 0.548215139782 -0.368933189453
v 0.178055508504 0.549770585874 -0.368933778284
v 0.17126934899 0.551237178063 -0.369052192276
v 0.164468325349 0.552636815526 -0.369259608157
v 0.157642330751 0.553925731272 -0.369614318249
v 0.150873515726 0.555481963534 -0.369614318249
v 0.144104700701 0.557038195796 -0.369614318249
v 0.136976682633 0.557044420757 -0.366073311061
v 0.130210023761 0.558600157293 -0.366073311061
v 0.123443364889 0.56015589383 -0.366073311061
v 0.116506219353 0.560986982871 -0.367037623868
v 0.109575133001 0.56186214146 -0.367944542534
v 0.102804386258 0.563418817848 -0.367944542534
v 0.0960336395154 0.564975494235 -0.367944542534
v 0.0885656793774 0.563552256046 -0.366303572741
v 0.0817220825222 0.564826685212 -0.366680357853
v 0.0749485140936 0.566384010339 -0.366680357853
v 0.068174945665 0.567941335465 -0.366680357853
v 0.0611594041753 0.568567584396 -0.36792377493
v 0.0536755600095 0.567146248344 -0.366278779628
v 0.0466922402439 0.567933974493 -0.367307511821
v 0.040302731763 0.570945725267 -0.3653669319
v 0.0331311734572 0.571051827406 -0.367307511821
v 0.0256920938224 0.569839957889 -0.365381433031
v 0.0189101755438 0.571399202747 -0.365381433031
v 0.0121282572652 0.572958447605 -0.365381433031
v 0.00459145525308 0.571423779871 -0.363885810503
v -0.00260140862049 0.571563431013 -0.365783479849
v -0.00934232829489 0.573287440175 -0.365565157953
v -0.0165392540881 0.573456850159 -0.367426699474
v -0.0241299392394 0.571809657789 -0.36607712362
v -0.0310158290668 0.573067960021 -0.366483536298
v -0.0378113918063 0.574630341906 -0.366483536298
v -0.0456916246355 0.572077900381 -0.366342486831
v -0.0525088557145 0.573588688381 -0.366413140356
v -0.0602761945893 0.571451679448 -0.365712993161
v -0.0672796662556 0.572388123638 -0.366552860768
v -0.0750655970948 0.570239472459 -0.365864270013
v -0.0820856665116 0.571156444775 -0.36673160003
v -0.0895668130954 0.569991805489 -0.364725399183
v -0.0969589658918 0.56979766621 -0.367077514328
v -0.104013730749 0.569948334199 -0.363312716761
v -0.111495781526 0.569526386387 -0.365968661975
v -0.118558379164 0.569647315786 -0.362242406203
v -0.125740850745 0.570151672481 -0.363661917433
v -0.133150565001 0.569248824704 -0.361300596515
v -0.140045576751 0.570612192133 -0.361574700414
v -0.147934794888 0.568345177931 -0.36103028261
v -0.154763613183 0.569915205669 -0.36103028261
v -0.162495527084 0.568129604659 -0.359841442078
v -0.170690666486 0.5650723051 -0.360341001054
v -0.17858371709 0.563735498601 -0.364213286474
v -0.186427375633 0.561723052878 -0.363314156575
v -0.194019703186 0.561287397834 -0.365989408579
v -0.201943654426 0.559107190346 -0.365307374837
v -0.209550655498 0.557796012986 -0.36346740123
v -0.216711373048 0.558585669147 -0.364514328113
v -0.224111215876 0.557838238901 -0.361923969165
v -0.231623736838 0.556797448609 -0.359722373095
v -0.239024510449 0.556049924348 -0.357131688321
v -0.246425284061 0.555302400087 -0.354541003546
v -0.256093021071 0.549759027524 -0.363963572143
v -0.264113538413 0.547502965656 -0.363355491753
v -0.271918852333 0.545808555779 -0.36200143097
v -0.279349994985 0.545057964055 -0.359400115332
v -0.286921595291 0.543961050915 -0.357254871166
v -0.294391300684 0.543118658366 -0.354773777784
v -0.303198889392 0.540060895394 -0.360885320919
v -0.311452310622 0.537365451057 -0.360833185691
v -0.318929153735 0.536556530413 -0.358297720529
v -0.326790869688 0.534834081456 -0.356960333774
v -0.336172070896 0.53061684646 -0.364583316155
v -0.343868149518 0.529344441275 -0.362644923957
v -0.352255109146 0.52756912862 -0.367066185597
v -0.360224813178 0.525700109131 -0.365903311723
v -0.367633287627 0.52624709258 -0.367281215596
v -0.375590107605 0.524438136618 -0.366035649599
v -0.383486771469 0.52391326852 -0.368819542313
v -0.391763605903 0.5225672819 -0.372684116666
v -0.399259283872 0.523001927159 -0.374217015769
v -0.406935814855 0.523053869432 -0.376254596073
v -0.414540694664 0.523285128687 -0.378059285368
v -0.427224642693 0.513663943535 -0.398602040952
l 366 367 368 369 370 371 372 373 374 375 376 377 378 379 380 381 382 383 384 385 386 387 388 389 390 391 392 393 394 395 396 397 398 399 400 401 402 403 404 405 406 407 408 409 410 411 412 413 414 415 416 417 418 419 420 421 422 423 424 425 426 427 428 429 430 431 432 433 434 435 436 437 438 439 440 441 442 443 444 445 446 447 448 449 450 451 452 453 454 455 456 457 458 459 460 461 462 463 464 465 466 467 468 469 470 471 472 473 474 475 476 477 478 479 480 481 482 483 484 485
o curve_9
v -0.450080782869 0.466347460348 -0.472765500852
v -0.453423193591 0.461521811545 -0.491041515255
v -0.454036194427 0.462638325928 -0.501496637935
v -0.452972087261 0.467397986427 -0.507117531425
v -0.454046451816 0.458837163441 -0.529497882946
v -0.454393931779 0.451794895134 -0.549947949757
v -0.451970164317 0.450748816496 -0.562399781352
v -0.449349565923 0.450106921944 -0.574350622204
v -0.445618370007 0.451878974688 -0.583062319179
v -0.44666441366 0.452043953732 -0.595139285472
v -0.443420868923 0.452720572498 -0.605406500465
v -0.441168678027 0.451192307325 -0.61873513996
v -0.441043751272 0.453930672842 -0.627402580001
v -0.439196394761 0.451477365753 -0.642103176996
v -0.438303456776 0.455915927202 -0.648476739826
v -0.438159637474 0.449662308714 -0.668571791263
v -0.437049882268 0.454590370359 -0.674323215331
v -0.436216335242 0.458908650746 -0.680931857605
v -0.43602082112 0.452731960473 -0.70112891038
v -0.435718226053 0.455885740318 -0.709449311045
v -0.434807898777 0.460386464769 -0.715878114858
v -0.435620979115 0.451932593846 -0.739537438916
v -0.435204954942 0.455351654237 -0.747588078715
v -0.435267013071 0.457716890814 -0.757168380632
v -0.435476410467 0.45976225266 -0.767238484006
v -0.435656914269 0.461877693217 -0.777240097881
v -0.43582308776 0.464030928099 -0.787219132671
v -0.438562092784 0.46970666507 -0.793364720947
v -0.440525364737 0.467942000615 -0.809123809101
v -0.441792744577 0.467715377623 -0.822700874044
v -0.444684519143 0.473120963878 -0.829325281288
v -0.44496439436 0.475081505037 -0.839761826633
v -0.447580789237 0.481105490767 -0.845497862007
v -0.450800404717 0.485829275565 -0.853172993959
v -0.453837768938 0.490956583858 -0.860259813866
v -0.454417003314 0.492330986178 -0.871683806915
v -0.457644481436 0.497080970127 -0.879379799381
v -0.460657304235 0.502298945276 -0.88638258098
v -0.467954209681 0.507414440823 -0.894886921746
v -0.470583942014 0.513458190754 -0.90065470697
v -0.474070729822 0.51771643664 -0.909163383298
v -0.477199824905 0.522733643557 -0.916524986915
v -0.483679096874 0.529610584141 -0.922381049142
v -0.496355669502 0.515116601095 -0.960099875229
v -0.499519850609 0.51142100082 -0.979836458605
v -0.502183256917 0.517553225636 -0.985675559169
v -0.509318125477 0.521953555805 -0.988595109451
v -0.516436646333 0.526386602031 -0.991463115443
v -0.523025267155 0.53187127102 -0.992669619015
v -0.530455510762 0.53424793213 -0.991723392244
v -0.537506376922 0.535919154859 -0.984837720414
v -0.531957400444 0.562070177471 -0.939349879645
v -0.534033776835 0.574563260339 -0.92240089403
v -0.542225607576 0.573735834377 -0.919533295007
v -0.547209464402 0.569460029788 -0.913798096962
v -0.555401295143 0.568632603826 -0.910930497939
v -0.564851919882 0.565425208913 -0.911793948594
v -0.570304156233 0.560271062065 -0.9074182922
v -0.575294995125 0.555989267346 -0.901675059508
v -0.584964526897 0.55094743188 -0.898469680489
v -0.586350913415 0.545412363622 -0.893302011312
v -0.5890827629 0.537351567508 -0.892021020065
v -0.592825897036 0.527383468662 -0.893633516258
v -0.595543217502 0.519333186071 -0.892258129405
v -0.596833701373 0.513963273415 -0.886766897474
v -0.590527851338 0.506726935082 -0.881435829777
v -0.584164666975 0.499595603714 -0.875942263447
v -0.577285868624 0.494898939169 -0.873572663948
v -0.569631366967 0.493139076862 -0.873572663948
v -0.561380649012 0.493972450799 -0.87646087679
v -0.550192178009 0.499167623184 -0.865993072746
v -0.541542541693 0.498023603042 -0.858314930775
v -0.538570775779 0.492676450026 -0.851526089489
v -0.534697985565 0.489139545016 -0.84205067354
v -0.530031087601 0.48722337355 -0.830202844513
v -0.523919727606 0.488264845726 -0.814037903668
v -0.523756200495 0.485849766849 -0.804320911653
v -0.523520838222 0.483586378796 -0.79441152835
v -0.522430841588 0.483062411417 -0.781993833388
v -0.52093915269 0.48336428129 -0.768425026367
v -0.519105470975 0.484373396082 -0.753890113687
v -0.516557994618 0.486848512933 -0.737304718872
v -0.520254454809 0.485097506756 -0.728116081015
v -0.522681288595 0.485905578994 -0.715281474502
l 486 487 488 489 490 491 492 493 494 495 496 497 498 499 500 501 502 503 504 505 506 507 508 509 510 511 512 513 514 515 516 517 518 519 520 521 522 523 524 525 526 527 528 529 530 531 532 533 534 535 536 537 538 539 540 541 542 543 544 545 546 547 548 549 550 551 552 553 554 555 556 557 558 559 560 561 562 563 564 565 566 567 568 569
o curve_10
v -0.507964508001 0.513038572008 -0.663661789761
v -0.514335510978 0.514051613129 -0.651968584868
v -0.510772550672 0.526770130208 -0.622498395664
v -0.517275176656 0.530033455136 -0.620245739772
v -0.520668620407 0.52869692241 -0.610826881721
v -0.523999245143 0.535513666407 -0.591106332008
v -0.528454011801 0.541343181621 -0.579037681958
v -0.528908370898 0.545697098938 -0.561745180725
v -0.533633935802 0.541642890962 -0.556307213396
v -0.538359500705 0.537588682985 -0.550869246066
v -0.550962596047 0.526050241913 -0.556997778868
v -0.555704841271 0.521981723375 -0.551540616576
v -0.560447086495 0.517913204836 -0.546083454285
v -0.560447797005 0.523005843636 -0.528007717079
v -0.55504616445 0.538474956426 -0.495772831408
v -0.555357959289 0.542869148962 -0.478870623303
v -0.562476656005 0.544505823247 -0.478870623303
v -0.567144968266 0.54050073408 -0.473498539737
v -0.568677168812 0.534869099033 -0.469225113665
v -0.569786513514 0.530044016438 -0.463851185414
v -0.571237495763 0.524565048709 -0.459359530214
v -0.572347147296 0.519738631558 -0.453984115604
v -0.571190869419 0.519259037856 -0.442787151086
v -0.572176238276 0.514676242055 -0.437108305102
v -0.57683843274 0.510676401534 -0.431743261621
v -0.574391259499 0.50504203158 -0.42637821814
v -0.576264522784 0.498749300114 -0.422960236236
v -0.577907293129 0.492897921942 -0.41894760788
v -0.579015964902 0.488075766248 -0.41357693946
v -0.576566225941 0.482435488981 -0.408206271039
v -0.575645821034 0.481553510014 -0.397715054015
v -0.561972911619 0.490121138529 -0.372924913061
v -0.557157772681 0.496922542308 -0.352661308244
v -0.557073254016 0.49447343676 -0.344388880363
v -0.558166873268 0.489716751841 -0.339091129917
v -0.562770590439 0.485767080794 -0.333793379471
v -0.563864209691 0.481010395874 -0.328495629025
v -0.560900921397 0.477825039542 -0.325846753802
v -0.558995760735 0.471250613499 -0.32182520007
v -0.559264887215 0.468124375425 -0.314471655277
v -0.563867426349 0.464175715053 -0.309175260464
v -0.561451566029 0.458613439948 -0.303878865652
v -0.562544905436 0.453857972209 -0.298582470839
v -0.55231065239 0.463882660916 -0.273972472904
l 570 571 572 573 574 575 576 577 578 579 580 581 582 583 584 585 586 587 588 589 590 591 592 593 594 595 596 597 598 599 600 601 602 603 604 605 606 607 608 609 610 611 612 613
o curve_11
v -0.532187243491 0.501486514206 -0.216454284809
v -0.526289066123 0.510759806946 -0.194167201216
v -0.527350293143 0.506144011683 -0.189026366406
v -0.52996493386 0.50600871502 -0.17936993124
v -0.532261708839 0.506490736616 -0.168992482279
v -0.526838079182 0.507282552649 -0.156385802663
v -0.525577673448 0.507329211957 -0.14567704324
v -0.52890992955 0.505724067282 -0.137931423206
v -0.528014795304 0.50504234124 -0.12816601382
v -0.527045628826 0.504516865391 -0.118248342903
v -0.526077729609 0.503997187068 -0.108359391781
v -0.524438080232 0.504833298161 -0.0968977997145
v -0.52356465922 0.504141888827 -0.0872884529547
v -0.523553512923 0.501725153437 -0.0797440136271
v -0.52350298212 0.499391982952 -0.0721199322378
v -0.524261397686 0.495433958927 -0.0664138424917
v -0.525124667005 0.491265684935 -0.0609574673122
v -0.516665447937 0.498445245798 -0.0414533474486
v -0.517206877801 0.494943945819 -0.0352843074799
v -0.517760341464 0.491420239732 -0.0291495753906
v -0.516963154317 0.490641159537 -0.0198750932346
v -0.51046740692 0.493981705206 -0.00505676826023
v -0.509224255141 0.494144126941 0.00520479035872
v -0.509218608332 0.507855873583 0.024095191104
v -0.516262904569 0.507178012002 0.0266074631741
v -0.522664220093 0.507789846444 0.0305822178368
v -0.525822690003 0.506379476881 0.0380930871218
v -0.522884483508 0.502575240845 0.0445832705558
v -0.515589871134 0.507576274274 0.0609335454592
v -0.519322252048 0.512276935284 0.07435799573
v -0.524037555646 0.514936217965 0.08545551425
v -0.524946711363 0.517946706774 0.0977296895148
v -0.526395622965 0.519856184279 0.108735325837
v -0.527559387242 0.522309679289 0.120299637145
v -0.528569878063 0.525042649761 0.132125899021
v -0.530165180632 0.526593539764 0.142609832718
v -0.525984950996 0.532510854858 0.158622561382
v -0.523280498336 0.535523544728 0.171393672066
v -0.525247686928 0.53629377142 0.180887102171
v -0.522400382827 0.539593676932 0.193865399213
v -0.518909439349 0.544184346759 0.208171930949
v -0.516722624457 0.546205159128 0.219653246934
v -0.515961382757 0.545407235781 0.22807444148
v -0.51566328002 0.543695424433 0.235495984052
v -0.513711335372 0.54527948498 0.246391650086
v -0.509535218297 0.551305045339 0.261932856482
v -0.510565783305 0.553861205192 0.27299339439
v -0.506383042825 0.559905656482 0.288414352354
v -0.503756328364 0.562870823062 0.300538492653
v -0.505696739761 0.563572245665 0.309515970745
v -0.509608555852 0.560346217465 0.314388179166
v -0.503610768551 0.569996228582 0.333301705045
v -0.506907755727 0.567961357768 0.339350331157
v -0.502945222023 0.573574795735 0.353960628516
v -0.505440665195 0.573104218984 0.36156061191
v -0.508433732033 0.571638847451 0.368125738144
v -0.502458809693 0.581219332033 0.386605972361
v -0.506341224816 0.577966232277 0.391292997619
v -0.51008615095 0.574983559505 0.39625192903
v -0.507284421232 0.578279335362 0.408215508311
v -0.510920403235 0.575496037499 0.413344579159
v -0.514327871218 0.573159561267 0.418915685044
v -0.508713095913 0.581976652106 0.436260032477
v -0.510915409539 0.581979260573 0.444095201946
v -0.514688463152 0.578891152488 0.448854259509
v -0.506963928516 0.591826736752 0.470056964728
v -0.51065779005 0.588861427215 0.474876625136
v -0.514443201447 0.58571585959 0.479517644835
v -0.50827516161 0.59557681252 0.497486517665
v -0.509335693619 0.597725798995 0.507218147642
v -0.510417649868 0.599813048515 0.516853792822
v -0.503322060345 0.61146950767 0.536321639617
v -0.507117115418 0.608230510595 0.540735675362
v -0.510618417957 0.605562395656 0.545695873507
v -0.514224232063 0.602689329201 0.550456648226
v -0.511479874853 0.605841029391 0.56157395884
v -0.513495685864 0.606036614794 0.569213461071
v -0.508917668605 0.612750499656 0.583606013848
v -0.509972916046 0.614778596817 0.592899285091
v -0.512486204511 0.613968739319 0.599499498022
v -0.509336030822 0.617908721194 0.611132543781
v -0.512768559957 0.615302763087 0.616012771184
v -0.510460796849 0.617615207697 0.626055797547
v -0.513145198002 0.616440929833 0.632232475762
v -0.514772827039 0.617295899632 0.640263856275
v -0.510671819958 0.623062816145 0.653371305061
v -0.505622194667 0.630679250598 0.668102303083
v -0.507975947477 0.630091370137 0.674700054753
v -0.506168098436 0.631458150163 0.68363998796
v -0.508659817084 0.630589010339 0.689942281949
v -0.5075066716 0.630696677878 0.697689407592
v -0.506506680986 0.630516161031 0.705151654738
v -0.508001742244 0.63154983926 0.713101780265
v -0.504515013941 0.636167496809 0.724787616961
v -0.501727804043 0.639451014213 0.735233637132
v -0.501564774013 0.637679442294 0.741164556212
v -0.500770395968 0.637132006595 0.748160249456
v -0.497773258551 0.640852605705 0.758878907512
v -0.492255331585 0.643521137735 0.769180457295
v -0.491610561351 0.642716537525 0.775861571992
v -0.489723101005 0.638370850147 0.779999532744
v -0.487835640659 0.63402516277 0.784137493497
v -0.492666745451 0.622517913388 0.781573250397
v -0.493523894642 0.618789752398 0.785725483912
v -0.491629924018 0.614429075762 0.789877717428
v -0.487892965145 0.613708399549 0.797123901626
v -0.483229713935 0.614849631948 0.805921222327
v -0.479633838136 0.613906821265 0.812923775538
v -0.475347861051 0.614365802769 0.821080189906
v -0.468203498528 0.614501471747 0.82945737595
v -0.459708318997 0.618416243514 0.837362388985
v -0.452605945796 0.618604336569 0.845710670246
v -0.444968725041 0.620921097429 0.852227802095
v -0.436869540519 0.624251562658 0.859560832532
v -0.429669650423 0.625796793025 0.865396380948
v -0.423441903614 0.625373184774 0.869594321146
v -0.416163489364 0.628123223144 0.872870104191
v -0.410642935636 0.62628052355 0.875884809803
v -0.404274124725 0.626248759295 0.88037587385
v -0.397473718141 0.628096901422 0.882893027392
v -0.391506106037 0.627277358632 0.886722204597
v -0.384997928667 0.628561713847 0.888770018456
v -0.378540972596 0.62976351096 0.890748359876
v -0.373625712227 0.626732310728 0.892759764327
v -0.367441292992 0.627379199236 0.894280477412
v -0.361135836491 0.628314438557 0.896033608411
v -0.354836704475 0.629260532008 0.897793649241
v -0.348915702552 0.629388319899 0.898888261042
v -0.343683841229 0.627114553147 0.901497464675
v -0.335832515458 0.63162846487 0.90613387388
v -0.326158152136 0.640349190252 0.914164446279
v -0.321476301953 0.636087339987 0.918566315533
v -0.315614929161 0.63538705562 0.922400515347
v -0.309144151821 0.636126395609 0.927378383808
v -0.302033044723 0.639230541318 0.930829830076
v -0.295864547498 0.639359014918 0.935295608067
v -0.289438601383 0.640134428728 0.940264522923
v -0.283540033481 0.639706328983 0.944262871894
v -0.276643025359 0.642492892247 0.947429473469
v -0.271353315897 0.640675856072 0.950309161499
v -0.264414003524 0.643646743241 0.95361015958
v -0.259605110514 0.640708771838 0.955591742553
v -0.252700747495 0.643673313031 0.958876229294
v -0.247768971587 0.641066042557 0.961110165177
v -0.240959574105 0.643876883166 0.96426212331
v -0.236166041914 0.640957782349 0.966242163735
v -0.22937117673 0.643809720861 0.969415402747
v -0.222957770461 0.645748496625 0.971869142901
v -0.218143417396 0.64293138711 0.973915245739
v -0.212082008795 0.644030496988 0.975703857963
v -0.206275051104 0.644503030052 0.97700089931
v -0.201408878885 0.641850596363 0.979167377638
v -0.195316664084 0.643103419264 0.98106782391
v -0.188940860877 0.645134152065 0.98357210959
v -0.183857362854 0.643103945089 0.986210100971
v -0.178015255987 0.643782833892 0.98765561319
v -0.172167213593 0.64450247989 0.989131237102
v -0.166229419443 0.645490112401 0.990813188229
v -0.158818468704 0.649864852458 0.998392020594
v -0.155661273516 0.649628046006 1.00519196718
v -0.15016256268 0.648901910674 1.00879200609
v -0.14538276366 0.646215061716 1.01088009477
v -0.140153499515 0.645404615166 1.01115759833
v -0.134770929836 0.644418351767 1.01454469151
v -0.127732394568 0.649349326103 1.0159739279
v -0.120207829696 0.654537292695 1.02406481325
v -0.11553635267 0.651656224723 1.02597635681
v -0.110470274036 0.650491472106 1.02597635681
v -0.105508043805 0.649024494883 1.02574626227
v -0.100237613515 0.649016479707 1.02340779455
v -0.0947748318635 0.649568254702 1.02149551538
v -0.0895184476497 0.64896285943 1.02192265933
v -0.0861165286877 0.649894812905 1.02950613232
v -0.0822535504056 0.652780636675 1.03534165711
v -0.0776025137871 0.649912175037 1.03724483656
v -0.0739100500701 0.644128261321 1.03694776255
v -0.0692529661334 0.641256070085 1.03885341654
v -0.0650437782222 0.637497435123 1.03689885508
l 614 615 616 617 618 619 620 621 622 623 624 625 626 627 628 629 630 631 632 633 634 635 636 637 638 639 640 641 642 643 644 645 646 647 648 649 650 651 652 653 654 655 656 657 658 659 660 661 662 663 664 665 666 667 668 669 670 671 672 673 674 675 676 677 678 679 680 681 682 683 684 685 686 687 688 689 690 691 692 693 694 695 696 697 698 699 700 701 702 703 704 705 706 707 708 709 710 711 712 713 714 715 716 717 718 719 720 721 722 723 724 725 726 727 728 729 730 731 732 733 734 735 736 737 738 739 740 741 742 743 744 745 746 747 748 749 750 751 752 753 754 755 756 757 758 759 760 761 762 763 764 765 766 767 768 769 770 771 772 773 774 775 776 777 778 779 780 781 782 783 784 785 786 787 788 789 790 791
