# Fixed world centers; Z up; paths immutable
v -0.379989624 -0.553674579 1.00248849
v -0.380926788 -0.560337007 1.00008965
v -0.382570088 -0.566733956 0.997457862
v -0.381165892 -0.57092464 0.99528718
v -0.378922701 -0.57839787 0.997134089
v -0.379651368 -0.581795037 0.994260192
v -0.382198721 -0.588196218 0.988145709
v -0.380508393 -0.589160562 0.985523582
v -0.379598737 -0.593507111 0.980006933
v -0.378680378 -0.597857356 0.974492311
v -0.380206853 -0.600973189 0.971341968
v -0.379550934 -0.605231762 0.965734422
v -0.381058156 -0.608359396 0.962586045
v -0.380727679 -0.612505257 0.956862152
v -0.380163252 -0.616736233 0.951216221
v -0.381052315 -0.620090306 0.948274434
v -0.380906045 -0.624176621 0.942479134
v -0.38018474 -0.628467679 0.936881483
v -0.377913982 -0.629633546 0.934460819
v -0.380753279 -0.635979712 0.928193212
v -0.378847718 -0.637016177 0.925644219
v -0.378560364 -0.641159594 0.919887483
v -0.378030568 -0.645389259 0.914214194
v -0.378996491 -0.648727238 0.911233902
v -0.3780756 -0.653094828 0.905697227
v -0.380003244 -0.65610522 0.902367651
v -0.379685283 -0.66026938 0.896608591
v -0.379226118 -0.664483786 0.89089787
v -0.380641222 -0.667677999 0.88774538
v -0.380061775 -0.671937108 0.882073581
v -0.378912657 -0.676389873 0.876609504
v -0.377494067 -0.677257001 0.873881459
v -0.382442534 -0.682950735 0.866773784
v -0.380754977 -0.683908522 0.864141405
v -0.379970968 -0.688244641 0.858533323
v -0.37881732 -0.692704678 0.85306263
v -0.381367713 -0.695539594 0.849464536
v -0.380276591 -0.699981868 0.843966067
v -0.382046521 -0.703081608 0.840655804
v -0.381080836 -0.707484961 0.835106492
v -0.380083233 -0.711899221 0.829568624
v -0.380586654 -0.715418816 0.826735556
v -0.382259965 -0.718967915 0.820168257
v -0.382171512 -0.723093152 0.814272165
v -0.384013236 -0.726187468 0.810916007
v -0.382797807 -0.730679989 0.805451035
v -0.381980985 -0.735045075 0.799830377
v -0.380020946 -0.736087024 0.797299743
v -0.379163951 -0.740465164 0.791694164
v -0.380350947 -0.743776739 0.788583636
v -0.378889382 -0.748348117 0.783214748
v -0.380259037 -0.751605153 0.780028701
v -0.37931937 -0.756013334 0.774450719
v -0.378523082 -0.760377288 0.768814385
v -0.37984854 -0.763654113 0.765639842
v -0.379023492 -0.76802969 0.760011494
v -0.378865033 -0.772200465 0.754111767
v -0.38007021 -0.775520861 0.750979364
v -0.379712462 -0.7797575 0.745154738
v -0.380256176 -0.783721328 0.738957822
v -0.379124433 -0.784504056 0.736088812
v -0.381168723 -0.791273296 0.729956985
v -0.380021513 -0.792061687 0.72709173
v -0.379353076 -0.796401858 0.721381724
v -0.381204486 -0.799542129 0.717966318
v -0.380460441 -0.803908765 0.712282717
v -0.379533887 -0.808330774 0.706674099
v -0.380924553 -0.811616004 0.703443408
v -0.380581468 -0.81586808 0.697585344
v -0.379643351 -0.820297241 0.691976428
v -0.381757975 -0.823377013 0.688431501
v -0.381597996 -0.827582479 0.682486236
v -0.377306461 -0.829749584 0.677586436
v -0.36781913 -0.829735041 0.677571118
v -0.379871219 -0.827130198 0.665634334
v -0.380047351 -0.82799685 0.658789217
v -0.378907204 -0.829248667 0.652505398
v -0.374806702 -0.837401092 0.652376711
v -0.37575227 -0.84361434 0.653434694
v -0.373198241 -0.851283491 0.652636468
v -0.374019772 -0.854280531 0.653012156
v -0.375746429 -0.860245883 0.653725982
v -0.377175719 -0.866288304 0.654567838
v -0.37335211 -0.874260843 0.654326022
v -0.374494582 -0.880359828 0.65528971
v -0.376996815 -0.886077166 0.655659676
v -0.378584355 -0.892040372 0.656426609
v -0.37541762 -0.899768114 0.655900598
v -0.377365083 -0.905614495 0.656508207
v -0.379901707 -0.911298513 0.656858623
v -0.379388332 -0.917786479 0.658532083
v -0.377458185 -0.921959877 0.656746328
v -0.37795803 -0.928159595 0.657978415
v -0.380073994 -0.933928907 0.658506691
v -0.3825562 -0.939599156 0.658875167
v -0.380161941 -0.947017312 0.658017933
v -0.382829279 -0.95262742 0.658303976
v -0.380901039 -0.954129398 0.652464271
v -0.38135919 -0.955027699 0.645576477
v -0.380579352 -0.956241071 0.639219761
v -0.369773775 -0.956847429 0.636548579
v -0.356939733 -0.957473516 0.638148725
v -0.352371931 -0.956005991 0.636099517
v -0.335863292 -0.954971194 0.635307133
v -0.324047238 -0.955880105 0.6331985
v -0.320154399 -0.953763187 0.63420707
v -0.343330711 -0.941979587 0.618942618
v -0.338733017 -0.936877489 0.619517922
v -0.251727104 -0.954013646 0.654051423
v -0.253282756 -0.954082608 0.650068998
v -0.252667099 -0.955204785 0.643785179
v -0.252241015 -0.956278324 0.637405634
v -0.239143565 -0.95761025 0.636101127
v -0.224141121 -0.956390738 0.63497144
v -0.218622729 -0.955264211 0.633503616
v -0.207819685 -0.955552995 0.634501517
v -0.193949118 -0.953623176 0.636202395
v -0.199356586 -0.949575365 0.629655123
v -0.215302348 -0.939109504 0.620675325
v -0.210129559 -0.934811056 0.61828953
v -0.128949553 -0.954902411 0.649284303
v -0.1231222 -0.953941047 0.648077369
v -0.12334089 -0.954784691 0.641533315
v -0.120329008 -0.956516325 0.63652122
v -0.106244989 -0.955271006 0.635315418
v -0.0916035399 -0.95676291 0.638390958
v -0.0873667821 -0.955830097 0.633257985
v -0.078426972 -0.955762506 0.633623481
v -0.0667140409 -0.953490615 0.634595156
v -0.0717302114 -0.94608748 0.630626619
v -0.0867576227 -0.939267278 0.619299233
v -0.0832934901 -0.934206665 0.619453788
v -0.0801453367 -0.929056585 0.619453788
v -0.0816313326 -0.922566652 0.617180526
v -0.0798205286 -0.916588187 0.619761646
v -0.086569339 -0.9111467 0.618926823
v -0.0637599826 -0.911339045 0.631771684
v -0.061957594 -0.905388355 0.634340823
v -0.0627206862 -0.899088681 0.632434785
v -0.0671381652 -0.891673982 0.628737509
v -0.0753014907 -0.883094192 0.623198688
v -0.0851800293 -0.874359787 0.613543689
v -0.0835913494 -0.871760845 0.613543689
v -0.0810912102 -0.866354525 0.613210559
v -0.0792660043 -0.860328555 0.615812123
v -0.0843276456 -0.852558434 0.611759067
v -0.0840908214 -0.849122584 0.614367783
v -0.0673343912 -0.847787678 0.624297917
v -0.0596173182 -0.84364754 0.629782379
v -0.068465665 -0.834630311 0.62389046
v -0.0652881935 -0.829432249 0.62389046
v -0.0639974773 -0.826346874 0.627008498
v -0.0868292898 -0.813089788 0.610953689
v -0.0822594538 -0.808680177 0.608329773
v -0.0806567743 -0.806058347 0.608329773
v 0.00375860371 -0.827606797 0.64846015
v 0.0217972584 -0.827826858 0.652645469
v 0.0354981348 -0.827018023 0.651527345
v 0.047946915 -0.828498125 0.653783083
v 0.0527725704 -0.827799916 0.64906019
v 0.0656064227 -0.829435647 0.651560843
v 0.0735063776 -0.835475028 0.653145313
v 0.0734578893 -0.841495275 0.654666007
v 0.070903033 -0.84667325 0.654921591
v 0.0743853971 -0.854202092 0.655056715
v 0.0735514462 -0.859928012 0.656175673
v 0.0717125833 -0.865318418 0.656786859
v 0.0729311407 -0.87206465 0.655784249
v 0.0712736472 -0.877499223 0.656484425
v 0.0691091046 -0.882766724 0.65692836
v 0.0710081682 -0.886725843 0.65550375
v 0.069134444 -0.892075777 0.656092525
v 0.0666807219 -0.897239387 0.65638876
v 0.0683855861 -0.904081881 0.655633628
v 0.0658941939 -0.90922308 0.655908823
v 0.0674749538 -0.915610373 0.65822655
v 0.0689129531 -0.922330976 0.657340407
v 0.0673977062 -0.924809754 0.657340407
v 0.0643672049 -0.92976737 0.657340407
v 0.0653616711 -0.935929537 0.659356773
v 0.0669692978 -0.942661643 0.658557355
v 0.0643503442 -0.947725713 0.658759654
v 0.0625754222 -0.953444898 0.656265914
v 0.0630526245 -0.954404533 0.650261879
v 0.0647424236 -0.955719829 0.644862115
v 0.0649101585 -0.956591189 0.638685226
v 0.0714247301 -0.95598942 0.638097286
v 0.0839212909 -0.957559109 0.637451112
v 0.0867124349 -0.955877364 0.634982824
v 0.103561692 -0.955852032 0.635860026
v 0.111337706 -0.955661535 0.635986328
v 0.122262634 -0.953923941 0.633873522
v 0.123758771 -0.951476395 0.633873522
v 0.11978893 -0.944478691 0.630246401
v 0.107679263 -0.935371578 0.619226754
v 0.110696413 -0.930435777 0.619226754
v 0.191939011 -0.952830017 0.657910705
v 0.192266673 -0.953691304 0.651965141
v 0.192829311 -0.954625726 0.646134257
v 0.192695096 -0.955348015 0.639924407
v 0.194799557 -0.956756353 0.634897172
v 0.207414895 -0.955681443 0.633928061
v 0.217379898 -0.956282079 0.635425508
v 0.231502995 -0.955720782 0.635342836
v 0.237825945 -0.955222189 0.634919763
v 0.250404596 -0.954223812 0.634068012
v 0.249704748 -0.951172113 0.632894814
v 0.230267122 -0.939350903 0.620700002
v 0.234445691 -0.935318828 0.618300736
v 0.236745968 -0.930322111 0.617955089
v 0.3165344 -0.953448594 0.657910228
v 0.31669867 -0.954205096 0.652000427
v 0.319125324 -0.955688477 0.647333801
v 0.319256246 -0.956436157 0.641389847
v 0.324379653 -0.955994844 0.637428105
v 0.334274292 -0.957092106 0.636152685
v 0.341561437 -0.957008541 0.63644439
v 0.353498131 -0.956010818 0.635575891
v 0.360930324 -0.955998302 0.635987163
v 0.36758101 -0.955739558 0.63596797
v 0.378012389 -0.954301715 0.634323895
v 0.35590592 -0.941448331 0.620053172
v 0.358750343 -0.936795115 0.620053172
v 0.362060487 -0.932298005 0.620320439
v 0.364904374 -0.927645624 0.620320439
v 0.365108281 -0.922096848 0.618802071
v 0.366743267 -0.916698933 0.621132553
v 0.367433906 -0.913793921 0.623737872
v 0.379006386 -0.914636552 0.632576108
v 0.378008962 -0.908673406 0.630378962
v 0.380387098 -0.903553307 0.633130908
v 0.382476807 -0.898649633 0.632702172
v 0.374818057 -0.89029932 0.626674712
v 0.357158333 -0.878347754 0.614884615
v 0.3600308 -0.873648643 0.614884615
v 0.362850934 -0.868930697 0.614854455
v 0.363374978 -0.863381088 0.61349988
v 0.366049618 -0.85860455 0.613384068
v 0.3662633 -0.855504394 0.615737915
v 0.367428303 -0.849873364 0.617811561
v 0.386396736 -0.850832641 0.630131245
v 0.3876836 -0.845284522 0.632266283
v 0.373507231 -0.837114751 0.623289585
v 0.375045568 -0.831910014 0.622520149
v 0.376697242 -0.826456904 0.624874413
v 0.35828498 -0.813932896 0.609526098
v 0.359735608 -0.811559796 0.609526098
v 0.362636864 -0.806813598 0.609526098
v 0.363520414 -0.801288068 0.608358204
v 0.365766257 -0.796282589 0.607977092
v 0.367434233 -0.790775776 0.610354602
v 0.379002869 -0.788894951 0.621537507
v 0.374082237 -0.784017503 0.617860854
v 0.382624596 -0.781251192 0.624201894
v 0.378645986 -0.773778558 0.620233953
v 0.381544888 -0.769036233 0.620233953
v 0.384420574 -0.766982496 0.624143004
v 0.357613117 -0.750467122 0.603852928
v 0.360544145 -0.745672226 0.603852928
v 0.363475174 -0.74087733 0.603852928
v 0.366406202 -0.736082494 0.603852928
v 0.361038953 -0.727602482 0.602158248
v 0.362211645 -0.725075066 0.601985812
v 0.380996704 -0.726409853 0.617426097
v 0.379930794 -0.719959915 0.615115583
v 0.380301714 -0.716873288 0.617597401
v 0.379831553 -0.71065259 0.615630627
v 0.380246997 -0.70456332 0.617293656
v 0.380829602 -0.704352081 0.623861313
v 0.380304456 -0.703668952 0.629777908
v 0.378473997 -0.702428937 0.634938598
v 0.376160115 -0.697967052 0.638988614
v 0.356572986 -0.686759472 0.623860717
v 0.359521568 -0.681935847 0.623860717
v 0.36247018 -0.677112222 0.623860717
v 0.365418762 -0.672288597 0.623860717
v 0.366649866 -0.666494668 0.626009703
v 0.368343592 -0.660902739 0.62842387
v 0.375587463 -0.660834432 0.634850621
v 0.375403076 -0.654631376 0.633063316
v 0.382049203 -0.654326856 0.639143646
v 0.378566563 -0.646639347 0.635473847
v 0.381511211 -0.641822219 0.635473847
v 0.376927733 -0.63358885 0.631160676
v 0.358490199 -0.618998826 0.618890703
v 0.361468226 -0.61412704 0.618890703
v 0.364446282 -0.609255195 0.618890703
v 0.367424339 -0.604383409 0.618890703
v 0.378138751 -0.60274899 0.629660428
v 0.387238055 -0.603700519 0.637175262
v 0.381325334 -0.594698668 0.632088542
v 0.383028805 -0.589074552 0.634516656
v 0.380326658 -0.581531167 0.631264985
v 0.380602628 -0.578352273 0.633729994
v 0.380823553 -0.575147212 0.636163473
v 0.380475491 -0.57464242 0.642273247
v 0.378326714 -0.573278129 0.647351444
v 0.377793521 -0.569547951 0.652501702
v 0.377580106 -0.566469908 0.648393691
v 0.379401296 -0.561214447 0.64458704
v 0.378677994 -0.554713488 0.639320433
v 0.380801886 -0.552424312 0.642843783
v 0.379632592 -0.548377633 0.647651434
v 0.379853994 -0.545165718 0.650090098
v 0.379048258 -0.54129678 0.655103445
v 0.379298538 -0.537947595 0.660709143
v 0.379408449 -0.534682751 0.663083971
v 0.178968787 -0.42888397 0.552228391
v 0.183549359 -0.424464017 0.549598277
v 0.185699001 -0.422260582 0.546503246
v 0.188674018 -0.420468092 0.543872356
v 0.193255961 -0.416046798 0.541241467
v 0.168645009 -0.397025406 0.518544018
v 0.180466577 -0.39953047 0.524364889
v 0.17628634 -0.390742272 0.513223469
v 0.177911192 -0.388084143 0.513223469
v 0.183927655 -0.384459108 0.50790292
v 0.188560739 -0.379988492 0.505242646
v 0.191568971 -0.378175974 0.502582371
v 0.19620207 -0.373705357 0.499922127
v 0.198356673 -0.371449023 0.496762753
v 0.202747241 -0.366849542 0.493958533
v 0.203786224 -0.364004433 0.490138084
v -0.315818787 -0.0880004689 0.175049797
v -0.314391404 -0.089035131 0.167587653
v -0.313470989 -0.0856065452 0.158655196
v -0.308269829 -0.0842853263 0.156434283
v -0.314107239 -0.0814862624 0.144582093
v -0.0641027093 -0.209514111 0.289844215
v -0.0612116382 -0.21894519 0.289887905
v -0.0596632995 -0.227647737 0.289126724
v -0.0632520914 -0.23351866 0.289126724
v -0.0467975698 -0.249771684 0.301196158
v -0.0503624156 -0.255603462 0.301196158
v -0.0539272577 -0.261435211 0.301196158
v -0.0405743644 -0.272244453 0.306471169
v -0.0512306839 -0.274587125 0.298376113
v -0.0634390265 -0.27618891 0.289335847
v -0.079840146 -0.271566242 0.284386784
v -0.0846869051 -0.272633314 0.290258795
v -0.0880069211 -0.274633676 0.293194771
v -0.102662548 -0.274624318 0.2943106
v -0.102122039 -0.278904468 0.291846871
v -0.0915316567 -0.291653156 0.304098576
v -0.0952992663 -0.293421596 0.306756467
v -0.111074865 -0.293080956 0.303399324
v -0.119899772 -0.292377889 0.303107351
v -0.125025481 -0.297512561 0.302210301
v -0.125640452 -0.305040836 0.300116986
v -0.124735884 -0.309486806 0.297862053
v -0.126800433 -0.316303015 0.294919282
v -0.125331759 -0.32501632 0.290216118
v -0.127167702 -0.327935785 0.290192693
v -0.12502411 -0.336957693 0.285895437
v -0.127988026 -0.339338213 0.285203934
v -0.129613593 -0.346353024 0.282522976
v -0.126123488 -0.355985463 0.279034257
v -0.126846164 -0.359419763 0.279669315
v -0.125623748 -0.367966652 0.274845839
v -0.127414867 -0.370896757 0.274845839
v -0.126599282 -0.379244298 0.269785315
v -0.1282731 -0.382226795 0.269854814
v -0.124497958 -0.391922057 0.266569316
v -0.124017827 -0.399856597 0.265159369
v -0.125804082 -0.402778774 0.265159369
v -0.1245488 -0.40756017 0.259310335
v -0.121878535 -0.405516952 0.252159417
v -0.125745147 -0.403999388 0.245974556
v -0.125444293 -0.400867105 0.237353489
v -0.126053348 -0.39730984 0.2281508
v -0.124030612 -0.394944817 0.220530704
v -0.12742731 -0.39362672 0.214558154
v -0.122559421 -0.392554969 0.208660573
v -0.116772942 -0.391672939 0.207229912
v -0.115694478 -0.388857961 0.198982239
v -0.123006769 -0.38215974 0.185468227
v -0.124127105 -0.381872743 0.180840135
v -0.11923337 -0.38079533 0.174911231
v -0.125703439 -0.374445885 0.161798462
v -0.121334895 -0.373111725 0.155502334
v -0.122030467 -0.373014778 0.151098728
v -0.110087745 -0.371389925 0.148473814
v -0.0963482931 -0.374226004 0.152157456
v -0.444433033 -0.211642146 -0.079945378
v -0.441665262 -0.213430017 -0.0869919732
v -0.424381554 -0.213296384 -0.0828223899
v -0.419607162 -0.211545229 -0.0854366869
v -0.444004774 -0.208812833 -0.103109598
v -0.444305837 -0.213180691 -0.106425956
v -0.616436303 -0.137377083 -0.221921459
v -0.622455835 -0.143790379 -0.227741957
v -0.632523537 -0.148082003 -0.231531233
v -0.623468757 -0.156996354 -0.228900507
v -0.629155517 -0.163306236 -0.229833707
v -0.626729906 -0.173598215 -0.230137601
v -0.631560087 -0.180294424 -0.230514243
v -0.628223836 -0.190960497 -0.230222404
v -0.636025429 -0.196316913 -0.23254104
v -0.623819172 -0.206487566 -0.227841973
v -0.631709993 -0.211795732 -0.230226263
v -0.627102733 -0.222943112 -0.229099333
v -0.627177358 -0.232000992 -0.231024295
v -0.630221665 -0.235053703 -0.231631458
v -0.635881364 -0.241352543 -0.232563764
v -0.636521995 -0.250151038 -0.23485972
v -0.630683601 -0.261725456 -0.2329209
v -0.636671603 -0.267873675 -0.234074533
v -0.630499065 -0.275189817 -0.233292356
v -0.634087741 -0.282349706 -0.232883796
v -0.633168638 -0.291745991 -0.234152123
v -0.636269152 -0.299097568 -0.233428285
v -0.633330882 -0.304992229 -0.234749436
v -0.637893736 -0.311722249 -0.234983131
v -0.635525525 -0.313408017 -0.242662057
v -0.635279834 -0.314214259 -0.251743346
v -0.630123615 -0.321368843 -0.256210506
v -0.618053734 -0.334935933 -0.24548158
v -0.619644821 -0.342845738 -0.243772388
v -0.621799111 -0.350880027 -0.247033626
v -0.616173446 -0.357792556 -0.246541351
v -0.627856314 -0.361979246 -0.256091207
v -0.633291543 -0.368331224 -0.256914079
v -0.631461561 -0.373700827 -0.258929074
v -0.637102067 -0.379973978 -0.259888202
v -0.613661349 -0.39808628 -0.24625282
v -0.616799414 -0.405287385 -0.245580241
v -0.620850503 -0.412128687 -0.245510593
v -0.613937855 -0.41940853 -0.244150192
v -0.62980181 -0.422083706 -0.256444991
v -0.627389729 -0.431816697 -0.256680489
v -0.631548107 -0.438619494 -0.256680489
v -0.627325714 -0.444819897 -0.257090598
v -0.616372406 -0.457302332 -0.247121051
v -0.617997289 -0.465007246 -0.245466009
v -0.620774388 -0.472271919 -0.244573519
v -0.619578004 -0.481423348 -0.245603591
v -0.619884729 -0.485872865 -0.248981953
v -0.631331086 -0.490378827 -0.258353651
v -0.635698497 -0.497063726 -0.258505344
v -0.633149207 -0.506687164 -0.258641213
v -0.630770743 -0.515781641 -0.254348755
v -0.612485349 -0.526872575 -0.245450571
v -0.616363049 -0.533664644 -0.245302036
v -0.621059656 -0.540166855 -0.245693207
v -0.623416305 -0.547947407 -0.249052316
v -0.633528292 -0.548948228 -0.258884877
v -0.63371861 -0.557503462 -0.260817885
v -0.637007356 -0.56451422 -0.260274559
v -0.632395267 -0.56703645 -0.266269177
v -0.634332001 -0.56730628 -0.276612431
v -0.631558359 -0.573269904 -0.282466263
v -0.626437068 -0.579085708 -0.277680486
v -0.61191839 -0.592591643 -0.269782215
v -0.616005361 -0.599277616 -0.269782215
v -0.620491326 -0.605830193 -0.270047784
v -0.625178337 -0.613290489 -0.279462576
v -0.629810631 -0.61578244 -0.281187594
v -0.63092649 -0.623953044 -0.283714861
v -0.634853005 -0.630704522 -0.2836034
v -0.628923833 -0.637142539 -0.282792807
v -0.616111934 -0.649277925 -0.271523803
v -0.619714975 -0.656079829 -0.271214753
v -0.621682465 -0.663399875 -0.269818157
v -0.619431257 -0.67255348 -0.27009201
v -0.629748344 -0.678263545 -0.283222258
v -0.632645667 -0.681323409 -0.283797652
v -0.632626951 -0.689772308 -0.285556555
v -0.63752687 -0.69617188 -0.286111265
v -0.627394021 -0.703754842 -0.282473356
v -0.615547419 -0.715227544 -0.271864235
v -0.620292544 -0.721622288 -0.272334605
v -0.620174646 -0.729477286 -0.269567251
v -0.621965826 -0.737285197 -0.272520036
v -0.632650018 -0.743012607 -0.28586024
v -0.632951438 -0.746827781 -0.284711152
v -0.610947907 -0.759945095 -0.258502871
v -0.615967274 -0.761802077 -0.256085157
v -0.62239325 -0.763253629 -0.254592955
v -0.622725666 -0.770882368 -0.252161473
v -0.617998481 -0.780495226 -0.250799924
v -0.622383475 -0.786936164 -0.251051784
v -0.616596222 -0.796800077 -0.248988554
v -0.626665354 -0.801641166 -0.252995908
v -0.61636883 -0.808896363 -0.249273643
v -0.621049345 -0.815232635 -0.249729529
v -0.617392302 -0.82442379 -0.249068052
v -0.627331436 -0.829326749 -0.252996087
v -0.614581645 -0.837148726 -0.247646406
v -0.625021219 -0.841922641 -0.251910567
v -0.619985878 -0.851418138 -0.250336647
v -0.629582882 -0.856440544 -0.254044205
v -0.625385523 -0.865681171 -0.25302428
v -0.619251966 -0.875393033 -0.250719279
v -0.622967064 -0.878189385 -0.251863062
v -0.62014842 -0.887011528 -0.251743436
v -0.625349641 -0.893176794 -0.252561927
v -0.626093507 -0.901073813 -0.254794031
v -0.629606187 -0.903930247 -0.255805343
v -0.626278102 -0.912830651 -0.255348027
v -0.635843754 -0.917924523 -0.25904879
v -0.622108757 -0.925624549 -0.253025085
v -0.63255769 -0.930505395 -0.257315457
v -0.625985622 -0.940124631 -0.254713118
v -0.630639255 -0.946407676 -0.255181223
v -0.631830037 -0.954140723 -0.257701069
v -0.62755996 -0.963143826 -0.256612688
v -0.630540907 -0.96612817 -0.257281274
v -0.634571314 -0.972548127 -0.257342607
v -0.634732187 -0.980493426 -0.259179711
v -0.632151365 -0.98904866 -0.259204149
v -0.634053707 -0.992277265 -0.259162813
v -0.63370198 -1.00030959 -0.260656685
v -0.636602938 -1.00696003 -0.259979695
v -0.634640217 -1.01234221 -0.266021132
v -0.632310152 -1.01052034 -0.274424553
v -0.63270098 -1.01108944 -0.27901423
v -0.630268633 -1.02022088 -0.28343606
v -0.625371754 -1.02491701 -0.278858662
v -0.616527438 -1.03406394 -0.270351797
v -0.621313572 -1.04026675 -0.27093783
v -0.620349407 -1.04834819 -0.271998852
v -0.617731988 -1.05675888 -0.271954626
v -0.622956753 -1.05994213 -0.278439879
v -0.633258522 -1.06501901 -0.28270632
v -0.632312715 -1.07307935 -0.283777744
v -0.630300164 -1.08133924 -0.284133792
v -0.631576478 -1.08466542 -0.283683479
v -0.616363287 -1.09481609 -0.270940453
v -0.618862748 -1.10143399 -0.270020664
v -0.618068159 -1.1093725 -0.271182001
v -0.617502272 -1.11725414 -0.272493005
v -0.621740341 -1.1199851 -0.274027109
v -0.635826111 -1.12510836 -0.285110116
v -0.63553071 -1.13294959 -0.286605418
v -0.637762189 -1.14031696 -0.2897861
v -0.625431478 -1.13975704 -0.287119329
v -0.634714901 -1.13946366 -0.301919967
v -0.635277629 -1.14077806 -0.310900718
v -0.632218897 -1.13921452 -0.318767756
v -0.632264197 -1.13991559 -0.323113054
v -0.633002341 -1.1412009 -0.332256883
v -0.62184906 -1.1375736 -0.335959822
v -0.612931311 -1.14063501 -0.338499457
v -0.597349882 -1.14068282 -0.333445221
v -0.586113751 -1.14064252 -0.33565551
v -0.569206893 -1.14166665 -0.333898783
v -0.55764848 -1.14100921 -0.33150667
v -0.552444696 -1.13986349 -0.337811232
v -0.547313333 -1.14152074 -0.33852154
v -0.520623088 -1.14093304 -0.331072927
v -0.511596978 -1.14052725 -0.334615231
v -0.513193011 -1.14091027 -0.340020239
v -0.504806876 -1.14038467 -0.343998939
v -0.480288565 -1.14226305 -0.332206279
v -0.464851588 -1.14310884 -0.331065893
v -0.452389717 -1.14339519 -0.331998706
v -0.448230118 -1.14141595 -0.334615469
v -0.443125635 -1.14029217 -0.340799689
v -0.436819106 -1.13873219 -0.341859758
v -0.431718856 -1.13760936 -0.348038852
v -0.399144977 -1.14120603 -0.329964966
v -0.382124513 -1.14244616 -0.327348292
v -0.372436404 -1.14225459 -0.330040365
v -0.367405474 -1.1411469 -0.336135507
v -0.361816913 -1.13949645 -0.337601334
v -0.352717519 -1.13920164 -0.340674162
v -0.353498012 -1.13969791 -0.34547016
v -0.334470034 -1.13799 -0.342499226
v -0.322875977 -1.13821554 -0.343630761
v -0.334218442 -1.13657665 -0.356348127
v -0.280413568 -1.14196646 -0.32705164
v -0.279342502 -1.14281976 -0.330413759
v -0.272196412 -1.14217913 -0.3347359
v -0.26131621 -1.14230371 -0.336202741
v -0.251416534 -1.14160502 -0.334216148
v -0.238538429 -1.14215779 -0.334086388
v -0.23123689 -1.14094472 -0.334037542
v -0.21291554 -1.14264524 -0.329637945
v -0.203427732 -1.14252734 -0.331990838
v -0.200087786 -1.14051497 -0.334944457
v -0.176809788 -1.14329481 -0.326523393
v -0.168595299 -1.14293492 -0.329763651
v -0.159433931 -1.14216936 -0.32811743
v -0.154601097 -1.14110541 -0.333972543
v -0.156826571 -1.14124358 -0.339853257
v -0.15198788 -1.14017832 -0.345715463
v -0.125848919 -1.14035618 -0.33607325
v -0.14010261 -1.13791335 -0.351537913
v -0.130467921 -1.13787842 -0.353555411
v -0.112172522 -1.13911283 -0.344471157
v -0.0745141134 -1.14514923 -0.323865563
v -0.0637810156 -1.1448102 -0.320714295
v -0.0590429753 -1.14376712 -0.32645458
v -0.054304935 -1.14272392 -0.332194865
v -0.0506960079 -1.14084804 -0.3347691
v -0.0459585451 -1.13980496 -0.340508699
v -0.0377815329 -1.13893795 -0.339337707
v -0.0198403858 -1.14082098 -0.334200621
v 0.000832334103 -1.14332926 -0.326722085
v 0.015943544 -1.14405024 -0.319707006
v 0.0206076559 -1.14302337 -0.325357705
v 0.0252717696 -1.1419965 -0.331008404
v 0.0154875182 -1.1403718 -0.343237072
v 0.0331307836 -1.13904464 -0.339484483
v 0.0377948992 -1.13801777 -0.345135212
v 0.0392641053 -1.1389159 -0.347960562
v 0.0671972334 -1.13998544 -0.335344732
v 0.0695198253 -1.14107406 -0.33741495
v 0.0741477907 -1.14005506 -0.34302187
v 0.0926646218 -1.14167178 -0.332710594
v 0.104435503 -1.14231074 -0.332138121
v 0.11269813 -1.14214885 -0.334539026
v 0.119136311 -1.14102185 -0.334470689
v 0.133757994 -1.14235234 -0.331317812
v 0.13833116 -1.14080715 -0.332825691
v 0.145955056 -1.14052141 -0.335681796
v 0.168568939 -1.14376795 -0.325395525
v 0.171669886 -1.14189959 -0.328137785
v 0.176196843 -1.14090288 -0.333622336
v 0.187689304 -1.14156258 -0.332948059
v 0.20634672 -1.14341462 -0.321890652
v 0.21555756 -1.14355671 -0.323130429
v 0.216067836 -1.14420402 -0.32664898
v 0.221451595 -1.14343297 -0.331275821
v 0.242421255 -1.14332128 -0.323380649
v 0.229004011 -1.14059627 -0.339421183
v 0.235753343 -1.14015925 -0.342802882
v 0.251336485 -1.14135849 -0.334181726
v 0.255794108 -1.14037704 -0.339582264
v 0.260251701 -1.13939559 -0.344982773
v 0.285213649 -1.14294565 -0.327643245
v 0.293960571 -1.14303982 -0.329027295
v 0.304578573 -1.14309978 -0.32471168
v 0.30897975 -1.14213073 -0.330043823
v 0.313380897 -1.1411618 -0.335375965
v 0.3163957 -1.13934529 -0.338042051
v 0.320796847 -1.13837636 -0.343374193
v 0.32926017 -1.1384306 -0.344901025
v 0.344744921 -1.13977158 -0.335850745
v 0.35730195 -1.14088488 -0.333435833
v 0.342397094 -1.13759792 -0.351443768
v 0.354869068 -1.13868797 -0.349096626
v 0.393386453 -1.14341414 -0.32343182
v 0.394746661 -1.14424562 -0.32604757
v 0.39906472 -1.14329493 -0.33127901
v 0.403155476 -1.14180493 -0.332807928
v 0.42115438 -1.14439487 -0.324860185
v 0.425447136 -1.14344966 -0.330061018
v 0.433649182 -1.14304888 -0.327563524
v 0.437932968 -1.1421057 -0.33275345
v 0.448297352 -1.14228737 -0.32810539
v 0.452568382 -1.14134705 -0.333279848
v 0.456839412 -1.14040673 -0.338454336
v 0.459765047 -1.13864398 -0.341041565
v 0.464036077 -1.13770366 -0.346216053
v 0.468307108 -1.13676322 -0.351390511
v 0.493331492 -1.14091837 -0.332002908
v 0.497564256 -1.13998652 -0.337130994
v 0.498897582 -1.14080155 -0.339695036
v 0.513395071 -1.13966084 -0.336086988
v 0.51773119 -1.1387645 -0.341077268
v 0.51471746 -1.138399 -0.348016739
v 0.543449104 -1.14118171 -0.329863369
v 0.54476738 -1.14198756 -0.332398415
v 0.548952222 -1.14106619 -0.337468505
v 0.553557277 -1.13981712 -0.338226676
v 0.56152606 -1.13994122 -0.339407355
v 0.566108704 -1.13913476 -0.344045967
v 0.575593948 -1.13925266 -0.339734882
v 0.579756737 -1.13833618 -0.34477818
v 0.582608163 -1.13661814 -0.347299844
v 0.59900105 -1.13913405 -0.339592248
v 0.603142142 -1.13822234 -0.34460929
v 0.61174649 -1.1381433 -0.34106791
v 0.617101312 -1.13758087 -0.344783723
v 0.631146669 -1.13906932 -0.335446984
v 0.629019201 -1.13303244 -0.344775259
v 0.62903285 -1.12674797 -0.344117701
v 0.632084072 -1.12175655 -0.344117701
v 0.632310808 -1.11846673 -0.341619939
v 0.632064342 -1.1124984 -0.345115304
v 0.626748085 -1.10459042 -0.350106895
v 0.626268685 -1.1010735 -0.348346531
v 0.627359807 -1.09545958 -0.350439966
v 0.629122138 -1.08964121 -0.347928017
v 0.629350126 -1.0863328 -0.345416099
v 0.631112456 -1.08051455 -0.34290415
v 0.633710504 -1.07534766 -0.343402833
v 0.630554497 -1.06797707 -0.346102476
v 0.636171281 -1.06636798 -0.337880284
v 0.624073863 -1.05650377 -0.353957623
v 0.625847816 -1.05064714 -0.351429105
v 0.629347265 -1.04837525 -0.345438302
v 0.629166126 -1.04226387 -0.348900586
v 0.63094008 -1.03640723 -0.346372068
v 0.632713974 -1.03055048 -0.343843549
v 0.636203706 -1.02830708 -0.337863505
v 0.636032283 -1.02216733 -0.341315031
v 0.637806237 -1.01631057 -0.338786513
v 0.638035774 -1.01298034 -0.336257994
v 0.641124547 -1.00792742 -0.336257994
v 0.6428985 -1.00207067 -0.333729476
v 0.643128037 -0.998740494 -0.331200957
v 0.644876838 -0.99287504 -0.328698993
v 0.631508052 -0.982016265 -0.346146196
v 0.633294761 -0.976117373 -0.343599468
v 0.64297384 -0.976136982 -0.331048906
v 0.636636972 -0.967673838 -0.341052741
v 0.637286365 -0.961362541 -0.339711487
v 0.638654828 -0.958420753 -0.335959285
v 0.640441537 -0.95252192 -0.333412558
v 0.630457342 -0.94259125 -0.347295344
v 0.632254243 -0.93665868 -0.344734073
v 0.633269668 -0.933578193 -0.34134382
v 0.635216355 -0.927704334 -0.338624239
v 0.637412429 -0.922234356 -0.33961156
v 0.637644947 -0.918861032 -0.337050289
v 0.639441848 -0.912928462 -0.334489018
v 0.640037358 -0.906830132 -0.337174684
v 0.642803133 -0.904436707 -0.331927747
v 0.644600093 -0.898504138 -0.329366475
v 0.646396995 -0.892571568 -0.326805204
v 0.646075606 -0.886083841 -0.330462426
v 0.64723295 -0.883073688 -0.326918304
v 0.649031818 -0.877134621 -0.324354202
v 0.62862885 -0.862499893 -0.3493056
v 0.641776919 -0.864325821 -0.333038241
v 0.639667273 -0.856758833 -0.334609747
v 0.63249886 -0.847087443 -0.341534078
v 0.63566339 -0.841910601 -0.341534078
v 0.634553552 -0.837939441 -0.340367943
v 0.635951281 -0.831759512 -0.338221341
v 0.637055695 -0.825709164 -0.340407997
v 0.639353573 -0.823164165 -0.335628837
v 0.641172409 -0.817159295 -0.333036363
v 0.642991185 -0.811154425 -0.330443859
v 0.637354374 -0.802171528 -0.339776278
v 0.641669273 -0.800511599 -0.33285445
v 0.643491805 -0.794494331 -0.330256611
v 0.638101161 -0.785541058 -0.339336336
v 0.642220438 -0.783818126 -0.332616419
v 0.643771231 -0.777666271 -0.33030498
v 0.645058513 -0.771395087 -0.328272372
v 0.635899186 -0.763975024 -0.339660019
v 0.639208376 -0.75857991 -0.335483044
v 0.641042709 -0.75252378 -0.332868427
v 0.637624979 -0.744276524 -0.339878261
v 0.63786304 -0.740822971 -0.337256104
v 0.640354872 -0.73505044 -0.333943337
v 0.641542256 -0.728675723 -0.332011789
v 0.641602397 -0.725337148 -0.333644688
v 0.642572999 -0.718851149 -0.331942439
v 0.644414544 -0.712771177 -0.32931751
v 0.646256149 -0.706691146 -0.326692611
v 0.642531157 -0.701528311 -0.332336277
v 0.644377053 -0.695434153 -0.329705238
v 0.646222889 -0.689339995 -0.3270742
v 0.630645216 -0.678388834 -0.345278859
v 0.633782268 -0.672871411 -0.341275305
v 0.641349852 -0.669534564 -0.332581609
v 0.635983706 -0.663460374 -0.339977294
v 0.63784337 -0.65732044 -0.337326497
v 0.64011693 -0.651386678 -0.334237516
v 0.641976297 -0.645247877 -0.331587225
v 0.64318186 -0.642392039 -0.332024932
v 0.645041585 -0.636252105 -0.329374135
v 0.64690125 -0.630112231 -0.326723367
v 0.644955873 -0.625644565 -0.330499977
v 0.629823864 -0.610769629 -0.345846176
v 0.631523848 -0.604483426 -0.343358368
v 0.633580506 -0.5983814 -0.340492934
v 0.63355875 -0.594846249 -0.342246592
v 0.636905253 -0.589416742 -0.338014573
v 0.638781846 -0.583221138 -0.335339725
v 0.638949096 -0.57977277 -0.336893529
v 0.640826821 -0.573573232 -0.334216982
v 0.642704606 -0.567373693 -0.331540465
v 0.640009642 -0.558712304 -0.333704799
v 0.628822386 -0.549108028 -0.347291797
v 0.630714417 -0.542861402 -0.344594926
v 0.632497191 -0.536555111 -0.342013776
v 0.633145511 -0.533313096 -0.343072176
v 0.635038495 -0.527063489 -0.340374023
v 0.636931419 -0.520813823 -0.337675869
v 0.638579428 -0.518117845 -0.337675869
v 0.63805604 -0.510517836 -0.337537557
v 0.638886094 -0.503663123 -0.335964382
v 0.639013231 -0.49640429 -0.335134804
v 0.63709116 -0.49167636 -0.338921547
v 0.635839403 -0.483605981 -0.339551747
v 0.637742221 -0.477323711 -0.336839497
v 0.631992698 -0.470356405 -0.344687879
v 0.632624686 -0.463315755 -0.343319714
v 0.634226799 -0.45683077 -0.340923309
v 0.637265503 -0.451183408 -0.337005705
v 0.632713497 -0.444821954 -0.3435902
v 0.634627998 -0.438501149 -0.34086132
v 0.636542499 -0.432180315 -0.338132411
v 0.633703589 -0.426776499 -0.34290722
v 0.635621846 -0.420443267 -0.340172976
v 0.637540102 -0.414110065 -0.337438732
v 0.639210165 -0.411378026 -0.337438732
v 0.641128421 -0.405044824 -0.334704489
v 0.643046677 -0.398711622 -0.331970274
v 0.644964933 -0.39237842 -0.329236031
v 0.644990265 -0.388636976 -0.33097896
v 0.644831538 -0.381016821 -0.330444664
v 0.643423975 -0.372608334 -0.331231743
v 0.63869822 -0.365886778 -0.338016123
v 0.635564387 -0.356350392 -0.340630978
v 0.637276232 -0.349826366 -0.338109672
v 0.641682208 -0.345003217 -0.332735211
v 0.635543942 -0.33729741 -0.34102273
v 0.637482464 -0.330897421 -0.338259667
v 0.639420927 -0.324497402 -0.335496575
v 0.641108572 -0.321736544 -0.335496575
v 0.643047094 -0.315336525 -0.332733482
v 0.643297911 -0.311697364 -0.329970419
v 0.631594479 -0.29637152 -0.345955163
v 0.633545756 -0.28992939 -0.343173891
v 0.635496974 -0.283487231 -0.340392619
v 0.637321711 -0.28085953 -0.335947305
v 0.629853368 -0.26811409 -0.347462028
v 0.632438779 -0.262062579 -0.344005853
v 0.641350746 -0.264160782 -0.332048774
v 0.633787811 -0.251254767 -0.343668014
v 0.635748386 -0.244781807 -0.34087345
v 0.637708962 -0.238308862 -0.338078856
v 0.639669538 -0.231835902 -0.335284293
v 0.641376436 -0.229043588 -0.335284293
v 0.643337011 -0.222570628 -0.332489729
v 0.643590689 -0.218889996 -0.329695135
v 0.637485921 -0.206729516 -0.339785904
v 0.638930678 -0.199865863 -0.337535053
v 0.639507413 -0.192393035 -0.336203486
v 0.639805496 -0.184715241 -0.335166246
v 0.641438186 -0.18184793 -0.335255235
v 0.643410087 -0.175337657 -0.332444549
v 0.643665254 -0.171635807 -0.329633892
v 0.631802738 -0.155135557 -0.345849633
v 0.633787811 -0.148581803 -0.343020171
v 0.649325728 -0.155806869 -0.324012518
v 0.636705637 -0.138627991 -0.341034144
v 0.638691366 -0.132071972 -0.338203698
v 0.640677094 -0.125515953 -0.335373253
v 0.641728044 -0.122366808 -0.331702352
v 0.644391656 -0.116131783 -0.332542837
v 0.635999084 -0.101937957 -0.340711653
v 0.636257231 -0.0981932059 -0.337868392
v 0.637204766 -0.0906391144 -0.340546459
v 0.639201701 -0.0840461552 -0.337700069
v 0.631501436 -0.0701970384 -0.345129639
v 0.641457021 -0.0737043172 -0.332007289
v 0.635252655 -0.0607201234 -0.342271239
v 0.637258053 -0.0540993102 -0.339412808
v 0.637517512 -0.0503346026 -0.336554408
v 0.63123405 -0.0371686667 -0.346919447
v 0.633247972 -0.030519668 -0.344048887
v 0.639147937 -0.0310688205 -0.335206777
v 0.637080729 -0.0212919377 -0.33665815
v 0.629970968 -0.00733313989 -0.347911
v 0.631992817 -0.000657930213 -0.345029086
v 0.633355319 0.00227864971 -0.340981662
v 0.635376215 0.00895067118 -0.338101149
v 0.63779676 0.015572059 -0.339265317
v 0.638058364 0.0193676986 -0.336383402
v 0.640080214 0.0260429084 -0.333501518
v 0.634873569 0.0387549102 -0.342754036
v 0.627385497 0.0530725792 -0.349948704
v 0.637165725 0.0492656045 -0.336968303
v 0.639195263 0.0559662171 -0.334075451
v 0.633235574 0.0694317445 -0.34413904
v 0.635915518 0.0712975338 -0.338675618
v 0.637951374 0.0780188143 -0.335773826
v 0.63908571 0.0857909098 -0.338329375
v 0.63348645 0.0987991989 -0.343519181
v 0.637333572 0.0996855721 -0.336811632
v 0.631581545 0.113205448 -0.346680462
v 0.633631349 0.119972989 -0.343758702
v 0.639409304 0.119227432 -0.334999442
v 0.640767455 0.12655355 -0.332811654
v 0.639515579 0.136427462 -0.337915182
v 0.641296744 0.1389983 -0.333387941
v 0.641830623 0.147043154 -0.332071692
v 0.628776014 0.167014778 -0.349699676
v 0.630840719 0.173831418 -0.346756727
v 0.638376534 0.171487987 -0.336116761
v 0.640434742 0.178283125 -0.33318308
v 0.636767566 0.190405264 -0.340870827
v 0.642221928 0.189794078 -0.332434148
v 0.641499341 0.19901289 -0.332443982
v 0.641164124 0.207914591 -0.332041979
v 0.634904027 0.222433716 -0.342489392
v 0.638149559 0.223711595 -0.336381108
v 0.637245893 0.233172387 -0.33657819
v 0.632924497 0.24610664 -0.344988197
v 0.633193731 0.250012815 -0.342022389
v 0.635870397 0.256351054 -0.338425577
v 0.642071009 0.259529442 -0.331099272
v 0.636858702 0.26878655 -0.338535517
v 0.636966825 0.277442634 -0.337657809
v 0.638411403 0.284904301 -0.335364044
v 0.633064747 0.299004585 -0.344882727
v 0.641047001 0.295910537 -0.333731592
v 0.640618086 0.305099308 -0.333420932
v 0.642706692 0.31199497 -0.330443859
v 0.639344752 0.319738328 -0.335931331
v 0.641438127 0.326649576 -0.332947522
v 0.643531442 0.333560824 -0.329963714
v 0.63407439 0.351739019 -0.343855977
v 0.634346783 0.355691344 -0.340855092
v 0.636452079 0.362642139 -0.337854236
v 0.637033999 0.37154451 -0.341124654
v 0.640390337 0.372591376 -0.334853351
v 0.639414907 0.382462293 -0.335114866
v 0.639635623 0.391218841 -0.334108084
v 0.631727993 0.408299565 -0.346388191
v 0.636098742 0.408357143 -0.339026958
v 0.638215542 0.415345728 -0.336009771
v 0.637815237 0.425321728 -0.340343058
v 0.638089597 0.429302633 -0.337320507
v 0.638739467 0.437732607 -0.335855365
v 0.638509154 0.447032899 -0.335321009
v 0.629666269 0.460511625 -0.346649289
v 0.631800234 0.467556953 -0.343607605
v 0.63346523 0.475064456 -0.341062397
v 0.631176114 0.487088829 -0.347431481
v 0.635885298 0.486710638 -0.339685977
v 0.638021111 0.493762225 -0.33664158
v 0.640156984 0.500813782 -0.333597213
v 0.642016411 0.503855705 -0.333597213
v 0.644152284 0.510907292 -0.330552816
v 0.646288157 0.517958879 -0.32750842
v 0.644422591 0.529706419 -0.333431095
v 0.644699633 0.533725858 -0.330379277
v 0.637666821 0.550152719 -0.33704263
v 0.635954261 0.561205268 -0.338067383
v 0.63292402 0.569305778 -0.343264163
v 0.635081887 0.576429963 -0.340188444
v 0.637239754 0.583554208 -0.337112695
v 0.639118373 0.586627483 -0.337112695
v 0.641276181 0.593751669 -0.334036946
v 0.643434048 0.600875914 -0.330961198
v 0.645591915 0.6080001 -0.327885449
v 0.642433167 0.616367996 -0.333222777
v 0.644595742 0.623507857 -0.330140263
v 0.646758318 0.630647779 -0.327057749
v 0.631498218 0.651924849 -0.34522441
v 0.633677065 0.659118235 -0.3421188
v 0.635855854 0.666311622 -0.339013189
v 0.638034642 0.673505008 -0.335907578
v 0.6399315 0.676608086 -0.335907578
v 0.642110288 0.683801472 -0.332801998
v 0.640625834 0.694967508 -0.333575249
v 0.629000664 0.712773383 -0.347908288
v 0.631195843 0.720020771 -0.344779372
v 0.633390963 0.7272681 -0.341650456
v 0.635302067 0.730394483 -0.341650456
v 0.637497187 0.737641811 -0.33852157
v 0.639692307 0.7448892 -0.335392654
v 0.641887486 0.752136528 -0.332263768
v 0.636592448 0.763277888 -0.339900464
v 0.637792885 0.771666348 -0.337822855
v 0.637226045 0.782043874 -0.337616175
v 0.638494372 0.785917342 -0.338307142
v 0.630345881 0.804874063 -0.346134126
v 0.629875302 0.815231323 -0.345821142
v 0.631363153 0.823387027 -0.343432516
v 0.633295476 0.826548159 -0.343432516
v 0.635514975 0.833875954 -0.34026885
v 0.637734473 0.841203809 -0.337105215
v 0.639666796 0.844364882 -0.337105215
v 0.641886353 0.851692736 -0.333941549
v 0.644105852 0.859020531 -0.330777913
v 0.64632535 0.866348386 -0.327614248
v 0.634719729 0.885272264 -0.341961622
v 0.6369524 0.892643392 -0.338779271
v 0.632850647 0.907444894 -0.342305481
v 0.625135243 0.921993136 -0.352549642
v 0.627383411 0.929415643 -0.349345088
v 0.629631639 0.93683815 -0.346140563
v 0.631588936 0.940040112 -0.346140563
v 0.633837104 0.947462618 -0.342936039
v 0.636085331 0.954885185 -0.339731514
v 0.638333499 0.962307692 -0.33652696
v 0.640290797 0.965509653 -0.33652696
v 0.642539024 0.97293216 -0.333322436
v 0.644787192 0.980354667 -0.330117911
v 0.638405681 0.993674695 -0.338958591
v 0.631899416 1.0117954 -0.345029175
v 0.632836878 1.02089596 -0.34320721
v 0.635103166 1.02837825 -0.339976877
v 0.63546747 1.0335834 -0.341682166
v 0.637938917 1.04081976 -0.338233858
v 0.640206635 1.0483067 -0.335001558
v 0.641977668 1.05178845 -0.335216969
v 0.639923573 1.06465709 -0.336565018
v 0.63950187 1.07552493 -0.336180419
v 0.634046137 1.0880754 -0.344065726
v 0.63632834 1.09561026 -0.340812713
v 0.63831532 1.10351717 -0.337872505
v 0.634027719 1.11936831 -0.341578811
v 0.635678411 1.12306237 -0.341941595
v 0.632017374 1.13819385 -0.344984978
v 0.63175571 1.14321494 -0.342304647
v 0.63272202 1.14553928 -0.333258212
v 0.633839309 1.14766324 -0.3240695
v 0.633621395 1.14568114 -0.314210117
v 0.632639825 1.14467955 -0.305174857
v 0.632935584 1.14897001 -0.301917255
v 0.632383108 1.14742041 -0.292460978
v 0.627044559 1.14619637 -0.285920203
v 0.621794939 1.14597499 -0.284282684
v 0.612929702 1.14454532 -0.284301966
v 0.609519899 1.13511229 -0.273742616
v 0.602981269 1.13648522 -0.273391902
v 0.596955538 1.1314472 -0.270487934
v 0.594964862 1.12819076 -0.270487934
v 0.576039433 1.13918173 -0.280576706
v 0.586368024 1.11594987 -0.271127045
v 0.582748652 1.11470509 -0.27276665
v 0.571712732 1.11792243 -0.284840912
v 0.547322452 1.13533819 -0.3003214
v 0.543700039 1.13295579 -0.296911597
v 0.535501838 1.13039577 -0.296054751
v 0.53037864 1.12983179 -0.294130594
v 0.509424865 1.1426698 -0.305873841
v 0.496193975 1.14501417 -0.304841012
v 0.494078666 1.14177787 -0.304918647
v 0.48516351 1.13989627 -0.304630697
v 0.483966291 1.13454294 -0.298773795
v 0.471888632 1.13539124 -0.296509862
v 0.471147478 1.13051105 -0.295248687
v 0.462359399 1.12841153 -0.294783682
v 0.436924279 1.14487696 -0.305279046
v 0.43531552 1.14098668 -0.30484882
v 0.426815838 1.13840997 -0.304004759
v 0.421409279 1.13797426 -0.302156836
v 0.412127674 1.13529956 -0.296981603
v 0.408311695 1.13300037 -0.293607026
v 0.386142015 1.14611685 -0.305584133
v 0.377494097 1.14354753 -0.304753453
v 0.375417471 1.14015031 -0.304753453
v 0.362223893 1.14179659 -0.303086638
v 0.359582722 1.13902986 -0.303608537
v 0.351875365 1.13438606 -0.296792686
v 0.346499443 1.13378537 -0.294790775
v 0.334390372 1.13500237 -0.297059089
v 0.314383268 1.14501536 -0.306526393
v 0.312124223 1.14176083 -0.30667305
v 0.300831705 1.14099896 -0.303005874
v 0.293910265 1.13624537 -0.300406873
v 0.289646715 1.13431036 -0.297299892
v 0.283189803 1.13479519 -0.296169728
v 0.272023469 1.1346817 -0.297365248
v 0.250259578 1.14612246 -0.308016628
v 0.245850787 1.14428163 -0.304972947
v 0.235493928 1.14312804 -0.305330247
v 0.230655953 1.13595724 -0.30076775
v 0.226723135 1.1335876 -0.297289848
v 0.222790301 1.13121808 -0.293811917
v 0.442489594 0.887492239 -0.089192912
v 0.441661745 0.886844218 -0.0806401521
v 0.440689355 0.886354446 -0.0722315013
v 0.43230924 0.88403815 -0.0715042651
v 0.442881614 0.876457751 -0.0548238084
v 0.443994433 0.874507844 -0.0492727682
v 0.442133605 0.869756758 -0.0400483347
v 0.440441251 0.864844263 -0.0307094101
v 0.440878779 0.863632321 -0.0257795583
v 0.442876488 0.849640012 -0.0117362877
v 0.443193346 0.843397975 -0.00532362517
v 0.441554606 0.83336252 0.00553922681
v 0.438584 0.830625117 0.00915208831
v 0.439356357 0.823965073 0.0158823505
v 0.428878486 0.823962867 0.0148316454
v 0.423119217 0.819009542 0.017716283
v 0.411870986 0.824868202 0.0144940997
v 0.406395614 0.819584846 0.0176379979
v 0.400768131 0.819579482 0.0190832317
v 0.387794018 0.821986377 0.0161094069
v 0.38390708 0.815037906 0.0205743965
v 0.374118984 0.819236517 0.0186803695
v 0.277911901 0.92663461 -0.0532943495
v 0.282021165 0.927753448 -0.0515897982
v 0.28670302 0.932894707 -0.0463843197
v 0.285146445 0.945183456 -0.0508877486
v 0.287656784 0.952570498 -0.0474374034
v 0.297336698 0.947145522 -0.0365688913
v 0.299631029 0.954720378 -0.0332985893
v 0.311247677 0.947204232 -0.0208938122
v 0.317423046 0.949929535 -0.00988799054
v 0.321756661 0.94996959 -0.00339362025
v 0.323624015 0.951847017 0.00570490584
v 0.328902602 0.950123966 0.0175055806
v 0.329455078 0.94880116 0.0225150436
v 0.330972135 0.951021314 0.0312758386
v 0.333388299 0.952284098 0.040730264
v 0.331713378 0.953307927 0.0439512208
v 0.333824366 0.949597359 0.0546794422
v 0.332719505 0.949282229 0.0628567114
v 0.330406547 0.955518961 0.0685520619
v 0.328671217 0.955867529 0.0762219578
v 0.327576697 0.955542386 0.0843752623
v 0.326228231 0.95548737 0.092318058
v 0.32370311 0.951414585 0.100843042
v 0.320902973 0.952893496 0.107650369
v 0.317573488 0.954928756 0.114053153
v 0.313392729 0.952608764 0.121287793
v 0.312390655 0.952932775 0.124985464
v 0.309021235 0.955010772 0.13135241
v 0.303782076 0.953803897 0.13778241
v 0.300412536 0.955881894 0.144149557
v 0.296794772 0.953702152 0.147348851
v 0.291513383 0.952539384 0.153747424
v 0.286622345 0.956196666 0.159002036
v 0.283066273 0.953949571 0.162249744
v 0.276426613 0.954186678 0.167668685
v 0.269261211 0.954959154 0.172718629
v 0.26563701 0.952775478 0.175923616
v 0.257903069 0.954117954 0.180585101
v 0.253545612 0.952679873 0.183272168
v 0.245562971 0.95425719 0.187783763
v 0.235943705 0.952276051 0.192546427
v 0.228187636 0.954268634 0.192863122
v 0.223136902 0.953503072 0.195094228
v 0.211842239 0.953157067 0.198742852
v 0.251505017 0.907370329 0.232061431
v 0.248203054 0.909388781 0.238411248
v 0.238886252 0.907847881 0.238976657
v 0.234404176 0.906568289 0.241546854
v 0.226927564 0.90378958 0.239083424
v 0.230559796 0.893799484 0.251517385
v 0.223736987 0.894842744 0.252492338
v 0.213683128 0.893964767 0.25260818
v 0.207785249 0.889580011 0.251248628
v 0.203893751 0.883213878 0.251248628
v 0.204642043 0.872921884 0.250080526
v 0.208863869 0.864333272 0.249953836
v 0.19412294 0.867935359 0.246916667
v 0.189592034 0.876222253 0.251165926
v 0.187932551 0.877236664 0.254357189
v 0.233226195 0.83702302 0.291909456
v 0.233897209 0.840184927 0.299526066
v 0.251653999 0.827249646 0.314266354
v 0.254035413 0.835467339 0.309123099
v 0.252010494 0.8474406 0.305227935
v 0.250880271 0.852950275 0.3074103
v 0.25152421 0.856712401 0.310776442
v 0.252473235 0.864568949 0.317281634
v 0.251528442 0.86488831 0.320857614
v 0.251789361 0.868407845 0.328163266
v 0.251459539 0.872509718 0.335072666
v 0.250698328 0.872026384 0.342940092
v 0.251056582 0.875438154 0.350282103
v 0.249895811 0.875971615 0.353697687
v 0.248524979 0.866717577 0.359437346
v 0.23716253 0.872347891 0.357492596
v 0.233118922 0.875119984 0.363222241
v 0.232741877 0.87427175 0.371297836
v 0.220092878 0.881134093 0.368609548
v 0.21142371 0.879035413 0.369696766
v 0.214206472 0.866314113 0.373881847
v 0.206318751 0.868432283 0.374258518
v 0.192287371 0.871509075 0.371993065
v 0.1890219 0.873505175 0.378272712
v 0.191367298 0.870054424 0.388046652
v 0.190385476 0.875412643 0.39039284
v 0.192824394 0.871866167 0.400188535
v 0.19125399 0.872219801 0.407481551
v 0.191962048 0.870362222 0.416160375
v 0.193970114 0.872210443 0.424446911
v 0.190727189 0.874192774 0.430683196
v 0.189804003 0.873921156 0.438320875
v 0.18979761 0.87276113 0.446495861
v 0.190065399 0.871337652 0.454815626
v 0.190609589 0.87459296 0.462150067
v 0.19088532 0.87316072 0.470439315
v 0.192043021 0.870874763 0.47922796
v 0.191504747 0.870239139 0.486995667
v 0.189614192 0.876425564 0.488817722
v 0.188663349 0.876188099 0.496332735
v 0.189792931 0.87393111 0.505040765
v 0.191667199 0.870954514 0.514152944
v 0.190765113 0.870677471 0.52164191
v 0.189442858 0.875713944 0.527803004
v 0.190697417 0.873340011 0.536498964
v 0.19027555 0.872598171 0.544220746
v 0.189487219 0.872214437 0.551720262
v 0.188168123 0.877811253 0.553892493
v 0.190598309 0.874296546 0.563178778
v 0.189713344 0.874007642 0.570589602
v 0.189637363 0.872934937 0.578434646
v 0.188939109 0.872468889 0.585919559
v 0.18975167 0.875400722 0.593196094
v 0.188949451 0.875035346 0.600597918
v 0.188319415 0.874504685 0.608079493
v 0.189076215 0.872629642 0.616294444
v 0.18804501 0.877339005 0.622530878
v 0.188074559 0.876168847 0.630324841
v 0.187474281 0.875613153 0.637766242
v 0.187749416 0.874209523 0.645655632
v 0.186189294 0.874590039 0.652561486
v 0.17900452 0.876162529 0.653626561
v 0.16871506 0.87588644 0.654053986
v 0.154878706 0.878982902 0.652659833
v 0.123485424 0.908598721 0.640268147
v 0.124529205 0.906475484 0.648626208
v 0.123686776 0.911048651 0.655030191
v 0.123876482 0.909744561 0.662917376
v 0.123750672 0.908746481 0.670625687
v 0.114707053 0.907122254 0.671830475
v 0.108519904 0.90761596 0.673541605
v 0.0990427136 0.906360686 0.674555779
v 0.105702594 0.8897717 0.683647513
v 0.103238843 0.891569972 0.686285377
v 0.0899596587 0.893900812 0.685421348
v 0.0861978978 0.88774693 0.685421348
v 0.0768072158 0.886348188 0.686513245
v 0.0554805212 0.901463747 0.676924884
v 0.0396762677 0.905939877 0.674923122
v 0.042130474 0.89338392 0.681893945
v 0.0323889963 0.896528423 0.685866892
v 0.0304212607 0.893480301 0.685834467
v 0.0203889944 0.892499745 0.686715543
v 0.0155066969 0.887256324 0.686196446
v 0.0107924389 0.881852031 0.685759842
v -0.021082066 0.905609667 0.675245821
v -0.034651611 0.907669902 0.674523234
v -0.0291301999 0.896778584 0.685950041
v -0.0344954021 0.891865432 0.685226917
v -0.0414778329 0.892808855 0.686754048
v -0.0471545123 0.888151884 0.685889959
v -0.0519260019 0.882671893 0.685455859
v -0.0874029696 0.904130995 0.674499691
v -0.0835414529 0.890407681 0.682097673
v -0.0866659656 0.89272666 0.684586048
v -0.0980398208 0.892556369 0.685046256
v -0.104302116 0.892739117 0.686995983
v -0.110142544 0.888084531 0.686093807
v -0.113266788 0.881034255 0.686450899
v -0.109714948 0.868587673 0.685945272
v -0.122667506 0.870988846 0.673820734
v -0.124448843 0.867648005 0.673899949
v -0.125224337 0.858552456 0.675352871
v -0.104097113 0.83056438 0.686964273
v -0.107197367 0.828406632 0.686423361
v -0.111587368 0.822525322 0.686181962
v -0.116066985 0.816717446 0.685899734
v -0.185772002 0.866503775 0.655489802
v -0.189889431 0.860175371 0.655414224
v 0.00925977435 0.681859076 0.74899298
v -0.00331502501 0.682928801 0.748668015
v 0.00567155192 0.670055211 0.761118829
v -0.00454482622 0.673706949 0.761047304
v -0.00968209468 0.668862522 0.760393679
v -0.013060133 0.662543416 0.760539293
v -0.0175323263 0.657134533 0.760189116
v -0.0153926741 0.64625293 0.762829781
v -0.0139970407 0.641229928 0.756829023
v -0.17232497 0.762393177 0.686641276
v -0.176723436 0.756457031 0.686408818
v -0.172029212 0.743432581 0.686372101
v -0.175316244 0.74135977 0.685760379
v -0.187294573 0.742255509 0.674213409
v -0.190842405 0.735606492 0.674370706
v -0.160973907 0.707049131 0.684938908
v -0.164829418 0.700741887 0.684938908
v -0.173740208 0.698174536 0.686546028
v -0.177727088 0.691961884 0.68648845
v -0.171893463 0.68292135 0.686108112
v -0.176946998 0.677573264 0.685563326
v -0.187534541 0.681883097 0.673810899
v -0.190639317 0.674951196 0.674158573
v -0.185184181 0.666253686 0.673612237
v -0.16339168 0.639789581 0.685300529
v -0.167587817 0.633813322 0.685133398
v -0.176724315 0.631411195 0.68660146
v -0.174400195 0.620627403 0.68551755
v -0.172988966 0.610575914 0.68402487
v -0.188900486 0.618520856 0.673774779
v -0.186296821 0.607532859 0.672823906
v -0.185168475 0.602054656 0.67421329
v -0.164765313 0.577244699 0.685251713
v -0.1692148 0.571514308 0.684957922
v -0.172920451 0.565215588 0.685002804
v -0.1755106 0.558073938 0.685553789
v -0.172458619 0.546919167 0.684820294
v -0.186650485 0.548960209 0.672385335
v -0.188592628 0.54586792 0.672369063
v -0.192179471 0.539461136 0.672472179
v -0.190522671 0.529372275 0.671105802
v -0.190760598 0.529977679 0.663274646
v -0.188714117 0.528885365 0.656479776
v -0.185727656 0.527094305 0.650114715
v -0.120860405 0.474826753 0.673463464
v -0.0993218347 0.454427063 0.684360623
v -0.100939535 0.446818382 0.685332596
v -0.110094748 0.444567412 0.686572254
v -0.115142003 0.439476967 0.685953677
v -0.187355042 0.483365238 0.65430212
v -0.190720245 0.476658821 0.65835011
v -0.189857438 0.471556455 0.659619272
v -0.191605762 0.463883996 0.660556912
v -0.188711077 0.462151051 0.654205143
v -0.189703003 0.458756894 0.646926939
v -0.123616882 0.402718663 0.671778679
v -0.127772033 0.401333719 0.670707345
v -0.127976522 0.401813924 0.663054824
v -0.127567694 0.401855171 0.655674398
v -0.125934303 0.401018918 0.64885962
v -0.126240999 0.401574403 0.641114593
v -0.189206824 0.442600369 0.604306161
v -0.190237626 0.439201176 0.596942484
v -0.236219257 0.467687815 0.571848631
v -0.235803962 0.458168894 0.577847183
v -0.229917496 0.449636728 0.577654839
v -0.235129282 0.449131548 0.568190336
v -0.239347428 0.447595358 0.567086458
v -0.250138283 0.446007997 0.567704856
v -0.25512445 0.440618128 0.563211083
v -0.253477901 0.439611614 0.560044706
v -0.255012989 0.431940973 0.553247273
v -0.253365934 0.430934161 0.550079942
v -0.252627015 0.426187992 0.543442845
v -0.253981262 0.422895253 0.535778284
v -0.25338608 0.422758341 0.528107285
v -0.254134148 0.419034421 0.52071768
v -0.252482891 0.418025017 0.517542243
v -0.243718818 0.416590929 0.51693821
v -0.231641814 0.417340755 0.517038703
v -0.226162329 0.418165326 0.514826894
v -0.235213831 0.415745556 0.504244208
v -0.225700229 0.413908064 0.500066042
v -0.218665153 0.413500816 0.502644897
v -0.212881148 0.418616682 0.499625564
v -0.177012771 0.393703848 0.509919405
v -0.18289189 0.398135781 0.498983353
v -0.187973902 0.39751789 0.489400178
v -0.18771477 0.397483945 0.485546827
v -0.188998699 0.394186974 0.477891982
v -0.185725152 0.392185897 0.471596807
v -0.184374124 0.38703981 0.465301633
v -0.178014502 0.378257245 0.465636283
v -0.177920729 0.373995692 0.458694398
v -0.175245449 0.372410834 0.452096701
v -0.0396516174 0.273949325 0.517105699
v -0.0252201017 0.259530604 0.529554188
v -0.032288935 0.260047436 0.530596197
v -0.0407696031 0.257270813 0.531870186
v -0.0444296151 0.251283348 0.531870186
v -0.047947973 0.245199069 0.531944513
v -0.0447856449 0.234675646 0.531713605
v -0.0426311418 0.229088411 0.529999495
v -0.0587487668 0.235897079 0.518657386
v -0.0537134074 0.224115387 0.519423366
v -0.0514947921 0.218489736 0.517743289
v -0.0479738228 0.216311961 0.511970282
v -0.0490825512 0.217254505 0.503727674
v -0.0459642112 0.215348333 0.49773097
v -0.0445422605 0.214585721 0.490819871
v -0.0411085449 0.21246703 0.484989583
v -0.0396654233 0.211690456 0.47807768
v -0.0450344048 0.215507641 0.46743238
v -0.0419039503 0.213594049 0.46141237
v -0.0337338746 0.212524459 0.457160383
v -0.0506682731 0.219901681 0.441039652
v -0.0590659492 0.221482679 0.429589897
v -0.254384637 0.348507434 0.317758024
v -0.254445821 0.344094187 0.314655215
v -0.253282607 0.338959455 0.308064669
v -0.254994243 0.335648686 0.304035038
v -0.25319922 0.334639847 0.296681404
v -0.251280338 0.333548486 0.289389759
v -0.302586824 0.368000239 0.251758337
v -0.315886408 0.367773354 0.237910002
v -0.316481978 0.358975559 0.235590994
v -0.318523407 0.355689883 0.235577568
v -0.255675137 0.30524233 0.26538825
v -0.247520626 0.295428872 0.267006278
v -0.252585232 0.289703012 0.266364396
v -0.248589054 0.27813983 0.266732991
v -0.253474087 0.272305816 0.266190648
v -0.250773787 0.266120493 0.264685363
v -0.253621399 0.25897646 0.265311599
v 0.131641045 0.00304069114 0.488584399
v 0.10869915 0.00974182971 0.484809518
v 0.0992042497 0.0117990393 0.484086901
v 0.0874064788 0.0113345766 0.483069599
v 0.0841727257 0.00938618835 0.48592931
v 0.0778085813 0.00545187993 0.4880099
v 0.0721801445 0.00500645116 0.489527434
v 0.0611895621 0.00395050505 0.489032149
v 0.0464391895 0.00917812809 0.485483408
v 0.0307943523 0.0109418333 0.482456863
v 0.0232117139 0.00764721027 0.487663388
v 0.0173374955 0.00728374952 0.489121437
v 0.313116878 -0.182489902 0.657194436
v 0.297478527 -0.172881976 0.651964784
v 0.296471745 -0.16868265 0.657250047
v 0.298750728 -0.173682347 0.666049361
v 0.299842864 -0.177933499 0.67083925
v 0.257486224 -0.155585825 0.655551612
v 0.255546987 -0.154400945 0.661259472
v 0.255786419 -0.150927082 0.663897097
v 0.254435658 -0.15010421 0.669913411
v 0.254300177 -0.146406397 0.675713897
v 0.253719807 -0.146058902 0.682124257
v 0.253501058 -0.142308921 0.684516251
v 0.252194047 -0.14151673 0.690533996
v 0.25133872 -0.137382761 0.695941567
v 0.251723379 -0.134016678 0.701992571
v 0.252062708 -0.134246826 0.708844304
v 0.251743227 -0.130452335 0.714515507
v 0.250866503 -0.129920676 0.717393517
v 0.250890493 -0.126342416 0.723234892
v 0.251651317 -0.126842573 0.730262816
v 0.251889288 -0.123389758 0.732884467
v 0.250581861 -0.122606687 0.738845527
v 0.244905993 -0.122719996 0.743406475
v 0.2352193 -0.1239575 0.743460655
v 0.228209168 -0.123253137 0.744067907
v 0.218652576 -0.124615639 0.744220614
v 0.212634876 -0.124548107 0.745347679
v 0.20226796 -0.125456974 0.74513042
v 0.19450672 -0.124350883 0.745420933
v 0.19438535 -0.131532371 0.746954799
v 0.196637377 -0.140130967 0.749652743
v 0.197699711 -0.147985235 0.751759708
v 0.193131655 -0.152428612 0.75440681
v 0.1950358 -0.16075094 0.756912887
v 0.194888607 -0.167828977 0.75841105
v 0.195035696 -0.175064906 0.760049284
v 0.190464258 -0.179476053 0.762674153
v 0.193417549 -0.188329548 0.765665293
v 0.188585013 -0.19264926 0.761590004
v 0.189317182 -0.193114609 0.758660495
v 0.155548319 -0.177100763 0.736333668
v 0.156332046 -0.181193486 0.73418051
v 0.141395375 -0.179648548 0.735135615
v 0.136757001 -0.184124261 0.737798929
v 0.14547424 -0.192723855 0.742820323
v 0.135127828 -0.193965778 0.739375234
v 0.163035393 -0.217067555 0.751170337
v 0.159327656 -0.218445495 0.753448248
v 0.159152091 -0.225298822 0.761493623
v 0.166107446 -0.232686654 0.768881857
v 0.164921567 -0.235402614 0.775613248
v 0.157865375 -0.234814689 0.77954334
v 0.156266674 -0.237430021 0.77954334
v 0.149234042 -0.240521684 0.777727067
v 0.168726459 -0.258359581 0.788462102
v 0.176814884 -0.269701719 0.797008038
v 0.17388849 -0.271464914 0.799595952
v 0.173120722 -0.27786693 0.803934515
v 0.168316573 -0.281957418 0.809587657
v 0.17045635 -0.286566257 0.811316609
v 0.164621502 -0.290081829 0.816476524
v 0.160356537 -0.291109592 0.81843555
v 0.164012611 -0.29984352 0.824759424
v 0.156397521 -0.299065322 0.825179517
v 0.159393653 -0.307407856 0.831171632
v -0.12953949 -0.152407885 0.706416547
v -0.13029474 -0.155650467 0.710361362
v -0.130215928 -0.159332111 0.714675486
v -0.145778954 -0.154564619 0.715452671
v -0.148522273 -0.149222314 0.716949999
v -0.147351637 -0.149617121 0.724474728
v -0.144506544 -0.154775888 0.730002582
v -0.19294323 -0.132559434 0.716355264
v -0.193146586 -0.128526792 0.719024837
v -0.193334296 -0.128191531 0.726001978
v -0.192846477 -0.124414548 0.73249656
v -0.193669006 -0.123744473 0.739176035
v -0.20182699 -0.122963361 0.74343586
v -0.212460637 -0.120992966 0.743129969
v -0.220132321 -0.124422826 0.744868755
v -0.231529847 -0.122086957 0.744271934
v -0.241055936 -0.124576874 0.74524641
v -0.251229674 -0.126749054 0.745960414
v -0.251372367 -0.134307474 0.747398973
v -0.249523908 -0.142882213 0.749676764
v -0.251729727 -0.149195775 0.753756821
v -0.252669215 -0.152503982 0.75410378
v -0.249324799 -0.161792412 0.756994724
v 0.16436778 -0.380318105 0.935429096
v 0.173866346 -0.39156118 0.943718433
v 0.171051607 -0.393257111 0.946207583
v 0.168013006 -0.398094416 0.949234605
v 0.16493994 -0.399658829 0.951615274
v 0.157422662 -0.402244687 0.95279181
v 0.153844029 -0.403560996 0.954970062
v 0.151221588 -0.405647457 0.95149219
v 0.144615486 -0.409162223 0.943961442
v 0.141765982 -0.411004484 0.943415046
v 0.13530302 -0.414167643 0.945048273
v 0.127136588 -0.41666162 0.942948043
v 0.09361545 -0.403507829 0.929805875
v 0.0921682864 -0.409052104 0.93662715
v 0.090851754 -0.408247322 0.939158916
v 0.0890397802 -0.410318822 0.945180714
v 0.0788913369 -0.411790013 0.945394576
v 0.074541837 -0.41280061 0.947333157
v 0.0681557134 -0.416115761 0.949080586
v 0.0679769814 -0.415685624 0.955136299
v 0.0646099746 -0.417173445 0.957473516
v 0.0544852242 -0.418709368 0.957751811
v 0.0509424098 -0.423758805 0.954513371
v 0.0481991507 -0.425735116 0.954042077
v 0.0449797511 -0.430765539 0.953997791
v -0.0360994488 -0.399043143 0.926336884
v -0.0368941426 -0.404990464 0.933560073
v -0.0374362245 -0.407888472 0.937105536
v -0.0357322171 -0.411629558 0.944643736
v -0.0453939699 -0.410278529 0.944643438
v -0.0547510535 -0.412428558 0.945391715
v -0.0607440844 -0.412803292 0.946832836
v -0.0582067221 -0.416904718 0.954671264
v -0.0654766336 -0.416488975 0.958757341
v -0.146937564 -0.382293254 0.931675315
v -0.148448855 -0.384595513 0.938121796
v -0.146613181 -0.388634473 0.94261682
v -0.147129938 -0.394998252 0.946829617
v -0.150145188 -0.396815002 0.94949609
v -0.154843256 -0.401271641 0.952142477
v -0.162389219 -0.40105027 0.95313555
v -0.166589096 -0.405967027 0.952789545
v -0.168824598 -0.408824503 0.94619292
v -0.176734611 -0.412105769 0.94447279
v -0.185706496 -0.411296219 0.944956481
v -0.190779462 -0.415866673 0.944294393
v -0.199248344 -0.415784717 0.938569009
v -0.243473366 -0.402754426 0.929947376
v -0.249096408 -0.40350017 0.931741416
v -0.251272649 -0.409200847 0.935406148
v -0.251208663 -0.4161129 0.936641693
v -0.254353046 -0.42162931 0.936707318
v -0.254400909 -0.425299138 0.934058487
v -0.255083233 -0.432126254 0.931785405
v -0.253204226 -0.436614394 0.929843605
v -0.251124531 -0.441446513 0.924742699
v -0.251776457 -0.445119739 0.918634892
v -0.0184183493 -0.5475927 0.999494612
v -0.0129533364 -0.553061664 1.00209677
v -0.034674108 -0.549768984 1.00121009
v -0.083059378 -0.532454908 0.986992121
v -0.0862038732 -0.534103572 0.989471197
v -0.0941130221 -0.533508837 0.993268967
v -0.103271484 -0.535889983 0.994140208
v -0.0782515034 -0.549713492 1.00075471
v -0.088427633 -0.551649392 1.00123131
v -0.101325773 -0.549289167 1.00017452
v -0.149956062 -0.535306394 0.98993665
v -0.158717707 -0.534433842 0.993549407
v -0.160385311 -0.53700757 0.993522465
v -0.140269324 -0.551633477 1.00182188
v -0.167391717 -0.546602309 0.999469221
v -0.210748702 -0.532160401 0.987822294
v -0.218338057 -0.535108447 0.992531776
v -0.224350065 -0.535701275 0.994115114
v -0.214104757 -0.546322763 0.998814702
v -0.219217107 -0.550536036 1.00126207
v -0.236553237 -0.546679199 0.998921037
v -0.275994033 -0.534172833 0.988983929
v -0.284124166 -0.53368938 0.993057668
v -0.294249922 -0.536059439 0.993868232
v -0.263831675 -0.5515064 1.00168777
v -0.290037751 -0.547314525 1.00012898
v -0.337062925 -0.53215915 0.987883329
v -0.346003294 -0.534771264 0.992355049
v -0.352360666 -0.53535831 0.993962348
v -0.332911611 -0.549456596 1.00159502
v -0.345080853 -0.551153421 1.00179446
v -0.35015732 -0.552557766 1.00065076
v -0.367369324 -0.552068889 1.00238168
v -0.377226323 -0.551370025 1.00285256
v 0.247706994 -0.900836766 0.627460957
v 0.249093458 -0.895178139 0.629698575
v 0.251778811 -0.890298307 0.62956363
v 0.248376518 -0.883352518 0.626095831
v 0.234354123 -0.873094141 0.613687396
v 0.319300205 -0.899573743 0.656531215
v 0.323846251 -0.907119274 0.657596469
v 0.320983887 -0.911801815 0.657596469
v 0.319901258 -0.917417467 0.655562639
v 0.319403648 -0.92007035 0.65607667
v 0.320251793 -0.925982416 0.658117473
v 0.318406373 -0.930989444 0.658673286
v 0.320146888 -0.9375121 0.658195555
v 0.318315983 -0.942510068 0.658756673
v 0.234299034 -0.914434075 0.61877048
v 0.251670599 -0.916876018 0.630550086
v 0.25305739 -0.914110899 0.633579314
v 0.254808545 -0.908948541 0.632941127
v 0.252373546 -0.905267954 0.630812347
v 0.254529327 -0.837732613 0.625846446
v 0.256226033 -0.832130909 0.628264904
v 0.259180307 -0.827297986 0.628264904
v 0.242015734 -0.815461576 0.614076555
v 0.244993657 -0.810589969 0.614076555
v 0.323420137 -0.836684048 0.653460205
v 0.32595861 -0.843702614 0.653414965
v 0.32535857 -0.84925884 0.654680133
v 0.322471619 -0.853981614 0.654680133
v 0.324586123 -0.857929945 0.653604507
v 0.322006166 -0.862757087 0.653772652
v 0.320435405 -0.867940545 0.654497147
v 0.321410745 -0.874332666 0.653590143
v 0.323455393 -0.880766749 0.656306446
v 0.239827186 -0.85705471 0.614930511
v 0.235702604 -0.85234493 0.61496973
v 0.248401195 -0.850583792 0.623428047
v 0.251722515 -0.848492265 0.62754494
v 0.25266391 -0.842951894 0.626443386
v 0.253052175 -0.840149105 0.625846446
v 0.21947892 0.9522928 0.125729963
v 0.221584156 0.960000277 0.128853515
v 0.263125092 0.928228915 0.156137228
v 0.2751531 0.927709997 0.15321587
v 0.274768054 0.928789556 0.148515195
v 0.283776671 0.926136076 0.144849569
v 0.289192408 0.927158415 0.138554096
v 0.29036206 0.926649213 0.13499023
v 0.295642287 0.927811742 0.128593072
v 0.295323968 0.929538012 0.119466081
v 0.302863121 0.928373933 0.11475531
v 0.303942651 0.928665817 0.106654108
v 0.310804307 0.928197443 0.101444826
v 0.312241763 0.92741555 0.0980706885
v 0.311741173 0.929355502 0.0887366831
v 0.313720912 0.928723872 0.0812832788
v 0.316031843 0.927749693 0.0740763247
v 0.318257213 0.926865578 0.0667959526
v 0.310117066 0.931497276 0.0529656485
v 0.31346795 0.929448903 0.0465216897
v 0.316818863 0.927400529 0.040077731
v 0.312051356 0.927799463 0.0333359763
v 0.315407991 0.925747633 0.0268810131
v 0.31072256 0.926763177 0.015612619
v 0.297405064 0.931392372 -0.000979969278
v 0.293850064 0.93047291 -0.00682651205
v 0.288962454 0.930914164 -0.0137432199
v 0.280264765 0.930643141 -0.0267463215
v 0.274616271 0.931114435 -0.0296640154
v 0.262798518 0.933243155 -0.0405519642
v 0.252268076 0.933297813 -0.0457546674
v 0.239072204 0.935999274 -0.0530669242
v 0.215245634 0.948661149 -0.0641149282
v 0.200730488 0.951822996 -0.0676882416
v 0.196955398 0.949548423 -0.0643498078
v 0.251679987 0.893399775 -0.011946884
v 0.250716746 0.898967087 -0.00966772996
v 0.253454357 0.905420661 -0.00145207054
v 0.252052277 0.910761237 0.0050810203
v 0.17645821 0.99168241 -0.0507220663
v 0.180396065 0.992432296 -0.0445395932
v 0.177294374 1.00644505 -0.0501434691
v 0.179653913 1.01423514 -0.0467802286
v 0.177405983 1.02745819 -0.051731769
v 0.182347059 1.03334951 -0.0510896035
v 0.186803043 1.03278947 -0.039761629
v 0.185715929 1.03317833 -0.0358857661
v 0.184018314 1.03346717 -0.0277727973
v 0.178471982 1.03224611 -0.0210532434
v 0.176899612 1.02366245 -0.0238097683
v 0.172747687 1.01699996 -0.0238472689
v 0.163876638 1.01986134 -0.0243707281
v 0.16481477 1.02910507 -0.0220936891
v 0.165120408 1.03353941 -0.0187269244
v 0.156383768 1.03080165 -0.0175460391
v 0.150033519 1.02703178 -0.0239509325
v 0.159379795 1.01282763 -0.0199659187
v 0.257834554 0.902149081 0.0626415759
v 0.255456954 0.903211653 0.0698644668
v 0.215921789 0.946946204 0.0475932769
v 0.20438461 0.963899553 0.0373818241
v 0.209900931 0.968294621 0.043093171
v 0.211340427 0.970785141 0.0518246442
v 0.211108699 0.969640553 0.0607919022
v 0.208828598 0.970575869 0.0682138279
v 0.203404114 0.96938163 0.074785769
v 0.20029524 0.971841872 0.0770378113
v 0.217572793 0.947744489 0.100291803
v 0.213791743 0.955480874 0.105069779
v 0.213729411 0.954867363 0.10952659
v 0.212329566 0.960199416 0.116049245
v 0.13040778 -0.896889329 0.631842136
v 0.127209693 -0.889590681 0.63173604
v 0.10317941 -0.876251996 0.614435017
v 0.193007275 -0.899953127 0.656835079
v 0.19793652 -0.90481329 0.657124341
v 0.19498685 -0.909638703 0.657124341
v 0.193099231 -0.914804935 0.657681763
v 0.197397649 -0.922305048 0.65841645
v 0.195926607 -0.924711585 0.65841645
v 0.192984506 -0.929524601 0.65841645
v 0.194548562 -0.936122537 0.657716751
v 0.112475514 -0.915916562 0.619351745
v 0.121149383 -0.914916039 0.629376829
v 0.122655153 -0.912452757 0.629376829
v 0.124384716 -0.906742513 0.631842136
v 0.127396241 -0.901815891 0.631842136
v 0.128902018 -0.89935261 0.631842136
v 0.128714174 -0.844726086 0.626957119
v 0.130458295 -0.8389678 0.629443109
v 0.131254777 -0.833231509 0.628269613
v 0.121159278 -0.823727369 0.621381998
v 0.113259174 -0.814928949 0.615631938
v 0.199762553 -0.845631242 0.654842556
v 0.198528707 -0.848151684 0.65497601
v 0.202947631 -0.855895996 0.655773342
v 0.201263547 -0.861188531 0.656449497
v 0.198976919 -0.866271079 0.656807065
v 0.201608047 -0.870432258 0.655882955
v 0.19864589 -0.875278056 0.655882955
v 0.106062546 -0.849842548 0.611925781
v 0.124158844 -0.852178216 0.626957119
v 0.127195731 -0.847210109 0.626957119
v 0.256982237 -0.188136533 0.571187973
v 0.318029404 -0.217623398 0.607527673
v 0.312069654 -0.206900835 0.598933518
v 0.0407112315 -0.0387514643 0.439219922
v 0.0457378924 -0.0339010656 0.436333656
v 0.054940816 -0.035561014 0.436870426
v 0.0674068257 -0.0352897942 0.438298672
v 0.281330884 -0.159171075 0.553207815
v 0.284344137 -0.157355532 0.55054307
v -0.284011275 0.189153299 0.215934768
v -0.285408944 0.181124359 0.21320951
v -0.283283889 0.170949295 0.212547734
v -0.290875852 0.1667106 0.210415632
v -0.287003458 0.159925029 0.209621891
v -0.293375164 0.154936031 0.208202407
v -0.293214411 0.145990536 0.206392318
v -0.285403401 0.136877552 0.207916066
v -0.292638779 0.132409602 0.205982834
v 0.251274616 -0.19585833 0.53255713
v 0.248969391 -0.190791115 0.537240446
v 0.248733267 -0.190630168 0.540588915
v 0.247584105 -0.186253026 0.545943439
v 0.247660339 -0.186262533 0.552941322
v 0.246581718 -0.1819316 0.558329821
v 0.254721582 -0.186796874 0.566445827
v -0.123626344 0.870818794 0.217215121
v -0.182279125 0.932471156 0.178585425
v -0.159916922 0.923902392 0.185240373
v -0.156038687 0.926239073 0.181810707
v -0.152160436 0.928575754 0.178381056
v -0.104251906 0.876429796 0.206247747
v -0.107952788 0.869782627 0.202043384
v -0.122844063 0.871967018 0.199827731
v -0.120419465 0.864221513 0.207079977
v -0.121869564 0.869744897 0.213836744
v -0.152989253 0.953283191 0.194059491
v 0.227983817 0.623251855 0.430504233
v 0.231648982 0.629728556 0.426516891
v 0.231146201 0.639967978 0.419937521
v 0.234312326 0.641793251 0.420757741
v 0.212774515 0.671124399 0.401049733
v 0.225152552 0.669350028 0.406447887
v 0.220833942 0.68322593 0.397392541
v 0.223668441 0.685383976 0.398001581
v 0.226840734 0.692467451 0.393609971
v 0.232437417 0.696840286 0.394787699
v 0.140970364 0.787075579 0.327590525
v 0.140068367 0.788935781 0.318612814
v 0.137377173 0.792452931 0.308466256
v 0.139390439 0.791624188 0.301304787
v 0.142687678 0.789608657 0.294964045
v 0.140653655 0.787045658 0.29066509
v 0.142586917 0.786290884 0.283433378
v 0.0209180471 0.888885021 0.202627584
v -0.0110557945 0.907352149 0.188964978
v -0.0116685266 0.902710199 0.189888239
v -0.0189107247 0.898404241 0.192304119
v -0.0270794686 0.894414008 0.19858709
v -0.0354650207 0.901507974 0.19767642
v -0.101562679 0.955120265 0.165856093
v -0.105544299 0.952901125 0.169195771
v -0.113304846 0.953572214 0.174688846
v -0.117794603 0.951805353 0.17771405
v -0.125800744 0.952682674 0.183074176
v -0.137003273 0.9564116 0.186462685
v -0.140879035 0.954076409 0.189890146
v -0.14772284 0.95438695 0.191483274
v 0.380600274 -0.479784071 0.759767115
v 0.236182272 -0.398750067 0.682535529
v 0.22150673 -0.39141342 0.668296933
v 0.220410272 -0.391099155 0.661156535
v 0.375889599 -0.474901259 0.737977087
v 0.37108162 -0.475496948 0.739315987
v 0.363803864 -0.478025943 0.740142226
v 0.346438855 -0.472221851 0.734888673
v 0.37890473 -0.485381991 0.757350326
v 0.379124135 -0.482198924 0.759767115
v -0.185425282 -0.192494094 0.557978511
v 0.224432081 -0.39623493 0.758591175
v 0.222620696 -0.395552665 0.751318872
v 0.217126936 -0.392972618 0.742190063
v 0.210605189 -0.389864177 0.732508123
v 0.35847342 -0.469384253 0.804258168
v 0.353011787 -0.472674966 0.809088051
v -0.188188717 -0.195502624 0.542822838
v -0.189548522 -0.190674916 0.548608601
v -0.191066653 -0.189746916 0.551528037
v 0.240307748 -0.397187591 0.780717969
v -0.277966142 -0.120439194 0.529535592
v -0.285418987 -0.10889855 0.516546607
v -0.285399675 -0.105067536 0.511864722
v -0.278166592 -0.101039886 0.509824872
v -0.281383067 -0.0954858512 0.503527045
v -0.284843981 -0.0859068334 0.492354035
v -0.273879915 -0.0877244174 0.496897906
v -0.282411039 -0.0753961056 0.483144999
v -0.282438427 -0.0714733154 0.478366494
v -0.296677947 -0.0640898049 0.463490278
v -0.291500568 -0.0630492121 0.457443386
v -0.27967307 -0.0613038428 0.461560726
v -0.28581363 -0.0498678647 0.456536323
v -0.289316177 -0.0440055877 0.449922323
v -0.283224344 -0.0393711515 0.443360865
v -0.307590127 -0.0220711343 0.425952584
v -0.297678143 -0.0276961196 0.423234701
v -0.304821432 -0.0198723972 0.410693735
v -0.314121455 -0.0107342824 0.400913328
v -0.307632923 -0.0103493221 0.395404547
v -0.295952231 -0.0211096201 0.394638509
v -0.294835418 -0.0218232237 0.391278774
v -0.280977756 -0.0212792438 0.392662972
v -0.281688243 -0.0168494172 0.387336791
v -0.244079769 -0.0296218917 0.397508562
v -0.24303335 -0.030382067 0.390227348
v -0.239843011 -0.0323322639 0.384092182
v -0.250802785 -0.0264306162 0.370288223
v -0.254215837 -0.0287543125 0.365505964
v -0.249545678 -0.0315246172 0.360134929
v -0.249684244 -0.035757754 0.353168786
v -0.253936201 -0.037729159 0.343935251
v -0.240146667 -0.0454213619 0.347557455
v -0.23882556 -0.0504535176 0.341401666
v -0.237769753 -0.0553402565 0.335098565
v -0.2361691 -0.0563187115 0.332020432
v -0.250463188 -0.0486886278 0.316083848
v -0.251348585 -0.0484075025 0.307588816
v -0.250456631 -0.0532348417 0.301143497
v 0.138381839 -0.269565791 0.514231324
v -0.12791805 -0.132317975 0.365593582
v -0.132854208 -0.133497924 0.367687613
v -0.145515442 -0.118467323 0.366230041
v -0.144827411 -0.118736975 0.370480388
v -0.154021263 -0.121495157 0.375105888
v -0.150381967 -0.131294891 0.383015007
v -0.16150111 -0.12916337 0.381709278
v -0.163712174 -0.135795772 0.386356235
v -0.168538317 -0.137179822 0.384700835
v 0.143495336 -0.310797513 0.562108755
v -0.143501669 -0.165988222 0.410110861
v -0.147611007 -0.163561299 0.415462136
v -0.150956452 -0.16557698 0.418420613
v -0.149514928 -0.174012512 0.424953252
v -0.151822671 -0.176563993 0.428462446
v 0.230144814 -0.3833175 0.643227875
v 0.228802845 -0.382497162 0.645808578
v 0.251257092 -0.397340536 0.665220797
v 0.246774614 -0.394765973 0.669362128
v 0.242294312 -0.392192185 0.673513532
v 0.237029508 -0.389209509 0.677260935
v 0.236136481 -0.388503551 0.683310688
v 0.234491006 -0.387405902 0.688959599
v 0.242258906 -0.394569159 0.700296164
v 0.236999899 -0.39159292 0.70404321
v 0.231887653 -0.388692528 0.707878172
v 0.225408733 -0.385080904 0.711025834
v 0.221279114 -0.382690638 0.715387762
v 0.218619823 -0.381065071 0.720501781
v 0.238637254 -0.394576907 0.737833083
v 0.236864835 -0.393535346 0.74013871
v 0.23342596 -0.391507089 0.74480617
v 0.230070785 -0.389522195 0.749519169
v 0.229649231 -0.389060944 0.755689919
v 0.228628069 -0.388288587 0.76155442
v 0.242923632 -0.398786634 0.775687516
v 0.241615698 -0.397987098 0.778202713
v -0.124439545 0.482114881 0.5054667
v -0.217404544 0.560434282 0.459158927
v -0.21188271 0.565701127 0.45998013
v -0.219991416 0.581457973 0.449586332
v -0.217635348 0.58938843 0.444623142
v -0.215138033 0.592238665 0.444893777
v -0.219039768 0.604952097 0.436623484
v 0.0595557801 0.401997924 0.577579021
v 0.0722048581 0.396913797 0.579531312
v 0.0746878237 0.395488054 0.57328999
v 0.0672810748 0.397275597 0.562722921
v 0.0654605553 0.399139464 0.554140389
v 0.0695643872 0.400841177 0.547750175
v 0.0789451152 0.39825362 0.548034489
v 0.0891363025 0.39937982 0.547794461
v 0.0957657397 0.398622662 0.550418675
v 0.102826834 0.402121156 0.548499465
v 0.116259694 0.400903761 0.546290517
v 0.118062504 0.403852999 0.546290517
v 0.122287668 0.409266204 0.546631992
v 0.125188217 0.415717155 0.54624337
v 0.129624262 0.417134076 0.540097654
v 0.129145801 0.413680822 0.533220589
v 0.131015062 0.412479669 0.530452669
v 0.131891906 0.407957733 0.524326086
v 0.138995692 0.398552209 0.521705508
v 0.140528619 0.397615165 0.518757641
v 0.140442818 0.393853188 0.51209563
v 0.139975101 0.394746184 0.504182637
v -0.2871418 0.719135821 0.263175607
v -0.289218247 0.715738893 0.263175607
v -0.28354761 0.705741048 0.276356548
v -0.294568241 0.704008222 0.276858747
v -0.296640724 0.70061779 0.276858747
v -0.300049305 0.693270802 0.27727294
v -0.300352186 0.683550298 0.279430628
v -0.302207977 0.675304353 0.276335478
v -0.312504083 0.673736393 0.264096439
v -0.313980907 0.669887304 0.26443401
v -0.313217819 0.659387469 0.267201453
v -0.297321826 0.637534559 0.278474808
v -0.301768184 0.631043196 0.27829048
v -0.304255694 0.6230883 0.279205769
v -0.305259168 0.614271343 0.276600271
v -0.314940304 0.616788983 0.267955899
v -0.313399106 0.606074333 0.266781121
v -0.317351639 0.599206805 0.2668764
v -0.291718364 0.575713933 0.278122813
v -0.297814667 0.57049334 0.276992738
v -0.130378202 0.438477874 0.38161701
v -0.132916346 0.444712818 0.383207053
v -0.124202266 0.437965363 0.39622739
v -0.123629071 0.441720039 0.40361321
v -0.124559395 0.446570426 0.410161287
v -0.12583524 0.447306126 0.413518876
v -0.127189949 0.45246622 0.419831157
v -0.128544658 0.457626343 0.426143467
v -0.131307602 0.459251106 0.432737678
v -0.131291196 0.46360606 0.435746998
v -0.133860767 0.465087861 0.442442954
v -0.135215059 0.470246345 0.448753268
v -0.133958071 0.473475635 0.456459343
v -0.127945498 0.468825042 0.46369189
v -0.128295824 0.473226637 0.470511734
v -0.1210602 0.467452049 0.48234883
v -0.121429734 0.47185114 0.489127457
v -0.121467955 0.47600159 0.496075183
v -0.123095848 0.47699669 0.499205709
v -0.124723732 0.47799179 0.502336204
v -0.130649075 -0.183292672 0.670083404
v 0.164587274 -0.33154124 0.809232533
v 0.159312144 -0.3221623 0.798911333
v 0.16222845 -0.320405185 0.796332359
v 0.16455166 -0.314913332 0.792732596
v 0.161488071 -0.309953332 0.787326753
v 0.165992811 -0.305606544 0.78474015
v 0.160153046 -0.299121708 0.777987361
v 0.166434318 -0.295715004 0.776233315
v 0.163753197 -0.290903091 0.770954192
v 0.1682785 -0.286536455 0.768355787
v 0.159271553 -0.274848878 0.755968571
v 0.145761847 -0.26754114 0.74615562
v 0.151469722 -0.27083981 0.742351413
v 0.161230847 -0.269369066 0.738978207
v 0.162831083 -0.26675123 0.738978207
v 0.169840232 -0.263623744 0.740846097
v 0.157622084 -0.249899596 0.729973495
v 0.160308093 -0.244415805 0.726403594
v 0.159095034 -0.240274727 0.72169292
v 0.136843368 -0.227960899 0.70397383
v 0.146813422 -0.230121419 0.70144105
v 0.153281137 -0.230258927 0.700523436
v 0.152821273 -0.226501599 0.69612813
v -0.249877766 -0.00782842748 0.491407305
v -0.249726206 -0.0120697292 0.488584489
v -0.25485149 -0.0133639341 0.483092755
v -0.28504476 -0.00481979083 0.465837061
v -0.282604337 -0.0142856864 0.472836882
v -0.286067069 -0.0163720418 0.4758991
v -0.274799228 -0.0305414367 0.491125375
v -0.277833998 -0.0287760086 0.493445963
v -0.287085712 -0.0275678504 0.497442365
v -0.293726027 -0.032073155 0.495997429
v -0.265838265 -0.055350896 0.511656642
v -0.267029881 -0.0586178601 0.515779674
v -0.265507996 -0.0673550814 0.522138596
v -0.270955741 -0.0721992403 0.528838456
v -0.274363369 -0.0742523894 0.531851888
v -0.279611588 -0.0793165788 0.534865379
v -0.283019215 -0.0813697204 0.537878871
v -0.285934418 -0.087542586 0.545784056
v -0.2755256 -0.097024478 0.551678896
v -0.282306761 -0.101110227 0.55767566
v -0.284818232 -0.103614703 0.56109339
v -0.286273241 -0.110620312 0.565880775
v -0.286795795 -0.114153348 0.570231676
v -0.19029364 -0.164207444 0.623189449
v -0.186544359 -0.166027963 0.628561437
v -0.187786639 -0.161296129 0.634349883
v -0.131400496 -0.186774924 0.667012811
v 0.187367946 0.650510848 0.646972239
v 0.1899326 0.6569224 0.650187492
v 0.193054602 0.663269103 0.649929225
v 0.0703634098 0.778904557 0.576298416
v 0.073581934 0.776937127 0.570109069
v 0.0643166825 0.7813797 0.558241725
v 0.0623757057 0.783582747 0.553224623
v 0.0734182 0.779400468 0.550198197
v 0.076927714 0.781515062 0.547094584
v 0.09260308 0.777441144 0.549581647
v 0.0979887843 0.782638013 0.546489239
v 0.111514546 0.780414224 0.54786247
v 0.113397934 0.783495247 0.54786247
v 0.121375524 0.786286533 0.546215892
v 0.124715701 0.792832315 0.54598242
v 0.12499541 0.796890378 0.549063563
v 0.127813026 0.800106347 0.541644394
v 0.131020054 0.79814595 0.535477102
v 0.131292716 0.798898757 0.527667582
v 0.123683222 0.802100837 0.516471446
v 0.126903832 0.800132155 0.510278046
v 0.13012445 0.798163474 0.504084647
v 0.133345068 0.796194732 0.497891277
v 0.136565685 0.79422605 0.491697878
v 0.130687222 0.79581821 0.481352478
v 0.132090479 0.795026422 0.47812584
v 0.13531962 0.793052495 0.47191602
v 0.138144508 0.791452169 0.465470433
v 0.140813306 0.789996505 0.458930999
v 0.142221332 0.789707422 0.451645613
v 0.129548937 0.797562122 0.437143862
v 0.132797509 0.795576334 0.430896699
v 0.136046097 0.793590546 0.424649507
v 0.138064519 0.792742252 0.417663842
v 0.129000723 0.797240019 0.405141205
v 0.13040784 0.79644978 0.401869297
v 0.133670196 0.794455588 0.39559561
v 0.134669617 0.794552743 0.387941092
v 0.13627255 0.794093609 0.380643249
v 0.138115644 0.79341352 0.373483509
v 0.238273695 0.691796243 0.433474213
v 0.227514505 0.691743135 0.433131546
v 0.236886814 0.678426921 0.440024227
v 0.230078653 0.674759805 0.442100167
v 0.23416163 0.661649227 0.446850419
v 0.228172064 0.65725255 0.449415058
v 0.2224994 0.652564764 0.45217523
v 0.22220625 0.64815712 0.453113705
v 0.216076672 0.643880785 0.455596626
v 0.22744973 0.624409318 0.464672327
v 0.218442231 0.627371967 0.464295536
v 0.226213768 0.611209512 0.471162051
v 0.221002817 0.606181264 0.474154115
v 0.221369907 0.59624058 0.480468571
v -0.128710687 0.898901224 0.277588964
v -0.12851727 0.897795558 0.28650564
v -0.131116793 0.899144948 0.29375881
v -0.132559717 0.904641032 0.300482094
v -0.130155697 0.901590168 0.310643584
v -0.130390376 0.900862336 0.319241345
v -0.130155325 0.899723649 0.328091651
v -0.132402256 0.900767386 0.33549574
v -0.144580513 0.900699973 0.33520934
v -0.146628574 0.897349536 0.33520934
v -0.129014999 0.875962019 0.355074584
v -0.127472028 0.873719275 0.36456117
v -0.120082699 0.866389155 0.377310216
v -0.140487596 0.888808906 0.368988603
v -0.134081513 0.882319987 0.381174117
v -0.126668811 0.874959469 0.393864453
v -0.130112156 0.877064347 0.400486141
v -0.130078092 0.876140296 0.409022689
v -0.121938631 0.868160665 0.421980858
v -0.11982701 0.865434647 0.431589037
v -0.14038159 0.887500167 0.427777052
v -0.128170729 0.875962734 0.442847431
v -0.128079146 0.874992907 0.451321065
v -0.128228292 0.874234736 0.459646732
v -0.123119622 0.868900836 0.470750302
v -0.120946899 0.866127133 0.480254143
v 0.189304635 0.604306579 0.649975896
v 0.189817593 0.60836482 0.6492998
v 0.19188036 0.615175188 0.652240038
v 0.188257232 0.627410114 0.648435414
v 0.190919012 0.633713305 0.651695967
v 0.19198972 0.637304723 0.651311517
v 0.185561866 0.647556305 0.646972239
v -0.364973485 -0.586574435 0.748038948
v -0.363389313 -0.579942703 0.750685394
v -0.367219687 -0.571655393 0.747721136
v -0.375309348 -0.565910816 0.736873925
v -0.379849702 -0.568393648 0.728860795
v -0.379413933 -0.572369099 0.726322472
v -0.373571634 -0.578330457 0.72602576
v -0.369032979 -0.586521983 0.732746005
v -0.363970876 -0.59108305 0.74235189
v -0.353154212 -0.591257274 0.749483347
g path_000000
l 106 105 104 103 102 101 100 99 98 97 96 95 94 93 92 91 90 89 88 87 86 85 84 83 82 81 80 79 78 77 76 75 74 73 72 71 70 69 68 67 66 65 64 63 62 61 60 59 58 57 56 55 54 53 52 51 50 49 48 47 46 45 44 43 42 41 40 39 38 37 36 35 34 33 32 31 30 29 28 27 26 25 24 23 22 21 20 19 18 17 16 15 14 13 12 11 10 9 8 7 6 5 4 3 2 1 1576 1575 1574 1573 1572
g path_000001
l 107 108
g path_000002
l 109 110 111 112 113 114 115 116 117 118
g path_000003
l 119 120
g path_000004
l 121 122 123 124 125 126 127 128 129 130
g path_000005
l 131 132 133 134 135 136
g path_000006
l 137 138 139 140 141 142 143 144 145 146 147
g path_000007
l 148 149 150 151 152
g path_000008
l 153 154 155
g path_000009
l 157 158 159 160 161 162 163 164 165 166 167 168 169 170 171 172 173 174 175 176 177 178 179 180 181 182 183 184 185 186 187 188 189 190 191 192 193 194
g path_000010
l 195 196
g path_000011
l 197 198 199 200 201 202 203 204 205 206 207
g path_000012
l 208 209 210
g path_000013
l 211 212 213 214 215 216 217 218 219 220 221
g path_000014
l 222 223 224 225 226 227 228 229 230 231 232 233
g path_000015
l 234 235 236 237 238 239 240
g path_000016
l 241 242
g path_000017
l 243 244 245
g path_000018
l 246 247 248 249 250 251 252 253 254 255 256 257
g path_000019
l 258 259 260 261 262 263
g path_000020
l 264 265 266 267 268 269 270 271 272
g path_000021
l 273 274 275 276 277 278 279 280 281 282 283 284
g path_000022
l 285 286 287 288 289 290 291 292 293 294 295 296 297 298 299 300 301 302 303 304 305 306 307
g path_000023
l 308 309 310 311 312
g path_000024
l 313 314 315 316 317 318 319 320 321 322 323
g path_000025
l 324 325 326 327 328
g path_000026
l 329 330 331 332
g path_000027
l 333 334 335 336 337 338 339 340 341 342 343 344 345 346 347 348 349 350 351 352 353 354 355 356 357 358 359 360 361 362 363 364 365 366 367 368 369 370 371 372 373 374 375 376 377 378 379 380 381 382 383
g path_000028
l 384 385 386 387
g path_000029
l 388 389
g path_000030
l 390 391 392 393 394 395 396 397 398 399 400 401 402 403 404 405 406 407 408 409 410 411 412 413 414 415 416 417 418 419 420 421 422 423 424
g path_000031
l 425 426 427 428 429 430 431 432 433 434 435 436 437 438 439 440 441 442 443 444 445 446 447 448 449 450 451 452 453 454 455 456 457 458 459 460 461 462 463 464 465 466 467 468 469 470 471 472 473 474 475
g path_000032
l 476 477 478 479 480 481 482 483 484 485 486 487 488 489 490 491 492 493 494 495 496 497 498 499 500 501 502 503 504 505 506 507 508 509 510 511 512 513 514 515 516 517 518 519 520 521 522 523 524 525 526 527 528 529 530 531 532 533 534 535 536 537 538 539 540 541 542 543 544 545 546 547 548 549
g path_000033
l 550 551 552 553
g path_000034
l 554 555 556 557 558 559 560
g path_000035
l 561 562 563 564 565 566 567 568 569 570
g path_000036
l 571 572 573 574 575 576 577 578 579 580
g path_000037
l 581 582 583 584 585 586
g path_000038
l 588 589 590
g path_000039
l 591 592 593 594 595 596 597 598
g path_000040
l 599 600 601 602 603 604 605 606
g path_000041
l 607 608 609
g path_000042
l 610 611 612 613 614 615 616
g path_000043
l 617 618 619 620
g path_000044
l 621 622 623 624
g path_000045
l 626 627 628 629 630
g path_000046
l 631 632 633 634 635 636 637 638 639 640
g path_000047
l 641 642
g path_000048
l 643 644 645 646
g path_000049
l 647 648 649 650 651 652 653 654 655 656
g path_000050
l 657 658 659 660 661 662
g path_000051
l 663 664 665 666 667 668 669 670 671
g path_000052
l 672 673 674 675 676 677 678 679 680 681 682 683 684 685 686 687 688 689 690
g path_000053
l 691 692 693 694 695 696 697 698 699 700 701 702 703 704
g path_000054
l 705 706 707 708 709 710 711
g path_000055
l 712 713 714 715 716 717 718 719 720 721 722 723 724 725
g path_000056
l 727 728 729 730 731 732 733 734 735 736 737 738 739 740 741 742 743 744 745 746 747 748 749 750 751 752 753 754 755 756 757
g path_000057
l 758 759 760 761 762 763 764 765 766 767 768
g path_000058
l 769 770 771 772 773 774 775 776 777 778
g path_000059
l 779 780 781 782 783 784 785 786 787 788 789 790 791 792 793 794 795 796 797 798 799 800 801 802 803 804 805 806 807 808 809 810 811 812 813 814 815 816 817 818
g path_000060
l 819 820 821 822 823 824 825 826 827 828 829 830 831 832 833 834 835 836 837 838 839
g path_000061
l 840 841
g path_000062
l 843 844 845 846 847 848 849 850 851 852 853 854 855 856 857 858 859 860 861 862 863 864 865 866 867 868 869 870 871 872 873 874 875 876 877 878 879 880 881 882 883 884
g path_000063
l 885 886 887 888 889 890 891 892 893 894 895 896 897 898 899 900 901 902 903 904 905 906 907 908 909
g path_000064
l 910 911 912 913 914 915 916
g path_000065
l 917 918 919 920 921 922 923 924 925 926 927 928 929 930 931 932 933 934 935 936 937 938 939 940 941 942 943 944 945 946 947
g path_000066
l 948 949 950 951 952 953 954
g path_000067
l 955 956 957 958 959 960 961 962 963 964 965 966 967 968 969 970 971 972 973 974 975
g path_000068
l 976 977 978 979 980 981 982 983 984 985 986 987 988 989 990 991 992 993 994 995 996 997 998 999 1000 1001 1002 1003 1004 1005 1006 1007 1008 1009 1010 1011 1012 1013 1014 1015 1016 1017 1018
g path_000069
l 1020 1021 1022
g path_000070
l 1023 1024 1025 1026
g path_000071
l 1027 1028 1029 1030 1031 1032 1033 1034
g path_000072
l 1035 1036 1037 1038 1039 1040
g path_000073
l 1041 1042 1043 1044 1045 1046 1047 1048
g path_000074
l 1049 1050 1051 1052 1053 1054 1055
g path_000075
l 1056 1057 1058 1059 1060 1061
g path_000076
l 1062 1063 1064 1065 1066 1067 1068 1069 1070 1071 1072 1073 1074 1075 1076 1077 1078 1079 1080 1081 1082 1083
g path_000077
l 1084 1085 1086 1087 1088 1089 1090 1091 1092 1093 1094 1095 1096 1097 1098 1099 1100 1101 1102 1103 1104 1105 1106 1107 1108 1109 1110 1111 1112 1113 1114 1115 1116 1117 1118 1119 1120 1121 1122 1123 1124 1125 1126 1127
g path_000078
l 1128 1129 1130 1131 1132 1133 1134 1135 1136 1137 1138 1139 1140 1141 1142
g path_000079
l 1143 1144
g path_000080
l 1145 1146 1147 1148 1149 1150 1151 1152 1153 1154 1155 1156 1157 1158 1159 1160 1161 1162 1163 1164 1165 1166 1167 1168 1169 1170 1171 1172 1173 1174 1175 1176 1177 1178 1179 1180 1181 1182 1183 1184 1185 1186 1187 1188 1189 1190 1191 1192 1193 1194 1195 1196 1197 1198 1199 1200 1201 1202 1203 1204 1205 1206
g path_000081
l 1207 1208 1209 1210 1211 1212 1213 1214 1215 1216 1217 1218 1219
g path_000082
l 1220 1221 1222 1223 1224 1225 1226 1227
g path_000083
l 1228 1229 1230 1231 1232 1233 1234
g path_000084
l 1235 1236 1237 1238 1239 1240 1241 1242 1243 1244 1245
g path_000085
l 1246 1247 1248 1249
g path_000086
l 1250 1251
g path_000087
l 1252 1253 1254 1255 1256 1257 1258 1259 1260
g path_000088
l 1261 1262 1263 1264 1265 1266
g path_000089
l 1267 1268 1269 1270 1271 1272 1273 1274 1275
g path_000090
l 1276 1277 1278 1279 1280 1281 1282 1283
g path_000091
l 1284 1285 1286 1287 1288 1289 1290 1291 1292 1293 1294 1295
g path_000092
l 1297 1298 1299 1300
g path_000093
l 1301 1302 1303 1304 1305 1306
g path_000094
l 1307 1308 1309 1310 1311 1312
g path_000095
l 1313 1314
g path_000096
l 1315 1316 1317 1318 1319 1320 1321 1322 1323 1324 1325 1326 1327 1328 1329 1330 1331 1332 1333 1334 1335 1336
g path_000097
l 1337 1338 1339 1340 1341 1342 1343 1344 1345 1346
g path_000098
l 1348 1349 1350 1351 1352 1353 1354 1355 1356 1357 1358 1359 1360 1361 1362 1363 1364 1365 1366
g path_000099
l 1367 1368
g path_000100
l 1369 1370 1371 1372 1373 1374
g path_000101
l 1375 1376 1377 1378
g path_000102
l 1379 1380 1381 1382 1383 1384 1385
g path_000103
l 1387 1388 1389 1390 1391 1392 1393 1394 1395 1396 1397
g path_000104
l 1399 1400 1401 1402
g path_000105
l 1403 1404 1405 1406 1407 1408 1409 1410 1411 1412 1413 1414 1415 1416 1417 1418 1419 1420 1421 1422 1423 1424 1425 1426 1427 1428 1429 1430 1431 1432 1433 1434 1435 1436 1437
g path_000106
l 1438 1439 1440 1441 1442 1443
g path_000107
l 1444 1445 1446 1447 1448 1449 1450 1451
g path_000108
l 1452 1453 1454 1455 1456 1457 1458 1459 1460 1461 1462
g path_000109
l 1463 1464 1465 1466 1467 1468 1469
g path_000110
l 1470 1471 1472 1473 1474 1475 1476 1477 1478 1479 1480 1481 1482 1483 1484 1485
g path_000111
l 1486 1487 1488 1489 1490 1491 1492 1493 1494 1495 1496 1497
g path_000112
l 1498 1499 1500 1501 1502 1503 1504 1505 1506 1507 1508 1509 1510
g path_000113
l 1511 1512 1513 1514 1515 1516 1517 1518 1519
g path_000114
l 1520 1521 1522 1523 1524 1525 1526 1527 1528 1529 1530 1531 1532
g path_000115
l 1533 1534 1535 1536 1537 1538 1539 1540 1541 1542
g path_000116
l 1543 1544
g path_000117
l 1546 1547 1548 1549
g path_000118
l 1550 1551 1552
g path_000119
l 1553 1554 1555
g path_000120
l 1558 1559 1560 1561 1562 1563
g path_000121
l 1564 1565 1566
g path_000122
l 1569 1570 1571
g path_000123
l 1580 1579 1578 1577 1595 1594 1593 1592
g path_000124
l 1582 1583 1584 1585 1586 1587 1588 1589 1590
g path_000125
l 1598 1597 1596 1615 1614 1613 1612 1611 1610
g path_000126
l 1599 1600
g path_000127
l 1601 1602 1603 1604 1605 1606 1607 1608 1609
g path_000128
l 1617 1616 1686 1685 1684 1683
g path_000129
l 1618 1619 1620 1621 1622 1623 1624 1625 1626 1627 1628 1629 1630 1631 1632 1633 1634 1635 1636 1637 1638 1639 1640 1641 1642 1643 1644 1645 1646 1647
g path_000130
l 1648 1649 1650
g path_000131
l 1651 1652 1653 1654
g path_000132
l 1655 1656 1657 1658 1659 1660 1661 1662 1663 1664 1665 1666 1667 1668 1669 1670 1671 1672
g path_000133
l 1673 1674
g path_000134
l 1675 1676 1677 1678 1679 1680 1681 1682
g path_000135
l 1688 1687 1703 1702 1701 1700 1699 1698
g path_000136
l 1690 1691 1692 1693 1694 1695 1696 1697
g path_000137
l 1708 1707 1706 1705 1704 1718 1717
g path_000138
l 1709 1710 1711 1712 1713 1714 1715
g path_000139
l 1719 1743 1742 1741 1740 1739 1738 1737
g path_000140
l 1720 1721
g path_000141
l 1722 1723 1724 1725
g path_000142
l 1726 1727
g path_000143
l 1728 1729 1730 1731 1732 1733 1734 1735 1736
g path_000144
l 1744 1753 1752 1751 1750 1749
g path_000145
l 1746 1747 1748
g path_000146
l 1754 1785 1784 1783 1782 1781 1780 1779 1778
g path_000147
l 1755 1756 1757 1758
g path_000148
l 1759 1760 1761 1762 1763 1764
g path_000149
l 1765 1766 1767 1768 1769 1770 1771
g path_000150
l 1773 1774 1775 1776 1777
g path_000151
l 1786 1795 1794
g path_000152
l 1788 1789
g path_000153
l 1790 1791 1792
g path_000154
l 1796 1805 1804 1803
g path_000155
l 1797 1798 1799 1800
g path_000156
l 1801 1802
g path_000157
l 1806 1883 1882
g path_000158
l 1807 1808 1809 1810 1811 1812 1813 1814 1815
g path_000159
l 1816 1817 1818 1819 1820 1821
g path_000160
l 1822 1823 1824 1825 1826 1827 1828 1829 1830
g path_000161
l 1831 1832 1833 1834 1835 1836 1837 1838 1839 1840 1841 1842
g path_000162
l 1843 1844 1845
g path_000163
l 1847 1848 1849 1850 1851 1852 1853 1854 1855
g path_000164
l 1857 1858 1859 1860 1861
g path_000165
l 1862 1863
g path_000166
l 1864 1865 1866 1867 1868 1869 1870 1871 1872 1873 1874 1875
g path_000167
l 1876 1877 1878 1879 1880 1881
g path_000168
l 1884 1952 1951 1950 1949 1948 1947 1946 1945 1944 1943 1942 1941 1940 1939 1938 1937 1936 1935 1934 1933
g path_000169
l 1885 1886 1887 1888 1889 1890
g path_000170
l 1891 1892 1893 1894 1895 1896 1897 1898 1899 1900 1901 1902 1903 1904 1905 1906 1907 1908 1909 1910 1911 1912
g path_000171
l 1913 1914 1915 1916 1917 1918 1919 1920 1921 1922 1923
g path_000172
l 1924 1925 1926 1927 1928 1929 1930
g path_000173
l 1931 1932
g path_000174
l 1953 2003
g path_000175
l 1954 1955 1956 1957 1958 1959 1960 1961 1962 1963
g path_000176
l 1964 1965 1966 1967 1968 1969
g path_000177
l 1970 1971 1972
g path_000178
l 1973 1974 1975 1976
g path_000179
l 1977 1978 1979
g path_000180
l 1980 1981 1982
g path_000181
l 1983 1984 1985 1986
g path_000182
l 1987 1988 1989 1990 1991 1992 1993 1994 1995 1996 1997 1998 1999
g path_000183
l 2000 2001 2002
g path_000184
l 2006 2005 2004 2090 2089 2088 2087 2086 2085 2084
g path_000185
l 2007 2008 2009 2010 2011 2012 2013 2014 2015 2016 2017 2018 2019 2020 2021 2022 2023 2024 2025 2026 2027 2028 2029 2030 2031 2032 2033 2034 2035 2036 2037 2038 2039 2040 2041 2042 2043
g path_000186
l 2044 2045 2046 2047 2048 2049 2050 2051 2052
g path_000187
l 2053 2054 2055 2056 2057
g path_000188
l 2058 2059 2060 2061 2062 2063 2064 2065 2066 2067
g path_000189
l 2068 2069 2070
g path_000190
l 2071 2072 2073 2074 2075 2076 2077
g path_000191
l 2078 2079 2080 2081 2082 2083
g path_000192
l 2091 2092 2093 2094 2095 2096 2097 2098 2099 2100 2091
