# True static 3D polylines; use tube GLB/OBJ if the importer ignores OBJ l records.
o curve_0
v -0.128847399418 0.903017847098 0.673828582343
v -0.126909010753 0.888742830426 0.674331196004
v -0.126310580733 0.876553633354 0.672956539377
v -0.129719026931 0.869707932778 0.670772563609
v -0.131249247367 0.860775922081 0.666404612074
v -0.149705464231 0.875076868821 0.652776467637
v -0.15852220389 0.874790393446 0.652735007297
v -0.167101585975 0.874126842703 0.653044349407
v -0.17508509354 0.872560738073 0.654194309201
v -0.182397352926 0.869994256349 0.656276366281
v -0.189622469379 0.867298709605 0.658478697685
v -0.191165550841 0.858291628143 0.654074034878
v -0.192601138324 0.848478174726 0.654607552933
v -0.19135718629 0.835447793392 0.654018408365
v -0.190065511352 0.822382381549 0.653501506169
v -0.191885449183 0.813206409804 0.653501202408
v -0.179846470243 0.784244651208 0.67243730037
v -0.183087294366 0.776636373608 0.675189379343
v -0.18639135095 0.769144349483 0.677839852076
v -0.189712051866 0.762258061707 0.675757570397
v -0.189689647476 0.751226162512 0.673515740421
v -0.190404565681 0.740709390596 0.674968683473
v -0.189894102691 0.72904213488 0.673395028767
v -0.191018464978 0.719154004289 0.674285822795
v -0.188589467402 0.704890249199 0.675323830421
v -0.19042995691 0.696050774358 0.675234335351
v -0.190168758366 0.684830685146 0.673333619533
v -0.191594013837 0.675464419452 0.67380329368
v -0.190168703538 0.662709475387 0.673488351678
v -0.191521528405 0.653298125146 0.674049858553
v -0.188118980815 0.637950641829 0.676426515813
v -0.191346392148 0.631111677943 0.674434943532
v -0.190644721786 0.619447800855 0.673148665126
v -0.19203712749 0.610191604362 0.673644233164
v -0.190313469368 0.597228834183 0.673750864552
v -0.192040087217 0.58846530192 0.673786134991
v -0.19035169501 0.575614143678 0.673850415264
v -0.193333037666 0.568531343748 0.672176949614
v -0.191698946162 0.555807822731 0.67217145435
v -0.19066516173 0.543894799179 0.671357482065
v -0.193966565696 0.537264087787 0.669242094043
v -0.192888407539 0.530917547746 0.665011317999
v -0.19055333623 0.528547436447 0.659000042561
v -0.187149261853 0.524806976371 0.654441377862
v -0.182291703836 0.530089823799 0.649448114399
v -0.180184524712 0.52802389054 0.643082174148
v -0.185319574058 0.523401000178 0.643082174148
v -0.190454623404 0.518778109816 0.643082174148
v -0.19054976886 0.508040886298 0.645377105974
v -0.188918798595 0.495157080334 0.65003202999
v -0.191432085073 0.487281060832 0.653588492632
v -0.190805774616 0.475758812999 0.656835160948
v -0.194090295954 0.469162009555 0.654730590539
v -0.193017651252 0.462847924273 0.650521449719
v -0.189847248385 0.459386787183 0.645694842328
v -0.19115486622 0.456029460335 0.638207066708
v -0.192432794626 0.452622453472 0.630745574836
v -0.1893813709 0.449307885174 0.625723252894
v -0.190131501899 0.44523399384 0.618966242956
v -0.21303692648 0.468508349403 0.58137703232
v -0.227465502322 0.475206781433 0.568549305428
v -0.234523081767 0.472573739404 0.570700568863
v -0.2418794993 0.470501146877 0.567741117268
v -0.245222147577 0.463727867805 0.565612938643
v -0.248799736313 0.457062363649 0.567857366324
v -0.252377310626 0.450580562685 0.565404922841
v -0.258881830069 0.447437328096 0.563634463838
v -0.255177733919 0.443322863562 0.55932739043
v -0.254080132373 0.436861870694 0.555020317021
v -0.253839582428 0.431419945178 0.549532154822
v -0.254167373802 0.426647631735 0.543253809107
v -0.255628374229 0.423208904682 0.535398181644
v -0.254239532365 0.421835861379 0.527850889157
v -0.251227538873 0.418541806104 0.522543329393
v -0.249591654762 0.416741069171 0.520068309509
v -0.241805090752 0.418712398359 0.514100734831
v -0.234809185693 0.421484847437 0.511790542892
v -0.232672357986 0.413758681314 0.50892514955
v -0.226334167167 0.411983012849 0.50459923868
v -0.220076256792 0.415637693406 0.501239059768
v -0.212142293159 0.417277717787 0.500273327811
v -0.206856113851 0.421930129433 0.500345851826
v -0.191481848129 0.409156323184 0.509090828528
v -0.190384841074 0.402698829767 0.504786087948
v -0.186682751163 0.39858659374 0.500481347369
v -0.18791637178 0.394953285284 0.49277826018
v -0.18764204087 0.3949958764 0.483445020168
v -0.189802999447 0.392461781166 0.474343550717
v -0.187339920972 0.389849773124 0.468167194434
v -0.187903080607 0.385366684377 0.461380304629
l 1 2 3 4 5 6 7 8 9 10 11 12 13 14 15 16 17 18 19 20 21 22 23 24 25 26 27 28 29 30 31 32 33 34 35 36 37 38 39 40 41 42 43 44 45 46 47 48 49 50 51 52 53 54 55 56 57 58 59 60 61 62 63 64 65 66 67 68 69 70 71 72 73 74 75 76 77 78 79 80 81 82 83 84 85 86 87 88 89 90
o curve_1
v -0.311037729749 0.522542533257 0.277505152976
v -0.31330561273 0.513875412264 0.271926610112
v -0.314924053997 0.504428450004 0.267306835829
v -0.317877305474 0.496416862374 0.26595952891
v -0.317951024954 0.485154516522 0.263623833102
v -0.321551969665 0.477922191924 0.261316513129
v -0.320375988793 0.470999821918 0.256701873184
v -0.316995847227 0.46727954835 0.251213269798
v -0.321231762085 0.466667631138 0.238541717559
v -0.323477722033 0.469509015846 0.224612056168
v -0.319484478151 0.465073369562 0.21996876565
v -0.321111157839 0.455578319023 0.215325475131
l 91 92 93 94 95 96 97 98 99 100 101 102
o curve_2
v -0.266115089968 0.380595403026 0.300853788519
v -0.269631168894 0.373533527282 0.298600846643
v -0.268482903122 0.366774301231 0.29409496289
v -0.290355151381 0.380650394198 0.264330689498
v -0.306950463728 0.388279691338 0.247756749681
v -0.314166836774 0.385191617582 0.245253666307
v -0.31636842621 0.376500408758 0.239783863706
v -0.319468737556 0.368807071417 0.232971360323
v -0.323045291938 0.361623733621 0.230679668552
l 103 104 105 106 107 108 109 110 111
o curve_3
v -0.629683668527 0.689798853166 -0.223012067365
v -0.631534787381 0.678993734494 -0.228296010287
v -0.635658009677 0.670712440434 -0.230937981747
v -0.633528179028 0.655569041473 -0.230289741475
v -0.632679189318 0.641858771439 -0.231542786613
v -0.635806655464 0.632540472475 -0.232711550226
v -0.635181601076 0.619120955912 -0.23429554838
v -0.638829004966 0.610387650341 -0.236244320225
v -0.637811373806 0.596594744869 -0.237241064291
v -0.639651664474 0.585852831122 -0.242494098601
v -0.637133853309 0.57673038591 -0.245984732967
v -0.63225301537 0.571329731187 -0.250686807929
v -0.63409206654 0.560595052489 -0.255936304139
v -0.633220329058 0.547034380362 -0.257114032986
v -0.636811223572 0.538297649822 -0.258984509828
l 112 113 114 115 116 117 118 119 120 121 122 123 124 125 126
o curve_4
v -0.194260632107 0.0694559699135 0.412734796131
v -0.192662397063 0.0680931490523 0.424746925023
v -0.193083777072 0.0737305190708 0.42992197742
v -0.194172420269 0.0751317976608 0.437875955375
v -0.193262587096 0.0793770197817 0.445005519526
v -0.19467354368 0.0811046945315 0.452440106644
v -0.198277077194 0.0851074553237 0.456630247166
v -0.205150305532 0.0825431910128 0.458725317426
v -0.213037189396 0.0810204911949 0.45934408387
v -0.224109893867 0.0829041078288 0.460072743172
v -0.231458855021 0.0808064792168 0.461504065787
v -0.238949049015 0.0788471423834 0.462738640592
v -0.247644711018 0.0782829174799 0.46693876351
v -0.250922195413 0.0717002473992 0.464838702051
v -0.250501151036 0.0614298926004 0.468002598347
v -0.254563599925 0.0558590357143 0.469438051253
v -0.257833008599 0.0492925853293 0.467343164344
v -0.261102417274 0.0427261349442 0.465248277435
v -0.281935384383 0.0535577056299 0.442975279418
v -0.28897810375 0.0510832011307 0.444927313546
v -0.299343134571 0.051821118444 0.442226536618
v -0.30652126733 0.0494590385134 0.44401248346
v -0.307767239979 0.0405777393014 0.440110631837
v -0.309429688496 0.0326714142814 0.444927313546
v -0.308156668857 0.0223112422442 0.45841102784
l 127 128 129 130 131 132 133 134 135 136 137 138 139 140 141 142 143 144 145 146 147 148 149 150 151
o curve_5
v -0.143309696354 -0.142543287092 0.69339890287
v -0.142259527076 -0.151515321498 0.709624978603
v -0.145585727243 -0.156609201948 0.715571622185
v -0.146558796742 -0.150881262592 0.719390022203
v -0.149842632299 -0.147233618365 0.723208422221
v -0.15769285258 -0.148090607801 0.722966731524
v -0.164318909665 -0.150097984753 0.724395559863
v -0.170934120354 -0.15211856946 0.72584302348
v -0.188922931345 -0.139132712354 0.713093188076
v -0.189903813224 -0.133358785702 0.716942244475
v -0.193214013362 -0.129681856023 0.720791300875
v -0.193471909547 -0.128828146561 0.728688323744
v -0.193679011185 -0.123779970998 0.73355293795
v -0.196982378815 -0.120110630785 0.737394049601
v -0.204934767181 -0.120626627791 0.741235161252
v -0.211663990572 -0.122583365308 0.74259614116
v -0.221818546732 -0.121085928255 0.74358153525
v -0.229487123781 -0.122202091538 0.743747712133
v -0.236796529759 -0.123655493272 0.74439083331
v -0.243113945276 -0.126012394912 0.746316482906
v -0.249431360793 -0.128369296553 0.748242132502
v -0.251787091865 -0.134985615334 0.747145310406
v -0.25383388307 -0.141503765383 0.750471319977
v -0.253275679395 -0.150676938222 0.753074807964
v -0.252372335485 -0.16012159736 0.756109902584
v -0.254428641152 -0.166552943069 0.759379583152
v -0.254483086038 -0.175099659364 0.761179148403
v -0.254268565999 -0.18385321273 0.763313475404
v -0.257243468586 -0.189828161773 0.761407294469
v -0.253964825854 -0.193470037873 0.757594932599
v -0.254732778179 -0.197694259054 0.751570454314
v -0.253777407615 -0.199341608742 0.744786551148
v -0.250491775756 -0.202991248278 0.740966062414
v -0.250995582106 -0.207457925818 0.735250415988
v -0.248121885664 -0.210755854873 0.730893533543
l 152 153 154 155 156 157 158 159 160 161 162 163 164 165 166 167 168 169 170 171 172 173 174 175 176 177 178 179 180 181 182 183 184 185 186
o curve_6
v -0.166846494255 -0.334705185637 0.867214634639
v -0.170136933506 -0.339516404714 0.868574831319
v -0.172768629042 -0.345311962132 0.86700132641
v -0.154790189842 -0.367399842311 0.895207058601
v -0.155429228753 -0.373325665324 0.907216661204
v -0.149969294455 -0.384119011287 0.926746271461
v -0.150866680643 -0.37883657908 0.930267684308
v -0.158157185345 -0.379309629241 0.933789097155
v -0.163933477202 -0.381464648444 0.935549803579
v -0.169709769058 -0.383619667648 0.937310510002
v -0.174825598756 -0.386298926857 0.939879861395
v -0.176559301604 -0.392130265974 0.942966445947
v -0.180813977649 -0.395960589611 0.942966445947
v -0.179918150165 -0.401233846562 0.939451149574
v -0.184711206345 -0.404644492674 0.938795199834
v -0.19447787945 -0.403693710249 0.93570043117
v -0.199900905818 -0.406639485413 0.934298425495
v -0.216790038363 -0.399741405897 0.92627775492
v -0.223433025764 -0.40127589141 0.927055278926
v -0.229267877861 -0.403431789869 0.928806125107
v -0.237382932529 -0.403858853118 0.927843086473
v -0.24473302211 -0.404335769492 0.931393279626
v -0.250556523269 -0.406508401544 0.933168376202
v -0.252791346112 -0.411919001904 0.935594633641
v -0.253886403977 -0.4187210976 0.935787758593
v -0.254257462325 -0.422529043078 0.934309745028
v -0.255364737791 -0.429872428038 0.930924573743
v -0.256605795756 -0.437116575847 0.927382024633
v -0.253559192814 -0.440500704997 0.923839475523
v -0.254438043558 -0.444513897188 0.918186239774
v -0.253744117292 -0.44618261059 0.911840962745
v -0.248659352302 -0.444045905217 0.905583770531
v -0.241300425649 -0.443568415444 0.902029308952
v -0.239172957498 -0.438655981883 0.895785999835
v -0.236366105945 -0.438332471483 0.889303921828
v -0.23329936686 -0.441738967613 0.885737958681
v -0.229644831239 -0.442038996347 0.880255738073
v -0.231179565518 -0.442038988906 0.871050213581
v -0.227023890542 -0.442701780202 0.866136970772
v -0.223945314427 -0.44612142476 0.862557243685
v -0.218700409009 -0.447590805127 0.858977516598
l 187 188 189 190 191 192 193 194 195 196 197 198 199 200 201 202 203 204 205 206 207 208 209 210 211 212 213 214 215 216 217 218 219 220 221 222 223 224 225 226 227
o curve_7
v -0.127722155983 -0.51960742978 0.967203459164
v -0.110154155411 -0.540376547139 0.987106459086
v -0.115685131454 -0.542440043908 0.988792389314
v -0.121216107497 -0.544503540678 0.990478319542
v -0.1351156434 -0.533260365611 0.980332379782
v -0.140086513985 -0.531867757153 0.98372507396
v -0.147110527906 -0.53232351585 0.987117768138
v -0.154134541828 -0.532779274546 0.990510462317
v -0.159699692125 -0.534855521048 0.992206809406
v -0.164977262151 -0.537137448587 0.994248577498
v -0.167624267202 -0.542453831171 0.992552498242
v -0.173203428 -0.545107258609 0.990787778837
v -0.184129218619 -0.542817004709 0.989540348378
v -0.199566097464 -0.53406701302 0.980544787278
v -0.204578980793 -0.532662634531 0.983966155788
v -0.21166236019 -0.533122245203 0.987387524297
v -0.218745739587 -0.533581855875 0.990808892807
v -0.224357925354 -0.535675650372 0.992519577062
v -0.229854219709 -0.537849436873 0.994364666335
v -0.232523854172 -0.543211269545 0.992654087192
v -0.238953225854 -0.545376003658 0.990007326582
v -0.248640376762 -0.544070692653 0.99044667627
v -0.262599748807 -0.533298510298 0.981250940223
v -0.269741914856 -0.533761935389 0.984700703484
v -0.275281619091 -0.532017400646 0.987599271474
v -0.280941803686 -0.534129102547 0.989324586542
v -0.288085764456 -0.534592644089 0.992775216678
v -0.293745949052 -0.536704345991 0.994500531746
v -0.294350377089 -0.540232437481 0.992775216678
v -0.299756355306 -0.543842868757 0.988006743275
v -0.307203399965 -0.544113613148 0.9911350875
v -0.325458675682 -0.534003371379 0.979933965758
v -0.330556146011 -0.532575295518 0.983413066172
v -0.33838858276 -0.532630135209 0.986199217753
v -0.345593760705 -0.533097648876 0.989679416617
v -0.35279893865 -0.533565162543 0.99315961548
v -0.358507625824 -0.535694959788 0.994899714912
v -0.359726840685 -0.542811607769 0.991419516048
v -0.35890522535 -0.549825751402 0.996877317132
v -0.366092448873 -0.550292100083 1.00034884377
v -0.371786910697 -0.552416590134 1.00208460708
v -0.379116039268 -0.553508103892 1.00206978892
v -0.381827155185 -0.558953250072 1.00033263037
v -0.383044309495 -0.566057870466 0.996858313263
v -0.381331034922 -0.571784818902 0.994272796539
v -0.383072312148 -0.577827176204 0.993575796954
v -0.383680353268 -0.581376357527 0.99184016849
v -0.382795748663 -0.586583551399 0.988368911561
v -0.380564786701 -0.589436547417 0.984083748601
v -0.380719530995 -0.594009870059 0.979487154791
v -0.381367322876 -0.598287576794 0.974351901387
v -0.381486806234 -0.602892978817 0.969783451728
v -0.382109171898 -0.60719893473 0.964663637205
v -0.38051982455 -0.609676288715 0.959650081536
v -0.381121299672 -0.614006117732 0.954538442924
v -0.38111973278 -0.618704214214 0.95008084259
v -0.381291795099 -0.623302749179 0.945428786862
v -0.38046085066 -0.625342366733 0.939550267974
v -0.380554264438 -0.629998341245 0.934972004963
v -0.380986871135 -0.634458203829 0.93001450623
v -0.381208298137 -0.639048644191 0.925285063255
v -0.379227912915 -0.641785777854 0.92064304688
v -0.379998638756 -0.646062639917 0.915291280861
v -0.380136037476 -0.650717011969 0.910638499329
v -0.380723101722 -0.65511468273 0.905478665068
v -0.379429834383 -0.65746483832 0.900038592628
v -0.380440281194 -0.661629703632 0.894387867673
v -0.380546814317 -0.66632419622 0.889745863388
v -0.38144482565 -0.67056926602 0.88420698913
v -0.390146728978 -0.670363536101 0.86984364914
v -0.395899492697 -0.675031865901 0.861203386807
v -0.394996470572 -0.680347473858 0.857659858103
v -0.391949025176 -0.683732538795 0.8541163294
v -0.38866531963 -0.687250750916 0.850842105573
v -0.383288189572 -0.691946641488 0.84996292256
v -0.382386302168 -0.697255569946 0.846423846592
v -0.381484414765 -0.702564498403 0.842884770625
v -0.381695725213 -0.707254853013 0.83806547932
v -0.379721096039 -0.710043470266 0.833289478822
v -0.393609755653 -0.710320177928 0.815144679613
v -0.395712247731 -0.717142992097 0.810593401368
v -0.392645173189 -0.720549860848 0.807027048156
v -0.389578098647 -0.7239567296 0.803460694945
v -0.383069995983 -0.729237302012 0.803906614549
v -0.382162688342 -0.734578136503 0.800346269152
v -0.381255380701 -0.739918970994 0.796785923756
v -0.380801294258 -0.741914742302 0.790163851885
v -0.379901895583 -0.747257555914 0.786588270769
v -0.379220263652 -0.75248409775 0.782755986969
v -0.380081027448 -0.756891575571 0.777101276292
v -0.378223056414 -0.759657608807 0.77209865403
v -0.378807799171 -0.764223876606 0.766754390047
v -0.379803547145 -0.768581098 0.760914602761
v -0.379501914141 -0.773626868095 0.756611637679
v -0.378736788453 -0.775836012362 0.750272009316
v -0.379317008549 -0.780431930616 0.744903053591
v -0.378919182037 -0.785541633356 0.740700347496
v -0.379342127513 -0.790230672807 0.735508907417
v -0.380081237961 -0.79168956884 0.72731163695
v -0.380284742122 -0.796507923469 0.722365412119
v -0.380545359145 -0.80130257889 0.717344910181
v -0.380260417328 -0.806379745897 0.712980328073
v -0.379466073586 -0.811717206877 0.709231531191
v -0.380086725193 -0.81328270791 0.701104495925
v -0.380543441416 -0.818002366017 0.695819102466
v -0.381627979353 -0.822415322025 0.689759582505
v -0.380057013133 -0.825100950864 0.684263914863
v -0.380415719499 -0.829889163492 0.679076096734
v -0.376158817005 -0.827794075314 0.671466777562
v -0.378445860385 -0.828570221148 0.661150551083
v -0.375321746743 -0.832040448233 0.657517873568
v -0.37815643613 -0.837733785797 0.655701534811
v -0.377737647918 -0.845988568865 0.654170764643
v -0.377930164791 -0.852957673583 0.655634192944
v -0.378827829607 -0.85956889132 0.656218114487
v -0.377552954152 -0.8681895257 0.65575579897
v -0.377668429954 -0.875142000035 0.657307166208
v -0.379446564274 -0.881293109967 0.656791744991
v -0.380316037534 -0.887861763281 0.657400909873
v -0.378952104731 -0.896455222449 0.657053548815
v -0.38003840795 -0.902894264796 0.657390462252
v -0.381176619969 -0.909297875235 0.657660221406
v -0.379749602972 -0.91786832068 0.657395381695
v -0.380789245055 -0.92428933158 0.657783976703
v -0.381290155507 -0.93093871856 0.658836749768
v -0.380441454337 -0.93919876398 0.657860229415
v -0.382004197575 -0.945350844124 0.657594814006
v -0.384796603552 -0.950959257489 0.655805568516
v -0.381719090492 -0.954377721219 0.652227077535
v -0.379628129376 -0.954476049913 0.644720475256
v -0.376545843801 -0.957899814893 0.641136434859
v -0.369125679083 -0.957418351639 0.637552394463
v -0.360962959837 -0.956225163038 0.638639480851
v -0.353015719105 -0.955979747988 0.635738012371
v -0.343961635039 -0.956225201902 0.634253191957
v -0.335643787129 -0.955125528566 0.635599295924
v -0.328249177748 -0.95464572349 0.632027599103
v -0.323926238429 -0.950753945016 0.632027599103
v -0.321802564285 -0.944856061313 0.632958581892
v -0.321843314168 -0.937966921279 0.631097394822
v -0.321215138829 -0.930362715379 0.633869714722
v -0.320128991728 -0.923962482669 0.63345859264
v -0.320718398225 -0.916768099348 0.630882349051
v -0.320778581648 -0.908809989817 0.63277231789
v -0.320285920007 -0.902086870115 0.631588124448
v -0.318477008882 -0.89597647317 0.63209915519
v -0.317417246751 -0.888524880878 0.635437528346
v -0.316394738588 -0.882020915497 0.63493221183
v -0.316791934681 -0.874809982173 0.632589307354
v -0.316865997241 -0.866776057725 0.63446892239
v -0.318150246771 -0.859083860869 0.630976004915
v -0.318026246492 -0.852066723959 0.629296133683
v -0.316821501623 -0.844629582053 0.632834814292
v -0.316432722632 -0.837716267259 0.631494861872
v -0.313603419395 -0.83203374752 0.633307749431
v -0.31233320494 -0.824619411103 0.636933524549
v -0.293311418717 -0.829177254367 0.652085525673
v -0.285076876622 -0.828185430822 0.653315093614
v -0.276563269037 -0.828259998576 0.651113486534
v -0.265931824644 -0.828549944546 0.655537424797
v -0.258283925477 -0.828185787583 0.652245114606
v -0.252401506679 -0.833087324317 0.652367569817
v -0.2527620992 -0.839973838707 0.653799873731
v -0.249653472689 -0.849552760372 0.656003653044
v -0.251508628962 -0.855624157287 0.655450013887
v -0.252685081088 -0.862036313797 0.655792619396
v -0.25165991204 -0.870477956092 0.655239963232
v -0.252825908136 -0.876868646278 0.655592560249
v -0.253919949472 -0.883283609276 0.656037108071
v -0.252244032311 -0.891999385249 0.656348883212
v -0.254092736671 -0.898012614187 0.655791024219
v -0.252419940343 -0.906688437873 0.656102518443
v -0.253252045505 -0.913173982601 0.656885117504
v -0.254297601246 -0.919542830232 0.657381885919
v -0.252930120186 -0.928013030736 0.657293338795
v -0.254271446742 -0.934213076722 0.657395079267
v -0.255686975307 -0.940368135307 0.657396083441
v -0.25692147117 -0.947573979637 0.653872265582
v -0.257538719102 -0.951176901802 0.652110356653
v -0.254554030727 -0.954521918492 0.648525811594
v -0.249655912474 -0.955845497678 0.644649148686
v -0.244492081741 -0.95729216466 0.641124756296
v -0.237195408385 -0.956818714241 0.637600363905
v -0.229393117586 -0.955609452597 0.638564106606
v -0.221516984792 -0.955413063155 0.635839735885
v -0.212723303287 -0.95565312601 0.63437440255
v -0.204831698724 -0.954510777376 0.635520783443
v -0.197559285254 -0.954038901079 0.632008108907
v -0.194818237861 -0.948533638967 0.633764446175
v -0.194357056966 -0.94192238035 0.632380015934
v -0.194215419538 -0.934196864828 0.634395850257
v -0.194653824278 -0.927111501868 0.631768108261
v -0.194009602129 -0.920540233454 0.630626124168
v -0.193190958464 -0.913114175124 0.633579734423
v -0.194043308354 -0.905761273244 0.630371071359
v -0.193934115626 -0.898870227618 0.628481413145
v -0.193010413824 -0.891464726574 0.631585995553
v -0.191344285813 -0.885345393261 0.631841553399
v -0.190211352539 -0.878040261716 0.635236065754
v -0.189661894875 -0.871321686784 0.633948858893
v -0.189619836577 -0.864318124919 0.631955816259
v -0.189239168378 -0.856589267538 0.634316803932
v -0.19020934635 -0.849006715849 0.630921037318
v -0.190727048569 -0.841639916859 0.628142501301
v -0.189476500424 -0.834340374162 0.63171213974
v -0.186691002354 -0.828745835 0.63349695896
v -0.181908192128 -0.82425464633 0.638045774858
v -0.164171756901 -0.828674412677 0.652777441628
v -0.155026762554 -0.828367878598 0.655655833167
v -0.147514881655 -0.82799993928 0.652387450073
v -0.140175004931 -0.827536062245 0.648879478622
v -0.12958245403 -0.828913286595 0.64998320408
v -0.122082267886 -0.837925791049 0.655829847718
v -0.122395383028 -0.844796162309 0.657521399281
v -0.119970860466 -0.85400467846 0.659200386092
v -0.12204993634 -0.85985771157 0.658378231534
v -0.124613369951 -0.865440621733 0.656867782599
v -0.124803671283 -0.873165588021 0.654836165897
v -0.126757610755 -0.879070743194 0.654188270174
v -0.124923581211 -0.887860923954 0.655029946338
v -0.125967756544 -0.894227363335 0.655666840734
v -0.127211691178 -0.900475578209 0.656016846121
v -0.124712406442 -0.909548980429 0.657803213334
v -0.126157984013 -0.915660482084 0.657861246949
v -0.12802995969 -0.921542818772 0.657312999504
v -0.126908861582 -0.929842955691 0.657148696514
v -0.128159555789 -0.936020914299 0.657475446082
v -0.126695619668 -0.944457761132 0.657799741273
v -0.129397770935 -0.949884902243 0.656068326856
v -0.12641972767 -0.953192876144 0.652605498022
v -0.126307560126 -0.955078647712 0.645064276864
v -0.123463357915 -0.958323292494 0.641397978008
v -0.117773572674 -0.956200547182 0.639663640189
v -0.110592251665 -0.955734581491 0.63619496455
v -0.101181654438 -0.956389058184 0.635955658201
v -0.0929238499119 -0.955570637077 0.637968687713
v -0.0854877975765 -0.955245270183 0.634910709224
v -0.076599366743 -0.9556621367 0.63399257285
v -0.0709316900816 -0.953547639659 0.63226497408
v -0.0667497535841 -0.949782800681 0.63226497408
v -0.0671826315653 -0.941861183782 0.633290101312
v -0.0668180298075 -0.935215590168 0.631564644377
v -0.0674244897277 -0.927170372424 0.632336309623
v -0.0666123827278 -0.920727130845 0.631267055026
v -0.0658648540959 -0.913378068479 0.63404482945
v -0.0646138471258 -0.907147084267 0.633621696365
v -0.0640962172184 -0.899659712403 0.636060978835
v -0.0647884296499 -0.892337913322 0.632756349929
v -0.0650946358303 -0.885202593709 0.63001490132
v -0.0640717092928 -0.877956529191 0.633208531046
v -0.0645113784609 -0.870706899469 0.630263808255
v -0.0633555972727 -0.863519208027 0.633657518103
v -0.063895620715 -0.856171617935 0.630558501409
v -0.0641895307923 -0.848938916501 0.627816076583
v -0.0639438476319 -0.841192915453 0.629865750465
v -0.0612042713972 -0.83569060809 0.631621145083
v -0.0599743398397 -0.828511405952 0.635131934318
v -0.0602930121084 -0.821194514437 0.632345126694
v -0.0550058060557 -0.818754637024 0.629867899768
v -0.0538203697619 -0.814626668813 0.617204496161
l 228 229 230 231 232 233 234 235 236 237 238 239 240 241 242 243 244 245 246 247 248 249 250 251 252 253 254 255 256 257 258 259 260 261 262 263 264 265 266 267 268 269 270 271 272 273 274 275 276 277 278 279 280 281 282 283 284 285 286 287 288 289 290 291 292 293 294 295 296 297 298 299 300 301 302 303 304 305 306 307 308 309 310 311 312 313 314 315 316 317 318 319 320 321 322 323 324 325 326 327 328 329 330 331 332 333 334 335 336 337 338 339 340 341 342 343 344 345 346 347 348 349 350 351 352 353 354 355 356 357 358 359 360 361 362 363 364 365 366 367 368 369 370 371 372 373 374 375 376 377 378 379 380 381 382 383 384 385 386 387 388 389 390 391 392 393 394 395 396 397 398 399 400 401 402 403 404 405 406 407 408 409 410 411 412 413 414 415 416 417 418 419 420 421 422 423 424 425 426 427 428 429 430 431 432 433 434 435 436 437 438 439 440 441 442 443 444 445 446 447 448 449 450 451 452 453 454 455 456 457 458 459 460 461 462 463 464 465 466 467 468 469 470 471 472 473 474 475 476 477 478 479 480 481 482 483 484 485 486 487
o curve_8
v -0.628313795986 -0.476617786671 -0.250889791995
v -0.631996409221 -0.484014138582 -0.253249441407
v -0.633649716829 -0.493664618272 -0.257968740232
v -0.636122609206 -0.501767012444 -0.258512878659
v -0.634320426023 -0.513412679547 -0.258041736463
v -0.636030436625 -0.52192368501 -0.257448197725
v -0.634256535456 -0.533497984566 -0.257015639636
v -0.634444768738 -0.543930884768 -0.259524162802
v -0.637676342455 -0.551533116062 -0.261222697311
v -0.639321059356 -0.561133451159 -0.265917474316
v -0.635283536941 -0.565618281496 -0.270612251321
v -0.629145514683 -0.571268909943 -0.272132521662
v -0.630788721251 -0.580860429115 -0.276822987484
v -0.629548582786 -0.592025766783 -0.27715026348
v -0.632197084255 -0.599913213538 -0.277970111219
v -0.631563068882 -0.61071021954 -0.279211832496
v -0.630964972068 -0.621467338689 -0.280503557436
v -0.633943102661 -0.629144947094 -0.281829066365
v -0.631857609913 -0.640649061243 -0.280868037003
v -0.63361603548 -0.648937532862 -0.28035578348
v -0.629702970437 -0.661326477436 -0.276626038599
v -0.630159621275 -0.671432531131 -0.279500848117
v -0.633653140168 -0.678782504293 -0.281623790832
v -0.634225482028 -0.688814581585 -0.284672948538
v -0.637204912181 -0.696414986757 -0.286020255437
v -0.635403221843 -0.707603266783 -0.28547631957
v -0.637104477909 -0.715808541706 -0.28489737223
v -0.634952056277 -0.727114329919 -0.283819304487
v -0.634496415315 -0.737570039292 -0.285302203865
v -0.636672118065 -0.745493860615 -0.285450347509
v -0.625091121958 -0.758661253626 -0.259549960104
v -0.630273712862 -0.762566089044 -0.253749601191
v -0.632132881421 -0.770542262453 -0.25346649971
v -0.628312184037 -0.782407632648 -0.249894796142
v -0.629765771931 -0.790528332176 -0.249013250368
v -0.626642784353 -0.801998701124 -0.246484336747
v -0.629596640038 -0.809399741767 -0.247863743356
v -0.627244454798 -0.820464003504 -0.24648889895
v -0.625547752255 -0.831204037779 -0.246091337528
v -0.628850233577 -0.838415099226 -0.248004135018
v -0.628461029742 -0.848545734085 -0.249568264018
v -0.63177063152 -0.855743455924 -0.251494784488
v -0.629286823921 -0.866740103751 -0.249912582358
v -0.627623305273 -0.877355799759 -0.249555177719
v -0.630736336767 -0.88460455343 -0.251196521072
v -0.630290797088 -0.894674840845 -0.252666415478
v -0.633010707124 -0.902072222323 -0.253721182928
v -0.633581308545 -0.911702239885 -0.256715113562
v -0.636832790073 -0.918873058561 -0.258570111974
v -0.635454447008 -0.929263769966 -0.258637372235
v -0.633076116413 -0.940022097224 -0.257196957079
v -0.636358419563 -0.947151291693 -0.259107529391
v -0.635156692182 -0.957407291649 -0.259431790209
v -0.638341849787 -0.964560805606 -0.261200624229
v -0.635695227975 -0.975326571334 -0.259353702563
v -0.634334120059 -0.985577140497 -0.259430251544
v -0.637357959933 -0.992759322912 -0.260966561479
v -0.638924580452 -1.00190380361 -0.265438415561
v -0.640491200972 -1.0110482843 -0.269910269643
v -0.632013625374 -1.01357900353 -0.27147621554
v -0.630874989814 -1.02028154167 -0.275944309594
v -0.632440293087 -1.0294183335 -0.280412403649
v -0.629627163615 -1.04008666026 -0.27825299849
v -0.632696441137 -1.04721809028 -0.279861735335
v -0.632478365452 -1.05694455472 -0.281626727911
v -0.634793571956 -1.06432017351 -0.282098426093
v -0.633678850788 -1.07432011668 -0.28250497023
v -0.633358791217 -1.0840353518 -0.284109560945
v -0.634698905302 -1.09169524213 -0.283113452847
v -0.632400293838 -1.10201691173 -0.281720920169
v -0.635295591557 -1.10914359833 -0.283085045543
v -0.634864258899 -1.11882972722 -0.284515150098
v -0.638179770877 -1.12581244269 -0.286518057712
v -0.63973081973 -1.13486603041 -0.290945463111
v -0.635923237704 -1.13909544578 -0.29537286851
v -0.633316857418 -1.13972647776 -0.305711167466
v -0.632503998243 -1.13980852476 -0.318841383695
v -0.627431320964 -1.14119261328 -0.325501096765
v -0.618220867264 -1.14059498571 -0.329949871069
v -0.609010413564 -1.13999735814 -0.334398645373
v -0.596546229034 -1.14040966489 -0.3337698353
v -0.584504332872 -1.14070025812 -0.333749045449
v -0.573462081107 -1.14068630553 -0.33525700505
v -0.562241740241 -1.1407342669 -0.336450911053
v -0.550630965074 -1.14091229041 -0.336987203972
v -0.539572132261 -1.14092244239 -0.338366053903
v -0.52878414622 -1.14085206444 -0.340148300652
v -0.516034234977 -1.13992218705 -0.333448902633
v -0.503971229619 -1.14028269074 -0.33306840243
v -0.492239268317 -1.14054515536 -0.333176930031
v -0.480670125214 -1.14076307589 -0.333506025634
v -0.468753327595 -1.14110355564 -0.333215133129
v -0.458486875463 -1.1409082794 -0.335617387083
v -0.448302087413 -1.14068993727 -0.338134201845
v -0.438139655036 -1.14046796076 -0.340667827156
v -0.427886038372 -1.14028038471 -0.343026595257
v -0.416703563704 -1.14041030306 -0.343782952428
v -0.403040617924 -1.1399434509 -0.334874916192
v -0.391611114158 -1.14018211005 -0.335088720565
v -0.380762635065 -1.14022992847 -0.336259112292
v -0.370665918481 -1.14002492932 -0.338699115139
v -0.360844804324 -1.13972830829 -0.341598812508
v -0.351209283797 -1.13936999379 -0.344808042376
v -0.340481082939 -1.13939729082 -0.34607368241
v -0.329797470567 -1.13941540296 -0.347383171362
v -0.317950188672 -1.13985246828 -0.34657792477
v -0.302252640823 -1.14027512441 -0.333307399145
v -0.289909801916 -1.14092534824 -0.33143640049
v -0.278578044678 -1.1412239275 -0.331329269319
v -0.267650659585 -1.14138528766 -0.331909131628
v -0.25747256871 -1.14128127948 -0.333821916791
v -0.247283050124 -1.14118665113 -0.335685588676
v -0.237077378653 -1.1411032882 -0.337490596609
v -0.226203304517 -1.14127335046 -0.338016408419
v -0.215571482413 -1.14136131562 -0.338953200569
v -0.204343152224 -1.14168044444 -0.338721414503
v -0.192723049992 -1.14081450241 -0.332076607294
v -0.181754138908 -1.14106163894 -0.332214040728
v -0.171457325518 -1.14106110885 -0.333594520521
v -0.161749751311 -1.14084053623 -0.336080456654
v -0.152293862627 -1.14052664611 -0.339034963804
v -0.14245954781 -1.14036280826 -0.341232504419
v -0.133166140512 -1.13999212595 -0.344470934356
v -0.122793726048 -1.14004806244 -0.345557619946
v -0.111044066017 -1.14065596361 -0.343857838463
v -0.0964771189305 -1.14110691693 -0.330687462942
v -0.0854387559684 -1.14147013961 -0.330226268547
v -0.0755780794328 -1.1413693503 -0.332096425257
v -0.0658584300482 -1.14121680861 -0.334225298772
v -0.0562457647084 -1.14102547546 -0.336547923645
v -0.0467058045371 -1.14080871822 -0.338997185333
v -0.0367569238457 -1.14076489767 -0.340573510919
v -0.0268569380383 -1.14070697613 -0.342218917844
v -0.0145848779142 -1.14040123966 -0.332959758514
v -0.00432830597676 -1.14051707527 -0.333732916921
v 0.00489868897609 -1.14020498388 -0.336656052896
v 0.0144316135829 -1.14002627584 -0.338907013086
v 0.0240594864282 -1.13989292561 -0.340928161967
v 0.033622782859 -1.13973694196 -0.343061650366
v 0.0438498595503 -1.13987400993 -0.343717190037
v 0.0542495281795 -1.14009504814 -0.343946850944
v 0.0646468293072 -1.14032472132 -0.344129985217
v 0.0769737339592 -1.14022796567 -0.333922327098
v 0.0872911887985 -1.14045350191 -0.334130593157
v 0.097421541448 -1.14060494474 -0.334708583522
v 0.107335062393 -1.14066745132 -0.335731424159
v 0.117338381095 -1.14077856444 -0.336507211987
v 0.127278459063 -1.14086924914 -0.337383342578
v 0.137412663741 -1.14105747404 -0.337765610355
v 0.147468208018 -1.1412188209 -0.338280522971
v 0.158767405209 -1.14083316574 -0.329640002214
v 0.168758492457 -1.14099314015 -0.330165851916
v 0.178859497157 -1.14121433865 -0.330381132504
v 0.188705489031 -1.14132428486 -0.331153140194
v 0.198246341073 -1.14129674664 -0.332614523881
v 0.20774443687 -1.14125548719 -0.334143013258
v 0.217312227379 -1.14125479727 -0.335465274195
v 0.226844709462 -1.14124416797 -0.336835547484
v 0.236551988973 -1.14132673322 -0.337734107508
v 0.246243309167 -1.14140989682 -0.338627284805
v 0.255869287673 -1.14040161074 -0.33322731229
v 0.265482203041 -1.14046930546 -0.334202561061
v 0.275112243935 -1.14055406014 -0.335089687633
v 0.284529036556 -1.14053879001 -0.336477823452
v 0.293683928576 -1.14039642796 -0.338503800316
v 0.302788596303 -1.14023369362 -0.340630876282
v 0.311927256359 -1.1400939726 -0.342640589908
v 0.321307559669 -1.14008656089 -0.343981973497
v 0.330636981914 -1.14005986763 -0.345418578836
v 0.341253451494 -1.13972344297 -0.336722739548
v 0.351096004896 -1.1399988809 -0.336641747163
v 0.360907765428 -1.14026941052 -0.336582412823
v 0.37067541066 -1.1405276528 -0.336581905965
v 0.380854186586 -1.14102269662 -0.335386297773
v 0.390789081928 -1.14139826955 -0.33478854441
v 0.400491738279 -1.14165817257 -0.334770167728
v 0.409911575689 -1.14177148504 -0.335487653461
v 0.418972797906 -1.14169214883 -0.337174032752
v 0.42789624776 -1.14061399718 -0.332330632547
v 0.436432053923 -1.14025453395 -0.335428253225
v 0.444929989307 -1.13987583258 -0.338622012424
v 0.453381530106 -1.13947248604 -0.341939229067
v 0.462037737248 -1.13919118968 -0.344641515244
v 0.471102487577 -1.13915526911 -0.346107102137
v 0.480617350988 -1.13939518167 -0.346181197382
v 0.49014645302 -1.13965569796 -0.346148624488
v 0.499922216479 -1.1392191103 -0.338143902862
v 0.509031767905 -1.13925892337 -0.339225852126
v 0.518361467267 -1.13944326384 -0.339578889065
v 0.527447990771 -1.1394881703 -0.340630786083
v 0.536720728595 -1.13965874931 -0.341048124657
v 0.545873671611 -1.1397651365 -0.341786088531
v 0.55468089399 -1.13966216496 -0.343576134434
v 0.563436620961 -1.13953317077 -0.345495742655
v 0.572016045984 -1.13851368371 -0.340509631689
v 0.580549398629 -1.13826156059 -0.343049815119
v 0.589704612614 -1.13842290482 -0.343510385996
v 0.598675187516 -1.13847338935 -0.344525991302
v 0.607653178691 -1.13853859189 -0.34546546868
v 0.616450381295 -1.13849194785 -0.346965705584
v 0.623180770992 -1.13632507272 -0.347802166558
v 0.629582648527 -1.13393665999 -0.349753561532
v 0.630949909333 -1.1259558568 -0.345850771583
v 0.631587659276 -1.11746085288 -0.344458655505
v 0.630749174579 -1.10789963725 -0.348149431394
v 0.630794970711 -1.09893849291 -0.348798963334
v 0.631007423582 -1.09007588969 -0.348876630646
v 0.631561266366 -1.08144544349 -0.347780135974
v 0.631986628358 -1.07270427348 -0.347127628523
v 0.631885848363 -1.06354759652 -0.348289891053
v 0.631777308405 -1.0543586978 -0.349481261109
v 0.63215331767 -1.04551905024 -0.349004321422
v 0.633535564499 -1.03745077252 -0.345058754485
v 0.634529739589 -1.02907459768 -0.342451853477
v 0.633248443959 -1.0229337351 -0.339452919057
v 0.634371634459 -1.01465033143 -0.336399830976
v 0.635755130968 -1.00657475922 -0.332450696878
v 0.636149077472 -0.997682373997 -0.331910239596
v 0.636043468264 -0.988355184653 -0.333092577615
v 0.635651888928 -0.978759682614 -0.335262847389
v 0.635429739032 -0.969276257018 -0.336851948746
v 0.635477571188 -0.959996075124 -0.337512787243
v 0.636769542814 -0.951774900783 -0.333885132392
v 0.634281444963 -0.944516626897 -0.334981773211
v 0.63566225764 -0.936358187116 -0.331048914833
v 0.63605731202 -0.927317871235 -0.330510037124
v 0.636434344795 -0.918242802866 -0.330034836909
v 0.636857347126 -0.909190818523 -0.32940294017
v 0.637046867817 -0.899905435466 -0.329577068215
v 0.636870953956 -0.890257156942 -0.331012537943
v 0.636687806343 -0.88057263586 -0.332475516497
v 0.636243494352 -0.870610285859 -0.334841551221
v 0.636758440371 -0.861533616138 -0.333902440788
v 0.635018517719 -0.854809328989 -0.332338774831
v 0.635612696092 -0.845781860349 -0.331122353511
v 0.635879916483 -0.836417500311 -0.331032946096
v 0.635973578998 -0.826859192863 -0.331543091462
v 0.636067125777 -0.817275737283 -0.332055795208
v 0.636293094002 -0.807801118971 -0.332114428286
v 0.636352550238 -0.798133727974 -0.332748852215
v 0.636409493055 -0.78843774794 -0.333394182981
v 0.637066940593 -0.779340399349 -0.331971328501
v 0.637616828426 -0.770115394544 -0.330920680895
v 0.635940217411 -0.763340107817 -0.329058137997
v 0.636307630767 -0.753893517081 -0.328630982145
v 0.637416272385 -0.745222753796 -0.325653654971
v 0.637235193231 -0.735147786802 -0.32711819037
v 0.636709548861 -0.724664685961 -0.329772233353
v 0.636196880309 -0.714157769781 -0.332384817025
v 0.635759880486 -0.703697049695 -0.334739874599
v 0.635323768942 -0.693200609295 -0.337094996066
v 0.636746252069 -0.684772870547 -0.333045183246
v 0.636896647662 -0.674891115805 -0.333382378078
v 0.635727769677 -0.668578190041 -0.329677828844
v 0.636287492252 -0.659137234973 -0.328598627293
v 0.637391381516 -0.650314046861 -0.325647478515
v 0.637410181922 -0.640206561198 -0.326433467682
v 0.636982060318 -0.629540005889 -0.328761221901
v 0.63633728644 -0.618576561569 -0.331838543085
v 0.636120490483 -0.60808785103 -0.33344454406
v 0.636306890389 -0.598056436739 -0.33366357741
v 0.636591047807 -0.588119447725 -0.333547712732
v 0.637221255514 -0.578587032001 -0.332240442098
v 0.635362282608 -0.571349200376 -0.33082143816
v 0.635500090286 -0.561171126756 -0.33120462021
v 0.634472966436 -0.549495130352 -0.335600463291
v 0.63418858961 -0.538713855813 -0.337442878069
v 0.634523402532 -0.528691326195 -0.337155566336
v 0.634720824159 -0.518467843217 -0.337343517543
v 0.634686576291 -0.50791615284 -0.338331976628
v 0.634036642579 -0.496524355396 -0.341445206435
v 0.63450687105 -0.486572154763 -0.340700048231
v 0.635235566666 -0.476944063101 -0.33906527051
v 0.633071405149 -0.469152589455 -0.338587189089
v 0.63392942161 -0.459668566495 -0.336503711757
v 0.634483800712 -0.449758482206 -0.335466579802
v 0.634744225352 -0.439426023148 -0.335443234534
v 0.635120072334 -0.429227345377 -0.335024442035
v 0.635591603276 -0.419138507309 -0.33427791467
v 0.636017027486 -0.408963584511 -0.333692020335
v 0.636466311511 -0.398799882835 -0.333025722895
v 0.636869224191 -0.388548079877 -0.332521104775
v 0.637273356201 -0.3782748557 -0.332014174855
v 0.638397407214 -0.369018640338 -0.329025820259
v 0.636452805328 -0.361375590331 -0.327709867563
v 0.637003974942 -0.351263873995 -0.326692090724
v 0.636951565148 -0.340243916743 -0.327754258529
v 0.636905325589 -0.329199725031 -0.328797864357
v 0.636507716063 -0.317597645885 -0.331054646499
v 0.636211209974 -0.306106427155 -0.332966350257
v 0.635557589545 -0.294035251457 -0.336112107281
v 0.635518007996 -0.282853578082 -0.337144654126
v 0.636650729158 -0.273438955928 -0.334137183119
v 0.634500511763 -0.26534164888 -0.333427492692
v 0.63537929771 -0.255511332321 -0.331292484765
v 0.635957519614 -0.245197288637 -0.330193232469
v 0.635929950536 -0.233909120551 -0.331181493674
v 0.635926905449 -0.222625664134 -0.332088005495
v 0.636349258695 -0.211987394155 -0.331531711751
v 0.636694903135 -0.201201384102 -0.331241688909
v 0.636939696508 -0.190225887209 -0.331301361943
v 0.636968789315 -0.178870252271 -0.332106968565
v 0.638374296849 -0.169739315591 -0.328168640701
v 0.636032544276 -0.161167219356 -0.328030868073
v 0.637187533366 -0.151604077942 -0.324954967444
v 0.636972708336 -0.139747728964 -0.326594964159
v 0.636549710225 -0.127502269513 -0.328954824514
v 0.636201954911 -0.115339564699 -0.331059028515
v 0.636028704738 -0.103430923187 -0.332565440869
v 0.635640649037 -0.0911150932321 -0.334815096816
v 0.635428495373 -0.0790584193748 -0.336461936275
v 0.635605522396 -0.0676370842025 -0.33677020043
v 0.637092182125 -0.0584731705709 -0.332564667573
v 0.634624020815 -0.0494841894135 -0.332748013418
v 0.635724591668 -0.0396219633511 -0.32987189344
v 0.634989263121 -0.026489484375 -0.333316001724
v 0.634245074963 -0.0132879519842 -0.336794722393
v 0.634355938143 -0.00157086403411 -0.337332844596
v 0.634816238677 0.00954746314288 -0.336669829648
v 0.635068545816 0.0210706844641 -0.336725503898
v 0.634739047668 0.0336918542197 -0.33878884325
v 0.634122853748 0.0468869887661 -0.341844040371
v 0.634992270684 0.0573740633118 -0.339780136665
v 0.635387570616 0.068764246182 -0.339352939761
v 0.633683696148 0.0765563868737 -0.336774289716
v 0.634213067831 0.0877337473492 -0.3358785087
v 0.635336557166 0.0978085264551 -0.332939119715
v 0.635432250051 0.109857210412 -0.33354013786
v 0.635447270589 0.122096594946 -0.334421765844
v 0.635753348611 0.13381084019 -0.334303375136
v 0.635423883595 0.146792810252 -0.336377800008
v 0.635285258601 0.159447539153 -0.33779783405
v 0.635417301278 0.171610985379 -0.338287681919
v 0.636151620086 0.182615986651 -0.336702760608
v 0.63727305224 0.192869800394 -0.333783778301
v 0.635121012026 0.201684113112 -0.33264134416
v 0.636094649426 0.212261123051 -0.330229007505
v 0.635360705222 0.226309409351 -0.333698331868
v 0.635239714705 0.239167210158 -0.335060539972
v 0.635523546658 0.251238388388 -0.335031084864
v 0.635728711777 0.263504541497 -0.335275220911
v 0.635834745736 0.276011201595 -0.335863730935
v 0.636585307571 0.287210959733 -0.334232453788
v 0.637906563243 0.297234673091 -0.330634264195
v 0.635869462486 0.305957876438 -0.32900219966
v 0.637191630465 0.31599913321 -0.325399742588
v 0.636917876195 0.329444124862 -0.32729217729
v 0.636661390961 0.342899977721 -0.329128675638
v 0.636545173352 0.356101382903 -0.330485523184
v 0.63641375777 0.369379984187 -0.331898006058
v 0.6361308942 0.383033471346 -0.333835768656
v 0.635429470098 0.397653362795 -0.337220113672
v 0.63513398075 0.411438256246 -0.339209064252
v 0.63526972811 0.424316610231 -0.33971420543
v 0.636620377671 0.434523872517 -0.336030430858
v 0.63416700519 0.444360702816 -0.335691831433
v 0.634677575355 0.456481419685 -0.334899400457
v 0.634491046372 0.47020763922 -0.336509632352
v 0.634693571854 0.483096983761 -0.336783230459
v 0.635236467188 0.495245728693 -0.335886840852
v 0.635871615729 0.507211346421 -0.334674620627
v 0.636173648451 0.519974372801 -0.334612734229
v 0.63623325875 0.533337156687 -0.335389409203
v 0.636396426652 0.546499968196 -0.335811959753
v 0.637532308069 0.557413547522 -0.332881247169
v 0.635615433719 0.566193076272 -0.330585684185
v 0.636726585158 0.577190930606 -0.327737220404
v 0.637292414764 0.589503662439 -0.326767623499
v 0.637665769849 0.602307345725 -0.326463107909
v 0.637482970167 0.61648678788 -0.328077273834
v 0.63652125646 0.632604852706 -0.332379466917
v 0.636276317999 0.647046691562 -0.334215792722
v 0.636200892163 0.661125167254 -0.335471325343
v 0.635890002117 0.675832063568 -0.337542479732
v 0.636776703899 0.687624434055 -0.335485491047
v 0.633959561554 0.698788171923 -0.336159883728
v 0.634590098494 0.711267239155 -0.334980770916
v 0.634489656409 0.725610816019 -0.336320762883
v 0.634877667765 0.738770699165 -0.33598183187
v 0.635170936244 0.752207279926 -0.335971876193
v 0.634841972564 0.767271122978 -0.338109092492
v 0.634334183828 0.782850515238 -0.340866768883
v 0.634155060661 0.797643675316 -0.342495471094
v 0.6347302362 0.810532695292 -0.341526104562
v 0.636271501206 0.820933390876 -0.33722569258
v 0.634312257288 0.830119287014 -0.334818086321
v 0.635972428133 0.840223156483 -0.330107903884
v 0.636534765859 0.853227851783 -0.329177983229
v 0.635835804002 0.869614369328 -0.33259461008
v 0.635037374584 0.886335346615 -0.336358717307
v 0.634028868602 0.903692283016 -0.340851815668
v 0.633037659621 0.92108108348 -0.345290741208
v 0.633365332707 0.93497046579 -0.345187240598
v 0.634302138535 0.947239173444 -0.342985487112
v 0.635612781033 0.958505979777 -0.339495490476
v 0.636899758794 0.969850318903 -0.33608802265
v 0.634582535318 0.980188981436 -0.334774669241
v 0.636251132668 0.990504589335 -0.330051095057
v 0.635902751757 1.00644872339 -0.332274529651
v 0.635677348915 1.02210938116 -0.334078476559
v 0.636129111275 1.03591910942 -0.333552735705
v 0.636512325737 1.04996138493 -0.333265912598
v 0.636146256063 1.06617876354 -0.335565577146
v 0.636141831275 1.08142359029 -0.336622145793
v 0.637027621397 1.09415831631 -0.334610807933
v 0.635041806839 1.10371773314 -0.332040705337
v 0.635351512482 1.11816169582 -0.332006758776
v 0.636537140783 1.13009806079 -0.328959865314
v 0.635256974022 1.13763371737 -0.323936391872
v 0.63397680726 1.14516937395 -0.318912918431
v 0.634664946205 1.14695016485 -0.307166803573
v 0.632939766828 1.14419652831 -0.293367988539
v 0.628638746263 1.14897404916 -0.288366819414
v 0.620517842079 1.14567511734 -0.285589420507
v 0.612231574629 1.14285286089 -0.283365650289
v 0.601448090617 1.14339547123 -0.279773692349
v 0.592844255987 1.14144639912 -0.278563711343
v 0.583224421921 1.14230172822 -0.280610656426
v 0.573915925982 1.14223164469 -0.281585569906
v 0.571726669001 1.13315661551 -0.287983701654
v 0.559023600343 1.145725525 -0.309074518452
v 0.550030062237 1.1445541467 -0.308794021125
v 0.539461883483 1.14416374067 -0.30407838439
v 0.530624449557 1.14252586554 -0.303251509443
v 0.519669431549 1.14642759387 -0.308901225886
v 0.510712383127 1.14500724973 -0.3083328678
v 0.499368029519 1.14651384254 -0.305817704885
v 0.490585210548 1.1445865354 -0.304656706252
v 0.482212374977 1.14159892771 -0.302257484845
v 0.473325402699 1.13990451385 -0.301370072557
v 0.463876453356 1.1395916798 -0.302099249621
v 0.45260737959 1.14374600686 -0.308055809155
v 0.440918696647 1.14585968222 -0.306229245452
v 0.432073541106 1.14390526641 -0.305042750469
v 0.423703871994 1.14078270992 -0.302491541054
v 0.415165887048 1.1380640212 -0.300412608298
v 0.406031069742 1.1367600699 -0.299988869495
v 0.390959660778 1.14669534916 -0.307291501325
v 0.381926189038 1.14502947835 -0.306447430052
v 0.3730244241 1.14303510074 -0.305220406906
v 0.364036843732 1.14122141155 -0.304205531961
v 0.355552259564 1.13823612876 -0.301821123698
v 0.343053014758 1.14180478977 -0.301664408668
v 0.332160428925 1.14421115854 -0.305582735873
v 0.322232512786 1.14437751733 -0.306886440127
v 0.313266426076 1.14235929742 -0.305637855355
v 0.301148309676 1.14484549072 -0.304194615973
v 0.29198208537 1.14321615227 -0.303400758021
v 0.283399750761 1.14029722314 -0.301100845093
v 0.273798711122 1.1395703058 -0.30136382065
v 0.262430849677 1.14258914977 -0.306009235513
v 0.248878554919 1.14789850377 -0.307843766438
v 0.240365118324 1.14472231049 -0.305248734388
v 0.231590419642 1.14209296115 -0.303292837239
v 0.22263705179 1.13982730682 -0.301762562735
v 0.213782760763 1.13734446725 -0.299978970529
v 0.198908710454 1.14508760625 -0.304644494888
v 0.190364956878 1.14190010232 -0.302040221736
v 0.181821203303 1.13871259838 -0.299435948583
l 488 489 490 491 492 493 494 495 496 497 498 499 500 501 502 503 504 505 506 507 508 509 510 511 512 513 514 515 516 517 518 519 520 521 522 523 524 525 526 527 528 529 530 531 532 533 534 535 536 537 538 539 540 541 542 543 544 545 546 547 548 549 550 551 552 553 554 555 556 557 558 559 560 561 562 563 564 565 566 567 568 569 570 571 572 573 574 575 576 577 578 579 580 581 582 583 584 585 586 587 588 589 590 591 592 593 594 595 596 597 598 599 600 601 602 603 604 605 606 607 608 609 610 611 612 613 614 615 616 617 618 619 620 621 622 623 624 625 626 627 628 629 630 631 632 633 634 635 636 637 638 639 640 641 642 643 644 645 646 647 648 649 650 651 652 653 654 655 656 657 658 659 660 661 662 663 664 665 666 667 668 669 670 671 672 673 674 675 676 677 678 679 680 681 682 683 684 685 686 687 688 689 690 691 692 693 694 695 696 697 698 699 700 701 702 703 704 705 706 707 708 709 710 711 712 713 714 715 716 717 718 719 720 721 722 723 724 725 726 727 728 729 730 731 732 733 734 735 736 737 738 739 740 741 742 743 744 745 746 747 748 749 750 751 752 753 754 755 756 757 758 759 760 761 762 763 764 765 766 767 768 769 770 771 772 773 774 775 776 777 778 779 780 781 782 783 784 785 786 787 788 789 790 791 792 793 794 795 796 797 798 799 800 801 802 803 804 805 806 807 808 809 810 811 812 813 814 815 816 817 818 819 820 821 822 823 824 825 826 827 828 829 830 831 832 833 834 835 836 837 838 839 840 841 842 843 844 845 846 847 848 849 850 851 852 853 854 855 856 857 858 859 860 861 862 863 864 865 866 867 868 869 870 871 872 873 874 875 876 877 878 879 880 881 882 883 884 885 886 887 888 889 890 891 892 893 894 895 896 897 898 899 900 901 902 903 904 905 906 907 908 909 910 911 912 913 914 915 916 917 918 919 920 921 922 923 924 925 926 927 928 929 930 931 932 933 934 935 936 937 938 939 940 941 942 943 944 945 946
o curve_9
v 0.295311521662 0.922696566273 -0.0306376715891
v 0.301588752529 0.927019892707 -0.02956796954
v 0.307867745354 0.929377696412 -0.021166089099
v 0.315498905274 0.928886038508 -0.00952120616643
v 0.321573872046 0.929555231581 0.00573204203104
v 0.324550921281 0.936595923443 0.0136096997133
v 0.325557901566 0.9411128952 0.0164024310793
v 0.329900229007 0.945252557436 0.0275249897515
v 0.332398877528 0.944584847521 0.0410884337751
v 0.333331879723 0.947189904919 0.0509037585776
v 0.333164054229 0.952103137822 0.058095457898
v 0.331921956544 0.950664260495 0.0694778901283
v 0.329889626399 0.950905323947 0.0789508311126
v 0.327932681078 0.9510002975 0.0885559693813
v 0.325877237352 0.951314561315 0.0978882127801
v 0.323109212381 0.953133640906 0.105534026248
v 0.318862305895 0.949564472711 0.11627324409
v 0.315688380447 0.952256067234 0.122919317996
v 0.310486021651 0.950732214828 0.131372692327
v 0.306547008637 0.95502568741 0.136244776439
v 0.300726252148 0.95481244845 0.143244179447
v 0.294767867482 0.954900266797 0.14990664849
v 0.28862023951 0.955390695579 0.156124457513
v 0.282328456817 0.956186754941 0.162005281669
v 0.273678857576 0.953508257086 0.168886262787
v 0.266964477051 0.955180751052 0.173811908904
v 0.257373910566 0.954421438803 0.178619009449
v 0.250702091041 0.956013572293 0.183629003494
v 0.241230151146 0.955024649729 0.188680849754
v 0.23139122639 0.954760571574 0.192956413549
v 0.223576000091 0.952228434663 0.19494385951
v 0.214929648168 0.949646774071 0.201696845471
v 0.212450931773 0.936857620973 0.214645942057
l 947 948 949 950 951 952 953 954 955 956 957 958 959 960 961 962 963 964 965 966 967 968 969 970 971 972 973 974 975 976 977 978 979
o curve_10
v 0.250825950127 0.852223498987 0.311561093151
v 0.252825190322 0.860611238292 0.316924022837
v 0.252501649444 0.865773268504 0.323098014713
v 0.252700007529 0.869922387218 0.330324328632
v 0.251418272138 0.869235991723 0.340036580319
v 0.252229687199 0.872186991549 0.348462814443
v 0.248756189511 0.875736971324 0.353696631895
v 0.242694450797 0.870543717282 0.358491032085
v 0.236142674035 0.872379222667 0.362962718582
v 0.230920400649 0.879277095542 0.364713557291
v 0.224362289494 0.881114375532 0.369189567108
v 0.217020140141 0.87837516615 0.371427572016
v 0.21098592634 0.874656415721 0.370227732445
v 0.203640642224 0.871916036821 0.372466692879
v 0.198289867296 0.866908728994 0.372599637772
v 0.192498084272 0.867324813589 0.378549745478
v 0.190897353821 0.867446651596 0.387312380616
v 0.192491504057 0.869092170997 0.396980331934
v 0.191527461511 0.868043884215 0.406881079035
v 0.191200075609 0.86583087202 0.417937141469
v 0.192482432183 0.868026741962 0.426921397059
v 0.191844016193 0.866395682023 0.437304322668
v 0.192001530651 0.87065350113 0.444130631086
v 0.190615988991 0.870408789782 0.453048393629
v 0.191205829412 0.866524216725 0.465590852928
v 0.192280966134 0.869060028443 0.474052825322
v 0.192197561631 0.866427261386 0.485250817985
v 0.191872943701 0.871534046476 0.49108818011
v 0.190982636529 0.870397940266 0.500730487016
v 0.191503068464 0.866666020385 0.512899274164
v 0.191736057985 0.870717002945 0.51969996833
v 0.191479316161 0.86842761653 0.530368005486
v 0.191244567408 0.866110708014 0.541022924808
v 0.190874036422 0.871253822238 0.546676129545
v 0.190562419313 0.869082836527 0.557120186158
v 0.191330002149 0.872105596012 0.564780151219
v 0.190809197844 0.87032740383 0.574772573368
v 0.189829423257 0.869409046374 0.583904547656
v 0.190551743523 0.872493387723 0.59141561289
v 0.190218842124 0.870384474696 0.601620992201
v 0.189072384937 0.869790475578 0.610351254215
v 0.18965849153 0.873104896315 0.61755721972
v 0.188709371445 0.872151084654 0.626571280179
v 0.18920145147 0.875624474344 0.633576252096
v 0.187985530773 0.875168824213 0.642066634532
v 0.184329244554 0.879230182062 0.646318115193
v 0.179928249684 0.878944620031 0.648443855523
v 0.170085777237 0.880277868011 0.650923417134
v 0.161824434556 0.880008564471 0.6508784277
v 0.154269105906 0.878435360959 0.652046424645
v 0.146850953122 0.876603750687 0.653454714724
v 0.130228639217 0.896967076116 0.640430255724
v 0.126539114241 0.901065355169 0.644720385966
v 0.12544583044 0.907500931782 0.649010516208
v 0.124270351662 0.907091422363 0.657443264413
v 0.12538105075 0.909561415796 0.665346376145
v 0.119114598635 0.911316986388 0.669623324266
v 0.11240940031 0.908147060156 0.672266399891
v 0.106529097849 0.903522940819 0.676237742737
v 0.0980677333472 0.903464821021 0.676038746448
v 0.0885094040009 0.904121771007 0.679192498218
v 0.0808282678432 0.90265623726 0.680280196415
v 0.068224250338 0.909701750655 0.673603560595
v 0.0599375624186 0.909208580199 0.673802945001
v 0.051764546534 0.908497844047 0.674200451386
v 0.0447076403926 0.905865053213 0.676351509588
v 0.0376507342513 0.90323226238 0.678502567789
v 0.029121614793 0.903081209828 0.678388547964
v 0.0217735631583 0.900923516266 0.68010571369
v 0.0117661518041 0.903196603979 0.677778009215
v 0.000209455180864 0.907988862452 0.673149458669
v -0.00806020147476 0.907277908767 0.673544335466
v -0.0151615984471 0.904628519292 0.675708955187
v -0.0226629582664 0.902632450838 0.677276927584
v -0.0305012676816 0.901177163085 0.678350858473
v -0.0395472895176 0.900719637509 0.682569536984
v -0.0447908793397 0.895999032269 0.682569536984
v -0.0595839056594 0.905646628518 0.673499122687
v -0.0680379955994 0.905077684216 0.67376145967
v -0.0762613109252 0.904121910618 0.674376893052
v -0.0852836055358 0.9035364919 0.678734783959
v -0.0924813639646 0.900946934379 0.680843131947
v -0.101690753678 0.901493475522 0.680089442032
v -0.108847740868 0.898823346447 0.682271006543
v -0.123564510284 0.907823720729 0.673799818337
l 980 981 982 983 984 985 986 987 988 989 990 991 992 993 994 995 996 997 998 999 1000 1001 1002 1003 1004 1005 1006 1007 1008 1009 1010 1011 1012 1013 1014 1015 1016 1017 1018 1019 1020 1021 1022 1023 1024 1025 1026 1027 1028 1029 1030 1031 1032 1033 1034 1035 1036 1037 1038 1039 1040 1041 1042 1043 1044 1045 1046 1047 1048 1049 1050 1051 1052 1053 1054 1055 1056 1057 1058 1059 1060 1061 1062 1063 1064
