# Fixed world centers; Z up; paths immutable
v 0.453502446 0.529321909 -0.0883997306
v 0.454494923 0.528991401 -0.095131591
v 0.454411089 0.52542907 -0.101863451
v 0.455403566 0.525098503 -0.108595312
v 0.456396043 0.524767995 -0.115327172
v 0.45738852 0.524437487 -0.122059025
v 0.458380997 0.52410692 -0.128790885
v 0.459953547 0.52717346 -0.132156819
v 0.45896107 0.527504027 -0.125424951
v 0.457968593 0.527834535 -0.118693098
v 0.456976116 0.528165042 -0.111961238
v 0.455983639 0.52849561 -0.105229378
v 0.454991162 0.528826118 -0.0984975249
v 0.453998685 0.529156685 -0.0917656645
v -0.00268717459 0.652516007 1.04621994
v -0.0209519789 0.653669059 1.04443955
v -0.0240999814 0.647087038 1.04453111
v -0.0266964063 0.640315413 1.04097819
v -0.0591148771 0.648267984 1.04431236
v -0.0571400709 0.643269598 1.04035437
v -0.0620406643 0.637571275 1.03702199
v -0.0669997409 0.635996222 1.03381646
v -0.0729399025 0.634980381 1.02708352
v -0.0810016394 0.634993315 1.02054882
v -0.0767245516 0.628864825 1.01635301
v -0.129010156 0.646292448 1.01414168
v -0.132520169 0.643834114 1.01437581
v -0.141765922 0.640147269 1.00769329
v -0.153184563 0.641658366 1.00130773
v -0.15336436 0.641828358 0.997624218
v -0.166569665 0.644177377 0.991351902
v -0.171453714 0.642412841 0.987980127
v -0.180573449 0.638465405 0.984879911
v -0.190578327 0.639123619 0.98195684
v -0.207794249 0.639051795 0.975806296
v -0.214689031 0.638177395 0.972556233
v -0.229856759 0.63704139 0.966139197
v -0.242313057 0.638750613 0.963327825
v -0.25402388 0.635894299 0.956531703
v -0.260832518 0.634896696 0.95319742
v -0.259841233 0.630315125 0.945412397
v -0.2655316 0.628777862 0.941966295
v -0.274707377 0.628852904 0.938785434
v -0.299028933 0.631717205 0.93283391
v -0.300005436 0.62801522 0.925135255
v -0.302099973 0.624753833 0.921357691
v -0.316734493 0.627336442 0.914637983
v -0.318945527 0.624109149 0.910849273
v -0.32596752 0.623156011 0.903529584
v -0.345533371 0.627854049 0.90091455
v -0.364703655 0.627973676 0.898151517
v -0.366999537 0.624730766 0.894318104
v -0.371507704 0.618197203 0.886636555
v -0.379025012 0.617299914 0.883125544
v -0.405170619 0.620452583 0.876748681
v -0.405855715 0.616440415 0.872773349
v -0.410721898 0.614364088 0.865102649
v -0.421877831 0.615016818 0.861727715
v -0.427759796 0.61336726 0.8540712
v -0.437681437 0.613433897 0.850583017
v -0.446754128 0.613170505 0.843050599
v -0.454489022 0.612233162 0.839404702
v -0.455572754 0.608412981 0.831415415
v -0.465835094 0.608628154 0.823865414
v -0.473907769 0.607798755 0.820184588
v -0.471404284 0.606826007 0.812051177
v -0.480845958 0.606644928 0.804386497
v -0.482781798 0.603104115 0.800394714
v -0.481146276 0.602513492 0.792285323
v -0.491641849 0.60276258 0.784597933
v -0.494911879 0.599787831 0.780640006
v -0.492856711 0.599016011 0.772494018
v -0.500438511 0.597967803 0.764635146
v -0.499957711 0.597880006 0.756530464
v -0.503128409 0.594906807 0.748494208
v -0.507018149 0.59223789 0.740466654
v -0.507151365 0.592354715 0.736415744
v -0.50606817 0.592005551 0.72827518
v -0.509648979 0.589195132 0.720213592
v -0.508421481 0.58878386 0.712062716
v -0.512866497 0.58627975 0.708065271
v -0.510807276 0.585511029 0.699891686
v -0.509281099 0.584971368 0.69173044
v -0.512081504 0.581813276 0.683615923
v -0.510630071 0.5813061 0.675452352
v -0.515310585 0.578947365 0.667344093
v -0.5129143 0.578036249 0.659164429
v -0.515430391 0.574745536 0.651016176
v -0.51465559 0.574471295 0.646929622
v -0.51345098 0.574070096 0.638759077
v -0.517190218 0.571295738 0.630598366
v -0.515078962 0.57050848 0.622420192
v -0.512658656 0.569589496 0.614245832
v -0.517096102 0.567051351 0.61015147
v -0.514408946 0.56602025 0.601976812
v -0.512475908 0.565309584 0.593803346
v -0.515819192 0.562357187 0.585601866
v -0.514612794 0.561955392 0.5774194
v -0.51310569 0.561426103 0.569240391
v -0.516093969 0.558317363 0.56101948
v -0.512941718 0.557092488 0.552862048
v -0.511894345 0.556758046 0.544675589
v -0.516598105 0.554315627 0.540510535
v -0.514397502 0.553494394 0.532338917
v -0.510605156 0.552001238 0.524206281
v -0.514482081 0.549259484 0.515930891
v -0.512084663 0.548356354 0.507769704
v -0.504011691 0.545063138 0.499771029
v -0.513450563 0.54460597 0.495431334
v -0.513479352 0.544723272 0.487200081
v -0.506753027 0.542002618 0.479184359
v -0.514189601 0.540745139 0.470746011
v -0.509649932 0.538946569 0.46266827
v -0.501280367 0.53106916 0.454800397
v -0.505371869 0.532831132 0.450527549
v -0.507480025 0.529336333 0.442259312
v -0.49602738 0.524660707 0.43451196
v -0.504146576 0.523673475 0.425980896
v -0.503569007 0.519060075 0.417827666
v -0.511906087 0.518090189 0.413370073
v -0.499992132 0.513255 0.405705184
v -0.507199466 0.511813998 0.401285976
v -0.509771645 0.508497536 0.392965436
v -0.506684363 0.502850115 0.384944469
v -0.50966841 0.49965176 0.380723387
v -0.4977552 0.49040255 0.373220414
v -0.500280261 0.48702234 0.369028866
v -0.503633082 0.479517967 0.364862293
v -0.504004419 0.475257009 0.360794157
v -0.504406869 0.466558158 0.356804758
v -0.511894882 0.460664153 0.356506586
v -0.511115134 0.451494008 0.352588981
v -0.514739275 0.444043368 0.352526337
v -0.515506744 0.43546176 0.352640927
v -0.517166793 0.427238017 0.352700055
v -0.519780338 0.41939038 0.352700055
v -0.531273305 0.415023625 0.348017395
v -0.517754197 0.405348897 0.348949224
v -0.520138383 0.397392511 0.353082001
v -0.543422103 0.397476733 0.351804227
v -0.521823704 0.380372941 0.353300303
v -0.524959326 0.377125889 0.357302934
v -0.528169036 0.369493961 0.361381531
v -0.522794068 0.358660549 0.361858666
v -0.531965494 0.353273988 0.365578979
v -0.523661792 0.341388315 0.366219878
v -0.540400505 0.34318617 0.369429022
v -0.538653255 0.33374384 0.369680554
v -0.530048132 0.321804076 0.370327502
v -0.525047183 0.311224431 0.370765805
v -0.549747527 0.311430067 0.373605371
v -0.545472503 0.301114887 0.373995304
v -0.537705898 0.289575398 0.37458241
v -0.543729901 0.282995731 0.374388576
v -0.546224535 0.275150716 0.374394566
v -0.542455852 0.265097857 0.374754459
v -0.539051294 0.2551983 0.375093371
v -0.540548444 0.247031376 0.375155181
v -0.54192847 0.238828272 0.375223577
v -0.541940451 0.230158702 0.375368983
v -0.54305774 0.221878067 0.375451922
v -0.541116476 0.212561831 0.375707
v -0.557943761 0.213949427 0.378924102
v -0.556983232 0.204956993 0.379120797
v -0.559576213 0.197171062 0.379120797
v -0.562169254 0.189385116 0.379120797
v -0.564762235 0.181599185 0.379120797
v -0.565815926 0.173305973 0.379205734
v -0.567969918 0.165379301 0.379229873
v -0.549311221 0.150673673 0.376334906
v -0.551496387 0.142800629 0.376357019
v -0.55539608 0.135480568 0.376283079
v -0.566287339 0.130390093 0.375818044
v -0.568872333 0.122628152 0.375818044
v -0.556727171 0.110205673 0.372579187
v -0.561237156 0.107351199 0.372396171
v -0.568403661 0.101043582 0.372135699
v -0.556583822 0.0888043195 0.368895829
v -0.574535906 0.0858273357 0.368009359
v -0.570689023 0.0760856494 0.364313275
v -0.554088771 0.0667264238 0.361309469
v -0.576595128 0.0650730953 0.360124648
v -0.571159005 0.0548864938 0.35653773
v -0.564828515 0.048707433 0.352940172
v -0.549659014 0.0356608033 0.349984467
v -0.553376675 0.0283126272 0.349912673
v -0.57061106 0.0249260142 0.344944715
v -0.57077682 0.0165001657 0.345096171
v -0.573568046 0.00884818286 0.345082223
v -0.56570071 -0.00191346102 0.341691971
v -0.563917637 -0.00664673885 0.341887504
v -0.573090017 -0.012420469 0.345515937
v -0.574694395 -0.0203985479 0.345576316
v -0.575279832 -0.0286607202 0.345700592
v -0.576766133 -0.0366625153 0.345768183
v -0.575949788 -0.0453016385 0.345980048
v -0.574733198 -0.0540384725 0.346216738
v -0.573494077 -0.062766917 0.346454531
v -0.57677871 -0.070246622 0.346409023
v -0.581894934 -0.0772329643 0.346249014
v -0.582340479 -0.0813372955 0.342263073
v -0.583439529 -0.0894504264 0.338317841
v -0.593025684 -0.0953020677 0.333820641
v -0.590053618 -0.100317515 0.330055445
v -0.584732115 -0.105987079 0.322415769
v -0.584844649 -0.110216089 0.314416766
v -0.585890293 -0.109982155 0.310302049
v -0.593037188 -0.108184122 0.301696688
v -0.599776804 -0.10649357 0.293090791
v -0.593881607 -0.108127318 0.285419196
v -0.570690811 -0.105930507 0.282955617
v -0.569019079 -0.0980667695 0.278847843
v -0.563271046 -0.0954293758 0.279197633
v -0.564009845 -0.0869541019 0.270859629
v -0.562143803 -0.0833152533 0.266865492
v -0.551773965 -0.0778472275 0.259428322
v -0.555636525 -0.0726474375 0.254959524
v -0.555750787 -0.0685002282 0.246752426
v -0.578111827 -0.0624305494 0.236696035
v -0.583533227 -0.061011672 0.228069469
v -0.582346857 -0.0614067689 0.220022604
v -0.581160486 -0.0618018657 0.211975724
v -0.582923889 -0.0613873862 0.203648016
v -0.582485437 -0.0615772754 0.195523024
v -0.588038564 -0.0643479675 0.186929896
v -0.585910618 -0.0649652779 0.183051154
v -0.584722161 -0.0653610677 0.174990237
v -0.583533764 -0.0657568499 0.166929305
v -0.585745275 -0.0694473609 0.158645734
v -0.584556282 -0.0698433444 0.150580913
v -0.590450585 -0.0725017264 0.145985693
v -0.586063325 -0.0737659037 0.1382633
v -0.589360774 -0.077170983 0.129836813
v -0.593494892 -0.0803569034 0.121303312
v -0.589299679 -0.0815251842 0.117675409
v -0.592999756 -0.0848320648 0.109180473
v -0.599286079 -0.0874542743 0.100365937
v -0.599386871 -0.0917370692 0.0922726095
v -0.598790228 -0.0919357613 0.0882259458
v -0.59889102 -0.0962185562 0.0801326185
v -0.60416615 -0.099091731 0.0755184069
v -0.603706777 -0.103526674 0.0674871206
v -0.611084878 -0.1101375 0.0586228594
v -0.614302039 -0.113574646 0.0542432815
v -0.618270338 -0.116821669 0.0497619323
v -0.61994189 -0.120713696 0.0414332673
v -0.620983422 -0.129006371 0.033355616
v -0.626151621 -0.131917298 0.0328408256
v -0.62697947 -0.14027001 0.0247863028
v -0.631236672 -0.143473789 0.0202380754
v -0.630969584 -0.147824004 0.0163017027
v -0.623553634 -0.154015169 0.00920721516
v -0.626299977 -0.161876798 0.000896563346
v -0.635677278 -0.163824722 -0.00439072493
v -0.633998334 -0.168520465 -0.00812259223
v -0.637552381 -0.17620419 -0.0165680591
v -0.639906645 -0.179908276 -0.0208772719
v -0.646035314 -0.18698214 -0.0297127794
v -0.642318726 -0.192161471 -0.0331368186
v -0.640491903 -0.196878284 -0.0368333235
v -0.646013319 -0.204110831 -0.045590613
v -0.646715283 -0.208221689 -0.0496637747
v -0.647107959 -0.212463692 -0.0578546301
v -0.646006525 -0.216999322 -0.0616506822
v -0.645722628 -0.225612134 -0.0695316792
v -0.618878067 -0.236124068 -0.0692912191
v -0.61473918 -0.245503351 -0.0723717138
v -0.618102968 -0.248967454 -0.0768330768
v -0.627320766 -0.255344152 -0.0861685947
v -0.626723826 -0.255542934 -0.090217486
v -0.623471618 -0.260588199 -0.097769402
v -0.622278631 -0.260985494 -0.105861023
v -0.632561624 -0.262969464 -0.115648106
v -0.349069893 -0.330985129 -0.0760165155
v -0.36868903 -0.33051008 -0.079114154
v -0.373440057 -0.337315917 -0.0795032829
v -0.353612155 -0.349600285 -0.0796478838
v -0.379495054 -0.351770222 -0.0836106986
v -0.347580135 -0.366588205 -0.0816885009
v -0.35782665 -0.368276805 -0.0832222775
v -0.388715446 -0.369487464 -0.0880506113
v -0.399581164 -0.375039041 -0.0894787014
v -0.387657553 -0.385467559 -0.0909526795
v -0.409798592 -0.388699323 -0.0943074152
v -0.39288038 -0.400114655 -0.0949215144
v -0.417936981 -0.402827919 -0.0987892747
v -0.404263288 -0.41352421 -0.0999502689
v -0.409094751 -0.416467041 -0.100570396
v -0.40124023 -0.425937712 -0.102713749
v -0.437111765 -0.426667631 -0.108481742
v -0.420361191 -0.433968395 -0.109307766
v -0.423125535 -0.441261709 -0.109362356
v -0.414639473 -0.450802535 -0.111386463
v -0.458870649 -0.450168163 -0.118659489
v -0.45799619 -0.458291531 -0.122033268
v -0.415832281 -0.470232338 -0.11836192
v -0.420670956 -0.477199376 -0.12270195
v -0.489904672 -0.472231805 -0.134489834
v -0.452905446 -0.48305136 -0.131689325
v -0.455496162 -0.490500033 -0.135660142
v -0.480223954 -0.493977338 -0.143595278
v -0.542442977 -0.486799985 -0.154509693
v -0.608207583 -0.483153433 -0.165824398
v -0.599160075 -0.492917627 -0.167827144
v -0.590271175 -0.502519965 -0.165774673
v -0.562337041 -0.515434623 -0.164343372
v -0.530651808 -0.528873324 -0.162182897
v -0.50729692 -0.536857903 -0.161709636
v -0.492727399 -0.547245324 -0.162575737
v -0.467622995 -0.551520109 -0.161930472
v -0.447043836 -0.562789917 -0.16162397
v -0.401607394 -0.574289322 -0.160779119
v -0.382614285 -0.581303775 -0.160880357
v -0.343886584 -0.591568708 -0.161065012
v -0.325783968 -0.598347783 -0.161231697
v -0.293338507 -0.607479274 -0.162413806
v -0.261825144 -0.616306305 -0.159900665
v -0.255366594 -0.621208251 -0.165934488
v -0.191754937 -0.635072231 -0.160722822
v -0.162180364 -0.643501759 -0.162025809
v -0.149656966 -0.64554894 -0.163200885
v -0.118607491 -0.650577962 -0.164277792
v -0.089295581 -0.655333221 -0.165595308
v -0.0540917851 -0.657499492 -0.165828615
v -0.130321488 -0.645729423 -0.188729092
v -0.149265885 -0.646445215 -0.196073025
v -0.139087573 -0.648216724 -0.201275319
v -0.116538987 -0.651913881 -0.203830853
v -0.138129652 -0.652320743 -0.215469122
v -0.13211593 -0.653437734 -0.221498623
v -0.0976385474 -0.658957064 -0.221340075
v -0.0890602842 -0.66046834 -0.226718485
v -0.0880262628 -0.660812676 -0.233732104
v -0.0838502198 -0.661642611 -0.240047053
v -0.0828170404 -0.661986709 -0.247054979
v -0.0817838609 -0.662330806 -0.254062921
v -0.0807506815 -0.662674844 -0.261070848
v -0.0905289799 -0.66135025 -0.27056396
v -0.205609873 -0.647431493 -0.304233015
v -0.163571656 -0.657681763 -0.301632881
v -0.163043872 -0.657857537 -0.305212826
v -0.163068071 -0.665169477 -0.308384061
v -0.163329616 -0.66883409 -0.311878562
v -0.103460968 -0.681532562 -0.304769993
v -0.104004331 -0.685194492 -0.311926484
v -0.103341073 -0.685485125 -0.319065362
v -0.0943788663 -0.683456361 -0.324458927
v -0.106157951 -0.681803346 -0.330983877
v -0.0685983375 -0.687569678 -0.329045236
v -0.0675674528 -0.687913001 -0.336037636
v -0.0683044717 -0.687994123 -0.343472272
v -0.1248812 -0.679796576 -0.364986897
v -0.0678050891 -0.684922755 -0.358144671
v -0.0728008449 -0.684367836 -0.366687566
v -0.0658902228 -0.685587943 -0.372184128
v -0.0851218477 -0.686457992 -0.384154499
v -0.0837920681 -0.686750829 -0.387460977
v -0.0729730353 -0.688543797 -0.391928136
v -0.0955099612 -0.685401201 -0.405174673
v -0.0453898385 -0.693006098 -0.3991687
v -0.0389506929 -0.690641463 -0.404986113
v -0.0912681222 -0.683050692 -0.426354915
v -0.0615641698 -0.68765831 -0.425618649
v -0.0647317022 -0.687378109 -0.433776051
v -0.0796784535 -0.685348392 -0.445197761
v -0.0820655674 -0.685185492 -0.45319277
v -0.0523898564 -0.689783037 -0.45223701
v -0.0662493259 -0.687916577 -0.463426232
v -0.0619684421 -0.685110688 -0.466192961
v -0.0135999871 -0.688931525 -0.456453592
v 8.43289381e-05 -0.687688231 -0.460089564
v 0.00695853867 -0.685430348 -0.465637535
v 0.0154560348 -0.683337212 -0.467103422
v 0.0293634124 -0.678439736 -0.460143119
v 0.0308137722 -0.675106645 -0.456461877
v 0.0524441376 -0.674935699 -0.44701004
v 0.0503952652 -0.667707264 -0.448221445
v 0.10083665 -0.668964684 -0.437920272
v 0.102910995 -0.66605562 -0.4446702
v 0.112653755 -0.664304435 -0.445674062
v 0.131108388 -0.660677671 -0.447932124
v 0.135533676 -0.658093631 -0.450446516
v 0.137099147 -0.65504092 -0.453797281
v 0.139736071 -0.648770928 -0.457148075
v -0.611985087 -0.514802217 -0.688625395
v -0.610094607 -0.511115789 -0.692671716
v -0.613013864 -0.510812938 -0.702001154
v -0.612550199 -0.511086345 -0.710322499
v -0.60948807 -0.507595956 -0.714018047
v -0.608898163 -0.507890284 -0.722302198
v -0.61042577 -0.507822454 -0.731239915
v -0.612241685 -0.507705629 -0.740277469
v -0.605289161 -0.504976511 -0.746999145
v -0.608553231 -0.504608154 -0.756499708
v -0.607743144 -0.504940152 -0.76473254
v -0.606547177 -0.50533843 -0.772844374
v -0.60736239 -0.505391359 -0.78159833
v -0.606491327 -0.505733967 -0.789818406
v -0.614584923 -0.508664668 -0.800516665
v -0.613386154 -0.5090639 -0.808647633
v -0.613314271 -0.509270906 -0.817147017
v -0.61707741 -0.512953579 -0.826484025
v -0.617037058 -0.513058484 -0.830738544
v -0.625956297 -0.515879691 -0.841803432
v -0.660340548 -0.518413901 -0.852334082
v -0.661493421 -0.526545584 -0.851845801
v -0.669707 -0.533520937 -0.853695273
v -0.666140616 -0.542519212 -0.855952442
v -0.6702438 -0.546015382 -0.856877863
v -0.669362545 -0.554673433 -0.864330173
v -0.67007035 -0.558818519 -0.86843729
v -0.673119664 -0.562597573 -0.873329163
v -0.670880437 -0.567310393 -0.880758584
v -0.656633377 -0.573764384 -0.879812717
v -0.653582215 -0.57858026 -0.886928141
v -0.654227674 -0.578697979 -0.895741522
v -0.653021097 -0.579099774 -0.903925657
v -0.651814461 -0.579501629 -0.912109852
v -0.654035926 -0.575136304 -0.917634547
v -0.651518464 -0.571605802 -0.925826371
v -0.643091381 -0.564757943 -0.928101838
v -0.633457541 -0.562249482 -0.929483056
v -0.630243599 -0.55460757 -0.933566988
v -0.636920214 -0.545368195 -0.941145003
v -0.648999214 -0.539366603 -0.950195968
v -0.657846212 -0.538136661 -0.961991787
v -0.656632721 -0.538540781 -0.970222592
v -0.654103279 -0.53499347 -0.978453457
v -0.653166592 -0.535352468 -0.986784518
v -0.650201082 -0.531773925 -0.990521371
v -0.640478671 -0.529312313 -0.991793334
v -0.633282363 -0.522187412 -0.990127027
v -0.630658209 -0.514307976 -0.990127027
v -0.624577284 -0.507116675 -0.993186176
v -0.622559369 -0.499041021 -0.989085674
v -0.628195941 -0.493898362 -0.991624534
v -0.637259245 -0.483865499 -0.991559565
v -0.638669372 -0.48342675 -0.983395994
v -0.638920367 -0.479006559 -0.975288451
v -0.63952744 -0.47880438 -0.971170604
v -0.64084816 -0.478381217 -0.962972999
v -0.636877418 -0.478892297 -0.952891529
v -0.638090193 -0.478488415 -0.944665253
v -0.617987335 -0.473522156 -0.929857492
v -0.616905034 -0.469456077 -0.925629497
v -0.611931741 -0.461835802 -0.916193485
v -0.611948788 -0.461741269 -0.911897063
v -0.610538602 -0.453482509 -0.903714061
v -0.610436678 -0.449152231 -0.895530999
v -0.610963464 -0.44896543 -0.891413152
v -0.61086154 -0.444635242 -0.883230269
v -0.610759616 -0.440305024 -0.875047386
v -0.611362815 -0.440104157 -0.870955944
v -0.606366336 -0.436691284 -0.861121178
v -0.603427351 -0.437066764 -0.851556897
v -0.606284499 -0.432274997 -0.848665535
v -0.598846734 -0.433502585 -0.837617397
v -0.592706501 -0.43448627 -0.827032268
v -0.599947691 -0.428785831 -0.821304262
v -0.601150215 -0.428385347 -0.813147664
v -0.592406452 -0.429870427 -0.801758647
v -0.602251172 -0.423668593 -0.796834469
v -0.598812222 -0.424152792 -0.787187099
v -0.594704688 -0.424764782 -0.777344465
v -0.595555723 -0.424431741 -0.769095719
v -0.593243957 -0.424701899 -0.759850979
v -0.594442666 -0.424302667 -0.751720071
v -0.595641434 -0.423903435 -0.743589163
v -0.596164584 -0.423633158 -0.735249162
v -0.596601069 -0.423379451 -0.72688514
v -0.599388838 -0.422676921 -0.719242692
v -0.600587606 -0.422277689 -0.711111486
v -0.601786375 -0.421878427 -0.70298034
v -0.59939009 -0.42216596 -0.693771362
v 0.188136131 -0.569136143 -0.45450592
v 0.190267161 -0.562737346 -0.45450592
v 0.19239819 -0.556338549 -0.45450592
v 0.194529206 -0.549939752 -0.45450592
v 0.304479867 -0.564998269 -0.418824911
v 0.341975272 -0.565932631 -0.408237219
v 0.35488978 -0.562001705 -0.404987156
v 0.363769531 -0.557283759 -0.402940422
v 0.395335585 -0.557293892 -0.394099444
v 0.37480095 -0.549837947 -0.403866112
v 0.420493394 -0.552914917 -0.390740424
v 0.429029316 -0.548336864 -0.392043054
v 0.437841743 -0.543841124 -0.393247873
v 0.486420274 -0.55112052 -0.382046163
v 0.489992499 -0.551995218 -0.38738808
v 0.497104645 -0.553630173 -0.391629636
v 0.514598727 -0.557494342 -0.392629892
v 0.507240474 -0.549715579 -0.401925832
v 0.507692277 -0.549866021 -0.404990166
v 0.508595824 -0.550166965 -0.411118805
v 0.512187779 -0.547897339 -0.416705817
v 0.513090849 -0.548198104 -0.422831267
v 0.512047172 -0.548075438 -0.429581463
v 0.518788934 -0.54649508 -0.434141368
v 0.514834285 -0.545734882 -0.441839665
v 0.513204217 -0.545482576 -0.448797077
v 0.522023082 -0.544308245 -0.449441284
v 0.522925377 -0.544608712 -0.45556125
v 0.518976867 -0.543845713 -0.463291466
v 0.525708377 -0.542271674 -0.467801213
v 0.52176404 -0.541505158 -0.475549638
v 0.520139337 -0.541249573 -0.482533246
v 0.528799772 -0.540053248 -0.483149529
v 0.524454534 -0.539193869 -0.491059422
v 0.535783231 -0.538648427 -0.493948758
v 0.527242184 -0.536852896 -0.503319681
v 0.538508832 -0.536302269 -0.506192148
v 0.534817159 -0.535529137 -0.510690629
v 0.530481696 -0.534662426 -0.518644989
v 0.54641223 -0.535163939 -0.519827008
v 0.55071038 -0.539368272 -0.524381518
v 0.558038175 -0.541099668 -0.528187275
v 0.552507639 -0.539966822 -0.536572218
v 0.563842058 -0.53945601 -0.539259493
v 0.564290106 -0.5396052 -0.542298257
v 0.562149763 -0.539224625 -0.549478471
v 0.571291924 -0.541366875 -0.552550554
v 0.564746439 -0.536863506 -0.561707199
v 0.570864975 -0.538334489 -0.565862417
v 0.572875381 -0.535701156 -0.568680108
v 0.56724745 -0.534528792 -0.577181876
v 0.573103428 -0.532808721 -0.581773937
v 0.570014477 -0.532205105 -0.589351594
v 0.570685267 -0.529310048 -0.595890522
v 0.571582675 -0.529608965 -0.601977706
v 0.562418878 -0.52446717 -0.612288356
v 0.562869132 -0.524617136 -0.615342379
v 0.569435894 -0.52620995 -0.619264662
v 0.571309686 -0.52358216 -0.625361979
v 0.566441536 -0.522560298 -0.633707941
v 0.564232111 -0.522147775 -0.64103508
v 0.568768978 -0.520077705 -0.642870367
v 0.566561818 -0.519662797 -0.650206387
v 0.561432004 -0.518575907 -0.658715427
v 0.563314497 -0.515935838 -0.664841115
v 0.563795209 -0.51613909 -0.67113632
v 0.563576996 -0.516180992 -0.677715003
v 0.56658119 -0.513799489 -0.683389306
v 0.567032814 -0.513949931 -0.686452568
v 0.563092113 -0.513127923 -0.694557428
v 0.563614011 -0.513340473 -0.700850189
v 0.563043177 -0.513299823 -0.707595289
v 0.564929843 -0.510653913 -0.713734567
v 0.563239336 -0.510351419 -0.720955312
v 0.562559247 -0.510284185 -0.727763593
v 0.557617247 -0.509225607 -0.736371219
v 0.55303669 -0.508251429 -0.744849861
v 0.553946197 -0.50855428 -0.751018822
v 0.554855704 -0.508857191 -0.757187784
v 0.555765152 -0.509160101 -0.763356745
v 0.556674659 -0.509462953 -0.769525707
v 0.557584167 -0.509765863 -0.775694668
v 0.558493614 -0.510068774 -0.78186363
v 0.559403121 -0.510371625 -0.788032532
v 0.560151339 -0.510637045 -0.794272363
v 0.559640646 -0.510610044 -0.801068008
v 0.56055057 -0.510913074 -0.80723995
v 0.558239043 -0.510467827 -0.814845979
v 0.558162153 -0.513737202 -0.821024179
v 0.557913482 -0.513772428 -0.827723086
v 0.558824658 -0.514075875 -0.833903432
v 0.554584742 -0.516388178 -0.841969848
v 0.555128455 -0.516560256 -0.845024347
v 0.557558835 -0.517213464 -0.850520074
v 0.555876195 -0.520118713 -0.857440829
v 0.561422527 -0.521484077 -0.861497164
v 0.588933587 -0.530998409 -0.851659775
v 0.594251335 -0.538621545 -0.854836226
v 0.598629296 -0.545959413 -0.855166674
v 0.607943654 -0.551233709 -0.853648365
v 0.611091673 -0.555118859 -0.854981542
v 0.590189338 -0.5568313 -0.867062986
v 0.584045231 -0.561839342 -0.872285247
v 0.589226007 -0.56931299 -0.872220457
v 0.590361834 -0.572753549 -0.874496698
v 0.588173091 -0.575479031 -0.878329933
v 0.590735912 -0.576134741 -0.883656144
v 0.588997722 -0.579011977 -0.890548885
v 0.591560125 -0.579665899 -0.895868778
v 0.592532277 -0.579981029 -0.901940703
v 0.594348907 -0.580475926 -0.907607615
v 0.595774889 -0.577695251 -0.91065985
v 0.59667486 -0.577994943 -0.916764259
v 0.594718039 -0.571395755 -0.925200462
v 0.599569261 -0.566208363 -0.927068114
v 0.612914443 -0.565981209 -0.921052456
v 0.617711306 -0.560868561 -0.926182687
v 0.619131923 -0.558098316 -0.929223359
v 0.608840466 -0.549571693 -0.938495278
v 0.610266745 -0.546790302 -0.941548228
v 0.591284156 -0.539453208 -0.957972109
v 0.592190266 -0.539754987 -0.964118183
v 0.593096375 -0.540056765 -0.970264196
v 0.594002485 -0.540358543 -0.97641027
v 0.589198709 -0.536145687 -0.982615888
v 0.583526313 -0.534957945 -0.992091298
v 0.59919101 -0.532208145 -0.988485873
v 0.592427313 -0.527433753 -0.989093363
v 0.605271339 -0.524036646 -0.983602762
v 0.59908551 -0.516240716 -0.987719655
v 0.591455519 -0.508072078 -0.992571652
v 0.598375559 -0.503363311 -0.993381441
v 0.599361062 -0.500404119 -0.993381441
v 0.597252011 -0.493462592 -0.992135227
v 0.597783744 -0.490348577 -0.989049733
v 0.593921065 -0.486127615 -0.984862387
v 0.585695326 -0.480835915 -0.982848227
v 0.590611815 -0.481951743 -0.973741531
v 0.589700222 -0.481648147 -0.967558086
v 0.585283995 -0.480490744 -0.963110626
v 0.593617618 -0.482439667 -0.952359676
v 0.623403251 -0.486442685 -0.931590557
v 0.621691108 -0.482806891 -0.929631293
v 0.616313696 -0.478262246 -0.929462433
v 0.611690164 -0.473892301 -0.928914726
v 0.610433638 -0.467116803 -0.9239012
v 0.609980702 -0.466965944 -0.92082876
v 0.603944182 -0.462180853 -0.917641997
v 0.600620508 -0.458066404 -0.913124144
v 0.599711835 -0.457763761 -0.906960666
v 0.591603696 -0.452468663 -0.908017457
v 0.59069252 -0.452165216 -0.901837289
v 0.59076947 -0.448894799 -0.895657063
v 0.589858353 -0.448591381 -0.889476895
v 0.583560467 -0.443695307 -0.886299431
v 0.582867622 -0.443482995 -0.883314252
v 0.583917975 -0.44367969 -0.876202524
v 0.582554936 -0.440035731 -0.870684445
v 0.583082616 -0.44010061 -0.863824189
v 0.583159685 -0.436825454 -0.857634962
v 0.582247198 -0.43652156 -0.851445794
v 0.582324266 -0.433246374 -0.845256567
v 0.581868052 -0.433094442 -0.842161953
v 0.580955565 -0.432790548 -0.835972786
v 0.579257905 -0.432283908 -0.83013916
v 0.578345239 -0.431979954 -0.823948443
v 0.574164569 -0.427599996 -0.819668889
v 0.572969258 -0.427222669 -0.813595653
v 0.565954924 -0.425336301 -0.810109198
v 0.565039217 -0.425031334 -0.803897917
v 0.564123452 -0.424726367 -0.797686636
v 0.563646197 -0.424535125 -0.791283071
v 0.563285112 -0.421134502 -0.785264075
v 0.562827229 -0.420982033 -0.782158434
v 0.56234771 -0.420790672 -0.775758028
v 0.563283265 -0.420967907 -0.76874876
v 0.562738955 -0.420759737 -0.762382686
v 0.561823964 -0.420455009 -0.756176531
v 0.564087987 -0.420978516 -0.748618186
v 0.56373179 -0.420819461 -0.742182016
v 0.566046834 -0.421356469 -0.734622836
v 0.56513387 -0.421052426 -0.728430092
v 0.568940163 -0.421978265 -0.720268607
v 0.569580615 -0.422079176 -0.713440657
v 0.568669438 -0.421775728 -0.707260013
v 0.567865968 -0.421500355 -0.701035082
v 0.566954792 -0.421196878 -0.694854617
v 0.567099869 -0.421168804 -0.688244343
v 0.567970455 -0.421329945 -0.681344569
v 0.567368031 -0.421107054 -0.67504555
v 0.571564198 -0.422135562 -0.666824222
v 0.575961053 -0.423216581 -0.658543646
v 0.575053692 -0.422914416 -0.652389288
v 0.581821978 -0.427816898 -0.642817557
v 0.581757247 -0.427733839 -0.636349976
v 0.580852568 -0.427432567 -0.630213857
v 0.579947948 -0.427131295 -0.624077678
v 0.582069039 -0.427616447 -0.616772056
v 0.581190467 -0.42732203 -0.610632002
v 0.580286682 -0.427021027 -0.604501724
v 0.579382896 -0.426720023 -0.598371446
v 0.578479111 -0.42641902 -0.592241108
v 0.577575266 -0.426118046 -0.58611083
v 0.576671481 -0.425817043 -0.579980552
v 0.575767696 -0.425516039 -0.573850214
v 0.579787076 -0.426495492 -0.56589669
v 0.579744101 -0.426418483 -0.559459329
v 0.58536762 -0.427815557 -0.550949693
v 0.584467292 -0.427515715 -0.544842958
v 0.590390146 -0.42899105 -0.5362643
v 0.586684942 -0.424778819 -0.531533182
v 0.589567661 -0.425467193 -0.524076879
v 0.593279123 -0.4263722 -0.516340435
v 0.594483256 -0.426622361 -0.509510994
v 0.594771743 -0.426633388 -0.503012598
v 0.594344676 -0.423316568 -0.500307441
v 0.597895205 -0.424184442 -0.492673069
v 0.5981915 -0.424198836 -0.48618716
v 0.598267078 -0.420986891 -0.48011747
v 0.599874496 -0.421347827 -0.473188221
v 0.598980367 -0.421050042 -0.4671233
v 0.600711107 -0.421443611 -0.460167199
v 0.598608792 -0.417691737 -0.458025903
v 0.598771513 -0.417673409 -0.451605231
v 0.608710289 -0.420240194 -0.441917628
v 0.614742398 -0.421774298 -0.433572739
v 0.607894719 -0.41674611 -0.429833114
v 0.607518911 -0.416586131 -0.423621565
v 0.613202333 -0.418034971 -0.415432394
v 0.606379271 -0.41303584 -0.414810359
v 0.606155932 -0.40975827 -0.408864349
v 0.606170595 -0.403382301 -0.40315178
v 0.602684319 -0.399247587 -0.401416361
v 0.604619801 -0.393435866 -0.401416361
v 0.605141401 -0.390381396 -0.398389906
v 0.600565493 -0.382775515 -0.400478214
v 0.602057874 -0.376802951 -0.39744556
v 0.601279378 -0.370219499 -0.398315579
v 0.603220522 -0.36439085 -0.398315579
v 0.605161667 -0.358562201 -0.398315579
v 0.607102811 -0.352733582 -0.398315579
v 0.598789096 -0.343955725 -0.401606262
v 0.601185441 -0.33825773 -0.404651344
v 0.60171026 -0.335184485 -0.401606262
v 0.602417648 -0.328974098 -0.402004808
v 0.604365826 -0.323124319 -0.402004808
v 0.612208009 -0.319023192 -0.400108248
v 0.614152551 -0.313184291 -0.400108248
v 0.596822441 -0.301563293 -0.409522921
v 0.596295178 -0.304651171 -0.412582517
v 0.605485797 -0.300944567 -0.40703854
v 0.612000346 -0.29646951 -0.405562609
v 0.612908602 -0.290298462 -0.405899554
v 0.61179167 -0.283511043 -0.410090715
v 0.614308536 -0.281056434 -0.409589946
v 0.614200056 -0.274567753 -0.413459152
v 0.616602719 -0.268854737 -0.416512281
v 0.619005382 -0.263141721 -0.419565409
v 0.619981706 -0.260210246 -0.419565409
v 0.622384369 -0.25449723 -0.422618508
v 0.624336958 -0.248634309 -0.422618508
v 0.61945188 -0.24056834 -0.424877346
v 0.621859789 -0.234842941 -0.42793709
v 0.62283814 -0.231905118 -0.42793709
v 0.620325744 -0.224563912 -0.426206827
v 0.620758832 -0.218178049 -0.426712096
v 0.619561195 -0.211245999 -0.430976719
v 0.617866218 -0.204133317 -0.432192862
v 0.611183584 -0.195331499 -0.435069889
v 0.613607883 -0.189567074 -0.438150465
v 0.614592969 -0.186609238 -0.438150465
v 0.617017269 -0.180844828 -0.441231072
v 0.622949123 -0.179586157 -0.433118194
v 0.623932362 -0.176633805 -0.433118194
v 0.614123225 -0.166661069 -0.440285712
v 0.616097331 -0.160733446 -0.440285712
v 0.618071437 -0.154805824 -0.440285712
v 0.620045543 -0.148878202 -0.440285712
v 0.622019649 -0.14295058 -0.440285712
v 0.615006268 -0.133828148 -0.443302929
v 0.616529584 -0.127731651 -0.440207332
v 0.618509352 -0.121787138 -0.440207332
v 0.625346899 -0.127578139 -0.434345156
v 0.623372376 -0.133507073 -0.434345156
v 0.621397793 -0.139436007 -0.434345156
v 0.61942327 -0.14536494 -0.434345156
v 0.617448688 -0.151293874 -0.434345156
v 0.619977772 -0.158790633 -0.432845771
v 0.626906395 -0.167791024 -0.429884404
v 0.624940217 -0.173694849 -0.429884404
v 0.622520804 -0.179447725 -0.426809996
v 0.620554566 -0.185351551 -0.426809996
v 0.620721102 -0.191975608 -0.426104307
v 0.617152035 -0.194056332 -0.423735559
v 0.615185857 -0.199960172 -0.423735559
v 0.606411695 -0.203599989 -0.422747552
v 0.603987396 -0.209364399 -0.419666976
v 0.622099876 -0.215348482 -0.410532057
v 0.611375928 -0.208527088 -0.407907844
v 0.587002933 -0.193840891 -0.413204491
v 0.612789989 -0.199163467 -0.401964158
v 0.589518249 -0.184764594 -0.410106331
v 0.619030178 -0.188143358 -0.398001701
v 0.620994151 -0.182246134 -0.398001701
v 0.618709385 -0.178184748 -0.395834267
v 0.618228793 -0.178028449 -0.389551014
v 0.621337175 -0.182380632 -0.381820679
v 0.617131293 -0.184237257 -0.376414061
v 0.620388269 -0.182067782 -0.372487217
v 0.623520434 -0.176577374 -0.372119755
v 0.618899822 -0.168411985 -0.377404362
v 0.616457343 -0.164269626 -0.381705225
v 0.607687831 -0.157916963 -0.391256094
v 0.60031867 -0.152036309 -0.397160679
v 0.602298975 -0.146090105 -0.397160679
v 0.60427928 -0.140143886 -0.397160679
v 0.605803072 -0.134045631 -0.394064188
v 0.607783377 -0.128099427 -0.394064188
v 0.604370713 -0.123529837 -0.401966572
v 0.610273719 -0.118971013 -0.403950721
v 0.610730529 -0.119123138 -0.407049
v 0.611644089 -0.11942739 -0.413245618
v 0.610883117 -0.11912939 -0.419991314
v 0.614996433 -0.117253855 -0.425462365
v 0.616443694 -0.114431612 -0.428560138
v 0.616748035 -0.10785868 -0.432367176
v 0.618371665 -0.105142251 -0.425656378
v 0.610217392 -0.0988355577 -0.425421327
v 0.611409843 -0.0925609022 -0.428942531
v 0.612445474 -0.0895755142 -0.432188869
v 0.603442073 -0.0795253813 -0.435839564
v 0.61000967 -0.0786223859 -0.430723011
v 0.601672471 -0.0687953457 -0.430870384
v 0.611028612 -0.0655892044 -0.425170302
v 0.604746222 -0.0564941168 -0.424624234
v 0.605744839 -0.0534954816 -0.424624234
v 0.607281744 -0.0473448671 -0.42150116
v 0.607819915 -0.0441928916 -0.418378085
v 0.589825809 -0.0305217579 -0.421627283
v 0.590367377 -0.0273503605 -0.418484986
v 0.588591099 -0.0198718663 -0.416420877
v 0.589961886 -0.0136077572 -0.413332611
v -0.496428013 0.415105551 -0.769831538
v -0.495183915 0.41469124 -0.778270125
v -0.494326353 0.414428234 -0.78683579
v -0.491346538 0.417913735 -0.79514724
v -0.495820582 0.419744313 -0.80549109
v -0.499684304 0.421335489 -0.815654039
v -0.501552224 0.422143191 -0.825164914
v -0.495554775 0.424454957 -0.832478046
v -0.496015757 0.424674332 -0.837077141
v -0.498966157 0.425911754 -0.846977115
v -0.510513842 0.430534661 -0.859858334
v -0.504973412 0.433039069 -0.867337167
v -0.509678423 0.434974402 -0.877905488
v -0.507065892 0.43863821 -0.88640666
v -0.521921277 0.444599718 -0.900599003
v -0.516812444 0.447249711 -0.903761268
v -0.516060352 0.45166859 -0.912954628
v -0.527204633 0.460841507 -0.926425278
v -0.525205433 0.464739949 -0.930704296
v -0.532205641 0.472251236 -0.938233674
v -0.529570103 0.475947261 -0.946809649
v -0.528480947 0.480267525 -0.955950916
v -0.527216136 0.479846299 -0.964529932
v -0.527265191 0.479955494 -0.973594844
v -0.530105114 0.481191486 -0.983703196
v -0.522245228 0.482780218 -0.990340054
v -0.520873547 0.486898988 -0.990340054
v -0.517497718 0.494925946 -0.994629741
v -0.518299222 0.504617929 -0.995961845
v -0.504618466 0.508351922 -0.991850078
v -0.515032113 0.521977305 -0.992265701
v -0.52232939 0.529653251 -0.990979016
v -0.518987656 0.532859087 -0.981169105
v -0.523188591 0.534503758 -0.973655522
v -0.521467268 0.533680201 -0.963949859
v -0.521014929 0.533385575 -0.954721212
v -0.519631207 0.537400842 -0.94566083
v -0.518890738 0.541737199 -0.941364229
v -0.498765767 0.542615652 -0.930544078
v -0.510558665 0.552223206 -0.930792272
v -0.50981915 0.556554019 -0.926501155
v -0.520102561 0.565503955 -0.921642184
v -0.513846755 0.567441165 -0.910848081
v -0.527616024 0.577904224 -0.907174468
v -0.530323744 0.578999519 -0.903597355
v -0.529521942 0.578539014 -0.894246697
v -0.52875042 0.573370218 -0.8844347
v -0.530762076 0.569447339 -0.88012886
v -0.542563975 0.564883709 -0.874204695
v -0.544579268 0.560953796 -0.869891107
v -0.547973871 0.552882135 -0.865577519
v -0.549989164 0.548952222 -0.861263931
v -0.533556044 0.532645404 -0.850195944
v -0.457560927 0.496371895 -0.814994156
v -0.458803952 0.496785879 -0.80656296
v -0.444950193 0.486359 -0.792636335
v -0.445569307 0.486565173 -0.788437068
v -0.446807474 0.486977547 -0.780038536
v -0.441549599 0.484706819 -0.769503117
v -0.442083031 0.484828234 -0.760887742
v -0.442925274 0.485077262 -0.752375603
v -0.442099243 0.48463735 -0.743326724
v -0.444450796 0.490088314 -0.735735059
v -0.44529283 0.490336835 -0.727225304
v -0.446528792 0.490748435 -0.718841851
v 0.564478695 0.0721384361 -0.39209941
v 0.568450332 0.0739355609 -0.387838364
v 0.56968087 0.0803475976 -0.384759098
v 0.550515234 0.0918881744 -0.394426465
v 0.552565217 0.098043479 -0.394426465
v 0.554142535 0.104356155 -0.391221106
v 0.555719912 0.110668838 -0.388015717
v 0.556272328 0.113903873 -0.384810358
v 0.557849705 0.120216556 -0.381604999
v 0.559427083 0.126529232 -0.378399611
v 0.529265165 0.139458448 -0.384359926
v 0.511413872 0.154235676 -0.387111068
v 0.512443304 0.160893261 -0.384032428
v 0.514045 0.167303398 -0.380777568
v 0.514770448 0.170566618 -0.380874157
v 0.516429722 0.176952124 -0.377601445
v 0.518031538 0.183362767 -0.374346346
v 0.515296221 0.188162044 -0.375496894
v 0.516899884 0.194580108 -0.37223801
v 0.517553926 0.201478362 -0.372672796
v 0.519545674 0.204127207 -0.368979126
v 0.520200908 0.211029649 -0.369412482
v 0.521805286 0.217450544 -0.366152167
v 0.494880944 0.236861572 -0.371495277
v 0.496686161 0.243313655 -0.37158525
v 0.497551084 0.246496543 -0.368206412
v 0.496317387 0.254350126 -0.369210899
v 0.497244447 0.261217922 -0.369565815
v 0.500042975 0.267155945 -0.365918666
v 0.500971377 0.274028361 -0.36627242
v 0.503077626 0.280352712 -0.36627242
v 0.503645182 0.283676594 -0.362978995
v 0.505751431 0.290000945 -0.362978995
v 0.497312218 0.301337779 -0.366144359
v 0.479454994 0.317219496 -0.372142553
v 0.481746763 0.32345137 -0.368621975
v 0.483216703 0.330149472 -0.368818432
v 0.478475988 0.339858174 -0.370877624
v 0.471558809 0.350656748 -0.373592585
v 0.470589459 0.358588904 -0.37452507
v 0.482422978 0.360248357 -0.371611953
v 0.484554887 0.366649777 -0.371611953
v 0.385796636 0.423213512 -0.409143597
v 0.388593793 0.42575264 -0.412217915
v 0.396120101 0.425934196 -0.413845778
v 0.39822796 0.428890288 -0.420704782
v 0.399239182 0.428553522 -0.427563787
v 0.401347041 0.431509584 -0.434422791
v 0.402358264 0.431172818 -0.441281825
v 0.406864315 0.432840854 -0.443796217
v 0.407874674 0.432504356 -0.450649351
v 0.409980714 0.435457915 -0.457502455
v 0.410991073 0.435121417 -0.464355558
v 0.412001431 0.434784919 -0.471208662
v 0.413011789 0.434448451 -0.478061795
v 0.444871694 0.422401547 -0.475151628
v 0.445372403 0.422234803 -0.478547871
v 0.432830393 0.428730279 -0.489827842
v 0.424674779 0.433015168 -0.49970296
v 0.416574568 0.437273055 -0.509598672
v 0.412447125 0.435678393 -0.517820835
v 0.413459331 0.435341299 -0.524686456
v 0.415295988 0.434589237 -0.531270087
v 0.419522107 0.432634205 -0.537028134
v 0.409135729 0.434179664 -0.547450721
v 0.409956455 0.433853209 -0.550781012
v 0.420649976 0.428652763 -0.55427742
v 0.410571188 0.430033177 -0.564646661
v 0.415792733 0.427586108 -0.570037663
v 0.408725888 0.427443117 -0.579389572
v 0.412827104 0.42556107 -0.585169673
v 0.417577177 0.423354059 -0.590703011
v 0.410162538 0.423293233 -0.596599698
v 0.411177456 0.422955215 -0.603483737
v 0.415276408 0.421077281 -0.609241724
v 0.409735829 0.420155555 -0.61812222
v 0.410751462 0.419817299 -0.625011086
v 0.411253422 0.419735044 -0.632090807
v 0.412782729 0.419140816 -0.638788879
v 0.413798362 0.418802589 -0.645677805
v 0.403423607 0.420190483 -0.652807117
v 0.404442161 0.419851273 -0.65971601
v 0.405460745 0.419512033 -0.666624904
v 0.406479329 0.419172823 -0.673533797
v 0.407497913 0.418833584 -0.680442691
v 0.410775781 0.41737026 -0.686476052
v 0.416001856 0.414937258 -0.691740334
v 0.417018473 0.414598674 -0.698635995
v 0.41803509 0.414260119 -0.705531597
v 0.419051737 0.413921535 -0.712427258
v 0.401513964 0.418940067 -0.726273477
v 0.402517885 0.418608665 -0.733212113
v 0.403539807 0.418268323 -0.740143597
v 0.404561728 0.41792801 -0.747075081
v 0.405266404 0.417745292 -0.754135728
v 0.405345857 0.417873263 -0.761453509
v 0.414451897 0.417387396 -0.765517592
v 0.409775525 0.419885397 -0.774793684
v 0.410797417 0.419545054 -0.781725109
v 0.411819339 0.419204712 -0.788656592
v 0.412060261 0.419253558 -0.7959162
v 0.420322835 0.419178605 -0.800258398
v 0.420832962 0.419008702 -0.803718626
v 0.420483291 0.419353336 -0.811222374
v 0.422873527 0.418329149 -0.817559481
v 0.42500028 0.421311677 -0.824479938
v 0.436696678 0.415624321 -0.826782584
v 0.42763716 0.42412433 -0.834860563
v 0.439325154 0.418428034 -0.837130189
v 0.430784166 0.426767111 -0.848701417
v 0.439139426 0.426607102 -0.8528772
v 0.439648628 0.426437527 -0.856330991
v 0.441771388 0.429414511 -0.863238513
v 0.443894178 0.432391524 -0.870146096
v 0.451955438 0.428481251 -0.873893678
v 0.44652614 0.435198933 -0.88050741
v 0.445662647 0.439697325 -0.888765633
v 0.454174995 0.439414948 -0.892775238
v 0.456304044 0.438418031 -0.895486951
v 0.458871186 0.441161424 -0.902179062
v 0.461645931 0.447674185 -0.909281254
v 0.463257074 0.450816035 -0.9127298
v 0.467377484 0.452754617 -0.918697953
v 0.468987674 0.45589456 -0.922144413
v 0.470597863 0.459034473 -0.925590932
v 0.473818213 0.465314358 -0.932483912
v 0.465976298 0.473492086 -0.944075644
v 0.459391057 0.477031648 -0.950887442
v 0.457579881 0.47817257 -0.959161818
v 0.45860222 0.477832079 -0.966096282
v 0.463563234 0.479337305 -0.971673131
v 0.461755633 0.480480194 -0.97996521
v 0.458916426 0.482164264 -0.988769472
v 0.460538208 0.485326797 -0.992240727
v 0.472751766 0.486717552 -0.98738569
v 0.474965066 0.49336338 -0.98738569
v 0.479329079 0.498762041 -0.982633412
v 0.471592844 0.510723829 -0.987464726
v 0.474322379 0.517214 -0.99093318
v 0.489654779 0.51690191 -0.988244176
v 0.487563729 0.518135965 -0.992972851
v 0.48376292 0.527929068 -0.992205083
v 0.480525583 0.533507943 -0.990612268
v 0.480618417 0.533242583 -0.983135045
v 0.487074941 0.529520929 -0.972586393
v 0.487539768 0.529054284 -0.964954495
v 0.487625867 0.532713234 -0.958040178
v 0.504917026 0.526989579 -0.942918837
v 0.515627384 0.524931192 -0.934663236
v 0.517314553 0.531683266 -0.931234777
v 0.516653776 0.539729536 -0.928920209
v 0.517245054 0.543192208 -0.925489306
v 0.517836332 0.54665494 -0.922058344
v 0.513563633 0.552703321 -0.91724658
v 0.529070735 0.551660359 -0.903665483
v 0.510843873 0.561698854 -0.908527792
v 0.528651655 0.555448353 -0.893404126
v 0.510502994 0.565348446 -0.894499302
v 0.527728319 0.559404254 -0.879722297
v 0.527224004 0.55957222 -0.876301885
v 0.526215494 0.559908092 -0.86946094
v 0.525206923 0.560243964 -0.862620056
v 0.523104608 0.55729568 -0.855779111
v 0.522096038 0.557631612 -0.848938227
v 0.518900037 0.551399171 -0.842097342
v 0.517301977 0.548282921 -0.83867687
v 0.514610231 0.541882515 -0.835256398
v 0.513516486 0.538598359 -0.835256398
v 0.51082474 0.532198012 -0.831835926
v 0.508637249 0.52562964 -0.831835926
v 0.506449759 0.519061327 -0.831835926
v 0.520909667 0.503490031 -0.824461222
v 0.502579033 0.505756736 -0.835256398
v 0.483615011 0.512074053 -0.843184829
v 0.472750604 0.510105014 -0.847026587
v 0.451462775 0.513442338 -0.848094761
v 0.444780827 0.512973309 -0.846853137
v 0.44511658 0.512592018 -0.839313984
v 0.442983329 0.509600341 -0.832372367
v 0.443567604 0.505171716 -0.82425493
v 0.443056315 0.505341947 -0.820786953
v 0.441133201 0.502242804 -0.813761532
v 0.440110683 0.502583325 -0.806825995
v 0.439088196 0.502923846 -0.799890459
v 0.438065678 0.503264368 -0.792954922
v 0.439142078 0.502498209 -0.785136998
v 0.437012047 0.499511033 -0.778205812
v 0.435990185 0.499851346 -0.771274626
v 0.441613078 0.500699937 -0.765724003
v 0.440592736 0.501039743 -0.758803248
v 0.439572424 0.50137955 -0.751882434
v 0.439947307 0.500984132 -0.744392037
v 0.438927412 0.501323819 -0.737474144
v 0.440217704 0.500446379 -0.729623199
v 0.439342976 0.504611909 -0.723096192
v 0.445804924 0.501002192 -0.713191271
v 0.444787711 0.501340985 -0.706291676
v 0.445382237 0.504822671 -0.702841878
v 0.444365025 0.505161464 -0.695942223
v 0.445962548 0.508011401 -0.68844974
v 0.444945812 0.508350015 -0.681553245
v 0.445031673 0.511999488 -0.674656808
v 0.444014937 0.512338102 -0.667760313
v 0.444100827 0.515987575 -0.660863817
v 0.443592459 0.516156852 -0.657415628
v 0.449797422 0.516543806 -0.64819026
v 0.451687694 0.515332997 -0.640207112
v 0.452280343 0.518803716 -0.636768162
v 0.452365994 0.522443295 -0.629890382
v 0.456304848 0.524118841 -0.625198543
v 0.45692426 0.527467728 -0.618128896
v 0.459451437 0.525902152 -0.609948635
v 0.458950788 0.52984935 -0.603301942
v 0.459542245 0.533312917 -0.599870086
v 0.462301672 0.531614423 -0.591629922
v 0.46635446 0.533096731 -0.583334208
v 0.464389682 0.537936866 -0.580835044
v 0.467410088 0.539969325 -0.572925806
v 0.467395067 0.539871514 -0.569326639
v 0.464922547 0.544885993 -0.563393176
v 0.473059416 0.540245652 -0.553298771
v 0.468673557 0.546298683 -0.548042595
v 0.471405655 0.544595361 -0.539890528
v 0.479689509 0.536002338 -0.529442608
v 0.483970284 0.533568263 -0.524376869
v 0.490469992 0.52982235 -0.514987528
v 0.490554512 0.533413887 -0.508200526
v 0.491139323 0.53683877 -0.504807055
v 0.49107936 0.536658466 -0.497700602
v 0.493012965 0.5353899 -0.489925534
v 0.491324574 0.543797612 -0.484104902
v 0.501050651 0.54219979 -0.477654457
v 0.500053167 0.542531967 -0.470888406
v 0.493777156 0.545763135 -0.465865284
v 0.48780337 0.548827648 -0.460720211
v 0.481617391 0.548149049 -0.455268711
v 0.480615526 0.548482716 -0.448473096
v 0.492418706 0.541802108 -0.437561333
v 0.49148044 0.542101741 -0.43077302
v 0.476825923 0.549912989 -0.428334832
v 0.470002919 0.553434134 -0.423371047
v 0.477530956 0.545350134 -0.417104989
v 0.477342308 0.54138881 -0.409723163
v 0.461873144 0.549608588 -0.407413155
v 0.473850787 0.539123118 -0.399822474
v 0.472765058 0.535654604 -0.392727941
v 0.460987985 0.54183507 -0.389215797
v 0.450993955 0.54704684 -0.385119587
v 0.455113202 0.540739179 -0.376430899
v 0.459548563 0.53437978 -0.371226043
v 0.461158723 0.533302665 -0.363650411
v 0.463827878 0.531654 -0.355774611
v 0.462826967 0.531987309 -0.348985642
v 0.459249318 0.533711731 -0.342943281
v 0.452917397 0.536922574 -0.337682009
v 0.448933542 0.538865447 -0.331727743
v 0.471751451 0.526343703 -0.318166792
v 0.476578087 0.523533225 -0.30976662
v 0.478008002 0.51883918 -0.305549234
v 0.438223839 0.532433867 -0.312529206
v 0.422703266 0.540549159 -0.309724987
v 0.426773727 0.534395993 -0.304737628
v 0.419743061 0.537952423 -0.299545884
v 0.445457041 0.520156682 -0.285150707
v 0.449534088 0.517780781 -0.276990205
v 0.460138202 0.511923671 -0.267108738
v 0.443538368 0.52441901 -0.264768928
v 0.44303757 0.524585783 -0.26137197
v 0.445103616 0.523279905 -0.25377506
v 0.450845808 0.520009875 -0.24523662
v 0.449847132 0.520342469 -0.238462672
v 0.448848456 0.520675063 -0.231688708
v 0.449902356 0.51991117 -0.224394813
v 0.452991456 0.518060446 -0.216598317
v 0.453422189 0.517629981 -0.209481239
v 0.452425778 0.51796186 -0.202722684
v 0.461784542 0.512764454 -0.193428278
v 0.4607912 0.51309526 -0.186690733
v 0.459797889 0.513426065 -0.179953203
v 0.46263203 0.511713862 -0.172302514
v 0.461639851 0.512044311 -0.165572733
v 0.46318242 0.514825404 -0.158500955
v 0.462190658 0.515155673 -0.151774138
v 0.461198926 0.515485942 -0.145047337
v 0.461834222 0.511145115 -0.137704089
v 0.460843295 0.511475146 -0.130982757
v 0.459441066 0.512024522 -0.124353513
v 0.45844999 0.512354553 -0.117631346
v 0.461831063 0.510353267 -0.109948508
v 0.464127064 0.508930981 -0.102520093
v 0.461959273 0.509888828 -0.0960675552
v 0.461917758 0.509713113 -0.0891562179
v 0.461345404 0.506128907 -0.0855914727
v 0.45841381 0.507491469 -0.0792949051
v 0.457366318 0.507851958 -0.0725979954
v 0.456377178 0.508181334 -0.0658888221
v 0.454410791 0.505239248 -0.0591601841
v 0.456480592 0.503946066 -0.0518336594
v 0.457585037 0.499382555 -0.044498805
v 0.456043273 0.500101626 -0.0413588546
v 0.450799048 0.502683043 -0.0354972892
v 0.452997178 0.497543603 -0.0279617589
v 0.452009588 0.497872502 -0.0212632101
v 0.451022029 0.4982014 -0.0145646622
v 0.450195372 0.494665682 -0.00763424579
v 0.449079305 0.495062321 -0.000962163322
v 0.449359894 0.494723529 0.00596756442
v 0.462656319 0.491294175 0.0150672588
v 0.462860674 0.494854331 0.0183338281
v 0.460503608 0.499772459 0.0211397149
v 0.46025762 0.507250905 0.0275647938
v 0.464031875 0.505047143 0.0350795723
v 0.463027269 0.509253383 0.0381365418
v 0.465139985 0.507930517 0.0453427099
v 0.459993988 0.506706178 0.0514770858
v 0.45461759 0.501922607 0.0543448813
v 0.455192834 0.505291402 0.0576827787
v 0.457116097 0.50784564 0.0646656156
v 0.457122028 0.507744789 0.0680842027
v 0.461537093 0.508966982 0.0754649788
v 0.464490056 0.5109604 0.0825917944
v 0.465170622 0.510400116 0.08951395
v 0.465743929 0.513757527 0.092840597
v 0.465269625 0.513813257 0.0995733067
v 0.46870777 0.515535355 0.106744744
v 0.467774719 0.515836656 0.113397427
v 0.468347341 0.519190133 0.116720155
v 0.467668146 0.519355059 0.12341059
v 0.468516052 0.518700182 0.130325183
v 0.468489885 0.522273123 0.136950523
v 0.467889488 0.522395492 0.1436463
v 0.467972189 0.525909603 0.150286943
v 0.466993153 0.52623564 0.156927586
v 0.466014117 0.526561677 0.163568243
v 0.466096818 0.530075788 0.170208886
v 0.465607285 0.530238807 0.173529208
v 0.464628249 0.530564845 0.180169851
v 0.463649243 0.530890882 0.186810508
v 0.463731915 0.534404993 0.193451151
v 0.462752908 0.53473103 0.200091794
v 0.461773872 0.535057068 0.206732452
v 0.461036921 0.539015174 0.213272884
v 0.460216969 0.539357185 0.216553986
v 0.459237605 0.539683342 0.223196924
v 0.458258241 0.540009558 0.229839876
v 0.457278877 0.540335715 0.236482829
v 0.456299514 0.540661871 0.243125781
v 0.45532012 0.540988028 0.249768734
v 0.454211861 0.545149386 0.256281763
v 0.453232139 0.545475721 0.262927085
v 0.452720344 0.545548201 0.269621581
v 0.454482257 0.544387698 0.276548326
v 0.456122369 0.547157526 0.279976726
v 0.455982029 0.547028005 0.286697328
v 0.455812871 0.546914279 0.293411702
v 0.45508644 0.550864935 0.299967557
v 0.454219371 0.551130235 0.306613117
v 0.453939527 0.551075935 0.313312173
v 0.453323811 0.554967046 0.3198829
v 0.453044146 0.554911971 0.326579183
v 0.452964395 0.554747939 0.333289832
v 0.452637762 0.558585107 0.336529434
v 0.452441752 0.55848366 0.343227744
v 0.452177286 0.558419764 0.349917382
v 0.451662987 0.562255085 0.356500804
v 0.452140301 0.561784565 0.363244355
v 0.451401889 0.561979353 0.369891047
v 0.451973051 0.565324187 0.373205215
v 0.450995833 0.565649688 0.379833549
v 0.451624602 0.565094948 0.38657406
v 0.452767164 0.568018734 0.393271118
v 0.452462465 0.567975044 0.399938375
v 0.452544928 0.571479082 0.406560063
v 0.451568693 0.571804225 0.413181752
v 0.451681435 0.575291574 0.419805229
v 0.451163054 0.575470805 0.42311427
v 0.450849861 0.575430572 0.429773659
v 0.452311456 0.578172505 0.436469674
v 0.453128219 0.577507973 0.443182051
v 0.453271747 0.577215254 0.449852973
v 0.452723026 0.581170321 0.453103125
v 0.452866703 0.58087641 0.459770739
v 0.451891929 0.581201017 0.466382593
v 0.451974273 0.584699869 0.472994417
v 0.450999469 0.585024476 0.479606271
v 0.451081812 0.588523328 0.486218095
v 0.450107038 0.588847995 0.492829949
v 0.450132668 0.588617504 0.499477684
v 0.451881647 0.591297269 0.50282377
v 0.453033566 0.590439796 0.509501278
v 0.452060044 0.590764046 0.516104579
v 0.452142268 0.594258368 0.52270788
v 0.451882392 0.594185174 0.529330373
v 0.451964617 0.597678721 0.535932243
v 0.451477945 0.597840786 0.539233148
v 0.452233136 0.597200811 0.545873046
v 0.452315331 0.600692511 0.552471459
v 0.453271031 0.599938869 0.559104621
v 0.453523815 0.603332996 0.565702021
v 0.453037709 0.603494883 0.568999112
v 0.453120351 0.603228211 0.575607181
v 0.453934848 0.606305897 0.582207441
v 0.453107208 0.606548727 0.588799536
v 0.452471673 0.60668385 0.595392346
v 0.452879578 0.609988034 0.601983786
v 0.45261395 0.609915078 0.608575165
v 0.453021049 0.613218248 0.615163267
v 0.452908337 0.613170147 0.6184569
v 0.452052563 0.613428652 0.625043035
v 0.45248419 0.616716802 0.631627858
v 0.45151329 0.617040157 0.638213277
v 0.451244831 0.616967618 0.644793272
v 0.451518446 0.620343566 0.651375473
v 0.451033145 0.620505214 0.654667318
v 0.450062513 0.62082845 0.661251009
v 0.44945696 0.620945632 0.667829335
v 0.449443698 0.624483049 0.67441386
v 0.4487409 0.62465483 0.680992007
v 0.449019313 0.624271929 0.687548876
v 0.448260814 0.628230095 0.694148004
v 0.447563946 0.628398299 0.700723112
v 0.447161019 0.628400147 0.707289338
v 0.446856111 0.63221544 0.710603416
v 0.445877373 0.632543325 0.717185497
v 0.444903135 0.632868707 0.723767519
v 0.443932772 0.633191884 0.730349422
v 0.443693697 0.636857271 0.736942649
v 0.440652221 0.638357222 0.743602514
v 0.439671457 0.638686121 0.750189483
v 0.438635677 0.639046311 0.756778777
v 0.436073422 0.640273452 0.763434291
v 0.434572488 0.640897691 0.770048082
v 0.432213426 0.642009139 0.776704431
v 0.428361177 0.643968165 0.783439457
v 0.426163554 0.644987464 0.79010129
v 0.424629867 0.645629704 0.796732724
v 0.419512361 0.648306012 0.803563297
v 0.421589345 0.646898746 0.810000658
v 0.421505511 0.646718085 0.816553295
v 0.413241029 0.647402942 0.823535502
v 0.41543746 0.646045566 0.826677561
v 0.411778033 0.64789021 0.833458781
v 0.40187797 0.653267205 0.840660095
v 0.396349877 0.652379811 0.847528934
v 0.394358039 0.653277993 0.854239225
v 0.3928065 0.650252402 0.857560158
v 0.387351006 0.64931047 0.864449143
v 0.375871599 0.655542016 0.871877909
v 0.370152652 0.65472728 0.878826737
v 0.36616239 0.652935624 0.885654569
v 0.365669966 0.653099597 0.888994575
v 0.347954988 0.659085214 0.893627763
v 0.334672779 0.658617973 0.901170731
v 0.318245769 0.663802564 0.905767381
v 0.315087259 0.657643318 0.912527978
v 0.313508004 0.654563725 0.915908277
v 0.268912941 0.67507118 0.926392317
v 0.267314315 0.671953797 0.929814041
v 0.265211254 0.669004381 0.936657488
v 0.263612628 0.665886998 0.940079212
v 0.261509538 0.662937641 0.94692266
v 0.25529176 0.662338257 0.950779319
v 0.227932543 0.669209361 0.959951282
v 0.218935758 0.670067191 0.964116871
v 0.215705693 0.663768411 0.971030593
v 0.21460031 0.660449266 0.971030593
v 0.211879894 0.653980792 0.974487484
v 0.183588088 0.665103853 0.980627477
v 0.157119274 0.671332479 0.983064234
v 0.154876962 0.664599597 0.983064234
v 0.152634665 0.657866657 0.983064234
v 0.150392368 0.651133776 0.983064234
v 0.104160674 0.667355359 0.990970731
v 0.0749250278 0.678444624 1.00085604
v 0.0626221076 0.680636942 1.00906527
v 0.0811250061 0.666866064 1.01051295
v 0.08011242 0.663279474 1.01400781
v 0.0584251694 0.670315027 1.02325404
v 0.0551312193 0.667889118 1.02701426
v 0.0469609797 0.663937926 1.03118932
v -0.0099767698 0.684977591 1.04080272
v -0.0128764054 0.678181171 1.0444479
v 0.00929689687 0.662790418 1.0418303
v 0.00313014071 0.657702684 1.04582441
v 0.0050842315 0.652648687 1.04547274
v 0.613806605 -0.0971464142 -0.353178293
v 0.611711621 -0.0897170603 -0.351191878
v 0.61369288 -0.0837679133 -0.351191878
v 0.616130888 -0.0779708698 -0.354289889
v 0.618568957 -0.0721738338 -0.3573879
v 0.605155468 -0.0671192706 -0.364784777
v 0.620550215 -0.0662246868 -0.3573879
v 0.607222915 -0.0578508265 -0.358561546
v 0.555414796 -0.0313960239 -0.375151098
v 0.598982215 -0.044557821 -0.368555456
v 0.599903166 -0.0448645502 -0.37480253
v 0.601034999 -0.0520078577 -0.380355239
v 0.603618085 -0.056339737 -0.382492334
v 0.606818855 -0.064263694 -0.384113431
v 0.61103642 -0.0692104548 -0.382465571
v 0.609582961 -0.0753793642 -0.382296711
v 0.612826109 -0.0833067968 -0.377398521
v 0.608663917 -0.0817967877 -0.372208834
v 0.611834049 -0.0862856284 -0.377398521
v 0.611648381 -0.0895455927 -0.380390853
v 0.612507284 -0.096576795 -0.373009622
v 0.611059725 -0.0993996337 -0.369911194
v 0.611913323 -0.103062011 -0.366097093
v 0.617521167 -0.101808757 -0.358195394
v 0.614817321 -0.0975018218 -0.3561019
v -0.41263926 0.500292897 -0.0457600616
v -0.381836116 0.496171951 -0.0371449739
v -0.260059595 0.453424007 -0.0183396433
v -0.238011539 0.452649891 -0.0152556077
v -0.204688624 0.447019786 -0.0143587384
v -0.184106693 0.4467417 -0.0154349348
v -0.183536932 0.446551949 -0.0192995835
v -0.173208505 0.446452141 -0.0257316101
v -0.172527865 0.446270376 -0.0335207768
v -0.177173063 0.44838652 -0.042201791
v -0.16896148 0.449134707 -0.0449873544
v -0.149201468 0.448965967 -0.038142819
v -0.128476635 0.448474973 -0.0429186039
v -0.126690775 0.451957494 -0.0467411019
v -0.109735228 0.448779941 -0.047962103
v -0.107394949 0.452061951 -0.0555773973
v -0.0725492388 0.445099324 -0.0538219288
v -0.0613722093 0.444366097 -0.0559442453
v -0.0578521751 0.451230347 -0.0634786263
v -0.0527039431 0.45308584 -0.0627770051
v -0.022488879 0.447894275 -0.0616610721
v -0.0280156359 0.454570919 -0.0667073578
v 0.0081224991 0.446502477 -0.0606263205
v 0.0144305676 0.451839924 -0.0599167272
v 0.00521653797 0.464313865 -0.0658245012
v 0.00759467576 0.47145465 -0.0658245012
v 0.00997281354 0.478595436 -0.0658245012
v 0.0205739141 0.481928349 -0.0643296167
v 0.0322752446 0.484713346 -0.0626327097
v 0.0475365035 0.485793352 -0.0602856614
v 0.064117372 0.486122966 -0.0539227612
v 0.0732379407 0.489908159 -0.0489309877
v 0.0811745077 0.486088753 -0.0437451862
v 0.104154773 0.483179122 -0.0325780809
v 0.109178834 0.484836727 -0.0318933278
v 0.211471096 0.444102764 -0.0141531825
v 0.225649208 0.445250809 -0.0156517494
v 0.230065599 0.447051972 -0.0150640188
v 0.261201799 0.439941615 -0.0134837795
v 0.252650201 0.448050141 -0.0188165419
v 0.282016516 0.4416641 -0.0174750499
v 0.291337609 0.444869906 -0.0161823463
v 0.294066668 0.451358914 -0.0196501706
v 0.315014631 0.44493258 -0.0160137098
v 0.333417118 0.443552762 -0.0130428877
v 0.33440733 0.443226486 -0.0199108049
v 0.330940306 0.441180229 -0.0238788538
v 0.331122369 0.445094079 -0.031112209
v 0.336493909 0.446442217 -0.0373643711
v 0.341134161 0.447980583 -0.0366888382
v 0.353347331 0.449654788 -0.0382935442
v 0.355449647 0.452603072 -0.0451344848
v 0.363719225 0.4523772 -0.0472536124
v 0.373844951 0.451288998 -0.0524983704
v 0.3748492 0.450954556 -0.0593099184
v 0.376942456 0.453890175 -0.0661214665
v 0.377444595 0.453722954 -0.0695272461
v 0.378731877 0.453245997 -0.0762809142
v 0.38842833 0.452344805 -0.0815211609
v 0.389430225 0.452011138 -0.0883169025
v 0.390432119 0.451677471 -0.0951126441
v 0.391434014 0.451343805 -0.101908393
v 0.395356685 0.449535757 -0.108076595
v 0.397485942 0.448632807 -0.114621736
v 0.394822896 0.446339935 -0.121973865
v 0.397274196 0.445275962 -0.128446251
v 0.398503691 0.444827467 -0.135185167
v 0.243530199 0.519111872 -0.176836535
v 0.217404842 0.528151035 -0.178766057
v 0.207043871 0.529243886 -0.177128106
v 0.198448092 0.529435396 -0.175079465
v 0.187145948 0.526930451 -0.173358753
v 0.173682705 0.529494584 -0.172345579
v 0.138237759 0.538833499 -0.17585209
v 0.110336229 0.54431814 -0.177644342
v 0.0993055329 0.545543849 -0.175988615
v 0.0871345103 0.547221184 -0.170753032
v 0.0703976527 0.547056496 -0.170008495
v 0.0786009133 0.538942933 -0.168012276
v 0.0673859268 0.536051989 -0.166077659
v 0.0501126871 0.536039293 -0.165398002
v 0.0259892978 0.543404043 -0.166367874
v 0.0422749966 0.527302742 -0.162462637
v 0.0271805413 0.52613306 -0.161274686
v -0.0142208552 0.541554272 -0.165748045
v 0.0154549163 0.519159198 -0.159114778
v -0.0202655904 0.52757442 -0.162115321
v -0.0494810119 0.537014902 -0.163958803
v -0.070856005 0.538490713 -0.16389969
v -0.052677352 0.521583736 -0.159709692
v -0.0787738413 0.525166392 -0.16058369
v -0.10385064 0.528177679 -0.161199823
v -0.0909740627 0.518015683 -0.158366904
v -0.103186958 0.51505965 -0.156378254
v -0.0616230704 0.487681657 -0.147593334
v -0.126086906 0.512661457 -0.156245962
v -0.0636598021 0.475970358 -0.143372908
v -0.109595284 0.488172591 -0.148055077
v -0.0700998381 0.462063402 -0.139786899
v -0.128465042 0.479604989 -0.146849662
v -0.0711129159 0.44574517 -0.135135382
v -0.138629839 0.471326649 -0.144155309
v -0.0943417251 0.443389356 -0.135054827
v -0.130834132 0.450914741 -0.137732342
v -0.0778605193 0.419430077 -0.127012238
v -0.143948734 0.443895608 -0.135599673
v -0.107179254 0.419568866 -0.128059119
v -0.0729605258 0.396506876 -0.121018015
v -0.110552922 0.404249281 -0.123857595
v -0.063219741 0.375771344 -0.114359513
v -0.0925140232 0.379885733 -0.115598679
v -0.443351567 0.523785591 -0.177671522
v -0.447714567 0.521000266 -0.169763938
v -0.448912054 0.521397412 -0.161508158
v -0.449865699 0.521691859 -0.153207928
v -0.447436005 0.520562172 -0.144297764
v -0.447249293 0.520376742 -0.135802761
v -0.446360469 0.519895911 -0.127189398
v -0.44289723 0.518331707 -0.118134998
v -0.444098204 0.518730581 -0.109904259
v -0.44227162 0.517855406 -0.101157106
v -0.440278649 0.516910434 -0.0923940465
v -0.438752651 0.516162097 -0.0837215632
v -0.439963222 0.516565204 -0.0755104348
v -0.424531668 0.505491614 -0.0643806159
v -0.423310071 0.504926801 -0.0599977784
v -0.417426288 0.502353609 -0.0506939813
v 0.554845452 0.0112984814 0.263186783
v 0.500356555 0.0395584218 0.260146976
v 0.502366781 0.0455944799 0.260146976
v 0.504377007 0.0516305417 0.260146976
v -0.528172672 0.473792434 0.142516881
v -0.530578077 0.474844307 0.133833885
v -0.535166562 0.472219557 0.129253104
v -0.533902109 0.471795559 0.12096867
v -0.529758096 0.470216215 0.113022514
v -0.527668357 0.469461054 0.104842551
v -0.530510128 0.466174424 0.0962284207
v -0.528109252 0.465295643 0.0880865157
v -0.525825858 0.46446383 0.0799345225
v -0.524604738 0.464057118 0.0716516078
v -0.511750877 0.463448197 0.0689098537
v -0.505767584 0.461130053 0.0612681732
v -0.500873923 0.459249049 0.0535012409
v -0.511920929 0.45926702 0.0437886454
v -0.505552173 0.456799328 0.0362223499
v -0.514852762 0.460604995 0.0265144035
v -0.512309134 0.464172214 0.0182373412
v -0.475765735 0.454012215 0.0189791005
v -0.486872286 0.458566904 0.00900775194
v -0.49922356 0.459127337 -0.00100120949
v -0.498006105 0.458721876 -0.00925890449
v -0.506647885 0.462275177 -0.0189841427
v -0.501682043 0.460364759 -0.0266959518
v -0.504654646 0.461641997 -0.0356059559
v -0.499243706 0.459552705 -0.0432349518
v -0.505065799 0.457467467 -0.0524006635
v -0.504455388 0.457264185 -0.05654094
v -0.508753419 0.459068358 -0.0657026991
v -0.500946045 0.456023306 -0.0729294419
v -0.496953636 0.454506367 -0.0807543546
v -0.508692861 0.454778075 -0.0909540132
v -0.507469833 0.454370767 -0.0992496461
v -0.517864764 0.454082847 -0.109289475
v -0.515595555 0.453258753 -0.11742615
v -0.505372405 0.449264079 -0.124179102
v -0.508125305 0.445887893 -0.128682569
v -0.520462573 0.450871974 -0.13937439
v -0.519235015 0.450463176 -0.147700712
v -0.527970254 0.449480057 -0.157583222
v -0.144549266 0.293368071 -0.0960386992
v -0.136679292 0.286135495 -0.0943836793
v -0.105017863 0.265480369 -0.0881781355
v -0.0897878557 0.251381218 -0.0849698335
v -0.178594857 0.277710348 -0.0967558324
v -0.112456337 0.243887588 -0.0843608528
v 0.569775939 -0.0262452383 0.0424737781
v 0.570405245 -0.0265101455 0.0457646064
v 0.57032603 -0.0265262183 0.052103471
v 0.569795012 -0.0263687782 0.058360111
v 0.568113148 -0.0224164203 0.0642455071
v 0.567200124 -0.0221123639 0.0704381615
v 0.56628716 -0.0218083076 0.0766308084
v 0.566364288 -0.0185313001 0.0828234628
v 0.565451324 -0.0182272438 0.0890161097
v 0.5645383 -0.0179231875 0.0952087641
v 0.56507194 -0.01479821 0.0983050913
v 0.564158916 -0.0144941537 0.104497738
v 0.563360691 -0.0142344953 0.11070852
v 0.562447727 -0.0139304502 0.116900951
v 0.562410116 -0.0106090344 0.123075694
v 0.561611891 -0.0103495158 0.129285812
v 0.560698986 -0.0100454697 0.135478243
v 0.562315702 -0.0107227387 0.142045707
v 0.561403453 -0.010418932 0.14823328
v 0.560966194 -0.0102993501 0.154489383
v 0.561024427 -0.00699271401 0.157514617
v 0.560112178 -0.00668890774 0.16370219
v 0.560503125 -0.00689188158 0.170071498
v 0.561952591 -0.00750646181 0.176581249
v 0.562498271 -0.00776953157 0.182959244
v 0.561913073 -0.00759280194 0.189180464
v 0.563618064 -0.00830654521 0.195701867
v 0.562733054 -0.0080132084 0.201877177
v 0.56182313 -0.00771016488 0.208049208
v 0.560913205 -0.00740712089 0.214221239
v 0.560226619 -0.00719092553 0.220420942
v 0.561769545 -0.00784140639 0.226891428
v 0.561932385 -0.00795534626 0.233186886
v 0.558958232 -0.0035039417 0.238991737
v 0.558048487 -0.00320096337 0.245162427
v 0.558519125 -0.00343595771 0.251490623
v 0.553780556 0.00506213494 0.257007629
v 0.554313004 0.00818030816 0.260097206
v -0.538945615 0.0277647413 0.257727802
v -0.52992624 0.0335425548 0.262317955
v -0.533820629 0.0431535505 0.257727802
v -0.52625674 0.0493286178 0.258146942
v -0.523697197 0.0570140928 0.258146942
v -0.521137655 0.0646995679 0.258146942
v -0.525099099 0.0701459348 0.253649801
v -0.517772555 0.0763619095 0.254054338
v -0.514868438 0.0839417651 0.254083574
v -0.512308478 0.0916285291 0.254083574
v -0.517705798 0.101824947 0.249345437
v -0.514978647 0.109475389 0.249359384
v -0.511694014 0.116946474 0.249421373
v -0.506868303 0.123917617 0.249616221
v -0.517404795 0.135860577 0.244414836
v -0.516119123 0.139721096 0.244414836
v -0.513547719 0.147442147 0.244414836
v -0.514095306 0.156191021 0.244142532
v -0.514675379 0.164963111 0.243867069
v -0.512366891 0.172784388 0.243843764
v -0.509525061 0.180427775 0.243867069
v -0.506949961 0.188160121 0.243867069
v -0.504374802 0.195892453 0.243867069
v -0.502065659 0.203715652 0.243843764
v -0.506350577 0.213805482 0.243242308
v -0.506313145 0.222429201 0.243019298
v -0.503732204 0.230179012 0.243019298
v -0.492044121 0.234734863 0.247897893
v -0.48951754 0.242484182 0.247893676
v 0.497244209 -0.0978557914 0.330361724
v 0.494331181 -0.100134589 0.323910743
v 0.501339197 -0.102597147 0.321404636
v 0.496225804 -0.104101241 0.314748704
v 0.492069393 -0.105951063 0.308164269
v 0.493532747 -0.106456146 0.305157095
v 0.497018546 -0.107662365 0.299203038
v 0.497932553 -0.107966766 0.29300335
v 0.507034481 -0.107825831 0.287532598
v 0.516298234 -0.107756637 0.282106638
v 0.520590603 -0.10595338 0.279317677
v 0.485941738 -0.0869832709 0.269164562
v 0.485321701 -0.0834006444 0.265822917
v 0.48777771 -0.0775607973 0.262702048
v 0.489235789 -0.0747174919 0.259581149
v 0.490825355 -0.071908839 0.253302813
v 0.492283583 -0.0690652505 0.250181615
v 0.494201958 -0.0663749054 0.243939191
v 0.492915809 -0.0625324845 0.24050194
v 0.494835794 -0.0598399006 0.234254315
v 0.495364845 -0.0600035638 0.227960005
v 0.495521814 -0.0600314029 0.221619144
v 0.495664388 -0.0566870086 0.215150654
v 0.496586293 -0.0569940396 0.208897442
v 0.495448083 -0.0599160306 0.202509746
v 0.495462686 -0.0599065982 0.19932507
v 0.496385008 -0.0602137707 0.193068981
v 0.49730736 -0.0605209395 0.186812893
v 0.497971922 -0.0607340112 0.180522367
v 0.495174646 -0.0630548522 0.173897251
v 0.496820211 -0.0636252984 0.167734802
v 0.498588055 -0.0642402843 0.1615922
v 0.496481419 -0.0668296069 0.158242851
v 0.498126686 -0.0673992187 0.152083829
v 0.497320384 -0.0704483837 0.145718426
v 0.498249769 -0.070758082 0.139457554
v 0.496722817 -0.0735614672 0.136181459
v 0.498190612 -0.0740655288 0.129998922
v 0.497458965 -0.0771442279 0.123637661
v 0.497131675 -0.0803694203 0.117335707
v 0.498991668 -0.0810131878 0.111216336
v 0.49751544 -0.0838381499 0.107939214
v 0.499375343 -0.0844809264 0.101822518
v 0.499297351 -0.0877949148 0.095559977
v 0.497821182 -0.0906218141 0.0922783911
v 0.499680996 -0.0912626535 0.0861661658
v 0.499644995 -0.0945915431 0.0799105242
v 0.499813527 -0.0979927331 0.073689051
v 0.498278618 -0.10080146 0.0703916326
v 0.498200595 -0.104116164 0.0641277432
v 0.499252349 -0.107827254 0.0580570512
v 0.501660228 -0.108663835 0.0552609228
v -0.221369192 0.136847243 -0.0765024498
v -0.212227747 0.125498787 -0.0744900331
v -0.258659661 0.137469217 -0.0783949345
v -0.261121571 0.13007693 -0.0783949345
v -0.249596521 0.117905743 -0.0759822577
v -0.242964402 0.107453294 -0.0744160116
v -0.24898839 0.101310492 -0.0750321224
v -0.245825559 0.0920703486 -0.0740657002
v -0.232001543 0.0792970061 -0.071265921
v -0.27626434 0.0858472288 -0.0745118707
v -0.277798057 0.078149505 -0.0743532628
v -0.239168942 0.0573032312 -0.0673354194
v -0.230852321 0.0464881882 -0.0655000359
v -0.230688542 0.0383534543 -0.065057613
v -0.280300021 0.0503188744 -0.0693721846
v -0.270693034 0.0390751287 -0.0673277974
v -0.266681671 0.0296615902 -0.0662335455
v -0.254510075 0.0176920034 -0.0637594536
v -0.247351691 0.00735718431 -0.0621363483
v -0.223507911 -0.00815178826 -0.057694532
v -0.201986089 -0.0228349529 -0.0536503643
v -0.208829135 -0.0286745895 -0.054400377
v -0.192716703 -0.0415657908 -0.0512758754
v -0.224278837 -0.0398542061 -0.0523333699
v -0.174281806 -0.0629397333 -0.043551147
v -0.219555736 -0.0571929924 -0.0507351868
v -0.2214019 -0.0645781308 -0.0506418049
v -0.240973681 -0.066705741 -0.0535136089
v -0.257112712 -0.0698907673 -0.0519277081
v -0.297640294 -0.0619867854 -0.0584607236
v -0.246139795 -0.0850574225 -0.0495021939
v -0.249953061 -0.0918980092 -0.0497345589
v -0.297765881 -0.086115554 -0.0611757264
v -0.296567798 -0.0944862664 -0.0605689101
v -0.276744694 -0.108125739 -0.0568594113
v -0.277957708 -0.111768059 -0.0568594113
v -0.286394119 -0.117365532 -0.0578599945
v -0.286108762 -0.125417754 -0.0574082807
v -0.307167828 -0.127551436 -0.0605062023
v -0.269868076 -0.145796925 -0.0539024621
v -0.278469741 -0.1513616 -0.0549298674
v -0.264568388 -0.163081586 -0.0560811497
v -0.241056785 -0.177253902 -0.0479211807
v -0.242253765 -0.180848047 -0.0479211807
v -0.315163463 -0.16927506 -0.0596079901
v -0.270644695 -0.188990742 -0.0518306606
v -0.269967854 -0.193139657 -0.0553751215
v -0.601394057 -0.110096283 -0.102014013
v -0.60129267 -0.105789028 -0.0938744769
v -0.590508282 -0.10858538 -0.0879629403
v -0.626178622 -0.0905632079 -0.0857746452
v -0.601089954 -0.0971745253 -0.0775953978
v -0.589606524 -0.0958964974 -0.0676669702
v -0.625269175 -0.0777666494 -0.0653064474
v -0.589503169 -0.0873167366 -0.0555970557
v -0.603824854 -0.0748760775 -0.0498763733
v -0.600216687 -0.0758127719 -0.0451636501
v -0.603021204 -0.066451706 -0.0376530029
v -0.602919757 -0.0621394925 -0.0295040924
v -0.603520453 -0.0619394369 -0.0254296362
v -0.589259386 -0.0615074262 -0.0152251078
v -0.602716804 -0.0535150617 -0.0132062668
v -0.602615297 -0.0492028482 -0.00505735446
v -0.602915168 -0.0447794683 0.00303514977
v -0.614731312 -0.0371539034 0.00953184348
v -0.587645173 -0.0446505547 0.0174318515
v -0.591574073 -0.0392291471 0.0250045341
v -0.55648005 -0.0489556603 0.0379954502
v -0.59207201 -0.0347285531 0.0371962786
v -0.549625635 -0.0465499014 0.0510500297
v -0.552936852 -0.0413332023 0.0586555004
v -0.546884537 -0.0429721437 0.0676311851
v -0.55001837 -0.0378361046 0.0711667836
v -0.547580659 -0.0384630039 0.0796651989
v -0.547480524 -0.0342084393 0.0877051651
v -0.544227779 -0.035069678 0.0962816775
v -0.547339499 -0.0299073663 0.103931077
v -0.545311868 -0.0304251239 0.112345129
v -0.547831893 -0.0254566856 0.115987606
v -0.545803905 -0.0259777457 0.124392711
v -0.548916757 -0.0208086818 0.132062986
v -0.544749141 -0.0219449177 0.140692741
v -0.546787977 -0.0170829929 0.148487881
v -0.545240939 -0.0174997393 0.152734369
v -0.545082688 -0.017490685 0.160904244
v -0.546324492 -0.0128574828 0.168789864
v -0.547508001 -0.0124633238 0.176817611
v -0.546774328 -0.0126213757 0.185037687
v -0.548591554 -0.00782106537 0.19287312
v -0.546467483 -0.00838289596 0.201220304
v -0.546367586 -0.00413804268 0.209241927
v -0.546958923 -0.00394111406 0.213252723
v -0.548141539 -0.00354725611 0.221274346
v -0.548041642 0.000697596872 0.229295969
v -0.548927248 0.00100501406 0.237343773
v -0.54912436 0.00533630745 0.2453392
v -0.549396634 0.00544007542 0.249377251
v -0.550146103 0.0141389286 0.253157675
v -0.537499309 0.0146627482 0.258169949
v -0.534939945 0.0223477334 0.258169949
g path_000000
l 18 17 16 15 1366 1365 1364
g path_000001
l 19 20 21 22 23 24 25
g path_000002
l 26 27 28 29 30 31 32 33 34 35 36 37 38 39 40 41 42 43
g path_000003
l 44 45 46 47 48 49 50 51 52 53 54
g path_000004
l 55 56 57 58 59 60 61 62 63 64 65 66 67 68 69 70 71 72 73 74 75 76 77 78 79 80 81 82 83 84 85 86 87 88 89 90 91 92 93 94 95 96 97 98 99 100 101 102 103 104 105 106 107 108 109 110 111 112 113 114 115 116 117 118 119 120 121 122 123 124 125 126 127 128 129 130 131 132 133 134 135 136 137 138 139 140
g path_000005
l 141 142 143 144 145 146 147 148 149 150
g path_000006
l 151 152 153 154 155 156 157 158 159 160 161 162 163 164 165 166 167 168 169 170 171 172 173 174 175 176 177 178 179 180 181 182 183 184 185 186 187 188 189 190 191 192 193 194 195 196 197 198 199 200 201 202 203 204 205 206 207 208 209 210 211 212 213 214 215 216 217 218
g path_000007
l 219 220 221 222 223 224 225 226 227 228 229 230 231 232 233 234 235 236 237 238 239 240 241 242 243 244 245 246 247 248 249 250 251 252 253 254 255 256 257 258 259 260 261 262 263 264 265
g path_000008
l 266 267 268 269 270 271 272 273
g path_000009
l 274 275 276
g path_000010
l 279 280
g path_000011
l 281 282 283 284 285
g path_000012
l 286 287 288 289
g path_000013
l 290 291 292 293
g path_000014
l 294 295
g path_000015
l 296 297
g path_000016
l 299 300
g path_000017
l 303 304 305
g path_000018
l 308 309
g path_000019
l 312 313
g path_000020
l 314 315
g path_000021
l 317 318
g path_000022
l 320 321
g path_000023
l 325 326 327
g path_000024
l 329 330
g path_000025
l 331 332 333 334 335 336 337 338
g path_000026
l 340 341 342 343
g path_000027
l 344 345 346 347 348
g path_000028
l 349 350 351
g path_000029
l 353 354 355
g path_000030
l 356 357 358
g path_000031
l 360 361
g path_000032
l 363 364 365 366
g path_000033
l 367 368 369
g path_000034
l 370 371 372 373 374 375
g path_000035
l 376 377
g path_000036
l 378 379 380 381 382 383 384
g path_000037
l 385 386 387 388 389 390 391 392 393 394 395 396 397 398 399 400 401 402 403 404
g path_000038
l 405 406 407 408 409 410 411 412 413 414 415 416 417 418 419 420 421 422 423 424 425 426 427 428 429 430 431 432 433 434 435 436 437 438 439 440 441 442 443
g path_000039
l 444 445 446 447 448 449 450 451 452 453 454 455 456 457 458 459 460 461 462 463 464 465 466 467 468 469 470 471 472 473 474
g path_000040
l 475 476 477 478
g path_000041
l 480 481 482
g path_000042
l 485 486 487
g path_000043
l 488 489 490 491 492 493 494 495 496 497 498 499 500 501 502 503 504 505 506 507 508 509 510 511 512 513 514 515 516 517 518 519 520 521 522 523 524 525 526 527 528 529 530 531 532 533 534 535 536 537 538 539 540 541 542 543 544 545 546 547 548 549 550 551 552 553 554 555 556 557 558 559 560 561 562 563 564 565 566 567 568 569 570
g path_000044
l 571 572 573 574 575
g path_000045
l 576 577 578 579 580 581 582 583 584 585 586 587 588 589 590 591 592 593 594
g path_000046
l 595 596 597 598 599 600 601 602 603 604 605 606 607 608 609 610 611 612 613 614 615
g path_000047
l 616 617 618 619 620 621 622 623 624 625 626 627 628 629 630 631 632 633 634 635 636 637 638 639 640 641 642 643 644 645 646 647 648 649 650 651 652 653 654 655 656 657 658 659 660 661 662 663 664 665 666 667 668 669 670 671 672 673 674 675 676 677 678 679 680 681 682 683 684 685 686 687 688 689 690 691 692 693 694 695 696 697 698 699 700 701 702 703 704 705 706 707 708 709 710 711 712 713 714 715 716 717 718 719 720 721 722
g path_000048
l 723 724 725 726 727 728 729 730 731 732 733 734 735 736 737 738 739 740 741 742 743 744 745 746 747 748 749 750 751 752 753 754 755 756 757 758 759 760 761 762 763 764 765 766 767 768 769 770 771
g path_000049
l 772 773
g path_000050
l 777 778 779 780 781 782 783 784 785 786 787 788 789 790 791 792 793 794 795 796 797 798 799 800 801 802 803 804 805 806 807 808 809 810 811 812
g path_000051
l 813 814 815 816
g path_000052
l 817 818 819 820 821 822 823 824 825 826 827 828 829 830 831 832 833 834 835 836 837 838 839 840 841 842 843 844 845 846 847 848 849 850 851 852 853 854 855 856 857 858 859 860 861 862 863 864 865 866 867 868 869
g path_000053
l 870 871 872 873 874 875 876 877 878 879 880 881
g path_000054
l 882 883 884
g path_000055
l 885 886 887 888 889 890 891
g path_000056
l 893 894 895 896 897 898 899 900 901 902 903 904
g path_000057
l 905 906 907 908 909 910 911 912 913 914 915
g path_000058
l 916 917 918 919 920 921 922 923
g path_000059
l 924 925 926 927 928 929 930 931 932 933 934 935 936
g path_000060
l 937 938 939 940 941 942 943 944 945 946 947 948 949 950 951 952 953 954 955 956 957 958 959 960 961 962 963 964 965 966 967 968 969 970 971
g path_000061
l 972 973 974 975 976 977 978 979 980 981 982 983 984 985 986 987 988 989 990 991 992 993 994 995 996 997 998 999 1000 1001 1002 1003 1004 1005 1006 1007 1008 1009 1010 1011 1012 1013 1014 1015 1016 1017 1018 1019 1020 1021 1022 1023 1024 1025 1026 1027 1028
g path_000062
l 1029 1030 1031 1032 1033 1034 1035 1036
g path_000063
l 1038 1039
g path_000064
l 1040 1041 1042 1043 1044 1045 1046 1047 1048 1049 1050 1051 1052
g path_000065
l 1055 1056
g path_000066
l 1057 1058 1059 1060 1061 1062 1063 1064 1065 1066 1067 1068 1069 1070 1071 1072 1073 1074 1075 1076 1077 1078 1079 1080 1081 1082 1083 1084 1085 1086 1087 1088 1089 1090 1091 1092 1093 1094 1095 1096 1097 1098 1099 1100 1101 1102 1103 1104 1105 1106 1107 1108 1109 1110 1111 1112 1113 1114 1115 1116 1117 1118 1119 1120 1121 1122 1123 1124 1125 1126 1127 1128 1129 1130 1131 1132 1133 1134 1135 1136 1137
g path_000067
l 1138 1139 1140
g path_000068
l 1141 1142 1143 1144
g path_000069
l 1145 1146 1147
g path_000070
l 1148 1149 1150 1151 1152 1153 1154 1155 1156 1157 1158 1159 1160 1161 1162 1163 1164 1165 1166 1167 1168 1169 1170 1171 1172 1173 1174 1175 1176 1177 1178 1179 1180 1181 1182 1183 1184 1185 1186 1187 1188 1189 1190 1191 1192 1193 1194 1195 1196 1197 1198 1199 1200 1201 1202 1203 1204 1205 1206 1207 1208 1209 1210 1211 1212 1213 1214 1215 1216 1217 1218 1219 1220 1221 1222 1223 1224 1225 1226 1227 1228 1229 1230 1231 1232 1233 1234 1235 1236 1237 1238 1239 1240 1241 1242 1243 1244 1245 1246 1247 1248 1249 1250 1251 1252 1253 1254 1255 1256 1257 1258 1259 1260 1261 1262 1263 1264 1265 1266 1267 1268 1269 1270 1271 1272 1273 1274 1275 1276 1277 1278 1279 1280 1281 1282 1283 1284 1285 1286 1287 1288 1289 1290 1291 1292 1293 1294 1295 1296 1297 1298 1299 1300 1301 1302 1303 1304 1305 1306 1307 1308 1309 1310 1311 1312 1313 1314 1315 1316 1317 1318 1319 1320 1321 1322 1323 1324 1325 1326 1327 1328 1329 1330 1331 1332 1333 1334 1335 1336 1337
g path_000071
l 1338 1339 1340 1341 1342 1343
g path_000072
l 1344 1345 1346 1347 1348
g path_000073
l 1350 1351 1352 1353
g path_000074
l 1355 1356
g path_000075
l 1357 1358
g path_000076
l 1359 1360 1361
g path_000077
l 1362 1363
g path_000078
l 1374 1373 1372 1371 1370 1369 1368 1367 1391 1390 1389 1388 1387 1386 1385 1384 1383 1382 1381 1380 1379 1378 1377 1376
g path_000079
l 1392 1518 1517 1516 1515 1514 1513 1512 1511 1510 1509 1508 1507 1506 1505 1504 1503
g path_000080
l 1394 1395
g path_000081
l 1396 1397 1398 1399 1400 1401 1402 1403 1404 1405 1406 1407
g path_000082
l 1408 1409 1410 1411
g path_000083
l 1412 1413
g path_000084
l 1414 1415 1416 1417 1418 1419 1420 1421 1422 1423 1424
g path_000085
l 1425 1426
g path_000086
l 1427 1428 1429
g path_000087
l 1430 1431
g path_000088
l 1432 1433 1434
g path_000089
l 1435 1436 1437 1438 1439 1440 1441 1442 1443 1444 1445 1446 1447 1448 1449 1450 1451 1452 1453 1454 1455 1456 1457 1458
g path_000090
l 1460 1461 1462 1463 1464
g path_000091
l 1466 1467 1468 1469 1470 1471 1472
g path_000092
l 1474 1475
g path_000093
l 1479 1480
g path_000094
l 1483 1484 1485
g path_000095
l 1519 1605 1604 1603 1602 1601 1600 1599 1598 1597 1596 1595 1594 1593 1592 1591 1590 1589 1588 1587 1586 1585 1584 1583 1582 1581 1580 1579 1578 1577 1576 1575 1574 1573 1572 1571 1570 1569 1568
g path_000096
l 1520 1521 1522
g path_000097
l 1523 1524 1525 1526 1527 1528 1529 1530 1531 1532 1533 1534 1535 1536 1537 1538 1539
g path_000098
l 1540 1541 1542 1543 1544 1545 1546 1547 1548 1549 1550 1551 1552 1553 1554 1555 1556 1557 1558 1559 1560 1561
g path_000099
l 1562 1563
g path_000100
l 1564 1565
g path_000101
l 1634 1633 1632 1631 1630 1629 1628 1627 1626 1625 1624 1623 1622 1621 1620 1619 1618 1617 1616 1615 1614 1613 1612 1611 1610 1609 1608 1607 1606 1786 1785 1784 1783 1782 1781 1780 1779 1778 1777 1776 1775 1774 1773 1772 1771 1770 1769 1768 1767 1766 1765 1764 1763 1762 1761 1760 1759 1758 1757 1756
g path_000102
l 1635 1636 1637 1638 1639 1640 1641 1642 1643 1644 1645
g path_000103
l 1646 1647 1648 1649 1650 1651 1652 1653 1654 1655 1656 1657 1658 1659 1660 1661 1662 1663 1664 1665 1666 1667 1668 1669 1670 1671 1672 1673 1674 1675 1676 1677 1678 1679 1680 1681 1682 1683 1684 1685 1686
g path_000104
l 1687 1688
g path_000105
l 1689 1690 1691 1692 1693 1694 1695
g path_000106
l 1696 1697
g path_000107
l 1698 1699 1700
g path_000108
l 1701 1702 1703 1704 1705
g path_000109
l 1707 1708 1709
g path_000110
l 1712 1713 1714 1715
g path_000111
l 1717 1718
g path_000112
l 1719 1720
g path_000113
l 1721 1722 1723 1724 1725
g path_000114
l 1726 1727 1728
g path_000115
l 1729 1730
g path_000116
l 1732 1733
g path_000117
l 1734 1735 1736
g path_000118
l 1738 1739
g path_000119
l 1741 1742 1743 1744 1745 1746 1747 1748 1749 1750 1751
g path_000120
l 1752 1753
g path_000121
l 1 2 3 4 5 6 7 8 9 10 11 12 13 14 1
