# Fixed world centers; Z up; paths immutable
v -0.109297045 0.891050816 0.685810328
v -0.117387801 0.906132877 0.672724903
v -0.124951057 0.906779826 0.672332704
v -0.128575951 0.900289774 0.671921194
v -0.128267512 0.886872232 0.671394467
v -0.127879724 0.871306837 0.67217952
v -0.127536371 0.856981874 0.672271907
v -0.132028699 0.872009993 0.65483886
v -0.139660686 0.874822974 0.653144002
v -0.147179365 0.874646604 0.653237522
v -0.154716522 0.874906838 0.653069913
v -0.162231609 0.874660313 0.653205395
v -0.169750735 0.874517322 0.653279006
v -0.177266061 0.874308407 0.653392017
v -0.184741557 0.873346806 0.6539554
v -0.192259312 0.873239756 0.654007494
v -0.1918194 0.860002995 0.653458416
v -0.191341013 0.846076488 0.653361499
v -0.190868735 0.832286358 0.653221667
v -0.190346703 0.817602336 0.653664052
v -0.192120641 0.779761076 0.672459245
v -0.191658482 0.766412079 0.672222078
v -0.191173896 0.752681077 0.672257006
v -0.190624088 0.737799287 0.673040032
v -0.190055728 0.722610474 0.674058139
v -0.193513244 0.714194119 0.670915782
v -0.193033695 0.700796127 0.670896709
v -0.192532718 0.687044382 0.671137571
v -0.191968188 0.672200322 0.672104537
v -0.191293821 0.655457914 0.674313128
v -0.190935209 0.644276679 0.673061132
v -0.19050689 0.631893694 0.672600687
v -0.193790674 0.621629894 0.670819044
v -0.193479851 0.613862753 0.671622396
v -0.193024099 0.601189733 0.671433806
v -0.192561924 0.588428259 0.671338677
v -0.192119971 0.576033652 0.671043932
v -0.191578791 0.561969042 0.671866834
v -0.191110387 0.549168408 0.671911597
v -0.190689012 0.537188768 0.671458244
v -0.190576762 0.530474246 0.667589009
v -0.190803349 0.529505193 0.659949124
v -0.191064239 0.529104829 0.651913702
v -0.187605932 0.528197944 0.648361027
v -0.180473641 0.52752161 0.648820877
v -0.181159317 0.534942687 0.635561764
v -0.188222423 0.533975422 0.636191428
v -0.191026852 0.518831134 0.642074704
v -0.193431392 0.495124459 0.649547637
v -0.192119926 0.468651623 0.658973813
v -0.192157432 0.464502305 0.653491676
v -0.221567839 0.881964505 0.368012905
v -0.229316786 0.87957859 0.369606674
v -0.236244887 0.862213969 0.376647174
v -0.240070224 0.857926369 0.374885648
v -0.245157719 0.869481623 0.357713073
v -0.25311479 0.870307505 0.357138067
v -0.255497038 0.845681548 0.369196147
v -0.255132169 0.835205436 0.367017448
v -0.254906029 0.826677144 0.363528699
v -0.254784435 0.819612682 0.359048098
v -0.254832745 0.814913154 0.352942288
v -0.251780093 0.767184317 0.376651585
v -0.25176543 0.761670947 0.371213704
v -0.234609917 0.472171664 0.568312287
v -0.241304681 0.46644783 0.572287917
v -0.241393849 0.462741435 0.566343307
v -0.249515966 0.473209381 0.554720759
v -0.256546736 0.471773326 0.555713832
v -0.254907191 0.446383804 0.564981639
v -0.254949063 0.442020684 0.559511065
v -0.254942 0.437046021 0.554470181
v -0.254999727 0.432876438 0.548856318
v -0.254990071 0.427868098 0.543836474
v -0.255168319 0.425188184 0.537148118
v -0.302318215 0.952629685 0.149199232
v -0.30644536 0.949674726 0.146295592
v -0.311126143 0.953294396 0.13864626
v -0.31539765 0.949082911 0.131598935
v -0.319970667 0.948302209 0.122047767
v -0.324695289 0.951972783 0.114299417
v -0.323955476 0.937821567 0.114480481
v -0.328111649 0.932173252 0.108457617
v -0.312916815 0.715246916 0.262859821
v -0.320741087 0.715226173 0.262859821
v -0.319886714 0.700600326 0.264047921
v -0.319580257 0.691902757 0.260894299
v -0.318435818 0.674204171 0.264449179
v -0.317710698 0.661044776 0.264683604
v -0.317029208 0.648376524 0.264592141
v -0.320650488 0.640394449 0.261009932
v -0.319535583 0.623269916 0.264346123
v -0.318689406 0.60901463 0.265574217
v -0.317949593 0.595906258 0.265979439
v -0.317670852 0.587668538 0.26271221
v -0.321309716 0.580353439 0.258746415
v -0.320101589 0.562537789 0.262866765
v -0.319232792 0.54826957 0.264321119
v -0.318499386 0.535426974 0.26472196
v -0.317815453 0.523117542 0.264750689
v -0.317155987 0.511081338 0.264605582
v -0.321164519 0.510754704 0.260093927
v -0.360155225 0.822975278 0.0162099767
v -0.368718028 0.82573396 0.0140380384
v -0.377000988 0.825711966 0.0140380384
v -0.385134727 0.824300945 0.0151229715
v -0.393414557 0.824278951 0.0151229715
v -0.401528567 0.8227759 0.0162798204
v -0.409767538 0.822425783 0.0165361073
v -0.418043256 0.822403789 0.0165361073
v -0.426331192 0.822484493 0.0164559074
v -0.434607118 0.822462499 0.0164559074
v -0.443017751 0.82353276 0.0156026985
v -0.448375881 0.797385931 0.0308340341
v -0.446378231 0.775780499 0.0374270715
v -0.447853953 0.749467134 0.0478131697
v -0.447392941 0.743007123 0.0477661714
v -0.446444511 0.729896963 0.0478536487
v -0.446043611 0.72109741 0.0445543453
v -0.444119364 0.70039767 0.0507736914
v -0.510440171 1.14456594 -0.309652954
v -0.519471347 1.14401317 -0.309230149
v -0.528346658 1.14232266 -0.30789724
v -0.536014497 1.13505185 -0.29633224
v -0.540422082 1.13410974 -0.295589626
v -0.548997879 1.12740219 -0.296011001
v -0.558288634 1.12897742 -0.297290206
v -0.569311857 1.14243543 -0.308074474
v -0.573400676 1.1456362 -0.299085408
v -0.576214492 1.14020455 -0.283260405
v -0.576794207 1.14731884 -0.283160627
v -0.585653424 1.14270413 -0.285264403
v -0.59490478 1.14706278 -0.282995939
v -0.597307444 1.13307476 -0.271917671
v -0.60613066 1.13165963 -0.270814955
v -0.615254879 1.13220012 -0.271262497
v -0.626127124 1.14051592 -0.283612818
v -0.635111272 1.14000368 -0.283225179
v -0.6387254 1.12802827 -0.285195857
v -0.636883974 1.11042809 -0.282625437
v -0.63530314 1.09445477 -0.281296104
v -0.633762538 1.07875741 -0.280133247
v -0.638297915 1.07272649 -0.286742806
v -0.637072444 1.06217957 -0.283941716
v -0.63488102 1.04268622 -0.279575884
v -0.633459032 1.02786696 -0.278947026
v -0.637209117 1.01738679 -0.281831563
v -0.377134532 -0.552479267 1.00059748
v -0.382237524 -0.553507924 1.00143003
v -0.381812543 -0.55968374 0.999719918
v -0.381709456 -0.563977242 0.996468484
v -0.38135761 -0.569715142 0.994418502
v -0.382988632 -0.579179525 0.99547714
v -0.383094966 -0.582247734 0.99123168
v -0.383161217 -0.585548401 0.987177014
v -0.383247346 -0.588736594 0.983025074
v -0.383237392 -0.592476785 0.979336083
v -0.383411109 -0.595166862 0.974756777
v -0.38344422 -0.598662972 0.970856905
v -0.38353616 -0.601824641 0.966669858
v -0.38354528 -0.605459571 0.962884784
v -0.383807153 -0.607658863 0.957864225
v -0.384049237 -0.609975576 0.952935398
v -0.384279549 -0.612363756 0.948059559
v -0.633817732 0.770231426 -0.261120349
v -0.637366056 0.763120472 -0.260599971
v -0.635475636 0.746601284 -0.257492572
v -0.63455683 0.73551333 -0.259084702
v -0.637167513 0.70013845 -0.233666763
v -0.635050058 0.682637572 -0.229458705
v -0.633892894 0.67041707 -0.229852527
v -0.63807708 0.664425313 -0.235751212
v -0.636547446 0.653203905 -0.231373191
v -0.634986579 0.63889432 -0.229804039
v -0.634572566 0.630795419 -0.233749837
v -0.638811588 0.625249386 -0.239989027
v -0.63684088 0.608864963 -0.23643215
v -0.417144448 -0.580344856 0.833926439
v -0.422599614 -0.58035934 0.833926439
v -0.42805478 -0.580373824 0.833926439
v -0.43335855 -0.581160724 0.834625304
v -0.432774246 -0.587966979 0.833450913
v -0.435441107 -0.592083931 0.829838037
v -0.432884306 -0.595058739 0.825195432
v -0.430512428 -0.595167875 0.821612298
v -0.42504555 -0.59522903 0.821681619
v -0.419593483 -0.595214546 0.821681619
v -0.634713054 0.571279168 -0.25275591
v -0.63502717 0.570026934 -0.257238448
v -0.633614957 0.556733489 -0.256263316
v -0.637681901 0.550492465 -0.261781365
v -0.635853171 0.535105646 -0.258785248
v -0.634708703 0.523325145 -0.259089947
v -0.634467959 0.516276658 -0.263785511
v -0.635424495 0.515463233 -0.274332136
v -0.635408878 0.509581506 -0.280133337
v -0.632817984 0.490343541 -0.273293108
v -0.631557047 0.478037596 -0.272946358
v -0.636127412 0.477529854 -0.278138816
v -0.635639787 0.46925655 -0.281596422
v -0.635032892 0.460380733 -0.284459829
v -0.630927742 0.433629602 -0.27010715
v -0.636348009 0.434709191 -0.282488078
v -0.633967996 0.416921854 -0.276626319
v -0.633775175 0.41023007 -0.281470209
v -0.638006985 0.405320793 -0.288057894
v -0.636527479 0.39219892 -0.286597639
v -0.430224687 -0.657753468 0.734073997
v -0.432264507 -0.66315192 0.735534072
v -0.434997648 -0.6651088 0.733611166
v -0.434743702 -0.670197904 0.730943561
v -0.434950471 -0.673036158 0.726047754
v -0.433300614 -0.671546519 0.716835856
v -0.631883621 0.317939848 -0.27555722
v -0.635979712 0.312735498 -0.281696916
v -0.635964513 0.307029516 -0.287324786
v -0.633337677 0.288611263 -0.280114859
v -0.639858186 0.295204759 -0.29817301
v -0.633999169 0.261333048 -0.275149763
v -0.633984149 0.25567928 -0.280726135
v -0.632972836 0.245240942 -0.281400532
v -0.637932122 0.247188091 -0.289090663
v -0.635031641 0.227799624 -0.280519038
v -0.633909464 0.216910362 -0.28063187
v -0.638049424 0.212265998 -0.287195593
v -0.635826051 0.196254477 -0.28191933
v -0.63581115 0.190653101 -0.287444025
v -0.632218957 0.168282032 -0.275380373
v -0.636123419 0.165486529 -0.278127342
v -0.636108637 0.159916297 -0.283621311
v -0.634947956 0.14903146 -0.283490777
v -0.632832944 0.133748233 -0.27864787
v -0.636710346 0.128195763 -0.284114122
v -0.634280562 0.111582153 -0.2777358
v -0.632530153 0.0981180295 -0.274653435
v -0.63638258 0.0926013291 -0.280084491
v -0.636367917 0.087094903 -0.285515547
v -0.63500309 0.0754813701 -0.284318
v -0.632583439 0.0591286123 -0.277910084
v -0.636434793 0.0564444065 -0.280678689
v -0.636406124 0.0509069338 -0.286009133
v -0.634756982 0.0381314903 -0.283383161
v -0.637658 0.028587088 -0.284274727
v -0.635575831 -0.000136858434 -0.258243203
v -0.633963943 -0.0125579657 -0.255788058
v -0.637120068 -0.0206368342 -0.258121431
v -0.636504054 -0.0286390372 -0.260507643
v -0.633420825 -0.0635883585 -0.232668951
v -0.636459947 -0.0692258626 -0.231961802
v -0.634149075 -0.0843728408 -0.226123735
v -0.633032024 -0.0943825245 -0.226017982
v -0.636900961 -0.0989658535 -0.232046723
v -0.633032203 -0.120565139 -0.218677387
v -0.632837832 -0.12658532 -0.222992808
v -0.632241666 -0.134296283 -0.22536096
v -0.636508822 -0.134480745 -0.230770484
v -0.635354161 -0.144504234 -0.230454087
v -0.632647097 -0.16098325 -0.222619623
v -0.632293046 -0.167624831 -0.226127833
v -0.636012912 -0.172586113 -0.231596097
v -0.634182394 -0.185298786 -0.227977738
v -0.633063793 -0.195053026 -0.227772772
v -0.637817979 -0.193128496 -0.235675961
v -0.635564864 -0.207471669 -0.230018765
v -0.63240546 -0.225468621 -0.219949454
v -0.632193327 -0.231440157 -0.224084347
v -0.635805964 -0.236613512 -0.229177371
v -0.635792255 -0.241777226 -0.234270394
v -0.635059774 -0.249827683 -0.23588942
v -0.638686657 -0.254922628 -0.241064474
v -0.636820316 -0.26745069 -0.237217918
v -0.635215998 -0.278909117 -0.234607577
v -0.634161711 -0.288163066 -0.234632984
v -0.637752235 -0.290733784 -0.237159073
v -0.636493623 -0.300746858 -0.236206472
v -0.63598597 -0.307796329 -0.238861933
v -0.636523962 -0.3107467 -0.246569574
v -0.636983991 -0.314010143 -0.253908098
v -0.636860967 -0.319553316 -0.258423269
v -0.634518921 -0.333724529 -0.252146304
v -0.633918762 -0.341098785 -0.2543163
v -0.631008148 -0.357413054 -0.245205075
v -0.634554982 -0.362492114 -0.250205278
v -0.634379148 -0.368184626 -0.254415184
v -0.633764029 -0.375556201 -0.256481081
v -0.637306631 -0.380629241 -0.261475354
v -0.637299955 -0.383161008 -0.263972491
v -0.63354224 -0.402407438 -0.250739545
v -0.632562399 -0.411094993 -0.250992388
v -0.636089087 -0.416093677 -0.255998433
v -0.635122776 -0.424688071 -0.256320447
v -0.633134484 -0.437086284 -0.251647592
v -0.636459947 -0.442749351 -0.255732179
v -0.636014938 -0.449349463 -0.258567154
v -0.634238183 -0.46086061 -0.254910856
v -0.633201957 -0.469615638 -0.254838943
v -0.637078643 -0.470694065 -0.259175867
v -0.635755301 -0.48046118 -0.257717967
v -0.63451314 -0.489912063 -0.256635427
v -0.634235382 -0.495835483 -0.260237813
v -0.637442827 -0.501748979 -0.263856441
v -0.635862947 -0.512351155 -0.261120796
v -0.633982658 -0.524009764 -0.256896615
v -0.63687402 -0.53094089 -0.259049743
v -0.636692941 -0.534026027 -0.260631055
v -0.635522246 -0.543069184 -0.25985378
v -0.634698093 -0.550864279 -0.260748655
v -0.63765049 -0.557483613 -0.263247371
v -0.636991322 -0.564661384 -0.264943451
v -0.634495437 -0.566170394 -0.274475008
v -0.634701729 -0.56787467 -0.277938962
v -0.634476662 -0.573530257 -0.281740844
v -0.633231699 -0.582760632 -0.28052488
v -0.634601712 -0.594833016 -0.275278747
v -0.633093953 -0.604909897 -0.272762239
v -0.63207221 -0.613279462 -0.272610784
v -0.635475457 -0.618152916 -0.27740857
v -0.635128498 -0.624164045 -0.280568898
v -0.634585023 -0.63084358 -0.28275913
v -0.63332057 -0.639979839 -0.281395823
v -0.636971653 -0.64155519 -0.285023242
v -0.634995162 -0.653060555 -0.280179709
v -0.632095098 -0.667659998 -0.270771563
v -0.63177079 -0.673524916 -0.273987442
v -0.635136962 -0.678345263 -0.278732985
v -0.635124147 -0.683156669 -0.283478528
v -0.634847403 -0.688848317 -0.286926657
v -0.638275802 -0.693456173 -0.291981786
v -0.637536347 -0.698284507 -0.290761739
v -0.63596195 -0.708239853 -0.28783682
v -0.633680284 -0.720499754 -0.281412542
v -0.636935174 -0.725566983 -0.285699666
v -0.636283636 -0.732424378 -0.287276626
v -0.632654905 -0.759739816 -0.257943809
v -0.635300279 -0.764238119 -0.257048041
v -0.632974803 -0.776371062 -0.250429332
v -0.635300338 -0.784136474 -0.250397921
v -0.63295424 -0.796239495 -0.243679151
v -0.631526768 -0.80539757 -0.241398767
v -0.630636752 -0.812835574 -0.24171862
v -0.634129405 -0.814454317 -0.245124742
v -0.632341206 -0.824679911 -0.241084948
v -0.631758273 -0.831109881 -0.242888495
v -0.630803883 -0.838690996 -0.242872104
v -0.63472867 -0.841220021 -0.250759095
v -0.632777035 -0.851852775 -0.245897636
v -0.630608141 -0.863127649 -0.239949241
v -0.633839369 -0.865441144 -0.242222548
v -0.632947266 -0.872740567 -0.242493436
v -0.632748663 -0.877912343 -0.246126831
v -0.631748676 -0.885520101 -0.245851219
v -0.635419309 -0.88874656 -0.25259763
v -0.632834256 -0.901097596 -0.244618818
v -0.632822096 -0.905677438 -0.249135941
v -0.636026263 -0.910265803 -0.253653079
v -0.636014104 -0.914845645 -0.258170187
v -0.635014892 -0.922356904 -0.257882476
v -0.633936644 -0.93008858 -0.257195145
v -0.637392521 -0.931626141 -0.260688752
v -0.63580662 -0.940816402 -0.257542372
v -0.634085655 -0.950380325 -0.253716141
v -0.633812547 -0.955687344 -0.256924868
v -0.63699019 -0.960237741 -0.261404604
v -0.635957956 -0.967733264 -0.260920554
v -0.634885788 -0.975329816 -0.260227531
v -0.637194455 -0.982327282 -0.260523409
v -0.636825264 -0.985628009 -0.260988057
v -0.636327267 -0.991534889 -0.26308012
v -0.635302722 -0.998935461 -0.26259926
v -0.638107955 -1.00443876 -0.265351832
v -0.637682796 -1.01011038 -0.267786413
v -0.635673046 -1.01131094 -0.277926892
v -0.635795236 -1.01544333 -0.283033818
v -0.63413769 -1.02458715 -0.279407233
v -0.633055747 -1.03209186 -0.278586835
v -0.636415899 -1.0337584 -0.281834453
v -0.635287404 -1.04136086 -0.280794442
v -0.633657336 -1.05034053 -0.277276814
v -0.633035719 -1.05650473 -0.278693706
v -0.635723412 -1.06219494 -0.280946195
v -0.635053396 -1.06846786 -0.282124549
v -0.63450253 -1.07440567 -0.28387925
v -0.636446953 -1.0820663 -0.282522172
v -0.636379302 -1.08445942 -0.284414977
v -0.634863615 -1.0929786 -0.281427652
v -0.634227514 -1.09910405 -0.282740355
v -0.637001574 -1.10443187 -0.285501599
v -0.635952473 -1.11163723 -0.284789354
v -0.634795547 -1.11911583 -0.283533424
v -0.63772887 -1.12396216 -0.287116975
v -0.637377739 -1.12927568 -0.289811552
v -0.636222422 -1.13670075 -0.288555771
v -0.637292922 -1.13826811 -0.298220843
v -0.63484174 -1.13874102 -0.303636551
v -0.636239767 -1.13945711 -0.314970762
v -0.634996057 -1.13893139 -0.328693241
v -0.632427156 -1.13967288 -0.333671808
v -0.63098079 -1.13742673 -0.344332844
v -0.624719083 -1.13741004 -0.344332844
v -0.618356764 -1.13766551 -0.343816459
v -0.612014711 -1.13787115 -0.343394369
v -0.605754793 -1.13785458 -0.343394369
v -0.599504828 -1.13781023 -0.34344703
v -0.593302667 -1.13763058 -0.343756318
v -0.587042093 -1.13761401 -0.343756318
v -0.580781519 -1.13759732 -0.343756318
v -0.574520886 -1.13758075 -0.343756318
v -0.568260312 -1.13756406 -0.343756318
v -0.561999738 -1.13754737 -0.343756318
v -0.555723906 -1.13757658 -0.343669534
v -0.549438119 -1.1376369 -0.343523234
v -0.543157041 -1.13768482 -0.343400776
v -0.536874413 -1.13773894 -0.343266606
v -0.530637205 -1.13765156 -0.343400776
v -0.524392843 -1.13758564 -0.343494385
v -0.518140018 -1.13754559 -0.34353888
v -0.511894345 -1.13748169 -0.343628556
v -0.50563401 -1.137465 -0.343628556
v -0.499373645 -1.13744843 -0.343628556
v -0.493113309 -1.13743174 -0.343628556
v -0.486852944 -1.13741517 -0.343628556
v -0.480578989 -1.13744569 -0.34353888
v -0.474318832 -1.13742912 -0.34353888
v -0.468058646 -1.13741243 -0.34353888
v -0.461802423 -1.13738167 -0.343565762
v -0.455542177 -1.13736498 -0.343565762
v -0.449281961 -1.13734841 -0.343565762
v -0.443017989 -1.13734591 -0.34353888
v -0.436740249 -1.13739622 -0.343411773
v -0.430480301 -1.13737965 -0.343411773
v -0.424220383 -1.13736296 -0.343411773
v -0.417960465 -1.13734639 -0.343411773
v -0.411700547 -1.1373297 -0.343411773
v -0.405440629 -1.13731313 -0.343411773
v -0.399156123 -1.13739884 -0.343217462
v -0.392891884 -1.13740206 -0.343179792
v -0.386632413 -1.13738549 -0.343179792
v -0.380377471 -1.13734901 -0.343217462
v -0.374121189 -1.1373179 -0.343244791
v -0.367863148 -1.13729417 -0.343258232
v -0.361621171 -1.13719666 -0.343411773
v -0.355361253 -1.13717997 -0.343411773
v -0.349101335 -1.1371634 -0.343411773
v -0.342841417 -1.13714671 -0.343411773
v -0.336580336 -1.13713586 -0.343400985
v -0.330320418 -1.13711917 -0.343400985
v -0.324053407 -1.13713896 -0.343331814
v -0.317793638 -1.13712239 -0.343331814
v -0.311526567 -1.13714457 -0.343258232
v -0.305274099 -1.13708913 -0.343331814
v -0.29901433 -1.13707244 -0.343331814
v -0.292754561 -1.13705587 -0.343331814
v -0.286494792 -1.13703918 -0.343331814
v -0.280235022 -1.13702261 -0.343331814
v -0.273975402 -1.13919783 -0.345598876
v -0.267715514 -1.13918126 -0.345598876
v -0.261455595 -1.13916457 -0.345598876
v -0.255190045 -1.13918436 -0.345529675
v -0.248930275 -1.13916779 -0.345529675
v -0.242670521 -1.1391511 -0.345529675
v -0.236410752 -1.13913453 -0.345529675
v -0.230150983 -1.13911784 -0.345529675
v -0.223880589 -1.13917887 -0.345381975
v -0.217621103 -1.1391623 -0.345381975
v -0.211361632 -1.13914561 -0.345381975
v -0.205102161 -1.13912904 -0.345381975
v -0.198842674 -1.13911235 -0.345381975
v -0.19256188 -1.13927603 -0.345039397
v -0.186301783 -1.13927054 -0.345018238
v -0.180041775 -1.13926506 -0.34499684
v -0.173783049 -1.13924849 -0.34499684
v -0.167524308 -1.1392318 -0.34499684
v -0.161265582 -1.13921523 -0.34499684
v -0.155006856 -1.13919854 -0.34499684
v -0.14874813 -1.13918197 -0.34499684
v -0.142489403 -1.13916528 -0.34499684
v -0.136230677 -1.13914871 -0.34499684
v -0.129971936 -1.13913202 -0.34499684
v -0.123713218 -1.13911545 -0.34499684
v -0.117454484 -1.13909876 -0.34499684
v -0.111191221 -1.1391468 -0.344874054
v -0.104932733 -1.13913012 -0.344874054
v -0.0986723974 -1.13914299 -0.344818056
v -0.092414014 -1.1391263 -0.344818056
v -0.0861556306 -1.13910973 -0.344818056
v -0.0798972547 -1.13909304 -0.344818056
v -0.0736388713 -1.13907647 -0.344818056
v -0.0673804879 -1.13905978 -0.344818056
v -0.061122112 -1.13904321 -0.344818056
v -0.0548637286 -1.13902652 -0.344818056
v -0.0486053489 -1.13900995 -0.344818056
v -0.0423469692 -1.13899326 -0.344818056
v -0.0360885896 -1.13897669 -0.344818056
v -0.029830208 -1.13896 -0.344818056
v -0.0235718265 -1.13894343 -0.344818056
v -0.0173134468 -1.13892674 -0.344818056
v -0.0110550653 -1.13891017 -0.344818056
v -0.00479668472 -1.13889349 -0.344818056
v 0.00146169576 -1.13887691 -0.344818056
v 0.00772007648 -1.13886023 -0.344818056
v 0.0139784571 -1.13884366 -0.344818056
v 0.0202368367 -1.13882697 -0.344818056
v 0.0264952183 -1.1388104 -0.344818056
v 0.0327535979 -1.13879371 -0.344818056
v 0.0390120149 -1.13877511 -0.344821811
v 0.0452704057 -1.13875854 -0.344821811
v 0.0515287928 -1.13874185 -0.344821811
v 0.0577871203 -1.13872719 -0.344818056
v 0.0640453622 -1.13871479 -0.344810128
v 0.0703024119 -1.13873363 -0.344742656
v 0.0765606463 -1.13871706 -0.344742656
v 0.0828178003 -1.13872457 -0.34469682
v 0.0890759453 -1.13870788 -0.34469682
v 0.0953340903 -1.13869131 -0.34469682
v 0.101593822 -1.13864613 -0.34475103
v 0.107852072 -1.13862944 -0.34475103
v 0.114110321 -1.13861287 -0.34475103
v 0.120368578 -1.13859618 -0.34475103
v 0.126626819 -1.13857961 -0.34475103
v 0.132867992 -1.13879359 -0.344312787
v 0.139116496 -1.13889134 -0.344095647
v 0.145373464 -1.13887465 -0.344095647
v 0.151630446 -1.13885808 -0.344095647
v 0.157887414 -1.13884139 -0.344095647
v 0.164150059 -1.13876355 -0.344212055
v 0.170412362 -1.13869381 -0.344312787
v 0.176669762 -1.13867724 -0.344312787
v 0.182927161 -1.13866055 -0.344312787
v 0.189184561 -1.13864398 -0.344312787
v 0.195441961 -1.13862729 -0.344312787
v 0.201699346 -1.13861072 -0.344312787
v 0.207956746 -1.13859403 -0.344312787
v 0.214214146 -1.13857746 -0.344312787
v 0.220471546 -1.13856077 -0.344312787
v 0.226728946 -1.1385442 -0.344312787
v 0.232986331 -1.13852763 -0.344312787
v 0.239243731 -1.13851094 -0.344312787
v 0.245501131 -1.13849437 -0.344312787
v 0.251758516 -1.13847768 -0.344312787
v 0.258015931 -1.13846111 -0.344312787
v 0.264273316 -1.13844442 -0.344312787
v 0.27053073 -1.13842785 -0.344312787
v 0.276785463 -1.13842773 -0.344281256
v 0.283042639 -1.13841224 -0.344279289
v 0.289296955 -1.13841367 -0.344244897
v 0.295554221 -1.1383971 -0.344244897
v 0.301811486 -1.13838041 -0.344244897
v 0.308071971 -1.13834572 -0.344279289
v 0.314329296 -1.13832903 -0.344279289
v 0.320582479 -1.13833499 -0.344236523
v 0.326839715 -1.1383183 -0.344236523
v 0.333094299 -1.13831556 -0.344210267
v 0.339346051 -1.13832664 -0.344157606
v 0.345590472 -1.13837349 -0.344036996
v 0.351839244 -1.13839662 -0.343961388
v 0.358095944 -1.13838005 -0.343961388
v 0.364352673 -1.13836348 -0.343961388
v 0.370609373 -1.13834679 -0.343961388
v 0.376866072 -1.13833022 -0.343961388
v 0.383122802 -1.13831353 -0.343961388
v 0.389379501 -1.13829696 -0.343961388
v 0.395632297 -1.13829744 -0.343928754
v 0.401888937 -1.13828087 -0.343928754
v 0.408140838 -1.13828433 -0.343890637
v 0.414306104 -1.13864744 -0.34316954
v 0.420561284 -1.13863075 -0.34316954
v 0.426816463 -1.13861418 -0.34316954
v 0.433071643 -1.13859749 -0.34316954
v 0.439326793 -1.13858092 -0.34316954
v 0.445581973 -1.13856435 -0.34316954
v 0.451837152 -1.13854766 -0.34316954
v 0.458092302 -1.13853109 -0.34316954
v 0.464347482 -1.1385144 -0.34316954
v 0.470602661 -1.13849783 -0.34316954
v 0.476857841 -1.13848114 -0.34316954
v 0.483112991 -1.13846457 -0.34316954
v 0.48936817 -1.138448 -0.34316954
v 0.49562335 -1.13843131 -0.34316954
v 0.5018785 -1.13841474 -0.34316954
v 0.50813055 -1.13840878 -0.343149245
v 0.514388859 -1.13838148 -0.34316954
v 0.520695865 -1.13819396 -0.343494028
v 0.527009487 -1.13798881 -0.343851835
v 0.533266008 -1.13797224 -0.343851835
v 0.539522469 -1.13795567 -0.343851835
v 0.54577899 -1.13793898 -0.343851835
v 0.552035511 -1.13792241 -0.343851835
v 0.558291972 -1.13790572 -0.343851835
v 0.564514458 -1.1379925 -0.343655646
v 0.570770621 -1.13797581 -0.343655646
v 0.577061474 -1.13785589 -0.343851835
v 0.583317995 -1.1378392 -0.343851835
v 0.589538932 -1.13792598 -0.343655646
v 0.595789969 -1.13792408 -0.343627632
v 0.602085471 -1.13779509 -0.343841016
v 0.608341932 -1.1377784 -0.343841016
v 0.614598453 -1.13776183 -0.343841016
v 0.620854914 -1.13774514 -0.343841016
v 0.626848936 -1.13620317 -0.340314597
v 0.628998458 -1.13885581 -0.335273296
v 0.630594552 -1.14074755 -0.325285733
v 0.633697152 -1.13630462 -0.320911705
v 0.630651116 -1.14010215 -0.301096201
v 0.633678019 -1.13584495 -0.296436429
v 0.633056998 -1.13308573 -0.289007008
v 0.634249628 -1.12540019 -0.290732682
v 0.630859017 -1.12397408 -0.28712222
v 0.631553113 -1.11762154 -0.286337644
v 0.632143855 -1.1115433 -0.285021365
v 0.633819103 -1.10246372 -0.289167464
v 0.630691826 -1.09803569 -0.284791976
v 0.630680084 -1.09359956 -0.280416459
v 0.63288343 -1.08297241 -0.287224591
v 0.629546165 -1.07908893 -0.281825632
v 0.629859507 -1.07596338 -0.281247556
v 0.630970418 -1.06833661 -0.282533079
v 0.632663369 -1.05904424 -0.286741972
v 0.629422486 -1.05482984 -0.281885892
v 0.630075276 -1.04845452 -0.280838728
v 0.631401718 -1.04013622 -0.283186972
v 0.631389797 -1.0356493 -0.278761536
v 0.628226817 -1.03117085 -0.2743361
v 0.628214896 -1.02668393 -0.269910663
v 0.630222619 -1.01631224 -0.275687963
v 0.632553816 -1.0049665 -0.283068419
v 0.628813624 -1.00436485 -0.277997613
v 0.629362583 -0.998197317 -0.276383579
v 0.63272655 -0.98370558 -0.288984835
v 0.634528518 -0.973790228 -0.293657184
v 0.63074559 -0.970946848 -0.286271125
v 0.631304622 -0.964686513 -0.284669697
v 0.631292522 -0.960130394 -0.280175954
v 0.628080726 -0.955582798 -0.275682211
v 0.628074646 -0.953304708 -0.273435354
v 0.628062546 -0.948748589 -0.268941581
v 0.63008523 -0.938006341 -0.274726152
v 0.632934928 -0.924713612 -0.284653217
v 0.628213227 -0.924688876 -0.272607535
v 0.629875839 -0.914952517 -0.276556551
v 0.63173461 -0.90458566 -0.281472206
v 0.62683171 -0.90513289 -0.268540502
v 0.628512383 -0.897584498 -0.274816692
v 0.630625486 -0.886344969 -0.281020135
v 0.630613208 -0.881721675 -0.276460141
v 0.632269442 -0.871867001 -0.280313581
v 0.628279209 -0.869522214 -0.272084922
v 0.62898922 -0.86260432 -0.271169156
v 0.631698608 -0.849328876 -0.280334026
v 0.628416479 -0.844681561 -0.275741786
v 0.630786836 -0.832386017 -0.283204317
v 0.632028341 -0.823682249 -0.284929365
v 0.632798612 -0.816477716 -0.284258515
v 0.627788961 -0.819687128 -0.273278773
v 0.628973484 -0.811120987 -0.274723589
v 0.629474342 -0.804763734 -0.272696227
v 0.633228064 -0.78777796 -0.287074178
v 0.62900883 -0.78600961 -0.277894467
v 0.629889965 -0.778351784 -0.277768314
v 0.631219149 -0.769199491 -0.279891521
v 0.632243931 -0.761035264 -0.280459762
v 0.632231355 -0.756299734 -0.275789052
v 0.630980611 -0.755684972 -0.264892757
v 0.631673753 -0.748604655 -0.263774574
v 0.631661177 -0.743873119 -0.259107828
v 0.632938206 -0.734819949 -0.260896981
v 0.629926145 -0.728972375 -0.257880241
v 0.630847275 -0.723465145 -0.260198206
v 0.630834639 -0.718714297 -0.255512357
v 0.633125961 -0.706139147 -0.262362361
v 0.62979728 -0.7012676 -0.257823735
v 0.630068183 -0.695526242 -0.254543722
v 0.633375347 -0.690851331 -0.249685317
v 0.632143676 -0.690257967 -0.238912672
v 0.632356465 -0.684722304 -0.235337049
v 0.63343215 -0.676212907 -0.23604019
v 0.630735338 -0.671548367 -0.236979291
v 0.630952597 -0.665973544 -0.233412936
v 0.632979631 -0.65409708 -0.238838658
v 0.632966876 -0.649303257 -0.234110489
v 0.629587531 -0.644518435 -0.229382321
v 0.631427705 -0.63319838 -0.23387216
v 0.632554114 -0.624368966 -0.23478888
v 0.629051149 -0.619943142 -0.229502305
v 0.629256725 -0.616780162 -0.228183791
v 0.631686926 -0.603244185 -0.235587403
v 0.63198936 -0.597280025 -0.232383341
v 0.628578126 -0.592450023 -0.227610558
v 0.630645692 -0.580096841 -0.233198434
v 0.63186723 -0.570773304 -0.234547958
v 0.630514979 -0.548255324 -0.259715259
v 0.631787837 -0.538626015 -0.261324257
v 0.631774724 -0.533707798 -0.256473362
v 0.629679859 -0.523710787 -0.258522272
v 0.629827917 -0.520672321 -0.256868303
v 0.6310094 -0.511298001 -0.257998824
v 0.62814188 -0.506559849 -0.258628517
v 0.631455243 -0.475964516 -0.288166672
v 0.632887006 -0.465500146 -0.290539086
v 0.632873714 -0.460489452 -0.285596997
v 0.629341483 -0.455488116 -0.280654907
v 0.629334807 -0.452982754 -0.278183848
v 0.630236506 -0.444465846 -0.277867109
v 0.632109702 -0.432203174 -0.282439649
v 0.628561556 -0.427179307 -0.277475297
v 0.630594313 -0.41421032 -0.282864898
v 0.634041786 -0.395709574 -0.295369714
v 0.634063423 -0.390494853 -0.290538579
v 0.630203187 -0.389091194 -0.286578566
v 0.630476892 -0.382887036 -0.283025593
v 0.630463362 -0.377808869 -0.278016925
v 0.630449891 -0.372730672 -0.273008257
v 0.626870036 -0.367661983 -0.267999589
v 0.627469003 -0.360143185 -0.266088992
v 0.631555796 -0.338685781 -0.281784743
v 0.635656834 -0.317103416 -0.297486901
v 0.630247056 -0.319137156 -0.283398628
v 0.632791162 -0.303664148 -0.291264594
v 0.632777452 -0.298507154 -0.286178201
v 0.628876865 -0.294442505 -0.279747218
v 0.629135251 -0.290781289 -0.278548598
v 0.629121542 -0.285624325 -0.273462206
v 0.629107833 -0.280467331 -0.268375814
v 0.633210123 -0.258388728 -0.284037918
v 0.62904954 -0.255283833 -0.276380897
v 0.631122053 -0.241434276 -0.281809598
v 0.634062886 -0.223936915 -0.291585952
v 0.628297865 -0.227435485 -0.275893509
v 0.629561305 -0.219496906 -0.279756069
v 0.630355895 -0.21087411 -0.278692365
v 0.631080627 -0.202531934 -0.277262956
v 0.627390087 -0.197306484 -0.272099406
v 0.631476402 -0.174617156 -0.287686199
v 0.631462395 -0.169347301 -0.282488495
v 0.631448388 -0.164077446 -0.277290761
v 0.627733469 -0.158817425 -0.272093058
v 0.629585683 -0.145491689 -0.276334673
v 0.632477403 -0.127638012 -0.285794288
v 0.634023726 -0.11556489 -0.288423449
v 0.629370391 -0.116873704 -0.281199008
v 0.630263805 -0.107589327 -0.280547261
v 0.630249619 -0.102265663 -0.275296479
v 0.631773531 -0.0901900008 -0.277801186
v 0.628011405 -0.0848631486 -0.27253744
v 0.631109893 -0.0657247081 -0.283012271
v 0.631095648 -0.0603611246 -0.27772209
v 0.627314627 -0.0550075471 -0.27243194
v 0.627932012 -0.0495262221 -0.27295056
v 0.629735231 -0.03599393 -0.276847005
v 0.631976306 -0.0204590615 -0.282923877
v 0.632345259 -0.0133263441 -0.279525876
v 0.629848123 -0.00195230043 -0.280849487
v 0.629889607 0.00372110517 -0.275787026
v 0.63368839 0.00644096406 -0.273114353
v 0.633141398 0.00944246631 -0.265099943
v 0.633787751 0.0178627931 -0.263064831
v 0.630385756 0.0251953471 -0.259824872
v 0.631595612 0.0362439603 -0.260616511
v 0.631581187 0.041678872 -0.255255997
v 0.633028209 0.0538534708 -0.257202148
v 0.630254269 0.064248018 -0.25718382
v 0.630175292 0.0694045648 -0.251478165
v 0.633999944 0.0721429586 -0.248787314
v 0.63299346 0.0729941502 -0.238475561
v 0.633961439 0.0830114186 -0.237976521
v 0.630115032 0.0884575695 -0.232594877
v 0.631201506 0.0990858153 -0.232690379
v 0.633546233 0.115655549 -0.239016011
v 0.629678488 0.121131979 -0.233604461
v 0.629671156 0.123875305 -0.230898678
v 0.630419374 0.13299109 -0.229282305
v 0.633585989 0.153648838 -0.239665285
v 0.629693687 0.159159988 -0.234219417
v 0.629679024 0.164681435 -0.228773564
v 0.629664361 0.170202881 -0.223327696
v 0.63378799 0.195722699 -0.238422126
v 0.627817452 0.191271812 -0.222707286
v 0.629855037 0.206828669 -0.227457941
v 0.629840255 0.212386847 -0.221975863
v 0.634273529 0.239735961 -0.238555312
v 0.625914693 0.220713735 -0.213752732
v 0.627859473 0.235959128 -0.218025401
v 0.630305052 0.253720254 -0.224752143
v 0.632626057 0.270908326 -0.230818123
v 0.627166092 0.269018173 -0.217806369
v 0.631173551 0.294782043 -0.232286736
v 0.63289839 0.309158862 -0.235361382
v 0.629825294 0.31943801 -0.2343463
v 0.631629646 0.351789653 -0.26060012
v 0.631614447 0.35750851 -0.254959553
v 0.634886622 0.380051672 -0.265750319
v 0.630432606 0.380806804 -0.260859489
v 0.630826294 0.388664424 -0.257244885
v 0.6326437 0.403896242 -0.260753036
v 0.635418415 0.424125016 -0.269014388
v 0.6307109 0.426640272 -0.260163993
v 0.631320298 0.435697466 -0.257589698
v 0.63130492 0.441489071 -0.251877367
v 0.62722218 0.447269887 -0.246165022
v 0.629699409 0.466270179 -0.252964288
v 0.631575167 0.482124925 -0.256704748
v 0.633808017 0.49991414 -0.262196362
v 0.627455831 0.490862936 -0.248075634
v 0.630763352 0.51453197 -0.25900647
v 0.631016791 0.521842301 -0.254571021
v 0.633216858 0.539643705 -0.259868354
v 0.628908873 0.544662416 -0.253268212
v 0.630832732 0.561102271 -0.257193863
v 0.62843895 0.576698899 -0.26028496
v 0.417192191 -0.595541179 0.820326388
v 0.422642767 -0.595526695 0.820326388
v 0.428293377 -0.594449043 0.819351494
v 0.430412233 -0.595685244 0.824181199
v 0.43015483 -0.593116641 0.82919836
v 0.430160314 -0.589158177 0.832943857
v 0.43063879 -0.582686603 0.834414244
v 0.425285161 -0.582189202 0.833950758
v 0.41983518 -0.582203686 0.833950758
v 0.414334416 -0.582498848 0.834204853
v 0.631366968 0.669817924 -0.288412362
v 0.631358922 0.672833145 -0.285438418
v 0.631722569 0.680999517 -0.281407356
v 0.63465935 0.703674972 -0.290336132
v 0.630053461 0.707838535 -0.282674551
v 0.630369425 0.71578896 -0.278376818
v 0.632446647 0.733791769 -0.282958806
v 0.628605664 0.742435932 -0.279226363
v 0.629684687 0.751739442 -0.281731546
v 0.630619168 0.763320744 -0.280523598
v 0.630209386 0.767154455 -0.272513896
v 0.633726656 0.768941224 -0.262727171
v 0.630320728 0.780194998 -0.261196703
v 0.631476223 0.793105006 -0.261055142
v 0.633136928 0.808977723 -0.263421744
v 0.633850336 0.819363058 -0.261020601
v 0.628842056 0.818380415 -0.254532367
v 0.631733537 0.841620266 -0.263077855
v 0.631717145 0.847782195 -0.257000268
v 0.633302271 0.863398015 -0.258930236
v 0.628520072 0.867020011 -0.250689894
v 0.6304726 0.884937406 -0.254476398
v 0.63377589 0.910965204 -0.264986873
v 0.633759379 0.917191267 -0.258846045
v 0.62764746 0.90985024 -0.247073725
v 0.629362106 0.926518738 -0.249634787
v 0.629750609 0.93519634 -0.245522156
v 0.633174717 0.962285459 -0.256571501
v 0.380682319 -0.548603058 0.995671034
v 0.630355239 0.984685659 -0.252301395
v 0.633418322 1.00986433 -0.261515528
v 0.629806221 1.02134836 -0.259501576
v 0.63185358 1.06502116 -0.289248109
v 0.63243264 1.0751332 -0.285958767
v 0.632629275 1.08286381 -0.280730247
v 0.629887462 1.1004039 -0.283372343
v 0.630836666 1.11293042 -0.281932771
v 0.632769942 1.13171387 -0.285440356
v 0.634147227 1.14700878 -0.286108404
v 0.624911904 1.14592206 -0.285265297
v 0.613422394 1.13006783 -0.272704661
v 0.604423583 1.13353467 -0.269751906
v 0.599907339 1.13352275 -0.269751906
v 0.590727925 1.12922716 -0.272085249
v 0.584091187 1.14570904 -0.285182267
v 0.574695528 1.14338672 -0.283358663
v 0.569965601 1.13868594 -0.28537792
v 0.570170045 1.13355565 -0.292792022
v 0.567840576 1.14588165 -0.308413923
v 0.558803499 1.14629495 -0.308763564
v 0.547467887 1.12986279 -0.295648754
v 0.538393676 1.12974119 -0.295570791
v 0.529332697 1.12971711 -0.295570791
v 0.522353113 1.145769 -0.308420509
v 0.513211727 1.1454016 -0.308146119
v 0.504095256 1.14522135 -0.308021396
v 0.442222029 0.717695892 0.0388472676
v 0.442096859 0.722573221 0.0452574939
v 0.442562997 0.732290506 0.0478288867
v 0.444135398 0.751096189 0.043250449
v 0.442109525 0.774004936 0.0355118364
v 0.44351539 0.791643023 0.0320091471
v 0.440160364 0.800934196 0.0299053025
v 0.4322837 0.803923488 0.0275504421
v 0.424051255 0.803927362 0.0275302976
v 0.415679336 0.802690625 0.0284803584
v 0.413565129 0.823699832 0.0172496308
v 0.403608143 0.805208266 0.0264857337
v 0.395204484 0.803637862 0.0276967883
v 0.387098551 0.804852009 0.0267301369
v 0.378468424 0.800988793 0.0297343694
v 0.37072441 0.805823386 0.0259361975
v 0.362511903 0.806083679 0.0257154927
v 0.354253054 0.805871606 0.0258642081
v 0.345924139 0.804897487 0.0266089719
v 0.314217776 0.507620752 0.26385954
v 0.3149845 0.521517575 0.262543559
v 0.315674096 0.534600198 0.261906892
v 0.316750586 0.551940262 0.258026123
v 0.316736162 0.557366848 0.263378382
v 0.312910765 0.562783241 0.26873064
v 0.31421718 0.582910895 0.262854844
v 0.314819515 0.595237672 0.26299724
v 0.315021694 0.603118479 0.266548812
v 0.316416144 0.624342859 0.260033876
v 0.316578627 0.631816447 0.263955504
v 0.312652051 0.636681914 0.269836217
v 0.313094765 0.644545853 0.268713742
v 0.313992172 0.660435319 0.266390443
v 0.314539343 0.672362208 0.267068237
v 0.315626115 0.690476954 0.263199985
v 0.316073805 0.701316714 0.264766157
v 0.312858671 0.714997888 0.264265239
v 0.323018432 0.932298779 0.109634988
v 0.323777437 0.947458088 0.108694173
v 0.319276631 0.946331501 0.114585698
v 0.314558864 0.945468962 0.125333309
v 0.31024152 0.94939971 0.132573634
v 0.305744171 0.947941601 0.13866052
v 0.30145064 0.952018857 0.145770639
v 0.29704836 0.951572895 0.151104197
v 0.252941132 0.427017272 0.536805093
v 0.252644598 0.428313255 0.544481516
v 0.25263828 0.433462262 0.549398899
v 0.25262484 0.438516468 0.554383934
v 0.252530307 0.442486972 0.560133755
v 0.252688795 0.44983995 0.563499749
v 0.249799937 0.461444527 0.559616685
v 0.247411907 0.480247378 0.55071491
v 0.238654599 0.460079521 0.569096982
v 0.238946095 0.469488442 0.571058571
v 0.232076615 0.473108351 0.568523705
v 0.24754104 0.763275027 0.375653744
v 0.247480378 0.768094361 0.381565154
v 0.250325859 0.816565871 0.357400894
v 0.250311047 0.822140038 0.362898737
v 0.250387609 0.829091489 0.367454827
v 0.250579059 0.837780714 0.370834023
v 0.252228379 0.86851871 0.359263957
v 0.244662508 0.873600721 0.35580042
v 0.239924192 0.864017248 0.366966784
v 0.235600606 0.86361897 0.376545131
v 0.228459328 0.878660858 0.371044695
v 0.224584669 0.879855573 0.370232731
v 0.216743559 0.880753398 0.369613767
v 0.186150491 0.4649086 0.653894484
v 0.189651296 0.467500478 0.656294346
v 0.1868065 0.484888941 0.652914941
v 0.187560797 0.504113257 0.648380578
v 0.184815377 0.521594763 0.64090097
v 0.178075224 0.528532088 0.63627547
v 0.187501356 0.795368016 0.467841655
v 0.177672207 0.528564572 0.648760498
v 0.184764296 0.528583407 0.648760498
v 0.188278735 0.530654252 0.651556313
v 0.188004151 0.530838728 0.65973413
v 0.187812418 0.532553017 0.666885853
v 0.188056067 0.542391896 0.668719113
v 0.18849194 0.555842876 0.668227434
v 0.188897491 0.568751872 0.668127835
v 0.18888402 0.573819637 0.673126221
v 0.189782158 0.596026599 0.667106569
v 0.186191708 0.601110339 0.672130108
v 0.186352059 0.609548628 0.675019383
v 0.186789945 0.623344958 0.674519062
v 0.187550664 0.643398225 0.670098305
v 0.187722221 0.652110815 0.672903121
v 0.187708572 0.657249272 0.677971244
v 0.188366622 0.67541045 0.674885988
v 0.188991994 0.69297719 0.672233224
v 0.189683408 0.711866915 0.668816984
v 0.189669609 0.717062831 0.673941791
v 0.185624167 0.711903512 0.681290925
v 0.18599987 0.724847078 0.681629062
v 0.186819926 0.746680379 0.676552713
v 0.187458053 0.764929533 0.673743188
v 0.188009247 0.781478763 0.672028601
v 0.190314099 0.83321327 0.649037957
v 0.186676383 0.84087944 0.652867436
v 0.186873794 0.850548327 0.655508995
v 0.187375307 0.866482258 0.654416025
v 0.183903694 0.875270247 0.653390765
v 0.176379323 0.87525022 0.653390765
v 0.168859318 0.875330448 0.653330863
v 0.161336809 0.87536031 0.653301001
v 0.153812185 0.875341594 0.653300226
v 0.146287501 0.875321627 0.653300226
v 0.13875474 0.875073314 0.65343678
v 0.131198511 0.874094605 0.654010236
v 0.122835718 0.853033662 0.675021172
v 0.12307933 0.863706827 0.672877192
v 0.123390071 0.879439294 0.671969831
v 0.123520352 0.889416873 0.674506128
v 0.123902403 0.907495975 0.672300458
v 0.116376042 0.907981396 0.672003269
v 0.10824015 0.886048496 0.684886158
v 0.100815006 0.891883314 0.685649455
v 0.0933326781 0.89281708 0.685089827
v 0.0858264416 0.892797172 0.685089827
v 0.0782291368 0.884945989 0.685487509
v 0.0748474672 0.905259311 0.673538864
v 0.0673395246 0.907043636 0.67247802
v 0.0597990565 0.907023609 0.67247802
v 0.0522585958 0.907003582 0.67247802
v 0.0445038192 0.885448158 0.685139537
v 0.0370340571 0.892430365 0.685229003
v 0.0295283049 0.892410398 0.685229003
v 0.0220218897 0.892220616 0.685328662
v 0.0145178167 0.886468232 0.684492946
v 0.0107859932 0.906834662 0.672512591
v 0.00324512972 0.907268107 0.67224592
v -0.00429170905 0.905849695 0.673068106
v -0.0118323909 0.906262755 0.672813475
v -0.01925168 0.891250074 0.685833812
v -0.026759278 0.891655862 0.685584009
v -0.0342804529 0.893118322 0.684714079
v -0.0417759158 0.892187715 0.685248494
v -0.0492147245 0.885580361 0.684915423
v -0.0570778474 0.906696856 0.672487557
v -0.0646366477 0.907628477 0.671927989
v -0.0721587837 0.906660199 0.67248553
v -0.0794365928 0.895386755 0.67910248
v -0.0830519721 0.891863465 0.685374379
v -0.0905574411 0.891851604 0.685369611
v -0.0980798826 0.892437041 0.685014367
v -0.105569586 0.891864538 0.685338676
v 0.248785079 0.783229411 0.169711992
v 0.25247401 0.720352054 0.216709152
v 0.252488911 0.714736104 0.211170092
v 0.252503842 0.709120154 0.205631018
v 0.252518773 0.703504205 0.200091958
v 0.247461125 0.684261799 0.209752738
v 0.250017703 0.786762238 0.142180473
v 0.249799043 0.789466858 0.150128886
v 0.249782041 0.795179486 0.155808881
v 0.236484423 0.424600959 0.503853083
v 0.280074686 0.930134356 0.141446397
v 0.288842648 0.931007385 0.130756781
v 0.289205939 0.932814777 0.124390319
v 0.293907136 0.934141278 0.113302685
v 0.272611439 0.702488005 0.278153747
v 0.266044825 0.716332495 0.263192743
v 0.258026659 0.713554204 0.265219331
v 0.253986776 0.708769023 0.263941377
v 0.253309369 0.693282545 0.265788943
v 0.252535939 0.67645365 0.268686265
v 0.25205034 0.784054041 0.188861147
v 0.251892269 0.784676671 0.193320036
v 0.251359075 0.782694757 0.20460023
v 0.251203537 0.786293566 0.211737335
v 0.250892013 0.787566006 0.220566675
v 0.229050428 0.415079415 0.502055645
v 0.236497939 0.419513106 0.498834908
v 0.23644267 0.421367884 0.501845837
v -0.0617770292 0.402987957 0.645932436
v -0.0548077375 0.40350154 0.649723947
v -0.0478740409 0.403512359 0.649729133
v -0.0409404896 0.403530777 0.649729133
v -0.0340069383 0.403549194 0.649729133
v -0.0270730294 0.403534204 0.64975214
v -0.020138938 0.403480947 0.649801314
v -0.0132055972 0.403497189 0.649802804
v -0.00627227686 0.403515607 0.649802804
v 0.000661044032 0.403534025 0.649802804
v 0.00759436376 0.403497398 0.649840593
v 0.0145273795 0.403429538 0.64989984
v 0.0214598421 0.403319031 0.649988353
v 0.0283924751 0.40332064 0.649999917
v 0.0353251807 0.403339058 0.649999917
v 0.0422578864 0.403357476 0.649999917
v 0.0491895936 0.403298438 0.650053084
v 0.0561368279 0.401390105 0.647246838
v 0.0604464486 0.450778842 0.609089494
v 0.0604675263 0.44624266 0.603810668
v 0.0606048666 0.448887795 0.593544602
v 0.0602409691 0.420593023 0.604795218
v 0.0602542348 0.415600479 0.599871039
v 0.0602675006 0.410607934 0.594946802
v 0.0602807663 0.405615389 0.590022624
v 0.0602946319 0.400659412 0.585072517
v 0.0603930801 0.400873184 0.576453149
v 0.0604809076 0.400420427 0.568281114
v 0.0606109388 0.402521551 0.558259189
v 0.0649064109 0.905819714 0.188510388
v 0.0567464381 0.905735135 0.188555524
v 0.0485638529 0.903568149 0.190095127
v 0.0402620994 0.886806488 0.202108741
v 0.0362252593 0.893541992 0.202196375
v 0.0281000156 0.893690348 0.202074647
v 0.0199712384 0.887815356 0.20134598
v 0.0118718026 0.905533373 0.188614771
v 0.00371258566 0.905894101 0.188340291
v -0.00445262855 0.907605767 0.187096313
v -0.0126159377 0.907558501 0.187114656
v -0.0206494704 0.890384078 0.199425012
v -0.0287830923 0.893255174 0.202278093
v -0.036936868 0.895567298 0.200606287
v -0.045028232 0.890387297 0.199376211
v -0.0491506718 0.894280553 0.196574286
v -0.0575188771 0.907685637 0.186937779
v -0.0656828061 0.907663941 0.186937779
v -0.0738053918 0.905742764 0.188301086
v -0.0662583485 0.401504785 0.558745146
v -0.0662060827 0.403644651 0.5657444
v -0.0660751909 0.402322769 0.575185716
v -0.0659759566 0.402376294 0.583621144
v -0.0657700747 0.397718191 0.595350444
v -0.065783307 0.402699083 0.600263119
v -0.0657334849 0.404894859 0.607123673
v -0.0657204986 0.408712149 0.612839937
v -0.0655980557 0.407678604 0.621917665
v -0.0644253045 0.519823968 0.552693129
v -0.0643572509 0.518899858 0.557631433
v -0.0641874 0.513224185 0.565834939
g path_000000
l 7 6 5 4 3 2 1 1024 1023 1022 1021 1020 1019 1018 1017
g path_000001
l 8 9 10 11 12 13 14 15 16 17 18 19 20
g path_000002
l 21 22 23 24 25 26 27 28 29 30 31 32 33 34 35 36 37 38 39 40 41 42 43 44 45 46 47 48
g path_000003
l 50 51
g path_000004
l 52 53 54 55 56 57
g path_000005
l 58 59 60 61 62
g path_000006
l 63 64
g path_000007
l 65 66 67 68 69
g path_000008
l 70 71 72 73 74 75
g path_000009
l 76 77 78 79 80 81 82 83
g path_000010
l 84 85 86 87 88 89 90 91 92 93 94 95 96 97 98 99 100 101 102
g path_000011
l 103 104 105 106 107 108 109 110 111 112 113
g path_000012
l 114 115
g path_000013
l 116 117 118 119 120
g path_000014
l 121 122 123 124 125 126 127 128 129 130 131 132 133 134 135 136 137 138 139 140 141 142 143 144 145 146 147
g path_000015
l 148 149 150 151 152 153 154 155 156 157 158 159 160 161 162 163 164
g path_000016
l 165 166 167 168
g path_000017
l 169 170 171 172 173 174 175 176 177
g path_000018
l 178 179 180 181 182 183 184 185 186 187
g path_000019
l 188 189 190 191 192 193 194 195 196 197 198 199 200 201
g path_000020
l 202 203 204 205 206 207
g path_000021
l 208 209 210 211 212 213
g path_000022
l 214 215 216 217 218
g path_000023
l 219 220 221 222 223 224 225 226 227
g path_000024
l 228 229 230 231 232 233 234 235 236 237 238 239 240 241 242 243
g path_000025
l 244 245 246 247
g path_000026
l 248 249 250 251 252
g path_000027
l 253 254 255 256 257 258 259 260 261 262 263 264 265 266 267 268 269 270 271 272 273 274 275 276 277 278 279 280 281 282 283 284 285 286 287
g path_000028
l 288 289 290 291 292 293 294 295 296 297 298 299 300 301 302 303 304 305 306 307 308 309 310 311 312 313 314 315 316 317 318 319 320 321 322 323 324 325 326 327 328 329 330 331 332 333
g path_000029
l 334 335 336 337 338 339 340 341 342 343 344 345 346 347 348 349 350 351 352 353 354 355 356 357 358 359 360 361 362 363 364 365 366 367 368 369 370 371 372 373 374 375 376 377 378 379 380 381 382 383 384 385 386 387 388 389 390 391 392 393 394 395 396 397 398 399 400 401 402 403 404 405 406 407 408 409 410 411 412 413 414 415 416 417 418 419 420 421 422 423 424 425 426 427 428 429 430 431 432 433 434 435 436 437 438 439 440 441 442 443 444 445 446 447 448 449 450 451 452 453 454 455 456 457 458 459 460 461 462 463 464 465 466 467 468 469 470 471 472 473 474 475 476 477 478 479 480 481 482 483 484 485 486 487 488 489 490 491 492 493 494 495 496 497 498 499 500 501 502 503 504 505 506 507 508 509 510 511 512 513 514 515 516 517 518 519 520 521 522 523 524 525 526 527 528 529 530 531 532 533 534 535 536 537 538 539 540 541 542 543 544 545 546 547 548 549 550 551 552 553 554 555 556 557 558 559 560 561 562 563 564 565 566 567 568 569 570 571 572 573 574 575 576 577 578 579 580 581 582 583 584 585 586 587 588 589 590 591 592 593 594 595 596 597 598 599 600 601 602
g path_000030
l 603 604 605 606 607 608 609 610 611 612 613 614 615 616 617 618 619 620 621 622 623 624 625 626 627
g path_000031
l 628 629 630 631 632 633 634 635 636 637 638 639 640 641 642 643 644 645 646 647 648 649 650 651 652 653 654 655
g path_000032
l 656 657 658 659 660 661 662 663 664 665 666 667 668 669 670 671 672 673 674 675 676 677 678 679 680 681 682 683 684 685 686 687 688 689
g path_000033
l 690 691 692 693 694 695 696
g path_000034
l 697 698 699 700 701 702 703 704 705
g path_000035
l 706 707 708 709 710 711 712 713
g path_000036
l 715 716 717 718 719 720 721 722
g path_000037
l 723 724 725 726 727 728 729 730 731
g path_000038
l 732 733 734 735 736 737 738 739 740 741 742 743 744 745 746 747 748 749 750 751 752 753 754 755 756 757 758 759 760 761 762 763 764 765 766 767 768 769 770
g path_000039
l 771 772 773 774
g path_000040
l 775 776 777 778
g path_000041
l 780 781 782 783 784
g path_000042
l 785 786 787
g path_000043
l 788 789
g path_000044
l 790 791 792 793 794 795 796 797 798 799 800 801 802
g path_000045
l 803 804 805 806 807 808
g path_000046
l 809 810 811 812 813 814 815 816 817 818
g path_000047
l 819 820 821 822 823 824 825 826 827 828 829 830 831 832 833 834 835 836 837 838 839 840
g path_000048
l 841 842 843 844 845
g path_000049
l 849 850
g path_000050
l 851 852 853 854 855 856 857 858 859 860 861 862 863 864 865 866 867 868 869 870 871 872 873 874
g path_000051
l 875 876 877 878 879 880 881 882 883 884 885 886 887 888 889 890 891 892 893
g path_000052
l 894 895 896 897 898 899 900 901 902 903 904 905 906 907 908 909 910 911
g path_000053
l 912 913 914 915 916 917 918 919
g path_000054
l 920 921 922 923 924 925 926 927
g path_000055
l 928 929 930
g path_000056
l 931 932
g path_000057
l 933 934 935 936
g path_000058
l 937 938 939 940 941 942 943
g path_000059
l 944 945 946 947 948 949
g path_000060
l 951 952 953 954 955 956 957 958 959
g path_000061
l 960 961 962 963 964 965 966 967 968 969 970 971 972
g path_000062
l 973 974 975
g path_000063
l 976 977 978 979 980 981 982 983 984 985 986 987
g path_000064
l 988 989 990 991 992 993
g path_000065
l 994 995 996 997 998
g path_000066
l 999 1000 1001 1002
g path_000067
l 1003 1004 1005 1006 1007
g path_000068
l 1008 1009 1010 1011 1012 1013 1014 1015 1016
g path_000069
l 1025 1033 1032 1031
g path_000070
l 1026 1027 1028 1029 1030
g path_000071
l 1034 1052 1051 1050
g path_000072
l 1035 1036 1037 1038
g path_000073
l 1039 1040 1041 1042 1043 1044
g path_000074
l 1045 1046 1047 1048 1049
g path_000075
l 1053 1054 1055 1056 1057 1058 1059 1060 1061 1062 1063 1064 1065 1066 1067 1068 1069 1070
g path_000076
l 1071 1072 1073
g path_000077
l 1074 1075 1076 1077 1078 1079 1080 1081
g path_000078
l 1082 1083 1084 1085 1086 1087 1088 1089 1090 1091 1092 1093 1094 1095 1096 1097 1098 1099 1100
g path_000079
l 1101 1102 1103 1104 1105 1106 1107 1108 1109
g path_000080
l 1110 1111 1112
