# Fixed world centers; Z up; paths immutable
v -0.375808239 -0.580418825 0.996582448
v -0.368474245 -0.57798934 0.995624244
v -0.361981392 -0.578975379 0.995959044
v -0.355623245 -0.580402017 0.995959044
v -0.349213958 -0.581657529 0.996088922
v -0.341799587 -0.578901887 0.995380223
v -0.335445344 -0.58032763 0.995380223
v -0.328924865 -0.581183851 0.995812476
v -0.32169345 -0.57900399 0.994668663
v -0.31984067 -0.58430028 0.991186142
v -0.312869728 -0.570711017 0.994299591
v -0.306334764 -0.571452439 0.994818687
v -0.299908996 -0.572568774 0.995051742
v -0.292409182 -0.56934458 0.994713128
v -0.289275199 -0.570173264 0.994623125
v -0.282940984 -0.571594536 0.994623125
v -0.276606768 -0.573015869 0.994623125
v -0.268440366 -0.567268312 0.996210396
v -0.262383074 -0.569674611 0.995458007
v -0.256139994 -0.571404755 0.995221436
v -0.249844223 -0.572941959 0.995131969
v -0.242573202 -0.570404232 0.994274795
v -0.236190587 -0.571599603 0.994445205
v -0.229790539 -0.572723687 0.994669735
v -0.223387435 -0.573830664 0.994907081
v -0.218944073 -0.569214046 0.995096147
v -0.212677717 -0.570828736 0.994945705
v -0.206360921 -0.572246134 0.994945705
v -0.20004414 -0.573663473 0.994945705
v -0.192588463 -0.570233405 0.99477309
v -0.186471358 -0.572446942 0.994165778
v -0.179947913 -0.572995722 0.994826555
v -0.17257382 -0.569817662 0.994464576
v -0.169381231 -0.570361793 0.99458921
v -0.163074389 -0.571776927 0.99458921
v -0.15662536 -0.572584271 0.99505198
v -0.149238944 -0.569254637 0.994808316
v -0.142938197 -0.570668399 0.994808316
v -0.136637464 -0.572082222 0.994808316
v -0.130336717 -0.573495984 0.994808316
v -0.122945704 -0.570032954 0.994668126
v -0.116650023 -0.571445584 0.994668126
v -0.110328704 -0.572740674 0.994757652
v -0.102988452 -0.569413006 0.994517028
v -0.0998431295 -0.570118785 0.994517028
v -0.0935524777 -0.571530282 0.994517028
v -0.0872555077 -0.572911739 0.994539917
v -0.0809649229 -0.574323237 0.994539917
v -0.0736887529 -0.571172833 0.994165659
v -0.0672258958 -0.571715474 0.994826794
v -0.0608640723 -0.572740614 0.99511987
v -0.0537043288 -0.570068359 0.994384587
v -0.0505642518 -0.570772946 0.994384587
v -0.0442841053 -0.572182119 0.994384587
v -0.038003955 -0.573591292 0.994384587
v -0.0307442546 -0.570313215 0.99411273
v -0.0243736543 -0.571217954 0.994496346
v -0.0180992428 -0.572625816 0.994496346
v -0.0117416587 -0.573582828 0.994839549
v -0.00758836092 -0.56930387 0.99479717
v -0.00130479387 -0.570625246 0.99486202
v 0.00497543253 -0.571963131 0.994914174
v 0.0112620778 -0.57326299 0.994995296
v 0.0184520409 -0.570099294 0.994641542
v 0.024715228 -0.571504653 0.994641542
v 0.0309856739 -0.572867274 0.994674087
v 0.0373209789 -0.573842108 0.995001733
v 0.0443567075 -0.571464598 0.99405092
v 0.0506161563 -0.572869062 0.99405092
v 0.0569419749 -0.57386148 0.994364679
v 0.0641442016 -0.570357323 0.994274557
v 0.0672709197 -0.571058929 0.994274557
v 0.0735477805 -0.572311401 0.994389355
v 0.0799165443 -0.57295984 0.994963884
v 0.0869545415 -0.570369661 0.994180202
v 0.0932541862 -0.57142669 0.994443059
v 0.0995017737 -0.572828531 0.994443059
v 0.105862543 -0.573446453 0.995039821
v 0.109920926 -0.569032073 0.995115101
v 0.116157353 -0.570459962 0.995094001
v 0.122381188 -0.571979523 0.995003104
v 0.128625229 -0.573355079 0.995021999
v 0.135668069 -0.570457637 0.994477093
v 0.141904831 -0.571857095 0.994477093
v 0.148141593 -0.573256493 0.994477093
v 0.155214474 -0.569997966 0.994209588
v 0.161439896 -0.571450055 0.994168639
v 0.167733148 -0.572354019 0.994545281
v 0.174037799 -0.573145986 0.9950068
v 0.181061015 -0.570083261 0.994592667
v 0.184173897 -0.570781767 0.994592667
v 0.190399647 -0.572178721 0.994592667
v 0.196625397 -0.573575675 0.994592667
v 0.203528777 -0.571414173 0.993493497
v 0.209752277 -0.57281059 0.993493497
v 0.21603778 -0.57362622 0.993935823
v 0.222342372 -0.57423526 0.994534969
v 0.226141825 -0.571181238 0.993586481
v 0.232370004 -0.572474957 0.993663788
v 0.238624766 -0.573495984 0.993948758
v 0.244912326 -0.574161828 0.994503796
v 0.251844823 -0.571388781 0.993875146
v 0.258056611 -0.572782636 0.993875146
v 0.264268398 -0.574176431 0.993875146
v 0.271265835 -0.57049638 0.993939936
v 0.274352044 -0.571387529 0.993791401
v 0.280558765 -0.572780192 0.993791401
v 0.286781579 -0.573977828 0.993939936
v 0.293755531 -0.570269525 0.994028747
v 0.299956292 -0.571660876 0.994028747
v 0.306157053 -0.573052227 0.994028747
v 0.312375963 -0.574197829 0.994215846
v 0.317887396 -0.579907298 0.994725049
v 0.324206948 -0.579644501 0.995981574
v 0.330459833 -0.580262363 0.99656862
v 0.337294966 -0.577955902 0.995588839
v 0.340393186 -0.578651071 0.995588839
v 0.346633434 -0.579335809 0.996124625
v 0.352830738 -0.58068651 0.996154487
v 0.359656602 -0.578302383 0.995235562
v 0.365897477 -0.578814328 0.995902061
v 0.372087747 -0.580203295 0.995902061
v 0.378289521 -0.581368387 0.996071935
v 0.379348785 -0.577441573 0.991486728
v 0.380580485 -0.570126057 0.989485145
v 0.379242986 -0.613739014 0.94845444
v 0.380192757 -0.612292111 0.941830754
v 0.379799396 -0.637843609 0.914350688
v 0.380411774 -0.643456876 0.902150989
v 0.369102299 -0.953697264 0.658153713
v 0.376893759 -0.950089157 0.657827497
v 0.381004751 -0.949038208 0.654903114
v 0.394185841 -0.675441802 0.859653413
v 0.394767225 -0.672850668 0.857664466
v 0.392561883 -0.669844508 0.851409912
v 0.393268287 -0.674874306 0.839386463
v 0.393089712 -0.699946225 0.811479628
v 0.393761158 -0.706195176 0.79832679
v 0.393284112 -0.653425872 0.835518122
v 0.392554253 -0.690543056 0.79782635
v 0.393415153 -0.692482114 0.788026929
v 0.390720606 -0.688886225 0.786176026
v 0.380566508 -0.856958926 0.642181993
v 0.379763603 -0.820154786 0.6624614
v 0.38051632 -0.825066745 0.64977026
v 0.395743042 -0.587882876 0.834257782
v 0.398918837 -0.589376688 0.833629727
v 0.405340463 -0.590817571 0.833629727
v 0.411762118 -0.592258453 0.833629727
v 0.418778867 -0.590635419 0.832058251
v 0.425199419 -0.592076063 0.832058251
v 0.432243675 -0.589511931 0.831252337
v 0.429732561 -0.582632303 0.832205296
v 0.430776149 -0.580717325 0.8256405
v 0.42859897 -0.578405559 0.818792343
v 0.425426841 -0.576550663 0.819722474
v 0.418471038 -0.57654506 0.822624743
v 0.411893994 -0.579055071 0.819387019
v 0.405465931 -0.577612698 0.819387019
v 0.399037868 -0.576170385 0.819387019
v 0.392032593 -0.577300549 0.821361661
v 0.380412966 -0.76256156 0.664583087
v 0.389220178 -0.667896986 0.734467149
v 0.395860791 -0.669463336 0.734404981
v 0.403104633 -0.668219626 0.732426226
v 0.406423539 -0.669040561 0.732363999
v 0.413067639 -0.670531392 0.732363999
v 0.419719338 -0.671811759 0.73253721
v 0.427094162 -0.666652083 0.733786106
v 0.430974215 -0.665763497 0.730904162
v 0.431923479 -0.668011844 0.720565081
v 0.429947197 -0.65720582 0.720411897
v 0.423303872 -0.655715168 0.720411897
v 0.416529387 -0.657739043 0.717487812
v 0.409324974 -0.657802761 0.720449686
v 0.406000674 -0.657056868 0.720449686
v 0.399352044 -0.655565023 0.720449686
v 0.392617077 -0.655979693 0.718863428
v 0.380962223 -0.759777486 0.631215453
v 0.379611522 -0.73578757 0.641778588
v 0.379992694 -0.747982979 0.622755051
v 0.380050004 -0.695325375 0.657543421
v 0.380288661 -0.700223923 0.649043739
v 0.380907416 -0.707243264 0.634327888
v 0.381880373 -0.707049966 0.625660658
v 0.380602211 -0.682114601 0.6373806
v 0.380091846 -0.642332315 0.661908209
v 0.379784852 -0.65803808 0.644091904
v 0.379867136 -0.607169449 0.67834872
v 0.379080296 -0.641498685 0.640054166
v 0.380047143 -0.641040027 0.631626785
v 0.378761798 -0.617418408 0.64262569
v 0.379558265 -0.620224297 0.631360412
v 0.379266649 -0.568441808 0.671484649
v 0.379932523 -0.573458254 0.658363998
v 0.38081342 -0.574350357 0.648807228
v 0.379232258 -0.557445645 0.654253602
v 0.380304962 -0.554491282 0.64807725
v 0.378476262 -0.542599559 0.649164557
v 0.374943495 -0.545886278 0.645581424
v 0.367925167 -0.551101089 0.639617801
v 0.360723436 -0.551257789 0.642565548
v 0.353927433 -0.552025318 0.640555501
v 0.347203225 -0.551475942 0.639714241
v 0.339955181 -0.55237323 0.642006516
v 0.333270103 -0.55115217 0.641762316
v 0.326512963 -0.550947368 0.64061445
v 0.319610953 -0.552672386 0.637749016
v 0.31590873 -0.551371813 0.642663419
v 0.309169322 -0.550791144 0.641849458
v 0.302317381 -0.551598907 0.63980031
v 0.295639813 -0.550100565 0.63980031
v 0.288484871 -0.549797297 0.643164098
v 0.281685054 -0.549776256 0.641851544
v 0.274859488 -0.549970984 0.640345871
v 0.27115041 -0.549284577 0.644716799
v 0.26426965 -0.55004102 0.642713785
v 0.257281423 -0.551834881 0.639786541
v 0.250593215 -0.550334156 0.639786541
v 0.243444815 -0.550080657 0.643110871
v 0.236616209 -0.55000931 0.641841054
v 0.229928002 -0.548508584 0.641841054
v 0.222813264 -0.548032999 0.645362496
v 0.228235349 -0.436961561 0.73846972
v 0.226574093 -0.424650878 0.744530261
v 0.227044508 -0.425801307 0.734960556
v 0.227906927 -0.423356533 0.728581071
v 0.228288531 -0.425371677 0.718165457
v 0.229235336 -0.42217496 0.712418616
v 0.227723122 -0.411158293 0.713099122
v 0.22808978 -0.410530925 0.709342897
v 0.228897154 -0.408605099 0.702424407
v 0.228316933 -0.419506311 0.683742285
v 0.229050711 -0.418313384 0.67606914
v 0.228406072 -0.39917019 0.68424809
v 0.227802098 -0.410222173 0.665248096
v 0.227587655 -0.41775316 0.649413407
v 0.227025852 -0.428539902 0.630463779
v 0.228060737 -0.424632162 0.625148535
v 0.225950927 -0.418622911 0.621102989
v 0.22654222 -0.41598767 0.619080186
v 0.226392761 -0.422955424 0.603491068
v 0.231696263 -0.410874218 0.606552362
v 0.238292277 -0.412354261 0.606552362
v 0.245005831 -0.412687898 0.607635915
v 0.251225799 -0.417897046 0.604112327
v 0.251678646 -0.419951499 0.593098998
v 0.252387643 -0.419470102 0.584449768
v 0.250271022 -0.41333881 0.580451965
v 0.251347959 -0.409166574 0.575290442
v 0.250759006 -0.38475585 0.593424797
v 0.251295388 -0.385866851 0.583233714
v 0.244318947 -0.384958982 0.58725059
v 0.236995712 -0.390344709 0.58064115
v 0.229944408 -0.392918587 0.576733112
v 0.248866528 -0.19257772 0.76479274
v 0.25261122 -0.192330316 0.757161677
v 0.252877414 -0.195161059 0.745843053
v 0.252819687 -0.201025024 0.731514752
v 0.253064394 -0.204126835 0.719815731
v 0.253716558 -0.203472599 0.711749494
v 0.254180133 -0.204594538 0.701903939
v 0.251943499 -0.201072365 0.695914567
v 0.252734035 -0.199141636 0.689026237
v 0.254042208 -0.222460926 0.657679439
v 0.25834012 -0.215248287 0.661110938
v 0.264003366 -0.222983316 0.65481478
v 0.269960552 -0.228101134 0.651131988
v 0.274074912 -0.222461507 0.652989864
v 0.280402333 -0.223881274 0.652989864
v 0.287017316 -0.222235471 0.656043947
v 0.293326437 -0.223771557 0.655926406
v 0.30033353 -0.221314624 0.655326486
v 0.306373656 -0.225942984 0.652127266
v 0.313183367 -0.221567944 0.657897055
v 0.316466749 -0.225078762 0.650644958
v 0.316988379 -0.227503046 0.639268935
v 0.316327333 -0.205198497 0.651963115
v 0.315631956 -0.222240999 0.625829995
v 0.245315969 -1.13715684 -0.307642102
v 0.253957063 -1.13887656 -0.307424515
v 0.259131312 -1.13525307 -0.308919936
v 0.267828763 -1.1361624 -0.307883024
v 0.276488006 -1.13752913 -0.307309806
v 0.285393506 -1.13532484 -0.303128928
v 0.29464671 -1.13569462 -0.307677656
v 0.303112388 -1.13988113 -0.309956819
v 0.312792659 -1.13369071 -0.307871133
v 0.317095339 -1.13465619 -0.307871133
v 0.32570067 -1.13658702 -0.307871133
v 0.334305704 -1.1385237 -0.307876974
v 0.344266564 -1.12602448 -0.299401909
v 0.352813184 -1.12857628 -0.300035983
v 0.360897094 -1.14081907 -0.310466379
v 0.370402038 -1.13651001 -0.310279876
v 0.379067987 -1.1368643 -0.308686644
v 0.38766247 -1.13879275 -0.308686644
v 0.392826706 -1.13387656 -0.308855295
v 0.401511401 -1.13317084 -0.306191146
v 0.410299063 -1.12905836 -0.300084382
v 0.418598711 -1.13945019 -0.308645368
v 0.4280231 -1.13568377 -0.308999926
v 0.436605543 -1.13760948 -0.308999926
v 0.445187956 -1.13953519 -0.308999926
v 0.450297803 -1.13493741 -0.309484035
v 0.45888266 -1.13648045 -0.309098035
v 0.467504501 -1.13581789 -0.306482017
v 0.476074427 -1.13774085 -0.306482017
v 0.485428154 -1.13509393 -0.307960927
v 0.493983835 -1.13815701 -0.309114605
v 0.50333631 -1.13488472 -0.309959531
v 0.507619083 -1.13584566 -0.309959531
v 0.516182363 -1.13839352 -0.310592651
v 0.524750292 -1.13968968 -0.309959531
v 0.534062505 -1.12244368 -0.296657234
v 0.542594731 -1.1256963 -0.298012286
v 0.551203251 -1.13997817 -0.310518414
v 0.560525537 -1.13769388 -0.312359303
v 0.568986356 -1.13106167 -0.303705633
v 0.572272718 -1.11807024 -0.283546597
v 0.570835292 -1.13224614 -0.2857503
v 0.574340641 -1.13762546 -0.28415674
v 0.583606184 -1.13517189 -0.285811096
v 0.592019618 -1.13153827 -0.280239701
v 0.600353003 -1.1253072 -0.27206555
v 0.609113038 -1.13944232 -0.28434509
v 0.614003658 -1.13171124 -0.28165096
v 0.622636795 -1.13870442 -0.286761791
v 0.63111794 -1.13964558 -0.28578949
v 0.63244319 -1.12600851 -0.284135669
v 0.633910477 -1.11730516 -0.287423074
v 0.635710001 -1.11949813 -0.301752806
v 0.632322907 -1.08965766 -0.284497172
v 0.633758664 -1.08018386 -0.286923975
v 0.630585015 -1.05675781 -0.275991797
v 0.632095039 -1.05002785 -0.281157613
v 0.633605123 -1.04329789 -0.286323458
v 0.635146439 -1.03756702 -0.292524695
v 0.631232858 -1.01794279 -0.279204607
v 0.632736564 -1.01124132 -0.284348607
v 0.63424027 -1.00453973 -0.289492637
v 0.631025136 -0.979467988 -0.276341498
v 0.632521033 -0.972801268 -0.281458765
v 0.634016871 -0.966134608 -0.286576062
v 0.631121874 -0.951195955 -0.2839095
v 0.631851912 -0.947347641 -0.285907418
v 0.633344293 -0.940696776 -0.291012555
v 0.634912193 -0.936397552 -0.298634201
v 0.631470382 -0.904041052 -0.277139932
v 0.632952511 -0.897435606 -0.282210231
v 0.634453475 -0.891409993 -0.287907749
v 0.631450534 -0.872571826 -0.280705035
v 0.63292706 -0.865966499 -0.285734951
v 0.634484112 -0.861821055 -0.293453932
v 0.630566657 -0.840559661 -0.277311891
v 0.632013083 -0.833258688 -0.281520903
v 0.633483231 -0.826706588 -0.286550224
v 0.634989083 -0.821224809 -0.292764425
v 0.631994188 -0.802354991 -0.285131574
v 0.633302629 -0.791082382 -0.284856975
v 0.634722829 -0.783284128 -0.288433164
v 0.63536799 -0.752843201 -0.266573757
v 0.631741166 -0.739298344 -0.258475095
v 0.633154571 -0.731851518 -0.262298554
v 0.634489059 -0.722129166 -0.263535649
v 0.635119796 -0.692268491 -0.241847426
v 0.632152319 -0.672951162 -0.233021021
v 0.633466065 -0.663269043 -0.234108508
v 0.630801857 -0.65250504 -0.234948933
v 0.63151443 -0.649329424 -0.237386525
v 0.632752776 -0.637581885 -0.236024201
v 0.634103835 -0.629208267 -0.2385315
v 0.631367862 -0.616177142 -0.236632213
v 0.632570982 -0.603680968 -0.23427242
v 0.633986831 -0.597370923 -0.239115968
v 0.631239355 -0.58379823 -0.236451238
v 0.63255322 -0.574697971 -0.237972006
v 0.634120822 -0.572762668 -0.247963637
v 0.630868077 -0.568037808 -0.249559417
v 0.63247776 -0.567297339 -0.261020094
v 0.633841515 -0.559534729 -0.264126122
v 0.630993783 -0.543150485 -0.257925749
v 0.632404506 -0.536863267 -0.262751758
v 0.633706272 -0.527570724 -0.263942271
v 0.630984783 -0.514566779 -0.261667997
v 0.63165015 -0.510375381 -0.262787223
v 0.633263946 -0.50983125 -0.274581671
v 0.63074249 -0.502441049 -0.279116213
v 0.632177711 -0.496901214 -0.284842342
v 0.633332551 -0.483696431 -0.281113505
v 0.630587935 -0.469949603 -0.277737081
v 0.632045627 -0.465219229 -0.284423113
v 0.633448601 -0.458966464 -0.289222658
v 0.634851635 -0.452713728 -0.294022202
v 0.631101787 -0.433790505 -0.277693629
v 0.632543206 -0.428805768 -0.284023136
v 0.633955359 -0.423007965 -0.289335877
v 0.630937576 -0.401646167 -0.276005626
v 0.632326722 -0.395454973 -0.280757934
v 0.633715928 -0.389263779 -0.285510212
v 0.63117826 -0.380614281 -0.28822127
v 0.631932139 -0.379109144 -0.292638689
v 0.633321345 -0.37291792 -0.297390968
v 0.63471055 -0.366726726 -0.302143276
v 0.631020904 -0.327759206 -0.265408158
v 0.632445812 -0.322989315 -0.271864504
v 0.634162784 -0.32563746 -0.288048774
v 0.630551279 -0.309510976 -0.274400711
v 0.632003844 -0.305486768 -0.281845927
v 0.633376718 -0.299368262 -0.286542445
v 0.634749591 -0.293249756 -0.291238934
v 0.631774604 -0.272806972 -0.277995944
v 0.633234859 -0.269099951 -0.285851061
v 0.634563446 -0.262049496 -0.289242864
v 0.631810367 -0.24711898 -0.283158571
v 0.632875323 -0.233619109 -0.277775466
v 0.63428694 -0.228869125 -0.284193635
v 0.631020188 -0.220889747 -0.280940235
v 0.632469475 -0.217137888 -0.2887173
v 0.633827806 -0.211084366 -0.293363929
v 0.630768657 -0.188262418 -0.2761105
v 0.632118523 -0.182246521 -0.280728251
v 0.63346839 -0.176230624 -0.285345972
v 0.63085413 -0.164264917 -0.282858431
v 0.631562889 -0.162129357 -0.286370248
v 0.632917643 -0.156295553 -0.291220903
v 0.634265304 -0.150289342 -0.295831203
v 0.631152809 -0.126207739 -0.276142061
v 0.632521033 -0.120958343 -0.281733125
v 0.633859873 -0.114991792 -0.286312997
v 0.630967021 -0.0960413441 -0.273566842
v 0.632275403 -0.0895406231 -0.277317345
v 0.63399148 -0.0925771818 -0.294766575
v 0.631125093 -0.0743082762 -0.282781333
v 0.63179034 -0.0713434517 -0.285057098
v 0.633120835 -0.0654138178 -0.289608628
v 0.63445133 -0.0594841838 -0.294160157
v 0.631756723 -0.0452126935 -0.287728339
v 0.633083105 -0.0393015333 -0.292265683
v 0.634409428 -0.033390373 -0.296803027
v 0.630961716 -0.0198459756 -0.284659058
v 0.631583691 0.00210435153 -0.265368164
v 0.632657051 0.0133537864 -0.261818618
v 0.633853257 0.0217011832 -0.262542367
v 0.631293058 0.0335171819 -0.259259641
v 0.632597744 0.0393316597 -0.263722748
v 0.63372004 0.0491687283 -0.262107581
v 0.634275377 0.0712118298 -0.241932288
v 0.631658912 0.0846383274 -0.23591511
v 0.632791579 0.0938036367 -0.235098138
v 0.634078979 0.099541083 -0.239502147
v 0.630772948 0.111290008 -0.22928156
v 0.632077098 0.116542093 -0.234387487
v 0.633291125 0.123738572 -0.236485094
v 0.630503237 0.141191006 -0.223847538
v 0.631779134 0.146877244 -0.228212237
v 0.633054972 0.152563483 -0.232576936
v 0.630182624 0.171935052 -0.216641247
v 0.630816817 0.174761504 -0.218810812
v 0.632085264 0.180414423 -0.223149925
v 0.633353651 0.186067328 -0.227489039
v 0.63109076 0.192512602 -0.231828153
v 0.632359147 0.198165521 -0.236167267
v 0.633627594 0.20381844 -0.240506381
v 0.630210876 0.218429387 -0.224943295
v 0.631340742 0.226804763 -0.224804431
v 0.632601023 0.232421532 -0.229115799
v 0.633861363 0.238038301 -0.233427182
v 0.631612897 0.244442359 -0.23773855
v 0.632873237 0.250059128 -0.242049918
v 0.634133518 0.255675912 -0.246361285
v 0.631459892 0.270747811 -0.236291915
v 0.632682264 0.27699855 -0.239490852
v 0.633637488 0.288516521 -0.233873397
v 0.630779922 0.292086005 -0.236013368
v 0.63193202 0.29964301 -0.236959502
v 0.633005261 0.308696806 -0.235350683
v 0.6307652 0.315316886 -0.239144832
v 0.632104933 0.319054693 -0.246517152
v 0.633551002 0.320771784 -0.257369876
v 0.630629361 0.325623602 -0.257311463
v 0.631716847 0.334405571 -0.256064534
v 0.632826626 0.34265998 -0.255685031
v 0.634073317 0.348215967 -0.259949744
v 0.631376386 0.363767326 -0.248155192
v 0.632593989 0.369746059 -0.251615971
v 0.6338346 0.375275224 -0.25586012
v 0.63113147 0.391018718 -0.243451625
v 0.632145822 0.400706291 -0.240263015
v 0.63337791 0.406197309 -0.244477868
v 0.630470395 0.411504507 -0.243390605
v 0.631763756 0.415810019 -0.249714494
v 0.632996678 0.421276867 -0.253968388
v 0.630446494 0.434229732 -0.246097982
v 0.631673932 0.439700067 -0.25029695
v 0.632901609 0.445165485 -0.254504889
v 0.630578995 0.453894138 -0.254149199
v 0.631191909 0.45662573 -0.256245941
v 0.632219911 0.465717912 -0.253764749
v 0.633443415 0.471170664 -0.257950187
v 0.631260633 0.477387697 -0.262135655
v 0.632296205 0.486248374 -0.25997293
v 0.633333743 0.494973868 -0.258010805
v 0.630939126 0.505163729 -0.254674941
v 0.631547391 0.507874489 -0.25675571
v 0.632763863 0.513296068 -0.260917246
v 0.633980393 0.518717647 -0.265078783
v 0.63150537 0.530335605 -0.25887242
v 0.632633269 0.537235737 -0.260159343
v 0.633781791 0.543735206 -0.262192875
v 0.631404698 0.553703189 -0.25896883
v 0.632613301 0.559089601 -0.263103366
v 0.633667469 0.567120731 -0.262085736
v 0.630910993 0.570563853 -0.264149934
v 0.632250249 0.573652029 -0.272770047
v 0.633568704 0.577162087 -0.280597121
v 0.631385028 0.583752871 -0.283856601
v 0.632400036 0.592462778 -0.281396508
v 0.63360709 0.597842336 -0.285525829
v 0.630625188 0.605167866 -0.27982527
v 0.631824791 0.61061728 -0.28378129
v 0.632970631 0.616965413 -0.285922706
v 0.634064794 0.624138236 -0.286376327
v 0.631799638 0.632263601 -0.286386907
v 0.632837772 0.640312493 -0.284983128
v 0.633826554 0.649088264 -0.282039613
v 0.631449282 0.659189045 -0.277841121
v 0.632643163 0.664509952 -0.28192538
v 0.633837104 0.669830859 -0.28600964
v 0.630625665 0.681235969 -0.271364629
v 0.631798446 0.686783671 -0.27490133
v 0.633086145 0.690480471 -0.282328367
v 0.630783677 0.699473381 -0.280158728
v 0.631988108 0.70448494 -0.284811944
v 0.633175373 0.709776342 -0.288873553
v 0.630740464 0.720909655 -0.282004118
v 0.631332278 0.723547101 -0.28402862
v 0.632515848 0.728822052 -0.288077593
v 0.633430541 0.738271236 -0.283081561
v 0.631261587 0.745260298 -0.284964055
v 0.632441461 0.750518441 -0.289000154
v 0.63270092 0.769880831 -0.262052476
v 0.633701086 0.777649045 -0.260412335
v 0.630833328 0.784089386 -0.255530357
v 0.631998539 0.78928256 -0.259516597
v 0.633021593 0.796612084 -0.258734077
v 0.630458534 0.809960902 -0.246034041
v 0.631492019 0.81699717 -0.245770842
v 0.632632911 0.82238692 -0.24919644
v 0.630421877 0.830490112 -0.248088002
v 0.63165319 0.83450079 -0.254634559
v 0.632808924 0.839651406 -0.258588105
v 0.630080402 0.855441272 -0.239662632
v 0.630842268 0.85522604 -0.248039618
v 0.632060409 0.85936451 -0.254268974
v 0.633247495 0.863976777 -0.25941363
v 0.630719602 0.876730919 -0.247162566
v 0.631585538 0.885860622 -0.241607234
v 0.632728517 0.890954375 -0.24551712
v 0.630645096 0.897399962 -0.247909486
v 0.631216288 0.899945676 -0.24986358
v 0.63235873 0.905037165 -0.253771752
v 0.633501172 0.910128653 -0.257679909
v 0.631440222 0.916254461 -0.260812461
v 0.632605433 0.921025276 -0.265496254
v 0.633747876 0.926116765 -0.269404411
v 0.631445229 0.935597003 -0.264292836
v 0.632587373 0.940638542 -0.268281788
v 0.633647442 0.946789801 -0.26952213
v 0.630610406 0.956061602 -0.256504714
v 0.631720185 0.961441159 -0.259568006
v 0.632853746 0.966492891 -0.263445675
v 0.63063544 0.974922359 -0.260592133
v 0.631758869 0.980070412 -0.264193624
v 0.632890105 0.985112071 -0.268063515
v 0.630523205 0.995543122 -0.259949744
v 0.631054223 0.998490691 -0.260761112
v 0.632181227 1.00351346 -0.264616519
v 0.633110523 1.01109576 -0.26184234
v 0.631046593 1.01756251 -0.263735592
v 0.632418752 1.01936173 -0.27598381
v 0.633772135 1.02149379 -0.287439108
v 0.631510317 1.03043258 -0.282843202
v 0.632637024 1.0354538 -0.286697447
v 0.633763671 1.04047501 -0.290551692
v 0.630753994 1.04930484 -0.277443051
v 0.63165766 1.05707145 -0.273835719
v 0.632777154 1.06206071 -0.277665377
v 0.630755007 1.0680654 -0.280635089
v 0.631899416 1.07273841 -0.285324633
v 0.633018911 1.07772756 -0.289154291
v 0.630772769 1.08652794 -0.28439042
v 0.631271482 1.08975661 -0.28425172
v 0.632387578 1.09473062 -0.288069785
v 0.633247077 1.10279632 -0.283242732
v 0.631260812 1.10845363 -0.287051409
v 0.632374167 1.1134156 -0.290860087
v 0.633434653 1.11900485 -0.292886376
v 0.631109059 1.12875915 -0.284980893
v 0.63166362 1.13123059 -0.28687793
v 0.632772684 1.13617337 -0.290672034
v 0.633742929 1.14272869 -0.289800316
v 0.631976366 1.14588916 -0.300771177
v 0.633429766 1.14684904 -0.316229731
v 0.631866336 1.1475246 -0.334699422
v 0.625894427 1.14574087 -0.344068587
v 0.619652092 1.14714158 -0.344068587
v 0.613429844 1.14825392 -0.344919831
v 0.609749496 1.14642155 -0.343102098
v 0.603505492 1.14782262 -0.343102098
v 0.596712232 1.14652002 -0.341787189
v 0.590503514 1.14720428 -0.343901783
v 0.58425808 1.14853382 -0.344116151
v 0.580568373 1.1468277 -0.341920525
v 0.574323177 1.14813626 -0.342196494
v 0.567512929 1.14703751 -0.340276837
v 0.561301768 1.14701247 -0.34448567
v 0.555055678 1.14792943 -0.345923245
v 0.548229158 1.14717221 -0.3429887
v 0.541979969 1.14782226 -0.345214278
v 0.53828156 1.14675152 -0.341133147
v 0.532025993 1.14742386 -0.343290925
v 0.525764823 1.14882874 -0.343290925
v 0.518941402 1.14772797 -0.341367573
v 0.512680233 1.14913285 -0.341367573
v 0.508987427 1.14732957 -0.33944422
v 0.502726257 1.14873445 -0.33944422
v 0.496421367 1.1485188 -0.344228745
v 0.489588797 1.14741659 -0.342302829
v 0.483284593 1.14790714 -0.345007002
v 0.479616463 1.14689517 -0.34073782
v 0.473309696 1.14750803 -0.343079627
v 0.467006147 1.14834595 -0.344761997
v 0.460183233 1.14755952 -0.34189868
v 0.45388791 1.14865088 -0.342833698
v 0.447047144 1.14754987 -0.34089753
v 0.440769702 1.1489557 -0.340905398
v 0.433928728 1.14785206 -0.338977098
v 0.430790097 1.14855635 -0.338977098
v 0.424387664 1.1485188 -0.343245208
v 0.417497367 1.14696705 -0.342631549
v 0.41119355 1.14820647 -0.343137175
v 0.404340923 1.14710093 -0.341205567
v 0.401131988 1.147192 -0.343016714
v 0.394726396 1.14757276 -0.346059471
v 0.387883216 1.14662695 -0.343650341
v 0.381567866 1.14787865 -0.344125271
v 0.374726444 1.14693272 -0.341716379
v 0.368409365 1.14818442 -0.342191041
v 0.361563385 1.14719296 -0.339916438
v 0.358399123 1.14778376 -0.34025681
v 0.352102578 1.14919662 -0.34025681
v 0.345196307 1.14779806 -0.339181751
v 0.338669121 1.14775503 -0.343477249
v 0.331810385 1.14672709 -0.341302574
v 0.328644425 1.14735389 -0.341540247
v 0.322142273 1.14761961 -0.344931394
v 0.315285414 1.14663208 -0.342632562
v 0.308952212 1.14792609 -0.342992514
v 0.302093953 1.1469239 -0.340736985
v 0.295762151 1.14823258 -0.341053665
v 0.289450496 1.14964879 -0.341053665
v 0.285727888 1.14783108 -0.339114785
v 0.279328793 1.14882386 -0.34036383
v 0.27235657 1.14728272 -0.339694142
v 0.26576376 1.14742804 -0.343445331
v 0.259178638 1.14767015 -0.346919209
v 0.255703956 1.14699066 -0.341606319
v 0.249175206 1.14751935 -0.344232112
v 0.242355108 1.14672661 -0.341346502
v 0.235704616 1.14680612 -0.345298141
v 0.229371697 1.1482271 -0.345298141
v 0.225689441 1.14661431 -0.342730522
v 0.219303623 1.14782417 -0.343352735
v 0.212457225 1.14692187 -0.340785474
v 0.206069097 1.14813173 -0.341407329
v 0.199736178 1.1495527 -0.341407329
v 0.192834571 1.14843929 -0.339461952
v 0.186501652 1.14986026 -0.339461952
v 0.182766497 1.14803636 -0.337516546
v 0.176433578 1.14945734 -0.337516546
v 0.169290319 1.14815354 -0.345561892
v 0.16238223 1.14706767 -0.343523562
v 0.156025916 1.14846182 -0.343612105
v 0.152329594 1.14678574 -0.341214836
v 0.145935118 1.14805806 -0.341662318
v 0.139071733 1.14788079 -0.346391052
v 0.132539436 1.14796567 -0.340893596
v 0.125789747 1.14818943 -0.344438672
v 0.118977204 1.14740789 -0.34149611
v 0.112507761 1.14849806 -0.342486292
v 0.105692126 1.14769709 -0.339601398
v 0.102403596 1.1480937 -0.340533942
v 0.0954522863 1.14785755 -0.345440805
v 0.0886775106 1.14718151 -0.342180252
v 0.0821520314 1.14816654 -0.343485743
v 0.0752161518 1.14704764 -0.341530681
v 0.0720339641 1.1477617 -0.341530681
v 0.0656695887 1.14918971 -0.341530681
v 0.0587337129 1.14807081 -0.339575619
v 0.0518113002 1.14808416 -0.343750149
v 0.0449769236 1.14723814 -0.340984941
v 0.0413543917 1.1468668 -0.344186813
v 0.0349742025 1.14828753 -0.344216347
v 0.0280254874 1.14716649 -0.342257679
v 0.0216493346 1.14859712 -0.342257679
v 0.0147006204 1.1474762 -0.34029901
v 0.00832446758 1.14890683 -0.34029901
v 0.00137575297 1.14778578 -0.338340312
v -0.00181232335 1.14850116 -0.338340312
v -0.00933777168 1.14734781 -0.34596613
v -0.0159271527 1.14705575 -0.34155342
v -0.0226911437 1.14765811 -0.34400326
v -0.0293511469 1.14719284 -0.34010148
v -0.0328496173 1.14725161 -0.34204039
v -0.0392394103 1.14868534 -0.34204039
v -0.0462029912 1.14756191 -0.340077519
v -0.0525927804 1.14899564 -0.340077519
v -0.0595563613 1.14787221 -0.338114649
v -0.0659461543 1.14930594 -0.338114649
v -0.0737333819 1.14793468 -0.3463974
v -0.0764239207 1.14826155 -0.338031471
v -0.0839154646 1.14752722 -0.34442997
v -0.0906488523 1.14688265 -0.341044277
v -0.0972998589 1.14783823 -0.34246254
v -0.104065076 1.1471225 -0.339286834
v -0.107481942 1.14743078 -0.34049511
v -0.11388658 1.14886785 -0.34049511
v -0.120866336 1.14774179 -0.338527679
v -0.127662003 1.14845884 -0.340651572
v -0.134647131 1.14732993 -0.338689476
v -0.142101556 1.14688051 -0.344254106
v -0.148865268 1.14770448 -0.346073508
v -0.152305618 1.14647222 -0.342282444
v -0.15907453 1.14729583 -0.344100833
v -0.165718913 1.14678395 -0.340310782
v -0.172494665 1.14760768 -0.342128158
v -0.17891641 1.14904869 -0.342128158
v -0.182700172 1.14720559 -0.340136617
v -0.189125672 1.14864004 -0.340155482
v -0.196124077 1.14751101 -0.338182777
v -0.202545807 1.14895201 -0.338182777
v -0.209247887 1.14993417 -0.339536756
v -0.212923124 1.14826941 -0.337017149
v -0.220975399 1.14708078 -0.344773889
v -0.227498248 1.14673722 -0.340475082
v -0.234427795 1.14739335 -0.342796445
v -0.240864977 1.1488378 -0.342796445
v -0.247880191 1.14770603 -0.340819031
v -0.254317373 1.14915037 -0.340819031
v -0.261417329 1.1478889 -0.339223832
v -0.265232325 1.14770305 -0.34190166
v -0.272693217 1.14761162 -0.346439093
v -0.279470325 1.14685655 -0.343340188
v -0.286174268 1.1479249 -0.344457448
v -0.289722741 1.14644623 -0.341359168
v -0.296429902 1.14751446 -0.342475832
v -0.302880794 1.14896202 -0.342475832
v -0.309910953 1.14782774 -0.340494186
v -0.317266047 1.1479826 -0.344309062
v -0.323865026 1.14746988 -0.340490669
v -0.331812978 1.14681709 -0.346689522
v -0.337799191 1.14716089 -0.340341538
v -0.342027903 1.14649498 -0.344440132
v -0.3485578 1.14785647 -0.344703346
v -0.355604082 1.14671969 -0.342717171
v -0.362069786 1.14817047 -0.342717171
v -0.369116068 1.14703369 -0.340730965
v -0.372348934 1.14775908 -0.340730965
v -0.378814608 1.14920986 -0.340730965
v -0.38586089 1.14807308 -0.338744789
v -0.392326593 1.14952385 -0.338744789
v -0.399659753 1.14801335 -0.337859631
v -0.403251827 1.14827418 -0.339229703
v -0.411632836 1.14726686 -0.346487403
v -0.417586178 1.14754903 -0.340305299
v -0.425181717 1.1475817 -0.344495803
v -0.431855649 1.14693534 -0.341050357
v -0.438730597 1.14789665 -0.342504203
v -0.445684731 1.14689505 -0.340105057
v -0.44903779 1.14748406 -0.340512604
v -0.455521137 1.14893889 -0.340512604
v -0.462586671 1.14779902 -0.338521004
v -0.469585359 1.14862967 -0.340361655
v -0.477217346 1.14681184 -0.340363979
v -0.480713159 1.14723945 -0.341249526
v -0.488274246 1.14742398 -0.34500289
v -0.495180309 1.14648986 -0.342392445
v -0.501855314 1.14773965 -0.343006551
v -0.508890152 1.14665246 -0.340846986
v -0.515436411 1.14805532 -0.341010213
v -0.521935165 1.14951348 -0.341010213
v -0.525768161 1.14764178 -0.339013845
v -0.533183396 1.14805615 -0.342092842
v -0.540176034 1.14702106 -0.339775145
v -0.547895193 1.14711392 -0.343804389
v -0.554873645 1.14805341 -0.345344186
v -0.558343768 1.14659154 -0.342123002
v -0.565229475 1.14763892 -0.343343168
v -0.572153091 1.14668655 -0.340774268
v -0.578842342 1.1479553 -0.341342151
v -0.5854339 1.14933276 -0.341590792
v -0.589198172 1.14754081 -0.339341164
v -0.597138643 1.14746928 -0.343863547
v -0.603652 1.14695811 -0.339988053
v -0.610777795 1.14777637 -0.341888428
v -0.618087113 1.14840996 -0.344338387
v -0.625685155 1.14675355 -0.343833655
v -0.631432474 1.14703345 -0.337624997
v -0.633819163 1.14867425 -0.334947556
v -0.634308159 1.14828575 -0.318936974
v -0.636560082 1.14805377 -0.312149078
v -0.637801409 1.14687645 -0.298597902
v -0.636877477 1.14387071 -0.288336515
v -0.635876 1.13685942 -0.287589133
v -0.63428247 1.13045788 -0.285058975
v -0.635753453 1.1269294 -0.285757661
v -0.634776711 1.11985815 -0.285090536
v -0.63657552 1.11399591 -0.283025265
v -0.633917332 1.11067557 -0.281034619
v -0.634046793 1.10238087 -0.283710092
v -0.636547267 1.09573925 -0.283739984
v -0.635864019 1.08828247 -0.283963382
v -0.633372247 1.08475327 -0.282500893
v -0.635666072 1.07830787 -0.281890392
v -0.635063112 1.07072103 -0.282362074
v -0.632972956 1.06476784 -0.278354287
v -0.635493815 1.06000066 -0.282180399
v -0.634981811 1.05226362 -0.282934308
v -0.634046555 1.04498172 -0.282417446
v -0.635448337 1.04144073 -0.282857448
v -0.634207249 1.03448236 -0.281420708
v -0.6336779 1.02669668 -0.282135099
v -0.635593772 1.02059424 -0.280317098
v -0.632897913 1.0172267 -0.278298229
v -0.631418109 1.01050234 -0.27614975
v -0.634718001 1.00277197 -0.278491348
v -0.632015705 0.999396563 -0.276467711
v -0.632090271 0.990811884 -0.279017746
v -0.636530459 0.981686294 -0.284767717
v -0.634764433 0.975225031 -0.281770319
v -0.633401215 0.968276978 -0.279989451
v -0.634585559 0.964920104 -0.279730409
v -0.633045018 0.958168864 -0.277416497
v -0.632130921 0.950649798 -0.276995033
v -0.633664668 0.946855247 -0.277781516
v -0.632166207 0.940022588 -0.275600463
v -0.630303919 0.933627486 -0.272324026
v -0.631827891 0.929826379 -0.27307573
v -0.629950821 0.923438132 -0.269756705
v -0.627818286 0.91736418 -0.265667588
v -0.635054767 0.904494584 -0.279773951
v -0.632310271 0.901066422 -0.277718723
v -0.630842984 0.894107223 -0.275650352
v -0.634104431 0.886143565 -0.277741134
v -0.630107403 0.88429153 -0.271920204
v -0.633954227 0.875560105 -0.275765508
v -0.632390261 0.868679583 -0.27341035
v -0.63152796 0.860885084 -0.273173243
v -0.630860329 0.852818012 -0.273528934
v -0.633266449 0.847782791 -0.27688992
v -0.631910741 0.840575695 -0.275174975
v -0.630509377 0.833416164 -0.273325622
v -0.632308543 0.829143405 -0.274846882
v -0.630998731 0.821840286 -0.273276716
v -0.630399108 0.81357789 -0.273853838
v -0.634493351 0.804313481 -0.278359562
v -0.631707549 0.800833702 -0.27627337
v -0.636590421 0.79047215 -0.283130288
v -0.637034595 0.780701876 -0.286859572
v -0.634233713 0.777203262 -0.284762055
v -0.636023521 0.770970523 -0.282264233
v -0.637008965 0.765832305 -0.277341753
v -0.635463953 0.764158905 -0.264836043
v -0.636996806 0.758281112 -0.261574566
v -0.634825289 0.752044439 -0.257423878
v -0.63484782 0.742762983 -0.259845227
v -0.635461032 0.740030169 -0.257747561
v -0.635079622 0.731274307 -0.258960992
v -0.633450508 0.724242926 -0.256443471
v -0.636705518 0.715912521 -0.258296132
v -0.635101259 0.710691929 -0.259806424
v -0.636333525 0.705200016 -0.255590886
v -0.636810362 0.700781882 -0.249123186
v -0.635841787 0.698427558 -0.238366678
v -0.637573481 0.692232132 -0.235653028
v -0.636453331 0.684441924 -0.234634757
v -0.634750187 0.679332018 -0.235826269
v -0.637402236 0.671788752 -0.235826507
v -0.63609755 0.664218485 -0.234267905
v -0.633895218 0.657945752 -0.230044946
v -0.633152783 0.649527073 -0.230163991
v -0.635907412 0.643628716 -0.234397337
v -0.63402009 0.636860371 -0.231117949
v -0.632555783 0.629457176 -0.229098469
v -0.634375513 0.624907851 -0.23054412
v -0.632162035 0.618603408 -0.226299807
v -0.631169856 0.610459566 -0.225689292
v -0.63375932 0.604724109 -0.229415208
v -0.632030606 0.597658217 -0.226618901
v -0.635961771 0.588029981 -0.23033236
v -0.63098079 0.581637263 -0.232198372
v -0.629013479 0.576712132 -0.2327068
v -0.637520671 0.55375582 -0.26052472
v -0.634639263 0.550156653 -0.258366942
v -0.632692337 0.543272018 -0.254961431
v -0.635969698 0.534493864 -0.256670564
v -0.635164738 0.525788724 -0.256684989
v -0.632721841 0.521469951 -0.255862623
v -0.631449997 0.515285552 -0.25856185
v -0.633950114 0.496591151 -0.283330083
v -0.637924433 0.486572683 -0.287078321
v -0.636159599 0.481050223 -0.288387477
v -0.634667397 0.473249137 -0.286401421
v -0.637390494 0.46519506 -0.286350608
v -0.633020222 0.463872254 -0.279818922
v -0.630731642 0.45735389 -0.27543062
v -0.633449912 0.449280202 -0.275366247
v -0.632458091 0.440608591 -0.274890065
v -0.63311249 0.429181814 -0.279385537
v -0.637692034 0.419772744 -0.289037049
v -0.636584997 0.411195278 -0.288232148
v -0.634600461 0.404069602 -0.284784734
v -0.635248005 0.401183575 -0.282569438
v -0.632937431 0.394602448 -0.278138876
v -0.630626798 0.38802132 -0.273708284
v -0.6366238 0.374248087 -0.283435136
v -0.631492615 0.374231756 -0.274691463
v -0.631333709 0.363930255 -0.276762336
v -0.635156572 0.353792608 -0.279910952
v -0.632017791 0.35035488 -0.277192533
v -0.633408546 0.337275445 -0.283954829
v -0.637502491 0.326597214 -0.287878096
v -0.636683822 0.317279816 -0.287975132
v -0.635381877 0.308784753 -0.286620766
v -0.636156559 0.305650443 -0.284730434
v -0.6338135 0.298976779 -0.280237556
v -0.631470382 0.292303115 -0.275744706
v -0.632127047 0.289376527 -0.273498267
v -0.629783988 0.282702863 -0.269005418
v -0.628002703 0.275017828 -0.26620847
v -0.63406378 0.262353569 -0.280253738
v -0.633849561 0.251768142 -0.282197118
v -0.632740676 0.242770776 -0.28144905
v -0.634176612 0.236666098 -0.277256906
v -0.631152272 0.232888341 -0.274992079
v -0.637120962 0.218466401 -0.284445465
v -0.635067523 0.211124271 -0.28085652
v -0.632030249 0.207330376 -0.278582007
v -0.637779474 0.193205193 -0.287341595
v -0.63539809 0.186422423 -0.282775283
v -0.633016646 0.179639652 -0.278208971
v -0.63142848 0.171362385 -0.27603662
v -0.63684088 0.159439489 -0.2880539
v -0.634448111 0.152624354 -0.283465803
v -0.632055342 0.145809203 -0.278877676
v -0.632725954 0.142820552 -0.276583612
v -0.632697582 0.131474182 -0.279130131
v -0.633027494 0.119391195 -0.282769114
v -0.633701026 0.116389401 -0.280464977
v -0.631297767 0.1095443 -0.275856674
v -0.638767242 0.0916598514 -0.289682001
v -0.636351287 0.0847786739 -0.285049438
v -0.632565916 0.082271412 -0.280642867
v -0.634612441 0.0748798773 -0.27810058
v -0.633899033 0.0646414608 -0.278599292
v -0.630226731 0.0619105212 -0.274543881
v -0.636012197 0.047082983 -0.283251941
v -0.633584678 0.0401688367 -0.278597176
v -0.63193512 0.0316959508 -0.276289523
v -0.633357704 0.0170205887 -0.283261299
v -0.635153711 0.0117335729 -0.284280717
v -0.636521161 0.0056393682 -0.279602885
v -0.637043715 0.00125255948 -0.272390097
v -0.63680923 -0.00159722997 -0.262924075
v -0.634414256 -0.00861144159 -0.258374333
v -0.633677781 -0.0190167557 -0.258795947
v -0.63439399 -0.0221293438 -0.256556958
v -0.633922994 -0.0331180878 -0.257775247
v -0.634300172 -0.0459000692 -0.261545628
v -0.635916829 -0.0525214821 -0.25758189
v -0.632781804 -0.0564374886 -0.255234182
v -0.638501942 -0.0627882555 -0.252106607
v -0.637068689 -0.0630818084 -0.239068836
v -0.63472414 -0.0702501684 -0.234678179
v -0.637155354 -0.0769487843 -0.237521559
v -0.635443628 -0.0854652748 -0.235015899
v -0.634876609 -0.0964108482 -0.235918686
v -0.636417389 -0.101275437 -0.236101344
v -0.633962214 -0.108268268 -0.231393605
v -0.63382709 -0.120204963 -0.23358877
v -0.638694286 -0.133793503 -0.2392243
v -0.635535359 -0.13773939 -0.236858651
v -0.633067906 -0.144767195 -0.232127368
v -0.63462621 -0.151308894 -0.227916315
v -0.631291986 -0.154876918 -0.225030437
v -0.637863517 -0.172290534 -0.235692769
v -0.635578811 -0.179771945 -0.231515691
v -0.63387078 -0.188520089 -0.229052842
v -0.631529987 -0.195892572 -0.224711955
v -0.633648455 -0.202124685 -0.226560041
v -0.632169187 -0.211422041 -0.224783078
v -0.630316317 -0.219910428 -0.221899316
v -0.63636297 -0.234918699 -0.235405207
v -0.634551644 -0.243572876 -0.232657403
v -0.632576287 -0.251873761 -0.229424953
v -0.633566022 -0.255647033 -0.227884337
v -0.631316423 -0.263343692 -0.223837301
v -0.628900707 -0.270668954 -0.2192972
v -0.63585937 -0.289547354 -0.230987564
v -0.632469594 -0.293180525 -0.228070349
v -0.637462258 -0.307649553 -0.23387827
v -0.629486084 -0.309175462 -0.233566448
v -0.637997627 -0.341882348 -0.26170817
v -0.634738088 -0.345953882 -0.259267181
v -0.634442627 -0.358459592 -0.261131167
v -0.638037443 -0.369891971 -0.262712121
v -0.635481775 -0.377171129 -0.257811606
v -0.632926106 -0.384450257 -0.252911121
v -0.63515085 -0.391204566 -0.254971981
v -0.635233521 -0.404761165 -0.25797078
v -0.635009468 -0.4176476 -0.260063767
v -0.63690275 -0.423655927 -0.261108428
v -0.634968758 -0.432513893 -0.258087069
v -0.632641315 -0.440439016 -0.253890038
v -0.637901008 -0.456073612 -0.260357291
v -0.633647323 -0.457911342 -0.255045861
v -0.632321417 -0.468316108 -0.253857732
v -0.637580633 -0.484053969 -0.260293663
v -0.63308388 -0.485316962 -0.254279822
v -0.631982207 -0.49634999 -0.253774166
v -0.636095464 -0.509372652 -0.25675422
v -0.632596195 -0.513103127 -0.253746927
v -0.638459265 -0.530495703 -0.261930823
v -0.636536181 -0.539627731 -0.258978426
v -0.635112584 -0.550023556 -0.257523865
v -0.634560168 -0.562634706 -0.258684546
v -0.630869508 -0.564541936 -0.259866655
v -0.63436985 -0.598846436 -0.285648942
v -0.63618505 -0.604878664 -0.286357731
v -0.634488702 -0.614827931 -0.284146488
v -0.633865714 -0.627556145 -0.285181344
v -0.635931313 -0.635667264 -0.281846166
v -0.632242322 -0.639148355 -0.278415918
v -0.638394892 -0.657825172 -0.28737846
v -0.637713194 -0.670544982 -0.288239032
v -0.633958459 -0.673918545 -0.284652114
v -0.637596369 -0.686170757 -0.285996199
v -0.63492614 -0.69377619 -0.28087604
v -0.631507576 -0.698046446 -0.278315961
v -0.634314895 -0.70817095 -0.277142763
v -0.634827256 -0.724220812 -0.281618595
v -0.634345829 -0.737707257 -0.283112705
v -0.634160697 -0.752041817 -0.285512418
v -0.635545611 -0.757090211 -0.284833282
v -0.636050642 -0.761128485 -0.276649684
v -0.635070741 -0.761183619 -0.264030516
v -0.637538433 -0.770472288 -0.261761069
v -0.63653332 -0.782657504 -0.261642039
v -0.635496855 -0.794800878 -0.261437297
v -0.637299061 -0.801002383 -0.261985183
v -0.634809911 -0.809250712 -0.257436067
v -0.633570552 -0.8209216 -0.256632209
v -0.639831543 -0.840658486 -0.265634537
v -0.635088861 -0.841504037 -0.259230286
v -0.632572651 -0.849752963 -0.254613698
v -0.636500657 -0.863179564 -0.256617606
v -0.631695271 -0.863832355 -0.250033319
v -0.62986201 -0.874007761 -0.24746722
v -0.637151003 -0.896884739 -0.259503186
v -0.631829202 -0.896117985 -0.251406521
v -0.63601315 -0.910375774 -0.254123539
v -0.633874595 -0.919815898 -0.250656635
v -0.631923079 -0.929801404 -0.247752428
v -0.629823625 -0.939387083 -0.244409263
v -0.633366942 -0.950706303 -0.250093102
v -0.63283807 -0.964838386 -0.251458615
v -0.631032169 -0.97536099 -0.249009565
v -0.634631932 -0.986926675 -0.25483948
v -0.634073019 -1.00111544 -0.256132156
v -0.632497311 -1.01120877 -0.259361923
v -0.634011269 -1.04399991 -0.284995317
v -0.638186812 -1.05861163 -0.287517667
v -0.634625673 -1.06312406 -0.284885556
v -0.638385177 -1.07655609 -0.286129147
v -0.636673152 -1.08774006 -0.284035087
v -0.633108556 -1.09228563 -0.281415701
v -0.63694185 -1.10600674 -0.282854736
v -0.63682121 -1.12201965 -0.285564482
v -0.634578824 -1.13174558 -0.281891465
v -0.318481475 -0.194990948 0.665170372
v -0.319634259 -0.200128421 0.669113874
v -0.316966206 -0.213786095 0.66146189
v -0.313118041 -0.223183736 0.653534949
v -0.306356996 -0.223712027 0.654453337
v -0.297496349 -0.216906458 0.658124268
v -0.294852942 -0.219443098 0.656315923
v -0.288670987 -0.221738577 0.655470729
v -0.254841685 -0.136802733 0.745915294
v -0.256680787 -0.14408274 0.747471333
v -0.254122585 -0.147278205 0.749387085
v -0.255981863 -0.154635683 0.750887513
v -0.254052967 -0.160561219 0.754497945
v -0.255932689 -0.167998761 0.7559461
v -0.253955841 -0.173783362 0.759705484
v -0.255407721 -0.179851234 0.762509644
v -0.254013032 -0.187534049 0.764437735
v -0.25480026 -0.190770864 0.765652061
v -0.248324454 -0.1914621 0.766340137
v -0.24128148 -0.189619675 0.765135467
v -0.239508301 -0.20660603 0.754448712
v -0.23653397 -0.207878098 0.753902555
v -0.229913801 -0.208166942 0.754983366
v -0.223034918 -0.207553312 0.756931663
v -0.216754362 -0.20896256 0.756931663
v -0.210331559 -0.209322661 0.753591835
v -0.253366858 -0.383533865 0.587231159
v -0.253566474 -0.384806901 0.590647519
v -0.253452837 -0.385553211 0.59918952
v -0.254217058 -0.389374524 0.604765952
v -0.255418271 -0.394727945 0.608875215
v -0.251851767 -0.408386052 0.606540442
v -0.256179988 -0.411635011 0.607353747
v -0.253991932 -0.417069554 0.607529342
v -0.246327698 -0.414643377 0.606644511
v -0.228334218 -0.37593177 0.649152339
v -0.2281207 -0.376164436 0.657959998
v -0.22289905 -0.358303338 0.683673143
v -0.221850768 -0.355505645 0.695182204
v -0.222466052 -0.358715475 0.701054096
v -0.222924769 -0.361357719 0.707438767
v -0.230418786 -0.376392692 0.697264373
v -0.22961314 -0.374495536 0.707855701
v -0.230784565 -0.379716188 0.711862981
v -0.23146902 -0.383181751 0.717476785
v -0.231508419 -0.384320349 0.725201905
v -0.229108125 -0.376656592 0.740901947
v -0.228086114 -0.373956501 0.752024353
v -0.22918728 -0.378913969 0.756184936
v -0.229642525 -0.381539106 0.762442112
v -0.229185477 -0.380867302 0.771638513
v -0.22907728 -0.381451815 0.779676199
v -0.22839874 -0.379971564 0.789523363
v -0.282865405 -0.551208258 0.64026469
v -0.289676785 -0.549679935 0.64026469
v -0.293322474 -0.550327301 0.643524408
v -0.30081445 -0.551196098 0.641394794
v -0.308411032 -0.55238694 0.638976753
v -0.31537506 -0.551351607 0.638536394
v -0.322588205 -0.551796257 0.641302347
v -0.329630554 -0.551020324 0.640631855
v -0.336859494 -0.550858378 0.639414489
v -0.343946666 -0.550890923 0.642547965
v -0.351166368 -0.550674558 0.641379774
v -0.358611971 -0.551176786 0.639571369
v -0.366055071 -0.552377582 0.641669393
v -0.369526327 -0.551793814 0.641507268
v -0.376410514 -0.55043453 0.64135325
v -0.379606187 -0.538095772 0.655471861
v -0.379461586 -0.526862323 0.669254184
v -0.376765788 -0.497102141 0.703160644
v -0.380710959 -0.499028653 0.705215454
v -0.381979257 -0.482237697 0.727489352
v -0.384123832 -0.478645712 0.734365523
v -0.380458027 -0.479087919 0.738991499
v -0.381753355 -0.484718829 0.742769718
v -0.380131841 -0.470234185 0.763421774
v -0.379765362 -0.470681697 0.771643519
v -0.38007009 -0.473213941 0.778033018
v -0.38046661 -0.476029217 0.784162164
v -0.379760355 -0.475403786 0.793231487
v -0.38048315 -0.47922942 0.79845643
v -0.380796373 -0.481775284 0.80476433
v -0.381542534 -0.48567006 0.809909821
v -0.37974757 -0.481623858 0.821772456
v -0.380527198 -0.485616028 0.826796532
v -0.381222457 -0.489342928 0.832036495
v -0.381646127 -0.492218345 0.837981403
v -0.38147825 -0.493238896 0.845461726
v -0.383345485 -0.500630856 0.847615421
v -0.384511262 -0.505826354 0.851603389
v -0.385607362 -0.510803223 0.855772018
v -0.38483867 -0.509928346 0.864758492
v -0.386049241 -0.515261054 0.868615806
v -0.409442842 -0.578364491 0.820425272
v -0.416096717 -0.577000141 0.820326924
v -0.423149347 -0.576862991 0.819221795
v -0.430115402 -0.577271402 0.821873665
v -0.433423787 -0.576529026 0.821873665
v -0.433419019 -0.578185439 0.828911006
v -0.434564739 -0.583349347 0.833073437
v -0.433503568 -0.592617512 0.834508836
v -0.426148742 -0.591006339 0.832840264
v -0.41958034 -0.592634141 0.832723737
v -0.413131595 -0.594639242 0.832301438
v -0.40767917 -0.587858617 0.834228158
v -0.379303604 -0.510953724 0.90538466
v -0.379469156 -0.512971878 0.911844254
v -0.380620837 -0.518104553 0.915784001
v -0.381343305 -0.521879554 0.920810699
v -0.382121563 -0.525829732 0.925690114
v -0.38247022 -0.528418422 0.931645513
v -0.382547468 -0.530144632 0.938270092
v -0.382567048 -0.531684458 0.945023119
v -0.382499367 -0.532944024 0.951976955
v -0.383502662 -0.537597835 0.956248462
v -0.382670224 -0.536423504 0.965071142
v -0.380349427 -0.541330457 0.969680429
v -0.380527079 -0.542621076 0.97260946
v -0.380692989 -0.544596314 0.978926599
v -0.380938083 -0.546821177 0.985034347
v -0.381281734 -0.549357951 0.990886927
v -0.381658465 -0.55199796 0.996646762
v -0.383210063 -0.558391213 0.999527514
v -0.381754994 -0.576948225 0.994245589
v -0.382487178 -0.580012918 0.995806754
v -0.379305094 -0.580726922 0.995806754
v -0.23732166 -0.389359355 0.580598772
v -0.243373424 -0.386029005 0.587002456
v -0.250393033 -0.385057598 0.581839383
v -0.192592025 -0.192306295 0.759690344
v -0.193606317 -0.195371151 0.752374113
v -0.193904415 -0.19538267 0.743633926
v -0.188989848 -0.200649396 0.731110871
v -0.186414763 -0.20391418 0.733011961
v -0.178361312 -0.1989979 0.739170015
v -0.178869709 -0.213898972 0.734151244
v -0.228101313 -0.380804539 0.580996454
v -0.232057109 -0.382736206 0.583056808
v 0.160054803 -0.550906301 0.639667392
v 0.153071523 -0.549541354 0.643988848
v 0.174917698 -0.333001226 0.830972195
v 0.160524651 -0.47164911 0.699513912
v 0.163736269 -0.472851813 0.699095607
v 0.170340911 -0.473851711 0.699513912
v 0.176885083 -0.475320101 0.699513912
v 0.184268057 -0.472108185 0.699344337
v 0.18819274 -0.495462388 0.679809868
v 0.186304241 -0.515944362 0.652693748
v 0.186687931 -0.517428994 0.642491221
v 0.187750593 -0.513224542 0.637376726
v 0.18569687 -0.506449282 0.633904815
v 0.186295494 -0.503781438 0.631856978
v 0.187322274 -0.499871194 0.626464427
v 0.188368365 -0.495803744 0.621206403
v 0.18737936 -0.480171293 0.625851572
v 0.187580943 -0.483107716 0.614171326
v 0.188412577 -0.480820984 0.607257962
v 0.186935276 -0.469257563 0.608221889
v 0.187501177 -0.469145507 0.599275053
v 0.18844001 -0.465958834 0.593161821
v 0.186516121 -0.455825895 0.597378612
v 0.187160596 -0.455037266 0.589020669
v 0.188099176 -0.451839805 0.58289957
v 0.192144781 -0.423004746 0.600969613
v 0.200082928 -0.415788531 0.604654372
v 0.213442206 -0.356771231 0.666239619
v 0.212862059 -0.359356821 0.668224275
v 0.211701736 -0.364527971 0.672193587
v 0.210541427 -0.369699121 0.676162899
v 0.209381118 -0.37487027 0.68013221
v 0.214826986 -0.351658434 0.711123228
v 0.213421255 -0.358993173 0.712997913
v 0.211926788 -0.367082626 0.7141909
v 0.210575655 -0.373932242 0.716541886
v 0.209424749 -0.37906146 0.720479012
v 0.208273858 -0.384190649 0.724416077
v 0.212914333 -0.367734104 0.748630285
v 0.211783782 -0.372726858 0.752621353
v 0.210726395 -0.377091527 0.757178903
v 0.209687456 -0.38130036 0.761872113
v 0.208852023 -0.38376984 0.768119633
v 0.212066635 -0.379361838 0.781130493
v 0.211937621 -0.378106952 0.786448538
v 0.187795371 -0.551696777 0.639870107
v 0.181091398 -0.550192475 0.639870107
v 0.17713742 -0.552123308 0.641929448
v 0.170433447 -0.550619066 0.641929448
v 0.163729474 -0.549114764 0.641929448
v -0.0563246496 -0.527654171 0.626850128
v -0.0633907765 -0.527408838 0.630214036
v -0.0670620278 -0.528551817 0.619470298
v -0.0658465996 -0.523135066 0.615312457
v -0.0686227009 -0.519667387 0.613233507
v -0.0674072653 -0.514250636 0.609075665
v -0.0662999377 -0.509354472 0.604441702
v -0.0683653206 -0.502682209 0.600737512
v -0.0672530681 -0.497759521 0.59612447
v -0.0660525486 -0.492414236 0.591898859
v -0.0685637593 -0.487681925 0.590990126
v -0.0676135346 -0.483527958 0.585660815
v -0.0664051473 -0.478144795 0.581469655
v -0.0683202371 -0.470765799 0.578435779
v -0.0672045648 -0.465821356 0.573836088
v -0.0660811588 -0.460840404 0.56926775
v -0.0635030344 -0.432312906 0.586258709
v -0.0697794259 -0.445359319 0.568563879
v -0.0781948492 -0.45152849 0.561273634
v -0.0852706283 -0.45132339 0.564676821
v -0.088950485 -0.451905578 0.563405216
v -0.0959827006 -0.451552153 0.562299252
v -0.103136234 -0.451711684 0.560705423
v -0.110185675 -0.451414078 0.564199626
v -0.117059499 -0.450318784 0.56379658
v -0.124396928 -0.451207131 0.561511159
v -0.129745409 -0.443585753 0.567300737
v -0.13186948 -0.437359452 0.567845225
v -0.131306186 -0.434700668 0.561063528
v -0.130090669 -0.4292835 0.556905329
v -0.12952809 -0.426626921 0.55009377
v -0.131619066 -0.420109093 0.546254873
v -0.130482063 -0.415021747 0.541769147
v -0.129729897 -0.411552131 0.535709441
v -0.131418109 -0.403341621 0.533517659
v -0.13068454 -0.399938762 0.527378976
v -0.129466966 -0.394512385 0.523213744
v -0.131287694 -0.386864424 0.520488799
v -0.13086234 -0.384913713 0.51765573
v -0.129812807 -0.380185813 0.512800634
v -0.130071342 -0.380892843 0.502535224
v -0.131289274 -0.370728642 0.502317488
v -0.131028131 -0.369253397 0.494186074
v -0.129807815 -0.363814831 0.490011483
v -0.131303027 -0.35481289 0.488663912
v -0.31693095 -1.1360209 -0.305006325
v -0.31211859 -1.13494492 -0.309155375
v -0.303366095 -1.13690889 -0.309155375
v -0.293650955 -1.13478613 -0.305023253
v -0.281517684 -1.12206125 -0.296383023
v -0.275866538 -1.13731718 -0.309840053
v -0.266675949 -1.13733399 -0.307872295
v -0.256834388 -1.13440228 -0.309146076
v -0.248095199 -1.13636327 -0.309146076
v -0.239329666 -1.13820422 -0.309024781
v -0.229867131 -1.13683283 -0.30565685
v -0.22222881 -1.12278676 -0.296666563
v -0.21598731 -1.13627732 -0.308338761
v -0.207256764 -1.13823628 -0.308338761
v -0.197216809 -1.13417506 -0.308463424
v -0.188492566 -1.1361326 -0.308463424
v -0.179768324 -1.13809025 -0.308463424
v -0.167497426 -1.12274885 -0.297165304
v -0.163152531 -1.12372375 -0.297165304
v -0.154965132 -1.12823391 -0.299755067
v -0.148008898 -1.13917172 -0.308839947
v -0.138231948 -1.13619637 -0.310058177
v -0.129516974 -1.13815188 -0.310058177
v -0.120802008 -1.14010727 -0.310058177
v -0.110583603 -1.13463914 -0.308751255
v -0.100123338 -1.12687182 -0.298917294
v -0.0929444879 -1.13726008 -0.307451338
v -0.0834611207 -1.13573015 -0.310124487
v -0.0791101456 -1.13670635 -0.310124487
v -0.066624403 -1.11658943 -0.28780213
v -0.0642531887 -1.12682605 -0.284852952
v -0.0621595234 -1.13873672 -0.283566475
v -0.0566630401 -1.13393366 -0.283907115
v -0.0474061072 -1.13224447 -0.280258179
v -0.0376099683 -1.12712443 -0.273168087
v 0.126742378 -0.155039668 0.708804011
v 0.126184061 -0.157528564 0.710710585
v 0.125156388 -0.161951289 0.715076923
v 0.127167881 -0.167488277 0.719024897
v 0.126123458 -0.172013253 0.723283768
v 0.125008017 -0.176984414 0.727099538
v 0.126938701 -0.183027148 0.73054719
v 0.125702694 -0.188759148 0.733619511
v 0.127973676 -0.19371064 0.733801425
v 0.129026353 -0.205405489 0.73176223
v 0.135803089 -0.203260183 0.735209286
v 0.137645885 -0.211111143 0.732595682
v 0.139885902 -0.215200081 0.73797518
v 0.138588682 -0.221364006 0.740669906
v 0.137469053 -0.226353884 0.744500041
v 0.13964422 -0.230861992 0.749460459
v 0.138525099 -0.235849589 0.753288865
v 0.137227252 -0.242022946 0.755990565
v 0.102098696 -0.450705469 0.561605453
v 0.0947643593 -0.45188871 0.563672841
v 0.0880267099 -0.450427383 0.563626647
v 0.0810371339 -0.450543672 0.562083602
v 0.0740342364 -0.449655712 0.566115499
v 0.0704080462 -0.450502962 0.564596891
v 0.0645178556 -0.443909764 0.569416821
v 0.0661465451 -0.411468267 0.608585298
v 0.0648235977 -0.397136748 0.630464852
v 0.0626644641 -0.388870686 0.642050683
v 0.0641632527 -0.378365308 0.660857797
v 0.0628505051 -0.38441667 0.664092064
v 0.0617055073 -0.389480889 0.668250859
v 0.0639001578 -0.394824237 0.672828913
v 0.0627282932 -0.400046855 0.676837742
v 0.0615564324 -0.405269474 0.680846572
v 0.0645099729 -0.40696454 0.684366524
v 0.0633388087 -0.41218406 0.68837291
v 0.0619154684 -0.418902487 0.691010714
v 0.0642887801 -0.423164845 0.696558535
v 0.0631176978 -0.428383976 0.700564682
v 0.0616624169 -0.435301483 0.703036487
v 0.0647300482 -0.436290622 0.707163274
v 0.0417495631 -0.531569481 0.624395251
v 0.0348782539 -0.530832529 0.623696923
v 0.0276670232 -0.531242192 0.626465321
v 0.0207919329 -0.530505121 0.625767529
v 0.0140514132 -0.528992712 0.625767529
v 0.00684576808 -0.529402912 0.62853539
v 0.00347641227 -0.528646886 0.62853539
v -0.00421719765 -0.532310009 0.623875141
v -0.0112116951 -0.53209877 0.622700691
v -0.0182651728 -0.531666279 0.62623316
v -0.0250758007 -0.530467391 0.625948906
v -0.0320797116 -0.530255318 0.62477541
v -0.0391214974 -0.52982384 0.628306687
v -0.0425590053 -0.52938211 0.628022671
v -0.0495708026 -0.529169619 0.626850128
v -0.0529477261 -0.528411865 0.626850128
v -0.171506912 -0.54996419 0.639858067
v -0.178579122 -0.549833536 0.643118262
v -0.18568626 -0.549634635 0.641942382
v -0.193078637 -0.550558329 0.639766872
v -0.144813433 -0.329212785 0.831206739
v -0.176915139 -0.470878392 0.701194048
v -0.170296341 -0.472363532 0.701194048
v -0.163677529 -0.473848671 0.701194048
v -0.156464368 -0.472684979 0.699160814
v -0.14984557 -0.474170119 0.699160814
v -0.143052548 -0.474920988 0.69981575
v -0.1391498 -0.473015219 0.697783053
v -0.128271848 -0.456362277 0.718340635
v -0.153946295 -0.551223099 0.642120957
v -0.160782114 -0.549941003 0.641908467
v -0.168114409 -0.5507254 0.639858067
g path_000000
l 125 124 123 122 121 120 119 118 117 116 115 114 113 112 111 110 109 108 107 106 105 104 103 102 101 100 99 98 97 96 95 94 93 92 91 90 89 88 87 86 85 84 83 82 81 80 79 78 77 76 75 74 73 72 71 70 69 68 67 66 65 64 63 62 61 60 59 58 57 56 55 54 53 52 51 50 49 48 47 46 45 44 43 42 41 40 39 38 37 36 35 34 33 32 31 30 29 28 27 26 25 24 23 22 21 20 19 18 17 16 15 14 13 12 11 10 9 8 7 6 5 4 3 2 1 1217 1216 1215 1214 1213 1212 1211 1210 1209 1208 1207 1206 1205 1204 1203 1202 1201 1200 1199 1198 1197
g path_000001
l 126 127
g path_000002
l 128 129
g path_000003
l 130 131 132
g path_000004
l 133 134 135 136
g path_000005
l 137 138
g path_000006
l 140 141 142
g path_000007
l 144 145
g path_000008
l 146 147 148 149 150 151 152 153 154 155 156 157 158 159 160 161
g path_000009
l 163 164 165 166 167 168 169 170 171 172 173 174 175 176 177 178
g path_000010
l 182 183 184 185
g path_000011
l 190 191
g path_000012
l 192 193
g path_000013
l 194 195 196 197 198 199 200 201 202 203 204 205 206 207 208 209 210 211 212 213 214 215 216 217 218 219 220 221 222 223
g path_000014
l 224 225 226 227 228 229 230 231 232
g path_000015
l 233 234
g path_000016
l 236 237
g path_000017
l 238 239 240 241 242 243 244 245 246 247 248 249 250
g path_000018
l 251 252 253 254 255
g path_000019
l 256 257 258 259 260 261 262 263 264
g path_000020
l 265 266 267 268 269 270 271 272 273 274 275 276 277
g path_000021
l 280 281 282 283 284 285 286 287 288 289 290 291 292 293 294 295 296 297 298 299 300 301 302 303 304 305 306 307 308 309 310 311 312 313 314 315 316 317 318 319 320 321 322 323 324 325 326 327 328 329 330 331 332
g path_000022
l 333 334
g path_000023
l 335 336 337 338 339 340 341
g path_000024
l 342 343 344 345 346 347 348
g path_000025
l 349 350 351 352 353 354
g path_000026
l 355 356 357 358 359 360 361
g path_000027
l 362 363 364 365
g path_000028
l 366 367 368 369 370 371 372 373 374 375 376 377 378 379 380 381 382 383 384 385 386 387 388 389 390 391 392 393 394
g path_000029
l 395 396 397
g path_000030
l 398 399 400 401 402 403 404
g path_000031
l 405 406 407 408 409 410 411
g path_000032
l 412 413 414 415 416 417 418 419 420
g path_000033
l 421 422 423 424 425 426 427
g path_000034
l 428 429 430
g path_000035
l 431 432 433 434 435 436 437 438 439 440 441
g path_000036
l 442 443 444 445 446 447
g path_000037
l 448 449 450 451 452 453 454 455 456 457
g path_000038
l 458 459 460 461 462 463 464 465 466 467 468 469 470 471 472 473 474 475 476 477 478 479 480 481 482 483 484 485 486 487 488 489 490 491 492 493 494 495 496 497 498 499 500 501 502 503 504 505 506 507 508 509 510 511 512 513 514 515 516 517 518 519 520 521 522 523 524 525 526 527 528 529 530 531 532 533 534 535 536 537 538 539 540 541
g path_000039
l 542 543 544 545 546 547 548 549 550 551 552
g path_000040
l 553 554 555 556 557 558 559 560 561 562 563 564 565 566 567 568 569 570 571 572 573 574 575 576 577 578 579 580 581 582 583 584 585 586 587 588 589 590 591 592 593 594 595 596 597 598 599 600 601 602 603 604 605 606 607 608 609 610 611 612 613 614 615 616 617 618 619 620 621 622 623 624 625 626 627 628 629 630 631 632 633 634 635 636 637 638 639 640 641 642 643 644 645 646 647 648 649 650 651 652 653 654 655 656 657 658 659 660 661 662 663 664 665 666 667 668 669 670 671 672 673 674 675 676 677 678 679 680 681 682 683 684 685 686 687 688 689 690 691 692 693 694 695 696 697 698 699 700 701 702 703 704 705 706 707 708 709 710 711 712 713 714 715 716 717 718 719 720 721 722 723 724 725 726 727 728 729 730 731 732 733 734 735 736 737 738 739 740 741 742 743 744 745 746 747 748 749 750 751 752 753 754 755 756 757 758 759 760 761 762 763 764 765 766 767 768 769 770 771 772 773 774 775 776 777 778 779 780 781 782 783 784 785 786 787 788 789 790 791 792 793 794 795 796 797 798 799 800 801 802 803 804 805 806 807 808 809 810 811 812 813 814 815 816 817 818 819 820 821 822 823 824 825 826 827 828 829 830 831 832 833 834 835 836 837 838 839 840 841 842 843 844 845 846 847 848 849 850 851 852 853 854 855 856 857 858 859 860 861 862 863 864 865 866 867 868 869 870 871 872 873 874 875 876 877 878 879 880 881 882 883 884 885 886 887 888 889 890 891 892 893 894 895 896 897 898 899 900 901 902 903
g path_000041
l 904 905 906 907 908 909 910
g path_000042
l 911 912 913 914 915 916 917 918 919 920 921 922 923 924 925 926 927 928 929 930 931 932 933 934 935 936 937 938 939 940 941 942 943 944 945 946 947 948 949 950 951 952 953 954 955 956 957 958 959 960 961
g path_000043
l 962 963 964 965 966 967 968 969 970 971 972 973 974 975 976 977 978 979 980 981 982 983 984 985 986 987 988 989 990 991 992 993 994 995 996 997 998 999 1000 1001 1002 1003 1004 1005 1006 1007 1008 1009 1010 1011 1012 1013
g path_000044
l 1014 1015 1016 1017 1018 1019 1020 1021 1022 1023 1024 1025 1026 1027 1028 1029 1030 1031 1032 1033 1034 1035 1036 1037 1038
g path_000045
l 1039 1040 1041 1042 1043 1044 1045 1046 1047 1048 1049 1050 1051 1052 1053 1054 1055 1056 1057 1058 1059 1060 1061 1062 1063 1064 1065 1066 1067 1068 1069
g path_000046
l 1070 1071 1072 1073 1074 1075 1076 1077 1078 1079 1080 1081
g path_000047
l 1082 1083 1084 1085 1086 1087 1088 1089 1090
g path_000048
l 1091 1092 1093 1094 1095 1096 1097 1098
g path_000049
l 1099 1100 1101 1102 1103 1104 1105 1106 1107 1108 1109 1110
g path_000050
l 1111 1112 1113 1114 1115 1116
g path_000051
l 1117 1118 1119 1120 1121 1122 1123 1124 1125
g path_000052
l 1126 1127
g path_000053
l 1128 1129 1130 1131 1132 1133 1134 1135 1136 1137 1138 1139 1140 1141 1142 1143
g path_000054
l 1144 1145 1146 1147 1148 1149 1150 1151 1152 1153 1154 1155 1156 1157 1158 1159 1160
g path_000055
l 1161 1162
g path_000056
l 1163 1164 1165 1166
g path_000057
l 1167 1168 1169 1170 1171 1172 1173 1174 1175 1176 1177 1178 1179 1180 1181 1182 1183 1184
g path_000058
l 1185 1186 1187 1188 1189 1190 1191 1192 1193 1194 1195 1196
g path_000059
l 1220 1219 1218 1229 1228
g path_000060
l 1221 1222 1223 1224 1225 1226 1227
g path_000061
l 1231 1230 1279 1278 1277 1276 1275
g path_000062
l 1233 1234 1235 1236 1237
g path_000063
l 1239 1240 1241 1242 1243 1244 1245 1246 1247 1248 1249 1250 1251 1252 1253 1254
g path_000064
l 1255 1256
g path_000065
l 1257 1258 1259 1260 1261
g path_000066
l 1262 1263 1264 1265 1266 1267
g path_000067
l 1268 1269 1270 1271 1272 1273 1274
g path_000068
l 1295 1294 1293 1292 1291 1290 1289 1288 1287 1286 1285 1284 1283 1282 1281 1280 1416 1415 1414 1413 1412 1411 1410 1409 1408 1407 1406 1405 1404 1403 1402 1401
g path_000069
l 1297 1298 1299 1300 1301 1302 1303 1304 1305 1306 1307 1308 1309 1310 1311 1312 1313 1314 1315 1316 1317 1318 1319 1320 1321 1322 1323 1324
g path_000070
l 1325 1326 1327 1328 1329 1330 1331 1332 1333 1334 1335 1336 1337 1338 1339 1340 1341 1342 1343 1344 1345 1346 1347 1348 1349 1350 1351 1352 1353
g path_000071
l 1354 1355 1356 1357 1358 1359
g path_000072
l 1360 1361 1362 1363 1364 1365 1366 1367 1368 1369 1370 1371 1372 1373 1374 1375 1376 1377
g path_000073
l 1378 1379 1380 1381 1382 1383 1384
g path_000074
l 1386 1387
g path_000075
l 1388 1389 1390 1391 1392 1393 1394 1395 1396 1397 1398 1399 1400
g path_000076
l 1420 1419 1418 1417 1432 1431 1430
g path_000077
l 1422 1423 1424 1425 1426 1427 1428
