# Fixed world centers; Z up; paths immutable
v 0.631224155 1.14773297 -0.287481517
v 0.622060776 1.14700353 -0.286163211
v 0.613138258 1.14672267 -0.286202282
v 0.604261339 1.14652801 -0.286502242
v 0.600667596 1.14822233 -0.286502242
v 0.591626823 1.14770448 -0.285824478
v 0.586343706 1.1458137 -0.286117852
v 0.577432215 1.14554548 -0.286194921
v 0.572034538 1.14342272 -0.285783887
v 0.565701842 1.14830267 -0.312727094
v 0.560008526 1.14561987 -0.310642451
v 0.552728593 1.14890957 -0.310288787
v 0.547418773 1.14701092 -0.310590267
v 0.53849709 1.1468153 -0.310891747
v 0.52941972 1.14628375 -0.310170174
v 0.52046895 1.14601982 -0.310263515
v 0.51682204 1.14764261 -0.31002146
v 0.507801592 1.14721978 -0.309631079
v 0.498800516 1.14683437 -0.309354693
v 0.495191008 1.14853621 -0.309354693
v 0.486343861 1.14849973 -0.310139716
v 0.481036782 1.14660215 -0.310441017
v 0.472271264 1.14676428 -0.311831951
v 0.463210613 1.14622962 -0.311100483
v 0.454061776 1.14547002 -0.309683353
v 0.450453252 1.14717138 -0.309683353
v 0.441489667 1.14685142 -0.309605449
v 0.432582527 1.1466701 -0.309949934
v 0.428979933 1.14838576 -0.309993714
v 0.420066983 1.14819026 -0.310294926
v 0.411176175 1.14805305 -0.310773581
v 0.405871302 1.14615631 -0.311074793
v 0.396793932 1.14551818 -0.310027212
v 0.389558762 1.14886332 -0.309855759
v 0.384165555 1.14671767 -0.30939737
v 0.375234872 1.14646018 -0.309509218
v 0.366348296 1.1463269 -0.309999466
v 0.362764716 1.1480937 -0.310201228
v 0.353855699 1.14789832 -0.310502291
v 0.344946653 1.14770281 -0.310803354
v 0.339756817 1.14614761 -0.312142402
v 0.332312495 1.14884305 -0.309995085
v 0.323321432 1.14838278 -0.309490591
v 0.318021446 1.14648771 -0.309791505
v 0.309116334 1.14629245 -0.310092449
v 0.300211221 1.14609706 -0.310393363
v 0.291315049 1.14593196 -0.310786128
v 0.287729532 1.14769864 -0.310989887
v 0.189445063 0.834495008 0.650241077
v 0.18793045 0.83851546 0.650775254
v 0.187788188 0.845520675 0.650975704
v 0.187620655 0.852437377 0.651443958
v 0.188942462 0.855245233 0.651645958
v 0.18888627 0.862559497 0.650937378
v 0.187341407 0.866471648 0.651787817
v 0.187219456 0.873554826 0.651771665
v 0.185799658 0.877920508 0.651291013
v 0.181646317 0.876344323 0.651351869
v 0.174702868 0.876148939 0.651244342
v 0.172217369 0.888559282 0.631197929
v 0.166151002 0.889567673 0.636001587
v 0.158828959 0.887970209 0.639963627
v 0.155998647 0.889237821 0.640137434
v 0.149311632 0.890202701 0.636659086
v 0.145224348 0.8889575 0.635737181
v 0.140230477 0.886710346 0.629299343
v 0.130146965 0.875854552 0.651902258
v 0.127149612 0.876312375 0.654428184
v 0.125856936 0.878145337 0.669641852
v 0.124331914 0.882030547 0.67048943
v 0.124211244 0.889119685 0.67034936
v 0.124044605 0.895999432 0.67081517
v 0.125442967 0.899180233 0.669911087
v 0.125292704 0.90613842 0.670161366
v 0.119622923 0.908356071 0.671333551
v 0.116832338 0.909670055 0.671337962
v 0.109940037 0.909518898 0.671105087
v 0.105839722 0.908060908 0.670847476
v 0.100167982 0.910221875 0.67217499
v 0.0933677852 0.910545945 0.670600116
v 0.0863844231 0.909895957 0.671776235
v 0.0822679177 0.908339798 0.67179805
v 0.0753807724 0.908199191 0.671535671
v 0.0684853196 0.908009708 0.671411455
v 0.0656664297 0.909142494 0.6719262
v 0.0587807521 0.909004331 0.671656847
v 0.0518920012 0.908847153 0.671441317
v 0.0449707396 0.908469319 0.671849966
v 0.0421771929 0.90974474 0.671960235
v 0.0352768712 0.909492552 0.672013283
v 0.0312653594 0.90866369 0.66997993
v 0.0243405867 0.908240557 0.670516849
v 0.018701015 0.910368979 0.671931386
v 0.0146071948 0.90893501 0.671610594
v 0.00771616306 0.908732355 0.671523929
v 0.000842159032 0.908678651 0.671016097
v -0.00605360465 0.908427536 0.671066523
v -0.0088525014 0.909626901 0.671390891
v -0.0157396775 0.909443498 0.671249926
v -0.0198367089 0.907978535 0.671017289
v -0.0254401993 0.910267651 0.671973884
v -0.0323007293 0.910376608 0.671007395
v -0.0391805954 0.910271943 0.670643926
v -0.043277517 0.908807039 0.670411348
v -0.0501983128 0.908104181 0.671739995
v -0.0570749156 0.908016145 0.671329498
v -0.0598588698 0.909357488 0.671250403
v -0.0667452589 0.909105241 0.671304405
v -0.0736264959 0.908936918 0.67112112
v -0.0764145032 0.910192192 0.671284914
v -0.0832914934 0.91011709 0.670838237
v -0.0901837796 0.909611106 0.671609163
v -0.0942665637 0.908512592 0.670343339
v -0.101143613 0.908503115 0.669710577
v -0.108028062 0.908180833 0.669963062
v -0.110823423 0.908871412 0.671723425
v -0.117700107 0.908720613 0.671491027
v -0.124576904 0.908544004 0.671331465
v -0.128669247 0.907416165 0.670148969
v -0.128503188 0.900324881 0.670324981
v -0.129812106 0.897773087 0.669451654
v -0.129645824 0.890683651 0.669627786
v -0.128171012 0.886316836 0.67019695
v -0.128005072 0.879260182 0.670292914
v -0.12783891 0.872368336 0.669914722
v -0.131943196 0.877886713 0.6492787
v -0.13885206 0.876819968 0.651719809
v -0.144559145 0.888267398 0.62602675
v -0.146027312 0.890574932 0.631587446
v -0.152938634 0.888359427 0.637348831
v -0.158542916 0.890404999 0.639099836
v -0.162670836 0.888914168 0.638908148
v -0.169642091 0.889781237 0.635713518
v -0.178009152 0.889320612 0.62798053
v -0.179270759 0.885044634 0.632029653
v -0.187202752 0.875291407 0.651453793
v -0.190001994 0.876662076 0.651301384
v -0.192623779 0.870942056 0.651253939
v -0.192448094 0.863889098 0.651254058
v -0.192275152 0.856887102 0.651108444
v -0.190764681 0.852241933 0.652485967
v -0.19341144 0.847010672 0.650994778
v -0.193244502 0.840118468 0.650528133
v -0.191742077 0.835630059 0.651457131
v -0.216417477 1.14765346 -0.311746567
v -0.221666262 1.14525402 -0.310488909
v -0.228853121 1.14869726 -0.310661137
v -0.237720564 1.14844596 -0.310788691
v -0.246591955 1.14825141 -0.311088473
v -0.251871884 1.1463635 -0.311388254
v -0.26074329 1.14616895 -0.311688036
v -0.269609898 1.14592564 -0.311839432
v -0.273204923 1.14765573 -0.311951309
v -0.267848134 1.03227484 0.0487294085
v -0.272261649 1.03293836 0.0663018972
v -0.280219883 1.03155339 0.0696776584
v -0.286707461 1.03412056 0.0712488368
v -0.291520238 1.03239965 0.0709755793
v -0.299727023 1.03314841 0.0679050833
v -0.304655194 1.03226352 0.0650997087
v -0.308501065 1.03130841 0.0475819893
v -0.333511591 1.14914715 -0.311537445
v -0.33874476 1.14696062 -0.310924649
v -0.347571462 1.14651668 -0.310464412
v -0.356434852 1.14632225 -0.310763925
v -0.365298212 1.14612782 -0.311063439
v -0.368886411 1.14781964 -0.311063439
v -0.377749771 1.14762521 -0.311362952
v -0.383024931 1.14573908 -0.311662465
v -0.39020133 1.1491226 -0.311662465
v -0.39906472 1.14892817 -0.311961979
v -0.407928079 1.14873374 -0.312261462
v -0.413168669 1.14667416 -0.312032819
v -0.421999484 1.14632678 -0.311865956
v -0.430809557 1.14589036 -0.311427623
v -0.434377879 1.14749539 -0.311165601
v -0.443180501 1.1470437 -0.310681701
v -0.452038169 1.14684951 -0.310981005
v -0.460895866 1.1466552 -0.31128034
v -0.464481771 1.14834595 -0.31128034
v -0.473339438 1.14815164 -0.311579645
v -0.478599668 1.14621961 -0.311735481
v -0.487420797 1.1458813 -0.311595887
v -0.496215761 1.14544845 -0.311167836
v -0.499789536 1.14709604 -0.311038405
v -0.508608162 1.1467663 -0.310924917
v -0.517462075 1.14657211 -0.311224133
v -0.526265621 1.14619756 -0.310973585
v -0.529849529 1.14788723 -0.310973585
v -0.538702309 1.14769304 -0.31127274
v -0.543926239 1.14565504 -0.311102331
v -0.552778065 1.14546096 -0.311401427
v -0.55989176 1.1486634 -0.31086427
v -0.568677008 1.1482569 -0.310517311
v -0.573726356 1.14567769 -0.308696002
v -0.576880574 1.1452409 -0.286016554
v -0.584009886 1.14861488 -0.286061615
v -0.58923167 1.1466949 -0.286215365
v -0.597948134 1.14625096 -0.285752565
v -0.606872261 1.14643526 -0.287192523
v -0.610430479 1.14810216 -0.287154049
v -0.619249284 1.14796436 -0.287618458
v -0.627947152 1.14747906 -0.287031144
v -0.636731029 1.14724541 -0.287205487
v -0.638481736 1.14390647 -0.288148224
v -0.637926519 1.13417268 -0.285841167
v -0.63594985 1.1286937 -0.285369277
v -0.63573283 1.11990511 -0.285925895
v -0.635414898 1.11083984 -0.285622627
v -0.635081947 1.10173714 -0.28519088
v -0.636771739 1.09823632 -0.285633922
v -0.636537552 1.08940518 -0.286043733
v -0.636121333 1.08008742 -0.284905285
v -0.637905419 1.0768398 -0.28615272
v -0.637557924 1.06771207 -0.285601705
v -0.635616422 1.06233788 -0.285410702
v -0.635371685 1.05348551 -0.285728842
v -0.635094464 1.04454923 -0.285769522
v -0.634747982 1.0354352 -0.285219073
v -0.636448503 1.03196776 -0.285767734
v -0.636158466 1.02300453 -0.285699904
v -0.635861933 1.01402712 -0.285575867
v -0.637575567 1.01059365 -0.286238879
v -0.637271166 1.00159991 -0.28605023
v -0.636998057 0.992687404 -0.286126226
v -0.634955823 0.987070501 -0.285059154
v -0.634713173 0.978238165 -0.285391271
v -0.634446561 0.969347775 -0.285519063
v -0.636140645 0.965868115 -0.286026299
v -0.635830581 0.956874132 -0.285785377
v -0.635618567 0.948120475 -0.286378026
v -0.635293007 0.939094126 -0.286003947
v -0.637075543 0.935826838 -0.287266999
v -0.636683404 0.926646113 -0.286329895
v -0.634631813 0.921028435 -0.285165966
v -0.634379506 0.912185729 -0.285413355
v -0.637782753 0.905268788 -0.286579907
v -0.635795712 0.899809539 -0.28596428
v -0.63552165 0.890919864 -0.286026776
v -0.635234773 0.882002771 -0.285979271
v -0.634954572 0.87310344 -0.285988182
v -0.636633039 0.869594038 -0.286382169
v -0.636375248 0.860747933 -0.286582768
v -0.636074007 0.851806641 -0.28641358
v -0.637810946 0.848427773 -0.287306488
v -0.637506902 0.83948338 -0.287115395
v -0.637232542 0.83060658 -0.287175059
v -0.635265231 0.825206995 -0.286709517
v -0.634971857 0.816292822 -0.286604255
v -0.634612918 0.807240784 -0.285939127
v -0.636374712 0.803914726 -0.28705588
v -0.636066556 0.7949754 -0.286826074
v -0.635795057 0.786116123 -0.286907107
v -0.637400091 0.782459736 -0.286693841
v -0.634662271 0.768505096 -0.265840709
v -0.637394845 0.760294259 -0.261533767
v -0.637030005 0.751303077 -0.260816008
v -0.63507694 0.745956421 -0.26035732
v -0.63485986 0.737268507 -0.260885537
v -0.634635985 0.728567243 -0.261355639
v -0.636289716 0.725059688 -0.261649251
v -0.635936379 0.716105521 -0.261024982
v -0.636755049 0.704285264 -0.24070479
v -0.635817647 0.694260776 -0.235164031
v -0.635495782 0.685429513 -0.234795839
v -0.637138307 0.68194592 -0.235087454
v -0.636809945 0.673107564 -0.234666452
v -0.6349473 0.667955637 -0.234857276
v -0.63463217 0.659146309 -0.234542787
v -0.634385765 0.650466442 -0.234806493
v -0.637668908 0.64350301 -0.235389411
v -0.635818779 0.638374984 -0.235680863
v -0.635610282 0.629765213 -0.236263782
v -0.635342717 0.621050835 -0.236349836
v -0.637043297 0.617673755 -0.237138152
v -0.636741221 0.608900845 -0.236935392
v -0.634724498 0.60348326 -0.235820085
v -0.638173938 0.596811593 -0.237809598
v -0.637797534 0.587918103 -0.236985311
v -0.637542963 0.579235137 -0.237181053
v -0.637189746 0.576621592 -0.250059247
v -0.634646833 0.568289816 -0.260528773
v -0.636296034 0.564791799 -0.260821611
v -0.635926843 0.555879653 -0.260057151
v -0.635712802 0.547224879 -0.260603279
v -0.635503352 0.538577735 -0.261188716
v -0.637152016 0.53508091 -0.261481464
v -0.636860073 0.526303291 -0.261370212
v -0.634861827 0.520932555 -0.260473222
v -0.635020256 0.512862921 -0.264176607
v -0.635548055 0.511423469 -0.2847808
v -0.635350227 0.502752244 -0.285476804
v -0.635114312 0.494022787 -0.285848975
v -0.63471359 0.48504585 -0.284815371
v -0.636369884 0.481532842 -0.28510946
v -0.63615948 0.472845703 -0.285697609
v -0.634292722 0.467671573 -0.285991669
v -0.637605429 0.460645527 -0.286579847
v -0.637395024 0.451958388 -0.287167996
v -0.637116432 0.44317472 -0.287177622
v -0.63491708 0.43753159 -0.284635335
v -0.634706855 0.428851336 -0.285223037
v -0.63449657 0.420171082 -0.285810709
v -0.636151612 0.416660845 -0.28610456
v -0.635941386 0.407980591 -0.286692232
v -0.635673344 0.399223268 -0.286787927
v -0.635255992 0.390271306 -0.28561148
v -0.637077272 0.38698107 -0.287324011
v -0.636700034 0.378087193 -0.286492556
v -0.634743214 0.372801185 -0.28599757
v -0.634372234 0.363923222 -0.28521207
v -0.633985043 0.355030417 -0.284286976
v -0.635756791 0.351672471 -0.285593212
v -0.635308146 0.342710406 -0.284148663
v -0.635098279 0.334044158 -0.284735382
v -0.634888351 0.325377911 -0.28532213
v -0.636540711 0.321873307 -0.285615504
v -0.636330783 0.31320706 -0.286202222
v -0.634468555 0.308045387 -0.286495596
v -0.637773275 0.301036209 -0.287082344
v -0.637563348 0.292369962 -0.287669092
v -0.63735342 0.283703715 -0.288255811
v -0.635044336 0.278052688 -0.284742653
v -0.634834647 0.2693941 -0.285328865
v -0.634624898 0.260735482 -0.285915107
v -0.636275828 0.257234007 -0.286208212
v -0.636066079 0.248575404 -0.286794424
v -0.635801852 0.239861339 -0.286916912
v -0.63750726 0.236415312 -0.287673742
v -0.637232244 0.227691993 -0.28770566
v -0.636971951 0.218985215 -0.287862211
v -0.634753287 0.213482305 -0.285099298
v -0.634543777 0.204831824 -0.285684973
v -0.637842417 0.197835401 -0.286270648
v -0.635983586 0.192683131 -0.286563486
v -0.635774016 0.184032649 -0.287149161
v -0.635293901 0.175141022 -0.285430014
v -0.63508445 0.166495174 -0.286015362
v -0.636732936 0.16299884 -0.28630805
v -0.636523545 0.154352978 -0.286893398
v -0.634450138 0.149022266 -0.285347581
v -0.63796258 0.142210796 -0.287771434
v -0.637536287 0.133390412 -0.286517799
v -0.635679245 0.128243104 -0.286810338
v -0.635367692 0.119521119 -0.286524892
v -0.634881735 0.110669293 -0.28475216
v -0.634672582 0.102033615 -0.285336822
v -0.636319101 0.0985413864 -0.285629153
v -0.636109948 0.0899057016 -0.286213845
v -0.635900795 0.0812700242 -0.286798507
v -0.637547314 0.0777777955 -0.287090838
v -0.637338102 0.0691421106 -0.2876755
v -0.636817634 0.0603003539 -0.285616428
v -0.634963036 0.0551600493 -0.28590858
v -0.634754002 0.0465296656 -0.286492884
v -0.634463131 0.0378484987 -0.28637889
v -0.63615948 0.0343902409 -0.28710568
v -0.635771513 0.0256539397 -0.286166966
v -0.63552314 0.017004367 -0.286415607
v -0.635184884 0.008305653 -0.285897702
v -0.634044588 0.00327987806 -0.262542695
v -0.637013316 -0.00381826516 -0.260576814
v -0.636667311 -0.0124614779 -0.259988844
v -0.634825945 -0.017565297 -0.26027894
v -0.634618402 -0.026134422 -0.260859102
v -0.634422541 -0.0346979573 -0.261538714
v -0.635889888 -0.0382413454 -0.260420471
v -0.635682404 -0.0468078479 -0.261000454
v -0.63547492 -0.0553743541 -0.261580437
v -0.635599911 -0.0636175647 -0.235729784
v -0.63523829 -0.0721936375 -0.234998032
v -0.636829913 -0.0756477043 -0.235024884
v -0.636546016 -0.0841875076 -0.234948307
v -0.634655714 -0.0892783925 -0.234715641
v -0.634449661 -0.0977865309 -0.235291675
v -0.637694061 -0.10466782 -0.235867709
v -0.637208045 -0.113265358 -0.234096676
v -0.635380745 -0.118330061 -0.234384537
v -0.635174751 -0.126833498 -0.234960243
v -0.634968817 -0.13533695 -0.235535964
v -0.636590123 -0.138775706 -0.235823825
v -0.636380136 -0.147280172 -0.236365527
v -0.636057615 -0.155811042 -0.235961914
v -0.637678564 -0.159248978 -0.2362497
v -0.63747263 -0.167750403 -0.236825272
v -0.637170434 -0.176270619 -0.236592785
v -0.635255158 -0.18134965 -0.236133263
v -0.634884775 -0.189875796 -0.235322267
v -0.634572387 -0.198387578 -0.234998971
v -0.636190474 -0.201822609 -0.235274985
v -0.635879278 -0.210329875 -0.234963372
v -0.635670543 -0.218822181 -0.235512882
v -0.635437489 -0.227316692 -0.235857576
v -0.637084007 -0.230748177 -0.236375287
v -0.636878312 -0.23924008 -0.236950219
v -0.634864688 -0.2443095 -0.235647142
v -0.634637415 -0.252799213 -0.236039042
v -0.637947917 -0.259662241 -0.23723045
v -0.637688458 -0.268152595 -0.237354025
v -0.635768652 -0.273208916 -0.236836374
v -0.635504484 -0.281695276 -0.236917928
v -0.635188997 -0.29017815 -0.236566246
v -0.636854589 -0.293610871 -0.237255856
v -0.636537075 -0.302090019 -0.236889988
v -0.634640217 -0.307137996 -0.236553743
v -0.636804461 -0.315809339 -0.257116914
v -0.636975884 -0.324367702 -0.260882407
v -0.635079861 -0.329440296 -0.260633945
v -0.634800136 -0.337958276 -0.260590911
v -0.634383202 -0.346454442 -0.259383768
v -0.636070907 -0.349910051 -0.260203332
v -0.635769188 -0.358417749 -0.259974301
v -0.635562778 -0.366939485 -0.260551244
v -0.635356367 -0.375461191 -0.261128217
v -0.636981189 -0.378907353 -0.261416674
v -0.636774778 -0.387429088 -0.261993647
v -0.63480103 -0.392471582 -0.261074007
v -0.634489894 -0.400964826 -0.260761917
v -0.637780845 -0.407864958 -0.261700809
v -0.635821164 -0.412903339 -0.260896116
v -0.6355232 -0.421392947 -0.26069659
v -0.635260344 -0.429890186 -0.260793746
v -0.63498944 -0.438382924 -0.260821939
v -0.636630476 -0.441831231 -0.261261731
v -0.636387467 -0.45033133 -0.261527121
v -0.634444654 -0.455360711 -0.260851443
v -0.63772285 -0.462255865 -0.261705458
v -0.637494028 -0.470757961 -0.262090504
v -0.637196064 -0.479231507 -0.261891752
v -0.635278463 -0.484262615 -0.261424571
v -0.635039449 -0.49275586 -0.261721641
v -0.634801745 -0.501248538 -0.262028754
v -0.636455417 -0.504702866 -0.26258558
v -0.636105895 -0.513142347 -0.261948645
v -0.635758877 -0.521578133 -0.261331141
v -0.637431622 -0.525041759 -0.262054652
v -0.637156069 -0.533509254 -0.262043208
v -0.636933267 -0.542002141 -0.262476116
v -0.634953976 -0.546983719 -0.261472255
v -0.634733081 -0.555474341 -0.261920363
v -0.638008773 -0.562367678 -0.262789458
v -0.636445642 -0.567581713 -0.265303463
v -0.635128975 -0.579117119 -0.285798788
v -0.634855211 -0.587619007 -0.285807461
v -0.636516273 -0.59109354 -0.286371619
v -0.636098862 -0.599501371 -0.285160303
v -0.63586098 -0.608020067 -0.285474449
v -0.637520134 -0.611493587 -0.286027491
v -0.637282193 -0.620011508 -0.286341578
v -0.637075365 -0.628550053 -0.286919683
v -0.63514626 -0.633568823 -0.286405385
v -0.634803653 -0.642007172 -0.285825491
v -0.63449508 -0.650466144 -0.285534561
v -0.636115849 -0.653912187 -0.285770774
v -0.63586092 -0.662408113 -0.285937935
v -0.635542214 -0.670852482 -0.285561979
v -0.637227833 -0.674348593 -0.286353171
v -0.636961997 -0.682832181 -0.286428273
v -0.636755407 -0.691362321 -0.287005782
v -0.634922385 -0.696442902 -0.287294537
v -0.63464874 -0.704916 -0.287300289
v -0.637954116 -0.711859643 -0.2883268
v -0.635916233 -0.71676141 -0.286872327
v -0.635604382 -0.725194156 -0.286552697
v -0.635309339 -0.733638525 -0.286375493
v -0.635102928 -0.742161691 -0.286952555
v -0.636715353 -0.745596707 -0.287133694
v -0.636508882 -0.754119635 -0.287710726
v -0.636884928 -0.758275509 -0.264009416
v -0.634604752 -0.762879848 -0.260404468
v -0.637771547 -0.769667685 -0.260455132
v -0.637459993 -0.778028369 -0.260130584
v -0.635528266 -0.782956541 -0.259462237
v -0.635239422 -0.791333497 -0.259325564
v -0.635034502 -0.799794614 -0.259898424
v -0.634719074 -0.808139145 -0.259534866
v -0.636288226 -0.811513722 -0.259451777
v -0.635918915 -0.81979537 -0.258634597
v -0.635706961 -0.828243375 -0.259146541
v -0.637319148 -0.831662774 -0.259432763
v -0.637114346 -0.840118468 -0.260005265
v -0.636865377 -0.848524213 -0.26020515
v -0.634965479 -0.853464961 -0.259787828
v -0.634707272 -0.861856461 -0.259907067
v -0.637970209 -0.868739128 -0.260813266
v -0.636024415 -0.873621166 -0.260006458
v -0.635736108 -0.881972134 -0.25987184
v -0.635473251 -0.890351117 -0.259951353
v -0.635113478 -0.898608565 -0.259209812
v -0.636874378 -0.902210236 -0.260766208
v -0.636518002 -0.910468698 -0.260056406
v -0.634668887 -0.915455937 -0.26005277
v -0.637983263 -0.922406197 -0.261415243
v -0.637684882 -0.93073225 -0.261196375
v -0.635870039 -0.935762525 -0.261482269
v -0.63560611 -0.944129646 -0.261551827
v -0.635234654 -0.952350616 -0.260709852
v -0.634924233 -0.960648775 -0.260383934
v -0.636593759 -0.964143813 -0.261178851
v -0.636343896 -0.972522378 -0.261366814
v -0.636099696 -0.980907202 -0.261601776
v -0.63777709 -0.984415472 -0.262462884
v -0.637490928 -0.99274075 -0.262345225
v -0.637272477 -1.00116014 -0.262798101
v -0.635459006 -1.00618649 -0.263083786
v -0.637550294 -1.01798356 -0.28310886
v -0.636160612 -1.02367139 -0.287070155
v -0.635832429 -1.03197265 -0.286600888
v -0.63555336 -1.040344 -0.286548316
v -0.637174189 -1.04377949 -0.286867023
v -0.636856794 -1.05208957 -0.28649053
v -0.636601985 -1.06049263 -0.286644638
v -0.634726703 -1.06545925 -0.286477089
v -0.63797009 -1.0723325 -0.287140071
v -0.637621224 -1.08058298 -0.286496907
v -0.635749221 -1.08555007 -0.286352456
v -0.635506988 -1.09396505 -0.286611557
v -0.635239005 -1.10233665 -0.286651164
v -0.634995401 -1.11074638 -0.286897421
v -0.636600435 -1.11415541 -0.287096173
v -0.636351585 -1.12255478 -0.287298501
v -0.636146367 -1.13102639 -0.287872046
v -0.637805402 -1.13452637 -0.288530201
v -0.630778253 -1.13749933 -0.28719613
v -0.622293532 -1.13731325 -0.286909431
v -0.618858576 -1.1389327 -0.286909431
v -0.610465527 -1.13891137 -0.287444144
v -0.605414748 -1.13710535 -0.287157387
v -0.596928418 -1.13691926 -0.286870599
v -0.588549554 -1.136935 -0.287592918
v -0.585113168 -1.13855517 -0.287592918
v -0.576612115 -1.13834441 -0.287183493
v -0.572597384 -1.13828135 -0.312561601
v -0.563957572 -1.13789427 -0.311270058
v -0.560501397 -1.13952386 -0.311270058
v -0.552052975 -1.1395185 -0.311893046
v -0.547050416 -1.13786578 -0.312430799
v -0.538509727 -1.1376785 -0.312142193
v -0.52999872 -1.13755512 -0.312175006
v -0.521500468 -1.13746274 -0.312363386
v -0.51805079 -1.13911211 -0.312458217
v -0.509508312 -1.13892472 -0.312169552
v -0.504424155 -1.1371069 -0.311880887
v -0.497516274 -1.14038837 -0.311983466
v -0.489014238 -1.14029884 -0.31218484
v -0.483929396 -1.13848078 -0.311896116
v -0.475404382 -1.13833988 -0.311840743
v -0.466911435 -1.13828337 -0.312209159
v -0.458366036 -1.13809597 -0.311920404
v -0.383511871 -0.949217021 0.6558882
v -0.382037491 -0.953025281 0.656343758
v -0.375387967 -0.952837706 0.656776667
v -0.36879462 -0.952807128 0.656430244
v -0.36215964 -0.952661633 0.656654477
v -0.359473556 -0.953928053 0.656654477
v -0.352838546 -0.953782499 0.65687871
v -0.348889649 -0.952370524 0.657102883
v -0.342254639 -0.952225029 0.657327116
v -0.335700303 -0.952344716 0.656233668
v -0.333025783 -0.953653812 0.656024754
v -0.326379299 -0.953478932 0.656394303
v -0.31997782 -0.954176664 0.652435899
v -0.320023417 -0.947135925 0.654920757
v -0.369608998 -1.13841522 -0.311855614
v -0.361016572 -1.13807297 -0.310790092
v -0.357601941 -1.13988125 -0.311673999
v -0.349064708 -1.13974869 -0.311660379
v -0.340527922 -1.13962221 -0.311677814
v -0.335423321 -1.13774121 -0.311082423
v -0.326915115 -1.13774395 -0.311748981
v -0.318361491 -1.13755631 -0.311459929
v -0.314925432 -1.13931382 -0.312085748
v -0.306370616 -1.13912618 -0.311796665
v -0.29781577 -1.13893855 -0.311507583
v -0.256186098 -0.951330245 0.655279815
v -0.253442138 -0.952303469 0.656745493
v -0.246804923 -0.952184856 0.656835437
v -0.24016276 -0.952039182 0.657059908
v -0.237473771 -0.953306973 0.657059908
v -0.230831593 -0.953161299 0.657284379
v -0.224179938 -0.952947438 0.657847106
v -0.221526593 -0.954477012 0.656550229
v -0.214886159 -0.954360306 0.656631112
v -0.208252892 -0.954310477 0.656380534
v -0.204281151 -0.952744305 0.65735966
v -0.197651699 -0.952741802 0.656873345
v -0.193696707 -0.951327622 0.657097876
v -0.208817884 -1.13884568 -0.309372038
v -0.20375073 -1.13731945 -0.310562402
v -0.195194885 -1.13717663 -0.310499221
v -0.186639369 -1.1370523 -0.310528606
v -0.178079039 -1.13686454 -0.310239345
v -0.174620166 -1.13862669 -0.310882449
v -0.166072205 -1.13876355 -0.312221587
v -0.160974339 -1.13692999 -0.31187737
v -0.154040352 -1.1402216 -0.311987936
v -0.145476043 -1.14006853 -0.311872602
v -0.140378296 -1.1382457 -0.311583161
v -0.131813392 -1.13821602 -0.312087357
v -0.128507853 -0.953420639 0.654812098
v -0.125814185 -0.954690635 0.654812098
v -0.119162604 -0.954408765 0.655710399
v -0.115209669 -0.952699065 0.657394528
v -0.108558878 -0.952594519 0.657414198
v -0.101908974 -0.952448666 0.657638907
v -0.0952590704 -0.952302814 0.657863617
v -0.0925599039 -0.953700542 0.65722692
v -0.0858997703 -0.95369339 0.65676415
v -0.0819404274 -0.95227766 0.656988919
v -0.0752879009 -0.952131748 0.657213748
v -0.0686353818 -0.951985836 0.657438517
v -0.0645572692 -0.951801717 0.651531637
v -0.0413102545 -1.13846958 -0.286553383
v -0.0327887796 -1.13828266 -0.286265433
v -0.0242325049 -1.13838029 -0.287397444
v -0.0207787752 -1.14002955 -0.287507921
v -0.0122542726 -1.13984251 -0.287219852
v -0.00718089053 -1.13802779 -0.286928385
v 0.00134034513 -1.13781941 -0.286533296
v 0.00986462831 -1.13763237 -0.286245227
v 0.0183889121 -1.13744545 -0.285957187
v 0.0218398459 -1.13907254 -0.285957187
v 0.0304021593 -1.13909066 -0.286691427
v 0.0354767144 -1.13727617 -0.286403298
v 0.044003021 -1.13708913 -0.286115199
v 0.0525440089 -1.13697147 -0.286173731
v 0.0594640337 -1.14029956 -0.286536872
v 0.0628223121 -1.13391459 -0.288468719
v 0.0689851046 -1.13679874 -0.311810672
v 0.0775275826 -1.13645685 -0.310747743
v 0.0845111534 -1.13988578 -0.311520755
v 0.089580968 -1.13791692 -0.310512573
v 0.0982071385 -1.13791072 -0.311136454
v 0.106808372 -1.13780046 -0.311237544
v 0.110306755 -1.13952696 -0.311681807
v 0.0608335249 -0.951824129 0.655041516
v 0.0662214011 -0.954336941 0.655199051
v 0.0728734508 -0.954145968 0.655646145
v 0.0767357498 -0.952385128 0.657571852
v 0.0834221616 -0.952317774 0.657405972
v 0.0901129618 -0.952259123 0.657196641
v 0.0928707346 -0.95371455 0.656286478
v 0.0994737297 -0.953384817 0.657421768
v 0.106136978 -0.953238666 0.657646954
v 0.110149518 -0.951952696 0.657216132
v 0.116814062 -0.951806486 0.657441378
v 0.122299127 -0.95459044 0.656254292
v 0.124971732 -0.949564636 0.654924572
v 0.204947442 -1.13808501 -0.311647385
v 0.208424091 -1.13972425 -0.311647385
v 0.217033446 -1.13958955 -0.311626524
v 0.222126395 -1.13771665 -0.311108559
v 0.230733216 -1.1375736 -0.311046094
v 0.239343181 -1.13743579 -0.311009705
v 0.247942194 -1.13727069 -0.310836464
v 0.251419365 -1.13891006 -0.310836464
v 0.260011852 -1.13872933 -0.310584396
v 0.265123785 -1.1369015 -0.310294151
v 0.272189528 -1.14041996 -0.311493874
v 0.188701794 -0.951635599 0.646407127
v 0.189420298 -0.954089642 0.653739452
v 0.195855021 -0.953440011 0.656460643
v 0.199794471 -0.951956391 0.657003641
v 0.206497014 -0.951873958 0.656911552
v 0.211950511 -0.954523802 0.656401157
v 0.218650475 -0.954431117 0.656360865
v 0.222599253 -0.952967405 0.656803071
v 0.229269758 -0.952817261 0.657047391
v 0.235942245 -0.952670932 0.657272875
v 0.238645747 -0.953948677 0.657252371
v 0.245422632 -0.953991055 0.65654248
v 0.249292463 -0.952387631 0.657677233
v 0.250779092 -0.950078189 0.655987799
v 0.367073357 -1.13900292 -0.311588615
v 0.372190595 -1.13717318 -0.311298072
v 0.380788654 -1.13698459 -0.311007529
v 0.389527887 -1.13703024 -0.311894804
v 0.393009633 -1.13867188 -0.311894804
v 0.401610017 -1.13848329 -0.311604172
v 0.410210401 -1.13829458 -0.31131357
v 0.418810755 -1.13810599 -0.311022937
v 0.422292501 -1.1397475 -0.311022937
v 0.430931956 -1.13961911 -0.311034054
v 0.436050951 -1.13778877 -0.310743392
v 0.315222561 -0.95255065 0.645483077
v 0.316055626 -0.955612659 0.649824739
v 0.322010458 -0.954357624 0.65554136
v 0.328691751 -0.954211056 0.655767143
v 0.332639545 -0.952747226 0.656201422
v 0.339300215 -0.952571511 0.656571984
v 0.345816284 -0.952190816 0.657960713
v 0.348519892 -0.953465521 0.657960713
v 0.355351806 -0.953533888 0.65712148
v 0.362032205 -0.95338732 0.657347202
v 0.366008133 -0.95196569 0.657572985
v 0.371806502 -0.955043674 0.654960632
v 0.378338426 -0.954691589 0.656203747
v 0.378393292 -0.948306501 0.655222297
v 0.529480338 -1.13978314 -0.310829937
v 0.53829217 -1.13985956 -0.311867595
v 0.543465376 -1.13809037 -0.311892599
v 0.552129328 -1.13796949 -0.311943144
v 0.560740232 -1.13778067 -0.311652154
v 0.56422621 -1.1394242 -0.311652154
v 0.570631981 -1.13652396 -0.29776904
v 0.571337044 -1.14022589 -0.291073531
v 0.579264343 -1.13925481 -0.286880493
v 0.58782655 -1.13906705 -0.286591142
v 0.593010008 -1.13734937 -0.286823571
v 0.601573229 -1.13716149 -0.28653419
v 0.610136509 -1.13697374 -0.28624481
v 0.613790572 -1.13882577 -0.287330091
v 0.622355938 -1.1386379 -0.287040651
v 0.631227672 -1.13879764 -0.288485229
v 0.630927205 -1.13013911 -0.287377834
v 0.632557869 -1.12668037 -0.287088305
v 0.632350743 -1.11812782 -0.286509246
v 0.632332742 -1.10978234 -0.286999404
v 0.633963883 -1.10632277 -0.286709815
v 0.633756638 -1.09776795 -0.286130637
v 0.632001877 -1.09276235 -0.286313117
v 0.632013261 -1.0844388 -0.286969781
v 0.631959319 -1.07604182 -0.287257195
v 0.631889045 -1.06762457 -0.287452906
v 0.633579433 -1.06422234 -0.287490487
v 0.633372068 -1.05566025 -0.286910802
v 0.631532192 -1.05056059 -0.286620975
v 0.631324828 -1.04199851 -0.28604129
v 0.631117404 -1.03343642 -0.285461605
v 0.631140411 -1.0251013 -0.286185473
v 0.632825375 -1.0216887 -0.286189049
v 0.632786632 -1.01328671 -0.286561728
v 0.630945623 -1.00818396 -0.286271721
v 0.63081491 -0.999689996 -0.286126494
v 0.630885839 -0.991384089 -0.287122935
v 0.6326527 -0.988041937 -0.28758201
v 0.632445097 -0.979469299 -0.28700161
v 0.632237434 -0.970896602 -0.28642121
v 0.630395293 -0.965790689 -0.286131024
v 0.63366431 -0.958857238 -0.285550624
v 0.633456647 -0.950284541 -0.284970224
v 0.631614506 -0.945178628 -0.284680009
v 0.631679237 -0.93684262 -0.285639673
v 0.631602287 -0.928379059 -0.28579846
v 0.631499946 -0.919891119 -0.285813928
v 0.633135557 -0.916422069 -0.285523534
v 0.633239567 -0.908102274 -0.286702514
v 0.631302178 -0.902913928 -0.285884202
v 0.631296337 -0.894497395 -0.286446095
v 0.631088436 -0.885914266 -0.285864979
v 0.630880535 -0.877331138 -0.285283864
v 0.63274765 -0.874041319 -0.286295623
v 0.632650793 -0.865541577 -0.286341667
v 0.630814672 -0.860434175 -0.286102802
v 0.630722821 -0.851935148 -0.286178857
v 0.630514801 -0.843346775 -0.285597384
v 0.632359862 -0.840027452 -0.286479205
v 0.632356048 -0.831585824 -0.287051737
v 0.63217479 -0.823012114 -0.286622018
v 0.63196665 -0.814418793 -0.286040217
v 0.633605123 -0.810943663 -0.285749316
v 0.633405268 -0.802356124 -0.285214514
v 0.631795287 -0.797399998 -0.286261261
v 0.631752431 -0.788915455 -0.286614537
v 0.631546855 -0.780319273 -0.28604728
v 0.631464541 -0.771803439 -0.286177814
v 0.633208215 -0.768393099 -0.286473751
v 0.632806718 -0.759101629 -0.265208304
v 0.634343088 -0.755580246 -0.264382422
v 0.633668661 -0.746733606 -0.261184007
v 0.631830752 -0.741639376 -0.260894477
v 0.63173759 -0.733155012 -0.260956258
v 0.631678879 -0.724688351 -0.261211812
v 0.631471634 -0.716132462 -0.260632545
v 0.633305609 -0.712788641 -0.261479557
v 0.633098304 -0.704230428 -0.26090014
v 0.631259263 -0.699133158 -0.260610431
v 0.634578288 -0.691985965 -0.24099426
v 0.633537114 -0.683019936 -0.235763788
v 0.631915331 -0.678060353 -0.236632794
v 0.631709158 -0.66954726 -0.236056417
v 0.631709397 -0.661138713 -0.236633971
v 0.633333027 -0.657695115 -0.236345708
v 0.633126736 -0.649179697 -0.235769182
v 0.633085787 -0.640743434 -0.236114711
v 0.631406546 -0.635742009 -0.236670911
v 0.631249785 -0.627245963 -0.236371472
v 0.631131172 -0.618766069 -0.23628518
v 0.632928908 -0.615397632 -0.236963376
v 0.632722497 -0.606875181 -0.236386374
v 0.630891144 -0.60179919 -0.236097872
v 0.630684733 -0.593276739 -0.235520869
v 0.630796432 -0.584883809 -0.236724243
v 0.630593956 -0.576359391 -0.236169457
v 0.632215559 -0.572909892 -0.235858381
v 0.633248329 -0.564534128 -0.261635244
v 0.631417036 -0.559429109 -0.261413157
v 0.631425023 -0.550928295 -0.262046278
v 0.631227314 -0.542350471 -0.261522114
v 0.632863462 -0.53888011 -0.261231631
v 0.632655621 -0.53029865 -0.260650605
v 0.630959272 -0.525235951 -0.261191219
v 0.630925059 -0.516707897 -0.26158765
v 0.630709946 -0.508120596 -0.260965824
v 0.632540941 -0.504707277 -0.261765629
v 0.631718218 -0.499275804 -0.286952853
v 0.631712496 -0.490695029 -0.287518799
v 0.631638467 -0.482091129 -0.287698984
v 0.633370042 -0.478618592 -0.287879616
v 0.63316071 -0.469975471 -0.287294447
v 0.63130343 -0.464827567 -0.287001878
v 0.631094038 -0.456184447 -0.286416709
v 0.630884707 -0.447541296 -0.285831511
v 0.630810976 -0.438927352 -0.286013871
v 0.632738769 -0.435490221 -0.287300527
v 0.632636309 -0.42686367 -0.287319392
v 0.630777776 -0.42171222 -0.287026614
v 0.630754471 -0.413096905 -0.287495583
v 0.630464733 -0.404432118 -0.28645581
v 0.634050369 -0.397481799 -0.287488461
v 0.632190824 -0.392327696 -0.287195534
v 0.631981254 -0.383674204 -0.28660965
v 0.631771624 -0.375020683 -0.286023796
v 0.6334216 -0.371521235 -0.285730839
v 0.63321197 -0.362867743 -0.285144985
v 0.631352425 -0.35771364 -0.284852028
v 0.63124311 -0.349069864 -0.284833133
v 0.631545126 -0.340458989 -0.287141591
v 0.631335378 -0.331798524 -0.28655526
v 0.633360982 -0.328322291 -0.288375467
v 0.633162022 -0.31965819 -0.287850201
v 0.631300032 -0.314497352 -0.287556887
v 0.631090164 -0.305832505 -0.286970258
v 0.630880296 -0.297167659 -0.286383599
v 0.630670428 -0.288502812 -0.28579697
v 0.63232249 -0.284998804 -0.285503656
v 0.632112622 -0.276333928 -0.284916997
v 0.630250633 -0.27117312 -0.284623682
v 0.630040765 -0.262508273 -0.284037024
v 0.634030163 -0.255482465 -0.287313879
v 0.632166505 -0.250316978 -0.287020296
v 0.632029772 -0.241641119 -0.286847532
v 0.631949842 -0.232960433 -0.286996335
v 0.631881654 -0.224275976 -0.287211448
v 0.633535981 -0.220767215 -0.286917746
v 0.633325815 -0.212090656 -0.286330312
v 0.631461322 -0.206922844 -0.286036581
v 0.631251156 -0.198246285 -0.285449147
v 0.631365061 -0.189533204 -0.286695093
v 0.631345689 -0.180829257 -0.287187517
v 0.633001149 -0.177318126 -0.286893606
v 0.632790864 -0.168635696 -0.286305785
v 0.630925119 -0.163464382 -0.286011875
v 0.630714834 -0.154781953 -0.285424024
v 0.630504489 -0.146099508 -0.284836203
v 0.632563889 -0.142518044 -0.286824077
v 0.632432759 -0.133816287 -0.286683798
v 0.632324398 -0.125108227 -0.286672413
v 0.630457222 -0.119932942 -0.286378264
v 0.630370319 -0.111217164 -0.286489993
v 0.633684278 -0.104188368 -0.285901606
v 0.631816804 -0.0990122482 -0.285607427
v 0.63160634 -0.0903217271 -0.28501904
v 0.631538332 -0.0815949515 -0.285236508
v 0.631684422 -0.0728079751 -0.286664784
v 0.633342505 -0.0692912713 -0.286370397
v 0.633131862 -0.0605950542 -0.285781622
v 0.631263137 -0.0554155372 -0.285487235
v 0.631052554 -0.0467193164 -0.28489846
v 0.631140769 -0.0379298702 -0.286000848
v 0.630970538 -0.0292171296 -0.285641104
v 0.632859349 -0.0256235655 -0.286645234
v 0.632648587 -0.0169208404 -0.286056012
v 0.630778491 -0.01173745 -0.285761416
v 0.630705178 -0.00298549957 -0.285950571
v 0.632020116 0.00332143623 -0.274064839
v 0.633194268 0.00954538584 -0.261490196
v 0.631320179 0.0146964146 -0.261119515
v 0.631130934 0.0233614985 -0.2606484
v 0.631116986 0.0320978872 -0.261163771
v 0.630907238 0.0407574102 -0.2605775
v 0.632558346 0.0442592725 -0.260284364
v 0.632634819 0.0530420616 -0.261305332
v 0.6307531 0.0581927784 -0.260898083
v 0.630472004 0.0668232664 -0.259910583
v 0.633281052 0.0703576505 -0.236973688
v 0.631292224 0.075426437 -0.235914648
v 0.631220758 0.0841061622 -0.236098632
v 0.631131709 0.0927805379 -0.236184582
v 0.63277483 0.096265547 -0.235892847
v 0.632821798 0.105010904 -0.236736566
v 0.630969346 0.110145465 -0.236444741
v 0.63076055 0.118766196 -0.235861078
v 0.630551755 0.127386928 -0.235277429
v 0.630342901 0.136007667 -0.234693766
v 0.632446229 0.139744088 -0.236968517
v 0.632237256 0.148370028 -0.236384511
v 0.63038367 0.15350768 -0.236092508
v 0.633673012 0.160484239 -0.235508487
v 0.633464098 0.169110179 -0.23492448
v 0.633541822 0.177906319 -0.235938758
v 0.631401539 0.182873771 -0.234048471
v 0.631650209 0.191780388 -0.236021847
v 0.631502688 0.200449958 -0.235781476
v 0.633148491 0.20394063 -0.235489264
v 0.632939398 0.212572441 -0.23490487
v 0.632730305 0.221204266 -0.234320462
v 0.630875468 0.22634542 -0.23402825
v 0.630666375 0.234977245 -0.233443841
v 0.630479217 0.243624017 -0.232982039
v 0.63265419 0.247477576 -0.23564288
v 0.632444978 0.256115645 -0.235058054
v 0.630555809 0.261237264 -0.234581307
v 0.630379498 0.269898564 -0.234180808
v 0.630170286 0.278536648 -0.233595982
v 0.629982889 0.287190855 -0.233133197
v 0.632128358 0.291054636 -0.235624522
v 0.631918967 0.299698591 -0.235039294
v 0.631793439 0.3084068 -0.23492229
v 0.633696675 0.312098891 -0.23605071
v 0.630551398 0.322849691 -0.238664895
v 0.632898331 0.331350207 -0.261987358
v 0.632813036 0.340153754 -0.262102574
v 0.630891919 0.345296323 -0.261522144
v 0.630731881 0.354041487 -0.261218667
v 0.630521059 0.362745225 -0.260629386
v 0.632398665 0.366448611 -0.261559874
v 0.632320821 0.3752684 -0.261717767
v 0.632198632 0.384052873 -0.261626512
v 0.631987691 0.392761648 -0.261036903
v 0.633967876 0.396564722 -0.262534916
v 0.633949459 0.405448794 -0.263025045
v 0.631884694 0.410466284 -0.261650115
v 0.63186574 0.419353873 -0.262140006
v 0.63165468 0.428068459 -0.261550009
v 0.63144356 0.436783075 -0.260959983
v 0.633105159 0.44030723 -0.260664999
v 0.632894099 0.449021816 -0.260074973
v 0.63102144 0.454212308 -0.25977996
v 0.63081032 0.462926894 -0.259189963
v 0.63094008 0.47197631 -0.260517567
v 0.632887244 0.475782514 -0.26182133
v 0.632675946 0.484504282 -0.261230826
v 0.632464707 0.493226051 -0.260640353
v 0.630590498 0.498420805 -0.260345101
v 0.630596578 0.50736624 -0.260977983
v 0.630591929 0.516305625 -0.261550874
v 0.632255793 0.519834638 -0.261255473
v 0.632044435 0.528561294 -0.260664642
v 0.631907105 0.537366867 -0.260489702
v 0.631769776 0.546174288 -0.26031512
v 0.633532405 0.54981035 -0.260571569
v 0.633522689 0.558760226 -0.261111885
v 0.631646335 0.56396091 -0.260816276
v 0.631578505 0.57285279 -0.261032969
v 0.632596076 0.588662565 -0.287394375
v 0.630707562 0.593896985 -0.287096888
v 0.630494654 0.602685452 -0.286501884
v 0.63217032 0.606239438 -0.286204368
v 0.632048786 0.615134597 -0.2861256
v 0.632062495 0.624191582 -0.286811322
v 0.633738816 0.627747059 -0.286513686
v 0.633750677 0.636807621 -0.287186325
v 0.63384974 0.645978808 -0.288351655
v 0.63195914 0.65121913 -0.288053811
v 0.631745994 0.660017371 -0.287458122
v 0.631532907 0.668815672 -0.286862463
v 0.633210421 0.672373652 -0.286564618
v 0.632997334 0.681171894 -0.28596893
v 0.632956922 0.690188766 -0.286348343
v 0.631065905 0.695430279 -0.286050439
v 0.631105363 0.704555869 -0.286884606
v 0.630892158 0.713359058 -0.286288589
v 0.632570624 0.716919005 -0.285990596
v 0.632357419 0.725722194 -0.285394579
v 0.630465686 0.730965436 -0.285096586
v 0.630505204 0.740106106 -0.285931647
v 0.630419552 0.749084234 -0.286058366
v 0.630192101 0.757872581 -0.285382032
v 0.631885529 0.761453509 -0.285163879
v 0.62926048 0.766949713 -0.270935535
v 0.633494556 0.767454565 -0.26502198
v 0.632751107 0.77549088 -0.261446595
v 0.632761776 0.784562826 -0.262105107
v 0.630878389 0.78978312 -0.261808395
v 0.630666077 0.798547745 -0.261215001
v 0.63064307 0.807581961 -0.261687338
v 0.63232249 0.811138511 -0.261434942
v 0.632343054 0.820240259 -0.26214993
v 0.632219911 0.829139173 -0.262057543
v 0.63200748 0.837909818 -0.261463761
v 0.633679748 0.841456592 -0.261166841
v 0.633467257 0.850227237 -0.26057303
v 0.631582558 0.855451107 -0.260276139
v 0.631460607 0.864357173 -0.260190904
v 0.631385267 0.873335719 -0.26036793
v 0.633342564 0.877313316 -0.261667311
v 0.63343966 0.886561275 -0.262810677
v 0.633226991 0.895341396 -0.26221624
v 0.631340265 0.900570869 -0.261919022
v 0.631127596 0.909350932 -0.261324555
v 0.630914927 0.918131053 -0.260730118
v 0.632588983 0.921681702 -0.260432899
v 0.632376313 0.930461764 -0.259838462
v 0.632163644 0.939241886 -0.259243995
v 0.630307257 0.944519997 -0.259117484
v 0.63015008 0.953390181 -0.258835495
v 0.630165756 0.962543309 -0.259526998
v 0.632035255 0.966412723 -0.260323495
v 0.632065713 0.975598097 -0.261095524
v 0.631852806 0.984386921 -0.260500491
v 0.633528531 0.987941027 -0.260202974
v 0.633637428 0.997266173 -0.261412412
v 0.633424461 1.00605869 -0.26081714
v 0.631606519 1.01141632 -0.260921121
v 0.632071733 1.02136374 -0.264138937
v 0.63077569 1.03546572 -0.287424445
v 0.632462978 1.0390445 -0.287124872
v 0.63224864 1.04789412 -0.286525726
v 0.632341146 1.05728018 -0.287660748
v 0.632126689 1.06613338 -0.287061363
v 0.633814692 1.06971359 -0.286761642
v 0.633600235 1.07856667 -0.286162257
v 0.631697834 1.08383965 -0.285862565
v 0.631495178 1.09271407 -0.285329729
v 0.63169837 1.10232294 -0.287092447
v 0.631483853 1.11118102 -0.286492705
v 0.63317275 1.11476326 -0.286192864
v 0.63306278 1.12381327 -0.286183447
v 0.631274879 1.12930369 -0.286538959
v 0.631113589 1.13826346 -0.286240876
v 0.635243356 1.14682591 -0.289869428
g path_000000
l 9 8 7 6 5 4 3 2 1 1032 1031 1030 1029 1028 1027 1026 1025 1024 1023 1022 1021 1020 1019 1018 1017
g path_000001
l 10 11 12 13 14 15 16 17 18 19 20 21 22 23 24 25 26 27 28 29 30 31 32 33 34 35 36 37 38 39 40 41 42 43 44 45 46 47 48
g path_000002
l 49 50 51 52 53 54 55 56 57 58 59
g path_000003
l 60 61 62 63 64 65 66
g path_000004
l 67 68 69 70 71 72 73 74 75 76 77 78 79 80 81 82 83 84 85 86 87 88 89 90 91 92 93 94 95 96 97 98 99 100 101 102 103 104 105 106 107 108 109 110 111 112 113 114 115 116 117 118 119 120 121 122 123 124 125
g path_000005
l 126 127
g path_000006
l 128 129 130 131 132 133 134 135
g path_000007
l 136 137 138 139 140 141 142 143 144
g path_000008
l 145 146 147 148 149 150 151 152 153
g path_000009
l 154 155 156 157 158 159 160 161
g path_000010
l 162 163 164 165 166 167 168 169 170 171 172 173 174 175 176 177 178 179 180 181 182 183 184 185 186 187 188 189 190 191 192 193 194 195 196 197 198 199 200 201 202 203 204 205 206 207 208 209 210 211 212 213 214 215 216 217 218 219 220 221 222 223 224 225 226 227 228 229 230 231 232 233 234 235 236 237 238 239 240 241 242 243 244 245 246 247 248 249 250 251 252 253 254
g path_000011
l 255 256 257 258 259 260 261 262
g path_000012
l 263 264 265 266 267 268 269 270 271 272 273 274 275 276 277 278 279 280 281 282 283 284 285 286 287 288 289 290 291 292 293 294 295 296 297 298 299 300 301 302 303 304 305 306 307 308 309 310 311 312 313 314 315 316 317 318 319 320 321 322 323 324 325 326 327 328 329 330 331 332 333 334 335 336 337 338 339 340 341 342 343 344 345 346 347 348 349 350 351 352 353 354 355 356 357 358 359 360
g path_000013
l 361 362 363 364 365 366 367 368 369
g path_000014
l 370 371 372 373 374 375 376 377 378 379 380 381 382 383 384 385 386 387 388 389 390 391 392 393 394 395 396 397 398 399 400 401 402 403 404 405 406 407 408 409 410 411 412 413 414 415 416 417 418 419 420 421 422 423 424 425 426 427 428 429 430 431 432 433 434 435 436 437 438 439 440 441 442
g path_000015
l 443 444 445 446 447 448 449 450 451 452 453 454 455 456 457 458 459 460 461 462 463 464 465 466 467 468
g path_000016
l 469 470 471 472 473 474 475 476 477 478 479 480 481 482 483 484 485 486 487 488 489 490 491 492 493 494 495 496 497 498 499 500 501 502 503 504 505
g path_000017
l 506 507 508 509 510 511 512 513 514 515 516 517 518 519 520 521 522 523 524 525 526 527 528 529 530 531 532
g path_000018
l 533 534 535 536 537 538 539 540 541 542 543 544 545 546 547 548 549
g path_000019
l 550 551 552 553 554 555 556 557 558 559 560 561 562 563
g path_000020
l 564 565 566 567 568 569 570 571 572 573 574
g path_000021
l 575 576 577 578 579 580 581 582 583 584 585 586 587
g path_000022
l 588 589 590 591 592 593 594 595 596 597 598 599
g path_000023
l 600 601 602 603 604 605 606 607 608 609 610 611 612
g path_000024
l 613 614 615 616 617 618 619 620 621 622 623 624 625 626 627 628
g path_000025
l 629 630 631 632 633 634 635
g path_000026
l 636 637 638 639 640 641 642 643 644 645 646 647 648
g path_000027
l 649 650 651 652 653 654 655 656 657 658 659
g path_000028
l 660 661 662 663 664 665 666 667 668 669 670 671 672 673
g path_000029
l 674 675 676 677 678 679 680 681 682 683 684
g path_000030
l 685 686 687 688 689 690 691 692 693 694 695 696 697 698
g path_000031
l 699 700 701 702 703 704 705 706 707 708 709 710 711 712 713 714 715 716 717 718 719 720 721 722 723 724 725 726 727 728 729 730 731 732 733 734 735 736 737 738 739 740 741 742 743 744 745 746 747 748 749 750 751 752 753 754 755 756 757 758 759 760 761 762 763 764 765 766 767
g path_000032
l 768 769 770 771 772 773 774 775 776 777 778 779 780 781 782 783 784 785 786 787 788 789 790 791 792 793 794 795
g path_000033
l 796 797 798 799 800 801 802 803 804 805
g path_000034
l 806 807 808 809 810 811 812 813 814 815 816 817 818 819 820 821 822 823 824 825 826 827 828 829 830 831 832 833 834 835 836 837 838 839 840 841 842 843 844 845 846 847 848 849 850 851 852 853 854 855 856 857 858 859 860 861 862 863 864 865 866 867 868 869 870 871 872 873 874 875 876 877 878 879 880 881 882 883 884 885
g path_000035
l 886 887 888 889 890 891 892 893 894 895 896 897 898 899 900 901 902 903 904 905 906 907 908 909 910 911 912 913 914 915 916 917 918 919 920 921
g path_000036
l 922 923 924 925 926 927 928 929 930 931 932 933 934 935 936 937 938 939 940 941 942 943 944 945 946 947 948 949 950 951 952 953 954 955
g path_000037
l 956 957 958 959 960 961 962 963 964 965 966 967 968 969 970 971 972 973 974 975 976 977 978 979 980 981 982 983 984 985 986 987 988 989 990 991 992 993 994 995 996 997 998 999 1000 1001 1002 1003 1004 1005 1006 1007 1008 1009 1010 1011 1012 1013 1014 1015 1016
