# Fixed world centers; Z up; paths immutable
v -0.3620722 -0.55138886 1.00242925
v -0.354543895 -0.550054073 0.999120891
v -0.346801758 -0.548792183 0.999276042
v -0.337789923 -0.549297452 0.999505997
v -0.329620898 -0.548576891 0.999684989
v -0.320638657 -0.548966229 0.999911308
v -0.310886085 -0.550393522 1.00018227
v -0.303317904 -0.548732817 1.00032318
v -0.293208003 -0.55057478 1.00061309
v -0.283719808 -0.551508069 1.00086522
v -0.275508434 -0.550639749 1.00104153
v -0.266973317 -0.550185978 1.00123596
v -0.257151097 -0.551459789 1.00150478
v -0.248555779 -0.551016331 1.001701
v -0.238975286 -0.551877677 1.00195348
v -0.229608789 -0.552407146 1.00219262
v -0.220446542 -0.552621245 1.00241899
v -0.212911382 -0.550611973 1.00255036
v -0.201835945 -0.553319395 1.00288522
v -0.196767628 -0.548119664 0.999324501
v -0.187318444 -0.548581302 0.999558091
v -0.178747773 -0.54783988 0.999741614
v -0.168686554 -0.549034178 1.00000751
v -0.159007773 -0.549680769 1.00025105
v -0.151507109 -0.547432661 1.00037265
v -0.141183496 -0.548849285 1.00065005
v -0.132258818 -0.548399627 1.00084913
v -0.121317804 -0.550530136 1.00115848
v -0.113769695 -0.548226714 1.00127983
v -0.102581352 -0.550587893 1.00160074
v -0.0938129053 -0.549792409 1.00178766
v -0.0843897238 -0.549802423 1.00200963
v -0.0739025921 -0.551130414 1.0022887
v -0.0658105239 -0.549373329 1.00243628
v -0.0568218827 -0.548725426 1.0026319
v -0.0527632758 -0.547963858 0.999070108
v -0.0428182259 -0.54847002 0.999310255
v -0.0321783796 -0.549806356 0.999586165
v -0.0242315549 -0.547733486 0.999719143
v -0.0132478587 -0.549416959 1.00001121
v -0.00548447901 -0.547058702 1.00013316
v 0.00488905469 -0.547904849 1.00039124
v 0.0134863807 -0.546521187 1.00055552
v 0.0253911745 -0.549167633 1.00089157
v 0.0349658579 -0.548909783 1.00110507
v 0.0451208986 -0.54932338 1.0013479
v 0.0556392521 -0.550137818 1.00160861
v 0.0651405528 -0.549678981 1.00181568
v 0.0754579604 -0.550169587 1.00206399
v 0.0852811858 -0.550025761 1.00228596
v 0.0960107446 -0.550930142 1.00255358
v 0.107730664 -0.552971721 1.00287104
v 0.115697823 -0.550501645 1.00299501
v 0.120679937 -0.544560075 0.999227941
v 0.133322388 -0.547576785 0.999580443
v 0.142462403 -0.546416104 0.999757826
v 0.15431568 -0.548405111 1.0000689
v 0.164163664 -0.548000872 1.00027966
v 0.174632892 -0.548284531 1.00052023
v 0.185213476 -0.548657358 1.00076544
v 0.195304334 -0.548423767 1.0009855
v 0.206910983 -0.549898982 1.00127923
v 0.215441242 -0.547796428 1.00142109
v 0.227897018 -0.550158203 1.00175428
v 0.238301665 -0.550128639 1.00198615
v 0.249163732 -0.550580263 1.00223947
v 0.258896172 -0.549712658 1.00243688
v 0.271087527 -0.551584661 1.00275278
v 0.280933946 -0.550770998 1.00295401
v 0.283269733 -0.547499597 0.999091506
v 0.295056194 -0.548812747 0.999377668
v 0.305935621 -0.549068213 0.999620259
v 0.317052037 -0.549546301 0.999872983
v 0.326258749 -0.547870874 1.00003552
v 0.338862389 -0.54991138 1.00035584
v 0.34999007 -0.550278306 1.00060642
v 0.36205402 -0.551628292 1.00089943
v 0.372266471 -0.550911307 1.00110543
v 0.376872033 -0.550025403 0.997288823
v 0.37903586 -0.546506941 0.989461005
v 0.364088863 -0.530324459 0.981061697
v 0.366992056 -0.527632236 0.973293066
v 0.376595199 -0.538104713 0.965853512
v 0.375976503 -0.537489712 0.958027959
v 0.378582329 -0.534422636 0.954114854
v 0.377017319 -0.532781959 0.94625777
v 0.379049748 -0.529120445 0.93842113
v 0.377265185 -0.527243137 0.930560887
v 0.374294877 -0.518183112 0.922617733
v 0.365325123 -0.50852865 0.918535113
v 0.363087445 -0.506163239 0.910705149
v 0.37842074 -0.516855717 0.903097987
v 0.377198398 -0.515586257 0.895254195
v 0.379174888 -0.511864245 0.887413621
v 0.377436727 -0.510040164 0.879565656
v 0.37602523 -0.508567393 0.871722102
v 0.378554642 -0.505417943 0.867801905
v 0.363930643 -0.48976168 0.859946787
v 0.366734266 -0.486950785 0.852136374
v 0.377007902 -0.498001188 0.844277918
v 0.375823945 -0.496773064 0.836437643
v 0.37871173 -0.494007379 0.832512796
v 0.376936197 -0.492146432 0.824677169
v 0.37894845 -0.488462776 0.8168329
v 0.377223849 -0.486657292 0.809000134
v 0.368561029 -0.471593171 0.80134654
v 0.365952134 -0.468828857 0.797478557
v 0.363217384 -0.46594736 0.789703846
v 0.378299862 -0.476198554 0.781574607
v 0.15744783 -0.235757351 0.779690742
v 0.16597566 -0.233950526 0.775947809
v 0.166901216 -0.234942034 0.772260964
v 0.177973092 -0.241235718 0.764668822
v 0.168268919 -0.22557804 0.757740378
v 0.163458303 -0.220513135 0.754248202
v 0.171986923 -0.218690351 0.746810436
v 0.154217824 -0.19464758 0.743946552
v 0.164950356 -0.195154294 0.743735433
v 0.155316755 -0.174404413 0.740691364
v 0.188693359 -0.198413119 0.743226826
v 0.189243257 -0.19898352 0.746868253
v 0.189164594 -0.193536133 0.754286766
v 0.189688712 -0.194080308 0.761578739
v 0.190944582 -0.190027222 0.765276492
v 0.199556559 -0.188224241 0.765174448
v 0.209569484 -0.187836677 0.765028954
v 0.22050494 -0.188359693 0.764855266
v 0.226587385 -0.183892369 0.764833331
v 0.239236623 -0.186094552 0.76460731
v 0.248862356 -0.185182318 0.764475942
v 0.245505273 -0.171121433 0.761075079
v 0.249406233 -0.16441834 0.757451177
v 0.246711507 -0.156396776 0.753964484
v 0.247644171 -0.146749809 0.750455618
v 0.249697521 -0.13824749 0.746914446
v 0.252144307 -0.135428324 0.746923089
v 0.249602452 -0.122394927 0.743563294
v 0.250931978 -0.123662971 0.736203849
v 0.252153993 -0.124824353 0.728837073
v 0.250058532 -0.127938658 0.72148782
v 0.252573758 -0.130388379 0.714037836
v 0.248008296 -0.131080568 0.710460424
v 0.25077042 -0.133782193 0.702978611
v 0.247167796 -0.135413826 0.695676684
v 0.249012858 -0.137208089 0.688217521
v 0.254404634 -0.142537162 0.680534363
v 0.298208982 -0.180815443 0.674366474
v 0.301124513 -0.172968149 0.66703856
v 0.296040982 -0.167877212 0.659882605
v 0.315358698 -0.181638092 0.655044436
v 0.31336233 -0.174256444 0.64784646
v 0.315666765 -0.171157077 0.644119024
v 0.313261092 -0.168727443 0.636774182
v 0.314274669 -0.169669256 0.629180014
v 0.30214119 -0.162978128 0.622379541
v 0.312670588 -0.173322678 0.614030778
v 0.290986896 -0.151849955 0.608273685
v 0.293500125 -0.148985043 0.604545951
v 0.291010737 -0.141165867 0.597499013
v 0.283634365 -0.123282902 0.591141939
v 0.288238198 -0.122521631 0.590975285
v 0.293685883 -0.122544885 0.586999476
v 0.30882138 -0.131971374 0.578387499
v 0.298187256 -0.126842707 0.575367272
v 0.286794603 -0.110383816 0.569218278
v 0.285427481 -0.103731364 0.562152028
v 0.285982549 -0.0989937037 0.558635473
v 0.286036253 -0.093738012 0.551446736
v 0.289475828 -0.0918045714 0.547644258
v 0.286181271 -0.0833183527 0.540812135
v 0.288328767 -0.0801400244 0.537145972
v 0.288429528 -0.0749494433 0.529975176
v 0.293229461 -0.0690825135 0.522590399
v 0.290348947 -0.0662753433 0.519185424
v 0.29463923 -0.0599256456 0.511861086
v -0.235119209 0.450876296 0.572496414
v -0.231681913 0.45178771 0.578500628
v -0.225124761 0.454075336 0.578266323
v -0.180607751 0.420425743 0.576942861
v -0.193735629 0.437095255 0.581730545
v -0.192128748 0.439778537 0.587996542
v -0.192397222 0.439944535 0.594216526
v -0.192871287 0.444623262 0.597588181
v -0.192192256 0.443895817 0.603698611
v -0.192129448 0.448014408 0.610085547
v -0.193847403 0.449538559 0.616413772
v -0.192763463 0.452685148 0.622676909
v -0.191847235 0.451734781 0.628744125
v -0.191266105 0.455345422 0.635035813
v -0.19080846 0.454870701 0.638066411
v -0.191063881 0.459254861 0.64441216
v -0.190659598 0.458783209 0.650506616
v -0.19035688 0.462682426 0.653723061
v -0.190220311 0.462459803 0.659829378
v -0.128042251 0.404347509 0.661270797
v -0.128036231 0.404244542 0.667528152
v -0.122472689 0.403284043 0.673550725
v -0.112917803 0.403049558 0.673200548
v -0.106150739 0.405426413 0.673046827
v -0.0976787582 0.406246424 0.672774434
v -0.110615604 0.422409832 0.67696178
v -0.114015557 0.42542845 0.683431387
v -0.108479261 0.424568683 0.686335623
v -0.100873359 0.426162869 0.686137438
v -0.0906893685 0.425425887 0.685772836
v -0.0881901383 0.431708366 0.685906649
v -0.0905655473 0.442391276 0.686354756
v -0.086013712 0.44677949 0.686354756
v -0.0838173702 0.444923997 0.679967523
v -0.0482806973 0.421467066 0.67790097
v -0.04758057 0.420706987 0.684174299
v -0.0417042859 0.419657946 0.687107205
v -0.0334858485 0.420885116 0.686880171
v -0.0245038867 0.421454787 0.686605811
v -0.0198749751 0.425917298 0.686605811
v -0.0209285207 0.431133866 0.686817169
v -0.0221607685 0.44076246 0.687183976
v -0.027978396 0.454463899 0.684687614
v 0.0152196297 0.424967498 0.685426354
v 0.0146469204 0.434034288 0.685752511
v 0.0175371189 0.440053284 0.685862124
v 0.0215909798 0.44505173 0.685899138
v 0.0261486378 0.449610978 0.685904741
v 0.0358616933 0.44972837 0.685591161
v -0.0304979812 0.511123359 0.686728597
v 0.0802135319 0.424355388 0.686515689
v 0.0824878588 0.426702321 0.686520815
v 0.0924301893 0.426798075 0.686205029
v 0.10316772 0.42625019 0.685842335
v 0.10167551 0.436088592 0.686217606
v 0.101877257 0.444460958 0.686489761
v 0.0365767404 0.507939279 0.687541723
v 0.0335499421 0.518859923 0.684863031
v 0.0822941959 0.482158631 0.685172975
v 0.0790570676 0.493241787 0.68565464
v 0.0788531527 0.501761019 0.68595016
v 0.0818070248 0.507640421 0.686052978
v 0.0886220559 0.51032865 0.685921311
v 0.0939414501 0.514257491 0.685880661
v 0.0311342627 0.574022293 0.686848879
v 0.0391116813 0.575594962 0.686637521
v -0.0180249065 0.629968643 0.693464756
v -0.0201839991 0.631619871 0.696634233
v -0.020476101 0.631652474 0.702726662
v -0.0221417248 0.632801175 0.70888871
v -0.0212332811 0.631858826 0.714904428
v -0.0203248374 0.630916536 0.720920086
v -0.0209853835 0.631249189 0.727011025
v -0.0226479732 0.636324704 0.733241737
v -0.0271387603 0.639763415 0.739477813
v -0.0267847311 0.639271796 0.745490134
v -0.0234238692 0.640360415 0.74845624
v -0.0305126552 0.653898418 0.748916268
v -0.0125502516 0.643210411 0.751303494
v -0.0137493983 0.643966973 0.757379055
v -0.0165972933 0.650057077 0.76057148
v -0.017278308 0.658383965 0.760751843
v -0.0130264228 0.662742078 0.760757029
v -0.0110724289 0.668928087 0.760843396
v -0.00448822603 0.671428502 0.760766208
v 0.00658902386 0.670391083 0.760530949
v 0.00514589762 0.671754658 0.754566967
v 0.0201683305 0.663995802 0.748040915
v 0.0095313536 0.680105984 0.748636305
v 0.0112827942 0.68269819 0.745646298
v 0.015608917 0.679533958 0.739442527
v 0.0126651991 0.682071328 0.73354274
v 0.0117610833 0.683009148 0.727555752
v 0.0141833583 0.681339085 0.721404493
v 0.0132781472 0.682278037 0.715410233
v 0.0178094599 0.678955734 0.709123671
v 0.0170126967 0.679810166 0.703111351
v 0.0191928595 0.678331673 0.696925461
v 0.158670664 0.577273011 0.685901463
v 0.090815559 0.638282537 0.687081099
v 0.0968205482 0.637563884 0.686856329
v 0.10852541 0.636393964 0.686426163
v 0.14577347 0.615444362 0.687617481
v 0.145256922 0.623812437 0.687918127
v 0.144245997 0.632658422 0.685107648
v 0.146538541 0.634868622 0.685107648
v 0.150861591 0.639488399 0.685123265
v 0.158915177 0.641276717 0.684916854
v 0.0898179337 0.701530337 0.686231017
v 0.099951908 0.70158118 0.685889125
v 0.145502508 0.67495209 0.686526656
v 0.144937009 0.679270744 0.686694682
v 0.144092962 0.687671006 0.68701297
v 0.145504966 0.694364369 0.687197149
v 0.153214261 0.696374536 0.687009811
v 0.159074202 0.699767172 0.686931908
v 0.166400954 0.70208776 0.686768055
v 0.0880656093 0.767491579 0.685584068
v 0.0964491144 0.768845797 0.685343146
v 0.143349558 0.738255799 0.685707569
v 0.143816203 0.745503306 0.685946643
v 0.142977431 0.753674448 0.686262488
v 0.146720633 0.75851357 0.686305761
v 0.151223943 0.76280266 0.686303914
v 0.158161893 0.765348971 0.68615824
v 0.16879335 0.765273392 0.685795069
v 0.105383828 0.817999363 0.686794698
v 0.0927363709 0.830783844 0.684698641
v 0.0994156674 0.833346844 0.684557378
v 0.0282215383 0.890904248 0.686241329
v 0.0347302854 0.893412471 0.686101735
v 0.0824747309 0.866958022 0.686377168
v 0.0878738463 0.870365918 0.686311722
v 0.0997962356 0.869252205 0.685852289
v 0.104126379 0.873426676 0.685852289
v 0.100917235 0.882795334 0.686306417
v 0.0989776999 0.891254485 0.686682761
v 0.0992625505 0.894768119 0.683845758
v 0.0999740288 0.894591749 0.677899241
v 0.0905450508 0.904900432 0.672748387
v 0.0972070023 0.903888583 0.672454
v 0.102837101 0.907129705 0.672367394
v 0.110981025 0.908674538 0.672117651
v 0.121970795 0.908317745 0.671683967
v 0.122477926 0.908296287 0.665730119
v 0.122064814 0.908896089 0.659834027
v 0.182352588 0.875604093 0.652953923
v 0.187042296 0.876225054 0.649755299
v 0.187821373 0.876033783 0.64364624
v 0.187109292 0.876842976 0.637642205
v 0.169375077 0.8890661 0.632951319
v 0.171723947 0.891242921 0.629926324
v 0.173540771 0.890358448 0.62375164
v 0.172640398 0.891292393 0.617789388
v 0.169543609 0.890108883 0.611827135
v 0.183103219 0.877744555 0.604422331
v 0.18416816 0.877361417 0.598251045
v 0.184134111 0.877716124 0.592171311
v 0.185035348 0.877443552 0.586001098
v 0.185587883 0.877405286 0.579856455
v 0.18516314 0.87802285 0.573800564
v 0.167410478 0.89026016 0.569460273
v 0.173404396 0.890009999 0.566047788
v 0.17250073 0.890947342 0.56006366
v 0.172459498 0.891307712 0.553989589
v 0.169350445 0.890119493 0.548003733
v 0.183141917 0.877585888 0.540181994
v 0.184322953 0.876959503 0.536992192
v 0.184243172 0.877346158 0.530875266
v 0.183684409 0.87805438 0.52480942
v 0.18372348 0.878361583 0.518672764
v 0.183643684 0.878748775 0.512546122
v 0.169211015 0.888762295 0.508141041
v 0.17469506 0.889036894 0.501628041
v 0.173787326 0.889978468 0.495617062
v 0.172879606 0.890920043 0.489606142
v 0.169018716 0.890055478 0.486752808
v 0.169303671 0.890197635 0.480589718
v 0.182045892 0.878354907 0.472486526
v 0.183556572 0.877675056 0.466117948
v 0.183965623 0.877735078 0.459889084
v 0.18589586 0.876774788 0.453444362
v 0.186315313 0.876828611 0.447199613
v 0.167629167 0.889697254 0.443671197
v 0.173560262 0.889686346 0.436980039
v 0.173132852 0.890307665 0.430876195
v 0.172810167 0.890859067 0.424754709
v 0.168743387 0.890118659 0.421945125
v 0.183570072 0.880516171 0.413520277
v 0.18300046 0.877579868 0.407057166
v 0.183437988 0.87762171 0.400774956
v 0.183227047 0.878099144 0.394589782
v 0.227277309 0.852590203 0.381655067
v 0.229375616 0.855066001 0.378525913
v 0.233792469 0.859527469 0.378546029
v 0.237868488 0.864388466 0.375464052
v 0.235463291 0.869848013 0.373068362
v 0.228487402 0.878491402 0.368284822
v 0.250790238 0.867806792 0.35864529
v 0.248595729 0.873121738 0.35622707
v 0.25001651 0.876051903 0.353205889
v 0.248970091 0.873405933 0.346664011
v 0.251134604 0.872336209 0.339950651
v 0.251933604 0.872165203 0.33346355
v 0.248720169 0.870937109 0.327276707
v 0.248798966 0.867536485 0.320497632
v 0.249001488 0.863870561 0.316866219
v 0.187465027 0.901085258 0.324482918
v 0.18654725 0.902037263 0.31840542
v 0.169861317 0.913428307 0.315269947
v 0.173305243 0.915114641 0.308823586
v 0.174503744 0.91466713 0.302371681
v 0.173589587 0.91561538 0.296318173
v 0.169953302 0.914739311 0.290360689
v 0.165679559 0.914115667 0.287646115
v 0.183243081 0.902819812 0.27792877
v 0.177667022 0.903042257 0.275458932
v 0.168869659 0.901768804 0.273193926
v 0.159556687 0.900690436 0.274168581
v 0.157390326 0.895006537 0.270577192
v 0.184517324 0.876966655 0.261917174
v 0.208389416 0.865004599 0.251148194
v 0.220072031 0.864457309 0.252871782
v 0.227783725 0.866757274 0.252228051
v 0.232348099 0.871157527 0.252228051
v 0.232453734 0.878499866 0.2531358
v 0.230302259 0.887480795 0.251318455
v 0.231026739 0.890689552 0.251634866
v 0.223441541 0.896020174 0.246838182
v 0.249285668 0.886648178 0.239251077
v 0.239128873 0.897143483 0.238641068
v 0.24301292 0.901963174 0.23877947
v 0.246103853 0.907292843 0.239081904
v 0.249915317 0.908673823 0.235578671
v 0.249941885 0.909021795 0.229200974
v 0.25101018 0.908697486 0.222597763
v 0.250076622 0.909665883 0.216415778
v 0.251844764 0.908890665 0.209647954
v 0.251302361 0.909606934 0.203374535
v 0.25036785 0.910576284 0.197186127
v 0.249433324 0.911545694 0.19099772
v 0.21394141 0.941858172 0.196770012
v 0.211880341 0.950394154 0.198237166
v 0.21430546 0.95262599 0.195046902
v 0.223088697 0.954222739 0.194084331
v 0.232551426 0.955595851 0.189812109
v 0.244318426 0.955541193 0.185012072
v 0.257835805 0.954424083 0.179804653
v 0.26023683 0.9567132 0.176593542
v 0.26772663 0.955816567 0.172220305
v 0.281590968 0.95476222 0.163699955
v 0.283728272 0.957433164 0.15733254
v 0.292371124 0.955870509 0.152649879
v 0.298359632 0.956166267 0.145361483
v 0.298090696 0.956528664 0.142210051
v 0.302717924 0.957679212 0.135221913
v 0.304373026 0.957049012 0.128384113
v 0.312032789 0.956143081 0.123868369
v 0.312053531 0.956525922 0.117401764
v 0.318735033 0.956437826 0.10986311
v 0.318897396 0.956735671 0.103344291
v 0.32115826 0.955742419 0.0962982103
v 0.320238084 0.95670718 0.0900374055
v 0.319293559 0.957686961 0.0837826729
v 0.327876568 0.956454217 0.0756845027
v 0.326929778 0.957436323 0.0694149733
v 0.326748848 0.957948506 0.0629467443
v 0.32347548 0.956713617 0.0566798784
v 0.323018134 0.957194865 0.0535401031
v 0.324714541 0.956553042 0.0465685353
v 0.325504541 0.956468701 0.039827805
v 0.325808018 0.956683576 0.0332106426
v 0.322354913 0.955553293 0.0269795675
v 0.32222563 0.956033349 0.0204729903
v 0.322562724 0.956226826 0.0138342408
v 0.318012804 0.955770314 0.00790508743
v 0.3188169 0.955474973 0.00440599443
v 0.31330502 0.955613256 -0.00124777667
v 0.313728511 0.955750823 -0.00791918021
v 0.442204297 0.876911223 -0.0512159653
v 0.310416728 0.954930723 -0.0207487177
v 0.302040339 0.956647873 -0.0222741514
v 0.298189104 0.9557693 -0.0283763818
v 0.434811056 0.875087619 -0.0709890425
v 0.438238502 0.880604923 -0.0705795437
v 0.442431927 0.885854602 -0.0738140494
v 0.441580504 0.886796057 -0.0804041103
v 0.441259265 0.88741225 -0.0871524215
v 0.440269977 0.888438404 -0.0937035084
v 0.442518473 0.891286433 -0.100503139
v 0.442023695 0.891799688 -0.103779539
v 0.438254029 0.890513659 -0.106794335
v 0.423084885 0.892435789 -0.10706234
v 0.184194714 1.03264666 -0.0386297405
v 0.434804916 0.882029057 -0.121678382
v 0.4372226 0.884359837 -0.121678382
v 0.441562474 0.889535487 -0.124959856
v 0.443083853 0.892625391 -0.12811707
v 0.440589517 0.890762806 -0.134964824
v 0.440468401 0.891258001 -0.141802654
v 0.439002484 0.88876152 -0.148984984
v 0.439936906 0.888608634 -0.156169876
v 0.434993565 0.888243377 -0.16225192
v 0.43257305 0.885909855 -0.16225192
v 0.418599904 0.88709569 -0.162743598
v 0.441930324 0.876937509 -0.17642507
v 0.442167401 0.880841196 -0.179171041
v 0.439237595 0.879226625 -0.185928598
v 0.441425085 0.874450088 -0.194383085
v 0.440926194 0.874967575 -0.197686806
v 0.61536932 0.77556026 -0.257592201
v 0.618912995 0.781475604 -0.257065564
v 0.624940813 0.785867214 -0.25736472
v 0.606080115 0.805617273 -0.253046095
v 0.615035534 0.804183304 -0.255174816
v 0.620914221 0.808631837 -0.255432546
v 0.607079327 0.825175703 -0.252778232
v 0.616234362 0.827622175 -0.254131615
v 0.585146427 0.850415826 -0.24657087
v 0.61078769 0.84298569 -0.253413856
v 0.628416002 0.840408087 -0.257579744
v 0.599723101 0.865500391 -0.24998492
v 0.624955535 0.858457685 -0.256683528
v 0.602866113 0.879489005 -0.251272202
v 0.608298302 0.884089649 -0.251408517
v 0.602802277 0.891410053 -0.252325416
v 0.611691535 0.893989146 -0.253613114
v 0.616707802 0.898825109 -0.253613114
v 0.613551319 0.908603668 -0.254474223
v 0.626226366 0.909030378 -0.257017344
v 0.609638095 0.922614515 -0.254245281
v 0.622380495 0.923004746 -0.256818622
v 0.606782377 0.939756632 -0.253534406
v 0.621681392 0.938935637 -0.256830305
v 0.61259228 0.951906741 -0.2557033
v 0.619235218 0.955752313 -0.256260455
v 0.631063938 0.956709504 -0.258535236
v 0.621878922 0.965858638 -0.258203
v 0.626839936 0.970641315 -0.258203
v 0.627846956 0.977855682 -0.260424346
v 0.632601798 0.982744157 -0.260357618
v 0.624223411 0.995078981 -0.259456187
v 0.626691759 0.997458637 -0.259456187
v 0.631674647 1.00219285 -0.259471476
v 0.627753973 1.01200807 -0.260046482
v 0.631003857 1.0176605 -0.259490788
v 0.632960498 1.02055633 -0.262831122
v 0.633450389 1.02079499 -0.270013481
v 0.630156577 1.01937234 -0.276757061
v 0.607580304 1.0391587 -0.270985395
v 0.614606559 1.04272175 -0.271707177
v 0.616515696 1.04902303 -0.270704389
v 0.615324497 1.05356336 -0.272961825
v 0.612342536 1.0624336 -0.270313263
v 0.606201053 1.06982148 -0.274353534
v 0.616187871 1.06842887 -0.280384898
v 0.617232323 1.07538676 -0.282558084
v 0.629989207 1.07594633 -0.285238415
v 0.593944013 1.10196626 -0.271362841
v 0.594123662 1.10901475 -0.269792974
v 0.610113561 1.10761654 -0.270131826
v 0.616539121 1.111444 -0.270670652
v 0.610859931 1.11818564 -0.271383047
v 0.616088748 1.12261748 -0.271522105
v 0.611467898 1.13232732 -0.271772891
v 0.62892586 1.12751579 -0.283734649
v 0.624918342 1.13335931 -0.284995288
v 0.629736722 1.13800454 -0.284995288
v 0.626757324 1.14683259 -0.285781354
v 0.633158803 1.14740968 -0.29057467
v 0.634123743 1.14745486 -0.297778219
v 0.633136392 1.14847898 -0.304316372
v 0.629950225 1.14681172 -0.30748716
v 0.631669104 1.14647746 -0.314967155
v 0.632008076 1.1468364 -0.321974874
v 0.631019652 1.14786172 -0.328520328
v 0.632219315 1.14778972 -0.335841179
v 0.623910189 1.14515543 -0.338052213
v 0.618280649 1.14851665 -0.342934579
v 0.609265625 1.14979124 -0.344005376
v 0.590742171 1.15210509 -0.339070082
v 0.572736144 1.15447223 -0.337718606
v 0.578873396 1.14809084 -0.344221354
v 0.557137311 1.15241218 -0.341469377
v 0.541395903 1.15372276 -0.34085843
v 0.530067146 1.15254831 -0.338445783
v 0.533797264 1.14736974 -0.344076395
v 0.52856952 1.14330256 -0.347294331
v 0.505897999 1.14832103 -0.344045222
v 0.49105677 1.15256298 -0.339413911
v 0.473598957 1.15496719 -0.338027537
v 0.468439013 1.1509527 -0.341203749
v 0.463279068 1.1469382 -0.344379961
v 0.45102787 1.14992833 -0.340652823
v 0.437588871 1.1503346 -0.34068644
v 0.434785157 1.14858615 -0.343844533
v 0.422869235 1.14822197 -0.344420046
v 0.411991477 1.14732945 -0.345370442
v 0.390711308 1.15529382 -0.338117093
v 0.385631979 1.15134203 -0.341243684
v 0.380552649 1.14739025 -0.344370276
v 0.37547332 1.14343846 -0.347496897
v 0.347385287 1.15528035 -0.337500602
v 0.3311418 1.15749753 -0.336238325
v 0.327474713 1.15629423 -0.338966519
v 0.322923779 1.15190685 -0.338966519
v 0.315411597 1.14938319 -0.341074646
v 0.30995658 1.14572811 -0.343986213
v 0.310147315 1.14238989 -0.348231792
v 0.287454277 1.14835835 -0.344291925
v 0.274340928 1.14903343 -0.344117969
v 0.262310445 1.15235019 -0.340212166
v 0.237943292 1.1594404 -0.335476041
v 0.233016953 1.1556077 -0.338508487
v 0.228090614 1.15177488 -0.341540903
v 0.225856408 1.14962101 -0.341540903
v 0.22093007 1.14578819 -0.344573319
v 0.218237936 1.14410925 -0.347605735
v 0.199415222 1.14806056 -0.341739327
v 0.176383227 1.15471876 -0.337316513
v 0.173720792 1.15305841 -0.340315491
v 0.166232303 1.15078807 -0.342232466
v 0.161364689 1.14700103 -0.345228732
v 0.134738967 1.15595531 -0.339151859
v 0.132480517 1.15388274 -0.339123696
v 0.127649665 1.15012419 -0.342097342
v 0.12281882 1.14636576 -0.345070988
v 0.0992711931 1.15690923 -0.336076915
v 0.0940197781 1.15345061 -0.33883515
v 0.0892258435 1.14972079 -0.341786087
v 0.0866060629 1.14808702 -0.344736993
v 0.0580594912 1.15843308 -0.33441028
v 0.0486565493 1.15753996 -0.335343063
v 0.0460636169 1.15592301 -0.33826375
v 0.0413188078 1.15223145 -0.341184437
v 0.0365739986 1.1485399 -0.344105124
v 0.0344221257 1.1464653 -0.344105124
v 0.019031398 1.14929569 -0.342387348
v -0.00846369751 1.15962148 -0.335335284
v -0.0131510682 1.15597451 -0.338220596
v -0.015276893 1.15392518 -0.338220596
v -0.0199642647 1.15027833 -0.341105938
v -0.0225258097 1.14868081 -0.34399125
v -0.0272131804 1.14503396 -0.346876591
v -0.0468285307 1.15057075 -0.340031981
v -0.0719102919 1.15980184 -0.333765566
v -0.0744378865 1.15822554 -0.336612642
v -0.079063125 1.15462697 -0.339459717
v -0.0836883634 1.15102851 -0.342306793
v -0.0857860073 1.14900625 -0.342306793
v -0.0904112458 1.14540768 -0.345153898
v -0.0950364918 1.14180923 -0.348000973
v -0.125419483 1.15798056 -0.335073769
v -0.142536968 1.16251922 -0.332134694
v -0.147090554 1.15897644 -0.334937662
v -0.149578989 1.15742457 -0.33774063
v -0.1547378 1.15411329 -0.337264359
v -0.159751952 1.15087461 -0.33985123
v -0.160751298 1.14834809 -0.343346596
v -0.165304884 1.14480531 -0.346149564
v -0.169858471 1.14126253 -0.348952532
v -0.175891787 1.13870156 -0.351056635
v -0.207720667 1.15649831 -0.336987495
v -0.21705617 1.15622711 -0.33746025
v -0.221545488 1.1527344 -0.34022367
v -0.223581493 1.1507715 -0.34022367
v -0.22807081 1.14727879 -0.34298709
v -0.237748206 1.14729548 -0.343255699
v -0.235013455 1.14225602 -0.348513901
v -0.261875182 1.15383661 -0.337501049
v -0.275778353 1.15683365 -0.335651547
v -0.278199941 1.15532351 -0.338379234
v -0.282631218 1.15187585 -0.341106892
v -0.287062496 1.14842832 -0.343834579
v -0.291194379 1.14795721 -0.342792124
v -0.307180524 1.15253031 -0.33981654
v -0.332244515 1.16348624 -0.332298636
v -0.336613387 1.16008723 -0.334987909
v -0.338594735 1.15817714 -0.334987909
v -0.342963606 1.154778 -0.337677181
v -0.34535107 1.1532892 -0.340366423
v -0.349719942 1.14989007 -0.343055695
v -0.362309158 1.15219378 -0.338706136
v -0.366662174 1.14880705 -0.341385633
v -0.360439003 1.14118183 -0.34843421
v -0.373394012 1.14393687 -0.346744686
v -0.384656221 1.14552128 -0.34588623
v -0.40712598 1.1584034 -0.335379422
v -0.415655464 1.15811527 -0.335852534
v -0.419949979 1.15477407 -0.338496029
v -0.42189762 1.1528964 -0.338496029
v -0.426192135 1.14955521 -0.341139525
v -0.430486649 1.14621401 -0.343783051
v -0.432833523 1.14475036 -0.346426547
v -0.437128037 1.14140916 -0.349070042
v -0.460469604 1.15205622 -0.338840514
v -0.468645602 1.15494525 -0.338374853
v -0.481534868 1.15807819 -0.336409837
v -0.485765755 1.15478659 -0.339014173
v -0.489996672 1.15149486 -0.341618508
v -0.491915464 1.14964497 -0.341618508
v -0.496146351 1.14635324 -0.344222844
v -0.500377238 1.14306152 -0.346827209
v -0.51086086 1.14771557 -0.342206627
v -0.522417128 1.15003288 -0.340824217
v -0.534897149 1.15310013 -0.338907063
v -0.546700776 1.15897 -0.336290687
v -0.550867617 1.1557281 -0.338855565
v -0.555500746 1.15274405 -0.338387102
v -0.556924164 1.15066445 -0.341420472
v -0.561091006 1.14742255 -0.343985379
v -0.565257788 1.14418066 -0.346550256
v -0.573998332 1.14771318 -0.342744648
v -0.583908439 1.1489979 -0.342090756
v -0.593464971 1.15003896 -0.341608763
v -0.597597063 1.14682412 -0.344152302
v -0.600160062 1.14556324 -0.343764544
v -0.61249423 1.14887285 -0.341671675
v -0.614742935 1.14747047 -0.344204605
v -0.623071671 1.14763916 -0.344339103
v -0.628979445 1.14580071 -0.343094498
v -0.632700503 1.14221346 -0.343094498
v -0.63544035 1.13783216 -0.343655914
v -0.634971082 1.13075197 -0.343308747
v -0.638447583 1.12695003 -0.343453735
v -0.634783864 1.12055027 -0.343866825
v -0.636169434 1.11493146 -0.342456013
v -0.638828039 1.11043048 -0.343077034
v -0.640316546 1.10822737 -0.34053579
v -0.63771832 1.09928262 -0.341401637
v -0.629570067 1.08576274 -0.348219693
v -0.636635184 1.08817708 -0.342474371
v -0.637423575 1.08197677 -0.341400087
v -0.635689259 1.07371724 -0.344553143
v -0.639083028 1.06966996 -0.341987044
v -0.642476797 1.06562257 -0.339420915
v -0.644367456 1.06379998 -0.339420915
v -0.647761166 1.05975258 -0.336854815
v -0.648840129 1.05372679 -0.335612833
v -0.644410908 1.04648829 -0.339232385
v -0.645215452 1.04018617 -0.338145316
v -0.64717257 1.03486121 -0.336397529
v -0.649464846 1.02981687 -0.334457248
v -0.641308486 1.01924944 -0.340212882
v -0.649121821 1.01897311 -0.335112214
v -0.645960629 1.00918889 -0.339109927
v -0.647482932 1.00693572 -0.336511046
v -0.650920033 1.0028367 -0.333912164
v -0.629718006 0.977032423 -0.348250955
v -0.643740416 0.985799968 -0.338481247
v -0.643614233 0.978491664 -0.337915629
v -0.630442202 0.959579468 -0.347670287
v -0.633934259 0.955414951 -0.345029861
v -0.643631935 0.960438967 -0.337730259
v -0.639371693 0.949374914 -0.342389435
v -0.64286375 0.945210397 -0.339748979
v -0.646355808 0.941045821 -0.337108552
v -0.648301184 0.939170361 -0.337108552
v -0.651793242 0.935005844 -0.334468126
v -0.655285299 0.930841267 -0.33182767
v -0.658732235 0.926635206 -0.329213053
v -0.657852709 0.922155738 -0.330829471
v -0.658095598 0.914974332 -0.330046326
v -0.657705009 0.907181144 -0.329623222
v -0.644394159 0.891088605 -0.338356942
v -0.642480016 0.881782115 -0.338799894
v -0.63162744 0.864093125 -0.34727931
v -0.635196567 0.859836638 -0.344580591
v -0.644473493 0.86475724 -0.337481856
v -0.640754044 0.853663266 -0.341881871
v -0.64432323 0.849406779 -0.339183152
v -0.650665402 0.851602316 -0.333762646
v -0.649880707 0.843233466 -0.336484402
v -0.653449833 0.838976979 -0.333785683
v -0.655030668 0.836637378 -0.331086963
v -0.656452477 0.830337226 -0.332549959
v -0.640878081 0.807519615 -0.340806752
v -0.639684379 0.798548818 -0.340825528
v -0.643299222 0.794237912 -0.338092238
v -0.636701405 0.783870637 -0.343020141
v -0.644417346 0.783555329 -0.337938637
v -0.649215043 0.78039366 -0.334527791
v -0.643990099 0.77129513 -0.338671297
v -0.649121284 0.768447757 -0.33506754
v -0.651256502 0.76262939 -0.333177
v -0.655304551 0.758726835 -0.333177
v -0.656225741 0.755656481 -0.330823183
v -0.63883251 0.73020196 -0.343106866
v -0.628183007 0.711373866 -0.348530054
v -0.650312662 0.729664624 -0.334020019
v -0.630958915 0.701954484 -0.347441941
v -0.634661317 0.697539091 -0.34464246
v -0.644241393 0.703215659 -0.337304592
v -0.640426219 0.691135347 -0.341843009
v -0.644128621 0.686719954 -0.339043528
v -0.647830963 0.682304561 -0.336244076
v -0.651533365 0.677889228 -0.333444625
v -0.653595924 0.675900817 -0.333444625
v -0.657298267 0.671485424 -0.330645144
v -0.657565117 0.663475692 -0.329809517
v -0.651925087 0.653406084 -0.334218889
v -0.642855108 0.635506213 -0.338719875
v -0.646195889 0.630612552 -0.336119175
v -0.630019307 0.605010867 -0.347773343
v -0.635504484 0.606578827 -0.342734903
v -0.635909021 0.598468423 -0.344913304
v -0.639691532 0.593957484 -0.342053235
v -0.642616749 0.592818618 -0.338478625
v -0.645581245 0.587415099 -0.339193165
v -0.649363756 0.58290416 -0.336333126
v -0.653146267 0.578393221 -0.333473057
v -0.656928778 0.573882282 -0.330613017
v -0.658997536 0.571808815 -0.330635041
v -0.649630249 0.552894473 -0.335297763
v -0.647378623 0.541693807 -0.33588323
v -0.641449869 0.530769348 -0.340493709
v -0.642022729 0.522594333 -0.339460373
v -0.639289141 0.510721564 -0.340314925
v -0.637341142 0.504101336 -0.342657179
v -0.641199172 0.499500334 -0.339740008
v -0.647126496 0.497218311 -0.335640132
v -0.649355769 0.49075529 -0.336822838
v -0.651064515 0.488226295 -0.333905697
v -0.634266913 0.460213035 -0.345993638
v -0.637937307 0.455307722 -0.343176752
v -0.647828579 0.462043941 -0.335561603
v -0.623888135 0.425585479 -0.35175541
v -0.627823293 0.420892507 -0.348779976
v -0.631758392 0.416199565 -0.345804513
v -0.636985779 0.41299966 -0.34209007
v -0.63741982 0.40885374 -0.343095809
v -0.641355813 0.404159725 -0.34011969
v -0.645291805 0.39946574 -0.33714357
v -0.647484541 0.397351831 -0.33714357
v -0.651420534 0.392657816 -0.334167451
v -0.655356586 0.387963831 -0.331191301
v -0.657549262 0.385849923 -0.331191301
v -0.661485314 0.381155938 -0.328215182
v -0.65382719 0.362676769 -0.331866145
v -0.635450363 0.331227899 -0.344918549
v -0.639940321 0.331854701 -0.340338796
v -0.635847926 0.317304432 -0.345235676
v -0.63986057 0.312518984 -0.342201561
v -0.641637802 0.309888631 -0.339167476
v -0.646108687 0.30557847 -0.339167476
v -0.650121391 0.300793022 -0.336133391
v -0.654105484 0.295972675 -0.333115637
v -0.640946209 0.270136386 -0.339902371
v -0.634440184 0.257204145 -0.344917685
v -0.638503075 0.252358824 -0.341845632
v -0.642565966 0.247513518 -0.338773578
v -0.644829392 0.245331466 -0.338773578
v -0.634554267 0.222638637 -0.343903929
v -0.638645113 0.217760012 -0.340810746
v -0.64098537 0.210584149 -0.342081398
v -0.642799139 0.207899734 -0.338984936
v -0.646894276 0.203015924 -0.335888475
v -0.648760498 0.195202187 -0.337433249
v -0.653270841 0.195932731 -0.332791984
v -0.647412956 0.178261042 -0.338764489
v -0.636755466 0.154463843 -0.344114244
v -0.63859123 0.151746809 -0.340980142
v -0.638912141 0.141768411 -0.343442708
v -0.643065572 0.136815101 -0.340302169
v -0.647219062 0.131861806 -0.33716166
v -0.651372492 0.126908496 -0.334021121
v -0.645533144 0.114051633 -0.338689536
v -0.64486891 0.102754623 -0.338302791
v -0.634977937 0.0792915374 -0.343188763
v -0.635474503 0.0746007711 -0.344246417
v -0.639418721 0.069225654 -0.341214925
v -0.643630564 0.0642026961 -0.338030249
v -0.648323357 0.059678603 -0.338030249
v -0.650188804 0.0569176972 -0.334845573
v -0.654400647 0.0518947467 -0.331660867
v -0.638853371 0.0201686155 -0.343257219
v -0.644531906 0.0224906523 -0.337871104
v -0.641189396 0.00717170723 -0.3389979
v -0.635829091 -0.011120189 -0.344787925
v -0.637725294 -0.0139266215 -0.341550738
v -0.642495453 -0.0185253173 -0.341550738
v -0.646776736 -0.0236310977 -0.33831352
v -0.651058018 -0.0287368782 -0.335076332
v -0.638751507 -0.05674408 -0.34132722
v -0.633308709 -0.0699164718 -0.345820755
v -0.637640357 -0.0750823021 -0.34254548
v -0.641972005 -0.0802481249 -0.339270204
v -0.644385159 -0.0825745165 -0.339270204
v -0.648716807 -0.0877403393 -0.335994929
v -0.646881282 -0.10158626 -0.336245924
v -0.638843715 -0.124449559 -0.343626559
v -0.640779853 -0.12731503 -0.340321273
v -0.638059378 -0.142606616 -0.341070235
v -0.640108585 -0.151366666 -0.342696339
v -0.642053902 -0.154245764 -0.339375317
v -0.646446109 -0.159483746 -0.336054295
v -0.638439834 -0.182784662 -0.343444884
v -0.645148158 -0.178824544 -0.337386429
v -0.642122746 -0.194854945 -0.338301092
v -0.63633883 -0.21519269 -0.344438404
v -0.640786588 -0.220497012 -0.341075331
v -0.645234406 -0.225801334 -0.337712258
v -0.647712231 -0.228190094 -0.337712258
v -0.652159989 -0.233494416 -0.334349185
v -0.642819643 -0.259206921 -0.338871956
v -0.639199913 -0.270678878 -0.342372894
v -0.643690288 -0.276034027 -0.338977575
v -0.637410164 -0.297486514 -0.341741115
v -0.640322924 -0.305271149 -0.339243025
v -0.633945227 -0.32106787 -0.344331473
v -0.638481498 -0.326477706 -0.340901464
v -0.643535733 -0.331350267 -0.340901464
v -0.645544887 -0.334323853 -0.337471485
v -0.650081158 -0.33973369 -0.334041506
v -0.637583256 -0.371460646 -0.344098777
v -0.634824932 -0.388178945 -0.344838589
v -0.643642306 -0.380748332 -0.337490439
v -0.627438545 -0.418574393 -0.349694163
v -0.632061064 -0.424087077 -0.346198946
v -0.636683524 -0.429599762 -0.34270376
v -0.639258683 -0.432082355 -0.34270376
v -0.643881202 -0.43759504 -0.339208573
v -0.648503721 -0.443107724 -0.335713387
v -0.65107888 -0.445590317 -0.335713387
v -0.655701339 -0.451103032 -0.33221817
v -0.650436819 -0.472314596 -0.334377021
v -0.647903264 -0.489295781 -0.334967107
v -0.642115295 -0.505190492 -0.339764327
v -0.646794617 -0.510770977 -0.336226165
v -0.633474529 -0.545634866 -0.346849382
v -0.635565519 -0.548729479 -0.343279719
v -0.640286505 -0.554359674 -0.339710057
v -0.645546556 -0.559430659 -0.339710057
v -0.634686291 -0.590492666 -0.34506321
v -0.646638453 -0.577509642 -0.335839868
v -0.640665948 -0.601061344 -0.342284113
v -0.640084743 -0.615541041 -0.341743141
v -0.638974607 -0.630965412 -0.341500372
v -0.640912652 -0.634742022 -0.341917247
v -0.638158321 -0.653004766 -0.34261471
v -0.641206384 -0.661668837 -0.339986652
v -0.627839684 -0.691121995 -0.349176705
v -0.632684708 -0.69690007 -0.345513225
v -0.639107943 -0.700014293 -0.340947181
v -0.64427948 -0.705228627 -0.337097794
v -0.64507395 -0.711058438 -0.338186294
v -0.649918973 -0.716836512 -0.334522814
v -0.639516294 -0.749087274 -0.34358117
v -0.651810348 -0.734911323 -0.334093362
v -0.644272923 -0.762048066 -0.337506235
v -0.642524958 -0.7797333 -0.341629148
v -0.635561645 -0.806179941 -0.34471795
v -0.640458763 -0.804695487 -0.339438289
v -0.633963406 -0.830910921 -0.34630549
v -0.638917267 -0.836818814 -0.342559725
v -0.641346097 -0.83965379 -0.33867982
v -0.646630883 -0.84538728 -0.338813961
v -0.648128688 -0.857414901 -0.337046862
v -0.644171298 -0.879189372 -0.338397473
v -0.649154663 -0.885132432 -0.334629416
v -0.638766587 -0.911353767 -0.342164606
v -0.643781424 -0.917334378 -0.338372737
v -0.64879632 -0.923315048 -0.334580839
v -0.643336773 -0.940918684 -0.339304
v -0.638846695 -0.964199543 -0.340943754
v -0.639174104 -0.979299605 -0.343987167
v -0.641451061 -0.982566595 -0.340135336
v -0.646490514 -0.988670528 -0.336319119
v -0.634546041 -1.0264864 -0.346405178
v -0.633060515 -1.04477417 -0.346318781
v -0.641924322 -1.03593647 -0.33867234
v -0.6409778 -1.0537765 -0.342480242
v -0.646107554 -1.05989408 -0.33860153
v -0.641899347 -1.08350646 -0.340066403
v -0.638516247 -1.09801459 -0.343650013
v -0.637554467 -1.11573291 -0.343252093
v -0.637699842 -1.13144934 -0.34221518
v -0.637224853 -1.13960993 -0.335599601
v -0.637368858 -1.13882685 -0.331248552
v -0.636693001 -1.13908911 -0.323097914
v -0.636193812 -1.13901687 -0.314852685
v -0.636727452 -1.13698888 -0.306040257
v -0.635998487 -1.13735366 -0.297936887
v -0.63728565 -1.13390172 -0.28873542
v -0.635697782 -1.12815535 -0.28378585
v -0.622138262 -1.13674223 -0.283756584
v -0.616143227 -1.13154018 -0.283866227
v -0.622262597 -1.11140192 -0.274785012
v -0.611845791 -1.12169504 -0.270334005
v -0.606154084 -1.11594999 -0.270285577
v -0.602026224 -1.10731375 -0.269411057
v -0.596239388 -1.1017586 -0.269415498
v -0.59126538 -1.09518433 -0.273225009
v -0.578692734 -1.11060154 -0.282579839
v -0.621818721 -1.01622927 -0.260933161
v -0.618027031 -1.00733578 -0.259938598
v -0.61362952 -0.999566078 -0.259268314
v -0.604332209 -1.00805569 -0.258504182
v -0.597108662 -1.00534666 -0.259309113
v -0.593931556 -0.995370567 -0.258001268
v -0.582082987 -1.00045741 -0.257038653
v -0.585254908 -0.979652166 -0.256610125
v -0.58151871 -0.978511751 -0.257075787
v -0.495562792 -1.11473286 -0.298522592
v -0.48570165 -1.11560869 -0.296257049
v -0.479866058 -1.10982001 -0.296226352
v -0.467651308 -1.11472607 -0.295131207
v -0.470048964 -1.0950259 -0.295221746
v -0.465067118 -1.09571588 -0.296257049
v -0.434885055 -1.13194776 -0.308570802
v -0.429239959 -1.12524855 -0.304061562
v -0.430654824 -1.11442947 -0.297511399
v -0.419659883 -1.11691988 -0.295691103
v -0.414679348 -1.1095221 -0.295207113
v -0.408727199 -1.10378385 -0.295207113
v -0.400760412 -1.10144544 -0.296202958
v -0.373220265 -1.13197887 -0.306844264
v -0.367207974 -1.12618279 -0.306844264
v -0.3680695 -1.11643326 -0.300570101
v -0.366005778 -1.11159182 -0.295742214
v -0.353815019 -1.11571085 -0.294371605
v -0.34780395 -1.10991585 -0.294371605
v -0.341792911 -1.10412085 -0.294371605
v -0.336469859 -1.09756875 -0.298416227
v -0.313727051 -1.1191169 -0.306460381
v -0.297836304 -1.13681006 -0.308209687
v -0.298448324 -1.11934066 -0.29619211
v -0.296515137 -1.11463726 -0.295672536
v -0.290454358 -1.10879433 -0.295672536
v -0.284393549 -1.10295129 -0.295672536
v -0.277225971 -1.09888113 -0.29619211
v -0.246624827 -1.13218129 -0.307682753
v -0.241438046 -1.12478828 -0.307244986
v -0.242589667 -1.11481345 -0.300841153
v -0.236124456 -1.11692381 -0.297982335
v -0.227532044 -1.1145916 -0.294681072
v -0.221410945 -1.1086905 -0.294681072
v -0.215289846 -1.10278952 -0.294681072
v -0.207144618 -1.10004139 -0.295604467
v -0.173948899 -1.13613665 -0.307923496
v -0.176953882 -1.11563313 -0.299275786
v -0.176174462 -1.11651647 -0.295156479
v -0.168632492 -1.11268473 -0.295773894
v -0.152750343 -1.12130904 -0.295639992
v -0.148559034 -1.11228132 -0.294748098
v -0.149746984 -1.09540069 -0.295939535
v -0.118499443 -1.12744856 -0.307101101
v -0.114165738 -1.11827362 -0.301749527
v -0.112323605 -1.12075269 -0.298054874
v -0.0989135876 -1.12524545 -0.29669255
v -0.092669189 -1.1192255 -0.29669255
v -0.0883508399 -1.11033261 -0.295853168
v -0.0643947721 -1.13805354 -0.300375491
v -0.0641866848 -1.13778186 -0.291376859
v -0.0621811487 -1.13248658 -0.281812787
v -0.0540377609 -1.12919128 -0.282605588
v -0.046011664 -1.12542057 -0.278805614
v -0.0495691895 -1.11225605 -0.271451771
v -0.0407700278 -1.1172725 -0.269297898
v -0.0344893411 -1.11121762 -0.269297898
v -0.0282086581 -1.10516262 -0.269297898
v -0.023310842 -1.09710121 -0.268723547
v 0.0119690364 -1.1329689 -0.280741334
v 0.0153158475 -1.13016248 -0.280813575
v 0.0151092643 -1.11411238 -0.26898548
v 0.0219225623 -1.11629701 -0.270478845
v 0.0253632721 -1.10605431 -0.269297272
v 0.0316918492 -1.09995329 -0.269297272
v 0.0403633825 -1.09717369 -0.270249307
v 0.0436250865 -1.09449983 -0.274850905
v 0.0297931451 -1.06767845 -0.272467941
v 0.0274432749 -1.04943824 -0.268941402
v 0.0327564217 -1.04203176 -0.268548548
v 0.0390329286 -1.03598094 -0.268548548
v 0.0949810222 -1.09925306 -0.293268114
v 0.109417245 -1.10424232 -0.296532571
v 0.134573922 -1.12394559 -0.30412215
v 0.138838857 -1.11449826 -0.298599482
v 0.150621384 -1.12291932 -0.297388107
v 0.160806656 -1.12178063 -0.298875034
v 0.167043194 -1.11522496 -0.298781961
v 0.169111729 -1.1030165 -0.297032326
v 0.202175364 -1.13274848 -0.307585299
v 0.204642698 -1.12080216 -0.301300913
v 0.208585396 -1.11838567 -0.296892494
v 0.220476687 -1.11911607 -0.29431349
v 0.222583622 -1.10694778 -0.29259786
v 0.229092762 -1.1006726 -0.29259786
v 0.231680259 -1.096843 -0.29701519
v -0.446759462 -0.185538962 -0.0274464767
v -0.446182579 -0.180439904 -0.0231090579
v -0.443837106 -0.177537918 -0.0158689991
v -0.443929046 -0.171441153 -0.00771684013
v -0.437281609 -0.168655455 -0.00475822948
v -0.447195381 -0.155547947 0.00252732332
v -0.44781059 -0.148829117 0.0108007882
v -0.445502758 -0.146075353 0.0144200688
v -0.443955332 -0.136595458 0.0227685049
v -0.444338471 -0.130373389 0.0273490585
v -0.436235219 -0.129683256 0.0262068603
v -0.446327627 -0.11085251 0.0377919599
v -0.448068798 -0.0975561365 0.0401732698
v -0.442764848 -0.0987182856 0.04266968
v -0.441375554 -0.0894856825 0.0439195
v -0.440058917 -0.0801943988 0.045189701
v -0.429069668 -0.0830722079 0.0465478376
v -0.418949217 -0.0849134848 0.0447192937
v -0.417978674 -0.0752043948 0.0461025201
v -0.399395704 -0.0874791294 0.0448551215
v -0.397911668 -0.0838653371 0.0451978296
v -0.396417409 -0.0748164058 0.0463922098
v -0.375510156 -0.0897791013 0.0444073975
v -0.377187967 -0.0767862946 0.0466910414
v -0.376628906 -0.066608943 0.0481975563
v -0.340790659 -0.0996512026 0.0411888175
v -0.13128902 -0.356424034 -0.0224731397
v -0.123109072 -0.360277951 -0.0165441856
v -0.120384775 -0.357651561 -0.0165441856
v -0.115109913 -0.352187306 -0.0164862275
v -0.105601326 -0.351761281 -0.0139494035
v -0.113625526 -0.336019397 -0.00651921006
v -0.110120274 -0.334164232 0.000959362194
v -0.12661843 -0.325785488 0.0122777121
v -0.129321501 -0.328391403 0.0122777121
v -0.128081739 -0.341707289 0.0101176454
v -0.128779218 -0.352608681 0.0124448165
v -0.129674464 -0.357350826 0.0157209467
v -0.128561243 -0.358505577 0.0230926815
v -0.129752651 -0.356834829 0.0311952978
v -0.124175772 -0.357619643 0.0341502838
v -0.123305768 -0.346822768 0.0355855897
v -0.111689001 -0.354946464 0.0366524868
v -0.106249876 -0.349702835 0.0366524868
v -0.111256808 -0.337539464 0.0467665121
v -0.127670199 -0.311641753 0.0603101403
v -0.125049815 -0.320563883 0.0625112876
v -0.128321946 -0.328329682 0.0618652627
v -0.133162528 -0.334102452 0.065525353
v -0.131030604 -0.348508269 0.0632302761
v -0.129487798 -0.356216729 0.0657789707
v -0.128377587 -0.35736832 0.0731308088
v -0.130054757 -0.355104059 0.0813130736
v -0.12679483 -0.353071094 0.0849850625
v -0.116456568 -0.359679729 0.0865734145
v -0.107297421 -0.35899061 0.085476622
v -0.115756281 -0.336821109 0.0933784023
v -0.318185538 -0.0859234855 0.160205662
v -0.31856513 -0.0853765532 0.163839549
v -0.317981482 -0.0859068483 0.170718044
v -0.318969816 -0.084536247 0.178036004
v -0.318521202 -0.0849035159 0.184942409
v -0.317322344 -0.0861779973 0.191638917
v -0.318228722 -0.0849070922 0.198910043
v -0.100236528 -0.354174376 0.146436259
v -0.106210046 -0.358821869 0.142759249
v -0.111931525 -0.363675326 0.142841846
v -0.124495335 -0.360145599 0.144792497
v -0.127242863 -0.368618459 0.144066185
v -0.126500219 -0.369318575 0.151505783
v -0.128649816 -0.372500002 0.155175552
v -0.127816051 -0.373311549 0.162588283
v -0.128918707 -0.377675116 0.169797093
v -0.128148511 -0.378407657 0.177225515
v -0.129405811 -0.382581502 0.184477434
v -0.128851578 -0.383156389 0.188147515
v -0.127743125 -0.384306192 0.195487678
v -0.128789023 -0.388743132 0.202689782
v -0.127680331 -0.389893174 0.210031509
v -0.129276231 -0.393650562 0.217373222
v -0.128749862 -0.394190878 0.221050903
v -0.12800768 -0.394886523 0.22848095
v -0.129209086 -0.399132997 0.235727504
v -0.128103077 -0.400279701 0.243069857
v -0.128924906 -0.405000091 0.250231236
v -0.1284004 -0.405423313 0.257709593
v -0.124668814 -0.403864115 0.265070438
v -0.125016913 -0.397473156 0.265762329
v -0.12590839 -0.384382755 0.27096808
v -0.126019672 -0.372421116 0.272201568
v -0.125804961 -0.366685957 0.276524365
v -0.1279082 -0.352261037 0.281940609
v -0.13086848 -0.336963475 0.283771902
v -0.127822533 -0.328937471 0.288014233
v -0.124610104 -0.326934099 0.291632712
v -0.126099825 -0.3135553 0.293107927
v -0.127663851 -0.300057203 0.298309267
v -0.124706373 -0.29777956 0.301958591
v -0.118027091 -0.294315159 0.30166626
v -0.196320623 -0.189450234 0.322976053
v -0.197774142 -0.193090618 0.329932868
v -0.191880867 -0.205605239 0.331778169
v -0.191823468 -0.211073846 0.338447988
v -0.193872437 -0.214106351 0.341945946
v -0.191411823 -0.222475857 0.348144978
v -0.190994427 -0.228400245 0.354768574
v -0.190156102 -0.234931096 0.357706964
v -0.191682115 -0.23852396 0.364727199
v -0.193208128 -0.242116824 0.371747464
v -0.195264205 -0.245159864 0.375257581
v -0.200740278 -0.243950278 0.383017004
v -0.203931451 -0.245697767 0.383131087
v -0.215378612 -0.242992982 0.384310663
v -0.221060842 -0.247305185 0.384410769
v -0.231532767 -0.245714307 0.385414004
v -0.237197489 -0.250121564 0.381927073
v -0.24699159 -0.249299049 0.382814944
v -0.254268825 -0.25156787 0.38322553
v -0.255338192 -0.261351585 0.389613718
v -0.255474567 -0.266865104 0.389155179
v -0.254217267 -0.279616952 0.395130485
v -0.256263077 -0.282644749 0.398623049
v -0.260865152 -0.288174659 0.402112484
v -0.259829402 -0.295102239 0.405042082
v -0.25632745 -0.310939521 0.407062978
v -0.255873799 -0.311269075 0.414188176
v -0.256652087 -0.310034305 0.421526432
v -0.255800098 -0.305107832 0.42901814
v -0.255271375 -0.305656224 0.432519197
v -0.256644934 -0.303672224 0.439930618
v -0.255588561 -0.304767996 0.446925849
v -0.254452378 -0.300220966 0.454326689
v -0.260516465 -0.292311549 0.462450713
v -0.259399354 -0.287888169 0.466246873
v -0.258347929 -0.288978815 0.473209441
v -0.257296473 -0.290069461 0.480172038
v -0.255740911 -0.286091238 0.487441957
v -0.254690349 -0.28718096 0.494398773
v -0.203242764 -0.351750374 0.494128019
v -0.192504764 -0.370879173 0.499498308
v -0.194593757 -0.373970926 0.503064632
v -0.196144193 -0.377621293 0.510197222
v -0.19096227 -0.389936417 0.512779176
v -0.192517161 -0.393597245 0.51993227
v -0.194072038 -0.397258103 0.527085364
v -0.196167037 -0.400358737 0.530661881
v -0.19751972 -0.404277891 0.537789524
v -0.19577533 -0.412292361 0.540888011
v -0.197332695 -0.41595906 0.548052549
v -0.196488246 -0.422843903 0.551280141
v -0.189855143 -0.437054157 0.557488263
v -0.219386622 -0.404694587 0.5679003
v -0.232755601 -0.399239689 0.568836689
v -0.232173249 -0.405761242 0.572080553
v -0.251216859 -0.392843515 0.573657155
v -0.256112784 -0.398260534 0.573621988
v -0.254808605 -0.411802709 0.572875977
v -0.254771709 -0.41749543 0.579781175
v -0.255824476 -0.421911269 0.583211184
v -0.255177468 -0.422464997 0.590345681
v -0.254723042 -0.422765702 0.59749788
v -0.253690302 -0.417885691 0.604853094
v -0.253759801 -0.411720932 0.608713865
v -0.231807664 -0.428400993 0.610652149
v -0.191172048 -0.487316638 0.610060215
v -0.192745164 -0.491020411 0.617297173
v -0.19486472 -0.494157374 0.620915592
v -0.124475963 -0.598655879 0.62141341
v -0.126818165 -0.601673901 0.625152707
v -0.132306784 -0.606965244 0.625152707
v -0.157936707 -0.585830092 0.619457126
v -0.1611965 -0.587907434 0.615757525
v -0.166644946 -0.593160033 0.615757525
v -0.172093377 -0.598412633 0.615757525
v -0.0861344561 -0.720318496 0.603514612
v -0.0948528051 -0.721602619 0.603810191
v -0.100484714 -0.727032065 0.603810191
v -0.10611663 -0.732461572 0.603810191
v -0.11111217 -0.738758326 0.603748739
v -0.228309885 -0.591395974 0.618259251
v -0.235292003 -0.594411016 0.618411124
v -0.240680516 -0.599605858 0.618411124
v -0.239939779 -0.613277435 0.617823184
v -0.115090169 -0.799081087 0.609214783
v -0.273850441 -0.591109574 0.62741524
v -0.273560345 -0.598022282 0.623451531
v -0.275524914 -0.59567368 0.616265833
v -0.287507802 -0.591550291 0.616916418
v -0.295993447 -0.592276037 0.617225826
v -0.217633247 -0.715752661 0.605173767
v -0.220957935 -0.717826009 0.601428866
v -0.226476222 -0.723145962 0.601428866
v -0.228812888 -0.73299861 0.601103783
v -0.233771965 -0.738912642 0.604853511
v -0.345005542 -0.592533648 0.615540385
v -0.353939861 -0.592386842 0.615909517
v -0.36161983 -0.594014585 0.616152883
v -0.367177486 -0.59869647 0.616181374
v -0.368993551 -0.608598232 0.619469285
v -0.369773954 -0.613861263 0.619282067
v -0.350493729 -0.654708028 0.620485842
v -0.325964898 -0.704006791 0.61378777
v -0.33261174 -0.700808883 0.614186466
v -0.343745321 -0.697541595 0.614767551
v -0.349133521 -0.702736139 0.614767551
v -0.341563702 -0.721090436 0.606262505
v -0.348804295 -0.717197418 0.603012145
v -0.35700345 -0.718229949 0.603310466
v -0.362577111 -0.723171711 0.603329182
v -0.367917627 -0.728462756 0.603323042
v -0.370161921 -0.738436341 0.602984011
v -0.343453795 -0.785063088 0.607364476
v -0.351068735 -0.780294418 0.607874751
v -0.358823448 -0.782060444 0.608115375
v -0.364402652 -0.787126601 0.608128548
v -0.368924111 -0.793814719 0.608030379
v -0.37056154 -0.804674745 0.611394048
v -0.354087591 -0.843573928 0.612908542
v -0.360654473 -0.847252667 0.613016903
v -0.366164804 -0.852564931 0.613016903
v -0.368753374 -0.862445772 0.612715065
v -0.368950605 -0.868818343 0.616255999
v -0.347027481 -0.909916162 0.617583573
v -0.356018424 -0.909917772 0.617926776
v -0.36315468 -0.912811399 0.61808461
v -0.367218882 -0.920562267 0.617932856
v -0.368494123 -0.932774723 0.617497861
v -0.368530661 -0.932080925 0.625187397
v -0.384572446 -0.920086205 0.633860171
v -0.383174956 -0.92944473 0.633463323
v -0.383944571 -0.942506611 0.633006573
v -0.384267002 -0.956018925 0.636348009
v -0.381832242 -0.95209831 0.644060612
v -0.381491065 -0.951992571 0.651702523
v -0.382176787 -0.950234056 0.659425497
v -0.379469335 -0.940266788 0.659665644
v -0.367834538 -0.944598198 0.659158051
v -0.358295977 -0.945519686 0.658827782
v -0.350950807 -0.942915559 0.658681571
v -0.342068076 -0.94271946 0.658408403
v -0.335039526 -0.939566076 0.658290148
v -0.329963088 -0.933335066 0.658333778
v -0.324443758 -0.927802026 0.658340693
v -0.382128239 -0.823623538 0.667295933
v -0.381787688 -0.823863447 0.671015143
v -0.383584142 -0.82736057 0.678432584
v -0.385020375 -0.817676663 0.686219275
v -0.384736389 -0.81782943 0.689931691
v -0.387716293 -0.805784404 0.697779536
v -0.384725302 -0.803031266 0.705197155
v -0.384169489 -0.803607821 0.708877683
v -0.384198844 -0.796191275 0.716469347
v -0.382616848 -0.791284561 0.723944902
v -0.382972062 -0.783409476 0.731509626
v -0.382418662 -0.783983469 0.735174179
v -0.386348605 -0.770642936 0.74287951
v -0.388101757 -0.767399788 0.750314474
v -0.387280494 -0.761673987 0.754068673
v -0.386669338 -0.7553702 0.76148653
v -0.38602525 -0.755814135 0.768782377
v -0.387107611 -0.746946514 0.776227236
v -0.385132551 -0.743033588 0.779899418
v -0.384694308 -0.743168294 0.787177444
v -0.395596236 -0.719421446 0.794824243
v -0.395273417 -0.71938628 0.802053452
v -0.395807385 -0.718049169 0.809295416
v -0.396138102 -0.710702121 0.812963843
v -0.385901004 -0.712539971 0.820096195
v -0.385983318 -0.712157845 0.823707521
v -0.38716507 -0.703303695 0.830965102
v -0.395175695 -0.684200883 0.838247299
v -0.395689785 -0.682922184 0.845407069
v -0.397228986 -0.680101693 0.85255909
v -0.39670673 -0.673900604 0.859694481
v -0.396168441 -0.674458981 0.863259137
v -0.393466234 -0.665332854 0.866810858
v -0.387979209 -0.666590452 0.873943627
v -0.387780339 -0.666642249 0.877503335
v -0.385410279 -0.663246036 0.884612024
v -0.385149986 -0.656720459 0.891681612
v -0.385052562 -0.649973273 0.898727655
v -0.385816604 -0.648600042 0.902252078
v -0.384322554 -0.643946588 0.90929842
v -0.384642065 -0.63662523 0.916285932
v -0.385172427 -0.635605872 0.919795692
v -0.383787453 -0.63082552 0.926800966
v -0.382664144 -0.625673234 0.933784127
v -0.383143753 -0.624503851 0.940787733
v -0.384116083 -0.616522074 0.944162607
v -0.384021729 -0.61620158 0.951165497
v -0.382288605 -0.611985147 0.958121657
v -0.383684635 -0.603426754 0.961437523
v -0.384564608 -0.60168767 0.968365133
v -0.383010864 -0.597244501 0.975273848
v -0.382942796 -0.590869904 0.978620291
v -0.382959217 -0.590401947 0.985560119
v -0.382332116 -0.584640622 0.992382407
v -0.381954163 -0.572549284 0.995563626
v -0.382045567 -0.566011786 0.998856843
v -0.380580455 -0.555575132 1.00207925
v -0.373608977 -0.553298295 1.00219321
v -0.365041465 -0.553285778 1.00240445
v 0.306481957 0.929267108 0.0151489694
v 0.434506238 0.841075659 -0.018218914
v 0.418316036 0.843576729 -0.0150796827
v 0.201545924 0.97376442 0.0372824296
v 0.197673738 0.972809255 0.0345517807
v 0.379946321 0.86119169 -0.0226791445
v 0.393354416 0.856322706 -0.0223969817
v 0.398428351 0.86076951 -0.0224752929
v 0.407724828 0.862364233 -0.0203406978
v 0.304741055 0.930553854 0.0123505332
v 0.296130508 0.929758489 0.11891754
v 0.225235105 0.967181921 0.135091394
v 0.222060755 0.965968728 0.128979787
v 0.214086354 0.967611253 0.127226576
v 0.203763261 0.966985643 0.128671691
v 0.210708886 0.959151149 0.123222873
v 0.212998331 0.958061397 0.116306841
v 0.208090141 0.957952976 0.110630937
v 0.207167193 0.958910286 0.104519218
v 0.21032539 0.957263708 0.097354427
v 0.203069836 0.958654463 0.0922957808
v 0.20622234 0.957007527 0.0851140246
v 0.205298111 0.957966208 0.0789938197
v 0.19504036 0.968302429 0.0791342705
v 0.434515625 0.823380709 0.016817769
v 0.440328926 0.827648878 0.0131379301
v 0.440478384 0.83182919 0.00689492375
v 0.442406625 0.834683001 0.0036030435
v 0.440410376 0.840207219 -0.00205310504
v 0.442336529 0.84305793 -0.00534143485
v 0.311078459 0.932397902 0.0381077528
v 0.311553657 0.931905031 0.0412544049
v 0.312504023 0.93091923 0.0475477092
v 0.31345439 0.929933429 0.0538410135
v 0.314225197 0.929059923 0.0601812601
v 0.310976028 0.930701673 0.0675630644
v 0.3098768 0.9309991 0.0743740276
v 0.308671951 0.931363165 0.0812031329
v 0.307846904 0.931489944 0.0879269913
v 0.306083143 0.932205081 0.0948786139
v 0.300827354 0.935107946 0.102686688
v 0.299467981 0.931907415 0.108940266
v 0.296445787 0.933417976 0.116163641
v -0.244224474 0.578029037 0.460213095
v -0.231973961 0.558659196 0.460608274
v -0.129696965 0.461408049 0.437690526
v -0.13526459 0.462262809 0.435047269
v -0.133385882 0.460662842 0.428389221
v -0.136606604 0.459431946 0.422188371
v -0.1363554 0.45931673 0.41578573
v -0.14029552 0.458686739 0.412887067
v -0.138106525 0.456793636 0.406143278
v -0.141331136 0.45556128 0.399934918
v -0.12673758 0.442275196 0.390949935
v -0.129307196 0.440415293 0.384582072
v -0.132708058 0.439319044 0.378363639
v -0.133023649 0.439664513 0.375211328
v -0.1314753 0.438347548 0.368496358
v -0.136123672 0.438398778 0.362509817
v -0.139986917 0.437728703 0.356379151
v -0.138652936 0.43654868 0.352904201
v 0.0809625611 0.238347873 0.303749591
v 0.0795553029 0.249047875 0.30500561
v 0.0846414268 0.253756672 0.304985374
v 0.0992267355 0.249795452 0.303107828
v 0.103273176 0.255482584 0.303293914
v 0.102248743 0.256545216 0.2965101
v 0.106721461 0.261906922 0.293120801
v 0.0782800466 0.296847373 0.3031995
v 0.0807492808 0.299227834 0.3031995
v 0.0809526071 0.308240682 0.30412963
v 0.0858827829 0.312993646 0.30412963
v 0.092622377 0.316133618 0.30377543
v 0.0975557044 0.320889622 0.30377543
v 0.0749635994 0.350005358 0.309144706
v 0.0798490569 0.354715228 0.309144706
v 0.0847345144 0.359425068 0.309144706
v 0.107253395 0.348617226 0.309156209
v 0.123165302 0.339146882 0.310012072
v 0.124177314 0.338097155 0.316713601
v 0.123711489 0.342870355 0.324151069
v 0.131203368 0.336167514 0.329650283
v 0.138143107 0.329945624 0.335280955
v 0.128703356 0.342626333 0.340881735
v -0.231589109 0.656277478 0.411855698
v -0.236755893 0.652730107 0.418009728
v -0.23846741 0.650197029 0.420931637
v -0.241957709 0.645189941 0.426787049
v -0.242306992 0.641526341 0.426475406
v -0.245732442 0.636456609 0.432323277
v -0.247445166 0.633921802 0.435247213
v -0.224664643 0.605625868 0.433674932
v -0.226395741 0.603063822 0.436630249
v -0.23164618 0.599537849 0.44283694
v -0.231658533 0.595503211 0.442478478
v -0.23512128 0.590378284 0.448390007
v -0.237228677 0.588154376 0.451406896
v -0.240761742 0.583153903 0.454301566
v -0.242493108 0.5805915 0.45725733
v 0.215713561 0.625133812 0.426449656
v -0.133263454 0.879534006 0.476786554
v -0.13701351 0.879018247 0.471241921
v -0.136633381 0.878853202 0.468289584
v -0.13459751 0.877562284 0.462185711
v -0.132162169 0.875971019 0.456007332
v -0.132035643 0.876119316 0.450175315
v -0.133877113 0.87774992 0.444651037
v -0.142949194 0.888402402 0.440629363
v -0.143803269 0.889288306 0.434973717
v -0.144142076 0.889787018 0.429232955
v -0.144996315 0.890673101 0.423576176
v -0.148527116 0.889874756 0.420919836
v -0.134266764 0.879385829 0.412681699
v -0.128957853 0.875635564 0.40592593
v -0.129818782 0.876528621 0.400224835
v -0.130679727 0.877421677 0.39452371
v -0.136822611 0.87868768 0.389395535
v -0.134954363 0.877524018 0.383204013
v -0.143243551 0.887606621 0.379261196
v -0.145062834 0.889219344 0.373761475
v 0.169545829 0.656818628 0.312195271
v 0.17092897 0.660075128 0.305832297
v 0.293116003 0.572881997 0.279700965
v 0.288642973 0.576515496 0.273744702
v 0.172283709 0.671784937 0.290563315
v 0.29295361 0.59025085 0.267990589
v 0.268555939 0.61232084 0.276579231
v 0.27983129 0.612065554 0.278711081
v 0.289576143 0.613117278 0.27777037
v 0.295389622 0.617075145 0.277584702
v 0.298511088 0.623002708 0.277913749
v 0.298655897 0.631085038 0.278809369
v 0.291552067 0.640478253 0.277258366
v 0.294992 0.638290465 0.269858181
v 0.300463617 0.642633379 0.2663607
v 0.305292279 0.647288442 0.2663607
v 0.2721214 0.675037622 0.276604563
v 0.284354031 0.674136758 0.27850613
v 0.292037725 0.676677108 0.277950883
v 0.119809963 0.806979835 0.314921319
v 0.120181426 0.806414366 0.321141839
v 0.121104963 0.8054564 0.327257484
v 0.1220285 0.804498374 0.3333731
v 0.122952037 0.803540409 0.339488745
v 0.123875573 0.802582443 0.34560439
v 0.124799117 0.801624477 0.351720035
v 0.126213804 0.804089963 0.358143002
v 0.124457516 0.805186808 0.361583352
v 0.123212129 0.805770338 0.368061483
v 0.12379805 0.805052936 0.374220699
v 0.124240547 0.804437518 0.380402356
v 0.213014424 0.737149954 0.371662527
v 0.218646616 0.729088247 0.373585045
v 0.214950979 0.723618627 0.379894197
v 0.211823732 0.721802056 0.383254558
v 0.208931133 0.715908408 0.386203349
v 0.207083315 0.713173568 0.389357924
v 0.221818089 0.694500804 0.389521837
v 0.21995838 0.691748381 0.392696708
v 0.215759501 0.686740935 0.395871609
v 0.212040067 0.681236088 0.402221382
v 0.210180342 0.678483665 0.405396253
v 0.205981463 0.673476219 0.408571154
v 0.204121739 0.670723796 0.411746025
v 0.201455399 0.66458267 0.414689958
v 0.199594721 0.661828876 0.417866498
v 0.220968813 0.637794316 0.417236298
v 0.220466673 0.633991838 0.420237303
v 0.215338007 0.629460633 0.426849127
v 0.124689147 -0.252227128 0.381974488
v -0.110830821 -0.00803521276 0.423772991
v -0.195471257 0.0737158209 0.430180579
v -0.195969969 0.0742331296 0.426878124
v -0.193093464 0.0710523203 0.419606239
v -0.194757715 0.0678079724 0.412681192
v -0.194950223 0.067964986 0.405918181
v -0.198695749 0.0670124292 0.402751774
v -0.195053384 0.0629794821 0.395287871
v -0.198497906 0.0616630726 0.388656139
v -0.197815925 0.0608598553 0.38170886
v -0.202680469 0.0610967167 0.375342518
v -0.200758249 0.058930479 0.368145764
v 0.122493349 -0.289782196 0.302438229
v 0.121131472 -0.288356304 0.295002192
v 0.0454989038 -0.200136915 0.302924335
v 0.0421833247 -0.191042319 0.30037728
v 0.0368169807 -0.17976512 0.294522911
v 0.0131676933 -0.143156797 0.304091364
v 0.0184498001 -0.138064563 0.304091364
v 0.032380864 -0.142283589 0.302357048
v 0.0376795381 -0.137175366 0.302357048
v 0.0634653494 -0.15394637 0.301995546
v 0.0613439083 -0.157086134 0.305617243
v 0.0624377541 -0.158220753 0.312860638
v 0.0620119721 -0.163160011 0.319883317
v 0.0625591129 -0.163727552 0.323506504
v 0.062997438 -0.164159045 0.330876291
v 0.0608734973 -0.1510216 0.33599177
v 0.0640801564 -0.149021834 0.339603752
v 0.127452716 -0.21107462 0.335970104
v 0.125849009 -0.214850426 0.343347818
v 0.123688228 -0.218048409 0.34703666
v 0.122084521 -0.221824214 0.354414374
v 0.119923741 -0.225022197 0.358103216
v 0.1188991 -0.2294202 0.365381122
v 0.127527475 -0.244210973 0.371022254
v 0.126299471 -0.248435751 0.374566346
v 0.124129787 -0.251646936 0.378270417
v -0.0543802679 0.218999133 0.457924128
v 0.16923514 -0.00960109476 0.423831016
v 0.150926039 -0.00184503489 0.425781131
v 0.138320222 0.000373223476 0.426884204
v 0.125060394 0.00329186814 0.42808941
v 0.119847611 -0.00173354044 0.42808941
v 0.116707005 -0.00369210797 0.424551815
v 0.111494228 -0.00871751644 0.424551815
v 0.0916604027 0.000926472014 0.426778316
v 0.0775979236 0.00486492878 0.428132534
v 0.0724283084 -0.000118873482 0.428132534
v 0.0667288899 -0.00455312664 0.424624234
v 0.0615592711 -0.00953692943 0.424624234
v 0.0563896559 -0.0145207318 0.424624234
v 0.0433831923 -0.0114701167 0.425841004
v 0.178418204 -0.160678238 0.400271505
v 0.185029432 -0.162069902 0.39589116
v 0.185993686 -0.15764907 0.388629913
v 0.18814978 -0.154458001 0.384949028
v 0.17446354 -0.129723534 0.380536258
v 0.172385514 -0.127594918 0.377129942
v 0.178196773 -0.122807629 0.369561583
v 0.184242994 -0.128926888 0.361029565
v 0.1863911 -0.125747666 0.35736236
v 0.186647639 -0.120639771 0.350260079
v 0.188794747 -0.117462002 0.346594542
v 0.178204536 -0.101421066 0.341420799
v 0.173446223 -0.091313079 0.33899942
v 0.175101012 -0.0823793039 0.332187355
v 0.177232206 -0.0792250931 0.328548998
v 0.170440733 -0.0723850578 0.322320402
v 0.184804097 -0.0814466476 0.31267336
v 0.186946854 -0.0782911256 0.30902496
v 0.186792657 -0.0728252754 0.302061111
v 0.191062897 -0.0665052533 0.294770986
v 0.187343821 -0.0575468875 0.292257816
v 0.186816603 -0.0465964265 0.297129601
v 0.186670884 -0.0464802273 0.300891489
v 0.185214654 -0.0398913175 0.309130222
v 0.184874713 -0.0396134667 0.316640556
v 0.187612936 -0.0371701606 0.324068427
v 0.188497037 -0.0380690359 0.327626675
v 0.190482363 -0.040080335 0.334706903
v 0.201362133 -0.0508388653 0.340225577
v 0.187568203 -0.0321503282 0.350537479
v 0.188318625 -0.0277758557 0.358272284
v 0.185795307 -0.0202095099 0.366540968
v 0.188527584 -0.0229143463 0.369775891
v 0.189615637 -0.0240429733 0.37698099
v 0.185539559 -0.0149781602 0.385449052
v 0.185089827 -0.0146049438 0.392879009
v -0.0486694425 0.213603482 0.436814427
v 0.189313427 -0.0137278736 0.407334119
v 0.19112514 -0.0104014622 0.411134154
v -0.057021074 0.226306543 0.455318272
v 0.217797026 0.466375113 0.490483105
v 0.189930946 0.48023358 0.493345559
v 0.181578517 0.482935905 0.487435937
v 0.186041445 0.479447842 0.483538538
v 0.182645604 0.47815004 0.477000505
v 0.181658283 0.479174167 0.470462471
v 0.178756103 0.477364302 0.467193484
v 0.189750329 0.468687594 0.459024251
v 0.186887413 0.46694088 0.452383548
v 0.183875486 0.465313733 0.445761234
v 0.182883784 0.466342419 0.439194173
v 0.17996873 0.464524508 0.435910642
v 0.180328295 0.464453608 0.429145157
v 0.178190634 0.462110281 0.422384769
v 0.178820446 0.457503676 0.415198356
v 0.185969964 0.451775908 0.410738498
v 0.18254225 0.450465918 0.404139102
v 0.187842697 0.4463498 0.396547198
v 0.184407592 0.445036978 0.389933527
v 0.183408841 0.446072966 0.383319885
v 0.180473089 0.44424215 0.380013049
v 0.192752585 0.434382796 0.371195048
v 0.189301819 0.433063984 0.364551246
v 0.184571549 0.432798684 0.358126193
v 0.185856268 0.431848198 0.354498297
v 0.181898624 0.430946738 0.347941756
v 0.181401432 0.431570053 0.341208398
v 0.178451791 0.429730594 0.337885916
v 0.17965813 0.428945959 0.330841869
v -0.228974834 0.774227858 0.399539143
v -0.221715018 0.775779784 0.398982435
v -0.214499712 0.777481496 0.395494819
v -0.21493195 0.777929842 0.392632604
v -0.212614074 0.779984176 0.386707932
v -0.222328022 0.791737497 0.385981053
v -0.220564842 0.797957897 0.380578876
v -0.216797337 0.802450955 0.377730161
v -0.216841429 0.806301594 0.375209332
v -0.227610692 0.822367191 0.378069192
v -0.197075173 0.805181384 0.375980198
v -0.1859148 0.79614526 0.376817197
v -0.19950062 0.810525298 0.385641456
v -0.198998347 0.809918761 0.391412556
v -0.198136926 0.809025228 0.39711687
v -0.197996229 0.808707774 0.402950227
v -0.198677689 0.809047759 0.408925593
v -0.197817042 0.808155 0.41462481
v -0.196956381 0.807262301 0.420323998
v -0.196095735 0.806369543 0.426023215
v -0.195235074 0.805476785 0.431722432
v -0.194374427 0.804584026 0.43742165
v -0.193513781 0.803691328 0.443120867
v -0.19265312 0.802798569 0.448820084
v -0.191792473 0.801905811 0.454519302
v -0.190931812 0.801013112 0.460218489
v -0.190071166 0.800120354 0.465917706
v -0.189260691 0.799267769 0.471624523
v -0.191069379 0.800511599 0.47772184
v -0.192757145 0.801659048 0.483789146
v -0.199027613 0.810261369 0.487913638
v -0.198171705 0.809373558 0.493581414
v -0.197315812 0.808485746 0.49924916
v -0.196459904 0.807597935 0.504916906
v -0.195604011 0.806710124 0.510584652
v -0.194748104 0.805822313 0.516252458
v -0.193892196 0.804934502 0.521920204
v -0.193036303 0.80404669 0.52758795
v -0.192180395 0.803158879 0.533255696
v -0.191324502 0.802271068 0.538923442
v 0.2202245 0.46871531 0.490483105
v 0.0562978759 0.84529835 0.546159983
v 0.0523916632 0.840639889 0.549113572
v 0.0524946041 0.833242178 0.548620403
v 0.060130585 0.820387125 0.547290564
v -0.0685632601 0.909965694 0.555556834
v -0.0676158965 0.909551024 0.549674094
v -0.0753051937 0.911719739 0.547436774
v -0.0870360434 0.91318208 0.548318028
v -0.090852797 0.912569523 0.545646429
v -0.096017547 0.909289896 0.545764804
v -0.106561832 0.909958899 0.546519339
v -0.116239786 0.910024822 0.547173738
v -0.1213708 0.906763077 0.5472911
v -0.127050743 0.903913558 0.547474027
v -0.128099352 0.897627592 0.547106624
v -0.127300546 0.889945686 0.546517968
v -0.131450623 0.885944784 0.546517968
v -0.139713541 0.885157824 0.544146359
v -0.138711095 0.880964875 0.540907681
v -0.130734771 0.87519902 0.534180462
v -0.130122721 0.874980688 0.528343856
v -0.130976662 0.875866473 0.522689104
v 0.215067238 0.619627893 0.47201243
v 0.211087868 0.630966783 0.466633737
v 0.216190487 0.631180048 0.466269463
v 0.215222657 0.640230417 0.460510403
v 0.218571961 0.641755402 0.460376292
v 0.221291527 0.648045838 0.454130739
v 0.223160818 0.650812387 0.450939536
v 0.227381319 0.655845702 0.447748303
v 0.228795633 0.658946574 0.444620401
v 0.232268795 0.664525628 0.441534251
v 0.22696729 0.672529697 0.43935582
v 0.223553553 0.683097064 0.437255561
v 0.218462557 0.69498837 0.432175219
v 0.217761427 0.699580848 0.429380804
v 0.22450155 0.702723145 0.42584601
v 0.22379519 0.707308948 0.42305705
v 0.230540529 0.710457921 0.419516802
v 0.229828954 0.715037048 0.416733325
v 0.228523299 0.723935843 0.414391398
v 0.124332726 0.801821709 0.433405936
v 0.123964235 0.80553627 0.440005153
v 0.121212043 0.807191849 0.446609527
v 0.121273287 0.806849003 0.452799618
v 0.121844649 0.806143701 0.458914846
v 0.121918775 0.805791974 0.465096861
v 0.122539908 0.805051506 0.471201301
v 0.1232877 0.804221034 0.47728765
v 0.124011271 0.803407788 0.483376443
v 0.124560334 0.802718759 0.489486843
v 0.124812692 0.802240849 0.495633185
v 0.124698021 0.802024245 0.501822233
v 0.123927623 0.802274406 0.50808692
v 0.124842055 0.801325858 0.514142275
v 0.126400486 0.803804517 0.517304063
v 0.127098098 0.803010166 0.523382246
v 0.124180697 0.804784775 0.529873312
v 0.125093475 0.803837955 0.535917699
v 0.0584739931 0.847396255 0.546159983
v 0.0581908338 0.447063476 0.545709789
v 0.0539571904 0.442014515 0.548910975
v 0.0626347512 0.425924271 0.547427952
v -0.0655922368 0.528232098 0.557996988
v -0.0695345476 0.527580142 0.555059612
v -0.0704628006 0.528542995 0.548912764
v -0.0741635114 0.527685106 0.545953035
v -0.0908712521 0.53392905 0.547380149
v -0.0953975618 0.529601991 0.547382534
v -0.102094784 0.52717942 0.547640085
v -0.113058284 0.528526545 0.548400998
v -0.118010141 0.524673879 0.545352817
v -0.127611145 0.52487421 0.545962691
v -0.125660405 0.514827609 0.545193493
v -0.127789587 0.512489319 0.548283756
v -0.131940633 0.507851422 0.548243165
v -0.129389644 0.497322172 0.54117763
v -0.125253111 0.493737161 0.534433722
v -0.133029327 0.496586889 0.532000482
v -0.128899857 0.493000478 0.525238752
v -0.132732332 0.492367953 0.519192994
v -0.133009478 0.49274388 0.512978733
v -0.135730535 0.491046935 0.509913743
v -0.13665624 0.492007166 0.503783762
v -0.139840141 0.490790367 0.497653753
v -0.143024042 0.489573538 0.491523772
v -0.225681394 0.564544618 0.497122377
v -0.227037534 0.569915235 0.494601578
v -0.222914845 0.574409246 0.491607577
v -0.222538397 0.578202367 0.48884216
v -0.228849247 0.592102051 0.484371006
v -0.226674512 0.594198644 0.484371006
v -0.224818707 0.600743771 0.478709191
v -0.22399205 0.604102373 0.475896209
v -0.220092207 0.608753264 0.472947419
v -0.221087918 0.613717616 0.470417619
v -0.222167104 0.622816086 0.465233117
v -0.218278497 0.627453506 0.46229285
v -0.218865022 0.632025659 0.459717333
v -0.231390938 0.647032976 0.459045589
v -0.227680087 0.651772618 0.456148982
v -0.225969225 0.654304743 0.453228205
v -0.223648071 0.660322785 0.447566181
v 0.124764659 0.367238909 0.394928455
v 0.136724293 0.356823832 0.39640817
v 0.140797779 0.353131086 0.402586758
v 0.127198145 0.36916697 0.411912352
v 0.124613263 0.375760376 0.416080713
v 0.123840585 0.380691141 0.423337966
v 0.124032065 0.380348891 0.430067003
v 0.122627348 0.385808289 0.437384188
v 0.121366501 0.39113012 0.444656581
v 0.121863686 0.39061439 0.447948933
v 0.127547041 0.385567784 0.453872949
v 0.140194803 0.374556541 0.458854109
v 0.139483556 0.379419595 0.466041327
v 0.122005522 0.398670375 0.472099304
v 0.124800049 0.400498301 0.478746653
v 0.125791371 0.399470031 0.485311091
v 0.127952129 0.401835173 0.492034823
v 0.125863388 0.407804579 0.499284089
v 0.125635564 0.407904953 0.502648115
v 0.1334773 0.401060313 0.508362055
v 0.13941741 0.395829618 0.514334798
v 0.139224768 0.400192678 0.521330714
v 0.128413662 0.413531303 0.529524148
v 0.1263161 0.419562012 0.533356547
v 0.0658075586 0.466236562 0.54643476
v 0.0634545162 0.463968098 0.54643476
v 0.0587484427 0.459431171 0.54643476
v 0.0540423691 0.454894245 0.54643476
v 0.0616100207 -0.466257513 0.570038676
v -0.197557598 -0.170940951 0.596129715
v -0.197797716 -0.170809478 0.589202821
v -0.193459421 -0.176106274 0.581775486
v -0.201869965 -0.171632141 0.578935027
v -0.197430536 -0.177061066 0.571473539
v -0.198249817 -0.176243871 0.564588547
v -0.201813206 -0.177605718 0.557727933
v -0.196515426 -0.184069335 0.550101101
v -0.199800491 -0.185696542 0.546690643
v -0.200607046 -0.184895918 0.539784431
v -0.283858329 -0.0857817307 0.543430507
v -0.282411814 -0.0823760554 0.536776066
v -0.282337606 -0.0773397014 0.530304492
v -0.27908814 -0.0760007501 0.52680397
v -0.279642284 -0.0702262744 0.520424128
v -0.277410239 -0.0676807612 0.51706028
v -0.28198126 -0.0571787357 0.511259139
v -0.280539364 -0.0537838712 0.504625797
v -0.27859658 -0.0509085357 0.501309097
v -0.289548844 -0.027775038 0.496862233
v -0.285349369 -0.0275039673 0.496601582
v -0.274173528 -0.0302388631 0.492292225
v -0.266461223 -0.0341503136 0.484729081
v -0.265966505 -0.0347888246 0.481260836
v -0.277799815 -0.021150263 0.476303935
v -0.280640125 -0.0128032919 0.470371157
v -0.273780614 -0.0105522498 0.463296264
v -0.284097344 0.00645894324 0.46197027
v -0.254234225 -0.0227868482 0.46095106
v -0.25562793 -0.0158944018 0.46835351
v -0.254626751 -0.0169329047 0.474983245
v -0.254674554 -0.0116070658 0.482140958
v -0.253674775 -0.0126441084 0.488761395
v -0.249833718 -0.00675540604 0.488915026
v -0.240331754 -0.0124216452 0.491260916
v -0.23544319 -0.0077087828 0.491260916
v -0.225809619 -0.00837680325 0.490567565
v -0.219360694 -0.00540762534 0.490341336
v -0.209391847 -0.00638871919 0.489603668
v -0.201432884 -0.00507399812 0.489160866
v -0.185548857 -0.0125522055 0.490994424
v -0.180522934 -0.00789186358 0.490981668
v -0.174239948 -0.00462579215 0.490789086
v 0.120428659 -0.320180714 0.453221798
v 0.127221718 -0.33335939 0.455692589
v 0.125594914 -0.337189585 0.463176519
v 0.12340302 -0.340433627 0.466918498
v 0.129922777 -0.353335887 0.473310858
v 0.130686522 -0.359849036 0.480501294
v 0.128944829 -0.363617241 0.484197408
v 0.127311751 -0.367462188 0.491710216
v 0.125111401 -0.370718718 0.49546659
v 0.123478331 -0.374563664 0.502979398
v 0.121277988 -0.377820194 0.506735802
v 0.11964491 -0.38166517 0.51424855
v 0.118011832 -0.385510117 0.521761358
v 0.116324931 -0.389347643 0.525458038
v 0.1296902 -0.410195023 0.531265795
v 0.127874672 -0.413919896 0.534998
v 0.126232475 -0.41778633 0.542552769
v 0.124019839 -0.421061039 0.546330094
v 0.122377641 -0.424927473 0.553884864
v 0.120165013 -0.428202212 0.557662249
v 0.118522808 -0.432068646 0.565217018
v 0.122175723 -0.448034614 0.564271927
v 0.117707819 -0.448861539 0.560597062
v 0.10547398 -0.4465532 0.561289966
v 0.0980272815 -0.44974342 0.561485946
v 0.0923248976 -0.454948962 0.561500251
v 0.0789232552 -0.451156199 0.562321424
v 0.0702886432 -0.452888072 0.562645316
v 0.0660609305 -0.453927666 0.558977842
v 0.0638146326 -0.462994665 0.566275001
v 0.269900203 -0.178853557 0.589223802
v 0.269535035 -0.189269096 0.592530727
v 0.249248102 -0.174164176 0.586596131
v 0.24398163 -0.174182937 0.579346001
v 0.244855568 -0.17505154 0.575520694
v 0.24716568 -0.177356973 0.567804813
v 0.249029666 -0.184599444 0.559844434
v 0.25680539 -0.192445174 0.551529586
v 0.24993214 -0.190874279 0.548185587
v 0.252386242 -0.193337917 0.540387094
v 0.256404817 -0.19738844 0.532400668
v 0.2474062 -0.19364886 0.525530398
v 0.251416206 -0.197699919 0.517518401
v 0.247141004 -0.198759332 0.510125041
v 0.246427596 -0.198011398 0.502636135
v 0.240552694 -0.197448552 0.499224991
v 0.242000833 -0.198905677 0.491474479
v 0.238135934 -0.200382754 0.484033346
v 0.244663715 -0.207033813 0.475612342
v 0.235130668 -0.202731818 0.472687632
v 0.0417001396 0.000335991732 0.490968764
v 0.0560582131 -0.0041219648 0.489753217
v 0.065172337 -0.00319379382 0.489231229
v 0.0869894549 -0.0150890639 0.490629107
v 0.0921682939 -0.0100963674 0.490629107
v 0.097851485 -0.00560974097 0.49056384
v 0.103883065 -0.00146782154 0.49045378
v 0.110740945 0.00185699167 0.490237594
v 0.130366236 -0.00750404084 0.491983026
v 0.132971078 -0.0049928301 0.491983026
v 0.139562085 -0.00133429293 0.491807431
v 0.145495027 0.00298143877 0.491715997
v 0.161843032 -0.00290778745 0.490305781
v 0.167076647 0.00213770848 0.490305781
v 0.183741689 -0.00397756789 0.492496192
v -0.255551487 0.432194889 0.551021397
v -0.05458818 0.237256899 0.529533625
v 0.274703354 -0.082186006 0.496749938
v 0.271432817 -0.0843104646 0.504280448
v 0.272527903 -0.0906431898 0.507568479
v 0.270567834 -0.0940424427 0.514947593
v 0.272736013 -0.106730759 0.521562815
v 0.278008431 -0.117198452 0.52441895
v 0.275546849 -0.120126538 0.531882465
v 0.274247527 -0.124165595 0.535474956
v 0.272645354 -0.127937809 0.542845607
v 0.276368558 -0.136941373 0.545922995
v 0.274763227 -0.140720978 0.553308129
v 0.277334481 -0.148614228 0.556528151
v 0.274672598 -0.156640917 0.55624944
v 0.26142922 -0.148837373 0.564788222
v 0.258340448 -0.145805001 0.572562695
v 0.273871094 -0.166653767 0.574583888
v 0.272260755 -0.170445174 0.58199203
v 0.270091057 -0.173656359 0.585696161
v 0.205113813 -0.37722981 0.640556633
v 0.374635756 -0.574705362 0.627634346
v 0.228127331 -0.425617963 0.634162426
v 0.227549568 -0.425018668 0.630336583
v 0.226534888 -0.42397514 0.62267369
v 0.225379318 -0.42277649 0.615021586
v 0.214344919 -0.404902756 0.60844022
v 0.219958588 -0.399490863 0.60844022
v 0.208697066 -0.381371439 0.61346209
v 0.208394527 -0.380976558 0.621159673
v 0.20768106 -0.380132437 0.628881633
v 0.204935521 -0.37706688 0.636746168
v 0.132323429 -0.220110863 0.721982956
v 0.38286674 -0.499053359 0.709902227
v 0.379360497 -0.501239955 0.705952764
v 0.377493083 -0.505208075 0.697939634
v 0.373984337 -0.507396221 0.69398737
v 0.370120466 -0.509225786 0.686069548
v 0.369425952 -0.514477909 0.677967548
v 0.368737519 -0.519749761 0.66984719
v 0.376955867 -0.528664708 0.665342629
v 0.378652781 -0.536551476 0.657023251
v 0.370528877 -0.533772349 0.653344452
v 0.222572371 -0.378955156 0.655215263
v 0.221524239 -0.377872795 0.647628903
v 0.221041203 -0.377404898 0.640000582
v 0.220515519 -0.376890659 0.632372081
v 0.220177799 -0.376580864 0.624725521
v 0.220136896 -0.376593858 0.617050707
v 0.247593671 -0.394925088 0.611407936
v 0.248318464 -0.389972925 0.607711852
v 0.249972656 -0.386054605 0.600070834
v 0.248388872 -0.384393513 0.592467368
v 0.248987049 -0.385088474 0.584666908
v 0.247866541 -0.389689296 0.576753974
v 0.24539417 -0.392809421 0.572839677
v 0.239049003 -0.39167282 0.577053428
v 0.183301747 -0.342560291 0.574157298
v 0.185503602 -0.339301527 0.570398331
v 0.189658433 -0.332514286 0.562905431
v 0.170186937 -0.31143865 0.561073482
v 0.175701261 -0.306194335 0.55348587
v 0.182409391 -0.307850838 0.545471132
v 0.182732254 -0.308221877 0.541632771
v 0.187483937 -0.3021245 0.534105361
v 0.185663313 -0.300189734 0.530501783
v 0.190531418 -0.294218987 0.522961855
v 0.187561825 -0.291059256 0.519496739
v 0.18040131 -0.272265494 0.513378084
v 0.185027063 -0.271606922 0.516949594
v 0.186152652 -0.272774458 0.524403155
v 0.186387315 -0.267430335 0.532261252
v 0.187511504 -0.268596441 0.539705575
v 0.184732854 -0.26008305 0.544080019
v 0.18562825 -0.261006534 0.551532567
v 0.18675001 -0.262170106 0.558960855
v 0.190608233 -0.260695577 0.566389084
v 0.191729993 -0.261859179 0.573817372
v 0.187778324 -0.25213027 0.581980884
v 0.188897103 -0.253290743 0.589389384
v 0.187374324 -0.246163875 0.593527615
v 0.186825782 -0.24556537 0.601069868
v 0.1906652 -0.244098023 0.608461916
v 0.191781506 -0.245255947 0.615854025
v 0.19376646 -0.247328669 0.623176694
v 0.186656609 -0.234349474 0.631416917
v 0.18721284 -0.234926432 0.635100245
v 0.185580611 -0.227736309 0.642867327
v 0.184583992 -0.22667712 0.650369406
v 0.149916679 -0.201080397 0.656120121
v 0.145107687 -0.206815496 0.659756362
v 0.142388165 -0.209355414 0.659759104
v 0.130152285 -0.201776519 0.667735755
v 0.138677463 -0.216229573 0.670667589
v 0.124300905 -0.206332132 0.678738177
v 0.125996873 -0.213523746 0.685782254
v 0.124449722 -0.217280507 0.689372599
v 0.124582894 -0.217388988 0.696676195
v 0.125677317 -0.218524203 0.703923404
v 0.126771733 -0.219659433 0.711170614
v 0.12804848 -0.215568751 0.718538165
g path_000000
l 109 108 107 106 105 104 103 102 101 100 99 98 97 96 95 94 93 92 91 90 89 88 87 86 85 84 83 82 81 80 79 78 77 76 75 74 73 72 71 70 69 68 67 66 65 64 63 62 61 60 59 58 57 56 55 54 53 52 51 50 49 48 47 46 45 44 43 42 41 40 39 38 37 36 35 34 33 32 31 30 29 28 27 26 25 24 23 22 21 20 19 18 17 16 15 14 13 12 11 10 9 8 7 6 5 4 3 2 1 1366 1365 1364 1363 1362 1361 1360 1359 1358 1357 1356 1355 1354 1353 1352 1351 1350 1349 1348 1347 1346 1345 1344 1343 1342 1341 1340 1339 1338 1337 1336 1335 1334 1333 1332 1331 1330 1329 1328
g path_000001
l 110 111 112 113 114 115 116
g path_000002
l 117 118
g path_000003
l 120 121 122 123 124 125 126 127 128 129 130 131 132 133 134 135 136 137 138 139 140 141 142 143 144 145 146
g path_000004
l 147 148 149
g path_000005
l 150 151 152 153 154 155 156
g path_000006
l 157 158 159 160 161 162 163 164 165 166 167 168 169 170 171 172 173 174 175
g path_000007
l 176 177 178
g path_000008
l 180 181 182 183 184 185 186 187 188 189 190 191 192 193 194
g path_000009
l 195 196 197 198 199 200
g path_000010
l 201 202 203 204 205 206 207 208 209
g path_000011
l 210 211 212 213 214 215 216 217 218
g path_000012
l 219 220 221 222 223 224
g path_000013
l 226 227 228 229 230 231
g path_000014
l 232 233
g path_000015
l 234 235 236 237 238 239
g path_000016
l 240 241
g path_000017
l 242 243 244 245 246 247 248 249 250 251 252 253
g path_000018
l 254 255 256 257 258 259 260 261 262 263
g path_000019
l 264 265 266 267 268 269 270 271 272 273
g path_000020
l 275 276 277
g path_000021
l 278 279 280 281 282 283
g path_000022
l 284 285
g path_000023
l 286 287 288 289 290 291 292
g path_000024
l 293 294
g path_000025
l 295 296 297 298 299 300 301
g path_000026
l 302 303 304
g path_000027
l 305 306
g path_000028
l 307 308 309 310 311 312 313 314 315 316 317 318 319 320 321
g path_000029
l 322 323 324 325
g path_000030
l 326 327 328 329 330
g path_000031
l 331 332 333 334 335 336
g path_000032
l 337 338 339 340 341
g path_000033
l 342 343 344 345 346 347 348 349 350 351 352 353
g path_000034
l 354 355 356 357 358
g path_000035
l 359 360 361 362 363
g path_000036
l 364 365 366 367
g path_000037
l 368 369 370 371 372 373
g path_000038
l 374 375 376 377 378 379 380 381 382
g path_000039
l 383 384
g path_000040
l 385 386 387 388 389 390
g path_000041
l 391 392 393 394 395
g path_000042
l 397 398 399 400 401 402 403 404
g path_000043
l 405 406 407 408 409 410 411 412 413 414 415 416
g path_000044
l 417 418 419 420 421 422 423 424 425 426 427 428 429 430 431 432 433 434 435 436 437 438 439 440 441 442 443 444 445 446 447 448 449 450 451 452 453 454
g path_000045
l 456 457 458
g path_000046
l 459 460 461 462 463 464 465 466 467 468
g path_000047
l 470 471 472 473 474 475 476 477 478 479 480
g path_000048
l 481 482 483 484 485
g path_000049
l 486 487 488
g path_000050
l 489 490 491
g path_000051
l 492 493
g path_000052
l 495 496
g path_000053
l 499 500 501 502 503 504 505
g path_000054
l 506 507
g path_000055
l 508 509 510 511 512 513 514 515 516 517 518 519 520 521 522 523 524
g path_000056
l 525 526 527 528 529 530 531 532 533
g path_000057
l 534 535 536 537 538 539 540
g path_000058
l 541 542 543 544 545 546 547 548 549 550 551 552 553 554 555 556 557 558
g path_000059
l 559 560 561 562 563
g path_000060
l 564 565 566 567 568 569 570 571 572 573
g path_000061
l 574 575 576 577
g path_000062
l 578 579 580 581 582 583 584
g path_000063
l 585 586 587
g path_000064
l 588 589 590 591 592 593
g path_000065
l 595 596 597 598
g path_000066
l 599 600 601 602
g path_000067
l 603 604 605 606
g path_000068
l 607 608 609 610 611 612 613
g path_000069
l 614 615 616 617 618 619
g path_000070
l 621 622 623 624 625 626 627
g path_000071
l 629 630 631 632 633 634 635 636 637
g path_000072
l 638 639 640 641 642 643 644
g path_000073
l 645 646 647 648 649 650
g path_000074
l 652 653 654 655 656 657 658 659 660 661 662
g path_000075
l 663 664 665 666 667 668 669 670
g path_000076
l 671 672 673 674 675 676 677 678 679 680 681 682 683 684 685 686 687 688 689 690 691 692 693 694 695 696 697 698 699 700 701 702 703 704 705
g path_000077
l 706 707 708 709 710 711 712 713 714 715 716 717 718 719 720 721 722 723
g path_000078
l 725 726
g path_000079
l 727 728 729 730 731 732 733 734 735 736 737 738 739
g path_000080
l 740 741
g path_000081
l 742 743 744 745 746 747 748 749 750 751
g path_000082
l 752 753 754 755 756 757 758 759 760 761 762
g path_000083
l 766 767 768 769 770 771 772 773 774 775 776
g path_000084
l 777 778
g path_000085
l 779 780 781 782 783 784 785 786 787 788
g path_000086
l 789 790 791 792 793 794 795 796 797 798
g path_000087
l 799 800 801
g path_000088
l 802 803 804 805 806 807 808 809 810 811 812 813
g path_000089
l 815 816 817 818 819 820 821 822
g path_000090
l 823 824 825 826 827
g path_000091
l 828 829 830 831 832 833 834
g path_000092
l 836 837 838 839 840 841 842 843
g path_000093
l 844 845 846 847 848 849 850
g path_000094
l 851 852 853
g path_000095
l 854 855 856 857 858
g path_000096
l 859 860 861 862 863 864 865
g path_000097
l 866 867 868 869 870 871
g path_000098
l 872 873 874
g path_000099
l 875 876 877 878 879
g path_000100
l 880 881 882
g path_000101
l 883 884 885 886 887 888 889
g path_000102
l 890 891 892
g path_000103
l 893 894 895 896 897 898 899 900
g path_000104
l 901 902 903 904
g path_000105
l 905 906 907 908
g path_000106
l 909 910
g path_000107
l 911 912 913 914 915 916
g path_000108
l 917 918 919 920 921 922
g path_000109
l 923 924
g path_000110
l 925 926
g path_000111
l 927 928
g path_000112
l 929 930 931 932 933 934 935
g path_000113
l 936 937 938 939
g path_000114
l 940 941 942 943
g path_000115
l 944 945 946 947 948
g path_000116
l 949 950 951 952 953 954 955 956 957 958 959 960 961 962 963 964 965 966 967 968 969
g path_000117
l 970 971 972 973 974 975 976 977 978
g path_000118
l 979 980 981 982 983 984
g path_000119
l 985 986 987 988 989 990 991
g path_000120
l 992 993 994 995 996 997 998 999
g path_000121
l 1000 1001 1002 1003 1004 1005 1006
g path_000122
l 1007 1008 1009 1010 1011 1012 1013 1014
g path_000123
l 1015 1016 1017 1018 1019 1020 1021
g path_000124
l 1022 1023 1024 1025 1026 1027
g path_000125
l 1028 1029 1030 1031 1032 1033 1034 1035 1036 1037
g path_000126
l 1038 1039 1040 1041 1042 1043 1044 1045
g path_000127
l 1046 1047 1048 1049
g path_000128
l 1050 1051
g path_000129
l 1052 1053 1054 1055 1056 1057
g path_000130
l 1058 1059 1060 1061 1062 1063 1064
g path_000131
l 1065 1066 1067 1068 1069 1070 1071 1072 1073 1074 1075
g path_000132
l 1076 1077 1078 1079 1080 1081 1082 1083
g path_000133
l 1084 1085 1086
g path_000134
l 1087 1088 1089
g path_000135
l 1091 1092 1093 1094 1095 1096 1097 1098 1099 1100 1101 1102 1103 1104 1105 1106 1107 1108 1109
g path_000136
l 1110 1111 1112 1113 1114 1115 1116 1117 1118 1119 1120
g path_000137
l 1122 1123 1124 1125 1126 1127 1128
g path_000138
l 1129 1130 1131 1132 1133 1134 1135 1136 1137 1138 1139 1140 1141 1142 1143 1144 1145 1146 1147 1148 1149 1150 1151 1152 1153 1154 1155 1156 1157 1158 1159 1160 1161 1162 1163
g path_000139
l 1164 1165 1166 1167 1168 1169 1170 1171 1172 1173 1174 1175 1176 1177 1178 1179 1180 1181 1182 1183 1184 1185 1186 1187 1188 1189 1190 1191 1192 1193 1194 1195 1196 1197 1198 1199 1200 1201 1202
g path_000140
l 1204 1205 1206 1207 1208 1209 1210 1211 1212 1213 1214 1215
g path_000141
l 1216 1217 1218
g path_000142
l 1219 1220 1221 1222 1223 1224 1225 1226 1227
g path_000143
l 1229 1230 1231
g path_000144
l 1232 1233 1234
g path_000145
l 1235 1236 1237 1238
g path_000146
l 1239 1240 1241 1242 1243
g path_000147
l 1244 1245 1246 1247
g path_000148
l 1249 1250 1251 1252 1253
g path_000149
l 1254 1255 1256 1257 1258
g path_000150
l 1259 1260 1261 1262 1263 1264
g path_000151
l 1266 1267 1268 1269 1270 1271 1272 1273 1274 1275
g path_000152
l 1276 1277 1278 1279 1280 1281
g path_000153
l 1282 1283 1284 1285 1286
g path_000154
l 1287 1288 1289 1290 1291 1292 1293 1294 1295 1296 1297 1298 1299 1300 1301 1302 1303 1304 1305 1306 1307
g path_000155
l 1308 1309 1310 1311 1312 1313 1314 1315 1316 1317 1318 1319 1320 1321 1322 1323 1324 1325 1326 1327
g path_000156
l 1367 1376
g path_000157
l 1368 1369
g path_000158
l 1370 1371
g path_000159
l 1372 1373 1374 1375
g path_000160
l 1377 1409 1408 1407 1406 1405 1404 1403 1402 1401 1400 1399 1398 1397
g path_000161
l 1378 1379 1380 1381 1382 1383 1384 1385 1386 1387 1388 1389 1390
g path_000162
l 1391 1392 1393 1394 1395 1396
g path_000163
l 1410 1465 1464 1463 1462 1461 1460 1459 1458
g path_000164
l 1412 1413 1414 1415 1416 1417 1418 1419
g path_000165
l 1420 1421 1422 1423 1424 1425 1426 1427
g path_000166
l 1428 1429 1430 1431 1432 1433 1434
g path_000167
l 1435 1436 1437 1438 1439 1440
g path_000168
l 1441 1442 1443
g path_000169
l 1444 1445 1446 1447 1448 1449 1450
g path_000170
l 1451 1452 1453 1454 1455 1456 1457
g path_000171
l 1466 1535 1534 1533
g path_000172
l 1467 1468 1469 1470 1471 1472 1473 1474 1475 1476 1477 1478
g path_000173
l 1479 1480 1481 1482 1483 1484 1485 1486
g path_000174
l 1487 1488
g path_000175
l 1489 1490
g path_000176
l 1493 1494 1495 1496 1497 1498 1499 1500 1501 1502
g path_000177
l 1503 1504 1505
g path_000178
l 1506 1507 1508 1509 1510 1511 1512 1513 1514 1515 1516 1517
g path_000179
l 1518 1519 1520 1521 1522 1523
g path_000180
l 1524 1525 1526 1527 1528 1529 1530 1531 1532
g path_000181
l 1536 1574 1573 1572 1571 1570 1569 1568 1567 1566
g path_000182
l 1538 1539 1540 1541 1542 1543 1544 1545 1546 1547 1548
g path_000183
l 1549 1550
g path_000184
l 1551 1552 1553
g path_000185
l 1554 1555 1556 1557
g path_000186
l 1558 1559 1560 1561 1562 1563 1564 1565
g path_000187
l 1575 1629
g path_000188
l 1576 1577 1578 1579 1580 1581 1582
g path_000189
l 1583 1584 1585 1586 1587 1588 1589
g path_000190
l 1590 1591 1592 1593
g path_000191
l 1594 1595 1596 1597 1598 1599 1600 1601 1602 1603 1604 1605 1606 1607 1608 1609 1610 1611 1612 1613 1614 1615 1616 1617 1618
g path_000192
l 1619 1620 1621 1622 1623 1624 1625
g path_000193
l 1627 1628
g path_000194
l 1630 1699
g path_000195
l 1631 1632 1633 1634 1635 1636 1637 1638 1639 1640 1641 1642 1643 1644 1645 1646 1647 1648 1649 1650 1651 1652 1653 1654 1655 1656 1657 1658
g path_000196
l 1659 1660 1661 1662 1663 1664 1665 1666 1667
g path_000197
l 1669 1670
g path_000198
l 1671 1672 1673 1674 1675 1676 1677 1678 1679 1680 1681 1682 1683 1684 1685 1686 1687 1688 1689 1690 1691 1692 1693 1694 1695 1696 1697 1698
g path_000199
l 1703 1702 1701 1700 1759
g path_000200
l 1704 1705 1706 1707 1708 1709 1710 1711 1712 1713 1714 1715 1716 1717 1718 1719 1720 1721
g path_000201
l 1722 1723 1724 1725 1726 1727 1728 1729 1730 1731 1732 1733 1734 1735 1736 1737 1738 1739 1740
g path_000202
l 1741 1742 1743 1744 1745 1746 1747 1748 1749 1750 1751 1752 1753 1754 1755 1756 1757 1758
g path_000203
l 1762 1761 1760 1830 1829 1828 1827
g path_000204
l 1763 1764 1765 1766 1767 1768 1769 1770 1771 1772 1773 1774 1775 1776 1777 1778 1779 1780 1781 1782 1783 1784 1785
g path_000205
l 1786 1787 1788 1789 1790 1791 1792 1793 1794 1795 1796 1797 1798
g path_000206
l 1799 1800 1801 1802
g path_000207
l 1803 1804 1805
g path_000208
l 1806 1807 1808 1809 1810 1811 1812 1813 1814 1815
g path_000209
l 1816 1817 1818 1819 1820 1821 1822 1823 1824 1825 1826
g path_000210
l 1831 1904 1903 1902 1901 1900 1899 1898 1897 1896 1895 1894 1893 1892 1891 1890 1889
g path_000211
l 1832 1833 1834 1835 1836 1837 1838 1839 1840 1841
g path_000212
l 1842 1843 1844 1845 1846 1847 1848 1849 1850
g path_000213
l 1851 1852 1853 1854 1855 1856 1857 1858 1859
g path_000214
l 1860 1861 1862 1863 1864 1865 1866 1867 1868 1869 1870 1871 1872 1873 1874
g path_000215
l 1875 1876 1877 1878 1879 1880 1881 1882 1883 1884 1885 1886 1887 1888
g path_000216
l 1906 1905 1959 1958 1957
g path_000217
l 1907 1908 1909 1910 1911 1912 1913 1914 1915 1916 1917 1918 1919 1920 1921 1922 1923 1924
g path_000218
l 1925 1926 1927
g path_000219
l 1928 1929 1930 1931 1932
g path_000220
l 1933 1934 1935 1936 1937 1938 1939
g path_000221
l 1942 1943 1944 1945 1946 1947 1948 1949 1950 1951 1952 1953 1954 1955 1956
g path_000222
l 1960 1971 1970 1969 1968 1967 1966 1965 1964 1963 1962
g path_000223
l 1972 2040 2039 2038 2037 2036 2035 2034 2033 2032 2031 2030 2029
g path_000224
l 1973 1974 1975 1976 1977 1978 1979 1980 1981 1982
g path_000225
l 1983 1984 1985 1986 1987 1988
g path_000226
l 1989 1990 1991 1992 1993 1994 1995 1996
g path_000227
l 1997 1998 1999
g path_000228
l 2000 2001 2002 2003 2004 2005 2006 2007 2008 2009 2010 2011 2012 2013 2014 2015 2016 2017 2018 2019 2020 2021 2022 2023 2024 2025 2026 2027 2028
