# Fixed world centers; Z up; paths immutable
v 0.378218532 -0.95366472 0.657916725
v 0.378733367 -0.944932222 0.658186257
v 0.37962988 -0.937246561 0.656924248
v 0.376999587 -0.929692686 0.657088339
v 0.379140556 -0.925602853 0.656024992
v 0.379865587 -0.917473495 0.655447543
v 0.377323478 -0.910170913 0.655270219
v 0.379460365 -0.906080782 0.654215157
v 0.376484811 -0.897630453 0.6557886
v 0.37704286 -0.889091194 0.655882061
v 0.37814799 -0.882009089 0.653775752
v 0.379188538 -0.874757409 0.651928604
v 0.378160834 -0.871758044 0.650875509
v 0.379265875 -0.864676476 0.648769438
v 0.380366236 -0.857582748 0.646682084
v 0.378664374 -0.852831066 0.648338616
v 0.376965761 -0.830022693 0.680293143
v 0.370415419 -0.794829428 0.725950778
v 0.372784704 -0.791969121 0.728754222
v 0.378545374 -0.78887099 0.730292916
v 0.377132982 -0.767881095 0.759681165
v 0.375776589 -0.746923149 0.783608079
v 0.377090782 -0.733254135 0.801730812
v 0.374584287 -0.710493565 0.834112823
v 0.373652041 -0.699545383 0.844270766
v 0.377730042 -0.693095565 0.851210058
v 0.374440521 -0.669187903 0.885593534
v 0.374166846 -0.652765751 0.908277094
v 0.375870436 -0.640669048 0.918926179
v 0.374254942 -0.621559739 0.945979834
v 0.378652483 -0.616567314 0.950775623
v 0.375495791 -0.593804359 0.978519857
v 0.375927925 -0.58740133 0.987141132
v 0.379359752 -0.58051306 0.995014668
v 0.377217859 -0.574472368 0.994274557
v 0.380744904 -0.566635251 0.993339896
v 0.379921347 -0.556338668 0.997915268
v 0.378264934 -0.552025557 0.999649942
v 0.377918214 -0.549982607 0.992503107
v 0.377320558 -0.5473786 0.98622781
v 0.376890719 -0.545142353 0.979320586
v 0.379148901 -0.541651964 0.972848594
v 0.378216743 -0.53828764 0.967717469
v 0.378193647 -0.536921084 0.959269047
v 0.377798945 -0.534731209 0.952133477
v 0.37620756 -0.529906511 0.949334025
v 0.408782512 -0.592632055 0.832239449
v 0.411728203 -0.59162271 0.832239449
v 0.418954849 -0.593214989 0.831861198
v 0.426484555 -0.595444441 0.830423236
v 0.430559009 -0.588784754 0.832514882
v 0.429023713 -0.584762096 0.833586872
v 0.430367589 -0.578829408 0.830506802
v 0.42966795 -0.575807691 0.824207067
v 0.42353788 -0.576580882 0.82060349
v 0.419920415 -0.576170504 0.823004603
v 0.413061261 -0.575392485 0.822021663
v 0.406543672 -0.576072037 0.824286938
v 0.377966613 -0.52048111 0.914242685
v 0.37629059 -0.515454412 0.911661327
v 0.376709878 -0.514989316 0.901305795
v 0.375806808 -0.511639237 0.895817816
v 0.375022829 -0.508544683 0.88986367
v 0.378019452 -0.506410301 0.880522788
v 0.378039867 -0.505034804 0.87151593
v 0.377368003 -0.502157629 0.865062892
v 0.37732172 -0.50062567 0.85622859
v 0.376594663 -0.497619599 0.849921227
v 0.375264376 -0.493309975 0.845870972
v 0.375530541 -0.492433846 0.835745633
v 0.374826074 -0.489462793 0.829267085
v 0.376279175 -0.483847439 0.825675726
v 0.376948029 -0.483792812 0.813923955
v 0.376494229 -0.481331378 0.806411326
v 0.376432776 -0.47970134 0.79735744
v 0.375308901 -0.475799859 0.792353451
v 0.375372559 -0.474424154 0.782740712
v 0.379336387 -0.47401765 0.769449949
v 0.379355699 -0.47328651 0.764659286
v 0.375379533 -0.471394032 0.763840854
v 0.379285634 -0.478155732 0.739096105
v 0.378951877 -0.476673782 0.735605955
v 0.634145796 -1.02614141 -0.289857566
v 0.633507192 -1.01291585 -0.284526259
v 0.628623962 -1.00050676 -0.278109133
v 0.631582975 -0.995980799 -0.280544132
v 0.632158875 -0.985393584 -0.279998124
v 0.629581213 -0.977870584 -0.282639414
v 0.632255852 -0.972751021 -0.283960074
v 0.63364172 -0.963869989 -0.286601365
v 0.630244851 -0.954651773 -0.286010712
v 0.630612254 -0.943683624 -0.284638613
v 0.633282244 -0.938573062 -0.285956949
v 0.633666515 -0.927672505 -0.284665793
v 0.629243135 -0.916400194 -0.279993981
v 0.63282311 -0.913160741 -0.284917861
v 0.633046925 -0.901982069 -0.28300032
v 0.630446434 -0.8944242 -0.285491228
v 0.633108437 -0.889328957 -0.2868056
v 0.634487689 -0.880490005 -0.289434344
v 0.62951535 -0.868217945 -0.282568246
v 0.630532146 -0.858689189 -0.283774614
v 0.633547306 -0.854315877 -0.286502302
v 0.629314423 -0.843558252 -0.2825225
v 0.630667686 -0.834713697 -0.285059869
v 0.632523775 -0.828092158 -0.283239543
v 0.633896589 -0.819294631 -0.285855979
v 0.631343126 -0.811842442 -0.288472414
v 0.631173313 -0.800083876 -0.285009354
v 0.633275092 -0.793981373 -0.284177214
v 0.630726755 -0.786544025 -0.286788434
v 0.63137114 -0.77638793 -0.286539227
v 0.629536629 -0.762883186 -0.270236343
v 0.633354962 -0.751443088 -0.260933399
v 0.629876077 -0.742289245 -0.259800255
v 0.632309496 -0.736920774 -0.26035738
v 0.632975757 -0.726939023 -0.260239959
v 0.630408883 -0.719492972 -0.262661457
v 0.634266436 -0.70694375 -0.259852827
v 0.631777823 -0.694050848 -0.235085905
v 0.632721782 -0.684688449 -0.236085519
v 0.632904947 -0.673968434 -0.23413074
v 0.631413877 -0.669886589 -0.23447898
v 0.631791592 -0.659542322 -0.233280569
v 0.633135259 -0.650931299 -0.235841557
v 0.634115219 -0.641679049 -0.236989617
v 0.632335126 -0.637098253 -0.236204803
v 0.632809222 -0.626974046 -0.235387594
v 0.633891761 -0.617926955 -0.236938477
v 0.63206917 -0.613286436 -0.235978037
v 0.632549644 -0.603210449 -0.235189229
v 0.6338889 -0.594627857 -0.237741753
v 0.630322874 -0.585514009 -0.23610498
v 0.632905066 -0.580571592 -0.237379923
v 0.633585632 -0.570883155 -0.237375319
v 0.629400432 -0.568549931 -0.248240247
v 0.630307555 -0.568571508 -0.257953674
v 0.63166976 -0.560001016 -0.260589391
v 0.631782711 -0.549333811 -0.258336663
v 0.630418956 -0.54549849 -0.259157479
v 0.631759763 -0.536905766 -0.261713028
v 0.632401705 -0.527155638 -0.261532992
v 0.632832706 -0.517072916 -0.260531545
v 0.631587565 -0.513439119 -0.261807352
v 0.633230329 -0.505356193 -0.265548944
v 0.63013804 -0.506285131 -0.274629056
v 0.62956208 -0.502142906 -0.284762889
v 0.629302263 -0.490920514 -0.280998319
v 0.629942358 -0.481185257 -0.280789167
v 0.632530987 -0.476230472 -0.282067329
v 0.630036235 -0.468949616 -0.284623593
v 0.631377459 -0.460354388 -0.287179887
v 0.633966088 -0.455399603 -0.288458019
v 0.630104005 -0.445956111 -0.285619199
v 0.630154192 -0.435346216 -0.283088416
v 0.632809579 -0.430518687 -0.284651995
v 0.627734959 -0.419222981 -0.276996702
v 0.629069567 -0.41067028 -0.27954036
v 0.630404174 -0.40211761 -0.282083988
v 0.632979989 -0.397187352 -0.283355802
v 0.630497575 -0.389942527 -0.285899431
v 0.631832182 -0.381389856 -0.288443059
v 0.634407997 -0.376459599 -0.289714873
v 0.630303502 -0.36677295 -0.285859078
v 0.629767358 -0.355439544 -0.281031638
v 0.629074454 -0.343910903 -0.275596082
v 0.629720271 -0.334397733 -0.275442153
v 0.628486454 -0.330796808 -0.276706427
v 0.629813135 -0.322294801 -0.279234976
v 0.632373631 -0.31739375 -0.28049925
v 0.629905999 -0.31019187 -0.283027828
v 0.631232679 -0.301689893 -0.285556376
v 0.633793175 -0.296788812 -0.28682065
v 0.629726946 -0.287301183 -0.283043414
v 0.630372941 -0.277848661 -0.282893032
v 0.631254733 -0.268741965 -0.283674806
v 0.632492602 -0.260142595 -0.285860658
v 0.630578399 -0.255595356 -0.284426033
v 0.630841315 -0.245650962 -0.282772183
v 0.633390725 -0.240771234 -0.284030944
v 0.62999624 -0.232309997 -0.282851487
v 0.631315947 -0.223852605 -0.285366774
v 0.632635713 -0.215395212 -0.28788206
v 0.63230598 -0.204715639 -0.283905745
v 0.629490614 -0.199000105 -0.278894514
v 0.630797684 -0.19055751 -0.281368345
v 0.632113278 -0.182126403 -0.283875823
v 0.630889773 -0.178555489 -0.285129547
v 0.632205367 -0.170124367 -0.287637025
v 0.632814944 -0.16077216 -0.287364602
v 0.633383274 -0.151380301 -0.28693369
v 0.629380047 -0.144218221 -0.27722615
v 0.630690336 -0.135821238 -0.279723465
v 0.632000625 -0.12742427 -0.282220781
v 0.630782008 -0.12386781 -0.283469439
v 0.632092357 -0.115470842 -0.285966784
v 0.633402646 -0.107073866 -0.288464099
v 0.630114198 -0.100929111 -0.281554013
v 0.630294383 -0.0911497027 -0.279604971
v 0.631600678 -0.0827784315 -0.282094657
v 0.632906973 -0.0744071677 -0.284584343
v 0.631692111 -0.0708615929 -0.285829157
v 0.632998407 -0.0624903254 -0.288318843
v 0.632733345 -0.0522323102 -0.284625649
v 0.631520271 -0.0486920625 -0.285868615
v 0.6328246 -0.0403333716 -0.288354546
v 0.632538497 -0.0300983898 -0.284581512
v 0.633840859 -0.021752404 -0.287063688
v 0.632256269 -0.0177812893 -0.286834002
v 0.633071601 -0.00887451135 -0.287400335
v 0.628477335 0.00411470095 -0.260729849
v 0.630461991 0.00947253592 -0.259963244
v 0.63110894 0.0184827857 -0.259899408
v 0.633600652 0.0232520569 -0.261129677
v 0.630167544 0.0314193331 -0.259545445
v 0.631457329 0.0396845341 -0.262003601
v 0.631935477 0.0488463752 -0.261284024
v 0.632373869 0.0580367371 -0.260412902
v 0.627958059 0.0703047067 -0.234692916
v 0.629858673 0.0756447539 -0.233697638
v 0.632221758 0.0804800019 -0.234509796
v 0.632688046 0.0895372704 -0.233790308
v 0.628612876 0.0982740521 -0.229602247
v 0.629888177 0.106446706 -0.23203285
v 0.632349491 0.111157909 -0.233248159
v 0.633624792 0.119330563 -0.235678762
v 0.628431618 0.129162878 -0.227119207
v 0.630886316 0.133861333 -0.228331223
v 0.63215816 0.142011881 -0.230755255
v 0.62765938 0.151072666 -0.224867597
v 0.628145218 0.159991443 -0.224236146
v 0.630593061 0.164676756 -0.225444764
v 0.628233969 0.171561614 -0.227862015
v 0.629502296 0.179689348 -0.230279267
v 0.63195008 0.18437466 -0.2314879
v 0.633218408 0.192502394 -0.233905151
v 0.630485654 0.199746579 -0.234866679
v 0.633307159 0.204072565 -0.237531021
v 0.634575427 0.212200299 -0.239948273
v 0.629024446 0.222090229 -0.229928941
v 0.630288839 0.230193123 -0.232338801
v 0.632729173 0.234864101 -0.233543739
v 0.630377352 0.241727918 -0.235953584
v 0.631199837 0.250234038 -0.23664248
v 0.634082079 0.25450179 -0.239568383
v 0.633922637 0.263881981 -0.236447692
v 0.63076669 0.271456987 -0.235709712
v 0.631667256 0.279861748 -0.236708567
v 0.632992268 0.285494208 -0.233601078
v 0.630648792 0.292333752 -0.236002415
v 0.631315112 0.300920755 -0.236092418
v 0.633080244 0.306142867 -0.234707862
v 0.630736828 0.31297648 -0.237095773
v 0.631995261 0.321040958 -0.239494219
v 0.628955722 0.324192911 -0.253258526
v 0.63270551 0.327754766 -0.259600937
v 0.632645488 0.336948216 -0.256835938
v 0.630298257 0.343798518 -0.259241074
v 0.632733822 0.348460346 -0.260443628
v 0.632962406 0.357382625 -0.258809447
v 0.629248977 0.365326047 -0.255847037
v 0.631678879 0.369977146 -0.257046849
v 0.631726027 0.379001319 -0.254708022
v 0.627014697 0.387687445 -0.247803524
v 0.628269434 0.395728111 -0.250194877
v 0.630690992 0.400363237 -0.251390547
v 0.631945729 0.408403873 -0.253781885
v 0.628331721 0.41618216 -0.251155853
v 0.632033527 0.419850081 -0.257368922
v 0.633288205 0.427890748 -0.25976029
v 0.628952086 0.436175227 -0.254302561
v 0.632004976 0.44033736 -0.257983834
v 0.632831931 0.448674768 -0.258706152
v 0.629999876 0.455833912 -0.2591241
v 0.630346894 0.464497238 -0.257964581
v 0.632761061 0.469118148 -0.259156585
v 0.630434453 0.475908369 -0.261540592
v 0.629771411 0.485241383 -0.256424397
v 0.632181168 0.489853829 -0.257614195
v 0.632511675 0.498473585 -0.256405592
v 0.630191326 0.505245388 -0.258783162
v 0.631438792 0.513239682 -0.261160702
v 0.633846462 0.517848074 -0.262349486
v 0.629840255 0.525714397 -0.258118153
v 0.630554974 0.534035861 -0.258412451
v 0.632957458 0.538634479 -0.259598702
v 0.630140543 0.545707822 -0.26000464
v 0.630887687 0.553990185 -0.260428339
v 0.631427765 0.562391162 -0.260043383
v 0.632670522 0.570355475 -0.262412012
v 0.631775618 0.573571563 -0.264618754
v 0.628679872 0.577437699 -0.277918637
v 0.632493258 0.581205368 -0.284646958
v 0.632787824 0.589762568 -0.283275336
v 0.630123377 0.59673208 -0.28429094
v 0.632875085 0.601138115 -0.28684023
v 0.633142412 0.609684467 -0.285363108
v 0.629940569 0.616944015 -0.284247577
v 0.631185293 0.624920845 -0.286619931
v 0.633492053 0.629571497 -0.287429899
v 0.630465627 0.636713684 -0.286995202
v 0.629056156 0.646101356 -0.278903514
v 0.631442428 0.650688708 -0.280053824
v 0.632683039 0.658639014 -0.282418311
v 0.630111933 0.665509284 -0.283743382
v 0.630067527 0.674108505 -0.281043738
v 0.633745968 0.678039432 -0.287289202
v 0.629035354 0.685963988 -0.280171961
v 0.630272806 0.693893969 -0.282530397
v 0.632661045 0.698465288 -0.283709615
v 0.62941426 0.705633163 -0.282339513
v 0.630268872 0.713734806 -0.283190787
v 0.632654071 0.718300283 -0.284368485
v 0.633801162 0.726260543 -0.286374867
v 0.629842699 0.733715057 -0.282184362
v 0.631076455 0.741621673 -0.284535825
v 0.633457661 0.746179521 -0.285711586
v 0.630355299 0.75322479 -0.284878284
v 0.631096959 0.76133281 -0.285292
v 0.626707017 0.768708944 -0.259842008
v 0.632169962 0.774595678 -0.259438396
v 0.632521331 0.782788515 -0.258359194
v 0.629507005 0.789719284 -0.25778842
v 0.631829679 0.79424721 -0.258813351
v 0.632335305 0.802351594 -0.258340925
v 0.631845832 0.810817659 -0.253982216
v 0.629989147 0.814395368 -0.25231415
v 0.631133437 0.822228968 -0.254346848
v 0.632351518 0.830035031 -0.256668419
v 0.62875104 0.837115526 -0.253757358
v 0.632436812 0.841147363 -0.26015082
v 0.632101417 0.849478126 -0.256398261
v 0.627814233 0.85675317 -0.250777364
v 0.631862342 0.860679924 -0.258606672
v 0.63118726 0.869075656 -0.253528863
v 0.631879926 0.877015948 -0.253805727
v 0.629629672 0.880654812 -0.250570327
v 0.630773306 0.888441086 -0.252613306
v 0.631985068 0.896206319 -0.254922748
v 0.629731178 0.90278405 -0.257232189
v 0.632069826 0.907260418 -0.25838691
v 0.633281589 0.915025651 -0.260696352
v 0.630220771 0.921820402 -0.259842157
v 0.633366346 0.92607981 -0.264160514
v 0.633880913 0.934023678 -0.263743728
v 0.629908085 0.941028178 -0.259305328
v 0.631116986 0.948775411 -0.261609405
v 0.63345021 0.953241408 -0.262761474
v 0.629354894 0.960232854 -0.257823169
v 0.630236983 0.968039334 -0.258850574
v 0.632565379 0.972495973 -0.260000229
v 0.633771777 0.980227113 -0.262299508
v 0.630831003 0.98691982 -0.261867106
v 0.632506788 0.991504788 -0.260468841
v 0.633309007 0.999303997 -0.26119104
v 0.630896628 1.0058744 -0.262811273
v 0.631320357 1.01373219 -0.262048095
v 0.633722484 1.01816332 -0.26350686
v 0.632439077 1.0227617 -0.283098251
v 0.630104899 1.02933609 -0.285060525
v 0.63243705 1.03380001 -0.286212057
v 0.632395327 1.04173565 -0.283596039
v 0.629181862 1.04843032 -0.28207463
v 0.629517019 1.05627942 -0.2809394
v 0.631842256 1.0607301 -0.282087505
v 0.633047044 1.06845093 -0.284383744
v 0.630648375 1.0750103 -0.28605783
v 0.633131385 1.07944179 -0.287828058
v 0.633790672 1.08722246 -0.2879785
v 0.629564583 1.09396529 -0.28243807
v 0.630766451 1.1016674 -0.284728706
v 0.633086026 1.10610735 -0.285874039
v 0.629987001 1.11270571 -0.284757763
v 0.630948544 1.1204201 -0.286102891
v 0.632565916 1.12490702 -0.284493208
v 0.630334258 1.13142002 -0.28677991
v 0.631098032 1.13913512 -0.287347168
v 0.633021235 1.14358747 -0.286949307
v 0.628827691 1.14884567 -0.295035124
v 0.628551185 1.1493609 -0.32694
v 0.611669183 1.14752114 -0.28690663
v 0.613664091 1.14926219 -0.314428538
v 0.600297153 1.1472497 -0.288127095
v 0.592434049 1.14814782 -0.289689422
v 0.600389004 1.14957774 -0.342279822
v 0.580548882 1.14790428 -0.288790226
v 0.573380888 1.14876449 -0.293253422
v 0.576080143 1.14909661 -0.339371055
v 0.5632025 1.14705777 -0.314117491
v 0.559218585 1.14911437 -0.317738026
v 0.550655842 1.1468488 -0.310556501
v 0.543090999 1.14773142 -0.313580692
v 0.544525623 1.14948869 -0.340844452
v 0.53121978 1.14748454 -0.312848777
v 0.523156703 1.14839554 -0.31370765
v 0.519304395 1.14906681 -0.333368152
v 0.511051178 1.14816308 -0.311857402
v 0.503537476 1.14904189 -0.315165281
v 0.500751913 1.14964974 -0.340094388
v 0.487549394 1.14765966 -0.311185569
v 0.489249617 1.14937687 -0.341238469
v 0.476288855 1.1473788 -0.313076377
v 0.468502611 1.1482724 -0.315167695
v 0.462765366 1.14904213 -0.327005297
v 0.456264913 1.14805186 -0.312440515
v 0.449098676 1.14890683 -0.317509353
v 0.44578442 1.14952683 -0.341369152
v 0.432718039 1.1475563 -0.311213851
v 0.433437288 1.14930773 -0.338288963
v 0.421097457 1.14729989 -0.311285973
v 0.413370073 1.14818823 -0.313660711
v 0.405717164 1.14907193 -0.316437453
v 0.40184921 1.14792526 -0.314216465
v 0.39356178 1.14885044 -0.31374985
v 0.38970378 1.14948487 -0.336248308
v 0.382160783 1.14857996 -0.314883798
v 0.377934575 1.1492337 -0.335757822
v 0.366520345 1.14719212 -0.3117055
v 0.358567268 1.14809465 -0.312899083
v 0.351291448 1.14894998 -0.317770809
v 0.347221285 1.14782143 -0.314267397
v 0.339366168 1.14871693 -0.316005439
v 0.335827351 1.1493082 -0.341814339
v 0.327162445 1.14850569 -0.312589675
v 0.323198408 1.14912069 -0.33633095
v 0.311810672 1.14710522 -0.31057018
v 0.303941041 1.14800084 -0.312172145
v 0.296229452 1.14888477 -0.314709067
v 0.292446285 1.14774072 -0.312578291
v 0.284722626 1.14862502 -0.315057874
v 0.280359894 1.14925325 -0.337783575
v 0.27305001 1.14837873 -0.314378113
v 0.265888155 1.14921904 -0.32032764
v 0.257548273 1.14699674 -0.311087728
v 0.249632791 1.14789534 -0.312377512
v 0.249504909 1.14961743 -0.341219872
v 0.238020435 1.14764738 -0.311876148
v 0.23028852 1.1485306 -0.314335167
v 0.222974271 1.14937925 -0.319555104
v 0.218934506 1.14826107 -0.315472871
v 0.211124584 1.14915061 -0.317472011
v 0.20334889 1.14689493 -0.311116755
v 0.199768215 1.1488812 -0.318609953
v 0.194744363 1.14952934 -0.339779645
v 0.183848858 1.14754641 -0.311776817
v 0.176192835 1.14842081 -0.314812273
v 0.171445951 1.14903104 -0.338669002
v 0.164584309 1.14817679 -0.314018309
v 0.159254387 1.14883399 -0.33406058
v 0.152071029 1.14966476 -0.340954065
v 0.14617373 1.14872563 -0.322605729
v 0.140669078 1.14939415 -0.342096597
v 0.12983489 1.14744508 -0.311727494
v 0.119479753 1.14858842 -0.293942362
v 0.117171258 1.14892268 -0.338919133
v 0.107520796 1.14839244 -0.289589852
v 0.10527353 1.14870512 -0.335950315
v 0.0979927257 1.14953804 -0.342599183
v 0.0911152959 1.14873016 -0.314189315
v 0.0863880962 1.14929032 -0.341952354
v 0.0731872097 1.14765608 -0.288077354
v 0.0745915473 1.1490649 -0.339577615
v 0.0615208894 1.14743876 -0.285490423
v 0.0539130941 1.14830112 -0.288770646
v 0.050600335 1.14866793 -0.330726624
v 0.0438837893 1.14942729 -0.342997521
v 0.0369143784 1.14867687 -0.310298562
v 0.0319364667 1.14922523 -0.338779747
v 0.0199120883 1.1475389 -0.28931269
v 0.0204779357 1.1489675 -0.338985801
v 0.00818485767 1.14733768 -0.285539508
v 0.000592798518 1.14819455 -0.289147913
v -0.00345670246 1.14858758 -0.328890026
v -0.0101835001 1.1493293 -0.342400521
v -0.0173527375 1.14866662 -0.303123057
v -0.0216619 1.14907598 -0.342265397
v -0.033636149 1.14747775 -0.286341518
v -0.0335192047 1.14887702 -0.337883651
v -0.0448394939 1.14721191 -0.287464142
v -0.0526146814 1.14809167 -0.28926149
v -0.0595111102 1.14883864 -0.301381767
v -0.0641741529 1.14924479 -0.340772003
v -0.0697582141 1.14841712 -0.314464122
v -0.0759664178 1.14904726 -0.336295515
v -0.0848100856 1.14705515 -0.310589969
v -0.088091068 1.14890981 -0.327160984
v -0.096064128 1.14678812 -0.311717689
v -0.103933685 1.14768076 -0.312845409
v -0.10665147 1.14942837 -0.338081628
v -0.115456961 1.1474632 -0.310216635
v -0.12323986 1.14834023 -0.312483221
v -0.129373714 1.14890671 -0.339125484
v -0.138007537 1.14694226 -0.311519802
v -0.14146179 1.14879024 -0.328403056
v -0.148525625 1.14952028 -0.342618734
v -0.157119095 1.14756918 -0.313615084
v -0.159919307 1.1492672 -0.34252733
v -0.168666944 1.14737141 -0.309521228
v -0.176415086 1.14823842 -0.312443197
v -0.183058023 1.14884782 -0.335589588
v -0.191152468 1.14684665 -0.311167181
v -0.195452869 1.14885104 -0.315604061
v -0.202079684 1.14943397 -0.341133803
v -0.210311636 1.14749348 -0.311674088
v -0.21345672 1.14918625 -0.340652406
v -0.221584991 1.14724255 -0.311644733
v -0.229401663 1.14812422 -0.313383341
v -0.237150252 1.14898479 -0.316791207
v -0.240660712 1.14787078 -0.313534826
v -0.24844411 1.14874089 -0.316171378
v -0.255423456 1.14933884 -0.340371907
v -0.263198614 1.14737725 -0.312845498
v -0.266941398 1.14915693 -0.334752083
v -0.274445057 1.14712644 -0.312817872
v -0.282250077 1.14800262 -0.31490922
v -0.290020883 1.1488626 -0.318289638
v -0.293556452 1.14778185 -0.312582672
v -0.301295012 1.14862561 -0.317155361
v -0.308642417 1.1492641 -0.338032782
v -0.315995008 1.14727426 -0.313024819
v -0.319935024 1.14901495 -0.337736547
v -0.327224284 1.14703178 -0.312399805
v -0.335043192 1.14791572 -0.313791901
v -0.342843026 1.14878416 -0.316389769
v -0.346298009 1.14770424 -0.310796469
v -0.354076147 1.14855516 -0.314675033
v -0.361633718 1.1491642 -0.337699443
v -0.365293443 1.14832604 -0.313003987
v -0.37293005 1.14896727 -0.333347887
v -0.379847527 1.14693296 -0.31231308
v -0.387660712 1.14781916 -0.313432693
v -0.391991884 1.14953518 -0.340064198
v -0.398837537 1.14756823 -0.31347236
v -0.406647325 1.14844024 -0.315671951
v -0.414473355 1.14906514 -0.337327182
v -0.417818904 1.14819217 -0.31548357
v -0.425637841 1.14904642 -0.319079667
v -0.432323962 1.14684093 -0.311738342
v -0.440132707 1.14771199 -0.313911408
v -0.444767535 1.14944744 -0.338755012
v -0.4512631 1.14748764 -0.311959714
v -0.459077537 1.1483531 -0.314540863
v -0.467169046 1.14895856 -0.337566644
v -0.470213056 1.14810669 -0.314253688
v -0.478048801 1.14896083 -0.317742735
v -0.484676808 1.14672446 -0.313015521
v -0.492462039 1.147614 -0.31371215
v -0.497451067 1.14930868 -0.341503829
v -0.503572404 1.14736962 -0.31330809
v -0.511415362 1.14822447 -0.316636592
v -0.519270182 1.14907837 -0.320104837
v -0.522504508 1.1479876 -0.315628707
v -0.530358791 1.14884233 -0.31899634
v -0.538780034 1.14946663 -0.340700626
v -0.541387916 1.14862609 -0.316368788
v -0.549913704 1.14922678 -0.339772671
v -0.5557096 1.14727664 -0.312777936
v -0.563513219 1.14814985 -0.314584851
v -0.571976781 1.14880478 -0.33346799
v -0.574280441 1.14800501 -0.306586355
v -0.582066 1.14887822 -0.308260679
v -0.591129601 1.14937687 -0.339581132
v -0.592775226 1.14873064 -0.300404787
v -0.60105592 1.14946091 -0.313197702
v -0.606649935 1.1474762 -0.290203273
v -0.614407182 1.14834404 -0.291957736
v -0.622971117 1.14901006 -0.309464902
v -0.625323176 1.14811552 -0.290486127
v -0.633455396 1.148893 -0.299231619
v -0.635160387 1.14473414 -0.28816995
v -0.6375103 1.14041686 -0.289072752
v -0.635350704 1.13411403 -0.28685981
v -0.63671124 1.12660635 -0.288297415
v -0.634563744 1.12029278 -0.286341667
v -0.636806786 1.11599946 -0.285234183
v -0.634657621 1.1096853 -0.283250749
v -0.636132658 1.10209775 -0.286771506
v -0.637475431 1.09455395 -0.287814945
v -0.635358095 1.08820581 -0.286500543
v -0.637694359 1.08385599 -0.286987633
v -0.635529459 1.0775274 -0.28482008
v -0.636763334 1.07001817 -0.283848315
v -0.634594798 1.06368923 -0.281626254
v -0.637148261 1.05918992 -0.286051095
v -0.635016739 1.05282581 -0.284562558
v -0.63636452 1.04521716 -0.28563565
v -0.637717962 1.03759372 -0.286774039
v -0.635570586 1.03122342 -0.285060316
v -0.636890233 1.02360857 -0.285570234
v -0.635801673 1.02043164 -0.284454793
v -0.637053967 1.01286197 -0.28371653
v -0.634908497 1.00647736 -0.282083124
v -0.637308955 1.0020268 -0.283523232
v -0.63515532 0.995641649 -0.281767249
v -0.636638224 0.98783505 -0.28522104
v -0.634455323 0.981464386 -0.282984316
v -0.635840058 0.973728418 -0.284623086
v -0.637179494 0.966028094 -0.28538987
v -0.636079669 0.962844491 -0.284149051
v -0.637486696 0.955057919 -0.286128789
v -0.635207057 0.948773324 -0.282213926
v -0.637703896 0.944169283 -0.285219252
v -0.635380328 0.937935591 -0.280522048
v -0.636742055 0.930171132 -0.281657964
v -0.634501278 0.923841 -0.278487176
v -0.636858463 0.919384956 -0.278911233
v -0.634633958 0.913034737 -0.276046634
v -0.636329114 0.904802442 -0.283274978
v -0.637703598 0.896975756 -0.284558028
v -0.63546139 0.890624821 -0.281484544
v -0.636865258 0.882739365 -0.283299983
v -0.635662019 0.879679561 -0.280271322
v -0.6370911 0.871743441 -0.282529771
v -0.634879053 0.865338326 -0.280064285
v -0.637401402 0.860606015 -0.283292592
v -0.635182679 0.854202032 -0.280742079
v -0.636638343 0.8461833 -0.283448488
v -0.634256423 0.840034664 -0.277929574
v -0.635766923 0.831904054 -0.281648308
v -0.637232661 0.823832154 -0.284481287
v -0.636053145 0.820735097 -0.281979591
v -0.637485981 0.812701702 -0.284186035
v -0.635213673 0.806356728 -0.280795872
v -0.637790263 0.801464736 -0.284809917
v -0.635661244 0.79485178 -0.284089833
v -0.637153625 0.786666274 -0.287334919
v -0.635027766 0.780022919 -0.286745578
v -0.63732934 0.775617599 -0.285609186
v -0.635191977 0.768987715 -0.284822345
v -0.63530463 0.763463438 -0.26278162
v -0.636491835 0.755855501 -0.260518938
v -0.637879848 0.747843862 -0.261888802
v -0.6367926 0.744582415 -0.2610811
v -0.634582281 0.738131583 -0.258816242
v -0.635956883 0.730123997 -0.25994727
v -0.637329996 0.722111106 -0.261011899
v -0.636323869 0.718663156 -0.261714697
v -0.63760376 0.710838079 -0.2610569
v -0.635359704 0.704433978 -0.258271486
v -0.635616779 0.698901176 -0.239031464
v -0.637906134 0.694519162 -0.237901077
v -0.63572222 0.688028395 -0.236047566
v -0.637164891 0.679831743 -0.238411516
v -0.634989679 0.673304439 -0.236763746
v -0.637337267 0.668786049 -0.236624047
v -0.635127306 0.66233629 -0.234359577
v -0.636477292 0.654327571 -0.235021055
v -0.637922764 0.646077275 -0.237364426
v -0.63570869 0.639615595 -0.235095739
v -0.637072921 0.631546855 -0.235963255
v -0.635965049 0.628313482 -0.234828025
v -0.637156308 0.620679379 -0.232557595
v -0.635013044 0.614021599 -0.231605604
v -0.637587965 0.608896613 -0.235419109
v -0.635368764 0.602419913 -0.233145162
v -0.636782229 0.594178498 -0.234849036
v -0.634560823 0.58769542 -0.232572854
v -0.637133956 0.582546055 -0.236270472
v -0.635705829 0.573821664 -0.248477101
v -0.637820065 0.563548148 -0.2627334
v -0.635644555 0.556818724 -0.26163435
v -0.636849761 0.549095392 -0.259337366
v -0.634686649 0.54232043 -0.258480579
v -0.637164414 0.537421525 -0.260067999
v -0.634965599 0.530736506 -0.258596033
v -0.63641423 0.522271156 -0.2606996
v -0.634275675 0.515379488 -0.260386586
v -0.637057006 0.502750278 -0.286806613
v -0.635925114 0.499446929 -0.285646826
v -0.637462616 0.490636975 -0.289172083
v -0.635215282 0.483957678 -0.287210792
v -0.636605382 0.47559312 -0.288021296
v -0.634336472 0.468971342 -0.285696417
v -0.636786044 0.464152366 -0.2862764
v -0.634421825 0.457843304 -0.282209098
v -0.635736525 0.449707329 -0.281624675
v -0.63727653 0.440807402 -0.285127968
v -0.636139989 0.437490404 -0.283963382
v -0.637874126 0.427904785 -0.290961623
v -0.635376215 0.422022253 -0.284588099
v -0.636966884 0.412894011 -0.288964182
v -0.635827005 0.409567326 -0.287796199
v -0.637052655 0.401712865 -0.285460234
v -0.634772897 0.395059496 -0.283124238
v -0.635998547 0.387205005 -0.280788273
v -0.637746274 0.377444535 -0.287960649
v -0.636603773 0.374110162 -0.286789954
v -0.633972704 0.368739694 -0.278054774
v -0.635578752 0.359450042 -0.282685757
v -0.637298167 0.349720776 -0.28930217
v -0.636152983 0.346378654 -0.288128734
v -0.637560606 0.337812841 -0.288994968
v -0.635239899 0.331234694 -0.286120504
v -0.636872888 0.32177031 -0.291106492
v -0.634378552 0.315860033 -0.285087913
v -0.636959314 0.310509801 -0.287577659
v -0.634663403 0.303809226 -0.285225123
v -0.635897756 0.295899034 -0.282872558
v -0.637132108 0.287988842 -0.280519992
v -0.635984123 0.284638554 -0.279343724
v -0.637455463 0.275755107 -0.281306297
v -0.635085285 0.269347787 -0.277630031
v -0.636973679 0.258694708 -0.287209123
v -0.635775208 0.255527914 -0.285178661
v -0.637191951 0.246835455 -0.28606835
v -0.634886324 0.240106538 -0.28370586
v -0.636125863 0.232162908 -0.281343371
v -0.637914538 0.221838057 -0.288976401
v -0.636744976 0.218526542 -0.287536651
v -0.634355545 0.212130234 -0.283721596
v -0.635772109 0.203392088 -0.284558237
v -0.637316644 0.194078252 -0.287689775
v -0.636159062 0.190699846 -0.286503643
v -0.637403786 0.182723284 -0.284131348
v -0.635088623 0.175966486 -0.281759053
v -0.636893809 0.165407658 -0.289637923
v -0.634484828 0.159046337 -0.285634279
v -0.63698113 0.154024333 -0.286070585
v -0.634660184 0.147250667 -0.28369239
v -0.636008084 0.138779521 -0.283148408
v -0.63767755 0.128777951 -0.28844136
v -0.636514366 0.125383273 -0.287249506
v -0.637803316 0.117184721 -0.285561383
v -0.63543874 0.110578917 -0.282482058
v -0.637241602 0.0998635069 -0.290182322
v -0.63468194 0.0941892564 -0.283594757
v -0.637371778 0.088216126 -0.287372231
v -0.63503933 0.0814088061 -0.284982204
v -0.636293292 0.0733726025 -0.282592177
v -0.637898862 0.0635656118 -0.286598325
v -0.636737227 0.0601242557 -0.28551808
v -0.634434283 0.0531343818 -0.283738613
v -0.635852575 0.0442463271 -0.284318835
v -0.637109697 0.0361903422 -0.281922907
v -0.635940552 0.0327783078 -0.280724943
v -0.637632847 0.022448469 -0.28625536
v -0.635442078 0.0148041248 -0.286650389
v -0.636702478 0.00672709104 -0.284248203
v -0.637325466 0.00204244163 -0.27026698
v -0.635862827 0.000207647128 -0.263705075
v -0.637173295 -0.00813311897 -0.262316257
v -0.634888768 -0.0152254542 -0.260853291
v -0.637346804 -0.0200508498 -0.260279536
v -0.635110617 -0.0274192244 -0.259714812
v -0.636544585 -0.0364494957 -0.260546446
v -0.634395659 -0.044340726 -0.261641681
v -0.635654271 -0.0524063297 -0.259242922
v -0.636925817 -0.0605445579 -0.257078975
v -0.635160148 -0.0605960116 -0.245031446
v -0.636148274 -0.0671283305 -0.237797022
v -0.637645364 -0.0765409619 -0.239787534
v -0.636478007 -0.0799478069 -0.238591403
v -0.637926102 -0.0890933126 -0.23966822
v -0.635619879 -0.0960895419 -0.237827122
v -0.636876285 -0.104141235 -0.235432491
v -0.635707796 -0.107551448 -0.234235168
v -0.637349248 -0.117856845 -0.238780469
v -0.635008276 -0.124688946 -0.236381739
v -0.636478484 -0.134013444 -0.237812191
v -0.637738228 -0.142086506 -0.235411197
v -0.636566639 -0.145505771 -0.2342107
v -0.634223461 -0.152344316 -0.23180972
v -0.635483265 -0.160417393 -0.229408726
v -0.637283742 -0.171786204 -0.23675321
v -0.636099279 -0.175152093 -0.235368133
v -0.637504458 -0.18411909 -0.235524684
v -0.635077834 -0.190501407 -0.231727585
v -0.63645035 -0.199278533 -0.231296644
v -0.634114921 -0.206234246 -0.229163662
v -0.636871874 -0.212901667 -0.233693391
v -0.634358168 -0.218751848 -0.228370905
v -0.636128366 -0.230084792 -0.235114425
v -0.637650967 -0.239836603 -0.23728852
v -0.636456192 -0.243186936 -0.235815257
v -0.637833059 -0.252013385 -0.23533763
v -0.635379434 -0.258301497 -0.23124215
v -0.636741281 -0.267040223 -0.230498552
v -0.634379983 -0.273931623 -0.228079006
v -0.637295604 -0.281685293 -0.235255003
v -0.63466996 -0.286857069 -0.228109762
v -0.636431634 -0.298280358 -0.23456572
v -0.638017118 -0.308525592 -0.237746164
v -0.636878133 -0.312302738 -0.237378821
v -0.635952175 -0.329109699 -0.26132834
v -0.637479842 -0.339002877 -0.26330328
v -0.635089517 -0.345979124 -0.260853946
v -0.637887418 -0.352911741 -0.265378118
v -0.635501146 -0.359950006 -0.263062
v -0.6369012 -0.368986905 -0.262663424
v -0.634506226 -0.375976741 -0.260209322
v -0.635793805 -0.384228379 -0.25775522
v -0.637289941 -0.393956095 -0.25907886
v -0.636091292 -0.397454232 -0.257850677
v -0.637856066 -0.409106702 -0.26400733
v -0.635453761 -0.416117758 -0.261545777
v -0.63696605 -0.425990969 -0.26309374
v -0.635763705 -0.429499924 -0.261861742
v -0.637130678 -0.438324749 -0.260742933
v -0.634685993 -0.445055127 -0.257559597
v -0.636205018 -0.455010474 -0.25921008
v -0.637661278 -0.464500517 -0.259674072
v -0.63645786 -0.468024522 -0.258460373
v -0.63407594 -0.475261539 -0.256492734
v -0.635609031 -0.485355794 -0.258362889
v -0.637247741 -0.496242702 -0.262093097
v -0.635934174 -0.498965204 -0.25892818
v -0.637428463 -0.508772016 -0.260007173
v -0.634998083 -0.515719414 -0.257279724
v -0.637830138 -0.522996962 -0.261913717
v -0.63541019 -0.530060291 -0.259435356
v -0.6369344 -0.54012543 -0.261007696
v -0.634512007 -0.547195137 -0.25852555
v -0.636088789 -0.55769515 -0.261045694
v -0.638930321 -0.565040708 -0.265657336
v -0.637900651 -0.58318001 -0.288636416
v -0.635456681 -0.590312719 -0.286132127
v -0.637072802 -0.601152599 -0.289149135
v -0.634603143 -0.60811305 -0.286228448
v -0.637388289 -0.614955366 -0.289464206
v -0.634959579 -0.622276127 -0.287340611
v -0.636337221 -0.63121134 -0.285939068
v -0.637798667 -0.640828729 -0.286048084
v -0.635255039 -0.647227466 -0.281852365
v -0.638273954 -0.655998468 -0.289239854
v -0.635731399 -0.662448585 -0.285138667
v -0.637491167 -0.674565792 -0.290645808
v -0.634991527 -0.68141228 -0.287396938
v -0.637625873 -0.686984062 -0.287631661
v -0.63512361 -0.693811655 -0.284343749
v -0.636490881 -0.702666163 -0.282639325
v -0.638079405 -0.713393271 -0.28494516
v -0.636847675 -0.716988146 -0.283683002
v -0.634402156 -0.724333525 -0.281490594
v -0.636071503 -0.735802233 -0.285288513
v -0.63770324 -0.746936977 -0.288318545
v -0.635232389 -0.754148126 -0.285786718
v -0.637833714 -0.759381354 -0.285203785
v -0.634643495 -0.760260642 -0.269455254
v -0.635735273 -0.766702414 -0.262684017
v -0.637315035 -0.777434886 -0.264820904
v -0.636083245 -0.78102982 -0.263558745
v -0.637586772 -0.791098595 -0.264278561
v -0.635139406 -0.798457205 -0.262085319
v -0.636619031 -0.80832994 -0.262359738
v -0.638240814 -0.819467247 -0.265166312
v -0.636969209 -0.822746396 -0.263241887
v -0.634499013 -0.829955757 -0.260710716
v -0.636086762 -0.84083271 -0.262915105
v -0.637434781 -0.849520743 -0.260714293
v -0.636198103 -0.853129864 -0.259447128
v -0.637780666 -0.863963783 -0.261487633
v -0.635117233 -0.869451165 -0.255524427
v -0.636819601 -0.881423295 -0.259751052
v -0.634265184 -0.887938082 -0.255810648
v -0.637214303 -0.896384597 -0.261409909
v -0.634594977 -0.902323723 -0.256340027
v -0.636078298 -0.912283003 -0.256531358
v -0.637661695 -0.923178673 -0.258496791
v -0.636385143 -0.926477849 -0.256598711
v -0.637778699 -0.935585439 -0.255102992
v -0.635270894 -0.942613423 -0.252132863
v -0.63707912 -0.955700576 -0.258156925
v -0.635740995 -0.958432734 -0.255180299
v -0.637371004 -0.969820082 -0.257920742
v -0.634860277 -0.976905704 -0.255018592
v -0.636522889 -0.988640904 -0.25834015
v -0.638250113 -1.00099194 -0.262751341
v -0.637000442 -1.00463903 -0.261470854
v -0.634779274 -1.01469922 -0.264012694
v -0.637644351 -1.0384016 -0.289145142
v -0.635124922 -1.04575443 -0.286563575
v -0.637888253 -1.05224562 -0.287986934
v -0.635449708 -1.06043851 -0.286921769
v -0.636987746 -1.07096708 -0.287666142
v -0.638460159 -1.08082569 -0.287173957
v -0.635971308 -1.08856893 -0.285255849
v -0.637578428 -1.09981263 -0.287208945
v -0.636288702 -1.10324073 -0.285446793
v -0.637925446 -1.11479568 -0.2879062
v -0.635394096 -1.12218344 -0.285312384
v -0.638169169 -1.12873983 -0.286713004
v -0.635765731 -1.13748658 -0.286497563
v -0.62678808 -1.13942754 -0.286802858
v -0.619001806 -1.1368798 -0.287020832
v -0.613867283 -1.13961649 -0.28637588
v -0.606068373 -1.13694429 -0.28637588
v -0.597062051 -1.13873816 -0.286421299
v -0.589269757 -1.13618624 -0.286634445
v -0.580250323 -1.13792253 -0.28657797
v -0.573716164 -1.13156176 -0.287907243
v -0.571926177 -1.13885534 -0.311002642
v -0.564080596 -1.13616705 -0.311002642
v -0.558882177 -1.13854575 -0.309695542
v -0.551036537 -1.13585746 -0.309695542
v -0.541986346 -1.13816869 -0.310644925
v -0.532881498 -1.13961697 -0.310066789
v -0.52506876 -1.13772357 -0.311475664
v -0.519887269 -1.14059258 -0.311028332
v -0.512034118 -1.13795769 -0.311128795
v -0.502905548 -1.13910711 -0.310020506
v -0.495049357 -1.13641524 -0.310020506
v -0.489862025 -1.13933957 -0.309669673
v -0.481988609 -1.13613188 -0.308758676
v -0.472874224 -1.13790429 -0.308750987
v -0.465036392 -1.13613057 -0.310376763
v -0.455933243 -1.1391288 -0.312534064
v -0.446785897 -1.14019012 -0.311265022
v -0.442851663 -1.13884211 -0.311265022
v -0.43370384 -1.1398797 -0.309954137
v -0.425835371 -1.13718355 -0.309954137
v -0.416687816 -1.13834 -0.308853149
v -0.412753552 -1.13752508 -0.309795558
v -0.40359965 -1.13956738 -0.310258508
v -0.395725608 -1.13686943 -0.310258508
v -0.39050737 -1.13936365 -0.309135556
v -0.382632941 -1.13666558 -0.309135556
v -0.383140534 -0.495080858 0.833181024
v -0.384211153 -0.552914143 0.738887429
v -0.385117531 -0.567595541 0.726682484
v -0.383623272 -0.546716988 0.774861932
v -0.385169894 -0.578355551 0.72731787
v -0.38366285 -0.557978272 0.774349034
v -0.38442713 -0.581067145 0.74770999
v -0.383449465 -0.529642999 0.84770602
v -0.383836985 -0.574577212 0.78359282
v -0.384414226 -0.61019063 0.735937655
v -0.384037435 -0.575612962 0.800544083
v -0.384486645 -0.619628847 0.738895416
v -0.387153685 -0.575258732 0.82134366
v -0.392916054 -0.577168763 0.821452081
v -0.399613857 -0.576473117 0.820383787
v -0.405381888 -0.576710641 0.823315144
v -0.409193307 -0.576636314 0.819532335
v -0.414952397 -0.577230752 0.821861565
v -0.421646565 -0.576671362 0.820564926
v -0.427391648 -0.577202141 0.822998464
v -0.434080034 -0.576443493 0.822040021
v -0.435043901 -0.579667926 0.829373479
v -0.434109777 -0.582355678 0.830392659
v -0.435120255 -0.589295328 0.831460238
v -0.433987498 -0.656522751 0.730496168
v -0.435030758 -0.663544953 0.731869757
v -0.434064537 -0.666364849 0.73285985
v -0.432146609 -0.673348427 0.732623756
v -0.426213712 -0.673159957 0.729570568
v -0.419294983 -0.674469411 0.729697108
v -0.413339466 -0.67126292 0.731623173
v -0.406419218 -0.672674537 0.731580019
v -0.400470167 -0.6700086 0.732614577
v -0.396513492 -0.673482656 0.730850637
v -0.390548021 -0.672257841 0.729502738
v -0.383864105 -0.597946048 0.859881341
v -0.384606868 -0.683544159 0.726194024
v -0.383820444 -0.614408314 0.850693047
v -0.383764803 -0.756844878 0.624970257
v -0.383681893 -0.637172699 0.831388593
v -0.384015173 -0.689600766 0.758808792
v -0.385700107 -0.65024966 0.835026681
v -0.391515166 -0.648854792 0.84046936
v -0.396336377 -0.654578805 0.839804053
v -0.395449072 -0.65157187 0.849988163
v -0.396454781 -0.65801692 0.851904929
v -0.397370189 -0.676154673 0.83520484
v -0.396559626 -0.662994266 0.861451328
v -0.397541672 -0.672223747 0.858933389
v -0.395664543 -0.678593695 0.859406292
v -0.396398097 -0.718789995 0.808301806
v -0.390557885 -0.715537429 0.810262263
v -0.386675984 -0.717737257 0.810567737
v -0.384668082 -0.730759621 0.800828397
v -0.384910852 -0.795438886 0.712230265
v -0.385706604 -0.822486758 0.682780027
v -0.384680867 -0.827782154 0.680086017
v -0.382382452 -0.855129004 0.648861647
v -0.383440197 -0.863746166 0.648323059
v -0.38449043 -0.873079479 0.64670819
v -0.382494211 -0.877653718 0.650765598
v -0.384559959 -0.883440137 0.649074316
v -0.382551581 -0.888840377 0.651869118
v -0.383615166 -0.897233069 0.651739001
v -0.381607056 -0.902563393 0.654638708
v -0.383670777 -0.908635676 0.652560592
v -0.381662637 -0.913869023 0.655608714
v -0.382727385 -0.922243953 0.655547202
v -0.383779496 -0.93170023 0.653894901
v -0.382776052 -0.934144735 0.655678213
v -0.383835673 -0.943130672 0.654753566
v -0.384915113 -0.950707912 0.655926347
v -0.380800784 -0.952109277 0.657675147
v -0.373556584 -0.953742385 0.65751636
v -0.370445848 -0.952689052 0.657497942
v -0.363190979 -0.954500735 0.657077849
v -0.356960773 -0.952616632 0.656712413
v -0.349721551 -0.953525603 0.657619894
v -0.346609145 -0.952459157 0.657619894
v -0.339372188 -0.953279972 0.658656955
v -0.333102167 -0.952382326 0.656840146
v -0.32585299 -0.95340538 0.657581329
v -0.31961444 -0.951493919 0.657253385
v -0.318539321 -0.944193065 0.655652523
v -0.319589794 -0.940361321 0.655911148
v -0.32170102 -0.932401717 0.656881154
v -0.320667893 -0.924166977 0.656695366
v -0.319608241 -0.916579425 0.655556142
v -0.320657939 -0.912720084 0.655885339
v -0.319571912 -0.905760467 0.653815508
v -0.321675926 -0.897909284 0.654699028
v -0.31956172 -0.894358754 0.65297246
v -0.321658939 -0.886646807 0.653669357
v -0.320568085 -0.879847705 0.651374876
v -0.319483727 -0.872898638 0.649308145
v -0.321586281 -0.865052342 0.650252163
v -0.319459736 -0.861847043 0.647993028
v -0.321573347 -0.853737652 0.649367154
v -0.318493873 -0.821911454 0.684286416
v -0.31608513 -0.825231969 0.671952307
v -0.308919996 -0.826515675 0.672239244
v -0.302762866 -0.824657261 0.671855211
v -0.295591563 -0.825949848 0.672128975
v -0.292518556 -0.824896872 0.672128975
v -0.285341263 -0.82621938 0.672356784
v -0.279177934 -0.824353278 0.671982825
v -0.275093317 -0.826377153 0.672758758
v -0.268944502 -0.824270308 0.672758758
v -0.261791229 -0.825145006 0.673683882
v -0.255353779 -0.847783089 0.648052871
v -0.256877333 -0.859362721 0.637372732
v -0.255298734 -0.859400213 0.648495853
v -0.25631687 -0.867249668 0.649191976
v -0.256732911 -0.88321048 0.637497663
v -0.256354362 -0.877670169 0.651510239
v -0.256626338 -0.89563024 0.636858582
v -0.255253136 -0.892761707 0.652263403
v -0.256574899 -0.907327235 0.637354851
v -0.255241811 -0.903855443 0.653601646
v -0.256170064 -0.912994981 0.65242213
v -0.256982237 -0.923772514 0.6488204
v -0.255156428 -0.926932216 0.655013442
v -0.257170737 -0.932177484 0.654238164
v -0.257442296 -0.950573385 0.639427483
v -0.256111711 -0.946756959 0.655921698
v -0.254042685 -0.953222573 0.657202303
v -0.246736184 -0.954693437 0.657290637
v -0.2436084 -0.953698277 0.657181025
v -0.237364277 -0.951558769 0.657181025
v -0.230061516 -0.952896953 0.657464504
v -0.222800434 -0.95372057 0.658505023
v -0.216554821 -0.951580524 0.658505023
v -0.209188804 -0.953520179 0.657905459
v -0.206059024 -0.952505708 0.657822907
v -0.198722869 -0.95404923 0.657806933
v -0.192414686 -0.95246774 0.65698278
v -0.194650918 -0.944527686 0.657859802
v -0.192523748 -0.940682769 0.656538785
v -0.194818854 -0.932162046 0.658303559
v -0.193798855 -0.9244802 0.65725404
v -0.192807436 -0.916533232 0.656609297
v -0.193821177 -0.913574636 0.655570567
v -0.192837849 -0.90556252 0.655037582
v -0.191755697 -0.898510516 0.653066933
v -0.193983868 -0.890658796 0.653927147
v -0.191679448 -0.888571739 0.649952292
v -0.194008946 -0.879761577 0.652290463
v -0.193040222 -0.871659875 0.651945829
v -0.192056581 -0.86371696 0.651371121
v -0.193067759 -0.860763252 0.650341213
v -0.192012846 -0.853499711 0.648731232
v -0.19411239 -0.846864164 0.647802532
v -0.1907866 -0.824575484 0.673536718
v -0.184629247 -0.822428942 0.673591793
v -0.18046777 -0.824990094 0.673540413
v -0.174379528 -0.822238445 0.674536407
v -0.167044371 -0.824474812 0.67334801
v -0.159796759 -0.8259269 0.673381925
v -0.156744331 -0.824620903 0.673769712
v -0.15060842 -0.822267771 0.674143434
v -0.143407896 -0.823321044 0.674797118
v -0.136125699 -0.824962318 0.674537241
v -0.129211098 -0.847328067 0.643743813
v -0.128928632 -0.8643291 0.630326927
v -0.129839122 -0.872700334 0.630325794
v -0.128921136 -0.8749336 0.632507622
v -0.129786819 -0.883647561 0.631997526
v -0.129160255 -0.879202425 0.649947047
v -0.129542157 -0.896034002 0.631494939
v -0.129236579 -0.889150977 0.653064728
v -0.128720298 -0.908114195 0.637048781
v -0.129483283 -0.917648077 0.635368288
v -0.128731743 -0.913961649 0.651930451
v -0.129301935 -0.929612994 0.635592699
v -0.12871021 -0.924669683 0.653957307
v -0.129382312 -0.934864223 0.651306689
v -0.1294837 -0.949452877 0.642191589
v -0.129545107 -0.944199324 0.655404806
v -0.127531141 -0.949973404 0.657739639
v -0.123254612 -0.952825427 0.657380819
v -0.115942627 -0.953864098 0.658112049
v -0.109631382 -0.952047706 0.65762639
v -0.102249607 -0.953550279 0.65767628
v -0.0960447639 -0.950973213 0.658308089
v -0.0918287635 -0.953302979 0.658720553
v -0.0855047256 -0.951526225 0.658175111
v -0.0780765563 -0.953256845 0.657890916
v -0.0717941076 -0.951176941 0.657789409
v -0.0675455332 -0.953660607 0.657978833
v -0.0665396303 -0.946067095 0.656722188
v -0.0645167902 -0.941440582 0.656528831
v -0.0667503178 -0.934285283 0.656227052
v -0.0658026785 -0.926354945 0.655493915
v -0.0648637787 -0.918382883 0.654833853
v -0.0673046261 -0.909959197 0.656471729
v -0.0651945472 -0.905920327 0.65542984
v -0.0674709156 -0.898504555 0.655580938
v -0.0663783848 -0.891503155 0.653498709
v -0.065285854 -0.884501755 0.651416421
v -0.0663229302 -0.881409645 0.650568366
v -0.0652846768 -0.874083996 0.648983061
v -0.0677725822 -0.865413427 0.651110113
v -0.0666939765 -0.8583498 0.649143696
v -0.0645887032 -0.854320109 0.648104191
v -0.0668702722 -0.846898317 0.648351848
v -0.0648712292 -0.822999477 0.676554501
v -0.0586793423 -0.820964932 0.676426649
v -0.0542445406 -0.824773192 0.67444706
v -0.0480280444 -0.822836936 0.674163043
v -0.0407467373 -0.824152291 0.674415886
v -0.0334176831 -0.825704873 0.674301267
v -0.0303236656 -0.824644744 0.674301267
v -0.024276536 -0.821788728 0.675446451
v -0.0169414952 -0.823340416 0.675332189
v -0.00962354615 -0.824780285 0.675393462
v -0.00334474887 -0.823099852 0.674708068
v 0.0040949136 -0.825094402 0.673907876
v 0.00719235698 -0.824033082 0.673907876
v 0.0144715058 -0.825216293 0.674370468
v 0.020653965 -0.823029876 0.674469173
v 0.02505753 -0.826293111 0.673349321
v 0.0310442466 -0.823193252 0.674866855
v 0.0385676734 -0.825445414 0.673668504
v 0.0446264669 -0.822687805 0.674653172
v 0.0520682558 -0.824528813 0.674094379
v 0.0617188551 -0.850422323 0.637831926
v 0.0619860142 -0.863400638 0.630724132
v 0.0613694489 -0.872573197 0.629553854
v 0.0623756759 -0.875483274 0.630726039
v 0.0619036518 -0.885315061 0.628577888
v 0.0615688041 -0.880803943 0.646702945
v 0.0623899773 -0.896325171 0.635890782
v 0.0608449429 -0.902985275 0.633013129
v 0.0624744743 -0.907095551 0.637954772
v 0.0619827583 -0.916889071 0.635945976
v 0.0613623597 -0.926134884 0.634791076
v 0.0623878017 -0.929124475 0.635857403
v 0.0615400746 -0.937365949 0.636231303
v 0.0614393279 -0.933634639 0.652795851
v 0.061963737 -0.949725032 0.636018753
v 0.0614191554 -0.943930507 0.655560911
v 0.0606730543 -0.95259881 0.655280769
v 0.067898117 -0.952985942 0.656982422
v 0.0752594173 -0.953989089 0.657778084
v 0.0784088075 -0.952909946 0.657778084
v 0.0859096423 -0.954511464 0.657695055
v 0.0921899229 -0.952263772 0.65782547
v 0.0995671898 -0.953314006 0.658552825
v 0.102805555 -0.952601433 0.658013284
v 0.110207535 -0.953741312 0.658609629
v 0.116675302 -0.952251494 0.657624424
v 0.124165237 -0.953724027 0.657732844
v 0.124826342 -0.944891453 0.658237159
v 0.12378414 -0.941830754 0.657291114
v 0.124510244 -0.933275282 0.657409906
v 0.125323445 -0.925080597 0.657008827
v 0.124259017 -0.921931267 0.656203151
v 0.125101179 -0.913863182 0.655629873
v 0.12262889 -0.906210124 0.656064451
v 0.124749705 -0.902150691 0.655017257
v 0.125848562 -0.895108759 0.652922928
v 0.123400427 -0.887565613 0.653224349
v 0.124166004 -0.879238129 0.653099239
v 0.125263363 -0.872205853 0.651007771
v 0.124112427 -0.868723691 0.650734305
v 0.125080004 -0.861195505 0.649409413
v 0.126138106 -0.854018688 0.647547662
v 0.124655731 -0.84927398 0.649240077
v 0.121515401 -0.82614392 0.672195911
v 0.127227932 -0.822112978 0.675153494
v 0.134692699 -0.823828757 0.674794197
v 0.142277971 -0.825962722 0.673786938
v 0.145204887 -0.824232101 0.674821198
v 0.151251853 -0.821488798 0.67577517
v 0.158899054 -0.82380259 0.674486637
v 0.166458219 -0.825771511 0.673737466
v 0.169493109 -0.824436843 0.674154878
v 0.17700015 -0.826195478 0.67373395
v 0.190201998 -0.858639002 0.633045375
v 0.189268515 -0.866829515 0.627735913
v 0.188212037 -0.874082625 0.629582107
v 0.190098166 -0.879495502 0.632591367
v 0.18836084 -0.884953916 0.631539047
v 0.190083489 -0.889795363 0.635418832
v 0.189799204 -0.899746478 0.633169115
v 0.18838352 -0.906365812 0.630388796
v 0.18990013 -0.910469651 0.635387599
v 0.189364493 -0.919581234 0.634464443
v 0.188518882 -0.927614212 0.635181308
v 0.190317556 -0.932698607 0.638688624
v 0.189171895 -0.940332413 0.634471714
v 0.188405946 -0.948678553 0.634758413
v 0.189025119 -0.94952774 0.644533694
v 0.189314529 -0.949203491 0.655985177
v 0.194528893 -0.954117835 0.658090711
v 0.197718129 -0.953140199 0.657936454
v 0.204197854 -0.951535344 0.657111824
v 0.211561322 -0.952419698 0.658090234
v 0.219045088 -0.953713894 0.658466578
v 0.225367635 -0.951547563 0.658466578
v 0.229679331 -0.953875959 0.65891546
v 0.236177862 -0.952290177 0.658061206
v 0.243630782 -0.953449905 0.65863657
v 0.250141114 -0.951880515 0.657756567
v 0.252091795 -0.947196424 0.657582641
v 0.249612555 -0.939825892 0.657496035
v 0.250243306 -0.931213677 0.657660067
v 0.252375007 -0.927133381 0.656607509
v 0.249871716 -0.919698358 0.656652033
v 0.250923336 -0.912458658 0.654797733
v 0.251546055 -0.903859198 0.654992819
v 0.25231576 -0.895739138 0.65448159
v 0.25129059 -0.892747223 0.653431118
v 0.252185911 -0.885032475 0.652319431
v 0.252983779 -0.877019584 0.651670814
v 0.251698136 -0.873212874 0.651870787
v 0.252799183 -0.866156936 0.649772286
v 0.250146419 -0.858297706 0.650574386
v 0.251119256 -0.850854337 0.64908725
v 0.253435045 -0.847386241 0.647116601
v 0.253001124 -0.824856102 0.673112333
v 0.259080172 -0.822234571 0.673865318
v 0.263624549 -0.825360119 0.672985196
v 0.269807369 -0.823046684 0.673257291
v 0.277301252 -0.824569583 0.673208356
v 0.284853518 -0.826248527 0.672918558
v 0.287976503 -0.825178444 0.672918558
v 0.294235498 -0.823075831 0.672860146
v 0.301497042 -0.823899448 0.673900723
v 0.317130715 -0.858375967 0.630044639
v 0.315942764 -0.865167737 0.626924038
v 0.317053169 -0.868482769 0.633211911
v 0.316602498 -0.877458632 0.632442653
v 0.314755797 -0.882396817 0.632209718
v 0.316714168 -0.888117552 0.634783804
v 0.316398323 -0.897512674 0.633420467
v 0.316261113 -0.907447815 0.631267488
v 0.315149248 -0.914573133 0.633386612
v 0.316183269 -0.917590976 0.634446144
v 0.31595245 -0.927293837 0.632700264
v 0.317370296 -0.931427121 0.637675524
v 0.315950394 -0.937672257 0.635550261
v 0.315506935 -0.946785867 0.634733617
v 0.316246957 -0.948898137 0.642683387
v 0.315852433 -0.947659194 0.655534625
v 0.318175673 -0.954448819 0.656513274
v 0.324320316 -0.951694131 0.657368183
v 0.331865519 -0.953030288 0.657689869
v 0.33952558 -0.954686642 0.657542229
v 0.342698306 -0.953599513 0.657542229
v 0.349043816 -0.951425254 0.657542229
v 0.356421024 -0.952262044 0.658599377
v 0.36420545 -0.954230249 0.65799433
v 0.367379874 -0.953142583 0.65799433
v 0.373775005 -0.951094151 0.657807589
g path_000000
l 16 15 14 13 12 11 10 9 8 7 6 5 4 3 2 1 1271 1270 1269 1268 1267 1266 1265 1264 1263 1262 1261 1260 1259 1258 1257 1256 1255 1254 1253 1252 1251 1250 1249 1248 1247 1246
g path_000001
l 18 19 20
g path_000002
l 24 25 26
g path_000003
l 28 29
g path_000004
l 30 31
g path_000005
l 32 33 34 35 36 37 38 39 40 41 42 43 44 45 46
g path_000006
l 47 48 49 50 51 52 53 54 55 56 57 58
g path_000007
l 59 60 61 62 63 64 65 66 67 68 69 70 71 72 73 74 75 76 77 78 79 80
g path_000008
l 81 82
g path_000009
l 83 84 85 86 87 88 89 90 91 92 93 94 95 96 97 98 99 100 101 102 103 104 105 106 107 108 109 110 111 112 113 114 115 116 117 118 119
g path_000010
l 120 121 122 123 124 125 126 127 128 129 130 131 132 133 134 135 136 137 138 139 140 141 142 143 144 145 146 147 148 149 150 151 152 153 154 155 156 157 158 159 160 161 162 163 164 165 166 167 168 169 170 171 172 173 174 175 176 177 178 179 180 181 182 183 184 185 186 187 188 189 190 191 192 193 194 195 196 197 198 199 200 201 202 203 204 205 206 207 208 209 210
g path_000011
l 211 212 213 214 215 216 217 218
g path_000012
l 219 220 221 222 223 224 225 226 227 228 229 230 231 232 233 234 235 236 237 238 239 240 241 242 243 244 245 246 247 248 249 250 251 252 253 254 255 256 257 258 259 260 261 262 263 264 265 266 267 268 269 270 271 272 273 274 275 276 277 278 279 280 281 282 283 284 285 286 287 288 289 290 291 292 293 294 295 296 297 298 299 300 301 302 303 304 305 306 307 308 309 310 311 312 313 314 315 316 317 318 319
g path_000013
l 320 321 322 323 324 325 326 327 328 329 330 331 332 333 334 335 336 337 338 339 340 341 342 343 344 345 346 347 348 349 350 351 352 353 354 355 356 357 358 359 360 361 362 363 364 365 366 367 368 369 370 371 372 373 374 375 376 377 378 379
g path_000014
l 383 384
g path_000015
l 386 387
g path_000016
l 389 390 391 392
g path_000017
l 394 395 396
g path_000018
l 397 398
g path_000019
l 402 403 404 405 406
g path_000020
l 410 411 412 413 414
g path_000021
l 416 417
g path_000022
l 418 419 420 421 422
g path_000023
l 426 427 428 429 430
g path_000024
l 432 433 434 435
g path_000025
l 437 438 439 440 441 442 443
g path_000026
l 445 446
g path_000027
l 448 449 450 451 452
g path_000028
l 453 454
g path_000029
l 457 458
g path_000030
l 463 464
g path_000031
l 465 466
g path_000032
l 471 472
g path_000033
l 473 474
g path_000034
l 479 480 481
g path_000035
l 485 486 487 488
g path_000036
l 490 491
g path_000037
l 493 494 495
g path_000038
l 498 499
g path_000039
l 501 502
g path_000040
l 506 507 508 509 510
g path_000041
l 514 515 516 517 518
g path_000042
l 522 523 524 525 526
g path_000043
l 530 531
g path_000044
l 533 534
g path_000045
l 536 537 538 539
g path_000046
l 541 542
g path_000047
l 544 545 546 547
g path_000048
l 549 550 551 552 553
g path_000049
l 557 558 559
g path_000050
l 560 561
g path_000051
l 563 564
g path_000052
l 565 566 567 568 569 570 571 572 573 574 575 576 577 578 579 580 581 582 583 584 585 586 587 588 589 590 591 592 593 594 595 596 597 598 599 600 601 602 603 604 605 606 607 608 609 610 611 612 613 614 615 616 617 618 619 620 621 622 623 624 625 626 627 628 629
g path_000053
l 630 631 632 633 634 635 636 637 638 639 640 641 642 643 644 645 646 647 648 649 650 651 652 653 654 655 656 657 658 659 660 661 662 663 664 665 666 667
g path_000054
l 668 669 670 671 672 673 674 675 676 677 678 679 680 681 682 683 684 685 686 687 688 689 690 691 692 693 694 695 696 697 698 699 700 701 702 703 704 705 706 707 708 709 710 711 712 713 714 715 716 717 718 719 720 721 722 723 724 725 726 727 728 729 730 731 732 733 734 735 736 737 738 739 740 741 742 743 744 745 746 747 748 749 750 751 752 753 754 755 756 757 758 759 760 761 762 763 764 765 766 767 768 769 770 771 772 773 774 775 776 777 778 779 780 781 782 783
g path_000055
l 784 785 786 787 788 789 790 791 792 793 794 795 796 797 798 799 800 801 802 803 804 805 806 807 808 809 810 811 812 813 814
g path_000056
l 815 816 817 818 819 820 821 822 823 824 825 826 827 828 829 830 831 832 833 834 835 836 837 838 839 840 841 842 843 844 845 846 847 848 849 850 851 852 853 854 855 856 857 858 859 860 861 862 863 864 865 866 867 868 869
g path_000057
l 870 871 872 873 874 875 876 877 878 879 880 881 882 883 884 885 886 887 888 889 890 891 892 893 894 895 896 897 898 899 900 901 902 903 904 905 906 907 908 909 910 911 912 913 914 915 916
g path_000058
l 929 930 931 932 933 934 935 936 937 938 939 940
g path_000059
l 941 942 943 944 945 946 947 948 949 950 951
g path_000060
l 958 959 960 961 962
g path_000061
l 964 965 966
g path_000062
l 967 968 969 970
g path_000063
l 972 973
g path_000064
l 974 975 976 977 978 979 980 981 982 983 984 985 986 987 988 989 990 991 992 993 994 995 996 997 998 999 1000 1001 1002 1003 1004 1005 1006 1007 1008 1009 1010 1011 1012 1013 1014
g path_000065
l 1015 1016 1017 1018 1019 1020 1021 1022 1023 1024 1025
g path_000066
l 1026 1027 1028 1029
g path_000067
l 1030 1031
g path_000068
l 1032 1033
g path_000069
l 1034 1035 1036 1037 1038 1039
g path_000070
l 1040 1041 1042 1043 1044 1045 1046 1047 1048 1049 1050 1051 1052 1053 1054 1055 1056 1057 1058 1059 1060 1061 1062 1063 1064 1065 1066 1067 1068
g path_000071
l 1069 1070 1071 1072 1073 1074 1075 1076 1077 1078
g path_000072
l 1080 1081 1082 1083 1084
g path_000073
l 1087 1088 1089
g path_000074
l 1090 1091 1092 1093 1094 1095 1096 1097 1098 1099 1100 1101 1102 1103 1104 1105 1106 1107 1108 1109 1110 1111 1112 1113 1114 1115 1116 1117 1118 1119 1120 1121
g path_000075
l 1122 1123 1124 1125 1126 1127 1128 1129 1130 1131 1132 1133 1134 1135 1136 1137 1138 1139 1140 1141
g path_000076
l 1142 1143 1144 1145 1146 1147 1148 1149 1150 1151 1152 1153 1154 1155
g path_000077
l 1157 1158 1159 1160 1161 1162 1163 1164 1165 1166 1167 1168 1169 1170 1171 1172 1173 1174 1175 1176 1177 1178 1179 1180 1181 1182 1183 1184
g path_000078
l 1185 1186 1187 1188 1189 1190 1191 1192 1193 1194
g path_000079
l 1195 1196 1197 1198 1199 1200 1201 1202 1203 1204 1205 1206 1207 1208 1209 1210 1211 1212 1213 1214 1215 1216 1217 1218 1219 1220 1221 1222 1223 1224 1225 1226 1227 1228 1229 1230 1231 1232 1233 1234 1235 1236
g path_000080
l 1237 1238 1239 1240 1241 1242 1243 1244 1245
