# Fixed world centers; Z up; paths immutable
v -0.381308705 -0.555504382 1.0005393
v -0.38178122 -0.561969161 0.998369813
v -0.382168829 -0.568449378 0.996257186
v -0.380530179 -0.572267175 0.994701743
v -0.380813658 -0.578241348 0.996116757
v -0.380852014 -0.581767142 0.99343735
v -0.382305235 -0.5885939 0.987146258
v -0.380411476 -0.589442432 0.984956801
v -0.378850609 -0.593776703 0.979879558
v -0.381652534 -0.600406349 0.972647965
v -0.379590124 -0.601284266 0.97056514
v -0.378237128 -0.605598509 0.965326726
v -0.379535496 -0.608943641 0.961765885
v -0.378933579 -0.61314714 0.956000149
v -0.378582567 -0.617317498 0.950051963
v -0.378554136 -0.620888591 0.947386742
v -0.378086478 -0.625088751 0.941504002
v -0.380773067 -0.628246546 0.936956048
v -0.378945172 -0.632670045 0.931996286
v -0.380330324 -0.636040628 0.928336918
v -0.378855914 -0.640418649 0.92312032
v -0.378071815 -0.644698024 0.917415082
v -0.380008727 -0.648003519 0.91335243
v -0.378676444 -0.652375996 0.908014655
v -0.376964957 -0.656808019 0.902936816
v -0.378898948 -0.660132468 0.898856223
v -0.378483802 -0.664389253 0.892849207
v -0.377761632 -0.668696642 0.88704896
v -0.377946526 -0.672286034 0.884188712
v -0.376786828 -0.676664591 0.87868607
v -0.385867596 -0.679043293 0.869474113
v -0.384924173 -0.683414459 0.863785446
v -0.380506903 -0.684621096 0.863328338
v -0.380030125 -0.688932836 0.857297897
v -0.38278386 -0.695853949 0.849808276
v -0.380686373 -0.696747959 0.847682595
v -0.379159898 -0.70121634 0.842383802
v -0.380085081 -0.704748869 0.838950992
v -0.377891451 -0.709310591 0.834125817
v -0.382223994 -0.716088116 0.825430155
v -0.380188793 -0.716976583 0.823246181
v -0.381849825 -0.721079409 0.815576494
v -0.382445544 -0.724681318 0.812357366
v -0.381353378 -0.729135811 0.806685686
v -0.380794257 -0.733532906 0.800612092
v -0.381544948 -0.737130284 0.797264814
v -0.380645931 -0.741579413 0.791426361
v -0.381501138 -0.74517411 0.787992656
v -0.379517049 -0.749757171 0.782946885
v -0.376921445 -0.754411399 0.778353333
v -0.376976341 -0.758105576 0.775505602
v -0.376315087 -0.762553036 0.769456744
v -0.374143809 -0.767169118 0.764533341
v -0.377369404 -0.770537257 0.759287894
v -0.376043856 -0.775075018 0.753711641
v -0.374710351 -0.775898397 0.750959635
v -0.377678216 -0.783040345 0.743053973
v -0.380186856 -0.787213326 0.734533727
v -0.378332704 -0.78809458 0.732159853
v -0.382351488 -0.795182168 0.723404169
v -0.380000621 -0.796113849 0.721401751
v -0.378088772 -0.800750911 0.716212392
v -0.379743427 -0.804345548 0.712087512
v -0.378477901 -0.808931649 0.706387579
v -0.377961636 -0.816497028 0.70106554
v -0.377369195 -0.817271113 0.6976946
v -0.37845093 -0.821665227 0.690150797
v -0.380925655 -0.825221598 0.685354292
v -0.379281521 -0.829871476 0.67990613
v -0.368823379 -0.829186022 0.679391026
v -0.353638589 -0.828914106 0.682621181
v -0.351499647 -0.829825759 0.680453539
v -0.380338937 -0.831878901 0.650946259
v -0.37712571 -0.839007556 0.651577413
v -0.377649873 -0.842020154 0.652157784
v -0.37924239 -0.847997785 0.652887404
v -0.376937836 -0.855024755 0.652802706
v -0.378154308 -0.861018777 0.653826714
v -0.379200786 -0.867019773 0.654983044
v -0.377379 -0.873982668 0.654518962
v -0.379021585 -0.879928946 0.655202627
v -0.380081743 -0.885910034 0.656344056
v -0.378382951 -0.889820158 0.654795825
v -0.379020602 -0.895818114 0.656269252
v -0.38120997 -0.901714444 0.656517923
v -0.37937665 -0.908634424 0.656065464
v -0.38085869 -0.914563894 0.656869531
v -0.378890902 -0.92147392 0.656525135
v -0.379741907 -0.924427688 0.65683955
v -0.380557567 -0.930377603 0.658165336
v -0.382479995 -0.93626684 0.658618271
v -0.380199939 -0.943162322 0.65852052
v -0.382640481 -0.949019492 0.658563733
v -0.380425841 -0.952916205 0.657434344
v -0.375741154 -0.95475781 0.653415978
v -0.378979743 -0.956267715 0.643117607
v -0.371791214 -0.955233097 0.640080333
v -0.368030846 -0.957038939 0.635312557
v -0.35465917 -0.95626539 0.637244463
v -0.343040705 -0.954606175 0.641690731
v -0.338775307 -0.956424236 0.637368083
v -0.322972953 -0.955767214 0.641374052
v -0.320276052 -0.95455271 0.634799957
v -0.320514649 -0.951579094 0.633598983
v -0.321718752 -0.944780111 0.634492338
v -0.322050005 -0.938820601 0.632206678
v -0.325464875 -0.932692468 0.627409339
v -0.333436161 -0.926298499 0.618894875
v -0.324581236 -0.919993341 0.62798059
v -0.31860438 -0.913562477 0.634716272
v -0.322982073 -0.91031599 0.630146623
v -0.320928723 -0.904445112 0.629790485
v -0.320137382 -0.897716522 0.632312715
v -0.318551809 -0.891813159 0.631575882
v -0.316151261 -0.885960877 0.631501555
v -0.316952139 -0.882132709 0.63374263
v -0.315569907 -0.876207948 0.632839262
v -0.323159397 -0.869623542 0.624623418
v -0.334859818 -0.862687469 0.613040268
v -0.320302606 -0.856970429 0.626798689
v -0.318438202 -0.851050556 0.626278937
v -0.317843556 -0.847320974 0.629668891
v -0.316831857 -0.841329813 0.628454685
v -0.31887573 -0.835071862 0.624744833
v -0.318287641 -0.828295827 0.627113461
v -0.272020161 -0.827058733 0.6589517
v -0.268629611 -0.828789473 0.653962731
v -0.255128533 -0.827706933 0.660155773
v -0.241408005 -0.827367544 0.662697315
v -0.252098292 -0.830112755 0.651005328
v -0.253192216 -0.836012721 0.652136266
v -0.249562889 -0.843027651 0.653282046
v -0.252022147 -0.848797381 0.653282046
v -0.251228392 -0.855557919 0.652087748
v -0.251935929 -0.86146152 0.653532684
v -0.252555758 -0.867364228 0.655047417
v -0.250253588 -0.871247888 0.654087663
v -0.252447069 -0.877023637 0.654302478
v -0.251908243 -0.882989764 0.656768799
v -0.25122118 -0.889706433 0.655491352
v -0.253671229 -0.895454526 0.655491352
v -0.251421928 -0.902262688 0.655503094
v -0.252645791 -0.905134022 0.655503094
v -0.253168166 -0.910992265 0.657089055
v -0.252217948 -0.91770035 0.656031668
v -0.25335601 -0.923508883 0.657108068
v -0.254599154 -0.929306388 0.658096135
v -0.250804454 -0.933217108 0.658378124
v -0.253244609 -0.938942075 0.658378124
v -0.255405575 -0.944680333 0.658607781
v -0.254121989 -0.951371074 0.657827914
v -0.245264575 -0.953364313 0.657446563
v -0.244348019 -0.954202414 0.654359996
v -0.250297725 -0.955538034 0.64171654
v -0.236066431 -0.954850674 0.644810319
v -0.233463928 -0.956563592 0.63925302
v -0.22552605 -0.954801977 0.641009748
v -0.223611027 -0.95648253 0.634875834
v -0.210575908 -0.955747128 0.637084007
v -0.194136471 -0.955172479 0.642224729
v -0.192334548 -0.95394206 0.634991109
v -0.194707274 -0.950143874 0.635819137
v -0.193950206 -0.944375694 0.634402514
v -0.193749413 -0.93857193 0.632510066
v -0.205398157 -0.932127237 0.620524704
v -0.205221802 -0.926277697 0.618595719
v -0.194123253 -0.92320019 0.630910099
v -0.199455649 -0.917038858 0.62429595
v -0.191648379 -0.910885036 0.632767498
v -0.191303194 -0.904291451 0.634881675
v -0.193140775 -0.898305535 0.631247222
v -0.193887219 -0.892375469 0.628535986
v -0.193308994 -0.888724625 0.631891012
v -0.192322046 -0.882903755 0.630656004
v -0.189883962 -0.877183735 0.630656004
v -0.207912534 -0.86990875 0.613190293
v -0.189755231 -0.864643812 0.630511642
v -0.205984533 -0.857413411 0.614577591
v -0.191827208 -0.851896524 0.62849009
v -0.192087695 -0.848903835 0.627224922
v -0.189289436 -0.842482448 0.631441414
v -0.189623132 -0.836502075 0.629071295
v -0.190676257 -0.830444038 0.62608254
v -0.187600359 -0.82703954 0.631584346
v -0.149147302 -0.829028368 0.655614793
v -0.143569976 -0.827982128 0.651604235
v -0.129581094 -0.827041745 0.65872699
v -0.135737121 -0.827836812 0.645652354
v -0.118775681 -0.836658716 0.654648721
v -0.118897364 -0.839573383 0.655583441
v -0.120744571 -0.845254719 0.656062484
v -0.119285375 -0.851917744 0.655533969
v -0.121684119 -0.857545495 0.655533969
v -0.124180004 -0.863165379 0.655449986
v -0.124389917 -0.869680882 0.653477132
v -0.12674132 -0.87531215 0.653518021
v -0.124844655 -0.881982088 0.653367341
v -0.125903368 -0.884803653 0.65348804
v -0.126124769 -0.890579581 0.655366898
v -0.123268887 -0.897290826 0.656047344
v -0.125193864 -0.902932763 0.65645045
v -0.125783011 -0.908657789 0.658005476
v -0.12355943 -0.912420213 0.657109499
v -0.125967294 -0.918022573 0.65709269
v -0.128040656 -0.923644364 0.657364428
v -0.126097843 -0.930247486 0.657257259
v -0.127825066 -0.935880721 0.657825351
v -0.125097439 -0.942506194 0.658397198
v -0.126111448 -0.945310175 0.658550203
v -0.128671557 -0.950891495 0.658397198
v -0.126330763 -0.955403805 0.653772175
v -0.116676696 -0.954555094 0.653421223
v -0.122550711 -0.95583725 0.640615761
v -0.111664362 -0.95504266 0.641350269
v -0.112657584 -0.95577389 0.636618733
v -0.0967800841 -0.955214798 0.64177382
v -0.0859716609 -0.954426885 0.64252907
v -0.0874006674 -0.95513171 0.637407124
v -0.0693111345 -0.954691052 0.644652903
v -0.0695044547 -0.956220508 0.63676399
v -0.0651070327 -0.951533496 0.63470602
v -0.0671619847 -0.947831154 0.635688007
v -0.0674803182 -0.942135572 0.633292556
v -0.0663727224 -0.936505914 0.632165492
v -0.0793734789 -0.930071414 0.618431628
v -0.0680540577 -0.924251735 0.630308867
v -0.0705161393 -0.918381929 0.625986278
v -0.0665066689 -0.915024817 0.632394433
v -0.0641536564 -0.909450352 0.632374406
v -0.0638164133 -0.903008521 0.634439945
v -0.065448232 -0.897156417 0.630859792
v -0.0659252033 -0.890645862 0.632201135
v -0.0651577488 -0.884942532 0.630760372
v -0.0654217899 -0.879153013 0.628394365
v -0.0636290014 -0.875691235 0.632831037
v -0.0640922412 -0.869876206 0.630287647
v -0.0657917783 -0.863946557 0.626633167
v -0.0773569494 -0.85716325 0.614134669
v -0.0626696348 -0.851904035 0.629063308
v -0.0623306967 -0.845429957 0.631139219
v -0.0622814 -0.842525542 0.630115211
v -0.0672705099 -0.836235464 0.623507679
v -0.0658261329 -0.829845607 0.626578748
v -0.0263292156 -0.828523874 0.65594548
v -0.0204724688 -0.826877952 0.65627414
v -0.0190688595 -0.828344643 0.649784446
v -0.0122607937 -0.827456772 0.647102892
v 0.010220374 -0.827467322 0.662546933
v 0.00567770516 -0.828333974 0.650674999
v 0.0170639753 -0.827910721 0.652235568
v 0.0296040904 -0.826957047 0.65876925
v 0.0273882579 -0.828043997 0.64898473
v 0.0376071222 -0.827515304 0.649553955
v 0.0522461683 -0.827439725 0.654254079
v 0.068815127 -0.827572346 0.66081661
v 0.0674316287 -0.828077734 0.65566045
v 0.0671091452 -0.834371269 0.653649151
v 0.0703098625 -0.838173032 0.653843462
v 0.0684945583 -0.843659878 0.654312551
v 0.067373693 -0.849208891 0.655427635
v 0.0697998032 -0.85574013 0.655981839
v 0.0676736459 -0.861185789 0.656156898
v 0.0686369464 -0.867571115 0.655349076
v 0.0674806088 -0.870284081 0.655349076
v 0.0656780601 -0.875751734 0.655823946
v 0.0671790838 -0.882167518 0.655517459
v 0.065304637 -0.88762188 0.655923247
v 0.0665399805 -0.894003153 0.655370533
v 0.064586319 -0.899445117 0.655700862
v 0.0662057325 -0.905840814 0.655506849
v 0.0652275681 -0.908558488 0.655669749
v 0.0652883351 -0.914126635 0.657870829
v 0.066245757 -0.920457006 0.657062709
v 0.0639428794 -0.925859869 0.657062709
v 0.0616630726 -0.931264043 0.657084107
v 0.0659425333 -0.935007989 0.658294678
v 0.063684389 -0.940405548 0.658333182
v 0.0620659888 -0.94583714 0.658965528
v 0.0626133829 -0.952116072 0.657778144
v 0.0688539073 -0.953912735 0.655922115
v 0.0664202794 -0.95527494 0.645968854
v 0.0661962479 -0.956753433 0.638048887
v 0.0784069598 -0.956087887 0.640726686
v 0.0877601206 -0.954546332 0.644608498
v 0.0871822238 -0.9559986 0.636345804
v 0.09967269 -0.955357015 0.639383793
v 0.113347538 -0.95478344 0.643605828
v 0.111511953 -0.955426097 0.637994468
v 0.124561772 -0.954824984 0.641679466
v 0.125165403 -0.952855945 0.637303174
v 0.124116868 -0.947324038 0.634098589
v 0.123763308 -0.941816211 0.631557405
v 0.123156577 -0.938310027 0.633749604
v 0.123076491 -0.932803273 0.631470263
v 0.120542005 -0.92713213 0.626820326
v 0.12357527 -0.921089828 0.631422937
v 0.123160772 -0.915533245 0.62881434
v 0.12349163 -0.909314871 0.630813479
v 0.125779539 -0.90393436 0.630808353
v 0.125011593 -0.900409579 0.632853508
v 0.1272517 -0.895025551 0.632802367
v 0.127099782 -0.88876915 0.634336293
v 0.125876114 -0.883102953 0.630943716
v 0.125346601 -0.877478242 0.628214836
v 0.124523237 -0.873939455 0.630214572
v 0.124216437 -0.868316948 0.62769872
v 0.122906625 -0.862592518 0.624208987
v 0.123233967 -0.856339931 0.626213849
v 0.125539646 -0.850930512 0.626213849
v 0.125866979 -0.844677925 0.62821877
v 0.128172666 -0.839268506 0.62821877
v 0.127347156 -0.835720599 0.630223632
v 0.128913268 -0.830234885 0.629508913
v 0.156759962 -0.828147471 0.650332451
v 0.169552803 -0.827332735 0.657757342
v 0.178615272 -0.826758087 0.65772295
v 0.178495839 -0.827991962 0.649846733
v 0.190190643 -0.827699304 0.652425528
v 0.192053378 -0.83130002 0.651486456
v 0.194441751 -0.837726176 0.652181506
v 0.194660604 -0.843287945 0.654621899
v 0.196474239 -0.846867859 0.653642893
v 0.196657524 -0.85240835 0.656045616
v 0.194428921 -0.857709944 0.656075001
v 0.195994005 -0.864007413 0.655964434
v 0.193737358 -0.869301796 0.655964434
v 0.196081996 -0.872909307 0.65551281
v 0.193826824 -0.878200233 0.65551281
v 0.192551017 -0.883572519 0.656473696
v 0.192712709 -0.889724433 0.654986501
v 0.191845119 -0.895120382 0.656346202
v 0.194493264 -0.901452899 0.657300889
v 0.192243695 -0.906730652 0.657300889
v 0.1935945 -0.912949026 0.656983852
v 0.192666918 -0.915599644 0.657176495
v 0.190733194 -0.920894265 0.657484233
v 0.19283694 -0.927145302 0.657905877
v 0.190929145 -0.932433665 0.658236384
v 0.193020254 -0.935966134 0.657547176
v 0.191029713 -0.941244602 0.657795131
v 0.190559804 -0.946607292 0.659531295
v 0.190829262 -0.952717662 0.658157885
v 0.194132492 -0.954328179 0.653727114
v 0.192356735 -0.955673873 0.644283593
v 0.200755924 -0.954862177 0.643761516
v 0.20292598 -0.956415594 0.638190448
v 0.211385041 -0.954889894 0.641623616
v 0.21522361 -0.956528068 0.637722373
v 0.223924309 -0.955736756 0.637573183
v 0.233812466 -0.954299927 0.642512679
v 0.233518884 -0.955711722 0.634480894
v 0.252049744 -0.955455184 0.644340992
v -0.635412693 -0.912445605 -0.257665187
v -0.633957803 -0.92091167 -0.258429974
v -0.628188968 -0.929570317 -0.254814625
v -0.633219957 -0.936707795 -0.256793022
v -0.630520821 -0.945195377 -0.256290406
v -0.633302927 -0.948755562 -0.257550776
v -0.630886674 -0.957215369 -0.257333219
v -0.635761619 -0.964369059 -0.259156048
v -0.631040275 -0.969230473 -0.258159906
v -0.634655535 -0.976427138 -0.258707762
v -0.633197963 -0.98482281 -0.259460181
v -0.636271536 -0.99203378 -0.259460181
v -0.635399818 -1.00040078 -0.260805964
v -0.633131742 -1.00879133 -0.260732651
v -0.636682987 -1.01235056 -0.262778312
v -0.622334838 -1.01115358 -0.260440111
v -0.635158896 -1.01666963 -0.282671928
v -0.631653488 -1.02145255 -0.282893836
v -0.634291232 -1.02868092 -0.28244409
v -0.620821118 -1.03720629 -0.270904422
v -0.625273049 -1.04438031 -0.272321701
v -0.621194184 -1.04912448 -0.271939069
v -0.634759605 -1.05623794 -0.282666892
v -0.633874238 -1.06457627 -0.28398788
v -0.632161498 -1.072909 -0.284460813
v -0.633431613 -1.07650959 -0.284190327
v -0.636048853 -1.08370936 -0.283728808
v -0.634999514 -1.09202445 -0.284879386
v -0.619599879 -1.10022962 -0.271351308
v -0.621125817 -1.10380971 -0.271351308
v -0.627561331 -1.11100531 -0.274806857
v -0.63455534 -1.11937666 -0.284167767
v -0.634848118 -1.12767673 -0.286684781
v -0.636603713 -1.1348356 -0.28535071
v -0.63520813 -1.13953865 -0.287704796
v -0.619619131 -1.13801897 -0.283982217
v -0.614493489 -1.14025295 -0.289402574
v -0.600143611 -1.13875771 -0.28686294
v -0.597531736 -1.139871 -0.289509833
v -0.584178984 -1.13839805 -0.287934244
v -0.580613196 -1.14065313 -0.29493475
v -0.574600697 -1.13932538 -0.300976694
v -0.569790423 -1.13802028 -0.308288068
v -0.564353943 -1.13907683 -0.307957083
v -0.550400138 -1.13759458 -0.305612504
v -0.546669543 -1.13984191 -0.312446415
v -0.52649039 -1.13823628 -0.303397894
v -0.524283826 -1.13934851 -0.306434155
v -0.510031343 -1.1378653 -0.303596973
v -0.511143565 -1.14019799 -0.315582871
v -0.495955348 -1.13754165 -0.306276262
v -0.492239743 -1.13977158 -0.313069433
v -0.478279501 -1.13829589 -0.310401589
v -0.474183977 -1.1405139 -0.316771775
v -0.450664818 -1.13884223 -0.303587437
v -0.444046646 -1.13752341 -0.308781117
v -0.441484183 -1.13861561 -0.311377972
v -0.436359257 -1.1408 -0.316571653
v -0.418482572 -1.13924658 -0.309320003
v -0.40185076 -1.1377275 -0.303354293
v -0.400239021 -1.13883126 -0.306968629
v -0.400640309 -1.14111924 -0.318249971
v -0.384615064 -1.13960683 -0.312849313
v -0.370774925 -1.13814747 -0.309823036
v -0.371054471 -1.14042389 -0.320992708
v -0.352400303 -1.13773 -0.307029814
v -0.348664284 -1.13991249 -0.313645184
v -0.334619045 -1.13845229 -0.310214907
v -0.337079138 -1.1407665 -0.323892862
v -0.311119974 -1.13792312 -0.301326156
v -0.316282183 -1.14028513 -0.318098783
v -0.295594156 -1.13868368 -0.306850553
v -0.294003338 -1.14089549 -0.315882146
v -0.282927245 -1.13950372 -0.315626979
v -0.256658703 -1.13778877 -0.297624737
v -0.259303093 -1.13896096 -0.306133837
v -0.244748846 -1.13750422 -0.301665455
v -0.240763709 -1.13964331 -0.307854086
v -0.231633618 -1.13830519 -0.309686989
v -0.230009213 -1.13938224 -0.313216358
v -0.214147821 -1.13789737 -0.30703336
v -0.211206838 -1.14005232 -0.314439237
v -0.19738403 -1.13861227 -0.310577899
v -0.195773318 -1.13968432 -0.31410867
v -0.177130327 -1.13813961 -0.304372579
v -0.181330994 -1.14044654 -0.320355773
v -0.161687344 -1.13887548 -0.309286296
v -0.170374855 -1.14128816 -0.330783814
v -0.146363333 -1.13851023 -0.308802187
v -0.152502894 -1.14085758 -0.327252209
v -0.12989454 -1.13921642 -0.312297881
v -0.114741527 -1.1377579 -0.306367725
v -0.113879509 -1.13883269 -0.31077835
v -0.115674712 -1.14107025 -0.323974341
v -0.0951697156 -1.13947892 -0.311294466
v -0.0646990538 -1.13766968 -0.286047012
v -0.056543842 -1.13964283 -0.286749989
v -0.0442721322 -1.13826251 -0.284011573
v -0.0418726243 -1.13928533 -0.286443263
v -0.0225396473 -1.1377418 -0.274710953
v -0.0177652184 -1.13977683 -0.27954945
v -0.0118277408 -1.13748002 -0.279225439
v -0.00743036345 -1.13952231 -0.284535348
v 0.0031200021 -1.13818967 -0.283753067
v 0.00739938347 -1.14023173 -0.289200574
v 0.0169199184 -1.13785315 -0.284213036
v 0.0169664174 -1.13999546 -0.295107394
v 0.0320247561 -1.13855326 -0.288382351
v 0.0359535143 -1.14059627 -0.294252425
v 0.0514191538 -1.13914371 -0.28686893
v 0.0599806197 -1.13786721 -0.288441718
v 0.0561454408 -1.13902736 -0.298974782
v 0.0622609966 -1.13780856 -0.303774059
v 0.0630009323 -1.13992774 -0.313860208
v 0.0767157897 -1.13745391 -0.303054273
v 0.0794811621 -1.13951695 -0.310448378
v 0.0919834301 -1.13814187 -0.306694418
v 0.0932226777 -1.14024091 -0.316133291
v 0.111272961 -1.13872457 -0.304834008
v 0.108284295 -1.14092791 -0.31997779
v 0.124560907 -1.138394 -0.305385798
v 0.124389961 -1.14051974 -0.31673947
v 0.135306567 -1.13918614 -0.314890891
v 0.151752055 -1.13771749 -0.305420637
v 0.154086664 -1.13871253 -0.307786584
v 0.175108686 -1.13713312 -0.291877031
v 0.176690683 -1.13919055 -0.300803185
v 0.191525206 -1.13776839 -0.293256253
v 0.19100064 -1.13882887 -0.299545586
v 0.200256884 -1.13755238 -0.299676716
v 0.203619823 -1.13955832 -0.306136072
v 0.211365774 -1.13832068 -0.308344483
v 0.214228526 -1.14034033 -0.315520018
v 0.225919813 -1.13795257 -0.306519032
v 0.2237764 -1.14010167 -0.320779145
v 0.242197365 -1.13858008 -0.307744652
v 0.23788783 -1.14078677 -0.325144142
v 0.259104639 -1.1381464 -0.302332371
v 0.260056764 -1.1402005 -0.31219992
v 0.271968573 -1.13885689 -0.30822131
v 0.274173677 -1.14087546 -0.316301912
v 0.284986347 -1.13956106 -0.313835323
v 0.296058565 -1.13824391 -0.310931921
v 0.297276765 -1.13924599 -0.31480065
v 0.317374617 -1.13768637 -0.298575819
v 0.307740241 -1.14001727 -0.324056149
v 0.331262469 -1.13835657 -0.30260703
v 0.327509254 -1.1394906 -0.31382212
v 0.342075199 -1.13808191 -0.30547902
v 0.33875519 -1.14023399 -0.321778834
v 0.352442622 -1.13884604 -0.314649552
v 0.352307558 -1.14090967 -0.326246023
v 0.369658679 -1.13839042 -0.307786077
v 0.366686672 -1.14052761 -0.323669344
v 0.385466844 -1.13899481 -0.308583409
v 0.399094224 -1.13761866 -0.301198602
v 0.398352534 -1.13865793 -0.308023542
v 0.398011357 -1.14071155 -0.319969267
v 0.411592811 -1.13932908 -0.312542796
v 0.423232853 -1.13800943 -0.308020055
v 0.424668521 -1.1389842 -0.311517388
v 0.424091429 -1.14103961 -0.323886991
v 0.434903741 -1.13973856 -0.320571005
v 0.44844079 -1.138363 -0.312917948
v 0.445138961 -1.14049304 -0.329624593
v 0.464491636 -1.13793099 -0.306941658
v 0.454091102 -1.1402669 -0.334910661
v 0.482910484 -1.13843489 -0.302796572
v 0.477182001 -1.14062726 -0.323448986
v 0.493219197 -1.13816845 -0.305671543
v 0.491725922 -1.14022899 -0.319611639
v 0.503323793 -1.13891327 -0.314609617
v 0.512199998 -1.13768399 -0.313931406
v 0.51342845 -1.13965809 -0.323547691
v 0.525788486 -1.13832188 -0.317149103
v 0.527040362 -1.13928759 -0.320920974
v 0.542573154 -1.13785815 -0.309213847
v 0.537706077 -1.14001191 -0.328862667
v 0.550411463 -1.13766468 -0.315865338
v 0.575916708 -1.13886917 -0.28530854
v 0.586942911 -1.1375879 -0.280654818
v 0.588440835 -1.13951743 -0.289733976
v 0.598560572 -1.13826287 -0.286510199
v 0.600717008 -1.13918197 -0.288695544
v 0.61001724 -1.13795519 -0.286775291
v 0.613741219 -1.13980877 -0.292119861
v 0.621762216 -1.13862216 -0.292301446
v 0.626062453 -1.14045513 -0.29665938
v 0.630293727 -1.13840556 -0.2974222
v 0.630257726 -1.1403805 -0.309215963
v 0.631089509 -1.13942552 -0.321736336
v 0.634507358 -1.13739359 -0.32392478
v 0.630018771 -1.13560224 -0.339806467
v 0.630254149 -1.12973559 -0.343781173
v 0.632476985 -1.12380648 -0.344315201
v 0.632836282 -1.11694348 -0.342114568
v 0.63060987 -1.11012435 -0.34439984
v 0.630541623 -1.10421503 -0.348920882
v 0.628911734 -1.10031855 -0.347965866
v 0.629272163 -1.0934341 -0.345758379
v 0.631810844 -1.08747804 -0.345758379
v 0.630901873 -1.08357167 -0.343550891
v 0.633440554 -1.07761562 -0.343550891
v 0.633800983 -1.07073116 -0.341343433
v 0.634161413 -1.06384671 -0.339135945
v 0.629787266 -1.05781782 -0.351148158
v 0.630433619 -1.05391669 -0.346227407
v 0.630795062 -1.04701281 -0.344013691
v 0.631784678 -1.04100966 -0.34671706
v 0.632429421 -1.03712237 -0.341799974
v 0.633420408 -1.03111124 -0.344501525
v 0.633782148 -1.02420163 -0.342285991
v 0.634143889 -1.0172919 -0.340070426
v 0.635417879 -1.01430309 -0.340070426
v 0.63577956 -1.00739348 -0.337854892
v 0.6361413 -1.00048387 -0.335639358
v 0.63868928 -0.994506061 -0.335639358
v 0.63777703 -0.990585327 -0.333423823
v 0.638138771 -0.983675718 -0.331208259
v 0.633474767 -0.977315485 -0.34373638
v 0.63748318 -0.973650992 -0.332968384
v 0.635116756 -0.967379153 -0.341512382
v 0.635479867 -0.960443139 -0.339288384
v 0.635842979 -0.953507125 -0.337064385
v 0.63620609 -0.946571112 -0.334840357
v 0.635580838 -0.943435609 -0.338146091
v 0.635897577 -0.936489165 -0.336001009
v 0.636261046 -0.929545999 -0.333774716
v 0.633351386 -0.926207423 -0.341046602
v 0.634138346 -0.919284225 -0.338082194
v 0.635537446 -0.91316402 -0.340108216
v 0.635362983 -0.909280241 -0.336584151
v 0.636662602 -0.903143227 -0.338784367
v 0.637027144 -0.896180034 -0.336551636
v 0.63791424 -0.889268935 -0.333411872
v 0.638661385 -0.882347226 -0.330515862
v 0.639040112 -0.879241526 -0.332086176
v 0.639404595 -0.872278333 -0.329853445
v 0.639769137 -0.865315139 -0.327620715
v 0.636981845 -0.861838222 -0.334686548
v 0.637347162 -0.854860008 -0.332449019
v 0.63327229 -0.848016798 -0.343997419
v 0.633638918 -0.841014028 -0.341751993
v 0.633357942 -0.833927929 -0.340630382
v 0.634649575 -0.830897689 -0.340630382
v 0.635016263 -0.823892534 -0.338384211
v 0.63538301 -0.816887319 -0.33613801
v 0.63532871 -0.813669324 -0.338474572
v 0.635707319 -0.806660831 -0.336206704
v 0.637518048 -0.800482512 -0.337552071
v 0.63659215 -0.796503127 -0.335303366
v 0.636959314 -0.789490163 -0.333054692
v 0.635468781 -0.782787681 -0.340135992
v 0.636987448 -0.77594316 -0.335884541
v 0.637407362 -0.768927813 -0.333541751
v 0.633334816 -0.765003741 -0.342862815
v 0.637868404 -0.758663118 -0.333375394
v 0.639385641 -0.75183332 -0.329128027
v 0.634203255 -0.74766618 -0.340373039
v 0.636336505 -0.740932286 -0.335051805
v 0.636253774 -0.734354258 -0.339707226
v 0.636622906 -0.727302849 -0.337446213
v 0.636034727 -0.723365903 -0.334590644
v 0.637669861 -0.71708256 -0.336266249
v 0.635662675 -0.709566593 -0.338130444
v 0.637056351 -0.702707112 -0.334089011
v 0.635118484 -0.699005663 -0.33971417
v 0.637630403 -0.692371368 -0.333729595
v 0.63800019 -0.685308516 -0.331464916
v 0.632696867 -0.677528679 -0.345202297
v 0.636228621 -0.674456596 -0.335175276
v 0.63437587 -0.667368293 -0.342928141
v 0.634747148 -0.660275877 -0.340653986
v 0.638119221 -0.657209992 -0.330906242
v 0.636426151 -0.65011549 -0.33837983
v 0.636797428 -0.643023074 -0.336105675
v 0.637168765 -0.635930657 -0.333831519
v 0.638476431 -0.632862747 -0.333831519
v 0.638847709 -0.62577033 -0.331557363
v 0.638168752 -0.618422687 -0.331105143
v 0.631587327 -0.610015154 -0.347084165
v 0.63246429 -0.606420875 -0.341642499
v 0.63327539 -0.599799573 -0.344797671
v 0.633648753 -0.592668653 -0.342511147
v 0.633530617 -0.588834822 -0.338796467
v 0.635336816 -0.582453132 -0.340224653
v 0.63571018 -0.575322211 -0.33793813
v 0.636083484 -0.56819123 -0.335651636
v 0.636456788 -0.561060309 -0.333365142
v 0.63583523 -0.55744338 -0.336725861
v 0.635620475 -0.550141096 -0.335457832
v 0.632228315 -0.542262077 -0.345924586
v 0.631786406 -0.538340747 -0.342753589
v 0.633924067 -0.532000303 -0.343627751
v 0.63429904 -0.524837077 -0.341330886
v 0.633353353 -0.520772457 -0.339034021
v 0.63584429 -0.51453054 -0.339295417
v 0.635453999 -0.507136047 -0.33832714
v 0.635829151 -0.499969363 -0.336029172
v 0.635549784 -0.492600322 -0.334866464
v 0.634952545 -0.48890236 -0.338197201
v 0.635328233 -0.481725931 -0.335896105
v 0.632459521 -0.473760486 -0.345476419
v 0.634844363 -0.470745534 -0.337382138
v 0.631018221 -0.462429821 -0.34863326
v 0.631395638 -0.45522052 -0.346321613
v 0.631972969 -0.448077589 -0.343662977
v 0.635094821 -0.441790849 -0.33659026
v 0.633479714 -0.437683374 -0.341698349
v 0.633857131 -0.430474043 -0.339386702
v 0.634521186 -0.423548102 -0.342852265
v 0.633568347 -0.419452995 -0.340538204
v 0.63440311 -0.41239661 -0.33743149
v 0.636607409 -0.405992478 -0.338224113
v 0.636985242 -0.398775548 -0.335910052
v 0.637363076 -0.391558647 -0.333595961
v 0.63869369 -0.388436824 -0.333595961
v 0.639071524 -0.381219923 -0.3312819
v 0.639449358 -0.374003023 -0.32896781
v 0.638410866 -0.369994074 -0.333080679
v 0.638789177 -0.362768114 -0.330763698
v 0.632296383 -0.353016704 -0.346675664
v 0.636809111 -0.350998551 -0.334851921
v 0.637188137 -0.343758464 -0.332530409
v 0.634395421 -0.335353762 -0.34201923
v 0.634775579 -0.328092724 -0.339691013
v 0.635155678 -0.320831686 -0.337362796
v 0.636494458 -0.31769079 -0.337362796
v 0.636874616 -0.310429782 -0.335034579
v 0.637254715 -0.303168744 -0.332706332
v 0.635561585 -0.298780203 -0.33796978
v 0.633723736 -0.290585846 -0.339487374
v 0.633884072 -0.283212036 -0.337535709
v 0.635182738 -0.276325136 -0.339943767
v 0.63422066 -0.272190034 -0.337607086
v 0.631965637 -0.263764292 -0.346192032
v 0.637289405 -0.258598059 -0.335270405
v 0.637670934 -0.251310676 -0.332933754
v 0.633705199 -0.245827302 -0.342153549
v 0.634682 -0.238782704 -0.338778913
v 0.63533181 -0.231596604 -0.335972697
v 0.635817766 -0.228050426 -0.337467074
v 0.636200309 -0.220742568 -0.335123837
v 0.635284364 -0.212770596 -0.341397792
v 0.635370731 -0.205311924 -0.339565814
v 0.635693073 -0.201753259 -0.33498162
v 0.635720789 -0.194175452 -0.339620888
v 0.636036098 -0.186814934 -0.337389767
v 0.636267066 -0.179413855 -0.335304856
v 0.637050629 -0.17597279 -0.336290747
v 0.637434423 -0.168641418 -0.33393997
v 0.637818277 -0.161310032 -0.331589192
v 0.633224964 -0.151401058 -0.344265044
v 0.639553785 -0.150807321 -0.329238415
v 0.634967208 -0.140857756 -0.341905206
v 0.635352552 -0.133498028 -0.339545339
v 0.634380877 -0.129321903 -0.337185472
v 0.636500359 -0.122654676 -0.338217944
v 0.636885822 -0.115292653 -0.335857362
v 0.637271225 -0.107930623 -0.333496749
v 0.633394599 -0.0983660519 -0.338527918
v 0.634392858 -0.0949863866 -0.339156479
v 0.634007514 -0.0872028619 -0.338128805
v 0.635372937 -0.0801003724 -0.340486258
v 0.635254025 -0.0763610452 -0.336631089
v 0.633459926 -0.0675640181 -0.344480127
v 0.633847475 -0.0601613782 -0.342106491
v 0.635382295 -0.0573149659 -0.335375547
v 0.635599852 -0.0495565869 -0.339732856
v 0.635987401 -0.0421539508 -0.33735925
v 0.63591212 -0.0344961733 -0.335788786
v 0.633956969 -0.0254879817 -0.343930721
v 0.632977009 -0.0212760549 -0.341550648
v 0.633365631 -0.0138532501 -0.339170545
v 0.632222831 -0.00523712672 -0.345910549
v 0.631753385 -0.00130744069 -0.342636317
v 0.633983612 0.00541835465 -0.343525589
v 0.634373009 0.0128563764 -0.341140628
v 0.634762406 0.0202943981 -0.338755637
v 0.635151803 0.0277324189 -0.336370677
v 0.636523247 0.0309498776 -0.336370677
v 0.636912644 0.0383878984 -0.333985686
v 0.630914867 0.0500172563 -0.349173844
v 0.634555161 0.0514987521 -0.338747948
v 0.634945393 0.0589529797 -0.336357802
v 0.633074999 0.0681944788 -0.344381809
v 0.633189976 0.0717665404 -0.340074807
v 0.634843946 0.0788992643 -0.341985822
v 0.635235131 0.0863716975 -0.339589804
v 0.635626376 0.0938441306 -0.337193787
v 0.635971427 0.101345301 -0.334877789
v 0.633838415 0.106772557 -0.340972632
v 0.634242773 0.114251196 -0.338550478
v 0.634055257 0.122595921 -0.343673348
v 0.635458171 0.125329942 -0.33711642
v 0.636394501 0.132470459 -0.33377111
v 0.636222839 0.140835583 -0.338864863
v 0.636615396 0.148333699 -0.33646062
v 0.636896491 0.155904472 -0.334249765
v 0.634087682 0.161890671 -0.341528237
v 0.634481132 0.169405848 -0.33911851
v 0.634874582 0.176921025 -0.336708814
v 0.636017263 0.180333346 -0.337130517
v 0.636653602 0.187687039 -0.334299088
v 0.635481834 0.196843445 -0.341150522
v 0.637542427 0.199054107 -0.333434314
v 0.636600316 0.207480192 -0.333340347
v 0.634927154 0.2170306 -0.341066271
v 0.634444654 0.225175813 -0.340171218
v 0.634839654 0.232721046 -0.337751865
v 0.634168088 0.237416878 -0.341333777
v 0.634563565 0.244970337 -0.338911802
v 0.634958982 0.25252378 -0.336489797
v 0.633725107 0.257642239 -0.341049403
v 0.63412106 0.265206188 -0.33862406
v 0.634721041 0.273311824 -0.342428118
v 0.635117471 0.280884504 -0.339999974
v 0.634309769 0.285043329 -0.337238729
v 0.632525444 0.294907242 -0.34518829
v 0.634711266 0.301195264 -0.339649439
v 0.635861158 0.308227062 -0.335911572
v 0.634895444 0.313241899 -0.340015411
v 0.635958314 0.320339829 -0.336426795
v 0.636531353 0.327796072 -0.333689064
v 0.63198483 0.33984822 -0.346446931
v 0.637061119 0.339612454 -0.333453208
v 0.633773148 0.350769132 -0.344030261
v 0.634171844 0.358384848 -0.341588318
v 0.634570539 0.366000563 -0.339146376
v 0.635169506 0.369910538 -0.340545058
v 0.636373401 0.376910597 -0.336704433
v 0.634876907 0.385991216 -0.337550968
v 0.635082066 0.39021945 -0.339635432
v 0.635481417 0.397847652 -0.337189496
v 0.633289218 0.408371598 -0.345888942
v 0.633689642 0.416019976 -0.343436509
v 0.634805441 0.41868031 -0.337296277
v 0.635500193 0.4269768 -0.340984076
v 0.635900617 0.434625179 -0.338531673
v 0.634451926 0.443758845 -0.339288682
v 0.632648706 0.449660391 -0.344872713
v 0.631639302 0.458471835 -0.344863117
v 0.632041097 0.46614638 -0.342402309
v 0.633236706 0.474124134 -0.345242411
v 0.633365273 0.477544963 -0.340796351
v 0.633890867 0.485119492 -0.338120371
v 0.635457218 0.492809147 -0.340316504
v 0.634614646 0.497025073 -0.337556034
v 0.634289503 0.506309927 -0.343041897
v 0.63704294 0.512027621 -0.336492926
v 0.638079822 0.519175351 -0.332927704
v 0.636513531 0.525024414 -0.338108242
v 0.63691628 0.532717764 -0.335641414
v 0.638128817 0.539718211 -0.331769556
v 0.631642759 0.554391563 -0.347968012
v 0.633072317 0.556664288 -0.341238469
v 0.633476317 0.564382315 -0.338763714
v 0.633876741 0.573190391 -0.343012094
v 0.635303438 0.575438917 -0.336288959
v 0.635706186 0.584261298 -0.340534151
v 0.636110783 0.591989279 -0.338056207
v 0.636515319 0.599717259 -0.335578263
v 0.636919916 0.60744524 -0.333100289
v 0.638344765 0.610788167 -0.333100289
v 0.638749361 0.618516147 -0.330622345
v 0.63174808 0.634091973 -0.347740114
v 0.638912678 0.631093681 -0.331035852
v 0.639154196 0.638976991 -0.328839153
v 0.632933974 0.653957129 -0.344599307
v 0.633340895 0.661729753 -0.342107058
v 0.633888423 0.669372797 -0.339370757
v 0.63518095 0.672864676 -0.339614779
v 0.635587871 0.68063736 -0.3371225
v 0.635994732 0.688410044 -0.334630221
v 0.636613071 0.692534626 -0.336044639
v 0.636166692 0.701112866 -0.335032046
v 0.63233453 0.714175344 -0.346675903
v 0.631303787 0.71860534 -0.344172567
v 0.63217932 0.72596848 -0.340859622
v 0.634591401 0.733166695 -0.341669261
v 0.63500011 0.74097383 -0.339165926
v 0.635408819 0.748780966 -0.33666262
v 0.636848271 0.752158046 -0.33666262
v 0.63725704 0.759965181 -0.334159285
v 0.636369884 0.769037068 -0.33390379
v 0.634822488 0.77534008 -0.339090437
v 0.635161459 0.783234358 -0.336704075
v 0.632587552 0.795397639 -0.346190482
v 0.631481647 0.804750443 -0.346308291
v 0.631962299 0.807698369 -0.341157794
v 0.632093191 0.817248464 -0.345957279
v 0.632504642 0.825107634 -0.343437254
v 0.632916093 0.832966805 -0.340917259
v 0.634365141 0.836366415 -0.340917259
v 0.634776533 0.844225526 -0.338397264
v 0.635187984 0.852084696 -0.33587724
v 0.636637032 0.855484307 -0.33587724
v 0.637048483 0.863343477 -0.333357245
v 0.633008122 0.877298713 -0.345413506
v 0.633421063 0.885186732 -0.342884243
v 0.637572169 0.884275258 -0.331349313
v 0.633260489 0.898601413 -0.343877554
v 0.632753968 0.907461166 -0.342942566
v 0.63204205 0.916544974 -0.342362285
v 0.629889607 0.923769712 -0.348630667
v 0.630304277 0.931689739 -0.346091121
v 0.633036971 0.938741505 -0.346417636
v 0.633639455 0.946461737 -0.343551576
v 0.632593811 0.950955808 -0.341012061
v 0.635514379 0.957807779 -0.341012061
v 0.635928988 0.965727806 -0.338472515
v 0.636343598 0.973647892 -0.33593297
v 0.637803912 0.977073848 -0.33593297
v 0.638218522 0.984993875 -0.333393455
v 0.638633132 0.992913961 -0.330853909
v 0.635863781 1.00098515 -0.338198364
v 0.636279285 1.00892293 -0.335653126
v 0.633317053 1.02231586 -0.345889628
v 0.633733869 1.03027833 -0.343336493
v 0.633785784 1.03356743 -0.338869572
v 0.635618865 1.04168522 -0.340783328
v 0.63603574 1.04964769 -0.338230163
v 0.636728466 1.0572989 -0.335198194
v 0.637920678 1.06105459 -0.335677028
v 0.637327611 1.07016408 -0.334877074
v 0.636102021 1.08000374 -0.335172623
v 0.634508789 1.09209561 -0.343050778
v 0.634950399 1.0949136 -0.337890208
v 0.636215746 1.10375941 -0.340809762
v 0.63595289 1.11254144 -0.339430243
v 0.635578871 1.11628878 -0.335683525
v 0.633893788 1.12859905 -0.343733042
v 0.632224977 1.13905334 -0.344790161
v 0.633339405 1.14436722 -0.33404699
v 0.634538829 1.14626157 -0.327575922
v 0.635261118 1.14681613 -0.315018952
v 0.633429468 1.14707851 -0.311267346
v 0.632413566 1.14967227 -0.301760674
v 0.632259846 1.14608932 -0.288308978
v 0.623983383 1.14687753 -0.286240548
v 0.618727088 1.1459918 -0.285846025
v 0.609546125 1.14779997 -0.285252303
v 0.6055547 1.14542711 -0.282696635
v 0.595264494 1.14333224 -0.281440079
v 0.58820051 1.14446986 -0.283991814
v 0.578857124 1.14637601 -0.283527434
v 0.574047744 1.14490414 -0.282285154
v 0.574397564 1.13602555 -0.283580869
v 0.571142197 1.12944329 -0.284082443
v 0.550439239 1.14582467 -0.309005082
v 0.54079324 1.14276004 -0.306381643
v 0.53374505 1.14886308 -0.311130017
v 0.52052027 1.14971387 -0.314245671
v 0.516454518 1.14729691 -0.311642408
v 0.509107828 1.14675915 -0.307584047
v 0.503782213 1.14572322 -0.307003111
v 0.495264888 1.14645219 -0.304793417
v 0.48282212 1.14627898 -0.306411624
v 0.478411853 1.14420795 -0.304318637
v 0.47045958 1.14596164 -0.307826668
v 0.457135469 1.14662123 -0.310680658
v 0.448311418 1.14756906 -0.308768719
v 0.4427405 1.1466924 -0.308429658
v 0.438298672 1.14460564 -0.306319863
v 0.429679066 1.1452986 -0.30402714
v 0.423862934 1.14465332 -0.304027498
v 0.412296563 1.14326072 -0.303883374
v 0.404274881 1.14489055 -0.307220727
v 0.391584575 1.14975131 -0.311010242
v 0.386882305 1.14787281 -0.309212476
v 0.377582729 1.14399672 -0.305444151
v 0.372071445 1.142941 -0.30485329
v 0.362751067 1.14421237 -0.303377271
v 0.356433123 1.14396012 -0.303962708
v 0.345435768 1.14174962 -0.302640676
v 0.336543947 1.14407122 -0.307002455
v 0.324454695 1.14805198 -0.309473932
v 0.319028825 1.1468215 -0.308634281
v 0.309036046 1.14347851 -0.30566591
v 0.305176854 1.1458205 -0.304763585
v 0.292681575 1.14493728 -0.305396795
v 0.285519093 1.14538395 -0.30701685
v 0.273648441 1.1438067 -0.306644708
v 0.267512232 1.14836395 -0.308961153
v 0.255618095 1.14674628 -0.308532149
v 0.249168366 1.14641273 -0.30901596
v 0.240322962 1.14693677 -0.306382746
v 0.234658316 1.14581585 -0.305713564
v 0.223822072 1.14307415 -0.303646952
v 0.218435287 1.14166307 -0.302556157
v 0.202482358 1.14893746 -0.309790701
v 0.198191658 1.14644408 -0.307118893
v 0.185168624 1.14567077 -0.307946384
v 0.180159956 1.14384353 -0.30625242
v 0.168873832 1.1413697 -0.304597139
v 0.16160199 1.14681888 -0.308158636
v 0.151514187 1.14316809 -0.304782569
v 0.144043103 1.14359736 -0.306399196
v 0.138638213 1.14209008 -0.305180043
v 0.128506705 1.14359832 -0.303939432
v 0.123655573 1.1453805 -0.297668606
v 0.123528786 1.14796007 -0.287173361
v 0.117465138 1.14705384 -0.286816239
v 0.320981562 0.952099264 -0.00015580254
v 0.327227801 0.949831545 0.0120592518
v 0.330759704 0.9488253 0.0263970215
v 0.334150374 0.947935045 0.0404863097
v 0.333128154 0.952328563 0.0429689884
v 0.335110545 0.948061049 0.0570060611
v 0.333079487 0.952159524 0.063834846
v 0.330920726 0.951726019 0.0723441541
v 0.328717023 0.955980003 0.0789163262
v 0.329697371 0.953861892 0.0858328417
v 0.325411618 0.955401063 0.0915136635
v 0.324931353 0.95343399 0.102103837
v 0.320985496 0.954666972 0.108190909
v 0.317495048 0.955483139 0.114852436
v 0.314770073 0.955599189 0.12247742
v 0.310425133 0.952603698 0.129814491
v 0.30578208 0.954486609 0.134968758
v 0.301100671 0.956404984 0.140072703
v 0.298897147 0.952647626 0.144569576
v 0.294012576 0.95475316 0.149408996
v 0.289176762 0.956814349 0.154309705
v 0.283424646 0.955123782 0.159822375
v 0.27740711 0.953675747 0.165001333
v 0.272055745 0.956202388 0.169263631
v 0.268520355 0.953665793 0.172071457
v 0.262274742 0.956993222 0.175244704
v 0.255522907 0.956199706 0.179532841
v 0.251989007 0.953659594 0.182343647
v 0.245436564 0.952685356 0.186878443
v 0.23796238 0.952526271 0.190306723
v 0.228391141 0.954212427 0.191234559
v 0.224839017 0.956241488 0.192341968
v 0.216562882 0.952202797 0.196545422
v 0.211914957 0.955186605 0.196364582
v 0.200836748 0.953576148 0.19727838
v 0.189328879 0.956870675 0.196057528
v 0.185471192 0.954577267 0.198527589
v 0.181410789 0.952459276 0.200760365
v 0.165444329 0.95496887 0.196091756
v 0.161572799 0.952667296 0.198570684
v 0.156254843 0.947039366 0.201025292
v 0.253140002 0.866715074 0.321821421
v 0.250797212 0.86771363 0.324195653
v 0.250772744 0.870095372 0.332728982
v 0.251948595 0.872447431 0.337567776
v 0.250208467 0.87192893 0.345656991
v 0.250526309 0.87400341 0.354516834
v 0.240818545 0.875953972 0.355058968
v 0.235978186 0.874733448 0.356128931
v 0.235038325 0.873550117 0.365064919
v 0.234065399 0.877731621 0.367427826
v 0.224700049 0.879371703 0.368409634
v 0.220205918 0.882200122 0.368362814
v 0.213932231 0.877830088 0.369380325
v 0.169935808 0.9041785 0.333550632
v 0.15677923 0.914245605 0.324028373
v 0.16241692 0.899708569 0.338364959
v 0.190778568 0.874088347 0.379564017
v 0.17646116 0.888480484 0.372265607
v 0.185117036 0.880285263 0.386684656
v 0.193331227 0.871515512 0.405477315
v 0.191333234 0.871282578 0.413084328
v 0.196571887 0.869319856 0.427029252
v 0.194554701 0.869111359 0.434548587
v 0.188650236 0.87644136 0.436426163
v 0.17610687 0.889327884 0.431218386
v 0.175851554 0.88858819 0.435789675
v 0.186764449 0.877575755 0.457059741
v 0.192025319 0.871303022 0.472212642
v 0.194552749 0.871575117 0.482987881
v 0.191348076 0.872376084 0.489094973
v 0.189735442 0.876098156 0.495459914
v 0.191797629 0.87343967 0.502339482
v 0.177911565 0.887415111 0.495869607
v 0.187621832 0.877425909 0.515394747
v 0.191043362 0.872706771 0.528294563
v 0.191350102 0.874807537 0.536552608
v 0.192090124 0.872333884 0.546591341
v 0.19024843 0.872021258 0.553944588
v 0.188990533 0.876344204 0.555919707
v 0.191257894 0.872603059 0.567435026
v 0.184590563 0.880512059 0.568493009
v 0.190162987 0.874013603 0.583288789
v 0.19042173 0.871961832 0.592652261
v 0.189483911 0.875992537 0.594929934
v 0.189050585 0.874519169 0.603556275
v 0.189684108 0.876313329 0.611913204
v 0.188787043 0.875232339 0.620018721
v 0.185617238 0.880196631 0.624551833
v 0.185871303 0.879069626 0.629283905
v 0.17507498 0.890409172 0.626284003
v 0.185804978 0.879609942 0.645779371
v 0.181606606 0.877169967 0.65181309
v 0.175829366 0.876949251 0.651867449
v 0.155401587 0.887957335 0.642121673
v 0.146220401 0.890502453 0.638932049
v 0.125246435 0.90602088 0.627571225
v 0.125319183 0.908332586 0.635312676
v 0.125889137 0.906057239 0.644770503
v 0.124512792 0.909557819 0.651078045
v 0.124166623 0.908043087 0.659603477
v 0.124803074 0.909873068 0.6677894
v 0.123414479 0.910122037 0.670876086
v 0.112432964 0.909085989 0.67177254
v 0.107557543 0.908051133 0.672812641
v 0.102336146 0.907293856 0.673534513
v 0.0887368172 0.908328176 0.672056198
v 0.0944553539 0.898661196 0.682990074
v 0.0722741708 0.910759866 0.67237407
v 0.067698203 0.90943259 0.673749387
v 0.0558735505 0.908913195 0.674055099
v 0.0503894761 0.908296168 0.674616694
v 0.0379784442 0.908189654 0.674448133
v 0.0306152087 0.909041405 0.673326969
v 0.0240960401 0.909208477 0.672989488
v 0.0130414208 0.907941937 0.67414695
v 0.00521096867 0.909110665 0.672661304
v -0.00622355612 0.908087075 0.673538804
v -0.012953409 0.908354163 0.673084795
v -0.0222905483 0.905646503 0.675890326
v -0.0310978312 0.907496452 0.673621774
v -0.0393294953 0.908881009 0.671885967
v -0.0377790928 0.897730589 0.684365809
v -0.0565795712 0.907211602 0.67334944
v -0.0682557523 0.906192839 0.674215972
v -0.0735077038 0.905224264 0.67517525
v -0.0808117986 0.905809641 0.674352825
v -0.0917736292 0.908382893 0.674742043
v -0.10712456 0.910037518 0.672550619
v -0.111437567 0.908312678 0.674376428
v -0.119042486 0.909055769 0.673376203
v -0.126084417 0.905148208 0.674042344
v -0.114692427 0.888258994 0.686123729
v -0.112908773 0.879305363 0.685625315
v -0.11561586 0.87295419 0.685625315
v -0.114646651 0.8687886 0.683271408
v -0.124581113 0.868452728 0.672725976
v -0.127297983 0.862078667 0.672725976
v -0.157813787 0.875212669 0.653330028
v -0.163870916 0.87468946 0.653727353
v -0.170278281 0.874411106 0.653836548
v -0.182068959 0.873088121 0.654954374
v -0.189021364 0.873173714 0.654634356
v -0.191236421 0.866322279 0.655090213
v -0.189576432 0.857390702 0.654425621
v -0.191371441 0.850252807 0.655233324
v -0.188328698 0.844562292 0.654577374
v -0.190776408 0.837897658 0.654832304
v -0.188454643 0.828538239 0.654730976
v -0.191351995 0.822198749 0.654604077
v -0.189506158 0.813193738 0.654102683
v -0.192174718 0.806701303 0.654166937
v -0.188981593 0.800949693 0.653646886
v -0.172904104 0.780950844 0.673858821
v -0.179846659 0.780982375 0.673497558
v -0.187522024 0.777371824 0.673677921
v -0.176226124 0.761438668 0.6854105
v -0.178002506 0.754439652 0.686193347
v -0.176828995 0.746034384 0.685139
v -0.184511408 0.743582904 0.676671505
v -0.189390928 0.74275285 0.673725069
v -0.191236556 0.735784411 0.674457192
v -0.189193875 0.726794243 0.674124241
v -0.187959969 0.718352437 0.673117518
v -0.189027563 0.714974284 0.673360825
v -0.185851455 0.704732716 0.678288639
v -0.179456756 0.692422569 0.685895741
v -0.177872479 0.683816731 0.685192525
v -0.186223567 0.681660771 0.676176429
v -0.190585881 0.680430591 0.673659384
v -0.188893765 0.671744108 0.673041821
v -0.190511212 0.664691806 0.673954129
v -0.188402951 0.655760586 0.67368716
v -0.190272465 0.64888525 0.674385548
v -0.175028965 0.631672621 0.685117006
v -0.176359653 0.628510892 0.685128212
v -0.179046407 0.62220341 0.685129344
v -0.183635846 0.617543817 0.67927146
v -0.188956559 0.61331588 0.672794938
v -0.190148577 0.610054672 0.672926009
v -0.192136347 0.603288889 0.673519075
v -0.189804465 0.594307125 0.673446357
v -0.187743768 0.585506439 0.673150599
v -0.176541761 0.570726156 0.684776604
v -0.178304806 0.563889921 0.685541034
v -0.176590875 0.55536741 0.68496567
v -0.179594457 0.553233564 0.683572114
v -0.190508589 0.552291393 0.672427416
v -0.189136326 0.543959439 0.671560585
v -0.190478742 0.540809989 0.671560585
v -0.192285836 0.533991158 0.672294796
v -0.189229369 0.52900219 0.66745317
v -0.188900068 0.529568493 0.65918231
v -0.184887454 0.527957618 0.653998911
v -0.175476849 0.52709657 0.652253628
v -0.18876949 0.531405091 0.637797654
v -0.187914297 0.522976458 0.640817523
v -0.187535226 0.514847755 0.643427312
v -0.188644871 0.507605433 0.644769788
v -0.187482864 0.499053508 0.648033679
v -0.191746429 0.493308902 0.650987566
v -0.190143526 0.484539628 0.654607117
v -0.190688446 0.477023095 0.656409085
v -0.190258622 0.468964338 0.659028292
v -0.191083774 0.461954951 0.656324923
v -0.190084293 0.461710751 0.652899981
v -0.189695477 0.458229303 0.64580965
v -0.191013545 0.45538643 0.641544819
v -0.178739592 0.445205748 0.64454335
v -0.176966861 0.440941453 0.638626158
v -0.130059242 0.411392778 0.671358168
v -0.126127452 0.405669898 0.671631396
v -0.23879014 0.460971177 0.572955728
v -0.23605524 0.455477506 0.576478481
v -0.254220277 0.457565278 0.563255668
v -0.255564988 0.450332791 0.564461708
v -0.255007386 0.442352384 0.562881589
v -0.255152225 0.43873477 0.559520066
v -0.255301207 0.431414306 0.552910149
v -0.253826827 0.427183092 0.546502054
v -0.254199952 0.423675925 0.542930126
v -0.252525806 0.423309386 0.535482049
v -0.25070262 0.422863543 0.528144181
v -0.253884286 0.420857966 0.522104263
v -0.246824116 0.417588562 0.519314289
v -0.240250885 0.41856885 0.514897227
v -0.233596385 0.419503629 0.510555148
v -0.230518058 0.414392382 0.505497515
v -0.227122277 0.412827581 0.504001915
v -0.216292754 0.415481269 0.502158582
v -0.212544531 0.417709559 0.499758571
v -0.177532241 0.399166971 0.522104383
v -0.17519024 0.398168713 0.519730926
v -0.175536588 0.394966722 0.511680961
v -0.185151592 0.396791756 0.495231062
v -0.185210183 0.397099853 0.490655869
v -0.186951965 0.39462164 0.481256127
v -0.189489633 0.392561108 0.471101642
v -0.187121585 0.391551763 0.46870181
v -0.185234651 0.387088627 0.462556303
v -0.178139865 0.375842035 0.46245414
v -0.175774992 0.374834031 0.460057557
v -0.175548911 0.371259749 0.452379256
v -0.172324777 0.370051444 0.446180582
v -0.186278611 0.373792201 0.42991817
v -0.182902619 0.368504941 0.425090164
v -0.1847101 0.365975827 0.415423065
v -0.183827698 0.366012305 0.406940192
v -0.183895156 0.362291306 0.403519124
v -0.174591705 0.353851736 0.404239953
v -0.178188562 0.351998925 0.397494227
v -0.173408955 0.349961668 0.392650485
v -0.0406095013 0.272411495 0.51631707
v -0.0442055017 0.270273715 0.518619537
v -0.038983617 0.259746552 0.530472994
v -0.045241911 0.255226344 0.531491518
v -0.0481162779 0.249156326 0.531270683
v -0.0509460643 0.243062124 0.531092048
v -0.0493450984 0.234898582 0.53064996
v -0.0630365685 0.238086894 0.519051671
v -0.0577746369 0.228232503 0.517605186
v -0.0590979159 0.225127935 0.517605186
v -0.0517030433 0.21799022 0.516938269
v -0.0436898731 0.21431008 0.515633404
v -0.0482504219 0.216946572 0.502417147
v -0.0448808894 0.215600029 0.496692866
v -0.317478806 0.348807335 0.228488386
v -0.317316979 0.344737351 0.225087345
v -0.314110696 0.339329213 0.21963641
v -0.303919137 0.334611982 0.21949923
v -0.251960605 0.304790586 0.266064078
v -0.255370796 0.298304826 0.265550047
v -0.252296835 0.288790494 0.266406745
v -0.250713974 0.280024648 0.265829444
v -0.253981203 0.273479313 0.265448093
v -0.295213223 0.285256922 0.228499129
v -0.256791353 0.258726776 0.263403475
v -0.252976388 0.252974659 0.263596386
v -0.255888581 0.246264815 0.263554513
v -0.254162788 0.237476841 0.263118356
v -0.255596101 0.234114125 0.263118356
v -0.253331751 0.225089222 0.263204187
v -0.255762964 0.21816887 0.26362139
v -0.252509922 0.212728903 0.263282508
v -0.25557968 0.206112534 0.263081312
v -0.254388541 0.197620958 0.262135118
v -0.255787283 0.190246403 0.263543874
v -0.255928874 0.190454215 0.253689468
v -0.290424019 0.198183313 0.21325101
v -0.292917997 0.195251077 0.212239072
v -0.291254848 0.186450735 0.211729586
v -0.290787399 0.178194895 0.210061863
v -0.292954743 0.175112903 0.20936501
v -0.291885674 0.166595861 0.208282113
v -0.296266198 0.160445929 0.206843525
v -0.295891881 0.152239904 0.205085471
v -0.291353494 0.146259591 0.205969006
v -0.297079951 0.140687481 0.20321852
v -0.0022479631 0.00634543458 0.496586174
v -0.0166508574 0.00890066195 0.488318801
v -0.0287336987 0.0104393978 0.486763775
v -0.0307438541 0.00768357469 0.490503579
v -0.0438011959 0.00960973557 0.488074154
v -0.0519862883 0.00946278963 0.490342736
v -0.0555399507 0.00735016586 0.492618114
v -0.0624696165 0.00666780537 0.496098727
v -0.0666936263 0.00483324379 0.497743577
v -0.191207737 0.0568164289 0.389369696
v -0.194313109 0.0619391948 0.39434585
v -0.192829832 0.0651342273 0.40361163
v -0.194828898 0.0660031512 0.410876572
v -0.195806921 0.070206672 0.413251907
v -0.193056628 0.0728421062 0.423635632
v -0.19389908 0.0732144788 0.431920499
v -0.194909766 0.0774180964 0.434253812
v -0.192986906 0.076612182 0.445052385
v -0.194633663 0.0810790583 0.451292187
v -0.196380571 0.0818256661 0.45867005
v -0.207437351 0.0827705041 0.458789229
v -0.219673261 0.0842000619 0.457877427
v -0.223369658 0.0820025876 0.460244209
v -0.232714385 0.0821922347 0.461994678
v -0.237404317 0.0804062709 0.463475704
v -0.252001256 0.082773298 0.460561663
v -0.252649128 0.0792662427 0.461204976
v -0.2521649 0.0715222955 0.464080065
v -0.253223121 0.0644290969 0.465572774
v -0.251848996 0.0563527867 0.469231427
v -0.251534313 0.0487278923 0.471939176
v -0.253371209 0.0419853888 0.472726882
v -0.302453756 0.0542627275 0.440526009
v -0.300528556 0.0459901094 0.449161619
v -0.296775967 0.0407274738 0.453691393
v -0.306367457 0.0368876979 0.443169117
v -0.318108261 0.0377930626 0.438519746
v -0.315737635 0.029390106 0.447529882
v -0.316182792 0.0220214874 0.449562758
v -0.318939954 0.0155528318 0.449562758
v -0.315468818 0.00660308963 0.450557709
v -0.310797781 0.000966055552 0.451404393
v -0.288942158 -0.0147687355 0.473022282
v -0.281284273 -0.0248147324 0.490936309
v -0.282306403 -0.0279973522 0.495615453
v -0.292452186 -0.0276515968 0.496726304
v -0.293808669 -0.0308340415 0.496726304
v -0.302207887 -0.0351044908 0.491791576
v -0.286160022 -0.0483455621 0.508061886
v -0.275743455 -0.0592987835 0.523754656
v -0.276987642 -0.0659682602 0.529319704
v -0.282759339 -0.0673682615 0.529819906
v -0.284897596 -0.0737004802 0.534597993
v -0.288384616 -0.0795404166 0.538208723
v -0.286564648 -0.0837998688 0.540911138
v -0.283591121 -0.0918874368 0.55001688
v -0.281970888 -0.0994643122 0.557934642
v -0.286785334 -0.101198882 0.559233904
v -0.129932478 -0.155265287 0.700370371
v -0.132014394 -0.154372096 0.702616274
v -0.132776603 -0.153766781 0.709968626
v -0.138963997 -0.151448175 0.708761811
v -0.148767635 -0.154476672 0.710639536
v -0.145494893 -0.152051374 0.716309905
v -0.148548469 -0.147269085 0.720676839
v -0.16050145 -0.142774582 0.718705535
v -0.164000228 -0.144780248 0.720829904
v -0.192312524 -0.134622201 0.705432177
v -0.193118513 -0.133996218 0.712769985
v -0.193119556 -0.130237654 0.719708502
v -0.191803426 -0.126947969 0.727706611
v -0.194745407 -0.125586733 0.733246267
v -0.194500968 -0.12209858 0.736379564
v -0.197991177 -0.120547183 0.741462469
v -0.20756036 -0.123684615 0.743677855
v -0.214826345 -0.120982349 0.741779089
v -0.22295095 -0.121229678 0.744177461
v -0.234573647 -0.123691581 0.744814754
v -0.239907101 -0.121673301 0.744514227
v -0.251656294 -0.124121048 0.74510318
v -0.25193429 -0.127451032 0.745892346
v -0.252983391 -0.133936331 0.74707824
v -0.252908945 -0.140792742 0.749150336
v -0.25166297 -0.148028091 0.752144098
v -0.252370179 -0.154596493 0.753590882
v -0.250573546 -0.161981016 0.757009387
v -0.251132339 -0.168573976 0.758565962
v -0.255597115 -0.173668489 0.760958076
v -0.255286634 -0.180526778 0.763189912
v -0.254737139 -0.187447757 0.765605092
v -0.250820398 -0.192296252 0.76577276
v -0.254837483 -0.194619581 0.759707987
v -0.25225538 -0.195911974 0.753922582
v -0.252053082 -0.199823767 0.747245669
v -0.233071297 -0.209646955 0.755467057
v -0.235452533 -0.212494984 0.75066644
v -0.239288673 -0.21489799 0.744700551
v -0.238824517 -0.215539649 0.737214744
v -0.31238547 -0.196586296 0.671390295
v -0.31841287 -0.197913468 0.671653986
v -0.318690389 -0.205265298 0.665412426
v -0.167288065 -0.255185723 0.78395927
v -0.15094696 -0.266405821 0.802858114
v -0.152682945 -0.272096902 0.80723083
v -0.148043275 -0.276719004 0.811910033
v -0.150616035 -0.282131702 0.815591037
v -0.154380336 -0.28396526 0.817349851
v -0.15393348 -0.290531546 0.819639206
v -0.154584974 -0.296482295 0.824822426
v -0.156032667 -0.302185357 0.829360783
v -0.165576667 -0.302348852 0.826554179
v -0.163844526 -0.308956802 0.833585024
v -0.168357715 -0.313767225 0.835697174
v -0.165581927 -0.317742318 0.838821769
v -0.166896954 -0.323438764 0.843423128
v -0.151822731 -0.333364367 0.864471912
v -0.153884694 -0.332485497 0.866561532
v -0.161965638 -0.332783788 0.868610799
v -0.168661624 -0.336936325 0.868986189
v -0.171319783 -0.33936283 0.867865443
v -0.161627233 -0.348615199 0.87351042
v -0.161623299 -0.354567885 0.879030466
v -0.164406016 -0.35975787 0.882394373
v -0.163468033 -0.363133579 0.884031773
v -0.150146201 -0.372217447 0.903324842
v -0.152987868 -0.374235541 0.905682266
v -0.160641477 -0.371558815 0.907095611
v -0.16589959 -0.372947782 0.90762651
v -0.170779064 -0.377541572 0.90934968
v -0.147973925 -0.382782966 0.933729231
v -0.15362069 -0.37790373 0.93216753
v -0.156826437 -0.379809529 0.934220195
v -0.167412549 -0.379464924 0.934324861
v -0.170390233 -0.38451314 0.937437475
v -0.173876122 -0.386351258 0.939288318
v -0.174782604 -0.391918033 0.943929315
v -0.177989244 -0.393824339 0.945982516
v -0.170367002 -0.40186438 0.953362465
v -0.216023192 -0.396636575 0.921379745
v -0.219269231 -0.398566335 0.923458159
v -0.229491159 -0.398408741 0.923999965
v -0.251104712 -0.395463288 0.916242182
v -0.251068652 -0.398216397 0.920749068
v -0.248815268 -0.401502907 0.92685926
v -0.253054827 -0.402825624 0.931818724
v -0.25183627 -0.409326494 0.934439898
v -0.252808034 -0.415289551 0.935471356
v -0.254420668 -0.421095043 0.93603766
v -0.253447264 -0.428292871 0.931334734
v -0.254835337 -0.431058973 0.931196868
v -0.255456448 -0.437491596 0.928909779
v -0.254598558 -0.441178679 0.926826239
v -0.252711684 -0.442423016 0.921037316
v -0.252849966 -0.446296602 0.914633512
v -0.248068079 -0.444705397 0.913661182
v -0.249099851 -0.442193031 0.904817402
v -0.229772568 -0.444345623 0.91097492
v -0.224470198 -0.443288982 0.9068138
v -0.223515764 -0.443911016 0.903917074
v -0.227350146 -0.443834901 0.89383328
v -0.216036797 -0.444158465 0.894144595
v -0.190737709 -0.450796008 0.90589422
v -0.18452546 -0.453025848 0.90336889
v -0.176486477 -0.452618569 0.901339352
v -0.17445077 -0.453486264 0.899276376
v -0.168985367 -0.45554319 0.896210849
v -0.163656861 -0.460619807 0.893952727
v -0.159591258 -0.462352723 0.889832556
v -0.150798321 -0.459071875 0.887526274
v -0.158253461 -0.454686403 0.877243042
v -0.225134954 -0.439989239 0.818216622
v -0.228109568 -0.440117091 0.808415473
v -0.217636153 -0.439804107 0.81185329
v -0.220797792 -0.43988356 0.80187428
v -0.0768342391 -0.477050453 0.908035576
v -0.077163659 -0.483342856 0.906017959
v -0.0753784925 -0.487129867 0.904749393
v -0.073556304 -0.493902713 0.904422522
v -0.218185544 -0.467304409 0.796501815
v -0.221502304 -0.46927619 0.798625529
v -0.226914674 -0.470354766 0.802872956
v -0.161058009 -0.48750791 0.858740866
v -0.166334674 -0.488559425 0.862881839
v -0.279796511 -0.462868631 0.782673776
v -0.274676293 -0.466718495 0.791357219
v -0.277486652 -0.468387783 0.797694504
v -0.282955378 -0.469477594 0.801986158
v -0.230636597 -0.483461291 0.846540332
v -0.289067894 -0.473140746 0.810478091
v -0.225719273 -0.489380002 0.863119304
v -0.338911533 -0.464285105 0.785021961
v -0.337761909 -0.4668172 0.794404745
v -0.337505609 -0.469606489 0.799309909
v -0.340238959 -0.471297801 0.805731237
v -0.351250678 -0.471241117 0.805977345
v -0.363990068 -0.468094528 0.800276697
v -0.309923857 -0.484854132 0.849640131
v -0.225800484 -0.508053899 0.917171419
v -0.242826194 -0.504082501 0.9082039
v -0.338576227 -0.483332753 0.845123112
v -0.339581162 -0.485809088 0.84898603
v -0.344367772 -0.487037122 0.853767395
v -0.338798285 -0.490852416 0.862397909
v -0.344243765 -0.491937578 0.866671324
v -0.357774705 -0.491380036 0.865108669
v -0.35988903 -0.490478814 0.867251396
v -0.290323675 -0.510285854 0.92267704
v -0.299013823 -0.510670364 0.924440801
v -0.302278399 -0.512611151 0.926531076
v -0.338799804 -0.504374146 0.907654226
v -0.344641179 -0.505357563 0.911561191
v -0.337879956 -0.509316623 0.920794487
v -0.35333246 -0.508394659 0.917904675
v -0.344675571 -0.512709975 0.92842716
v -0.359102845 -0.512004137 0.926293612
v -0.357551754 -0.514911294 0.931795001
v -0.28408587 -0.534296215 0.99170506
v -0.290908217 -0.532505691 0.990422785
v -0.334819585 -0.526096821 0.967776954
v -0.339358717 -0.52730149 0.972469687
v -0.354224443 -0.523964643 0.965739608
v -0.360647082 -0.524817109 0.969171703
v -0.342840761 -0.533316374 0.9899562
v -0.34755969 -0.531936884 0.990210772
v -0.357983917 -0.532020569 0.990881264
v -0.358908415 -0.537906051 0.99187541
v -0.362748295 -0.540712178 0.986610591
v -0.372949183 -0.54439646 0.984799743
v -0.358542323 -0.549565375 0.998814821
v -0.368072093 -0.549844623 1.00010598
v -0.378138214 -0.550032377 1.00106049
v -0.378672183 -0.552957773 1.00150383
v 0.181850106 1.00137603 -0.0441397727
v 0.182272658 1.00944746 -0.0415517017
v 0.185249031 1.01643038 -0.0415517017
v 0.180967242 1.0299294 -0.0508244
v 0.30520907 0.927571595 0.104284853
v 0.313471735 0.927022219 0.101916544
v 0.317058027 0.926101983 0.0953616574
v 0.311963946 0.927271068 0.0850112289
v 0.315497428 0.926405787 0.0783418193
v 0.318088591 0.926397681 0.0704319626
v 0.310349375 0.931122899 0.0508634001
v 0.315252423 0.929033041 0.045894552
v 0.310805351 0.929587364 0.0362274386
v 0.0580582395 1.14669132 -0.285121024
v 0.0474233925 1.14333296 -0.282176107
v 0.0398351513 1.14884138 -0.285715133
v 0.0311661065 1.14368773 -0.280164361
v 0.0268315841 1.1411109 -0.27738899
v 0.0128876204 1.14577413 -0.280657321
v 0.00217424869 1.14880145 -0.286025614
v 0.181344032 0.988576591 -0.0449365377
v 0.183043137 0.990716279 -0.0388297327
v 0.181766331 0.996643186 -0.0423500203
v 0.213065863 0.954565287 0.112307541
v 0.253936321 0.926700652 0.16433014
v 0.26606214 0.927306831 0.164907053
v 0.267988473 0.926711738 0.161852315
v 0.275423706 0.926896691 0.158426479
v 0.277889222 0.926945329 0.1505858
v 0.285736889 0.926760375 0.147680849
v 0.286091924 0.927574158 0.142650872
v 0.164795667 1.03360784 -0.0188183058
v 0.156874537 1.02983606 -0.0192201566
v 0.212931052 0.969481885 0.0601934344
v 0.210440442 0.970543444 0.0627174675
v 0.207614899 0.970764041 0.0704385564
v 0.201174408 0.974175811 0.073673822
v 0.212691143 0.957124949 0.100788429
v 0.21107994 0.95742327 0.104347117
v 0.233462662 -0.389085561 0.746246457
v -0.124092489 -0.274523824 0.405104786
v -0.120313182 -0.268954039 0.401729077
v -0.137587652 -0.260427475 0.379332781
v -0.114349514 -0.260547101 0.399180472
v -0.129982263 -0.248914376 0.377018899
v -0.126368478 -0.246766016 0.374704987
v -0.128283769 -0.239331305 0.365722954
v -0.123326659 -0.234047711 0.363403052
v -0.118369542 -0.228764132 0.36108315
v -0.117035568 -0.225634471 0.36108315
v -0.429676116 -0.117486171 0.0421806015
v -0.431477755 -0.113160118 0.0338054076
v -0.418984562 -0.113750055 0.034377154
v -0.413958132 -0.11165151 0.0327312499
v -0.401736766 -0.112174384 0.0330964588
v -0.394532233 -0.110807136 0.0336433239
v -0.381989837 -0.111460969 0.034400478
v -0.375923514 -0.113956004 0.0301907752
v -0.376737386 -0.117912315 0.0257142857
v -0.379174769 -0.125071868 0.0262559578
v -0.392496973 -0.124189802 0.02469749
v -0.400265574 -0.12139789 0.0220861658
v -0.410767585 -0.121454939 0.0234211143
v -0.416033983 -0.123480529 0.0248281322
v -0.427822918 -0.123137496 0.0249350835
v -0.442614347 -0.121840522 0.0221259072
v -0.445973426 -0.124499954 0.025451811
v -0.444838315 -0.133147761 0.0243739765
v -0.444863468 -0.137422666 0.0206776746
v -0.446444094 -0.145211294 0.0169272628
v -0.446225524 -0.149570152 0.0134664783
v 0.143420085 -0.340442091 0.589312613
v 0.14463973 -0.346969485 0.597036421
v 0.141370431 -0.348913074 0.599129736
v 0.13871105 -0.354229718 0.603002965
v 0.23279494 -0.385526508 0.700419426
v 0.249908254 -0.393223196 0.726110339
v 0.231996045 -0.387345523 0.716488361
v 0.221218795 -0.383608401 0.713871479
v 0.246146813 -0.393630952 0.746856868
v 0.241127163 -0.391878963 0.745883465
v 0.237739116 -0.390615702 0.74648875
v 0.121444799 -0.376743078 0.658844948
v -0.112773314 -0.301338732 0.437983215
v 0.201161399 -0.38779664 0.730282187
v 0.234678268 -0.395230919 0.75345397
v 0.23350136 -0.395132542 0.748471975
v 0.224189147 -0.392869681 0.731782973
v 0.216163844 -0.390994877 0.716246843
v 0.24512203 -0.397085786 0.735349953
v 0.237145722 -0.395212442 0.719814897
v 0.228806689 -0.393236369 0.703844607
v 0.136309534 -0.369408727 0.606539249
v 0.136091888 -0.372516185 0.607501388
v 0.157253221 -0.384759247 0.634590268
v 0.148728102 -0.387993485 0.63670671
v 0.145499587 -0.389912814 0.638773918
v 0.142271072 -0.391832143 0.640841126
v 0.134229735 -0.395219147 0.643450379
v 0.127718896 -0.389651507 0.64411509
v 0.125674635 -0.388780147 0.646186829
v 0.123968616 -0.381447822 0.650330186
v 0.124544144 -0.378197342 0.65376544
v 0.124387577 -0.377875715 0.657633424
v -0.274829566 0.191717505 0.183834478
v -0.253251731 0.190031573 0.20226486
v -0.248294592 0.187918663 0.197241202
v -0.442652643 0.272252798 0.000895839941
v -0.445620328 0.264942437 0.00101903989
v -0.439632565 0.253674924 0.00470422581
v -0.442202389 0.246207014 0.00521481596
v -0.441787064 0.237464085 0.00337854587
v -0.443328977 0.233846635 0.00337854587
v -0.443676621 0.225412071 0.00608713832
v -0.270192683 0.149287581 0.187780768
v -0.269408852 0.156976521 0.190666273
v -0.271217376 0.161814928 0.187455103
v -0.269251674 0.168983892 0.191507295
v -0.275448471 0.179860204 0.182536826
v -0.26894477 0.180938601 0.192496628
v -0.274569303 0.187532365 0.185524166
v -0.17961885 -0.220641688 0.488684565
v 0.164158195 -0.323114306 0.80262506
v 0.164595693 -0.317332864 0.797141671
v 0.166131943 -0.311888397 0.792641819
v 0.167283699 -0.30918625 0.792641819
v 0.168602183 -0.303652942 0.787927628
v 0.165187418 -0.296539992 0.778853416
v 0.171620861 -0.295576692 0.783699572
v 0.169868156 -0.288983703 0.77612704
v 0.164536446 -0.281153738 0.765218616
v 0.166102007 -0.275616229 0.76064837
v 0.15121913 -0.270737171 0.742966115
v 0.158949867 -0.270566583 0.741253912
v 0.16212903 -0.268676609 0.739218354
v 0.168186843 -0.264464974 0.742691576
v 0.176987439 -0.261225581 0.748737395
v 0.181018487 -0.256351829 0.750329256
v 0.167701453 -0.245518818 0.73173666
v 0.168608919 -0.23964496 0.726445019
v 0.150337115 -0.230097279 0.704146862
v 0.159374237 -0.233601883 0.704726577
v 0.165802225 -0.22978051 0.700610757
v 0.146514386 -0.222996086 0.678235531
v 0.154465541 -0.226125017 0.677767813
v -0.170346662 -0.116930373 0.369699001
v -0.171700478 -0.120106563 0.369699001
v -0.175911501 -0.125585064 0.37739566
v -0.173747778 -0.133630931 0.382019013
v -0.180399954 -0.13859421 0.378268987
v -0.184705779 -0.144195169 0.381298631
v -0.176145151 -0.15076302 0.390672088
v -0.16689539 -0.160746574 0.410948545
v -0.17053017 -0.162907436 0.413275868
v -0.176911712 -0.167527929 0.418760926
v -0.17269659 -0.172527522 0.423950434
v -0.177657813 -0.177815482 0.426272243
v -0.175981134 -0.182162926 0.424622953
v -0.184923798 -0.186364934 0.418774754
v -0.183044285 -0.193667442 0.431916445
v -0.160454124 -0.204564318 0.454107672
v -0.166311428 -0.205731571 0.458704263
v -0.172286421 -0.210624382 0.460022271
v -0.175877258 -0.212759107 0.46232149
v -0.175019473 -0.219826877 0.469911009
v -0.182711899 -0.224173829 0.46965459
v -0.184978172 -0.223207861 0.471951276
v -0.177361622 -0.221603811 0.486397058
v -0.201096147 -0.385522157 0.646704018
v 0.0723087788 -0.448941857 0.87532717
v 0.0874370411 -0.447248518 0.882570684
v 0.0901524201 -0.445000529 0.883910298
v 0.125757545 -0.44873476 0.908594847
v 0.128476277 -0.452992678 0.904706776
v 0.131867379 -0.454193503 0.904019058
v 0.139844015 -0.453996807 0.902724206
v -0.118034609 -0.387355924 0.673930466
v -0.117857613 -0.390628308 0.675146103
v -0.120661408 -0.395991802 0.678835988
v -0.125256985 -0.400890023 0.680986643
v -0.179697856 -0.389912456 0.639589071
v -0.210744634 -0.381274372 0.621272743
v -0.195440695 -0.387704819 0.643423676
v -0.199854299 -0.386211574 0.643723249
v -0.129251167 -0.18796359 0.666279554
v -0.284257889 -0.128700048 0.535178661
v -0.281723171 -0.122586712 0.530768752
v -0.27675721 -0.117293693 0.528444707
v -0.274919629 -0.114330702 0.528877258
v -0.27144286 -0.108523443 0.525265694
v -0.279079676 -0.102450714 0.51316756
v -0.281179219 -0.0946546793 0.504669249
v -0.276896358 -0.0890721604 0.501703382
v -0.2804102 -0.0807185397 0.491915733
v -0.281881243 -0.0767085999 0.485064566
v -0.28024295 -0.0701362491 0.479734927
v -0.295159787 -0.0649427548 0.462199956
v -0.283973485 -0.0655919537 0.462011904
v -0.277857929 -0.0605902225 0.460588068
v -0.270532489 -0.0557507016 0.469098955
v -0.266052246 -0.0538530461 0.467448115
v -0.276246458 -0.0428630598 0.451530516
v -0.272007823 -0.0407298245 0.454091609
v -0.294096351 -0.0290783644 0.424205065
v -0.29036063 -0.0268575083 0.421813101
v -0.284264594 -0.0256426968 0.417029142
v -0.297896236 -0.0207918081 0.395670176
v -0.294652164 -0.0221291073 0.394048214
v -0.282636046 -0.0231135022 0.394578159
v -0.278884917 -0.0208834857 0.3921763
v -0.272829235 -0.0157633405 0.390617639
v -0.246912181 -0.022074366 0.403965533
v -0.237271369 -0.029685853 0.404997021
v -0.241225615 -0.0282986965 0.396813393
v -0.241466984 -0.0321706943 0.388741374
v 0.129261881 -0.175448164 0.7284621
v 0.128730729 -0.181611061 0.734118462
v 0.127170026 -0.187484622 0.734868944
v 0.12921606 -0.191579536 0.733908474
v 0.126231879 -0.196922451 0.733344853
v 0.131802961 -0.205635771 0.732796073
v 0.152948737 -0.219689161 0.754512846
v 0.149438068 -0.221466854 0.756254494
v 0.160566226 -0.231648639 0.772527039
v 0.160399988 -0.234599084 0.777304769
v 0.152233243 -0.234560564 0.778609037
v 0.149077997 -0.239740431 0.777857661
v 0.138897419 -0.242468938 0.770705462
v 0.13655743 -0.247958839 0.770705462
v 0.168296695 -0.265181571 0.801701367
v 0.166968912 -0.270760596 0.806390226
v 0.162885383 -0.27538985 0.808571696
v 0.166887924 -0.279833645 0.813231707
v 0.164353192 -0.284967959 0.816795766
v 0.160123721 -0.286451399 0.817794323
v 0.156647891 -0.291265547 0.820504725
v 0.155357853 -0.296986461 0.821407437
v 0.154705375 -0.302713901 0.826634347
v 0.147427812 -0.303210437 0.824914575
v -0.189676061 -0.196594149 0.534004211
v -0.184534594 -0.197804272 0.547078729
v -0.185974985 -0.193627432 0.548897564
v -0.185586229 -0.193305045 0.557716191
v -0.181640148 -0.190675512 0.568487525
v -0.184797123 -0.185731277 0.573002338
v -0.187024638 -0.184781834 0.575259745
v -0.190181613 -0.179837599 0.579774499
v -0.186431885 -0.180649847 0.591412246
v -0.189579338 -0.175720498 0.59591341
v -0.192726806 -0.170791164 0.600414574
v -0.1949476 -0.169844583 0.602665186
v -0.174385369 -0.176494867 0.62450403
v 0.189814582 0.693577409 0.648719668
v 0.189260274 0.701209366 0.650041878
v 0.096784763 0.780574381 0.552003324
v 0.100403361 0.782725573 0.549686372
v 0.111081004 0.780234277 0.549787879
v 0.11593356 0.78142488 0.548709929
v 0.121471085 0.786224961 0.546996176
v 0.124128409 0.792459369 0.546996176
v 0.126188129 0.7991606 0.546398699
v 0.12528874 0.801486313 0.536295533
v 0.127574563 0.800512016 0.533978999
v 0.132146195 0.798563421 0.529346049
v 0.125132516 0.801506698 0.514329016
v 0.13099207 0.798557222 0.510965645
v 0.135602549 0.796584308 0.506337404
v 0.130703494 0.79704845 0.498027533
v 0.136281446 0.794322491 0.49436903
v 0.140500158 0.79265976 0.48931855
v 0.137494132 0.792455971 0.478185713
v 0.142105043 0.790490627 0.473512918
v 0.133860856 0.794372737 0.456862986
v 0.132553682 0.797045946 0.445963413
v 0.137198389 0.795066178 0.441256374
v 0.128949463 0.798107147 0.429225624
v 0.136763558 0.793654025 0.427821606
v 0.140664876 0.792260647 0.422303766
v 0.132411242 0.796126962 0.405320406
v 0.13639769 0.794675231 0.399837643
v 0.14079608 0.792901754 0.394789755
v 0.130431831 0.79757154 0.380272031
v 0.135136515 0.795566261 0.375504225
v 0.127941445 0.798574209 0.359381169
v -0.0791428834 0.954846978 0.143016428
v -0.0853981972 0.953246117 0.148598999
v -0.0905225128 0.955430269 0.153792083
v -0.0969575718 0.953970492 0.159178808
v -0.102629505 0.956578195 0.163791612
v -0.106136456 0.953743875 0.166967884
v -0.112045661 0.956532836 0.171334773
v -0.118664533 0.955213845 0.17652902
v -0.126060635 0.954489827 0.180913016
v -0.130812868 0.95725733 0.181233436
v -0.138354972 0.956635475 0.185484678
v -0.146367922 0.956367254 0.189258531
v -0.15043208 0.95395112 0.191860795
v -0.159941196 0.954804659 0.194117799
v -0.165611684 0.953593791 0.195085719
v -0.174756676 0.954150498 0.197753146
v -0.180397511 0.952902079 0.19877252
v -0.189857438 0.95367378 0.201156914
v -0.129014894 0.897533 0.275779217
v -0.12826106 0.900698185 0.280136675
v -0.128324285 0.899148703 0.290190011
v -0.128545702 0.897722781 0.300048023
v -0.129049107 0.901807904 0.303122371
v -0.1308157 0.901531339 0.311403543
v -0.145311087 0.915242314 0.305642128
v -0.130427137 0.902559102 0.330324054
v 0.191048414 0.669628084 0.653086066
v 0.191613227 0.673151076 0.652388453
v 0.192620218 0.679582536 0.655239344
v 0.194349676 0.686184645 0.654433131
v -0.0651270077 0.456436366 0.547385693
v -0.0640473291 0.463281512 0.550360918
v 0.0563026443 0.400012165 0.650797546
v 0.0598055758 0.402062654 0.648596704
v 0.0665438026 0.402168334 0.649417102
v 0.0644040257 0.400448233 0.640054941
v 0.06681557 0.399765551 0.633733869
v -0.303419381 0.618506312 0.277104527
v -0.317044258 0.617937148 0.267048687
v -0.314804435 0.61267525 0.265583158
v -0.316718966 0.605103552 0.266571432
v -0.315723151 0.596237719 0.265331954
v -0.31912899 0.589552999 0.264912218
v -0.312586606 0.58179456 0.267510682
v -0.136353865 0.470374346 0.441059709
v -0.125225887 0.463179797 0.460752726
v -0.126047224 0.466949314 0.467892885
v -0.127030909 0.471177101 0.470281929
v -0.128777146 0.475477517 0.476543605
v -0.114607945 0.470451772 0.497553319
v -0.0668458864 0.446034551 0.545057476
v -0.067104131 0.449742466 0.548033357
v -0.0657657385 0.452882499 0.548033357
v -0.0518301353 -0.482289553 0.875620365
v -0.217353597 -0.437708706 0.740667045
v -0.187364087 -0.441943198 0.759969115
v -0.208018824 -0.437923461 0.735599637
v -0.226229608 -0.43448931 0.713072538
v -0.200003579 -0.438238502 0.725593805
v -0.220141485 -0.434340924 0.701350272
v -0.0937205404 -0.467800438 0.798177958
v -0.0969611704 -0.46972698 0.800252914
v -0.102249295 -0.47078079 0.804402888
v -0.0697764754 -0.480911285 0.835519254
v -0.0749929026 -0.48195079 0.839612901
v -0.146946579 -0.464665651 0.788889408
v -0.150226533 -0.466615558 0.790989578
v -0.0529926419 -0.485016912 0.875620365
v -0.0505097918 -0.457069248 0.883707166
v -0.042059496 -0.453102976 0.88861531
v -0.0523871854 -0.447941333 0.875775039
v -0.0365900733 -0.445788562 0.886598408
v -0.0342358612 -0.440708965 0.883005559
v -0.0370180421 -0.437353522 0.876193762
v 0.030632548 -0.454928488 0.923745275
v 0.034525983 -0.456588 0.919799566
v 0.0467959084 -0.463264048 0.923613667
v 0.0537507161 -0.465678096 0.922201693
v 0.0508409664 -0.46565333 0.912702501
v 0.0516513847 -0.469136447 0.910734236
v 0.0513300262 -0.475274831 0.908766031
v 0.0495375209 -0.477770209 0.908222258
v 0.0558515638 -0.485861689 0.908156753
v 0.0413258076 -0.488256305 0.898045242
v -0.207014546 -0.432210803 0.698284686
v -0.213486999 -0.429868251 0.700826943
v -0.190441176 -0.437698662 0.728502035
v -0.210603908 -0.432138264 0.719844043
v -0.21633862 -0.429973543 0.722974241
v -0.185474649 -0.439624518 0.756673038
v -0.197396412 -0.43641752 0.750893056
v -0.201622218 -0.434616327 0.755175531
v -0.0520023853 -0.466101706 0.881685436
v -0.0516722985 -0.459796637 0.883707166
v -0.0374057926 -0.395982832 0.918877125
v -0.139579982 -0.362221479 0.839883327
v -0.137175009 -0.356579125 0.839883327
v -0.156514108 -0.345002592 0.822668612
v -0.155259728 -0.339306474 0.817979932
v -0.15905574 -0.335387439 0.810226321
v -0.156201974 -0.330102503 0.806778789
v -0.152157173 -0.32514441 0.804276824
v -0.150459036 -0.322422326 0.804661036
v -0.146514654 -0.317434013 0.802077293
v -0.147017494 -0.31116882 0.79591316
v -0.147359818 -0.304926872 0.789856851
v -0.145635471 -0.302204221 0.790261805
v -0.14717406 -0.295585364 0.783215582
v -0.15407072 -0.290607184 0.772793293
v -0.15150173 -0.285144538 0.769027472
v -0.313810825 -0.241178334 0.629909933
v -0.308431625 -0.239609197 0.629133761
v -0.300926834 -0.238964915 0.626001298
v -0.295814186 -0.24450779 0.623058319
v -0.294880331 -0.248521388 0.620790303
v -0.286464274 -0.248146385 0.618435979
v -0.280700952 -0.246700674 0.618015409
v -0.27362892 -0.242496401 0.613487244
v -0.271682799 -0.239918545 0.609895349
v -0.242359325 -0.252668709 0.627274454
v -0.238684013 -0.254047453 0.626256108
v -0.237006307 -0.258527964 0.620541811
v -0.234701514 -0.259786934 0.614259064
v -0.230269119 -0.261676192 0.609767199
v 0.151593938 -0.380511194 0.935357213
v 0.147901237 -0.382109404 0.936721444
v 0.144392073 -0.383762538 0.938243032
v 0.142215118 -0.388732553 0.941821992
v 0.141505927 -0.394113779 0.946623027
v 0.144131169 -0.397782415 0.949753761
v 0.146311074 -0.4044967 0.949919581
v 0.0949085951 -0.395625174 0.91227895
v 0.0910346359 -0.393973947 0.916204929
v 0.0933446586 -0.397298664 0.922639787
v 0.0818650872 -0.396486819 0.92118144
v 0.0774242356 -0.397929132 0.922009587
v 0.0647901744 -0.396819234 0.919659674
v 0.0597668625 -0.397820294 0.923601806
v 0.0565229878 -0.399604917 0.925437391
v 0.0415633246 -0.397889733 0.92128098
v 0.0377028063 -0.399217218 0.926199794
v 0.0349491276 -0.401144952 0.928449929
v 0.0402621292 -0.407911241 0.941672981
v 0.0369878821 -0.409685731 0.943481326
v 0.0339128152 -0.411513835 0.945450306
v -0.0358777866 -0.395274937 0.897587895
v -0.035323862 -0.394785285 0.905246079
v -0.0328858532 -0.394800276 0.914375007
v -0.0360271521 -0.396667749 0.916386366
v -0.364261866 -0.583598554 0.751442909
v -0.362465501 -0.577045798 0.754716873
v -0.347631842 -0.573325932 0.764078498
v -0.371034294 -0.567127585 0.737676203
v -0.380039275 -0.569275439 0.727919698
v -0.381257325 -0.57598877 0.725063384
v -0.371191382 -0.584071398 0.734680235
v -0.363538235 -0.587981582 0.74530834
v -0.365692198 -0.587063491 0.747491181
g path_000000
l 72 71 70 69 68 67 66 65 64 63 62 61 60 59 58 57 56 55 54 53 52 51 50 49 48 47 46 45 44 43 42 41 40 39 38 37 36 35 34 33 32 31 30 29 28 27 26 25 24 23 22 21 20 19 18 17 16 15 14 13 12 11 10 9 8 7 6 5 4 3 2 1 1485 1484 1483 1482
g path_000001
l 73 74 75 76 77 78 79 80 81 82 83 84 85 86 87 88 89 90 91 92 93 94 95 96 97 98 99 100 101 102 103 104 105 106 107 108 109 110 111 112 113 114 115 116 117 118 119
g path_000002
l 120 121 122 123 124 125
g path_000003
l 126 127 128 129 130 131 132 133 134 135 136 137 138 139 140 141 142 143 144 145 146 147 148 149 150 151 152 153 154 155 156 157 158 159 160 161 162 163 164 165 166 167 168 169 170 171 172 173 174 175
g path_000004
l 179 180 181 182 183 184
g path_000005
l 185 186 187 188
g path_000006
l 189 190 191 192 193 194 195 196 197 198 199 200 201 202 203 204 205 206 207 208 209 210 211 212 213 214 215 216 217 218
g path_000007
l 219 220 221 222 223 224
g path_000008
l 225 226 227 228 229 230 231 232 233 234 235 236 237 238
g path_000009
l 239 240 241 242 243
g path_000010
l 244 245 246 247
g path_000011
l 248 249 250 251 252 253 254
g path_000012
l 255 256 257 258 259 260 261 262 263 264 265 266 267 268 269 270 271 272 273 274 275 276 277 278 279 280 281 282 283 284 285 286 287 288 289 290 291 292 293 294 295 296 297 298 299 300 301 302 303 304 305 306 307 308 309 310 311 312 313
g path_000013
l 314 315 316 317 318 319 320 321 322 323 324 325 326 327 328 329 330 331 332 333 334 335 336 337 338 339 340 341 342 343 344 345 346 347 348 349 350 351
g path_000014
l 353 354 355 356 357 358 359 360 361 362 363 364 365 366 367 368
g path_000015
l 369 370 371 372 373 374 375 376 377 378 379 380 381 382 383 384 385 386 387 388 389 390 391 392 393 394 395 396 397 398 399 400 401 402 403 404 405 406
g path_000016
l 407 408 409 410 411 412 413 414 415 416 417
g path_000017
l 418 419 420 421
g path_000018
l 422 423
g path_000019
l 424 425 426
g path_000020
l 427 428 429 430 431 432 433 434 435 436 437 438
g path_000021
l 441 442
g path_000022
l 443 444 445 446
g path_000023
l 448 449 450 451
g path_000024
l 452 453 454 455 456 457 458 459 460 461 462 463 464 465 466 467 468 469 470
g path_000025
l 471 472
g path_000026
l 473 474 475 476 477
g path_000027
l 478 479 480 481 482 483 484 485 486 487
g path_000028
l 488 489
g path_000029
l 490 491 492 493 494 495 496
g path_000030
l 499 500 501 502 503 504
g path_000031
l 505 506
g path_000032
l 507 508 509 510 511 512 513 514 515 516 517
g path_000033
l 522 523 524 525 526 527 528 529
g path_000034
l 530 531
g path_000035
l 532 533 534 535 536 537 538 539 540 541 542 543 544 545 546 547 548 549 550 551 552 553 554 555 556 557 558 559 560 561 562 563 564 565 566 567 568 569 570 571 572 573 574 575 576 577 578 579 580 581 582 583 584 585 586 587 588 589 590 591 592 593 594 595 596 597 598 599 600 601 602 603 604 605 606 607 608 609 610 611 612 613 614 615 616 617 618 619 620 621 622 623 624 625 626 627 628 629 630 631 632 633 634 635 636 637 638 639 640 641 642 643 644 645 646 647 648 649 650 651 652 653 654 655 656 657 658 659 660 661 662 663 664 665 666 667 668 669 670 671 672 673 674 675 676 677 678 679 680 681 682 683 684 685 686 687 688 689 690 691 692 693 694 695 696 697 698 699 700 701 702 703 704 705 706 707 708 709 710 711 712 713 714 715 716 717 718 719 720 721 722 723 724 725 726 727 728 729 730 731 732 733 734 735 736 737 738 739 740 741 742 743 744 745 746 747 748 749 750 751 752 753 754 755 756 757 758 759 760 761 762 763 764 765 766 767 768 769 770 771 772 773 774 775 776 777 778 779 780 781 782 783 784 785 786 787 788 789 790 791 792 793 794 795 796 797 798 799 800 801 802 803 804 805 806
g path_000036
l 807 808 809 810 811 812 813 814 815 816 817
g path_000037
l 818 819 820
g path_000038
l 821 822 823 824 825 826 827 828 829 830 831 832 833 834 835 836 837 838 839 840 841 842 843 844 845 846 847 848 849 850 851 852 853 854 855 856 857 858 859 860 861 862 863 864 865 866 867 868 869 870 871 872 873 874 875 876 877 878 879 880 881 882 883 884 885 886 887 888 889 890 891 892 893 894 895 896 897 898 899 900 901
g path_000039
l 902 903 904 905 906 907 908 909 910 911 912 913 914 915 916 917 918 919 920 921 922 923 924 925 926 927 928 929 930 931 932 933 934 935 936 937 938 939 940 941 942 943 944 945 946 947 948 949 950 951 952 953 954 955
g path_000040
l 956 957 958 959 960 961 962 963 964 965 966 967 968 969 970 971 972 973 974 975 976 977 978 979 980 981 982 983 984 985 986 987 988 989 990 991 992 993 994 995 996
g path_000041
l 997 998 999 1000 1001 1002 1003 1004 1005 1006 1007 1008 1009
g path_000042
l 1010 1011 1012
g path_000043
l 1014 1015
g path_000044
l 1016 1017 1018 1019 1020 1021 1022
g path_000045
l 1023 1024 1025 1026 1027 1028
g path_000046
l 1030 1031 1032 1033 1034 1035 1036 1037 1038 1039 1040 1041 1042 1043 1044 1045 1046
g path_000047
l 1047 1048 1049
g path_000048
l 1050 1051
g path_000049
l 1052 1053 1054 1055 1056 1057 1058 1059 1060 1061 1062 1063
g path_000050
l 1064 1065 1066 1067 1068 1069 1070 1071 1072 1073 1074 1075 1076 1077 1078
g path_000051
l 1079 1080 1081 1082 1083 1084 1085 1086 1087
g path_000052
l 1088 1089 1090 1091 1092 1093
g path_000053
l 1094 1095 1096 1097 1098 1099 1100 1101 1102 1103 1104 1105 1106 1107 1108
g path_000054
l 1109 1110 1111
g path_000055
l 1112 1113 1114 1115 1116 1117 1118 1119 1120 1121 1122 1123 1124 1125 1126 1127 1128 1129
g path_000056
l 1130 1131 1132 1133 1134 1135 1136 1137 1138
g path_000057
l 1139 1140 1141 1142 1143 1144 1145 1146 1147 1148 1149 1150 1151 1152 1153 1154 1155 1156 1157 1158 1159 1160 1161 1162 1163 1164 1165
g path_000058
l 1166 1167
g path_000059
l 1168 1169
g path_000060
l 1170 1171 1172 1173 1174 1175 1176 1177 1178 1179 1180 1181 1182 1183 1184 1185 1186
g path_000061
l 1187 1188 1189 1190 1191 1192 1193 1194 1195 1196 1197 1198 1199
g path_000062
l 1200 1201 1202 1203 1204 1205 1206 1207
g path_000063
l 1208 1209 1210 1211 1212 1213 1214 1215 1216 1217 1218 1219 1220 1221
g path_000064
l 1222 1223 1224 1225
g path_000065
l 1226 1227 1228 1229 1230
g path_000066
l 1232 1233 1234 1235 1236 1237 1238 1239 1240 1241 1242 1243
g path_000067
l 1244 1245 1246 1247 1248 1249 1250 1251 1252 1253
g path_000068
l 1254 1255 1256 1257 1258 1259 1260 1261 1262
g path_000069
l 1263 1264 1265 1266 1267 1268 1269 1270 1271 1272 1273 1274 1275 1276 1277 1278 1279 1280 1281 1282 1283 1284 1285
g path_000070
l 1286 1287 1288 1289 1290 1291 1292 1293 1294 1295
g path_000071
l 1297 1298 1299 1300 1301
g path_000072
l 1303 1304 1305 1306 1307 1308 1309 1310 1311
g path_000073
l 1312 1313 1314 1315 1316 1317 1318 1319 1320
g path_000074
l 1321 1322 1323 1324 1325 1326 1327 1328 1329 1330 1331 1332 1333 1334 1335 1336 1337 1338 1339 1340 1341 1342 1343 1344 1345 1346 1347
g path_000075
l 1348 1349 1350 1351
g path_000076
l 1352 1353 1354
g path_000077
l 1356 1357 1358 1359 1360 1361 1362 1363 1364 1365 1366 1367 1368
g path_000078
l 1369 1370 1371 1372 1373 1374 1375 1376 1377
g path_000079
l 1378 1379 1380 1381 1382
g path_000080
l 1383 1384 1385 1386 1387 1388 1389 1390 1391
g path_000081
l 1392 1393 1394
g path_000082
l 1395 1396 1397 1398 1399 1400 1401 1402 1403 1404 1405 1406 1407 1408 1409
g path_000083
l 1410 1411 1412 1413 1414
g path_000084
l 1415 1416 1417 1418 1419 1420 1421 1422 1423
g path_000085
l 1424 1425 1426 1427
g path_000086
l 1428 1429 1430 1431
g path_000087
l 1432 1433 1434
g path_000088
l 1435 1436
g path_000089
l 1437 1438 1439 1440
g path_000090
l 1444 1445 1446 1447 1448 1449
g path_000091
l 1453 1454 1455 1456 1457 1458 1459
g path_000092
l 1460 1461 1462
g path_000093
l 1463 1464 1465 1466 1467 1468 1469
g path_000094
l 1470 1471
g path_000095
l 1472 1473 1474 1475
g path_000096
l 1476 1477 1478 1479 1480 1481
g path_000097
l 1489 1488 1487 1486 1508 1507 1506
g path_000098
l 1490 1491 1492 1493 1494 1495 1496 1497 1498
g path_000099
l 1499 1500 1501 1502 1503 1504 1505
g path_000100
l 1509 1524 1523
g path_000101
l 1510 1511 1512 1513 1514 1515 1516
g path_000102
l 1517 1518
g path_000103
l 1519 1520 1521 1522
g path_000104
l 1525 1567 1566 1565
g path_000105
l 1526 1527
g path_000106
l 1530 1531 1532 1533 1534 1535
g path_000107
l 1536 1537 1538 1539 1540 1541 1542 1543 1544 1545 1546 1547 1548 1549 1550 1551 1552 1553 1554 1555 1556
g path_000108
l 1557 1558 1559 1560
g path_000109
l 1563 1564
g path_000110
l 1568 1589 1588 1587 1586 1585 1584 1583 1582 1581 1580
g path_000111
l 1571 1572
g path_000112
l 1573 1574
g path_000113
l 1578 1579
g path_000114
l 1590 1606 1605 1604 1603 1602 1601 1600
g path_000115
l 1591 1592
g path_000116
l 1593 1594 1595 1596 1597 1598 1599
g path_000117
l 1607 1653 1652 1651 1650 1649 1648 1647 1646
g path_000118
l 1608 1609 1610 1611 1612 1613 1614 1615 1616 1617
g path_000119
l 1618 1619 1620 1621 1622 1623
g path_000120
l 1624 1625
g path_000121
l 1626 1627 1628
g path_000122
l 1629 1630
g path_000123
l 1631 1632 1633 1634 1635 1636 1637
g path_000124
l 1638 1639 1640 1641 1642 1643 1644 1645
g path_000125
l 1654 1669 1668
g path_000126
l 1655 1656 1657
g path_000127
l 1658 1659 1660 1661
g path_000128
l 1662 1663 1664 1665
g path_000129
l 1671 1672 1673 1674 1675 1676 1677 1678 1679 1680 1681
g path_000130
l 1682 1683 1684 1685 1686
g path_000131
l 1687 1688
g path_000132
l 1689 1690 1691
g path_000133
l 1692 1693 1694 1695 1696
g path_000134
l 1697 1698 1699 1700
g path_000135
l 1701 1702 1703 1704 1705 1706
g path_000136
l 1707 1708
g path_000137
l 1709 1710 1711 1712 1713 1714
g path_000138
l 1715 1716 1717 1718 1719 1720 1721 1722 1723 1724
g path_000139
l 1725 1726 1727 1728 1729 1730 1731 1732 1733 1734 1735 1736
g path_000140
l 1739 1738 1799 1798 1797 1796
g path_000141
l 1740 1741 1742 1743 1744 1745 1746 1747 1748 1749 1750 1751 1752 1753 1754 1755 1756 1757 1758 1759 1760 1761 1762 1763 1764 1765 1766 1767 1768 1769
g path_000142
l 1770 1771 1772 1773 1774 1775 1776 1777 1778 1779 1780 1781 1782 1783 1784 1785 1786 1787
g path_000143
l 1788 1789 1790 1791 1792 1793 1794
g path_000144
l 1801 1800 1822 1821 1820
g path_000145
l 1802 1803 1804 1805 1806
g path_000146
l 1807 1808 1809 1810 1811 1812 1813
g path_000147
l 1815 1816 1817 1818
g path_000148
l 1823 1837
g path_000149
l 1830 1831 1832
g path_000150
l 1833 1834
g path_000151
l 1835 1836
g path_000152
l 1840 1839 1838 1863 1862
g path_000153
l 1841 1842 1843
g path_000154
l 1844 1845 1846 1847 1848 1849 1850 1851 1852
g path_000155
l 1854 1855
g path_000156
l 1857 1858
g path_000157
l 1859 1860 1861
g path_000158
l 1864 1918 1917 1916 1915
g path_000159
l 1865 1866
g path_000160
l 1867 1868 1869 1870 1871 1872 1873 1874 1875 1876 1877 1878 1879
g path_000161
l 1880 1881 1882 1883 1884 1885 1886 1887 1888
g path_000162
l 1889 1890 1891 1892 1893
g path_000163
l 1894 1895 1896 1897 1898 1899 1900
g path_000164
l 1901 1902 1903 1904 1905 1906 1907 1908 1909 1910 1911 1912 1913 1914
g path_000165
l 1921 1920 1919 1927 1926 1925 1924 1923 1922
