# Fixed world centers; Z up; paths immutable
v 0.0903658718 0.894095361 0.686489284
v 0.077342093 0.888699651 0.683379471
v 0.0826381966 0.90475738 0.673100054
v 0.0741465837 0.905557334 0.674990177
v 0.0479999445 0.87853539 0.685886383
v 0.0428809077 0.884589911 0.685311258
v 0.0373961926 0.890063405 0.685007393
v 0.0302649662 0.892868698 0.685941041
v 0.0204350725 0.891814888 0.684759021
v 0.0143618742 0.889662683 0.682974815
v 0.014548447 0.904993474 0.674178302
v 0.00316544273 0.901355028 0.674205005
v -0.013128086 0.881703019 0.684472084
v -0.020140443 0.884553492 0.685370743
v -0.0259721447 0.889354825 0.685361445
v -0.0318159088 0.89413619 0.685361445
v -0.0429430492 0.89066118 0.685315132
v -0.0485014468 0.889223516 0.683221281
v -0.0432478972 0.906028926 0.672637343
v -0.0524340235 0.905174673 0.675262213
v -0.062235184 0.903877199 0.674211085
v -0.0824508518 0.884068906 0.685637951
v -0.0882486999 0.888812661 0.685637951
v -0.0940203443 0.893601656 0.68561697
v -0.101458415 0.895504534 0.686931968
v -0.112398244 0.885292172 0.685090125
v -0.10499797 0.906260729 0.67259258
v -0.112574875 0.907929659 0.674027324
v -0.121864036 0.907284975 0.672683716
v -0.129287079 0.909897983 0.669825912
v -0.128266037 0.904943764 0.667179346
v -0.127464101 0.907808423 0.658122897
v -0.12828061 0.907826781 0.650381863
v -0.129075482 0.907885969 0.642606616
v -0.154833004 0.871363401 0.653358817
v -0.157759175 0.873637497 0.653397918
v -0.165066659 0.875596225 0.654705584
v -0.174635619 0.874244571 0.653749645
v -0.185318485 0.870852828 0.653768599
v -0.191069961 0.875519812 0.653781295
v -0.191383854 0.876504123 0.645655572
v -0.193033904 0.875081182 0.638665557
v -0.192082033 0.878357291 0.629402995
v -0.192184731 0.871405125 0.627772987
v -0.190978527 0.875131428 0.618259728
v -0.193657726 0.871856928 0.612130046
v -0.193743423 0.87326175 0.603707254
v -0.19287473 0.876393616 0.594413221
v -0.192671046 0.870742679 0.58826369
v -0.191309869 0.874756992 0.57848531
v -0.19196856 0.875135005 0.570489824
v -0.194665 0.871839404 0.564320683
v -0.197361439 0.868543804 0.558151603
v -0.195808887 0.864522576 0.555067003
v -0.198505327 0.861226976 0.548897922
v -0.199554116 0.860902607 0.541213334
v -0.19362773 0.873164892 0.527066588
v -0.189118341 0.882883847 0.514157236
v -0.196133345 0.864151776 0.514661551
v -0.19191353 0.873331726 0.50196749
v -0.194354773 0.870510578 0.495479107
v -0.197076082 0.867184579 0.489253074
v -0.198556796 0.866097927 0.481847852
v -0.19959119 0.85813725 0.476800978
v -0.198820472 0.861106336 0.467228591
v -0.198999926 0.86236757 0.458538592
v -0.199106157 0.86376518 0.44975394
v -0.194667324 0.873371959 0.436525524
v -0.194541812 0.866659403 0.434801877
v -0.193171889 0.870719433 0.424507737
v -0.192444548 0.873627603 0.414806247
v -0.193397075 0.873511016 0.406730413
v -0.196152598 0.870143235 0.40042612
v -0.195943788 0.864350021 0.394121826
v -0.197217003 0.863654137 0.386335284
v -0.195123851 0.869031429 0.37515223
v -0.193984285 0.872696519 0.364885479
v -0.208119482 0.855771244 0.371618032
v -0.207648233 0.862798095 0.377236664
v -0.22023049 0.856368959 0.379437923
v -0.215920448 0.872051716 0.372043043
v -0.23179628 0.859532595 0.377640963
v -0.231227517 0.876306117 0.370989889
v -0.241329849 0.874307096 0.370717466
v -0.241353855 0.867229342 0.36923033
v -0.242373064 0.867067337 0.361140609
v -0.249952093 0.869713306 0.358282387
v -0.255249977 0.876611292 0.353033513
v -0.2564345 0.867340744 0.352791667
v -0.254216105 0.873238504 0.34125191
v -0.256345123 0.871040881 0.334271818
v -0.255179077 0.867019236 0.326939762
v -0.254131675 0.862770736 0.319727957
v -0.255512983 0.861082494 0.316567719
v -0.255303651 0.855274379 0.310247242
v -0.253833979 0.850930631 0.307216853
v -0.258488506 0.835276067 0.310765594
v -0.256238043 0.823676765 0.314698607
v -0.242460147 0.834074616 0.301669747
v -0.240870237 0.829956651 0.298510939
v -0.23764874 0.820150435 0.301413536
v -0.230562299 0.816574812 0.304806262
v -0.194391072 0.866999388 0.26812166
v -0.193786263 0.868902087 0.262781739
v -0.192397356 0.873035729 0.251880765
v -0.19520998 0.869598091 0.245445848
v -0.196471319 0.883229613 0.240290344
v -0.203898057 0.876896918 0.24975723
v -0.194849998 0.900498152 0.241509363
v -0.210215285 0.888504863 0.251517892
v -0.217146918 0.891842663 0.252468705
v -0.226858273 0.890911162 0.251705557
v -0.234928146 0.892983019 0.249174461
v -0.232120425 0.907185733 0.238022327
v -0.241374969 0.907095909 0.236765236
v -0.248495176 0.910058618 0.237941787
v -0.255136818 0.906660974 0.237177506
v -0.255934536 0.907016993 0.228497669
v -0.235391945 0.955888748 0.192394495
v -0.245788708 0.954763234 0.18745321
v -0.251114428 0.953947425 0.185136944
v -0.256912529 0.952221513 0.183367908
v -0.266006917 0.953531027 0.176984623
v -0.270708829 0.953887165 0.173972666
v -0.280294865 0.954240322 0.168167055
v -0.284781486 0.95500648 0.164909989
v -0.289268106 0.955772638 0.161652923
v -0.295019746 0.955108285 0.154951289
v -0.3009305 0.954134405 0.148436591
v -0.305417478 0.954900682 0.145179242
v -0.307862461 0.952210665 0.138181463
v -0.313174754 0.952417612 0.130940959
v -0.317156643 0.954186559 0.12706624
v -0.285384595 1.02785254 0.0745565593
v -0.293271542 1.03085864 0.0714361146
v -0.301050663 1.03407705 0.0681850016
v -0.302631766 1.03204632 0.0650122687
v -0.308075935 1.03224754 0.0576133095
v -0.306497276 1.01889169 0.0582989156
v -0.304367125 1.03311968 0.0465981178
v -0.302381545 1.03051877 0.0377160572
v -0.302405864 1.02163315 0.0416723266
v -0.334331185 0.951467097 0.075305663
v -0.334522188 0.953293562 0.0653937981
v -0.336353302 0.951855183 0.0575262047
v -0.334251612 0.958268881 0.0446481779
v -0.334529638 0.951234043 0.0387000926
v -0.335316956 0.951882303 0.0294483546
v -0.33407414 0.94676435 0.0266865045
v -0.331157148 0.946072221 0.0166349672
v -0.326118469 0.949565232 0.0038311556
v -0.32448259 0.945199013 0.000561279419
v -0.320041507 0.947456479 -0.0115076331
v -0.317031175 0.945779741 -0.0165572837
v -0.313539267 0.937432766 -0.0233888049
v -0.310969889 0.934869647 -0.0278710071
v -0.306178749 0.9279899 -0.0311895739
v -0.304508418 0.923663676 -0.0345081426
v -0.293841183 0.928151727 -0.045420818
v -0.337542504 0.827839911 0.0138636017
v -0.353435725 0.806531668 0.0254352503
v -0.36470896 0.802367568 0.0271835085
v -0.366096377 0.808017433 0.0250510797
v -0.375996411 0.806459844 0.025049679
v -0.387577325 0.801546037 0.0273051541
v -0.393433481 0.806806803 0.0270825997
v -0.404140621 0.795084536 0.0322553068
v -0.405686259 0.808872998 0.026304001
v -0.41817075 0.801939547 0.0299106557
v -0.426003724 0.804261923 0.0273128245
v -0.428915799 0.806891918 0.0271948092
v -0.438622385 0.805401444 0.0271548014
v -0.445526153 0.809578538 0.0233139321
v -0.443116933 0.823086262 0.0158990081
v -0.44656989 0.83560288 0.00210293732
v -0.448907912 0.84064734 -0.00399122993
v -0.444001436 0.861903548 -0.0254112184
v -0.445236802 0.869340956 -0.033156056
v -0.447529316 0.866999269 -0.0403906219
v -0.447846532 0.87762022 -0.0547559075
v -0.448036015 0.870805025 -0.0606803223
v -0.444876105 0.88750124 -0.0748335272
v -0.445372254 0.888935864 -0.0847436488
v -0.447935104 0.886059225 -0.0917062983
v -0.448340952 0.887693703 -0.10179463
v -0.447124481 0.883762002 -0.109793849
v -0.440641016 0.879386902 -0.110258192
v -0.433575839 0.886334419 -0.121367738
v -0.442225337 0.887494087 -0.12315847
v -0.44581145 0.890230656 -0.127817124
v -0.340445668 1.13091588 -0.297147751
v -0.350921988 1.12951505 -0.297210813
v -0.355653793 1.12917995 -0.295088917
v -0.363537908 1.13321555 -0.298953712
v -0.368367314 1.13404024 -0.302459627
v -0.377539277 1.1353159 -0.304391503
v -0.380448252 1.14865947 -0.309954375
v -0.391544193 1.13592362 -0.303967357
v -0.403451711 1.12970293 -0.295851648
v -0.412260741 1.13161802 -0.298227668
v -0.423688561 1.12774456 -0.296551317
v -0.430272937 1.13451958 -0.302326798
v -0.432993978 1.13842928 -0.303187609
v -0.441068083 1.14192891 -0.306670934
v -0.44959867 1.13438058 -0.304290622
v -0.45618546 1.13961637 -0.304211795
v -0.471419007 1.12683308 -0.296294481
v -0.47792694 1.1321578 -0.296294481
v -0.486363143 1.13468039 -0.299087703
v -0.49089849 1.13602281 -0.302916974
v -0.498392612 1.14071429 -0.307228029
v -0.508013129 1.14047003 -0.308081657
v -0.510588408 1.14470875 -0.309186786
v -0.527661681 1.12691617 -0.297749877
v -0.534810305 1.130602 -0.2966263
v -0.544898272 1.12901902 -0.296539903
v -0.548126638 1.13166046 -0.296539903
v -0.552219331 1.14437258 -0.306451946
v -0.574648499 1.11297691 -0.285505801
v -0.576364458 1.11742127 -0.282096595
v -0.575184882 1.13750958 -0.283055305
v -0.578400671 1.14014065 -0.283055305
v -0.590964615 1.13038349 -0.2726475
v -0.603348494 1.12274075 -0.268383116
v -0.608220041 1.13172054 -0.270982116
v -0.617292762 1.13215744 -0.272318751
v -0.616710186 1.14612091 -0.284841985
v -0.626429141 1.14496565 -0.285074025
v -0.636165559 1.14370823 -0.285232693
v -0.637050867 1.14341497 -0.28969115
v -0.637273848 1.14676118 -0.30136317
v -0.638176501 1.14839518 -0.311871648
v -0.636896491 1.14479625 -0.320576012
v -0.638048351 1.14580202 -0.330690533
v -0.636057854 1.1332196 -0.334927917
v -0.637090921 1.13255751 -0.33916989
v -0.639915705 1.11857903 -0.34051016
v -0.638218701 1.11408544 -0.343885303
v -0.64233321 1.08628809 -0.337111473
v -0.639955342 1.08164895 -0.335651696
v -0.6396963 1.06496847 -0.336762756
v -0.638406336 1.05953431 -0.33940357
v -0.640914202 1.03612161 -0.335535109
v -0.640382886 1.02886355 -0.336809784
v -0.63769412 1.01837397 -0.34228307
v -0.63635087 1.01313245 -0.345017433
v -0.643297195 0.987674594 -0.332835168
v -0.644068956 0.968912482 -0.332075238
v -0.642390788 0.964566052 -0.335409284
v -0.639034569 0.955873191 -0.342077374
v -0.63735646 0.951526761 -0.34541142
v -0.635678351 0.947180331 -0.348745465
v -0.639548123 0.919546962 -0.336473018
v -0.64382571 0.892821848 -0.329413772
v -0.644645452 0.882649183 -0.328253269
v -0.643878162 0.876255691 -0.329945385
v -0.640566766 0.86767894 -0.336524397
v -0.638911068 0.863390565 -0.339813888
v -0.635599673 0.854813814 -0.34639293
v -0.633943975 0.850525439 -0.34968242
v -0.632444024 0.845874965 -0.352691561
v -0.642086506 0.807329774 -0.33595261
v -0.642974377 0.79724288 -0.334660262
v -0.640515208 0.786880314 -0.339698046
v -0.638222337 0.782622814 -0.338321507
v -0.637838125 0.767561376 -0.339631885
v -0.637623668 0.760105193 -0.340326458
v -0.646765649 0.723575294 -0.32450515
v -0.645708919 0.718118489 -0.326710433
v -0.644091845 0.71393007 -0.329923272
v -0.640857577 0.705553234 -0.336348921
v -0.639240503 0.701364815 -0.33956176
v -0.636006296 0.692987978 -0.345987409
v -0.634389162 0.68879962 -0.349200249
v -0.631706655 0.679203391 -0.354632765
v -0.639748693 0.65372169 -0.340456367
v -0.64364773 0.637454212 -0.333735406
v -0.644494772 0.618970335 -0.327145427
v -0.642900884 0.614842057 -0.330312133
v -0.639713049 0.606585503 -0.336645544
v -0.638119161 0.602457225 -0.339812249
v -0.634931386 0.594200671 -0.34614566
v -0.633337498 0.590072393 -0.349312365
v -0.638338029 0.564280629 -0.340916187
v -0.640791655 0.551547289 -0.336799502
v -0.64406395 0.537110388 -0.331208169
v -0.644137263 0.522111058 -0.331665754
v -0.64256537 0.518039703 -0.334788799
v -0.639421523 0.509896994 -0.341034889
v -0.637849569 0.505825579 -0.344157964
v -0.636277676 0.501754224 -0.347281009
v -0.642172217 0.473589271 -0.331706285
v -0.64444989 0.454301 -0.328202099
v -0.647172987 0.441417724 -0.323600054
v -0.646654487 0.435270905 -0.324824899
v -0.64355576 0.427245021 -0.330981374
v -0.642006397 0.423232079 -0.334059596
v -0.638907671 0.415206224 -0.340216041
v -0.637358308 0.411193281 -0.343294293
v -0.635808945 0.407180339 -0.346372515
v -0.632710218 0.399154454 -0.35252896
v -0.631160855 0.395141512 -0.355607212
v -0.633311093 0.376584917 -0.352313161
v -0.645288706 0.344489962 -0.325607002
v -0.643334091 0.334379643 -0.329699159
v -0.64180702 0.330424398 -0.332733124
v -0.638752818 0.322513938 -0.338801056
v -0.637225747 0.318558723 -0.341835022
v -0.634171605 0.310648263 -0.347902924
v -0.632644534 0.306693017 -0.35093689
v -0.639082849 0.287181258 -0.339641929
v -0.641874254 0.267984331 -0.335188806
v -0.640361547 0.26406619 -0.338194311
v -0.646616459 0.238322929 -0.327501684
v -0.645113289 0.234429628 -0.330488145
v -0.64361012 0.230536342 -0.333474606
v -0.63979125 0.223403767 -0.335575521
v -0.636879265 0.21544233 -0.341378629
v -0.635376692 0.211550593 -0.344363868
v -0.637230575 0.201308906 -0.341315031
v -0.644475579 0.174258187 -0.328852981
v -0.645281971 0.166092053 -0.32768333
v -0.642309368 0.158392772 -0.333589256
v -0.640823007 0.154543132 -0.336542219
v -0.639336705 0.150693491 -0.339495182
v -0.636364102 0.14299421 -0.345401108
v -0.634877801 0.13914457 -0.348354101
v -0.636123598 0.123694114 -0.346666574
v -0.645364523 0.100200519 -0.330307007
v -0.645419836 0.0935987756 -0.330481589
v -0.641515553 0.0869793445 -0.332842052
v -0.638576806 0.0793679282 -0.338680565
v -0.637107491 0.0755622238 -0.341599852
v -0.635638118 0.0717565119 -0.344519109
v -0.63269943 0.0641450956 -0.350357652
v -0.632652819 0.0577951707 -0.350717992
v -0.639845431 0.0321676433 -0.338330328
v -0.642179012 0.0216615833 -0.334405512
v -0.644108772 0.00558366533 -0.331477493
v -0.642659545 0.00183007307 -0.334356785
v -0.641210318 -0.00192351919 -0.337236077
v -0.63705337 -0.00789256208 -0.340115368
v -0.635604143 -0.0116461543 -0.34299466
v -0.636376977 -0.0255262405 -0.34215486
v -0.643966317 -0.0449154675 -0.32878682
v -0.64320612 -0.0559989624 -0.330696404
v -0.641771495 -0.0597147048 -0.333546668
v -0.638902247 -0.0671461895 -0.339247167
v -0.637467682 -0.0708619282 -0.342097431
v -0.636033058 -0.0745776743 -0.344947696
v -0.64044255 -0.094336383 -0.337552696
v -0.642748058 -0.104340248 -0.333671927
v -0.64087373 -0.113352306 -0.337577909
v -0.645469368 -0.127130315 -0.329572201
v -0.644052327 -0.13080056 -0.332387567
v -0.639987707 -0.136637047 -0.335202903
v -0.637153625 -0.143977523 -0.340833604
v -0.635736585 -0.147647753 -0.34364897
v -0.634807885 -0.152122647 -0.345586389
v -0.641968429 -0.175845325 -0.333245754
v -0.646887422 -0.189834863 -0.324665397
v -0.644085765 -0.197091401 -0.330231726
v -0.642684877 -0.200719669 -0.333014876
v -0.641284049 -0.204347938 -0.335798025
v -0.638482392 -0.211604461 -0.341364354
v -0.637081563 -0.21523273 -0.344147503
v -0.634279847 -0.222489268 -0.349713832
v -0.632879019 -0.226117522 -0.352496982
v -0.641659737 -0.252196789 -0.332280159
v -0.640271068 -0.255793482 -0.335039109
v -0.64041096 -0.267581314 -0.335313141
v -0.640629351 -0.273691207 -0.335182428
v -0.642597079 -0.282529652 -0.33190608
v -0.64621377 -0.299630612 -0.325922847
v -0.644838631 -0.303192377 -0.328654975
v -0.642088294 -0.310315907 -0.33411926
v -0.640713096 -0.313877672 -0.336851418
v -0.637962818 -0.321001202 -0.342315704
v -0.63658762 -0.324562967 -0.345047861
v -0.635212481 -0.328124732 -0.347779989
v -0.640610814 -0.347990662 -0.333725452
v -0.641335309 -0.354700089 -0.332683086
v -0.642463267 -0.367586643 -0.331172973
v -0.645462215 -0.377671808 -0.326040208
v -0.649866045 -0.39535588 -0.31863597
v -0.648515821 -0.398852944 -0.321318477
v -0.645815492 -0.405847043 -0.326683491
v -0.644465268 -0.409344107 -0.329365999
v -0.643115103 -0.412841171 -0.332048506
v -0.640414774 -0.419835269 -0.33741352
v -0.63906455 -0.423332334 -0.340096027
v -0.636364222 -0.430326432 -0.345461041
v -0.635013998 -0.433823496 -0.348143548
v -0.636811435 -0.447595716 -0.340637714
v -0.635466456 -0.451079279 -0.343309879
v -0.637737334 -0.465175062 -0.339738101
v -0.637625992 -0.470408559 -0.340191931
v -0.640320599 -0.479644388 -0.3356013
v -0.639670074 -0.489437103 -0.337275147
v -0.638336301 -0.492891669 -0.339925051
v -0.635668755 -0.499800742 -0.345224857
v -0.639597476 -0.510663331 -0.338409156
v -0.644482493 -0.522830307 -0.329871476
v -0.643774867 -0.532393873 -0.331641018
v -0.642453313 -0.535816848 -0.334266692
v -0.639810145 -0.542662799 -0.33951807
v -0.637340903 -0.544683099 -0.33951807
v -0.634697795 -0.55152905 -0.344769418
v -0.636650085 -0.559442282 -0.341511339
v -0.642276049 -0.577547491 -0.331897587
v -0.641794503 -0.582072735 -0.333011091
v -0.639173627 -0.588861048 -0.338218272
v -0.637863159 -0.592255235 -0.340821832
v -0.636552691 -0.595649362 -0.343425423
v -0.636974096 -0.606513441 -0.343160361
v -0.641388059 -0.617545843 -0.335465908
v -0.638782799 -0.624293625 -0.340641975
v -0.63748014 -0.627667546 -0.343230009
v -0.641453266 -0.638017178 -0.336324036
v -0.649721622 -0.659134209 -0.31735751
v -0.649089575 -0.668343961 -0.318981797
v -0.647803962 -0.671673715 -0.321535975
v -0.646518409 -0.675003409 -0.324090123
v -0.643947244 -0.681662917 -0.32919845
v -0.642661691 -0.684992611 -0.331752598
v -0.640090525 -0.691652119 -0.336860925
v -0.638804913 -0.694981813 -0.339415073
v -0.63751936 -0.698311567 -0.341969252
v -0.634948194 -0.704971075 -0.347077578
v -0.633662581 -0.708300769 -0.349631727
v -0.631091416 -0.714960277 -0.354740053
v -0.629805863 -0.718289971 -0.357294202
v -0.638942778 -0.739621341 -0.336805522
v -0.640574753 -0.746546745 -0.33411479
v -0.64129895 -0.757188857 -0.333295226
v -0.640029907 -0.760475695 -0.335816503
v -0.638760924 -0.763762593 -0.338337779
v -0.636222839 -0.77033627 -0.343380332
v -0.637756586 -0.777053356 -0.340861946
v -0.641935229 -0.791784525 -0.333824068
v -0.648583591 -0.804651618 -0.322103649
v -0.646075606 -0.811147332 -0.327086389
v -0.644821644 -0.814395189 -0.329577744
v -0.643567681 -0.817643106 -0.332069099
v -0.641059756 -0.82413882 -0.337051809
v -0.638716817 -0.826055765 -0.337051809
v -0.636481524 -0.832874477 -0.341544628
v -0.63522774 -0.836121738 -0.344035536
v -0.634489894 -0.844695568 -0.345836461
v -0.63580513 -0.85094738 -0.343708992
v -0.638176203 -0.863099456 -0.339917839
v -0.639059067 -0.868800402 -0.33856532
v -0.64705056 -0.88272655 -0.324428737
v -0.644578159 -0.889130354 -0.329340935
v -0.643341899 -0.892332256 -0.331797034
v -0.640869439 -0.89873606 -0.336709231
v -0.639633238 -0.901937962 -0.33916533
v -0.638397038 -0.905139804 -0.341621429
v -0.637631416 -0.91337496 -0.339081943
v -0.63736105 -0.922237217 -0.340035975
v -0.63780266 -0.927304685 -0.33947587
v -0.640568614 -0.934960544 -0.334737509
v -0.646713555 -0.950879216 -0.324154973
v -0.645493507 -0.954039216 -0.326578915
v -0.643053412 -0.960359216 -0.331426829
v -0.641833365 -0.963519216 -0.333850801
v -0.640613317 -0.966679215 -0.336274743
v -0.638173223 -0.972999156 -0.341122657
v -0.636953175 -0.976159155 -0.343546629
v -0.63451308 -0.982479155 -0.348394543
v -0.633293033 -0.985639155 -0.350818485
v -0.635550439 -0.996835887 -0.342898339
v -0.6378842 -1.00377738 -0.338935435
v -0.645427823 -1.02065289 -0.325837106
v -0.64571321 -1.02535033 -0.325552166
v -0.644510329 -1.02846575 -0.327941984
v -0.642104626 -1.0346967 -0.332721561
v -0.640901804 -1.03781211 -0.33511138
v -0.638496101 -1.04404306 -0.339890957
v -0.63729322 -1.04715848 -0.342280775
v -0.634887516 -1.05338943 -0.347060353
v -0.633684635 -1.05650496 -0.349450141
v -0.632481813 -1.05962038 -0.35183996
v -0.630683839 -1.06647182 -0.355525941
v -0.633725405 -1.07390702 -0.350277483
v -0.639044464 -1.08771157 -0.336921453
v -0.637852728 -1.09079826 -0.339289188
v -0.635469258 -1.09697175 -0.344024658
v -0.63478893 -1.1005702 -0.345472962
v -0.637286723 -1.11159694 -0.341432184
v -0.636099339 -1.1146723 -0.343791246
v -0.637176514 -1.11998737 -0.342078149
v -0.635393381 -1.12670672 -0.345731527
v -0.633547723 -1.12912846 -0.349274129
v -0.631618857 -1.13519216 -0.344788432
v -0.626079202 -1.13746834 -0.342595845
v -0.619866312 -1.13909602 -0.341598123
v -0.615519822 -1.13885379 -0.345383942
v -0.607361555 -1.13836718 -0.343610644
v -0.604112148 -1.1389221 -0.341251761
v -0.593360901 -1.13627517 -0.348139018
v -0.59010011 -1.136832 -0.345771849
v -0.582705557 -1.13741302 -0.346717775
v -0.579489946 -1.13801694 -0.344262242
v -0.573946834 -1.14035189 -0.341977447
v -0.562607765 -1.136994 -0.345476717
v -0.559991837 -1.13847101 -0.346126765
v -0.553439975 -1.13958979 -0.341370434
v -0.550164044 -1.14014924 -0.338992238
v -0.54165411 -1.13979352 -0.341673315
v -0.538371861 -1.14035404 -0.339290559
v -0.530755639 -1.14084578 -0.340414405
v -0.529566526 -1.1433084 -0.334525019
v -0.516867518 -1.13923097 -0.344075263
v -0.513654649 -1.13986993 -0.341541886
v -0.507759392 -1.14196372 -0.339721799
v -0.5011639 -1.14309001 -0.334933817
v -0.497434616 -1.14326978 -0.333245903
v -0.488379836 -1.1425786 -0.336559087
v -0.485074043 -1.14314318 -0.334159225
v -0.469298184 -1.13659608 -0.348273993
v -0.466991067 -1.13805628 -0.344215333
v -0.455177367 -1.13506675 -0.351785719
v -0.451840192 -1.13563669 -0.349363089
v -0.446224749 -1.13807058 -0.346940458
v -0.442887574 -1.13864052 -0.344517857
v -0.43556869 -1.13922739 -0.340690821
v -0.429697484 -1.14144588 -0.338666141
v -0.426358521 -1.14201605 -0.336242229
v -0.42022118 -1.14401174 -0.334628582
v -0.416881174 -1.14458215 -0.332203895
v -0.411260992 -1.14701819 -0.329779238
v -0.407920986 -1.14758849 -0.32735455
v -0.395246446 -1.14413691 -0.33578977
v -0.390573502 -1.14361131 -0.335379869
v -0.379286379 -1.14096689 -0.337487668
v -0.369652271 -1.136783 -0.348669648
v -0.362892836 -1.13793731 -0.343762606
v -0.356206924 -1.13958466 -0.342816412
v -0.353409737 -1.14063942 -0.339482039
v -0.3500292 -1.14121675 -0.337027937
v -0.343753308 -1.143206 -0.335451663
v -0.336531967 -1.14443731 -0.335274845
v -0.334681362 -1.14624989 -0.330541819
v -0.327918053 -1.14740491 -0.325631976
v -0.322596669 -1.14688671 -0.330070764
v -0.315821886 -1.14804363 -0.325152606
v -0.302585274 -1.14454985 -0.333689272
v -0.293675691 -1.14078188 -0.339233011
v -0.288842559 -1.1402452 -0.338817626
v -0.274366349 -1.13589215 -0.348952025
v -0.270935237 -1.13647807 -0.346461207
v -0.263860494 -1.13796782 -0.345837355
v -0.25829941 -1.14015234 -0.338988692
v -0.250695914 -1.13800359 -0.346485555
v -0.247782156 -1.14223111 -0.335866958
v -0.239583671 -1.1396575 -0.344152123
v -0.232694879 -1.14083385 -0.339151204
v -0.224886939 -1.14181674 -0.339470893
v -0.22345461 -1.14393425 -0.334150285
v -0.220010206 -1.14452243 -0.33164981
v -0.209199235 -1.14325821 -0.336111426
v -0.20726195 -1.14498711 -0.331505239
v -0.190350905 -1.1392014 -0.344311118
v -0.183408976 -1.14038682 -0.339271635
v -0.181039363 -1.14232564 -0.339271635
v -0.174097434 -1.14351106 -0.334232122
v -0.165291905 -1.14070511 -0.342986792
v -0.15832682 -1.14189458 -0.337930471
v -0.16131492 -1.14722812 -0.326672852
v -0.148984209 -1.14502931 -0.332874149
v -0.145501658 -1.14562404 -0.330345988
v -0.136099681 -1.14560044 -0.332545459
v -0.132610843 -1.14619613 -0.330012709
v -0.123445548 -1.14637268 -0.331848264
v -0.11645624 -1.1475662 -0.326774359
v -0.106959239 -1.14444244 -0.336140215
v -0.0981977656 -1.14439857 -0.333336711
v -0.0902865157 -1.14187706 -0.336537659
v -0.0756974965 -1.13832402 -0.345264703
v -0.0721644461 -1.13892734 -0.342699885
v -0.060936939 -1.13780153 -0.346963406
v -0.0573947132 -1.1384064 -0.344391912
v -0.0468623973 -1.13780737 -0.347691327
v -0.039762143 -1.13901985 -0.342536867
v -0.0373384841 -1.14100289 -0.342536867
v -0.0302382279 -1.14221537 -0.337382436
v -0.0266881008 -1.14282167 -0.33480522
v -0.0207143147 -1.1454109 -0.332227975
v -0.0171641875 -1.14601719 -0.32965076
v -0.00197843811 -1.14235079 -0.338610202
v -0.0072303554 -1.14893484 -0.325008303
v 0.0172290523 -1.13905728 -0.345429271
v 0.0208111368 -1.13966906 -0.34282887
v 0.0278874058 -1.14157903 -0.34152481
v 0.0350551046 -1.14280307 -0.336321414
v 0.0386389531 -1.14341509 -0.333719701
v 0.0480262451 -1.14380479 -0.335218728
v 0.0516157001 -1.14441776 -0.332612962
v 0.0596306175 -1.14573586 -0.332404345
v 0.063223362 -1.14634943 -0.329796165
v 0.0779892802 -1.14326894 -0.337704629
v 0.0800531507 -1.14489174 -0.33322975
v 0.080047071 -1.15081036 -0.319363534
v 0.0989518836 -1.142156 -0.33902514
v 0.106191508 -1.14339232 -0.33376953
v 0.123530135 -1.13880742 -0.344462484
v 0.127168342 -1.13942873 -0.341821313
v 0.13080655 -1.14005005 -0.339180142
v 0.138670608 -1.14159429 -0.338583618
v 0.149952009 -1.14098263 -0.341967791
v 0.153581128 -1.14161861 -0.339294821
v 0.159461036 -1.14375877 -0.332350284
v 0.167131618 -1.14254057 -0.338354021
v 0.184576303 -1.13744736 -0.344729036
v 0.187082976 -1.13949835 -0.344729036
v 0.194426388 -1.14075232 -0.339398056
v 0.198098093 -1.14137936 -0.336732596
v 0.204276472 -1.14405727 -0.334067106
v 0.207948178 -1.14468431 -0.331401616
v 0.226243824 -1.1399281 -0.342442989
v 0.229412735 -1.14376295 -0.332343251
v 0.240512058 -1.14058888 -0.341992587
v 0.245367229 -1.14339399 -0.333782762
v 0.25707835 -1.13989294 -0.344047904
v 0.262908041 -1.14211655 -0.336900383
v 0.268856943 -1.14212978 -0.340695798
v 0.276279211 -1.14339721 -0.335307568
v 0.278928995 -1.1446656 -0.331444353
v 0.286235094 -1.14673769 -0.329919338
v 0.289946228 -1.14737153 -0.327225238
v 0.307487816 -1.14339733 -0.33685261
v 0.314945072 -1.14467084 -0.331438988
v 0.325656652 -1.14195561 -0.340290576
v 0.333139092 -1.14323342 -0.334858686
v 0.336880326 -1.14387226 -0.33214274
v 0.34459874 -1.14577353 -0.330951929
v 0.348719001 -1.1461941 -0.328637302
v 0.360140085 -1.14596629 -0.331374019
v 0.364444494 -1.14628839 -0.329237521
v 0.385210514 -1.14073062 -0.341811597
v 0.393814176 -1.13860893 -0.344170421
v 0.40639624 -1.13782108 -0.347967237
v 0.413978815 -1.13911593 -0.342462659
v 0.418439656 -1.1401726 -0.344420701
v 0.424149722 -1.14252853 -0.336958051
v 0.427940995 -1.14317596 -0.334205776
v 0.440370649 -1.14254832 -0.337709248
v 0.438111871 -1.14658856 -0.328701168
v 0.45699355 -1.14238739 -0.33879739
v 0.460803479 -1.14303803 -0.336031586
v 0.469501913 -1.1445502 -0.335602373
v 0.473315209 -1.14520144 -0.332834095
v 0.491330177 -1.14160204 -0.341841221
v 0.490836293 -1.14737916 -0.328042328
v 0.494654715 -1.14803123 -0.325270325
v 0.514438033 -1.14354229 -0.335910231
v 0.518276036 -1.1441977 -0.333123982
v 0.530852616 -1.14368653 -0.336443633
v 0.534699559 -1.14434338 -0.333650917
v 0.555696785 -1.13934028 -0.345265329
v 0.559564888 -1.14000082 -0.342457265
v 0.567301154 -1.14132202 -0.336841106
v 0.572970927 -1.1418674 -0.339820176
v 0.580715954 -1.14319003 -0.33419764
v 0.593359649 -1.14277387 -0.337361634
v 0.598795354 -1.14261615 -0.336055905
v 0.609741032 -1.13955867 -0.340088755
v 0.620203555 -1.14034724 -0.341043204
v 0.62777251 -1.13822675 -0.337724119
v 0.631675303 -1.13889325 -0.334890872
v 0.628645062 -1.13874912 -0.323950648
v 0.632134736 -1.13876176 -0.316730291
v 0.62883395 -1.13876355 -0.305591166
v 0.631681442 -1.13996863 -0.301787823
v 0.632833779 -1.13764322 -0.294909835
v 0.632758737 -1.13596213 -0.28688252
v 0.631449759 -1.12867582 -0.286665589
v 0.63196671 -1.11955237 -0.284188837
v 0.62886709 -1.1176188 -0.28376779
v 0.621343911 -1.1127677 -0.273715526
v 0.617769182 -1.11109746 -0.27284202
v 0.614630461 -1.10476351 -0.270899683
v 0.623913765 -1.09531045 -0.278169155
v 0.628341198 -1.08482695 -0.283364952
v 0.626327455 -1.0778116 -0.282491475
v 0.627547145 -1.0726608 -0.282149911
v 0.626255512 -1.06522393 -0.281958908
v 0.629774988 -1.05878115 -0.283781499
v 0.622338057 -1.05472195 -0.277798504
v 0.620111823 -1.04694676 -0.272708744
v 0.616797984 -1.04511404 -0.27210784
v 0.61583066 -1.03744638 -0.272224426
v 0.619039953 -1.03110981 -0.273752213
v 0.619043112 -1.02285254 -0.274786413
v 0.623312891 -1.01587534 -0.277307898
v 0.629008532 -1.0043087 -0.283711761
v 0.622932673 -0.999459267 -0.279020846
v 0.623974025 -0.994278967 -0.278492898
v 0.621080101 -0.986783564 -0.272743344
v 0.618376613 -0.984571576 -0.272743344
v 0.614226162 -0.978611887 -0.269868582
v 0.614939392 -0.969790637 -0.271581143
v 0.626853645 -0.958150804 -0.28129831
v 0.6226753 -0.95215106 -0.278404206
v 0.621218562 -0.948378146 -0.275510103
v 0.617040217 -0.942378402 -0.272615999
v 0.618957758 -0.932714224 -0.275471658
v 0.618224502 -0.928494751 -0.273256093
v 0.621136904 -0.917393506 -0.272945464
v 0.61584866 -0.916708291 -0.270538419
v 0.613597214 -0.909499586 -0.269465059
v 0.630835474 -0.894253612 -0.284180671
v 0.628863394 -0.886797905 -0.283378273
v 0.624634027 -0.880724907 -0.280448824
v 0.623159587 -0.876905978 -0.277519405
v 0.620461285 -0.869877815 -0.27603361
v 0.621433318 -0.864525616 -0.275408775
v 0.617408216 -0.858311415 -0.272673428
v 0.618513286 -0.848095417 -0.270627081
v 0.614528835 -0.846608579 -0.269475996
v 0.626468539 -0.830212355 -0.281795889
v 0.62878865 -0.823928595 -0.282429188
v 0.624954045 -0.817514479 -0.279882461
v 0.627786219 -0.810874462 -0.280995071
v 0.623507202 -0.804730177 -0.27803126
v 0.622063696 -0.79600054 -0.273553491
v 0.61744386 -0.794912875 -0.271827906
v 0.613457382 -0.788577795 -0.269139767
v 0.619677365 -0.779645622 -0.273442179
v 0.625677228 -0.766686261 -0.28017053
v 0.630380154 -0.757955909 -0.278812468
v 0.631670713 -0.755639374 -0.27159521
v 0.634212375 -0.756652653 -0.262932926
v 0.632710338 -0.752762198 -0.259948641
v 0.631334364 -0.744618773 -0.259700954
v 0.631377935 -0.739688873 -0.258156478
v 0.629949629 -0.731550694 -0.257861108
v 0.623245776 -0.731153846 -0.250022411
v 0.618933856 -0.724962234 -0.247035757
v 0.619719982 -0.715299487 -0.248806432
v 0.614164531 -0.714867949 -0.246245578
v 0.628884852 -0.694910705 -0.256807923
v 0.630199969 -0.693303406 -0.25379914
v 0.631687045 -0.695126176 -0.24409759
v 0.634313464 -0.691916227 -0.238088757
v 0.631019473 -0.684968531 -0.236049339
v 0.632431567 -0.679029346 -0.235746458
v 0.632165849 -0.669960082 -0.236507609
v 0.630649209 -0.666031837 -0.233494341
v 0.632666826 -0.655330002 -0.236366346
v 0.628998518 -0.648581982 -0.233986035
v 0.6278795 -0.644360483 -0.231335983
v 0.62996012 -0.633533299 -0.234269902
v 0.63116014 -0.62765038 -0.233757898
v 0.628126025 -0.620407164 -0.231967181
v 0.631800771 -0.612731874 -0.233737618
v 0.63306576 -0.602368474 -0.235920966
v 0.628669202 -0.596055329 -0.232875705
v 0.627136409 -0.592085361 -0.229830429
v 0.630302906 -0.580268741 -0.233773768
v 0.630058706 -0.575344622 -0.231913865
v 0.623440742 -0.57128185 -0.23110719
v 0.610206485 -0.573390484 -0.232730597
v 0.608461499 -0.565751135 -0.236450493
v 0.632370532 -0.538397551 -0.259813398
v 0.62245667 -0.540598869 -0.248933479
v 0.618016005 -0.534222484 -0.245857686
v 0.61512351 -0.531855822 -0.245857686
v 0.622259259 -0.516760707 -0.253594786
v 0.627958775 -0.507256448 -0.257277369
v 0.616640508 -0.507283211 -0.256495774
v 0.609138787 -0.504430354 -0.259274334
v 0.632452428 -0.477395684 -0.286734223
v 0.623045385 -0.479327381 -0.276228577
v 0.618546128 -0.472866744 -0.273112148
v 0.617723227 -0.468228161 -0.27069813
v 0.626234829 -0.451669484 -0.279842287
v 0.62460798 -0.442919016 -0.279439539
v 0.629799724 -0.433540374 -0.282682091
v 0.625520647 -0.426820457 -0.27978301
v 0.630018115 -0.417936325 -0.282366067
v 0.619399786 -0.416205198 -0.273495734
v 0.616557002 -0.408340633 -0.271950841
v 0.618922591 -0.401094198 -0.272525698
v 0.629360676 -0.382569671 -0.283501029
v 0.627766371 -0.378440291 -0.280333489
v 0.623193204 -0.371873647 -0.27716592
v 0.621598899 -0.367744237 -0.27399838
v 0.617025793 -0.361177593 -0.27083081
v 0.615627468 -0.352021486 -0.27065587
v 0.615203202 -0.346929044 -0.268588573
v 0.617589414 -0.334629178 -0.271981478
v 0.639975309 -0.310730636 -0.291391492
v 0.635342538 -0.304078341 -0.288182646
v 0.630709767 -0.297426045 -0.28497377
v 0.629094601 -0.293242812 -0.281764895
v 0.618851602 -0.29128626 -0.27326867
v 0.621681154 -0.283385247 -0.274249405
v 0.617697716 -0.276190162 -0.271651864
v 0.616598845 -0.271571755 -0.268929452
v 0.626227558 -0.252813786 -0.279155791
v 0.626274705 -0.242114976 -0.280363798
v 0.63749826 -0.22691831 -0.289235413
v 0.62982738 -0.222750127 -0.283177346
v 0.621539891 -0.224251121 -0.273667336
v 0.616869211 -0.217544481 -0.270432264
v 0.621802688 -0.20249477 -0.27624926
v 0.633886874 -0.186316878 -0.285923928
v 0.633326173 -0.17592223 -0.286571741
v 0.628608167 -0.169147626 -0.283303887
v 0.626963377 -0.164887458 -0.280036002
v 0.618957937 -0.161021754 -0.273669541
v 0.617315114 -0.156766728 -0.270405591
v 0.616619587 -0.146421432 -0.270926893
v 0.631465852 -0.127431571 -0.283188701
v 0.632987261 -0.1149894 -0.285806865
v 0.628228486 -0.108156137 -0.282510698
v 0.62656939 -0.103859082 -0.279214531
v 0.621810615 -0.0970258191 -0.275918365
v 0.62015152 -0.0927287638 -0.272622198
v 0.617129982 -0.084308207 -0.270962894
v 0.613733649 -0.0815984458 -0.266029865
v -0.333654851 -0.955634832 0.63582027
v -0.327428371 -0.956630409 0.636775732
v -0.323820651 -0.956831276 0.635290563
v -0.322895467 -0.955401719 0.640453637
v -0.322958797 -0.954869509 0.646524072
v -0.321089238 -0.952584565 0.650801361
v -0.321770966 -0.952615619 0.657419682
v -0.322888464 -0.946395934 0.657750726
v -0.321538001 -0.941390932 0.65766263
v -0.321860999 -0.934411705 0.657263339
v -0.323936492 -0.929025829 0.658470869
v -0.325736105 -0.927173555 0.658270538
v -0.323915631 -0.918159783 0.655893445
v -0.319234043 -0.906163931 0.653908789
v -0.322505325 -0.905660927 0.655048788
v 0.438836247 -0.19335483 -0.0362356938
v 0.440182149 -0.191709876 -0.0331564508
v 0.43974939 -0.186265096 -0.0267893542
v 0.440130591 -0.180056572 -0.0211636312
v 0.443167567 -0.176442087 -0.0153167294
v 0.439973861 -0.173974961 -0.0107485661
v -0.258661449 -0.839248002 0.628748715
v -0.257541299 -0.842149258 0.626523256
v -0.258075744 -0.85025537 0.627678096
v -0.254869223 -0.85485965 0.625457168
v -0.259874016 -0.863136172 0.631845832
v -0.246125475 -0.858286202 0.61702913
v -0.245004937 -0.861188531 0.614802837
v -0.256942481 -0.879378319 0.629324555
v -0.253756166 -0.883953571 0.627117574
v -0.251886219 -0.88972342 0.626095176
v -0.256125003 -0.897136986 0.631769478
v -0.256866485 -0.905222595 0.633088887
v -0.256823033 -0.912572384 0.633700609
v -0.255720973 -0.915426731 0.631511092
v -0.255558491 -0.922638953 0.632015705
v -0.253906488 -0.924997985 0.629333675
v -0.243385896 -0.923011005 0.620528936
v -0.242945522 -0.929967761 0.620785475
v -0.240172148 -0.9348557 0.618944883
v -0.254953235 -0.951289952 0.634053171
v -0.25086841 -0.954632103 0.634053171
v -0.243963838 -0.955189824 0.634557486
v -0.23654516 -0.955316067 0.634618759
v -0.230062842 -0.953163385 0.630685091
v -0.224937856 -0.954951882 0.635830522
v -0.221999586 -0.95586884 0.635049045
v -0.216941983 -0.95806098 0.637230992
v -0.207170323 -0.956241727 0.635293961
v -0.204157174 -0.956756294 0.637481391
v -0.196913227 -0.957115173 0.637782574
v -0.195230931 -0.95497185 0.642363012
v -0.195845038 -0.954772949 0.648920119
v -0.193933457 -0.952436626 0.65329361
v -0.193524212 -0.951373339 0.658951759
v -0.196794629 -0.947296679 0.65823257
v -0.195336536 -0.942264676 0.658227801
v -0.19561252 -0.935255587 0.657946169
v -0.194935575 -0.927404463 0.656846464
v -0.196127027 -0.921139002 0.65734607
v -0.198194951 -0.919447005 0.65734607
v -0.195404321 -0.909697831 0.654424787
v -0.196514592 -0.906822145 0.656630635
v -0.196791202 -0.899701715 0.656341493
v -0.195497036 -0.891176641 0.654702723
v -0.20205836 -0.893421888 0.658550739
v -0.200776622 -0.884881973 0.656917155
v -0.200691029 -0.877371132 0.656309426
v -0.196562514 -0.869802833 0.654021919
v -0.196803629 -0.862531364 0.653693736
v -0.197305202 -0.855470777 0.653587818
v -0.199403316 -0.853754103 0.653587818
v -0.202624395 -0.849128902 0.65581888
v -0.201783195 -0.840809822 0.654551744
v -0.199384436 -0.834683239 0.653755188
v -0.167622477 -0.812815547 0.633225977
v -0.179678962 -0.827107251 0.648471296
v -0.170019165 -0.825367808 0.64694953
v -0.164526299 -0.827405393 0.648989737
v -0.133468136 -0.806887448 0.626319826
v -0.116628133 -0.795865059 0.610754192
v -0.116465606 -0.803468883 0.611127794
v -0.115305603 -0.806473315 0.608823121
v -0.129753336 -0.826610267 0.62469095
v -0.126498789 -0.831379354 0.62244302
v -0.135363847 -0.846759558 0.630427778
v -0.133376017 -0.848632634 0.630550742
v -0.130100653 -0.853335798 0.62828213
v -0.126950219 -0.858147144 0.62611872
v -0.125537053 -0.860870004 0.623621345
v -0.115279116 -0.859566927 0.615464211
v -0.11413312 -0.862535119 0.613187373
v -0.13256222 -0.88544935 0.632313967
v -0.129772738 -0.890507162 0.630450487
v -0.126523823 -0.895172298 0.628200173
v -0.13019231 -0.905671358 0.631770253
v -0.129224241 -0.908356845 0.632729113
v -0.13114953 -0.917327166 0.634824574
v -0.130024433 -0.920241237 0.632589281
v -0.126797214 -0.924875259 0.630353928
v -0.116235919 -0.919955015 0.620179594
v -0.11560721 -0.926771641 0.620132148
v -0.114334203 -0.93303889 0.619541705
v -0.127077892 -0.95038259 0.633771002
v -0.124285854 -0.954932988 0.634932041
v -0.101690419 -0.943383992 0.619541705
v -0.112069041 -0.954831004 0.63300091
v -0.105276361 -0.955747604 0.633871019
v -0.102207877 -0.956271648 0.636098623
v -0.0913839489 -0.953963876 0.633660555
v -0.0859050304 -0.955967426 0.635647297
v -0.082827419 -0.95649302 0.637881458
v -0.0743157715 -0.956087172 0.637397826
v -0.0694362596 -0.955187321 0.638174713
v -0.0653718412 -0.954517663 0.642654419
v -0.0671876445 -0.955536604 0.647151887
v -0.0656800494 -0.95350188 0.651985824
v -0.0681059361 -0.951203227 0.658286691
v -0.065722689 -0.945495307 0.657707334
v -0.0695001706 -0.941706717 0.657360852
v -0.0707349926 -0.93546176 0.657994092
v -0.0698657855 -0.927503347 0.656934917
v -0.0679052472 -0.922075272 0.656696975
v -0.0671140701 -0.914131999 0.65570122
v -0.0685014725 -0.907938778 0.65645504
v -0.0706600994 -0.906235039 0.656485736
v -0.0693613887 -0.897817373 0.655075669
v -0.0674724951 -0.888879359 0.653188884
v -0.0678898916 -0.881816268 0.653157055
v -0.0712738335 -0.881109595 0.654164791
v -0.072562933 -0.874752879 0.654832423
v -0.0732576475 -0.871419609 0.6567415
v -0.0723724067 -0.863215804 0.655657887
v -0.0710827634 -0.854639947 0.654246867
v -0.0740767047 -0.850034714 0.653201759
v -0.0721479654 -0.844446957 0.653000355
v -0.0713273883 -0.836196005 0.651960671
v -0.0563565791 -0.826298833 0.647852242
v -0.0364438072 -0.812984407 0.633612573
v -0.0310625229 -0.815316856 0.635934174
v -0.0407720581 -0.826770663 0.648539901
v -0.0322804749 -0.826442301 0.648352206
v -0.0231439974 -0.825593948 0.64767468
v -0.0212677531 -0.827236891 0.651023924
v -0.014668677 -0.828530073 0.652366519
v -0.00922389887 -0.830789864 0.654619277
v -0.00582024129 -0.831554472 0.653661191
v 0.00630497187 -0.82830447 0.65072149
v 0.0177512523 -0.825656056 0.648349524
v 0.0231527966 -0.827997327 0.650679886
v 0.0398023315 -0.817972958 0.639533103
v 0.0746586472 -0.797652483 0.609744847
v 0.0745783821 -0.801368833 0.611534834
v 0.0780133754 -0.806301236 0.609155595
v 0.0535108 -0.833290935 0.631462872
v 0.0539832264 -0.836921036 0.62966162
v 0.058397308 -0.84053266 0.62966162
v 0.0611516051 -0.84590286 0.627802193
v 0.060990721 -0.853579998 0.628183365
v 0.0621696897 -0.856633604 0.625841022
v 0.0655514374 -0.861489475 0.623498619
v 0.0730126649 -0.859606981 0.616319776
v 0.0764042139 -0.864476979 0.613970637
v 0.0675140545 -0.878459573 0.624194145
v 0.0622292571 -0.890013039 0.628507495
v 0.0626476556 -0.896646798 0.631539464
v 0.063816011 -0.899672866 0.629218221
v 0.0587346442 -0.910954118 0.633365393
v 0.0620380528 -0.915774167 0.631079912
v 0.0627930462 -0.91863507 0.632167459
v 0.0761168748 -0.916317344 0.619105399
v 0.0734998286 -0.922210038 0.619691193
v 0.0744714141 -0.928805888 0.619197309
v 0.0774490684 -0.933403611 0.620253563
v 0.0634295419 -0.950691521 0.634307981
v 0.0638066307 -0.954263091 0.632608712
v 0.0719201863 -0.954491973 0.63277024
v 0.0821615085 -0.953163266 0.631331503
v 0.0852830037 -0.95374161 0.633671403
v 0.0906691402 -0.956017792 0.635935903
v 0.100391001 -0.95511812 0.634940922
v 0.10417781 -0.955710649 0.63372606
v 0.110537738 -0.956796765 0.638343036
v 0.115628123 -0.95645082 0.636164784
v 0.123852201 -0.956194103 0.639411092
v 0.123699278 -0.95529902 0.645645916
v 0.124700457 -0.953568876 0.651018918
v 0.124309964 -0.952849567 0.657407343
v 0.123150833 -0.949839473 0.659713268
v 0.121081196 -0.94462961 0.65804559
v 0.120216064 -0.938028455 0.658541441
v 0.12450216 -0.931005359 0.65685451
v 0.123766355 -0.924270391 0.657256424
v 0.11904823 -0.920960307 0.657515764
v 0.12089888 -0.915690482 0.657618582
v 0.121996917 -0.907547414 0.656670511
v 0.124086417 -0.898631155 0.654993355
v 0.119696252 -0.895039141 0.654993355
v 0.121761188 -0.88955009 0.654944301
v 0.118895493 -0.884317935 0.65690732
v 0.114348993 -0.880833268 0.657017052
v 0.121151902 -0.871694803 0.653478205
v 0.121138446 -0.864243925 0.653339446
v 0.11892195 -0.858466566 0.654823005
v 0.115329705 -0.854206681 0.654210389
v 0.116523623 -0.849297702 0.654809117
v 0.120159246 -0.83894068 0.651975513
v 0.124398157 -0.831626832 0.650338352
v 0.155965686 -0.813738048 0.633565962
v 0.146975368 -0.823836029 0.644955456
v 0.152693078 -0.826078832 0.647195637
v 0.19910948 -0.797950208 0.613487661
v 0.200331599 -0.801115572 0.611059546
v 0.203837141 -0.806149244 0.608631492
v 0.207307801 -0.807111919 0.607766211
v 0.182552055 -0.833126366 0.629095554
v 0.18601492 -0.838098764 0.626697063
v 0.185370892 -0.84616363 0.627285182
v 0.179208323 -0.854328573 0.633398294
v 0.18265228 -0.859273791 0.631012857
v 0.186096221 -0.86421901 0.628627419
v 0.20579578 -0.853582203 0.612791717
v 0.202306986 -0.863717079 0.615447581
v 0.203513697 -0.866842508 0.613050103
v 0.206730083 -0.871482253 0.613989055
v 0.189353406 -0.891188681 0.629851341
v 0.187843367 -0.899706781 0.63105607
v 0.184651524 -0.909413278 0.633479178
v 0.187198788 -0.914931715 0.631742477
v 0.189418748 -0.916748047 0.631742477
v 0.192826882 -0.921641827 0.629381895
v 0.203379035 -0.91801542 0.62023598
v 0.200912312 -0.927126288 0.62213254
v 0.203892305 -0.928935647 0.618470132
v 0.205541909 -0.934559643 0.620497227
v 0.190311372 -0.952070117 0.634711266
v 0.195448548 -0.955163002 0.634184659
v 0.205169708 -0.954517841 0.633448005
v 0.210612565 -0.956876993 0.63579613
v 0.215860531 -0.956028759 0.636707604
v 0.224305615 -0.956312656 0.63692683
v 0.232884377 -0.95652014 0.637067378
v 0.236765906 -0.957185805 0.635888934
v 0.246572345 -0.956575811 0.635187268
v 0.246853709 -0.955276847 0.641164899
v 0.2501055 -0.955832183 0.643525541
v 0.251606196 -0.953696251 0.64863956
v 0.251546055 -0.952632427 0.654835582
v 0.248699054 -0.950700939 0.658346355
v 0.250873238 -0.945311129 0.658371508
v 0.249984905 -0.938674212 0.658983946
v 0.246582925 -0.934314847 0.658260465
v 0.249007374 -0.928713381 0.658114076
v 0.251538157 -0.919639647 0.656350553
v 0.244979203 -0.917462468 0.657808781
v 0.245536685 -0.909735262 0.657410264
v 0.247580543 -0.904345214 0.657533526
v 0.241680682 -0.901700556 0.658527434
v 0.246102139 -0.891164184 0.655435205
v 0.250579625 -0.883990109 0.65386945
v 0.244939238 -0.88113445 0.654667258
v 0.244470596 -0.874028921 0.654978573
v 0.242767841 -0.867799461 0.656150162
v 0.24298723 -0.860158622 0.655981779
v 0.238077894 -0.860251307 0.657833993
v 0.239622712 -0.851618111 0.656738162
v 0.245228127 -0.839962423 0.652808785
v 0.251820117 -0.831060231 0.649777293
v 0.282312095 -0.815187335 0.634911001
v 0.285677433 -0.815762043 0.637354016
v 0.32997027 -0.790498734 0.609917879
v 0.328695178 -0.799185753 0.61079371
v 0.329942763 -0.80241704 0.608315051
v 0.334604681 -0.806231439 0.608315051
v 0.31911236 -0.824562907 0.622204304
v 0.314196318 -0.835729599 0.625579834
v 0.304513246 -0.849705637 0.635409355
v 0.307649761 -0.851518691 0.631658554
v 0.308796883 -0.858253241 0.630854249
v 0.322249621 -0.856281817 0.621577322
v 0.329795718 -0.855018854 0.614780068
v 0.328838468 -0.863254011 0.615427494
v 0.332370639 -0.868325949 0.612980962
v 0.334671408 -0.870208383 0.612980962
v 0.317198873 -0.889294922 0.628151
v 0.311202466 -0.900322855 0.63539201
v 0.314115763 -0.905720413 0.63337034
v 0.317599893 -0.910723329 0.630957067
v 0.317147136 -0.918411553 0.631244361
v 0.312828779 -0.92474699 0.635756671
v 0.328074813 -0.918922186 0.620582283
v 0.329602391 -0.92526114 0.61951369
v 0.33077693 -0.927860022 0.620267153
v 0.332599789 -0.933982849 0.618994594
v 0.32670486 -0.944671929 0.626145482
v 0.321435869 -0.954886615 0.632841587
v 0.334994167 -0.951977134 0.62977469
v 0.333742023 -0.955561101 0.635274529
v 0.343866974 -0.954954207 0.634576738
v 0.349432349 -0.957366467 0.636977732
v 0.353881389 -0.957776904 0.635500968
v 0.363592833 -0.956887424 0.638235927
v 0.369641989 -0.956269205 0.635700643
v 0.375664175 -0.95447439 0.639421225
v 0.377405375 -0.955467343 0.645991862
v 0.379511178 -0.952893615 0.650809705
v 0.378213525 -0.952537298 0.657868207
v 0.379864126 -0.944197118 0.656901002
v 0.377597153 -0.942342281 0.656901002
v 0.375475943 -0.936449587 0.658416152
v 0.377898276 -0.927542627 0.656938255
v 0.375624657 -0.925682366 0.656938255
v 0.374383926 -0.919171929 0.657872498
v 0.3782731 -0.909216404 0.655424893
v 0.372507572 -0.906287789 0.656217873
v 0.374247193 -0.901131749 0.65669018
v 0.370740563 -0.896096528 0.65911901
v 0.372316629 -0.888186395 0.655057371
v 0.378654242 -0.879863918 0.652497709
v 0.378344506 -0.872601628 0.652816176
v 0.368453801 -0.872470677 0.656316578
v 0.372514009 -0.865650177 0.655261636
v 0.367914438 -0.861886799 0.655261636
v 0.368537068 -0.853934705 0.654957294
v 0.367616564 -0.847032845 0.655674934
v 0.375222087 -0.834145844 0.650748551
v 0.376447797 -0.829204261 0.651581228
v 0.375853062 -0.828501046 0.658324599
v 0.376960963 -0.826603949 0.663936555
v 0.378146052 -0.824653506 0.669492722
v 0.37502262 -0.829804361 0.676199138
v 0.377168357 -0.827181816 0.681108296
v 0.37706548 -0.822628617 0.68597877
v 0.379250497 -0.819978356 0.690862775
v 0.378449559 -0.815918028 0.696182489
v 0.376932263 -0.812918603 0.69881767
v 0.379153132 -0.810243189 0.703676701
v 0.378719658 -0.805925846 0.708757102
v 0.377066255 -0.803025246 0.71147728
v 0.376681864 -0.79867512 0.716524482
v 0.378883451 -0.796013415 0.721394122
v 0.3774122 -0.792984962 0.723996639
v 0.377033293 -0.788632512 0.729038477
v 0.379204929 -0.785992324 0.733926237
v 0.37887606 -0.781604707 0.738935471
v 0.376998484 -0.778871953 0.741789758
v 0.379141748 -0.776252389 0.746693254
v 0.378768206 -0.771899283 0.751727819
v 0.376919419 -0.769149601 0.754560351
v 0.379304647 -0.76635474 0.75931251
v 0.378872484 -0.762046218 0.764380872
v 0.378638655 -0.75759393 0.769326568
v 0.377764404 -0.753610611 0.774663508
v 0.378866613 -0.752278805 0.777094603
v 0.378528833 -0.74790448 0.782101691
v 0.377065599 -0.744879782 0.784691453
v 0.379207134 -0.742262363 0.789591014
v 0.379044861 -0.737760007 0.794490576
v 0.377356023 -0.734903455 0.797214925
v 0.380238235 -0.73173815 0.801669061
v 0.391835719 -0.722119629 0.800920904
v 0.390169084 -0.718715727 0.806735039
v 0.390006274 -0.714198411 0.811650872
v 0.389843464 -0.709681094 0.816566706
v 0.378788888 -0.713816643 0.824825227
v 0.376920909 -0.711101294 0.82764858
v 0.379215121 -0.708370388 0.832452953
v 0.378692478 -0.70414269 0.837559581
v 0.378411382 -0.69973439 0.842523813
v 0.377807051 -0.695570648 0.847675681
v 0.37887904 -0.694261611 0.850121081
v 0.390075654 -0.684800804 0.849777997
v 0.387532771 -0.682091057 0.856061041
v 0.392059743 -0.677663684 0.85960108
v 0.390823692 -0.674462199 0.862056851
v 0.377547264 -0.67630446 0.873144627
v 0.376852095 -0.672218561 0.878338635
v 0.377613485 -0.671147645 0.880957782
v 0.376846045 -0.667119861 0.886189461
v 0.376620591 -0.662677586 0.891112685
v 0.377688676 -0.661372185 0.893556297
v 0.377475768 -0.656920552 0.89847219
v 0.37719515 -0.652521372 0.903425753
v 0.378263146 -0.65121603 0.905869246
v 0.378026038 -0.64678365 0.910798013
v 0.377683431 -0.642433465 0.915784955
v 0.377162427 -0.638222814 0.920869827
v 0.378103286 -0.637016654 0.92338258
v 0.377550811 -0.632832289 0.928482652
v 0.377065778 -0.628596544 0.933544278
v 0.378133148 -0.627292037 0.93598628
v 0.377921551 -0.622843027 0.940897405
v 0.377467096 -0.618585229 0.945940077
v 0.379423738 -0.616116405 0.950919449
v 0.378194869 -0.612933517 0.953360915
v 0.377716511 -0.60869664 0.958414018
v 0.377280653 -0.604427218 0.96344316
v 0.378347576 -0.603123248 0.965884089
v 0.37791416 -0.598852992 0.97091049
v 0.377649546 -0.594449341 0.97584641
v 0.378641278 -0.593205333 0.978326619
v 0.377860665 -0.589214087 0.9835338
v 0.377627462 -0.58478719 0.988451123
v 0.37703535 -0.580648422 0.993555963
v 0.378101557 -0.579345286 0.995995343
v 0.373471767 -0.575624943 0.996017158
v 0.377129078 -0.564322889 0.997708142
v 0.37831679 -0.559175611 0.998894036
v 0.37478286 -0.554101169 1.00134182
v 0.368107706 -0.552025378 1.00242198
v 0.362041056 -0.553656101 1.0013876
v 0.352721304 -0.554202676 1.00086594
v 0.34609583 -0.552126884 1.00193834
v 0.337582558 -0.552045226 1.00101459
v 0.335327387 -0.5501436 1.00099647
v 0.345603704 -0.534048736 0.993122101
v 0.321284175 -0.54713881 1.00059593
v 0.309489727 -0.549853802 1.00145829
v 0.300587296 -0.553948045 1.00201702
v 0.292450577 -0.553646743 1.00096059
v 0.285726786 -0.551768899 1.00213647
v 0.278828651 -0.554223776 1.00165641
v 0.274469405 -0.550366044 1.00156176
v 0.284825683 -0.533962727 0.993469834
v 0.275955528 -0.534303546 0.992816091
v 0.25232017 -0.551128149 1.00150728
v 0.242305383 -0.552540064 1.00155091
v 0.233299762 -0.553108275 1.0010581
v 0.227327242 -0.5506984 1.00187159
v 0.219460964 -0.554102361 1.00201643
v 0.214970455 -0.550428212 1.00201643
v 0.222913221 -0.535883069 0.995088518
v 0.215535432 -0.535063207 0.993703246
v 0.195469514 -0.549232543 1.00071526
v 0.184069872 -0.552027702 1.00164962
v 0.174410045 -0.553319991 1.00162721
v 0.165600792 -0.553883016 1.00114107
v 0.160735056 -0.554411292 1.00264347
v 0.153153598 -0.553912759 1.00147998
v 0.150807381 -0.548397243 1.00027907
v 0.156519353 -0.535613596 0.99444896
v 0.139441654 -0.547504246 1.00002289
v 0.127659112 -0.550844014 1.00131154
v 0.251037836 -0.434812963 0.931731701
v 0.249263838 -0.427669376 0.936283469
v 0.251107574 -0.421603829 0.936989307
v 0.246425062 -0.417772621 0.936989307
v 0.245460838 -0.410522908 0.934841871
v 0.244724289 -0.403364152 0.929423094
v 0.22315143 -0.415467471 0.936116755
v 0.223039761 -0.411495566 0.934820771
v 0.214784384 -0.411324352 0.933798432
v 0.209031835 -0.408830971 0.931316674
v 0.194299161 -0.414454222 0.937248528
v 0.186954394 -0.416968405 0.943310559
v 0.180136621 -0.415235728 0.9445979
v 0.176506579 -0.414584339 0.945374131
v 0.170151323 -0.412730724 0.943300009
v 0.165596023 -0.408587456 0.946354985
v 0.168043777 -0.405965775 0.948001742
v 0.16691497 -0.40236631 0.953491449
v 0.158042312 -0.402935684 0.952909887
v 0.150716126 -0.402039886 0.951425374
v 0.148408353 -0.40015167 0.951425374
v 0.143733427 -0.396706164 0.948365808
v 0.142852783 -0.3937051 0.944410682
v 0.139435634 -0.389018536 0.940579593
v 0.141156361 -0.387883186 0.93331635
v 0.140079096 -0.389199793 0.930851698
v 0.127769068 -0.397568613 0.930702627
v 0.124428354 -0.3969495 0.928220749
v 0.0803235173 -0.431834519 0.95243299
v 0.0774227232 -0.426261306 0.954488516
v 0.0715797991 -0.423835278 0.9552899
v 0.0684512183 -0.418486118 0.957484603
v 0.0614201911 -0.417495161 0.955961227
v 0.0584144332 -0.416376859 0.95641762
v 0.049512431 -0.417506814 0.953006029
v 0.0473671146 -0.419885695 0.951280296
v 0.0475951806 -0.411643833 0.94524169
v 0.0417888984 -0.413573027 0.944388926
v 0.0350898579 -0.412052274 0.9457528
v 0.0305417683 -0.412954211 0.941052794
v 0.0335987061 -0.401992381 0.930067122
v 0.0307080504 -0.400976509 0.927368104
v 0.0313129202 -0.396399379 0.92242533
v 0.0100185508 -0.414361417 0.92847842
v 0.00252791401 -0.413912028 0.927318335
v -0.00639654649 -0.414951205 0.927102208
v -0.00865119323 -0.413106471 0.927102208
v -0.0362698138 -0.433502644 0.939138651
v -0.0469333716 -0.440218776 0.94769907
v -0.0483818017 -0.433096528 0.951816261
v -0.0487283804 -0.429138958 0.953629971
v -0.0521403849 -0.424239576 0.955993295
v -0.0566479936 -0.420668513 0.956034184
v -0.0625063926 -0.418522149 0.956958532
v -0.0688787699 -0.416931391 0.95822382
v -0.0725934356 -0.416869104 0.956170022
v -0.0797802731 -0.420661986 0.953374505
v -0.0762418285 -0.412888765 0.946518302
v -0.0836475715 -0.412573844 0.945439756
v -0.0913658962 -0.412609905 0.944582045
v -0.0968325958 -0.410240412 0.942223608
v -0.0953924209 -0.408840328 0.938199639
v -0.0967214108 -0.402135938 0.929964244
v -0.0967995152 -0.402366996 0.926946104
v -0.100539804 -0.402471423 0.921827376
v -0.130208433 -0.42636165 0.93606782
v -0.131219625 -0.423128694 0.938293874
v -0.130241141 -0.417589962 0.942200124
v -0.131166503 -0.414259553 0.944369078
v -0.138443545 -0.413806379 0.946335018
v -0.145333171 -0.413073987 0.945005715
v -0.148593262 -0.412568957 0.942696452
v -0.150618628 -0.406112403 0.947145402
v -0.148287147 -0.403295606 0.951623142
v -0.156062722 -0.403457373 0.953943908
v -0.163617671 -0.40350914 0.953090429
v -0.165810034 -0.401715338 0.953090429
v -0.171103671 -0.399249494 0.950682759
v -0.174315199 -0.398701072 0.948351324
v -0.176858068 -0.393125027 0.944018483
v -0.17922461 -0.387323678 0.939543426
v -0.177561179 -0.389913589 0.933802605
v -0.178584158 -0.391163856 0.931462169
v -0.190196216 -0.400218606 0.932015777
v -0.19425039 -0.39633894 0.928720593
v -0.197464228 -0.39579013 0.926387489
v -0.215932488 -0.412681311 0.935019433
v -0.223953038 -0.413404703 0.934623003
v -0.228299811 -0.409848213 0.934623003
v -0.229408711 -0.402611852 0.929223239
v -0.232599482 -0.402066946 0.926906943
v -0.251692533 -0.415652275 0.937683225
v -0.253094763 -0.408704102 0.935542941
v -0.255097628 -0.402482778 0.930787563
v -0.255369037 -0.402900308 0.92488569
v -0.254594654 -0.397757947 0.916578352
v -0.256229579 -0.395384759 0.913105011
v -0.255571604 -0.394700319 0.906461358
v -0.255949885 -0.399588436 0.902222335
v -0.378145456 -0.543278337 0.988374531
v -0.370540738 -0.530298352 0.978178144
v -0.376439422 -0.537328899 0.976855874
v -0.176196679 -0.292509437 0.814393044
v -0.178839952 -0.291090548 0.811406732
v -0.180989221 -0.284476429 0.806262434
v -0.181991845 -0.281087279 0.801988423
v -0.155119106 -0.239668429 0.777525365
v -0.159948915 -0.236028895 0.777645826
v -0.168048576 -0.236352295 0.776990712
v -0.172065958 -0.236490726 0.774977624
v -0.140212744 -0.193202496 0.741297722
v -0.150709882 -0.196299329 0.742447793
v -0.153082222 -0.194358289 0.742447793
v -0.15997529 -0.193104684 0.744158804
v -0.149863392 -0.170989797 0.735725224
v -0.154016286 -0.166332036 0.738652647
v -0.162883162 -0.167481348 0.738506019
v -0.166277692 -0.166788444 0.739317358
v -0.194160491 -0.191729516 0.761273026
v -0.194326103 -0.187134668 0.766273201
v -0.194460407 -0.182437345 0.764499426
v -0.195196941 -0.173596442 0.761313915
v -0.192304507 -0.160136908 0.755194485
v -0.19631952 -0.155347735 0.754612863
v -0.199681729 -0.149720818 0.753500819
v -0.198003843 -0.137643084 0.748299897
v -0.199176356 -0.129152969 0.745387971
v 0.18381466 0.373927534 0.433798075
v 0.182650656 0.378293276 0.440678388
v 0.185954496 0.382374495 0.446262687
v 0.180130139 0.380713046 0.456881344
v 0.18524234 0.387227267 0.456891388
v 0.190077528 0.393289387 0.46125409
v 0.183918387 0.391181529 0.472095013
v 0.186818823 0.394743949 0.477989942
v 0.183954909 0.396982372 0.482087135
v 0.18661353 0.400231719 0.4881697
v 0.185338691 0.40442577 0.495094955
v 0.18361111 0.401973486 0.504601479
v 0.20413287 0.422359645 0.499002308
v 0.20700483 0.420009822 0.499002308
v 0.214017987 0.416857064 0.502106905
v 0.220903456 0.413623601 0.501227319
v 0.234105065 0.418379933 0.499590456
v 0.23065877 0.419854045 0.508195758
v 0.233937517 0.423976123 0.509774506
v 0.237044543 0.415808827 0.515863597
v 0.243427232 0.417856514 0.5172773
v 0.249240249 0.41916889 0.519131899
v 0.252091467 0.422662228 0.525123298
v 0.251935452 0.422333747 0.533361137
v 0.249280706 0.424899638 0.537250996
v 0.250726968 0.426604629 0.544273734
v 0.250136137 0.431723416 0.550670862
v 0.249933794 0.437336922 0.556779563
v 0.251268804 0.438968569 0.559833944
v 0.250405073 0.443734974 0.566427469
v 0.243632659 0.447110385 0.567183793
v 0.238232255 0.452246517 0.566933215
v 0.234599218 0.453513891 0.571528435
v 0.228728369 0.451869935 0.577764988
v 0.220995471 0.453942418 0.579243839
v 0.212813735 0.455519557 0.577040076
v 0.208354712 0.461849451 0.576105773
v 0.187148467 0.439829737 0.597724259
v 0.182886019 0.440018475 0.606746793
v 0.184201092 0.441625744 0.609755516
v 0.186831236 0.444840312 0.615772963
v 0.186257079 0.449875355 0.622063756
v 0.188206643 0.452192128 0.628573835
v 0.184412375 0.453098029 0.633234501
v 0.187038675 0.456307918 0.639243186
v 0.185039937 0.459446162 0.646545708
v 0.187304199 0.46217683 0.652807236
v 0.185425416 0.465464443 0.660007894
v 0.180275977 0.470734984 0.659656465
v 0.185877159 0.490387648 0.651601017
v 0.186250597 0.503141701 0.647260308
v 0.180565298 0.507793367 0.647260308
v 0.18345882 0.524056137 0.641067982
v 0.172360152 0.515385747 0.643046498
v 0.108007066 0.440157861 0.68565315
v 0.102464855 0.444692463 0.68565315
v 0.160080642 0.523081601 0.651665092
v 0.165872082 0.524783969 0.649529397
v 0.177219778 0.527639866 0.649429619
v 0.186392695 0.52750504 0.65091902
v 0.187513158 0.528674126 0.658076108
v 0.186759889 0.533495188 0.664530158
v 0.188077763 0.528918684 0.66958189
v 0.186554566 0.532863855 0.672608137
v 0.188257337 0.547400236 0.671341062
v 0.188990101 0.560676575 0.670759559
v 0.186130241 0.563016474 0.670759559
v 0.172967479 0.550829351 0.685984552
v 0.174008563 0.564542472 0.685194373
v 0.16886349 0.569975197 0.68480134
v 0.181588888 0.593666732 0.677766979
v 0.181365162 0.606029987 0.673862219
v 0.190517291 0.631077707 0.671339095
v 0.174421817 0.614737868 0.684677482
v 0.173894837 0.626524985 0.684992433
v 0.168138891 0.631234467 0.684992433
v 0.168982998 0.638592243 0.686368227
v 0.180191755 0.667110801 0.678388119
v 0.187892467 0.690809548 0.672885716
v 0.175248966 0.67904371 0.683807194
v 0.173695639 0.683066905 0.686893284
v 0.170971841 0.692236662 0.684716582
v 0.168908492 0.702098072 0.686112285
v 0.184510037 0.737534523 0.675025403
v 0.186840281 0.753930271 0.673315644
v 0.174923271 0.742967188 0.683744669
v 0.174029619 0.748013139 0.686385155
v 0.168166876 0.752810001 0.686385155
v 0.165593356 0.762439787 0.684054613
v 0.157548606 0.764037132 0.685598612
v 0.150911316 0.767693341 0.686148226
v 0.185923338 0.833650172 0.652791858
v 0.183873624 0.844021618 0.654152453
v 0.184761688 0.851890087 0.655552745
v 0.185254693 0.866132677 0.655096948
v 0.18085508 0.873456538 0.653949142
v 0.17022869 0.871777952 0.653081834
v 0.166403934 0.872976482 0.653678477
v 0.0147710936 0.655573785 0.762984335
v 0.0120627247 0.664589703 0.760888517
v 0.00645056181 0.669181526 0.760888517
v 0.000671227463 0.673515558 0.76101017
v 0.120934598 0.872589171 0.673356533
v 0.124161087 0.884183586 0.673016608
v 0.111329898 0.877426386 0.686341643
v 0.108734198 0.880431116 0.686072826
v 0.103270143 0.886020482 0.685731471
v 0.0986699462 0.892975032 0.684757829
v 0.0943519175 0.893277287 0.68574369
v 0.413060755 -0.175063819 -0.0122870915
v 0.420698255 -0.177646995 -0.00969939213
v 0.434813023 -0.174869269 -0.0215964466
v 0.436258376 -0.178983718 -0.0245808885
v 0.433446676 -0.182386711 -0.0306320321
v -0.321854413 -0.886365712 0.654196203
v -0.322111934 -0.879143894 0.653721809
v 0.410343081 -0.178375661 -0.0183898285
v 0.413018912 -0.175466493 -0.0165468287
v 0.425272763 -0.156138405 -0.000273003272
v -0.243791923 -0.802373886 0.610151052
v -0.256433398 -0.822098732 0.622270048
v 0.432502329 -0.165351316 -0.00754998671
v 0.419968545 -0.172507748 -0.00308355573
v 0.408897787 -0.173203394 -0.00253448891
v 0.400258154 -0.171601206 -0.00418511871
v -0.323516726 -0.857940972 0.652867138
v -0.329521418 -0.860073388 0.656512558
v -0.323032796 -0.845992684 0.652873337
v 0.394420356 -0.156008571 -0.000818053668
v 0.406473398 -0.154324189 -0.00227765413
v 0.410076141 -0.15564926 0.00136505801
v 0.417821556 -0.158131808 0.00386409671
v -0.266711175 0.916439593 0.0478264354
v -0.250580579 0.929179788 0.04079796
v -0.254121751 0.906663656 0.047590442
v -0.257002532 0.90314275 0.0409995317
v -0.258136809 0.902911246 0.032268811
v -0.259314179 0.902602136 0.0235718898
v -0.257306635 0.908301711 0.0109189227
v -0.257431477 0.900616288 0.00982384011
v -0.256877154 0.903568685 -0.00107124797
v -0.255857766 0.898982048 -0.00869460125
v -0.255951077 0.891357541 -0.00981334969
v -0.257851422 0.881304324 -0.0137871178
v -0.237803861 0.936760068 -0.0519327782
v -0.244119361 0.941927433 -0.0519327782
v -0.255866855 0.936776936 -0.0450581349
v -0.262163818 0.941929102 -0.0450581349
v -0.269309193 0.935848892 -0.0347797014
v -0.280655622 0.931243241 -0.0283247028
v -0.288643718 0.93199867 -0.0209381115
v -0.29108116 0.934850156 -0.016640272
v -0.301220089 0.930302203 -0.00134553609
v -0.303821534 0.932792902 0.003154465
v -0.304040611 0.938871264 0.0097690532
v -0.313774854 0.927400708 0.0233112853
v -0.307800442 0.928385079 0.0298961382
v -0.303704768 0.926755667 0.0337405205
v -0.301546812 0.913886547 0.0387863033
v -0.29611513 0.908407152 0.0346396901
v -0.285765201 0.910345733 0.0345275402
v -0.278138161 0.907039881 0.0378180109
v -0.27669993 0.908797681 0.0411084853
v -0.270105392 0.910966516 0.0469252951
v -0.25480938 0.928699315 0.165666953
v -0.256153971 0.909610808 0.174232498
v -0.256152779 0.903249145 0.167992651
v -0.255961716 0.904543877 0.162896022
v -0.257831901 0.902897 0.15528591
v -0.260670304 0.89942795 0.148792043
v -0.257459998 0.907361448 0.135228008
v -0.258733511 0.898571968 0.130458653
v -0.259144962 0.89967674 0.121082351
v -0.260293633 0.899397731 0.112552054
v -0.260897666 0.90014869 0.103356197
v -0.241613761 0.945861995 0.0717147142
v -0.247237578 0.952091277 0.070997484
v -0.25550583 0.954277694 0.0684060827
v -0.26467663 0.954721093 0.0669154748
v -0.273173064 0.955416262 0.0696834624
v -0.274834961 0.959720671 0.0729852691
v -0.277151555 0.971320748 0.0733087659
v -0.307618022 0.928088248 0.107878946
v -0.30705303 0.928154111 0.112182207
v -0.306290358 0.927573323 0.121218331
v -0.300385326 0.92854625 0.127726734
v -0.294789463 0.928920567 0.134604096
v -0.289997607 0.928753674 0.137489349
v -0.284092575 0.929726601 0.143997744
v -0.279581457 0.929015696 0.147218466
v -0.274205387 0.92897588 0.154345527
v -0.26919359 0.92922312 0.15698123
v -0.259892106 0.928330183 0.163101554
v -0.156733647 -0.21838212 0.667342722
v -0.150842667 -0.220935509 0.669884264
v -0.385368675 -0.507461846 0.860376298
v -0.387449592 -0.505752504 0.854249418
v -0.388251841 -0.506736338 0.851863384
v -0.380066395 -0.492636979 0.837045968
v 0.0271644183 0.00372347189 0.487176001
v 0.0256777685 0.0125920484 0.483977199
v 0.313695848 0.374238104 0.238659903
v 0.303542554 0.374035358 0.250919014
v -0.176796705 -0.208766401 0.659718215
v -0.175916865 -0.212571055 0.664472997
v -0.168515638 -0.213275328 0.662259758
v -0.162624642 -0.215828717 0.66480124
v -0.159123719 -0.216426581 0.667342722
v -0.225987494 0.579722285 0.447669089
v -0.232726634 0.553907216 0.46399954
v -0.241598248 0.525322378 0.478074044
v -0.237354726 0.519228995 0.47513482
v -0.233350843 0.519570589 0.469735026
v -0.24862811 0.480247945 0.494104683
v -0.25584802 0.462195605 0.499622554
v -0.255277872 0.450292021 0.50022769
v -0.254396796 0.438433141 0.504630029
v -0.254841477 0.42399025 0.514365435
v -0.24465017 0.43439281 0.503074944
v -0.242907822 0.431595415 0.495807678
v -0.240111306 0.422919899 0.498343349
v -0.235288575 0.417523742 0.49891904
v 0.104995616 0.954850554 0.170475274
v 0.0956145227 0.956452549 0.163665056
v 0.0597052164 0.90704596 0.190593988
v 0.0363517702 0.8852579 0.202448115
v 0.0303832628 0.890871227 0.202155188
v 0.0219787434 0.893112004 0.199491411
v 0.017684117 0.89437753 0.195868254
v 0.0108783375 0.899232388 0.191623941
v 0.00863938034 0.903271794 0.19073227
v -0.0028824138 0.900355101 0.191190004
v -0.0208932683 0.885968804 0.202978954
v -0.0271194559 0.891063035 0.202978954
v -0.0353068188 0.893527091 0.200188905
v -0.0460648835 0.891655207 0.200019017
v -0.0460807718 0.900088012 0.192083254
v -0.0537573956 0.903415382 0.188771382
v -0.0568261445 0.906041443 0.188724339
v -0.083103098 0.877609372 0.204635143
v -0.135602146 0.794204354 0.265065908
v -0.132807732 0.7976197 0.271459192
v -0.132640913 0.796543777 0.280535042
v -0.132356152 0.795672953 0.289466441
v -0.138421625 0.79219228 0.297184378
v -0.1356408 0.795590997 0.303546548
v -0.133361876 0.798131108 0.310413688
v -0.138214886 0.788476169 0.324418545
v -0.24088724 0.604510665 0.438667625
v -0.237747818 0.595053852 0.445422322
v -0.235153973 0.59239018 0.445635378
v -0.231002644 0.585320175 0.44708097
v -0.228195801 0.583023667 0.44708097
v 0.225358203 0.674272716 0.400097132
v 0.203249142 0.629985452 0.427231818
v 0.0710187256 0.434063196 0.538678288
v 0.0627464429 0.41053018 0.545836568
v 0.120171584 0.477204174 0.500045121
v 0.122055314 0.473711014 0.496715754
v 0.128905684 0.483474284 0.482910395
v 0.127955869 0.476083696 0.481870055
v 0.128364295 0.47702533 0.473245203
v 0.125968188 0.474137038 0.466893345
v 0.126170993 0.468510091 0.460769981
v 0.123494543 0.465238929 0.454646587
v 0.123697355 0.459611952 0.448523194
v 0.121020906 0.45634079 0.44239983
v 0.122368552 0.452086747 0.43949911
v 0.119885497 0.449078262 0.433214754
v 0.293714166 0.698970616 0.278150499
v 0.28687501 0.703231692 0.278664321
v 0.275769055 0.701838076 0.278257459
v 0.269205481 0.69984591 0.27665782
v 0.27026239 0.715229988 0.265915811
v 0.259645998 0.714485943 0.265114188
v 0.256531715 0.717034042 0.265114188
v 0.172060356 0.612650692 0.332496643
v 0.160715312 0.610352218 0.33269164
v 0.173360482 0.634588778 0.323563248
v 0.16275084 0.633088648 0.327517271
v 0.155311421 0.63631314 0.32430774
v 0.16067192 0.657505691 0.314351767
v 0.249620363 0.791137755 0.238530189
v 0.252261758 0.808833778 0.23534967
v 0.248873577 0.81760937 0.24208121
v 0.235319167 0.805199623 0.251147836
v 0.237151533 0.821482301 0.253315091
v 0.233993292 0.824066341 0.253315091
v 0.248019025 0.858559966 0.240202963
v 0.24695535 0.871179819 0.240249947
v 0.248576581 0.880485058 0.240738273
v 0.18410781 0.799377322 0.300679207
v 0.185553476 0.801144183 0.303986728
v -0.0820686892 0.399910122 0.546855092
v -0.078264527 0.398919702 0.549946845
v -0.068314679 0.400969535 0.546110034
v 0.22631453 0.816669762 0.30328849
v 0.230902806 0.815886199 0.306619376
v 0.229212269 0.812767982 0.317177624
v 0.240445614 0.814524472 0.317529887
v 0.24268052 0.810352206 0.322832763
v 0.215193123 0.756493628 0.355555117
v 0.223009095 0.753816009 0.354177356
v 0.227747008 0.753361046 0.35727185
v 0.213455096 0.725823343 0.376104385
v 0.199705124 0.692387938 0.396874547
v 0.207345501 0.68965739 0.395578444
v 0.204776764 0.672303915 0.40700537
v 0.219297066 0.679231942 0.400097132
v 0.222327635 0.676752329 0.400097132
v -0.0387785994 0.398291707 0.649791002
v -0.0313291177 0.396483481 0.652073741
v 0.0608419403 0.522672355 0.573257148
v 0.0618600994 0.524675429 0.564312637
v 0.0592202693 0.52144897 0.558273017
v 0.061332766 0.525020123 0.548405707
v 0.0639563501 0.516258895 0.546784997
v 0.0617740341 0.507049918 0.54674691
v 0.0632935017 0.503114402 0.543728054
v 0.209086075 0.723864675 0.416813344
v 0.233186036 0.771724463 0.396712154
v 0.226841196 0.776183248 0.401299149
v 0.220936418 0.774938047 0.399167955
v 0.249004439 0.829433143 0.371230155
v 0.250548452 0.838412404 0.37192595
v 0.243377194 0.842180073 0.372681558
v -0.0706504881 0.397428721 0.628989577
v -0.0681316406 0.400507241 0.634752333
v -0.0656128004 0.403585792 0.640515149
v -0.0610145144 0.403529197 0.646785676
v -0.055879958 0.404547244 0.648729861
v -0.0481800586 0.403410673 0.646905661
v -0.0414920337 0.400511831 0.649791002
v -0.082324557 0.78032124 0.548009872
v -0.191897601 0.584998548 0.647299051
v -0.190317973 0.574629962 0.646645308
v -0.194070265 0.561738133 0.652219594
v -0.191149443 0.554173052 0.646416605
v -0.192215547 0.545750439 0.649677694
v -0.191825047 0.533589959 0.650037766
v -0.18552129 0.530546844 0.649294198
v -0.18280226 0.52832216 0.649294198
v -0.174722284 0.527631998 0.651012897
v -0.164873108 0.530231655 0.647273421
v -0.161591649 0.528410733 0.650776327
v -0.126900256 0.570905566 0.62210238
v -0.158313602 0.521891236 0.640698314
v -0.157803476 0.52928555 0.637944818
v -0.168107226 0.526494265 0.638087571
v -0.181584343 0.518549383 0.640988708
v -0.182280988 0.524031639 0.639249206
v -0.184664711 0.533435106 0.636609972
v -0.192068562 0.529089332 0.632675231
v -0.191988498 0.530233383 0.624607265
v -0.190969303 0.526245236 0.618085086
v -0.192237005 0.524695873 0.615184784
v -0.191167086 0.527440429 0.606205463
v -0.190974608 0.522099912 0.600393832
v -0.190782115 0.516759455 0.59458226
v -0.193322301 0.513654888 0.588770628
v -0.193129808 0.508314431 0.582958996
v -0.193068668 0.508908927 0.57885927
v -0.193510562 0.509189844 0.571151137
v -0.193317726 0.503839791 0.565329075
v -0.195862487 0.50072962 0.559507012
v -0.219705194 0.469889104 0.570648193
v -0.218406767 0.478595108 0.566978633
v -0.235470265 0.464644015 0.573628843
v -0.240658179 0.469932228 0.569395542
v -0.24126254 0.46997875 0.561871529
v -0.25144735 0.460991651 0.560755312
v -0.252346039 0.46615538 0.559069335
v -0.255344182 0.475078732 0.552749693
v -0.22643815 0.536899984 0.516203284
v -0.228125796 0.540937424 0.515187383
v -0.235540807 0.542871594 0.512831509
v -0.22223489 0.573144734 0.489100397
v -0.223198682 0.578482449 0.487349153
v -0.223608062 0.591753781 0.482369095
v -0.230505541 0.594743431 0.479393393
v -0.227109507 0.614595771 0.470661968
v -0.23404026 0.617599845 0.467671901
v -0.136088192 0.791542649 0.373660117
v -0.133334979 0.794907629 0.379959136
v -0.130581751 0.79827261 0.386258155
v -0.131631657 0.802621126 0.39336741
v -0.128879622 0.805984676 0.399663746
v -0.126127571 0.809348226 0.405960053
v -0.135285288 0.792352736 0.423565
v -0.133587286 0.793923259 0.430803865
v -0.139951587 0.789798796 0.438454181
v -0.139921695 0.788515389 0.447228879
v -0.137528643 0.79127866 0.453769326
v -0.134805486 0.794606924 0.459999561
v -0.132082328 0.797935188 0.466229826
v -0.129359171 0.801263392 0.472460061
v -0.136841804 0.794532239 0.485375792
v -0.135143667 0.796111345 0.492511123
v -0.135607705 0.793993294 0.501605034
v -0.134175792 0.795121372 0.508954048
v -0.131470218 0.798428178 0.51514405
v -0.128764644 0.801734924 0.521334052
v -0.131040081 0.80387938 0.52937454
v -0.131448016 0.801860452 0.538324714
v -0.130390853 0.795028329 0.548514485
v -0.129567549 0.789775431 0.546077728
v -0.123777136 0.785037756 0.546077728
v -0.116854168 0.788851142 0.546799839
v -0.111055918 0.784107029 0.546799839
v -0.0982128531 0.790563762 0.544918299
v -0.0923980549 0.785806119 0.544918299
v -0.0852319598 0.782700002 0.548009872
g path_000000
l 4 3 2 1 1502 1501 1500 1499 1498 1497 1496
g path_000001
l 5 6 7 8 9 10 11 12
g path_000002
l 13 14 15 16 17 18 19 20 21
g path_000003
l 22 23 24 25 26
g path_000004
l 27 28 29 30 31 32 33 34
g path_000005
l 35 36 37 38 39 40 41 42 43 44 45 46 47 48 49 50 51 52 53 54 55 56 57 58 59 60 61 62 63 64 65 66 67 68 69 70 71 72 73 74 75 76 77 78 79 80 81 82 83 84 85 86 87 88 89 90 91 92 93 94 95 96 97 98 99 100 101 102
g path_000006
l 103 104 105 106 107 108
g path_000007
l 109 110 111 112 113 114 115 116 117 118
g path_000008
l 119 120 121 122 123 124 125 126 127 128 129 130 131 132 133
g path_000009
l 134 135 136 137 138 139 140 141 142
g path_000010
l 143 144 145 146 147 148 149 150 151 152 153 154 155 156 157 158 159
g path_000011
l 161 162 163 164 165 166 167 168 169 170 171 172 173 174 175 176
g path_000012
l 177 178 179 180 181 182 183 184 185 186 187 188 189 190
g path_000013
l 191 192 193 194 195 196 197 198 199 200 201 202 203 204 205 206 207 208 209 210 211 212 213
g path_000014
l 214 215 216 217 218
g path_000015
l 219 220 221 222 223 224 225 226 227 228 229 230 231 232 233 234 235 236 237 238
g path_000016
l 239 240 241 242 243 244 245 246
g path_000017
l 247 248 249 250 251 252
g path_000018
l 254 255 256 257 258 259 260 261
g path_000019
l 262 263 264 265 266 267
g path_000020
l 268 269 270 271 272 273 274 275
g path_000021
l 276 277 278 279 280 281 282 283
g path_000022
l 284 285 286 287 288 289 290 291
g path_000023
l 292 293 294 295 296 297 298 299 300 301 302 303
g path_000024
l 304 305 306 307 308 309 310
g path_000025
l 311 312 313
g path_000026
l 314 315 316 317 318 319 320
g path_000027
l 321 322 323 324 325 326 327 328
g path_000028
l 329 330 331 332 333 334 335 336
g path_000029
l 337 338 339 340 341 342 343 344
g path_000030
l 345 346 347 348 349 350
g path_000031
l 351 352 353 354 355 356 357 358 359
g path_000032
l 360 361 362 363 364 365 366 367 368
g path_000033
l 369 370 371 372 373 374 375 376 377 378 379 380
g path_000034
l 381 382 383 384
g path_000035
l 385 386 387 388 389 390 391 392 393 394 395 396 397 398 399 400 401 402 403 404 405 406 407 408 409
g path_000036
l 410 411 412 413 414 415 416 417 418 419
g path_000037
l 420 421 422 423 424 425 426 427 428 429 430 431 432
g path_000038
l 433 434 435 436 437 438 439 440
g path_000039
l 441 442 443 444 445 446 447 448 449 450 451 452
g path_000040
l 453 454 455 456 457 458 459 460 461 462
g path_000041
l 463 464 465 466 467 468 469 470 471 472 473
g path_000042
l 474 475 476 477 478 479 480 481 482 483 484 485
g path_000043
l 486 487 488 489 490 491 492 493 494 495 496 497 498 499 500 501 502 503 504 505 506 507 508 509 510 511 512 513 514 515 516 517 518 519 520
g path_000044
l 521 522 523 524 525 526 527 528 529 530 531 532 533 534 535 536 537 538 539 540 541 542 543 544 545 546 547 548 549 550
g path_000045
l 551 552 553 554 555 556 557 558 559 560 561 562 563
g path_000046
l 564 565 566 567 568 569 570 571 572 573 574 575 576 577 578 579 580 581 582 583 584 585 586 587 588 589 590 591 592
g path_000047
l 593 594 595 596 597 598 599 600 601 602 603 604
g path_000048
l 605 606
g path_000049
l 607 608 609 610 611 612 613 614 615 616 617 618 619 620
g path_000050
l 621 622 623 624 625 626 627 628 629 630 631
g path_000051
l 632 633 634 635 636 637 638 639 640
g path_000052
l 641 642 643 644 645 646 647 648 649
g path_000053
l 650 651 652 653
g path_000054
l 654 655 656
g path_000055
l 657 658 659 660
g path_000056
l 661 662 663 664 665 666 667 668 669 670 671 672 673 674 675 676 677 678 679 680 681 682 683 684 685 686 687 688 689 690 691 692 693 694 695 696 697 698 699 700 701 702 703 704 705 706 707 708 709 710 711 712
g path_000057
l 713 714 715 716 717 718 719 720 721
g path_000058
l 722 723 724 725 726 727 728 729 730 731 732 733 734 735 736 737 738 739 740 741 742
g path_000059
l 743 744 745 746 747 748 749 750 751 752 753 754 755 756 757 758 759 760 761 762 763 764 765
g path_000060
l 766 767 768 769 770 771 772 773
g path_000061
l 774 775 776 777 778 779 780 781 782 783 784 785
g path_000062
l 786 787 788 789 790 791 792 793
g path_000063
l 794 795 796 797 798 799 800 801 802 803 804 805 806 807 808 809 810 811 812 813 814 815
g path_000064
l 816 817 818 819 820 821 822 823
g path_000065
l 824 825 826 827 828 829 830 831 832 833 834 835 836 837 838
g path_000066
l 839 840 841 842 843 844
g path_000067
l 845 846 847 848 849
g path_000068
l 850 851
g path_000069
l 852 853 854 855 856 857 858 859 860 861 862 863
g path_000070
l 864 865 866 867 868 869 870 871 872 873 874 875 876 877 878 879 880 881 882 883 884 885 886 887 888 889 890 891 892 893 894 895 896 897 898
g path_000071
l 900 901 902
g path_000072
l 904 905 906
g path_000073
l 907 908
g path_000074
l 909 910 911 912 913 914 915
g path_000075
l 916 917 918 919 920 921 922 923 924 925 926
g path_000076
l 927 928
g path_000077
l 930 931 932 933 934 935 936 937 938 939 940 941 942 943 944 945 946 947 948 949 950 951 952 953 954 955 956 957 958 959 960
g path_000078
l 962 963
g path_000079
l 964 965 966 967 968 969 970 971 972 973
g path_000080
l 975 976 977
g path_000081
l 978 979 980 981 982 983 984 985 986
g path_000082
l 987 988 989 990 991 992 993
g path_000083
l 994 995 996 997
g path_000084
l 998 999 1000 1001 1002 1003 1004 1005 1006 1007 1008 1009 1010 1011 1012 1013 1014 1015 1016 1017 1018 1019 1020 1021 1022 1023 1024 1025 1026 1027 1028 1029 1030 1031
g path_000085
l 1033 1034
g path_000086
l 1035 1036 1037 1038
g path_000087
l 1039 1040 1041 1042 1043 1044
g path_000088
l 1045 1046 1047 1048
g path_000089
l 1049 1050 1051 1052 1053 1054 1055 1056 1057 1058
g path_000090
l 1059 1060 1061 1062 1063 1064 1065 1066 1067 1068 1069 1070 1071 1072 1073 1074 1075 1076 1077 1078 1079 1080 1081 1082 1083 1084 1085 1086 1087 1088 1089 1090 1091
g path_000091
l 1092 1093
g path_000092
l 1094 1095 1096 1097
g path_000093
l 1098 1099
g path_000094
l 1100 1101 1102 1103 1104 1105 1106 1107
g path_000095
l 1108 1109 1110 1111 1112 1113
g path_000096
l 1114 1115 1116 1117 1118 1119 1120 1121 1122 1123 1124 1125 1126 1127 1128 1129 1130 1131 1132 1133 1134 1135 1136 1137 1138 1139 1140 1141 1142 1143 1144 1145 1146 1147 1148 1149 1150 1151 1152 1153 1154 1155 1156 1157 1158 1159 1160 1161 1162 1163 1164 1165 1166 1167 1168 1169 1170 1171 1172 1173 1174 1175 1176 1177 1178 1179 1180 1181 1182 1183 1184 1185 1186 1187 1188 1189 1190 1191 1192 1193 1194 1195 1196 1197 1198 1199 1200 1201 1202 1203 1204 1205 1206 1207 1208 1209 1210 1211 1212 1213 1214 1215 1216 1217 1218 1219 1220 1221 1222 1223 1224 1225 1226 1227 1228 1229 1230 1231 1232 1233 1234 1235 1236 1237 1238
g path_000097
l 1240 1241 1242 1243 1244 1245 1246
g path_000098
l 1247 1248
g path_000099
l 1249 1250 1251 1252 1253 1254
g path_000100
l 1255 1256
g path_000101
l 1257 1258 1259 1260 1261 1262 1263 1264
g path_000102
l 1265 1266
g path_000103
l 1267 1268 1269 1270 1271 1272
g path_000104
l 1273 1274 1275 1276 1277 1278 1279 1280 1281 1282 1283 1284 1285 1286 1287 1288 1289 1290 1291 1292 1293 1294
g path_000105
l 1295 1296 1297 1298 1299 1300 1301 1302 1303 1304 1305 1306 1307 1308 1309
g path_000106
l 1310 1311 1312 1313
g path_000107
l 1314 1315 1316 1317 1318 1319 1320 1321 1322 1323 1324 1325 1326 1327 1328 1329 1330 1331
g path_000108
l 1332 1333 1334 1335 1336 1337 1338 1339 1340 1341 1342 1343 1344 1345 1346 1347 1348 1349 1350 1351 1352
g path_000109
l 1353 1354 1355 1356 1357
g path_000110
l 1358 1359 1360 1361 1362 1363 1364 1365
g path_000111
l 1367 1368
g path_000112
l 1369 1370 1371 1372
g path_000113
l 1373 1374 1375 1376
g path_000114
l 1377 1378 1379 1380
g path_000115
l 1381 1382 1383 1384
g path_000116
l 1385 1386 1387 1388 1389 1390 1391 1392 1393
g path_000117
l 1394 1395 1396 1397 1398 1399 1400 1401 1402 1403 1404 1405
g path_000118
l 1406 1407 1408 1409 1410 1411 1412 1413 1414 1415 1416 1417 1418 1419 1420 1421 1422 1423 1424 1425 1426 1427 1428 1429 1430
g path_000119
l 1431 1432 1433 1434 1435 1436 1437 1438 1439 1440 1441 1442 1443 1444 1445 1446 1447
g path_000120
l 1448 1449
g path_000121
l 1450 1451 1452 1453 1454 1455 1456 1457 1458 1459 1460
g path_000122
l 1461 1462 1463
g path_000123
l 1464 1465
g path_000124
l 1467 1468 1469 1470
g path_000125
l 1472 1473 1474 1475 1476
g path_000126
l 1477 1478 1479 1480 1481 1482 1483 1484
g path_000127
l 1485 1486 1487 1488 1489 1490 1491
g path_000128
l 1492 1493 1494 1495
g path_000129
l 1507 1506 1505 1504 1503 1511 1510
g path_000130
l 1508 1509
g path_000131
l 1512 1525 1524 1523 1522
g path_000132
l 1515 1516 1517 1518
g path_000133
l 1519 1520 1521
g path_000134
l 1537 1536 1535 1534 1533 1532 1531 1530 1529 1528 1527 1526 1557 1556 1555 1554 1553 1552 1551 1550 1549 1548 1547 1546 1545 1544 1543 1542 1541 1540 1539 1538
g path_000135
l 1568 1567 1566 1565 1564 1563 1562 1561 1560 1559 1558 1586 1585 1584 1583 1582 1581 1580 1579 1578 1577 1576
g path_000136
l 1569 1570 1571 1572 1573 1574 1575
g path_000137
l 1588 1587 1601 1600 1599 1598 1597
g path_000138
l 1589 1590 1591
g path_000139
l 1593 1594
g path_000140
l 1595 1596
g path_000141
l 1602 1646 1645 1644 1643 1642
g path_000142
l 1604 1605 1606
g path_000143
l 1607 1608 1609 1610 1611 1612 1613 1614 1615
g path_000144
l 1616 1617
g path_000145
l 1619 1620 1621 1622 1623 1624 1625
g path_000146
l 1626 1627 1628 1629 1630 1631 1632
g path_000147
l 1634 1635 1636 1637 1638 1639 1640 1641
g path_000148
l 1647 1703 1702 1701 1700 1699
g path_000149
l 1651 1652 1653 1654 1655 1656 1657 1658 1659 1660 1661 1662
g path_000150
l 1663 1664 1665 1666 1667 1668 1669
g path_000151
l 1670 1671
g path_000152
l 1672 1673 1674
g path_000153
l 1676 1677 1678 1679 1680 1681
g path_000154
l 1682 1683 1684
g path_000155
l 1685 1686
g path_000156
l 1687 1688 1689
g path_000157
l 1690 1691 1692 1693 1694
g path_000158
l 1695 1696 1697
g path_000159
l 1705 1704 1726 1725 1724 1723 1722 1721 1720
g path_000160
l 1706 1707 1708 1709 1710 1711 1712
g path_000161
l 1714 1715 1716
g path_000162
l 1717 1718 1719
g path_000163
l 1727 1805 1804 1803 1802 1801 1800 1799 1798 1797 1796 1795 1794 1793 1792 1791 1790 1789 1788 1787 1786 1785 1784 1783 1782
g path_000164
l 1728 1729 1730 1731 1732 1733 1734 1735 1736 1737 1738
g path_000165
l 1740 1741 1742 1743 1744 1745 1746 1747 1748 1749 1750 1751 1752 1753 1754 1755 1756 1757 1758
g path_000166
l 1759 1760
g path_000167
l 1761 1762 1763 1764 1765 1766
g path_000168
l 1767 1768 1769
g path_000169
l 1770 1771 1772 1773
g path_000170
l 1774 1775
g path_000171
l 1776 1777 1778 1779 1780 1781
