# Fixed world centers; Z up; paths immutable
v 0.379566669 -0.553264022 1.00034261
v 0.380521268 -0.549120724 0.989208519
v 0.37636441 -0.54575783 0.985874116
v 0.377901614 -0.544144392 0.978471637
v 0.377956063 -0.54186058 0.973559082
v 0.375402242 -0.536096156 0.968219399
v 0.366649061 -0.529914081 0.97827059
v 0.364826441 -0.527569056 0.970913589
v 0.373613149 -0.529097617 0.951007247
v 0.373511821 -0.527484894 0.94057256
v 0.373411894 -0.522730649 0.930865526
v 0.3741225 -0.520673454 0.924678326
v 0.376371801 -0.519272268 0.915811062
v 0.371117353 -0.515389681 0.914124489
v 0.363995939 -0.509946525 0.921501875
v 0.366357416 -0.506185412 0.907358766
v 0.374071568 -0.50782156 0.882937789
v 0.373580098 -0.505194485 0.878707469
v 0.376925051 -0.504183888 0.867720246
v 0.372681826 -0.500706553 0.864104748
v 0.375774115 -0.49711448 0.848315537
v 0.366886646 -0.490946919 0.858895719
v 0.365115315 -0.487757921 0.856868982
v 0.363438457 -0.485335827 0.848638296
v 0.372511744 -0.486621827 0.827211738
v 0.370792121 -0.484157473 0.818921089
v 0.375390053 -0.481046885 0.800064504
v 0.374824554 -0.478302389 0.795757532
v 0.376639187 -0.476519346 0.7871387
v 0.363649815 -0.469443113 0.799087524
v 0.371339083 -0.467485726 0.774369836
v 0.359446794 -0.463408887 0.789773345
v 0.35631752 -0.463565409 0.782955825
v 0.348250151 -0.461729974 0.785179615
v 0.341237038 -0.463554174 0.784610152
v 0.3321549 -0.46129337 0.788777053
v 0.250295699 -0.425504297 0.935451031
v 0.250885904 -0.41959998 0.936038375
v 0.252293378 -0.414023906 0.935108066
v 0.250909507 -0.407991797 0.93333602
v 0.250288218 -0.402255058 0.930141628
v 0.250291348 -0.39982447 0.924928844
v 0.251721859 -0.394861847 0.917884409
v 0.246233806 -0.394000739 0.915970504
v 0.245918348 -0.39514643 0.904312313
v 0.24650915 -0.399110377 0.89617449
v 0.230198413 -0.39710024 0.913850069
v 0.22573033 -0.396639913 0.910004437
v 0.224995047 -0.393917322 0.90608418
v 0.219502792 -0.393055558 0.904168844
v 0.22198002 -0.392235905 0.887794077
v 0.229553819 -0.393391073 0.861456513
v 0.22398819 -0.392517775 0.859515607
v 0.2216672 -0.389137805 0.858545125
v 0.221894935 -0.390530109 0.845292807
v 0.22491923 -0.389875323 0.827372074
v 0.217750996 -0.388387859 0.828467488
v 0.22620137 -0.389178485 0.806203783
v 0.218058348 -0.387320101 0.809169769
v 0.215367749 -0.384416372 0.802262187
v 0.171352193 -0.365493923 0.877860546
v 0.169513062 -0.359238684 0.876900554
v 0.171500191 -0.356911004 0.873839974
v 0.175451845 -0.352837771 0.861274958
v 0.182306036 -0.351707429 0.854989529
v 0.177477121 -0.344299883 0.859978437
v 0.173841491 -0.340447336 0.861674309
v 0.169165015 -0.336216182 0.865471244
v 0.164101481 -0.332429677 0.863545656
v 0.172870189 -0.330582261 0.834538817
v 0.173552826 -0.32771489 0.834093034
v 0.172560066 -0.32169345 0.831359446
v 0.170234531 -0.318306834 0.830387056
v 0.170952797 -0.312878996 0.824163198
v 0.170260563 -0.306940466 0.820796967
v 0.168392986 -0.300588489 0.819822133
v 0.170966908 -0.298353136 0.81551671
v 0.164193913 -0.290841252 0.817872405
v 0.169283003 -0.28943938 0.808401585
v 0.169252336 -0.283679605 0.803644061
v 0.167996541 -0.277503073 0.801391125
v 0.165034682 -0.273889184 0.801685691
v 0.16823788 -0.269147396 0.790235877
v 0.167771891 -0.263196379 0.786328673
v 0.173235878 -0.261794448 0.776016116
v 0.175575316 -0.256685972 0.766283453
v 0.181839675 -0.255045831 0.761178672
v 0.180174425 -0.248232439 0.766555846
v 0.177737579 -0.241619006 0.766681254
v 0.167026907 -0.236073956 0.776115894
v 0.230616182 -0.249046773 0.63918227
v 0.218105748 -0.242099375 0.666165948
v 0.224448785 -0.239920959 0.66820848
v 0.228607073 -0.237111568 0.674742162
v 0.231160074 -0.237463281 0.676523566
v 0.234736905 -0.234500557 0.684187591
v 0.27324605 -0.244742721 0.619826138
v 0.280113488 -0.249232545 0.619068861
v 0.286185861 -0.246902987 0.621932387
v 0.28960526 -0.247495174 0.622093916
v 0.297705412 -0.24244079 0.621887267
v 0.295304149 -0.238120466 0.634661257
v 0.302835166 -0.239492014 0.633592844
v 0.310584575 -0.240922511 0.632120013
v 0.312912047 -0.237923041 0.635423243
v 0.311977416 -0.230767012 0.646103203
v 0.311469674 -0.223766223 0.655892253
v 0.31481424 -0.221070424 0.657136261
v 0.313532174 -0.214219511 0.661565125
v 0.31228438 -0.207395643 0.665921569
v 0.315214753 -0.201361164 0.668904781
v 0.31324333 -0.194655985 0.667875707
v 0.31560719 -0.191994518 0.664218664
v 0.312489778 -0.185255304 0.658611953
v 0.311702222 -0.178817168 0.655249357
v 0.312945604 -0.175863847 0.653774381
v 0.313109428 -0.169853911 0.641663909
v 0.301610768 -0.167409152 0.657450497
v 0.25160563 -0.149739131 0.751314938
v 0.249285355 -0.146273986 0.750176728
v 0.251248419 -0.140435874 0.748175263
v 0.249942884 -0.134052262 0.74596554
v 0.252053171 -0.128231019 0.743672609
v 0.250467271 -0.121776588 0.742012262
v 0.243677154 -0.120655194 0.742093384
v 0.236155763 -0.122512497 0.742703795
v 0.23249197 -0.121893153 0.743300915
v 0.306136996 -0.134602711 0.582406342
v 0.302724779 -0.130753875 0.583167255
v 0.297325253 -0.126497224 0.587952435
v 0.290023476 -0.122006454 0.589481235
v 0.298321396 -0.11738655 0.560268819
v 0.295795023 -0.11370746 0.559212446
v 0.298052371 -0.107659698 0.549402475
v 0.300215662 -0.104767509 0.546010852
v 0.293823361 -0.0971322656 0.546600223
v 0.294867069 -0.0907975808 0.539224505
v 0.298829973 -0.0882103294 0.532120287
v 0.3012124 -0.082068935 0.52196002
v 0.298599869 -0.0783428848 0.521019876
v 0.296617687 -0.0714032724 0.519826591
v 0.294005305 -0.0676776394 0.518886507
v 0.293449551 -0.0609748438 0.514736652
v 0.298079193 -0.0551003553 0.49981302
v 0.294505268 -0.051204592 0.500840902
v 0.307854384 -0.0466300882 0.482715487
v 0.307899415 -0.0399442166 0.484747946
v 0.304300636 -0.0360400416 0.485794961
v 0.294239312 -0.0278282743 0.493883371
v 0.300587356 -0.0253681764 0.474192053
v 0.300925881 -0.0186718069 0.468080372
v 0.297912002 -0.0148491804 0.467899472
v 0.312625885 -0.0101120239 0.439232647
v 0.314359367 -0.00368040288 0.44539386
v 0.314172208 0.00307143223 0.447945952
v 0.314988762 0.00969238486 0.448401123
v 0.315186948 0.0163832977 0.450144768
v 0.313042253 0.0234696232 0.449190438
v 0.314912915 0.0266161375 0.446364969
v 0.314430654 0.0335321911 0.44193089
v 0.315467209 0.0403081775 0.434305489
v 0.312859058 0.0441063717 0.433214933
v 0.313986033 0.0509074107 0.425365537
v 0.30946672 0.0550914444 0.420589715
v 0.63254112 0.0292809438 -0.259905756
v 0.629845977 0.0378517993 -0.260838985
v 0.631204784 0.0458067507 -0.261069655
v 0.632454455 0.0537710823 -0.261069655
v 0.633406639 0.0617572628 -0.260442287
v 0.627514839 0.0698870048 -0.236195967
v 0.631755292 0.0732671544 -0.2346306
v 0.633220077 0.0811707899 -0.235096812
v 0.62946254 0.0857563242 -0.235067755
v 0.630490243 0.0936845765 -0.234617859
v 0.631689191 0.101602003 -0.234527692
v 0.632931113 0.109516978 -0.234527692
v 0.629574358 0.118057072 -0.234033242
v 0.630815744 0.125968531 -0.234033242
v 0.63205713 0.133879989 -0.234033242
v 0.633298457 0.141791448 -0.234033242
v 0.629838347 0.146344125 -0.234621897
v 0.630982101 0.154256687 -0.234417617
v 0.631872177 0.162173867 -0.233681619
v 0.633113027 0.170082092 -0.233681619
v 0.630615413 0.178576902 -0.234985366
v 0.631856322 0.186485127 -0.234985366
v 0.633097172 0.194393352 -0.234985366
v 0.629760563 0.202888444 -0.234527543
v 0.630940914 0.210793003 -0.234401688
v 0.632181168 0.218697533 -0.234401688
v 0.633421421 0.226602063 -0.234401688
v 0.630095005 0.231137648 -0.235264182
v 0.631545126 0.239045188 -0.235704824
v 0.632785439 0.246949717 -0.235704824
v 0.634025693 0.254854262 -0.235704824
v 0.630393207 0.263309896 -0.234623387
v 0.631632745 0.271209747 -0.234623387
v 0.632872283 0.279109627 -0.234623387
v 0.630319774 0.287592977 -0.23580499
v 0.630939543 0.291542798 -0.23580499
v 0.632179081 0.29944244 -0.23580499
v 0.633196831 0.307330161 -0.235340178
v 0.630204916 0.315785825 -0.235598132
v 0.626977146 0.320312977 -0.236659586
v 0.62823987 0.325948 -0.25639379
v 0.630305946 0.330007553 -0.259443343
v 0.631984115 0.337973297 -0.260357201
v 0.633229494 0.345910668 -0.260357201
v 0.629967868 0.354377687 -0.260071069
v 0.631212831 0.362311929 -0.260071069
v 0.632457793 0.370246172 -0.260071069
v 0.633448482 0.378157407 -0.259535015
v 0.630088568 0.386597902 -0.259038359
v 0.631332755 0.394527584 -0.259038359
v 0.632577002 0.402457267 -0.259038359
v 0.629555762 0.410919487 -0.259253681
v 0.630189478 0.414884567 -0.259278506
v 0.631570518 0.42282778 -0.259568036
v 0.633009791 0.430778921 -0.259979904
v 0.629704297 0.439198017 -0.259594172
v 0.631220222 0.447158098 -0.260169089
v 0.632463992 0.45508489 -0.260169089
v 0.633707762 0.463011682 -0.260169089
v 0.630310178 0.46752578 -0.260900795
v 0.631553769 0.47545144 -0.260900795
v 0.249212787 0.427759618 0.548441887
v 0.250541598 0.433242798 0.555105329
v 0.2496721 0.439298183 0.559024811
v 0.250746965 0.444706738 0.566173255
v 0.250860989 0.451833963 0.560700715
v 0.252014279 0.455104917 0.559322059
v 0.25024876 0.461944938 0.557786226
v 0.248381108 0.46876958 0.556463838
v 0.251001269 0.472304583 0.551993787
v 0.249496922 0.47920531 0.549897254
v 0.630399704 0.556042135 -0.259857565
v 0.631140113 0.560022175 -0.260109633
v 0.632794201 0.568016469 -0.260978758
v 0.631570041 0.576769054 -0.264982164
v 0.632969677 0.583534241 -0.285144717
v 0.629986525 0.591987312 -0.285457551
v 0.630751789 0.595993817 -0.285757512
v 0.631893873 0.60392797 -0.285531789
v 0.63306731 0.611867845 -0.285372823
v 0.629697561 0.620227993 -0.284862101
v 0.184909046 0.528860331 0.669829369
v 0.18770808 0.531333685 0.672026336
v 0.185952663 0.53792268 0.6706599
v 0.18686381 0.544010997 0.670756817
v 0.187478617 0.550029874 0.671480358
v 0.188435331 0.556127191 0.671480358
v 0.185792863 0.559570849 0.670980096
v 0.186749414 0.565667152 0.670980096
v 0.187705964 0.571763456 0.670980096
v 0.188398197 0.577793181 0.671538711
v 0.186026126 0.584225774 0.671480238
v 0.186982214 0.590319157 0.671480238
v 0.187938318 0.596412539 0.671480238
v 0.185823068 0.602906525 0.670879781
v 0.186301053 0.605952799 0.670879781
v 0.187050328 0.611988544 0.671317041
v 0.18793112 0.618059337 0.671475708
v 0.185385436 0.624426067 0.671788335
v 0.186340824 0.630514979 0.671788335
v 0.187296212 0.636603892 0.671788335
v 0.633286893 0.76880461 -0.260907531
v 0.189492658 0.645964384 0.670175493
v 0.630876422 0.784843087 -0.259771258
v 0.632236719 0.79277575 -0.260027468
v 0.633354187 0.800634325 -0.259771258
v 0.62943244 0.808667004 -0.258056581
v 0.631328046 0.816765904 -0.259444684
v 0.632566452 0.824658334 -0.259444684
v 0.189964697 0.689362228 0.669137418
v 0.629503906 0.836691678 -0.258234262
v 0.631393135 0.844795942 -0.259609699
v 0.632631183 0.852686167 -0.259609699
v 0.189633355 0.710857511 0.66981715
v 0.630359471 0.868700683 -0.258761317
v 0.631596863 0.876586795 -0.258761317
v 0.632834196 0.884472847 -0.258761317
v 0.19003962 0.732592106 0.668938398
v 0.630962312 0.896886945 -0.260061383
v 0.632199705 0.904773057 -0.260061383
v 0.633437037 0.912659109 -0.260061383
v 0.630063713 0.92080164 -0.259496897
v 0.631674349 0.928824663 -0.260286003
v 0.633033454 0.936755002 -0.260543495
v 0.189743295 0.775629461 0.669523895
v 0.630889475 0.952762604 -0.259961933
v 0.632386982 0.960745871 -0.260512531
v 0.633362591 0.968524337 -0.259961933
v 0.630255342 0.973049343 -0.261261165
v 0.631491899 0.980930209 -0.261261165
v 0.632561326 0.988743067 -0.260908425
v 0.6336025 0.99654299 -0.260496527
v 0.631070197 1.00498867 -0.261703014
v 0.631920874 1.01270604 -0.260889053
v 0.634367466 1.02109611 -0.263442725
v 0.625119686 1.02150166 -0.262237757
v 0.632737219 1.03061855 -0.286301821
v 0.633716762 1.03842402 -0.285743743
v 0.190075099 0.853996694 0.650479198
v 0.63161391 1.05447507 -0.285255402
v 0.632855773 1.06238973 -0.285255402
v 0.18980965 0.872656107 0.650010705
v 0.631597996 1.07880616 -0.286560208
v 0.632783592 1.08669508 -0.28644079
v 0.629675865 1.09491515 -0.286452234
v 0.630296588 1.09887111 -0.286452234
v 0.631538033 1.10678315 -0.286452234
v 0.632472932 1.11455035 -0.285801411
v 0.633469343 1.12234449 -0.285281897
v 0.630971313 1.1308409 -0.286585867
v 0.63199228 1.13864386 -0.286118448
v 0.633636236 1.1467495 -0.286973774
v 0.624340057 1.14703071 -0.285707533
v 0.615174651 1.14736736 -0.284686178
v 0.607487798 1.1484288 -0.286812961
v 0.599775314 1.14947641 -0.28888011
v 0.593568802 1.14519083 -0.286160529
v 0.585231185 1.14591956 -0.28684181
v 0.576765001 1.14657891 -0.287224233
v 0.572308481 1.14562774 -0.297756821
v 0.569452941 1.14548957 -0.311904848
v 0.565461874 1.14595068 -0.312658429
v 0.555318356 1.14577162 -0.309350163
v 0.547269821 1.14664948 -0.31066826
v 0.539412677 1.14762247 -0.312403947
v 0.528285742 1.14690363 -0.306755245
v 0.520476818 1.14788854 -0.308548778
v 0.512075841 1.14856207 -0.308986425
v 0.503522277 1.14915025 -0.309054345
v 0.494319648 1.1457814 -0.30902493
v 0.486314833 1.14664924 -0.31031099
v 0.478319883 1.14751911 -0.31160742
v 0.469725043 1.14806509 -0.31149146
v 0.459984958 1.14798868 -0.308664113
v 0.451616615 1.14864004 -0.30901584
v 0.442060709 1.14505637 -0.307989657
v 0.4340868 1.14591134 -0.309228718
v 0.426072389 1.14674079 -0.3103576
v 0.418168515 1.14762735 -0.311737895
v 0.409915656 1.14831769 -0.312263221
v 0.399544239 1.14782369 -0.307625204
v 0.39162147 1.14868152 -0.308888853
v 0.386084765 1.14466727 -0.307160169
v 0.37849763 1.14570689 -0.309217006
v 0.370259225 1.14637685 -0.309659153
v 0.362544 1.14733887 -0.311379194
v 0.354252249 1.14796889 -0.31165126
v 0.345808208 1.14850545 -0.311517745
v 0.335558176 1.14799011 -0.306801498
v 0.326961666 1.14488721 -0.307747543
v 0.318932563 1.1456418 -0.308568805
v 0.310970962 1.14643145 -0.309544951
v 0.303050846 1.14724123 -0.310611457
v 0.294814795 1.14785969 -0.310844272
v 0.287243932 1.1488688 -0.312784016
v 0.278027683 1.14537907 -0.312002838
v 0.273005068 1.14513874 -0.309712648
v 0.263677657 1.14507651 -0.306969553
v 0.255892247 1.14593565 -0.308260143
v 0.24826543 1.14688814 -0.309960186
v 0.239675149 1.14724672 -0.309068084
v 0.232263863 1.14832413 -0.311316758
v 0.224941209 1.14945579 -0.313802421
v 0.215443105 1.14574885 -0.312008619
v 0.206272051 1.14571607 -0.309403509
v 0.198176622 1.14634693 -0.309706122
v 0.189907685 1.14686167 -0.309503287
v 0.181904301 1.14753807 -0.310010016
v 0.17463313 1.1486789 -0.312545717
v 0.165184706 1.14496136 -0.310645193
v 0.157383978 1.14575291 -0.311654955
v 0.148290485 1.14569759 -0.308962733
v 0.140914515 1.14675367 -0.311134696
v 0.124814302 1.14546561 -0.286428899
v 0.120220453 1.14537132 -0.2848171
v 0.111702375 1.14561808 -0.283490449
v 0.103050262 1.1457634 -0.28172791
v 0.0958665684 1.14689052 -0.284233123
v 0.0883860737 1.14781547 -0.285860747
v 0.0795830041 1.14783061 -0.283544481
v 0.0685845166 1.14294112 -0.276380599
v 0.0614277273 1.14406407 -0.278876424
v 0.054270938 1.14518702 -0.281372279
v 0.0471141487 1.14631009 -0.283868104
v 0.0399573594 1.14743304 -0.28636393
v 0.0328005701 1.14855599 -0.288859755
v 0.0247259419 1.14902246 -0.288509041
v 0.0135204215 1.14387989 -0.280201763
v 0.00995392445 1.14443958 -0.281445533
v 0.00282093091 1.14555871 -0.283933073
v -0.00453017186 1.14651883 -0.285729319
v -0.0124300187 1.14707386 -0.285767138
v -0.0203436185 1.14761102 -0.285730511
v -0.0289668273 1.14761198 -0.283371449
v -0.0360815562 1.14872837 -0.285852641
v -0.0442078188 1.14576542 -0.28695628
v -0.0522089526 1.14620852 -0.286511183
v -0.0599870048 1.1468122 -0.28676787
v -0.0665537938 1.14503169 -0.293000579
v -0.0676972494 1.14744091 -0.302308619
v -0.0743002221 1.145648 -0.308539361
v -0.082978636 1.14556575 -0.305777043
v -0.0902312025 1.14658058 -0.307812512
v -0.0976601318 1.1474551 -0.309236288
v -0.107678875 1.14627373 -0.301691353
v -0.116116002 1.14303863 -0.301568419
v -0.123212889 1.14415216 -0.304043382
v -0.13030979 1.14526582 -0.306518316
v -0.137821078 1.14604247 -0.307521075
v -0.145601645 1.14659369 -0.307540804
v -0.152939722 1.14750159 -0.309120536
v -0.162716374 1.14637983 -0.301846892
v -0.171034679 1.14319921 -0.301903814
v -0.174568519 1.14375365 -0.3031362
v -0.181636229 1.14486265 -0.305600941
v -0.188703924 1.14597166 -0.308065712
v -0.195776492 1.14707649 -0.310512245
v -0.203664556 1.14747727 -0.309885204
v -0.213011891 1.14659786 -0.303675711
v -0.220366821 1.14743423 -0.304958284
v -0.229425758 1.14355588 -0.301911414
v -0.236461848 1.14465988 -0.304365158
v -0.243497938 1.14576387 -0.306818902
v -0.250534028 1.14686787 -0.309272647
v -0.257570118 1.14797199 -0.311726391
v -0.264606208 1.14907598 -0.314180136
v -0.274928659 1.14397287 -0.305749923
v -0.279069632 1.1439395 -0.304417968
v -0.287061423 1.14412856 -0.302877843
v -0.29406783 1.14522791 -0.305321246
v -0.301074237 1.14632726 -0.30776462
v -0.308080614 1.14742672 -0.310208023
v -0.315348059 1.1482749 -0.311555237
v -0.323113203 1.14863598 -0.310779333
v -0.333521456 1.14327455 -0.301150084
v -0.341276288 1.14360619 -0.300245047
v -0.348249227 1.14470029 -0.302676737
v -0.355222136 1.14579439 -0.305108458
v -0.362195075 1.14688849 -0.307540178
v -0.369167984 1.1479826 -0.309971869
v -0.376140922 1.1490767 -0.312403589
v -0.385641634 1.14447129 -0.306031168
v -0.39278999 1.14536488 -0.307590961
v -0.399760753 1.14644146 -0.309951901
v -0.407105237 1.14712167 -0.310581058
v -0.414306402 1.14794767 -0.311849087
v -0.42218715 1.14803541 -0.309896588
v -0.431132346 1.14390552 -0.3055453
v -0.434876382 1.14414656 -0.305428386
v -0.441806883 1.14523399 -0.307845294
v -0.448840111 1.14620721 -0.309763044
v -0.456191152 1.14682186 -0.310114533
v -0.463494211 1.14748192 -0.310666502
v -0.470701814 1.14824295 -0.311661363
v -0.477972865 1.14892447 -0.312310994
v -0.486221105 1.14547288 -0.310878098
v -0.494115531 1.14540422 -0.308245063
v -0.501407444 1.14602649 -0.308637857
v -0.508306861 1.14710903 -0.311043948
v -0.515206277 1.14819169 -0.313450038
v -0.522428572 1.14888024 -0.314136893
v -0.530171871 1.14891875 -0.311990231
v -0.534615219 1.14528835 -0.310881793
v -0.541777313 1.14602315 -0.311771035
v -0.549278319 1.14632344 -0.310762793
v -0.556599438 1.14683676 -0.310688645
v -0.56394136 1.14731121 -0.31044805
v -0.575100839 1.14567876 -0.285265803
v -0.582233131 1.14634073 -0.285869628
v -0.589305639 1.14707351 -0.286782771
v -0.596756458 1.14728916 -0.28545332
v -0.603567362 1.14835787 -0.287828535
v -0.610704899 1.14897656 -0.28825286
v -0.618480682 1.14588475 -0.288191378
v -0.625822365 1.14619684 -0.287279308
v -0.6328789 1.1468966 -0.288055599
v -0.638534665 1.14680886 -0.301061869
v -0.637632668 1.14530087 -0.310231119
v -0.635996878 1.1420089 -0.32756412
v -0.63549149 1.13990295 -0.334295034
v -0.635421216 1.13434052 -0.341889232
v -0.63650614 1.12714267 -0.342247814
v -0.637543023 1.12001038 -0.342909783
v -0.635449111 1.11190939 -0.340422899
v -0.636480391 1.10478294 -0.341117591
v -0.637436807 1.09775615 -0.342286319
v -0.638490856 1.09059453 -0.342843115
v -0.635921478 1.08601129 -0.339749843
v -0.636838078 1.07903206 -0.341167331
v -0.637812734 1.07197237 -0.342224002
v -0.635897994 1.06364858 -0.338605583
v -0.636796832 1.05668449 -0.340134323
v -0.63778609 1.04960012 -0.341098845
v -0.635798812 1.04138124 -0.337936401
v -0.636691988 1.03441525 -0.339500964
v -0.637577355 1.02745461 -0.341120124
v -0.63848412 1.02046287 -0.34261024
v -0.636106074 1.0156703 -0.338300467
v -0.636990964 1.00870264 -0.33992061
v -0.637901127 1.00169992 -0.3413876
v -0.635899663 0.993513584 -0.338303268
v -0.636758685 0.986566126 -0.340087682
v -0.637595952 0.979639232 -0.342015535
v -0.63558948 0.971464217 -0.338956326
v -0.635972679 0.968038559 -0.340139955
v -0.636918902 0.960975826 -0.341382504
v -0.637910962 0.953857303 -0.342340112
v -0.635827899 0.945775867 -0.339755088
v -0.636852264 0.938618243 -0.340507269
v -0.637844801 0.931493521 -0.341462195
v -0.635791302 0.923386574 -0.338690698
v -0.636823773 0.916215956 -0.339391977
v -0.637658 0.909255385 -0.341343731
v -0.635714054 0.901038706 -0.337881476
v -0.636213481 0.897469103 -0.338337421
v -0.637070954 0.890475035 -0.340140969
v -0.637913167 0.883491337 -0.342046827
v -0.635911584 0.875342488 -0.338938236
v -0.636753261 0.868351877 -0.340843529
v -0.637659729 0.861290991 -0.342347503
v -0.635593295 0.853212357 -0.3396402
v -0.636147738 0.849580646 -0.339754492
v -0.637126386 0.842442691 -0.340802819
v -0.638043463 0.835360646 -0.342242718
v -0.636060596 0.82720989 -0.339006245
v -0.637015283 0.820087969 -0.34020564
v -0.638007283 0.812927961 -0.341174126
v -0.63589716 0.804903567 -0.338736266
v -0.636331379 0.801378131 -0.33960712
v -0.637240231 0.794287145 -0.341098696
v -0.638076186 0.787256122 -0.343054891
v -0.636079192 0.779133499 -0.339894295
v -0.637107015 0.771929741 -0.340639621
v -0.637899101 0.764924407 -0.342873216
v -0.635983944 0.756741524 -0.339195579
v -0.636963189 0.749573052 -0.340247035
v -0.637884438 0.742448866 -0.34166792
v -0.635866702 0.734361708 -0.338634789
v -0.636292219 0.730825663 -0.339563161
v -0.63729614 0.723628879 -0.340462625
v -0.637936592 0.716712177 -0.343656033
v -0.63608551 0.708501637 -0.339563489
v -0.636884093 0.701452971 -0.341756642
v -0.63774991 0.694347382 -0.343533397
v -0.635497212 0.689680278 -0.338358104
v -0.636361718 0.682573617 -0.340134352
v -0.637270689 0.675429583 -0.341636777
v -0.63830936 0.668189347 -0.34232685
v -0.636286259 0.660128713 -0.339309961
v -0.637146354 0.653009295 -0.341120332
v -0.638294697 0.64569068 -0.341120332
v -0.63605696 0.637780786 -0.339451104
v -0.637032568 0.630574644 -0.340536624
v -0.637704313 0.623558581 -0.343540668
v -0.635433376 0.618965328 -0.338462979
v -0.636174262 0.61189878 -0.341021895
v -0.637084544 0.604721189 -0.342523962
v -0.638039768 0.597511888 -0.343748122
v -0.636049926 0.589451551 -0.340503007
v -0.637034774 0.582221925 -0.341536939
v -0.638025045 0.574985862 -0.342540115
v -0.635460675 0.570598483 -0.339295596
v -0.636436582 0.563368917 -0.340384007
v -0.637435436 0.556123614 -0.341332108
v -0.635386944 0.54811424 -0.338458091
v -0.636271 0.540925086 -0.34012413
v -0.637174726 0.533720613 -0.341671944
v -0.638033509 0.526533186 -0.343508512
v -0.636009812 0.518516421 -0.340463489
v -0.636961401 0.511278749 -0.341712654
v -0.637843192 0.504068792 -0.343406051
v -0.635500014 0.499611318 -0.338753343
v -0.636376143 0.492401719 -0.340474069
v -0.637252927 0.48518613 -0.342196733
v -0.638403952 0.477850705 -0.342196733
v -0.636215508 0.469919443 -0.34018153
v -0.637238204 0.462635726 -0.340987414
v -0.638149321 0.455391973 -0.342499346
v -0.635523438 0.451078564 -0.339612097
v -0.636502922 0.443805814 -0.340689808
v -0.637305021 0.436592042 -0.342887461
v -0.635336936 0.428587496 -0.339480221
v -0.63620019 0.421345323 -0.341289163
v -0.637009561 0.414114296 -0.34344396
v -0.635173082 0.406077743 -0.339205325
v -0.635560334 0.402465075 -0.340388387
v -0.636490822 0.39518851 -0.34177959
v -0.637554765 0.387869924 -0.342335403
v -0.635498941 0.379910648 -0.339470625
v -0.636403859 0.372632533 -0.341022521
v -0.637539983 0.36529246 -0.341124624
v -0.635327339 0.357378632 -0.339243829
v -0.636372864 0.350059241 -0.339913875
v -0.637358844 0.342750132 -0.340961099
v -0.638098776 0.33548665 -0.343562633
v -0.635724068 0.331165075 -0.339066297
v -0.636471748 0.323893934 -0.341610521
v -0.637361169 0.316589773 -0.343271226
v -0.635535538 0.308613241 -0.33894515
v -0.636380732 0.30131197 -0.34087792
v -0.637346387 0.293987453 -0.342059135
v -0.63521266 0.286066324 -0.339666158
v -0.6356709 0.282405317 -0.340409368
v -0.636754751 0.275061309 -0.340847045
v -0.637555838 0.267743319 -0.343067497
v -0.635586381 0.259811342 -0.339634955
v -0.636443794 0.252480954 -0.341496676
v -0.637409568 0.24513723 -0.342682481
v -0.635364056 0.237219602 -0.3397246
v -0.636279106 0.229874492 -0.341225892
v -0.637145102 0.222525507 -0.343041152
v -0.638238013 0.215166107 -0.343432158
v -0.635686576 0.210935578 -0.340016335
v -0.636693776 0.203578293 -0.340941638
v -0.637645721 0.19621712 -0.342218578
v -0.635625124 0.188316911 -0.339096129
v -0.636538088 0.18095085 -0.340614259
v -0.63763088 0.173587531 -0.341005027
v -0.635470688 0.165689752 -0.338759124
v -0.63588357 0.161999732 -0.339791477
v -0.636667311 0.154611036 -0.34212634
v -0.63760978 0.147227511 -0.343469024
v -0.63557893 0.139342025 -0.340396792
v -0.636512935 0.131953612 -0.341789275
v -0.637594998 0.12457788 -0.34225437
v -0.635435164 0.116685599 -0.339991748
v -0.635951519 0.112994246 -0.340377897
v -0.63700217 0.105612107 -0.341039747
v -0.637835324 0.0981928036 -0.343074083
v -0.635784745 0.0903222114 -0.340117484
v -0.636663914 0.0829034001 -0.341858864
v -0.637555897 0.0754806995 -0.343525708
v -0.635584235 0.0676328316 -0.340068132
v -0.636452019 0.0601999089 -0.341882527
v -0.637541056 0.0528108776 -0.342309982
v -0.635528147 0.0449653529 -0.339111865
v -0.635964513 0.0412451439 -0.340002805
v -0.636947691 0.0338281952 -0.341094285
v -0.638004899 0.0264270771 -0.341723561
v -0.635775805 0.0185326487 -0.339878559
v -0.636755168 0.0111065842 -0.340995967
v -0.637520492 0.00361150247 -0.343465149
v -0.635613978 -0.00418333476 -0.339585245
v -0.63607949 -0.00790748186 -0.340295762
v -0.636791527 -0.0154323773 -0.343098253
v -0.637949884 -0.0228145383 -0.343098253
v -0.635876536 -0.0306528565 -0.340260744
v -0.636776686 -0.0381264314 -0.341881245
v -0.637935042 -0.0455085896 -0.341881245
v -0.635683417 -0.0534073003 -0.340162992
v -0.63667804 -0.0608540364 -0.341191202
v -0.637458503 -0.0683929473 -0.343571901
v -0.635504782 -0.076167874 -0.339974046
v -0.635899246 -0.0799386129 -0.341134012
v -0.636864066 -0.0874092281 -0.342354029
v -0.638023198 -0.0947965607 -0.342354029
v -0.635863245 -0.102651693 -0.340049475
v -0.636849225 -0.110119179 -0.341136158
v -0.63763994 -0.117685929 -0.343456835
v -0.635249853 -0.121672407 -0.338952005
v -0.636192024 -0.12916708 -0.340312839
v -0.636830509 -0.13682349 -0.343589127
v -0.637990654 -0.144217357 -0.343589127
v -0.636019468 -0.151963979 -0.340085179
v -0.636815667 -0.159553528 -0.342370182
v -0.637975812 -0.166947395 -0.342370182
v -0.635395467 -0.171003237 -0.339051187
v -0.636220753 -0.178586617 -0.341151237
v -0.637293875 -0.186031848 -0.341698885
v -0.635106266 -0.193886459 -0.339552879
v -0.63611871 -0.201370046 -0.340479791
v -0.636799932 -0.209064186 -0.34349373
v -0.63796109 -0.2164644 -0.34349373
v -0.63591361 -0.224226147 -0.340455234
v -0.63678509 -0.231813714 -0.342273742
v -0.637946248 -0.239213929 -0.342273742
v -0.635318398 -0.243267238 -0.339235783
v -0.63623333 -0.250833094 -0.340779245
v -0.637350798 -0.25826335 -0.341053754
v -0.638123393 -0.265940338 -0.343503088
v -0.636113882 -0.273656636 -0.34021619
v -0.636946678 -0.281298697 -0.342282385
v -0.637893438 -0.288863927 -0.343637973
v -0.635417938 -0.292783141 -0.339626133
v -0.636345506 -0.300363451 -0.341095448
v -0.637028039 -0.308139592 -0.344112515
v -0.635223627 -0.315678984 -0.339531034
v -0.636120319 -0.323294193 -0.341195762
v -0.637013137 -0.330919266 -0.342890918
v -0.638175845 -0.338329285 -0.342890918
v -0.636104524 -0.346065342 -0.339980364
v -0.636998236 -0.353698939 -0.341669321
v -0.638160944 -0.361108959 -0.341669321
v -0.635416687 -0.365211219 -0.339335531
v -0.636402011 -0.372773618 -0.340447694
v -0.63727212 -0.38044253 -0.34228915
v -0.635262251 -0.388109505 -0.338989109
v -0.636150599 -0.395767719 -0.340711743
v -0.636749983 -0.403698683 -0.344258606
v -0.637846649 -0.411180556 -0.344683707
v -0.635327697 -0.415060878 -0.340910316
v -0.636314034 -0.42264393 -0.34202373
v -0.637249649 -0.430280298 -0.3434605
v -0.635254383 -0.43791312 -0.340054303
v -0.636185348 -0.445557415 -0.341515779
v -0.637234747 -0.453089923 -0.342237264
v -0.635155499 -0.460795045 -0.339358449
v -0.636133969 -0.468400151 -0.340521991
v -0.637219846 -0.475899547 -0.341014057
v -0.638384044 -0.483319312 -0.341014057
v -0.635458589 -0.487579554 -0.339790851
v -0.636615694 -0.4950068 -0.339835435
v -0.637462854 -0.502766132 -0.341831654
v -0.635396421 -0.510440171 -0.338864058
v -0.636284292 -0.51816231 -0.340600729
v -0.637273788 -0.525779426 -0.341703832
v -0.63520509 -0.533447862 -0.338746846
v -0.635583639 -0.537387133 -0.340025038
v -0.636496723 -0.545097113 -0.341608554
v -0.637390852 -0.552835524 -0.343316764
v -0.635425985 -0.560376227 -0.339696348
v -0.6363675 -0.568063617 -0.341102153
v -0.637375891 -0.575677931 -0.342091769
v -0.635281324 -0.583359778 -0.339285642
v -0.635765851 -0.587190986 -0.339902103
v -0.636758983 -0.594828248 -0.340986699
v -0.637568355 -0.60269469 -0.343232155
v -0.635598242 -0.610215902 -0.339635193
v -0.636514843 -0.61795634 -0.34120217
v -0.637369573 -0.625781238 -0.343164176
v -0.635469496 -0.633202314 -0.339124352
v -0.636334956 -0.641018212 -0.341013342
v -0.637354612 -0.648643076 -0.341938168
v -0.635175884 -0.656410694 -0.339646518
v -0.635633886 -0.660291731 -0.340432853
v -0.6366117 -0.667977214 -0.341620624
v -0.637288928 -0.676068664 -0.344706297
v -0.635455012 -0.683371723 -0.340235323
v -0.636419058 -0.691084683 -0.34151125
v -0.637243152 -0.698994637 -0.34367314
v -0.63541472 -0.706272542 -0.339168072
v -0.635901392 -0.710125566 -0.339776039
v -0.636739314 -0.718024611 -0.34184739
v -0.637812197 -0.725601673 -0.34244591
v -0.635697246 -0.733263671 -0.339736789
v -0.636629164 -0.741042316 -0.34121865
v -0.637797236 -0.748486578 -0.34121865
v -0.635461271 -0.756461143 -0.339896828
v -0.636578918 -0.763978899 -0.34021318
v -0.637437403 -0.771881402 -0.342162728
v -0.635416985 -0.779389083 -0.338853508
v -0.635896266 -0.783267617 -0.339511037
v -0.636704504 -0.791255414 -0.341774821
v -0.637655675 -0.799036026 -0.343146175
v -0.635620654 -0.806554615 -0.33991912
v -0.636502624 -0.8144449 -0.341721505
v -0.637287676 -0.82249397 -0.344140589
v -0.635443866 -0.829705238 -0.339705944
v -0.635879338 -0.833664179 -0.340641826
v -0.6368137 -0.841487885 -0.342119128
v -0.637857676 -0.849143326 -0.342911392
v -0.635738373 -0.856774926 -0.340203911
v -0.636672795 -0.864608586 -0.341682166
v -0.637842655 -0.87206465 -0.341682166
v -0.635583878 -0.879916608 -0.339850515
v -0.636072814 -0.883801877 -0.340452969
v -0.637093604 -0.891505361 -0.341391146
v -0.637832642 -0.899684548 -0.344108373
v -0.635943115 -0.906915903 -0.339944065
v -0.636862934 -0.914797187 -0.341518223
v -0.637817621 -0.922626019 -0.342878073
v -0.635866404 -0.929947019 -0.33910206
v -0.636792779 -0.937826514 -0.340635151
v -0.63780266 -0.945567548 -0.341647804
v -0.635677218 -0.953179061 -0.338965535
v -0.636108398 -0.957179606 -0.339933038
v -0.636986971 -0.965158761 -0.341771364
v -0.637833536 -0.973203361 -0.343817741
v -0.635854542 -0.980546057 -0.340202093
v -0.636917889 -0.988205314 -0.340880722
v -0.637818515 -0.996163666 -0.342586458
v -0.635831177 -1.00350857 -0.339024305
v -0.636357546 -1.00734937 -0.339396268
v -0.637232244 -1.0153625 -0.341262758
v -0.638269246 -1.02308226 -0.342113256
v -0.636083364 -1.0307827 -0.339792997
v -0.636976063 -1.03877616 -0.341548651
v -0.637863636 -1.04678738 -0.34334293
v -0.635960817 -1.05394578 -0.339237005
v -0.636918664 -1.06182551 -0.340583622
v -0.637833357 -1.06979501 -0.342206806
v -0.635777414 -1.07723403 -0.339062124
v -0.636216879 -1.08125484 -0.339983463
v -0.637184739 -1.08912861 -0.341271281
v -0.638143539 -1.09702647 -0.34262076
v -0.636075675 -1.10447752 -0.339543521
v -0.636970043 -1.11250699 -0.341294765
v -0.637829602 -1.12061453 -0.343271583
v -0.635395288 -1.12387633 -0.33880654
v -0.636101365 -1.13229489 -0.341739327
v -0.63832432 -1.13763976 -0.335136563
v -0.637355208 -1.13622606 -0.302002072
v -0.636746526 -1.14066279 -0.290020138
v -0.632947385 -1.13695669 -0.287096739
v -0.625518441 -1.13893485 -0.287351489
v -0.617506564 -1.13720047 -0.287561715
v -0.613920271 -1.13792181 -0.286868423
v -0.606551707 -1.13974094 -0.28662771
v -0.598553181 -1.13793552 -0.286625862
v -0.591541171 -1.13904655 -0.284218788
v -0.586959541 -1.13682985 -0.28586638
v -0.579511821 -1.13874722 -0.285916239
v -0.575272202 -1.13586617 -0.285544515
v -0.565509319 -1.13833046 -0.313012809
v -0.558211029 -1.13986218 -0.311847031
v -0.550036013 -1.13816833 -0.31225577
v -0.542708576 -1.13973153 -0.3111808
v -0.538583934 -1.13654494 -0.309947103
v -0.530197918 -1.13995123 -0.314531088
v -0.522297561 -1.13770461 -0.31325677
v -0.515045345 -1.13909662 -0.311643094
v -0.507341146 -1.13650167 -0.309300721
v -0.503795624 -1.13705802 -0.308064252
v -0.496142328 -1.13911307 -0.308483124
v -0.488310933 -1.1367166 -0.306754619
v -0.481086254 -1.13803971 -0.304921985
v -0.472210079 -1.1373316 -0.30838272
v -0.46429956 -1.13974023 -0.309871286
v -0.460151374 -1.13653553 -0.308630586
v -0.451220691 -1.14053595 -0.31500271
v -0.443498194 -1.13788378 -0.312515944
v -0.436367393 -1.13900256 -0.310029179
v -0.432210267 -1.13579094 -0.308785796
v -0.425079465 -1.13690984 -0.306299031
v -0.417356968 -1.13425767 -0.303812236
v -0.40814963 -1.13851118 -0.310953736
v -0.400480747 -1.13574564 -0.308131695
v -0.396559596 -1.13682377 -0.308475971
v -0.388935775 -1.13864625 -0.308133036
v -0.38118878 -1.13598573 -0.305638403
v -0.37271449 -1.13902628 -0.309030682
v -0.364754736 -1.13665175 -0.307423234
v -0.356998295 -1.13862002 -0.307514578
v -0.35341236 -1.1345489 -0.303675056
v -0.344248265 -1.13848817 -0.309820712
v -0.336680084 -1.13552785 -0.306425512
v -0.328242481 -1.13839769 -0.309275538
v -0.320457965 -1.13572419 -0.306768805
v -0.316591591 -1.13666034 -0.306659192
v -0.306815803 -1.14129972 -0.314924628
v -0.299008757 -1.13861847 -0.312410623
v -0.291417152 -1.14026093 -0.311465442
v -0.283607125 -1.13757873 -0.308950484
v -0.27639553 -1.13871026 -0.306435525
v -0.272191316 -1.13546216 -0.305178046
v -0.264020413 -1.1378392 -0.306486398
v -0.254838049 -1.13690996 -0.309365511
v -0.246020466 -1.14007616 -0.313082606
v -0.243234843 -1.13499415 -0.306216598
v -0.234561712 -1.13795173 -0.309296012
v -0.226722315 -1.13525939 -0.306771606
v -0.218543902 -1.13756347 -0.307835639
v -0.210697666 -1.13486886 -0.305309027
v -0.206761524 -1.13582242 -0.305229723
v -0.198148832 -1.13862717 -0.30782038
v -0.189971998 -1.13631392 -0.306474686
v -0.180668518 -1.13991368 -0.311495602
v -0.172785029 -1.13721943 -0.308991075
v -0.164226949 -1.13988578 -0.311136156
v -0.159982935 -1.13660705 -0.309866786
v -0.152312741 -1.13820672 -0.308732688
v -0.144426093 -1.13549817 -0.306193084
v -0.134938523 -1.13918853 -0.311475813
v -0.126499072 -1.13709068 -0.310825109
v -0.122823879 -1.13769233 -0.309641451
v -0.383431584 -0.838014424 0.62498492
v -0.382010162 -0.843898535 0.627587736
v -0.382918954 -0.84990114 0.627490342
v -0.38385579 -0.855871677 0.627490342
v -0.381685376 -0.859086692 0.62911284
v -0.382450312 -0.865256608 0.628515542
v -0.383387119 -0.871227086 0.628515542
v -0.381991327 -0.877062082 0.631201804
v -0.382438332 -0.883610904 0.629499793
v -0.383375138 -0.889581382 0.629499793
v -0.381571949 -0.892350137 0.632396519
v -0.382035315 -0.898886681 0.6307531
v -0.382972062 -0.904856622 0.6307531
v -0.381608814 -0.910633922 0.633549809
v -0.382434398 -0.916735947 0.633165479
v -0.383258402 -0.922841668 0.63277483
v -0.381729364 -0.928812265 0.634993255
v -0.382533044 -0.934942722 0.634533405
v -0.383294642 -0.941127956 0.633926451
v -0.381686985 -0.943620622 0.637493849
v -0.382472038 -0.949773312 0.636971474
v -0.38308093 -0.956151843 0.635835946
v -0.382496029 -0.954213202 0.653639972
v -0.376554966 -0.95195365 0.656067133
v -0.373749167 -0.952393889 0.657045662
v -0.36738202 -0.954215169 0.656439006
v -0.36101532 -0.952477634 0.657439172
v -0.354513645 -0.954444766 0.656440556
v -0.351235479 -0.951912165 0.657421052
v -0.345612317 -0.952794492 0.659382045
v -0.338772804 -0.951606691 0.658876896
v -0.332224667 -0.953593612 0.657831132
v -0.325283438 -0.952498734 0.657066464
v -0.321746558 -0.950255454 0.657240629
v -0.320766747 -0.944342554 0.657098711
v -0.319799334 -0.938414514 0.656997144
v -0.322182596 -0.934952915 0.656115353
v -0.321245581 -0.928989351 0.656111777
v -0.320020944 -0.923357487 0.655179322
v -0.322053134 -0.916778505 0.654674172
v -0.320936948 -0.911018491 0.654091597
v -0.319863379 -0.905207515 0.65364784
v -0.321885169 -0.898642361 0.653107882
v -0.321417034 -0.89565897 0.653107882
v -0.320343554 -0.889845848 0.652664006
v -0.322400033 -0.883244097 0.652236879
v -0.321461201 -0.877280414 0.652228355
v -0.320355535 -0.871500373 0.651680231
v -0.322412014 -0.864901841 0.651253283
v -0.321303874 -0.859122455 0.650696397
v -0.320342332 -0.853182137 0.650614917
v -0.322160959 -0.846842945 0.649416566
v -0.321689129 -0.843862712 0.649404883
v -0.328243971 -0.82736516 0.683676243
v -0.322058052 -0.825435638 0.685176551
v -0.318802625 -0.82292062 0.686150253
v -0.309583694 -0.826626122 0.668144584
v -0.303788424 -0.824237704 0.67101711
v -0.29676801 -0.82656461 0.668565035
v -0.291242033 -0.823895752 0.672289431
v -0.28433612 -0.826083779 0.670265317
v -0.278348684 -0.823881686 0.672560334
v -0.275048673 -0.824812353 0.67204845
v -0.254838556 -0.84379214 0.62806046
v -0.255105048 -0.850523889 0.62597698
v -0.256053746 -0.856570184 0.62597698
v -0.254344791 -0.8593539 0.629033387
v -0.255089045 -0.865605414 0.628410876
v -0.256018043 -0.871668875 0.628351927
v -0.254340231 -0.877921343 0.630052686
v -0.255057603 -0.884204507 0.629348278
v -0.256005913 -0.89024812 0.629348278
v -0.254393816 -0.896427214 0.631249249
v -0.255301625 -0.902511835 0.631126523
v -0.256032825 -0.908785701 0.630463958
v -0.254444629 -0.91140604 0.633881569
v -0.254862279 -0.918015063 0.632265389
v -0.255971938 -0.923881948 0.632758796
v -0.254436404 -0.929966271 0.634888887
v -0.255073369 -0.936344802 0.633942068
v -0.256105006 -0.942293167 0.634197831
v -0.254143327 -0.945298851 0.63647145
v -0.255947143 -0.950387418 0.639080703
v -0.256328046 -0.954324484 0.647025287
v -0.25330025 -0.952268541 0.657057703
v -0.246765062 -0.954105318 0.656459212
v -0.240147665 -0.952500284 0.657054245
v -0.233885795 -0.954021335 0.65732199
v -0.229794919 -0.952299774 0.656021237
v -0.224103808 -0.953192711 0.658005953
v -0.217716053 -0.951316059 0.659335434
v -0.211019188 -0.953279138 0.658404529
v -0.20769763 -0.950713038 0.659398019
v -0.200908333 -0.952758491 0.658245027
v -0.193948478 -0.951457381 0.657994926
v -0.19299075 -0.945431828 0.657964826
v -0.195403963 -0.941931367 0.657064438
v -0.194423661 -0.935929239 0.656969607
v -0.193274379 -0.930100203 0.656392097
v -0.195330188 -0.923462331 0.65582329
v -0.194233879 -0.917577028 0.6553967
v -0.193174124 -0.911652863 0.655075371
v -0.195193365 -0.905053794 0.654401362
v -0.194151908 -0.899110198 0.654132009
v -0.193186253 -0.893090129 0.654079914
v -0.195111468 -0.886585951 0.653136551
v -0.194619566 -0.883584797 0.653084457
v -0.193212256 -0.877996981 0.651768386
v -0.195337042 -0.871296465 0.651394725
v -0.194173172 -0.865466416 0.650775194
v -0.193215013 -0.859435558 0.65074569
v -0.195161849 -0.852909207 0.649861634
v -0.194658294 -0.849917233 0.649776638
v -0.193701088 -0.843885303 0.649749815
v -0.192627117 -0.837963402 0.64938879
v -0.197437286 -0.824319005 0.674950898
v -0.191785887 -0.821759701 0.67830646
v -0.184974208 -0.823707521 0.677051246
v -0.179039255 -0.821408868 0.679607689
v -0.175108001 -0.822856426 0.677534699
v -0.166866392 -0.826084435 0.672387958
v -0.160960779 -0.823738337 0.675075114
v -0.154113919 -0.825674891 0.673875391
v -0.151958153 -0.822069287 0.678050101
v -0.127236933 -0.843424618 0.626942992
v -0.128154308 -0.84958005 0.626827359
v -0.129102439 -0.855708063 0.626795352
v -0.126878664 -0.859049737 0.628315747
v -0.12803331 -0.864988029 0.628846347
v -0.128992885 -0.871103525 0.628846347
v -0.127069905 -0.877664804 0.629877448
v -0.128021032 -0.883788109 0.6298545
v -0.128980592 -0.889903545 0.6298545
v -0.127197638 -0.896333098 0.631266177
v -0.128008738 -0.902588129 0.630862713
v -0.128968298 -0.908703566 0.630862713
v -0.1269788 -0.911813021 0.633016169
v -0.127683401 -0.918170512 0.6323241
v -0.128642827 -0.924285114 0.6323241
v -0.127165034 -0.930413902 0.634562969
v -0.127955005 -0.936690986 0.634103537
v -0.128914207 -0.942804098 0.634103537
v -0.126671359 -0.946149707 0.635565579
v -0.128426328 -0.951475382 0.637726724
v -0.128540382 -0.952487409 0.645566344
v -0.126697749 -0.953038275 0.656851172
v -0.119702436 -0.95165956 0.656784236
v -0.113228068 -0.953270018 0.656857789
v -0.106409222 -0.951701283 0.657305181
v -0.102974869 -0.952691615 0.656838953
v -0.0969553813 -0.953846872 0.658161342
v -0.0906072482 -0.95181042 0.659881353
v -0.0832387581 -0.954248071 0.65771234
v -0.0798762068 -0.951650321 0.65871805
v -0.0732374266 -0.953378499 0.658486187
v -0.0660346746 -0.952125192 0.658061326
v -0.0677013546 -0.945808113 0.656379461
v -0.0667424947 -0.939697146 0.656379461
v -0.0654334575 -0.933909535 0.655482292
v -0.0676637292 -0.927067816 0.655243933
v -0.0670975 -0.924091756 0.65502125
v -0.0659253001 -0.918174386 0.654474556
v -0.068051517 -0.911430776 0.653969467
v -0.0668967068 -0.905495584 0.653466821
v -0.0657614022 -0.899540663 0.653015018
v -0.067868121 -0.892816782 0.652459085
v -0.0672875643 -0.889850199 0.652199686
v -0.0661340654 -0.883908629 0.651701033
v -0.0649851412 -0.877960801 0.651214898
v -0.0670697987 -0.87125814 0.650600791
v -0.066023685 -0.865219057 0.650378168
v -0.0680414736 -0.85857594 0.649592817
v -0.0675302297 -0.855545938 0.649511695
v -0.0664276406 -0.849553943 0.649143815
v -0.0653144047 -0.843569338 0.648749232
v -0.0673994496 -0.836869895 0.648135662
v -0.0770663247 -0.819870412 0.683791816
v -0.0695998296 -0.822228372 0.681328833
v -0.0636745021 -0.81986922 0.684026539
v -0.0582000911 -0.822481215 0.678420782
v -0.0492167287 -0.826059461 0.672256827
v -0.0442241728 -0.822906613 0.677356958
v -0.0366171785 -0.825326681 0.674732029
v -0.0342963785 -0.821894884 0.678301394
v -0.0263256729 -0.824593365 0.674827158
v -0.0211306214 -0.821612597 0.679396868
v -0.011956404 -0.825252116 0.673057079
v -0.00796757173 -0.821308196 0.680560589
v 0.000799201953 -0.824593008 0.675307631
v 0.00631465344 -0.821864724 0.679094911
v 0.00993990339 -0.822898328 0.678328276
v 0.0203844327 -0.827458739 0.669204891
v 0.0234640073 -0.822819471 0.678806841
v 0.0326077789 -0.8263309 0.672886372
v 0.0326150768 -0.821122885 0.681830883
v 0.0626149103 -0.844115973 0.625991642
v 0.0616377704 -0.850343466 0.625991642
v 0.0636281744 -0.853557944 0.628105879
v 0.062651366 -0.859783351 0.628105879
v 0.0616745614 -0.866008699 0.628105879
v 0.0634224266 -0.872523248 0.629642546
v 0.0625413507 -0.878823638 0.62941891
v 0.0616639331 -0.885128021 0.629186392
v 0.0632859096 -0.891538084 0.631017029
v 0.0622392595 -0.897704959 0.631181061
v 0.0612627678 -0.903928339 0.631181061
v 0.0635952353 -0.907402635 0.632490277
v 0.0627400056 -0.913724959 0.632207036
v 0.0618336014 -0.920006275 0.632043064
v 0.0633381233 -0.926308751 0.634145796
v 0.0627525151 -0.932856679 0.633233011
v 0.0643268377 -0.939213336 0.635171473
v 0.0638387352 -0.942324162 0.635171473
v 0.0630357414 -0.948692441 0.634766936
v 0.0618994609 -0.954778492 0.635140717
v 0.0622917339 -0.954551339 0.648827672
v 0.0660235584 -0.953663766 0.655799448
v 0.0730077922 -0.952033043 0.656350255
v 0.0793783069 -0.953385413 0.657209337
v 0.0864937827 -0.95185256 0.657490015
v 0.0900672823 -0.952848732 0.657048523
v 0.0961529389 -0.953953922 0.658588231
v 0.103198543 -0.952347219 0.659067392
v 0.110281125 -0.950763404 0.659479976
v 0.11426153 -0.952080071 0.658167481
v 0.121299498 -0.953951657 0.657627702
v 0.122470908 -0.947892666 0.657192707
v 0.122958779 -0.94478339 0.657192707
v 0.123934522 -0.938564777 0.657192707
v 0.124999762 -0.932417631 0.656994224
v 0.123018995 -0.925724149 0.656005979
v 0.124011457 -0.919518352 0.655968964
v 0.125093907 -0.913383126 0.655732334
v 0.123023152 -0.906619072 0.654943705
v 0.124114841 -0.900490105 0.654686332
v 0.122108579 -0.893776834 0.653754413
v 0.122629225 -0.890692353 0.653681695
v 0.123674542 -0.884526074 0.653527319
v 0.125185952 -0.878713727 0.652338088
v 0.123158239 -0.871982694 0.651451647
v 0.124233179 -0.86583513 0.651232243
v 0.122210979 -0.859108567 0.650333524
v 0.122720212 -0.856013298 0.650286555
v 0.123710252 -0.849801421 0.650255978
v 0.125120789 -0.843899012 0.649290621
v 0.122685067 -0.836868882 0.649311244
v 0.110680595 -0.819538116 0.685685217
v 0.122021481 -0.824452043 0.675508499
v 0.126605958 -0.821028173 0.681369364
v 0.131607577 -0.82298404 0.677812934
v 0.141330332 -0.826680481 0.671377182
v 0.145361945 -0.822857678 0.678438962
v 0.154823586 -0.826338649 0.672665954
v 0.153996125 -0.820702374 0.682839155
v 0.165905192 -0.82588619 0.671865582
v 0.1893567 -0.847752869 0.626852095
v 0.188506037 -0.854149818 0.626556933
v 0.190287814 -0.860767901 0.628040075
v 0.189336628 -0.867093205 0.627960563
v 0.191103503 -0.873698235 0.629474461
v 0.190617234 -0.87685281 0.629457772
v 0.189710423 -0.883210123 0.629283607
v 0.188722193 -0.889508307 0.629283607
v 0.190408438 -0.896049798 0.630969465
v 0.189420402 -0.90234673 0.630969465
v 0.188432366 -0.908643603 0.630969465
v 0.190548494 -0.911984265 0.632790804
v 0.189745948 -0.918419421 0.632394791
v 0.188939035 -0.924852967 0.632007539
v 0.190307051 -0.931143463 0.63437134
v 0.18966797 -0.937705278 0.633626461
v 0.188501313 -0.943862975 0.634008825
v 0.190807492 -0.947341442 0.635421813
v 0.188496634 -0.952605963 0.638247907
v 0.189669326 -0.953353345 0.649422109
v 0.192815706 -0.952125669 0.657378852
v 0.2000743 -0.954091012 0.656617045
v 0.206888601 -0.952195346 0.657844067
v 0.213824093 -0.953899443 0.657800138
v 0.218038306 -0.95180732 0.657255948
v 0.224107549 -0.952842832 0.659038782
v 0.230568454 -0.950664282 0.661031663
v 0.238621533 -0.953192532 0.65874666
v 0.246017158 -0.951703608 0.65885222
v 0.249960944 -0.952896357 0.657907963
v 0.251087427 -0.946709096 0.657624066
v 0.252213955 -0.940520644 0.657340348
v 0.249883875 -0.933509946 0.65700227
v 0.251074761 -0.927368283 0.656586885
v 0.252432138 -0.921345651 0.655833006
v 0.250292063 -0.914475739 0.655106902
v 0.251451105 -0.908306777 0.654756904
v 0.249444664 -0.901533484 0.653758168
v 0.249957547 -0.898400724 0.653719008
v 0.251077294 -0.892201424 0.653449059
v 0.252438545 -0.886170745 0.652687252
v 0.250141382 -0.879192591 0.65228045
v 0.251422942 -0.873103261 0.651680529
v 0.252782941 -0.86706543 0.650921464
v 0.249646634 -0.86299938 0.65121901
v 0.2510795 -0.857010663 0.650309861
v 0.252294779 -0.850869834 0.649845779
v 0.25013113 -0.843987703 0.649165511
v 0.251294136 -0.837809682 0.648807764
v 0.241002113 -0.822470784 0.678878009
v 0.24672161 -0.824778676 0.674277782
v 0.251539946 -0.821534395 0.679535568
v 0.26095131 -0.824775994 0.674531519
v 0.266415298 -0.821956813 0.678484738
v 0.274066389 -0.824021339 0.67707938
v 0.280230105 -0.821659327 0.679633617
v 0.285953224 -0.823917449 0.675190568
v 0.316683084 -0.844406724 0.627359033
v 0.315707117 -0.850792766 0.627312422
v 0.317484528 -0.857481837 0.628825068
v 0.317011416 -0.860684276 0.628772557
v 0.316219717 -0.86719203 0.628362656
v 0.315220118 -0.873562753 0.628362656
v 0.317038208 -0.880275786 0.629795134
v 0.316043854 -0.886649191 0.629785001
v 0.317640454 -0.893209636 0.631652653
v 0.316911101 -0.899762452 0.63112092
v 0.31591171 -0.906131864 0.63112092
v 0.317653239 -0.912786961 0.632702529
v 0.317201793 -0.916004539 0.632607698
v 0.316202521 -0.922373056 0.632607698
v 0.317851007 -0.928959489 0.63437134
v 0.317086458 -0.935492039 0.633909762
v 0.316187382 -0.941931129 0.63371259
v 0.318000138 -0.948630273 0.635152876
v 0.316803396 -0.951315224 0.63652426
v 0.315303147 -0.952096045 0.645445943
v 0.317484647 -0.953830481 0.654037356
v 0.324004322 -0.955148637 0.655096173
v 0.330494016 -0.952919841 0.657185972
v 0.337605715 -0.954653084 0.657116294
v 0.341101557 -0.951952279 0.658161879
v 0.348744184 -0.954050899 0.657098651
v 0.355244815 -0.951818347 0.659191966
v 0.363247603 -0.954154789 0.657486081
v 0.366751164 -0.951448023 0.65853399
v 0.374763757 -0.953777313 0.656851232
v 0.378321528 -0.95110178 0.657806277
v 0.379516155 -0.944871783 0.657437623
v 0.377251148 -0.937860966 0.656868279
v 0.378615141 -0.931744516 0.656180263
v 0.379779547 -0.925490558 0.65586859
v 0.377104163 -0.9217242 0.655130863
v 0.378102958 -0.915358782 0.655130863
v 0.379267305 -0.909103215 0.654819131
v 0.377256751 -0.902264953 0.653769612
v 0.378255635 -0.895898938 0.653769612
v 0.379693538 -0.889819086 0.652942777
v 0.377541393 -0.882887542 0.652159095
v 0.378779441 -0.876674414 0.651708543
v 0.379869848 -0.870364726 0.651536644
v 0.377267838 -0.866649866 0.650658667
v 0.37826705 -0.860281765 0.650658667
v 0.379782796 -0.854239523 0.649684846
v 0.377735645 -0.847374797 0.648701429
v 0.378254265 -0.840705156 0.64960885
v 0.364891589 -0.827526569 0.682421267
v 0.372968048 -0.829771042 0.680533051
v 0.375139922 -0.821461678 0.691543281
v 0.374664038 -0.816374838 0.69992274
v 0.366818368 -0.80342108 0.722857594
v 0.369755596 -0.800465226 0.724810243
v 0.373009384 -0.794293582 0.72707665
v 0.376443624 -0.791640401 0.728103876
v 0.375312626 -0.782891035 0.738416791
v 0.372868687 -0.772172093 0.757455587
v 0.376273662 -0.769541502 0.758473992
v 0.370784312 -0.758413196 0.776556551
v 0.373176038 -0.755226672 0.779373825
v 0.376498878 -0.749233782 0.781368434
v 0.378940642 -0.746087134 0.78407985
v 0.374431431 -0.735704601 0.800170422
v 0.377795488 -0.7331056 0.801176667
v 0.370088995 -0.721050262 0.822883666
v 0.369249642 -0.716162145 0.831358135
v 0.387138695 -0.717148066 0.81337446
v 0.390493631 -0.714556217 0.814377904
v 0.37790513 -0.700062931 0.844464958
v 0.378384918 -0.692708969 0.851315498
v 0.37337774 -0.685716927 0.866976082
v 0.369355559 -0.676062882 0.881658971
v 0.372639567 -0.673525751 0.882641196
v 0.375923574 -0.670988619 0.883623421
v 0.369137347 -0.66001153 0.902997255
v 0.37135151 -0.656949282 0.905800343
v 0.37094754 -0.649359882 0.913948119
v 0.377454072 -0.644333184 0.91589421
v 0.377958655 -0.64043498 0.921608806
v 0.370354444 -0.62932837 0.942048192
v 0.373128474 -0.626611412 0.943789124
v 0.375518888 -0.620556653 0.946969271
v 0.378149599 -0.617776692 0.948944509
v 0.374059677 -0.608589709 0.963149607
v 0.375954896 -0.605478287 0.966338575
v 0.377628297 -0.599144161 0.970666647
v 0.377931833 -0.595290244 0.976525962
v 0.376204103 -0.587382436 0.986558437
v 0.378805488 -0.580698848 0.994795084
v 0.378671378 -0.577543199 0.99578023
v 0.377256691 -0.571540654 0.994148254
v 0.377844065 -0.565630972 0.994681418
v 0.377763689 -0.559419453 0.996336162
v 0.377058357 -0.556014657 0.998280406
v 0.267090917 -0.12881884 0.553792059
v 0.261535674 -0.134054288 0.57060051
v 0.258238196 -0.139917582 0.575380981
v 0.188672364 -0.131044298 0.711119652
v 0.185314283 -0.13363862 0.710115254
v 0.189294353 -0.14130868 0.685615361
v 0.185911924 -0.143921822 0.684603691
v 0.163052469 -0.142155603 0.717697263
v 0.633264482 -0.249608859 -0.286497951
v 0.629870772 -0.240780681 -0.286002219
v 0.631130934 -0.232749462 -0.286002219
v 0.632391095 -0.224718243 -0.286002219
v 0.633651257 -0.216687024 -0.286002219
v 0.630081713 -0.211988822 -0.28646943
v 0.630659342 -0.203815117 -0.285019785
v 0.631918788 -0.195788413 -0.285019785
v 0.633178234 -0.187761709 -0.285019785
v 0.630643249 -0.179139629 -0.286343068
v 0.631902695 -0.171112925 -0.286343068
v 0.633162141 -0.163086221 -0.286343068
v 0.62933737 -0.154224634 -0.28492409
v 0.630595982 -0.146203294 -0.28492409
v 0.631854594 -0.13818197 -0.28492409
v 0.26576829 -0.0699373931 0.501092792
v 0.26680997 -0.0767222717 0.504289269
v 0.262283474 -0.0791592523 0.52030158
v 0.264320791 -0.0860884935 0.521365047
v 0.266480535 -0.0897204056 0.523235202
v 0.267618448 -0.0964756086 0.526185453
v 0.269579679 -0.103384599 0.52740401
v 0.266242653 -0.109233037 0.539708853
v 0.265820891 -0.112324007 0.546937704
v 0.265571356 -0.118741505 0.5527367
v 0.265069127 -0.121942334 0.5527367
v 0.267593145 -0.125618011 0.553792059
v 0.142320544 -0.337683141 0.826559842
v 0.250282735 -0.384984314 0.600647628
v 0.248830944 -0.382408053 0.590137303
v 0.244935468 -0.384962976 0.589912713
v 0.207394227 -0.375256449 0.652971148
v 0.220387399 -0.377598524 0.619457304
v 0.630597353 -0.532147408 -0.260565728
v 0.632124364 -0.524233997 -0.261134326
v 0.633128703 -0.516123354 -0.260599762
v 0.629442334 -0.511326015 -0.260808915
v 0.631479323 -0.503598988 -0.262455881
v 0.629589856 -0.504500568 -0.277171433
v 0.630937815 -0.497277141 -0.286758572
v 0.631452739 -0.488952041 -0.285167396
v 0.632716298 -0.480899036 -0.285167396
v 0.62961936 -0.472054571 -0.285317957
v 0.630798638 -0.468220055 -0.286482066
v 0.632068336 -0.460169166 -0.286495
v 0.633331895 -0.452116162 -0.286495
v 0.630616426 -0.443408072 -0.287456602
v 0.631558299 -0.435249269 -0.286773384
v 0.137893349 -0.270767987 0.776077747
v 0.1402459 -0.274193943 0.777061403
v 0.139778629 -0.279812247 0.783001065
v 0.14166224 -0.283586651 0.778045058
v 0.141050756 -0.289140999 0.78428179
v 0.138573766 -0.290899277 0.795399785
v 0.140448645 -0.29727608 0.796378493
v 0.141505793 -0.303364784 0.799069226
v 0.138658762 -0.308055907 0.809915304
v 0.138450235 -0.311104298 0.809381247
v 0.13697125 -0.316244692 0.817343414
v 0.139297858 -0.319632858 0.818316221
v 0.141127005 -0.325958788 0.819360852
v 0.140460208 -0.33135581 0.825588763
v 0.142263204 -0.334543765 0.82763654
v 0.197451115 -0.426311821 0.725344658
v 0.12389002 -0.400763988 0.881955206
v 0.121443562 -0.405895859 0.88512671
v 0.104535118 -0.403176337 0.905984759
v 0.0919769853 -0.396181494 0.919869781
v 0.0917783454 -0.393785685 0.914647698
v 0.0892305225 -0.394169807 0.906773269
v 0.0928024799 -0.393383831 0.893588364
v 0.632313848 -0.616551936 -0.236249879
v 0.206572428 -0.428195357 0.666046023
v 0.204379439 -0.429028243 0.683864594
v 0.192689165 -0.422578245 0.722240984
v 0.198832706 -0.427658945 0.715512753
v 0.136530086 -0.380576998 0.87005502
v 0.138367504 -0.386826366 0.871014118
v 0.222528934 -0.426216185 0.683628798
v 0.200699061 -0.418659806 0.714630961
v 0.222935155 -0.425343543 0.662566066
v 0.225429937 -0.424564511 0.644108176
v 0.219644397 -0.423689038 0.641783357
v 0.224051937 -0.422929078 0.626363039
v 0.632834375 -0.583736897 -0.236064523
v 0.243956536 -0.420228839 0.595142841
v 0.247473136 -0.420167804 0.602391899
v 0.25096482 -0.417470247 0.603436232
v 0.142844558 -0.367174447 0.836101949
v 0.137921467 -0.367001981 0.858652592
v 0.138675869 -0.37040484 0.856157601
v 0.138834 -0.375998914 0.860586524
v 0.138815612 -0.378409326 0.866303921
g path_000000
l 8 7 6 5 4 3 2 1 1287 1286 1285 1284 1283 1282 1281 1280 1279 1278 1277 1276 1275 1274 1273
g path_000001
l 9 10 11 12 13 14 15 16
g path_000002
l 17 18 19 20 21 22 23 24
g path_000003
l 25 26
g path_000004
l 27 28 29
g path_000005
l 32 33 34 35 36
g path_000006
l 37 38 39 40 41 42 43 44 45 46
g path_000007
l 47 48 49 50 51
g path_000008
l 52 53 54 55
g path_000009
l 56 57
g path_000010
l 58 59 60
g path_000011
l 61 62 63 64 65 66 67 68 69
g path_000012
l 70 71 72 73 74 75 76 77 78 79 80 81 82 83 84 85 86 87 88 89 90
g path_000013
l 92 93 94 95 96
g path_000014
l 97 98 99 100 101 102 103 104 105 106 107 108 109 110 111 112 113 114 115 116 117
g path_000015
l 119 120 121 122 123 124 125 126 127
g path_000016
l 128 129 130 131
g path_000017
l 132 133 134 135 136 137 138 139 140 141 142 143 144 145
g path_000018
l 146 147 148 149
g path_000019
l 150 151 152
g path_000020
l 153 154 155 156 157 158 159 160 161 162 163 164
g path_000021
l 165 166 167 168 169
g path_000022
l 170 171 172 173 174 175 176 177 178 179 180 181 182 183 184 185 186 187 188 189 190 191 192 193 194 195 196 197 198 199 200 201 202 203 204 205 206 207 208 209 210 211 212 213 214 215 216 217 218 219 220 221 222 223 224 225
g path_000023
l 226 227 228 229 230 231 232 233 234 235
g path_000024
l 236 237 238 239 240 241 242 243 244 245
g path_000025
l 246 247 248 249 250 251 252 253 254 255 256 257 258 259 260 261 262 263 264 265
g path_000026
l 268 269 270 271 272 273
g path_000027
l 275 276 277
g path_000028
l 279 280 281
g path_000029
l 283 284 285 286 287 288
g path_000030
l 290 291 292 293 294 295 296 297 298 299 300
g path_000031
l 301 302
g path_000032
l 304 305
g path_000033
l 307 308 309 310 311 312 313 314 315 316 317 318 319 320 321 322 323 324 325 326 327 328 329 330 331 332 333 334 335 336 337 338 339 340 341 342 343 344 345 346 347 348 349 350 351 352 353 354 355 356 357 358 359 360 361 362 363 364 365 366 367 368 369 370 371 372 373 374 375 376 377
g path_000034
l 378 379 380 381 382 383 384 385 386 387 388 389 390 391 392 393 394 395 396 397 398 399 400 401 402 403 404 405 406 407 408 409 410 411 412 413 414 415 416 417 418 419 420 421 422 423 424 425 426 427 428 429 430 431 432 433 434 435 436 437 438 439 440 441 442 443 444 445 446 447 448 449 450 451 452 453 454 455 456 457 458 459 460 461 462 463 464 465 466 467 468 469 470 471
g path_000035
l 472 473 474 475 476 477 478 479 480 481 482 483 484 485 486 487 488 489 490 491 492 493 494 495 496 497 498 499 500 501 502 503 504 505 506 507 508 509 510 511 512 513 514 515 516 517 518 519 520 521 522 523 524 525 526 527 528 529 530 531 532 533 534 535 536 537 538 539 540 541 542 543 544 545 546 547 548 549 550 551 552 553 554 555 556 557 558 559 560 561 562 563 564 565 566 567 568 569 570 571 572 573 574 575 576 577 578 579 580 581 582 583 584 585 586 587 588 589 590 591 592 593 594 595 596 597 598 599 600 601 602 603 604 605 606 607 608 609 610 611 612 613 614 615 616 617 618 619 620 621 622 623 624 625 626 627 628 629 630 631 632 633 634 635 636 637 638 639 640 641 642 643 644 645 646 647 648 649 650 651 652 653 654 655 656 657 658 659 660 661 662 663 664 665 666 667 668 669 670 671 672 673 674 675 676 677 678 679 680 681 682 683 684 685 686 687 688 689 690 691 692 693 694 695 696 697 698 699 700 701 702 703 704 705 706 707 708 709 710 711 712 713 714 715 716 717 718 719 720 721 722 723 724 725 726 727 728 729 730 731 732 733 734 735 736 737 738 739 740 741 742 743 744 745 746 747 748 749 750 751 752 753 754 755 756 757 758 759 760 761 762 763 764 765 766 767 768 769 770 771 772 773 774 775 776 777 778 779 780 781 782 783 784 785 786 787 788 789 790 791 792 793 794 795 796 797 798 799 800 801 802 803 804 805
g path_000036
l 806 807 808 809 810 811 812 813 814 815 816 817
g path_000037
l 818 819 820 821 822 823 824 825 826 827 828 829 830 831 832 833 834 835 836 837 838 839 840 841 842 843 844 845 846 847 848 849 850 851 852 853 854 855 856 857 858 859 860 861 862 863 864 865 866 867 868 869 870 871 872 873 874 875 876 877 878 879
g path_000038
l 880 881 882 883 884 885 886 887 888 889 890 891 892 893 894 895 896 897 898 899 900 901 902 903 904 905 906 907 908 909 910 911 912 913 914 915 916 917 918 919 920 921 922 923 924 925 926 927 928 929 930 931 932
g path_000039
l 933 934 935
g path_000040
l 936 937 938 939 940 941 942
g path_000041
l 943 944 945 946 947 948 949 950 951 952 953 954 955 956 957 958 959 960 961 962 963 964 965 966 967 968 969 970 971 972 973 974 975 976 977 978 979 980 981 982 983 984 985 986 987 988 989 990 991 992 993 994
g path_000042
l 995 996 997 998 999 1000 1001 1002 1003
g path_000043
l 1004 1005 1006 1007 1008 1009 1010 1011 1012 1013 1014 1015 1016 1017 1018 1019 1020 1021 1022 1023 1024 1025 1026 1027 1028 1029 1030 1031 1032 1033 1034 1035 1036 1037 1038 1039 1040 1041 1042 1043 1044 1045 1046 1047 1048 1049 1050 1051 1052 1053 1054 1055
g path_000044
l 1056 1057 1058 1059 1060 1061 1062 1063 1064 1065 1066 1067 1068 1069 1070 1071 1072 1073 1074
g path_000045
l 1075 1076 1077 1078 1079 1080 1081 1082 1083 1084 1085 1086 1087 1088 1089 1090 1091 1092 1093 1094 1095 1096 1097 1098 1099 1100 1101 1102 1103 1104 1105 1106 1107 1108 1109 1110 1111 1112 1113 1114 1115 1116 1117 1118 1119 1120 1121 1122 1123 1124 1125
g path_000046
l 1126 1127 1128 1129 1130 1131 1132 1133 1134
g path_000047
l 1135 1136 1137 1138 1139 1140 1141 1142 1143 1144 1145 1146 1147 1148 1149 1150 1151 1152 1153 1154 1155 1156 1157 1158 1159 1160 1161 1162 1163 1164 1165 1166 1167 1168 1169 1170 1171 1172 1173 1174 1175 1176 1177 1178 1179 1180 1181 1182 1183
g path_000048
l 1184 1185 1186 1187 1188 1189 1190 1191
g path_000049
l 1192 1193 1194 1195 1196 1197 1198 1199 1200 1201 1202 1203 1204 1205 1206 1207 1208 1209 1210 1211 1212 1213 1214 1215 1216 1217 1218 1219 1220 1221 1222 1223 1224 1225 1226 1227 1228 1229 1230 1231 1232 1233 1234 1235 1236 1237 1238 1239 1240
g path_000050
l 1241 1242 1243 1244
g path_000051
l 1245 1246 1247 1248 1249
g path_000052
l 1250 1251
g path_000053
l 1252 1253 1254 1255
g path_000054
l 1256 1257
g path_000055
l 1258 1259
g path_000056
l 1260 1261
g path_000057
l 1262 1263 1264 1265 1266 1267
g path_000058
l 1268 1269 1270 1271 1272
g path_000059
l 1290 1289 1288 1322 1321 1320 1319 1318 1317 1316 1315 1314 1313 1312 1311
g path_000060
l 1291 1292
g path_000061
l 1293 1294
g path_000062
l 1296 1297 1298 1299 1300 1301 1302 1303 1304 1305 1306 1307 1308 1309 1310
g path_000063
l 1323 1358 1357 1356 1355 1354 1353 1352 1351 1350 1349 1348 1347 1346 1345 1344
g path_000064
l 1324 1325 1326
g path_000065
l 1329 1330 1331 1332 1333 1334 1335 1336 1337 1338 1339 1340 1341 1342 1343
g path_000066
l 1359 1371 1370
g path_000067
l 1360 1361
g path_000068
l 1363 1364 1365 1366
g path_000069
l 1368 1369
g path_000070
l 1373 1372 1388 1387 1386 1385
g path_000071
l 1376 1377 1378 1379
g path_000072
l 1381 1382 1383
