# Fixed world centers; Z up; paths immutable
v 0.377665758 -0.551987827 1.00134158
v 0.38068527 -0.549987793 0.993923903
v 0.378581583 -0.547570407 0.987491131
v 0.375898153 -0.544457972 0.981304526
v 0.377458066 -0.540699184 0.974487245
v 0.367551386 -0.528942585 0.971431911
v 0.378149778 -0.535991728 0.960680187
v 0.378985256 -0.537036955 0.956629336
v 0.376641214 -0.534330964 0.950278163
v 0.378178775 -0.530526161 0.943440437
v 0.376377076 -0.528466582 0.93684268
v 0.374982059 -0.526892126 0.930058539
v 0.377124727 -0.523756444 0.926640868
v 0.374606818 -0.52084285 0.92035532
v 0.377183229 -0.518259227 0.913021863
v 0.375493765 -0.516330183 0.906350851
v 0.374027014 -0.514665842 0.89957267
v 0.377335727 -0.512937009 0.891872168
v 0.375849813 -0.511247814 0.885085762
v 0.378122479 -0.508276939 0.877844453
v 0.376858592 -0.50681442 0.874689341
v 0.375692815 -0.505502224 0.86773622
v 0.378128886 -0.502712965 0.860396147
v 0.368251055 -0.491100401 0.857583284
v 0.378552973 -0.497597992 0.846471965
v 0.377286077 -0.496132016 0.843309343
v 0.37670967 -0.495509475 0.83603704
v 0.378609121 -0.492064297 0.828916073
v 0.37607187 -0.489128351 0.822582245
v 0.37353462 -0.486192405 0.816248417
v 0.37726897 -0.484897226 0.80820328
v 0.375183165 -0.482492089 0.801634908
v 0.377720714 -0.479776651 0.794160187
v 0.37578845 -0.477530003 0.791316867
v 0.373380661 -0.474746019 0.784901738
v 0.378212869 -0.47470963 0.776245773
v 0.376242727 -0.472438037 0.769593358
v 0.37497279 -0.470986605 0.762578964
v 0.368816793 -0.469535887 0.760455966
v 0.377692223 -0.491537303 0.749116302
v 0.379248887 -0.487602323 0.745918036
v 0.378247499 -0.480686396 0.740185618
v 0.37637347 -0.478529125 0.733432829
v 0.381425649 -0.48447907 0.726913452
v 0.373169541 -0.486423254 0.720502973
v 0.381520867 -0.496287823 0.712189972
v 0.37738651 -0.503148854 0.703537703
v 0.3745327 -0.505697072 0.695702195
v 0.377610803 -0.509379447 0.690120101
v 0.168634459 -0.272711098 0.792711139
v 0.172645882 -0.27207917 0.788334727
v 0.172586039 -0.266645312 0.782535851
v 0.164594144 -0.25720951 0.78327632
v 0.163997591 -0.251157403 0.777791321
v 0.160723969 -0.23653841 0.778872252
v 0.170829013 -0.23768726 0.772581756
v 0.180607736 -0.243786767 0.765006661
v 0.16870746 -0.235256389 0.762850046
v 0.170436025 -0.231922179 0.759717762
v 0.169972748 -0.226038292 0.754166603
v 0.172455162 -0.223583594 0.750611663
v 0.172650173 -0.218469039 0.744691908
v 0.172412306 -0.21285145 0.739016891
v 0.162028208 -0.19545795 0.742734432
v 0.170701504 -0.194865555 0.740805626
v 0.181649715 -0.196856529 0.733958125
v 0.189100921 -0.200115785 0.734895706
v 0.189936042 -0.201094031 0.741721988
v 0.20099704 -0.213826701 0.742846608
v 0.190254986 -0.196193233 0.757553339
v 0.189905807 -0.190515116 0.762820721
v 0.195317239 -0.191439345 0.764908612
v 0.20608978 -0.193187967 0.765512705
v 0.211361378 -0.18863225 0.765512705
v 0.219152212 -0.192220822 0.766330004
v 0.224528372 -0.18776615 0.766277969
v 0.236457333 -0.190714225 0.766310751
v 0.242009059 -0.186431825 0.766170919
v 0.250524461 -0.185452685 0.764440298
v 0.249928102 -0.179496795 0.762556612
v 0.247407705 -0.171411797 0.761713207
v 0.249675348 -0.163381651 0.756097019
v 0.249223396 -0.15761669 0.754148245
v 0.252229989 -0.15048188 0.751758695
v 0.251571804 -0.144508556 0.749926686
v 0.250669658 -0.133041739 0.746048272
v 0.252114087 -0.129390493 0.743080616
v 0.249847025 -0.121613741 0.738526523
v 0.248674542 -0.125324875 0.730485201
v 0.249924526 -0.12661247 0.726168334
v 0.252512425 -0.129283249 0.717464566
v 0.248927042 -0.130384594 0.710702121
v 0.314789355 -0.197048903 0.671669602
v 0.314357609 -0.191113964 0.66594708
v 0.314620823 -0.185937867 0.659835577
v 0.314884067 -0.180761755 0.653724015
v 0.313604891 -0.179285556 0.650699556
v 0.313079327 -0.173255041 0.645038188
v 0.315502584 -0.170509115 0.641448379
v 0.315454155 -0.170270726 0.633958459
v 0.310289532 -0.169780567 0.627840996
v 0.304310948 -0.163123801 0.623772562
v 0.309799254 -0.174185812 0.611442506
v 0.295492053 -0.158485144 0.612267673
v 0.3007994 -0.158866942 0.606966972
v 0.301062793 -0.153687671 0.600851715
v 0.301326185 -0.148508385 0.594736457
v 0.293890744 -0.140392497 0.595370054
v 0.292277843 -0.127964064 0.592000842
v 0.297819853 -0.128675133 0.59030962
v 0.304577827 -0.130463183 0.580330789
v 0.301818252 -0.132546812 0.572775722
v 0.300374001 -0.125538409 0.567689121
v 0.290852576 -0.115244158 0.56965369
v 0.290698498 -0.109638572 0.563813269
v 0.296261519 -0.110239074 0.55828464
v 0.294120878 -0.102514543 0.5536502
v 0.293309599 -0.096211344 0.548211992
v 0.292172194 -0.0895672441 0.542979538
v 0.300254285 -0.0927978382 0.535867333
v 0.299167424 -0.0862019062 0.530595899
v 0.291120678 -0.0775876567 0.531775713
v 0.291382819 -0.0724324957 0.525688887
v 0.296012074 -0.071995832 0.520683706
v 0.295275122 -0.0657862425 0.515214562
v 0.294854969 -0.0599124394 0.509551167
v 0.295117289 -0.0547543056 0.503460824
v 0.290276825 -0.0495617017 0.502702892
v 0.289128691 -0.0429413728 0.497515291
v 0.29041782 -0.0390044674 0.494596839
v 0.291799545 -0.0301880836 0.497137994
v 0.295017093 -0.0282550026 0.492999643
v 0.301071137 -0.0342142507 0.481518447
v 0.297927082 -0.0255395528 0.477604777
v 0.293399066 -0.0207151864 0.476684391
v 0.300319314 -0.0173105672 0.468060583
v 0.295097977 -0.0117876912 0.467596322
v 0.295741469 -0.00703270221 0.461272955
v 0.300843567 -0.00700147869 0.45588845
v 0.296000212 0.00827409979 0.45868966
v 0.308193892 0.00618093926 0.45045799
v 0.311987668 0.0124683278 0.451494962
v 0.309767634 0.0199420862 0.450849324
v 0.313778788 0.0261651725 0.447917253
v 0.315256178 0.0298997052 0.444881916
v 0.314598501 0.035961289 0.439409047
v -0.0401773266 0.399901956 0.669882774
v -0.0342834257 0.402479351 0.672352135
v -0.0434422679 0.415683091 0.683044612
v -0.0400155 0.416386902 0.685585797
v -0.0314935707 0.416329175 0.686338842
v -0.0256724209 0.419127584 0.685565948
v -0.0210579317 0.423115432 0.685565948
v 0.0109489104 0.400223851 0.671430111
v 0.0118793389 0.407887131 0.673799634
v 0.0190062802 0.405056715 0.67406106
v 0.024729168 0.407872081 0.676692009
v 0.0212701317 0.419514865 0.685072899
v 0.0274030156 0.417662829 0.685971797
v 0.0346720256 0.41918841 0.684344113
v 0.0403853096 0.421999067 0.686970651
v 0.0444994196 0.422318012 0.685865641
v 0.0604319125 0.41568175 0.678899109
v 0.0745907575 0.410573483 0.676361501
v 0.086125955 0.407990277 0.675476909
v 0.0822579488 0.419866323 0.684023142
v 0.0875715613 0.418889135 0.685511172
v 0.0943392143 0.416562319 0.686125338
v 0.0990466923 0.420630515 0.686125338
v 0.104545943 0.423965961 0.685647249
v 0.109255001 0.428035527 0.685647249
v 0.108983621 0.436932176 0.685355127
v 0.11016769 0.444726348 0.680899799
v 0.119126931 0.440983891 0.67361021
v 0.113604791 0.454625219 0.676506341
v 0.117443614 0.455301493 0.675604582
v 0.109364897 0.471175522 0.680045009
v 0.103499405 0.484702855 0.686408997
v 0.102990314 0.489533544 0.684865773
v 0.107641138 0.493552774 0.684865773
v 0.112795122 0.497123599 0.684562802
v 0.155834839 0.467063844 0.661492586
v 0.165820658 0.466207296 0.661648214
v 0.178360388 0.46312806 0.660303295
v 0.182396784 0.467857152 0.660726905
v 0.184449092 0.474619031 0.659017563
v 0.182861447 0.480428398 0.65806514
v 0.179716557 0.487582982 0.658046067
v 0.00915647764 0.643684328 0.762399971
v 0.0104539404 0.65043819 0.761177897
v 0.0148388259 0.654227614 0.761177897
v 0.152356803 0.543602407 0.685437322
v 0.158546656 0.546289682 0.684521973
v 0.16310063 0.546073914 0.686441302
v 0.167746305 0.550088704 0.686441302
v 0.170701534 0.555859625 0.684200764
v 0.173772842 0.561198413 0.685123801
v 0.171302542 0.567562759 0.684707701
v 0.168354884 0.574314237 0.68457818
v 0.174759522 0.577498972 0.677083611
v 0.177825883 0.582807243 0.678006232
v 0.177097723 0.587676644 0.676574826
v 0.160153314 0.609856665 0.686072052
v 0.166430905 0.61242938 0.685077369
v 0.171173841 0.616272032 0.684988081
v 0.170503378 0.62489146 0.684883952
v 0.172496065 0.627115607 0.685059428
v 0.167896941 0.635058284 0.685919642
v 0.176634356 0.636348963 0.67709589
v 0.178925991 0.638329387 0.67709589
v 0.182474688 0.643487394 0.674513221
v 0.182796091 0.65123415 0.673832178
v 0.162690848 0.675277829 0.685192525
v 0.16495721 0.677236438 0.685192525
v 0.170116186 0.680656254 0.684824407
v 0.17504108 0.684265137 0.684595048
v 0.173010379 0.693734348 0.685292125
v 0.171274051 0.699211478 0.684492171
v 0.176167592 0.699858725 0.676643312
v 0.180695027 0.703771353 0.676643312
v 0.184200481 0.708866537 0.674092114
v 0.184728727 0.712559283 0.671961546
v 0.164742768 0.735424697 0.686385334
v 0.165259957 0.742740333 0.685598195
v 0.169480383 0.746803105 0.685747802
v 0.172473371 0.751802027 0.686616778
v 0.173699886 0.754902422 0.684096873
v 0.173443794 0.763159394 0.680651844
v 0.184059814 0.759144127 0.672599494
v 0.18728371 0.764377773 0.670218945
v 0.185972601 0.773015916 0.670513332
v 0.188210085 0.774949551 0.670513332
v 0.188017771 0.782715499 0.670147479
v 0.184775025 0.781951904 0.667629659
v 0.186669827 0.781362176 0.660270691
v 0.186521605 0.782301486 0.654110253
v 0.182073042 0.782845914 0.64917469
v 0.17256704 0.783161819 0.649068773
v 0.122693039 0.817479193 0.674704194
v 0.146639496 0.807016909 0.659820676
v 0.157239914 0.806229293 0.656096399
v 0.165450409 0.803268194 0.655594528
v 0.17575863 0.802339494 0.655187905
v 0.181420073 0.8052935 0.654465437
v 0.184816569 0.809922099 0.655096531
v 0.180791691 0.816862941 0.655720294
v 0.179642573 0.825220168 0.655958056
v 0.180255368 0.832265675 0.655144751
v 0.184092388 0.836523473 0.655498147
v 0.183387399 0.840983272 0.654149055
v 0.185246855 0.84709239 0.652591467
v 0.188091576 0.85204643 0.653532028
v 0.184826165 0.858317673 0.653714895
v 0.188241541 0.863281906 0.651229262
v 0.185198456 0.872833371 0.652601719
v 0.185880899 0.876254976 0.650436163
v 0.188197806 0.875505209 0.642894864
v 0.187409654 0.876956761 0.637204587
v 0.183215216 0.877354801 0.632236302
v 0.184179783 0.877117276 0.628561616
v 0.17150946 0.890437961 0.631442487
v 0.174542874 0.889186978 0.623427272
v 0.172557488 0.89148438 0.618471086
v 0.169365942 0.890732825 0.615992963
v 0.166222587 0.890392363 0.610391855
v 0.182980254 0.879416168 0.593772471
v 0.186431631 0.877872527 0.58536911
v 0.181830913 0.878538013 0.580594957
v 0.182200894 0.879175723 0.574089825
v 0.182216167 0.880066395 0.567796946
v 0.168538705 0.890650094 0.570196688
v 0.171820596 0.889227808 0.56183362
v 0.169816375 0.891546965 0.556830406
v 0.169068769 0.889486253 0.549588442
v 0.168065205 0.890647471 0.547083259
v 0.18053247 0.879210532 0.531244576
v 0.180721477 0.879983008 0.524760425
v 0.180592239 0.880982578 0.518472731
v 0.184082672 0.879421234 0.509799302
v 0.179573745 0.879992068 0.50488764
v 0.176742002 0.885982513 0.505039036
v 0.174716562 0.888326228 0.499982864
v 0.172691122 0.890669942 0.494926691
v 0.169646457 0.8902089 0.489051789
v 0.168633223 0.891381383 0.486522436
v 0.167994231 0.889213383 0.479017675
v 0.182495385 0.879855394 0.462773979
v 0.186648399 0.877834141 0.453466594
v 0.183816597 0.877190709 0.447339058
v 0.183345169 0.878444374 0.44114089
v 0.170664415 0.888344884 0.443328232
v 0.173998952 0.890462697 0.436082155
v 0.17192927 0.888827205 0.432687879
v 0.16988337 0.891194582 0.427580595
v 0.246778205 0.840963483 0.372453302
v 0.236930713 0.8556813 0.379178554
v 0.237369493 0.86360234 0.375409991
v 0.236404166 0.868383884 0.374353766
v 0.237676829 0.871600926 0.37173903
v 0.250228733 0.867476285 0.357883185
v 0.251507699 0.87070924 0.355255485
v 0.249753952 0.876527369 0.351391226
v 0.251652002 0.872570097 0.341670662
v 0.248261899 0.871771753 0.339038372
v 0.249686122 0.871765912 0.331263065
v 0.248447344 0.869961023 0.323697567
v 0.246999055 0.867805183 0.31966117
v 0.244353786 0.862816155 0.314791173
v 0.246341646 0.855051935 0.303140342
v 0.241166621 0.854994833 0.305180699
v 0.186352789 0.890784383 0.336472631
v 0.187617019 0.893980145 0.333875239
v 0.190185279 0.899865806 0.332006007
v 0.185801387 0.900281847 0.32681331
v 0.185484678 0.90145725 0.320326507
v 0.188239172 0.900490284 0.311567575
v 0.176087484 0.909926057 0.313803643
v 0.174485266 0.915587842 0.309971988
v 0.171529666 0.914536595 0.307098061
v 0.172344536 0.91492486 0.299758375
v 0.235898629 0.874826372 0.250629961
v 0.235563129 0.882902205 0.250950903
v 0.248234913 0.88199532 0.241555393
v 0.24953267 0.885275781 0.238889098
v 0.249837175 0.892897904 0.238734186
v 0.250053704 0.896910369 0.236879244
v 0.248818308 0.905548215 0.237878665
v 0.249709353 0.909088731 0.235523298
v 0.249787226 0.910057724 0.228553355
v 0.251766324 0.909742117 0.220136687
v 0.248404339 0.908888996 0.217423171
v 0.25073728 0.90833199 0.208706126
v 0.250121772 0.90977478 0.20221141
v 0.247983351 0.912249267 0.196873173
v 0.254835188 0.908644617 0.184632584
v 0.440126926 0.788392842 0.0368094407
v 0.249757782 0.920925379 0.181690872
v 0.247730196 0.929556072 0.186896354
v 0.256473482 0.931489408 0.180323765
v 0.261057079 0.932063639 0.17862241
v 0.272648364 0.931625724 0.17337051
v 0.258944839 0.948968589 0.180541232
v 0.265977502 0.947938859 0.176957041
v 0.269036829 0.953661859 0.174754485
v 0.282073796 0.952881455 0.164896071
v 0.28717798 0.953704178 0.159300268
v 0.297797352 0.955121279 0.147777393
v 0.298593462 0.955156982 0.143644854
v 0.300917357 0.958366692 0.136646539
v 0.31041795 0.95697248 0.124079533
v 0.311784565 0.957210004 0.115927525
v 0.320600927 0.955736697 0.107385352
v 0.32058531 0.956871152 0.100270063
v 0.321166039 0.957626104 0.0926753953
v 0.319912523 0.959555864 0.0865080133
v 0.326614946 0.956404388 0.0740557909
v 0.325109869 0.958499908 0.0680551082
v 0.320819765 0.958732426 0.0623380616
v 0.323880315 0.957911134 0.0526847653
v 0.326058805 0.957657635 0.0437087119
v 0.319206744 0.958950698 0.0436357893
v 0.323485404 0.957351923 0.0329416953
v 0.330043495 0.954302967 0.0203667507
v 0.439931303 0.88530618 -0.0761532038
v 0.438575059 0.88736701 -0.0826723427
v 0.441999018 0.890216947 -0.0910169333
v 0.442920417 0.890834212 -0.0994193628
v 0.628266692 0.778425634 -0.257284075
v 0.625770092 0.784740746 -0.25707823
v 0.623405695 0.795029104 -0.254734963
v 0.624342084 0.803211272 -0.255107045
v 0.627791584 0.805106223 -0.255706251
v 0.619691253 0.818881869 -0.248660922
v 0.618763089 0.824134469 -0.249729916
v 0.622954488 0.830226719 -0.252780348
v 0.627145946 0.83631897 -0.255830795
v 0.622045159 0.844103396 -0.253466725
v 0.624477386 0.851247489 -0.255071908
v 0.626583159 0.85857892 -0.256409317
v 0.629771769 0.860612214 -0.256813049
v 0.615482628 0.878468335 -0.248707756
v 0.613495529 0.888177991 -0.246681497
v 0.616171002 0.890490115 -0.246681497
v 0.620314062 0.896512091 -0.249696746
v 0.621781647 0.900221884 -0.252712011
v 0.625924766 0.906243861 -0.255727261
v 0.622408509 0.912884712 -0.254643351
v 0.625274658 0.919639289 -0.256609201
v 0.627432048 0.926799059 -0.257992625
v 0.630172968 0.933609247 -0.259856313
v 0.634231091 0.935109317 -0.260999262
v 0.635551691 0.942730427 -0.261697799
v 0.632006049 0.949297965 -0.260586172
v 0.630911887 0.958261669 -0.259300292
v 0.627528489 0.968494952 -0.256135076
v 0.628981471 0.972167909 -0.259120345
v 0.632077932 0.978696346 -0.261279106
v 0.63285017 0.986521542 -0.261527866
v 0.627037108 0.99424845 -0.258533984
v 0.630740404 1.00039911 -0.261193037
v 0.633378327 1.00267875 -0.261193037
v 0.632793128 1.01119328 -0.260329515
v 0.632624745 1.02017474 -0.263750017
v 0.632778823 1.02081311 -0.267820686
v 0.630641639 1.01971126 -0.276129693
v 0.62943089 1.02182281 -0.283038229
v 0.625882566 1.02821064 -0.281858712
v 0.614780307 1.04239559 -0.272214919
v 0.617514849 1.04827404 -0.270141631
v 0.620925009 1.05450451 -0.272558659
v 0.616534472 1.06126046 -0.270671993
v 0.624889672 1.06556046 -0.281117409
v 0.62784183 1.06763935 -0.281398028
v 0.631890357 1.073524 -0.284344494
v 0.625870883 1.08546114 -0.282848895
v 0.632013977 1.08585298 -0.28578639
v 0.625187516 1.09741366 -0.279702812
v 0.613196552 1.10801935 -0.271482855
v 0.618371785 1.11249173 -0.271482855
v 0.61693126 1.12112975 -0.26988104
v 0.618348002 1.12471092 -0.272791713
v 0.629147947 1.12779415 -0.285234839
v 0.63045913 1.1349982 -0.285910308
v 0.631498814 1.13802063 -0.284625202
v 0.634466827 1.14436507 -0.286679149
v 0.632132709 1.147066 -0.292506009
v 0.633800983 1.14774871 -0.301677108
v 0.629010916 1.1473856 -0.303729564
v 0.632584572 1.14710641 -0.31452924
v 0.633075058 1.14838791 -0.322761565
v 0.629691184 1.14807141 -0.329928994
v 0.626839042 1.14748383 -0.337559283
v 0.62116456 1.14755905 -0.338867188
v 0.612164915 1.15008628 -0.341249406
v 0.599455714 1.15019441 -0.338718861
v 0.592933536 1.15072191 -0.339254171
v 0.589181125 1.14983833 -0.342167735
v 0.579756737 1.14830625 -0.342408389
v 0.561650813 1.15126741 -0.33508718
v 0.552445412 1.15321767 -0.333218098
v 0.54410243 1.15192616 -0.338222176
v 0.54153657 1.14970875 -0.338222176
v 0.534088194 1.14795482 -0.344005525
v 0.530364037 1.1470778 -0.346897185
v 0.519891202 1.14618194 -0.346082896
v 0.515653491 1.14557958 -0.348509103
v 0.49284324 1.15123427 -0.336661786
v 0.478086978 1.15340471 -0.335802913
v 0.475547731 1.15121031 -0.335802913
v 0.468176484 1.1494745 -0.341526389
v 0.462378919 1.14902556 -0.338587254
v 0.45826599 1.14554429 -0.347249836
v 0.454580396 1.14467633 -0.350111544
v 0.431500375 1.15073657 -0.337600321
v 0.427837789 1.14987409 -0.340444148
v 0.418314725 1.14864862 -0.340225965
v 0.410451919 1.15008211 -0.339198291
v 0.394115716 1.15331066 -0.33651945
v 0.387968272 1.15028644 -0.339345574
v 0.384328485 1.14942932 -0.342171729
v 0.37818107 1.1464051 -0.344997853
v 0.374541283 1.14554799 -0.347823977
v 0.370901525 1.14469087 -0.350650102
v 0.344234854 1.15312731 -0.33415851
v 0.334431887 1.15287364 -0.3373245
v 0.329767108 1.15195072 -0.335260391
v 0.322558045 1.15025306 -0.340857923
v 0.320074677 1.14810693 -0.340857923
v 0.312865615 1.14640927 -0.346455455
v 0.309261084 1.1455605 -0.349254221
v 0.291250437 1.1493814 -0.340564042
v 0.287662745 1.14853656 -0.343349725
v 0.270782053 1.15178168 -0.335644275
v 0.266269296 1.15148258 -0.337503999
v 0.247440621 1.15592623 -0.327793896
v 0.240335077 1.15425301 -0.333311051
v 0.236782297 1.1534164 -0.336069614
v 0.230781808 1.15046442 -0.338828206
v 0.227229029 1.1496278 -0.341586769
v 0.221228525 1.14667583 -0.344345361
v 0.21767576 1.14583921 -0.347103953
v 0.209438309 1.14421332 -0.347628742
v 0.206413731 1.14306569 -0.350910366
v 0.197327524 1.14257777 -0.354425579
v 0.171988249 1.15122128 -0.337640524
v 0.168468967 1.15039253 -0.340373099
v 0.162525043 1.14746845 -0.343105674
v 0.159005761 1.1466397 -0.345838249
v 0.147324443 1.15075266 -0.34023419
v 0.135325208 1.15153348 -0.336729735
v 0.128328398 1.14988577 -0.34216246
v 0.125918135 1.14780283 -0.34216246
v 0.118921325 1.14615512 -0.347595185
v 0.102313608 1.15282023 -0.332860857
v 0.0953588113 1.15118253 -0.338260949
v 0.0918814167 1.15036356 -0.340961009
v 0.0860082284 1.14747429 -0.34366104
v 0.0825308338 1.14665544 -0.346361101
v 0.057999488 1.15546227 -0.329353631
v 0.054550007 1.15464997 -0.332031995
v 0.0487239696 1.15178382 -0.33471036
v 0.0418250076 1.15015924 -0.340067118
v 0.0383755267 1.14934695 -0.342745513
v 0.0325494893 1.1464808 -0.345423877
v 0.0291000083 1.14566851 -0.348102242
v 0.00176727225 1.15661025 -0.327514052
v -0.0016495384 1.15580559 -0.330167055
v -0.00742040062 1.15296662 -0.332820058
v -0.0108372113 1.15216196 -0.335473061
v -0.0176708326 1.15055275 -0.340779096
v -0.0234416947 1.14771378 -0.343432099
v -0.0268585049 1.14690924 -0.346085101
v -0.0334536396 1.14461231 -0.347824633
v -0.0368691795 1.14380801 -0.350476652
v -0.0410129465 1.14348459 -0.352317423
v -0.0680071712 1.1547308 -0.331232727
v -0.0747701228 1.15313816 -0.336483866
v -0.0770998374 1.15112484 -0.336483866
v -0.083862789 1.14953232 -0.341735035
v -0.0861925036 1.14751899 -0.341735035
v -0.0929554626 1.14592636 -0.346986175
v -0.0963369384 1.14513004 -0.349611759
v -0.120110549 1.15459847 -0.331543207
v -0.131221443 1.1590935 -0.32523492
v -0.136863858 1.15631771 -0.327828884
v -0.140204623 1.15553105 -0.330422848
v -0.145847052 1.15275526 -0.333016813
v -0.152528584 1.15118182 -0.338204741
v -0.15586935 1.15039515 -0.340798706
v -0.161511764 1.14761937 -0.34339267
v -0.16485253 1.14683259 -0.345986634
v -0.17160359 1.14483428 -0.347270519
v -0.173835725 1.14327013 -0.351174563
v -0.193866402 1.1506536 -0.336656064
v -0.202456802 1.15360355 -0.332943976
v -0.21203506 1.15414894 -0.334533453
v -0.217615694 1.15140355 -0.337099016
v -0.220919877 1.15062547 -0.339664578
v -0.226500526 1.14787996 -0.342230141
v -0.22980471 1.14710188 -0.344795704
v -0.233108893 1.1463238 -0.347361267
v -0.247761935 1.15015924 -0.338835984
v -0.258599102 1.15127528 -0.334908396
v -0.261879653 1.1505028 -0.337455601
v -0.274107784 1.1531148 -0.335539192
v -0.276361495 1.15116715 -0.335539192
v -0.28290379 1.14962649 -0.340619028
v -0.286174953 1.14885616 -0.343158931
v -0.291877627 1.14627051 -0.345475972
v -0.296389937 1.1464256 -0.346455336
v -0.321537852 1.15840757 -0.324229479
v -0.324831903 1.15768933 -0.326668262
v -0.330296904 1.15500081 -0.329180658
v -0.336768329 1.15347683 -0.334205419
v -0.340004027 1.15271497 -0.336717814
v -0.345468998 1.15002644 -0.33923021
v -0.348704726 1.14926445 -0.341742605
v -0.354169697 1.14657593 -0.344255
v -0.357405424 1.14581394 -0.346767396
v -0.368260562 1.14729416 -0.342258096
v -0.371487021 1.14653444 -0.344763309
v -0.37793991 1.14501488 -0.349773705
v -0.387023598 1.14844918 -0.340751708
v -0.405666679 1.15651202 -0.329593748
v -0.411060244 1.15385866 -0.332073301
v -0.414253652 1.15310669 -0.334552854
v -0.41744709 1.15235472 -0.337032408
v -0.422840655 1.14970136 -0.339511991
v -0.429227501 1.14819729 -0.344471097
v -0.431427658 1.14629591 -0.344471097
v -0.437814504 1.14479196 -0.349430203
v -0.444635868 1.14661777 -0.343152881
v -0.45466271 1.14807999 -0.343105018
v -0.458491325 1.14785922 -0.344683111
v -0.475280344 1.15453959 -0.331442177
v -0.478437603 1.15379608 -0.333893657
v -0.483770132 1.15117276 -0.336345166
v -0.48692739 1.15042925 -0.338796645
v -0.492331564 1.14786518 -0.341148227
v -0.498574466 1.14631891 -0.346151114
v -0.501731753 1.1455754 -0.348602593
v -0.509139061 1.14468992 -0.348125219
v -0.514981747 1.14620483 -0.346766979
v -0.526695907 1.14898479 -0.340120256
v -0.533249319 1.15113497 -0.337686211
v -0.543927848 1.15311444 -0.332401544
v -0.547048688 1.15237951 -0.334824771
v -0.553290427 1.15090966 -0.339671165
v -0.555440545 1.14905155 -0.339671165
v -0.561682224 1.1475817 -0.344517589
v -0.568076313 1.1459614 -0.345301747
v -0.571195066 1.14522696 -0.347723335
v -0.57445401 1.14461458 -0.349939108
v -0.589042604 1.15017617 -0.338621408
v -0.595244765 1.14871573 -0.343437135
v -0.597381234 1.1468693 -0.343437135
v -0.605959296 1.14751208 -0.344706059
v -0.610884011 1.14814568 -0.340533823
v -0.61756742 1.14713633 -0.344581544
v -0.622627378 1.14816928 -0.344011545
v -0.628105819 1.14559472 -0.342159361
v -0.633315086 1.14303195 -0.344554186
v -0.633687139 1.13936698 -0.343363672
v -0.635236204 1.13299489 -0.34361589
v -0.637593627 1.1273458 -0.342644393
v -0.63560158 1.12149286 -0.345049381
v -0.636619866 1.11435533 -0.34224987
v -0.637222528 1.1108681 -0.340707242
v -0.64026463 1.10581243 -0.338704258
v -0.637771666 1.09943187 -0.341869026
v -0.636992753 1.09055984 -0.341796368
v -0.636566103 1.08607697 -0.341814786
v -0.635062516 1.07667816 -0.346739918
v -0.636244178 1.07369101 -0.344312131
v -0.6374259 1.07070398 -0.341884315
v -0.639959574 1.06489265 -0.336769849
v -0.643125117 1.05988121 -0.334600896
v -0.644306839 1.05689406 -0.332173109
v -0.645488501 1.05390704 -0.329745293
v -0.64307487 1.0432961 -0.332148284
v -0.640628755 1.03278124 -0.338523835
v -0.636956215 1.02501774 -0.343474001
v -0.638149261 1.02200186 -0.34102276
v -0.643979192 1.01936603 -0.330887228
v -0.646383822 1.01755702 -0.326596797
v -0.643300116 1.00627291 -0.333950013
v -0.644494593 1.00325358 -0.331496
v -0.645886302 0.996216059 -0.328103244
v -0.646285713 0.99239558 -0.326856703
v -0.631757557 0.969413161 -0.3516303
v -0.633145571 0.966537654 -0.348874092
v -0.637201846 0.962092221 -0.341416419
v -0.638409674 0.959039152 -0.338934928
v -0.638063788 0.95023191 -0.342165619
v -0.639274418 0.947171688 -0.339678347
v -0.642422199 0.941802025 -0.333599627
v -0.64370513 0.938818634 -0.331002802
v -0.646323979 0.933023393 -0.32972917
v -0.647534609 0.929963171 -0.327241868
v -0.649955869 0.923842669 -0.322267264
v -0.651166499 0.920782447 -0.319779992
v -0.64709568 0.907894135 -0.328683883
v -0.648311973 0.904819548 -0.326184899
v -0.64307344 0.890493393 -0.332846731
v -0.641695142 0.884625077 -0.334287137
v -0.641065538 0.879544497 -0.3345882
v -0.635053873 0.864316344 -0.346474797
v -0.636286676 0.861200035 -0.343941957
v -0.641768098 0.858240068 -0.334293336
v -0.643318653 0.85547781 -0.331279039
v -0.642799914 0.846065164 -0.334822506
v -0.644033253 0.842947543 -0.332288623
v -0.646499872 0.83671236 -0.327220827
v -0.647733212 0.833594799 -0.324686915
v -0.651094079 0.828400075 -0.322336763
v -0.649493039 0.822127521 -0.324112743
v -0.637964964 0.800221026 -0.340310961
v -0.639169157 0.797022879 -0.337814331
v -0.635334253 0.78361994 -0.346439004
v -0.636586428 0.780454636 -0.343866318
v -0.63970089 0.774816871 -0.337793797
v -0.64212811 0.772991121 -0.333436012
v -0.643877923 0.765820742 -0.333575666
v -0.645130098 0.762655497 -0.33100298
v -0.647634506 0.756324887 -0.325857639
v -0.648886681 0.753159642 -0.323284984
v -0.643416345 0.73756212 -0.334411532
v -0.638485253 0.727171063 -0.341238767
v -0.633037865 0.711447179 -0.348167241
v -0.634308219 0.70823586 -0.345557153
v -0.637993157 0.707864046 -0.339279115
v -0.636425495 0.696574092 -0.344503492
v -0.638970613 0.690140486 -0.339274466
v -0.640243173 0.686923742 -0.336659938
v -0.641515732 0.683706939 -0.33404541
v -0.645108223 0.678485334 -0.331430882
v -0.647653341 0.672051728 -0.326201856
v -0.6489259 0.668834984 -0.323587328
v -0.650095046 0.665492952 -0.321129888
v -0.639208198 0.642642736 -0.340539634
v -0.635169744 0.632900476 -0.345995039
v -0.634937465 0.622941256 -0.344970047
v -0.636228204 0.619678617 -0.342318237
v -0.633069277 0.605977654 -0.35001424
v -0.634365439 0.602701187 -0.347351223
v -0.63752526 0.596854568 -0.341162711
v -0.63917011 0.594014943 -0.337970078
v -0.641913056 0.587553322 -0.336699128
v -0.643209219 0.584276855 -0.334036112
v -0.645801544 0.57772398 -0.328710079
v -0.647097707 0.574447513 -0.326047033
v -0.650756836 0.56912899 -0.323384017
v -0.652052999 0.565852582 -0.320721
v -0.637132108 0.536855102 -0.342015535
v -0.638442516 0.533542633 -0.339323223
v -0.634183347 0.517891347 -0.348739117
v -0.633701384 0.512234509 -0.348769486
v -0.636338174 0.505569279 -0.343352139
v -0.637801588 0.50242579 -0.340423018
v -0.641378343 0.496827036 -0.337934822
v -0.642696738 0.493494421 -0.335226148
v -0.645333529 0.486829191 -0.329808801
v -0.646651924 0.483496577 -0.327100158
v -0.647970259 0.480163962 -0.324391484
v -0.637555003 0.455921113 -0.343187511
v -0.639969766 0.448868394 -0.338095218
v -0.638302982 0.441484392 -0.339917123
v -0.639635742 0.438115478 -0.337178946
v -0.633028328 0.418631673 -0.350215733
v -0.635711014 0.411850274 -0.344703972
v -0.637052417 0.408459574 -0.341948092
v -0.638416171 0.405099481 -0.339158118
v -0.642180443 0.399564922 -0.336436331
v -0.644863188 0.392783523 -0.330924571
v -0.646204531 0.389392823 -0.32816869
v -0.647545934 0.386002123 -0.32541281
v -0.651332617 0.380498171 -0.322656929
v -0.65267396 0.377107471 -0.319901049
v -0.647392094 0.359168977 -0.326496065
v -0.643320739 0.348151654 -0.33196184
v -0.633799613 0.323779613 -0.349479258
v -0.635163546 0.320331901 -0.346677035
v -0.637891352 0.313436478 -0.341072589
v -0.639255285 0.309988767 -0.338270396
v -0.643105686 0.304392278 -0.335468173
v -0.644469559 0.300944567 -0.33266595
v -0.647197425 0.294049144 -0.327061504
v -0.648486674 0.290493578 -0.324372739
v -0.635182917 0.259993285 -0.347674042
v -0.636561573 0.25650835 -0.34484157
v -0.639318883 0.249538451 -0.339176595
v -0.640697539 0.246053502 -0.336344123
v -0.633496642 0.224062562 -0.35039261
v -0.634884834 0.220553502 -0.347540528
v -0.637661219 0.213535368 -0.341836363
v -0.639049411 0.210026309 -0.338984281
v -0.641825795 0.203008175 -0.333280116
v -0.644356489 0.200821146 -0.333280116
v -0.647132814 0.193803012 -0.327575952
v -0.647658944 0.188994393 -0.326034307
v -0.648454607 0.184587091 -0.324082136
v -0.634934962 0.152404666 -0.347765982
v -0.63692981 0.144061029 -0.343232661
v -0.638335168 0.140508577 -0.340345323
v -0.639740527 0.136956111 -0.337457955
v -0.643707871 0.131189585 -0.334570616
v -0.646518588 0.124084659 -0.32879588
v -0.647923946 0.1205322 -0.325908542
v -0.643598855 0.108074255 -0.331729949
v -0.633847833 0.0808428675 -0.3497293
v -0.63518405 0.0771119893 -0.346938014
v -0.638029158 0.0699200109 -0.341092527
v -0.639451742 0.0663240179 -0.338169813
v -0.643467724 0.060486827 -0.33524707
v -0.644890308 0.0568908378 -0.332324326
v -0.647735417 0.0496988595 -0.326478869
v -0.649158001 0.0461028665 -0.323556125
v -0.641546249 0.0221211668 -0.333594352
v -0.63166666 -0.000238859066 -0.352596998
v -0.634552777 -0.0075343647 -0.346667379
v -0.635995805 -0.0111821173 -0.343702555
v -0.638881922 -0.0184776224 -0.337772965
v -0.641512632 -0.0207510851 -0.337772965
v -0.644398749 -0.0280465912 -0.331843346
v -0.645841777 -0.0316943452 -0.328878522
v -0.637757599 -0.0571022183 -0.339614153
v -0.634995759 -0.0683468357 -0.347847104
v -0.637911439 -0.0757171288 -0.341856718
v -0.639369309 -0.0794022754 -0.338861495
v -0.642284989 -0.0867725685 -0.332871109
v -0.638353825 -0.100127965 -0.342897534
v -0.636019111 -0.116401255 -0.344885349
v -0.637487769 -0.120113678 -0.341867983
v -0.637729645 -0.12590383 -0.340714931
v -0.635431111 -0.142907888 -0.347507626
v -0.638382375 -0.150368229 -0.341444045
v -0.639858067 -0.154098406 -0.338412255
v -0.641333699 -0.157828569 -0.335380465
v -0.644285023 -0.16528891 -0.329316884
v -0.636787593 -0.191562414 -0.344024301
v -0.632149756 -0.205960378 -0.350282013
v -0.633641839 -0.209732056 -0.347216487
v -0.636626005 -0.217275396 -0.341085434
v -0.639346063 -0.219626099 -0.341085434
v -0.642330229 -0.227169454 -0.334954381
v -0.643822312 -0.230941117 -0.331888855
v -0.646806479 -0.238484472 -0.325757802
v -0.637282908 -0.262606502 -0.344388247
v -0.639159083 -0.272227526 -0.339929789
v -0.640663683 -0.276030779 -0.336838603
v -0.638777971 -0.292439997 -0.338092178
v -0.631962121 -0.312066406 -0.352650851
v -0.634998381 -0.319741547 -0.346412659
v -0.636516571 -0.323579133 -0.343293577
v -0.639552832 -0.331254303 -0.337055385
v -0.642320454 -0.333646059 -0.337055385
v -0.645356774 -0.34132123 -0.330817193
v -0.646874905 -0.345158815 -0.327698112
v -0.638376415 -0.374158412 -0.338984966
v -0.639726639 -0.378355056 -0.336114973
v -0.629059672 -0.412527114 -0.355763018
v -0.630603254 -0.416428953 -0.352591693
v -0.633690417 -0.424232632 -0.346249044
v -0.635233939 -0.428134471 -0.343077719
v -0.639591515 -0.43446812 -0.339906394
v -0.641135037 -0.43836996 -0.33673507
v -0.642678618 -0.442271799 -0.333563745
v -0.645765781 -0.450075477 -0.327221125
v -0.650123298 -0.456409156 -0.324049801
v -0.648669481 -0.466060251 -0.325436383
v -0.641908348 -0.485939831 -0.334887564
v -0.641628742 -0.500342309 -0.333647519
v -0.640597522 -0.517268181 -0.338705659
v -0.634466767 -0.536181271 -0.347194493
v -0.633986115 -0.544149339 -0.347086012
v -0.637131214 -0.552099645 -0.340624213
v -0.639998078 -0.554577112 -0.340624213
v -0.643143177 -0.562527418 -0.334162384
v -0.642491162 -0.570898414 -0.334313571
v -0.639342129 -0.591361523 -0.337411821
v -0.639210224 -0.599850118 -0.341999114
v -0.642378032 -0.607857704 -0.335490704
v -0.637322724 -0.625162423 -0.342330784
v -0.63912636 -0.635974824 -0.337888032
v -0.635531604 -0.65158999 -0.347776562
v -0.63539505 -0.666425109 -0.346278965
v -0.634285629 -0.675979912 -0.34711054
v -0.637494147 -0.684090555 -0.340518415
v -0.638703763 -0.688952804 -0.337821811
v -0.638782501 -0.704682946 -0.341295987
v -0.640391648 -0.708750486 -0.337989956
v -0.643609881 -0.716885567 -0.331377953
v -0.645219028 -0.720953166 -0.328071922
v -0.644092798 -0.739364266 -0.33338958
v -0.640944719 -0.753389895 -0.337314874
v -0.638671577 -0.773137808 -0.339036465
v -0.640106738 -0.777645409 -0.335986137
v -0.637614429 -0.799268782 -0.343419194
v -0.636612594 -0.808971643 -0.344071448
v -0.636433423 -0.816954136 -0.343470126
v -0.638270199 -0.828293383 -0.338926852
v -0.640333235 -0.840503812 -0.339459389
v -0.64197439 -0.844652414 -0.336087525
v -0.643615603 -0.848800957 -0.33271566
v -0.646105111 -0.858810842 -0.327176481
v -0.634062946 -0.901751161 -0.349179119
v -0.635722041 -0.905945122 -0.345770329
v -0.637381196 -0.910139084 -0.342361569
v -0.640699506 -0.918527067 -0.33554405
v -0.642334104 -0.932045519 -0.336775154
v -0.638101995 -0.94924885 -0.342326105
v -0.635987759 -0.961828172 -0.34465006
v -0.638797522 -0.971470654 -0.338591129
v -0.640470445 -0.975699365 -0.335154116
v -0.642641962 -0.988268435 -0.335597843
v -0.644317508 -0.992503881 -0.332155347
v -0.643682241 -1.00994921 -0.331328034
v -0.644398808 -1.01636815 -0.329339951
v -0.637486458 -1.0496943 -0.343621463
v -0.639179468 -1.05397391 -0.340143144
v -0.642565429 -1.06253302 -0.333186507
v -0.64425844 -1.06681252 -0.329708189
v -0.638354301 -1.09831738 -0.342484564
v -0.640058577 -1.10262561 -0.33898297
v -0.638293624 -1.12484336 -0.345498919
v -0.636745214 -1.12516892 -0.336543739
v -0.636361122 -1.13434577 -0.336204559
v -0.637529492 -1.13829482 -0.327860981
v -0.636303723 -1.13786244 -0.318435341
v -0.639407873 -1.13730001 -0.30720678
v -0.63800329 -1.13892531 -0.303700507
v -0.636817038 -1.13840866 -0.294269741
v -0.635541856 -1.13810468 -0.284993351
v -0.625386655 -1.14022493 -0.285242677
v -0.619048357 -1.13512111 -0.285416424
v -0.614228725 -1.12339818 -0.272277743
v -0.611026168 -1.12094545 -0.272423595
v -0.601135254 -1.12237239 -0.272228479
v -0.598190069 -1.10965073 -0.267525643
v -0.577054977 -1.13618755 -0.283388823
v -0.579565465 -1.12242222 -0.280865908
v -0.580381334 -1.1043601 -0.281826258
v -0.575537562 -1.10551536 -0.284304619
v -0.553852081 -1.13422441 -0.306321353
v -0.554156601 -1.12245405 -0.295880347
v -0.543616951 -1.1249274 -0.29638049
v -0.540102482 -1.12303579 -0.296909928
v -0.533317268 -1.11871135 -0.29762128
v -0.517011583 -1.13350034 -0.306080699
v -0.507184327 -1.13418305 -0.305422127
v -0.500865638 -1.12872243 -0.305422127
v -0.494751841 -1.13089585 -0.303962439
v -0.489340812 -1.12212586 -0.297199428
v -0.478055269 -1.12578118 -0.298455983
v -0.474914104 -1.12299812 -0.298424661
v -0.466716498 -1.12010276 -0.295452803
v -0.454309791 -1.12726533 -0.303617805
v -0.439520955 -1.1379174 -0.309394479
v -0.431705445 -1.13407254 -0.305801481
v -0.428517342 -1.13131738 -0.305801481
v -0.424030274 -1.12067997 -0.297821075
v -0.419411302 -1.11959219 -0.294234633
v -0.409779251 -1.12070847 -0.298509479
v -0.401259542 -1.11828291 -0.295833141
v -0.390040249 -1.12247396 -0.302108645
v -0.379837394 -1.13249803 -0.305686295
v -0.367881268 -1.13677096 -0.307328165
v -0.365015566 -1.12297809 -0.297305942
v -0.353188992 -1.12692106 -0.298730552
v -0.353474587 -1.11727881 -0.294298053
v -0.341499329 -1.12144792 -0.295869738
v -0.33443889 -1.11712599 -0.296665788
v -0.317005068 -1.1317209 -0.304974139
v -0.314948589 -1.12666523 -0.303510696
v -0.299279928 -1.13765121 -0.309485853
v -0.297133833 -1.12267041 -0.298682839
v -0.29054442 -1.12518096 -0.29737252
v -0.287680387 -1.11275828 -0.292959422
v -0.27220118 -1.12312317 -0.298527151
v -0.263317764 -1.12202549 -0.301439971
v -0.246455908 -1.14365387 -0.312467873
v -0.238451853 -1.13971627 -0.30878821
v -0.236280203 -1.12497461 -0.298137248
v -0.234036475 -1.12029123 -0.296929777
v -0.226059571 -1.11636698 -0.293262601
v -0.219617456 -1.11062253 -0.293184787
v -0.200490281 -1.12700367 -0.302637041
v -0.188361347 -1.13050282 -0.303757697
v -0.184701547 -1.12835968 -0.30420354
v -0.173781261 -1.12959027 -0.303857714
v -0.172687382 -1.12188029 -0.29590705
v -0.162274584 -1.12217307 -0.294951022
v -0.155711964 -1.11650169 -0.294951022
v -0.138249665 -1.12919891 -0.302004427
v -0.126049846 -1.13337243 -0.308386028
v -0.120393217 -1.13375258 -0.305636406
v -0.11378102 -1.12803829 -0.305636406
v -0.104183674 -1.1257782 -0.298184484
v -0.100634485 -1.12334275 -0.298456728
v -0.0910827443 -1.12185144 -0.296341151
v -0.0854972303 -1.11435962 -0.295195222
v -0.0659215301 -1.13771784 -0.30240339
v -0.064817749 -1.13793886 -0.29281491
v -0.063135758 -1.13915288 -0.28387776
v -0.0567310713 -1.13300085 -0.283615708
v -0.0462668464 -1.14145732 -0.286002547
v -0.0473168604 -1.12184978 -0.272288799
v -0.0425027274 -1.12071609 -0.268550813
v -0.0311298352 -1.12294579 -0.273638934
v -0.0229815263 -1.11893713 -0.269892961
v -0.00553258089 -1.13117111 -0.281393886
v 0.00240302994 -1.13515663 -0.280905336
v 0.00817655586 -1.12786257 -0.279936999
v 0.0144320056 -1.12063873 -0.274127781
v 0.0294752643 -1.12710845 -0.272182524
v 0.0328234434 -1.12421489 -0.272182524
v 0.0357082114 -1.11222959 -0.268219292
v 0.046324499 -1.11281633 -0.272294819
v 0.0520000271 -1.10607052 -0.276576549
v 0.0539381951 -1.10158932 -0.280455738
v 0.0784846395 -1.12438393 -0.298907965
v 0.0859087706 -1.11895895 -0.294230163
v 0.100156024 -1.12437272 -0.296543449
v 0.108240485 -1.12061083 -0.297889799
v 0.128160492 -1.13480568 -0.305875242
v 0.130771294 -1.1306268 -0.305074185
v 0.142832041 -1.13234556 -0.305000514
v 0.147926942 -1.12318218 -0.297898829
v 0.154630736 -1.12536716 -0.301208794
v 0.163281992 -1.1217289 -0.297673553
v 0.180825457 -1.13175392 -0.302955896
v 0.19185026 -1.14046478 -0.310490191
v 0.204200193 -1.14234889 -0.310511559
v 0.21253477 -1.13807607 -0.306556344
v 0.217054009 -1.12803209 -0.298879296
v 0.21931605 -1.12330639 -0.297741979
v 0.229255661 -1.12148213 -0.29536888
v 0.238775298 -1.11953425 -0.297940642
v 0.256036311 -1.12856722 -0.302578986
v 0.257930011 -1.12328279 -0.301088065
v 0.269410372 -1.12362635 -0.300111979
v 0.277862221 -1.11946845 -0.296226442
v 0.287206352 -1.1246686 -0.296454132
v 0.294113547 -1.11869931 -0.296454132
v 0.313441515 -1.13035858 -0.30277741
v 0.320378125 -1.1243639 -0.30277741
v 0.327941477 -1.12683916 -0.301232517
v 0.336144596 -1.12220895 -0.297033787
v 0.344654351 -1.11802256 -0.293121636
v 0.351596951 -1.11202276 -0.293121636
v 0.372828275 -1.12592876 -0.300893992
v 0.376316488 -1.1229142 -0.300893992
v 0.398135155 -1.13745344 -0.309073031
v -0.129250541 -0.379226178 0.181729972
v -0.128135741 -0.380479157 0.185017616
v -0.128259033 -0.386028945 0.191189602
v -0.128442422 -0.38513422 0.199933097
v -0.130702108 -0.387661517 0.20801416
v -0.129441768 -0.389119893 0.211160377
v -0.128522605 -0.389776528 0.21887897
v -0.128793433 -0.395101845 0.225166678
v -0.128165767 -0.395343035 0.233125404
v -0.128436342 -0.400663614 0.23940751
v -0.127089202 -0.401919693 0.246714875
v -0.128617197 -0.405782133 0.249854192
v -0.128598705 -0.405150861 0.258309692
v -0.124110945 -0.40451166 0.265280187
v -0.115807652 -0.403567284 0.262910634
v -0.109513901 -0.405781835 0.264109433
v -0.102361709 -0.40317136 0.262754738
v -0.0953903943 -0.399991274 0.265785754
v -0.0820289478 -0.405681074 0.263380945
v -0.192451388 -0.240178317 0.365836591
v -0.191256225 -0.241561279 0.368820101
v -0.19183287 -0.246172339 0.375056237
v -0.193284795 -0.249842539 0.378039271
v -0.209037676 -0.239843205 0.386859059
v -0.211671069 -0.242118984 0.386859059
v -0.218126714 -0.245294839 0.383891225
v -0.22745645 -0.244124591 0.387347639
v -0.233899146 -0.247294083 0.384385794
v -0.237713724 -0.24819237 0.38142392
v -0.246485442 -0.247730553 0.384448141
v -0.254833162 -0.248154804 0.383148164
v -0.255767494 -0.25251013 0.385667235
v -0.256637365 -0.262665957 0.38984713
v -0.255263418 -0.270359278 0.390382111
v -0.256361753 -0.280229539 0.394771874
v -0.257793069 -0.283893526 0.397726357
v -0.258048415 -0.288914889 0.403655201
v -0.258663386 -0.293767065 0.405911952
v -0.257052124 -0.307637006 0.4080064
v -0.256962985 -0.313542634 0.409670025
v -0.257044822 -0.306563765 0.419942766
v -0.255856276 -0.307939112 0.422909826
v -0.255528539 -0.307697564 0.430567473
v -0.258707613 -0.302338749 0.441144139
v -0.253716856 -0.302812397 0.447055638
v -0.25513798 -0.300035894 0.456104636
v -0.26176849 -0.283642441 0.471561432
v -0.259418666 -0.286361516 0.477427423
v -0.257068813 -0.28908059 0.483293384
v -0.255490839 -0.285004944 0.488012642
v -0.253994197 -0.286489159 0.494559646
v -0.252056122 -0.288613111 0.500744939
v -0.25657922 -0.275406629 0.514169097
v -0.257622451 -0.273229659 0.522684574
v -0.260012954 -0.263173401 0.534277081
v -0.258851886 -0.26451695 0.537175536
v -0.192749351 -0.365200341 0.490820527
v -0.192686439 -0.37073791 0.49655953
v -0.193265364 -0.375347316 0.502801239
v -0.319037199 -0.198585674 0.602692544
v -0.318610519 -0.210461766 0.602159798
v -0.319492877 -0.214647308 0.604598105
v -0.318916798 -0.220623583 0.609604299
v -0.317786336 -0.221931681 0.612426281
v -0.318029433 -0.226711795 0.618070245
v -0.318292171 -0.23146309 0.623729289
v -0.319645196 -0.23496525 0.626535535
v -0.318710327 -0.235631466 0.633191943
v -0.194111601 -0.418101102 0.545892239
v -0.192910358 -0.419491112 0.548890948
v -0.222410187 -0.387646526 0.574981809
v -0.230198994 -0.388812572 0.573048055
v -0.232823551 -0.391080707 0.573048055
v -0.234726697 -0.400606245 0.570495725
v -0.25281623 -0.385937601 0.580309272
v -0.253588915 -0.391360223 0.575047851
v -0.251403868 -0.406643897 0.573207974
v -0.253937364 -0.409048855 0.573138237
v -0.255690217 -0.418033898 0.57818979
v -0.253984928 -0.41976887 0.584616482
v -0.256551743 -0.421698093 0.588433743
v -0.255727798 -0.422094613 0.595518589
v -0.254183829 -0.417352796 0.604022682
v -0.253474206 -0.41179195 0.609290183
v -0.245151415 -0.411935151 0.606971979
v -0.232883602 -0.423755169 0.603606045
v -0.23206006 -0.42417562 0.610678971
v -0.231941283 -0.423539877 0.618260264
v -0.230408445 -0.431234121 0.622858524
v -0.231523678 -0.42873913 0.631325662
v -0.230948552 -0.428786367 0.638536513
v -0.19235602 -0.49224779 0.616283
v -0.192615137 -0.497342914 0.622298896
v -0.191410184 -0.498737216 0.625306845
v -0.191617519 -0.503910542 0.631285608
v -0.191726089 -0.50966233 0.633322716
v -0.191709101 -0.515179634 0.639145613
v -0.191512793 -0.520970762 0.644842684
v -0.192335278 -0.52565372 0.647397399
v -0.16084905 -0.586529911 0.621192038
v -0.166818514 -0.590884805 0.617625177
v -0.194993928 -0.560576916 0.633927107
v -0.209383667 -0.551301062 0.640402734
v -0.213273421 -0.552217066 0.637382507
v -0.228635252 -0.541282952 0.64462173
v -0.235172525 -0.54449898 0.641616404
v -0.215544671 -0.588784754 0.61947149
v -0.219465747 -0.58970809 0.616426945
v -0.227383122 -0.590405405 0.618278503
v -0.256247103 -0.557844639 0.635605693
v -0.270045191 -0.548971474 0.641872346
v -0.276554585 -0.552173734 0.638879776
v -0.290103972 -0.543529272 0.645028353
v -0.291441649 -0.548458219 0.640174925
v -0.301071435 -0.546026766 0.643431664
v -0.282997578 -0.589637518 0.617980838
v -0.286260724 -0.590996504 0.618425548
v -0.29500562 -0.590652585 0.617075682
v -0.301892728 -0.59274298 0.618254006
v -0.334425867 -0.552541554 0.639101326
v -0.340881616 -0.555717468 0.636133432
v -0.352535903 -0.549650252 0.641070724
v -0.358969957 -0.552815497 0.638112843
v -0.341138303 -0.589932203 0.618268073
v -0.350110054 -0.58899194 0.617209256
v -0.354204357 -0.588852167 0.618342996
v -0.359756857 -0.593001485 0.618543088
v -0.377138495 -0.577049792 0.628090262
v -0.382299989 -0.581773281 0.62800926
v -0.381606519 -0.595205903 0.631111562
v -0.384243637 -0.597484887 0.631111562
v -0.381977946 -0.6136868 0.632982671
v -0.381140679 -0.628171682 0.632068217
v -0.382595092 -0.631848156 0.635056317
v -0.386700928 -0.637815952 0.638044477
v -0.372112453 -0.670174956 0.624426425
v -0.352687597 -0.718926013 0.600770593
v -0.360016137 -0.720268905 0.602285743
v -0.365776569 -0.724353969 0.602556944
v -0.373119563 -0.725625396 0.604097605
v -0.381860316 -0.722853124 0.614811599
v -0.381929785 -0.729113758 0.616726995
v -0.382916451 -0.740920246 0.617219508
v -0.38077262 -0.751186013 0.61737591
v -0.383000702 -0.760838807 0.618860066
v -0.384489268 -0.764601588 0.62191838
v -0.386293083 -0.7750597 0.623065948
v -0.387783587 -0.778827369 0.626128256
v -0.382138997 -0.802919805 0.62134999
v -0.383942276 -0.806150138 0.624670804
v -0.382285982 -0.823100984 0.623070061
v -0.386301309 -0.82968688 0.625977039
v -0.388031602 -0.833066821 0.629245579
v -0.39227432 -0.839233637 0.632333338
v -0.393777221 -0.843032718 0.635421157
v -0.385620892 -0.871446252 0.632765532
v -0.383382112 -0.889834464 0.630722761
v -0.380578041 -0.902677178 0.626308501
v -0.383621633 -0.910370827 0.632561743
v -0.385143429 -0.914217651 0.635688365
v -0.384059876 -0.930656672 0.634567499
v -0.384521335 -0.936536252 0.636863589
v -0.383899599 -0.952206135 0.636110902
v -0.382726312 -0.952555835 0.643458784
v -0.381936878 -0.952177286 0.651094079
v -0.381305963 -0.951500356 0.65883708
v -0.374443561 -0.949142337 0.657836199
v -0.367118388 -0.95439446 0.658449829
v -0.361537039 -0.949571013 0.658449829
v -0.351182759 -0.952788413 0.658914387
v -0.345591038 -0.947956026 0.658914387
v -0.334848791 -0.951806188 0.659124255
v -0.332042783 -0.949393332 0.659120858
v -0.321743011 -0.952346385 0.659701109
v -0.321095586 -0.939232945 0.659315407
v -0.322226793 -0.930455923 0.658164442
v -0.383993745 -0.802601695 0.70866859
v -0.382842988 -0.803887784 0.711762071
v -0.383882046 -0.793128073 0.722431719
v -0.384173036 -0.783785522 0.732484818
v -0.383133978 -0.78487438 0.735634983
v -0.389232427 -0.765067339 0.74985677
v -0.387646616 -0.759246886 0.758394599
v -0.387580723 -0.750720143 0.767989516
v -0.387357891 -0.750349402 0.771680772
v -0.387340426 -0.741788387 0.781243384
v -0.397506684 -0.722003162 0.796096027
v -0.396704584 -0.721929014 0.803125322
v -0.395053655 -0.717162132 0.80759871
v -0.39375791 -0.711034417 0.816081405
v -0.384680837 -0.711874127 0.820961654
v -0.385187238 -0.710239768 0.825075626
v -0.396925211 -0.681064844 0.842389166
v -0.395942926 -0.681364715 0.849158525
v -0.395683825 -0.680385351 0.85640496
v -0.395243198 -0.672924459 0.865245283
v -0.392660439 -0.670692384 0.865245283
v -0.38470757 -0.676503539 0.869049788
v -0.387753338 -0.662986815 0.880132735
v -0.385025233 -0.659646928 0.88736105
v -0.386004031 -0.6572451 0.891656816
v -0.386054963 -0.649082422 0.900648952
v -0.384919852 -0.643027902 0.908831477
v -0.38447839 -0.643122137 0.912171483
v -0.385823995 -0.632795513 0.921885431
v -0.384148121 -0.627756834 0.929633319
v -0.384534568 -0.626426876 0.933466673
v -0.382626057 -0.621824741 0.941026151
v -0.384123445 -0.611376345 0.950669646
v -0.382123351 -0.613530099 0.956546247
v -0.384448797 -0.602356374 0.963074744
v -0.382697105 -0.597588122 0.970611334
v -0.382638693 -0.596421897 0.977624118
v -0.383135647 -0.588470817 0.982954383
v -0.382271945 -0.582252383 0.99094516
v -0.377868503 -0.582091868 0.996800721
v -0.372194409 -0.578900099 0.996405065
v -0.364898503 -0.578437924 0.995054662
v -0.360560209 -0.578760743 0.997468352
v -0.35382241 -0.577317715 0.996459186
v -0.344037116 -0.580361485 0.997171938
v -0.338731587 -0.576475084 0.997011483
v -0.333084375 -0.57315141 0.996653855
v -0.325746328 -0.578389823 0.997362792
v -0.332352102 -0.555398107 1.00058687
v -0.327246308 -0.551216245 1.00053394
v -0.316668153 -0.561724842 0.999382794
v -0.314016372 -0.553493023 1.00074327
v -0.300684273 -0.562113404 0.999499798
v -0.297789633 -0.554275215 1.00071836
v -0.285992444 -0.560294628 1.00039005
v -0.281250298 -0.555427909 1.00056493
v -0.27586779 -0.551588893 1.00038004
v -0.266094565 -0.560466409 0.999819398
v -0.262815863 -0.553240597 1.00081623
v -0.247831836 -0.564076304 0.998811424
v -0.24687092 -0.553176105 1.00108981
v -0.231645897 -0.564249516 0.999007225
v -0.231954351 -0.557567835 1.00057447
v -0.227300167 -0.552484214 1.00081384
v -0.216308191 -0.556801379 1.00109792
v -0.212020755 -0.551129162 1.0015403
v -0.199377447 -0.557909787 1.00096679
v -0.194466665 -0.553171754 1.00107753
v -0.180281252 -0.562195718 0.999725699
v -0.180107728 -0.55632025 1.00100529
v -0.174977854 -0.551886976 1.00100529
v -0.162623167 -0.557985067 1.00067997
v -0.157782242 -0.553080261 1.00084078
v -0.145234451 -0.559361815 1.00045705
v -0.143613428 -0.555694163 1.00096047
v -0.138461798 -0.551229298 1.00096333
v -0.126287907 -0.556831539 1.0008204
v -0.12138281 -0.55196774 1.0009588
v -0.109590739 -0.556905329 1.00105393
v -0.104197554 -0.552733362 1.00094604
v -0.0920708179 -0.558065951 1.00090849
v -0.0897261575 -0.555447459 1.00103891
v -0.0845284462 -0.550955594 1.00103891
v -0.0728064701 -0.55558753 1.00124979
v -0.0672444925 -0.551592708 1.00107181
v -0.0582448803 -0.558230579 1.00137615
v -0.0531138144 -0.553582788 1.00142276
v -0.0459101871 -0.551903844 1.00042868
v -0.0343443528 -0.556107461 1.00079966
v -0.0285218507 -0.552405536 1.00050974
v -0.0189295411 -0.559717953 1.00059295
v -0.0146254795 -0.553831935 1.00106382
v 0.00244229427 -0.565621555 0.998794377
v 0.00337857543 -0.554972887 1.00092578
v 0.00902587455 -0.550949872 1.00074005
v 0.02027761 -0.554441631 1.0013746
v 0.0260346793 -0.550539613 1.00114286
v 0.0354687013 -0.557385325 1.00140905
v 0.0406482518 -0.552652061 1.00146437
v 0.0557033159 -0.561219513 1.00033593
v 0.0597280823 -0.554864585 1.0009532
v 0.0650259629 -0.550257504 1.00095928
v 0.0752599388 -0.558025718 1.00091708
v 0.0799948946 -0.552623689 1.00119722
v 0.0945601314 -0.560263693 1.00040269
v 0.0978988633 -0.552952766 1.00134623
v 0.109757602 -0.556854963 1.00186443
v 0.115227751 -0.552392185 1.00180817
v 0.120561622 -0.547747016 1.00181568
v 0.133234501 -0.558496952 1.0007503
v 0.137297183 -0.552128136 1.00135565
v 0.148862243 -0.55545944 1.00208306
v 0.154275626 -0.550857902 1.00206697
v 0.168145254 -0.557128012 1.00177145
v 0.172543004 -0.557015896 1.00099504
v 0.178698018 -0.553334415 1.00065029
v 0.190391421 -0.556650281 1.00139427
v 0.195802644 -0.551973879 1.00139427
v 0.208506078 -0.556514859 1.00171435
v 0.211518183 -0.554555535 1.00157964
v 0.216413945 -0.549190044 1.00181699
v 0.231525019 -0.556697488 1.00110221
v 0.236967728 -0.551993906 1.00110221
v 0.250451773 -0.557324886 1.00115633
v 0.255909353 -0.55260843 1.00115633
v 0.270922661 -0.559763253 1.00057852
v 0.272006989 -0.555325925 1.00130343
v 0.276524961 -0.549406171 1.00172079
v 0.291565299 -0.556472421 1.0011766
v 0.318551362 -0.584084034 0.994304776
v 0.325735807 -0.581235468 0.997254312
v 0.333569974 -0.579277277 0.996267498
v 0.3402628 -0.575897515 0.995774448
v 0.352170229 -0.578802526 0.996719599
v 0.358325988 -0.574730098 0.99646461
v 0.366408348 -0.578704774 0.997880459
v 0.374972016 -0.577525914 0.996612847
v 0.362772554 -0.551312149 1.00046587
v 0.370162994 -0.554429114 1.0021652
v 0.373568386 -0.552794337 1.00189865
v 0.397351921 0.862129569 -0.0360028595
v 0.382369131 0.864308536 -0.0279517472
v 0.377981395 0.863929629 -0.0301987641
v 0.374514699 0.867349982 -0.0349052735
v 0.372240633 0.869981349 -0.0405820906
v 0.382160515 0.871692121 -0.0483518206
v 0.391358137 0.868923426 -0.0500276834
v 0.39768362 0.867475986 -0.04555545
v 0.399556667 0.865101874 -0.039516218
v 0.307627231 0.933518589 0.0862093568
v 0.425690889 0.848786116 -0.0111218849
v 0.416974962 0.847367465 -0.0119988127
v 0.407010406 0.850644231 -0.00984714553
v 0.221099228 0.966557086 0.131062388
v 0.220034823 0.967788756 0.128405273
v 0.212257579 0.966272652 0.127354801
v 0.201939002 0.96646291 0.128367856
v 0.210379884 0.957735538 0.116121866
v 0.377124488 0.851255476 -0.0243495088
v 0.390782654 0.849336982 -0.0275494549
v 0.388641238 0.854617596 -0.0237756502
v 0.398611963 0.85517031 -0.0239713248
v 0.412392527 0.852667928 -0.0234246906
v 0.414195716 0.855338991 -0.022839196
v 0.3193371 0.923847139 0.0641762242
v 0.305441231 0.936048031 0.0807524174
v 0.306534231 0.93478328 0.0834808871
v 0.216695189 0.69583708 0.389037132
v -0.0717152953 0.911878586 0.587033749
v -0.0696672425 0.911015451 0.57951206
v -0.0715743601 0.913222253 0.574751198
v -0.0659391657 0.909582376 0.564662099
v -0.071169354 0.910894513 0.56073457
v -0.0709292591 0.911072373 0.55749613
v -0.0688360631 0.910177708 0.54985708
v 0.298665881 0.621795952 0.278409302
v 0.297515601 0.627192795 0.277413547
v 0.300036371 0.633806467 0.275566608
v 0.315064728 0.630796432 0.264733523
v 0.30524224 0.642836094 0.269971222
v 0.309086412 0.648423612 0.267173499
v 0.312930554 0.654011071 0.264375806
v 0.291054457 0.674637735 0.281877458
v 0.119277358 0.807859182 0.413585693
v 0.120905802 0.80580008 0.419055104
v 0.123409569 0.803077638 0.423901081
v 0.120734245 0.807985663 0.434021264
v 0.21198605 0.734212101 0.374782473
v 0.212343052 0.733515263 0.377953678
v 0.212603733 0.724765241 0.381288648
v 0.211302772 0.721476674 0.383961529
v 0.210001811 0.718188107 0.38663438
v 0.212164328 0.707944632 0.388653904
v 0.212223023 0.703599095 0.390381962
v 0.0541135706 0.834581017 0.551260471
v 0.0607626922 0.821870208 0.54694885
v 0.224005759 0.696897209 0.429912865
v 0.225306317 0.700184762 0.427240819
v 0.226606876 0.703472376 0.424568772
v 0.229208007 0.710047483 0.41922465
v 0.230508566 0.713335037 0.416552603
v 0.124255843 0.802034378 0.488824338
v 0.119140081 0.80917114 0.497091174
v 0.120824538 0.807080328 0.502420366
v 0.0603505522 0.848517478 0.548177123
v 0.0569435544 0.843565464 0.550656676
v 0.0535365529 0.838613391 0.55313623
v -0.173976421 0.800479412 0.65342021
v -0.137398198 0.76104635 0.627889097
v -0.168227211 0.780604064 0.646528959
v -0.177728698 0.781869531 0.647206783
v -0.184966788 0.781167865 0.646308184
v -0.188901618 0.780972064 0.64760673
v 0.172818795 0.452577233 0.387874633
v 0.188164502 0.435195237 0.367990792
v 0.187893569 0.431659639 0.359158635
v 0.18919006 0.430805922 0.354599774
v 0.250835747 0.38102752 0.304694176
v 0.24852024 0.383706838 0.298913926
v 0.2492235 0.383705676 0.290939301
v 0.250214666 0.383450449 0.28273645
v 0.246340171 0.378495067 0.27430585
v 0.24812673 0.372683823 0.267335057
v 0.252600193 0.3735376 0.262171894
v 0.276354969 0.361194879 0.252289146
v 0.286127716 0.361652881 0.248939976
v 0.293332875 0.364077508 0.25128144
v 0.29854694 0.3685835 0.25128144
v -0.19211486 0.802136004 0.613271177
v -0.195317566 0.804404557 0.621696413
v -0.193424776 0.802214324 0.626421452
v -0.191206411 0.80338341 0.632415235
v -0.191605791 0.803197742 0.6387707
v -0.192016572 0.80302316 0.6451208
v -0.191982418 0.802460611 0.651142478
v -0.189536914 0.803685129 0.653908312
v -0.183956116 0.802175105 0.65446651
v -0.180907711 0.803147554 0.653793037
v -0.196673766 0.663757384 0.651039004
v -0.193966821 0.653204262 0.649180174
v -0.0681034103 0.530121982 0.551647604
v -0.0714272633 0.529339254 0.549066782
v -0.0801279619 0.529527307 0.548703671
v -0.0906966701 0.531530619 0.549707115
v -0.0934979245 0.530058563 0.550082505
v -0.0985711887 0.526807427 0.54713589
v -0.110270776 0.529972434 0.54901284
v -0.115847856 0.527228832 0.546448886
v -0.118122861 0.525262773 0.546448886
v -0.127213672 0.525957286 0.546469152
v -0.129340962 0.519479632 0.548006654
v -0.128983364 0.514925897 0.546070099
v -0.131472901 0.508781612 0.547873139
v -0.128168896 0.497217298 0.538737416
v -0.129164606 0.494294256 0.53109026
v -0.127060592 0.492370665 0.526172042
v -0.131424516 0.492784828 0.521003008
v 0.2728706 0.0955304503 0.212250531
v 0.27681303 0.0966891348 0.211341456
v 0.274494171 0.109309942 0.213177621
v 0.266574025 0.122370102 0.21717906
v 0.216175631 0.18187505 0.259028971
v 0.213786095 0.193992794 0.26478827
v 0.222934932 0.194593623 0.265789568
v 0.234923944 0.192459628 0.264701247
v 0.245103538 0.192116067 0.264983743
v 0.247762933 0.194414318 0.264983743
v 0.246916711 0.205167636 0.265648931
v 0.243581697 0.218261778 0.268149972
v 0.24622789 0.22054863 0.268149972
v 0.24528338 0.231297389 0.268883377
v 0.123939551 0.355495214 0.365653068
v 0.125743404 0.358083993 0.369818121
v 0.128775537 0.359265983 0.376722485
v 0.124102481 0.363192052 0.3873851
v 0.12159504 0.369815648 0.394623309
v 0.139333546 0.352624804 0.389089465
v 0.141545579 0.350054562 0.394770116
v 0.142025307 0.353632838 0.403468907
v 0.142658561 0.357298851 0.408413708
v -0.19933863 0.670148551 0.654448926
v 0.0618430041 -0.162475988 0.320316523
v -0.0808945596 -0.00220348267 0.430496603
v -0.0930720866 0.00181958708 0.432189822
v -0.0993358716 -0.00126188563 0.429310203
v 0.122801267 -0.270390928 0.251772135
v 0.121732876 -0.269234747 0.24425219
v 0.057764031 -0.180496529 0.290696383
v 0.0491391905 -0.164497495 0.295589328
v 0.0452937968 -0.148617685 0.302907765
v 0.043169912 -0.134930015 0.304823816
v 0.0610862784 -0.150663704 0.296926677
v 0.0633810014 -0.15331316 0.303209215
v 0.0632852167 -0.158723921 0.309227884
v 0.0633382797 -0.158696234 0.31724444
v 0.205978557 -0.0289113168 0.406737298
v 0.175313056 -0.00645480864 0.428119242
v 0.161717862 -0.00202840101 0.430036217
v 0.152666658 -0.0024700691 0.428822488
v 0.146226317 -0.00064407679 0.431472689
v 0.136441097 -0.000241366099 0.43080464
v 0.126452893 0.000412126799 0.430300772
v 0.123813137 -0.0018691523 0.430300772
v 0.117341876 -0.00505269598 0.427325755
v 0.110870615 -0.00823623966 0.424350768
v 0.0889631882 0.00566908019 0.436232775
v 0.0916325599 -0.00243117916 0.428636998
v 0.0952883363 -0.0168846063 0.418400764
v 0.188223824 -0.115183592 0.345469087
v 0.186277166 -0.112960868 0.3428891
v 0.184977397 -0.105981141 0.337843835
v 0.188304484 -0.0987319723 0.331431627
v 0.185671479 -0.0957535058 0.329360038
v 0.185838625 -0.0904126987 0.323255628
v 0.187681943 -0.0869884416 0.319917887
v 0.18812719 -0.0819538608 0.313608587
v 0.188214079 -0.0765245482 0.307562977
v 0.186935529 -0.0750474855 0.304504782
v 0.187201589 -0.0698156282 0.298327416
v 0.185584933 -0.062522985 0.293552428
v 0.187087104 -0.0587257743 0.29046613
v 0.184392661 -0.045187626 0.300536186
v -0.0480643399 0.212374553 0.482125461
v -0.0475054793 0.211688504 0.485307127
v -0.0531460829 0.217655927 0.496621162
v -0.0554562286 0.220007434 0.505452514
v -0.0542471968 0.218537346 0.511696577
v -0.0506456867 0.21923779 0.517972291
v -0.0337758064 0.210358143 0.516468108
v 0.190934643 -0.0323723592 0.359059185
v 0.186331913 -0.0223547276 0.372098029
v 0.188063696 -0.0190922394 0.376679033
v 0.190557107 -0.021972267 0.382698953
v 0.187582552 -0.013766936 0.394453347
v 0.190624326 -0.0172349606 0.400064558
v 0.200083867 -0.0275946446 0.40121004
v 0.20398882 -0.0266750827 0.404242069
v 0.266496837 -0.174136013 0.596101046
v 0.256172955 -0.17344895 0.602833748
v 0.249815136 -0.171614826 0.597471118
v 0.245341003 -0.171870649 0.590972781
v 0.246693641 -0.173320144 0.586358428
v 0.244250134 -0.170492679 0.580258608
v 0.239100426 -0.170003921 0.574158847
v 0.247605085 -0.18475835 0.559597313
v 0.256527841 -0.194669053 0.550224245
v 0.257132888 -0.195243731 0.542147994
v 0.251083016 -0.193805322 0.536512434
v 0.255136818 -0.198243365 0.526231468
v 0.249919474 -0.197748184 0.520051539
v 0.238206372 -0.18996042 0.518020988
v 0.243464321 -0.195820719 0.510781705
v 0.232670933 -0.18905355 0.508193672
v 0.236211643 -0.192956135 0.498136848
v 0.23099336 -0.19246088 0.491955847
v 0.230982348 -0.19241108 0.488064438
v 0.229189172 -0.195785806 0.479629725
v 0.25216341 -0.221656039 0.456642807
v 0.24688153 -0.221154749 0.450386465
v 0.24553144 -0.219562575 0.443359137
v 0.241309285 -0.220294669 0.440357655
v 0.24180609 -0.220798329 0.432079077
v 0.236920789 -0.220756203 0.425538808
v 0.248890862 -0.234295726 0.409431219
v 0.240754619 -0.230612785 0.409059316
v 0.247910082 -0.238705918 0.396135896
v 0.247543782 -0.24386324 0.386394322
v 0.243467107 -0.244823232 0.383228958
v 0.188161492 -0.181609437 0.41356197
v 0.186626405 -0.174307078 0.408621937
v 0.185386211 -0.172871992 0.405525982
v 0.185652897 -0.167627826 0.399334103
v 0.0551172607 -0.0138879651 0.488957047
v 0.057041768 -0.00569725363 0.491249204
v 0.0858240202 -0.0278632808 0.482310683
v 0.0943387449 -0.0270577632 0.483809561
v 0.096959345 -0.02479304 0.483809561
v 0.0931993946 -0.0102234008 0.490023136
v 0.100172594 -0.00771227572 0.492571145
v 0.105394989 -0.00319908047 0.492571145
v 0.1119316 -0.00534018409 0.493637234
v 0.127157182 -0.0118876062 0.490586221
v 0.150532007 -0.0272898041 0.482071489
v 0.137423173 -0.00777819939 0.492725432
v 0.152820513 -0.0143752461 0.48965019
v 0.149109647 -7.44793288e-05 0.495684147
v 0.164550781 -0.00664265733 0.492620021
v 0.175854832 -0.00868054945 0.492364645
v 0.178495273 -0.00639868854 0.492364645
v 0.192589849 -0.0113731232 0.490294218
v 0.21434094 -0.0295995325 0.481464207
v 0.220881701 -0.0263817962 0.484471142
v 0.217366233 -0.0123863537 0.49027285
v 0.261973053 -0.049403768 0.468415886
v 0.260492235 -0.0531469509 0.471458256
v 0.26098761 -0.0487321131 0.480550379
v 0.269046634 -0.0574900396 0.482995838
v 0.268199533 -0.0619060025 0.48563087
v 0.267937303 -0.0670627356 0.491719514
v 0.268382072 -0.0729708299 0.497356147
v 0.267353296 -0.0772002488 0.500111818
v 0.268629223 -0.0840007067 0.505224705
v 0.268366694 -0.0891629755 0.511319876
v 0.269587517 -0.0905756429 0.514367521
v 0.269325018 -0.0957379118 0.520462692
v 0.267841667 -0.0994875133 0.523510277
v 0.267579138 -0.104649782 0.529605448
v 0.26731661 -0.109812051 0.535700619
v 0.26737076 -0.115222052 0.537789583
v 0.267323077 -0.120620139 0.543754935
v 0.267060369 -0.125786006 0.549854398
v 0.268282056 -0.12719965 0.552904069
v 0.268019348 -0.132365525 0.559003532
v 0.273867965 -0.149487466 0.559696019
v 0.265811533 -0.145997465 0.562974632
v 0.25875023 -0.143650413 0.569446087
v 0.267549455 -0.1534376 0.571662068
v 0.270158857 -0.161764041 0.57602638
v 0.270755351 -0.167819172 0.577819586
v 0.27049166 -0.173003972 0.58394134
v 0.267646551 -0.175339594 0.591617286
v 0.124177463 -0.439001858 0.568451941
v 0.122061335 -0.448250055 0.566210628
v 0.118328057 -0.449604511 0.562866569
v 0.106675193 -0.446726441 0.56288451
v 0.102707021 -0.447591126 0.563663185
v -0.130976751 -0.155511737 0.71013391
v -0.129494205 -0.152166694 0.707234561
v -0.133482367 -0.152742475 0.701049447
v -0.131420165 -0.161219418 0.690811813
v -0.132721499 -0.159857988 0.684476554
v -0.133660167 -0.164278865 0.679799378
v -0.134919077 -0.173798189 0.67361182
v -0.138552621 -0.180238679 0.669009089
v -0.145457983 -0.176652029 0.671991169
v -0.151656091 -0.179701194 0.66914171
v -0.164258868 -0.17421934 0.670704424
v -0.187202677 -0.149339661 0.681198895
v -0.189786747 -0.151788533 0.674061775
v -0.189722449 -0.152282387 0.666803718
v -0.187944785 -0.155069679 0.658325136
v -0.195024997 -0.151313648 0.657926202
v -0.193848595 -0.153306827 0.649847031
v -0.198620319 -0.152853951 0.644194901
v -0.200884476 -0.150234014 0.638542831
v -0.196224302 -0.156922624 0.627901852
v -0.206788272 -0.148471177 0.630064726
v -0.198821917 -0.15963535 0.616977751
v -0.203617603 -0.159180209 0.611297309
v -0.195994496 -0.169915274 0.598343134
v -0.198281035 -0.167269424 0.592635155
v -0.203099966 -0.166812062 0.586927176
v -0.197968006 -0.174210176 0.575680673
v -0.203038633 -0.173433378 0.570127845
v -0.203951865 -0.172423422 0.567087591
v -0.188144565 -0.194336548 0.547662258
v -0.131541193 -0.265783787 0.499090403
v -0.131285459 -0.260754943 0.493152767
v -0.132998362 -0.258670717 0.490583926
v -0.134374112 -0.251441151 0.485898376
v -0.134118631 -0.246417403 0.479966789
v -0.132274806 -0.243306622 0.476692677
v -0.132019281 -0.23828195 0.470759928
v -0.130575463 -0.234632269 0.467793584
v -0.130319938 -0.229607597 0.461860836
v -0.130960003 -0.223387942 0.456625938
v -0.132822797 -0.221112803 0.454188049
v -0.132418498 -0.216290236 0.448142976
v -0.13244386 -0.210895762 0.442434996
v -0.131001219 -0.20724903 0.439471006
v -0.130962938 -0.201940984 0.433714509
v -0.131085336 -0.196421698 0.428086579
v -0.13341482 -0.193538129 0.426031202
v -0.133159712 -0.188521609 0.42010811
v -0.130276784 -0.181234136 0.414185017
v -0.131582499 -0.179704502 0.411319077
v 0.00633606454 -0.349151939 0.29702422
v 0.0141016105 -0.353228271 0.293040186
v 0.0230448451 -0.35255006 0.29454115
v 0.0283882897 -0.347012132 0.303075701
v 0.0311887059 -0.344592035 0.303075701
v 0.0389328264 -0.3425107 0.30138424
v 0.094022654 -0.400941432 0.266670048
v 0.100699469 -0.397211254 0.26592347
v 0.114212036 -0.408153236 0.261844546
v 0.117640063 -0.400239974 0.263652384
v 0.114263646 -0.383752316 0.270738482
v 0.11867062 -0.377153844 0.271757275
v 0.1144282 -0.35972783 0.279459327
v 0.108320728 -0.340075135 0.288562983
v -0.14642556 -0.0114295138 0.48896116
v -0.138843566 -0.0101270461 0.490727037
v -0.129680291 -0.0107602058 0.491297513
v -0.127154574 -0.00857747532 0.491297513
v -0.113814645 -0.0142920241 0.488726407
v -0.0967288315 -0.0245074257 0.483380139
v -0.102533698 -0.00685563311 0.491582453
v -0.0988553837 -0.00598944351 0.494438529
v -0.0937869623 -0.00160930865 0.494438529
v -0.0799248442 -0.00775845442 0.491597772
v -0.0687574446 -0.0106035406 0.490807384
v -0.0662084892 -0.00840072986 0.490807384
v 0.124601096 -0.230834767 0.359663337
v 0.124332592 -0.236114651 0.365897387
v 0.12528576 -0.242910132 0.367204309
v 0.125089884 -0.248283044 0.373391628
v 0.124821089 -0.25356859 0.379632354
v 0.126071066 -0.255014986 0.382752717
v 0.125802279 -0.260300517 0.388993442
v 0.126274824 -0.266544908 0.390675008
v 0.126005799 -0.27183491 0.396920979
v 0.125736788 -0.277124882 0.40316695
v 0.125467762 -0.282414854 0.40941292
v 0.126620308 -0.283742815 0.41260615
v 0.126449779 -0.289152443 0.418781877
v 0.126559645 -0.294982821 0.420747966
v 0.127297506 -0.301507145 0.426285982
v 0.127028197 -0.306802988 0.432538897
v 0.125506461 -0.310649633 0.435665339
v 0.125237152 -0.315945476 0.441918254
v 0.124967828 -0.321241349 0.448171169
v 0.126220241 -0.322690576 0.451297641
v 0.126050383 -0.328109145 0.457481474
v 0.126926884 -0.33482182 0.462941825
v 0.126008689 -0.339419067 0.465652317
v 0.125739172 -0.344719052 0.471910119
v 0.126261994 -0.351112574 0.473632336
v 0.126480937 -0.357026011 0.479560733
v 0.126211137 -0.362331659 0.485825211
v 0.127259418 -0.363525867 0.489098012
v 0.127158597 -0.369042367 0.495247334
v 0.126719832 -0.374136239 0.501625836
v 0.125401691 -0.378248602 0.504618645
v 0.125131875 -0.38355425 0.510883093
v 0.12486206 -0.388859898 0.517147601
v 0.123337515 -0.392713666 0.520279825
v 0.123398945 -0.398438305 0.526323617
v 0.126304895 -0.407769561 0.530481398
v 0.126923382 -0.40841496 0.53404063
v 0.127291277 -0.414537102 0.539892018
v 0.125764474 -0.418396562 0.543028831
v 0.125494257 -0.423710048 0.549302578
v 0.125224039 -0.429023564 0.555576324
v 0.125793517 -0.429600298 0.559161007
v 0.125451118 -0.434819818 0.565479875
v 0.199989229 -0.418151617 0.694210649
v 0.300322562 -0.553871751 0.637014329
v 0.285058796 -0.547019482 0.642510593
v 0.275521666 -0.547338247 0.640741467
v 0.264831901 -0.546188831 0.639659584
v 0.187538013 -0.449492753 0.680914104
v 0.187807068 -0.444202036 0.674667239
v 0.188076124 -0.438911319 0.668420434
v 0.185348392 -0.435620725 0.666170776
v 0.184552193 -0.429006398 0.660560668
v 0.184576765 -0.423417568 0.654466033
v 0.186831176 -0.420492381 0.650906384
v 0.185933799 -0.413761467 0.645364702
v 0.187452048 -0.409923643 0.642245412
v 0.187632471 -0.404530972 0.636060119
v 0.206284225 -0.421516418 0.634271324
v 0.2074112 -0.422717363 0.641370535
v 0.208134159 -0.429252088 0.647049665
v 0.208396822 -0.429479837 0.650774121
v 0.207078516 -0.427660972 0.659300029
v 0.20728083 -0.427718699 0.66691047
v 0.205869049 -0.425785631 0.675447464
v 0.200474635 -0.418940544 0.686269462
v 0.200163424 -0.418461502 0.690281987
v 0.205963001 -0.385024279 0.713220656
v 0.330867201 -0.549029946 0.639048815
v 0.227377519 -0.428473413 0.692507029
v 0.225024626 -0.425760895 0.686169446
v 0.224539325 -0.425334513 0.67875278
v 0.222033128 -0.422434479 0.672496498
v 0.219526947 -0.419534475 0.666240156
v 0.21702075 -0.41663447 0.659983873
v 0.217099801 -0.416899741 0.652202725
v 0.218397006 -0.418656886 0.643683076
v 0.220033675 -0.42083025 0.634937048
v 0.226776525 -0.423419237 0.624779761
v 0.224252999 -0.420499146 0.618480146
v 0.226012826 -0.422814816 0.609589517
v 0.217276543 -0.406479865 0.608750403
v 0.220066071 -0.404069155 0.608750403
v 0.206319973 -0.381416589 0.626525044
v 0.203913331 -0.378346801 0.635706306
v 0.204996318 -0.379518062 0.64277488
v 0.205123335 -0.379527897 0.65040189
v 0.200235888 -0.373445213 0.660974085
v 0.202718884 -0.376318395 0.667172432
v 0.198570088 -0.3711344 0.677244067
v 0.197114393 -0.369222969 0.685709834
v 0.195430785 -0.367035121 0.694282889
v 0.194743589 -0.366058141 0.702257454
v 0.195847929 -0.367257714 0.709188461
v 0.204726607 -0.383593619 0.710134208
v 0.141366944 -0.267818689 0.764051735
v 0.363474756 -0.546420515 0.640042186
v 0.216066942 -0.374530137 0.713701308
v 0.213517681 -0.371576369 0.707574487
v 0.211540997 -0.369314164 0.701121092
v 0.222274736 -0.376706332 0.688943923
v 0.223748878 -0.378543586 0.684282839
v 0.226108894 -0.381509274 0.675275564
v 0.225815386 -0.38127619 0.667781174
v 0.224357873 -0.379639924 0.660953522
v 0.223261192 -0.378438801 0.653907359
v 0.22087945 -0.375688314 0.647611678
v 0.218466491 -0.372900188 0.641333818
v 0.218031421 -0.372497201 0.633874595
v 0.244418949 -0.398654401 0.611982346
v 0.251380265 -0.395466715 0.611162424
v 0.250378877 -0.388604343 0.605623007
v 0.249116883 -0.387144059 0.602472663
v 0.250999153 -0.383731902 0.595198035
v 0.251180649 -0.384043127 0.587248027
v 0.249605894 -0.388030142 0.57864064
v 0.246345982 -0.389960706 0.574982524
v 0.238163441 -0.391713172 0.576564908
v 0.222849965 -0.38488847 0.578626454
v 0.221682861 -0.389338553 0.573687732
v 0.185539976 -0.357105821 0.588798165
v 0.185808212 -0.351831466 0.582570672
v 0.187323749 -0.348000467 0.579456925
v 0.18759197 -0.342726141 0.573229432
v 0.187860191 -0.337451786 0.567001939
v 0.186612874 -0.336008459 0.563888133
v 0.185002252 -0.32847169 0.558855534
v 0.186516628 -0.324643642 0.555744171
v 0.178332403 -0.3092345 0.554925263
v 0.186539531 -0.313488752 0.543628097
v 0.188567042 -0.310275048 0.540187418
v 0.188502088 -0.30460766 0.534179568
v 0.188770056 -0.299338102 0.527957737
v 0.18685618 -0.297101289 0.525280297
v 0.187047303 -0.291741967 0.519110203
v 0.1889541 -0.282763034 0.513622582
v 0.187029198 -0.274818093 0.520591378
v 0.187599212 -0.269814819 0.52981323
v 0.188839048 -0.271249473 0.53290832
v 0.180943638 -0.256308615 0.547518313
v 0.18253468 -0.258132786 0.554234087
v 0.1877307 -0.258625925 0.560388684
v 0.188963428 -0.260052383 0.563466012
v 0.1914289 -0.26290527 0.569620669
v 0.184990957 -0.24976553 0.583058357
v 0.187444687 -0.252604842 0.589183688
v 0.183895543 -0.242896929 0.600707293
v 0.18904835 -0.243385971 0.606810749
v 0.190270826 -0.244800553 0.609862506
v 0.192715794 -0.247629717 0.615965962
v 0.198614761 -0.254490465 0.619971335
v 0.152283102 -0.200386897 0.655562937
v 0.137482077 -0.188482389 0.662909746
v 0.128319621 -0.188504487 0.665258765
v 0.126481503 -0.191706166 0.668470085
v 0.125425681 -0.201198354 0.673308671
v 0.125169247 -0.206240967 0.679262578
v 0.126288384 -0.207534075 0.682283521
v 0.124484077 -0.216157869 0.687583387
v 0.125677124 -0.217538387 0.690561652
v 0.124054909 -0.21553959 0.69889605
v 0.126436964 -0.218295962 0.704842508
v 0.12800841 -0.220089793 0.711264789
v 0.128477752 -0.21517472 0.719862878
v 0.140277848 -0.223682955 0.721859694
v 0.140244246 -0.229019433 0.72401613
v 0.138945445 -0.232824028 0.730570316
v 0.141260624 -0.24096176 0.731380343
v 0.140112728 -0.244947642 0.737851262
v 0.14057079 -0.250847161 0.743401587
v 0.143241346 -0.259443521 0.744034111
v 0.13316004 -0.258224279 0.75042367
v 0.130723804 -0.255194515 0.759109318
v 0.134550884 -0.254293293 0.762080908
v 0.14122653 -0.26224488 0.761966467
g path_000000
l 39 38 37 36 35 34 33 32 31 30 29 28 27 26 25 24 23 22 21 20 19 18 17 16 15 14 13 12 11 10 9 8 7 6 5 4 3 2 1 1309 1308 1307
g path_000001
l 40 41 42 43 44 45 46 47 48 49
g path_000002
l 50 51 52 53 54 55 56 57 58 59 60 61 62 63 64 65 66 67 68 69
g path_000003
l 70 71 72 73 74 75 76 77 78 79 80 81 82 83 84 85 86 87 88 89 90 91 92
g path_000004
l 93 94 95 96 97 98 99 100 101 102 103 104 105 106 107 108 109 110 111 112 113 114 115 116 117 118 119 120 121 122 123 124 125 126 127 128 129 130 131 132 133 134 135 136 137 138 139 140 141 142 143 144 145 146
g path_000005
l 147 148
g path_000006
l 149 150 151 152 153
g path_000007
l 154 155 156 157 158 159 160 161 162
g path_000008
l 163 164 165 166 167 168 169 170 171 172 173 174 175 176 177 178 179 180 181
g path_000009
l 182 183 184 185 186 187 188
g path_000010
l 189 190 191
g path_000011
l 192 193 194 195 196 197 198 199 200 201 202
g path_000012
l 203 204 205 206 207 208 209 210 211 212
g path_000013
l 213 214 215 216 217 218 219 220 221 222
g path_000014
l 223 224 225 226 227 228 229 230 231 232 233 234 235 236 237 238
g path_000015
l 240 241 242 243 244 245 246 247 248 249 250 251 252 253 254 255 256 257 258 259 260
g path_000016
l 261 262 263 264 265
g path_000017
l 266 267 268 269 270 271 272 273 274 275
g path_000018
l 276 277 278 279 280 281 282 283 284 285 286
g path_000019
l 287 288 289 290 291 292 293 294
g path_000020
l 296 297 298 299
g path_000021
l 300 301 302 303 304 305 306 307 308 309 310
g path_000022
l 311 312 313 314 315 316 317 318 319 320
g path_000023
l 321 322 323 324 325 326 327 328 329 330 331 332 333 334 335
g path_000024
l 337 338 339 340 341
g path_000025
l 342 343 344 345 346 347 348 349 350 351 352 353 354 355 356 357 358 359 360 361 362 363
g path_000026
l 364 365 366 367
g path_000027
l 368 369 370 371 372 373 374 375 376 377 378 379 380
g path_000028
l 381 382 383 384 385 386 387 388 389 390 391 392 393 394 395 396 397 398 399 400 401 402 403 404 405 406 407 408 409 410 411 412 413 414 415 416 417 418 419 420 421 422 423 424 425 426 427 428 429 430 431 432 433 434 435 436 437 438 439 440 441 442 443 444 445 446
g path_000029
l 447 448 449 450 451 452 453
g path_000030
l 454 455 456 457 458 459 460 461 462 463
g path_000031
l 464 465 466 467 468 469 470
g path_000032
l 471 472 473 474
g path_000033
l 475 476 477 478 479 480 481 482 483 484
g path_000034
l 485 486 487 488 489 490 491 492 493
g path_000035
l 494 495 496 497 498
g path_000036
l 499 500 501 502 503 504 505
g path_000037
l 506 507 508 509 510 511 512 513 514 515
g path_000038
l 516 517 518 519 520 521 522
g path_000039
l 523 524 525 526 527 528 529 530 531 532 533
g path_000040
l 534 535 536 537 538 539 540 541 542 543 544 545 546 547 548 549 550
g path_000041
l 551 552 553 554 555 556 557 558 559 560 561 562 563
g path_000042
l 564 565 566 567 568 569 570 571 572 573 574
g path_000043
l 575 576 577 578 579 580 581 582 583 584 585 586 587 588 589 590 591 592 593
g path_000044
l 594 595 596 597 598 599 600 601 602 603 604 605 606 607 608 609 610 611 612 613 614 615 616 617 618 619 620 621 622 623 624 625 626 627 628 629
g path_000045
l 630 631 632 633 634 635 636 637 638 639 640 641 642 643 644 645 646
g path_000046
l 647 648 649 650 651 652 653 654 655 656
g path_000047
l 657 658 659 660 661 662 663 664 665 666
g path_000048
l 667 668 669 670 671 672 673 674 675 676 677 678 679
g path_000049
l 680 681 682 683 684 685 686 687 688 689 690 691 692 693
g path_000050
l 694 695 696 697 698 699 700 701 702 703 704
g path_000051
l 705 706 707 708
g path_000052
l 709 710 711 712 713 714 715 716 717 718
g path_000053
l 719 720
g path_000054
l 721 722 723 724 725 726 727 728
g path_000055
l 729 730 731 732
g path_000056
l 733 734 735 736 737 738 739 740 741
g path_000057
l 742 743 744 745 746 747 748 749
g path_000058
l 750 751 752 753 754 755 756 757
g path_000059
l 759 760 761 762 763 764 765
g path_000060
l 766 767 768 769 770 771 772 773 774 775 776 777 778 779
g path_000061
l 780 781 782 783 784 785 786 787
g path_000062
l 788 789 790 791
g path_000063
l 792 793 794 795 796 797 798
g path_000064
l 799 800
g path_000065
l 801 802 803 804 805 806 807 808 809 810
g path_000066
l 811 812 813 814 815 816 817 818 819 820 821 822 823 824 825 826 827 828 829 830 831 832 833 834 835 836 837 838 839 840 841 842 843 844 845
g path_000067
l 846 847 848 849 850 851 852 853 854 855 856 857 858
g path_000068
l 859 860 861 862
g path_000069
l 863 864 865 866 867 868 869 870 871 872 873 874 875 876 877 878 879
g path_000070
l 880 881 882 883
g path_000071
l 884 885 886 887 888 889 890 891 892 893 894 895 896 897 898 899 900 901 902 903 904 905 906 907 908 909 910 911 912 913 914 915 916 917 918 919 920
g path_000072
l 921 922 923 924 925 926
g path_000073
l 927 928 929 930 931 932 933 934 935 936 937 938 939 940 941
g path_000074
l 942 943 944 945 946 947 948 949 950 951 952 953 954 955 956 957 958 959 960
g path_000075
l 961 962 963 964 965 966 967 968 969 970 971 972 973 974 975 976 977 978 979 980 981 982 983 984 985 986 987 988 989 990 991 992 993
g path_000076
l 994 995 996 997 998 999 1000 1001 1002 1003 1004 1005 1006 1007 1008 1009 1010 1011 1012
g path_000077
l 1013 1014 1015 1016 1017 1018 1019 1020 1021 1022 1023 1024 1025 1026 1027 1028 1029 1030 1031 1032 1033 1034 1035 1036 1037 1038 1039
g path_000078
l 1040 1041 1042 1043 1044 1045 1046 1047 1048 1049
g path_000079
l 1050 1051 1052
g path_000080
l 1053 1054 1055 1056 1057 1058 1059 1060 1061
g path_000081
l 1062 1063
g path_000082
l 1064 1065 1066 1067
g path_000083
l 1068 1069 1070 1071 1072 1073 1074 1075 1076 1077 1078 1079 1080 1081 1082 1083 1084
g path_000084
l 1085 1086 1087 1088 1089 1090 1091 1092
g path_000085
l 1093 1094
g path_000086
l 1095 1096 1097 1098 1099
g path_000087
l 1100 1101 1102
g path_000088
l 1103 1104 1105 1106 1107 1108
g path_000089
l 1109 1110 1111 1112
g path_000090
l 1113 1114 1115 1116
g path_000091
l 1117 1118 1119 1120
g path_000092
l 1121 1122 1123 1124 1125 1126 1127 1128
g path_000093
l 1130 1131 1132 1133 1134 1135 1136 1137 1138 1139 1140 1141
g path_000094
l 1142 1143 1144 1145 1146 1147 1148
g path_000095
l 1149 1150 1151 1152 1153 1154 1155 1156 1157 1158 1159 1160 1161 1162 1163 1164 1165 1166 1167 1168 1169
g path_000096
l 1170 1171 1172 1173 1174
g path_000097
l 1175 1176 1177 1178 1179
g path_000098
l 1180 1181 1182 1183 1184 1185
g path_000099
l 1186 1187 1188 1189 1190 1191 1192 1193 1194 1195 1196 1197 1198 1199 1200 1201 1202 1203 1204 1205 1206 1207 1208 1209 1210 1211 1212 1213 1214 1215 1216 1217
g path_000100
l 1218 1219 1220 1221 1222 1223 1224 1225 1226 1227 1228 1229 1230 1231 1232 1233 1234 1235 1236 1237 1238 1239 1240 1241 1242 1243 1244 1245 1246 1247 1248 1249 1250 1251 1252 1253 1254 1255 1256 1257 1258 1259 1260 1261 1262 1263 1264 1265 1266 1267 1268 1269 1270 1271 1272 1273 1274 1275 1276 1277 1278 1279 1280 1281 1282 1283 1284 1285 1286 1287 1288 1289 1290 1291 1292 1293 1294 1295 1296 1297 1298
g path_000101
l 1299 1300 1301 1302 1303 1304 1305 1306
g path_000102
l 1319 1336 1335
g path_000103
l 1320 1321 1322
g path_000104
l 1323 1324 1325 1326 1327
g path_000105
l 1328 1329 1330 1331 1332 1333
g path_000106
l 1337 1363 1362 1361 1360 1359 1358 1357
g path_000107
l 1338 1339 1340 1341 1342 1343 1344
g path_000108
l 1345 1346 1347 1348 1349 1350 1351
g path_000109
l 1353 1354 1355 1356
g path_000110
l 1365 1364 1376 1375 1374
g path_000111
l 1366 1367 1368 1369 1370
g path_000112
l 1371 1372 1373
g path_000113
l 1377 1407 1406 1405 1404 1403 1402 1401 1400 1399 1398
g path_000114
l 1379 1380 1381 1382
g path_000115
l 1384 1385 1386
g path_000116
l 1387 1388 1389 1390 1391 1392 1393
g path_000117
l 1394 1395 1396 1397
g path_000118
l 1409 1408 1450
g path_000119
l 1410 1411 1412 1413 1414 1415 1416 1417 1418 1419 1420 1421 1422 1423 1424 1425 1426
g path_000120
l 1427 1428 1429 1430
g path_000121
l 1431 1432 1433 1434 1435 1436 1437 1438 1439 1440
g path_000122
l 1441 1442 1443 1444 1445
g path_000123
l 1446 1447 1448 1449
g path_000124
l 1451 1464 1463 1462 1461
g path_000125
l 1452 1453 1454
g path_000126
l 1455 1456
g path_000127
l 1457 1458 1459 1460
g path_000128
l 1465 1506 1505 1504 1503 1502 1501 1500 1499
g path_000129
l 1466 1467 1468 1469 1470 1471 1472 1473 1474
g path_000130
l 1475 1476 1477
g path_000131
l 1478 1479 1480 1481 1482 1483 1484 1485 1486 1487 1488 1489 1490 1491
g path_000132
l 1492 1493 1494 1495 1496 1497 1498
g path_000133
l 1513 1512 1511 1510 1509 1508 1507 1590 1589 1588 1587 1586 1585 1584 1583 1582 1581 1580 1579 1578 1577 1576 1575 1574 1573 1572 1571 1570 1569 1568 1567 1566 1565 1564 1563
g path_000134
l 1514 1515 1516 1517 1518 1519 1520 1521 1522 1523 1524 1525 1526
g path_000135
l 1527 1528 1529 1530 1531 1532
g path_000136
l 1533 1534 1535 1536 1537
g path_000137
l 1538 1539 1540 1541
g path_000138
l 1542 1543
g path_000139
l 1544 1545 1546 1547 1548 1549 1550 1551
g path_000140
l 1553 1554 1555 1556 1557 1558 1559
g path_000141
l 1560 1561 1562
g path_000142
l 1595 1594 1593 1592 1591 1714 1713 1712 1711 1710 1709 1708 1707 1706 1705 1704 1703 1702 1701 1700 1699 1698 1697 1696 1695 1694 1693 1692 1691 1690 1689 1688 1687 1686 1685 1684 1683 1682 1681 1680 1679 1678 1677 1676 1675 1674 1673 1672
g path_000143
l 1596 1597 1598 1599 1600 1601 1602 1603 1604 1605 1606
g path_000144
l 1607 1608 1609 1610 1611 1612 1613 1614 1615 1616 1617 1618 1619 1620 1621 1622 1623 1624
g path_000145
l 1626 1627 1628 1629 1630 1631 1632 1633 1634 1635 1636 1637 1638 1639 1640 1641 1642 1643 1644 1645
g path_000146
l 1646 1647 1648 1649 1650 1651
g path_000147
l 1652 1653 1654 1655 1656 1657 1658 1659
g path_000148
l 1660 1661 1662 1663 1664
g path_000149
l 1666 1667 1668 1669 1670 1671
g path_000150
l 1715 1738 1737 1736 1735 1734 1733 1732 1731 1730
g path_000151
l 1716 1717 1718 1719
g path_000152
l 1720 1721 1722 1723 1724 1725 1726 1727 1728 1729
g path_000153
l 1739 1766 1765 1764 1763 1762 1761 1760 1759 1758 1757 1756 1755
g path_000154
l 1741 1742 1743 1744 1745 1746 1747 1748 1749 1750 1751 1752 1753 1754
g path_000155
l 1767 1846 1845 1844 1843 1842 1841 1840 1839 1838 1837 1836 1835 1834 1833 1832 1831 1830 1829 1828 1827 1826 1825 1824 1823
g path_000156
l 1769 1770 1771 1772 1773 1774 1775 1776 1777 1778 1779 1780
g path_000157
l 1781 1782 1783 1784 1785 1786 1787 1788 1789 1790 1791
g path_000158
l 1792 1793 1794 1795 1796 1797 1798 1799 1800 1801 1802 1803 1804 1805 1806 1807 1808 1809 1810
g path_000159
l 1811 1812 1813 1814 1815 1816 1817 1818 1819 1820 1821 1822
g path_000160
l 1310 1311 1312 1313 1314 1315 1316 1317 1318 1310
