# Fixed world centers; Z up; paths immutable
v 0.542727709 -0.0877839252 0.336170137
v 0.547396362 -0.0817470253 0.334237456
v 0.550203085 -0.0735596567 0.336253971
v 0.552655458 -0.070230566 0.332566947
v 0.557768703 -0.0647042915 0.329692364
v 0.561385751 -0.0574715398 0.329978794
v 0.562855065 -0.0530102625 0.328375459
v 0.559604347 -0.0422929749 0.331810951
v 0.559571922 -0.0352152102 0.328462929
v 0.557850003 -0.032338541 0.327186912
v 0.555677533 -0.0228725206 0.328371555
v 0.554028392 -0.0140081663 0.328456312
v 0.551175773 -0.0098794885 0.329595447
v 0.549308479 -0.000795965956 0.330159307
v 0.549276233 0.00624868926 0.32682693
v 0.550113976 0.0113608008 0.32655701
v 0.550367534 0.0231191628 0.329034775
v 0.547407031 0.0273321383 0.330431163
v 0.547279358 0.0394461192 0.333714515
v 0.548362195 0.0442492999 0.33291474
v 0.547643006 0.0519922599 0.331062406
v 0.545107961 0.0616682991 0.333079964
v 0.540371895 0.0726442933 0.344664067
v 0.538223863 0.0808273926 0.350729436
v 0.533569992 0.0926519334 0.357288033
v 0.531421125 0.100772627 0.363351405
v 0.535139382 0.108561605 0.358408213
v 0.533526063 0.116071954 0.363319635
v 0.536535919 0.123529598 0.364679605
v 0.534735084 0.126442313 0.3637034
v 0.535671353 0.137065575 0.364659309
v 0.536576211 0.141919971 0.364208072
v 0.53836602 0.151636109 0.36334452
v 0.536046207 0.155065149 0.363481969
v 0.537916839 0.164675593 0.36244455
v 0.534225285 0.169473156 0.365501642
v 0.53713268 0.178017303 0.362259775
v 0.537412405 0.184562117 0.35835728
v 0.538810968 0.188889831 0.356853694
v 0.532717645 0.201704368 0.366491854
v 0.536719501 0.203458741 0.35945338
v 0.532884479 0.214005217 0.364305437
v 0.534733355 0.217866778 0.361837775
v 0.52970618 0.22501345 0.363022804
v 0.532435298 0.233663112 0.360143423
v 0.529345036 0.237780452 0.361974239
v 0.526728809 0.247058809 0.364273846
v 0.529109776 0.250397921 0.360661268
v 0.526849389 0.259309828 0.362207502
v 0.528641462 0.26437667 0.355098158
v 0.528610349 0.271172643 0.351883441
v 0.524092019 0.276590586 0.356805086
v 0.520988166 0.286242425 0.360190809
v 0.522745132 0.290162414 0.357900828
v 0.520087361 0.299363375 0.360338569
v 0.518747985 0.307326049 0.359954238
v 0.519870818 0.311818391 0.359021783
v 0.514741302 0.318921417 0.360577762
v 0.518878698 0.32616356 0.354638249
v 0.515412629 0.330523163 0.35736379
v 0.513344646 0.339099258 0.358573467
v 0.510135889 0.344431013 0.356025487
v 0.510646224 0.349446326 0.356417328
v 0.505680323 0.356348753 0.357691884
v 0.506610632 0.362204581 0.352428913
v 0.516893983 0.359775037 0.32682395
v 0.516111493 0.367202163 0.325260103
v 0.513675272 0.370604455 0.325778127
v 0.515727341 0.379739165 0.324355334
v 0.510174453 0.385853052 0.331677914
v 0.238824621 0.630600452 0.929871976
v 0.240770236 0.635670662 0.935833395
v 0.254283637 0.629763603 0.920647502
v 0.259289086 0.632229507 0.920024097
v 0.270685643 0.628227949 0.90960139
v 0.276258409 0.626888633 0.902770817
v 0.284762233 0.625393152 0.898664594
v 0.290936589 0.625864208 0.899529338
v 0.292801201 0.627662361 0.900614679
v 0.300292432 0.62704432 0.898721159
v 0.309485197 0.625039816 0.893315673
v 0.317944169 0.623663962 0.889500797
v 0.320147157 0.625195444 0.889893353
v 0.327996135 0.624341547 0.887394428
v 0.338394254 0.621445775 0.879714847
v 0.341102093 0.622584343 0.879093766
v 0.349989444 0.620947421 0.874597847
v 0.356000543 0.622772634 0.8721838
v 0.363866895 0.618679702 0.864960849
v 0.368706316 0.621464074 0.864960849
v 0.38010931 0.617932022 0.855603397
v 0.387257785 0.618941903 0.851036072
v 0.398565441 0.616750956 0.838234961
v 0.405495316 0.617993712 0.834195495
v 0.421379089 0.612403512 0.812515616
v 0.409926474 0.6301229 0.837190688
v 0.415465564 0.629187405 0.831097722
v 0.419126123 0.634156704 0.829746902
v 0.422425896 0.637384534 0.820506155
v 0.421185285 0.639540792 0.819152057
v 0.412413299 0.648533762 0.828863919
v 0.416452974 0.647995055 0.813280046
v 0.428648859 0.644700229 0.786348879
v 0.427397013 0.646876037 0.784982562
v 0.432282209 0.642524004 0.762579441
v 0.43835026 0.637287974 0.737625778
v 0.443740457 0.634585261 0.722878397
v 0.439689368 0.633483768 0.712912261
v 0.442360669 0.632787228 0.703527212
v 0.443266481 0.627976835 0.68332094
v 0.446601033 0.623409271 0.667251229
v 0.450952709 0.619359732 0.644900084
v 0.449012458 0.618686497 0.639454842
v 0.445501775 0.617045283 0.627719522
v 0.443017393 0.616761923 0.623322904
v 0.439139396 0.6153602 0.61218977
v 0.442490339 0.614137113 0.600972891
v 0.450075179 0.604037642 0.565486431
v 0.446092546 0.604839206 0.56402719
v 0.444334716 0.601722062 0.547890604
v 0.440645725 0.602289915 0.545759737
v 0.436974049 0.602843583 0.543587387
v 0.440602452 0.599125326 0.521324217
v 0.446208894 0.590260208 0.488744497
v 0.442360342 0.590910435 0.486777931
v 0.439087272 0.591116369 0.48355177
v 0.432929188 0.591219902 0.476210713
v 0.436396867 0.586187363 0.458077252
v 0.445520639 0.578066766 0.422716349
v 0.442022443 0.578399718 0.419768721
v 0.4401595 0.575046182 0.40234679
v 0.444298923 0.569379926 0.382164717
v 0.442328811 0.566025853 0.364604294
v 0.441070557 0.56454736 0.356368661
v 0.442436755 0.562331438 0.337312311
v 0.438862056 0.562660575 0.334245265
v 0.439896166 0.556806862 0.309203625
v 0.448722124 0.55115217 0.283943146
v 0.458182126 0.542443752 0.245500445
v 0.454303026 0.542947173 0.242823154
v 0.453847617 0.542091489 0.227109477
v 0.452694923 0.540403664 0.217966482
v 0.461365968 0.532223225 0.180482388
v 0.465479642 0.527667761 0.153467059
v 0.468346298 0.522689164 0.134404227
v 0.459437072 0.52446121 0.131043926
v 0.46606636 0.516384304 0.102662683
v 0.459356189 0.516326487 0.0937687829
v 0.456357241 0.514600992 0.0937687829
v 0.454253256 0.510744095 0.0734968558
v 0.463759512 0.504365027 0.0447746813
v 0.463480741 0.507421851 0.0345555432
v 0.454494655 0.509121418 0.0307623204
v 0.449913085 0.510043502 0.0290836319
v 0.442287952 0.509214461 0.0274049435
v 0.447279036 0.497881711 -0.00604487909
v 0.448176861 0.498541951 -0.0139176399
v 0.456137836 0.499109268 -0.0374935381
v 0.456863046 0.501368046 -0.0506627932
v 0.45524165 0.505572438 -0.0579318441
v 0.45210287 0.511027813 -0.061357677
v 0.466197908 0.50529021 -0.0950612277
v 0.468036979 0.511077642 -0.103292041
v 0.458314747 0.511743248 -0.100245602
v 0.462934464 0.510906994 -0.12373808
v 0.454264969 0.515067101 -0.115331851
v 0.458761841 0.51433897 -0.138678506
v 0.455569327 0.519887745 -0.142162964
v 0.461802781 0.513385713 -0.178541362
v 0.454317659 0.516542315 -0.17324689
v 0.447921842 0.520299852 -0.176755771
v 0.463860095 0.510293841 -0.230959445
v 0.495905787 0.487288982 -0.328262687
v 0.495941818 0.494937032 -0.332097352
v 0.489136606 0.503530145 -0.326501817
v 0.484378457 0.513436079 -0.311295033
v 0.479283154 0.520620942 -0.31016171
v 0.512759686 0.497090846 -0.412452608
v 0.513208568 0.504547477 -0.417462796
v 0.510580242 0.509847403 -0.42324838
v 0.509787142 0.518287182 -0.42491886
v 0.508005202 0.521305501 -0.426551312
v 0.499474704 0.526663184 -0.425458014
v 0.49951759 0.534434676 -0.429377288
v 0.499131501 0.536366463 -0.434800178
v 0.504944086 0.53513968 -0.463666379
v 0.503298521 0.539713204 -0.472259521
v 0.499044061 0.546303332 -0.473711878
v 0.485997081 0.548919261 -0.462948799
v 0.48103258 0.55149281 -0.471738696
v 0.476306289 0.553878069 -0.481252432
v 0.470576435 0.553760827 -0.474673063
v 0.463711888 0.553214967 -0.487749249
v 0.47371766 0.542366505 -0.532491922
v 0.468787849 0.544873118 -0.541838527
v 0.462479889 0.548462212 -0.547291934
v 0.461847633 0.550607502 -0.55234766
v 0.453935921 0.547492385 -0.549313784
v 0.456854194 0.537362695 -0.584685087
v 0.452282906 0.537903488 -0.588437915
v 0.453300744 0.529149413 -0.618816674
v 0.444499671 0.526637793 -0.613387048
v 0.442688495 0.524897635 -0.625465095
v 0.433955163 0.523948133 -0.627387702
v 0.433357894 0.517879605 -0.661056042
v 0.429347277 0.517886937 -0.6668486
v 0.425149113 0.518044114 -0.67210418
v 0.453311354 0.497929573 -0.772705793
v 0.478087872 0.485894471 -0.852421045
v 0.49267748 0.485892236 -0.882180691
v 0.499410421 0.4838112 -0.883746982
v 0.502524972 0.489753842 -0.86329335
v 0.509867609 0.493978441 -0.86329335
v 0.515394211 0.492866158 -0.861268401
v 0.524592102 0.493866205 -0.859243453
v 0.533790052 0.494866252 -0.857218504
v 0.541132689 0.49909085 -0.857218504
v 0.542948723 0.504427791 -0.859243453
v 0.548436105 0.511877 -0.861268401
v 0.55025214 0.517213881 -0.86329335
v 0.552068174 0.522550762 -0.865318298
v 0.552028894 0.531112254 -0.869368196
v 0.545888841 0.539384902 -0.866313338
v 0.538518846 0.543714762 -0.870356739
v 0.536666572 0.546934187 -0.872378409
v 0.529296577 0.551264048 -0.876421809
v 0.520646095 0.55168432 -0.887592673
v 0.518107355 0.555424094 -0.887571692
v 0.509010017 0.561056018 -0.886443496
v 0.505305529 0.56749469 -0.890486777
v 0.499787927 0.568605185 -0.892508447
v 0.495873928 0.570325553 -0.907101572
v 0.47696203 0.578512669 -0.886983752
v 0.478248417 0.579347193 -0.898662031
v 0.471269131 0.57667321 -0.90749979
v 0.470534682 0.574118853 -0.924452007
v 0.463174671 0.569884241 -0.924452007
v 0.454868406 0.566387415 -0.921470046
v 0.448454678 0.561414957 -0.924452007
v 0.442984551 0.553924143 -0.922518373
v 0.436868191 0.548691392 -0.92649281
v 0.433804035 0.544339776 -0.920488596
v 0.428510308 0.53842169 -0.927132487
v 0.421764523 0.531962097 -0.921108127
v 0.416253984 0.524496317 -0.919055045
v 0.413878381 0.519607365 -0.915228248
v 0.40648821 0.512081325 -0.898998201
v 0.404672474 0.506745279 -0.89697361
v 0.397600085 0.499039859 -0.881724715
v 0.392805308 0.49630481 -0.869985342
v 0.390998125 0.490994006 -0.867970288
v 0.383048594 0.489492983 -0.837917328
v 0.379455596 0.478934109 -0.833911061
v 0.380988449 0.476013422 -0.830922604
v 0.380032599 0.468437463 -0.82368052
v 0.380071402 0.459976315 -0.819678068
v 0.377677679 0.460609615 -0.803958595
v 0.377716333 0.452175111 -0.799968779
v 0.371698409 0.454645842 -0.764730394
v 0.373806119 0.449729443 -0.755872309
v 0.376820773 0.443988413 -0.749958336
v 0.378669322 0.439321637 -0.740332305
v 0.375171214 0.444902867 -0.70241648
v 0.376966178 0.44178316 -0.700457394
v 0.270645738 0.531817555 -0.359748989
v 0.260356367 0.534213305 -0.361931771
v 0.250062704 0.538896263 -0.339425623
v 0.240592077 0.540571213 -0.344021171
v 0.235719949 0.541536331 -0.345881552
v 0.226205289 0.543248177 -0.350356638
v 0.221311137 0.544233203 -0.352149844
v 0.21646224 0.545174897 -0.354092777
v 0.206628665 0.547188163 -0.357529491
v 0.201734513 0.54817313 -0.359322727
v 0.19183144 0.548997283 -0.355176449
v 0.18694289 0.549982548 -0.356960684
v 0.174488112 0.554584384 -0.351351678
v 0.169338897 0.555835724 -0.352194279
v 0.158910185 0.558473408 -0.353399277
v 0.154039145 0.559453785 -0.355184019
v 0.149168089 0.560434103 -0.35696876
v 0.139100552 0.561528862 -0.351816744
v 0.1293758 0.563486099 -0.355379879
v 0.124513417 0.564464688 -0.357161462
v 0.112641886 0.567466795 -0.345266402
v 0.108202845 0.568023086 -0.348519415
v 0.105332628 0.566953003 -0.357521802
v 0.0947853923 0.56864655 -0.350217313
v 0.0874855742 0.5680843 -0.362663895
v 0.0815017447 0.569141626 -0.352365553
v 0.0728396997 0.570001006 -0.359778166
v 0.0683622807 0.56949234 -0.355021656
v 0.0593777299 0.570687532 -0.361244291
v 0.0509245172 0.570233822 -0.361519158
v 0.046330817 0.570936024 -0.364261925
v 0.0358014069 0.572775126 -0.356395274
v 0.0301348679 0.57466954 -0.354889035
v 0.0214659963 0.574501336 -0.354150832
v 0.0169119593 0.57516849 -0.357000917
v 0.00860931817 0.574599326 -0.357686967
v -0.000676564581 0.575157106 -0.354366392
v -0.00520034926 0.575788677 -0.357336998
v -0.0135536818 0.575298011 -0.357744843
v -0.0183357093 0.576224864 -0.359663695
v -0.0263563711 0.575352848 -0.361429483
v -0.0344134271 0.574523866 -0.363041937
v -0.0411827043 0.576923311 -0.347959578
v -0.0492282286 0.576122046 -0.349478841
v -0.0531370007 0.576013684 -0.355062127
v -0.0613874234 0.575453043 -0.355723888
v -0.0693818852 0.574583888 -0.357483894
v -0.0734212473 0.573796034 -0.353761792
v -0.081408076 0.572927713 -0.355520129
v -0.0893949047 0.572059333 -0.357278436
v -0.0933881402 0.572005212 -0.362661034
v -0.10138239 0.571136057 -0.36442101
v -0.109354205 0.570237935 -0.366283894
v -0.113252327 0.569320381 -0.36302796
v -0.12122798 0.568435967 -0.364842981
v -0.129215896 0.567567527 -0.366601557
v -0.137343764 0.566886544 -0.367696106
v -0.143468007 0.569008112 -0.353709847
v -0.151425987 0.568142891 -0.355461836
v -0.159317032 0.567185521 -0.357539266
v -0.162930965 0.565962911 -0.355404824
v -0.170865893 0.565071046 -0.357251436
v -0.178540021 0.563809752 -0.3604002
v -0.186297596 0.562658966 -0.363158524
v -0.18993026 0.561486423 -0.360853016
v -0.197568864 0.560161948 -0.364220738
v -0.205393329 0.55910033 -0.366663069
v -0.20892325 0.557794571 -0.364830375
v -0.216661215 0.556603909 -0.367724687
v -0.22522603 0.556297898 -0.356011361
v -0.227795601 0.55391115 -0.369476646
v -0.236353174 0.553653479 -0.357617497
v -0.243383661 0.551382363 -0.364279181
v -0.250813484 0.549451351 -0.358305037
v -0.258554399 0.548284233 -0.361110806
v -0.265479416 0.545596719 -0.357795864
v -0.269654989 0.545599639 -0.362857461
v -0.276570588 0.542914391 -0.359541029
v -0.284067929 0.541335762 -0.363764673
v -0.291608632 0.539733648 -0.356729269
v -0.295095891 0.538532317 -0.365923047
v -0.302994668 0.537584305 -0.356649548
v -0.310593069 0.536173284 -0.360285312
v -0.317679107 0.533888161 -0.355651766
v -0.325461358 0.532802224 -0.358167768
v -0.32955128 0.532564342 -0.36400786
v -0.33675611 0.530540586 -0.358489692
v -0.344663382 0.529680908 -0.360230476
v -0.352570653 0.52882117 -0.361971289
v -0.356033683 0.52758491 -0.359993041
v -0.363936931 0.52672559 -0.36173296
v -0.368586391 0.527489841 -0.36412707
v -0.37649098 0.526630461 -0.365867257
v -0.38429147 0.525564432 -0.368312925
v -0.392516553 0.525347412 -0.367860109
v -0.396129847 0.524464667 -0.364684463
v -0.405111402 0.525331736 -0.371722162
v -0.412949681 0.532701313 -0.351520091
v -0.41925624 0.536406398 -0.354980022
v -0.427114278 0.535552025 -0.356710017
v -0.43187061 0.536576807 -0.358183801
v -0.437979907 0.539856195 -0.363112509
v -0.4392353 0.541898072 -0.367315114
v -0.44388786 0.541984916 -0.383372277
v -0.446205914 0.545627475 -0.393457413
v -0.448986977 0.550278068 -0.400073707
v -0.453502774 0.549962163 -0.417849451
v -0.459301054 0.552428126 -0.425876796
v -0.458732545 0.550372601 -0.44485566
v -0.463242799 0.549868286 -0.463622451
v -0.467119455 0.548707068 -0.473008692
v -0.440954953 0.487462968 -0.717240512
v -0.440035403 0.483515114 -0.756884217
v -0.443254471 0.488978148 -0.76267916
v -0.442745835 0.485920906 -0.799718797
v -0.446235925 0.491986901 -0.803528011
v -0.45217973 0.493755132 -0.815893352
v -0.453999072 0.49594748 -0.834183514
v -0.456938744 0.500725627 -0.842959523
v -0.459031075 0.503529787 -0.859239399
v -0.464277595 0.504585683 -0.861161709
v -0.467751563 0.510593891 -0.865439892
v -0.470018297 0.513758183 -0.880593896
v -0.47191456 0.516036928 -0.899294257
v -0.475458294 0.522196114 -0.903162062
v -0.478336632 0.526778996 -0.913168609
v -0.486052006 0.532497227 -0.910897613
v -0.489467114 0.538347661 -0.915981174
v -0.497494727 0.544859588 -0.910482049
v -0.500005066 0.558982253 -0.89057678
v -0.501764297 0.562039852 -0.892496824
v -0.508166969 0.564694941 -0.902191758
v -0.514232278 0.567769527 -0.895992696
v -0.520423055 0.569868684 -0.90795958
v -0.527434647 0.573993385 -0.911776245
v -0.533779979 0.577857137 -0.902281702
v -0.538684189 0.578058064 -0.907670319
v -0.544187844 0.571796417 -0.902522206
v -0.552470207 0.5696944 -0.909108877
v -0.556375921 0.568848848 -0.904439986
v -0.564803481 0.567112267 -0.909541905
v -0.570004106 0.560052276 -0.907622755
v -0.573483586 0.558050334 -0.907622755
v -0.578530431 0.550540149 -0.907491863
v -0.585492253 0.546534657 -0.907491863
v -0.590694964 0.539471805 -0.905571938
v -0.590779185 0.531727731 -0.900276184
v -0.591991365 0.525089622 -0.904487669
v -0.598805249 0.520587206 -0.90639329
v -0.600529611 0.515519619 -0.904470563
v -0.597586215 0.511245191 -0.893551111
v -0.59364146 0.503775299 -0.894866645
v -0.589470446 0.495601654 -0.898778915
v -0.583268881 0.494022191 -0.885357261
v -0.579247892 0.486351162 -0.887320459
v -0.570608556 0.487599611 -0.884280384
v -0.563346088 0.480519265 -0.904862642
v -0.558581471 0.470718861 -0.914529383
v -0.552221894 0.468648732 -0.902952254
v -0.545360625 0.465067446 -0.897004902
v -0.543588102 0.461986721 -0.895070314
v -0.540068328 0.455898106 -0.89093554
v -0.534009576 0.45458287 -0.876792371
v -0.530472994 0.448436111 -0.872932374
v -0.526344955 0.450572997 -0.859470725
v -0.522817671 0.444442332 -0.855620801
v -0.565200686 0.543188334 -0.476557314
v -0.562756836 0.515808225 -0.548844695
v -0.567077398 0.507633328 -0.552621126
v -0.570331156 0.505761266 -0.552621126
v -0.574123561 0.521077216 -0.475541711
v -0.573741496 0.512585819 -0.475624621
v -0.574953377 0.506821394 -0.477712333
v -0.577099204 0.505967259 -0.451516271
v -0.578509808 0.502952754 -0.432999998
v -0.580153346 0.498573184 -0.430470526
v -0.580155134 0.491290063 -0.426601142
v -0.582021713 0.487612545 -0.421733737
v -0.57911098 0.482952356 -0.415226489
v -0.579123139 0.475714594 -0.411259145
v -0.575924337 0.470154911 -0.407767832
v -0.574391127 0.458073437 -0.419631928
v -0.571179867 0.452492118 -0.416127026
v -0.571791112 0.444849759 -0.42415607
v -0.570793033 0.446221381 -0.398227245
v -0.569516957 0.434916198 -0.407257527
v -0.567237496 0.43226409 -0.39444381
v -0.564357221 0.427708715 -0.387746155
v -0.567369759 0.441539019 -0.323274434
v -0.565029263 0.438583523 -0.311948955
v -0.563726783 0.427356958 -0.320850372
v -0.562149346 0.424615294 -0.319128662
v -0.554649889 0.405611873 -0.357351869
v -0.554054797 0.396496862 -0.359249979
v -0.547701836 0.392764479 -0.355764568
v -0.545598924 0.388427466 -0.358772546
v -0.544049084 0.376346052 -0.369496971
v -0.543687463 0.367919475 -0.369063884
v -0.544940054 0.362297207 -0.370310634
v -0.54490608 0.354881644 -0.366802782
v -0.546479046 0.350259095 -0.365048885
v -0.54636699 0.34259364 -0.362275511
v -0.548986912 0.331635952 -0.363756239
v -0.547393203 0.32888934 -0.361852974
v -0.550123334 0.318248123 -0.362331599
v -0.551700175 0.31361419 -0.360573381
v -0.552852631 0.307563633 -0.36287263
v -0.553157091 0.301258326 -0.356118828
v -0.555611312 0.289604574 -0.359334826
v -0.556594908 0.282916099 -0.363328576
v -0.558177114 0.27826634 -0.361564338
v -0.561341584 0.268966794 -0.358035862
v -0.562635958 0.263300568 -0.3590886
v -0.565506339 0.252932459 -0.358478427
v -0.566535294 0.246270165 -0.362207979
v -0.569708824 0.236943796 -0.358669341
v -0.571295619 0.232280597 -0.356900036
v -0.572882414 0.227617413 -0.355130702
v -0.576762319 0.217650712 -0.362651795
v -0.578173101 0.212291703 -0.362711132
v -0.581355691 0.202938676 -0.35916236
v -0.582947016 0.19826217 -0.35738799
v -0.586498559 0.186756685 -0.368730307
v -0.588042974 0.181855857 -0.367497534
v -0.591219366 0.172399446 -0.364120364
v -0.595874608 0.165147394 -0.364159137
v -0.59747231 0.160452083 -0.362377614
v -0.599070072 0.155756757 -0.360596091
v -0.602038324 0.141284034 -0.379113793
v -0.603729308 0.136928737 -0.376392037
v -0.608430505 0.129685253 -0.3762725
v -0.611643195 0.120243944 -0.37269026
v -0.61324954 0.115523286 -0.370899141
v -0.617287159 0.105218679 -0.378411114
v -0.619574487 0.103593543 -0.36886391
v -0.623340368 0.0919087604 -0.379721105
v -0.625016153 0.0874703676 -0.377182394
v -0.628853083 0.0758983493 -0.387605011
v -0.630469978 0.0711466521 -0.38580209
v -0.634021461 0.0632041842 -0.378390193
v -0.638279498 0.053458225 -0.384162039
v -0.639897943 0.0487019643 -0.382357389
v -0.641516387 0.0439456999 -0.380552769
v -0.645164013 0.0308575537 -0.394226134
v -0.646788895 0.0260825083 -0.392414361
v -0.6500386 0.0165324174 -0.388790846
v -0.651383698 0.0102577237 -0.390530109
v -0.655641735 -1.13499482e-06 -0.397174537
v -0.657164872 -0.00537897088 -0.396739185
v -0.660123169 -0.016657345 -0.39706108
v -0.661866605 -0.0208238345 -0.393776506
v -0.666029215 -0.0319404826 -0.402205378
v -0.669995844 -0.0443978272 -0.41363585
v -0.671362281 -0.0508530959 -0.415557384
v -0.67291081 -0.0562454499 -0.415019453
v -0.675427318 -0.0705967695 -0.422036201
v -0.676984787 -0.0759936795 -0.42145732
v -0.678334713 -0.0826873034 -0.423802644
v -0.679794073 -0.0887283385 -0.424650013
v -0.679896414 -0.0956450403 -0.419023663
v -0.680975497 -0.104113549 -0.425270885
v -0.682847679 -0.107577011 -0.420316547
v -0.683474541 -0.111114837 -0.407209337
v -0.681244075 -0.133030668 -0.434711665
v -0.682629883 -0.1397053 -0.436796665
v -0.682843268 -0.145918414 -0.42953068
v -0.684080422 -0.153596342 -0.433767617
v -0.68404448 -0.161441848 -0.430056423
v -0.685305476 -0.169021487 -0.434011221
v -0.685269475 -0.176878482 -0.430294573
v -0.685233414 -0.184735477 -0.426577955
v -0.686808765 -0.190252587 -0.426039994
v -0.688684702 -0.185088485 -0.394700527
v -0.689061105 -0.19007434 -0.385060519
v -0.689917862 -0.200425833 -0.394773304
v -0.65656513 -0.488223165 -0.990819931
v -0.664257348 -0.492856055 -0.991222203
v -0.674288571 -0.468892455 -0.922758222
v -0.68010211 -0.475621998 -0.918609738
v -0.683903456 -0.477809101 -0.918609738
v -0.690805256 -0.487779498 -0.930202425
v -0.6976583 -0.486044675 -0.908566415
v -0.704992175 -0.492566645 -0.913004696
v -0.706871092 -0.498088181 -0.910909712
v -0.711996317 -0.510628104 -0.918695986
v -0.717939079 -0.516077578 -0.911964417
v -0.718290269 -0.521408677 -0.90060252
v -0.713153958 -0.517449439 -0.888165534
v -0.708496273 -0.531332374 -0.898562372
v -0.708515763 -0.539668441 -0.893314421
v -0.706595778 -0.543005586 -0.891218841
v -0.699504733 -0.542853415 -0.877764046
v -0.691465259 -0.550759137 -0.880402565
v -0.689515948 -0.554343462 -0.878802896
v -0.685068011 -0.565953612 -0.884385765
v -0.674095988 -0.564466298 -0.872695863
v -0.66380018 -0.569279253 -0.882148027
v -0.657709837 -0.573062062 -0.885232508
v -0.652199864 -0.572535932 -0.879814506
v -0.646520257 -0.5732795 -0.876902938
v -0.679078817 -0.322650641 -0.368058532
v -0.679592192 -0.326622605 -0.356728226
v -0.677209496 -0.351189047 -0.385467499
v -0.663399398 -0.467365086 -0.598996282
v -0.669769824 -0.429523259 -0.506022155
v -0.671503961 -0.434619337 -0.504088581
v -0.675022423 -0.44443962 -0.499510974
v -0.676719427 -0.449809045 -0.498100162
v -0.679098785 -0.478720158 -0.537530422
v -0.679578066 -0.493650317 -0.55408603
v -0.676865518 -0.493178219 -0.537492931
v -0.680929959 -0.441741973 -0.425303966
v -0.680414498 -0.453413785 -0.42826286
v -0.679845214 -0.475839168 -0.458775967
v -0.683481336 -0.495198369 -0.479659319
v -0.690039039 -0.480876118 -0.430536419
v -0.68921715 -0.476576447 -0.415092379
v -0.68478328 -0.490010917 -0.424800038
v -0.680765569 -0.500079632 -0.428251356
v -0.68351841 -0.486498833 -0.384962589
v -0.678342223 -0.487540603 -0.383065999
v -0.681186914 -0.47348845 -0.339330196
v -0.681526899 -0.478532732 -0.330364972
v -0.677790523 -0.486796021 -0.330729723
v -0.670825303 -0.491736889 -0.328625292
v -0.668996036 -0.495535165 -0.328191817
v -0.665615499 -0.501067936 -0.323636174
v -0.661943257 -0.508733153 -0.322867215
v -0.665758431 -0.515349984 -0.313309193
v -0.664192438 -0.517208993 -0.30944562
v -0.657282829 -0.521749437 -0.306613594
v -0.651801646 -0.525344491 -0.309234291
v -0.64645952 -0.520194292 -0.314207554
v -0.640440583 -0.527319372 -0.323038697
v -0.645486355 -0.451243043 -0.178825051
v -0.64218086 -0.456876248 -0.174928039
v -0.638766468 -0.463232547 -0.172291219
v -0.633587599 -0.465670139 -0.172977582
v -0.629985988 -0.473211199 -0.172375426
v -0.62619561 -0.481940001 -0.173800677
v -0.619231403 -0.487879217 -0.173663124
v -0.612459302 -0.492556661 -0.171340674
v -0.610489786 -0.497304887 -0.172673985
v -0.603657842 -0.502286017 -0.170851678
v -0.593453586 -0.505674005 -0.169553414
v -0.591585994 -0.509723246 -0.169663236
v -0.58115828 -0.514292836 -0.170354947
v -0.576105237 -0.515616179 -0.169063106
v -0.570974946 -0.517365038 -0.168491498
v -0.563961565 -0.523141861 -0.167961687
v -0.55351913 -0.527501643 -0.168253243
v -0.548393846 -0.529129267 -0.167462215
v -0.543069363 -0.531791747 -0.168412283
v -0.532780468 -0.535151124 -0.166992173
v -0.527655423 -0.536709607 -0.166075304
v -0.519185841 -0.536386907 -0.165219516
v -0.513882458 -0.538797796 -0.165729955
v -0.503344119 -0.543199897 -0.166034698
v -0.498120248 -0.545147061 -0.165756688
v -0.487731725 -0.548706591 -0.164632604
v -0.482145041 -0.55228436 -0.167066142
v -0.477010518 -0.553733528 -0.165944174
v -0.468851954 -0.551778674 -0.162359715
v -0.457820892 -0.558031321 -0.165693566
v -0.452546716 -0.560038984 -0.16549173
v -0.447496384 -0.561055362 -0.163641304
v -0.438668519 -0.561947405 -0.16478838
v -0.428153604 -0.565685749 -0.1639072
v -0.422753781 -0.568124056 -0.164404571
v -0.417668939 -0.56923908 -0.162709415
v -0.407214254 -0.572618186 -0.161214396
v -0.401588053 -0.575891793 -0.163075492
v -0.392840713 -0.576198518 -0.163236067
v -0.387511462 -0.578225791 -0.16303499
v -0.376596332 -0.583219767 -0.164167792
v -0.371562839 -0.584058881 -0.162004381
v -0.360342979 -0.590083957 -0.164804727
v -0.35719049 -0.587283075 -0.163401246
v -0.346445769 -0.591423094 -0.163098246
v -0.34135294 -0.592448056 -0.161232233
v -0.335646689 -0.595695615 -0.162998646
v -0.325224578 -0.598555565 -0.160580933
v -0.316239506 -0.599384785 -0.161570027
v -0.310633391 -0.602167726 -0.162561089
v -0.304997087 -0.605029464 -0.16367507
v -0.296088845 -0.605476677 -0.164035708
v -0.284313023 -0.612752199 -0.168763012
v -0.279038578 -0.614279687 -0.167689353
v -0.273495138 -0.616695046 -0.168053806
v -0.262817025 -0.62012732 -0.166506663
v -0.254511356 -0.618426204 -0.163376048
v -0.249139234 -0.620231628 -0.162744671
v -0.243885368 -0.621648788 -0.161483809
v -0.235253125 -0.620993495 -0.160044774
v -0.230017573 -0.622341752 -0.158671021
v -0.219447747 -0.625331521 -0.156392977
v -0.209539741 -0.628552496 -0.161193803
v -0.203528628 -0.632214129 -0.163531721
v -0.198242709 -0.63365227 -0.1622881
v -0.189402938 -0.633501589 -0.161656201
v -0.178152189 -0.638346374 -0.162319869
v -0.172825381 -0.639868379 -0.161202565
v -0.163778186 -0.640250802 -0.161420316
v -0.158170477 -0.642562926 -0.161564127
v -0.149177983 -0.6427387 -0.161448494
v -0.143534377 -0.645117104 -0.161692426
v -0.134458199 -0.645482302 -0.161877304
v -0.129111022 -0.646997631 -0.160736442
v -0.120011941 -0.647385776 -0.16095534
v -0.113771148 -0.651331842 -0.163689047
v -0.105197988 -0.650228262 -0.161525309
v -0.0961825922 -0.650314808 -0.161259919
v -0.0904877484 -0.652707279 -0.161506638
v -0.0805433169 -0.655207157 -0.165084541
v -0.0722188652 -0.65340209 -0.161802426
v -0.0687655434 -0.651415169 -0.161802426
v -0.0596184507 -0.651750505 -0.161932215
v -0.0539697185 -0.653943837 -0.161852732
v -0.0444454178 -0.65519309 -0.163435429
v -0.0349035896 -0.656443477 -0.165019304
v -0.0262264684 -0.655500114 -0.163109019
v -0.0234301705 -0.651855052 -0.160475686
v -0.0137768053 -0.65332216 -0.162406981
v -0.00816063117 -0.655350029 -0.162053376
v -0.000982877682 -0.651955903 -0.16300112
v 0.00834876485 -0.652559102 -0.163556531
v 0.0170403849 -0.65161407 -0.161643058
v 0.0231052171 -0.654655337 -0.162899673
v 0.029776739 -0.650020838 -0.161880001
v 0.0384734087 -0.64907527 -0.159965411
v 0.0481090993 -0.650289059 -0.161495492
v 0.0515835807 -0.648290038 -0.161495492
v 0.060785234 -0.648471177 -0.161379203
v 0.0678659454 -0.644759953 -0.161841109
v 0.0770192444 -0.644801438 -0.161504149
v 0.0857546702 -0.643901765 -0.159662157
v 0.0891404897 -0.641697347 -0.159336865
v 0.0967376679 -0.639095843 -0.161581859
v 0.105665036 -0.638599992 -0.160387069
v 0.113078095 -0.635564625 -0.16194427
v 0.118510596 -0.637027204 -0.160677537
v 0.125476047 -0.633019567 -0.160677537
v 0.13497521 -0.63369745 -0.161369935
v 0.142509744 -0.630863428 -0.163263336
v 0.149164632 -0.62619096 -0.162199289
v 0.155819416 -0.630145609 -0.164945245
v 0.162763983 -0.6260553 -0.164825976
v 0.1720016 -0.626104474 -0.164514065
v 0.178985149 -0.622086465 -0.164514065
v 0.187733233 -0.621135354 -0.162588164
v 0.194716781 -0.617117345 -0.162588164
v 0.20170033 -0.613099337 -0.162588164
v 0.207628593 -0.615471423 -0.162791446
v 0.214544296 -0.611311674 -0.162565127
v 0.221531436 -0.607291579 -0.162565127
v 0.230853081 -0.607427478 -0.162406117
v 0.237834886 -0.603389025 -0.162379324
v 0.243096381 -0.604447901 -0.160451517
v 0.250062972 -0.600381255 -0.16037865
v 0.257803351 -0.597755194 -0.162657678
v 0.264892101 -0.593904734 -0.162942067
v 0.274295658 -0.59412694 -0.162934512
v 0.283062816 -0.593173742 -0.161004409
v 0.29140538 -0.591573894 -0.164980099
v 0.297918022 -0.586657822 -0.163527772
v 0.30645439 -0.585282624 -0.160904974
v 0.310441256 -0.584129572 -0.162319586
v 0.317880392 -0.580863655 -0.163577259
v 0.324532837 -0.57621187 -0.162555143
v 0.334369451 -0.577098906 -0.163657695
v 0.340561777 -0.571654797 -0.161329165
v 0.350708127 -0.573042274 -0.163263023
v 0.354215145 -0.571024477 -0.163263023
v 0.361200809 -0.566941023 -0.163183674
v 0.36798948 -0.562527239 -0.162556276
v 0.378128499 -0.563831866 -0.164369449
v 0.385027409 -0.559592783 -0.16403687
v 0.391544282 -0.554728091 -0.162661791
v 0.398283809 -0.558181822 -0.164701909
v 0.405179054 -0.553930819 -0.164352626
v 0.412109941 -0.549740314 -0.164103031
v 0.421485931 -0.549712896 -0.163716421
v 0.42918852 -0.546749711 -0.165520355
v 0.435978085 -0.542325675 -0.164884523
v 0.445455372 -0.542427957 -0.164720312
v 0.453119159 -0.539370418 -0.166377857
v 0.459723443 -0.534655213 -0.165255442
v 0.465934485 -0.52934283 -0.163123533
v 0.472483099 -0.532341301 -0.164437875
v 0.479808986 -0.528738499 -0.165187061
v 0.487698674 -0.525984526 -0.167371929
v 0.494398564 -0.521421432 -0.166505188
v 0.501779795 -0.517884493 -0.167373896
v 0.51072818 -0.517117977 -0.165758207
v 0.518629193 -0.514337122 -0.167914122
v 0.523780644 -0.507023692 -0.169573665
v 0.527302861 -0.504997194 -0.169573665
v 0.534573376 -0.501272619 -0.170134768
v 0.541875958 -0.497590035 -0.17076993
v 0.548922598 -0.493535727 -0.17076993
v 0.553445339 -0.485328674 -0.170891419
v 0.560488462 -0.481276333 -0.170891434
v 0.565268517 -0.473451823 -0.17165783
v 0.569478154 -0.46484074 -0.171047851
v 0.572996199 -0.462816626 -0.171047851
v 0.578401744 -0.455881864 -0.173343614
v 0.578961432 -0.449142277 -0.172437519
v 0.581517994 -0.437661529 -0.174096495
v 0.585051537 -0.428200454 -0.171909228
v 0.586485267 -0.422689587 -0.17311947
v 0.587351084 -0.416416168 -0.172968462
v 0.589821279 -0.404882789 -0.174443349
v 0.593446672 -0.403027177 -0.174731582
v 0.59236443 -0.39346534 -0.176098362
v 0.594227493 -0.381168425 -0.176133528
v 0.595559776 -0.375558019 -0.177111536
v 0.596674383 -0.369666338 -0.177571207
v 0.595429182 -0.359936297 -0.178542584
v 0.596964777 -0.347289801 -0.17781201
v 0.597851932 -0.341134071 -0.177735418
v 0.597552955 -0.332663953 -0.180958167
v 0.598536491 -0.326645076 -0.181112245
v 0.600260735 -0.321578056 -0.183034793
v 0.598209679 -0.310890704 -0.182072252
v 0.563587546 -0.253571421 -0.0891802311
v 0.567606568 -0.246199504 -0.08262413
v 0.579647422 -0.248865023 -0.0950549692
v 0.58023721 -0.242571175 -0.0943560526
v 0.591509461 -0.245057493 -0.0989648327
v 0.589801431 -0.230709508 -0.0790995285
v 0.595568657 -0.232558921 -0.0788016021
v 0.591590762 -0.214719743 -0.0597142056
v 0.596833646 -0.209053487 -0.0562807433
v 0.5965693 -0.195895061 -0.0459565558
v 0.589633346 -0.180766329 -0.0280290898
v 0.482524335 -0.0436943732 0.243210927
v 0.480511367 -0.0475922823 0.246027157
v 0.476944536 -0.0450347438 0.264644742
v 0.475028366 -0.0552934892 0.265478671
v 0.473939329 -0.0602722578 0.266192377
v 0.473972142 -0.0674312636 0.269578844
v 0.475523502 -0.0701276287 0.271272063
v 0.475165009 -0.076810576 0.27554816
v 0.475197822 -0.0839676335 0.278933704
v 0.476748735 -0.0866632611 0.280626446
v 0.475610167 -0.0868677795 0.293595701
v 0.475048721 -0.0932741016 0.298312694
v 0.474699438 -0.0944179669 0.309430093
v 0.484583884 -0.102620453 0.30440414
v 0.486336976 -0.100058332 0.312453151
v 0.491792321 -0.102830335 0.317339003
v 0.496632725 -0.0985940844 0.325211167
v 0.50008136 -0.0981409848 0.329389602
v 0.514396787 -0.106188476 0.321507365
v 0.516014814 -0.102706879 0.324634671
v 0.522790968 -0.100838766 0.328198314
v 0.527381778 -0.0955398679 0.331450552
v 0.536270082 -0.0961915106 0.330438823
v 0.537677467 -0.0925061107 0.333951354
v 0.540703833 -0.0907310247 0.33399266
v 0.444921345 0.0952323079 0.26432392
v 0.611204922 -0.10358949 -0.133067191
v 0.602167726 -0.103873581 -0.133613169
v 0.599037766 -0.110894836 -0.14811033
v 0.597322941 -0.107914343 -0.14998199
v 0.596365929 -0.0989548936 -0.151542544
v 0.595674813 -0.0913443044 -0.147801071
v 0.592294633 -0.0796800628 -0.143605351
v 0.592398047 -0.0719568133 -0.14766404
v 0.59102422 -0.0636420175 -0.142301664
v 0.590988159 -0.0557769835 -0.146022096
v 0.585904419 -0.0423233919 -0.137740389
v 0.581802309 -0.0367116407 -0.133871049
v 0.58112371 -0.0281764623 -0.136041313
v 0.579618394 -0.0187414475 -0.136235625
v 0.577017069 -0.0081251096 -0.133804262
v 0.575326025 -0.00518599804 -0.135649934
v 0.573176444 0.00491218362 -0.134278223
v 0.567396939 0.0133864591 -0.132192463
v 0.569047332 0.0182365607 -0.134032711
v 0.568512678 0.0265533794 -0.136513665
v 0.562558651 0.0351845846 -0.13396351
v 0.566608787 0.0385851823 -0.147500202
v 0.560820341 0.0458954126 -0.139424577
v 0.553284347 0.0561902374 -0.132980093
v 0.553912282 0.0632298216 -0.138254106
v 0.553876817 0.0709766448 -0.141918629
v 0.54857111 0.078866072 -0.14083226
v 0.553718328 0.0811654627 -0.157143414
v 0.547569335 0.0887722746 -0.148058563
v 0.54545176 0.0986849293 -0.146624282
v 0.54012984 0.106561728 -0.145439178
v 0.544595659 0.108439788 -0.154205456
v 0.539264917 0.116315365 -0.15299283
v 0.541208148 0.121999979 -0.161522537
v 0.527600765 0.138380095 -0.139826939
v 0.537820697 0.135560155 -0.168839633
v 0.528455079 0.147534415 -0.157567829
v 0.536109269 0.146207348 -0.174327463
v 0.516600013 0.168456107 -0.137766168
v 0.0582699478 0.642322123 1.01029348
v 0.0657602102 0.641093016 1.00699985
v 0.0674765632 0.642093301 1.01238859
v 0.0737477019 0.642092586 1.01212025
v 0.076005049 0.643391371 1.01212025
v 0.0830948055 0.64345628 1.00586927
v 0.0914028808 0.641493082 1.00074983
v 0.0946876332 0.646199048 0.999753714
v 0.107829042 0.639624536 0.983160377
v 0.110236764 0.639924109 0.986877859
v 0.415639609 0.343862176 0.269162685
v 0.415227741 0.33860594 0.268314332
v 0.415259033 0.33177647 0.271544904
v 0.415238947 0.320439875 0.267933965
v 0.414993942 0.31955862 0.273655176
v 0.421007037 0.302213758 0.25570491
v 0.420726746 0.301377386 0.261534899
v 0.424272507 0.286356896 0.249436721
v 0.424304157 0.279453963 0.252702057
v 0.42283991 0.275150955 0.254334718
v 0.42287156 0.268248022 0.257600039
v 0.423925579 0.266096115 0.260279268
v 0.421438962 0.25704205 0.262498051
v 0.42293486 0.254442126 0.264130712
v 0.42296648 0.247539192 0.267396063
v 0.428572655 0.23008725 0.250454783
v 0.423476994 0.234317794 0.267700881
v 0.423952341 0.226942763 0.269923091
v 0.429715931 0.215066358 0.254475027
v 0.42974779 0.208115369 0.257763088
v 0.429779649 0.20116438 0.261051148
v 0.428305238 0.196831405 0.262695193
v 0.428884566 0.18929702 0.264692903
v 0.427848995 0.184492216 0.265301347
v 0.430106521 0.175144136 0.263348788
v 0.432860315 0.165237978 0.260239094
v 0.431648225 0.165552989 0.268292278
v 0.431680173 0.158585906 0.271587968
v 0.431712091 0.151618838 0.274883628
v 0.438083053 0.138683349 0.258118004
v 0.439926684 0.129684791 0.2571868
v 0.439958841 0.122669339 0.260505348
v 0.441479087 0.12002705 0.262164623
v 0.441511244 0.113011599 0.265483171
v 0.4415434 0.105996147 0.268801749
v 0.443063647 0.103353858 0.270461023
g path_000000
l 65 64 63 62 61 60 59 58 57 56 55 54 53 52 51 50 49 48 47 46 45 44 43 42 41 40 39 38 37 36 35 34 33 32 31 30 29 28 27 26 25 24 23 22 21 20 19 18 17 16 15 14 13 12 11 10 9 8 7 6 5 4 3 2 1 824 823 822 821 820 819 818 817 816 815 814 813 812 811 810 809 808 807 806 805 804 803 802 801 800
g path_000001
l 66 67 68 69 70
g path_000002
l 71 72
g path_000003
l 73 74 75 76 77 78 79 80 81 82 83 84 85 86 87 88 89 90 91 92
g path_000004
l 93 94
g path_000005
l 96 97 98 99 100 101 102
g path_000006
l 103 104
g path_000007
l 106 107 108 109
g path_000008
l 110 111
g path_000009
l 112 113 114 115 116 117
g path_000010
l 118 119 120 121 122
g path_000011
l 124 125 126 127
g path_000012
l 129 130 131
g path_000013
l 132 133 134 135 136
g path_000014
l 139 140 141 142
g path_000015
l 144 145 146
g path_000016
l 147 148 149 150
g path_000017
l 151 152 153 154 155
g path_000018
l 156 157
g path_000019
l 158 159 160 161
g path_000020
l 162 163 164
g path_000021
l 165 166
g path_000022
l 167 168
g path_000023
l 169 170 171
g path_000024
l 173 174 175 176 177
g path_000025
l 178 179 180 181 182 183 184 185
g path_000026
l 186 187 188 189 190 191 192 193
g path_000027
l 194 195 196 197 198
g path_000028
l 199 200
g path_000029
l 201 202 203 204
g path_000030
l 205 206 207
g path_000031
l 210 211 212 213 214 215 216 217 218 219 220 221 222 223 224 225 226 227 228 229 230 231 232
g path_000032
l 233 234 235 236 237 238 239 240 241 242 243 244 245 246 247 248 249 250 251
g path_000033
l 252 253 254 255 256 257 258
g path_000034
l 259 260 261 262
g path_000035
l 263 264
g path_000036
l 265 266
g path_000037
l 267 268 269 270 271 272 273 274 275 276 277 278 279 280 281 282 283 284 285 286 287 288 289 290 291 292 293 294 295 296 297 298 299 300 301 302 303 304 305 306 307 308 309 310 311 312 313 314 315 316 317 318 319 320 321 322 323 324 325 326 327 328 329 330 331 332 333 334 335 336 337 338 339 340 341 342 343 344 345 346 347 348 349 350 351 352 353 354 355 356 357 358 359 360 361
g path_000038
l 362 363 364 365 366 367 368 369 370 371 372 373 374 375
g path_000039
l 377 378
g path_000040
l 379 380 381 382 383 384 385 386 387 388 389 390 391 392 393
g path_000041
l 394 395 396 397 398 399 400 401 402 403 404 405 406 407 408 409 410 411 412 413 414 415 416 417 418 419 420 421 422 423 424 425 426 427 428 429 430
g path_000042
l 432 433 434
g path_000043
l 435 436 437
g path_000044
l 438 439 440 441 442 443 444 445 446 447 448
g path_000045
l 449 450 451 452
g path_000046
l 453 454 455 456
g path_000047
l 457 458 459 460 461 462 463 464 465 466 467 468 469 470 471 472 473 474 475 476 477 478 479 480 481 482 483 484 485 486 487 488 489 490 491 492
g path_000048
l 493 494 495 496 497 498 499 500 501 502 503 504 505 506 507 508 509 510 511 512 513 514 515 516 517 518 519 520 521 522 523 524 525 526 527
g path_000049
l 528 529 530 531 532 533 534 535 536
g path_000050
l 537 538 539
g path_000051
l 540 541
g path_000052
l 542 543 544 545 546 547 548 549 550 551 552 553 554 555 556 557 558 559 560 561 562 563 564
g path_000053
l 565 566
g path_000054
l 569 570 571 572
g path_000055
l 573 574 575
g path_000056
l 576 577
g path_000057
l 580 581 582 583
g path_000058
l 584 585
g path_000059
l 586 587 588 589 590 591 592 593 594 595 596 597 598
g path_000060
l 599 600 601 602 603 604 605 606 607 608 609 610 611 612 613 614 615 616 617 618 619 620 621 622 623 624 625 626 627 628 629 630 631 632 633 634 635 636 637 638 639 640 641 642 643 644 645 646 647 648 649 650 651 652 653 654 655 656 657 658 659 660 661 662 663 664 665 666 667 668 669 670 671 672 673 674 675 676 677 678 679 680 681 682 683 684 685 686 687 688 689 690 691 692 693 694 695 696 697 698 699 700 701 702 703 704 705 706 707 708 709 710 711 712 713 714 715 716 717 718 719 720 721 722 723 724 725 726 727 728 729 730 731 732 733 734 735 736 737 738 739 740 741 742 743 744 745 746 747 748 749 750 751 752 753 754 755 756 757 758 759 760 761 762 763 764 765 766 767 768 769 770 771 772 773 774 775 776 777 778 779 780 781 782 783 784 785 786 787 788
g path_000061
l 789 790 791 792 793
g path_000062
l 794 795
g path_000063
l 796 797 798
g path_000064
l 825 910 909 908 907 906 905 904
g path_000065
l 826 827 828 829 830 831 832 833 834 835 836 837 838 839 840 841 842 843 844 845 846 847 848 849 850 851 852 853 854 855 856 857 858 859
g path_000066
l 861 862 863
g path_000067
l 865 866 867 868 869 870 871 872
g path_000068
l 873 874
g path_000069
l 875 876 877 878 879
g path_000070
l 880 881 882 883 884 885 886 887 888 889
g path_000071
l 890 891 892 893 894 895 896 897 898 899 900 901 902 903
