# Fixed world centers; Z up; paths immutable
v -0.0209395476 0.657669783 1.04712641
v -0.0165988058 0.669920325 1.04578936
v -0.00974335708 0.656342685 1.04149795
v -0.00385100208 0.652709961 1.04102647
v -0.0013832656 0.655497849 1.0440098
v 0.00391257415 0.657755554 1.04421508
v 0.00999218691 0.652493119 1.04356074
v 0.0147350878 0.660334229 1.03903091
v 0.0176160745 0.659458101 1.03621233
v 0.0239442624 0.652417958 1.03263652
v 0.0212485343 0.652129531 1.027228
v 0.0205846298 0.658453226 1.0252862
v 0.0260275155 0.659579337 1.02266717
v 0.0317784324 0.657494307 1.02505922
v 0.0341283008 0.661238015 1.02548242
v 0.0391320661 0.665662229 1.02865279
v 0.0448411331 0.663892567 1.03107929
v 0.0507850647 0.660729706 1.02795219
v 0.0535926633 0.660436332 1.02788937
v 0.0591105781 0.660966396 1.02519894
v 0.0617112517 0.662685692 1.02267933
v 0.0614584908 0.665347338 1.01760423
v 0.0678196698 0.658779204 1.01673818
v 0.0703061372 0.661133289 1.0169996
v 0.076351732 0.657276869 1.01646733
v 0.0818507448 0.658127844 1.01380563
v 0.0880424306 0.653673768 1.01047981
v 0.0907207131 0.654864073 1.00788331
v 0.0919715017 0.646010101 1.00131595
v 0.0943610519 0.649113894 1.00168228
v 0.096341081 0.655962586 0.997083664
v 0.0959041566 0.659951508 0.992156923
v 0.100717865 0.644842982 0.990144908
v 0.106265046 0.645310163 0.990144908
v 0.111468524 0.648277581 0.990472913
v 0.117390633 0.646401107 0.987428129
v 0.122638017 0.649391592 0.985024631
v 0.125163287 0.651369095 0.985256612
v 0.130706027 0.651835918 0.985256612
v 0.136167735 0.65326494 0.982648432
v 0.141973853 0.651945174 0.98240912
v 0.147116125 0.655117154 0.982771516
v 0.15062587 0.669034064 0.984573543
v 0.158474177 0.654677808 0.979849219
v 0.160887867 0.657245815 0.980164111
v 0.164338082 0.671153486 0.981977403
v 0.169855222 0.671618164 0.981977403
v 0.17780152 0.657275081 0.977239847
v 0.183744684 0.655730247 0.974223793
v 0.18997319 0.652034402 0.973654449
v 0.195449933 0.653467357 0.971039116
v 0.198228925 0.653701425 0.971039116
v 0.203705668 0.65513438 0.968423784
v 0.209263667 0.655602455 0.968423784
v 0.214740396 0.65703547 0.965808451
v 0.217519403 0.657269478 0.965808451
v 0.222996131 0.658702493 0.963193119
v 0.228472874 0.660135448 0.960577786
v 0.23117061 0.661334395 0.957962453
v 0.236647338 0.662767351 0.955347061
v 0.239345074 0.663966298 0.952731729
v 0.244821817 0.665399253 0.950116396
v 0.25029856 0.666832268 0.947501063
v 0.254287213 0.661015809 0.943856299
v 0.259776324 0.662452042 0.941235006
v 0.26248017 0.663653672 0.938613772
v 0.26796931 0.665089905 0.935992479
v 0.273458451 0.666526139 0.933371246
v 0.276162297 0.667727768 0.930749953
v 0.281651437 0.669164002 0.928128719
v 0.287140548 0.670600235 0.925507486
v 0.289925843 0.67083478 0.925507486
v 0.300949275 0.644315958 0.918579698
v 0.302034616 0.653787673 0.917214572
v 0.309216261 0.646977663 0.913289845
v 0.314837188 0.647451043 0.913289845
v 0.32037589 0.64890027 0.910644889
v 0.325914621 0.650349438 0.907999933
v 0.32872507 0.650586128 0.907999933
v 0.334263772 0.652035356 0.905355036
v 0.336992055 0.653247833 0.90271008
v 0.342530757 0.654697061 0.900065124
v 0.348069489 0.656146228 0.897420228
v 0.350879937 0.656382918 0.897420228
v 0.356418639 0.657832146 0.894775271
v 0.363235503 0.654034138 0.888463557
v 0.366603792 0.652359009 0.885336101
v 0.372158766 0.653812468 0.882683396
v 0.374895036 0.655028522 0.880030692
v 0.381178319 0.65384692 0.874115288
v 0.381095797 0.654826701 0.871459484
v 0.387298584 0.64129293 0.863449454
v 0.390070736 0.643051803 0.858033061
v 0.393193334 0.642653346 0.855080724
v 0.399494827 0.641652107 0.849131048
v 0.40314135 0.639020741 0.845774174
v 0.406261235 0.638698816 0.842821181
v 0.411941767 0.640491724 0.837344825
v 0.411858529 0.641480148 0.834665656
v 0.420204043 0.631954789 0.82711935
v 0.422228694 0.636998653 0.822260499
v 0.422145188 0.637989938 0.819573462
v 0.422434688 0.638041735 0.813838005
v 0.426068336 0.636290967 0.807709098
v 0.427978307 0.62953192 0.800655365
v 0.430316836 0.620976567 0.793223143
v 0.433110863 0.622218251 0.790514469
v 0.43412137 0.619278371 0.784131467
v 0.437384069 0.619234622 0.778253853
v 0.431696624 0.644248307 0.777409017
v 0.43644461 0.637959898 0.770305693
v 0.435669243 0.642474771 0.765412569
v 0.439066947 0.641181588 0.762196243
v 0.43889901 0.643175602 0.756791413
v 0.440437615 0.63812238 0.749923229
v 0.440269321 0.640120924 0.74450618
v 0.44475919 0.635045111 0.73754245
v 0.445281595 0.634208918 0.731507182
v 0.445916057 0.63291496 0.725362778
v 0.446495384 0.631850004 0.719255745
v 0.447073042 0.630794525 0.713139236
v 0.447450727 0.630561948 0.707192838
v 0.44786036 0.630200148 0.701209307
v 0.447690725 0.632214189 0.695750237
v 0.449624747 0.625611007 0.688340008
v 0.450209379 0.624540269 0.682160378
v 0.45008117 0.626389742 0.676641285
v 0.451908559 0.620238662 0.669264615
v 0.452334911 0.619823992 0.663199246
v 0.44924289 0.621606469 0.657700956
v 0.449157476 0.622620702 0.654951811
v 0.450998455 0.616398811 0.647483885
v 0.450942665 0.617959082 0.641857207
v 0.452043265 0.614781559 0.635079563
v 0.452482313 0.614317954 0.62894547
v 0.45293504 0.613800466 0.622788548
v 0.452942133 0.615108967 0.617075145
v 0.449652463 0.617634475 0.61172539
v 0.449658751 0.61894387 0.606009424
v 0.450307757 0.617616832 0.599620998
v 0.450636923 0.617604375 0.593555987
v 0.451515347 0.615342021 0.586902916
v 0.449520111 0.612509489 0.58014971
v 0.450220853 0.610297441 0.576526523
v 0.452208906 0.603465796 0.568628907
v 0.452588707 0.603250921 0.562447846
v 0.453225344 0.601982951 0.555977225
v 0.450082093 0.603794992 0.5503878
v 0.449975491 0.605580747 0.54472369
v 0.450998992 0.602712095 0.537790775
v 0.451261431 0.602980912 0.5316993
v 0.448314935 0.603955209 0.525865018
v 0.449130267 0.601936221 0.519124925
v 0.448955953 0.604006112 0.5135144
v 0.451265156 0.595828056 0.50501281
v 0.450478435 0.587124586 0.499512196
v 0.450875759 0.586836278 0.493190765
v 0.451172292 0.586966932 0.486980289
v 0.450996637 0.589052618 0.481327027
v 0.450820982 0.591138303 0.475673765
v 0.44764182 0.592971027 0.470020503
v 0.447466165 0.595056653 0.46436727
v 0.44825089 0.59316051 0.457532078
v 0.527948201 0.278218538 0.357055932
v 0.524208188 0.29440257 0.358450651
v 0.519085288 0.317027599 0.35838902
v 0.522557199 0.317980379 0.35174039
v 0.519782126 0.330860794 0.348817348
v 0.520437598 0.329655439 0.341600925
v 0.521415889 0.327128917 0.333961338
v 0.539100826 0.256112397 0.304947644
v 0.539796531 0.268726021 0.301795542
v 0.515043437 0.371238261 0.32716465
v 0.51997 0.365392357 0.321821809
v 0.522827983 0.355268389 0.311766326
v 0.517951965 0.376550943 0.311738521
v 0.493692786 0.463386685 0.333039075
v 0.511982203 0.390352994 0.302656084
v 0.511793315 0.392595917 0.29657656
v 0.511604428 0.39483887 0.290497065
v 0.50643903 0.417319596 0.291114897
v 0.506251276 0.419549078 0.28507188
v 0.502946794 0.420393407 0.282050401
v 0.502759039 0.422622859 0.276007384
v 0.505966008 0.411013216 0.265286714
v 0.50353092 0.422406226 0.262331516
v 0.497936517 0.433329344 0.259345293
v 0.485424697 0.458653629 0.264817655
v 0.482148975 0.459490627 0.261822462
v 0.462241471 0.530110717 0.27959612
v 0.473823935 0.496073604 0.264383167
v 0.473639667 0.498261422 0.258453071
v 0.477416188 0.497381061 0.251352251
v 0.477387905 0.498928905 0.245189235
v 0.473650724 0.501783609 0.242937952
v 0.46716392 0.502720237 0.240103662
v 0.455325782 0.540152788 0.246856153
v 0.459836692 0.536030054 0.23863399
v 0.459745347 0.537114739 0.235693842
v 0.459562629 0.53928417 0.229813531
v 0.459464341 0.541103065 0.223805442
v 0.459281623 0.543272734 0.217924491
v 0.464874178 0.5347507 0.208004862
v 0.465538144 0.533427715 0.200806275
v 0.465779841 0.533851206 0.194244295
v 0.468218386 0.525209546 0.184276462
v 0.46818471 0.526776135 0.178111896
v 0.464429736 0.529723287 0.175946891
v 0.464376301 0.531368971 0.169813573
v 0.464814276 0.530981719 0.162901074
v 0.464792579 0.532497942 0.156709239
v 0.466440231 0.527113557 0.147848397
v 0.468666226 0.51934582 0.138029918
v 0.46849981 0.521468759 0.132032558
v 0.46856764 0.522624731 0.12565513
v 0.470103949 0.517721415 0.116881236
v 0.466739953 0.519660652 0.110899322
v 0.46926266 0.510653555 0.100443348
v 0.46588704 0.512599528 0.0944407657
v 0.46251142 0.5145455 0.0884381831
v 0.462997109 0.51323849 0.0844610408
v 0.46052292 0.511402249 0.0769167542
v 0.457234323 0.512242556 0.0739097372
v 0.590442002 -0.0458780639 -0.16153197
v 0.596483707 -0.0534777753 -0.172910631
v 0.587227285 -0.0131021822 -0.16435428
v 0.463235289 0.506543159 0.04368053
v 0.557800591 0.127582729 -0.117936701
v 0.597958922 -0.0377471484 -0.195019677
v 0.594659448 -0.0223438852 -0.196685672
v 0.59146136 -0.00737327104 -0.198479921
v 0.590088487 8.62320758e-06 -0.203450412
v 0.587351143 0.0130486954 -0.205980197
v 0.586768866 0.0171400961 -0.212311655
v 0.586223722 0.0210764427 -0.218703553
v 0.588119864 0.0148939928 -0.229483008
v 0.586070299 0.0250640344 -0.233164966
v 0.575953305 0.0530728512 -0.228855401
v 0.576751649 0.0514169149 -0.23764351
v 0.599144936 -0.0239898786 -0.279248893
v 0.595745564 -0.0249738283 -0.283668011
v 0.60092622 -0.0287977681 -0.293771774
v 0.60377723 -0.0388703868 -0.306564063
v 0.603555799 -0.0362414308 -0.313689917
v 0.582425714 0.036218036 -0.284983754
v 0.576913595 0.0762978122 -0.275101155
v 0.573020875 0.0785418972 -0.282023281
v 0.572805762 0.0810957104 -0.288945436
v 0.577430606 0.0783339292 -0.294403523
v 0.606502235 -0.0398009866 -0.357027292
v 0.604744136 -0.0308346748 -0.361251533
v 0.611654878 -0.057566043 -0.382077992
v 0.610687673 -0.0518496893 -0.38784641
v 0.610464096 -0.0491952673 -0.395041257
v 0.610663772 -0.0482810847 -0.40305838
v 0.612161458 -0.0526996553 -0.41361469
v 0.601818323 -0.0244235564 -0.408456564
v 0.475842386 0.482873112 -0.173700586
v 0.476837307 0.479500055 -0.178974137
v 0.477221966 0.479402512 -0.186344072
v 0.480665684 0.480609089 -0.193227619
v 0.47672841 0.484434992 -0.198570818
v 0.475773305 0.489130795 -0.199949324
v 0.475580245 0.49142316 -0.206162781
v 0.4711743 0.497218698 -0.210514247
v 0.471795648 0.496133268 -0.218390122
v 0.471637934 0.498279005 -0.224675506
v 0.483639896 0.464170367 -0.249199137
v 0.483444691 0.466488272 -0.255481869
v 0.490409136 0.453407884 -0.269663453
v 0.490311086 0.45457235 -0.272819757
v 0.493468761 0.457183719 -0.279132366
v 0.493272603 0.459512651 -0.285444975
v 0.496528357 0.460959584 -0.288601279
v 0.496332228 0.463288516 -0.294913888
v 0.499489903 0.465899915 -0.301226497
v 0.499293745 0.468228847 -0.307539105
v 0.502016246 0.458772272 -0.31997779
v 0.498901159 0.472887963 -0.320163667
v 0.498928905 0.474313617 -0.326949924
v 0.501590967 0.478919327 -0.332214206
v 0.495948225 0.489404887 -0.33406049
v 0.496035993 0.489818305 -0.337604016
v 0.502150953 0.480527639 -0.350233197
v 0.496972084 0.488351405 -0.349689186
v 0.498644799 0.483156711 -0.360024542
v 0.49951005 0.481217444 -0.368642658
v 0.504793644 0.47535339 -0.379555136
v 0.50266099 0.485440522 -0.381694436
v 0.505827069 0.488058835 -0.388023794
v 0.512572825 0.475701571 -0.398733169
v 0.515809953 0.478103101 -0.40521422
v 0.515387475 0.481335908 -0.411081493
v 0.518349171 0.484817207 -0.416964442
v 0.518055677 0.486754209 -0.419716656
v 0.516286254 0.495268017 -0.422631502
v 0.516298234 0.496787101 -0.42942971
v 0.513959646 0.507524431 -0.431054324
v 0.512181222 0.516058087 -0.433882445
v 0.51237011 0.503395975 -0.448524773
v 0.510362029 0.512856424 -0.450817049
v 0.505423665 0.520353734 -0.454035342
v 0.505056202 0.522581577 -0.456585944
v 0.504235804 0.527373075 -0.461486757
v 0.507529259 0.529445648 -0.468107224
v 0.505891919 0.537428677 -0.471142977
v 0.501829743 0.541515768 -0.476254076
v 0.498366594 0.542475462 -0.479355574
v 0.499471724 0.526081145 -0.496437103
v 0.50102973 0.521457434 -0.506857514
v 0.495378405 0.531030357 -0.504917979
v 0.501546979 0.508030474 -0.526217937
v 0.50537771 0.508132935 -0.534101069
v 0.507595897 0.500919461 -0.546184897
v 0.506703138 0.506027341 -0.550944328
v 0.503256857 0.507501543 -0.557700992
v 0.503545642 0.507925868 -0.565266013
v 0.500218391 0.508129597 -0.568884015
v 0.497100204 0.508274198 -0.576458097
v 0.495571196 0.502020717 -0.587936044
v 0.492058873 0.502918184 -0.591147602
v 0.492731363 0.501772285 -0.599723399
v 0.489215255 0.502670705 -0.602938414
v 0.487272322 0.497956991 -0.613555074
v 0.494885266 0.468602121 -0.639617026
v 0.491226494 0.470711321 -0.646123052
v 0.48313731 0.490172565 -0.637840688
v 0.479499161 0.492269874 -0.644310117
v 0.479298145 0.494656682 -0.650779605
v 0.475659996 0.496753991 -0.657249033
v 0.475559503 0.497947365 -0.660483718
v 0.475358486 0.500334144 -0.666953146
v 0.475559503 0.497947365 -0.660483718
v 0.473689228 0.489611536 -0.657566786
v 0.470400572 0.490232348 -0.664979994
v 0.466754466 0.492334217 -0.671463549
v 0.46740818 0.49037987 -0.676701665
v 0.468991995 0.485321939 -0.687932014
v 0.464755207 0.489856511 -0.692887604
v 0.46548903 0.488334775 -0.701899767
v 0.466922343 0.483888298 -0.71281302
v 0.463255107 0.486002386 -0.719334185
v 0.463153809 0.487205297 -0.722594738
v 0.462951183 0.489611179 -0.729115903
v 0.4614335 0.482658833 -0.741547704
v 0.464087754 0.473025024 -0.755970061
v 0.463883817 0.475446403 -0.762533247
v 0.46367991 0.477867782 -0.769096434
v 0.466962934 0.480582833 -0.775659621
v 0.46686095 0.481793523 -0.778941214
v 0.466657043 0.484214902 -0.785504401
v 0.466453105 0.486636281 -0.792067587
v 0.466249168 0.48905766 -0.798630774
v 0.46604526 0.491479009 -0.805193961
v 0.465841323 0.493900388 -0.811757147
v 0.469124347 0.49661544 -0.818320394
v 0.46892041 0.499036819 -0.82488358
v 0.471803576 0.488631964 -0.840209842
v 0.477347493 0.482064277 -0.853172183
v 0.477142185 0.484502077 -0.859779835
v 0.48055011 0.486016601 -0.863083661
v 0.482149035 0.509503543 -0.851408184
v 0.48553443 0.511008084 -0.854690194
v 0.490250766 0.521473467 -0.851959348
v 0.501013815 0.505280018 -0.855343342
v 0.504609466 0.504361272 -0.852055609
v 0.508307219 0.502229631 -0.845480144
v 0.511902809 0.501310885 -0.842192411
v 0.518991888 0.500686347 -0.838904738
v 0.525978804 0.501274765 -0.838904738
v 0.532863617 0.503076196 -0.842192411
v 0.536357045 0.503370404 -0.842192411
v 0.543139696 0.50638473 -0.848767877
v 0.546530962 0.507891893 -0.852055609
v 0.549922287 0.509399056 -0.855343342
v 0.553211451 0.512119174 -0.861918807
v 0.553007126 0.514545083 -0.868494272
v 0.556296289 0.517265201 -0.875069737
v 0.556091964 0.51969111 -0.881645143
v 0.552394211 0.52182281 -0.888220608
v 0.552292049 0.523035765 -0.891508341
v 0.548594296 0.525167465 -0.898083806
v 0.544998705 0.526086211 -0.901371539
v 0.537909627 0.526710689 -0.904659271
v 0.528988719 0.535153806 -0.906521142
v 0.528886795 0.536364257 -0.909802139
v 0.523781717 0.543913662 -0.912474692
v 0.520199478 0.544828951 -0.915750206
v 0.518084109 0.540894449 -0.926669717
v 0.514622331 0.541318119 -0.930307806
v 0.503546357 0.557577789 -0.922277749
v 0.496402055 0.559403241 -0.928810239
v 0.49164775 0.564193428 -0.925121129
v 0.486536384 0.557144463 -0.933957219
v 0.490371495 0.528342605 -0.958865762
v 0.491676003 0.52472657 -0.969885826
v 0.49223271 0.524112344 -0.978735626
v 0.488511652 0.526257455 -0.985352576
v 0.485088378 0.527200043 -0.992857516
v 0.476559341 0.533501446 -0.991971493
v 0.473048717 0.533205748 -0.991971493
v 0.466308445 0.531454146 -0.992829442
v 0.459901243 0.528293133 -0.994729042
v 0.452974677 0.526480794 -0.991421342
v 0.449717969 0.524308264 -0.988596916
v 0.444118708 0.51682353 -0.989457905
v 0.440700144 0.515304208 -0.986143768
v 0.437794298 0.510795295 -0.980807185
v 0.438000351 0.508348584 -0.974175334
v 0.438096434 0.506376624 -0.967198789
v 0.43654564 0.511517465 -0.955079973
v 0.429083437 0.526811004 -0.9354707
v 0.425690353 0.525303066 -0.932181239
v 0.422367126 0.52348876 -0.929111779
v 0.418117493 0.524992466 -0.91950959
v 0.415744126 0.518985868 -0.919437349
v 0.412664175 0.515321612 -0.913527548
v 0.409371763 0.512598813 -0.906945586
v 0.406633466 0.50813514 -0.905745029
v 0.404738635 0.499070525 -0.903625071
v 0.401436806 0.496339947 -0.897024274
v 0.400144994 0.501469314 -0.889275134
v 0.397520006 0.495675683 -0.884829879
v 0.394621432 0.491107464 -0.879516125
v 0.393638819 0.494140953 -0.869128108
v 0.391025454 0.489003599 -0.868344545
v 0.390306532 0.490848333 -0.858801663
v 0.38715148 0.48747623 -0.852661014
v 0.383856624 0.484751403 -0.846074164
v 0.38376376 0.48445037 -0.842156529
v 0.383968353 0.482020944 -0.835571527
v 0.380674422 0.479296863 -0.828986526
v 0.380330145 0.47945419 -0.820654511
v 0.378887624 0.468701988 -0.823595583
v 0.377687395 0.472928643 -0.812524021
v 0.376388967 0.47762692 -0.801170111
v 0.375567108 0.480070502 -0.791354656
v 0.374258578 0.467941523 -0.791045308
v 0.373531848 0.469958425 -0.781525254
v 0.373587251 0.468244493 -0.774486184
v 0.373108536 0.469082773 -0.765774786
v 0.371998221 0.472942352 -0.755103171
v 0.37157172 0.473538071 -0.746589541
v 0.371418804 0.472827673 -0.73893863
v 0.371516854 0.470917821 -0.732071877
v 0.371720076 0.468504936 -0.725531638
v 0.371923268 0.46609202 -0.718991458
v 0.37212649 0.463679135 -0.71245122
v 0.372329712 0.46126622 -0.70591104
v 0.372532904 0.458853334 -0.699370801
v 0.372724593 0.473374933 -0.682311118
v 0.373405367 0.468688607 -0.677242935
v 0.374045461 0.464194596 -0.672043025
v 0.374247938 0.461790651 -0.665527046
v 0.374450386 0.459386677 -0.659011126
v 0.374652863 0.456982732 -0.652495146
v 0.374583364 0.473365933 -0.638535559
v 0.374784768 0.470974535 -0.632053614
v 0.377191246 0.458076298 -0.632022798
v 0.377393275 0.455677301 -0.62552017
v 0.376662314 0.474388987 -0.606333554
v 0.378523052 0.464125097 -0.604653656
v 0.378724307 0.461735457 -0.598176479
v 0.380697668 0.467526287 -0.586948395
v 0.381747395 0.461845577 -0.586414814
v 0.381948441 0.459458381 -0.579944313
v 0.384632647 0.461855561 -0.570794106
v 0.385788232 0.454973519 -0.56700331
v 0.386824965 0.465078592 -0.553315401
v 0.387234241 0.461719722 -0.547446311
v 0.382102042 0.501250803 -0.520450234
v 0.38229996 0.498900771 -0.514080465
v 0.384606212 0.486696929 -0.513457537
v 0.387880981 0.469955951 -0.515423357
v 0.381428272 0.514710128 -0.481911391
v 0.380132496 0.519325972 -0.47158137
v 0.379124403 0.522607625 -0.462049693
v 0.376548737 0.517301023 -0.457291007
v 0.376646698 0.51613766 -0.454137683
v 0.376842648 0.513810933 -0.447831005
v 0.376461804 0.514188886 -0.439994723
v 0.378768682 0.485847741 -0.448185861
v 0.575851262 -0.486097604 -0.99016273
v 0.56782949 -0.490303606 -0.992111981
v 0.563582301 -0.492191136 -0.987994492
v 0.556168795 -0.500353098 -0.987180352
v 0.556415856 -0.503350854 -0.978909135
v 0.555783331 -0.502047181 -0.968252301
v 0.555933058 -0.504566729 -0.959727347
v 0.556189001 -0.507605612 -0.951490462
v 0.550863445 -0.504192948 -0.944462955
v 0.335402697 0.52132678 -0.373826176
v 0.332084298 0.521047294 -0.373826176
v 0.324964076 0.522930443 -0.372492164
v 0.318332285 0.522371888 -0.372492164
v 0.311454862 0.522430122 -0.368408114
v 0.304653108 0.522777438 -0.367914736
v 0.297543973 0.524765551 -0.366527766
v 0.291045517 0.524187386 -0.370281905
v 0.283819377 0.526878059 -0.368509203
v 0.27659452 0.529635251 -0.366700828
v 0.269984394 0.529078543 -0.366700828
v 0.263374299 0.528521836 -0.366700828
v 0.255949885 0.532559931 -0.364195168
v 0.253362477 0.528834283 -0.369811237
v 0.245484069 0.535560608 -0.365832269
v 0.238795429 0.535547972 -0.365535766
v 0.232104868 0.536137342 -0.368638664
v 0.225510731 0.535582006 -0.368638664
v 0.216989592 0.546642423 -0.362283498
v 0.21032308 0.547229707 -0.365375251
v 0.206896931 0.547818601 -0.364900798
v 0.200328261 0.54726541 -0.364900798
v 0.193663552 0.547852516 -0.367991716
v 0.187094867 0.547299325 -0.367991716
v 0.180526197 0.546746075 -0.367991716
v 0.173861489 0.547333241 -0.371082634
v 0.167206407 0.547354221 -0.370766878
v 0.159251601 0.556149185 -0.365627527
v 0.152656853 0.556396782 -0.368894964
v 0.149333209 0.556458771 -0.368708938
v 0.142667398 0.556726515 -0.368257761
v 0.135474995 0.560747564 -0.36574018
v 0.128841966 0.561331928 -0.368816406
v 0.122304522 0.56078136 -0.368816406
v 0.115767077 0.560230792 -0.368816406
v 0.108986922 0.561505497 -0.367809981
v 0.102596611 0.560264528 -0.371892631
v 0.0993278846 0.559989274 -0.371892631
v 0.0920636505 0.565123916 -0.368752658
v 0.0855044872 0.564839184 -0.368606418
v 0.0788751468 0.565130472 -0.368142217
v 0.0719942376 0.567517936 -0.366521001
v 0.065861173 0.564088881 -0.371806622
v 0.0588637032 0.567551553 -0.369587898
v 0.0523460805 0.567002654 -0.369587898
v 0.0458284616 0.566453755 -0.369587898
v 0.039310839 0.565904856 -0.369587898
v 0.032596752 0.567152858 -0.368594915
v 0.0260827877 0.566604257 -0.368594915
v 0.0229214933 0.565664053 -0.372654796
v 0.016216604 0.566912234 -0.371660084
v 0.00970264059 0.566363633 -0.371660084
v 0.00287554064 0.568943202 -0.369929194
v -0.00395018421 0.571639657 -0.36813423
v -0.0104511809 0.571092188 -0.36813423
v -0.0169911142 0.570959091 -0.367905021
v -0.0234912671 0.570411682 -0.367905021
v -0.0300492216 0.570578218 -0.37119329
v -0.0365502164 0.570030749 -0.37119329
v -0.0430512168 0.569483221 -0.37119329
v -0.0495481081 0.568886697 -0.37122044
v -0.0560094304 0.56785208 -0.371490091
v -0.0625115186 0.567304492 -0.371490091
v -0.0690513998 0.567244112 -0.37122044
v -0.0755524933 0.566696644 -0.37122044
v -0.0821279138 0.567160606 -0.370660841
v -0.0886650532 0.56714642 -0.370365888
v -0.0951630101 0.56659919 -0.370365888
v -0.101723865 0.566985786 -0.369849503
v -0.108219929 0.566438675 -0.369849503
v -0.114715993 0.565891623 -0.369849503
v -0.121212058 0.565344512 -0.369849503
v -0.127708122 0.564797401 -0.369849503
v -0.134188369 0.563973725 -0.370002359
v -0.140684992 0.563426554 -0.370002359
v -0.147126988 0.56185019 -0.370570809
v -0.153617382 0.561139762 -0.370660841
v -0.160099328 0.560243666 -0.370853394
v -0.16659908 0.559696257 -0.370853394
v -0.173098832 0.559148848 -0.370853394
v -0.179598585 0.558601439 -0.370853394
v -0.186088353 0.557810187 -0.370987922
v -0.192509085 0.556533515 -0.367709428
v -0.199002787 0.555830896 -0.367794901
v -0.20550254 0.555283487 -0.367794901
v -0.212002292 0.554736078 -0.367794901
v -0.218502045 0.554188669 -0.367794901
v -0.225001797 0.55364126 -0.367794901
v -0.231443882 0.550932765 -0.368983328
v -0.237948 0.550384998 -0.368983328
v -0.241159484 0.551285923 -0.364658773
v -0.247609079 0.548434198 -0.365922809
v -0.254054248 0.544881403 -0.367570937
v -0.26053077 0.542418361 -0.368620932
v -0.267044812 0.54186976 -0.368620932
v -0.273558885 0.541321158 -0.368620932
v -0.279977709 0.539641678 -0.365555704
v -0.286491752 0.539093077 -0.365555704
v -0.293005824 0.538544416 -0.365555704
v -0.299519867 0.537995815 -0.365555704
v -0.306025982 0.535157025 -0.366807461
v -0.312541813 0.532646716 -0.367879272
v -0.319065541 0.530145109 -0.368945956
v -0.325592101 0.529595494 -0.368945956
v -0.328755647 0.529402733 -0.36521247
v -0.335286528 0.527637959 -0.365874857
v -0.341813087 0.527088284 -0.365874857
v -0.348350734 0.525384009 -0.366503924
v -0.354994833 0.524272859 -0.37050122
v -0.361531019 0.523437142 -0.370657086
v -0.368063927 0.522886992 -0.370657086
v -0.374596804 0.522336781 -0.370657086
v -0.381133854 0.52157414 -0.370772958
v -0.387637764 0.52237922 -0.370033741
v -0.394314736 0.520819366 -0.374278158
v -0.400793374 0.522453547 -0.373084575
v -0.404212624 0.521128297 -0.377353162
v -0.410745591 0.520644844 -0.377316535
v -0.417369753 0.521427929 -0.380282342
v -0.420718491 0.522726119 -0.383115947
v -0.427457929 0.524005651 -0.389506668
v -0.43073979 0.527172983 -0.391305566
v -0.431324244 0.518232286 -0.40367189
v -0.434792012 0.520231366 -0.409838319
v -0.434983611 0.522506356 -0.416004777
v -0.438661814 0.51887542 -0.425334454
v -0.438757777 0.520014942 -0.428423017
v -0.439119786 0.517759085 -0.437163651
v -0.439371347 0.518461943 -0.444245875
v -0.439563632 0.520745158 -0.450434655
v -0.439998984 0.516592622 -0.460306138
v -0.443486214 0.518602908 -0.466507196
v -0.443718225 0.519880295 -0.473291069
v -0.444088459 0.517621815 -0.482127279
v -0.444281459 0.519913495 -0.488338947
v -0.444481075 0.522036612 -0.494649082
v -0.444986522 0.516377211 -0.505521178
v -0.445634425 0.50713563 -0.518538177
v -0.446314633 0.497127056 -0.532062232
v -0.44650954 0.499441355 -0.538335204
v -0.444613338 0.469891846 -0.563749731
v -0.444711745 0.471060425 -0.566917121
v -0.444786519 0.476547122 -0.571365237
v -0.442119777 0.465973586 -0.585627437
v -0.442317188 0.468317807 -0.59198153
v -0.442514628 0.470662057 -0.598335624
v -0.439916104 0.45764488 -0.614210546
v -0.440114468 0.460000247 -0.6205948
v -0.43989411 0.473600566 -0.620082974
v -0.437119335 0.464996666 -0.633363366
v -0.437218517 0.466174334 -0.636555493
v -0.437416881 0.468529701 -0.642939746
v -0.437731057 0.467713267 -0.651295662
v -0.43792963 0.470070899 -0.657686114
v -0.438128203 0.47242853 -0.664076507
v -0.43528536 0.465175897 -0.676690042
v -0.435484499 0.467540622 -0.683099687
v -0.435683668 0.469905347 -0.689509273
v -0.435882807 0.472270072 -0.695918918
v -0.436081976 0.474634796 -0.702328503
v -0.436188668 0.4795551 -0.707100451
v -0.436387688 0.481917977 -0.713505089
v -0.43370074 0.465915054 -0.72796768
v -0.433900803 0.468290508 -0.734406352
v -0.434120983 0.470098317 -0.741213679
v -0.434342563 0.471869498 -0.74804765
v -0.434542686 0.474245787 -0.754488647
v -0.434742838 0.476622105 -0.760929644
v -0.434942961 0.478998393 -0.767370701
v -0.438429654 0.484755903 -0.771384597
v -0.438976288 0.477760196 -0.784038544
v -0.439188033 0.479837209 -0.790692925
v -0.439388514 0.482217848 -0.797145724
v -0.439828426 0.478174329 -0.807910562
v -0.443217814 0.486690432 -0.810051322
v -0.443627983 0.483623087 -0.82018733
v -0.444037616 0.480594933 -0.830323637
v -0.447463632 0.488103092 -0.833114386
v -0.447626531 0.487723708 -0.837418318
v -0.447980195 0.486276597 -0.846509099
v -0.451464027 0.492205858 -0.850351572
v -0.451822162 0.490763992 -0.859457433
v -0.455134928 0.4970631 -0.858968437
v -0.455401987 0.497880876 -0.86651808
v -0.458970577 0.501543105 -0.871895492
v -0.459239483 0.502363026 -0.879451334
v -0.462635398 0.506410301 -0.88048625
v -0.46626845 0.508504689 -0.886946619
v -0.466469198 0.5108881 -0.893407047
v -0.470102251 0.512982488 -0.899867415
v -0.473576576 0.518375933 -0.903988421
v -0.473784298 0.517335594 -0.908800006
v -0.477306217 0.521658719 -0.913669169
v -0.480700254 0.528413773 -0.916787922
v -0.481035858 0.524941504 -0.923349917
v -0.487848461 0.531403482 -0.926454723
v -0.491372496 0.532303929 -0.92967701
v -0.49551633 0.524941623 -0.942950845
v -0.499515891 0.517550647 -0.952185452
v -0.500121891 0.512739539 -0.963895917
v -0.500323713 0.515135467 -0.97039026
v -0.500525475 0.517531455 -0.976884544
v -0.504454434 0.514827549 -0.986908019
v -0.508112013 0.516936064 -0.993411958
v -0.511323273 0.52072978 -0.990404606
v -0.518269181 0.525095642 -0.995016277
v -0.524824679 0.529837906 -0.991085112
v -0.528203905 0.533259928 -0.99246347
v -0.535116374 0.532200456 -0.992818534
v -0.541997552 0.53162092 -0.992818534
v -0.549084902 0.525556684 -0.99274689
v -0.552429318 0.524070323 -0.989504695
v -0.555968463 0.517365336 -0.98597312
v -0.555543661 0.51801157 -0.977255523
v -0.554652274 0.52503866 -0.963901341
v -0.5553298 0.556851625 -0.932379603
v -0.558151841 0.561747253 -0.924566686
v -0.564839303 0.559987783 -0.921380699
v -0.572847903 0.541555643 -0.930238068
v -0.57625854 0.541268408 -0.930238068
v -0.582880259 0.538325608 -0.923818588
v -0.58594352 0.539827824 -0.918472886
v -0.58915168 0.537174642 -0.912059367
v -0.593957424 0.518116772 -0.921417475
v -0.596900582 0.518730044 -0.912633598
v -0.599962473 0.517909706 -0.904883325
v -0.599761367 0.517884791 -0.900840938
v -0.595873773 0.518924952 -0.892198801
v -0.59594202 0.51342386 -0.887968898
v -0.592395544 0.510474801 -0.882137299
v -0.588875234 0.509575307 -0.878918469
v -0.585634172 0.502876341 -0.875695586
v -0.578683794 0.502264082 -0.872472167
v -0.575258672 0.502552509 -0.872472167
v -0.566952586 0.522048652 -0.859301865
v -0.559942901 0.520257592 -0.852892399
v -0.553185165 0.517550647 -0.851141036
v -0.550049126 0.514044702 -0.853768468
v -0.543371797 0.509901226 -0.853001773
v -0.541044474 0.491620004 -0.861789525
v -0.537410319 0.48952499 -0.855327189
v -0.537247539 0.486573994 -0.849253416
v -0.53342104 0.490099669 -0.842990756
v -0.533498049 0.483503461 -0.839410186
v -0.529590607 0.485625744 -0.830081284
v -0.529390037 0.483244389 -0.823626578
v -0.525590181 0.483829945 -0.815365016
v -0.525330424 0.482387692 -0.808285594
v -0.525082409 0.480763137 -0.801332831
v -0.52474761 0.480515748 -0.79346478
v -0.524547279 0.47814095 -0.787021577
v -0.524238467 0.477491677 -0.779435337
v -0.523795187 0.478988349 -0.770441175
v -0.523490846 0.478281796 -0.762914598
v -0.52300936 0.480411381 -0.753538072
v -0.522666752 0.480334431 -0.745623589
v -0.525973558 0.47613284 -0.740215659
v -0.525649488 0.478489488 -0.734709084
v -0.525156796 0.480763376 -0.725298822
v -0.524529696 0.485181957 -0.714529335
v -0.527692914 0.483043879 -0.707817078
v -0.527398705 0.482183993 -0.700472832
v -0.530788779 0.479223281 -0.698235989
v -0.529788375 0.489234746 -0.683986485
v -0.532877624 0.48802954 -0.676719368
v -0.532666504 0.485888213 -0.670229197
v -0.535847962 0.483257145 -0.663868964
v -0.539029479 0.480626047 -0.657508731
v -0.538632452 0.483875245 -0.651565611
v -0.541066647 0.492120355 -0.638447523
v -0.543460369 0.500663102 -0.625197709
v -0.546694279 0.499501318 -0.621867239
v -0.546110511 0.502704918 -0.612149954
v -0.549353361 0.498796523 -0.606652021
v -0.552355766 0.503303111 -0.603712738
v -0.555457473 0.501320958 -0.597042263
v -0.555171549 0.500242412 -0.589995861
v -0.560857236 0.508062005 -0.577216566
v -0.560759902 0.506905973 -0.57408309
v -0.563651562 0.50753051 -0.565876186
v -0.563113332 0.509774148 -0.556880236
v -0.566417694 0.507296443 -0.554380417
v -0.569545865 0.504712224 -0.548124552
v -0.565801501 0.505668044 -0.540096164
v -0.565488338 0.504926562 -0.532921374
v -0.565850735 0.495299429 -0.530997336
v -0.564112842 0.513332129 -0.512781501
v -0.562902987 0.524456263 -0.49870494
v -0.56568265 0.526056468 -0.49008283
v -0.568893671 0.524379134 -0.487140208
v -0.572084844 0.522960961 -0.484046519
v -0.575095356 0.521465659 -0.477243632
v -0.575228989 0.515076399 -0.473423988
v -0.571829498 0.512003541 -0.467841864
v -0.570749342 0.521083713 -0.455152035
v -0.574526429 0.509807944 -0.453941792
v -0.578202963 0.502334356 -0.454285026
v -0.578010261 0.500046313 -0.448083371
v -0.577317894 0.504027367 -0.438350469
v -0.66051805 -0.489500433 -0.992910326
v -0.66946131 -0.500688612 -0.9890306
v -0.674162626 -0.508908272 -0.988543808
v -0.673348486 -0.505146563 -0.976692557
v -0.672678351 -0.503095925 -0.965819955
v -0.677713752 -0.51827985 -0.964278281
v -0.6777789 -0.474740744 -0.930424273
v -0.682404816 -0.482340962 -0.929579616
v -0.691541374 -0.492956698 -0.930174053
v -0.695810556 -0.493316233 -0.930174053
v -0.704887509 -0.505688429 -0.926869452
v -0.709396064 -0.51141566 -0.924952567
v -0.713389397 -0.51433903 -0.916671216
v -0.717545569 -0.516186118 -0.912642002
v -0.717027962 -0.516296327 -0.903044522
v -0.716251612 -0.513622522 -0.891969562
v -0.711022198 -0.508556843 -0.87983638
v -0.70672667 -0.510715365 -0.876374006
v -0.704157233 -0.534959137 -0.879810512
v -0.699527681 -0.536551595 -0.871199608
v -0.694886923 -0.535074532 -0.865793824
v -0.685749292 -0.530662298 -0.859040558
v -0.677798867 -0.54018122 -0.859605193
v -0.674046099 -0.549298108 -0.85975194
v -0.66466248 -0.538755596 -0.854611337
v -0.656090617 -0.538033664 -0.854611337
v -0.646496534 -0.475479305 -0.812562346
v -0.640775919 -0.461681843 -0.796115577
v -0.640621543 -0.462730467 -0.791945338
v -0.640278578 -0.464378744 -0.783375859
v -0.63988775 -0.465395004 -0.774487376
v -0.644504845 -0.477246433 -0.770967782
v -0.643791735 -0.474105388 -0.759956121
v -0.643367112 -0.474698752 -0.750864625
v -0.64256686 -0.470393121 -0.739310503
v -0.641835153 -0.466960788 -0.728227198
v -0.646408439 -0.478349745 -0.72441107
v -0.646092236 -0.477308869 -0.719215155
v -0.644959807 -0.468753904 -0.705622613
v -0.649353921 -0.477844954 -0.700637519
v -0.648520768 -0.473223865 -0.689045966
v -0.605834723 0.113735214 -0.391763538
v -0.607306123 0.134940937 -0.373270243
v -0.612822533 0.1106297 -0.384989202
v -0.62048769 0.0993310437 -0.382195234
v -0.626077235 0.0727995262 -0.390905708
v -0.62960273 0.0712326989 -0.387487829
v -0.637095571 0.0654766709 -0.385943264
v -0.64826262 0.015778169 -0.401456088
v -0.652159512 0.0130511569 -0.402616441
v -0.663895547 -0.0404805802 -0.419743985
v -0.667399347 -0.0407854989 -0.415608436
v -0.677644849 -0.0735204816 -0.426748693
v -0.677864492 -0.0808239579 -0.421888739
v -0.683511198 -0.105968662 -0.425265431
v -0.683400452 -0.10728395 -0.421700329
v -0.682964861 -0.107646599 -0.413508832
v -0.682253718 -0.105080649 -0.40396297
v -0.682032585 -0.107706167 -0.396846473
v -0.681029201 -0.102011144 -0.385890096
v -0.680808544 -0.104631029 -0.378788888
v -0.68287921 -0.131683767 -0.382858396
v -0.687104046 -0.141511962 -0.378839314
v -0.686500132 -0.140115917 -0.369852394
v -0.686852992 -0.148846969 -0.365447462
v -0.687753975 -0.163408279 -0.363632172
v -0.685539603 -0.144908801 -0.347004771
v -0.684806466 -0.142109334 -0.337443829
v -0.686067283 -0.160529092 -0.337289989
v -0.685632467 -0.160909772 -0.329129845
v -0.680788398 -0.151899457 -0.321153998
v -0.680655599 -0.155496091 -0.314432234
v -0.680604935 -0.159982949 -0.308093518
v -0.680382848 -0.16261977 -0.300946385
v -0.680160761 -0.16525659 -0.293799251
v -0.680411458 -0.173022419 -0.288850129
v -0.680300295 -0.174342543 -0.285271883
v -0.666415751 -0.0683549643 -0.232038364
v -0.672587812 -0.100518964 -0.237474576
v -0.674441636 -0.125684381 -0.239971459
v -0.677628577 -0.165455103 -0.248495072
v -0.677432179 -0.168354124 -0.24148716
v -0.677186072 -0.170709625 -0.234252602
v -0.676616848 -0.16952537 -0.225557774
v -0.67602855 -0.168122083 -0.216788858
v -0.679100156 -0.165807292 -0.207534373
v -0.678989887 -0.167116553 -0.203985572
v -0.67876935 -0.169735089 -0.196887985
v -0.67826277 -0.169234872 -0.188532069
v -0.677102387 -0.16158852 -0.17732057
v -0.676727593 -0.122178815 -0.153342128
v -0.683377326 -0.114477508 -0.150017455
v -0.683160365 -0.117053524 -0.143035099
v -0.683220744 -0.122576773 -0.137217268
v -0.687636018 -0.132721663 -0.137089998
v -0.682895064 -0.126443729 -0.126735821
v -0.678318322 -0.121739052 -0.117029794
v -0.678593516 -0.129617006 -0.112112641
v -0.671066344 -0.130314529 -0.108633526
v -0.671181738 -0.134070367 -0.106093541
v -0.671784341 -0.145696476 -0.102578066
v -0.671166897 -0.143862844 -0.0938855037
v -0.669068038 -0.125627518 -0.0789808035
v -0.668851793 -0.12819536 -0.0720206127
v -0.667120993 -0.113963038 -0.0587472953
v -0.666905642 -0.116519816 -0.0518170968
v -0.661061823 -0.0968894511 -0.0367542021
v -0.660968304 -0.100788936 -0.0303647649
v -0.656505764 -0.0963523015 -0.0210179128
v -0.656476259 -0.0985040963 -0.0179006215
v -0.659492016 -0.137893051 -0.024456067
v -0.652315021 -0.102391616 -0.00381362299
v -0.645486236 -0.0700337291 0.0155448904
v -0.645315468 -0.0730320811 0.0221921802
v -0.641207337 -0.0695061237 0.0272049941
v -0.640446901 -0.0655126795 0.0363328047
v -0.636069775 -0.0610870905 0.0454799011
v -0.635350227 -0.0574771091 0.0544205904
v -0.628307641 -0.0178365726 0.0720467716
v -0.628083646 -0.0201205891 0.0788202584
v -0.627875209 -0.022594925 0.0855269879
v -0.627666831 -0.0250692591 0.09223371
v -0.626092732 -0.0108372895 0.104667008
v -0.625533581 -0.00899343565 0.112812087
v -0.625326395 -0.01145407 0.119481675
v -0.62511915 -0.0139147043 0.126151264
v -0.624874651 -0.0159176048 0.132974133
v -0.623756409 -0.00715924054 0.143377125
v -0.623085678 -0.00388922147 0.151919797
v -0.603497922 0.232951969 0.237262636
v -0.599116266 0.282439381 0.260409653
v -0.605647087 0.237484857 0.252752632
v -0.605454385 0.235196963 0.258954048
v -0.605261683 0.232909054 0.265155464
v -0.610454917 0.204938516 0.263252079
v -0.610357881 0.203786343 0.266375065
v -0.610887349 0.192673892 0.269836903
v -0.606154799 0.245677114 0.293473899
v -0.606201172 0.240498558 0.298731804
v -0.607394934 0.221291542 0.29964903
v -0.613064706 0.187643424 0.296266496
v -0.613768399 0.174456522 0.299187452
v -0.614600778 0.159679323 0.301666588
v -0.612140119 0.144383579 0.3039518
v -0.612807274 0.131431445 0.307077259
v -0.613523483 0.117847517 0.310055196
v -0.605023503 0.179598406 0.331876755
v -0.604492724 0.181496546 0.339365959
v -0.605916858 0.158971459 0.339663893
v -0.619210124 0.0331693441 0.30638808
v -0.61877197 -0.00915986672 0.301177412
v -0.618568122 -0.0115801999 0.307737768
v -0.62024039 -0.0375585221 0.307535827
v -0.624198377 -0.0484424718 0.31181252
v -0.624177217 -0.0506786332 0.314831525
v -0.623219311 -0.0437500477 0.324093193
v -0.624103963 -0.0597757623 0.326884329
v -0.615974545 -0.0477933064 0.333720416
v -0.612945795 -0.0587873794 0.337865889
v -0.609759092 -0.0653737634 0.339608818
v -0.606267154 -0.0680546612 0.342438936
v -0.599318266 -0.0714034066 0.345007241
v -0.592659771 -0.0762820989 0.343503416
v -0.585453272 -0.0735995695 0.344077229
v -0.577592432 -0.0611830875 0.347326964
v -0.571070075 -0.0683397427 0.345196515
v -0.564346611 -0.0728106126 0.343803912
v -0.514921308 0.603051901 0.532524049
v -0.514751256 0.601032794 0.537996888
v -0.514261127 0.604153097 0.544858694
v -0.518114805 0.584136844 0.545558095
v -0.517588794 0.590110779 0.550173759
v -0.5171206 0.592817903 0.556912065
v -0.516893685 0.591701865 0.562624693
v -0.516400039 0.594837368 0.569446504
v -0.515893281 0.598198175 0.576307476
v -0.514184058 0.620784879 0.588107169
v -0.519309402 0.580411971 0.58375597
v -0.51865679 0.58600992 0.591170311
v -0.518233538 0.588003576 0.597646773
v -0.517864525 0.589148998 0.603895783
v -0.517105162 0.596495867 0.61167413
v -0.516204 0.606124461 0.619980335
v -0.515882432 0.606564999 0.625993907
v -0.515577555 0.606745958 0.631935358
v -0.514826298 0.614057899 0.639587641
v -0.514658749 0.612068295 0.644980371
v -0.518898726 0.587834775 0.642197609
v -0.518729925 0.585830748 0.647629678
v -0.518522561 0.584437013 0.653204858
v -0.518321216 0.582949221 0.658755898
v -0.517714083 0.587899148 0.665791035
v -0.51731348 0.589588106 0.672053814
v -0.517079771 0.58863461 0.677702725
v -0.516717672 0.589729071 0.683809221
v -0.516249537 0.592523813 0.690284252
v -0.515937865 0.592832804 0.696190774
v -0.512241364 0.601859212 0.703951895
v -0.512050509 0.600263834 0.709410965
v -0.511832654 0.599110126 0.714964032
v -0.511646569 0.597439766 0.720403433
v -0.511479676 0.595457852 0.725775421
v -0.510943472 0.599515319 0.73241961
v -0.510612547 0.600228071 0.738343298
v -0.507359147 0.602498293 0.744530082
v -0.507147729 0.601277471 0.750035048
v -0.503772855 0.605757952 0.756648302
v -0.503717184 0.604311168 0.759224117
v -0.503569126 0.602038324 0.764502764
v -0.500174701 0.607068479 0.771187484
v -0.496992737 0.60859859 0.777158082
v -0.496955961 0.606809318 0.779661238
v -0.49370718 0.609637558 0.785871029
v -0.490451783 0.612748325 0.792118907
v -0.49036929 0.61176908 0.794773281
v -0.487232924 0.612850189 0.800614059
v -0.484247476 0.611182213 0.805927694
v -0.48115629 0.614113927 0.809267342
v -0.478113562 0.613641679 0.814795971
v -0.475178152 0.613693535 0.817589879
v -0.4719598 0.616885722 0.823781431
v -0.466121256 0.616625369 0.829287767
v -0.463162601 0.617381811 0.832199037
v -0.460260361 0.614174068 0.837213755
v -0.457181573 0.617697716 0.840612233
v -0.451287329 0.619117379 0.846397758
v -0.448404491 0.618380785 0.849033773
v -0.442557752 0.621969759 0.852381349
v -0.439678639 0.621234059 0.855013967
v -0.436669439 0.623921871 0.858236194
v -0.430970341 0.624219775 0.861002564
v -0.425219864 0.622750401 0.866260707
v -0.422391772 0.624017596 0.866435707
v -0.416599095 0.623943448 0.871926248
v -0.41380769 0.624178529 0.871926248
v -0.408055842 0.626701951 0.875058174
v -0.402382702 0.626725793 0.87776947
v -0.399461508 0.627955139 0.880717933
v -0.393789798 0.628162861 0.883456469
v -0.388124168 0.628213704 0.886168063
v -0.385324419 0.629109144 0.886276186
v -0.379673362 0.628611326 0.888897002
v -0.376749426 0.63092047 0.892010093
v -0.371232986 0.628609478 0.891560137
v -0.365582407 0.62811172 0.894180715
v -0.359915584 0.62880671 0.896992385
v -0.354342341 0.629801214 0.897076607
v -0.351477891 0.629069328 0.899695754
v -0.345905662 0.630207479 0.899802387
v -0.340251058 0.630841732 0.902600348
v -0.334583223 0.634607375 0.905889928
v -0.331717253 0.635407925 0.908744037
v -0.326078713 0.636585414 0.911617815
v -0.323221624 0.636430144 0.914318264
v -0.317510486 0.637736022 0.919964015
v -0.314657569 0.637007058 0.922572672
v -0.309033036 0.636621654 0.925198019
v -0.306180209 0.635892689 0.927806556
v -0.300571114 0.638308704 0.93085134
v -0.297736853 0.640135229 0.93383801
v -0.292122245 0.639664292 0.936445534
v -0.289274424 0.638936639 0.939049482
v -0.283667564 0.639176726 0.941761017
v -0.278082073 0.640913069 0.944689095
v -0.275222093 0.639082015 0.947130859
v -0.269644886 0.640834153 0.950056374
v -0.264049709 0.641058266 0.952759564
v -0.261295587 0.641767502 0.952827692
v -0.255690336 0.641273737 0.955427289
v -0.250130594 0.642897129 0.958325922
v -0.247289509 0.642171204 0.960923731
v -0.24170728 0.642472982 0.963632464
v -0.236142457 0.643334866 0.966417611
v -0.233383983 0.643567204 0.966417611
v -0.227833331 0.644712925 0.969239533
v -0.225066975 0.646400928 0.97216469
v -0.219491482 0.644766569 0.971877217
v -0.213898748 0.644314706 0.974477172
v -0.208376512 0.645879984 0.977349997
v -0.202786177 0.64538753 0.979942679
v -0.200031295 0.645619512 0.979942679
v -0.194440946 0.645127058 0.982535303
v -0.188898623 0.645801902 0.985282958
v -0.186152756 0.646224082 0.98530817
v -0.180539414 0.645151138 0.987823129
v -0.175057665 0.646200001 0.987900317
v -0.169607535 0.647873342 0.988059878
v -0.164021805 0.647381246 0.990650415
v -0.1588182 0.653771877 0.991427541
v -0.156314909 0.659314036 0.994829178
v -0.161570147 0.654935658 0.997026026
v -0.158635378 0.652053118 0.999331236
v -0.153058082 0.652051985 1.00468349
v -0.153084204 0.653116703 1.00752103
v -0.147621378 0.654535651 1.01034164
v -0.142298117 0.658313572 1.01345205
v -0.139500886 0.657956123 1.01607347
v -0.134092391 0.659547925 1.01621294
v -0.128298745 0.654730022 1.01556146
v -0.123354167 0.663800061 1.01662397
v -0.123314179 0.663490176 1.01927495
v -0.122951753 0.658351123 1.02402759
v -0.117201112 0.654769778 1.02623141
v -0.112139992 0.661793053 1.02970374
v -0.106831327 0.66454488 1.02997684
v -0.101451106 0.665952623 1.02740765
v -0.098565869 0.663980305 1.02714324
v -0.0959190577 0.665232718 1.02458107
v -0.0898128301 0.656763971 1.02080703
v -0.0835618898 0.647067547 1.02227271
v -0.0842211694 0.65598768 1.02604532
v -0.0867421553 0.653060079 1.03110862
v -0.0841083005 0.654835582 1.0339812
v -0.0787894428 0.657452941 1.03692091
v -0.0756526738 0.652677178 1.04171324
v -0.0729404613 0.653243124 1.04175174
v -0.0678514466 0.658533216 1.04230678
v -0.0621491745 0.656162024 1.04466498
v -0.0588986166 0.650165081 1.04126525
v -0.0533303246 0.64963007 1.04115057
v -0.0500015207 0.675045431 1.04402053
v -0.0463585034 0.664680481 1.04547966
v -0.0399558172 0.654492795 1.04694915
v -0.0374021046 0.656831086 1.04450464
v -0.0320083946 0.658242345 1.04192901
v -0.0254856832 0.647393107 1.04332137
v -0.0237560794 0.658389449 1.04455101
g path_000000
l 43 42 41 40 39 38 37 36 35 34 33 32 31 30 29 28 27 26 25 24 23 22 21 20 19 18 17 16 15 14 13 12 11 10 9 8 7 6 5 4 3 2 1 1117 1116 1115 1114 1113 1112 1111
g path_000001
l 44 45 46 47
g path_000002
l 48 49 50 51 52 53 54 55 56 57 58 59 60 61 62 63 64 65 66 67 68 69 70 71 72
g path_000003
l 73 74 75 76 77 78 79 80 81 82 83 84 85 86 87 88 89 90 91 92 93 94 95 96 97 98 99 100 101 102 103 104 105 106 107 108 109
g path_000004
l 110 111 112 113 114 115 116 117 118 119 120 121 122 123 124 125 126 127 128 129 130 131 132 133 134 135 136 137 138 139 140 141 142 143 144 145 146 147 148 149 150 151 152 153 154 155 156 157 158 159 160 161 162 163
g path_000005
l 164 165
g path_000006
l 166 167 168 169 170
g path_000007
l 171 172
g path_000008
l 173 174 175
g path_000009
l 178 179 180
g path_000010
l 181 182 183 184 185 186 187
g path_000011
l 188 189
g path_000012
l 191 192 193 194 195 196
g path_000013
l 197 198 199 200 201 202 203 204 205 206 207 208 209 210 211 212 213 214 215 216 217 218 219 220 221 222 223
g path_000014
l 224 225
g path_000015
l 229 230 231 232 233 234 235 236 237
g path_000016
l 238 239
g path_000017
l 240 241 242 243 244
g path_000018
l 246 247 248 249
g path_000019
l 250 251
g path_000020
l 252 253 254 255 256
g path_000021
l 258 259 260 261 262 263 264 265 266 267
g path_000022
l 268 269
g path_000023
l 270 271 272 273 274 275 276 277 278 279 280 281 282 283 284 285 286 287 288 289 290 291 292 293 294 295 296 297 298 299 300 301 302 303 304 305 306 307 308
g path_000024
l 309 310 311
g path_000025
l 312 313 314 315 316 317 318 319 320 321 322 323 324
g path_000026
l 325 326
g path_000027
l 327 328 329 330 331 332 333 334 335 336 337 338 339 340 341 342 343 344 345 346 347 348 349 350 351 352 353 354 355 356 357 358 359 360 361
g path_000028
l 362 363 364 365 366 367 368 369 370 371 372 373 374 375 376 377 378 379 380 381 382 383 384 385 386 387 388 389 390
g path_000029
l 391 392 393 394
g path_000030
l 395 396 397 398 399 400 401 402 403 404 405 406 407 408 409 410 411
g path_000031
l 412 413 414 415 416 417 418 419 420 421 422 423 424 425 426 427 428 429 430 431 432 433 434 435 436 437 438 439 440 441 442 443 444 445 446 447 448 449 450
g path_000032
l 451 452 453 454 455 456
g path_000033
l 457 458 459 460
g path_000034
l 461 462 463 464 465 466 467 468 469 470
g path_000035
l 471 472 473 474
g path_000036
l 475 476 477 478 479 480 481
g path_000037
l 483 484 485 486 487 488 489 490 491
g path_000038
l 492 493 494 495 496 497 498 499 500 501 502 503 504 505 506 507 508 509 510 511 512 513 514 515 516 517 518 519 520 521 522 523 524 525 526 527 528 529 530 531 532 533 534 535 536 537 538 539 540 541 542 543 544 545 546 547 548 549 550 551 552 553 554 555 556 557 558 559 560 561 562 563 564 565 566 567 568 569 570 571 572 573 574 575 576 577 578 579 580 581 582 583 584 585 586 587 588 589 590 591 592 593 594 595 596 597 598 599 600 601 602 603 604 605 606 607 608 609 610 611 612 613 614 615 616 617 618 619 620 621 622 623 624 625 626 627 628 629 630 631
g path_000039
l 632 633 634 635 636 637
g path_000040
l 638 639 640 641 642 643 644 645 646 647 648 649 650 651 652 653
g path_000041
l 654 655 656 657 658 659 660 661 662 663 664 665 666 667 668 669 670 671 672 673 674 675 676 677 678 679 680 681 682 683 684 685 686 687 688 689 690 691 692 693 694 695 696 697 698 699 700 701 702 703 704 705 706
g path_000042
l 707 708 709
g path_000043
l 710 711 712 713 714
g path_000044
l 715 716 717 718 719 720 721 722 723 724 725
g path_000045
l 726 727 728 729 730 731 732 733 734 735 736 737 738 739 740 741 742 743 744 745 746 747 748 749 750 751 752 753 754 755 756 757 758 759 760 761 762 763 764 765 766 767 768 769 770 771 772 773 774 775 776 777
g path_000046
l 778 779 780 781 782 783 784 785 786 787 788 789 790
g path_000047
l 791 792 793 794 795 796
g path_000048
l 797 798 799 800 801 802 803 804 805 806 807 808 809 810 811 812 813 814 815 816
g path_000049
l 817 818 819 820 821 822 823 824 825 826 827 828 829 830 831
g path_000050
l 834 835
g path_000051
l 836 837 838
g path_000052
l 839 840
g path_000053
l 841 842
g path_000054
l 843 844
g path_000055
l 845 846 847 848 849 850 851
g path_000056
l 852 853 854 855 856
g path_000057
l 857 858 859 860 861 862 863 864 865 866 867
g path_000058
l 871 872 873 874 875 876 877 878 879 880
g path_000059
l 881 882 883 884 885 886 887 888 889 890 891 892
g path_000060
l 893 894 895 896
g path_000061
l 897 898 899 900
g path_000062
l 903 904 905 906 907 908
g path_000063
l 909 910 911 912 913 914 915 916 917 918 919
g path_000064
l 922 923 924
g path_000065
l 925 926 927
g path_000066
l 928 929 930
g path_000067
l 931 932 933 934 935 936
g path_000068
l 937 938
g path_000069
l 941 942
g path_000070
l 943 944 945 946 947 948 949 950 951 952 953 954 955 956 957
g path_000071
l 958 959 960
g path_000072
l 961 962 963 964 965 966
g path_000073
l 968 969 970 971 972 973 974 975 976 977
g path_000074
l 978 979 980 981 982 983 984 985 986 987 988 989 990 991 992 993 994 995 996 997 998 999 1000 1001 1002 1003 1004 1005 1006 1007 1008 1009 1010 1011 1012 1013 1014 1015 1016 1017 1018 1019 1020 1021 1022 1023 1024 1025 1026 1027 1028 1029 1030 1031 1032 1033 1034 1035 1036 1037 1038 1039 1040 1041 1042 1043 1044 1045 1046 1047 1048 1049 1050 1051 1052 1053 1054 1055 1056 1057 1058 1059 1060 1061 1062 1063 1064 1065 1066 1067 1068 1069 1070 1071 1072 1073 1074 1075 1076 1077 1078 1079 1080 1081 1082 1083 1084 1085 1086 1087 1088 1089 1090 1091 1092 1093 1094 1095 1096 1097 1098 1099 1100 1101 1102 1103 1104 1105 1106 1107 1108 1109 1110
