# Fixed world centers; Z up; paths immutable
v -0.192575738 0.866232574 0.654244065
v -0.191804126 0.858695388 0.653782964
v -0.190819874 0.850974679 0.653724432
v -0.189893201 0.8433097 0.653558612
v -0.190999225 0.840194464 0.653768241
v -0.190010354 0.832482219 0.653720617
v -0.192591414 0.826576054 0.65344125
v -0.190432012 0.82192713 0.653307021
v -0.192932412 0.815953076 0.653178632
v -0.191874757 0.808196604 0.653260767
v -0.192372724 0.801765859 0.650406539
v -0.190046936 0.802278042 0.641754687
v -0.188474357 0.798129916 0.64050436
v -0.181206509 0.781467497 0.671875656
v -0.184666365 0.783166647 0.671805143
v -0.190112129 0.778511226 0.672549069
v -0.192342371 0.772364795 0.672897577
v -0.191590875 0.764926732 0.672410309
v -0.190665886 0.757349432 0.672249734
v -0.191873059 0.75435549 0.672249734
v -0.190968096 0.74680078 0.672052085
v -0.18967095 0.73893255 0.672592342
v -0.190800458 0.735879481 0.672736049
v -0.189921275 0.72835809 0.672492325
v -0.192275569 0.722332478 0.672599137
v -0.19007796 0.717716992 0.672567904
v -0.192371279 0.711646795 0.672787011
v -0.191453218 0.704108655 0.672616839
v -0.190266117 0.696364224 0.672953069
v -0.192615718 0.690346837 0.673062444
v -0.190621361 0.685906112 0.672654927
v -0.189809039 0.67846632 0.67228961
v -0.191792101 0.672172308 0.673083723
v -0.190209463 0.66805464 0.671906829
v -0.192189902 0.661763549 0.672704577
v -0.191028625 0.654072046 0.672994673
v -0.190157011 0.64660573 0.672742844
v -0.192381874 0.640511811 0.673077226
v -0.190571532 0.636228085 0.672332823
v -0.192499995 0.629917324 0.673221588
v -0.192042455 0.622770905 0.672193825
v -0.190017968 0.618333757 0.67185396
v -0.192207307 0.612224042 0.672250986
v -0.191208422 0.604688227 0.672240078
v -0.190284833 0.597212255 0.672089338
v -0.191294715 0.594100773 0.672445059
v -0.190729052 0.586888492 0.671622992
v -0.192817762 0.580719948 0.672203422
v -0.192091569 0.573398113 0.671682835
v -0.191256568 0.566002846 0.671367288
v -0.192390591 0.562985897 0.671487868
v -0.191392526 0.555482388 0.671478927
v -0.190527141 0.548076272 0.67122227
v -0.191724524 0.545106709 0.67122227
v -0.190615937 0.537539124 0.671422839
v -0.192940727 0.531555712 0.671551943
v -0.187475085 0.52935648 0.669065714
v -0.188360229 0.527702153 0.656841338
v -0.184996843 0.52694273 0.650324941
v -0.188419282 0.526236475 0.639642119
v -0.18975085 0.519524813 0.641691387
v -0.191196501 0.512899876 0.643518448
v -0.192696244 0.50632 0.645237863
v -0.190085545 0.497739881 0.648282707
v -0.191444233 0.49109 0.650258303
v -0.192058101 0.483963281 0.653633595
v -0.18990463 0.47573179 0.655811012
v -0.190936759 0.472651511 0.656125188
v -0.191539213 0.465554655 0.659506142
v -0.189762473 0.461982191 0.652304828
v -0.191575855 0.45694527 0.640541494
v -0.232644141 0.47925511 0.565025091
v -0.241832078 0.476098627 0.565519035
v -0.253938258 0.47922191 0.551664472
v -0.254743606 0.472037256 0.554800928
v -0.255541056 0.464862943 0.557942927
v -0.256137699 0.457580715 0.561451316
v -0.254740894 0.449682564 0.562127173
v -0.254527271 0.44574362 0.564834416
v -0.25409162 0.442244917 0.561405718
v -0.255778104 0.436211824 0.556308985
v -0.255027264 0.429255426 0.549194932
v -0.255061984 0.426013976 0.544857144
v -0.253833443 0.422555774 0.536264539
v -0.253505111 0.422900975 0.530237138
v -0.252449185 0.419531435 0.521246135
v -0.247058868 0.417417258 0.518093765
v -0.634233952 0.643322587 -0.233477607
v -0.633176148 0.633924782 -0.233882859
v -0.635160804 0.630377889 -0.234741136
v -0.633409083 0.620582402 -0.233818561
v -0.637553632 0.613585413 -0.235870823
v -0.634070814 0.607497036 -0.234575108
v -0.63756901 0.600127399 -0.235393539
v -0.636080921 0.590506196 -0.23497586
v -0.635014772 0.581130326 -0.235362843
v -0.636548758 0.57732594 -0.235362843
v -0.634838462 0.577462375 -0.248714089
v -0.635041177 0.56930691 -0.259897888
v -0.633590639 0.559687912 -0.259546995
v -0.635130882 0.555867851 -0.259546995
v -0.633788705 0.546318591 -0.259403765
v -0.637104571 0.538809419 -0.259858698
v -0.634529352 0.533252478 -0.260305583
v -0.637681723 0.525656223 -0.260447174
v -0.636393666 0.51615423 -0.260408461
v -0.629043043 0.513152361 -0.262982458
v -0.634465158 0.507609487 -0.284331769
v -0.636080146 0.503812611 -0.284466147
v -0.634057343 0.493902624 -0.28300333
v -0.632257819 0.484120905 -0.281969488
v -0.634789586 0.48079893 -0.283883244
v -0.633786857 0.471432 -0.284393132
v -0.637429655 0.464054018 -0.285467446
v -0.636925638 0.454940736 -0.286943674
v -0.634041488 0.444650769 -0.283809453
v -0.635692358 0.440879107 -0.28401956
v -0.633944631 0.431169599 -0.283084154
v -0.633057535 0.421887577 -0.283813566
v -0.635038555 0.418277383 -0.284665525
v -0.63397485 0.40891391 -0.285052747
v -0.637673974 0.401562244 -0.286246896
v -0.633398414 0.395239204 -0.283398062
v -0.637772501 0.388205707 -0.28590253
v -0.635699213 0.378389239 -0.284335643
v -0.634326577 0.368907511 -0.284121901
v -0.631025553 0.358558923 -0.280168623
v -0.633352697 0.355104685 -0.281699479
v -0.632116079 0.345706522 -0.281745076
v -0.635189474 0.33808434 -0.281745076
v -0.633206666 0.332854152 -0.283321559
v -0.63628 0.32523194 -0.283321559
v -0.635833919 0.31619066 -0.284898043
v -0.635383487 0.307147503 -0.286466122
v -0.632800758 0.297201246 -0.283901274
v -0.635097742 0.293715149 -0.285376936
v -0.632248402 0.28367734 -0.282294422
v -0.637410998 0.276933879 -0.286348134
v -0.633337021 0.270848453 -0.283868015
v -0.636404753 0.263240188 -0.283868015
v -0.635959446 0.254215419 -0.285441637
v -0.634329975 0.24471949 -0.284721255
v -0.636795521 0.241286591 -0.286526471
v -0.253567755 0.0824498981 0.460152626
v -0.255830944 0.0761691704 0.460602164
v -0.253184587 0.06795232 0.463733107
v -0.254762679 0.0614247024 0.465496212
v -0.256126434 0.054824505 0.467666835
v -0.28250441 0.061275892 0.432985991
v -0.289882213 0.0606093295 0.434897572
v -0.294025362 0.058649268 0.436189383
v -0.302257627 0.0582938641 0.436492383
v -0.301686823 0.0545013733 0.439954519
v -0.304493457 0.0484852158 0.446133465
v -0.312666476 0.044267837 0.435484678
v -0.317616671 0.0390157998 0.43764019
v -0.317242831 0.0317545235 0.443060994
v -0.316849023 0.0245098788 0.448503524
v -0.319361925 0.0182776693 0.448503524
v -0.31765905 0.0139736393 0.447367251
v -0.320321977 0.00779187819 0.44708693
v -0.317079425 -0.00076128525 0.444508851
v -0.319248796 -0.00357830361 0.442801416
v -0.299221098 -0.0175650623 0.471696973
v -0.291860282 -0.0234195553 0.487824589
v -0.297564656 -0.0280545559 0.494929999
v -0.301871002 -0.0336163752 0.491520524
v -0.30932948 -0.0344888866 0.486511379
v -0.313088417 -0.0402506255 0.48414436
v -0.312727898 -0.0475569181 0.4828704
v -0.292560875 -0.0573838949 0.516069233
v -0.286936462 -0.0658839345 0.531054556
v -0.296369076 -0.0695896223 0.524573386
v -0.294994682 -0.076779522 0.531633496
v -0.292500913 -0.084259741 0.540736258
v -0.30268839 -0.0877836272 0.532888293
v -0.194180369 -0.121271357 0.740237415
v -0.201607555 -0.121704638 0.740684152
v -0.208771214 -0.122214258 0.741626799
v -0.212494776 -0.120850883 0.740809202
v -0.219489872 -0.121410936 0.742080748
v -0.226198301 -0.122051552 0.743876636
v -0.234111249 -0.122363918 0.743526757
v -0.237886861 -0.120990314 0.742660403
v -0.244703978 -0.121606626 0.744294047
v -0.252562523 -0.121942364 0.744095445
v -0.253418177 -0.12487302 0.744614482
v -0.254969746 -0.130773351 0.745931983
v -0.252879441 -0.13799274 0.747850537
v -0.254167616 -0.143945768 0.749624789
v -0.254738986 -0.150073051 0.752654612
v -0.252991319 -0.157169193 0.753968418
v -0.253332466 -0.1602083 0.755382001
v -0.254283935 -0.166211903 0.757730663
v -0.256092131 -0.171999693 0.758570731
v -0.253557056 -0.179247484 0.761263311
v -0.254749626 -0.185165107 0.76317507
v -0.255869687 -0.191091344 0.765208602
v -0.316978335 -0.183965161 0.656467795
v -0.317693412 -0.189701602 0.665280104
v -0.317934513 -0.192831516 0.666915476
v -0.31852448 -0.199057803 0.669991851
v -0.317515701 -0.206639484 0.664034843
v -0.320092291 -0.20926784 0.661595285
v -0.317613512 -0.217179254 0.658187926
v -0.318137288 -0.223945022 0.65546149
v -0.319125921 -0.22745961 0.649849176
v -0.317602396 -0.232038677 0.64266187
v -0.316284269 -0.232856974 0.638993382
v -0.316498429 -0.240290061 0.630784929
v -0.311029583 -0.238746598 0.632335365
v -0.304299384 -0.238017723 0.630101562
v -0.30026105 -0.239936054 0.625180006
v -0.30133304 -0.243473098 0.619307697
v -0.293607384 -0.246106952 0.62096405
v -0.287725031 -0.248384595 0.619330823
v -0.281004757 -0.247652128 0.617072999
v -0.277100384 -0.245805025 0.615855634
v -0.272009403 -0.241014987 0.614638269
v -0.172340512 -0.261773348 0.784532666
v -0.168795571 -0.265463829 0.793059349
v -0.162858218 -0.272572011 0.807973802
v -0.162975818 -0.278482795 0.811812282
v -0.161643401 -0.284644842 0.818278909
v -0.170460567 -0.288383335 0.812045515
v -0.172182009 -0.293981731 0.812951505
v -0.169211134 -0.300389767 0.822342157
v -0.169249773 -0.306249201 0.826270998
v -0.175517932 -0.310457438 0.824658453
v -0.176624373 -0.313201517 0.824658453
v -0.172679961 -0.319680691 0.835720062
v -0.173642248 -0.325343281 0.837948561
v -0.163759813 -0.332040459 0.865198195
v -0.170966625 -0.335434407 0.867393434
v -0.172233179 -0.338115007 0.867082119
v -0.181496531 -0.341850817 0.860087216
v -0.185392901 -0.34703657 0.857066929
v -0.185127661 -0.350604624 0.853908002
v -0.170005724 -0.35907951 0.879022539
v -0.175004408 -0.363420486 0.879541695
v -0.175891295 -0.366142094 0.879894555
v -0.16616711 -0.37237969 0.906324685
v -0.160409868 -0.377351165 0.931019127
v -0.163925052 -0.379014164 0.932115138
v -0.169887081 -0.379690528 0.934307158
v -0.173402265 -0.381353527 0.935403168
v -0.190013155 -0.383530527 0.921070814
v -0.187963128 -0.386565208 0.92645669
v -0.187763467 -0.392154694 0.930493116
v -0.196501181 -0.396015167 0.924484134
v -0.212874576 -0.395543039 0.908954501
v -0.215432301 -0.394535899 0.909921885
v -0.224964574 -0.39483285 0.906195641
v -0.231008083 -0.395518482 0.908417642
v -0.22994107 -0.397706717 0.917333603
v -0.240146443 -0.397940278 0.912536621
v -0.248819783 -0.395537317 0.908548057
v -0.251807332 -0.39375034 0.914076746
v -0.254378438 -0.395545006 0.916841567
v -0.252605647 -0.400593609 0.928586006
v -0.255567193 -0.405120224 0.932446659
v -0.256118506 -0.407846749 0.933315694
v -0.253644437 -0.414396971 0.935778499
v -0.255796909 -0.419735312 0.935778499
v -0.254146606 -0.426960379 0.931707263
v -0.255589634 -0.429599106 0.931102514
v -0.256130993 -0.435864955 0.928585708
v -0.254740387 -0.439533114 0.927480102
v -0.253480762 -0.443989635 0.92095387
v -0.250715226 -0.445811898 0.91510886
v -0.249670684 -0.443929076 0.909804761
v -0.24355714 -0.439681172 0.911156952
v -0.234258071 -0.442033529 0.916246533
v -0.230286062 -0.443947554 0.912397563
v -0.223297581 -0.443342865 0.911820173
v -0.215790883 -0.442782104 0.912140012
v -0.216752633 -0.443497211 0.90518117
v -0.202338561 -0.443504423 0.917342067
v -0.19597429 -0.445606291 0.917620003
v -0.191712245 -0.444784701 0.912429929
v -0.191530898 -0.44834587 0.909241855
v -0.189568132 -0.452853352 0.903758109
v -0.182086587 -0.452286571 0.904117703
v -0.179622933 -0.453279942 0.903014183
v -0.172585532 -0.452679783 0.902622521
v -0.169957429 -0.454488009 0.896371841
v -0.168689519 -0.458142966 0.895053685
v -0.163757965 -0.460131437 0.892844737
v -0.158826396 -0.462119907 0.890635729
v -0.152133837 -0.458738625 0.88772583
v -0.14859058 -0.457062364 0.886621058
v -0.136698171 -0.45408988 0.893067658
v -0.13113153 -0.451790452 0.901165843
v -0.128316477 -0.446537316 0.902382314
v -0.214312732 -0.435124457 0.731375754
v -0.182839826 -0.435804129 0.780681193
v -0.0960657001 -0.450406462 0.931414425
v -0.0940674469 -0.45134747 0.9295578
v -0.0932212994 -0.455686361 0.921998858
v -0.0889738053 -0.457594961 0.91871202
v -0.0883734301 -0.461142808 0.916211128
v -0.0789170861 -0.463450283 0.922546983
v -0.150418743 -0.463673294 0.794328272
v -0.154056072 -0.46539405 0.79546237
v -0.160225257 -0.466093928 0.797730565
v -0.166394427 -0.466793835 0.799998701
v -0.174812242 -0.465359718 0.790406883
v -0.179572448 -0.46983853 0.791545153
v -0.183223128 -0.471565604 0.792683423
v -0.209225282 -0.470974058 0.759240031
v -0.212160006 -0.471900523 0.767525911
v -0.209884793 -0.470317185 0.783072174
v -0.211324483 -0.466519594 0.784216821
v -0.218600288 -0.464309484 0.782655358
v -0.221159086 -0.463277757 0.783801556
v -0.227393895 -0.463985085 0.786093831
v -0.228142187 -0.465066224 0.798038304
v -0.231806114 -0.466799587 0.799180686
v -0.239133984 -0.470266283 0.801465452
v -0.249532387 -0.471572667 0.79088217
v -0.269532025 -0.471417099 0.769324481
v -0.270534605 -0.473338217 0.77515924
v -0.273005784 -0.471427798 0.782090306
v -0.276642025 -0.463730127 0.783129871
v -0.279823691 -0.462651104 0.783241749
v -0.286098838 -0.463363022 0.785548925
v -0.289793253 -0.465113699 0.786711693
v -0.2960684 -0.465825617 0.789018869
v -0.302343547 -0.466537535 0.791325986
v -0.299949408 -0.46867317 0.802739859
v -0.330109239 -0.470772535 0.766866624
v -0.33377409 -0.472543776 0.768148601
v -0.343428493 -0.47017619 0.763061166
v -0.337674409 -0.468752563 0.783586085
v -0.336543411 -0.465947628 0.783586085
v -0.343096882 -0.46377027 0.78363651
v -0.351196378 -0.464373052 0.783023238
v -0.35751915 -0.465090364 0.785347879
v -0.361417711 -0.463961065 0.784377098
v -0.365840733 -0.467677563 0.791650176
v -0.368433148 -0.466632277 0.792811394
v -0.368061721 -0.471511215 0.802442491
v -0.368850768 -0.478089601 0.799474299
v -0.372544289 -0.479848713 0.800669014
v -0.355252773 -0.484658569 0.842772603
v -0.357804 -0.483629882 0.843915343
v -0.362891555 -0.484394133 0.848006546
v -0.367386371 -0.488001734 0.854796767
v -0.367407233 -0.489910305 0.861711085
v -0.366613865 -0.496458113 0.861321986
v -0.373051763 -0.498060435 0.858038962
v -0.353458554 -0.502656817 0.902751744
v -0.35684824 -0.504368782 0.90420562
v -0.362953812 -0.505061448 0.90645045
v -0.364257425 -0.506855726 0.911162317
v -0.36505726 -0.508664787 0.916642547
v -0.364872485 -0.510505319 0.923633873
v -0.366748244 -0.515915871 0.924102545
v -0.374768883 -0.52020216 0.920028448
v -0.355047107 -0.524407804 0.963739395
v -0.357507765 -0.523415625 0.964841545
v -0.36258164 -0.52681762 0.97010392
v -0.365011871 -0.525827348 0.971247256
v -0.367039889 -0.529305339 0.98111093
v -0.363601923 -0.534748852 0.989590824
v -0.37970385 -0.539743602 0.968382239
v -0.379695415 -0.541489184 0.974856734
v -0.381018609 -0.544935346 0.985709846
v -0.379597217 -0.54763037 0.989463449
v -0.381024301 -0.551040173 1.00005758
v -0.381901443 -0.553683758 1.00033903
v -0.382321417 -0.559941351 0.99815315
v -0.3822743 -0.566207111 0.996666968
v -0.381249636 -0.56983155 0.995048165
v -0.380986184 -0.576101124 0.993885934
v -0.382971138 -0.581386507 0.994105577
v -0.383294851 -0.58501941 0.990459144
v -0.38229847 -0.589651942 0.984015763
v -0.379942447 -0.594286978 0.979603291
v -0.381403267 -0.5979563 0.974207282
v -0.381131858 -0.605281889 0.968229711
v -0.379085928 -0.60627836 0.966506958
v -0.382184654 -0.61369288 0.955369592
v -0.379961014 -0.614691257 0.953898728
v -0.380234808 -0.622089744 0.947024226
v -0.381694525 -0.625832975 0.941552997
v -0.380442679 -0.630579531 0.935323417
v -0.381298423 -0.634328663 0.930753291
v -0.378821135 -0.639059424 0.92637527
v -0.378498286 -0.643875539 0.918652058
v -0.380216926 -0.647689104 0.912708104
v -0.377346575 -0.65243578 0.908888519
v -0.377320886 -0.656197786 0.905629516
v -0.380711615 -0.663901329 0.893731534
v -0.389960051 -0.668144405 0.875979185
v -0.395248383 -0.676058769 0.861017227
v -0.39504987 -0.679883659 0.85796541
v -0.384158462 -0.681592524 0.86486423
v -0.384280473 -0.685430706 0.861307502
v -0.381573647 -0.690275252 0.857091606
v -0.380626529 -0.695240021 0.850078881
v -0.38212052 -0.699193537 0.84431994
v -0.381749898 -0.706900179 0.838104069
v -0.394750327 -0.711723089 0.814020395
v -0.396224707 -0.718430579 0.810013056
v -0.392595649 -0.720611095 0.805339098
v -0.382199436 -0.72493571 0.813279688
v -0.381409824 -0.726108611 0.809306622
v -0.382582009 -0.734051287 0.80050081
v -0.382641286 -0.737989485 0.796934605
v -0.381982952 -0.743136287 0.789229035
v -0.381406844 -0.747033536 0.786670804
v -0.37764284 -0.751911938 0.783959031
v -0.378037304 -0.755911171 0.779816687
v -0.376073807 -0.76097858 0.774160445
v -0.377174407 -0.765068591 0.768846571
v -0.376626998 -0.770310163 0.760837555
v -0.375884473 -0.778229177 0.754967093
v -0.377790809 -0.779771745 0.74642849
v -0.3814812 -0.788244009 0.73321861
v -0.380190879 -0.789446235 0.729887903
v -0.380889565 -0.797626853 0.721546829
v -0.382101953 -0.801835477 0.715936959
v -0.380477965 -0.807084143 0.709506929
v -0.379455775 -0.811031759 0.707582533
v -0.378983378 -0.816453338 0.699200273
v -0.380590588 -0.820763826 0.692874968
v -0.380562574 -0.82628572 0.68368876
v -0.375295311 -0.828409553 0.681329429
v -0.367009938 -0.827423215 0.682123482
v -0.380566388 -0.834891617 0.649849534
v -0.381032467 -0.837669432 0.651023686
v -0.380031675 -0.844394445 0.650958598
v -0.381459564 -0.850010753 0.652464092
v -0.380560935 -0.85674113 0.652226806
v -0.381408364 -0.859565437 0.652752221
v -0.380265087 -0.866250753 0.652929604
v -0.381581515 -0.871830702 0.654616773
v -0.380858809 -0.878573298 0.654083967
v -0.379931033 -0.885278225 0.653898776
v -0.380783141 -0.888093889 0.654412866
v -0.382181644 -0.893669486 0.655955255
v -0.381382436 -0.900385559 0.655553222
v -0.380254537 -0.907038569 0.655707717
v -0.381409198 -0.909902275 0.655707717
v -0.380431086 -0.916576087 0.655609727
v -0.382155865 -0.922190845 0.656594992
v -0.380963981 -0.928814471 0.656858504
v -0.381925493 -0.931637526 0.657182276
v -0.38081944 -0.938269675 0.657301724
v -0.382941574 -0.943950534 0.657610893
v -0.381790459 -0.950564742 0.657806396
v -0.380784929 -0.954585671 0.655811667
v -0.372079492 -0.953383863 0.657306671
v -0.369443476 -0.954446733 0.656125903
v -0.359613359 -0.953006446 0.659581959
v -0.353202522 -0.95227915 0.657224953
v -0.350571483 -0.953339994 0.656046391
v -0.345309407 -0.95546174 0.653689384
v -0.33655116 -0.95423615 0.65539825
v -0.328038961 -0.953061163 0.656714857
v -0.323627681 -0.955357194 0.652901173
v -0.321310788 -0.953884006 0.649177492
v -0.321109265 -0.95448643 0.635918438
v -0.319516689 -0.948925197 0.634667754
v -0.320981741 -0.945000172 0.635886908
v -0.319448739 -0.939445317 0.63452965
v -0.32073462 -0.932857156 0.634037614
v -0.32106936 -0.926073194 0.635220528
v -0.320649087 -0.923357606 0.633930922
v -0.319818527 -0.917921901 0.631328881
v -0.32109192 -0.911307335 0.630860686
v -0.321427256 -0.904511154 0.632045686
v -0.319599658 -0.898869872 0.631195068
v -0.320607513 -0.894850254 0.633230746
v -0.319011003 -0.889247358 0.631972611
v -0.319115132 -0.882408261 0.633565724
v -0.317258626 -0.876754642 0.63276422
v -0.318672448 -0.872808099 0.634086251
v -0.318342119 -0.867402554 0.630591273
v -0.319728941 -0.860764563 0.629925191
v -0.320650905 -0.854045331 0.630080402
v -0.319544494 -0.848487556 0.62794584
v -0.319409639 -0.841598511 0.629965842
v -0.318722069 -0.838795245 0.629134715
v -0.319058508 -0.83197695 0.630323589
v -0.296644896 -0.827495575 0.66202426
v -0.282903939 -0.825711906 0.672713161
v -0.271783143 -0.824304283 0.67884469
v -0.272687793 -0.827299595 0.665548921
v -0.261324763 -0.824417531 0.678029716
v -0.26363802 -0.827623069 0.662134588
v -0.251253903 -0.826016843 0.670669019
v -0.255928576 -0.829589665 0.65035677
v -0.253655285 -0.833367169 0.650629997
v -0.251839757 -0.839871764 0.652156711
v -0.254110426 -0.845541716 0.65218693
v -0.253620178 -0.852244735 0.651301622
v -0.25483042 -0.855091631 0.651180267
v -0.253359169 -0.861628711 0.65207994
v -0.25527975 -0.867234707 0.652743161
v -0.253894657 -0.873772681 0.653486133
v -0.252177387 -0.880242705 0.654835582
v -0.25331828 -0.883072197 0.654835582
v -0.255600065 -0.888731241 0.654835582
v -0.254440218 -0.895288289 0.655170262
v -0.253630728 -0.901905894 0.654869974
v -0.254770726 -0.904733241 0.654869974
v -0.253350109 -0.911225677 0.655680716
v -0.255368352 -0.91682452 0.656153142
v -0.254403025 -0.923396885 0.65613699
v -0.25668034 -0.929044902 0.65613699
v -0.254133254 -0.932694197 0.656925976
v -0.256272405 -0.938309491 0.657173932
v -0.255045205 -0.944809616 0.657633781
v -0.254018128 -0.951346815 0.657732308
v -0.251036763 -0.952312768 0.657253206
v -0.245500997 -0.954338074 0.655523479
v -0.236165047 -0.95294708 0.658684909
v -0.231966525 -0.955267608 0.654521585
v -0.22556594 -0.952899277 0.658279598
v -0.220391333 -0.954995692 0.655925333
v -0.214051962 -0.954274714 0.65362972
v -0.205158964 -0.952970147 0.656110883
v -0.200074837 -0.955082357 0.653605223
v -0.194192365 -0.952824473 0.65651089
v -0.194999501 -0.956299365 0.64288336
v -0.192854136 -0.952346683 0.636560678
v -0.194289163 -0.945912421 0.635631084
v -0.19360055 -0.943193614 0.634781003
v -0.194848731 -0.93670541 0.63420707
v -0.192645133 -0.931077778 0.634070694
v -0.193847895 -0.92456913 0.633582592
v -0.192315176 -0.919078469 0.632169008
v -0.193409264 -0.915124476 0.634049773
v -0.192560539 -0.909767687 0.631335318
v -0.193023831 -0.903088987 0.632252932
v -0.193226025 -0.896358073 0.633666396
v -0.193307459 -0.89376837 0.631347179
v -0.193638563 -0.887058139 0.632517219
v -0.192359194 -0.881587803 0.630613327
v -0.192294776 -0.874801338 0.632535815
v -0.190408111 -0.869212985 0.631784022
v -0.191726133 -0.865301549 0.63324827
v -0.190548584 -0.859833002 0.63114661
v -0.191383049 -0.85319972 0.631361604
v -0.191773817 -0.846489131 0.632420957
v -0.192502484 -0.843961716 0.628862858
v -0.192834482 -0.837233365 0.630036056
v -0.191064164 -0.831641614 0.629052341
v -0.16577071 -0.826521456 0.668967545
v -0.155808568 -0.825237989 0.673675358
v -0.635037601 -0.906826496 -0.258337796
v -0.634268701 -0.915415406 -0.259186089
v -0.636080325 -0.919115126 -0.259845138
v -0.634075403 -0.927493393 -0.25831458
v -0.637995541 -0.934944987 -0.260205358
v -0.633992434 -0.939576209 -0.257655859
v -0.633375287 -0.94817543 -0.258793205
v -0.636326313 -0.955456138 -0.258825004
v -0.635856152 -0.964080572 -0.260245293
v -0.634322524 -0.972501993 -0.259617984
v -0.635810673 -0.976143062 -0.259659827
v -0.635014832 -0.984698355 -0.260451853
v -0.637947202 -0.991970778 -0.260451853
v -0.635572672 -0.996863425 -0.261026978
v -0.6346609 -1.00538743 -0.261594415
v -0.632163286 -1.01024854 -0.261928082
v -0.637318313 -1.0187993 -0.285055339
v -0.634511769 -1.02361584 -0.284809709
v -0.637325943 -1.03088796 -0.284559309
v -0.63611722 -1.03937292 -0.284556627
v -0.633341372 -1.04418242 -0.284365207
v -0.63625735 -1.05147076 -0.284316659
v -0.635576963 -1.06006372 -0.285334438
v -0.634628773 -1.06859112 -0.285832763
v -0.63604182 -1.07222319 -0.285722494
v -0.634676993 -1.08064389 -0.285413176
v -0.637514532 -1.08790684 -0.285217911
v -0.636493862 -1.09640241 -0.285575062
v -0.633617818 -1.10115337 -0.285180807
v -0.636622548 -1.1084528 -0.285313576
v -0.635576189 -1.11692929 -0.285618782
v -0.634806573 -1.12547386 -0.28645888
v -0.63630867 -1.12912238 -0.286525965
v -0.634961426 -1.13750744 -0.286246687
v -0.626769841 -1.13981533 -0.286391646
v -0.616795421 -1.13839734 -0.285891861
v -0.606617033 -1.13692117 -0.284958214
v -0.602918208 -1.13817668 -0.28577438
v -0.594754934 -1.13725054 -0.288775742
v -0.585746944 -1.13931143 -0.287196547
v -0.580929041 -1.13703418 -0.288674802
v -0.577230811 -1.14056981 -0.297657847
v -0.571803093 -1.13718486 -0.309104532
v -0.567215681 -1.13819516 -0.308133811
v -0.557661176 -1.13688147 -0.308355391
v -0.547941864 -1.13873494 -0.305241317
v -0.537764132 -1.13723731 -0.304121792
v -0.528896153 -1.13610911 -0.305649459
v -0.525287986 -1.13738227 -0.306604922
v -0.518863201 -1.14015448 -0.310143501
v -0.509092927 -1.13876235 -0.309775114
v -0.499081671 -1.13729823 -0.308870852
v -0.495743364 -1.13864434 -0.310366184
v -0.485712528 -1.13716948 -0.309373796
v -0.4790425 -1.13985884 -0.312361479
v -0.465682179 -1.13739681 -0.304255575
v -0.456648558 -1.13620317 -0.305254489
v -0.453324348 -1.13754356 -0.306743503
v -0.445224494 -1.13662457 -0.309721529
v -0.438576072 -1.13930535 -0.312699527
v -0.4274275 -1.13747072 -0.309075236
v -0.423230708 -1.13854408 -0.308656216
v -0.412346363 -1.1367799 -0.305516779
v -0.405721992 -1.13945091 -0.308484018
v -0.398684829 -1.13650584 -0.30496043
v -0.393275917 -1.13954425 -0.310588181
v -0.384008169 -1.13825917 -0.310887516
v -0.373431236 -1.13656759 -0.308239907
v -0.366918474 -1.13926089 -0.311410278
v -0.355786771 -1.13738513 -0.307431251
v -0.352893651 -1.13884187 -0.309821993
v -0.343272746 -1.1374321 -0.30918622
v -0.336681217 -1.14008987 -0.312138766
v -0.326614738 -1.13616085 -0.301430911
v -0.320043087 -1.13881063 -0.304374546
v -0.310558558 -1.13742876 -0.303906947
v -0.302306592 -1.13644004 -0.306262493
v -0.295741469 -1.1390872 -0.309203207
v -0.290306598 -1.13662338 -0.308992624
v -0.284460515 -1.13950336 -0.313614279
v -0.27200529 -1.13713634 -0.306032091
v -0.267118752 -1.14032543 -0.312906057
v -0.257419884 -1.1364516 -0.302499384
v -0.250884742 -1.1390866 -0.305426657
v -0.242815524 -1.13814747 -0.308095932
v -0.234379873 -1.13708544 -0.309876829
v -0.231113434 -1.13840258 -0.311339945
v -0.220779538 -1.13669837 -0.308482081
v -0.214256018 -1.13932884 -0.311404139
v -0.204383031 -1.13776982 -0.309588671
v -0.197867155 -1.14039707 -0.312507302
v -0.189271539 -1.13683605 -0.304255813
v -0.182903752 -1.139503 -0.307497382
v -0.174698681 -1.1385051 -0.309694588
v -0.164035261 -1.13664794 -0.305687755
v -0.160791039 -1.13795602 -0.307140946
v -0.150376484 -1.13617587 -0.303670824
v -0.145756543 -1.13944781 -0.311316758
v -0.136005893 -1.13789248 -0.309474349
v -0.127275199 -1.13669741 -0.310211211
v -0.123915061 -1.13795865 -0.311343431
v -0.114249364 -1.13642299 -0.309613317
v -0.107497036 -1.13892663 -0.31176272
v -0.097588338 -1.13729167 -0.309311509
v -0.0943598375 -1.13859344 -0.310757637
v -0.086493209 -1.13770092 -0.313649923
v -0.0799877644 -1.14028645 -0.316412956
v -0.0610948056 -1.13823366 -0.285968065
v -0.0509275571 -1.13645947 -0.282456815
v -0.043701686 -1.1387217 -0.283064276
v -0.0388984419 -1.13646948 -0.283914924
v -0.0295695197 -1.13792169 -0.278740078
v -0.0215364546 -1.13693869 -0.2808671
v -0.0150385704 -1.13946152 -0.283382565
v -0.00912138354 -1.13677752 -0.281097591
v -0.00275296508 -1.13934529 -0.28395018
v 0.0053012399 -1.13834929 -0.285973877
v 0.0148733659 -1.13675523 -0.28370294
v 0.0180528518 -1.1380372 -0.285127103
v 0.0264341068 -1.13690674 -0.286170036
v 0.0340282843 -1.13897383 -0.285473257
v 0.0417651571 -1.13809609 -0.2883178
v 0.049897749 -1.13993382 -0.286002129
v 0.0544535108 -1.13777852 -0.287422597
v 0.0594960228 -1.13799477 -0.298114419
v 0.0620082989 -1.13667023 -0.305562258
v 0.0673638955 -1.13965058 -0.311389714
v 0.0769484043 -1.13801777 -0.308821678
v 0.0861640722 -1.13653135 -0.307286233
v 0.0928833336 -1.13894033 -0.309032798
v 0.0999845341 -1.13572133 -0.302796513
v 0.106324233 -1.13827753 -0.305636227
v 0.115243442 -1.13689506 -0.304825783
v 0.121375218 -1.13953543 -0.308283657
v 0.126127139 -1.13729656 -0.309081495
v 0.132461101 -1.1398505 -0.311918676
v 0.141845167 -1.13825274 -0.30955404
v 0.151023164 -1.13673818 -0.307766855
v 0.154182434 -1.13801205 -0.309181958
v 0.166315019 -1.1351912 -0.297950596
v 0.172611549 -1.13773 -0.300770998
v 0.181701213 -1.13622797 -0.29903689
v 0.186681911 -1.13935232 -0.306080133
v 0.19250837 -1.1366266 -0.303262681
v 0.198664784 -1.13922298 -0.306513578
v 0.206460238 -1.13829327 -0.308897078
v 0.215587795 -1.13675261 -0.306870043
v 0.218411371 -1.13816524 -0.309329361
v 0.226947963 -1.13688898 -0.309200734
v 0.23322688 -1.13942075 -0.312013209
v 0.244668081 -1.13677299 -0.301998466
v 0.250927061 -1.13929677 -0.30480203
v 0.255934268 -1.13692737 -0.304456294
v 0.261958718 -1.13956094 -0.30805558
v 0.270322412 -1.13834 -0.308295399
v 0.279702425 -1.13662398 -0.304952532
v 0.282646149 -1.13796949 -0.306974739
v 0.290431529 -1.13701975 -0.309147805
v 0.296675503 -1.13953745 -0.311944664
v 0.306056708 -1.13779473 -0.308402896
v 0.316024035 -1.13575065 -0.30265668
v 0.319134504 -1.13700473 -0.304049969
v 0.324188322 -1.14010382 -0.311077684
v 0.333949596 -1.13813698 -0.305906922
v 0.34152171 -1.13727784 -0.308690935
v 0.344629347 -1.13853097 -0.310082912
v 0.352284014 -1.13762915 -0.312559038
v 0.358420014 -1.14017618 -0.315638453
v 0.365001291 -1.13695824 -0.309049189
v 0.371204257 -1.13945937 -0.31182766
v 0.38090837 -1.13746238 -0.306394249
v 0.388810396 -1.13641441 -0.30777809
v 0.39499861 -1.13890958 -0.310549945
v 0.404420525 -1.13703287 -0.30595693
v 0.407508999 -1.13827825 -0.307340354
v 0.415034384 -1.13742447 -0.310107172
v 0.421211302 -1.13991511 -0.31287396
v 0.428167671 -1.13641858 -0.304173887
v 0.433584988 -1.13932014 -0.30993259
v 0.441835761 -1.13805127 -0.309693694
v 0.449467272 -1.13712883 -0.311941832
v 0.455865622 -1.13947654 -0.313721001
v 0.462576449 -1.13607109 -0.305621266
v 0.469184548 -1.13827991 -0.30643937
v 0.47823599 -1.13651502 -0.302585363
v 0.484112769 -1.13913798 -0.306412935
v 0.488772213 -1.13690376 -0.306705236
v 0.494903952 -1.13937616 -0.309451818
v 0.502374291 -1.13852859 -0.312198371
v 0.510426283 -1.13732922 -0.312404603
v 0.513353527 -1.13864779 -0.314376265
v 0.521630526 -1.13730443 -0.313538462
v 0.527743161 -1.13978016 -0.316329032
v 0.537498295 -1.13750279 -0.308755487
v 0.544939518 -1.13665867 -0.31149134
v 0.547993362 -1.13788998 -0.312859267
v 0.554101169 -1.14035273 -0.31559512
v 0.562575877 -1.13884401 -0.313545853
v 0.573497951 -1.14058757 -0.287611276
v 0.578900158 -1.13784158 -0.284043998
v 0.586785913 -1.13666606 -0.284318179
v 0.593337297 -1.13876724 -0.284619033
v 0.597677708 -1.13671386 -0.285972357
v 0.603720188 -1.13915026 -0.288678974
v 0.612265468 -1.13750994 -0.285614341
v 0.618299305 -1.13994288 -0.288317055
v 0.622633457 -1.13789248 -0.289668411
v 0.628951669 -1.14012706 -0.290954024
v 0.632727444 -1.13945043 -0.318305343
v 0.633291781 -1.13669479 -0.3221457
v 0.632504702 -1.13249409 -0.339570761
v 0.631269395 -1.12523592 -0.342500508
v 0.631254375 -1.11714196 -0.339251161
v 0.633014023 -1.11113405 -0.343846887
v 0.631407976 -1.10651731 -0.34189409
v 0.633200109 -1.1004715 -0.346342295
v 0.63281244 -1.09261441 -0.344972312
v 0.631140649 -1.08803678 -0.343342602
v 0.633760154 -1.08144546 -0.343602329
v 0.633372486 -1.07358837 -0.342232317
v 0.632984757 -1.06573129 -0.340862334
v 0.632597089 -1.0578742 -0.339492351
v 0.632860124 -1.05520034 -0.34493506
v 0.632471919 -1.04733276 -0.343563229
v 0.632083714 -1.03946519 -0.342191398
v 0.633098423 -1.0363332 -0.343828142
v 0.632940114 -1.02833319 -0.341289222
v 0.632644534 -1.02041364 -0.339447767
v 0.634870648 -1.01402521 -0.341726691
v 0.633312166 -1.00938106 -0.339502662
v 0.633205295 -1.00136209 -0.336704105
v 0.635431767 -0.99496299 -0.338981479
v 0.633705378 -0.990409195 -0.337608904
v 0.633606136 -0.982391238 -0.334771097
v 0.63337791 -0.974442959 -0.332588643
v 0.634117961 -0.97141993 -0.335617125
v 0.633832693 -0.963496745 -0.333721012
v 0.633334339 -0.955676079 -0.332904994
v 0.63461107 -0.949688315 -0.34001568
v 0.633519471 -0.944833636 -0.335406661
v 0.63313061 -0.936952591 -0.334032506
v 0.634048164 -0.931084931 -0.342981428
v 0.633443534 -0.926026285 -0.335889876
v 0.632984936 -0.918168426 -0.334866256
v 0.63461113 -0.911958694 -0.340227038
v 0.634221375 -0.904060245 -0.338849843
v 0.632965326 -0.899300456 -0.335061759
v 0.634810567 -0.892975509 -0.339319736
v 0.634420633 -0.885073483 -0.337941915
v 0.63305223 -0.880364895 -0.334718227
v 0.634863794 -0.874029219 -0.339155465
v 0.634473622 -0.866122127 -0.33777675
v 0.633250952 -0.861367345 -0.333808422
v 0.633730292 -0.855469525 -0.345021009
v 0.633339286 -0.847545624 -0.343639374
v 0.632948339 -0.839621782 -0.342257708
v 0.632557333 -0.831697881 -0.340876073
v 0.633853137 -0.828373671 -0.341134667
v 0.633462131 -0.820449293 -0.339752942
v 0.633122146 -0.812510014 -0.338112801
v 0.634000361 -0.809305191 -0.340491652
v 0.633609116 -0.801376641 -0.339109212
v 0.633217931 -0.793448091 -0.337726742
v 0.633052766 -0.785461187 -0.335199594
v 0.634174287 -0.782177567 -0.336344302
v 0.633783042 -0.774249017 -0.334961861
v 0.633391857 -0.766320527 -0.333579421
v 0.634157658 -0.763112783 -0.336530507
v 0.633766174 -0.755178511 -0.335147053
v 0.633374691 -0.747244239 -0.333763599
v 0.634439349 -0.740887046 -0.342059106
v 0.633639336 -0.736101866 -0.335889965
v 0.633247495 -0.728160739 -0.33450532
v 0.634971797 -0.721640825 -0.339460701
v 0.633302212 -0.717028558 -0.337698698
v 0.632909954 -0.709078431 -0.336312473
v 0.634218931 -0.702592611 -0.343394339
v 0.633794844 -0.697788239 -0.335301667
v 0.633402526 -0.689837396 -0.333915323
v 0.633010209 -0.681886494 -0.332528979
v 0.633450329 -0.675458014 -0.34401837
v 0.633454084 -0.670643568 -0.333752006
v 0.63441211 -0.664123654 -0.342628092
v 0.63401866 -0.656150281 -0.341237813
v 0.633270681 -0.651446521 -0.334779173
v 0.633103013 -0.643464744 -0.332250327
v 0.63458699 -0.636842549 -0.338457286
v 0.63419354 -0.628869176 -0.337067008
v 0.6330055 -0.624224663 -0.332839727
v 0.63508606 -0.617538214 -0.336028546
v 0.634296358 -0.609579623 -0.336648792
v 0.633022189 -0.604948699 -0.332851052
v 0.633584082 -0.59828043 -0.343761981
v 0.633426249 -0.590282142 -0.341167212
v 0.633084834 -0.585645854 -0.332630098
v 0.634153903 -0.57892096 -0.340973973
v 0.633759439 -0.570926249 -0.33957997
v 0.633364975 -0.562931478 -0.338185996
v 0.632970512 -0.554936707 -0.336791992
v 0.633532465 -0.551540136 -0.34083569
v 0.63262248 -0.543515027 -0.342051953
v 0.632477701 -0.535520554 -0.339387447
v 0.633155227 -0.532106698 -0.342853904
v 0.632759869 -0.524094522 -0.34145686
v 0.632668376 -0.51610589 -0.338520497
v 0.632403016 -0.508108139 -0.336466849
v 0.633330941 -0.504692793 -0.338662803
v 0.632935643 -0.496680617 -0.33726576
v 0.632540286 -0.488668442 -0.335868716
v 0.633084416 -0.485196084 -0.340014637
v 0.632813334 -0.477191448 -0.337984532
v 0.632617295 -0.469199479 -0.335575879
v 0.633219779 -0.465713233 -0.339430243
v 0.632823825 -0.457688481 -0.338030994
v 0.633850217 -0.450651914 -0.346680731
v 0.633619666 -0.442638248 -0.344434053
v 0.632816553 -0.438155085 -0.338167608
v 0.634423435 -0.431178421 -0.343876332
v 0.634026647 -0.423136592 -0.342474103
v 0.633388937 -0.41870895 -0.335367143
v 0.634996653 -0.411704928 -0.341071904
v 0.634599805 -0.403663099 -0.339669704
v 0.634203017 -0.39562127 -0.338267505
v 0.633806229 -0.387579411 -0.336865306
v 0.635001242 -0.384147882 -0.337738037
v 0.634776235 -0.376147777 -0.335463077
v 0.633012593 -0.371495754 -0.334060878
v 0.635574579 -0.364670187 -0.334933043
v 0.635177672 -0.35662663 -0.333530515
v 0.633922577 -0.348336458 -0.336480528
v 0.633321762 -0.340223759 -0.336107641
v 0.634637475 -0.336812645 -0.336377919
v 0.634240031 -0.328757852 -0.334973454
v 0.633428097 -0.320569664 -0.335669279
v 0.633942723 -0.316893339 -0.34000966
v 0.633544683 -0.308825791 -0.33860296
v 0.633146584 -0.300758213 -0.337196261
v 0.633787155 -0.297100872 -0.340904981
v 0.633183956 -0.288951963 -0.340535849
v 0.63278538 -0.280874938 -0.339127511
v 0.632350683 -0.272784144 -0.337902397
v 0.633379579 -0.269246638 -0.339646846
v 0.632980883 -0.261165798 -0.338237822
v 0.632582128 -0.253084958 -0.336828828
v 0.633955598 -0.249678701 -0.336828828
v 0.633556843 -0.241597846 -0.335419834
v 0.633158147 -0.233517006 -0.33401081
v 0.634654045 -0.226153582 -0.34036696
v 0.633230686 -0.221628204 -0.337174028
v 0.632945418 -0.2135901 -0.335186481
v 0.634602726 -0.206262693 -0.340736717
v 0.633455992 -0.201873064 -0.336133301
v 0.632997453 -0.193751156 -0.335021734
v 0.634629011 -0.186378613 -0.340712011
v 0.633364379 -0.18194364 -0.336698949
v 0.632872343 -0.173796743 -0.335754395
v 0.635206759 -0.166751087 -0.33788541
v 0.634806812 -0.15864563 -0.336472094
v 0.633029282 -0.153956801 -0.335058808
v 0.634228349 -0.146283209 -0.342966646
v 0.633827627 -0.138161957 -0.341550589
v 0.632928312 -0.133952931 -0.33566919
v 0.634520411 -0.126455411 -0.341591835
v 0.63411957 -0.118331246 -0.340175271
v 0.633718729 -0.110207081 -0.338758707
v 0.633317828 -0.102082916 -0.337342143
v 0.633932114 -0.0981985852 -0.341234207
v 0.633198559 -0.0898640081 -0.34150219
v 0.63214916 -0.0856091827 -0.336365998
v 0.634020925 -0.0782001689 -0.340890497
v 0.633619428 -0.0700632259 -0.339471728
v 0.633123815 -0.0618655831 -0.338530272
v 0.632975578 -0.0538934916 -0.335828155
v 0.633400202 -0.0498320647 -0.340689003
v 0.632998347 -0.0416869931 -0.339268804
v 0.632596433 -0.0335419253 -0.337848574
v 0.633551836 -0.0298147965 -0.340024769
v 0.633149743 -0.0216653608 -0.338603795
v 0.632567167 -0.0133887734 -0.338096797
v 0.632808805 -0.00914056785 -0.343900114
v 0.632406056 -0.000977649936 -0.342476785
v 0.632135987 0.00708841579 -0.340381265
v 0.63245827 0.0147137847 -0.33528918
v 0.632793427 0.0189339407 -0.340616018
v 0.632585108 0.0269519482 -0.338206828
v 0.6321823 0.0351148658 -0.336783528
v 0.633362174 0.0387156233 -0.337835848
v 0.632959247 0.046880655 -0.336412162
v 0.632556379 0.0550456904 -0.334988475
v 0.633431852 0.0634517595 -0.34463802
v 0.632720768 0.0673133135 -0.337720841
v 0.632530749 0.075312838 -0.335216254
v 0.634015203 0.083270587 -0.341783881
v 0.63256824 0.0877160653 -0.338594288
v 0.632676125 0.0954670161 -0.334578902
v 0.633954346 0.103638373 -0.342201859
v 0.632803679 0.107823938 -0.337502658
v 0.634291112 0.115847178 -0.344083995
v 0.634111345 0.123847738 -0.341513455
v 0.633807182 0.131954193 -0.339575648
v 0.633525252 0.140038803 -0.337526381
v 0.63447094 0.14389585 -0.339795828
v 0.634066463 0.15209356 -0.338366449
v 0.633549571 0.160394996 -0.337507069
v 0.634163857 0.164574444 -0.341464818
v 0.633760214 0.172780097 -0.340027303
v 0.63335526 0.180986941 -0.338596314
v 0.632950306 0.189193785 -0.337165356
v 0.634248734 0.192746118 -0.337654859
v 0.63384372 0.200953946 -0.336223722
v 0.63314265 0.209452957 -0.336292773
v 0.633824348 0.213620201 -0.339915425
v 0.633241117 0.222016022 -0.33938396
v 0.632821143 0.230250537 -0.338023454
v 0.632415533 0.238470703 -0.336590171
v 0.63325882 0.242503181 -0.339398563
v 0.632981956 0.250595629 -0.337310791
v 0.63258791 0.258807868 -0.335817069
v 0.633244872 0.263052762 -0.339574069
v 0.633225083 0.270875216 -0.336180985
v 0.632819116 0.279103249 -0.334746301
v 0.633138776 0.283732325 -0.340216905
v 0.632768929 0.291931659 -0.338594586
v 0.632362425 0.300170451 -0.337158054
v 0.634412229 0.307947904 -0.340972066
v 0.633319557 0.311922759 -0.335907072
v 0.632731795 0.320365071 -0.335387856
v 0.63454175 0.328436583 -0.340424329
v 0.633270919 0.332597136 -0.336255848
v 0.63292706 0.340770632 -0.334499359
v 0.633970261 0.349761903 -0.343438476
v 0.633562565 0.358025134 -0.341997683
v 0.632913232 0.361441553 -0.334669471
v 0.634559274 0.369771451 -0.34055686
v 0.633883059 0.378355533 -0.340478778
v 0.632339358 0.382814765 -0.337675244
v 0.633893251 0.391301334 -0.344051689
v 0.6334849 0.399577528 -0.342608631
v 0.632348776 0.403533906 -0.337728083
v 0.634107709 0.411806852 -0.34307301
v 0.634074807 0.419618517 -0.339722484
v 0.633666396 0.427894711 -0.338279426
v 0.633258045 0.436170906 -0.336836338
v 0.634022355 0.440477252 -0.340097398
v 0.633452713 0.448966533 -0.339469433
v 0.632580459 0.457850039 -0.340373755
v 0.633539796 0.461928129 -0.342655927
v 0.63313055 0.470222086 -0.341209769
v 0.632721305 0.478516042 -0.339763612
v 0.632312536 0.486809403 -0.338315129
v 0.633144617 0.49107644 -0.341244906
v 0.632893562 0.49916327 -0.338994473
v 0.632791042 0.507045984 -0.335993379
v 0.633736253 0.511174917 -0.338350505
v 0.633326709 0.519474864 -0.336903274
v 0.632917166 0.527774751 -0.335456073
v 0.634159207 0.531507254 -0.336311549
v 0.633918285 0.539573312 -0.334008873
v 0.633339942 0.548110664 -0.333416522
v 0.633828461 0.558423042 -0.345274866
v 0.632612288 0.56237185 -0.340732783
v 0.632201731 0.570691526 -0.339282125
v 0.634421945 0.578584492 -0.342371374
v 0.632596016 0.583400905 -0.340919644
v 0.632436275 0.591360629 -0.338196397
v 0.635015368 0.598745942 -0.339467883
v 0.634604573 0.607071936 -0.338016152
v 0.632778645 0.611888289 -0.336564392
v 0.634861827 0.620027184 -0.34036094
v 0.634450614 0.628360927 -0.338907838
v 0.633372128 0.632049799 -0.33366093
v 0.633777976 0.642766953 -0.345982701
v 0.63336587 0.651118219 -0.344526529
v 0.633142352 0.659178197 -0.342113763
v 0.632823944 0.667382061 -0.340183705
v 0.633961141 0.671340942 -0.341614217
v 0.633549094 0.679692149 -0.340158075
v 0.633136988 0.688043416 -0.338701934
v 0.63429004 0.69198662 -0.340054721
v 0.633668542 0.700674951 -0.33965984
v 0.63267976 0.709957659 -0.341125369
v 0.633388996 0.714631975 -0.344741285
v 0.632975996 0.723001599 -0.343281925
v 0.632563055 0.731371284 -0.341822565
v 0.63226217 0.73955673 -0.339795262
v 0.633572578 0.743268907 -0.340363204
v 0.633159637 0.751638591 -0.338903844
v 0.632746637 0.760008276 -0.337444454
v 0.634081006 0.763684154 -0.337891996
v 0.633645356 0.772092819 -0.336546928
v 0.632809818 0.781180382 -0.337227643
v 0.632176876 0.789930344 -0.336879164
v 0.633004665 0.794482887 -0.339901328
v 0.63259095 0.802866638 -0.338439494
v 0.632177293 0.811250448 -0.33697769
v 0.632457912 0.816775322 -0.342779428
v 0.632259309 0.824793816 -0.340223134
v 0.63225615 0.832464337 -0.336679369
v 0.632780731 0.837592781 -0.341249257
v 0.632773638 0.845267892 -0.337721318
v 0.632405877 0.853579342 -0.336022496
v 0.634806812 0.861470461 -0.338320404
v 0.632964969 0.866328895 -0.336855978
v 0.632634699 0.874574959 -0.334965438
v 0.633748472 0.884836376 -0.343808264
v 0.633563578 0.886666358 -0.333927155
v 0.632938981 0.895451605 -0.33352682
v 0.632838309 0.908016443 -0.348544031
v 0.632422268 0.916448414 -0.347073793
v 0.632006228 0.924880385 -0.345603555
v 0.633414745 0.928480864 -0.345728397
v 0.632998705 0.936913073 -0.34425813
v 0.632582605 0.945345223 -0.342787862
v 0.634015799 0.948899627 -0.342787862
v 0.633599699 0.957331836 -0.341317594
v 0.633183658 0.965763986 -0.339847296
v 0.632767618 0.974196196 -0.338377029
v 0.634200752 0.977750599 -0.338377029
v 0.633784711 0.986182809 -0.336906761
v 0.633368611 0.994614959 -0.335436493
v 0.633905947 0.999935746 -0.339983493
v 0.63348943 1.00837743 -0.338511586
v 0.633072913 1.01681912 -0.337039649
v 0.633306146 1.02277923 -0.343138665
v 0.632946074 1.03111887 -0.341374904
v 0.632659793 1.03930855 -0.339237928
v 0.635110915 1.04729271 -0.341384262
v 0.633491576 1.05170584 -0.338716269
v 0.633074403 1.06016016 -0.337242126
v 0.63265729 1.06861448 -0.335768014
v 0.633859038 1.07266319 -0.336960584
v 0.633136153 1.08175337 -0.337034732
v 0.63246882 1.09073353 -0.336824685
v 0.634326875 1.10000503 -0.342000514
v 0.632939756 1.10391772 -0.338135511
v 0.632519662 1.11239088 -0.33667025
v 0.634124398 1.12223756 -0.343143106
v 0.632660568 1.12630153 -0.339655697
v 0.63192004 1.13546753 -0.339808881
v 0.632845461 1.14106572 -0.331531942
v 0.633958459 1.14533699 -0.333184451
v 0.634202957 1.14660025 -0.310271233
v 0.634031117 1.14785957 -0.300372839
v 0.629555702 1.14605796 -0.287110746
v 0.621145129 1.14611626 -0.286419183
v 0.612561345 1.14651835 -0.286526054
v 0.60916239 1.14810658 -0.285687447
v 0.600489378 1.14866018 -0.286141247
v 0.590580642 1.14523959 -0.285601377
v 0.586979508 1.14722371 -0.285675675
v 0.578400791 1.14751768 -0.285526603
v 0.573634207 1.14540172 -0.284319341
v 0.570887327 1.13806856 -0.283778548
v 0.555035353 1.14622688 -0.31034252
v 0.551622748 1.14777339 -0.309364706
v 0.543047845 1.1478796 -0.308786213
v 0.532720983 1.14497423 -0.309539258
v 0.528453946 1.14813566 -0.312328488
v 0.5197528 1.14841306 -0.312149256
v 0.514991879 1.14616072 -0.310664833
v 0.50671196 1.14562571 -0.308586895
v 0.498077095 1.14573729 -0.308020592
v 0.489675581 1.14540446 -0.306414276
v 0.486140072 1.14713836 -0.305853099
v 0.474813193 1.14584732 -0.310411721
v 0.470892131 1.14825654 -0.311419278
v 0.461970776 1.14878476 -0.311821073
v 0.453311592 1.14882588 -0.311083883
v 0.448525518 1.14656162 -0.309591621
v 0.439902306 1.14651775 -0.308656901
v 0.43158251 1.14593697 -0.306466877
v 0.426409811 1.14432609 -0.306505561
v 0.4172481 1.14515865 -0.307620466
v 0.413571358 1.14707661 -0.307460636
v 0.403036535 1.14410591 -0.308140099
v 0.394516408 1.14985108 -0.312265664
v 0.389705807 1.14757514 -0.310765743
v 0.38146317 1.14678621 -0.308085352
v 0.376347452 1.14500666 -0.307746202
v 0.367687047 1.14488554 -0.306627363
v 0.358769357 1.14516366 -0.306441039
v 0.34948045 1.14601231 -0.307587057
v 0.343574852 1.14544165 -0.310086191
v 0.334169716 1.14642048 -0.311537951
v 0.330695182 1.14794958 -0.310434163
v 0.321670145 1.14830267 -0.310417354
v 0.316749513 1.14614308 -0.309210181
v 0.308129936 1.1458472 -0.307677805
v 0.299366415 1.14576006 -0.306632727
v 0.294140607 1.14404976 -0.306480497
v 0.283419639 1.14687479 -0.312247187
v 0.274841517 1.14645481 -0.310422182
v 0.270759195 1.14886057 -0.311344415
v 0.261925519 1.14880025 -0.310356975
v 0.252642959 1.14938319 -0.31087029
v 0.247777939 1.14708161 -0.309353411
v 0.239256367 1.1465354 -0.307230562
v 0.234023586 1.14475965 -0.30694434
v 0.224811211 1.14518607 -0.307095945
v 0.214628115 1.14696562 -0.310409397
v 0.209326997 1.14525115 -0.310277373
v 0.20019497 1.14550459 -0.310023636
v 0.191032544 1.14578295 -0.309827119
v 0.187328383 1.14757264 -0.309279561
v 0.178593591 1.14724064 -0.307652652
v 0.173001513 1.14588594 -0.308369786
v 0.304488599 0.955207229 0.13817504
v 0.299195081 0.95661217 0.143314302
v 0.29343763 0.95359534 0.151109293
v 0.287988514 0.955231369 0.155687109
v 0.282880783 0.956418276 0.161298439
v 0.279039949 0.95370388 0.164187789
v 0.272922456 0.9562428 0.166651621
v 0.266926855 0.953620791 0.173497573
v 0.260843158 0.956120431 0.176043719
v 0.254486918 0.953996837 0.181726366
v 0.250819385 0.956059754 0.181119561
v 0.24413009 0.954378903 0.18577607
v 0.237191156 0.957979143 0.185782477
v 0.229842395 0.957145393 0.188484341
v 0.222493649 0.956311703 0.191186205
v 0.217994928 0.959402382 0.188228443
v 0.211057767 0.958039403 0.192147419
v 0.206721172 0.955987811 0.193499535
v 0.199365973 0.955153406 0.196203768
v 0.190477237 0.956210911 0.194558054
v 0.186135292 0.954156816 0.19591184
v 0.178771019 0.953321338 0.19861941
v 0.230278105 0.881125152 0.365478873
v 0.226937875 0.882842183 0.365493864
v 0.219878614 0.882088184 0.367977828
v 0.215249017 0.880713522 0.367925107
v 0.190060034 0.901517808 0.320851773
v 0.187011227 0.900552988 0.331098497
v 0.173618972 0.91653657 0.309817523
v 0.170681283 0.913019478 0.314605027
v 0.165250435 0.914865673 0.318428248
v 0.1580953 0.914053977 0.321058929
v 0.193273544 0.868561208 0.432522625
v 0.192293927 0.872059226 0.435441494
v 0.192083403 0.872485161 0.449136674
v 0.188781753 0.876520514 0.454624802
v 0.189293087 0.876101255 0.470049024
v 0.192992061 0.869635761 0.488291115
v 0.190228596 0.87304306 0.495001644
v 0.19085896 0.872489989 0.510443628
v 0.190048367 0.871310234 0.516787708
v 0.190283626 0.871224284 0.531050265
v 0.189599976 0.874320149 0.534543633
v 0.190725073 0.873185694 0.550947011
v 0.190167606 0.874013782 0.562959373
v 0.191012368 0.873203754 0.578437388
v 0.189672977 0.872675896 0.583196878
v 0.189324304 0.873264313 0.595519304
v 0.190413579 0.874251544 0.603327155
v 0.190282434 0.874577284 0.616066635
v 0.189360395 0.875825703 0.626753271
v 0.188876629 0.876561224 0.638456404
v 0.188814521 0.874574244 0.646175802
v 0.184657946 0.879599512 0.648716748
v 0.170513496 0.88765347 0.632583201
v 0.167805076 0.888745546 0.633796394
v 0.162331283 0.890995443 0.636084557
v 0.15650259 0.889361203 0.640370727
v 0.15087986 0.889504492 0.637414992
v 0.131286219 0.903527021 0.608802855
v 0.126110286 0.905394852 0.611968398
v 0.124635398 0.907384872 0.62106216
v 0.126781806 0.907256782 0.630999446
v 0.124258809 0.910430729 0.637525856
v 0.124048427 0.906696916 0.652218282
v 0.125152141 0.907737613 0.659585536
v 0.124226816 0.909097135 0.669702351
v 0.116810501 0.909305274 0.670161664
v 0.109575823 0.909298956 0.671061873
v 0.105560482 0.907616258 0.671958447
v 0.097779572 0.908205628 0.671635866
v 0.0950767323 0.90929544 0.672846556
v 0.0867172182 0.910507917 0.671251595
v 0.0822817236 0.909270823 0.671228349
v 0.0746114105 0.909696877 0.671245456
v 0.0673171878 0.90970093 0.672128916
v 0.0627031103 0.908638299 0.671743035
v 0.0553021692 0.908742368 0.672421634
v 0.0510675758 0.907258272 0.672897339
v 0.0432601087 0.907782257 0.672713757
v 0.0357825756 0.907942295 0.673278511
v 0.0275694113 0.908870518 0.672268689
v 0.0227695853 0.907957554 0.671564579
v 0.0147639541 0.908639431 0.671059966
v 0.0115065044 0.910294592 0.671141386
v 0.00345577835 0.911004066 0.670585632
v -0.00454673544 0.907457948 0.67269361
v -0.00806673244 0.909373522 0.67224586
v -0.0157871172 0.909710884 0.672453582
v -0.0197655428 0.907905459 0.673570395
v -0.0277873464 0.908533752 0.673180938
v -0.0328694247 0.907840192 0.672012985
v -0.0409576371 0.908510149 0.671537817
v -0.048959706 0.909079492 0.671271026
v -0.0571579486 0.909831285 0.670631588
v -0.061737109 0.908594847 0.670568526
v -0.068601042 0.908003092 0.672685623
v -0.0716112778 0.909370363 0.673384786
v -0.0807671174 0.90686959 0.673311472
v -0.0888099447 0.907417357 0.673090577
v -0.0921676084 0.909116626 0.673115432
v -0.100841202 0.910259008 0.671680927
v -0.105805598 0.909353614 0.670928836
v -0.113583647 0.909604669 0.67132169
v -0.118022352 0.908179998 0.671630979
v -0.125338688 0.907975197 0.672958851
v -0.127805129 0.902042031 0.672854185
v -0.127267063 0.89476651 0.671983361
v -0.126561791 0.887335598 0.671439946
v -0.12735793 0.883960664 0.672240615
v -0.126604736 0.876490891 0.671791673
v -0.151104733 0.889520288 0.635389745
v -0.153899565 0.890647173 0.636641622
v -0.160508662 0.889689744 0.639533699
v -0.171184137 0.888308585 0.636951089
v -0.170826554 0.883838534 0.639985025
v -0.173408628 0.875108182 0.652901173
v -0.176307455 0.876332998 0.653936207
v -0.184415355 0.876746297 0.653936625
v -0.190274447 0.872396111 0.6539886
v -0.19144313 0.869330227 0.654082358
v -0.127810851 -0.390261918 0.894161165
v -0.141869977 -0.382225007 0.870387375
v -0.143728256 -0.376328975 0.863088608
v -0.141710445 -0.371591687 0.857158422
v -0.148836419 -0.368476331 0.836515427
v -0.146642894 -0.363036245 0.836515427
v -0.138029397 -0.359153718 0.842548907
v -0.134071037 -0.353980333 0.845796108
v -0.133506358 -0.35054782 0.850534856
v -0.150084779 -0.341697514 0.821881831
v -0.147879273 -0.336227685 0.821881831
v -0.145673782 -0.330757856 0.821881831
v -0.143468276 -0.325288057 0.821881831
v -0.14188692 -0.319715828 0.820732713
v -0.146416113 -0.31371209 0.802490175
v -0.144745752 -0.308113903 0.801474512
v -0.142525613 -0.302607745 0.801474512
v -0.143723294 -0.296491146 0.79513371
v -0.143346682 -0.290635973 0.791699827
v -0.144953132 -0.284953862 0.778654456
v -0.249462441 -0.262948632 0.575273454
v -0.25186944 -0.266884923 0.560281456
v -0.246267438 -0.268519074 0.564413846
v -0.241286501 -0.277012676 0.565516949
v -0.238303423 -0.278775215 0.558337092
v -0.253048956 -0.280601323 0.519744217
v -0.250273228 -0.281720519 0.518500865
v -0.256005317 -0.285218179 0.496793061
v -0.634895384 -0.224266469 -0.231514573
v -0.63474679 -0.233008355 -0.233592346
v -0.634027958 -0.241845414 -0.234579697
v -0.635521889 -0.245550364 -0.234579697
v -0.634622633 -0.254412711 -0.235221714
v -0.637690783 -0.261808574 -0.235376522
v -0.636797547 -0.270664692 -0.236030251
v -0.634909928 -0.279660463 -0.234781221
v -0.636391282 -0.283362865 -0.234760359
v -0.635280728 -0.292236149 -0.234995991
v -0.634085715 -0.301115096 -0.235068336
v -0.635645509 -0.304804265 -0.235199541
v -0.635813892 -0.313501179 -0.237879872
v -0.0588211231 -0.38875857 0.879665554
v -0.0562009662 -0.391198218 0.892435253
v -0.061730992 -0.391926914 0.895429134
v -0.0648134723 -0.392957419 0.903018892
v -0.0625560358 -0.395319343 0.914917827
v -0.0788891837 -0.391946852 0.895657659
v -0.0734251365 -0.394704431 0.913487434
v -0.0887547284 -0.391458273 0.896251678
v -0.0845230892 -0.396141171 0.919252872
v -0.0925272331 -0.393800259 0.915660024
v -0.0917365924 -0.395969689 0.924621701
v -0.19530873 -0.387992024 0.750643611
v -0.215147227 -0.384927094 0.720394075
v -0.129453719 -0.393563628 0.887564063
v -0.174162075 -0.146251202 0.721572816
v -0.270843863 -0.113226578 0.543086529
v -0.275162488 -0.105687283 0.524006367
v -0.273697555 -0.0993530303 0.522172928
v -0.270693511 -0.0934487283 0.523222327
v -0.268055707 -0.0911507681 0.519366264
v -0.268623471 -0.0842100307 0.513687193
v -0.266173124 -0.0781329945 0.513687193
v -0.274017036 -0.0692837611 0.487622231
v -0.282563597 -0.0635815561 0.462411791
v -0.272770435 -0.059914384 0.469629228
v -0.267160535 -0.0549952239 0.468906611
v -0.262539178 -0.0495101772 0.473006368
v -0.262551099 -0.0457918793 0.477311462
v -0.270049304 -0.0364824347 0.45820865
v -0.281350076 -0.0263352189 0.418108582
v -0.288654327 -0.0242215097 0.397152275
v -0.635738432 0.0825561509 -0.286440164
v -0.633386672 0.0729772225 -0.284306556
v -0.636323333 0.0653807446 -0.284089297
v -0.633958936 0.0600697361 -0.284883022
v -0.637007117 0.0525100194 -0.284883022
v -0.636564672 0.0435428321 -0.286446571
v -0.634694636 0.0341530517 -0.285244763
v -0.636232555 0.0303801596 -0.285273463
v -0.635001838 0.0211906396 -0.285308659
v -0.633468986 0.0119216014 -0.284756452
v -0.625499547 0.00545778917 -0.26637575
v -0.632534385 0.00409921631 -0.260535091
v -0.635087669 -0.00354038063 -0.259622872
v -0.637387872 -0.0112454221 -0.25822711
v -0.142536864 -0.152332425 0.709506691
v -0.146181792 -0.150998294 0.70873642
v -0.145588338 -0.150463626 0.722191393
v -0.151479304 -0.145028353 0.721127748
v -0.159543604 -0.142142728 0.71814847
v -0.163313508 -0.143926218 0.719323933
v -0.170390576 -0.144466951 0.720396936
g path_000000
l 13 12 11 10 9 8 7 6 5 4 3 2 1 1279 1278 1277 1276 1275 1274 1273 1272 1271 1270
g path_000001
l 14 15 16 17 18 19 20 21 22 23 24 25 26 27 28 29 30 31 32 33 34 35 36 37 38 39 40 41 42 43 44 45 46 47 48 49 50 51 52 53 54 55 56 57 58 59 60 61 62 63 64 65 66 67 68 69 70 71
g path_000002
l 72 73 74 75 76 77 78 79 80 81 82 83 84 85 86 87
g path_000003
l 88 89 90 91 92 93 94 95 96 97 98 99 100 101 102 103 104 105 106 107 108 109 110 111 112 113 114 115 116 117 118 119 120 121 122 123 124 125 126 127 128 129 130 131 132 133 134 135 136 137 138 139 140 141 142 143
g path_000004
l 144 145 146 147 148
g path_000005
l 149 150 151 152 153 154 155 156 157 158 159 160 161 162 163
g path_000006
l 164 165 166 167 168 169 170
g path_000007
l 171 172 173 174 175 176
g path_000008
l 177 178 179 180 181 182 183 184 185 186 187 188 189 190 191 192 193 194 195 196 197 198
g path_000009
l 199 200 201 202 203 204 205 206 207 208 209 210 211 212 213 214 215 216 217 218 219
g path_000010
l 220 221 222 223 224 225 226 227 228 229 230 231 232
g path_000011
l 233 234 235 236 237 238
g path_000012
l 239 240 241
g path_000013
l 243 244 245 246
g path_000014
l 247 248 249 250
g path_000015
l 251 252 253 254 255 256 257 258 259 260 261 262 263 264 265 266 267 268 269 270 271 272 273 274 275 276 277
g path_000016
l 278 279 280 281 282 283 284 285 286 287 288 289 290 291 292 293 294
g path_000017
l 297 298 299 300 301 302
g path_000018
l 303 304 305 306 307 308 309
g path_000019
l 310 311 312 313 314 315 316 317 318 319 320
g path_000020
l 321 322 323 324 325 326 327 328 329 330
g path_000021
l 331 332 333
g path_000022
l 334 335 336 337 338 339 340 341 342 343 344
g path_000023
l 345 346 347 348 349 350 351
g path_000024
l 352 353 354 355 356 357 358 359
g path_000025
l 360 361 362 363 364 365
g path_000026
l 366 367 368 369 370 371 372 373 374 375 376 377 378 379 380 381 382 383 384 385 386 387 388 389 390 391 392 393 394
g path_000027
l 396 397 398 399 400 401 402 403
g path_000028
l 404 405 406 407 408 409 410 411 412 413 414 415 416 417 418 419 420 421 422 423 424 425 426 427 428 429 430
g path_000029
l 431 432 433 434 435 436 437 438 439 440 441 442 443 444 445 446 447 448 449 450 451 452 453 454 455 456 457 458 459 460 461 462 463 464 465 466 467 468 469 470 471 472 473 474 475 476 477 478 479 480 481 482 483 484 485 486
g path_000030
l 487 488 489 490 491 492 493
g path_000031
l 494 495 496 497 498 499 500 501 502 503 504 505 506 507 508 509 510 511 512 513 514 515 516 517 518 519 520 521 522 523 524 525 526 527 528 529 530 531 532 533 534 535 536 537 538 539 540 541 542 543 544 545 546 547 548 549 550
g path_000032
l 551 552
g path_000033
l 553 554 555 556 557 558 559 560 561 562 563 564 565 566 567 568
g path_000034
l 569 570 571 572 573 574 575 576 577 578 579 580 581 582 583 584 585 586 587 588 589 590 591 592 593 594 595 596 597 598 599 600 601 602 603 604 605 606 607 608 609 610 611 612 613 614 615 616 617 618 619 620 621 622 623 624 625 626 627 628 629 630 631 632 633 634 635 636 637 638 639 640 641 642 643 644 645 646 647 648 649 650 651 652 653 654 655 656 657 658 659
g path_000035
l 660 661 662 663 664 665 666 667 668 669 670 671 672 673 674 675 676 677 678 679 680 681 682 683 684 685 686 687 688 689 690 691 692 693 694 695 696 697 698 699 700 701 702 703 704 705 706 707 708 709 710 711 712 713 714 715 716 717 718 719 720 721 722 723 724 725 726 727 728 729 730 731 732 733 734 735 736 737 738 739 740 741 742 743 744 745 746 747 748 749 750
g path_000036
l 751 752 753 754 755 756 757 758 759 760
g path_000037
l 761 762 763 764 765 766 767 768 769 770 771 772 773 774 775 776 777 778 779 780 781 782 783 784 785 786 787 788 789 790 791 792 793 794 795 796 797 798 799 800 801 802 803 804 805 806 807 808 809 810 811 812 813 814 815 816 817 818 819 820 821 822 823 824 825 826 827 828 829 830 831 832 833 834 835 836 837 838 839 840 841 842 843 844 845 846 847 848 849 850 851 852 853 854 855 856 857 858 859 860 861 862 863 864 865 866 867 868 869 870 871 872 873 874 875 876 877 878 879 880 881 882 883 884 885 886 887 888 889 890 891 892 893 894 895 896 897 898 899 900 901 902 903 904 905 906 907 908 909 910 911 912 913 914 915 916 917 918 919 920 921 922 923 924 925 926 927 928 929 930 931 932 933 934 935 936 937 938 939 940 941 942 943 944 945 946 947 948 949 950 951 952 953 954 955 956 957 958 959 960 961 962 963 964 965 966 967 968 969 970 971 972 973 974 975 976 977 978 979 980 981 982 983 984 985 986 987 988 989 990 991 992 993 994 995 996 997 998 999 1000 1001 1002 1003 1004 1005 1006 1007 1008 1009 1010 1011 1012 1013 1014 1015 1016 1017 1018 1019 1020 1021 1022 1023 1024 1025 1026 1027 1028 1029 1030 1031 1032 1033 1034 1035 1036 1037 1038 1039 1040 1041 1042 1043 1044 1045 1046 1047 1048 1049 1050 1051 1052 1053 1054 1055 1056 1057 1058 1059 1060 1061 1062 1063 1064 1065 1066 1067 1068 1069 1070 1071 1072 1073 1074 1075 1076 1077 1078 1079 1080 1081 1082 1083 1084 1085 1086 1087 1088 1089 1090 1091 1092 1093 1094 1095 1096 1097 1098 1099 1100 1101 1102 1103 1104 1105
g path_000038
l 1106 1107 1108 1109 1110 1111 1112 1113 1114 1115 1116 1117 1118 1119 1120 1121 1122 1123 1124 1125 1126 1127 1128 1129 1130 1131 1132 1133 1134 1135 1136 1137 1138 1139 1140 1141 1142 1143 1144 1145 1146 1147 1148 1149 1150 1151 1152 1153 1154 1155 1156 1157 1158
g path_000039
l 1159 1160 1161 1162 1163 1164 1165 1166 1167 1168 1169 1170 1171 1172 1173 1174 1175 1176 1177 1178 1179 1180
g path_000040
l 1181 1182 1183 1184
g path_000041
l 1185 1186
g path_000042
l 1187 1188 1189 1190
g path_000043
l 1191 1192 1193 1194 1195 1196 1197 1198 1199 1200 1201 1202 1203 1204 1205 1206 1207 1208 1209 1210 1211 1212
g path_000044
l 1213 1214 1215 1216 1217
g path_000045
l 1218 1219 1220 1221 1222 1223 1224 1225 1226 1227 1228 1229 1230 1231 1232 1233 1234 1235 1236 1237 1238 1239 1240 1241 1242 1243 1244 1245 1246 1247 1248 1249 1250 1251 1252 1253 1254 1255 1256 1257 1258 1259 1260 1261 1262 1263 1264 1265 1266 1267 1268 1269
g path_000046
l 1280 1334
g path_000047
l 1281 1282 1283
g path_000048
l 1284 1285 1286 1287 1288
g path_000049
l 1289 1290 1291 1292 1293
g path_000050
l 1294 1295 1296 1297 1298 1299
g path_000051
l 1300 1301 1302 1303 1304
g path_000052
l 1305 1306
g path_000053
l 1308 1309 1310 1311 1312 1313 1314 1315 1316 1317 1318 1319 1320
g path_000054
l 1321 1322 1323 1324 1325
g path_000055
l 1329 1330 1331
g path_000056
l 1335 1372 1371 1370 1369 1368 1367 1366
g path_000057
l 1337 1338 1339 1340 1341 1342
g path_000058
l 1344 1345 1346 1347 1348
g path_000059
l 1352 1353 1354 1355 1356 1357 1358 1359 1360 1361 1362 1363 1364 1365
