# Fixed world centers; Z up; paths immutable
v 0.187273994 0.874516904 0.653488457
v 0.177135602 0.875920057 0.652272761
v 0.17171973 0.876282454 0.652153432
v 0.16056706 0.876677871 0.652388036
v 0.156154796 0.877988935 0.650900006
v 0.156763047 0.888765037 0.640041053
v 0.152339235 0.890080869 0.638546824
v 0.126167089 0.873695552 0.670540929
v 0.124026328 0.876162827 0.671200037
v 0.123643026 0.883900583 0.67231226
v 0.12407022 0.892444193 0.672286391
v 0.12479952 0.901298523 0.671837091
v 0.123125426 0.904230416 0.671837091
v 0.118807144 0.909123361 0.673202813
v 0.108730547 0.910382092 0.672124803
v 0.103244774 0.910552144 0.672231317
v 0.0948581472 0.908875406 0.671168625
v 0.0893741176 0.909029543 0.671298981
v 0.0767484978 0.90762049 0.673975706
v 0.0709783137 0.907452643 0.674557567
v 0.0660845935 0.908175826 0.673884988
v 0.0568798073 0.910210848 0.67171073
v 0.0509079397 0.909804106 0.672626913
v 0.040604338 0.910667539 0.672098875
v 0.0364704132 0.907520711 0.67278707
v 0.0265241135 0.90872246 0.671784699
v 0.0209305268 0.908661962 0.672214031
v 0.00970940571 0.908477366 0.673160672
v 0.00432942016 0.908615828 0.673308372
v -0.00120945601 0.908576906 0.67370522
v -0.0104683675 0.91042155 0.671793103
v -0.0156601593 0.910734117 0.671694338
v -0.0249668695 0.907844901 0.672388315
v -0.0291415304 0.90923816 0.670768976
v -0.0404438823 0.908807158 0.672059536
v -0.046810329 0.907794833 0.673825383
v -0.0573935062 0.908087373 0.674094021
v -0.061744269 0.909258544 0.672785521
v -0.0664735585 0.910009384 0.672068357
v -0.0764095038 0.910966635 0.671398818
v -0.085128285 0.908575952 0.671415806
v -0.0904351696 0.908654511 0.671645164
v -0.0950251743 0.909529865 0.670752227
v -0.106605642 0.908555984 0.67280066
v -0.111248307 0.909352183 0.672017992
v -0.121023767 0.910372913 0.671256423
v -0.12685661 0.909792602 0.672409534
v -0.127433404 0.907202899 0.664707243
v -0.127258882 0.908791661 0.658779919
v -0.127051175 0.907092035 0.649755299
v -0.129656807 0.906899512 0.64261651
v -0.12836571 0.906434059 0.631750643
v -0.127491087 0.910239577 0.618824661
v -0.127854288 0.906467795 0.616355479
v -0.151396021 0.887041271 0.640954018
v -0.155630708 0.88829869 0.639529049
v -0.164927602 0.889850795 0.638064265
v -0.168800175 0.89152211 0.63604337
v -0.186424896 0.878591478 0.651338577
v -0.191996396 0.874958336 0.649190187
v -0.191864654 0.87326926 0.640128672
v -0.191589013 0.875032067 0.633854032
v -0.191947192 0.872763574 0.625564277
v -0.1936488 0.873668492 0.616759419
v -0.194989577 0.870247364 0.610086203
v -0.192587301 0.875963628 0.594138861
v -0.193389073 0.871706426 0.59240526
v -0.189414218 0.879272819 0.573616862
v -0.192671269 0.873593211 0.570131004
v -0.19757317 0.870794177 0.566645145
v -0.198379278 0.866514087 0.564902246
v -0.203281179 0.863715053 0.561416388
v -0.197380587 0.868738234 0.541823268
v -0.195168048 0.869434297 0.52863431
v -0.186793253 0.880697608 0.507694006
v -0.193106785 0.871420681 0.509485304
v -0.195079833 0.872086346 0.500613272
v -0.198387846 0.866317868 0.497072846
v -0.199555874 0.867932618 0.486693144
v -0.204185128 0.859127998 0.49176228
v -0.200746581 0.866129398 0.473033339
v -0.200872838 0.864068568 0.463683754
v -0.194996104 0.873949945 0.440317929
v -0.192116693 0.873875737 0.431771755
v -0.189786687 0.879631817 0.414668262
v -0.192534432 0.874478757 0.409901559
v -0.195912212 0.868588626 0.406286508
v -0.198058337 0.869121075 0.397243828
v -0.165527299 0.91539669 0.320557773
v -0.168134943 0.913907766 0.318703443
v -0.181284979 0.906694829 0.326570362
v -0.190450221 0.902551889 0.333780378
v -0.217135772 0.879128635 0.367411673
v -0.224195451 0.882407963 0.367611974
v -0.227094039 0.880539179 0.366441369
v -0.236471951 0.877559721 0.367672563
v -0.240602732 0.870756805 0.36545676
v -0.242790148 0.876427352 0.352907389
v -0.248366684 0.876399636 0.353601038
v -0.253451616 0.87695837 0.353357524
v -0.255229294 0.873001039 0.34657222
v -0.254763156 0.871761739 0.335383981
v -0.194084182 0.95411694 0.199132428
v -0.198684275 0.955573022 0.197488561
v -0.203326926 0.956975758 0.195930511
v -0.212699026 0.954316854 0.196559921
v -0.217161238 0.955930471 0.194661066
v -0.225292698 0.954778373 0.192866862
v -0.234930858 0.957103789 0.190523624
v -0.237986669 0.955094278 0.189412817
v -0.245545581 0.954634905 0.186506912
v -0.250000745 0.956246018 0.184611067
v -0.257121891 0.95633477 0.180819348
v -0.264823616 0.955683947 0.17822659
v -0.271364212 0.956512392 0.173235923
v -0.273604065 0.955536008 0.170452937
v -0.280727178 0.955624878 0.16666019
v -0.286728799 0.957163632 0.160505995
v -0.289552897 0.955438673 0.158936307
v -0.295481354 0.957086623 0.152595848
v -0.300822288 0.954036951 0.148797795
v -0.306641042 0.95584619 0.142180532
v -0.276980549 1.00229597 0.0668206736
v -0.276634544 1.01196969 0.0660061985
v -0.275630891 1.01688313 0.0677267537
v -0.270830661 1.03041625 0.0651782826
v -0.275104731 1.03039753 0.0704082102
v -0.28355363 1.032534 0.0728665888
v -0.293283314 1.03502977 0.070279859
v -0.296423942 1.0329175 0.0692293942
v -0.303440392 1.03338408 0.06473919
v -0.307834744 1.0317167 0.0585049391
v -0.304142088 1.03317535 0.046442464
v -0.30505836 1.02836871 0.0445257239
v -0.301936686 1.02117443 0.0457526632
v -0.304681569 1.00822949 0.0519098155
v -0.303752005 1.00023544 0.0499789007
v -0.304645181 0.995469689 0.0480221063
v -0.328377277 0.954750061 0.100433238
v -0.331589341 0.954560101 0.0918101966
v -0.333474368 0.950569749 0.0842151642
v -0.334078699 0.951812685 0.0776384175
v -0.335379809 0.954192638 0.0646253601
v -0.335920662 0.951989889 0.0539092869
v -0.333931923 0.95314759 0.0374440886
v -0.335409373 0.947619021 0.0368200578
v -0.19235079 1.14219689 -0.303690642
v -0.201000378 1.14762449 -0.311029047
v -0.211508617 1.1420213 -0.300544918
v -0.217087045 1.1430254 -0.301307321
v -0.228338361 1.13866448 -0.297954291
v -0.238288805 1.14226282 -0.302188635
v -0.243264034 1.14406192 -0.304305792
v -0.248239264 1.14586103 -0.306422949
v -0.257094443 1.14470792 -0.30852434
v -0.267439693 1.14774418 -0.311803043
v -0.274220347 1.1470015 -0.309595078
v -0.279924959 1.14775503 -0.309935212
v -0.292882323 1.14073551 -0.302034378
v -0.29782927 1.14252436 -0.304139525
v -0.307723194 1.14610231 -0.308349788
v -0.313340783 1.14692569 -0.308811903
v -0.324381024 1.14248443 -0.305287361
v -0.331979066 1.14039803 -0.300795227
v -0.344705969 1.13974786 -0.297816843
v -0.349622369 1.14152575 -0.299908966
v -0.358563155 1.14002264 -0.301365912
v -0.363525808 1.1417253 -0.303330481
v -0.373395681 1.14521158 -0.307397872
v -0.378314823 1.14697802 -0.309471399
v -0.389246017 1.1488533 -0.310798705
v -0.394977838 1.14293289 -0.305660456
v -0.405607373 1.14520371 -0.307663798
v -0.410742372 1.1466074 -0.30912298
v -0.424073637 1.14465797 -0.303950071
v -0.428466946 1.14070487 -0.302136987
v -0.438636422 1.1435864 -0.305187821
v -0.443513304 1.14534998 -0.307263136
v -0.448390156 1.14711356 -0.30933845
v -0.458899647 1.14289844 -0.306143165
v -0.469351411 1.14526939 -0.308328748
v -0.474216133 1.14702857 -0.310398906
v -0.47916016 1.14865959 -0.312250972
v -0.491914868 1.14724302 -0.307997257
v -0.50133419 1.14461446 -0.307487547
v -0.506181717 1.14636743 -0.309550375
v -0.511051059 1.1480844 -0.311551869
v -0.522233486 1.14910638 -0.311452121
v -0.532087684 1.14565063 -0.309524
v -0.537256896 1.14683342 -0.310618639
v -0.542436004 1.14799428 -0.311676472
v -0.554466486 1.14743984 -0.308900565
v -0.560041964 1.14789057 -0.308753133
v -0.57583499 1.13737583 -0.284238398
v -0.576078892 1.1470232 -0.28436625
v -0.581608832 1.14745927 -0.284214526
v -0.590608478 1.1451807 -0.284271538
v -0.5958848 1.14603364 -0.28482458
v -0.606082678 1.1483475 -0.286960453
v -0.611525118 1.14888108 -0.286975741
v -0.6172418 1.14891005 -0.28613925
v -0.625955403 1.14703226 -0.286861658
v -0.631443441 1.14744115 -0.286666662
v -0.636635363 1.14511395 -0.292292684
v -0.638111532 1.14272892 -0.303535908
v -0.637078822 1.14821017 -0.317691237
v -0.63819921 1.14648521 -0.330182523
v -0.635970533 1.14036059 -0.336123556
v -0.636023462 1.13696206 -0.340966016
v -0.638433278 1.12597501 -0.343434244
v -0.637296319 1.12116122 -0.340945512
v -0.637629032 1.1103965 -0.338861316
v -0.638441145 1.10561967 -0.341318309
v -0.639165699 1.09417951 -0.338000625
v -0.638184428 1.08580172 -0.34003976
v -0.63758105 1.07675505 -0.34089312
v -0.638146222 1.07241642 -0.344118059
v -0.637437463 1.06355929 -0.345301241
v -0.637245238 1.05715394 -0.339870602
v -0.638083458 1.0456183 -0.336207092
v -0.63881284 1.04099381 -0.33890146
v -0.63804543 1.03227544 -0.340272456
v -0.637548447 1.02309406 -0.340795338
v -0.638007343 1.01893258 -0.344337791
v -0.637510359 1.00975657 -0.344859093
v -0.639564812 0.996236563 -0.337370038
v -0.639028907 0.990545988 -0.333053887
v -0.638174355 0.982026339 -0.334703386
v -0.637853205 0.972610533 -0.334681749
v -0.63801682 0.968940079 -0.339127153
v -0.637204647 0.960351765 -0.340643346
v -0.637978911 0.955651402 -0.343176007
v -0.637004673 0.947334111 -0.345200419
v -0.636317968 0.938541591 -0.346322417
v -0.637343407 0.930359483 -0.337122858
v -0.636244833 0.925314009 -0.350481063
v -0.637206376 0.913836062 -0.346424937
v -0.639107645 0.90429455 -0.334480852
v -0.639099956 0.89446044 -0.333479851
v -0.639442503 0.890469372 -0.337339818
v -0.639062285 0.881248474 -0.337505341
v -0.63809371 0.872979164 -0.3395181
v -0.639024556 0.868036449 -0.34153083
v -0.63805598 0.859767199 -0.343543589
v -0.637087405 0.851497948 -0.345556319
v -0.637101769 0.845154047 -0.33955577
v -0.638670921 0.832920074 -0.33361575
v -0.638880253 0.822848976 -0.331941187
v -0.639231741 0.818824947 -0.335748792
v -0.638942599 0.809543967 -0.335634649
v -0.639869034 0.804624736 -0.337637812
v -0.638905048 0.796394765 -0.339641005
v -0.637941062 0.788164794 -0.341644198
v -0.636811018 0.783694327 -0.339260817
v -0.637000859 0.773720145 -0.337649256
v -0.637675643 0.763032675 -0.334520459
v -0.636963367 0.760591805 -0.341649264
v -0.639124095 0.74769634 -0.333855599
v -0.638599634 0.744961143 -0.34039396
v -0.64032501 0.732760668 -0.333958089
v -0.639366031 0.724573553 -0.335950822
v -0.638407111 0.716386437 -0.337943584
v -0.639328718 0.711492836 -0.339936316
v -0.638369799 0.703305662 -0.341929078
v -0.636822522 0.699527144 -0.340883851
v -0.636202276 0.690852404 -0.341814905
v -0.63645184 0.686931431 -0.345914572
v -0.636040747 0.677957416 -0.346188039
v -0.636456728 0.667810857 -0.343867838
v -0.636059999 0.664802074 -0.349994123
v -0.639908671 0.649805427 -0.336889386
v -0.640663922 0.639245033 -0.333504826
v -0.638945401 0.635758877 -0.333031476
v -0.637992263 0.627621174 -0.335012197
v -0.638012111 0.618132114 -0.33394441
v -0.637955129 0.614619374 -0.338973641
v -0.637001991 0.606481671 -0.340954363
v -0.637918055 0.601617575 -0.342935085
v -0.636964858 0.593479872 -0.344915807
v -0.63601172 0.585342169 -0.346896529
v -0.637165964 0.577973425 -0.337421685
v -0.637819648 0.567695558 -0.334370822
v -0.637238264 0.561230898 -0.345875859
v -0.639270127 0.552756846 -0.333652496
v -0.639185607 0.543513238 -0.332914829
v -0.640096366 0.538677335 -0.334884077
v -0.639148712 0.53058672 -0.336853355
v -0.638201058 0.522496104 -0.338822603
v -0.639111817 0.517660141 -0.340791851
v -0.638164163 0.509569526 -0.342761129
v -0.637216508 0.50147891 -0.344730377
v -0.637355983 0.495654672 -0.338466853
v -0.638083041 0.485438496 -0.335188746
v -0.638461888 0.475690603 -0.333004534
v -0.639166534 0.471131295 -0.335600674
v -0.639685333 0.46122995 -0.332974195
v -0.640320539 0.456759542 -0.335783869
v -0.640529096 0.447270662 -0.334127873
v -0.639587045 0.439227968 -0.336085469
v -0.637739599 0.435992539 -0.336085469
v -0.637252986 0.427389979 -0.336616069
v -0.638608336 0.418335229 -0.341958284
v -0.63676089 0.415099829 -0.341958284
v -0.636218548 0.406573147 -0.342662662
v -0.636724234 0.402249813 -0.345873475
v -0.635782182 0.39420709 -0.34783107
v -0.635594487 0.385264784 -0.347421587
v -0.637682617 0.373637199 -0.33987388
v -0.636056244 0.371833831 -0.349768907
v -0.637664378 0.360806018 -0.343719214
v -0.639177799 0.353656203 -0.333199769
v -0.638241351 0.345661193 -0.335145742
v -0.639141381 0.34088245 -0.337091744
v -0.638204932 0.332887441 -0.339037716
v -0.637268424 0.324892461 -0.340983689
v -0.638168454 0.320113689 -0.342929691
v -0.637232006 0.312118709 -0.344875664
v -0.636295557 0.3041237 -0.346821636
v -0.637224674 0.297806054 -0.338152856
v -0.637894809 0.288042217 -0.335066617
v -0.637280881 0.279723167 -0.336005896
v -0.638088226 0.275061339 -0.338223934
v -0.638931394 0.265150636 -0.334592849
v -0.638051927 0.262336344 -0.342101038
v -0.64022404 0.251002312 -0.33429268
v -0.639293551 0.243058413 -0.336226225
v -0.638363123 0.235114515 -0.3381598
v -0.639257371 0.230366275 -0.340093344
v -0.638326883 0.222422376 -0.342026889
v -0.636775434 0.218938291 -0.341170013
v -0.636575401 0.210230872 -0.340813726
v -0.636490226 0.206509203 -0.345817804
v -0.636539221 0.197549313 -0.344677597
v -0.639328599 0.185781285 -0.334941804
v -0.636503041 0.184867755 -0.348541468
v -0.640001655 0.172416016 -0.336566865
v -0.639075339 0.164507926 -0.338491678
v -0.637258828 0.161326662 -0.338491678
v -0.637328088 0.152422488 -0.337296516
v -0.637731731 0.143200815 -0.335055262
v -0.636296511 0.140783668 -0.344266176
v -0.637170792 0.131106183 -0.340543926
v -0.637210667 0.127218038 -0.345131963
v -0.639863908 0.115837 -0.335820019
v -0.639901519 0.107031994 -0.334723234
v -0.638093293 0.103865229 -0.334723234
v -0.637315392 0.0958557427 -0.336187601
v -0.638943613 0.0865826607 -0.340471387
v -0.637135386 0.0834159032 -0.340471387
v -0.636213303 0.075543873 -0.342387438
v -0.637099504 0.0708386004 -0.344303489
v -0.636177421 0.0629665703 -0.346219569
v -0.635721266 0.0546668284 -0.346673727
v -0.637435675 0.0443969443 -0.340320051
v -0.637864113 0.0401171185 -0.343661577
v -0.638147533 0.0311789121 -0.341794729
v -0.639036238 0.0256101079 -0.333357483
v -0.638119161 0.0177807827 -0.335263163
v -0.639000535 0.0131010395 -0.337168813
v -0.638083518 0.00527171418 -0.339074463
v -0.63716644 -0.00255761133 -0.340980142
v -0.638047814 -0.00723735476 -0.342885792
v -0.637130737 -0.0150666796 -0.344791442
v -0.63621372 -0.0228960048 -0.346697122
v -0.637613952 -0.028764531 -0.33667174
v -0.638332427 -0.0379496329 -0.333454967
v -0.637419045 -0.0457475707 -0.335352987
v -0.638296902 -0.0504085533 -0.337251008
v -0.637383521 -0.0582064874 -0.339149028
v -0.638261378 -0.0628674701 -0.341047049
v -0.637347996 -0.0706654117 -0.342945069
v -0.636434615 -0.0784633458 -0.34484309
v -0.637899876 -0.0881660804 -0.339278877
v -0.636890233 -0.0919169188 -0.336841732
v -0.638641298 -0.101214446 -0.340627819
v -0.639496207 -0.106421046 -0.332345396
v -0.638587236 -0.114181459 -0.334234297
v -0.639460862 -0.118820012 -0.336123168
v -0.638551891 -0.126580417 -0.338012069
v -0.63764286 -0.134340838 -0.339900941
v -0.638516486 -0.13897939 -0.341789842
v -0.637607515 -0.146739796 -0.343678713
v -0.636698544 -0.154500216 -0.345567614
v -0.637940407 -0.159863636 -0.336086988
v -0.638573706 -0.168735117 -0.333145142
v -0.638445616 -0.177031443 -0.332591116
v -0.639315367 -0.181649432 -0.334471643
v -0.638410389 -0.189375445 -0.33635214
v -0.63928014 -0.193993434 -0.338232666
v -0.638375163 -0.201719448 -0.340113163
v -0.637470245 -0.209445447 -0.34199369
v -0.636877358 -0.213376001 -0.338290244
v -0.637112916 -0.221879646 -0.336598665
v -0.636530042 -0.229515448 -0.34763521
v -0.637077749 -0.234199852 -0.340352446
v -0.637923658 -0.243086115 -0.336745679
v -0.638419569 -0.247440577 -0.339783937
v -0.637888551 -0.255388409 -0.340493977
v -0.637695551 -0.263552427 -0.340144038
v -0.638609111 -0.272423506 -0.336324543
v -0.639408171 -0.276973754 -0.338401705
v -0.640512764 -0.285935998 -0.333978385
v -0.638750613 -0.289022028 -0.333978385
v -0.637852073 -0.296693385 -0.33584559
v -0.637399971 -0.304641664 -0.336313963
v -0.637817085 -0.308950037 -0.339579999
v -0.636918545 -0.316621363 -0.341447204
v -0.637782156 -0.321206689 -0.343314409
v -0.636883616 -0.328878045 -0.345181614
v -0.635985017 -0.336549371 -0.347048819
v -0.637306273 -0.341453582 -0.337385505
v -0.637356699 -0.349657089 -0.336281747
v -0.638235927 -0.358325213 -0.332583219
v -0.639549792 -0.363148719 -0.333016247
v -0.640737891 -0.371958494 -0.328345597
v -0.641595542 -0.37651208 -0.330199897
v -0.640703201 -0.384130388 -0.332054198
v -0.63981086 -0.391748667 -0.333908498
v -0.638918519 -0.399366975 -0.335762799
v -0.637681901 -0.402708292 -0.334154814
v -0.638883829 -0.411538839 -0.33947137
v -0.637133837 -0.414603531 -0.33947137
v -0.636682987 -0.422452271 -0.339941859
v -0.637099147 -0.426775426 -0.343179971
v -0.636206806 -0.434393734 -0.345034242
v -0.635314465 -0.442012012 -0.346888542
v -0.636172056 -0.446565628 -0.348742843
v -0.635279715 -0.454183906 -0.350597143
v -0.635163367 -0.462181151 -0.350015819
v -0.637034416 -0.466999948 -0.338669509
v -0.637352586 -0.475168109 -0.336734027
v -0.636830628 -0.482923776 -0.337432414
v -0.637318015 -0.487283468 -0.340425372
v -0.636429846 -0.494866371 -0.34227106
v -0.637283444 -0.499398828 -0.344116747
v -0.637895584 -0.507659316 -0.34125331
v -0.639585197 -0.516379416 -0.335010856
v -0.638700068 -0.523936629 -0.336850286
v -0.637643099 -0.527272284 -0.334723264
v -0.638665617 -0.536010981 -0.340529144
v -0.636929691 -0.539051116 -0.340529144
v -0.636723995 -0.546892762 -0.340238452
v -0.636895239 -0.551125407 -0.344208032
v -0.636010051 -0.55868268 -0.346047461
v -0.63791126 -0.567359865 -0.33914566
v -0.638016284 -0.575290322 -0.337881684
v -0.638864338 -0.579793215 -0.339715332
v -0.637981951 -0.587326765 -0.341549009
v -0.637588561 -0.590868533 -0.33735764
v -0.637911618 -0.598846257 -0.33541441
v -0.6379565 -0.606705546 -0.334344625
v -0.638093293 -0.610936284 -0.338396579
v -0.637922227 -0.618707359 -0.3380014
v -0.63805902 -0.622945189 -0.3420555
v -0.638786316 -0.631022871 -0.338838339
v -0.638563752 -0.638754189 -0.33860454
v -0.640287101 -0.642942965 -0.327803463
v -0.639410853 -0.650423586 -0.329624265
v -0.641095102 -0.65936619 -0.333265841
v -0.63937676 -0.66237551 -0.333265841
v -0.638500571 -0.669856131 -0.335086614
v -0.639342666 -0.674327433 -0.336907387
v -0.638466477 -0.681808054 -0.338728189
v -0.637590289 -0.689288735 -0.340548962
v -0.636714041 -0.696769357 -0.342369765
v -0.637556136 -0.701240659 -0.344190538
v -0.636679947 -0.70872128 -0.346011341
v -0.636073053 -0.712042987 -0.342526942
v -0.635382175 -0.719567418 -0.343767583
v -0.635368943 -0.723802209 -0.348267674
v -0.637131929 -0.731978774 -0.341809005
v -0.637117326 -0.73966229 -0.340929806
v -0.637639403 -0.744038105 -0.34374091
v -0.638336897 -0.751886606 -0.340623945
v -0.638040662 -0.759474456 -0.340628415
v -0.63688767 -0.762602627 -0.338882327
v -0.637852073 -0.770471632 -0.334940463
v -0.637532711 -0.778903902 -0.344814569
v -0.638298512 -0.782449782 -0.337051004
v -0.639674902 -0.79036355 -0.331815183
v -0.640509427 -0.7947945 -0.333619565
v -0.639641106 -0.802207708 -0.335423917
v -0.638772786 -0.809620857 -0.337228298
v -0.637904525 -0.817034066 -0.33903268
v -0.638064623 -0.82037276 -0.333196849
v -0.637870729 -0.828878224 -0.342641413
v -0.636591613 -0.831937313 -0.341312885
v -0.637977898 -0.839742959 -0.336050093
v -0.636134088 -0.843704581 -0.346250147
v -0.636558354 -0.851331532 -0.343999028
v -0.637306452 -0.858993828 -0.340733916
v -0.638365686 -0.866683424 -0.336495697
v -0.639364362 -0.871121705 -0.337766826
v -0.639666438 -0.87867099 -0.335901111
v -0.637972355 -0.881637931 -0.335901111
v -0.637424231 -0.88905549 -0.336706698
v -0.637172103 -0.896507025 -0.336585462
v -0.637074888 -0.900796711 -0.34128654
v -0.636527002 -0.908209264 -0.342090696
v -0.637041271 -0.912580252 -0.344876796
v -0.636177361 -0.919955492 -0.346671939
v -0.637256622 -0.927529156 -0.342369437
v -0.638743401 -0.930807471 -0.332410216
v -0.638397217 -0.938199341 -0.332587361
v -0.640049934 -0.946974814 -0.336160839
v -0.638363779 -0.949927807 -0.336160839
v -0.637618899 -0.957277477 -0.337587178
v -0.638330281 -0.961656272 -0.339734346
v -0.637470484 -0.968997061 -0.341521084
v -0.636610627 -0.97633779 -0.343307823
v -0.637039185 -0.983749866 -0.341053724
v -0.636577189 -0.988066256 -0.3468813
v -0.637005746 -0.995465755 -0.344623387
v -0.637062371 -0.998490632 -0.339165568
v -0.638509631 -1.00589812 -0.333723873
v -0.638320863 -1.01322687 -0.333411872
v -0.639143109 -1.01759279 -0.33518973
v -0.638287604 -1.02489698 -0.336967587
v -0.63910985 -1.0292629 -0.338745415
v -0.638254285 -1.03656709 -0.340523273
v -0.637398779 -1.04387128 -0.3423011
v -0.636509359 -1.04681182 -0.33983025
v -0.63650322 -1.05410862 -0.338947266
v -0.636509895 -1.06284559 -0.347634643
v -0.636517704 -1.06576216 -0.342348427
v -0.637153268 -1.07302797 -0.339452416
v -0.637589633 -1.07739103 -0.342429996
v -0.637841284 -1.08464658 -0.340735376
v -0.636988521 -1.09192717 -0.342507452
v -0.63637656 -1.09919798 -0.343524158
v -0.636955321 -1.10355961 -0.346051663
v -0.637672722 -1.11076117 -0.342894077
v -0.636350214 -1.11366785 -0.341803879
v -0.635889769 -1.12091386 -0.342347771
v -0.636669993 -1.12525964 -0.344235092
v -0.635865986 -1.13252318 -0.345855832
v -0.637041152 -1.13804007 -0.331734806
v -0.635930061 -1.13931334 -0.320530891
v -0.636130273 -1.13889456 -0.295952171
v -0.63334316 -1.14028132 -0.290132493
v -0.626110017 -1.14041328 -0.288711071
v -0.620778084 -1.13763809 -0.286495447
v -0.615241766 -1.13922691 -0.289092451
v -0.606814802 -1.13944316 -0.29119572
v -0.600162566 -1.1395303 -0.28790465
v -0.593580961 -1.13961244 -0.284400254
v -0.590643287 -1.13823879 -0.284056932
v -0.581968725 -1.13846755 -0.286730111
v -0.575801969 -1.14010477 -0.290983856
v -0.56184721 -1.13789845 -0.313866735
v -0.554345846 -1.13803947 -0.312796563
v -0.548384249 -1.1396699 -0.316238075
v -0.538387299 -1.13998282 -0.322294623
v -0.530803978 -1.1401279 -0.321315736
v -0.523693502 -1.14024019 -0.318958461
v -0.521612108 -1.13878167 -0.315974087
v -0.514924109 -1.13886499 -0.312413007
v -0.50871253 -1.14051557 -0.316340268
v -0.505732238 -1.13751876 -0.307071388
v -0.498613656 -1.13763011 -0.304709554
v -0.490300745 -1.13781893 -0.305640697
v -0.484357387 -1.13944972 -0.308693588
v -0.475080788 -1.13970172 -0.312170804
v -0.465808004 -1.1399523 -0.315555125
v -0.464954615 -1.13840628 -0.309227943
v -0.453651756 -1.13878262 -0.318032324
v -0.446576029 -1.13888764 -0.315326363
v -0.440661907 -1.14052355 -0.318065256
v -0.431878954 -1.14073813 -0.319868118
v -0.430554181 -1.13761353 -0.306344062
v -0.424122095 -1.13927913 -0.310389698
v -0.413487732 -1.13960636 -0.316976339
v -0.406010866 -1.13973451 -0.315197229
v -0.404173881 -1.13824213 -0.31156382
v -0.396980613 -1.13835204 -0.309035063
v -0.389386177 -1.13848627 -0.307528198
v -0.38190341 -1.14022064 -0.314044029
v -0.374195993 -1.14036143 -0.312748402
v -0.365978926 -1.14053285 -0.312721431
v -0.36484763 -1.13899219 -0.307315826
v -0.354779363 -1.13927281 -0.311926842
v -0.34641856 -1.13945007 -0.312166929
v -0.337417006 -1.13966477 -0.313961595
v -0.337039888 -1.13807642 -0.30671674
v -0.328024715 -1.13828909 -0.308503479
v -0.317714572 -1.14019179 -0.321562082
v -0.310032994 -1.14032567 -0.319920659
v -0.302177072 -1.14046943 -0.318682522
v -0.300598234 -1.13894379 -0.314437896
v -0.292736232 -1.13908672 -0.313196212
v -0.285867035 -1.13917232 -0.309538662
v -0.277305305 -1.13935459 -0.309933424
v -0.276426196 -1.13778961 -0.304052353
v -0.269557029 -1.13787532 -0.300394803
v -0.25683862 -1.13990641 -0.318511963
v -0.24887909 -1.14005196 -0.317317158
v -0.24001871 -1.14024782 -0.318207175
v -0.232683912 -1.14035738 -0.31549257
v -0.232261881 -1.13875854 -0.308604628
v -0.223590538 -1.13894129 -0.308997065
v -0.216082707 -1.14068377 -0.314488381
v -0.203474224 -1.14108527 -0.323821217
v -0.193385541 -1.14134538 -0.327266335
v -0.195277467 -1.13798606 -0.307391375
v -0.184737608 -1.13989186 -0.319589078
v -0.176508442 -1.14004695 -0.318727553
v -0.167384058 -1.14024973 -0.319844335
v -0.166927248 -1.13864362 -0.313159674
v -0.158752143 -1.13879395 -0.312128156
v -0.149311602 -1.14064372 -0.32153815
v -0.141402364 -1.14077961 -0.319826275
v -0.132950053 -1.140944 -0.319287032
v -0.123932533 -1.14113796 -0.319950938
v -0.124779187 -1.13945758 -0.31050685
v -0.11429093 -1.13972569 -0.314347953
v -0.107078172 -1.13982344 -0.31103918
v -0.106695309 -1.1382097 -0.304335505
v -0.0966070667 -1.13845301 -0.307211965
v -0.085985072 -1.1387223 -0.311161041
v -0.080296278 -1.14037967 -0.312028855
v -0.0651526228 -1.1408813 -0.32543537
v -0.064861469 -1.14062428 -0.307390511
v -0.0640490651 -1.13902712 -0.301679403
v -0.0613199584 -1.13890016 -0.288922101
v -0.0544961393 -1.14061153 -0.292124331
v -0.0492326133 -1.13760602 -0.288381308
v -0.0410479344 -1.13774979 -0.287025452
v -0.0340137035 -1.13783753 -0.283280015
v -0.0225768778 -1.13977563 -0.2958363
v -0.0150644472 -1.13988578 -0.292996347
v -0.00656834571 -1.14004409 -0.292145103
v -0.00576801598 -1.13844419 -0.286521465
v 0.00251863175 -1.13859105 -0.285232037
v 0.0113186203 -1.138762 -0.284949183
v 0.0171275157 -1.1404295 -0.285835803
v 0.0210396815 -1.13733816 -0.279300004
v 0.0299395118 -1.13751173 -0.279158533
v 0.0388827547 -1.13932753 -0.286204249
v 0.0490582213 -1.13956153 -0.288486898
v 0.0577186346 -1.13972342 -0.287742823
v 0.0603821203 -1.13820255 -0.285848737
v 0.0853996351 -1.13911772 -0.316911221
v 0.0930420607 -1.13922846 -0.313980997
v 0.101056136 -1.13935626 -0.311758965
v 0.103030503 -1.13778782 -0.308467984
v 0.112828404 -1.13799489 -0.309651375
v 0.120711446 -1.13977671 -0.314198345
v 0.129794836 -1.13995206 -0.313932121
v 0.138555691 -1.1401124 -0.313022196
v 0.150523752 -1.14041758 -0.318125814
v 0.152084157 -1.13881981 -0.31404075
v 0.159440488 -1.13891554 -0.310424864
v 0.171871334 -1.140908 -0.323254049
v 0.171367824 -1.13754618 -0.308345973
v 0.180296168 -1.13770962 -0.307618409
v 0.193000957 -1.13803577 -0.313818514
v 0.201912865 -1.13987088 -0.31990701
v 0.209192723 -1.13996172 -0.3160308
v 0.216472581 -1.14005244 -0.312154591
v 0.219197989 -1.13849628 -0.310216486
v 0.226477847 -1.138587 -0.306340277
v 0.239907429 -1.14061975 -0.320409894
v 0.249629214 -1.14081538 -0.320845425
v 0.257948369 -1.14094985 -0.318734795
v 0.26780048 -1.14115024 -0.31933561
v 0.266806185 -1.13942468 -0.310742825
v 0.275605232 -1.13957846 -0.309462965
v 0.285208941 -1.13976574 -0.309575945
v 0.286470741 -1.13813722 -0.305018365
v 0.296872944 -1.13835537 -0.306496441
v 0.305704474 -1.13850832 -0.305191576
v 0.316399366 -1.14042461 -0.313832432
v 0.328790933 -1.14072621 -0.318605274
v 0.33884266 -1.14092946 -0.319273651
v 0.339410245 -1.13926005 -0.313528478
v 0.349098027 -1.13944602 -0.313542157
v 0.356487751 -1.13953817 -0.309607446
v 0.35885188 -1.13794243 -0.306955993
v 0.366644025 -1.13805068 -0.303705394
v 0.374981523 -1.13818038 -0.3013677
v 0.389684856 -1.14025986 -0.316337228
v 0.399584144 -1.14045215 -0.316520721
v 0.411121845 -1.14070976 -0.319397628
v 0.409802198 -1.13895547 -0.310582757
v 0.419660062 -1.13914359 -0.310636431
v 0.431409508 -1.13940537 -0.313773811
v 0.440812588 -1.1412816 -0.319579512
v 0.442255408 -1.13792729 -0.308797151
v 0.452767342 -1.13813734 -0.309807032
v 0.462571055 -1.14002717 -0.316168725
v 0.474825323 -1.14030612 -0.319910347
v 0.484987319 -1.14050293 -0.32020995
v 0.492496789 -1.14059651 -0.316211492
v 0.495308131 -1.13899124 -0.314212263
v 0.502817571 -1.13908494 -0.310213804
v 0.510489821 -1.14089859 -0.312951773
v 0.513138413 -1.13757324 -0.304216117
v 0.520647824 -1.13766694 -0.300217658
v 0.534152627 -1.13969767 -0.312102705
v 0.545208395 -1.13992393 -0.313612759
v 0.554056287 -1.14006686 -0.311624646
v 0.564131558 -1.14025545 -0.311529994
v 0.569632649 -1.13873732 -0.313667208
v 0.570871532 -1.13859975 -0.299841523
v 0.575594425 -1.14030766 -0.297831744
v 0.582513034 -1.14037824 -0.292842895
v 0.59186101 -1.14053929 -0.291580766
v 0.601162434 -1.14069819 -0.290224731
v 0.602241337 -1.13901889 -0.285548478
v 0.614066005 -1.13926804 -0.288000464
v 0.62175709 -1.14108896 -0.29045704
v 0.626859069 -1.13783002 -0.285565168
v 0.633597493 -1.13135719 -0.285996377
v 0.63351351 -1.12308979 -0.285311013
v 0.631463468 -1.11974823 -0.285094053
v 0.631168604 -1.11146891 -0.284092277
v 0.633063257 -1.10323203 -0.286381304
v 0.632162094 -1.09492528 -0.28446725
v 0.630253673 -1.09158313 -0.28446725
v 0.631602943 -1.08330595 -0.285937458
v 0.631490946 -1.07499862 -0.285209507
v 0.62917012 -1.07164848 -0.284592658
v 0.62916553 -1.06333601 -0.284026951
v 0.629496098 -1.05501783 -0.283965081
v 0.632725954 -1.05004144 -0.285384297
v 0.632812262 -1.04170477 -0.284952402
v 0.631835818 -1.03336823 -0.282923311
v 0.6299209 -1.03001463 -0.282923311
v 0.628944397 -1.02167809 -0.28089419
v 0.63048166 -1.013304 -0.282643557
v 0.632175386 -1.00490999 -0.284626871
v 0.629776597 -1.00155878 -0.283905208
v 0.629277885 -0.993195236 -0.282593489
v 0.63382262 -0.988111258 -0.285975367
v 0.635559916 -0.979667544 -0.288020939
v 0.628503382 -0.973029435 -0.283193022
v 0.632655025 -0.967922807 -0.285982341
v 0.631673992 -0.9595474 -0.283943772
v 0.630693018 -0.951171935 -0.281905174
v 0.629711986 -0.942796528 -0.279866606
v 0.627788126 -0.939427257 -0.279866606
v 0.628867686 -0.930952191 -0.280925989
v 0.62933296 -0.922494888 -0.281060934
v 0.623673916 -0.919319272 -0.275445968
v 0.626746953 -0.910715163 -0.279505312
v 0.628681779 -0.902151644 -0.281851023
v 0.634099424 -0.896854401 -0.286526442
v 0.626587689 -0.890321672 -0.28103897
v 0.629045665 -0.881685436 -0.284173071
v 0.630195856 -0.876642585 -0.282430708
v 0.629946113 -0.868174732 -0.281488717
v 0.63039875 -0.859647632 -0.281601816
v 0.627027154 -0.856373012 -0.279440254
v 0.626922786 -0.847884595 -0.27871719
v 0.629561424 -0.839155555 -0.282117724
v 0.631704152 -0.830445588 -0.284771144
v 0.629764974 -0.827049494 -0.284771144
v 0.629188597 -0.818568587 -0.283336788
v 0.632160664 -0.813327909 -0.28431958
v 0.631170809 -0.8048774 -0.282262713
v 0.630189121 -0.796426058 -0.280218065
v 0.622381866 -0.790041983 -0.27431199
v 0.630072892 -0.78427285 -0.282392472
v 0.630682945 -0.775634706 -0.282739639
v 0.630119622 -0.767119944 -0.281322658
v 0.628174663 -0.763713777 -0.281322658
v 0.626941323 -0.75760138 -0.269573987
v 0.63171643 -0.758046567 -0.261054307
v 0.018600978 -0.826844633 0.657336414
v 0.0253861286 -0.826798797 0.65895927
v 0.0321525633 -0.827738583 0.655855238
v 0.0398767702 -0.827584445 0.656127572
v 0.0606863089 -0.830636919 0.629768908
v 0.0599631295 -0.834476709 0.62820524
v 0.0607155897 -0.840900838 0.626641631
v 0.0618836172 -0.846260786 0.629268408
v 0.0626353696 -0.852678895 0.62770623
v 0.0619128719 -0.85651511 0.626144052
v 0.0618208833 -0.861979961 0.630620837
v 0.0612136461 -0.868517697 0.63106066
v 0.058830712 -0.872500718 0.631952047
v 0.0613549761 -0.877685666 0.632562578
v 0.062104173 -0.88408196 0.631005704
v 0.0628533736 -0.890478253 0.629448891
v 0.0616866313 -0.897028923 0.630713105
v 0.0631543994 -0.899599433 0.630713105
v 0.0609924011 -0.906209946 0.633440614
v 0.0617397018 -0.912589967 0.631887734
v 0.0624131896 -0.91521281 0.633052468
v 0.0631601736 -0.921590209 0.631500244
v 0.0639071688 -0.927967608 0.62994796
v 0.0627075732 -0.9307006 0.63386476
v 0.0631382465 -0.937087893 0.632778168
v 0.0619977936 -0.943561137 0.63400203
v 0.0638304949 -0.948737204 0.635601819
v 0.0623287447 -0.952577591 0.63520962
v 0.0661881566 -0.956509233 0.63856566
v 0.0759847462 -0.95638603 0.635836124
v 0.0781629831 -0.95514226 0.63738513
v 0.0867575631 -0.955077589 0.636456728
v 0.0929079205 -0.955134332 0.63909179
v 0.0999333635 -0.956288993 0.635774136
v 0.107501835 -0.956278265 0.636399329
v 0.115053371 -0.956268966 0.637069106
v 0.115119085 -0.955122173 0.641655684
v 0.12054836 -0.955215037 0.645352304
v 0.118257336 -0.953048885 0.657898605
v 0.123788148 -0.954273403 0.656779587
v 0.124427542 -0.947828293 0.656373501
v 0.123885311 -0.941439629 0.657636642
v 0.124441653 -0.934985101 0.657348871
v 0.123508863 -0.932385623 0.656595528
v 0.12435703 -0.925900638 0.655894935
v 0.12405552 -0.919481695 0.656818926
v 0.122587584 -0.916910887 0.656818926
v 0.122461952 -0.91047591 0.657494128
v 0.124810889 -0.903852344 0.654673338
v 0.120758913 -0.898786783 0.656244755
v 0.123921424 -0.894768476 0.654349804
v 0.124273665 -0.888270438 0.654350638
v 0.120950028 -0.883144915 0.654886484
v 0.122050233 -0.879280865 0.655911028
v 0.11910513 -0.874123096 0.655911028
v 0.122622199 -0.867314398 0.651427329
v 0.122070178 -0.860870421 0.652707219
v 0.122693859 -0.854307652 0.652322829
v 0.121216916 -0.851721048 0.652322829
v 0.120758437 -0.845260382 0.653470516
v 0.122977972 -0.838508785 0.650825739
v 0.121448502 -0.835923374 0.650896668
v 0.12553297 -0.827926159 0.650305152
v 0.124545805 -0.82702893 0.656386197
v 0.131858587 -0.826940715 0.657514513
v 0.139601603 -0.826804996 0.658056676
v 0.149774581 -0.827412546 0.650566518
v 0.155690119 -0.827486277 0.653716266
v 0.161647901 -0.827555358 0.656807482
v 0.173672944 -0.827974498 0.646874487
v 0.187602058 -0.833060801 0.627084851
v 0.185813084 -0.839866042 0.629026651
v 0.187313408 -0.842493594 0.629026651
v 0.18542026 -0.84928906 0.631111145
v 0.18787095 -0.854589939 0.631864786
v 0.187682658 -0.858436167 0.629523456
v 0.188446701 -0.86495918 0.627935767
v 0.189984038 -0.870336771 0.629949272
v 0.190308362 -0.874141097 0.626901448
v 0.18758741 -0.880953908 0.630127549
v 0.189636618 -0.886268198 0.631426454
v 0.18852888 -0.892920792 0.632422149
v 0.189666286 -0.896665394 0.628258586
v 0.187628567 -0.902268171 0.63518995
v 0.188388899 -0.908759594 0.633609891
v 0.189149246 -0.915251017 0.632029891
v 0.190640345 -0.917862356 0.632029891
v 0.190216944 -0.924427211 0.632081687
v 0.189614072 -0.930994987 0.632381558
v 0.188661411 -0.937573373 0.633164465
v 0.190149382 -0.940179288 0.633164465
v 0.18875736 -0.946766853 0.634552181
v 0.188924581 -0.95210892 0.63841337
v 0.190058321 -0.955884874 0.634276628
v 0.193203539 -0.956086874 0.641223073
v 0.206386 -0.955824554 0.634423435
v 0.20517239 -0.954718053 0.640683591
v 0.214486182 -0.954633653 0.639217734
v 0.221324116 -0.954665244 0.641139448
v 0.229176536 -0.955817401 0.637124181
v 0.237005264 -0.9558056 0.637748599
v 0.245735496 -0.955753565 0.637185872
v 0.24328959 -0.954695284 0.645022273
v 0.248969853 -0.954781294 0.64853251
v 0.249152601 -0.952441454 0.657356977
v 0.250362515 -0.948542476 0.658298552
v 0.251662999 -0.941950381 0.657145321
v 0.251031309 -0.935451448 0.658554792
v 0.249841094 -0.932822883 0.658155382
v 0.25121966 -0.926202774 0.656898499
v 0.248901725 -0.920931876 0.656011045
v 0.251608849 -0.916919649 0.654972374
v 0.251245677 -0.910384893 0.65602684
v 0.248255298 -0.905147791 0.65602684
v 0.248680875 -0.898552179 0.656032979
v 0.250293165 -0.891859174 0.654463649
v 0.248795405 -0.889236152 0.654463649
v 0.250788301 -0.882494509 0.652387619
v 0.250942886 -0.875888765 0.65275538
v 0.249387264 -0.873265803 0.652828813
v 0.248677433 -0.866729259 0.654345214
v 0.248538762 -0.860140383 0.655102611
v 0.247037917 -0.857511938 0.655102611
v 0.248148009 -0.850798905 0.654199302
v 0.251477331 -0.843854904 0.650346816
v 0.247863263 -0.838644207 0.651150644
v 0.249454051 -0.834640622 0.651610017
v 0.248487353 -0.82810849 0.653469861
v 0.260738462 -0.827519178 0.648368239
v 0.254732728 -0.827114403 0.660883725
v 0.263103217 -0.826935649 0.660929084
v 0.271095276 -0.826798618 0.661495924
v 0.282564312 -0.827344835 0.652993977
v 0.290079087 -0.827263296 0.654250145
v 0.298797131 -0.828111827 0.649417579
v 0.313921958 -0.833269596 0.629143834
v 0.314700663 -0.839917898 0.627525628
v 0.311692536 -0.84302932 0.6334216
v 0.311931014 -0.849713862 0.632507205
v 0.312648207 -0.856351852 0.630970418
v 0.315695226 -0.861688077 0.630970418
v 0.314948589 -0.865652442 0.629356086
v 0.315725446 -0.872284949 0.627741694
v 0.315099686 -0.877914965 0.632510424
v 0.315586478 -0.881776273 0.629297495
v 0.314317703 -0.887432516 0.634893954
v 0.31417352 -0.894110858 0.634477019
v 0.314947635 -0.900719762 0.632868409
v 0.31572175 -0.907328665 0.631259799
v 0.317094117 -0.909996808 0.631448865
v 0.317760378 -0.91661191 0.629980326
v 0.314255118 -0.923472047 0.633927464
v 0.31577 -0.92612505 0.633927464
v 0.316542476 -0.932720125 0.632322252
v 0.317852914 -0.938115597 0.634550154
v 0.317522615 -0.944759309 0.634374678
v 0.316781163 -0.948696136 0.632771552
v 0.316313773 -0.954151034 0.637296915
v 0.318306953 -0.955588758 0.641182482
v 0.329163373 -0.955451667 0.638137877
v 0.335885048 -0.956686556 0.635945022
v 0.345101684 -0.956625104 0.635076344
v 0.351277888 -0.956694424 0.638114214
v 0.353399426 -0.955409765 0.63989836
v 0.361915201 -0.955378234 0.639972031
v 0.370560735 -0.955341816 0.639906287
v 0.376586556 -0.956616223 0.638695955
v 0.371245295 -0.954454482 0.654322267
v 0.377853811 -0.954504728 0.656810403
v 0.378915757 -0.950546682 0.658017457
v 0.377375931 -0.945166826 0.656150997
v 0.376709253 -0.938558161 0.657624602
v 0.377631545 -0.931864023 0.657111049
v 0.378872961 -0.925141692 0.656199455
v 0.377353549 -0.922480702 0.656199455
v 0.376820534 -0.915851414 0.657507062
v 0.379798651 -0.908997118 0.654423475
v 0.378276527 -0.90633136 0.654423475
v 0.377500325 -0.899704814 0.656036377
v 0.374456048 -0.894373298 0.656036377
v 0.375682503 -0.89037776 0.657047808
v 0.380787104 -0.883307517 0.651300967
v 0.375991255 -0.878096104 0.653485119
v 0.377684802 -0.871256173 0.652004957
v 0.376972675 -0.864602804 0.653539658
v 0.375445634 -0.861928403 0.653539658
v 0.374666929 -0.855280399 0.655157745
v 0.376569778 -0.848388135 0.653416038
v 0.375040859 -0.845710516 0.653416038
v 0.376091331 -0.838879824 0.652742088
v 0.376040161 -0.833225369 0.648964822
v 0.356960505 -0.830150783 0.679900229
v 0.365030557 -0.830022991 0.680580616
v 0.36729306 -0.82873112 0.682189524
v 0.376373321 -0.828502536 0.681640744
v 0.374004006 -0.824863195 0.687111259
v 0.372880429 -0.82005024 0.695434034
v 0.372550339 -0.815171242 0.702752709
v 0.368374497 -0.810724318 0.714780092
v 0.370525837 -0.809451461 0.716496468
v 0.371467382 -0.801662385 0.720350742
v 0.373714268 -0.800379395 0.721948564
v 0.376700133 -0.795172632 0.725144207
v 0.377216697 -0.791274905 0.72701323
v 0.379122287 -0.786197245 0.731522083
v 0.37812686 -0.781475902 0.739543915
v 0.370985538 -0.778530061 0.750687599
v 0.373615652 -0.773396432 0.754273057
v 0.370572686 -0.768986404 0.764698148
v 0.372799873 -0.767714679 0.766281962
v 0.370914459 -0.760375381 0.773476243
v 0.373869687 -0.755222082 0.776639044
v 0.376093477 -0.753952324 0.778220415
v 0.37871626 -0.748844206 0.781780124
v 0.378506362 -0.745090842 0.78448391
v 0.37640658 -0.74064666 0.793657064
v 0.373487204 -0.737290263 0.799570978
v 0.375531167 -0.732289076 0.803784251
v 0.376763314 -0.727409959 0.808952272
v 0.389309525 -0.723694324 0.802520216
v 0.386759579 -0.720304847 0.807961404
v 0.391846567 -0.717676461 0.810344279
v 0.392649353 -0.710034251 0.814264953
v 0.377454996 -0.708618402 0.834483266
v 0.377970397 -0.703895986 0.840425253
v 0.377501905 -0.700245917 0.843378186
v 0.379375368 -0.695322812 0.847719371
v 0.378148228 -0.691803634 0.851547182
v 0.37340197 -0.687974513 0.863552749
v 0.388931185 -0.683642268 0.85376364
v 0.389910728 -0.678874016 0.859125912
v 0.39026165 -0.67510289 0.861114502
v 0.38335067 -0.671690583 0.875530183
v 0.372221857 -0.6699121 0.890686572
v 0.371273547 -0.66554302 0.898171902
v 0.371752918 -0.66179502 0.899982929
v 0.373816878 -0.656913042 0.904003501
v 0.375119776 -0.652171195 0.908885777
v 0.374993443 -0.648538828 0.911381245
v 0.377252996 -0.643632174 0.915165067
v 0.369677722 -0.640552163 0.930074632
v 0.370891184 -0.639496446 0.932671964
v 0.370447129 -0.632323027 0.937835515
v 0.373091668 -0.627375484 0.941140831
v 0.375244319 -0.626146317 0.942671657
v 0.378104955 -0.621158004 0.945733249
v 0.377733916 -0.617609322 0.948471725
v 0.379102141 -0.612917364 0.953196406
v 0.373752177 -0.610366464 0.961481214
v 0.376091331 -0.605499923 0.965098739
v 0.3778207 -0.600759089 0.969390094
v 0.380375594 -0.595853627 0.972761393
v 0.37586996 -0.593187332 0.980046988
v 0.377767771 -0.588430643 0.984126627
v 0.378624827 -0.587477624 0.987055063
v 0.379187644 -0.583008647 0.992590964
v 0.377199113 -0.577045321 0.995490074
v 0.378544718 -0.570367754 0.994727671
v 0.377304018 -0.567818165 0.994517446
v 0.378707796 -0.560364723 0.997552574
v 0.378985852 -0.556732297 0.999534428
v 0.378008693 -0.550554276 1.00132227
v 0.375110179 -0.549114168 0.999073386
v 0.366310686 -0.549746394 0.999453306
v 0.372210443 -0.546302617 0.987489522
v 0.374410093 -0.541566789 0.974070489
v 0.361319184 -0.542459905 0.983103454
v 0.359586626 -0.535720348 0.98963201
v 0.357463837 -0.533370733 0.990396678
v 0.357869089 -0.528998673 0.978941798
v 0.3609716 -0.526110768 0.969943881
v 0.353029579 -0.52656436 0.969353199
v 0.349990338 -0.525134206 0.967206538
v 0.336020082 -0.527042389 0.973445177
v 0.336718261 -0.524716377 0.967084527
v 0.33428359 -0.529586852 0.963562846
v 0.361163646 -0.521682143 0.923367798
v 0.361879796 -0.517879725 0.924916148
v 0.361134648 -0.51151818 0.926464558
v 0.353718072 -0.511131108 0.929223895
v 0.352415383 -0.509948552 0.920977533
v 0.348775506 -0.508632243 0.919428587
v 0.352695405 -0.503204644 0.903422654
v 0.342180789 -0.504299641 0.905708551
v 0.33349961 -0.507170916 0.911683977
v 0.331368297 -0.509103656 0.905999243
v 0.361855537 -0.499242067 0.86467427
v 0.36265853 -0.492376059 0.864430726
v 0.359611332 -0.490168571 0.866249204
v 0.361134589 -0.488194644 0.854392767
v 0.353707463 -0.485508829 0.851232231
v 0.337758273 -0.490308344 0.86581856
v 0.340746373 -0.484950662 0.850409806
v 0.334437937 -0.487276793 0.853678524
v 0.330144674 -0.486781657 0.848598421
v 0.359455585 -0.473791748 0.80584836
v 0.359995365 -0.468246132 0.797288358
v 0.36039117 -0.465774208 0.79068166
v 0.348369837 -0.467292249 0.794667125
v 0.348134339 -0.464983493 0.788796067
v 0.345440149 -0.463327557 0.785880566
v 0.338323504 -0.463542849 0.783975899
v 0.286456138 -0.481844693 0.840287566
v 0.27205497 -0.484051019 0.847544074
v 0.269855201 -0.485307097 0.84597975
v 0.295814872 -0.472980529 0.806185305
v 0.299249262 -0.466643721 0.793920338
v 0.297007889 -0.467923552 0.79232645
v 0.289516687 -0.46521458 0.789138615
v 0.285771102 -0.463860095 0.787544727
v 0.28176409 -0.463237464 0.781885147
v 0.266332626 -0.465782732 0.790525317
v 0.265598059 -0.469683081 0.788937092
v 0.210736364 -0.486101925 0.849197567
v 0.204913661 -0.486029327 0.846097231
v 0.231765747 -0.476260334 0.805912435
v 0.234156772 -0.469558388 0.799111187
v 0.227917105 -0.468930155 0.800754964
v 0.224214792 -0.467591316 0.799179494
v 0.21829702 -0.467517525 0.796028554
v 0.218755051 -0.462594748 0.782764792
v 0.210001096 -0.46572721 0.789596081
v 0.202759147 -0.466031104 0.788151145
v 0.201419994 -0.470073581 0.787366152
v 0.146725282 -0.486862034 0.849521041
v 0.146098077 -0.482365578 0.837842286
v 0.168389946 -0.470606953 0.800458789
v 0.164718032 -0.46927911 0.798896253
v 0.161046118 -0.467951238 0.797333717
v 0.0774447992 -0.487091839 0.899345338
v 0.0781390667 -0.48340556 0.900846422
v 0.0740633681 -0.478240788 0.906769335
v 0.190496728 -0.442218632 0.76229167
v 0.213146195 -0.437308133 0.743618727
v 0.223454833 -0.436102241 0.741210103
v 0.207129836 -0.44035247 0.766986847
v 0.19905892 -0.441546112 0.786421657
v 0.206494927 -0.441171288 0.78763181
v 0.214860544 -0.440523237 0.787662148
v 0.213135958 -0.440426588 0.794313669
v 0.217842266 -0.440862626 0.799033761
v 0.154804438 -0.461304456 0.890022576
v 0.158387467 -0.462600172 0.891547322
v 0.165901273 -0.459200799 0.890512049
v 0.213927016 -0.443832397 0.838373244
v 0.215281531 -0.442224413 0.845310688
v 0.218529865 -0.443065792 0.851689577
v 0.186710984 -0.454219133 0.901797891
v 0.212128073 -0.44614014 0.874339938
v 0.216474071 -0.443658561 0.877430499
v 0.222278401 -0.443730921 0.880521059
v 0.217810377 -0.443847597 0.894474566
v 0.224577308 -0.443629473 0.896339953
v 0.222164243 -0.44314301 0.907668114
v 0.225770012 -0.444446951 0.909202516
v 0.242458358 -0.441323191 0.898989916
v 0.24608314 -0.442634016 0.900532424
v 0.246364862 -0.447270095 0.91202879
v 0.247642338 -0.446291596 0.914632022
v 0.249870345 -0.444430977 0.920220733
v 0.250373036 -0.440119237 0.926125944
v 0.251839429 -0.435533583 0.930864811
v 0.251635194 -0.432040364 0.933487236
v 0.251159459 -0.425669163 0.934706986
v 0.251965255 -0.42187795 0.936122894
v 0.249073684 -0.41681391 0.936122894
v 0.250317156 -0.409912765 0.935290456
v 0.250927508 -0.403759956 0.931100845
v 0.249678299 -0.398727655 0.924996495
v 0.249140874 -0.393451661 0.918008149
v 0.246630862 -0.394797236 0.91687721
v 0.242294267 -0.397273451 0.913793325
v 0.223403543 -0.398332834 0.924849689
v 0.224405929 -0.395568818 0.917710245
v 0.218432367 -0.39556095 0.914883018
v 0.209341586 -0.398997754 0.921830237
v 0.194683298 -0.401765555 0.929714561
v 0.188395292 -0.398356974 0.929750979
v 0.170462579 -0.398205221 0.948341429
v 0.174904287 -0.393270552 0.945237756
v 0.173413917 -0.38832745 0.939391494
v 0.168768436 -0.384411573 0.937434375
v 0.168131232 -0.381637484 0.936446309
v 0.160993293 -0.379056245 0.933408797
v 0.155301079 -0.378480732 0.934546292
v 0.149602488 -0.378409684 0.931511998
v 0.160031363 -0.372874588 0.908137023
v 0.156437188 -0.371574849 0.906607568
v 0.151651353 -0.371176094 0.902331114
v 0.16625993 -0.363147408 0.881937861
v 0.166606784 -0.356922269 0.877792478
v 0.177038044 -0.347160846 0.860786557
v 0.172169283 -0.342699617 0.863253117
v 0.16519849 -0.338996112 0.868412852
v 0.162204757 -0.333894044 0.868498325
v 0.155320302 -0.334201902 0.866758823
v 0.159714177 -0.327344596 0.848579884
v 0.159389406 -0.324351639 0.84709847
v 0.16359064 -0.31657809 0.837851584
v 0.15843457 -0.312660486 0.836286128
v 0.16002582 -0.305793166 0.830375791
v 0.158885255 -0.299923033 0.828004837
v 0.310963243 -0.238961831 0.6326949
v 0.314120203 -0.233456805 0.636073589
v 0.311793566 -0.230042636 0.646547318
v 0.312648356 -0.225430906 0.652877808
v 0.314871252 -0.224134594 0.654746771
v 0.315590918 -0.216192007 0.659189522
v 0.315476328 -0.212407395 0.662018716
v 0.313345164 -0.206016198 0.665398002
v 0.313407332 -0.202170461 0.667996347
v 0.312633574 -0.195253566 0.669631898
v 0.310932428 -0.189514354 0.663019657
v 0.313426793 -0.18509151 0.65776217
v 0.26559341 -0.197218955 0.719983757
v 0.249055773 -0.200210035 0.743884146
v 0.249029994 -0.196139708 0.751110852
v 0.251484066 -0.194392413 0.757114172
v 0.25064072 -0.190675601 0.765341282
v 0.249518394 -0.184482083 0.762848794
v 0.252090991 -0.176380694 0.760193884
v 0.250549823 -0.173681647 0.760193884
v 0.251385361 -0.16662769 0.755181789
v 0.250817209 -0.159812346 0.756537557
v 0.248645663 -0.154009983 0.755363107
v 0.24778685 -0.14763397 0.752501249
v 0.251405507 -0.13898015 0.748487711
v 0.249953091 -0.136223346 0.74836272
v 0.250360847 -0.129248768 0.743854344
v 0.247307628 -0.123787999 0.743787706
v 0.24242112 -0.122844659 0.743459582
v 0.233438909 -0.12061251 0.741797388
v 0.223427489 -0.122262575 0.743510127
v 0.21943146 -0.120932579 0.742054641
v 0.214207858 -0.120159 0.742206633
v 0.206135973 -0.120952412 0.741445839
v 0.202187523 -0.119606607 0.739940584
v 0.192712247 -0.121050268 0.741065025
v 0.189109713 -0.123220749 0.736474097
v 0.189441368 -0.127008662 0.728692055
v 0.191878557 -0.129855692 0.718074441
v 0.19176051 -0.13018176 0.713500082
v 0.188687354 -0.135540709 0.710211039
v 0.184068605 -0.138178796 0.706913412
v 0.166152388 -0.146807298 0.721572936
v 0.160399795 -0.146283969 0.722529769
v 0.156456277 -0.141547352 0.718952239
v 0.28595978 -0.0756024122 0.533501506
v 0.277360618 -0.0725567192 0.535661221
v 0.278569788 -0.0683555827 0.531757474
v 0.282316566 -0.0593033284 0.522111237
v 0.303330421 -0.0420777313 0.48873353
v 0.299058646 -0.0366687477 0.490013719
v 0.297415137 -0.0334957205 0.495163828
v 0.29407987 -0.0276546292 0.495163828
v 0.283102602 -0.0259409491 0.495324254
v 0.29063502 -0.018785039 0.477369487
v 0.313466758 6.17717305e-05 0.446318626
v 0.314636439 0.00463453727 0.447642505
v 0.314063907 0.0121512553 0.449034184
v 0.31489405 0.0165589005 0.450829029
v 0.311535388 0.0225062948 0.450788796
v 0.31390813 0.0313328356 0.442797691
v 0.308994412 0.0363494791 0.439586788
v 0.299867958 0.0393835045 0.447572201
v 0.300769955 0.0438298546 0.449268401
v 0.296428353 0.0491337255 0.445274204
v 0.29346621 0.0551637039 0.439330965
v 0.293413669 0.0589940175 0.437021464
v 0.283636332 0.0613675788 0.435271204
v 0.274514973 0.0603270791 0.440389246
v 0.249674052 0.0549140647 0.470775157
v 0.248643622 0.0581952967 0.469857931
v 0.249579459 0.0663667843 0.463763952
v 0.25118354 0.0750117674 0.462051243
v 0.24897562 0.0815362036 0.460403383
v 0.243349999 0.0822744891 0.460659355
v 0.233849794 0.0808299407 0.461102933
v 0.224077702 0.0830877423 0.459557146
v 0.219558537 0.0844149441 0.458262712
v 0.210567951 0.0832232684 0.458046287
v 0.205234766 0.0840926692 0.457948625
v 0.196246088 0.0828870386 0.457775742
v 0.191408306 0.0840222836 0.456978261
v 0.189707935 0.0791400969 0.451059461
v 0.186956882 0.0775369108 0.444204569
v 0.186771959 0.0735254437 0.441487432
v 0.188992858 0.0707954615 0.429732084
v 0.625096321 0.321177661 -0.234780148
v 0.618114769 0.321981877 -0.234167144
v 0.631883442 0.339214742 -0.260857135
v 0.63454318 0.345520526 -0.261125296
v 0.62716049 0.35091731 -0.256271809
v 0.629353881 0.36176312 -0.258934498
v 0.63291949 0.368607938 -0.260553658
v 0.633797467 0.378735214 -0.261246026
v 0.635192692 0.389178425 -0.26270926
v 0.635879755 0.39922604 -0.26311478
v 0.629613817 0.400397092 -0.256856441
v 0.63407737 0.412679046 -0.262902468
v 0.634095907 0.422357708 -0.262310594
v 0.629594445 0.42454651 -0.258688241
v 0.630706489 0.434883684 -0.259731114
v 0.629901052 0.444077492 -0.257909298
v 0.632451713 0.450412303 -0.257995605
v 0.626765251 0.456755966 -0.255708635
v 0.625706255 0.465797275 -0.253507972
v 0.631952584 0.474427253 -0.25911206
v 0.632247865 0.484330028 -0.258931398
v 0.634436548 0.495426506 -0.261575341
v 0.629103661 0.497042358 -0.256724864
v 0.632326543 0.50881052 -0.260916352
v 0.632101119 0.518423796 -0.259957522
v 0.631037116 0.52750808 -0.257746398
v 0.628950417 0.5311625 -0.257746398
v 0.627886355 0.540246785 -0.255535275
v 0.311934859 0.340724528 0.219670266
v 0.314188272 0.34613049 0.225530177
v 0.317624718 0.352300793 0.229623407
v 0.314634234 0.358862817 0.234610602
v 0.316010207 0.363906503 0.235814124
v 0.315084159 0.37181285 0.237738535
v 0.313268036 0.374993414 0.237738535
v 0.313413739 0.383613616 0.2380739
v 0.315206677 0.388944566 0.238662601
v 0.310949683 0.394893855 0.23958458
v 0.251793176 0.363993883 0.316295445
v 0.24869357 0.370505244 0.315631181
v 0.249547079 0.37972647 0.309058785
v 0.438655972 0.518980801 0.0143402601
v 0.440620661 0.529488385 0.0119686406
v 0.43941766 0.533052981 0.0172599852
v 0.441282213 0.538746655 0.0179555584
v 0.186559081 0.369073391 0.405218512
v 0.181556508 0.369456083 0.415770143
v 0.18753697 0.372982651 0.418152303
v 0.190946341 0.378927857 0.42180118
v 0.316707879 0.466733634 0.247392803
v 0.315064639 0.464859068 0.261667222
v 0.31595552 0.469589353 0.263593465
v 0.188064218 0.38746646 0.452003986
v 0.191416055 0.393348157 0.455681592
v 0.178188503 0.387773782 0.478073567
v 0.17991969 0.392473221 0.484055787
v 0.183280915 0.398334503 0.487653136
v 0.185810268 0.399778754 0.489451826
v 0.174801409 0.395326316 0.51385355
v 0.173611 0.39788869 0.523961782
v 0.174612194 0.398237348 0.527911723
v 0.177939638 0.404039711 0.531472921
v 0.207252353 0.42021203 0.502675176
v 0.211818978 0.415095091 0.50100702
v 0.216052473 0.413564146 0.502808511
v 0.22397773 0.414302021 0.504769385
v 0.230074123 0.417925239 0.506924093
v 0.231583089 0.418294698 0.51554513
v 0.235813797 0.416764766 0.517345488
v 0.243878782 0.417598277 0.519126117
v 0.249670789 0.421002239 0.521719098
v 0.252139628 0.422403276 0.523611903
v 0.24884972 0.423576683 0.536440551
v 0.25121972 0.424569309 0.543735802
v 0.249807179 0.427388906 0.548622191
v 0.249874175 0.435059667 0.554395616
v 0.249607801 0.438676983 0.557691336
v 0.249973193 0.442380846 0.56535542
v 0.250799775 0.446769774 0.567142665
v 0.253618956 0.457137465 0.558647633
v 0.250235617 0.463062704 0.558647633
v 0.237106487 0.461890608 0.572060645
v 0.234816328 0.468577087 0.570575476
v 0.234113708 0.476441205 0.566893458
v 0.189653412 0.451930225 0.623716891
v 0.184942529 0.452134669 0.633096755
v 0.186595663 0.456629187 0.638811588
v 0.18686758 0.460088938 0.646411061
v 0.187398911 0.460057884 0.650786936
v 0.186775714 0.46283713 0.659571826
v 0.188791141 0.468012601 0.659655273
v 0.187965691 0.47561121 0.656293452
v 0.187343895 0.483383924 0.652641654
v 0.185781017 0.490462363 0.650269628
v 0.188721091 0.500522554 0.646827817
v 0.185421079 0.50630188 0.646827817
v 0.182121068 0.512081265 0.646827817
v 0.186509997 0.523327172 0.641377032
v 0.183816358 0.529601634 0.640529215
v 0.176400661 0.527468562 0.653613091
v 0.184482798 0.528574586 0.655018091
v 0.18788068 0.530198216 0.660586059
v 0.188093662 0.529341996 0.670473456
v 0.188308015 0.537324488 0.670783222
v 0.186662912 0.540205598 0.670783222
v 0.187253043 0.548494816 0.670580804
v 0.190186501 0.554460168 0.6694327
v 0.186618268 0.560016096 0.66980356
v 0.185113356 0.566658676 0.672454953
v 0.185525998 0.574835181 0.67249465
v 0.187668219 0.580197513 0.672425926
v 0.189970881 0.589918733 0.669898033
v 0.185068637 0.594406068 0.67207557
v 0.18747665 0.600003183 0.671648443
v 0.187602833 0.607986987 0.672081113
v 0.188984096 0.617009997 0.670807183
v 0.189703494 0.625503719 0.670434594
v 0.186485931 0.627110302 0.672560334
v 0.187924206 0.636211455 0.671208322
v 0.18887569 0.644923508 0.670519888
v 0.186932102 0.647587478 0.670908988
v 0.186372489 0.655044198 0.672276556
v 0.18718496 0.659358144 0.674033284
v 0.183869287 0.665164888 0.674033284
v 0.18302393 0.672382176 0.675789952
v 0.182993591 0.680296898 0.67643702
v 0.187984958 0.688195765 0.67251122
v 0.188274413 0.696410239 0.672726274
v 0.183041289 0.700583279 0.675324202
v 0.188718528 0.709125102 0.670467854
v 0.18786937 0.716374815 0.672232449
v 0.187020198 0.723624587 0.673997045
v 0.183162257 0.728993475 0.674715459
v 0.184505746 0.733790696 0.67576164
v 0.186146811 0.743245482 0.674138248
v 0.187610582 0.752562284 0.672757506
v 0.183629259 0.753424168 0.675904989
v 0.186529085 0.764041245 0.672567844
v 0.187295303 0.772768855 0.672136188
v 0.185623541 0.775696635 0.672136188
v 0.18172726 0.781051278 0.672890246
v 0.176919848 0.781969428 0.672002494
v 0.187738568 0.800751925 0.652601957
v 0.186056048 0.80369854 0.652601957
v 0.187248975 0.812908828 0.651573241
v 0.187811553 0.821553528 0.651409686
v 0.190178469 0.827364802 0.651085854
v 0.186125621 0.832641006 0.652017653
v 0.186333001 0.840977788 0.652341068
v 0.188282341 0.846417725 0.652591109
v 0.187641367 0.853972554 0.654078782
v 0.188375175 0.862826228 0.653684378
v 0.184996247 0.868743777 0.653684378
v 0.130738005 -0.37524426 0.49383086
v 0.134582624 -0.3800565 0.498075336
v 0.109542057 -0.39512521 0.539931476
v 0.0603548661 -0.419127852 0.607395887
v 0.0596041121 -0.423114121 0.605772614
v -0.0807941407 -0.470502794 0.805253446
v -0.0843352005 -0.469222277 0.803746581
v -0.0899952576 -0.469151706 0.800732791
v 0.633259833 -0.219798937 -0.285664767
v 0.632234454 -0.211044803 -0.28353402
v 0.630223572 -0.207523197 -0.28353402
v 0.629198194 -0.198769063 -0.281403244
v 0.628172815 -0.190014929 -0.279272497
v -0.14624019 -0.456646055 0.887286246
v 0.124360129 -0.364074647 0.49383086
v 0.127549067 -0.369659454 0.49383086
v 0.129143536 -0.372451872 0.49383086
v -0.249471724 0.928362131 0.172396854
v -0.255138546 0.910642803 0.191302642
v -0.256011039 0.90601027 0.1894162
v -0.208998248 0.973243475 0.0742985308
v -0.213707134 0.971078336 0.0687861517
v -0.217820555 0.969658494 0.0620223507
v -0.213904753 0.970853209 0.0500474758
v -0.23062484 0.95374316 0.0695414841
v -0.239770964 0.957050622 0.0656494349
v -0.244344026 0.958704352 0.0637034029
v -0.254418492 0.960833848 0.0617841072
v -0.261015713 0.954366684 0.0680657476
v -0.271186292 0.956317842 0.0664421096
v -0.271947801 0.958953381 0.0719334334
v -0.298037529 0.927149475 0.139234394
v -0.291233093 0.928524613 0.1361579
v -0.2888937 0.927737057 0.146344453
v -0.283167571 0.925859988 0.15310815
v -0.276189625 0.925581634 0.157217264
v -0.27389878 0.926628649 0.159902975
v -0.266773343 0.926539779 0.16369696
v -0.258951277 0.927322626 0.166052252
v -0.25182271 0.927233756 0.169847921
v 0.244228169 -0.398930013 0.607296109
v 0.0437407307 -0.466906309 0.887089729
v 0.245521545 -0.408857316 0.607092679
v 0.23663871 -0.409591079 0.607339621
v 0.232731938 -0.4081783 0.605677128
v 0.228862047 -0.406754047 0.60396421
v 0.229562774 -0.398852259 0.608430862
v 0.23603867 -0.399458379 0.606595755
v 0.238378495 -0.39812234 0.608259678
v 0.00207241927 -0.436990321 0.910632133
v 0.0308932029 -0.432811558 0.879493475
v 0.0324820243 -0.438715488 0.876809001
v 0.196374759 -0.386297584 0.643688083
v 0.186371878 -0.390687853 0.647799134
v 0.204969257 -0.381958306 0.615258157
v 0.206547648 -0.382582545 0.603331745
v 0.169852272 -0.392475933 0.642265677
v -0.034915451 -0.45324403 0.926851094
v -0.0359153934 -0.450193137 0.930648923
v -0.0358966775 -0.446807712 0.933031976
v -0.0145724183 -0.435766578 0.910312831
v -0.0102388794 -0.436742485 0.910627782
v -0.00432973122 -0.436699778 0.91313535
v 0.273999423 -0.0731330365 0.486526847
v 0.267769188 -0.0830606818 0.504984915
v 0.125195384 -0.155568376 0.702348411
v 0.128565565 -0.1577041 0.694984615
v 0.125961632 -0.162828043 0.691085756
v 0.125400439 -0.167035505 0.684328914
v 0.124605484 -0.167672768 0.680581093
v 0.125394046 -0.174405128 0.678942442
v 0.125958711 -0.18153365 0.672746539
v 0.125200033 -0.185561985 0.6711061
v 0.124854632 -0.189409181 0.668884814
v 0.122828662 -0.197060198 0.676074266
v 0.172379583 -0.182755381 0.605988562
v 0.173334435 -0.186130911 0.601879954
v 0.170706376 -0.191383421 0.597806096
v 0.189289093 -0.183785945 0.566566408
v 0.189400077 -0.187919527 0.558529317
v 0.185059607 -0.190462112 0.554507852
v 0.183835119 -0.194821253 0.553431571
v 0.179493442 -0.197365329 0.549408972
v 0.176317319 -0.202903822 0.546009779
v 0.17930761 -0.205862895 0.533763766
v 0.188117057 -0.202914998 0.510767221
v 0.184937835 -0.208122224 0.512488663
v 0.182496116 -0.209886149 0.505618215
v 0.17928873 -0.21547915 0.502185524
v 0.180902883 -0.21908845 0.491740733
v 0.181088522 -0.219398648 0.486225039
v 0.178468168 -0.224767268 0.481904775
v 0.175312355 -0.226843596 0.475979745
v 0.174146026 -0.220667735 0.467614084
v 0.172251537 -0.214385718 0.465598255
v 0.171805128 -0.207857788 0.456104904
v 0.184363186 -0.199020743 0.435099155
v 0.44404608 -0.0816969424 0.0452990122
v 0.442183375 -0.0784347728 0.0452990122
v 0.190839618 -0.178617492 0.40778923
v 0.176350221 -0.181581274 0.42147544
v 0.177867159 -0.173355743 0.419705808
v 0.43855837 -0.0592717677 0.0429416709
v 0.442248881 -0.0569111705 0.0496613868
v 0.442690849 -0.0481868684 0.049573835
v 0.43914941 -0.0415723063 0.0492949337
v 0.441212744 -0.0362085886 0.0495673381
v 0.441708446 -0.027437022 0.0493997931
v 0.440070242 -0.0199503936 0.0462888479
v 0.632022023 0.0716350973 -0.235024616
v 0.444463432 -0.00492464053 0.0436804406
v 0.632071137 0.090244621 -0.233867288
v 0.632283449 0.0996486694 -0.233566105
v 0.630255461 0.103200339 -0.233566105
v 0.632549584 0.113596253 -0.236353442
v 0.633544803 0.11888054 -0.23420161
v 0.629383922 0.125946119 -0.234054163
v 0.628447771 0.1348342 -0.232049763
v 0.24513413 -0.0411306918 0.342865109
v 0.247688025 -0.0396724157 0.344681233
v 0.251081884 -0.0337542333 0.34831351
v 0.244595721 -0.0328710042 0.360918492
v 0.247013167 -0.0312699154 0.368459433
v 0.236960515 -0.0319667608 0.391726017
v 0.245516419 -0.0273630209 0.390207261
v 0.242437616 -0.024871815 0.397702247
v 0.214678898 -0.0381546766 0.448907107
v 0.221317053 -0.0382374525 0.452441633
v 0.272534311 -0.0203134101 0.394296795
v 0.2772654 -0.0216072667 0.395395398
v 0.282126099 -0.0228400286 0.396312326
v 0.291863263 -0.0214968026 0.395711184
v 0.284275889 -0.0284984987 0.419703573
v 0.267781109 -0.039727103 0.456089407
v 0.261828363 -0.0463067517 0.466846794
v 0.262851715 -0.0532533079 0.470107496
v 0.268417656 -0.0580451079 0.466972351
v 0.274780661 -0.0624801703 0.462728471
v 0.282492042 -0.0660436675 0.461875975
v 0.284985602 -0.0646198317 0.463649243
v 0.092039302 -0.450944126 0.929288208
v 0.136160359 -0.44263494 0.880203187
v 0.139042407 -0.447682321 0.880203187
v 0.141924471 -0.452729672 0.880203187
v 0.206369191 -0.43449077 0.788392246
v 0.204147279 -0.435759485 0.786812186
v 0.19756934 -0.438937426 0.786421657
v 0.195025012 -0.437844634 0.778854668
v 0.215429157 -0.429816246 0.741223752
v 0.203125238 -0.434134454 0.752796948
v 0.0788052157 -0.469865739 0.905349791
v 0.072443448 -0.465423644 0.914271355
v 0.0724451765 -0.464309722 0.922782481
v 0.0795713589 -0.464474708 0.919544518
v 0.0871332288 -0.458134145 0.916318893
v 0.089748852 -0.456218958 0.921402991
v 0.0902645662 -0.452043623 0.927363694
v 0.152162477 -0.332033545 0.807685912
v 0.149266422 -0.338860333 0.819860816
v 0.13107793 -0.351538062 0.847572863
v 0.134262338 -0.357050598 0.842826366
v 0.137357295 -0.362123579 0.842609882
v 0.144345298 -0.36634928 0.832887173
v 0.14678809 -0.368090361 0.836032987
v 0.0806446299 -0.397235602 0.921855032
v 0.077110745 -0.395957649 0.920351267
v 0.0675346181 -0.397232264 0.922507882
v 0.0640079901 -0.395956963 0.921007156
v 0.0583710186 -0.39588666 0.918005705
v 0.0548443943 -0.394611359 0.916504979
v 0.0449145399 -0.396031588 0.919223487
v 0.0344331674 -0.397653162 0.922727823
v 0.0309236608 -0.39638406 0.921234369
v 0.0302143358 -0.394595534 0.911647022
v 0.0342887305 -0.394098431 0.897453487
v 0.0333834253 -0.391896039 0.892387211
v 0.0141292792 -0.402549058 0.911709845
v 0.00293070148 -0.404439121 0.916352153
v 0.000365492655 -0.402846187 0.913588464
v -0.00625218637 -0.403138012 0.912017107
v -0.0342963226 -0.410572439 0.944329143
v -0.0395373069 -0.407484025 0.939095199
v -0.0356703848 -0.403170079 0.931818783
v -0.0376452617 -0.398439467 0.926343083
v -0.041365549 -0.394756973 0.918895841
v 0.240344957 -0.289125264 0.518136501
v 0.249459609 -0.281854719 0.508210599
v 0.247019291 -0.278339624 0.519542277
v 0.234017387 -0.282188207 0.547757626
v 0.235585555 -0.280648977 0.55561775
v 0.235343605 -0.276387155 0.563735962
v 0.237728804 -0.275025189 0.565432131
v 0.247026756 -0.267197818 0.560396075
v 0.244805992 -0.2636922 0.571204782
v 0.247322425 -0.258411318 0.575493395
v 0.248641044 -0.257454336 0.578646243
v 0.25045377 -0.255855173 0.586058736
v 0.235487759 -0.257267505 0.614048898
v 0.23517628 -0.256497532 0.624210477
v 0.237304509 -0.251426548 0.628908396
v 0.242138743 -0.2457477 0.625110745
v 0.253236383 -0.24058567 0.619894385
v 0.151752666 -0.285881042 0.764823496
v 0.140732244 -0.2928873 0.786141217
v 0.14875035 -0.296216995 0.779438257
v 0.135168463 -0.307270944 0.806026161
v 0.13945584 -0.311979681 0.804277539
v 0.142427281 -0.317183584 0.804277539
v 0.138629496 -0.321284562 0.815760314
v 0.141803309 -0.326390773 0.815478444
v 0.1506778 -0.329433411 0.807685912
v -0.132127285 0.801842332 0.539385617
v -0.191313595 0.727347732 0.650725543
v -0.191254526 0.719581664 0.650307
v -0.191256315 0.716263473 0.647296786
v -0.193286806 0.706272542 0.650408089
v -0.193601683 0.698131323 0.650623202
v -0.19242844 0.694894731 0.651332557
v -0.191809654 0.687754154 0.649971068
v -0.192138925 0.67961973 0.650209427
v -0.191584378 0.676876187 0.646267712
v -0.192419559 0.668220639 0.647363067
v -0.191750124 0.661143601 0.64591676
v 0.0929639861 0.952977777 0.161311522
v 0.0877574682 0.955387473 0.153568894
v 0.0807274729 0.955910146 0.148903638
v 0.0779409781 0.95431906 0.146922097
v 0.0704979673 0.954411864 0.142959014
v 0.0684020743 0.95488435 0.132987007
v 0.0628189147 0.951696336 0.129016683
v 0.0598609298 0.95654285 0.117199734
v 0.0525707267 0.950195312 0.123061195
v 0.00460364809 0.907281935 0.190262705
v -0.00101673638 0.907808244 0.19018057
v -0.00933862198 0.906797945 0.188121989
v -0.019353915 0.909130752 0.185838819
v -0.025974568 0.908549964 0.187588692
v -0.138009787 0.795944154 0.388158709
v -0.134544834 0.798388779 0.388357282
v -0.129197776 0.801559865 0.3915869
v -0.126940638 0.806249857 0.397250593
v -0.142579257 0.791511655 0.434493363
v -0.137521923 0.794399381 0.438089788
v -0.14462927 0.788899183 0.460029721
v -0.142116114 0.790334225 0.461816877
v -0.1375065 0.792752981 0.466116816
v -0.13434945 0.79837817 0.470005959
v -0.129142538 0.80144465 0.473263711
v -0.12973088 0.804297686 0.477493525
v -0.124709979 0.807164609 0.481063992
v -0.138472766 0.79443723 0.513948143
v -0.133501828 0.797275603 0.517483056
v -0.13268438 0.801616013 0.519250572
v -0.127713442 0.804454446 0.522785485
v -0.125227973 0.805873632 0.524553001
g path_000000
l 7 6 5 4 3 2 1 1409 1408 1407 1406 1405 1404 1403 1402 1401 1400 1399
g path_000001
l 8 9 10 11 12 13 14 15 16 17 18 19 20 21 22 23 24 25 26 27 28 29 30 31 32 33 34 35 36 37 38 39 40 41 42 43 44 45 46 47 48 49 50 51 52 53 54
g path_000002
l 55 56 57 58
g path_000003
l 59 60 61 62 63 64 65 66 67
g path_000004
l 68 69 70 71 72
g path_000005
l 73 74
g path_000006
l 75 76 77 78 79 80 81 82
g path_000007
l 83 84 85 86 87 88
g path_000008
l 89 90 91 92
g path_000009
l 93 94 95 96 97 98 99 100 101 102
g path_000010
l 103 104 105 106 107 108 109 110 111 112 113 114 115 116 117 118 119 120 121 122
g path_000011
l 123 124 125 126 127 128 129 130 131 132 133 134 135 136 137 138
g path_000012
l 139 140 141 142 143 144 145 146
g path_000013
l 147 148 149 150 151 152 153 154 155 156 157 158 159 160 161 162 163 164 165 166 167 168 169 170 171 172 173 174 175 176 177 178 179 180 181 182 183 184 185 186 187 188 189 190 191 192 193
g path_000014
l 194 195 196 197 198 199 200 201 202 203 204 205 206 207 208 209 210 211 212 213 214 215 216 217 218 219 220 221 222 223 224 225 226 227 228 229 230 231 232 233 234 235 236 237 238 239 240 241 242 243 244 245 246 247 248 249 250 251 252 253 254 255 256 257 258 259 260 261 262 263 264 265 266 267 268 269 270 271 272 273 274 275 276 277 278 279 280 281 282 283 284 285 286 287 288 289 290 291 292 293 294 295 296 297 298 299 300 301 302 303 304 305 306 307 308 309 310 311 312 313 314 315 316 317 318 319 320 321 322 323 324 325 326 327 328 329 330 331 332 333 334 335 336 337 338 339 340 341 342 343 344 345 346 347 348 349 350 351 352 353 354 355 356 357 358 359 360 361 362 363 364 365 366 367 368 369 370 371 372 373 374 375 376 377 378 379 380 381 382 383 384 385 386 387 388 389 390 391 392 393 394 395 396 397 398 399 400 401 402 403 404 405 406 407 408 409 410 411 412 413 414 415 416 417 418 419 420 421 422 423 424 425 426 427 428 429 430 431 432 433 434 435 436 437 438 439 440 441 442 443 444 445 446 447 448 449 450 451 452 453 454 455 456 457 458 459 460 461 462 463 464 465 466 467 468 469 470 471 472 473 474 475 476 477 478 479 480 481 482 483 484 485 486 487 488 489 490 491 492 493 494 495 496 497 498 499 500 501 502 503 504 505 506 507 508 509 510 511 512 513 514 515 516 517 518 519 520 521 522 523 524 525 526 527 528 529 530 531 532 533 534 535 536 537 538
g path_000015
l 539 540 541 542 543 544 545 546 547 548 549
g path_000016
l 550 551 552 553 554 555 556 557 558 559 560 561 562 563 564 565 566 567 568 569 570 571 572 573 574 575 576 577 578 579 580 581 582 583 584 585 586 587 588 589 590 591 592 593 594
g path_000017
l 595 596 597 598 599 600 601 602 603 604 605 606 607 608 609 610 611 612 613 614 615 616 617 618 619 620 621 622 623 624 625 626 627 628 629 630 631 632 633 634 635 636 637 638 639 640 641
g path_000018
l 642 643 644 645 646 647 648 649 650 651 652 653 654 655 656 657 658 659 660 661 662 663 664 665 666 667 668 669 670 671 672 673 674 675 676 677 678 679 680 681 682 683 684 685 686 687 688 689 690 691 692 693 694 695 696 697 698 699 700 701 702 703 704 705 706 707 708 709 710 711 712 713 714 715 716 717 718 719 720 721 722 723 724 725 726 727 728 729 730 731 732 733 734 735 736 737 738 739 740 741 742 743 744 745 746 747 748 749 750 751 752 753 754 755 756 757 758 759 760 761 762 763 764 765 766 767 768
g path_000019
l 769 770 771 772
g path_000020
l 773 774 775 776 777 778 779 780 781 782 783 784 785 786 787 788 789 790 791 792 793 794 795 796 797 798 799 800 801 802 803 804 805 806 807 808 809 810 811 812 813 814 815 816 817 818 819 820 821 822 823 824 825 826 827 828 829 830 831 832 833 834 835 836 837 838
g path_000021
l 839 840 841 842 843 844 845 846 847 848 849 850 851 852 853 854 855 856 857 858 859 860 861 862 863 864 865 866 867 868 869 870 871 872 873 874 875 876 877 878 879 880 881 882 883 884 885 886 887 888 889 890 891 892 893 894 895 896 897 898 899 900 901 902 903
g path_000022
l 904 905 906 907 908 909 910 911 912 913 914 915 916 917 918 919 920 921 922 923 924 925 926 927 928 929 930 931 932 933 934 935 936 937 938 939 940 941 942 943 944 945 946 947 948 949 950 951 952 953 954 955 956 957 958 959
g path_000023
l 960 961 962 963 964 965 966 967 968 969 970 971 972 973 974 975 976 977 978 979 980 981 982 983 984 985 986 987 988 989 990 991
g path_000024
l 992 993 994 995 996 997
g path_000025
l 998 999 1000 1001
g path_000026
l 1002 1003 1004 1005 1006 1007 1008 1009 1010 1011 1012 1013 1014 1015 1016 1017 1018 1019 1020 1021 1022 1023 1024 1025 1026 1027 1028 1029 1030 1031 1032 1033 1034 1035 1036 1037 1038 1039 1040 1041 1042 1043 1044
g path_000027
l 1045 1046 1047 1048 1049 1050 1051 1052 1053 1054
g path_000028
l 1055 1056 1057 1058 1059
g path_000029
l 1060 1061 1062 1063
g path_000030
l 1064 1065 1066 1067 1068 1069 1070
g path_000031
l 1071 1072 1073
g path_000032
l 1074 1075 1076 1077 1078 1079 1080 1081
g path_000033
l 1082 1083
g path_000034
l 1084 1085 1086 1087 1088 1089 1090 1091 1092
g path_000035
l 1093 1094
g path_000036
l 1095 1096 1097
g path_000037
l 1098 1099 1100
g path_000038
l 1102 1103
g path_000039
l 1105 1106 1107 1108 1109
g path_000040
l 1110 1111 1112
g path_000041
l 1113 1114 1115
g path_000042
l 1117 1118 1119 1120 1121 1122 1123
g path_000043
l 1124 1125 1126 1127 1128 1129 1130 1131 1132 1133 1134 1135 1136 1137 1138 1139 1140
g path_000044
l 1141 1142 1143 1144 1145 1146
g path_000045
l 1147 1148 1149 1150 1151 1152 1153 1154
g path_000046
l 1155 1156 1157
g path_000047
l 1158 1159
g path_000048
l 1160 1161 1162 1163 1164
g path_000049
l 1165 1166 1167 1168 1169 1170
g path_000050
l 1171 1172 1173 1174 1175 1176 1177 1178 1179 1180 1181 1182
g path_000051
l 1184 1185 1186 1187 1188 1189 1190 1191 1192 1193 1194 1195 1196 1197 1198 1199 1200 1201 1202 1203 1204 1205 1206 1207 1208 1209 1210 1211 1212
g path_000052
l 1213 1214 1215
g path_000053
l 1216 1217 1218 1219
g path_000054
l 1220 1221 1222 1223 1224
g path_000055
l 1226 1227 1228 1229 1230 1231 1232 1233 1234 1235 1236 1237 1238 1239
g path_000056
l 1240 1241 1242 1243 1244 1245 1246 1247 1248 1249 1250 1251 1252 1253 1254 1255 1256
g path_000057
l 1257 1258
g path_000058
l 1259 1260 1261 1262 1263 1264 1265 1266 1267 1268 1269 1270 1271 1272 1273 1274 1275 1276 1277 1278 1279 1280 1281 1282 1283 1284
g path_000059
l 1285 1286 1287 1288 1289 1290 1291 1292 1293 1294
g path_000060
l 1295 1296 1297
g path_000061
l 1298 1299 1300 1301
g path_000062
l 1302 1303 1304 1305
g path_000063
l 1306 1307 1308
g path_000064
l 1309 1310
g path_000065
l 1311 1312 1313 1314
g path_000066
l 1315 1316 1317 1318
g path_000067
l 1319 1320 1321 1322 1323 1324 1325 1326 1327 1328 1329 1330 1331 1332 1333 1334 1335 1336 1337 1338 1339 1340
g path_000068
l 1341 1342 1343 1344 1345 1346 1347 1348 1349 1350 1351 1352 1353 1354 1355 1356 1357 1358 1359 1360 1361 1362 1363 1364 1365 1366 1367 1368 1369 1370 1371 1372 1373 1374 1375 1376 1377 1378 1379 1380 1381 1382 1383 1384 1385 1386 1387 1388 1389 1390 1391 1392 1393 1394 1395 1396 1397 1398
g path_000069
l 1411 1410 1426 1425 1424
g path_000070
l 1413 1414
g path_000071
l 1415 1416 1417
g path_000072
l 1418 1419 1420 1421 1422
g path_000073
l 1427 1449 1448 1447 1446 1445 1444 1443 1442 1441
g path_000074
l 1428 1429
g path_000075
l 1430 1431 1432 1433
g path_000076
l 1434 1435 1436 1437 1438 1439 1440
g path_000077
l 1450 1458 1457 1456 1455 1454 1453 1452
g path_000078
l 1459 1472 1471 1470
g path_000079
l 1460 1461
g path_000080
l 1462 1463
g path_000081
l 1464 1465
g path_000082
l 1467 1468 1469
g path_000083
l 1475 1476 1477 1478 1479 1480 1481 1482 1483 1484
g path_000084
l 1485 1486 1487
g path_000085
l 1488 1489 1490 1491 1492 1493 1494
g path_000086
l 1495 1496 1497 1498 1499 1500 1501 1502 1503 1504 1505
g path_000087
l 1507 1508
g path_000088
l 1510 1511
g path_000089
l 1512 1513 1514 1515 1516 1517 1518
g path_000090
l 1521 1522 1523 1524 1525 1526 1527
g path_000091
l 1528 1529 1530 1531 1532
g path_000092
l 1533 1534 1535
g path_000093
l 1536 1537
g path_000094
l 1538 1539 1540 1541
g path_000095
l 1543 1544 1545 1546 1547 1548 1549
g path_000096
l 1550 1566 1565 1564 1563 1562 1561 1560
g path_000097
l 1551 1552 1553
g path_000098
l 1554 1555 1556 1557
g path_000099
l 1558 1559
g path_000100
l 1568 1567 1620 1619 1618 1617 1616 1615
g path_000101
l 1569 1570 1571 1572 1573
g path_000102
l 1574 1575 1576 1577 1578 1579 1580 1581 1582 1583 1584 1585
g path_000103
l 1586 1587 1588 1589
g path_000104
l 1590 1591 1592 1593 1594
g path_000105
l 1595 1596 1597
g path_000106
l 1598 1599 1600 1601 1602 1603 1604 1605 1606
g path_000107
l 1607 1608 1609 1610 1611
g path_000108
l 1613 1614
g path_000109
l 1621 1664 1663 1662 1661 1660
g path_000110
l 1622 1623 1624 1625 1626 1627 1628 1629 1630 1631 1632
g path_000111
l 1633 1634 1635 1636 1637 1638 1639 1640 1641
g path_000112
l 1642 1643 1644 1645 1646
g path_000113
l 1647 1648 1649 1650
g path_000114
l 1651 1652
g path_000115
l 1653 1654 1655 1656 1657 1658 1659
