# Fixed world centers; Z up; paths immutable
v -0.128804579 0.902952075 0.673888743
v -0.127949923 0.890335619 0.672867477
v -0.127248734 0.883620501 0.672744334
v -0.129402116 0.87485534 0.672326624
v -0.127812192 0.86681509 0.67345351
v -0.126441881 0.853512943 0.673169613
v -0.14686352 0.877197325 0.653031707
v -0.156303242 0.877851963 0.652116239
v -0.164231107 0.876217842 0.653330684
v -0.166895121 0.87381953 0.653330684
v -0.175109372 0.872596681 0.654160798
v -0.183038428 0.870939076 0.655395806
v -0.189552426 0.873513758 0.654925466
v -0.191755399 0.864787579 0.654414475
v -0.191095829 0.858189821 0.65416944
v -0.192514822 0.848352671 0.654725552
v -0.191959456 0.841930151 0.654339075
v -0.190706253 0.828903437 0.653766096
v -0.189893067 0.82213372 0.653737664
v -0.191883311 0.813203335 0.653504133
v -0.190668225 0.805881917 0.654026508
v -0.181732222 0.780815482 0.673453212
v -0.190185428 0.780039549 0.673822999
v -0.192743659 0.7720474 0.672781348
v -0.191686437 0.765041113 0.673077226
v -0.190485522 0.752343237 0.67243433
v -0.193490952 0.750516653 0.671915829
v -0.190333694 0.735129833 0.673930824
v -0.189590335 0.728619456 0.67380774
v -0.191204235 0.719411314 0.674033642
v -0.190818503 0.713418722 0.673425853
v -0.193113133 0.705181301 0.672723174
v -0.190429538 0.696050227 0.675234914
v -0.190501362 0.685285449 0.672881722
v -0.189388752 0.678342402 0.673267543
v -0.191099927 0.669379532 0.673348129
v -0.190567136 0.663249493 0.672947109
v -0.191714272 0.653558195 0.673788249
v -0.19024837 0.640811265 0.673533976
v -0.188265026 0.632774591 0.67510879
v -0.191698104 0.626214027 0.672837317
v -0.191341445 0.620375514 0.672202289
v -0.190242067 0.613556564 0.672577918
v -0.192022786 0.60482651 0.672546029
v -0.19009088 0.59160316 0.672938466
v -0.192429036 0.588976264 0.673258364
v -0.191543847 0.577173471 0.672231317
v -0.190038562 0.569895387 0.673163831
v -0.1927751 0.562501729 0.671821535
v -0.191520736 0.555576801 0.672413468
v -0.190500438 0.543682218 0.671581388
v -0.193060532 0.541377425 0.671581388
v -0.192802131 0.530495703 0.669715464
v -0.191358611 0.528956294 0.667093456
v -0.190731779 0.528776288 0.658756316
v -0.189318731 0.527589798 0.651466966
v -0.179981485 0.527112007 0.65263015
v -0.185300648 0.534620285 0.636009574
v -0.187347993 0.531624138 0.636737525
v -0.188731655 0.522170722 0.641919553
v -0.18868342 0.511236131 0.644418895
v -0.192774668 0.505304575 0.645840883
v -0.189521298 0.495919496 0.649205327
v -0.190135539 0.485648155 0.655362546
v -0.190572217 0.475466013 0.657154441
v -0.190528795 0.464717835 0.659594655
v -0.191477239 0.4609299 0.652629972
v -0.190388769 0.459817648 0.649539888
v -0.19176513 0.45654887 0.641967475
v -0.190407202 0.455339611 0.634630203
v -0.192661136 0.452905595 0.63043046
v -0.189757898 0.449774891 0.625201762
v -0.190371349 0.445530802 0.61863333
v -0.223573312 0.481519073 0.566719532
v -0.229785487 0.478057891 0.565330803
v -0.234738469 0.478373706 0.566802084
v -0.238400355 0.471783429 0.568944275
v -0.239984766 0.462688744 0.573931873
v -0.252820313 0.467413545 0.558754683
v -0.252099991 0.455725074 0.562210083
v -0.253845096 0.452341914 0.563392818
v -0.257126272 0.445340693 0.566034496
v -0.253642827 0.441489518 0.561433256
v -0.253776073 0.436499536 0.555438399
v -0.254997045 0.432651281 0.552643299
v -0.255242109 0.427782595 0.546484649
v -0.256209314 0.423761368 0.539319992
v -0.255340934 0.423004031 0.53106308
v -0.254100263 0.421806812 0.523295999
v -0.254727453 0.417358905 0.516556144
v -0.250638753 0.41798082 0.518605947
v -0.241097227 0.417870134 0.515095651
v -0.236061737 0.417343915 0.518497825
v -0.239116907 0.421293795 0.504612684
v -0.234162942 0.415690213 0.502012312
v -0.227393448 0.413249999 0.503092825
v -0.219250828 0.414645523 0.50241828
v -0.212286189 0.417451531 0.500066817
v -0.209668085 0.419808507 0.500066817
v -0.188043356 0.404775023 0.518880606
v -0.186464801 0.403246462 0.511526287
v -0.191850498 0.404478639 0.502661347
v -0.188145474 0.400363147 0.498353213
v -0.189618826 0.397016257 0.490295857
v -0.187615395 0.394963592 0.483484
v -0.190996215 0.393904597 0.472593546
v -0.187696069 0.390280485 0.467642963
v -0.189651042 0.387297273 0.463716209
v -0.197018683 0.390995443 0.446881771
v -0.319254667 0.53240931 0.265374541
v -0.318251669 0.519785941 0.264619172
v -0.316852033 0.512414992 0.265571147
v -0.317768127 0.50196892 0.267235488
v -0.317742944 0.496257842 0.266158015
v -0.317635477 0.484782934 0.26409024
v -0.32094425 0.482876062 0.263327718
v -0.319523185 0.469887435 0.263200164
v -0.316237926 0.466277748 0.257587492
v -0.320582956 0.465800494 0.244777098
v -0.321600586 0.467097819 0.237992749
v -0.31844157 0.46363458 0.232134745
v -0.319900453 0.465558648 0.219345167
v -0.443712354 0.597894073 0.031396389
v -0.259859711 0.378873348 0.31129548
v -0.254099369 0.361235261 0.317798197
v -0.256437361 0.35289675 0.317289531
v -0.253585279 0.349695623 0.316446155
v -0.297953993 0.389318019 0.252941906
v -0.304838687 0.385883063 0.250912845
v -0.318223417 0.395372838 0.240304813
v -0.318120986 0.384060711 0.238264918
v -0.317067951 0.377286345 0.238740563
v -0.316792458 0.365815401 0.23696582
v -0.320073575 0.363891691 0.236203939
v -0.620784998 0.686353028 -0.214508742
v -0.636090219 0.696888149 -0.232554391
v -0.631654441 0.679125428 -0.228474319
v -0.632349014 0.673468888 -0.230771959
v -0.636552095 0.665275455 -0.23353304
v -0.633778274 0.655841589 -0.23066245
v -0.632790685 0.641979694 -0.231709093
v -0.636902153 0.633722067 -0.234343499
v -0.637825012 0.628334999 -0.236977905
v -0.634615898 0.618513942 -0.233452216
v -0.638719916 0.610271215 -0.236081868
v -0.637566924 0.602685213 -0.235621259
v -0.635005713 0.587277234 -0.234312624
v -0.634558201 0.580471694 -0.234897316
v -0.638626814 0.578303456 -0.248216152
v -0.634108543 0.573284626 -0.253469884
v -0.636305153 0.5692541 -0.258011788
v -0.634411752 0.554600716 -0.257660389
v -0.633454859 0.547278881 -0.257466316
v -0.637546778 0.539060473 -0.260088235
v -0.636408389 0.531571448 -0.259622544
v -0.19214423 0.06741561 0.420715362
v -0.192600369 0.0681717694 0.429635435
v -0.193671346 0.0744759962 0.43383801
v -0.193111226 0.0741706118 0.444219768
v -0.192376748 0.0784578472 0.446316332
v -0.193062037 0.0794323161 0.454816431
v -0.196928114 0.0837073401 0.458612531
v -0.20449248 0.0818638504 0.45968768
v -0.210594848 0.0834021792 0.459205866
v -0.218983874 0.0823859051 0.45910728
v -0.223902985 0.0826925561 0.46037221
v -0.231180787 0.0805235803 0.461904764
v -0.238748252 0.0786438659 0.463026732
v -0.24474974 0.0800322294 0.462760657
v -0.253984809 0.0798114836 0.461529762
v -0.251315027 0.0720939636 0.464279056
v -0.250680953 0.0616091602 0.467746705
v -0.254889011 0.056181863 0.46897611
v -0.253476739 0.0449933633 0.473520994
v -0.252364278 0.038903553 0.474047959
v -0.258204192 0.0351221859 0.472936749
v -0.293241858 0.0600308888 0.435318887
v -0.298506767 0.055798959 0.439807445
v -0.299485981 0.0519592799 0.442026436
v -0.302119315 0.0452221148 0.450152576
v -0.300297409 0.0384455025 0.451615632
v -0.312882096 0.0407110974 0.436550111
v -0.311845839 0.030236626 0.445122421
v -0.135040537 -0.146068245 0.701627433
v -0.136795461 -0.152674392 0.709787428
v -0.141982466 -0.15177539 0.71000582
v -0.145757884 -0.156448379 0.715335965
v -0.1432679 -0.154249564 0.719736934
v -0.146548733 -0.150605261 0.72355181
v -0.158666864 -0.142935619 0.71850574
v -0.164366841 -0.145818621 0.7212044
v -0.165454924 -0.149043679 0.722862184
v -0.169441164 -0.153497472 0.727849722
v -0.176684409 -0.150723502 0.725352228
v -0.192690477 -0.135346964 0.712196171
v -0.191852137 -0.131249249 0.718475938
v -0.192899272 -0.129665062 0.725332618
v -0.191911012 -0.125722513 0.731786549
v -0.193562597 -0.123887956 0.733707011
v -0.194144964 -0.122743465 0.741136551
v -0.204043016 -0.121450305 0.742404521
v -0.209457144 -0.120381288 0.742441595
v -0.21688576 -0.121699832 0.742896557
v -0.221622139 -0.121265657 0.743836522
v -0.229232505 -0.12243399 0.744076908
v -0.236650705 -0.123787686 0.7445786
v -0.242031515 -0.122785173 0.744713962
v -0.249168053 -0.124409981 0.745598912
v -0.253108114 -0.129261672 0.746525288
v -0.251445591 -0.135290727 0.747581065
v -0.254635185 -0.140791342 0.749451339
v -0.252757221 -0.151135519 0.753734231
v -0.252512068 -0.15999864 0.755932331
v -0.254455358 -0.166529551 0.75934571
v -0.253608257 -0.17176494 0.759357572
v -0.255506426 -0.178299159 0.762808383
v -0.254997075 -0.187295035 0.765309393
v -0.255150229 -0.191633031 0.764055014
v -0.25376454 -0.193642646 0.757849097
v -0.254439384 -0.19794637 0.751943588
v -0.253994823 -0.199154899 0.744509161
v -0.252005786 -0.201691642 0.739027977
v -0.253448427 -0.20493938 0.736126423
v -0.250158846 -0.208593383 0.732301354
v -0.292148679 -0.177681401 0.67315793
v -0.303739011 -0.175681919 0.66847831
v -0.298004299 -0.189255923 0.677786469
v -0.312463075 -0.181646302 0.658176959
v -0.30856666 -0.193183199 0.669244647
v -0.317970216 -0.193090975 0.667403102
v -0.317644686 -0.197471425 0.670835078
v -0.163244382 -0.33391577 0.869019508
v -0.168025509 -0.337495804 0.868486702
v -0.175000951 -0.33928138 0.865180612
v -0.16912359 -0.352023154 0.874365509
v -0.151940823 -0.372939259 0.905213475
v -0.15561229 -0.373177499 0.906986833
v -0.159283757 -0.373415709 0.90876019
v -0.144003496 -0.388466924 0.937830567
v -0.145661145 -0.383044749 0.936753333
v -0.157681793 -0.379692256 0.934378088
v -0.165897876 -0.379890859 0.933125615
v -0.166379467 -0.383131444 0.935161591
v -0.171521887 -0.385791838 0.93770206
v -0.174221009 -0.386778802 0.940620065
v -0.175560966 -0.392918766 0.944185913
v -0.175792053 -0.399907321 0.949086607
v -0.176950037 -0.403559119 0.943075836
v -0.191391751 -0.399436891 0.930655777
v -0.193951175 -0.404102385 0.936339617
v -0.191754073 -0.412929356 0.944162846
v -0.21578227 -0.397453129 0.921292245
v -0.217774391 -0.40256235 0.927673638
v -0.222981378 -0.401621521 0.927597046
v -0.228585333 -0.403951705 0.929621696
v -0.243507758 -0.399214715 0.920552909
v -0.251826376 -0.395949334 0.916835785
v -0.250849277 -0.402734816 0.930286348
v -0.250177562 -0.406793237 0.933615267
v -0.252997428 -0.41176489 0.935352147
v -0.254273295 -0.414346606 0.93637526
v -0.256660938 -0.420183778 0.935047507
v -0.254725873 -0.426263928 0.932717443
v -0.25508219 -0.430080801 0.931257248
v -0.256051034 -0.437523365 0.928035855
v -0.253916264 -0.43966341 0.92698741
v -0.255205274 -0.443373621 0.920855165
v -0.253885955 -0.445497632 0.915259242
v -0.250886202 -0.445346683 0.909092009
v -0.252502412 -0.441230237 0.900991678
v -0.251776665 -0.435860455 0.88944298
v -0.249613747 -0.433913261 0.88944298
v -0.228972301 -0.443241954 0.901883006
v -0.230324209 -0.442806154 0.8966223
v -0.233711213 -0.441434264 0.885237515
v -0.228485331 -0.442898333 0.881670773
v -0.22995396 -0.442946553 0.872550666
v -0.224715486 -0.444414139 0.868975341
v -0.228303909 -0.442890882 0.857180893
v -0.223046839 -0.444363654 0.853592873
v -0.222915828 -0.445029616 0.850046992
v -0.107744418 -0.53827107 0.991051555
v -0.108334444 -0.541715086 0.989367366
v -0.105870508 -0.549625516 1.00093925
v -0.113053828 -0.550451219 1.00054097
v -0.118719317 -0.549083471 0.999525309
v -0.143953174 -0.526815176 0.969471753
v -0.143560097 -0.529338777 0.979474664
v -0.147148207 -0.532296181 0.987071931
v -0.149509937 -0.533356309 0.990164459
v -0.152700737 -0.533814311 0.992245913
v -0.159344256 -0.535110891 0.992635369
v -0.163527533 -0.534856915 0.993523359
v -0.169916242 -0.536926568 0.990785837
v -0.165188417 -0.547486365 0.997934282
v -0.170169771 -0.549959183 1.00030601
v -0.175201148 -0.549108446 1.00017536
v -0.204734296 -0.530430973 0.974414647
v -0.209761128 -0.529022694 0.97784555
v -0.208698452 -0.532487452 0.984996259
v -0.214313865 -0.533973455 0.990141213
v -0.217466563 -0.534472942 0.99230361
v -0.221650243 -0.534254611 0.993262172
v -0.229200393 -0.535005331 0.992720008
v -0.235538214 -0.537225366 0.990178347
v -0.239371717 -0.538510799 0.984717309
v -0.228608996 -0.552440584 1.00197017
v -0.240328357 -0.549724162 1.00000858
v -0.270359337 -0.528015554 0.972352266
v -0.269406587 -0.531331718 0.979274869
v -0.272259116 -0.53141284 0.985248089
v -0.275359213 -0.531964839 0.987511098
v -0.279574931 -0.535050333 0.990871549
v -0.28708905 -0.535261691 0.993897319
v -0.294205129 -0.53311795 0.991640151
v -0.298864752 -0.536564291 0.991104782
v -0.288809657 -0.547841966 0.997949362
v -0.287844211 -0.551734686 1.00136685
v -0.298069775 -0.55014044 1.00132549
v -0.305140913 -0.548059821 0.99913919
v -0.335961938 -0.526403904 0.971681237
v -0.335464239 -0.53195107 0.983710587
v -0.337514311 -0.533203065 0.987161577
v -0.340934515 -0.533554912 0.989099383
v -0.348219842 -0.533967495 0.99248606
v -0.352120668 -0.534006119 0.993898511
v -0.361359239 -0.533849359 0.99180454
v -0.363059372 -0.536709547 0.988878608
v -0.35290724 -0.550435185 1.0011071
v -0.360896379 -0.551082611 1.00034606
v -0.365686774 -0.550550759 1.00078642
v -0.372510314 -0.551957428 1.00130713
v -0.37727797 -0.55144769 1.00178623
v -0.381797463 -0.555036068 1.00145054
v -0.382545203 -0.562436998 0.998478234
v -0.383045107 -0.566057384 0.996857464
v -0.381122023 -0.571914852 0.99449718
v -0.379504442 -0.576846123 0.995151699
v -0.383574039 -0.580705225 0.995289743
v -0.381607711 -0.583391905 0.99072814
v -0.381991059 -0.58781904 0.985892117
v -0.381980598 -0.592492878 0.981475711
v -0.380486816 -0.594152212 0.979738772
v -0.381923765 -0.597948551 0.973749101
v -0.381992161 -0.602586269 0.969234884
v -0.381960243 -0.607289016 0.96482563
v -0.381675541 -0.608219147 0.961764693
v -0.382623702 -0.61233896 0.956277907
v -0.380307436 -0.61525929 0.952045143
v -0.381640226 -0.618392289 0.949510694
v -0.381641597 -0.623093903 0.945044875
v -0.380191982 -0.625502706 0.939846277
v -0.382385939 -0.628133595 0.93635726
v -0.38198781 -0.633085489 0.932318091
v -0.380465746 -0.635547638 0.927178144
v -0.38040033 -0.640309691 0.922762811
v -0.381094217 -0.644630194 0.917499959
v -0.380497545 -0.645770192 0.914735973
v -0.381236225 -0.650074661 0.90941149
v -0.381225258 -0.654822648 0.904917538
v -0.379716396 -0.656498671 0.903163075
v -0.380438626 -0.660826743 0.897841454
v -0.382066846 -0.664640129 0.891494751
v -0.379595339 -0.667680979 0.887356222
v -0.381560773 -0.670502722 0.884076238
v -0.393921703 -0.668206513 0.86557883
v -0.394792378 -0.671685815 0.863524914
v -0.397190273 -0.678275943 0.858673573
v -0.394141823 -0.681662142 0.855128884
v -0.39329201 -0.683808327 0.849081814
v -0.383244842 -0.691137671 0.853519261
v -0.384097487 -0.695458949 0.847976744
v -0.382592082 -0.697140276 0.846188128
v -0.382717133 -0.701876581 0.841469884
v -0.382117391 -0.707020521 0.837580562
v -0.380952686 -0.708513319 0.835397065
v -0.383995861 -0.711645484 0.827301085
v -0.394400775 -0.709884346 0.814231396
v -0.396415621 -0.716758192 0.809780598
v -0.394035101 -0.719790637 0.805416048
v -0.391465217 -0.72292757 0.801266849
v -0.382297486 -0.729657948 0.804807365
v -0.383104056 -0.734067798 0.79924649
v -0.38160947 -0.735749066 0.797422111
v -0.382057309 -0.740361333 0.792270958
v -0.382519573 -0.744972348 0.78709662
v -0.381215811 -0.746552646 0.785042703
v -0.380924135 -0.751574039 0.780747771
v -0.380201578 -0.756827474 0.776958942
v -0.378155619 -0.759693384 0.772178531
v -0.379443347 -0.762993693 0.769608498
v -0.380729795 -0.767194867 0.763429046
v -0.378591895 -0.770117879 0.758737862
v -0.380178243 -0.773272693 0.75580591
v -0.377780795 -0.776335776 0.751414299
v -0.37976554 -0.780198514 0.744366109
v -0.380393505 -0.783864081 0.742573559
v -0.380746156 -0.785510778 0.734861255
v -0.381269872 -0.790156603 0.729538321
v -0.382644117 -0.794373393 0.723183215
v -0.382361829 -0.799446523 0.718818903
v -0.381542772 -0.800794065 0.716138065
v -0.382108301 -0.805442154 0.710740209
v -0.382143617 -0.81036514 0.705979466
v -0.380683631 -0.812041402 0.704067826
v -0.380244762 -0.817207754 0.699878633
v -0.380464792 -0.818987787 0.692214072
v -0.3810561 -0.823651254 0.686751544
v -0.381409496 -0.82844013 0.681573868
v -0.380321383 -0.829935908 0.679192007
v -0.378697038 -0.826530337 0.668331683
v -0.380155563 -0.826761663 0.662784278
v -0.379474044 -0.829019368 0.656120598
v -0.379222125 -0.834142208 0.65164423
v -0.378644317 -0.841520846 0.654069543
v -0.377839267 -0.845938921 0.654044509
v -0.378990591 -0.852443278 0.65431726
v -0.377979755 -0.856946826 0.654548943
v -0.378923506 -0.863530099 0.655076146
v -0.377342463 -0.868290067 0.656017244
v -0.378048509 -0.874961734 0.656835377
v -0.380217999 -0.880929947 0.655834854
v -0.379737616 -0.885144532 0.655410171
v -0.379686147 -0.892136812 0.657162011
v -0.378718317 -0.89656359 0.657343566
v -0.380449891 -0.902704954 0.656880379
v -0.381713867 -0.909052551 0.656994641
v -0.38140586 -0.913157046 0.656358719
v -0.381553948 -0.919991553 0.65785253
v -0.381398678 -0.924015462 0.657028854
v -0.381427914 -0.930877268 0.658666193
v -0.381296426 -0.934879541 0.657814562
v -0.382762432 -0.941081643 0.657669485
v -0.380980283 -0.949730754 0.657850683
v -0.383305997 -0.9516083 0.657650352
v -0.381739944 -0.954368651 0.652201176
v -0.379461706 -0.954548419 0.644927859
v -0.379923254 -0.956434786 0.636915267
v -0.375382334 -0.956552148 0.636153579
v -0.363913953 -0.957833111 0.637651503
v -0.35639289 -0.956363976 0.637941778
v -0.353203237 -0.955897272 0.635500371
v -0.349498004 -0.955656826 0.633710682
v -0.339633256 -0.955235958 0.637012601
v -0.335935414 -0.954996049 0.635226548
v -0.32576704 -0.955752671 0.635216773
v -0.321104735 -0.955946445 0.634682119
v -0.319889039 -0.949652851 0.634445488
v -0.321516454 -0.944985509 0.633327246
v -0.322698563 -0.937577069 0.629994571
v -0.321460098 -0.930250049 0.633554101
v -0.319917172 -0.928012311 0.632750094
v -0.318662733 -0.920690119 0.636330783
v -0.319742918 -0.917223454 0.632140994
v -0.322912902 -0.907805085 0.630020499
v -0.320178151 -0.902137995 0.631727159
v -0.319548458 -0.898462534 0.633524537
v -0.317358732 -0.892533243 0.634527683
v -0.316244364 -0.889090121 0.636950731
v -0.314837486 -0.882776916 0.636942744
v -0.314207315 -0.879098594 0.638741553
v -0.316485494 -0.870963037 0.633972406
v -0.317761093 -0.866334677 0.633313358
v -0.319474727 -0.858426034 0.629264891
v -0.318840861 -0.854726195 0.63107419
v -0.318485886 -0.847814798 0.629692912
v -0.315658629 -0.842136323 0.631504536
v -0.315023959 -0.838431835 0.6333161
v -0.317968339 -0.829800963 0.627660692
v -0.317415833 -0.826042414 0.629368961
v -0.298056602 -0.828893185 0.652570248
v -0.294326395 -0.82865119 0.650768518
v -0.286874831 -0.827248633 0.65097338
v -0.277850986 -0.827586114 0.649427414
v -0.270779043 -0.829100132 0.652023375
v -0.263892412 -0.82742697 0.651539326
v -0.260176539 -0.827185869 0.649744511
v -0.252479494 -0.833046198 0.652264237
v -0.250196576 -0.838236272 0.654331863
v -0.250913352 -0.84492141 0.655290723
v -0.249770731 -0.849491835 0.655848265
v -0.252238184 -0.855247855 0.654483914
v -0.252863109 -0.858895659 0.652700067
v -0.252891868 -0.865892589 0.654563487
v -0.251322061 -0.870649576 0.655687332
v -0.253791481 -0.876381695 0.654314876
v -0.251634359 -0.881415904 0.656216383
v -0.252524585 -0.887922466 0.656929553
v -0.251709998 -0.896197975 0.656104624
v -0.254373878 -0.897874057 0.65541929
v -0.252370268 -0.906712711 0.656168222
v -0.255036414 -0.908386409 0.655476093
v -0.252649307 -0.91738081 0.656733453
v -0.253256232 -0.923952103 0.657809675
v -0.252866507 -0.928043425 0.657377481
v -0.254927397 -0.933902204 0.656528354
v -0.252569377 -0.938913226 0.658698201
v -0.254756361 -0.94469595 0.657678664
v -0.253630579 -0.949108481 0.658220589
v -0.254246771 -0.952705204 0.656461716
v -0.254820019 -0.954398692 0.648173213
v -0.251174629 -0.955141246 0.642627418
v -0.245999858 -0.956592202 0.639109373
v -0.242348626 -0.956355274 0.637345731
v -0.237177551 -0.956827044 0.637624383
v -0.229422674 -0.955595613 0.638524234
v -0.222087175 -0.955144584 0.635066628
v -0.217551485 -0.955328703 0.634517968
v -0.21185413 -0.956064224 0.635559082
v -0.205125675 -0.954370975 0.635118604
v -0.200037271 -0.954826951 0.635353267
v -0.192492038 -0.95353508 0.636058569
v -0.192975804 -0.946483076 0.633374035
v -0.195003271 -0.941608906 0.631489754
v -0.193770736 -0.934414446 0.635008037
v -0.193117946 -0.931772947 0.632973313
v -0.195445463 -0.922809482 0.631590009
v -0.192692593 -0.917280495 0.633353949
v -0.192074642 -0.91367346 0.635117829
v -0.194515586 -0.905522883 0.629719853
v -0.193895906 -0.901905715 0.631488681
v -0.195243999 -0.894263148 0.627589464
v -0.192911357 -0.891515493 0.631722569
v -0.192063436 -0.884973943 0.630849004
v -0.19123511 -0.881455779 0.632907867
v -0.188675225 -0.875790775 0.634395063
v -0.188054085 -0.872165143 0.636168063
v -0.187370881 -0.86550647 0.635062456
v -0.189885408 -0.856245041 0.633424759
v -0.191839591 -0.852112353 0.627748966
v -0.190590605 -0.84482187 0.631314218
v -0.193144724 -0.840333462 0.624799788
v -0.191892534 -0.833024383 0.6283741
v -0.189103395 -0.8274225 0.630161285
v -0.189072698 -0.823440075 0.63112545
v -0.168689236 -0.828441203 0.653370738
v -0.164230227 -0.828641951 0.652696192
v -0.154808149 -0.828489959 0.655960739
v -0.151148111 -0.828252435 0.654192865
v -0.143828049 -0.827777505 0.650657177
v -0.140168011 -0.82753998 0.648889363
v -0.132667273 -0.827167273 0.645609796
v -0.124491274 -0.832619965 0.653292835
v -0.122630984 -0.840728223 0.658070207
v -0.119181551 -0.850519598 0.661201656
v -0.119485959 -0.854273796 0.659889042
v -0.12221963 -0.859764218 0.658137441
v -0.122216098 -0.863684773 0.657261908
v -0.124948822 -0.869173288 0.655510902
v -0.125562251 -0.872753918 0.653759897
v -0.127831176 -0.878492355 0.65266639
v -0.126155064 -0.883300424 0.654162407
v -0.128377751 -0.889049947 0.653130829
v -0.125228718 -0.894619405 0.65671438
v -0.127365887 -0.90039438 0.655798495
v -0.123502992 -0.910180628 0.659517229
v -0.125607252 -0.912074983 0.659517229
v -0.126240328 -0.919487476 0.656868815
v -0.128672913 -0.921211958 0.656403303
v -0.126195684 -0.930206835 0.658158422
v -0.126138896 -0.934091806 0.657364845
v -0.127548769 -0.940181136 0.657465458
v -0.126045018 -0.944784403 0.658720732
v -0.128180519 -0.950491488 0.657790065
v -0.125804096 -0.953499019 0.65347892
v -0.126196876 -0.955133557 0.64522177
v -0.126046643 -0.957044005 0.637710512
v -0.122450769 -0.956810653 0.635973692
v -0.114939742 -0.955589771 0.636841834
v -0.106506146 -0.955750048 0.635176361
v -0.101712078 -0.956122458 0.635187268
v -0.0931326747 -0.955465078 0.637664974
v -0.0895514041 -0.955232739 0.635935187
v -0.081648618 -0.955144763 0.633561015
v -0.0754759163 -0.95623529 0.635644376
v -0.07190153 -0.956003368 0.633917928
v -0.0665967986 -0.952820301 0.635581315
v -0.0654120669 -0.946630001 0.635076046
v -0.0674068779 -0.941744387 0.632958472
v -0.064707756 -0.936323285 0.63468796
v -0.0674206764 -0.927172363 0.632341921
v -0.0678924546 -0.923918724 0.628536344
v -0.06667611 -0.916818798 0.632008374
v -0.0657709539 -0.913428605 0.634183764
v -0.0633586124 -0.907827318 0.635480404
v -0.0627504438 -0.904277325 0.637216389
v -0.0657452717 -0.895708859 0.630501151
v -0.0657534376 -0.891806722 0.631327093
v -0.0643683672 -0.885605335 0.631091535
v -0.0635089129 -0.878271163 0.634042323
v -0.0646112487 -0.874568582 0.629276037
v -0.0637401193 -0.867222488 0.632247269
v -0.0631278381 -0.863648474 0.633994997
v -0.0637329668 -0.856264591 0.63079977
v -0.0631194934 -0.852683723 0.632550895
v -0.0634099692 -0.845446706 0.62981528
v -0.064476423 -0.840883791 0.629075646
v -0.0663987249 -0.832653999 0.623908103
v -0.0657818988 -0.829053521 0.625668824
v -0.0630340353 -0.823534608 0.627429485
v -0.0416837372 -0.829087734 0.656853378
v -0.0368172787 -0.829605937 0.656991839
v -0.0292277671 -0.829368174 0.654086173
v -0.631300688 -0.46950835 -0.254258335
v -0.635691106 -0.476499707 -0.257674962
v -0.634271741 -0.482666105 -0.256665111
v -0.634670854 -0.493064374 -0.259502649
v -0.634075046 -0.498724818 -0.259725362
v -0.636747003 -0.506707013 -0.260568291
v -0.634834409 -0.513115048 -0.258813649
v -0.635878921 -0.522010744 -0.257220924
v -0.635346234 -0.532876611 -0.258651614
v -0.634273708 -0.538759828 -0.25815472
v -0.634092748 -0.544129968 -0.258995354
v -0.636802852 -0.552023649 -0.259911627
v -0.636865199 -0.562501252 -0.262229055
v -0.637686729 -0.567296326 -0.264573932
v -0.633416951 -0.566656053 -0.267800093
v -0.633426845 -0.568892717 -0.278602928
v -0.633465767 -0.57938695 -0.280871451
v -0.630874813 -0.586059332 -0.278055608
v -0.626471221 -0.598934174 -0.273592144
v -0.631333768 -0.600380898 -0.276664883
v -0.630939662 -0.611045122 -0.278268725
v -0.631595314 -0.615914106 -0.280359626
v -0.635284364 -0.623221695 -0.282758266
v -0.635235727 -0.628461719 -0.283784002
v -0.633496165 -0.639790416 -0.283347756
v -0.630496025 -0.646554828 -0.27990216
v -0.632400334 -0.654754698 -0.27961272
v -0.628709257 -0.66183871 -0.275122672
v -0.63029635 -0.671362698 -0.279707819
v -0.633108616 -0.673894465 -0.279707819
v -0.634736657 -0.683397293 -0.284354925
v -0.635200799 -0.688324511 -0.286149055
v -0.638667226 -0.695686042 -0.288231343
v -0.637155592 -0.701590419 -0.287037045
v -0.633457899 -0.71369952 -0.283621132
v -0.637241244 -0.715741515 -0.285104096
v -0.63593179 -0.726638615 -0.285301179
v -0.635412455 -0.732011855 -0.285602599
v -0.636766195 -0.740339696 -0.2845065
v -0.636264026 -0.745688617 -0.284833252
v -0.622706652 -0.759791136 -0.255953014
v -0.625257194 -0.762389362 -0.255621403
v -0.633831084 -0.764691234 -0.254930109
v -0.629451454 -0.776839495 -0.250524014
v -0.627592564 -0.782740653 -0.248813868
v -0.62613821 -0.788443804 -0.247709021
v -0.629376709 -0.795733213 -0.24951002
v -0.626210868 -0.807207346 -0.246913388
v -0.630601287 -0.808946908 -0.249371111
v -0.627699792 -0.820260763 -0.247172505
v -0.628326058 -0.824980438 -0.249189347
v -0.626599908 -0.830739021 -0.247672006
v -0.632485688 -0.836822152 -0.253460795
v -0.627059281 -0.849153817 -0.247463018
v -0.625510454 -0.854794145 -0.246208519
v -0.629040062 -0.861883163 -0.248470113
v -0.629775882 -0.866531909 -0.250646919
v -0.627467036 -0.877421618 -0.249320388
v -0.63276124 -0.878806353 -0.25316447
v -0.628323972 -0.890551567 -0.248644114
v -0.6288746 -0.895260155 -0.250539273
v -0.629664302 -0.899869382 -0.252793312
v -0.633182049 -0.906934738 -0.255047351
v -0.633304119 -0.916740716 -0.257366449
v -0.637489498 -0.918609321 -0.259555429
v -0.635586143 -0.929211438 -0.258835077
v -0.632260203 -0.935439408 -0.254906982
v -0.634337187 -0.943040788 -0.255009264
v -0.633377612 -0.948311746 -0.254633695
v -0.63468951 -0.957587183 -0.258730233
v -0.633597434 -0.962893367 -0.258152217
v -0.636043429 -0.970318019 -0.258814514
v -0.634599388 -0.975739837 -0.2577084
v -0.634281039 -0.985596955 -0.259350479
v -0.638563097 -0.987448633 -0.261714399
v -0.636659682 -0.997875512 -0.260977894
v -0.637102723 -1.00256884 -0.262702107
v -0.637191594 -1.01223874 -0.264951378
v -0.632569134 -1.01193881 -0.267184079
v -0.63413018 -1.01425803 -0.279812962
v -0.635246575 -1.01871538 -0.282553405
v -0.633024454 -1.02921152 -0.281296104
v -0.632466018 -1.03425312 -0.281501025
v -0.633871615 -1.04197788 -0.280589908
v -0.632515967 -1.04728055 -0.279588819
v -0.632244766 -1.05702448 -0.281273216
v -0.632511318 -1.06175387 -0.28272295
v -0.635679185 -1.06883764 -0.284484684
v -0.634948194 -1.07389581 -0.284425318
v -0.633353353 -1.08403718 -0.284101367
v -0.635880291 -1.08651173 -0.283855587
v -0.634467483 -1.09656239 -0.283806741
v -0.632961333 -1.10183609 -0.282569975
v -0.63565886 -1.10902774 -0.283634305
v -0.635517061 -1.11385024 -0.284461677
v -0.634921432 -1.12358129 -0.28564176
v -0.638017237 -1.13062918 -0.287313282
v -0.636543691 -1.13584435 -0.286124825
v -0.635500729 -1.13922453 -0.294731915
v -0.633130729 -1.13978338 -0.305427611
v -0.635828972 -1.14049673 -0.314669847
v -0.635410964 -1.14046192 -0.328445464
v -0.631168783 -1.14004946 -0.331241101
v -0.626404643 -1.13807964 -0.342585534
v -0.617896199 -1.13897729 -0.338801056
v -0.604228735 -1.13975322 -0.336348414
v -0.597823918 -1.1400131 -0.335763693
v -0.584338069 -1.14075208 -0.333488226
v -0.579342484 -1.14058018 -0.3350721
v -0.573677301 -1.1406188 -0.335596502
v -0.562615573 -1.14061654 -0.337043732
v -0.558030069 -1.14031899 -0.339258611
v -0.545205653 -1.14088356 -0.337847173
v -0.538715661 -1.14119494 -0.336993068
v -0.533268929 -1.1411767 -0.337799221
v -0.524117231 -1.14058578 -0.342203766
v -0.513593197 -1.13894176 -0.339091241
v -0.508472204 -1.13882554 -0.340391934
v -0.502101004 -1.13911593 -0.33964783
v -0.483432174 -1.14163911 -0.328388512
v -0.478746265 -1.14139235 -0.33034119
v -0.467695624 -1.14145124 -0.331465542
v -0.463110775 -1.14117324 -0.333574176
v -0.458575487 -1.14087903 -0.335764766
v -0.449504912 -1.1402905 -0.340145975
v -0.444969624 -1.13999617 -0.342336595
v -0.435899049 -1.13940763 -0.346717805
v -0.431363761 -1.13911331 -0.348908395
v -0.421170831 -1.13890338 -0.351380736
v -0.408222198 -1.14000797 -0.333842695
v -0.393999994 -1.1411947 -0.32929197
v -0.38900876 -1.14107096 -0.330619544
v -0.384411663 -1.14081311 -0.332621127
v -0.375416428 -1.14022946 -0.336965948
v -0.37091881 -1.13993764 -0.339138359
v -0.361178279 -1.13961256 -0.342181325
v -0.356548101 -1.13936758 -0.34411782
v -0.346578807 -1.13912618 -0.346737742
v -0.341218114 -1.13913882 -0.34737587
v -0.335966617 -1.13911462 -0.348198742
v -0.326986998 -1.13853192 -0.352535993
v -0.322497219 -1.13824069 -0.354704648
v -0.299686968 -1.14119136 -0.32870248
v -0.294878066 -1.14102936 -0.330215156
v -0.284499258 -1.14098155 -0.331851512
v -0.279605001 -1.14085317 -0.333193958
v -0.267894328 -1.14129686 -0.332354158
v -0.263451964 -1.14100862 -0.334499866
v -0.2590096 -1.14072037 -0.336645573
v -0.248037428 -1.14090979 -0.337079614
v -0.243151262 -1.14078701 -0.338391423
v -0.233965456 -1.1403271 -0.342093766
v -0.228310958 -1.14049137 -0.341957361
v -0.223878115 -1.14020383 -0.344098479
v -0.209082708 -1.14184678 -0.337194026
v -0.204663917 -1.14156008 -0.339328349
v -0.190764576 -1.14155471 -0.328354567
v -0.186362222 -1.14126909 -0.330480993
v -0.176118135 -1.14124644 -0.331973553
v -0.171007618 -1.14123297 -0.332729548
v -0.162213251 -1.14066231 -0.336977363
v -0.157816067 -1.14037704 -0.339101255
v -0.153418884 -1.14009178 -0.341225147
v -0.144358292 -1.1396246 -0.34495154
v -0.139961749 -1.13933933 -0.347075105
v -0.131168678 -1.13876879 -0.351322293
v -0.12677215 -1.13848352 -0.353445888
v -0.114713527 -1.13920462 -0.351178348
v -0.101975575 -1.14093757 -0.330855101
v -0.0876978859 -1.14259028 -0.323910564
v -0.083348535 -1.14230812 -0.32601136
v -0.0786949024 -1.14214814 -0.327496678
v -0.0699977279 -1.1415838 -0.331697553
v -0.0656491369 -1.14130175 -0.333797961
v -0.0567906536 -1.14080322 -0.337667435
v -0.0524424724 -1.14052105 -0.339767665
v -0.0437461138 -1.13995671 -0.343968123
v -0.0393979326 -1.13967466 -0.346068352
v -0.0350497514 -1.1393925 -0.348168582
v -0.0180435181 -1.14104307 -0.329055816
v -0.0086728977 -1.14078712 -0.331697881
v -0.00240610936 -1.14132643 -0.329663455
v 0.00190900557 -1.1410464 -0.331747711
v 0.012065039 -1.14113462 -0.332654744
v 0.0163761526 -1.14085495 -0.334737062
v 0.0249983817 -1.14029551 -0.338901728
v 0.0293094944 -1.14001572 -0.340984046
v 0.0336206071 -1.13973606 -0.343066365
v 0.0422428362 -1.13917649 -0.34723103
v 0.0505298711 -1.14062774 -0.340591371
v 0.060057912 -1.14047575 -0.342698574
v 0.0667495653 -1.1412487 -0.339471638
v 0.0760331452 -1.1398114 -0.336016268
v 0.0830106139 -1.14072967 -0.332071543
v 0.0936547741 -1.14110863 -0.331506103
v 0.0981516913 -1.14093244 -0.333061427
v 0.103246242 -1.14102566 -0.333260626
v 0.111783959 -1.1404717 -0.337384462
v 0.117209777 -1.14072013 -0.336801231
v 0.127822161 -1.14111769 -0.336131901
v 0.132082015 -1.14084136 -0.338189453
v 0.140601709 -1.14028859 -0.342304587
v 0.145430908 -1.14027572 -0.343033791
v 0.150095925 -1.14018834 -0.344138324
v 0.16238533 -1.14026701 -0.333150566
v 0.166626677 -1.13999176 -0.335199177
v 0.177149743 -1.14040601 -0.334445834
v 0.18275404 -1.14078045 -0.333226323
v 0.195134684 -1.14210165 -0.327903777
v 0.199354947 -1.14182782 -0.329942226
v 0.209348038 -1.14202869 -0.330250502
v 0.21356377 -1.1417551 -0.332286775
v 0.217779517 -1.14148164 -0.334323019
v 0.226210997 -1.14093447 -0.338395536
v 0.230426729 -1.140661 -0.340431809
v 0.239932582 -1.14064419 -0.341831356
v 0.245686263 -1.14113402 -0.340018123
v 0.253044933 -1.13899124 -0.340316832
v 0.257304162 -1.13874507 -0.342213929
v 0.270216346 -1.14046979 -0.334857047
v 0.27600807 -1.14100754 -0.332808524
v 0.281167537 -1.14122963 -0.33234632
v 0.291811317 -1.14185023 -0.330531508
v 0.295988619 -1.14157927 -0.332549214
v 0.304343283 -1.14103711 -0.336584628
v 0.308520615 -1.14076602 -0.338602334
v 0.312697917 -1.14049506 -0.340620041
v 0.322225124 -1.14056742 -0.341558486
v 0.32686305 -1.14054084 -0.342343569
v 0.334364384 -1.13854635 -0.34198612
v 0.339375764 -1.13872397 -0.341747046
v 0.351130933 -1.14001763 -0.336547583
v 0.355363429 -1.13978922 -0.338347435
v 0.367050409 -1.14107919 -0.33315751
v 0.371360123 -1.14090002 -0.334707886
v 0.378391743 -1.14220715 -0.328776896
v 0.38666144 -1.14167058 -0.332771271
v 0.390796304 -1.14140224 -0.334768444
v 0.400518835 -1.14167321 -0.334694266
v 0.405977845 -1.14214671 -0.332953155
v 0.416093975 -1.14265931 -0.331655532
v 0.420213461 -1.14239204 -0.333645284
v 0.424332947 -1.14212477 -0.335635066
v 0.433402658 -1.14114141 -0.330323905
v 0.43751362 -1.14087474 -0.332309544
v 0.445735514 -1.14034116 -0.336280823
v 0.449846476 -1.14007449 -0.338266462
v 0.458068371 -1.13954103 -0.342237771
v 0.462179333 -1.13927424 -0.34422341
v 0.470401227 -1.13874078 -0.348194689
v 0.47451216 -1.13847399 -0.350180358
v 0.478623122 -1.13820732 -0.352165997
v 0.492031872 -1.1407876 -0.340444207
v 0.496759981 -1.1409049 -0.340490758
v 0.504075289 -1.13899362 -0.339918673
v 0.509135723 -1.1393224 -0.338906854
v 0.517303824 -1.1387924 -0.342852145
v 0.521469772 -1.13857806 -0.34457019
v 0.53407079 -1.14080918 -0.334621847
v 0.538283169 -1.14063573 -0.336131245
v 0.542350352 -1.1403718 -0.338095725
v 0.550484657 -1.13984406 -0.342024714
v 0.554754555 -1.139709 -0.343340337
v 0.563962102 -1.13986981 -0.343799561
v 0.568024516 -1.13960624 -0.345761776
v 0.576123714 -1.13828385 -0.342301548
v 0.58017987 -1.13802063 -0.344260722
v 0.590681791 -1.13906538 -0.340280205
v 0.595259786 -1.13915336 -0.340472609
v 0.599304855 -1.13889086 -0.342426419
v 0.607491672 -1.1384306 -0.346008837
v 0.612795293 -1.13901353 -0.343708575
v 0.621121287 -1.13865614 -0.34677133
v 0.624276042 -1.13707078 -0.344059825
v 0.633821428 -1.13685048 -0.335172147
v 0.631355226 -1.12623799 -0.344456106
v 0.632038593 -1.12224925 -0.342505485
v 0.632721961 -1.11826038 -0.340554863
v 0.632369637 -1.109056 -0.342571169
v 0.632651508 -1.10477138 -0.342003435
v 0.630502045 -1.09421968 -0.350212008
v 0.631186783 -1.09020698 -0.348258913
v 0.631873906 -1.08619618 -0.346297503
v 0.63324821 -1.07817435 -0.342374682
v 0.633935332 -1.07416356 -0.340413272
v 0.630422354 -1.06243873 -0.353333592
v 0.631112754 -1.05840862 -0.351362795
v 0.630274236 -1.05320644 -0.354662538
v 0.63153553 -1.04504001 -0.35113433
v 0.632227123 -1.04100335 -0.349160343
v 0.633610189 -1.03293025 -0.3452124
v 0.634301722 -1.02889371 -0.343238413
v 0.633460879 -1.02310336 -0.338721752
v 0.634108484 -1.01903224 -0.336898893
v 0.635370255 -1.01086164 -0.33336857
v 0.636061788 -1.00682509 -0.331394583
v 0.636753321 -1.00278854 -0.329420626
v 0.638136387 -0.994715393 -0.325472653
v 0.638799548 -0.990655124 -0.323596478
v 0.636059642 -0.979103625 -0.333857626
v 0.633912325 -0.972640455 -0.341670036
v 0.635304928 -0.964511752 -0.337694913
v 0.636001229 -0.960447371 -0.335707337
v 0.636697531 -0.95638299 -0.33371976
v 0.636695921 -0.947033584 -0.334553361
v 0.636905968 -0.94214052 -0.326358467
v 0.636378765 -0.936992407 -0.328582495
v 0.633647025 -0.929871559 -0.338396817
v 0.634673834 -0.921369553 -0.335685283
v 0.635373652 -0.917284429 -0.333687544
v 0.636773407 -0.909114182 -0.329692125
v 0.637473226 -0.905029058 -0.327694416
v 0.637696147 -0.900504112 -0.327340066
v 0.638346374 -0.891631365 -0.325927913
v 0.639047086 -0.887541354 -0.32392779
v 0.636128366 -0.875276923 -0.334820956
v 0.636832058 -0.871169448 -0.332812339
v 0.637535691 -0.867062032 -0.330803692
v 0.636511981 -0.861035764 -0.326786429
v 0.633313417 -0.848357081 -0.338621408
v 0.632991076 -0.843228817 -0.340146154
v 0.633698642 -0.839098632 -0.338126421
v 0.634733737 -0.830462754 -0.335395604
v 0.635441601 -0.826331079 -0.333375096
v 0.635497212 -0.816704571 -0.334018797
v 0.635438323 -0.811794281 -0.334640354
v 0.636856914 -0.803513587 -0.330590904
v 0.637566268 -0.799373269 -0.328566194
v 0.638275564 -0.795232952 -0.326541483
v 0.636148334 -0.783279955 -0.33471626
v 0.63664639 -0.778902829 -0.33342129
v 0.632655263 -0.764905453 -0.348031491
v 0.633370996 -0.760727704 -0.345988452
v 0.638997197 -0.761664391 -0.318955809
v 0.636439383 -0.754033804 -0.328177452
v 0.636398971 -0.744129896 -0.329155982
v 0.635542214 -0.738264501 -0.332526743
v 0.635908365 -0.733709514 -0.331687361
v 0.636842787 -0.724810421 -0.329313219
v 0.637363732 -0.720416248 -0.327941447
v 0.636545539 -0.709560573 -0.331607759
v 0.637263298 -0.705370724 -0.329558849
v 0.634901345 -0.697737336 -0.338124394
v 0.631929457 -0.684355915 -0.349223405
v 0.632652581 -0.68013525 -0.347159386
v 0.634098768 -0.671693861 -0.343031377
v 0.637111187 -0.675192714 -0.324495256
v 0.635094643 -0.662807643 -0.33227998
v 0.635507405 -0.658234298 -0.331283569
v 0.635939121 -0.648618639 -0.33064729
v 0.636662185 -0.644397914 -0.32858327
v 0.637385249 -0.64017725 -0.326519251
v 0.638831437 -0.631735861 -0.322391212
v 0.638828158 -0.626649082 -0.322829455
v 0.632567167 -0.608933747 -0.345258266
v 0.633154869 -0.604507327 -0.343664259
v 0.633867919 -0.59508723 -0.342070431
v 0.634597659 -0.590827763 -0.339987457
v 0.635327399 -0.586568296 -0.337904513
v 0.636786819 -0.578049421 -0.333738565
v 0.635881007 -0.577155292 -0.32860896
v 0.63645494 -0.567540646 -0.327489644
v 0.63718468 -0.563281178 -0.3254067
v 0.631786287 -0.546102524 -0.344849676
v 0.631984413 -0.541134119 -0.344599962
v 0.633186221 -0.53221041 -0.341327637
v 0.633921444 -0.527918875 -0.339228988
v 0.634656668 -0.523627341 -0.337130308
v 0.636127114 -0.515044272 -0.332933009
v 0.635618091 -0.509130597 -0.335121989
v 0.634457171 -0.497076988 -0.339995623
v 0.635195196 -0.492769092 -0.337888956
v 0.634961724 -0.487174571 -0.339131773
v 0.632962346 -0.473909855 -0.346904665
v 0.631285846 -0.466343433 -0.353127748
v 0.635810316 -0.467518449 -0.32959637
v 0.633615315 -0.459244519 -0.337584853
v 0.633300602 -0.448148876 -0.339539766
v 0.633176863 -0.442632854 -0.340402663
v 0.634389043 -0.433582217 -0.337103993
v 0.633262038 -0.426660776 -0.341423899
v 0.634006619 -0.422314763 -0.339298576
v 0.635495722 -0.413622707 -0.33504799
v 0.636240304 -0.409276694 -0.332922667
v 0.637729406 -0.400584638 -0.328672081
v 0.638473928 -0.396238625 -0.326546788
v 0.636925578 -0.383206129 -0.33276993
v 0.637672365 -0.378847092 -0.33063826
v 0.638419092 -0.374488086 -0.328506619
v 0.63807261 -0.369161487 -0.321697026
v 0.638079464 -0.363733739 -0.322111636
v 0.637919486 -0.352600902 -0.323540479
v 0.637838721 -0.34702003 -0.324258655
v 0.634930849 -0.33177647 -0.335154951
v 0.63540858 -0.326981694 -0.333952874
v 0.636912704 -0.318202168 -0.329659462
v 0.637664735 -0.313812405 -0.327512771
v 0.638416767 -0.309422612 -0.32536608
v 0.633715034 -0.291244894 -0.342462927
v 0.634471714 -0.286828339 -0.340303123
v 0.635985017 -0.277995169 -0.335983515
v 0.632312655 -0.266774625 -0.349097341
v 0.63564086 -0.267098814 -0.329504102
v 0.636397481 -0.262682229 -0.327344298
v 0.637910783 -0.253849089 -0.32302469
v 0.634961963 -0.243641362 -0.33362028
v 0.634825468 -0.237803593 -0.334536999
v 0.63614285 -0.228610218 -0.330896109
v 0.636903048 -0.224172786 -0.328726113
v 0.635385275 -0.210448816 -0.334852666
v 0.636045039 -0.205833673 -0.333029985
v 0.636209488 -0.200421229 -0.332914382
v 0.636061192 -0.188804165 -0.334329396
v 0.636825442 -0.1843431 -0.332147837
v 0.638353944 -0.17542097 -0.327784717
v 0.639118254 -0.170959905 -0.325603157
v 0.63800633 -0.164414853 -0.321240038
v 0.63877064 -0.159953788 -0.319058478
v 0.639887989 -0.150348246 -0.316110402
v 0.634676695 -0.135918215 -0.334498405
v 0.635445774 -0.131429076 -0.332303107
v 0.636443198 -0.121539727 -0.329774618
v 0.637212634 -0.117048219 -0.327578187
v 0.634647071 -0.101079464 -0.337325007
v 0.634266317 -0.094600305 -0.339093387
v 0.635813236 -0.0855708495 -0.334677786
v 0.63523066 -0.0787172019 -0.337143779
v 0.633198023 -0.0693384856 -0.344609708
v 0.63475126 -0.0602721386 -0.340176076
v 0.635527849 -0.0557389632 -0.33795926
v 0.634397984 -0.0490881018 -0.333525598
v 0.635174632 -0.0445549302 -0.331308782
v 0.63515538 -0.0327057131 -0.332287014
v 0.635034502 -0.026569806 -0.333160281
v 0.631843567 -0.0089960387 -0.34506309
v 0.632566512 -0.0043245689 -0.343034387
v 0.63266927 0.00146318192 -0.343141556
v 0.634234667 0.01060043 -0.338673264
v 0.635017335 0.0151690533 -0.336439103
v 0.636582732 0.024306301 -0.331970781
v 0.637365401 0.0288749244 -0.32973662
v 0.634580374 0.0400080159 -0.339800835
v 0.631974459 0.0569117852 -0.349718541
v 0.632763088 0.0615151934 -0.347467393
v 0.634340405 0.0707220137 -0.342965037
v 0.633776903 0.0703084692 -0.335991532
v 0.633981705 0.0820793286 -0.336211532
v 0.634770334 0.0866827369 -0.333960354
v 0.634666085 0.0990810171 -0.335247457
v 0.63412255 0.106230862 -0.337584287
v 0.635618687 0.115629427 -0.333364397
v 0.635505259 0.121985152 -0.334222019
v 0.635994017 0.127190828 -0.333005875
v 0.636371434 0.138777316 -0.332642406
v 0.637093186 0.143544197 -0.330624372
v 0.634921312 0.160160199 -0.339052498
v 0.635385692 0.165457204 -0.337923735
v 0.634622753 0.173176602 -0.341027707
v 0.634830236 0.185235739 -0.341260701
v 0.6356287 0.189896464 -0.338981509
v 0.637411833 0.190865085 -0.324288785
v 0.636855543 0.198216259 -0.326671124
v 0.6361323 0.212185428 -0.330099463
v 0.635740578 0.219252095 -0.331918776
v 0.635010719 0.233320713 -0.335376203
v 0.634987652 0.239680424 -0.335928768
v 0.634413838 0.247175276 -0.338379592
v 0.635018945 0.258614719 -0.337245166
v 0.635396183 0.264189899 -0.336421281
v 0.635397673 0.276917517 -0.337370604
v 0.636203587 0.281621784 -0.335070103
v 0.637009501 0.286326051 -0.332769603
v 0.634910882 0.303521305 -0.340967387
v 0.635719776 0.308242738 -0.338658512
v 0.636175931 0.311725497 -0.328421175
v 0.636595428 0.317260355 -0.327451676
v 0.636735678 0.329831868 -0.327919453
v 0.637544751 0.334554374 -0.325610042
v 0.633759081 0.355602086 -0.3396025
v 0.634572446 0.360349685 -0.33728084
v 0.636199117 0.369844884 -0.332637459
v 0.635580301 0.377704114 -0.335251123
v 0.634952426 0.385601342 -0.337897271
v 0.634210944 0.400324285 -0.341421008
v 0.635028481 0.405096352 -0.339087367
v 0.634599745 0.419203907 -0.341537803
v 0.635418952 0.42398566 -0.339199424
v 0.636238158 0.428767383 -0.336861044
v 0.636428416 0.44157055 -0.337181658
v 0.635234892 0.44859606 -0.332498252
v 0.632998943 0.460254669 -0.340678245
v 0.632466137 0.468113691 -0.342997223
v 0.634083867 0.477800488 -0.338397294
v 0.63411504 0.484412521 -0.338775992
v 0.635764182 0.49403879 -0.334068537
v 0.636588752 0.498851895 -0.331714809
v 0.637413383 0.50366503 -0.329361111
v 0.636543691 0.519118369 -0.333337069
v 0.637370288 0.523943365 -0.330977529
v 0.637380958 0.537426054 -0.331923395
v 0.634606481 0.550688267 -0.34198606
v 0.634045064 0.565619826 -0.344913214
v 0.634228587 0.56265384 -0.334870875
v 0.634035885 0.576737761 -0.336510509
v 0.634499013 0.582471967 -0.335405618
v 0.63533175 0.587332487 -0.333028734
v 0.636997104 0.597053468 -0.328274935
v 0.63782984 0.601913989 -0.325898021
v 0.638126791 0.614934504 -0.325859129
v 0.63808316 0.621923089 -0.326502562
v 0.63249743 0.649305224 -0.346744776
v 0.633337915 0.654211223 -0.344345599
v 0.6341784 0.659117222 -0.341946453
v 0.63585937 0.668929279 -0.33714813
v 0.636699855 0.673835337 -0.334748983
v 0.631343484 0.701094687 -0.354231834
v 0.636317551 0.685939252 -0.327551514
v 0.632223785 0.710131526 -0.342629611
v 0.631737888 0.718389392 -0.34479925
v 0.633327186 0.728529572 -0.340323538
v 0.634173632 0.733470321 -0.337907404
v 0.635020077 0.738411129 -0.33549124
v 0.636712968 0.748292625 -0.330658942
v 0.636743009 0.755311668 -0.331056088
v 0.634638667 0.774923682 -0.33931312
v 0.634998143 0.781146526 -0.338577956
v 0.63584882 0.78611213 -0.336149693
v 0.63213408 0.8100577 -0.349972218
v 0.632750988 0.815668046 -0.348353177
v 0.63446182 0.825654328 -0.34346965
v 0.633305907 0.825527132 -0.337779671
v 0.634072721 0.837973177 -0.336144388
v 0.634928167 0.842966318 -0.333702624
v 0.636638999 0.8529526 -0.328819126
v 0.637494385 0.85794574 -0.326377362
v 0.638349831 0.862938881 -0.323935598
v 0.634204388 0.888559163 -0.33922869
v 0.634328425 0.89555192 -0.339309931
v 0.63019079 0.921371937 -0.35459131
v 0.630992591 0.926599443 -0.352340728
v 0.632724524 0.936708868 -0.347397
v 0.63359046 0.941763639 -0.344925106
v 0.634456456 0.946818352 -0.342453241
v 0.636188388 0.956927776 -0.337509513
v 0.637054324 0.961982489 -0.335037619
v 0.63579452 0.969398558 -0.33009389
v 0.636660457 0.97445327 -0.327622026
v 0.638392389 0.984562755 -0.322678268
v 0.635882854 0.999008954 -0.331830591
v 0.633492708 1.02069736 -0.341089636
v 0.633597136 1.02794302 -0.341245234
v 0.634470165 1.03303885 -0.338753223
v 0.635954022 1.04397166 -0.334672928
v 0.636745214 1.04930127 -0.332462996
v 0.636711717 1.06456792 -0.33361581
v 0.634849846 1.07749116 -0.340556711
v 0.634117901 1.08721972 -0.343603253
v 0.635875046 1.09747624 -0.338587523
v 0.636737108 1.10265219 -0.336136609
v 0.635475457 1.11012864 -0.331063956
v 0.633530974 1.12343681 -0.338273287
v 0.632498741 1.14186037 -0.342864484
v 0.633839846 1.14176655 -0.328802556
v 0.635271192 1.14530122 -0.324397862
v 0.633112788 1.14378905 -0.311975092
v 0.635268927 1.14518416 -0.305103868
v 0.632924378 1.14424145 -0.293420315
v 0.629321992 1.14698672 -0.28605932
v 0.623441339 1.14869702 -0.285934538
v 0.6145311 1.14766264 -0.285785854
v 0.606182575 1.14499557 -0.283742934
v 0.6007967 1.1452378 -0.281911552
v 0.591731369 1.14456642 -0.282185197
v 0.590043604 1.13808203 -0.277823061
v 0.576347768 1.14663553 -0.283524215
v 0.573528826 1.13575113 -0.282520771
v 0.573606133 1.12800431 -0.281970233
v 0.558718383 1.14655602 -0.31004557
v 0.553064525 1.14736927 -0.308867067
v 0.544184148 1.14586806 -0.308200359
v 0.538606584 1.13554704 -0.297221839
v 0.529682815 1.14502084 -0.306167126
v 0.518950701 1.14831614 -0.311108798
v 0.513701856 1.14797556 -0.308573544
v 0.505011261 1.14584064 -0.307169735
v 0.49897626 1.14752519 -0.306998819
v 0.490521133 1.1447506 -0.304848373
v 0.481428266 1.14359021 -0.304584503
v 0.474902332 1.13593221 -0.296726525
v 0.465447068 1.1461364 -0.306509823
v 0.455401659 1.14724219 -0.308897227
v 0.451925814 1.14543545 -0.31003201
v 0.440424353 1.1470741 -0.307648093
v 0.431940138 1.14423048 -0.305422783
v 0.426016688 1.1454432 -0.304687977
v 0.417186588 1.1434145 -0.303415418
v 0.416167259 1.13566124 -0.297602862
v 0.407803208 1.13254082 -0.295053363
v 0.397944897 1.14305568 -0.305196404
v 0.387199759 1.14545321 -0.309103698
v 0.375860542 1.14645386 -0.305949748
v 0.372756034 1.143659 -0.305949748
v 0.36368534 1.14203227 -0.305153817
v 0.357526153 1.14363122 -0.304859012
v 0.351130754 1.13586116 -0.296881884
v 0.341570079 1.13532329 -0.297358781
v 0.330731183 1.14743221 -0.309347183
v 0.321613103 1.14576316 -0.30850637
v 0.3157399 1.14660943 -0.307321489
v 0.306664675 1.14480901 -0.306327611
v 0.301065743 1.1450274 -0.30440706
v 0.291934252 1.1433208 -0.303522974
v 0.28455776 1.13778341 -0.298162907
v 0.274537623 1.14755189 -0.307397217
v 0.264118463 1.14851701 -0.309638172
v 0.255046874 1.14655113 -0.308456689
v 0.249000669 1.14763927 -0.307540983
v 0.239894196 1.145715 -0.306408554
v 0.23085089 1.14364088 -0.305101991
v 0.225041315 1.1441952 -0.303560138
v 0.217299625 1.13940024 -0.299074829
v 0.214766338 1.13531446 -0.297604769
v 0.197694808 1.14757395 -0.307548642
v 0.18805097 1.14660692 -0.307539821
v 0.184893966 1.14376485 -0.307539821
v 0.288190931 0.930486739 -0.0478644148
v 0.295739025 0.921828747 -0.0296285097
v 0.301071703 0.928075969 -0.0307937413
v 0.305370301 0.925923347 -0.0201962683
v 0.311626643 0.928282201 -0.0118347984
v 0.319164187 0.927931964 -0.00039975383
v 0.320602357 0.931571066 0.00342008844
v 0.325224787 0.935190976 0.015212914
v 0.321641326 0.95131433 -0.000208382015
v 0.327891558 0.94284904 0.0223505795
v 0.331702322 0.948079228 0.0322074071
v 0.332093865 0.945226371 0.0403648019
v 0.33382079 0.946159899 0.05206085
v 0.334283084 0.949741781 0.0607374571
v 0.33307302 0.950263917 0.0650427863
v 0.330907464 0.950779736 0.0742237121
v 0.329443276 0.94983238 0.0850010365
v 0.327041686 0.950868905 0.0935450196
v 0.324978501 0.95120579 0.10283684
v 0.322020829 0.953427076 0.110027544
v 0.316889346 0.951714158 0.118715726
v 0.314611286 0.952542543 0.127396494
v 0.310519099 0.950663626 0.131447658
v 0.306426585 0.955275059 0.135973006
v 0.300774723 0.95471251 0.143352807
v 0.294964284 0.954497099 0.150344044
v 0.291370153 0.95164299 0.155434102
v 0.284689277 0.953237236 0.160449728
v 0.278225839 0.954393268 0.165936753
v 0.273742199 0.953380287 0.169024304
v 0.267109066 0.954889834 0.174124986
v 0.262305796 0.95452702 0.176510289
v 0.256029546 0.95532918 0.182367697
v 0.250861287 0.955696881 0.183968604
v 0.241141066 0.955200613 0.188492402
v 0.235805809 0.95588696 0.189754292
v 0.225653365 0.95622617 0.193387002
v 0.223327979 0.952711761 0.19442679
v 0.212551996 0.954248369 0.196780637
v 0.20727618 0.954789102 0.198202863
v 0.251970589 0.851588845 0.307693839
v 0.251515001 0.857014477 0.313608527
v 0.252303243 0.861615539 0.315858543
v 0.25223431 0.866288543 0.322553545
v 0.251907676 0.865340889 0.328067273
v 0.251476854 0.870701253 0.334005654
v 0.250317603 0.869783282 0.343947679
v 0.252824247 0.869461238 0.355775118
v 0.243418485 0.87679112 0.354524523
v 0.240708575 0.874351442 0.354524523
v 0.236607328 0.87149179 0.363885045
v 0.234593138 0.872270644 0.37197265
v 0.223966002 0.881867409 0.368411124
v 0.220720068 0.880444765 0.36735937
v 0.213070944 0.878272891 0.369009823
v 0.206412017 0.874240518 0.372585863
v 0.204722524 0.869896412 0.374559075
v 0.178954035 0.902806044 0.335342646
v 0.19190754 0.868416965 0.377418786
v 0.189874887 0.869335711 0.385362446
v 0.191206679 0.871469915 0.394535899
v 0.191408455 0.8682639 0.40665561
v 0.190751091 0.866660058 0.417090118
v 0.192684427 0.869063795 0.421489984
v 0.19233413 0.866893709 0.432440102
v 0.190553486 0.867378771 0.440660417
v 0.190847248 0.871383846 0.447733164
v 0.189406946 0.871244073 0.456533909
v 0.191182941 0.872491717 0.466319799
v 0.19173184 0.87007612 0.473037153
v 0.191673785 0.867395461 0.4842861
v 0.191233352 0.872718275 0.489912957
v 0.191040039 0.87029177 0.500835538
v 0.190982491 0.867627919 0.511950731
v 0.192647636 0.86902982 0.521357
v 0.190646783 0.869966924 0.528860986
v 0.190363169 0.867738724 0.539434135
v 0.190738261 0.872883856 0.54090941
v 0.189384684 0.872632623 0.549511492
v 0.191446051 0.866082013 0.564180613
v 0.190818995 0.87167871 0.56933552
v 0.190345705 0.869818151 0.579390466
v 0.190242022 0.874434173 0.585451007
v 0.191136852 0.871410668 0.592449725
v 0.189894229 0.870984554 0.601049662
v 0.188786238 0.870318949 0.609849751
v 0.189971134 0.872526586 0.618103862
v 0.189066097 0.871491909 0.627192378
v 0.189300895 0.875440419 0.633749008
v 0.18760784 0.875867188 0.641413331
v 0.188011259 0.872428477 0.652660728
v 0.182223693 0.874717414 0.652382851
v 0.177135095 0.875707209 0.653318167
v 0.168573573 0.876020432 0.65272963
v 0.163050592 0.87777698 0.652955055
v 0.155047163 0.877027273 0.65335691
v 0.147017971 0.876303196 0.653734446
v 0.127758637 0.902659655 0.63108474
v 0.124299459 0.906337857 0.635787189
v 0.12671499 0.90648526 0.645911157
v 0.124784522 0.907427132 0.65310967
v 0.124133207 0.906082213 0.662387848
v 0.125631303 0.909111977 0.665757775
v 0.120545775 0.908755481 0.67196238
v 0.114822231 0.910788834 0.671981573
v 0.107104264 0.909419179 0.672981441
v 0.0993132144 0.908164918 0.673875749
v 0.0980467871 0.895442605 0.685237229
v 0.0925593004 0.897033453 0.685657442
v 0.0776146725 0.908250391 0.675177515
v 0.0738161281 0.908002019 0.673270822
v 0.0655261427 0.90753144 0.673448324
v 0.0596260726 0.909744978 0.673313558
v 0.0514523014 0.909032702 0.673712432
v 0.0430546738 0.908681273 0.673781633
v 0.0350495093 0.907640576 0.674479544
v 0.0388278775 0.894497156 0.684340298
v 0.0282046515 0.896840692 0.685969234
v 0.0251787398 0.895213664 0.685317636
v 0.00869745761 0.908315182 0.673105359
v -0.0003283892 0.908881307 0.672334731
v -0.00770474738 0.906691194 0.674080014
v -0.0142940264 0.909871399 0.673077404
v -0.0217622444 0.907807648 0.674707353
v -0.0245683398 0.905744791 0.674434543
v -0.0267187413 0.895030558 0.683964849
v -0.0318285152 0.895769775 0.685186446
v -0.0403487533 0.895424664 0.685248137
v -0.0577664673 0.909326613 0.672304213
v -0.0659186691 0.908274233 0.673009396
v -0.0684505254 0.90573436 0.673161387
v -0.0762755349 0.904144406 0.674356282
v -0.0824125931 0.906419814 0.674190342
v -0.091139555 0.906220436 0.674115598
v -0.0953481197 0.898083687 0.685365975
v -0.0980278775 0.895781696 0.685302079
v -0.106315903 0.894895136 0.685856283
v -0.123669878 0.907986403 0.673651338
v -0.126215056 0.905434787 0.673801422
v 0.0925056785 -0.426318228 0.880311787
v 0.105290912 -0.430128634 0.896918654
v 0.125875697 -0.445729256 0.91658771
v 0.127673104 -0.447946966 0.911573887
v 0.1268951 -0.451524645 0.905759156
v 0.128620923 -0.453386277 0.904475212
v 0.135617405 -0.452932298 0.901095808
v -0.441844434 0.0681923702 0.033887133
v -0.442157924 0.057881806 0.0365383774
v -0.445431739 0.0502668433 0.0347469635
v -0.164745942 -0.206530973 0.458694428
v -0.171349943 -0.208994791 0.460707426
v -0.177953944 -0.211458609 0.462720454
v -0.175199836 -0.218247429 0.470404834
v 0.171275079 -0.532336414 0.985478759
v 0.164547443 -0.532772958 0.988728285
v -0.180654362 -0.229923293 0.485744596
v -0.181673154 -0.223926172 0.489742428
v 0.0751445219 -0.445318848 0.870631337
v 0.0901671723 -0.454559028 0.893421531
v 0.0942894518 -0.450847894 0.893421531
v 0.0907297805 -0.440269709 0.88213712
v 0.0945705548 -0.436269015 0.881692588
v 0.09224879 -0.430135816 0.879103005
v -0.0499801375 -0.462307364 0.884578943
v -0.0550360978 -0.450559348 0.875850558
v -0.0508130156 -0.446757466 0.875850558
v -0.0395764373 -0.448708415 0.885348082
v -0.0353707522 -0.444922179 0.885348082
v -0.254158229 -0.25679028 0.577598095
v -0.25579384 -0.260517299 0.570055783
v -0.252376258 -0.263822496 0.570440412
v -0.250707358 -0.266167283 0.564141273
v -0.252728552 -0.269593239 0.556036115
v -0.245742097 -0.276316851 0.557041228
v -0.245935842 -0.277138501 0.548137665
v 0.0808950439 -0.549431145 0.999807298
v 0.0755320415 -0.551431954 1.00144207
v 0.0456426702 -0.526226282 0.967484355
v 0.0488381498 -0.528411269 0.975495756
v 0.0465059206 -0.532537401 0.984997213
v 0.0432170779 -0.532868028 0.986832798
v 0.0368721932 -0.533715546 0.990815699
v 0.0334507339 -0.533937514 0.992468297
v -0.0474173874 -0.468411177 0.887113512
v -0.142471775 -0.207885757 0.668140948
v -0.13314341 -0.207659751 0.678921998
v -0.13784723 -0.195269287 0.661605299
v -0.130366147 -0.193690166 0.665591538
v -0.269006461 -0.0564918555 0.467855036
v -0.29503718 -0.0280657411 0.422919452
v -0.290682852 -0.0277832076 0.420816243
v -0.303393155 -0.0166112464 0.393376559
v -0.294225574 -0.0211054645 0.393356085
v -0.287538648 -0.0229731556 0.39454028
v -0.279802889 -0.0211325921 0.39357239
v -0.277243882 -0.0188288279 0.39357239
v -0.27334857 -0.0133627653 0.387053668
v -0.271698058 -0.00573228439 0.377230942
v -0.251902789 -0.0201313533 0.397576481
v -0.244570181 -0.0276920814 0.398794621
v -0.255194634 -0.0228824131 0.377430171
v -0.251556307 -0.0269238316 0.373199552
v -0.255483925 -0.028229937 0.366391391
v 0.126951054 -0.398418516 0.931800902
v 0.12682347 -0.405826211 0.93762362
v 0.126769885 -0.413264036 0.943523586
v 0.12594834 -0.416490376 0.941500962
v 0.108974017 -0.408225 0.922667146
v 0.0916526467 -0.395433962 0.908119917
v 0.0919189453 -0.395128548 0.916190326
v 0.0915560871 -0.401751876 0.929262161
v 0.0858313292 -0.399959207 0.92779839
v 0.0895729363 -0.406834185 0.939899802
v 0.0858058929 -0.410540491 0.944149733
v 0.0796335787 -0.412052542 0.944965303
v 0.0744942427 -0.410804808 0.944348872
v 0.0602211691 -0.404738933 0.937540352
v -0.187967688 -0.181235582 0.592893064
v -0.191349432 -0.177479193 0.596825302
v -0.141800508 -0.213018924 0.668101609
v -0.139482945 -0.210932508 0.668101609
v -0.134838283 -0.443248034 0.888317406
v -0.128281295 -0.441215962 0.891267896
v -0.128683567 -0.433720589 0.885278702
v -0.0966269225 -0.455911964 0.920172513
v -0.0936714783 -0.459203184 0.91667223
v -0.086868912 -0.461988151 0.915445864
v -0.0932770669 -0.457882762 0.899738789
v -0.080848448 -0.464634031 0.909540355
v -0.0772432461 -0.471978903 0.909644186
v -0.0775113553 -0.479792386 0.907423139
v -0.0774962604 -0.483812481 0.906509101
v -0.0214456655 -0.533963382 0.988909066
v -0.0246389676 -0.534386992 0.990910888
v -0.200475082 -0.400508434 0.772406161
v -0.206914589 -0.394455492 0.771830797
v -0.212436959 -0.389110774 0.772465289
v -0.209037766 -0.394943029 0.783576787
v -0.187474325 -0.410598516 0.818921924
v -0.139465302 -0.443727314 0.881420374
v -0.210207283 -0.441563517 0.872527719
v -0.184590384 -0.453171253 0.90258199
v -0.175988987 -0.453686506 0.900685549
v -0.172344297 -0.453449994 0.898925126
v -0.169455424 -0.456708074 0.895230055
v -0.174165547 -0.457216591 0.888340652
v -0.16513133 -0.461588502 0.889673769
v -0.157862827 -0.460567594 0.889797926
v -0.154775634 -0.459908247 0.887335181
v -0.14900206 -0.457754254 0.885575294
v -0.227874979 -0.394211441 0.77856493
v -0.220899984 -0.396938115 0.776910365
v -0.226553187 -0.393680513 0.761901438
v -0.046866294 -0.536045372 0.988405645
v -0.0478260778 -0.539179146 0.986251712
v -0.0403684117 -0.551559746 1.00104105
v -0.0497746989 -0.550095201 1.00113225
v -0.0730672479 -0.535347939 0.977496266
v -0.0802167654 -0.52892077 0.975456119
v -0.0794462711 -0.532358646 0.982545137
v -0.083608456 -0.531555533 0.986881852
v -0.205791488 -0.442171186 0.842970252
v -0.208190009 -0.443399668 0.846416831
v -0.211275727 -0.439972103 0.850004852
v -0.213830605 -0.436942697 0.85425359
v -0.211741433 -0.440970004 0.866942286
v 0.253072381 0.908492208 0.177997097
v 0.250808179 0.927362323 0.167691767
v 0.260306507 0.928297758 0.162691578
v 0.265648037 0.927588344 0.161475927
v 0.271017015 0.928595603 0.153619036
v 0.276521385 0.927558362 0.152764052
v 0.282512724 0.927341819 0.146236628
v 0.287848651 0.928465843 0.138227016
v 0.288467169 0.929049253 0.13279058
v 0.294591248 0.928611457 0.126477554
v 0.301081032 0.927439809 0.120968975
v 0.301661462 0.928130984 0.115385689
v 0.303969234 0.927178502 0.106783271
v 0.310378671 0.926208496 0.101026528
v 0.310455263 0.929874599 0.0872269422
v 0.31372112 0.926990449 0.0807117373
v 0.315974146 0.926201105 0.0718297809
v 0.312786102 0.9281708 0.0569018014
v 0.314320743 0.928880513 0.0462464765
v 0.310109854 0.930991232 0.0359759964
v 0.3005023 0.937542915 0.0126565322
v 0.298926622 0.934163451 0.0085400613
v 0.29600814 0.933514535 0.00128335017
v 0.288209617 0.934238911 -0.0105867004
v 0.275837719 0.942216218 -0.0258213747
v 0.268226206 0.940496922 -0.0299123395
v 0.258184195 0.943573356 -0.0395693816
v 0.250105321 0.942663789 -0.0446410701
v 0.243866786 0.938081682 -0.0454652868
v 0.25311777 0.899731219 0.00313374097
v 0.253253996 0.906006575 0.00393692311
v 0.256499916 0.896182835 0.025348261
v 0.256183594 0.9015764 0.0321397483
v 0.257572621 0.897124529 0.042240873
v 0.257187098 0.894429028 0.0552707762
v 0.257069856 0.899405777 0.0624450669
v 0.255707413 0.898628712 0.0732032135
v 0.257571369 0.899711132 0.084727928
v 0.257431805 0.896553516 0.0980846062
v 0.256304443 0.895344973 0.10919711
v 0.256322771 0.901720703 0.109780163
v 0.253088802 0.904631376 0.116240345
v 0.254477382 0.898515821 0.13274008
v 0.253808498 0.90450877 0.138552502
v 0.25448516 0.899794042 0.153377548
v 0.253312856 0.906754673 0.1580704
v 0.255892426 0.90001291 0.170257434
v 0.253430456 0.901455224 0.178183615
v -0.0665759742 0.485421687 0.547725141
v 0.00299970037 0.402666301 0.646527052
v 0.00971401203 0.405171275 0.644480407
v 0.0157200042 0.402577877 0.649926662
v 0.020665532 0.407951176 0.640387177
v -0.255296946 0.787738204 0.205993041
v -0.251178294 0.783163309 0.201203957
v -0.258732408 0.788019896 0.182672665
v -0.254594803 0.783423901 0.177861527
v -0.250457227 0.778827906 0.173050389
v -0.251520216 0.781377196 0.160001785
v -0.248956144 0.778946996 0.152657732
v -0.251372933 0.776706636 0.142017573
v -0.249870658 0.775732636 0.132928446
v -0.522803485 1.14324963 -0.304851472
v -0.533459544 1.14200807 -0.304592937
v -0.539430916 1.141958 -0.302199334
v -0.546611667 1.13599157 -0.296418369
v -0.565206647 1.14539051 -0.30860132
v -0.572124243 1.14657569 -0.307642877
v -0.574568868 1.14875579 -0.298432171
v -0.574711144 1.14785516 -0.28567037
v -0.255340934 0.712821484 0.226225972
v -0.259411901 0.71734345 0.230959639
v -0.260329902 0.724058688 0.236136422
v -0.256091654 0.717928827 0.248126835
v -0.0664642304 0.469231755 0.54493773
v -0.0661559924 0.47415942 0.546394587
v -0.0673209131 0.481073439 0.545598745
v 0.194043219 0.672427833 0.656520426
v 0.129630268 0.796821117 0.536223114
v 0.131494179 0.795900166 0.528654754
v 0.12389072 0.803271472 0.514573991
v 0.127636507 0.799110711 0.510218441
v 0.131382287 0.794949949 0.505862951
v 0.12605454 0.799520135 0.490183324
v 0.129816145 0.79534179 0.485809386
v 0.133952841 0.790515363 0.482100636
v 0.132534981 0.788323283 0.473226428
v 0.134004653 0.786945164 0.470299244
v 0.134578824 0.788275778 0.460205555
v 0.131939366 0.79517138 0.444293529
v 0.13037084 0.793202758 0.435038209
v 0.132840484 0.791278541 0.428219259
v 0.13594608 0.788259029 0.422534794
v 0.130104646 0.793649077 0.405434668
v 0.132746235 0.791441739 0.39883706
v 0.134534448 0.79071331 0.390656382
v 0.122982383 0.804740429 0.368665874
v 0.126203015 0.801554203 0.363010883
v 0.130498886 0.796512127 0.359335363
v 0.130726904 0.791362703 0.35315451
v 0.134585947 0.787076175 0.348667264
v 0.138026625 0.783512473 0.343397856
v 0.13625136 0.781814039 0.333439112
v 0.0596506633 0.907677412 0.189082116
v 0.0512086004 0.905981362 0.190142646
v 0.0454926565 0.907073498 0.19096975
v 0.037207596 0.905085325 0.192348167
v 0.0323191136 0.897361696 0.199974328
v 0.0252720546 0.900677621 0.198378876
v 0.00974634383 0.910773814 0.186598241
v 0.00730819767 0.907462478 0.187388211
v -0.00191146089 0.90693295 0.187171817
v -0.0141676068 0.910280347 0.187582925
v -0.0160494316 0.90605104 0.189367399
v -0.0238741189 0.903182983 0.191699311
v -0.0287960302 0.902863622 0.194076657
v -0.0347886011 0.897029817 0.199640214
v 0.182878718 0.536670089 0.598272741
v 0.18887794 0.525225401 0.619061768
v 0.188156605 0.530847549 0.623717725
v 0.18852976 0.529359102 0.62947464
v 0.188484699 0.53387934 0.635291636
v 0.180036932 0.534188807 0.634319425
v 0.174810424 0.53550601 0.634657264
v 0.182132557 0.52907598 0.648056924
v 0.187585309 0.53267312 0.648956239
v 0.187402055 0.543614388 0.65025413
v 0.188667297 0.553129494 0.648985267
v 0.186691269 0.561701655 0.646383464
v 0.186993733 0.566561699 0.647714555
v 0.187821269 0.575924635 0.650761724
v 0.186866239 0.589197993 0.645647049
v 0.187098905 0.594200432 0.646860301
v 0.187818125 0.598398566 0.648913264
v 0.189256579 0.606794894 0.653019249
v 0.189701155 0.617854297 0.650308967
v 0.188766211 0.624840796 0.649509013
v 0.189471096 0.629079461 0.651539743
v 0.1905341 0.638143241 0.655003369
v 0.18805477 0.648815691 0.646416783
v 0.18950285 0.657268286 0.650550246
v 0.190226883 0.661494553 0.652616978
v 0.192022189 0.669352055 0.65734911
g path_000000
l 6 5 4 3 2 1 1367 1366
g path_000001
l 7 8 9 10 11 12 13 14 15 16 17 18 19 20 21
g path_000002
l 22 23 24 25 26 27 28 29 30 31 32 33 34 35 36 37 38 39 40 41 42 43 44 45 46 47 48 49 50 51 52 53 54 55 56 57 58 59 60 61 62 63 64 65 66 67 68 69 70 71 72 73
g path_000003
l 74 75 76 77 78 79 80 81 82 83 84 85 86 87 88 89 90 91 92 93 94 95 96 97 98 99
g path_000004
l 100 101 102 103 104 105 106 107 108 109
g path_000005
l 110 111 112 113 114 115 116 117 118 119 120 121 122
g path_000006
l 124 125 126 127
g path_000007
l 128 129 130 131 132 133 134
g path_000008
l 136 137 138 139 140 141 142 143 144 145 146 147 148 149 150 151 152 153 154 155
g path_000009
l 156 157 158 159 160 161 162 163 164 165 166 167 168 169 170 171 172 173 174 175 176
g path_000010
l 177 178 179 180 181 182 183
g path_000011
l 184 185 186 187 188 189 190 191 192 193 194
g path_000012
l 195 196 197 198 199 200 201 202 203 204 205 206 207 208 209 210 211 212 213 214 215 216 217 218 219 220 221 222 223 224
g path_000013
l 225 226 227
g path_000014
l 228 229 230 231
g path_000015
l 232 233 234 235
g path_000016
l 236 237 238
g path_000017
l 239 240 241 242 243 244 245 246 247 248
g path_000018
l 249 250 251
g path_000019
l 252 253 254 255
g path_000020
l 256 257 258 259 260 261 262 263 264 265 266 267 268 269 270 271 272
g path_000021
l 273 274 275 276 277 278 279 280 281
g path_000022
l 282 283 284 285 286
g path_000023
l 287 288 289 290 291 292 293 294 295 296 297
g path_000024
l 298 299 300 301 302 303 304 305 306
g path_000025
l 307 308
g path_000026
l 309 310 311 312 313 314 315 316 317 318 319 320
g path_000027
l 321 322 323 324 325 326 327 328
g path_000028
l 329 330 331 332 333 334 335 336 337 338 339 340 341 342 343 344 345 346 347 348 349 350 351 352 353 354 355 356 357 358 359 360 361 362 363 364 365
g path_000029
l 366 367 368 369 370 371 372 373 374 375 376 377 378 379 380 381 382 383 384 385 386 387 388 389 390 391 392 393 394 395 396 397 398 399 400 401 402 403 404 405 406 407 408 409 410 411 412 413 414 415 416 417 418 419 420 421 422 423 424 425 426 427 428 429 430 431 432 433 434 435 436 437 438 439 440 441 442 443 444 445 446 447 448 449 450 451 452 453 454 455 456 457 458 459 460 461 462 463 464 465 466 467 468 469 470
g path_000030
l 471 472 473 474 475 476 477 478 479 480 481 482 483 484 485 486 487 488 489 490 491 492 493 494 495 496 497 498 499 500 501 502 503 504 505 506 507 508 509 510 511 512 513 514 515 516 517 518 519 520 521 522 523 524 525 526 527 528 529 530 531 532 533 534 535
g path_000031
l 536 537 538 539 540 541 542 543 544 545 546 547 548 549 550 551 552 553 554 555 556 557 558 559 560 561 562 563 564 565 566 567 568 569 570 571 572 573 574 575 576 577 578 579 580 581 582 583 584 585 586 587 588 589 590 591 592 593 594 595 596 597 598 599 600
g path_000032
l 601 602 603
g path_000033
l 604 605 606 607 608 609 610 611 612 613 614 615 616 617 618 619 620 621 622 623 624 625 626 627 628 629 630 631 632 633 634 635 636 637 638 639 640 641 642 643
g path_000034
l 644 645 646 647 648 649 650 651 652 653 654 655 656 657 658 659 660 661 662 663 664 665 666 667 668 669 670 671 672 673 674 675 676 677 678 679 680 681 682 683 684 685 686 687 688 689 690 691 692 693 694 695 696 697 698 699 700 701 702 703 704 705 706 707 708 709 710 711 712 713 714 715 716 717 718 719 720 721 722
g path_000035
l 723 724 725 726 727 728 729 730 731 732
g path_000036
l 733 734 735 736 737 738 739 740 741 742 743 744 745
g path_000037
l 746 747 748 749 750 751 752 753 754 755 756 757 758 759 760 761 762 763 764 765 766 767 768 769 770 771
g path_000038
l 772 773 774 775 776 777 778 779 780 781 782
g path_000039
l 783 784 785 786 787 788 789 790 791 792 793 794 795 796 797 798 799 800 801 802 803 804 805 806 807 808 809 810 811 812 813 814 815 816 817 818 819 820 821 822 823 824 825 826 827 828 829 830 831 832 833 834 835 836 837 838 839 840 841 842 843 844 845 846 847 848 849 850 851 852 853 854 855 856 857 858 859 860 861 862 863 864 865 866 867 868 869 870 871 872 873 874 875 876 877 878 879 880 881 882 883 884 885 886 887 888 889 890 891 892 893 894 895 896 897 898 899 900 901 902 903 904 905 906 907 908 909 910 911 912 913 914 915 916 917 918 919 920 921 922 923 924 925 926 927 928 929 930 931 932 933 934
g path_000040
l 935 936
g path_000041
l 937 938 939 940 941 942 943 944 945 946 947 948 949 950 951 952 953 954 955 956 957
g path_000042
l 958 959 960 961 962 963 964 965 966
g path_000043
l 967 968 969 970 971 972 973 974 975 976 977 978
g path_000044
l 979 980 981 982 983 984 985 986 987 988 989 990 991 992 993 994 995 996 997 998 999 1000 1001
g path_000045
l 1002 1003 1004 1005 1006 1007 1008 1009 1010 1011 1012 1013 1014 1015 1016 1017 1018 1019 1020 1021 1022
g path_000046
l 1023 1024 1025 1026 1027 1028 1029 1030 1031 1032 1033 1034 1035 1036 1037 1038 1039 1040 1041 1042 1043 1044 1045 1046 1047 1048 1049 1050 1051 1052 1053 1054 1055 1056 1057 1058 1059 1060 1061 1062 1063 1064 1065 1066 1067 1068 1069 1070 1071 1072 1073 1074 1075 1076 1077 1078 1079 1080 1081
g path_000047
l 1082 1083 1084 1085 1086 1087 1088 1089 1090 1091 1092 1093 1094 1095 1096 1097 1098 1099 1100 1101 1102 1103 1104 1105 1106 1107 1108 1109 1110 1111 1112 1113
g path_000048
l 1114 1115 1116 1117 1118
g path_000049
l 1121 1122 1123 1124 1125 1126 1127 1128 1129 1130
g path_000050
l 1131 1132 1133 1134 1135 1136 1137 1138 1139
g path_000051
l 1140 1141
g path_000052
l 1142 1143 1144 1145 1146 1147 1148 1149 1150 1151 1152 1153 1154 1155 1156 1157 1158 1159 1160 1161 1162 1163 1164 1165 1166 1167 1168 1169 1170 1171 1172 1173 1174 1175 1176 1177 1178 1179 1180
g path_000053
l 1181 1182 1183 1184 1185 1186 1187 1188 1189 1190 1191 1192 1193 1194 1195 1196 1197 1198 1199 1200 1201 1202 1203 1204 1205 1206 1207 1208 1209 1210 1211 1212 1213 1214 1215 1216 1217 1218 1219 1220 1221 1222 1223 1224 1225 1226 1227 1228
g path_000054
l 1229 1230 1231 1232 1233 1234 1235 1236 1237
g path_000055
l 1238 1239 1240 1241 1242 1243 1244 1245 1246 1247 1248 1249 1250 1251 1252 1253 1254 1255 1256 1257 1258 1259 1260 1261 1262 1263 1264 1265 1266 1267 1268
g path_000056
l 1269 1270 1271 1272 1273 1274 1275 1276 1277 1278 1279 1280 1281 1282 1283 1284 1285
g path_000057
l 1287 1288 1289 1290 1291 1292 1293 1294 1295 1296 1297 1298 1299 1300 1301 1302 1303 1304 1305 1306 1307 1308 1309 1310 1311 1312 1313 1314 1315 1316 1317 1318 1319 1320 1321 1322 1323 1324 1325
g path_000058
l 1326 1327 1328 1329 1330 1331 1332 1333 1334 1335 1336 1337
g path_000059
l 1338 1339 1340 1341 1342 1343 1344 1345 1346 1347
g path_000060
l 1348 1349 1350 1351 1352 1353 1354 1355 1356
g path_000061
l 1357 1358 1359 1360 1361 1362 1363 1364 1365
g path_000062
l 1368 1391 1390 1389 1388 1387
g path_000063
l 1370 1371 1372 1373 1374
g path_000064
l 1375 1376 1377
g path_000065
l 1378 1379 1380 1381
g path_000066
l 1382 1383
g path_000067
l 1384 1385
g path_000068
l 1396 1395 1394 1393 1392 1412
g path_000069
l 1397 1398 1399 1400 1401 1402 1403
g path_000070
l 1404 1405
g path_000071
l 1406 1407 1408 1409 1410 1411
g path_000072
l 1414 1413 1449 1448
g path_000073
l 1415 1416
g path_000074
l 1418 1419
g path_000075
l 1420 1421 1422 1423 1424 1425 1426
g path_000076
l 1427 1428
g path_000077
l 1429 1430 1431
g path_000078
l 1432 1433 1434 1435
g path_000079
l 1437 1438 1439 1440 1441 1442 1443 1444
g path_000080
l 1446 1447
g path_000081
l 1452 1451 1450 1468
g path_000082
l 1453 1454 1455
g path_000083
l 1457 1458 1459 1460
g path_000084
l 1461 1462
g path_000085
l 1463 1464 1465 1466
g path_000086
l 1469 1494 1493 1492 1491 1490
g path_000087
l 1470 1471 1472 1473 1474 1475 1476 1477 1478
g path_000088
l 1479 1480 1481
g path_000089
l 1482 1483
g path_000090
l 1484 1485
g path_000091
l 1486 1487 1488 1489
g path_000092
l 1514 1513 1512 1511 1510 1509 1508 1507 1506 1505 1504 1503 1502 1501 1500 1499 1498 1497 1496 1495 1542 1541 1540 1539 1538 1537 1536 1535 1534 1533 1532 1531 1530 1529 1528 1527 1526
g path_000093
l 1515 1516 1517 1518 1519 1520 1521 1522 1523
g path_000094
l 1524 1525
g path_000095
l 1543 1571 1570 1569
g path_000096
l 1544 1545 1546 1547
g path_000097
l 1548 1549 1550 1551 1552 1553 1554 1555 1556
g path_000098
l 1557 1558 1559 1560 1561 1562 1563 1564
g path_000099
l 1565 1566 1567 1568
g path_000100
l 1572 1637 1636 1635 1634 1633 1632 1631 1630 1629 1628 1627 1626 1625 1624 1623 1622 1621 1620 1619 1618 1617 1616 1615 1614 1613
g path_000101
l 1573 1574 1575 1576 1577 1578 1579 1580 1581 1582 1583 1584 1585 1586 1587 1588 1589 1590
g path_000102
l 1591 1592 1593 1594 1595 1596 1597
g path_000103
l 1598 1599 1600 1601 1602 1603 1604 1605 1606 1607 1608 1609 1610 1611
