# Fixed world centers; Z up; paths immutable
v 0.377595276 -0.553696394 1.0011996
v 0.377757102 -0.551980436 0.994451582
v 0.377776951 -0.548813641 0.988055825
v 0.377932549 -0.547029018 0.981314242
v 0.378044903 -0.544801295 0.974677503
v 0.378063083 -0.541613519 0.968278587
v 0.378110826 -0.538725793 0.961801887
v 0.378417015 -0.538460791 0.954650581
v 0.378453314 -0.535452127 0.948195457
v 0.378529787 -0.532849848 0.941632688
v 0.378655493 -0.530744553 0.934936404
v 0.378766149 -0.528484464 0.928275526
v 0.378854603 -0.525997698 0.92167002
v 0.378987998 -0.523963034 0.914939821
v 0.379091918 -0.52162838 0.908284664
v 0.379209489 -0.519429266 0.901588261
v 0.379484981 -0.518819213 0.894453824
v 0.379488975 -0.515470326 0.888059795
v 0.379561007 -0.5128057 0.881475985
v 0.379778326 -0.511599779 0.874483287
v 0.379908681 -0.509516537 0.867727399
v 0.37996307 -0.506668329 0.861181319
v 0.391929626 -0.587682247 0.834610641
v 0.399366826 -0.587640226 0.834610641
v 0.406804055 -0.587598145 0.834610641
v 0.414241254 -0.587556124 0.834610641
v 0.421678454 -0.587514043 0.834610641
v 0.428845793 -0.58501178 0.83530575
v 0.428537339 -0.57872045 0.829587817
v 0.428526968 -0.576886177 0.826358378
v 0.429114312 -0.578749061 0.818311214
v 0.421494901 -0.57711345 0.81879288
v 0.414355218 -0.579934001 0.817995131
v 0.406915158 -0.579976082 0.817995131
v 0.399126232 -0.57661891 0.818971097
v 0.39169237 -0.576660991 0.818971097
v 0.376691967 -0.496872216 0.834514081
v 0.376704872 -0.49360472 0.828073204
v 0.376684487 -0.49000147 0.821729362
v 0.376836926 -0.48813802 0.814873099
v 0.37705335 -0.486915141 0.807820618
v 0.377219647 -0.48518452 0.800910592
v 0.377310932 -0.482697457 0.794220626
v 0.399331897 -0.663642406 0.73602438
v 0.407169461 -0.665491641 0.735454738
v 0.414816737 -0.665448427 0.735454738
v 0.422570765 -0.666411996 0.735151649
v 0.429980725 -0.664151967 0.735818982
v 0.429723561 -0.658192217 0.729832828
v 0.430075616 -0.657873571 0.722135603
v 0.42626214 -0.656201422 0.718751192
v 0.418870926 -0.658679724 0.71800679
v 0.411218703 -0.658722997 0.71800679
v 0.403367937 -0.656813622 0.718603671
v 0.377707869 -0.474752873 0.770539582
v 0.37787655 -0.473030657 0.763593316
v 0.376469433 -0.492371202 0.750108421
v 0.376459152 -0.490552932 0.746907175
v 0.376023918 -0.482739031 0.741813242
v 0.3797611 -0.47988379 0.735165954
v 0.377152324 -0.487235129 0.725293219
v 0.378293902 -0.495269567 0.71515435
v 0.379901826 -0.507965982 0.703475416
v 0.380464137 -0.510145605 0.695128262
v 0.376258373 -0.503516853 0.693451345
v 0.377151221 -0.509085238 0.683982134
v 0.377808779 -0.512260735 0.675261199
v 0.380686373 -0.537834287 0.659135818
v 0.376907825 -0.534143925 0.652601123
v 0.378975391 -0.55167824 0.63898617
v 0.371443599 -0.551957905 0.638907194
v 0.363884151 -0.551954508 0.638922572
v 0.364560723 -0.597765625 0.619711041
v 0.356906265 -0.595921278 0.616387725
v 0.348725289 -0.589995563 0.618388355
v 0.341486871 -0.594512045 0.61688906
v 0.333856523 -0.596442163 0.620211124
v 0.328026354 -0.572903037 0.628084958
v 0.31852296 -0.551837504 0.639046967
v 0.310990423 -0.55214709 0.638958037
v 0.303435624 -0.552189827 0.638958037
v 0.299360633 -0.595205486 0.620689332
v 0.295530796 -0.593340874 0.61736846
v 0.287892461 -0.593384027 0.61736846
v 0.252390742 -0.162990779 0.75453341
v 0.251909077 -0.153383508 0.750694871
v 0.251184702 -0.140522107 0.747989893
v 0.250737876 -0.131407231 0.744037151
v 0.250356942 -0.123187259 0.739798248
v 0.250874758 -0.127034307 0.731393695
v 0.251228243 -0.128666669 0.723733366
v 0.251698613 -0.131855488 0.715507686
v 0.251951903 -0.132128105 0.708284676
v 0.252530962 -0.136750892 0.699504733
v 0.260941625 -0.199381575 0.670002341
v 0.264279336 -0.19741188 0.670697689
v 0.27059412 -0.189025611 0.673673987
v 0.277311325 -0.187624216 0.677793026
v 0.284270495 -0.189301059 0.680814445
v 0.291194767 -0.187361836 0.677858412
v 0.29466933 -0.187342182 0.677858412
v 0.30263114 -0.197325915 0.670651019
v 0.309766293 -0.199128762 0.669994056
v 0.316839844 -0.198561817 0.666534424
v 0.316548765 -0.193745092 0.664610445
v 0.316526651 -0.190273017 0.658559263
v 0.316199392 -0.183451563 0.653722465
v 0.316156149 -0.179750666 0.647761583
v 0.316023022 -0.175065458 0.642162442
v 0.316039741 -0.172023043 0.635962963
v 0.316172004 -0.170243829 0.629293919
v 0.313263267 -0.173378676 0.62079525
v 0.313713342 -0.175113291 0.612787306
v 0.310902655 -0.181132436 0.606848598
v 0.30836153 -0.1903456 0.599691987
v 0.30261144 -0.161664262 0.603134692
v 0.302365065 -0.155641079 0.598050237
v 0.30232954 -0.152016029 0.592058837
v 0.302104622 -0.146243244 0.586894035
v 0.30508393 -0.137355998 0.582934976
v 0.308679402 -0.13703236 0.579363108
v 0.309100777 -0.138478816 0.571410418
v 0.301704645 -0.130449578 0.567164242
v 0.30136615 -0.125015318 0.565597892
v 0.301346749 -0.121582076 0.559553325
v 0.301096946 -0.115549438 0.554540038
v 0.300867021 -0.10974586 0.549445987
v 0.300794035 -0.105713651 0.5436517
v 0.300774664 -0.102285706 0.537616491
v 0.30028671 -0.0935899615 0.533714294
v 0.300131261 -0.0886384994 0.528310001
v 0.30011192 -0.0852170214 0.522286117
v 0.299876809 -0.0793764666 0.517256796
v 0.299690843 -0.0740906075 0.512008309
v 0.299540907 -0.0692115054 0.506598711
v 0.299384475 -0.0642620772 0.501224518
v 0.299050122 -0.0573278554 0.496689171
v 0.29903084 -0.0539166965 0.490683496
v 0.301278561 -0.0373977348 0.490222394
v 0.30864659 -0.0410178676 0.484955013
v 0.309055775 -0.0422353558 0.476990134
v 0.305939078 -0.04429112 0.472389698
v 0.301318258 -0.0298670065 0.474849254
v 0.301133782 -0.024650082 0.469647318
v 0.301050991 -0.0205536727 0.46396777
v 0.300894529 -0.0156498943 0.458642542
v 0.300875336 -0.01225424 0.452664167
v 0.306815863 0.00100291183 0.451002449
v 0.310062855 0.0045351726 0.448823303
v 0.316054374 0.0151138743 0.449751168
v 0.31527108 0.0264230799 0.447327912
v 0.315226108 0.0300600175 0.44151777
v 0.314977348 0.0358084962 0.436654776
v 0.314811051 0.0406987071 0.431415617
v 0.314627111 0.0457686856 0.426264346
v 0.31478861 0.0472655073 0.419496566
v 0.315829217 0.0396895334 0.408577979
v 0.315837055 0.0427870266 0.402508825
v 0.314324677 0.0261142775 0.387334555
v 0.311632246 0.0182645489 0.383725315
v 0.304402739 0.0218843631 0.385411769
v 0.297102779 0.0264359061 0.387527585
v 0.292539746 0.00208462123 0.372523099
v 0.28530249 0.00563765736 0.374182671
v 0.278511316 0.00412192056 0.373500496
v 0.269612134 0.0262804572 0.387527585
v 0.266175807 0.026261026 0.387527585
v 0.259303123 0.0262221638 0.387527585
v 0.225278378 0.453065276 0.577635348
v 0.228239313 0.453780055 0.577958405
v 0.234212473 0.455932379 0.575626612
v 0.24142696 0.44350794 0.566514313
v 0.247406676 0.444465101 0.566943705
v 0.250285327 0.447587043 0.5650599
v 0.249727458 0.456695616 0.562660992
v 0.249539211 0.461616725 0.55831778
v 0.252670199 0.461787343 0.555060863
v 0.252133459 0.470572412 0.552556813
v 0.252041131 0.474392146 0.547713757
v 0.252040803 0.477185845 0.542383552
v 0.252023965 0.480163574 0.537140965
v 0.252007127 0.483141303 0.531898439
v 0.252232313 0.483430982 0.525352061
v 0.249313563 0.485099763 0.519474149
v 0.25018084 0.478169471 0.509373188
v 0.247430339 0.476402223 0.505147517
v 0.244753405 0.473720461 0.500464976
v 0.239020422 0.507738233 0.5105142
v 0.297155023 -0.0804714039 0.215971038
v 0.397565216 -1.11149085 -0.294436127
v 0.406822026 -1.1113956 -0.294414937
v 0.416086763 -1.11138606 -0.294436127
v 0.42572543 -1.11525238 -0.296376079
v 0.437262744 -1.13824701 -0.3077856
v 0.446611106 -1.13852763 -0.307950586
v 0.455881476 -1.13803422 -0.307732433
v 0.462642282 -1.11353338 -0.295628816
v 0.471701413 -1.11154163 -0.294668704
v 0.480963141 -1.1114893 -0.294668704
v 0.491179824 -1.12008059 -0.298948079
v 0.502540231 -1.13853073 -0.308108598
v 0.511814773 -1.13811445 -0.307928562
v 0.520704389 -1.13440657 -0.306118876
v 0.527551949 -1.11359227 -0.295839578
v 0.537671328 -1.12280083 -0.295255303
v 0.542311549 -1.1227746 -0.295255303
v 0.550775707 -1.11392713 -0.296070248
v 0.561926246 -1.126683 -0.30759114
v 0.567175269 -1.13359284 -0.305846274
v 0.571056187 -1.12970257 -0.298755616
v 0.569880724 -1.12486029 -0.286034584
v 0.574531555 -1.12712467 -0.282001764
v 0.584090173 -1.12924314 -0.283067018
v 0.590696573 -1.11116755 -0.269086689
v 0.601435244 -1.12447333 -0.270480126
v 0.60454762 -1.11102915 -0.269057304
v 0.614453375 -1.11583233 -0.271434486
v 0.625579417 -1.12706029 -0.282111764
v 0.634487808 -1.12220776 -0.28491056
v 0.633651555 -1.11409855 -0.286072642
v 0.630234778 -1.08557856 -0.282266229
v 0.63225472 -1.06306851 -0.281355023
v 0.630106986 -1.04368424 -0.281912267
v 0.634857118 -1.04055011 -0.29057169
v 0.627981424 -0.988514185 -0.274570197
v 0.630703926 -0.971777678 -0.276243329
v 0.63069135 -0.969548225 -0.280168444
v 0.628251314 -0.948494673 -0.27955851
v 0.631538928 -0.935950637 -0.283243865
v 0.626523435 -0.89752394 -0.273566663
v 0.631118357 -0.896330833 -0.277972311
v 0.63024646 -0.886207759 -0.282758594
v 0.633525312 -0.874104142 -0.286501825
v 0.628557622 -0.836617351 -0.276938111
v 0.632310212 -0.828043044 -0.282404155
v 0.631449819 -0.818144381 -0.287139952
v 0.626650214 -0.75540781 -0.258994788
v 0.634352088 -0.746976852 -0.259463519
v 0.630087793 -0.689419448 -0.233848229
v 0.631993711 -0.670156062 -0.233281553
v 0.629849613 -0.652380347 -0.233428389
v 0.634114563 -0.650461853 -0.237227932
v 0.630940855 -0.626270473 -0.233841673
v 0.633052647 -0.608907402 -0.234068289
v 0.631650448 -0.596068621 -0.236677974
v 0.633450866 -0.577030718 -0.235878497
v 0.633466244 -0.573136747 -0.243292868
v 0.633639693 -0.5702281 -0.251250476
v 0.629572093 -0.567020237 -0.259035498
v 0.633035064 -0.56047529 -0.260213375
v 0.630410075 -0.540155947 -0.258491307
v 0.633217812 -0.527756393 -0.261128604
v 0.631637156 -0.516017079 -0.259326011
v 0.630950451 -0.507826149 -0.264243394
v 0.631555021 -0.50759846 -0.273635417
v 0.631531894 -0.503499627 -0.280851901
v 0.629363 -0.486208647 -0.280560672
v 0.630887449 -0.466302156 -0.278725028
v 0.629959404 -0.456715137 -0.282722592
v 0.632113814 -0.440907508 -0.283122271
v 0.626272559 -0.401673526 -0.269895524
v 0.629659057 -0.393698394 -0.274677247
v 0.629647732 -0.391692758 -0.278208375
v 0.633685946 -0.387658507 -0.285270631
v 0.633663297 -0.383647233 -0.292332917
v 0.634201109 -0.358931869 -0.287202179
v 0.630274892 -0.333818555 -0.277056545
v 0.626500726 -0.307720065 -0.270909816
v 0.630470395 -0.30375433 -0.277852118
v 0.629808247 -0.296067238 -0.282555193
v 0.634428918 -0.297817022 -0.288265616
v 0.629743874 -0.266798019 -0.278914362
v 0.632823646 -0.257893056 -0.282805681
v 0.629576862 -0.235408977 -0.278420597
v 0.632015944 -0.223044604 -0.280122012
v 0.631993949 -0.219162837 -0.286956251
v 0.631356835 -0.189471737 -0.27795437
v 0.629929543 -0.179512367 -0.276405364
v 0.629907787 -0.175665885 -0.283177465
v 0.633780122 -0.17179738 -0.289949596
v 0.62589097 -0.123736575 -0.269184232
v 0.631752789 -0.133123815 -0.279587209
v 0.629705966 -0.118014544 -0.279220134
v 0.63353169 -0.114192612 -0.285910726
v 0.627570748 -0.0775238201 -0.271841735
v 0.631361663 -0.0737366304 -0.2784715
v 0.631340384 -0.0699709952 -0.285101295
v 0.635131359 -0.0661838055 -0.29173106
v 0.632042885 -0.0475269333 -0.284303278
v 0.626697004 0.00560249016 -0.259164691
v 0.629544437 0.0122246323 -0.259355962
v 0.63231647 0.0191905275 -0.259313196
v 0.626345038 0.0743015483 -0.232487813
v 0.632488608 0.08244434 -0.23160249
v 0.632478416 0.0842565149 -0.234792992
v 0.627729654 0.112651698 -0.224993929
v 0.631351888 0.116270363 -0.231328666
v 0.625912488 0.148041233 -0.219116554
v 0.629504621 0.151629776 -0.225398585
v 0.623776078 0.184648648 -0.212140575
v 0.631220937 0.166569784 -0.228461429
v 0.627326608 0.189974025 -0.221480772
v 0.630887151 0.193531021 -0.227707565
v 0.630867124 0.197067767 -0.233934373
v 0.634427667 0.200624764 -0.240161166
v 0.628127038 0.234149292 -0.22179237
v 0.62810725 0.237652034 -0.227959305
v 0.63163352 0.241174832 -0.234126225
v 0.628898501 0.258267403 -0.230993211
v 0.631861031 0.264505595 -0.235258952
v 0.630844533 0.272942305 -0.237980455
v 0.631481349 0.288905799 -0.23123014
v 0.630974829 0.294772327 -0.23566395
v 0.632228017 0.309194297 -0.234142333
v 0.6314978 0.316124201 -0.237784803
v 0.631752551 0.318229258 -0.244793579
v 0.63179636 0.321367919 -0.251081645
v 0.631865561 0.32438311 -0.257458597
v 0.629153073 0.340961844 -0.25421384
v 0.63174665 0.348601073 -0.257279605
v 0.631736994 0.350316018 -0.260298938
v 0.630310893 0.377239168 -0.249523729
v 0.627656937 0.393306017 -0.246413201
v 0.626601279 0.418058038 -0.236980125
v 0.626582205 0.421425283 -0.242908508
v 0.6299721 0.42481181 -0.248836875
v 0.629962564 0.426495433 -0.251801074
v 0.626183748 0.447657436 -0.244717702
v 0.629580021 0.450901955 -0.250701606
v 0.628262758 0.460349411 -0.252102464
v 0.629964948 0.469844252 -0.249283075
v 0.629946113 0.473176897 -0.255150497
v 0.633301139 0.476528615 -0.261017948
v 0.628233016 0.503250122 -0.249429718
v 0.630882621 0.509703994 -0.252908587
v 0.630873263 0.511355698 -0.255816579
v 0.629513025 0.52082485 -0.256988227
v 0.632629633 0.525063574 -0.262094259
v 0.629801095 0.541179657 -0.258167982
v 0.632056832 0.549230397 -0.260327071
v 0.630466342 0.559626818 -0.260652155
v 0.632725775 0.565963864 -0.259941876
v 0.631801903 0.573300838 -0.262555391
v 0.632683873 0.572512448 -0.27141431
v 0.632665455 0.575775445 -0.277159154
v 0.632646978 0.579038441 -0.282903969
v 0.629721701 0.595323265 -0.278492749
v 0.62829411 0.604878068 -0.279275626
v 0.630528748 0.612712562 -0.28138864
v 0.63229239 0.622573018 -0.281878084
v 0.63228327 0.624187469 -0.28472048
v 0.630477667 0.635303974 -0.284152269
v 0.628262043 0.66247946 -0.270776331
v 0.628243983 0.6656726 -0.276398212
v 0.63145858 0.668884039 -0.282020092
v 0.627616227 0.688713312 -0.274261773
v 0.63082093 0.690318704 -0.277056217
v 0.628973305 0.701399982 -0.276251286
v 0.632160068 0.704583585 -0.28182441
v 0.630256653 0.715839028 -0.280808657
v 0.632061303 0.724868774 -0.281579673
v 0.629478812 0.737413943 -0.275369436
v 0.628899395 0.74294281 -0.278927565
v 0.628673613 0.772206426 -0.258915633
v 0.630518675 0.779173195 -0.257195979
v 0.631871402 0.789642692 -0.256561309
v 0.6318627 0.791186988 -0.259280235
v 0.628573716 0.807884634 -0.253394246
v 0.627675414 0.827484012 -0.245019332
v 0.626517773 0.835249007 -0.246449113
v 0.629587173 0.838315368 -0.251817048
v 0.627843559 0.848445773 -0.251208484
v 0.632647991 0.842906237 -0.25986895
v 0.6291852 0.859998047 -0.253322154
v 0.631949484 0.864218891 -0.257665008
v 0.626292884 0.890075028 -0.243499577
v 0.626801968 0.903222978 -0.240108341
v 0.626793504 0.90471977 -0.242743596
v 0.626462221 0.908976018 -0.246925727
v 0.629790246 0.910724103 -0.253284663
v 0.629031777 0.916676044 -0.255987167
v 0.632469833 0.917986751 -0.262729615
v 0.629883349 0.931158781 -0.259098798
v 0.633986294 0.928353906 -0.265498459
v 0.631324887 0.94174993 -0.261606187
v 0.633097827 0.949516654 -0.262629002
v 0.62904489 0.968264341 -0.253890574
v 0.631470561 0.973343551 -0.257206976
v 0.631462216 0.974817038 -0.259801149
v 0.630426168 0.981719911 -0.261458427
v 0.630740583 0.994895101 -0.257488072
v 0.630183339 0.999909341 -0.260774314
v 0.631350338 1.00967777 -0.259774745
v 0.630472004 1.01589668 -0.261929929
v 0.632957339 1.01911795 -0.262913555
v 0.633708715 1.01911116 -0.270701319
v 0.631192923 1.02027798 -0.2774207
v 0.631613195 1.02153218 -0.284086198
v 0.629664779 1.03181064 -0.282467425
v 0.632225931 1.03472137 -0.283707857
v 0.629320323 1.04856598 -0.278731436
v 0.628488004 1.06559181 -0.270751774
v 0.628471673 1.06847334 -0.275825024
v 0.631372631 1.07137144 -0.280898303
v 0.631364465 1.0728122 -0.283434927
v 0.631044269 1.07682753 -0.287444353
v 0.632888377 1.08363998 -0.288828731
v 0.628373206 1.10318649 -0.278142512
v 0.631248116 1.1060586 -0.283170313
v 0.630414724 1.11192214 -0.28533721
v 0.633340478 1.11319482 -0.288009673
v 0.630066812 1.12796247 -0.28164044
v 0.63292402 1.13081682 -0.286637247
v 0.631606638 1.13838291 -0.287083447
v 0.633432269 1.14493799 -0.288490623
v 0.63351202 1.14603519 -0.291286588
v 0.634484291 1.14529932 -0.299726218
v 0.631600559 1.14811575 -0.304713458
v 0.632856369 1.14635205 -0.314192504
v 0.633648217 1.14627397 -0.322049052
v 0.631185234 1.14754224 -0.328584313
v 0.631853104 1.14791203 -0.336032867
v 0.627476811 1.1442132 -0.343571275
v 0.624296486 1.14526772 -0.342512369
v 0.618382394 1.14715052 -0.344537556
v 0.612470508 1.14763832 -0.344022036
v 0.606699526 1.14760566 -0.344022036
v 0.600928545 1.14757311 -0.344022036
v 0.595150948 1.14756548 -0.34399721
v 0.589380026 1.14753282 -0.34399721
v 0.583609104 1.14750028 -0.34399721
v 0.577838123 1.14746761 -0.34399721
v 0.572067201 1.14743495 -0.34399721
v 0.566296279 1.14740241 -0.34399721
v 0.560525298 1.14736974 -0.34399721
v 0.554718912 1.14748263 -0.343853086
v 0.548948348 1.14744997 -0.343853086
v 0.543177724 1.14741731 -0.343853086
v 0.53740716 1.14738476 -0.343853086
v 0.531636596 1.1473521 -0.343853086
v 0.525865972 1.14731944 -0.343853086
v 0.520095408 1.14728677 -0.343853086
v 0.514324784 1.14725423 -0.343853086
v 0.50855422 1.14722157 -0.343853086
v 0.502783656 1.1471889 -0.343853086
v 0.497013062 1.14715636 -0.343853086
v 0.4911879 1.14737546 -0.34360376
v 0.485417932 1.14734292 -0.34360376
v 0.479647934 1.14731026 -0.34360376
v 0.473877966 1.14727759 -0.34360376
v 0.468107998 1.14724493 -0.34360376
v 0.46233803 1.14721239 -0.34360376
v 0.456568062 1.14717972 -0.34360376
v 0.450798094 1.14714706 -0.34360376
v 0.445028126 1.14711452 -0.34360376
v 0.439258158 1.14708185 -0.34360376
v 0.43348819 1.14704919 -0.34360376
v 0.427718222 1.14701664 -0.34360376
v 0.421999902 1.14670825 -0.343876719
v 0.416178286 1.14695132 -0.34360376
v 0.410408318 1.14691877 -0.34360376
v 0.404593766 1.14713371 -0.343358576
v 0.398824394 1.14710116 -0.343358576
v 0.393055052 1.1470685 -0.343358576
v 0.38728568 1.14703584 -0.343358576
v 0.381516308 1.14700329 -0.343358576
v 0.375746936 1.14697063 -0.343358576
v 0.369977593 1.14693797 -0.343358576
v 0.364208221 1.14690542 -0.343358576
v 0.358438849 1.14687276 -0.343358576
v 0.352669477 1.1468401 -0.343358576
v 0.346888274 1.14688361 -0.343283236
v 0.341119111 1.14685106 -0.343283236
v 0.335349947 1.1468184 -0.343283236
v 0.329580754 1.14678574 -0.343283236
v 0.323811591 1.14675319 -0.343283236
v 0.318042397 1.14672053 -0.343283236
v 0.312273234 1.14668787 -0.343283236
v 0.306504041 1.14665532 -0.343283236
v 0.300734878 1.14662266 -0.343283236
v 0.294965684 1.14658999 -0.343283236
v 0.289196521 1.14655745 -0.343283236
v 0.283427328 1.14652479 -0.343283236
v 0.277658165 1.14649212 -0.343283236
v 0.271888971 1.14645958 -0.343283236
v 0.266119808 1.14642692 -0.343283236
v 0.260288239 1.14691961 -0.342763364
v 0.254520327 1.14688706 -0.342763364
v 0.248752445 1.1468544 -0.342763364
v 0.242984548 1.14682174 -0.342763364
v 0.237216651 1.14678919 -0.342763364
v 0.23144877 1.14675653 -0.342763364
v 0.225680873 1.14672399 -0.342763364
v 0.219912976 1.14669132 -0.342763364
v 0.214145079 1.14665866 -0.342763364
v 0.208377197 1.14662611 -0.342763364
v 0.202609301 1.14659345 -0.342763364
v 0.196841404 1.14656091 -0.342763364
v 0.191073507 1.14652824 -0.342763364
v 0.185305625 1.14649558 -0.342763364
v 0.17954585 1.14636683 -0.342858523
v 0.173777729 1.14633429 -0.342858523
v 0.168009594 1.14630163 -0.342858523
v 0.162241474 1.14626896 -0.342858523
v 0.156473339 1.14623642 -0.342858523
v 0.150698259 1.14629996 -0.342763364
v 0.144910842 1.14654696 -0.342486769
v 0.139143631 1.1465143 -0.342486769
v 0.13337642 1.14648163 -0.342486769
v 0.127609223 1.14644909 -0.342486769
v 0.121842004 1.14641643 -0.342486769
v 0.1160748 1.14638388 -0.342486769
v 0.110299706 1.14649415 -0.342345446
v 0.107408226 1.14790189 -0.344852686
v 0.101641364 1.14786935 -0.344852686
v 0.0958745033 1.14783669 -0.344852686
v 0.0901076421 1.14780402 -0.344852686
v 0.0843407884 1.14777148 -0.344852686
v 0.0785739273 1.14773881 -0.344852686
v 0.0728070661 1.14770627 -0.344852686
v 0.067040205 1.14767361 -0.344852686
v 0.061267674 1.14780593 -0.34468931
v 0.0555012189 1.14777339 -0.34468931
v 0.0497347601 1.14774072 -0.34468931
v 0.043968305 1.14770806 -0.34468931
v 0.0382018462 1.14767551 -0.34468931
v 0.0324353911 1.14764285 -0.34468931
v 0.026668936 1.14761031 -0.34468931
v 0.0209024791 1.14757764 -0.34468931
v 0.0151360221 1.1475451 -0.34468931
v 0.00936675537 1.14773953 -0.344464391
v 0.00360085396 1.14770687 -0.344464391
v -0.00216504722 1.14767432 -0.344464391
v -0.0079309484 1.14764166 -0.344464391
v -0.0136968493 1.14760911 -0.344464391
v -0.0194627512 1.14757645 -0.344464391
v -0.0252286512 1.14754391 -0.344464391
v -0.0309945531 1.14751124 -0.344464391
v -0.0367604531 1.1474787 -0.344464391
v -0.0425263532 1.14744604 -0.344464391
v -0.0482922569 1.14741349 -0.344464391
v -0.0540581569 1.14738083 -0.344464391
v -0.0598206297 1.14755046 -0.34426415
v -0.0655860379 1.1475178 -0.34426415
v -0.0713514388 1.14748526 -0.34426415
v -0.077116847 1.14745259 -0.34426415
v -0.0828822553 1.14742005 -0.34426415
v -0.0886476636 1.14738739 -0.34426415
v -0.0944130719 1.14735484 -0.34426415
v -0.100178473 1.14732218 -0.34426415
v -0.105943881 1.14728963 -0.34426415
v -0.111709289 1.14725697 -0.34426415
v -0.117462419 1.1475209 -0.343970567
v -0.123227097 1.14748824 -0.343970567
v -0.128991783 1.14745569 -0.343970567
v -0.134756461 1.14742303 -0.343970567
v -0.140521139 1.14739048 -0.343970567
v -0.146285832 1.14735782 -0.343970567
v -0.15205051 1.14732528 -0.343970567
v -0.157815188 1.14729261 -0.343970567
v -0.163579866 1.14726007 -0.343970567
v -0.169344559 1.14722753 -0.343970567
v -0.175109237 1.14719486 -0.343970567
v -0.180873916 1.14716232 -0.343970567
v -0.186638594 1.14712965 -0.343970567
v -0.192403287 1.14709711 -0.343970567
v -0.198167965 1.14706445 -0.343970567
v -0.20392406 1.14714181 -0.343861759
v -0.209688485 1.14710915 -0.343861759
v -0.215452895 1.14707661 -0.343861759
v -0.221217304 1.14704406 -0.343861759
v -0.226981714 1.1470114 -0.343861759
v -0.232746139 1.14697886 -0.343861759
v -0.238510549 1.14694619 -0.343861759
v -0.244274959 1.14691365 -0.343861759
v -0.250039369 1.14688098 -0.343861759
v -0.255803794 1.14684844 -0.343861759
v -0.261568189 1.1468159 -0.343861759
v -0.267305315 1.14704347 -0.343604147
v -0.273069084 1.1470108 -0.343604147
v -0.278832853 1.14697826 -0.343604147
v -0.284596622 1.14694571 -0.343604147
v -0.290360421 1.14691305 -0.343604147
v -0.29612419 1.14688051 -0.343604147
v -0.301887959 1.14684784 -0.343604147
v -0.307651758 1.1468153 -0.343604147
v -0.313374043 1.14711595 -0.343274236
v -0.319137007 1.1470834 -0.343274236
v -0.324899971 1.14705086 -0.343274236
v -0.330662906 1.14701819 -0.343274236
v -0.336425871 1.14698565 -0.343274236
v -0.342188835 1.14695299 -0.343274236
v -0.3479518 1.14692044 -0.343274236
v -0.353714764 1.1468879 -0.343274236
v -0.359477729 1.14685524 -0.343274236
v -0.365240693 1.14682269 -0.343274236
v -0.371003658 1.14679015 -0.343274236
v -0.376766622 1.14675748 -0.343274236
v -0.382529587 1.14672494 -0.343274236
v -0.388292551 1.1466924 -0.343274236
v -0.394038439 1.14676738 -0.343167692
v -0.399771392 1.14691937 -0.342985004
v -0.405533642 1.14688683 -0.342985004
v -0.411295891 1.14685428 -0.342985004
v -0.41705814 1.14682162 -0.342985004
v -0.422820389 1.14678907 -0.342985004
v -0.428582639 1.14675653 -0.342985004
v -0.434344888 1.14672387 -0.342985004
v -0.440107137 1.14669132 -0.342985004
v -0.445869386 1.14665878 -0.342985004
v -0.451631635 1.14662611 -0.342985004
v -0.457393885 1.14659357 -0.342985004
v -0.463156134 1.14656103 -0.342985004
v -0.468893915 1.14665687 -0.342857927
v -0.474655867 1.14662421 -0.342857927
v -0.480417788 1.14659166 -0.342857927
v -0.486179739 1.14655912 -0.342857927
v -0.491941661 1.14652646 -0.342857927
v -0.497703582 1.14649391 -0.342857927
v -0.503465533 1.14646137 -0.342857927
v -0.509227455 1.1464287 -0.342857927
v -0.514989376 1.14639616 -0.342857927
v -0.520751357 1.14636362 -0.342857927
v -0.526513278 1.14633095 -0.342857927
v -0.5322752 1.14629841 -0.342857927
v -0.538037121 1.14626586 -0.342857927
v -0.543733418 1.14652872 -0.342565566
v -0.549494624 1.14649618 -0.342565566
v -0.55525583 1.14646363 -0.342565566
v -0.561017096 1.14643109 -0.342565566
v -0.566778302 1.14639843 -0.342565566
v -0.572539508 1.14636588 -0.342565566
v -0.578300714 1.14633334 -0.342565566
v -0.584061921 1.14630079 -0.342565566
v -0.589809537 1.14632452 -0.342509776
v -0.595578611 1.14771461 -0.345014513
v -0.598451138 1.14627564 -0.342509776
v -0.604220212 1.14766574 -0.345014513
v -0.609999716 1.14755976 -0.34508726
v -0.615760922 1.14752722 -0.34508726
v -0.621514142 1.14607191 -0.342582434
v -0.627395749 1.14557207 -0.343044609
v -0.633450031 1.14441645 -0.34415549
v -0.635596156 1.14576733 -0.338893086
v -0.637400806 1.14694858 -0.32990849
v -0.636243045 1.14847445 -0.320628434
v -0.636227012 1.14564061 -0.315639138
v -0.637412548 1.14915121 -0.304452807
v -0.637404561 1.1477381 -0.301964879
v -0.637388527 1.14491189 -0.296989024
v -0.63654685 1.14524519 -0.288960725
v -0.63768965 1.13798332 -0.288265973
v -0.635546803 1.13233602 -0.286008686
v -0.637069225 1.12356901 -0.286701053
v -0.634854198 1.11812997 -0.284198552
v -0.636823356 1.10757446 -0.286523879
v -0.634711623 1.10165167 -0.284429312
v -0.635016561 1.09900033 -0.283073783
v -0.636340439 1.09089756 -0.282988489
v -0.634391785 1.08425176 -0.281517327
v -0.636335194 1.07365692 -0.283700794
v -0.632659316 1.07523584 -0.278367639
v -0.63447535 1.0650903 -0.280081153
v -0.632767677 1.05733526 -0.27954644
v -0.634988785 1.04550314 -0.282734424
v -0.636493981 1.03651536 -0.283245504
v -0.633545816 1.03507996 -0.28068912
v -0.634874403 1.02675617 -0.280543715
v -0.632360816 1.02204156 -0.27708298
v -0.633939564 1.01265478 -0.277848542
v -0.631717741 1.00668538 -0.275488824
v -0.635085225 0.989928007 -0.282847375
v -0.6367625 0.980055273 -0.283917457
v -0.63376981 0.978598177 -0.28132239
v -0.634787619 0.971388102 -0.279952317
v -0.632358849 0.96605891 -0.276890993
v -0.634133577 0.955668509 -0.278304815
v -0.631186783 0.952424943 -0.27334857
v -0.631886601 0.947983861 -0.273358673
v -0.633102 0.939861655 -0.272681117
v -0.630074322 0.936904609 -0.267444968
v -0.634864151 0.913678169 -0.279956073
v -0.632544518 0.907594979 -0.277388275
v -0.633517683 0.900391519 -0.275761545
v -0.630688608 0.896416008 -0.271325111
v -0.631812215 0.890074968 -0.272865713
v -0.633331001 0.880492091 -0.273229539
v -0.631204069 0.873409688 -0.271419108
v -0.633871675 0.858814776 -0.276004851
v -0.63077873 0.855794013 -0.270655841
v -0.632803261 0.845453441 -0.275498569
v -0.634638906 0.834356308 -0.276966453
v -0.632165611 0.828521967 -0.273947954
v -0.634357572 0.815793037 -0.276711583
v -0.632955492 0.805142581 -0.277686179
v -0.635501325 0.790761471 -0.281724602
v -0.634419203 0.778516233 -0.28392899
v -0.634930015 0.774657965 -0.283117682
v -0.635804117 0.767588913 -0.280937284
v -0.635786533 0.764478087 -0.275460333
v -0.634847462 0.765471995 -0.266600907
v -0.635027766 0.761483192 -0.261856854
v -0.635434389 0.758075953 -0.260640919
v -0.636868298 0.748482347 -0.260462582
v -0.634450972 0.741987288 -0.257739365
v -0.636202335 0.730904758 -0.25870201
v -0.634580553 0.720709324 -0.258916259
v -0.634911954 0.717598438 -0.257398248
v -0.636518538 0.707089365 -0.25779447
v -0.636649549 0.703266084 -0.252794325
v -0.636631727 0.700117886 -0.247251585
v -0.635887384 0.700277567 -0.239078879
v -0.636393607 0.694744706 -0.235434726
v -0.634694159 0.684714556 -0.235341087
v -0.63615787 0.674755991 -0.235137612
v -0.633904815 0.667145312 -0.233069763
v -0.634376526 0.661712289 -0.229262114
v -0.633097708 0.64948827 -0.230739132
v -0.634022236 0.643549144 -0.231317073
v -0.63604188 0.630859733 -0.233063847
v -0.632788777 0.627682507 -0.227437824
v -0.634449959 0.616595268 -0.227873787
v -0.632679462 0.606354356 -0.227631882
v -0.63331598 0.601693094 -0.227138311
v -0.636251628 0.584482491 -0.232129633
v -0.630514503 0.579004347 -0.232248291
v -0.635030091 0.538125932 -0.255061895
v -0.63315177 0.527792096 -0.254629314
v -0.63444519 0.519822359 -0.256501347
v -0.636778831 0.473959029 -0.286859661
v -0.633378148 0.470637739 -0.280978531
v -0.633787096 0.46689716 -0.279585183
v -0.634635925 0.459255517 -0.276900887
v -0.631341755 0.455360979 -0.271427482
v -0.636607111 0.425629407 -0.285032272
v -0.632608354 0.426826 -0.279945463
v -0.635957658 0.40651235 -0.28645578
v -0.635938466 0.403119951 -0.280483156
v -0.632484913 0.399747014 -0.274510562
v -0.636358261 0.376602948 -0.282893598
v -0.632882774 0.373208553 -0.276883036
v -0.635113537 0.358286917 -0.27917406
v -0.631607294 0.356735885 -0.276055068
v -0.635624349 0.332513899 -0.284940541
v -0.639134586 0.310859591 -0.291879058
v -0.635603368 0.307410777 -0.285772115
v -0.635583758 0.303942084 -0.279665142
v -0.632062376 0.302227587 -0.276611656
v -0.632042706 0.298758924 -0.270504713
v -0.628766835 0.29396385 -0.265343666
v -0.636397064 0.250108719 -0.287502766
v -0.636377215 0.24659498 -0.281316489
v -0.632800162 0.243101373 -0.275130212
v -0.636810422 0.218117177 -0.28380233
v -0.633050323 0.21727775 -0.280061156
v -0.636981666 0.192533448 -0.28842929
v -0.633358836 0.188995183 -0.282163948
v -0.63333869 0.185436547 -0.275898606
v -0.633476675 0.161406726 -0.283572316
v -0.63429898 0.155077875 -0.283501685
v -0.634278715 0.151492432 -0.277189165
v -0.633506358 0.132110864 -0.281532615
v -0.634784877 0.121361598 -0.279986829
v -0.632347584 0.110913329 -0.27821663
v -0.636170566 0.0859753042 -0.286046624
v -0.632464945 0.0823561773 -0.279638082
v -0.632454634 0.0805361941 -0.276433825
v -0.637031674 0.0511679277 -0.286993474
v -0.633298278 0.0475216359 -0.28053686
v -0.635449469 0.0315997005 -0.282099545
v -0.634111285 0.0142539395 -0.284541458
v -0.634185851 0.0119232945 -0.281603366
v -0.634815872 0.00452306448 -0.277498364
v -0.63479495 0.000823884155 -0.270985574
v -0.638247252 -0.00135562848 -0.263482153
v -0.634730935 -0.00453866553 -0.261096925
v -0.636257172 -0.0170777403 -0.260234535
v -0.633779883 -0.0282341074 -0.25846082
v -0.636287451 -0.0465180501 -0.261155576
v -0.633611441 -0.0567433611 -0.258700937
v -0.637823462 -0.0611616075 -0.257003427
v -0.637364328 -0.0623721965 -0.248828501
v -0.636921883 -0.0636742637 -0.240723446
v -0.637536168 -0.0710884333 -0.236437336
v -0.635179639 -0.0832647383 -0.235100374
v -0.637643278 -0.101519078 -0.237463519
v -0.63382256 -0.103379317 -0.234150469
v -0.635978401 -0.119951621 -0.235390782
v -0.638460338 -0.13847217 -0.237759486
v -0.634599686 -0.142242715 -0.231082857
v -0.638302326 -0.168152675 -0.237826154
v -0.634528041 -0.172602594 -0.231505826
v -0.635769308 -0.183982059 -0.229339659
v -0.631652474 -0.184455037 -0.225122526
v -0.63381952 -0.20149003 -0.226296648
v -0.630622804 -0.209612191 -0.222109661
v -0.635638952 -0.244124085 -0.233546078
v -0.631787837 -0.248530731 -0.227057859
v -0.631978929 -0.251706898 -0.224379867
v -0.636166394 -0.281441361 -0.232746169
v -0.633106947 -0.290961415 -0.229178399
v -0.631296158 -0.306324333 -0.233579129
v -0.635407627 -0.359052449 -0.259710491
v -0.637182355 -0.374318361 -0.2592673
v -0.633126557 -0.378279537 -0.252253056
v -0.63763231 -0.410966694 -0.261749983
v -0.634707153 -0.422370553 -0.258930713
v -0.636262536 -0.436482131 -0.257607639
v -0.631844342 -0.436377704 -0.252865076
v -0.634431005 -0.457230031 -0.25530827
v -0.638010919 -0.484527797 -0.26131016
v -0.633915603 -0.488887787 -0.254320443
v -0.637002349 -0.513204932 -0.258487999
v -0.632673025 -0.514072239 -0.254241616
v -0.635581672 -0.537409186 -0.257747382
v -0.638414204 -0.56028688 -0.260908157
v -0.630555034 -0.565713823 -0.259158671
v -0.63514477 -0.628918588 -0.284410238
v -0.6361956 -0.640337586 -0.280990899
v -0.631336451 -0.638373613 -0.275085241
v -0.636722863 -0.679264843 -0.287682295
v -0.637418807 -0.68838501 -0.282881498
v -0.633130074 -0.69276756 -0.275513202
v -0.6373052 -0.725776553 -0.283520103
v -0.633736491 -0.733148992 -0.282588065
v -0.636449814 -0.756338894 -0.285171926
v -0.636425555 -0.760629535 -0.277617782
v -0.635954261 -0.761824608 -0.268424481
v -0.635763407 -0.764956772 -0.260266691
v -0.638635278 -0.789341748 -0.263269961
v -0.635387719 -0.801576018 -0.259843916
v -0.638379335 -0.827013195 -0.263238668
v -0.63502419 -0.838799596 -0.259478092
v -0.636179507 -0.851482213 -0.256132901
v -0.63174957 -0.855808735 -0.248471722
v -0.634155691 -0.875228524 -0.25347665
v -0.636891961 -0.899303973 -0.255837917
v -0.632341444 -0.903069198 -0.247808218
v -0.634970903 -0.92657876 -0.249751285
v -0.630086005 -0.925771296 -0.244365886
v -0.634536028 -0.962699473 -0.25294742
v -0.638393819 -0.995385766 -0.259262055
v -0.638494551 -1.06753457 -0.285118312
v -0.634316444 -1.07291782 -0.282690734
v -0.636742711 -1.09573758 -0.28374806
v -0.633841038 -1.11329758 -0.282147914
v -0.636521161 -1.13823664 -0.284092516
v -0.623903871 -1.11270547 -0.271609008
v -0.615545392 -1.12182879 -0.270965487
v -0.611042023 -1.12274313 -0.271425247
v -0.601657033 -1.12160945 -0.270896614
v -0.591197133 -1.10937297 -0.270065725
v -0.585552156 -1.13872397 -0.284472793
v -0.576123416 -1.13747907 -0.283888519
v -0.573761523 -1.1129874 -0.282162488
v -0.573787332 -1.10842204 -0.290200174
v -0.572485685 -1.1338737 -0.307976037
v -0.560719669 -1.11276126 -0.297539443
v -0.552095056 -1.12060356 -0.296287984
v -0.543015003 -1.12221575 -0.297111064
v -0.533743382 -1.1221633 -0.297111064
v -0.524243653 -1.11761212 -0.300047219
v -0.516964674 -1.13612103 -0.309246153
v -0.507568836 -1.13519895 -0.308815211
v -0.495864391 -1.11185205 -0.297270387
v -0.491249681 -1.11436808 -0.293373078
v -0.482767016 -1.12205017 -0.2971977
v -0.473449826 -1.12153637 -0.296969563
v -0.464114219 -1.12081146 -0.296637028
v -0.45646587 -1.13556421 -0.309139639
v -0.447181702 -1.13572645 -0.309246153
v -0.437721968 -1.13394952 -0.308391482
v -0.426966995 -1.11982441 -0.296252608
v -0.422332942 -1.1197983 -0.296252608
v -0.413064808 -1.11974585 -0.296252608
v -0.403596073 -1.1172775 -0.295057803
v -0.395936936 -1.13456643 -0.308814585
v -0.302769691 -0.0737580582 0.216974512
v -0.296198249 -0.0815604478 0.213086903
v -0.292624354 -0.0837355107 0.2160061
v -0.24145183 0.508946061 0.512451708
v -0.24982968 0.474417686 0.502182007
v -0.252853602 0.472902894 0.504818797
v -0.255420744 0.477258176 0.510325968
v -0.254539639 0.485386997 0.521001458
v -0.254505038 0.482637078 0.52635628
v -0.254095674 0.484719485 0.534040987
v -0.254078835 0.481746137 0.539275825
v -0.253985673 0.479759306 0.544982195
v -0.253968865 0.476786941 0.550215364
v -0.254227936 0.470242858 0.553757191
v -0.254492342 0.463621914 0.557278335
v -0.254721224 0.457454234 0.561028123
v -0.254909873 0.451802582 0.56503278
v -0.252190053 0.4462367 0.565754831
v -0.249285698 0.44302085 0.567578197
v -0.243103087 0.444793433 0.568386197
v -0.236155197 0.455837071 0.57681638
v -0.267273128 0.0135486722 0.37927857
v -0.270665288 0.0143006342 0.379634649
v -0.278332889 0.00377907581 0.374796152
v -0.285404027 0.00350753008 0.370892495
v -0.292322218 0.00346841058 0.370892495
v -0.295421302 0.00618811883 0.375953197
v -0.301122159 0.0192990508 0.385798126
v -0.305082947 0.0147244511 0.379920244
v -0.31197539 0.0146854771 0.379920244
v -0.317236245 0.0318854004 0.391638428
v -0.319747865 0.0388443433 0.402348936
v -0.319151133 0.042151656 0.411340207
v -0.318357319 0.0477551818 0.421345115
v -0.318338305 0.0443948694 0.427261263
v -0.318488538 0.039070718 0.432294309
v -0.318563491 0.0346169323 0.437725306
v -0.318544477 0.0312536582 0.443646669
v -0.319003373 0.0223268569 0.447101891
v -0.319718242 0.0104060033 0.449259996
v -0.312973768 0.00753344782 0.451694578
v -0.309544295 0.00586373545 0.454668313
v -0.307444274 -0.012062748 0.450522125
v -0.307425082 -0.0154565359 0.456497222
v -0.307533234 -0.0204106923 0.461795539
v -0.307689279 -0.0259553734 0.466845572
v -0.30769524 -0.0296620987 0.472694069
v -0.311850131 -0.0419994965 0.47486338
v -0.311418205 -0.0403879732 0.482994467
v -0.307591856 -0.0374747887 0.487937957
v -0.305119306 -0.0531458147 0.488728732
v -0.305252671 -0.0584604517 0.493929625
v -0.305654317 -0.0671314746 0.497735471
v -0.305785477 -0.0724295452 0.502966106
v -0.305832863 -0.0766824856 0.508637071
v -0.305813521 -0.0801007152 0.514655173
v -0.305794209 -0.0835189447 0.520673335
v -0.306160778 -0.0917846337 0.524715483
v -0.302229136 -0.0894971341 0.533049703
v -0.30221945 -0.0912058502 0.536058068
v -0.3022331 -0.0950434506 0.541905701
v -0.302478254 -0.101836339 0.546571612
v -0.302736372 -0.108801596 0.551182687
v -0.302810997 -0.113427617 0.556735396
v -0.302839369 -0.117464505 0.562525332
v -0.30293873 -0.122411922 0.56796056
v -0.311069518 -0.141029626 0.56808269
v -0.31400311 -0.136072889 0.573719263
v -0.310082257 -0.134180278 0.58182323
v -0.30711481 -0.142417341 0.582316935
v -0.307421803 -0.15000248 0.586773872
v -0.307537287 -0.155159548 0.592175484
v -0.307457894 -0.157838807 0.598525822
v -0.307559878 -0.162828162 0.603999615
v -0.312708855 -0.187508196 0.60208112
v -0.319478333 -0.186420158 0.606201887
v -0.318364143 -0.174537793 0.614340425
v -0.317641079 -0.169304788 0.623639941
v -0.317315876 -0.168968037 0.631092727
v -0.31726557 -0.17202197 0.637282252
v -0.317091137 -0.17353946 0.644032836
v -0.317071736 -0.17697306 0.650077999
v -0.317365974 -0.184295788 0.654714644
v -0.317346543 -0.187733024 0.660766244
v -0.317532688 -0.193724364 0.665902853
v -0.317655832 -0.198937505 0.671326756
v -0.310626358 -0.198111042 0.671607137
v -0.303591311 -0.197173268 0.671927214
v -0.295870215 -0.188859299 0.678506076
v -0.288966447 -0.189395621 0.678301573
v -0.281807333 -0.186364233 0.679364622
v -0.275143802 -0.188487157 0.674965799
v -0.272395283 -0.199110284 0.67117393
v -0.265426815 -0.199070871 0.67117393
v -0.25390771 -0.130233005 0.699259698
v -0.253666997 -0.130163684 0.706421196
v -0.257287472 -0.137004629 0.711147845
v -0.256359875 -0.126432732 0.72196573
v -0.25626865 -0.128686577 0.728272498
v -0.255826771 -0.125543341 0.736439824
v -0.255761415 -0.128185108 0.742594182
v -0.256162345 -0.138013572 0.746290565
v -0.256530106 -0.147343084 0.750181496
v -0.256964415 -0.157712296 0.753744304
v -0.253742874 -0.162565485 0.755640984
v -0.288495898 -0.589932144 0.615668476
v -0.29614687 -0.592337728 0.618825257
v -0.299961984 -0.592359304 0.618825257
v -0.306212306 -0.574780643 0.628655732
v -0.313806236 -0.574823618 0.628655732
v -0.321400166 -0.574866533 0.628655732
v -0.328994095 -0.574909508 0.628655732
v -0.338535488 -0.598012209 0.617004633
v -0.3457807 -0.593087435 0.618668139
v -0.349469483 -0.589517534 0.615923584
v -0.357097417 -0.589560688 0.615923584
v -0.365148336 -0.596638083 0.617515385
v -0.370837599 -0.576039851 0.628357172
v -0.374635398 -0.576061308 0.628357172
v -0.38222158 -0.575998247 0.628392577
v -0.382947922 -0.545745134 0.646291554
v -0.380595207 -0.523428738 0.661433518
v -0.380220681 -0.523172379 0.669237792
v -0.384015292 -0.527741849 0.675459683
v -0.38369754 -0.526183903 0.679818153
v -0.380578756 -0.495519727 0.697422743
v -0.380558074 -0.499178499 0.703864396
v -0.384241432 -0.502858222 0.710305989
v -0.382931054 -0.492319256 0.721257091
v -0.381379426 -0.47909385 0.733002663
v -0.381298929 -0.482063115 0.73960191
v -0.381558627 -0.488786638 0.745027542
v -0.381613165 -0.493249148 0.751165867
v -0.383127034 -0.473425031 0.764798522
v -0.403528512 -0.658997476 0.715428472
v -0.407352388 -0.659019053 0.715428472
v -0.41552341 -0.664576471 0.713739455
v -0.422567248 -0.658272266 0.715683699
v -0.430397391 -0.660181642 0.71511209
v -0.433826268 -0.658218086 0.719620943
v -0.433338434 -0.657296836 0.727691531
v -0.433578581 -0.663701475 0.733534932
v -0.42583105 -0.662541628 0.733871758
v -0.418219745 -0.662764013 0.733791649
v -0.410420626 -0.660993397 0.734312713
v -0.402786613 -0.660950243 0.734312713
v -0.382277757 -0.481349587 0.7959131
v -0.382257372 -0.484954149 0.802259266
v -0.38222596 -0.488437086 0.808641493
v -0.381799877 -0.487566799 0.816303909
v -0.381696135 -0.490246445 0.822912037
v -0.381600231 -0.493011057 0.829491973
v -0.381417423 -0.494813085 0.836346745
v -0.392459214 -0.577824473 0.816152096
v -0.399890453 -0.577866495 0.816152096
v -0.407406926 -0.5788064 0.815893769
v -0.415259272 -0.583185136 0.814646006
v -0.422700047 -0.583227217 0.814646006
v -0.429994464 -0.58181113 0.815065563
v -0.43297416 -0.578403234 0.823563695
v -0.432724029 -0.579801321 0.830664754
v -0.433053255 -0.586931705 0.836139798
v -0.425640464 -0.587036729 0.836098254
v -0.418212831 -0.586994767 0.836098254
v -0.410785168 -0.586952746 0.836098254
v -0.403585255 -0.58934027 0.835412621
v -0.396190047 -0.589699209 0.835299492
v -0.380927652 -0.504666805 0.86295557
v -0.380840957 -0.507522285 0.869487822
v -0.384739399 -0.512329519 0.871817291
v -0.384713113 -0.515859246 0.878165066
v -0.384711802 -0.519664109 0.884436965
v -0.384603888 -0.522292435 0.891030967
v -0.384671152 -0.526854753 0.897096753
v -0.384115249 -0.524525762 0.905023098
v -0.383465737 -0.521149397 0.913208365
v -0.383445472 -0.524733245 0.919518054
v -0.383425206 -0.528317094 0.925827742
v -0.383342087 -0.531202793 0.932320476
v -0.383187145 -0.533289135 0.939018965
v -0.382923156 -0.53415966 0.946026623
v -0.382781148 -0.536383271 0.952676952
v -0.382680774 -0.539068282 0.959204733
v -0.382441193 -0.540198743 0.966123164
v -0.382420957 -0.543774068 0.972417831
v -0.382289678 -0.546107829 0.979022682
v -0.382094294 -0.547722399 0.985801458
v -0.382021129 -0.550701916 0.99223721
v -0.381829917 -0.552357018 0.998994648
v -0.378583014 -0.558399558 1.00109553
v -0.371454149 -0.559603512 1.00079226
v -0.364213437 -0.559539437 1.00079787
v -0.357115537 -0.561196387 1.00038433
v -0.349673182 -0.558684051 1.00098634
v -0.342260331 -0.556432545 1.00152481
v -0.335079461 -0.557068765 1.00135994
v -0.327844828 -0.557027817 1.00135994
v -0.320695668 -0.558141112 1.00107872
v -0.313103855 -0.553185701 1.00227594
v -0.305875927 -0.553144813 1.00227594
v -0.298671424 -0.553445101 1.00219285
v -0.291458935 -0.553643763 1.00213444
v -0.284229964 -0.553602874 1.00213444
v -0.277002633 -0.553587556 1.00212824
v -0.269768208 -0.553458929 1.00214958
v -0.262526572 -0.553204119 1.0022018
v -0.255294234 -0.553096771 1.00221801
v -0.248065889 -0.553055882 1.00221801
v -0.240847275 -0.553193808 1.00217438
v -0.233633056 -0.5534271 1.00210762
v -0.226408273 -0.553471982 1.00208676
v -0.219175905 -0.553368926 1.0021019
v -0.211946711 -0.553328037 1.0021019
v -0.204719543 -0.553331971 1.00209093
v -0.197491795 -0.553325832 1.00208247
v -0.190265238 -0.553351402 1.00206625
v -0.183028042 -0.553118289 1.0021131
v -0.175798967 -0.553078353 1.00211287
v -0.16857338 -0.553133845 1.00208938
v -0.161347687 -0.553196073 1.00206435
v -0.154118434 -0.553161979 1.00206268
v -0.146890238 -0.553162038 1.00205266
v -0.139660671 -0.55312115 1.00205266
v -0.132440165 -0.553405941 1.00197327
v -0.125208959 -0.553324103 1.00198328
v -0.117973693 -0.55306834 1.00203562
v -0.110751458 -0.553359926 1.00195467
v -0.103529677 -0.553730965 1.0018543
v -0.0962909088 -0.553278148 1.00195467
v -0.0890565217 -0.552996397 1.00201333
v -0.0818321705 -0.553314865 1.00192571
v -0.0745990276 -0.553077459 1.00197363
v -0.0673688948 -0.553036571 1.00197363
v -0.0601407103 -0.553192258 1.00192571
v -0.0529100038 -0.553124368 1.00193238
v -0.0456798747 -0.553132117 1.00192046
v -0.0384496264 -0.553151488 1.0019058
v -0.0312198568 -0.553417444 1.00183105
v -0.0239885021 -0.553205073 1.00187278
v -0.0167575795 -0.553228259 1.00185716
v -0.00952630024 -0.553302467 1.00182915
v -0.0022954843 -0.553174376 1.00185037
v 0.0049357675 -0.553168654 1.00184178
v 0.0121685416 -0.553340197 1.00179005
v 0.019399792 -0.553275704 1.00179577
v 0.0266314987 -0.553258419 1.00179005
v 0.0338626653 -0.553193927 1.00179577
v 0.0410951115 -0.553220451 1.00177932
v 0.0483266711 -0.553179562 1.00177932
v 0.055558227 -0.553138673 1.00177932
v 0.0627897829 -0.553097785 1.00177932
v 0.0700249672 -0.553220689 1.0017395
v 0.0772613212 -0.553368092 1.00169349
v 0.0844961479 -0.553430259 1.00166845
v 0.0917290896 -0.553410113 1.00166333
v 0.0989638865 -0.553451061 1.00164342
v 0.106196441 -0.553410172 1.00164342
v 0.113421939 -0.553154469 1.00169575
v 0.120661639 -0.553331256 1.0016427
v 0.127892151 -0.553234041 1.00165641
v 0.135132134 -0.553390622 1.00160837
v 0.142366946 -0.553399801 1.00159609
v 0.149608254 -0.553560197 1.00154698
v 0.15683274 -0.553317964 1.00159609
v 0.164061472 -0.553185105 1.0016185
v 0.17129676 -0.553198636 1.00160527
v 0.178526938 -0.553103328 1.0016185
v 0.185759664 -0.553062439 1.0016185
v 0.19299525 -0.55307591 1.00160527
v 0.200229093 -0.553053796 1.00160062
v 0.207470834 -0.553171337 1.001562
v 0.214698046 -0.553027868 1.00158703
v 0.221936584 -0.55308038 1.00156426
v 0.229166821 -0.552992284 1.00157583
v 0.236400858 -0.55296731 1.00157189
v 0.24364157 -0.553043902 1.00154328
v 0.250870645 -0.552939892 1.00155866
v 0.258099586 -0.552837372 1.00157368
v 0.265333682 -0.552811384 1.00156999
v 0.272574693 -0.552880287 1.00154328
v 0.279807776 -0.552836478 1.001544
v 0.287040085 -0.552783072 1.00154698
v 0.294275433 -0.552769125 1.00154042
v 0.301541567 -0.553142786 1.00143933
v 0.308757573 -0.552878976 1.00149369
v 0.316055954 -0.553620458 1.00130296
v 0.323293924 -0.553614259 1.00129449
v 0.330524772 -0.553524196 1.00130653
v 0.337764293 -0.553534329 1.00129402
v 0.345035702 -0.553897381 1.00119555
v 0.352307677 -0.554250777 1.00109935
v 0.359534681 -0.554107785 1.00112426
v 0.366737604 -0.553715885 1.00120986
v 0.373977363 -0.553716898 1.0011996
v 0.261515588 -0.0505926721 0.469802499
v 0.250896364 -0.00269573089 0.490309268
v 0.250375956 0.00716601545 0.487163514
v 0.249864802 0.0168966427 0.483988494
v 0.249162585 0.0290849507 0.481907338
v 0.25246045 0.0334147215 0.476426989
v 0.252450973 0.0350895748 0.473478228
v 0.258570284 0.00390947843 0.452398926
v 0.266231477 -0.00758846942 0.451061249
v 0.266580701 -0.0134572834 0.452223063
v 0.266669601 -0.0177108012 0.45783025
v 0.266688794 -0.0211082548 0.463811815
v 0.264048338 -0.0342481695 0.465603143
v 0.264193624 -0.0392275974 0.470926732
v -0.25472343 -0.15765205 0.613192081
v -0.263727903 -0.188725188 0.601518929
v -0.267244786 -0.187012896 0.598469377
v -0.269255698 -0.161287993 0.600817859
v -0.269275159 -0.157844678 0.59475553
v -0.26929462 -0.154401362 0.588693261
v -0.269032001 -0.146824166 0.58422333
v -0.264851987 -0.132713348 0.582292438
v -0.261858821 -0.138037682 0.576533139
v -0.262168109 -0.138959691 0.568782866
v -0.269468904 -0.142036289 0.56389308
v -0.271836728 -0.124072626 0.567239821
v -0.271794498 -0.119757056 0.56155169
v -0.271831751 -0.11658518 0.555413902
v -0.27185896 -0.113268778 0.549332619
v -0.271788657 -0.108553767 0.543811023
v -0.271808028 -0.105126195 0.537776411
v -0.271678954 -0.0995739996 0.532601416
v -0.2716012 -0.0947595984 0.527135134
v -0.27149573 -0.0895522609 0.521835148
v -0.271373123 -0.0841045678 0.516641319
v -0.271232396 -0.078402333 0.511560917
v -0.271251738 -0.0749839097 0.505542457
v -0.271157026 -0.06994351 0.500200272
v -0.271052778 -0.064770624 0.494920433
v -0.270961165 -0.0597808287 0.489570767
v -0.270574659 -0.0506129824 0.485996038
v -0.263043731 -0.037704777 0.484019786
v -0.263743192 -0.0460486077 0.476745158
v -0.267710596 -0.0497894771 0.46768856
v -0.269854307 -0.0275534 0.469787478
v -0.269892961 -0.0244304873 0.463687092
v -0.269974887 -0.0219170004 0.457320571
v -0.26999411 -0.0185184162 0.451337039
v -0.26520595 0.00439748215 0.453914165
v -0.261793941 0.00610670913 0.45093897
v -0.255714208 0.0433047935 0.470979899
v -0.256073147 0.0344120115 0.474438965
v -0.256625861 0.022657875 0.476677358
v -0.253212452 0.0192800052 0.482567489
v -0.253513753 0.0111356406 0.486413568
v -0.254116803 -0.00153455627 0.488340527
v -0.251011223 -0.00798549596 0.489260912
v -0.244208455 -0.00839267112 0.489070326
v -0.254522324 -0.22863394 0.398839951
v -0.254502058 -0.232218057 0.405150145
v -0.254342139 -0.233575776 0.412400335
v -0.25351429 -0.224269807 0.42412132
v -0.252693206 -0.215045109 0.435754597
v -0.252181709 -0.2107445 0.445286363
v -0.255755454 -0.214314729 0.451536328
v -0.255735397 -0.217864633 0.457786292
v -0.255155861 -0.212576553 0.467657477
v -0.253397524 -0.188628763 0.485099196
v -0.25328967 -0.190751508 0.491853088
v -0.253269792 -0.194265515 0.498039842
v -0.253249943 -0.197779521 0.504226565
v -0.253193766 -0.200716972 0.510643661
v -0.25676766 -0.204827636 0.516600072
v -0.256747812 -0.208341628 0.522786796
v -0.256691068 -0.21127744 0.529200971
v -0.254990518 -0.188394397 0.545715332
v -0.25350982 -0.16891408 0.56079793
v -0.253457963 -0.171873033 0.56709832
v -0.253362685 -0.174147144 0.573660493
v -0.252065301 -0.157461524 0.58748287
v -0.25200966 -0.160337165 0.593767941
v -0.255478591 -0.163802639 0.599834502
v -0.255468845 -0.165525511 0.602867782
v -0.254733115 -0.155934483 0.610168099
v 0.258734673 -0.184493572 0.601999581
v 0.250028253 -0.16150707 0.610667527
v 0.250803262 -0.168851271 0.60052675
v 0.251446009 -0.174382851 0.591032207
v 0.251426458 -0.170922846 0.584940553
v 0.251406878 -0.167462841 0.578848839
v 0.248024315 -0.165938944 0.572016478
v 0.248626515 -0.172592163 0.565719962
v 0.250434041 -0.194132581 0.549868345
v 0.250751138 -0.195245847 0.541914105
v 0.25080964 -0.192818061 0.535334885
v 0.250906587 -0.190912634 0.528544664
v 0.251516521 -0.19600229 0.51896596
v 0.251496673 -0.192493916 0.51278913
v 0.251554519 -0.190043166 0.506187379
v 0.251594573 -0.187348723 0.499679655
v 0.248021156 -0.183858678 0.493499696
v 0.24839063 -0.185706109 0.485133946
v 0.250202745 -0.207378492 0.468616813
v 0.25067389 -0.210586354 0.459604949
v 0.251650512 -0.220719293 0.447696745
v 0.251630366 -0.217160538 0.441431195
v 0.252030849 -0.219364166 0.432754904
v 0.248172373 -0.214271218 0.431014389
v 0.248392239 -0.214038163 0.423342019
v 0.24957712 -0.227168739 0.409995109
v 0.250382304 -0.235013768 0.398828119
v 0.241047248 -0.0095736254 0.491086245
v 0.247883707 -0.00953496806 0.491086245
v 0.257394224 -0.0453103632 0.479531348
v 0.260226846 -0.0390421264 0.485909849
v 0.267694384 -0.0493395589 0.488968313
v 0.268107623 -0.0560356826 0.489864409
v 0.268149495 -0.0597280599 0.495756209
v 0.268168777 -0.063141346 0.501765609
v 0.268605262 -0.0717279986 0.505626798
v 0.26867038 -0.0757145435 0.511410117
v 0.268790871 -0.080390133 0.51691252
v 0.268853933 -0.0843537003 0.522711337
v 0.268920809 -0.0883657262 0.528492749
v 0.266250521 -0.101561904 0.530565798
v 0.266269922 -0.104992233 0.536605239
v 0.266289324 -0.10842257 0.54264462
v 0.266578883 -0.115268156 0.547322273
v 0.266824126 -0.121558748 0.552234054
v 0.266875833 -0.125403658 0.558122694
v 0.267178267 -0.13242732 0.562764943
v 0.264410615 -0.144818589 0.565333009
v 0.260356218 -0.13910988 0.571272016
v 0.259860307 -0.135842159 0.57993108
v 0.263044477 -0.13364011 0.584462464
v 0.264533073 -0.155987456 0.583230674
v 0.26459232 -0.159948781 0.589107633
v 0.26461181 -0.163398549 0.595181227
v 0.264631331 -0.166848302 0.60125488
v 0.262230784 -0.182742223 0.598951042
v -0.194162577 -0.382935047 0.578639567
v -0.192619279 -0.192887858 0.647686362
v -0.192482933 -0.186108917 0.642833412
v -0.192302391 -0.178392842 0.638337791
v -0.192459464 -0.177888408 0.631196678
v -0.192176774 -0.245638832 0.602440655
v -0.189135179 -0.341837645 0.574473381
v -0.189179182 -0.344866335 0.57718575
v -0.189325452 -0.352253616 0.582132041
v -0.193225637 -0.360010475 0.583138466
v 0.188403338 -0.201334432 0.643834651
v 0.191072881 -0.37949115 0.579099417
v 0.185915723 -0.349995077 0.586006224
v 0.185862511 -0.345782042 0.579897642
v 0.185842171 -0.342184931 0.573564589
v 0.185821831 -0.338587821 0.567231536
v 0.189443111 -0.334970146 0.560898483
v 0.18776229 -0.240525976 0.599801779
v 0.187849268 -0.182165876 0.628822923
v 0.187868774 -0.185615033 0.634895504
v 0.18788828 -0.189064175 0.640968084
v 0.187898025 -0.190788761 0.644004345
v 0.0611898229 -0.519725084 0.623025656
v 0.0538698956 -0.531791031 0.622847736
v 0.0463349 -0.531833649 0.622847736
v 0.0387999043 -0.531876266 0.622847736
v 0.0312627964 -0.531751931 0.622904301
v 0.0237281155 -0.531794548 0.622904301
v 0.0161876548 -0.53118968 0.623123705
v 0.00865417998 -0.531232238 0.623123705
v 0.00112377596 -0.531866729 0.622923195
v -0.00641061878 -0.531964958 0.622904301
v -0.013945302 -0.532007575 0.622904301
v -0.0214799847 -0.532050192 0.622904301
v -0.0290146694 -0.53209275 0.622904301
v -0.0365493521 -0.532135367 0.622904301
v -0.0440835729 -0.532100737 0.622930467
v -0.0516181104 -0.532143295 0.622930467
v -0.0591526479 -0.532185912 0.622930467
v -0.0654801354 -0.425552696 0.655271351
v -0.0655753464 -0.428351104 0.646694958
v -0.0656859502 -0.432453632 0.637645364
v -0.0656047389 -0.420090288 0.63425684
v -0.065710336 -0.423743904 0.625335097
v -0.0657263845 -0.419722289 0.619067669
v -0.0657469481 -0.416086346 0.612666249
v -0.0657675043 -0.412450373 0.60626477
v -0.0658959299 -0.417998552 0.596599162
v -0.0661145821 -0.431193084 0.584164739
v -0.0661352798 -0.427532941 0.577720642
v -0.0664819628 -0.451514453 0.561288893
v -0.0739463866 -0.451659501 0.56125176
v -0.0814186111 -0.452280968 0.561042428
v -0.0888829082 -0.452323169 0.561042428
v -0.0963472128 -0.452365369 0.561042428
v -0.10381151 -0.452407598 0.561042428
v -0.111275814 -0.452449799 0.561042428
v -0.118740112 -0.452491999 0.561042428
v -0.126185656 -0.451836109 0.561294675
v -0.128306881 -0.391798228 0.579140723
v -0.129229635 -0.420538813 0.560954869
v -0.129250348 -0.416876972 0.554507852
v -0.129258066 -0.412750214 0.548232079
v -0.129291758 -0.409553319 0.541613817
v -0.129312456 -0.405891508 0.53516686
v -0.129333168 -0.402229697 0.528719842
v -0.1292748 -0.395749807 0.523333013
v -0.129029542 -0.382623196 0.520471573
v -0.12905018 -0.378972918 0.514044881
v -0.129070833 -0.37532261 0.507618129
v -0.129091471 -0.371672332 0.501191437
v -0.12911211 -0.368022025 0.494764745
v -0.129132748 -0.364371747 0.488338053
v -0.129153386 -0.360721469 0.481911361
v -0.130416527 -0.273289293 0.508367002
v -0.13040635 -0.268681794 0.502488494
v -0.128750905 -0.335585654 0.472175568
v -0.128771469 -0.331950516 0.465775549
v -0.128792018 -0.328315377 0.45937553
v -0.128812581 -0.324680239 0.452975512
v -0.12870948 -0.316705137 0.448327243
v -0.127995148 -0.287310988 0.45238626
v -0.128401682 -0.297226876 0.440522879
v -0.127974629 -0.277953953 0.440565675
v -0.127676904 -0.263235241 0.438797444
v -0.130117163 -0.218528539 0.449497551
v -0.1300724 -0.212786362 0.444149435
v -0.13000825 -0.206396401 0.439081252
v -0.12995027 -0.200220883 0.433934808
v -0.129970342 -0.196673587 0.427689463
v -0.105570883 0.424105763 0.686601996
v -0.0995552316 0.425484151 0.687171161
v -0.0936331376 0.423174411 0.686179042
v -0.0876515731 0.423152953 0.686155617
v -0.0816073865 0.428133279 0.685026765
v -0.0786276534 0.429625928 0.682428479
v -0.0730855316 0.404394269 0.671678901
v -0.0670584366 0.404549807 0.671730578
v -0.0610350482 0.404462427 0.671678901
v -0.055007197 0.404726386 0.671776772
v -0.0487222411 0.430057287 0.685764492
v -0.0457802005 0.422342896 0.685712397
v -0.0397863723 0.423752517 0.686294913
v -0.0338007547 0.424528629 0.686609149
v -0.0278285537 0.421250343 0.685206831
v -0.0218397435 0.42368713 0.686224222
v -0.0158672538 0.42654267 0.68419385
v -0.0128344195 0.405314207 0.671925366
v -0.00681012496 0.405305654 0.671907246
v -0.000785926124 0.405339718 0.671907246
v 0.00523848692 0.405347288 0.671895981
v 0.0110404715 0.42690295 0.684282184
v 0.0170600805 0.422810286 0.685759842
v 0.0200587809 0.42233631 0.685552001
v 0.0260470826 0.422192037 0.685476542
v 0.0321028531 0.417095155 0.686536252
v 0.0350502655 0.420883328 0.68490088
v 0.041028671 0.421435684 0.685120463
v 0.0468618833 0.42968446 0.685376823
v 0.0534500182 0.404878139 0.671580374
v 0.0594788902 0.404787898 0.671527445
v 0.0655048192 0.404821962 0.671527445
v 0.0715307593 0.404856056 0.671527445
v 0.0767185241 0.430365622 0.68559432
v 0.0798653066 0.424219996 0.686206341
v 0.0858909935 0.422999024 0.685674965
v 0.0919899121 0.419891894 0.684344769
v 0.0950146392 0.417871058 0.686713696
v 0.125360936 -0.205878079 0.427073121
v 0.125471905 -0.211758271 0.432358772
v 0.125492021 -0.215316281 0.438623011
v 0.125567764 -0.220299378 0.444295615
v 0.125587881 -0.223858759 0.450562239
v 0.124717809 -0.298845232 0.42748031
v 0.124894597 -0.306588948 0.432183564
v 0.12491513 -0.310220331 0.438576996
v 0.124935664 -0.313851714 0.444970429
v 0.124956198 -0.317483097 0.451363832
v 0.124976732 -0.32111451 0.457757264
v 0.125339553 -0.33379814 0.460541993
v 0.125363514 -0.337527603 0.466915041
v 0.125384107 -0.341167659 0.473323733
v 0.125417069 -0.345135927 0.479603589
v 0.125675589 -0.355089039 0.483547747
v 0.125780031 -0.360961109 0.48910287
v 0.125856027 -0.366081119 0.494957626
v 0.125821292 -0.36825797 0.501949728
v 0.125836879 -0.37177217 0.508424461
v 0.125757515 -0.372757107 0.515860796
v 0.125664636 -0.373377353 0.523424327
v 0.125744522 -0.378601819 0.529242933
v 0.125954494 -0.387302727 0.533766389
v 0.126074567 -0.393609017 0.539201736
v 0.126095206 -0.397260666 0.545630872
v 0.125477821 -0.383834928 0.558350861
v 0.126018614 -0.401406139 0.559646189
v 0.125062168 -0.378861368 0.575614989
v 0.124925889 -0.378279686 0.583520174
v 0.123777121 -0.449122727 0.561764419
v 0.116404667 -0.451723367 0.560839713
v 0.108948387 -0.452044457 0.560738921
v 0.101472206 -0.451750934 0.560860276
v 0.0940133333 -0.452014714 0.560780227
v 0.0865476578 -0.452056915 0.560780227
v 0.0790819898 -0.452099144 0.560780227
v 0.0716163218 -0.452141345 0.560780227
v 0.0641596988 -0.452609867 0.560626149
v 0.0635719821 -0.427597851 0.577433765
v 0.0631215349 -0.409024388 0.591826737
v 0.0630432144 -0.407994241 0.599895895
v 0.063063778 -0.411630094 0.606297195
v 0.0630825385 -0.415180951 0.612728417
v 0.0630956814 -0.418465853 0.619252264
v 0.0624290258 -0.389560193 0.636965573
v 0.0624141134 -0.391493052 0.643891335
v 0.0611717701 -0.513488233 0.609546602
v 0.0611702278 -0.516082346 0.616466522
v 0.061179325 -0.517869055 0.61975795
v -0.181700453 -0.238985464 0.736979783
v -0.203625754 -0.572680414 0.629163504
v -0.192585856 -0.173882157 0.758809686
v -0.192200959 -0.161903098 0.755746901
v -0.192220047 -0.158527002 0.749802947
v -0.1904037 -0.191316932 0.735110939
v -0.183699578 -0.19762899 0.736536562
v -0.18023552 -0.199315548 0.739540339
v -0.181508526 -0.232601449 0.735513926
v 0.207723051 -0.5944345 0.617168427
v 0.198789641 -0.572032511 0.62861985
v 0.176974699 -0.227004677 0.736713171
v 0.175749376 -0.200718105 0.738386273
v 0.179197326 -0.198990896 0.735379755
v 0.185877413 -0.193190649 0.733751118
v 0.188898385 -0.187049478 0.739407599
v 0.18862921 -0.185347483 0.747122347
v 0.188512966 -0.18481797 0.750864327
g path_000000
l 22 21 20 19 18 17 16 15 14 13 12 11 10 9 8 7 6 5 4 3 2 1 1171 1170 1169 1168 1167 1166 1165 1164 1163 1162 1161 1160 1159 1158 1157 1156 1155 1154 1153 1152 1151 1150 1149 1148 1147 1146 1145 1144 1143 1142 1141 1140 1139 1138 1137 1136 1135 1134 1133 1132 1131 1130 1129 1128 1127 1126 1125 1124 1123 1122 1121 1120 1119 1118 1117 1116 1115 1114 1113 1112 1111 1110 1109 1108 1107 1106 1105 1104 1103 1102 1101 1100 1099 1098 1097 1096 1095 1094 1093 1092 1091 1090 1089 1088 1087 1086 1085 1084 1083 1082 1081 1080 1079 1078 1077 1076 1075 1074 1073 1072 1071 1070 1069 1068 1067 1066 1065 1064 1063 1062 1061 1060 1059 1058 1057 1056 1055 1054 1053 1052 1051 1050 1049 1048 1047 1046 1045
g path_000001
l 23 24 25 26 27 28 29 30 31 32 33 34 35 36
g path_000002
l 37 38 39 40 41 42 43
g path_000003
l 44 45 46 47 48 49 50 51 52 53 54
g path_000004
l 55 56
g path_000005
l 57 58 59 60 61 62 63 64 65 66 67
g path_000006
l 68 69 70 71 72
g path_000007
l 73 74 75 76 77
g path_000008
l 79 80 81
g path_000009
l 82 83 84
g path_000010
l 85 86 87 88 89 90 91 92 93 94
g path_000011
l 95 96 97 98 99 100 101 102 103 104 105 106 107 108 109 110 111 112 113 114 115
g path_000012
l 116 117 118 119 120 121 122 123 124 125 126 127 128 129 130 131 132 133 134 135 136 137 138 139 140 141 142 143 144 145 146 147 148 149 150 151 152 153 154 155 156 157 158
g path_000013
l 159 160 161 162
g path_000014
l 163 164 165
g path_000015
l 166 167 168
g path_000016
l 169 170 171 172 173 174 175 176 177 178 179 180 181 182 183 184 185 186 187
g path_000017
l 190 191 192 193
g path_000018
l 194 195 196
g path_000019
l 197 198 199 200 201 202 203 204 205 206 207 208 209 210 211 212 213 214 215 216 217 218 219 220
g path_000020
l 221 222 223 224
g path_000021
l 225 226 227 228 229
g path_000022
l 230 231 232 233
g path_000023
l 234 235 236
g path_000024
l 237 238
g path_000025
l 239 240 241 242 243 244 245 246 247 248 249 250 251 252 253 254 255 256 257 258 259 260
g path_000026
l 261 262 263 264 265
g path_000027
l 268 269 270 271
g path_000028
l 272 273 274 275 276
g path_000029
l 277 278 279 280
g path_000030
l 281 282 283 284
g path_000031
l 285 286 287 288 289
g path_000032
l 290 291 292
g path_000033
l 293 294 295
g path_000034
l 296 297
g path_000035
l 298 299
g path_000036
l 302 303 304 305
g path_000037
l 306 307 308 309 310 311 312 313 314 315 316 317 318 319 320 321
g path_000038
l 322 323
g path_000039
l 324 325 326 327
g path_000040
l 328 329 330 331 332 333
g path_000041
l 334 335 336 337 338 339 340 341 342 343 344 345 346 347 348 349 350 351 352
g path_000042
l 353 354 355
g path_000043
l 356 357 358 359 360 361 362 363
g path_000044
l 364 365 366 367 368
g path_000045
l 369 370 371 372 373
g path_000046
l 374 375
g path_000047
l 376 377 378 379 380 381 382 383 384 385 386
g path_000048
l 387 388 389 390 391 392 393 394 395 396 397 398 399 400 401
g path_000049
l 402 403 404 405 406 407
g path_000050
l 408 409 410 411 412 413 414 415 416 417 418 419 420 421 422 423 424 425 426 427 428 429 430 431 432 433 434 435 436 437 438 439 440 441 442 443 444 445 446 447 448 449 450 451 452 453 454 455 456 457 458 459 460 461 462 463 464 465 466 467 468 469 470 471 472 473 474 475 476 477 478 479 480 481 482 483 484 485 486 487 488 489 490 491 492 493 494 495 496 497 498 499 500 501 502 503 504 505 506 507 508 509 510 511 512 513 514 515 516 517 518 519 520 521 522 523 524 525 526 527 528 529 530 531 532 533 534 535 536 537 538 539 540 541 542 543 544 545 546 547 548 549 550 551 552 553 554 555 556 557 558 559 560 561 562 563 564 565 566 567 568 569 570 571 572 573 574 575 576 577 578 579 580 581 582 583 584 585 586 587 588 589 590 591 592 593 594 595 596 597 598 599 600 601 602 603 604 605 606 607 608 609 610 611 612 613 614 615 616 617 618 619 620 621 622 623 624 625 626 627 628 629 630 631 632 633 634 635 636 637 638 639 640 641 642 643 644 645 646 647 648 649 650 651 652 653 654 655 656 657 658 659 660 661 662 663 664 665 666 667 668 669 670 671
g path_000051
l 672 673 674 675 676 677 678 679 680 681
g path_000052
l 682 683 684 685 686 687 688 689 690 691 692 693 694 695 696 697 698 699 700 701 702 703 704 705 706 707 708 709 710 711 712 713 714 715 716 717 718 719 720 721 722 723 724 725 726
g path_000053
l 727 728 729
g path_000054
l 730 731 732 733 734
g path_000055
l 735 736
g path_000056
l 737 738 739
g path_000057
l 740 741 742 743
g path_000058
l 745 746 747 748 749 750
g path_000059
l 751 752 753
g path_000060
l 754 755
g path_000061
l 756 757 758
g path_000062
l 759 760 761 762 763 764
g path_000063
l 765 766 767
g path_000064
l 768 769 770 771 772 773 774 775 776 777 778 779 780 781 782 783 784 785 786 787 788 789 790
g path_000065
l 791 792 793 794 795 796
g path_000066
l 797 798 799
g path_000067
l 800 801 802
g path_000068
l 803 804 805
g path_000069
l 806 807 808 809 810
g path_000070
l 811 812
g path_000071
l 813 814 815 816 817
g path_000072
l 818 819 820
g path_000073
l 821 822 823
g path_000074
l 824 825 826 827 828 829 830 831 832 833 834 835 836 837 838 839 840
g path_000075
l 843 844 845 846 847
g path_000076
l 848 849 850 851 852
g path_000077
l 853 854 855 856
g path_000078
l 857 858 859 860 861 862 863 864
g path_000079
l 865 866 867 868 869 870 871 872 873 874 875 876 877
g path_000080
l 878 879 880
g path_000081
l 882 883 884 885 886 887 888 889 890 891 892 893 894 895 896 897 898
g path_000082
l 899 900 901 902 903 904 905 906 907
g path_000083
l 908 909 910 911 912 913 914 915 916 917 918 919 920 921 922 923 924 925 926 927 928 929 930 931 932 933 934 935 936 937 938 939 940 941 942 943 944 945 946 947 948 949 950 951
g path_000084
l 952 953 954 955 956 957 958 959 960 961 962 963 964 965 966 967 968 969 970 971
g path_000085
l 972 973 974 975 976 977 978 979 980 981 982
g path_000086
l 983 984 985 986 987 988 989
g path_000087
l 990 991 992 993 994
g path_000088
l 995 996 997
g path_000089
l 999 1000 1001 1002
g path_000090
l 1003 1004 1005 1006 1007 1008 1009 1010
g path_000091
l 1012 1013 1014 1015 1016 1017 1018 1019 1020 1021 1022 1023
g path_000092
l 1024 1025 1026 1027 1028 1029 1030
g path_000093
l 1031 1032 1033 1034 1035 1036 1037 1038 1039 1040 1041 1042 1043 1044
g path_000094
l 1172 1185 1184 1183 1182 1181 1180 1179
g path_000095
l 1173 1174 1175 1176 1177 1178
g path_000096
l 1186 1255 1254 1253 1252 1251
g path_000097
l 1187 1188
g path_000098
l 1189 1190 1191 1192 1193 1194 1195 1196 1197 1198 1199 1200 1201 1202 1203 1204 1205 1206 1207 1208 1209 1210 1211 1212 1213 1214 1215
g path_000099
l 1216 1217 1218 1219
g path_000100
l 1220 1221
g path_000101
l 1222 1223 1224 1225 1226 1227 1228 1229
g path_000102
l 1230 1231 1232 1233 1234 1235 1236 1237 1238
g path_000103
l 1239 1240 1241 1242 1243 1244 1245 1246
g path_000104
l 1248 1249 1250
g path_000105
l 1256 1311 1310 1309 1308 1307
g path_000106
l 1257 1258 1259 1260 1261 1262 1263
g path_000107
l 1264 1265 1266 1267 1268 1269 1270 1271 1272 1273
g path_000108
l 1274 1275 1276 1277 1278 1279 1280 1281 1282
g path_000109
l 1283 1284
g path_000110
l 1285 1286 1287 1288 1289 1290 1291 1292 1293 1294 1295 1296 1297 1298 1299 1300 1301 1302 1303 1304 1305 1306
g path_000111
l 1313 1314 1315 1316
g path_000112
l 1318 1319 1320 1321
g path_000113
l 1322 1333 1332 1331 1330
g path_000114
l 1324 1325 1326 1327 1328
g path_000115
l 1350 1349 1348 1347 1346 1345 1344 1343 1342 1341 1340 1339 1338 1337 1336 1335 1334 1489 1488 1487
g path_000116
l 1351 1352 1353 1354 1355 1356 1357 1358 1359 1360 1361
g path_000117
l 1362 1363 1364 1365 1366 1367 1368 1369 1370
g path_000118
l 1372 1373 1374 1375 1376 1377 1378 1379 1380 1381 1382 1383 1384 1385
g path_000119
l 1386 1387
g path_000120
l 1388 1389 1390 1391 1392
g path_000121
l 1393 1394 1395 1396
g path_000122
l 1397 1398 1399 1400 1401
g path_000123
l 1402 1403 1404 1405 1406 1407
g path_000124
l 1408 1409 1410 1411
g path_000125
l 1412 1413 1414 1415 1416 1417 1418
g path_000126
l 1419 1420 1421 1422
g path_000127
l 1423 1424 1425 1426 1427 1428 1429 1430
g path_000128
l 1431 1432 1433 1434
g path_000129
l 1435 1436 1437 1438 1439
g path_000130
l 1440 1441 1442 1443 1444
g path_000131
l 1445 1446 1447 1448 1449 1450 1451 1452 1453 1454 1455 1456 1457 1458 1459 1460 1461 1462 1463 1464 1465 1466 1467
g path_000132
l 1468 1469
g path_000133
l 1470 1471 1472 1473 1474 1475 1476 1477 1478
g path_000134
l 1480 1481 1482 1483 1484
g path_000135
l 1485 1486
g path_000136
l 1490 1498
g path_000137
l 1492 1493 1494
g path_000138
l 1495 1496 1497
g path_000139
l 1502 1503 1504 1505 1506 1507
