# Fixed world centers; Z up; paths immutable
v -0.0206742249 0.666602314 1.0470227
v -0.0181778409 0.673308074 1.04405916
v -0.0131119778 0.676083744 1.04405916
v 0.00485520344 0.659877062 1.04490221
v 0.010164299 0.66248101 1.04210472
v 0.0123958671 0.664461851 1.03927279
v 0.00374810258 0.682446063 1.03298521
v 0.00641729264 0.683759987 1.03019488
v 0.0309852082 0.658473372 1.02565658
v 0.0359889157 0.661464512 1.02564979
v 0.0380049236 0.663538873 1.02844799
v 0.0449404381 0.663620234 1.03137803
v 0.0472309142 0.665544927 1.02853322
v 0.0481885262 0.669380546 1.02561629
v 0.0514869578 0.674928308 1.02269185
v 0.0566789806 0.672710001 1.01999831
v 0.0713748783 0.6620664 1.01763701
v 0.0742921606 0.663130224 1.01480639
v 0.0815428942 0.663134873 1.01205456
v 0.0850977525 0.66331327 1.00924563
v 0.0735795647 0.679817915 1.00305521
v 0.0887465477 0.668823361 0.99776274
v 0.0834948197 0.676334202 0.994710922
v 0.0943079889 0.671517372 0.989204824
v 0.113537937 0.654894233 0.986805439
v 0.122819707 0.647030592 0.987023771
v 0.128475264 0.649298489 0.987037778
v 0.133234605 0.652953923 0.984132171
v 0.13636373 0.658704579 0.984067082
v 0.141585037 0.661565483 0.984067082
v 0.146806344 0.664426327 0.984067082
v 0.152027652 0.66728723 0.984067082
v 0.157248974 0.670148134 0.984067082
v 0.159532681 0.672175229 0.981169045
v 0.164753988 0.675036132 0.981169045
v 0.183123454 0.660378695 0.978644133
v 0.188049912 0.66385895 0.975727081
v 0.195998281 0.663306117 0.972884774
v 0.198629871 0.664748013 0.972884774
v 0.203563496 0.668233275 0.969963491
v 0.208497107 0.671718597 0.967042208
v 0.221030638 0.660087168 0.967257977
v 0.225987554 0.663588941 0.964322865
v 0.228300452 0.665641963 0.961387753
v 0.23292625 0.669748068 0.95551759
v 0.235239148 0.67180109 0.952582479
v 0.24609077 0.66763252 0.949725807
v 0.248410076 0.669691265 0.946782589
v 0.262250602 0.661723495 0.943932593
v 0.266908467 0.665857971 0.938021719
v 0.269237369 0.667925239 0.935066283
v 0.274228662 0.671451271 0.932110846
v 0.276557595 0.673518538 0.929155409
v 0.281215429 0.677653074 0.923244536
v 0.283544362 0.679720342 0.920289099
v 0.296082944 0.668812513 0.917314768
v 0.31835264 0.650504589 0.91429013
v 0.320710957 0.652597964 0.911297381
v 0.325765282 0.65616852 0.908304632
v 0.330819577 0.659739077 0.905311823
v 0.333177924 0.661832452 0.902319074
v 0.337894589 0.666019201 0.896333575
v 0.34525758 0.661681056 0.896281123
v 0.363560468 0.648822367 0.893115878
v 0.360246778 0.663024306 0.887205005
v 0.367974699 0.653663874 0.884065509
v 0.373012304 0.657535315 0.878026485
v 0.37498349 0.655307591 0.874961913
v 0.377022773 0.658042014 0.868921399
v 0.382482916 0.656576157 0.862792552
v 0.387414098 0.650725663 0.859624565
v 0.395758688 0.650604367 0.853454769
v 0.398900479 0.652020872 0.847346187
v 0.396868765 0.654708505 0.84436512
v 0.400609046 0.655396938 0.83823204
v 0.404880553 0.655238152 0.835123301
v 0.416337788 0.646572828 0.828663588
v 0.419189841 0.643531561 0.822405577
v 0.418499917 0.644790649 0.81629014
v 0.415387839 0.64898932 0.810291648
v 0.420613825 0.647922695 0.804021716
v 0.416912884 0.652828693 0.798065543
v 0.418217868 0.651671708 0.79184407
v 0.428014636 0.644880593 0.788362086
v 0.427322626 0.646143615 0.782227814
v 0.426630586 0.647406578 0.776093543
v 0.432347596 0.645785987 0.769720793
v 0.435848653 0.641993165 0.763291299
v 0.43588984 0.642373562 0.757084191
v 0.438010722 0.640247047 0.750720441
v 0.439101517 0.639363229 0.744420052
v 0.441298991 0.637146354 0.738022864
v 0.443651646 0.634743571 0.731597602
v 0.44526577 0.63323164 0.725218058
v 0.444884539 0.634124279 0.718999386
v 0.447110236 0.631877065 0.712545693
v 0.442849487 0.632334769 0.709547579
v 0.443268657 0.632261753 0.703246057
v 0.445145607 0.630430996 0.696798146
v 0.444743603 0.631349325 0.69056201
v 0.448935151 0.62672931 0.683856964
v 0.44543165 0.626474917 0.677636564
v 0.445951134 0.626281142 0.671285152
v 0.450358242 0.621394455 0.6644997
v 0.450562209 0.621583164 0.65816015
v 0.4470478 0.621327937 0.651920378
v 0.450424075 0.61768049 0.645198286
v 0.450325698 0.618234158 0.638874292
v 0.452807009 0.615670621 0.632228017
v 0.448585153 0.616256416 0.626055181
v 0.448927581 0.616059065 0.622836769
v 0.450287938 0.614847302 0.616306067
v 0.449580997 0.616137505 0.610039711
v 0.446051598 0.615881205 0.603773296
v 0.447106987 0.61503613 0.597262144
v 0.447570413 0.614908814 0.59082514
v 0.444390476 0.614006281 0.587688029
v 0.44509095 0.613589406 0.581208229
v 0.450641364 0.607289433 0.573999703
v 0.448948324 0.604781151 0.567423999
v 0.450004637 0.603931487 0.560851336
v 0.449902117 0.604490101 0.554451048
v 0.44609803 0.604322672 0.551394343
v 0.447760016 0.602733493 0.544706583
v 0.449373633 0.601204038 0.538013697
v 0.44553116 0.601292133 0.531743824
v 0.446157366 0.600961804 0.525199771
v 0.447994262 0.599157274 0.518439293
v 0.444430649 0.59889853 0.512112141
v 0.444123536 0.59970516 0.50571245
v 0.44661361 0.59204942 0.498285979
v 0.449906617 0.588242412 0.494446307
v 0.449915707 0.588663995 0.487956941
v 0.450427532 0.588471889 0.48136884
v 0.445618331 0.589712799 0.475243628
v 0.446127921 0.589521229 0.468648851
v 0.44541043 0.590830684 0.462288857
v 0.442187041 0.589915872 0.459108859
v 0.44146955 0.591225326 0.452748865
v 0.446351945 0.585677028 0.445245653
v 0.445821345 0.581662595 0.438236266
v 0.447702914 0.579786062 0.431306213
v 0.451112598 0.576036632 0.424036354
v 0.447104454 0.576268911 0.417721063
v 0.448461503 0.575033486 0.410865337
v 0.448999614 0.574804306 0.404179335
v 0.445021093 0.574994922 0.397851825
v 0.444659561 0.575654745 0.394647241
v 0.450909734 0.568399787 0.386642367
v 0.44491747 0.571057975 0.380764097
v 0.448058516 0.56761986 0.373434752
v 0.449951559 0.565719903 0.366380066
v 0.446324527 0.56545651 0.35994038
v 0.448263884 0.563279867 0.356162935
v 0.448793858 0.563056946 0.349408895
v 0.453094631 0.558185637 0.34171319
v 0.444433719 0.564121068 0.336509824
v 0.448725075 0.559252024 0.328786343
v 0.44841665 0.560063422 0.322214931
v 0.449845403 0.558730662 0.315190256
v 0.444046319 0.561130047 0.30928573
v 0.445836008 0.559132159 0.305484414
v 0.453969449 0.549508333 0.29664731
v 0.454181701 0.54967767 0.289897114
v 0.449578464 0.550579965 0.283656955
v 0.450869113 0.549412727 0.27660346
v 0.453588426 0.546478152 0.269140065
v 0.447698891 0.548967302 0.26325652
v 0.452453226 0.543504119 0.255188733
v 0.455031782 0.540739417 0.247715473
v 0.454558641 0.541757226 0.241110161
v 0.458518445 0.542325318 0.237440735
v 0.460061431 0.540851057 0.230235636
v 0.459880829 0.541508615 0.223530158
v 0.456196606 0.541241109 0.216988891
v 0.455570668 0.542449236 0.210413605
v 0.458904415 0.53875488 0.202623874
v 0.463298291 0.533749819 0.194482565
v 0.465097874 0.531957626 0.187121809
v 0.466940761 0.530112743 0.17973268
v 0.46342653 0.529387295 0.176498458
v 0.462862551 0.530521095 0.169860199
v 0.463835359 0.529750407 0.162724718
v 0.463605583 0.53047049 0.15597105
v 0.466884971 0.526843131 0.148060963
v 0.467183322 0.521590292 0.140128657
v 0.467454731 0.521689177 0.133177519
v 0.467366129 0.522235155 0.126342073
v 0.462983847 0.522780359 0.119950876
v 0.466819972 0.518448353 0.111760698
v 0.463087887 0.51817739 0.105134472
v 0.465681106 0.515166938 0.100785986
v 0.462775171 0.513859808 0.0938586444
v 0.463301301 0.513637245 0.0867687613
v 0.459820777 0.512825608 0.0834895521
v 0.458239436 0.509854078 0.0760708973
v 0.454509407 0.509565473 0.069419682
v 0.455818802 0.50813961 0.0654808655
v 0.452696204 0.507085145 0.0585996509
v 0.464607298 0.497992069 0.0483568273
v 0.462500364 0.506252408 0.0467816032
v 0.461748242 0.507625103 0.0401146449
v 0.462605864 0.506986141 0.0328386351
v 0.457498938 0.508402348 0.0266822912
v 0.454119623 0.507443249 0.0233484469
v 0.458140135 0.49718827 0.0171600077
v 0.452468872 0.493653119 0.0135316057
v 0.448700368 0.493379444 0.00684070541
v 0.44864136 0.493878424 -0.000124862141
v 0.452637374 0.494719803 -0.00750752958
v 0.45225957 0.49540931 -0.0108564636
v 0.451503962 0.496788353 -0.0175543334
v 0.449209869 0.50010556 -0.0236295667
v 0.454731733 0.499034196 -0.0316513106
v 0.45365575 0.500816286 -0.0382229276
v 0.459042847 0.499930173 -0.0462141372
v 0.458544195 0.500771761 -0.0495198034
v 0.455713212 0.504754722 -0.0553651638
v 0.45495683 0.506135166 -0.0620697103
v 0.460280091 0.505340576 -0.0700672939
v 0.458213657 0.508360982 -0.0762234628
v 0.457456708 0.509742439 -0.0829330161
v 0.459424049 0.507715702 -0.090818353
v 0.464912236 0.506735802 -0.0989334807
v 0.460416466 0.522966385 -0.0908526778
v 0.460038781 0.523655653 -0.0942003652
v 0.459283471 0.52503413 -0.100895733
v 0.458528131 0.526412666 -0.1075911
v 0.457772791 0.527791202 -0.114286467
v 0.457017481 0.529169738 -0.120981835
v 0.456262141 0.530548275 -0.127677202
v 0.452491134 0.530274451 -0.134372577
v 0.45960027 0.516430438 -0.146019489
v 0.459220856 0.517122924 -0.14938277
v 0.463090122 0.512736857 -0.158236533
v 0.462329745 0.514124513 -0.164976388
v 0.462775528 0.514008701 -0.172277883
v 0.462171167 0.509744883 -0.180519968
v 0.46140939 0.511135221 -0.187272474
v 0.461369902 0.511623859 -0.194368303
v 0.46418348 0.508551657 -0.202833399
v 0.463420302 0.509944499 -0.209598273
v 0.463805258 0.509904742 -0.216919363
v 0.459228545 0.510364234 -0.219745576
v 0.458465397 0.511757076 -0.22651045
v 0.457702219 0.513149917 -0.233275324
v 0.456939042 0.514542758 -0.240040198
v 0.457078993 0.514807403 -0.247255534
v 0.456557274 0.515898764 -0.254144341
v 0.456890076 0.515923083 -0.261466086
v 0.451461613 0.517666161 -0.267416179
v 0.450976938 0.518710732 -0.27432546
v 0.489804655 0.476156533 -0.299878955
v 0.489029258 0.477571666 -0.306752145
v 0.483307064 0.49070105 -0.30944702
v 0.482920676 0.491406232 -0.312871993
v 0.474082023 0.513636053 -0.308675051
v 0.481507629 0.515171766 -0.305742323
v 0.475689799 0.522589624 -0.306322634
v 0.473701328 0.525498807 -0.312478423
v 0.470578879 0.524351239 -0.319639683
v 0.491234452 0.499232292 -0.337780476
v 0.490461111 0.500643671 -0.344635487
v 0.489493191 0.502295911 -0.351386279
v 0.488065869 0.504516423 -0.357888311
v 0.482830346 0.511447847 -0.36232245
v 0.485025644 0.509186268 -0.370779157
v 0.489981234 0.50902307 -0.379074484
v 0.49424541 0.509495378 -0.383359224
v 0.489954025 0.515240669 -0.3882806
v 0.4913463 0.519473135 -0.394621342
v 0.500761926 0.513626158 -0.401769519
v 0.492218584 0.524569929 -0.404305607
v 0.498281062 0.523075402 -0.413250476
v 0.504131854 0.521858215 -0.422093749
v 0.503744543 0.522565007 -0.42552653
v 0.494731545 0.534041345 -0.42772314
v 0.494533598 0.540195405 -0.433137953
v 0.495445043 0.539552033 -0.440935165
v 0.49381274 0.536562204 -0.449053079
v 0.505514622 0.527984798 -0.457668811
v 0.504772127 0.534819305 -0.462767482
v 0.499744654 0.541403353 -0.467154771
v 0.504924238 0.540789723 -0.472025752
v 0.49788928 0.544365227 -0.477022529
v 0.482039422 0.553261042 -0.478604615
v 0.480751514 0.549627483 -0.483304262
v 0.493738025 0.534224451 -0.498341471
v 0.493771136 0.534651577 -0.505695105
v 0.488648295 0.535670698 -0.508143246
v 0.485760301 0.534188986 -0.515603423
v 0.494994462 0.523334265 -0.528568625
v 0.498065174 0.520037293 -0.537823081
v 0.499841571 0.518327951 -0.54630512
v 0.48097983 0.536415994 -0.543956459
v 0.500365794 0.513086557 -0.563375115
v 0.472536147 0.541987717 -0.551653087
v 0.468123376 0.5423823 -0.558169901
v 0.466747582 0.544535935 -0.564649522
v 0.462762892 0.544177294 -0.567755878
v 0.466435581 0.540104389 -0.577445507
v 0.492053926 0.503385782 -0.603221416
v 0.464813888 0.53174293 -0.591436982
v 0.459812254 0.532854021 -0.597596049
v 0.463564426 0.523095191 -0.609449983
v 0.45707044 0.526054144 -0.614647806
v 0.456681341 0.526764274 -0.618096709
v 0.478044927 0.495008081 -0.641689837
v 0.454471856 0.519031465 -0.631875753
v 0.477754325 0.490409017 -0.654835582
v 0.473820627 0.490123361 -0.661819756
v 0.473032713 0.491561353 -0.66880393
v 0.469099045 0.491275698 -0.675788105
v 0.482535303 0.47489512 -0.692464948
v 0.46477139 0.491709054 -0.686264336
v 0.460837722 0.491423398 -0.69324851
v 0.460894555 0.491799474 -0.700816631
v 0.457336605 0.490815818 -0.704298258
v 0.460897267 0.486778349 -0.71431607
v 0.464889884 0.482198685 -0.72466445
v 0.456392944 0.487646043 -0.72847569
v 0.460148185 0.483355939 -0.738692164
v 0.455994099 0.483326346 -0.745561063
v 0.455802143 0.483791113 -0.74921298
v 0.456818491 0.482952207 -0.757522345
v 0.465565592 0.478091836 -0.769126654
v 0.464771569 0.479540974 -0.776165009
v 0.463977545 0.480990142 -0.783203423
v 0.463183522 0.482439309 -0.790241838
v 0.462389499 0.483888447 -0.797280192
v 0.464765638 0.487074643 -0.804318607
v 0.463971615 0.488523781 -0.811356962
v 0.463177592 0.489972949 -0.818395376
v 0.457842588 0.491186082 -0.820600569
v 0.461986542 0.492146671 -0.828952909
v 0.464362711 0.495332837 -0.835991323
v 0.463965714 0.496057421 -0.8395105
v 0.462365478 0.498517066 -0.84594214
v 0.464740843 0.50170213 -0.85297811
v 0.467713505 0.509597778 -0.854256332
v 0.474163502 0.507016659 -0.852914453
v 0.480898321 0.509765089 -0.849396586
v 0.483670443 0.512225807 -0.852914453
v 0.50538516 0.496523798 -0.860559762
v 0.508973539 0.497542232 -0.857019722
v 0.509772241 0.496084511 -0.849939704
v 0.516948879 0.498121381 -0.842859626
v 0.520537257 0.499139816 -0.839319587
v 0.526915193 0.502634466 -0.839319587
v 0.533293128 0.506129086 -0.839319587
v 0.539671004 0.509623706 -0.839319587
v 0.545649588 0.513847172 -0.842859626
v 0.548439205 0.516323388 -0.846399665
v 0.54099679 0.536862373 -0.844007075
v 0.54337424 0.540050328 -0.851049364
v 0.542977035 0.540775299 -0.854570508
v 0.545354486 0.543963253 -0.861612797
v 0.544560015 0.545413196 -0.868655086
v 0.548093677 0.541706204 -0.87889874
v 0.540196419 0.545850158 -0.879218519
v 0.543722272 0.542143941 -0.889480948
v 0.532263577 0.545274079 -0.893303037
v 0.528297126 0.544986069 -0.900345325
v 0.523226082 0.551318824 -0.900332093
v 0.508835018 0.563569963 -0.899428368
v 0.502266943 0.566446126 -0.904418409
v 0.504942238 0.563470244 -0.910265386
v 0.499515623 0.56497407 -0.916121423
v 0.495970339 0.563967884 -0.919618964
v 0.492030501 0.563681781 -0.926614046
v 0.475287467 0.573155642 -0.922266424
v 0.473539084 0.569984853 -0.927145183
v 0.467557818 0.566417098 -0.931174815
v 0.488306761 0.530060709 -0.956351042
v 0.48790884 0.530786872 -0.959878206
v 0.490905523 0.527589321 -0.969950438
v 0.482554555 0.532669783 -0.973518372
v 0.482118815 0.533679843 -0.980860054
v 0.478146017 0.533391356 -0.987913609
v 0.47350803 0.533687055 -0.99057889
v 0.469310462 0.533443749 -0.993596494
v 0.462960929 0.529964685 -0.993596494
v 0.456346214 0.526815653 -0.993379712
v 0.450473607 0.522513151 -0.989920199
v 0.445372283 0.517469287 -0.99094373
v 0.441219777 0.51121819 -0.992753327
v 0.439784139 0.507051766 -0.9903301
v 0.438685924 0.50222832 -0.984321952
v 0.440343171 0.493906111 -0.980561137
v 0.440742463 0.493177384 -0.977021754
v 0.443318754 0.489466637 -0.971387684
v 0.445210874 0.486622512 -0.965188146
v 0.446010441 0.485163242 -0.958100677
v 0.429010183 0.506276011 -0.936725199
v 0.421008825 0.504487276 -0.927720785
v 0.417189181 0.503371477 -0.923365653
v 0.411655188 0.49845925 -0.916342974
v 0.411573976 0.49255541 -0.914978445
v 0.409200341 0.489372641 -0.90794754
v 0.406430125 0.486913651 -0.904432058
v 0.403060198 0.485017806 -0.896609843
v 0.401581973 0.480889082 -0.894120455
v 0.399787188 0.476954639 -0.887547016
v 0.398382336 0.472510129 -0.881278694
v 0.396006793 0.469324768 -0.874242067
v 0.394856781 0.470615566 -0.869509101
v 0.393060297 0.4666785 -0.862929404
v 0.391255677 0.462954044 -0.860168934
v 0.38896215 0.465544552 -0.850727201
v 0.386589795 0.462363511 -0.843700171
v 0.386633307 0.456008375 -0.838544071
v 0.384613842 0.458459049 -0.833159566
v 0.384655237 0.45209977 -0.82799232
v 0.379848659 0.458026379 -0.816661716
v 0.383506507 0.446896136 -0.814254105
v 0.378759533 0.452760607 -0.802999139
v 0.378026247 0.453328699 -0.794824302
v 0.376589119 0.448922276 -0.788513839
v 0.376984924 0.448199928 -0.785005391
v 0.377776533 0.446755201 -0.777988553
v 0.375790507 0.448986024 -0.768895745
v 0.375560045 0.448894441 -0.76112777
v 0.376350313 0.447452128 -0.754122734
v 0.377140582 0.446009845 -0.747117639
v 0.37793085 0.444567531 -0.740112543
v 0.378721148 0.443125248 -0.733107448
v 0.375117123 0.447502404 -0.72290659
v 0.375905871 0.446062893 -0.715915084
v 0.37669459 0.444623411 -0.708923578
v 0.377483338 0.443183899 -0.701932073
v 0.378272086 0.441744417 -0.694940627
v 0.379060805 0.440304905 -0.687949121
v 0.376327336 0.449415445 -0.676246047
v 0.377611637 0.447321504 -0.669625044
v 0.37839824 0.445885926 -0.662652612
v 0.379184812 0.444450349 -0.65568012
v 0.379971415 0.443014771 -0.648707688
v 0.37794444 0.451165587 -0.637634695
v 0.378336698 0.450449675 -0.634157598
v 0.380301654 0.447458148 -0.628010511
v 0.381086588 0.44602561 -0.621052742
v 0.385195166 0.440200299 -0.616345406
v 0.384607077 0.44643864 -0.606340885
v 0.385803938 0.444462776 -0.59966284
v 0.387360215 0.442012489 -0.593221486
v 0.387369692 0.447446525 -0.583675325
v 0.388814867 0.445144862 -0.577165365
v 0.390941739 0.447778076 -0.569048047
v 0.391333342 0.447063386 -0.565576851
v 0.392116547 0.445633978 -0.5586344
v 0.396026731 0.445917934 -0.551692009
v 0.39099896 0.457915187 -0.539016545
v 0.391389042 0.457203269 -0.535558939
v 0.396171004 0.450533956 -0.531190932
v 0.39695251 0.449107647 -0.524263501
v 0.388869226 0.465074509 -0.509795368
v 0.38964662 0.46365568 -0.502904296
v 0.390424043 0.462236851 -0.496013165
v 0.391201466 0.460818022 -0.489122033
v 0.39197886 0.459399194 -0.482230902
v 0.387227446 0.465220243 -0.47195071
v 0.393112153 0.451341122 -0.470086426
v 0.393501341 0.450630873 -0.466636807
v 0.391756535 0.452521831 -0.458209246
v 0.391950458 0.446087182 -0.452838331
v 0.385338038 0.454388022 -0.441504002
v 0.383016407 0.451274961 -0.434627116
v 0.383792192 0.449859053 -0.42775026
v 0.381082654 0.447453946 -0.424311817
v 0.381858468 0.446038067 -0.417434961
v 0.384632975 0.436178923 -0.41355443
v 0.316421777 0.520642579 -0.371652812
v 0.30479157 0.524796605 -0.368355334
v 0.2976771 0.522972167 -0.367705703
v 0.287805051 0.525041282 -0.368973523
v 0.274979144 0.530946076 -0.36491102
v 0.268621981 0.528351784 -0.368231624
v 0.262037426 0.525891006 -0.367870271
v 0.258808643 0.524750769 -0.371271998
v 0.239025891 0.540318966 -0.36293
v 0.232711121 0.537741959 -0.366228461
v 0.226396337 0.535164952 -0.369526893
v 0.216304034 0.543355167 -0.365168691
v 0.199938104 0.554728627 -0.362257063
v 0.193218261 0.552807212 -0.365245968
v 0.187325418 0.549578369 -0.365245968
v 0.184009999 0.54863739 -0.368516773
v 0.176587969 0.547554433 -0.367561072
v 0.168679804 0.547326863 -0.369791865
v 0.167017817 0.544060647 -0.374097824
v 0.144050822 0.565037549 -0.363289058
v 0.13782391 0.562536538 -0.366516232
v 0.126572058 0.567068815 -0.363061547
v 0.12329559 0.566138864 -0.366293907
v 0.117471971 0.562947929 -0.366293907
v 0.11128369 0.560422599 -0.369526267
v 0.105095416 0.55789721 -0.372758657
v 0.084218435 0.576599181 -0.362944871
v 0.0790064409 0.572735965 -0.366762012
v 0.0750105008 0.57276839 -0.366036594
v 0.0655005276 0.575083137 -0.363579661
v 0.0593714491 0.572581947 -0.366781116
v 0.0536035411 0.569421589 -0.366781116
v 0.0503584184 0.568500519 -0.36998257
v 0.0445905067 0.565340161 -0.36998257
v 0.0384614319 0.562838912 -0.373184025
v 0.031521827 0.561438739 -0.37239337
v 0.0157822389 0.573440731 -0.369068474
v 0.0100123901 0.570350409 -0.369045019
v -0.00251406594 0.577536166 -0.364408463
v -0.00340854353 0.573087037 -0.369171411
v -0.0129708704 0.575829029 -0.366530299
v -0.0190384332 0.573352873 -0.369699627
v -0.0263105799 0.572634518 -0.368615925
v -0.0327624604 0.570763767 -0.371510863
v -0.0356144756 0.569201112 -0.371510863
v -0.0446121804 0.571210682 -0.369202167
v -0.0493154004 0.566632569 -0.373312235
v 0.646403611 -0.530726612 -0.871271968
v 0.649353147 -0.526771545 -0.880008817
v 0.652138829 -0.514401972 -0.881115973
v 0.655574977 -0.511351824 -0.88547647
v 0.648689449 -0.50037694 -0.88997972
v 0.651626885 -0.496438175 -0.898680508
v 0.643274903 -0.49155876 -0.900191545
v 0.642294824 -0.489770114 -0.908878803
v 0.635295391 -0.486973435 -0.911334813
v 0.638044119 -0.490995288 -0.922736943
v 0.625611305 -0.479581505 -0.92588377
v 0.609215081 -0.470138401 -0.928903282
v 0.600867152 -0.465267897 -0.925592899
v 0.602908254 -0.484759837 -0.942290425
v 0.594426692 -0.479536116 -0.943543971
v 0.604748964 -0.495616406 -0.960728228
v 0.603044331 -0.492682397 -0.968863785
v 0.602064729 -0.490894556 -0.977547288
v 0.595780551 -0.48904255 -0.985160232
v 0.595418334 -0.488350779 -0.989597559
v 0.582665265 -0.484670579 -0.990494192
v 0.573049664 -0.486053377 -0.989086866
v 0.565797627 -0.49120307 -0.989512861
v 0.560318351 -0.499216318 -0.991327703
v 0.558258891 -0.512896419 -0.99110949
v 0.553763092 -0.505824387 -0.978160024
v 0.553813457 -0.506108105 -0.968775094
v 0.554790735 -0.507891774 -0.960111916
v 0.554871798 -0.508224964 -0.950761259
v 0.55145967 -0.511253655 -0.946431279
v 0.544632554 -0.508828998 -0.934790134
v 0.54122597 -0.51185286 -0.930467069
v 0.529248297 -0.509451389 -0.917887866
v 0.524123073 -0.509729207 -0.907581031
v 0.524600685 -0.510602415 -0.903264642
v 0.517722487 -0.49950397 -0.888732612
v 0.50920707 -0.485719621 -0.873034775
v 0.506317973 -0.489593595 -0.864477038
v 0.505762756 -0.488856345 -0.854789913
v -0.133830175 0.556003571 -0.375076503
v -0.137325332 0.555561304 -0.374579996
v -0.142973751 0.552466393 -0.374579996
v -0.158216164 0.565345168 -0.36742273
v -0.161754265 0.558844566 -0.37236467
v -0.174349353 0.567467809 -0.367117226
v -0.180984527 0.566140354 -0.366337061
v -0.186583459 0.563072503 -0.366337061
v -0.191507131 0.558899105 -0.370226771
v -0.198131919 0.557576776 -0.369444728
v -0.203730866 0.554508984 -0.369444728
v -0.211168453 0.554611087 -0.368029028
v -0.215279326 0.549013257 -0.372552395
v -0.218078792 0.547479331 -0.372552395
v -0.22367774 0.54441154 -0.372552395
v -0.229276672 0.541343749 -0.372552395
v -0.243251503 0.55300647 -0.365987688
v -0.250146002 0.552293003 -0.364946485
v -0.255712003 0.549243271 -0.364946485
v -0.261626571 0.546829581 -0.368035883
v -0.267192602 0.54377979 -0.368035883
v -0.272758633 0.540730059 -0.368035883
v -0.278324634 0.537680268 -0.368035883
v -0.283913642 0.534672201 -0.368017405
v -0.290122151 0.53279388 -0.367498398
v -0.292588234 0.530691981 -0.371125281
v -0.298154265 0.52764219 -0.371125281
v -0.307631582 0.531804323 -0.367929876
v -0.315248013 0.532585502 -0.366237581
v -0.322243214 0.532245874 -0.365044385
v -0.328129947 0.529843569 -0.36811924
v -0.333669782 0.526808143 -0.36811924
v -0.34007737 0.525409937 -0.367395729
v -0.34759739 0.526111066 -0.369095832
v -0.350999951 0.525806308 -0.368560374
v -0.357351422 0.524347842 -0.367866218
v -0.364290327 0.523998439 -0.370027244
v -0.371866494 0.524931133 -0.368277133
v -0.377725989 0.522539973 -0.371337771
v -0.385885119 0.524662435 -0.369062215
v -0.388982058 0.523783445 -0.37211749
v -0.39483124 0.521396458 -0.375172734
v -0.402762115 0.523155391 -0.373054951
v -0.405759305 0.522091091 -0.376188189
v -0.412258536 0.521014452 -0.378657043
v -0.420868486 0.524096906 -0.382593483
v -0.42395404 0.523221135 -0.385637552
v -0.428847313 0.525963128 -0.387058139
v -0.43397373 0.529128253 -0.391599745
v -0.434658885 0.530378699 -0.39767319
v -0.444698125 0.543504596 -0.394354343
v -0.444894403 0.543772519 -0.400844157
v -0.445011854 0.543881714 -0.407411188
v -0.449466139 0.545746326 -0.41248703
v -0.450148016 0.546990812 -0.418531269
v -0.449783355 0.546125054 -0.425557107
v -0.454234153 0.547988057 -0.430619717
v -0.453941733 0.547262967 -0.437588662
v -0.453393102 0.546019793 -0.444811076
v -0.458030671 0.548260927 -0.449685335
v -0.458235353 0.548607051 -0.452840865
v -0.457827002 0.547641814 -0.459944934
v -0.455038846 0.541852951 -0.469372511
v -0.460546643 0.54585129 -0.473395497
v -0.459141254 0.54285419 -0.48150906
v -0.450894982 0.525955915 -0.496401608
v -0.462901354 0.543230712 -0.490611464
v -0.45994544 0.537063897 -0.500309587
v -0.455367535 0.527592003 -0.511667311
v -0.451842457 0.52026403 -0.522015274
v -0.460692704 0.531044483 -0.522666872
v -0.459833652 0.529140115 -0.530343294
v -0.454450399 0.517994225 -0.542662084
v -0.449525684 0.507783651 -0.554567754
v -0.448573083 0.505686343 -0.562426329
v -0.446468592 0.501235425 -0.571495473
v -0.445208967 0.498510003 -0.57971108
v -0.445906758 0.499783516 -0.585896432
v -0.44660455 0.501057029 -0.592081785
v -0.447302341 0.502330542 -0.598267138
v -0.448000133 0.503604114 -0.60445255
v -0.448697925 0.504877627 -0.610637903
v -0.449395716 0.50615114 -0.616823256
v -0.449207276 0.505613387 -0.623961926
v -0.444073647 0.494967908 -0.636452675
v -0.439901203 0.486285895 -0.64795661
v -0.439592838 0.485501468 -0.655295014
v -0.440296769 0.486786187 -0.661534727
v -0.440961719 0.487991184 -0.667817295
v -0.441665649 0.489275932 -0.674057186
v -0.44236961 0.490560681 -0.680297017
v -0.443073541 0.491845429 -0.686536908
v -0.443777502 0.493130177 -0.692776799
v -0.443503588 0.492415339 -0.700115979
v -0.441940248 0.489063442 -0.708920717
v -0.439774096 0.484478235 -0.718431175
v -0.439976871 0.484737337 -0.725271761
v -0.44068405 0.486027986 -0.731540322
v -0.44139123 0.487318635 -0.737808883
v -0.440610558 0.485565901 -0.745793819
v -0.439069301 0.482256919 -0.754674554
v -0.439227313 0.482423723 -0.761600375
v -0.439936608 0.483718216 -0.767887533
v -0.440270483 0.484244704 -0.774615169
v -0.440749019 0.48506701 -0.78117609
v -0.444896281 0.48605004 -0.786749125
v -0.445605546 0.487344533 -0.793036282
v -0.445940942 0.487871945 -0.799770415
v -0.446650386 0.489166766 -0.806059241
v -0.445280969 0.486196309 -0.814853787
v -0.445991457 0.487492979 -0.821151674
v -0.446701944 0.488789678 -0.82744956
v -0.45260641 0.49338156 -0.830865324
v -0.452675551 0.493441433 -0.834358931
v -0.453332126 0.494627416 -0.840712845
v -0.4540416 0.495922297 -0.84700191
v -0.454751104 0.497217149 -0.853290915
v -0.459628761 0.499714881 -0.857913792
v -0.460337579 0.50100857 -0.864196956
v -0.461046427 0.502302229 -0.87048012
v -0.461755246 0.503595889 -0.876763284
v -0.465205461 0.510545909 -0.87957108
v -0.468434364 0.509748578 -0.88264221
v -0.469141811 0.511039674 -0.888913035
v -0.469849259 0.51233083 -0.895183861
v -0.473414272 0.51953423 -0.8977741
v -0.479182035 0.523930907 -0.901126087
v -0.479081184 0.52354598 -0.908422351
v -0.482192755 0.529825211 -0.911531866
v -0.482896835 0.531110168 -0.917773008
v -0.486535192 0.531111181 -0.923851609
v -0.487239212 0.532396019 -0.930092156
v -0.495789886 0.542735159 -0.926051497
v -0.502005339 0.54815644 -0.928639293
v -0.508818328 0.554954827 -0.926817477
v -0.514047086 0.558366716 -0.930651128
v -0.52062726 0.564744234 -0.929067373
v -0.503657639 0.52129966 -0.963103056
v -0.508167148 0.52313143 -0.968008459
v -0.503706217 0.521097243 -0.973873794
v -0.507232845 0.520841122 -0.980135262
v -0.511648059 0.52247268 -0.985163927
v -0.512001038 0.523116887 -0.988292634
v -0.519391298 0.531095862 -0.989144683
v -0.527876794 0.533927262 -0.992339492
v -0.530682802 0.53238982 -0.992339492
v -0.537514985 0.531831086 -0.994220138
v -0.543123424 0.528758109 -0.994220138
v -0.545310259 0.526001632 -0.991487086
v -0.550919831 0.522928059 -0.991487086
v -0.555139422 0.516930282 -0.989865482
v -0.556031287 0.511305094 -0.98899579
v -0.557267368 0.51429522 -0.979979992
v -0.555258334 0.502390087 -0.979625404
v -0.557324111 0.507223964 -0.969432116
v -0.556620538 0.505939901 -0.963195622
v -0.573804796 0.536506474 -0.935616374
v -0.577282369 0.536677301 -0.931049585
v -0.582484603 0.533002257 -0.927969217
v -0.583869815 0.528515756 -0.926367939
v -0.584188104 0.513842165 -0.930238843
v -0.59172225 0.515369833 -0.923853159
v -0.595119298 0.515392423 -0.919390857
v -0.599072874 0.516847372 -0.910555959
v -0.598706663 0.516326487 -0.903924823
v -0.59811759 0.515298843 -0.897612095
v -0.597316206 0.51378876 -0.891599357
v -0.593633056 0.505730927 -0.889624238
v -0.591848671 0.509670079 -0.884656668
v -0.588662207 0.502757072 -0.881948292
v -0.584404707 0.501258016 -0.876837194
v -0.581269443 0.502147913 -0.87374413
v -0.575446606 0.504785836 -0.870516002
v -0.572660446 0.50631243 -0.870516002
v -0.568081737 0.511574864 -0.869165957
v -0.543479562 0.464989811 -0.891510308
v -0.539942563 0.465246677 -0.885230482
v -0.533292651 0.450814784 -0.886894345
v -0.531137109 0.454153836 -0.878730357
v -0.529384255 0.450423419 -0.877433062
v -0.527975678 0.447587788 -0.872046113
v -0.52512008 0.449382722 -0.864817977
v -0.523709297 0.446546555 -0.859424531
v -0.521300673 0.441516608 -0.855323017
v -0.519911051 0.438727617 -0.849882066
v -0.519086957 0.44485563 -0.843647599
v -0.517614961 0.441889822 -0.838314354
v -0.516056597 0.438734919 -0.833083749
v -0.515088201 0.436873645 -0.827091634
v -0.514074564 0.434913278 -0.821154296
v -0.513361454 0.4336119 -0.814833522
v -0.512648404 0.432310492 -0.808512807
v -0.511935353 0.431009084 -0.802192032
v -0.511910856 0.431216568 -0.795010984
v -0.515018284 0.446042001 -0.780418038
v -0.514579535 0.445338637 -0.773796618
v -0.5163185 0.44939363 -0.764497101
v -0.510408342 0.428967118 -0.768084347
v -0.510471463 0.429365307 -0.760824919
v -0.513779402 0.43686983 -0.749621511
v -0.513069868 0.435574859 -0.743332088
v -0.512885213 0.435429215 -0.736408889
v -0.514926553 0.440157324 -0.726814806
v -0.528169632 0.46940881 -0.7038396
v -0.531396389 0.476727843 -0.692947805
v -0.53277266 0.479994714 -0.684292793
v -0.514921308 0.433441401 -0.701717079
v -0.520721018 0.446298659 -0.691309869
v -0.535041749 0.477980316 -0.667390525
v -0.536415517 0.481251448 -0.658788085
v -0.533428311 0.467309117 -0.658542633
v -0.537802041 0.477189273 -0.64645189
v -0.540477455 0.483332694 -0.636380255
v -0.535100818 0.463983208 -0.642335057
v -0.54844451 0.493662924 -0.619962811
v -0.550605536 0.498688161 -0.610566556
v -0.555013299 0.501102746 -0.601771891
v -0.554087639 0.491728604 -0.599079847
v -0.555596292 0.495339185 -0.590467215
v -0.560979784 0.499954402 -0.580596089
v -0.560636342 0.4993276 -0.577551782
v -0.566684902 0.505459547 -0.566957831
v -0.564964294 0.501904368 -0.562050819
v -0.5696311 0.504990995 -0.553045392
v -0.569282651 0.50435245 -0.550021052
v -0.565987229 0.497278035 -0.546863258
v -0.566869199 0.491913587 -0.54208523
v -0.567016482 0.484888822 -0.538113594
v -0.56667304 0.48426196 -0.535068989
v -0.567531168 0.478813738 -0.530298531
v -0.556279004 0.453816414 -0.535782754
v -0.558036506 0.450322062 -0.529985189
v -0.558902204 0.452568799 -0.522144139
v -0.56097436 0.449790299 -0.516006291
v -0.561695099 0.451567918 -0.511782527
v -0.5637483 0.448752493 -0.505668283
v -0.563724101 0.449001193 -0.49881804
v -0.565793514 0.446226269 -0.492688179
v -0.565447748 0.445595235 -0.489623219
v -0.564977884 0.44483608 -0.483257622
v -0.566825688 0.441558212 -0.477363467
v -0.566355586 0.440799743 -0.470999897
v -0.566778302 0.442071617 -0.463701099
v -0.56805563 0.437498361 -0.45840463
v -0.568687677 0.439253271 -0.450898588
v -0.569093704 0.440492451 -0.44364056
v -0.569001615 0.440595835 -0.436907738
v -0.569718361 0.43459183 -0.435595572
v -0.569027781 0.433331519 -0.429474384
v -0.568399429 0.432213336 -0.423289657
v -0.568743527 0.43331635 -0.416118085
v -0.568053544 0.432057083 -0.410001963
v -0.56736356 0.430797815 -0.403885841
v -0.566673577 0.429538548 -0.397769749
v -0.56494683 0.425912082 -0.392685086
v -0.56425631 0.424651831 -0.386564165
v -0.562910974 0.429688424 -0.378377885
v -0.562221527 0.42843017 -0.37226668
v -0.559427798 0.422381669 -0.368201435
v -0.557366252 0.418000787 -0.363406479
v -0.556179702 0.407641232 -0.363823324
v -0.548450768 0.382434577 -0.367124557
v -0.543294251 0.362851351 -0.371343464
v -0.545083404 0.351315439 -0.368115753
v -0.545060456 0.343399674 -0.367381275
v -0.550338507 0.339671046 -0.364255995
v -0.549609303 0.330051541 -0.364201844
v -0.547987282 0.310132384 -0.3677302
v -0.552961171 0.305565298 -0.364913464
v -0.555443287 0.303362042 -0.361763626
v -0.552011967 0.278657168 -0.370584369
v -0.557368159 0.274873376 -0.367412865
v -0.559867322 0.27265498 -0.364241391
v -0.565312386 0.268878132 -0.364503205
v -0.56262511 0.245662481 -0.369177282
v -0.568015158 0.241854772 -0.365985751
v -0.573765218 0.238704175 -0.365985751
v -0.576280177 0.236471757 -0.36279422
v -0.574124217 0.213865444 -0.370581448
v -0.579546928 0.210034639 -0.367370546
v -0.580387473 0.194565922 -0.372270405
v -0.583943427 0.185754552 -0.374511033
v -0.588248134 0.18791081 -0.369530886
v -0.58874929 0.17134434 -0.374835461
v -0.5941149 0.166963384 -0.375304639
v -0.599584579 0.163099363 -0.372065902
v -0.597623765 0.139919937 -0.379941404
v -0.603494406 0.136703283 -0.379941404
v -0.608997405 0.132815748 -0.376682937
v -0.611932695 0.131207421 -0.376682937
v -0.610835314 0.109780706 -0.383816242
v -0.616738141 0.10654638 -0.383816242
v -0.6187132 0.0929311886 -0.387874782
v -0.619387209 0.0757402033 -0.39332211
v -0.621782422 0.0629913285 -0.397025555
v -0.627745032 0.0597242713 -0.397025555
v -0.637294352 0.0664815307 -0.389557958
v -0.641989112 0.0598287657 -0.390875697
v -0.632331252 0.0135433879 -0.411166489
v -0.638357818 0.010241285 -0.411166489
v -0.644384384 0.00693918299 -0.411166489
v -0.63904506 -0.0279943421 -0.4234263
v -0.642336249 -0.0391392782 -0.426451385
v -0.648431957 -0.042479258 -0.426451385
v -0.655301213 -0.043628104 -0.425604582
v -0.661479115 -0.0467209294 -0.425509959
v -0.667570531 -0.0500585735 -0.425509959
v -0.671077609 -0.0608481765 -0.428381681
v -0.669523358 -0.0864091218 -0.436934799
v -0.671194077 -0.0917502344 -0.43465957
v -0.679708302 -0.0881944448 -0.43200466
v -0.675821722 -0.12063545 -0.439438999
v -0.568566918 -0.460530579 -0.57191509
v -0.568990827 -0.459756851 -0.575673103
v -0.563093305 -0.466282368 -0.587020934
v -0.564349234 -0.463531464 -0.594090581
v -0.567309022 -0.455743313 -0.599189937
v -0.568997145 -0.451712042 -0.605736852
v -0.562883258 -0.458854973 -0.617412984
v -0.563733459 -0.457303286 -0.624949276
v -0.564583659 -0.455751628 -0.632485628
v -0.565649807 -0.453562826 -0.639766574
v -0.566904962 -0.450815797 -0.646820009
v -0.568234146 -0.447849602 -0.653779626
v -0.562869132 -0.452274978 -0.660412073
v -0.563330054 -0.451870352 -0.668424785
v -0.563925683 -0.451069593 -0.676279724
v -0.564777136 -0.449515641 -0.683827102
v -0.565628588 -0.447961688 -0.691374481
v -0.565892279 -0.448139876 -0.699643731
v -0.564160228 -0.454202086 -0.710384727
v -0.565013707 -0.452644408 -0.717950284
v -0.565867186 -0.4510867 -0.725515842
v -0.566720724 -0.449529022 -0.7330814
v -0.567574203 -0.447971314 -0.740646899
v -0.568427682 -0.446413636 -0.748212457
v -0.568627775 -0.446785003 -0.756610453
v -0.569465876 -0.44527328 -0.764200032
v -0.568905115 -0.447893232 -0.773590267
v -0.56856811 -0.449854255 -0.782709718
v -0.569292486 -0.44868052 -0.790464759
v -0.567466438 -0.45504576 -0.801554799
v -0.56832391 -0.45348084 -0.809155405
v -0.572604775 -0.453791708 -0.81675601
v -0.573462188 -0.452226788 -0.824356616
v -0.571353257 -0.4594661 -0.835923135
v -0.578171849 -0.451755196 -0.835757554
v -0.576212704 -0.458578825 -0.847161889
v -0.582428277 -0.453136533 -0.852158844
v -0.581362128 -0.457322091 -0.862395883
v -0.586091876 -0.455810934 -0.865009546
v -0.586081862 -0.456849486 -0.873821378
v -0.590371966 -0.457161009 -0.881438375
v -0.59466207 -0.457472533 -0.889055371
v -0.595338821 -0.468733698 -0.901777387
v -0.595769703 -0.467947364 -0.905596554
v -0.607102752 -0.459191293 -0.908097863
v -0.611771405 -0.457813293 -0.910744131
v -0.619099319 -0.461199045 -0.918920159
v -0.619516015 -0.472936809 -0.927754521
v -0.621305168 -0.480488688 -0.934625983
v -0.620502412 -0.496707886 -0.949831247
v -0.621368706 -0.495126873 -0.957510114
v -0.62155813 -0.495653957 -0.966199577
v -0.622424841 -0.49407208 -0.973882556
v -0.623291612 -0.492490202 -0.981565535
v -0.629285514 -0.487592548 -0.986717582
v -0.634091198 -0.485819072 -0.989154398
v -0.637977064 -0.486921966 -0.99298799
v -0.646551609 -0.485421389 -0.990415156
v -0.653881013 -0.48841247 -0.994243562
v -0.656897902 -0.491090387 -0.990415156
v -0.662879288 -0.497821003 -0.991848409
v -0.66952014 -0.502452374 -0.992260456
v -0.673823655 -0.514101803 -0.99185133
v -0.67328614 -0.514610291 -0.983657002
v -0.676105499 -0.517338932 -0.975623548
v -0.675672591 -0.518128991 -0.97178632
v -0.674821734 -0.519660354 -0.964088619
v -0.673955917 -0.521240473 -0.956414223
v -0.68718797 -0.489810407 -0.932282984
v -0.692425013 -0.498899281 -0.934795618
v -0.699371576 -0.501733303 -0.930184245
v -0.704660237 -0.510091424 -0.928163409
v -0.708092928 -0.511972249 -0.928163409
v -0.714098573 -0.517303169 -0.920542181
v -0.714568794 -0.515046954 -0.915320039
v -0.717139721 -0.518494368 -0.907704711
v -0.716717005 -0.518583894 -0.899409652
v -0.715858221 -0.520151258 -0.891797125
v -0.707252741 -0.534407675 -0.890824199
v -0.70554775 -0.538824022 -0.884473562
v -0.702087402 -0.535668314 -0.875543177
v -0.700891495 -0.53902477 -0.872881234
v -0.693141758 -0.53682524 -0.865235806
v -0.688418806 -0.538544476 -0.86267662
v -0.681362569 -0.547973275 -0.863561869
v -0.674876392 -0.542157471 -0.858466864
v -0.666810811 -0.541540861 -0.85569483
v -0.661803007 -0.531581283 -0.852937937
v -0.655050516 -0.527329147 -0.852726936
v -0.648152471 -0.523549557 -0.852726936
v -0.652053833 -0.485394239 -0.837332189
v -0.649578333 -0.479950488 -0.831591427
v -0.648596942 -0.481911182 -0.824186563
v -0.645851254 -0.476780117 -0.814467609
v -0.644996822 -0.478339553 -0.806893528
v -0.646270156 -0.473178446 -0.796370685
v -0.645444334 -0.474649519 -0.788772166
v -0.644591331 -0.476206243 -0.781211317
v -0.643738389 -0.477762997 -0.773650408
v -0.643278241 -0.478080422 -0.765556157
v -0.643576562 -0.476006567 -0.756442964
v -0.643395305 -0.47544682 -0.74799031
v -0.643459439 -0.474114865 -0.73921901
v -0.646005571 -0.477528989 -0.731677115
v -0.645580173 -0.478305399 -0.727906227
v -0.64493984 -0.479193032 -0.720085859
v -0.646027148 -0.474623561 -0.709995091
v -0.648568869 -0.478031754 -0.702466249
v -0.649195075 -0.474908292 -0.693010986
v -0.652015567 -0.47741732 -0.685124218
v -0.651292205 -0.47856918 -0.677444518
v -0.653830051 -0.481972188 -0.66992718
v -0.653406024 -0.482746065 -0.666168451
v -0.653522968 -0.481221706 -0.657414675
v -0.655138373 -0.487561047 -0.651079357
v -0.657633722 -0.491099894 -0.643616319
v -0.658171058 -0.488795698 -0.638635933
v -0.658472478 -0.48666504 -0.629672527
v -0.663147748 -0.495902538 -0.623733044
v -0.662755966 -0.496572942 -0.619936705
v -0.664266169 -0.490530103 -0.609470189
v -0.666045725 -0.496350527 -0.602911949
v -0.668275237 -0.487967461 -0.591587663
v -0.670934618 -0.49092415 -0.583939612
v -0.670090556 -0.492464721 -0.576457322
v -0.673038602 -0.495081574 -0.572716177
v -0.675647616 -0.498198539 -0.565131903
v -0.676453173 -0.494370073 -0.555635393
v -0.679396987 -0.496983171 -0.551899612
v -0.676758707 -0.491570204 -0.542527139
v -0.675517261 -0.494406372 -0.535546303
v -0.67530936 -0.493881255 -0.527322888
v -0.674090147 -0.496644497 -0.520311654
v -0.672514439 -0.50056535 -0.513716817
v -0.674126804 -0.494128913 -0.503363013
v -0.676918983 -0.496602267 -0.495586902
v -0.680614889 -0.496723235 -0.490970582
v -0.681001723 -0.507064879 -0.48600933
v -0.681886554 -0.502944291 -0.476545811
v -0.680411875 -0.506555855 -0.469829708
v -0.684127212 -0.493171334 -0.457150877
v -0.687382102 -0.494684726 -0.453060657
v -0.6856668 -0.499095887 -0.446639419
v -0.683668375 -0.478922099 -0.432981223
v -0.686581433 -0.481507868 -0.429284483
v -0.688590944 -0.473730087 -0.418708026
v -0.688174903 -0.474489421 -0.415020049
v -0.688331127 -0.472777098 -0.406548083
v -0.680370986 -0.484884202 -0.403364539
v -0.676206887 -0.484581828 -0.395971328
v -0.675174654 -0.487339735 -0.392942667
v -0.680621922 -0.481085747 -0.382354349
v -0.678970456 -0.472660422 -0.372290671
v -0.677060425 -0.477676213 -0.366076618
v -0.676817119 -0.477287143 -0.358083963
v -0.679073215 -0.481372476 -0.350960732
v -0.675271928 -0.480529666 -0.347346932
v -0.680421233 -0.475215852 -0.337199301
v -0.683293343 -0.477867842 -0.333548993
v -0.676959991 -0.484687984 -0.328463316
v -0.670579493 -0.492198586 -0.327501148
v -0.668433607 -0.497968197 -0.321459979
v -0.663466692 -0.512861967 -0.318262011
v -0.662439525 -0.515005231 -0.31103918
v -0.660378516 -0.520491123 -0.304848403
v -0.651363194 -0.524306774 -0.307165384
v -0.647774875 -0.511274457 -0.308210403
v -0.642489254 -0.503170133 -0.306827664
v -0.635180831 -0.513335049 -0.306608319
v -0.628484011 -0.509665728 -0.306608319
v -0.652291238 -0.421681345 -0.272088498
v -0.651471198 -0.423177987 -0.264819384
v -0.650651157 -0.42467466 -0.257550299
v -0.65398556 -0.413170069 -0.246342868
v -0.65089947 -0.4338108 -0.244320139
v -0.649323046 -0.438218474 -0.241778269
v -0.6463902 -0.434262335 -0.233404234
v -0.64931953 -0.436074734 -0.225688621
v -0.650423288 -0.419521183 -0.213635683
v -0.648778558 -0.424130023 -0.211145401
v -0.65008378 -0.418989211 -0.201963946
v -0.649492085 -0.419777006 -0.194522113
v -0.655491531 -0.399983853 -0.181176424
v -0.651967943 -0.421884924 -0.179289773
v -0.647854269 -0.433697939 -0.174977884
v -0.641301334 -0.453139305 -0.172768071
v -0.631143391 -0.471726686 -0.170753002
v -0.624213576 -0.480683565 -0.169877499
v -0.613373101 -0.489603102 -0.169478282
v -0.604345381 -0.492809951 -0.167480811
v -0.601024508 -0.490990341 -0.167480811
v -0.591462195 -0.495729536 -0.165898323
v -0.583249986 -0.508216679 -0.165934578
v -0.67256248 -0.214761332 -0.0824595541
v -0.670373201 -0.209438562 -0.074217774
v -0.667655647 -0.206182271 -0.0701720491
v -0.664552271 -0.203643635 -0.0627091751
v -0.663854778 -0.193961248 -0.0533394851
v -0.663160264 -0.184769005 -0.0477299914
v -0.661507905 -0.178025454 -0.0391985513
v -0.660771787 -0.16905269 -0.033682242
v -0.657027304 -0.168542624 -0.0268324949
v -0.654363215 -0.164869666 -0.0191587918
v -0.652998686 -0.157842293 -0.014194916
v -0.650984645 -0.152328253 -0.0060729743
v -0.649149716 -0.146737546 -0.00150494173
v -0.645588577 -0.145762011 0.00542558031
v -0.642167211 -0.144790962 0.0088009024
v -0.639482141 -0.130930543 0.0185632929
v -0.636355817 -0.139496371 0.019945642
v -0.632282674 -0.129687548 0.0286555905
v -0.630421937 -0.124318853 0.0331158862
v -0.625893831 -0.115937449 0.0414306521
v -0.623567283 -0.111951396 0.0455291234
v -0.621321619 -0.107385337 0.053280957
v -0.618231118 -0.105576947 0.0568339936
v -0.618300617 -0.0945928246 0.0661166534
v -0.626271069 -0.062053591 0.0770624503
v -0.628302634 -0.0458195284 0.0874919295
v -0.627560019 -0.0471748039 0.0940743536
v -0.625519395 -0.0426462404 0.0982117131
v -0.625595272 -0.0417398438 0.105316877
v -0.625022292 -0.0426275879 0.111996353
v -0.621820629 -0.0409837887 0.118883714
v -0.621079683 -0.0423360802 0.125451639
v -0.620338738 -0.0436883681 0.132019565
v -0.622123122 -0.0380865633 0.140148699
v -0.622735977 -0.0357128084 0.147532076
v -0.620452821 -0.0319285393 0.151436001
v -0.619714737 -0.0332755893 0.15797846
v -0.618976653 -0.0346226357 0.164520934
v -0.618382633 -0.0355743878 0.171148673
v -0.617755473 -0.036617361 0.177755371
v -0.619115412 -0.0322105587 0.18551524
v -0.622360587 -0.0226366818 0.194336921
v -0.624490917 -0.0161233209 0.202479511
v -0.625609636 -0.0123858927 0.210019678
v -0.625282466 -0.0126127051 0.21673134
v -0.624752223 -0.0133964727 0.223326132
v -0.624020934 -0.0147311576 0.229808554
v -0.61721766 -0.0423609577 0.23140046
v -0.616481125 -0.0437051728 0.237929165
v -0.615908861 -0.0445984453 0.2445454
v -0.615172446 -0.0459424853 0.251073241
v -0.614402473 -0.0570811927 0.256044924
v -0.616611481 -0.0600431897 0.262588084
v -0.620394051 -0.0492631681 0.268003285
v -0.618451357 -0.0636787787 0.272402823
v -0.620661259 -0.0669882521 0.275486439
v -0.619922876 -0.0683358312 0.282031506
v -0.62050271 -0.0758295432 0.287760437
v -0.622715175 -0.0787962154 0.294313937
v -0.624620199 -0.0727766007 0.302165717
v -0.623882413 -0.074123092 0.308705509
v -0.625255227 -0.0695903227 0.31625849
v -0.624415636 -0.0614424013 0.324130923
v -0.619881332 -0.073684372 0.3254264
v -0.614216864 -0.0789085031 0.331041336
v -0.61089921 -0.0779668987 0.334314317
v -0.60808593 -0.0756369382 0.337817609
v -0.604327261 -0.0662240237 0.34222132
v -0.59694171 -0.0667604432 0.344979376
v -0.586999714 -0.0745093822 0.343174666
v -0.58323431 -0.0655077919 0.344123542
v -0.580835104 -0.0621001013 0.347800255
v -0.576588273 -0.0544760898 0.348520398
v -0.567929029 -0.0586191937 0.347312093
v -0.562547982 -0.0543243513 0.344102889
v -0.553358078 -0.0597462393 0.342672795
v -0.556170821 -0.0433015972 0.34174484
v -0.570264816 0.0117347464 0.347039431
v -0.592843473 0.0885155946 0.359375
v -0.586560905 0.0814332366 0.361194044
v -0.585635304 0.0970743597 0.36653766
v -0.574829102 0.0872926041 0.367663264
v -0.574553728 0.104188032 0.369939715
v -0.571873248 0.106379397 0.373295635
v -0.573193431 0.127116576 0.376195997
v -0.56692946 0.1286183 0.375935107
v -0.563614964 0.13750726 0.376890987
v -0.555790246 0.135123312 0.375989377
v -0.551021278 0.140353501 0.376343101
v -0.55476439 0.166284546 0.376907796
v -0.550118685 0.171670273 0.377293915
v -0.542011082 0.168599918 0.376272559
v -0.54528451 0.184679061 0.375494629
v -0.539708138 0.187734485 0.375494629
v -0.542252362 0.21011965 0.375556588
v -0.528457403 0.193412468 0.372218549
v -0.532514334 0.219218373 0.372885913
v -0.518891931 0.203104809 0.369623601
v -0.536063671 0.251615405 0.374475658
v -0.531683922 0.257244229 0.374925017
v -0.528705835 0.265950024 0.372754514
v -0.521308184 0.264487594 0.371982425
v -0.526282251 0.283747822 0.371916801
v -0.518043637 0.280311853 0.370797604
v -0.518926084 0.297755659 0.370185077
v -0.517559111 0.309916407 0.368672401
v -0.512793779 0.306723207 0.367845923
v -0.509677291 0.314827353 0.365627468
v -0.509362698 0.329223931 0.364545286
v -0.502720416 0.329276711 0.360905498
v -0.500011325 0.330761105 0.360905498
v -0.502390265 0.350872755 0.357790798
v -0.49943471 0.351633042 0.354554445
v -0.502811074 0.366345376 0.350794762
v -0.511816382 0.393621057 0.352514267
v -0.507455468 0.398547262 0.34981969
v -0.501494408 0.400068343 0.349557102
v -0.512124479 0.430546612 0.351972044
v -0.518372893 0.458467424 0.353690445
v -0.525257468 0.487650812 0.35870266
v -0.522690058 0.496376485 0.365796119
v -0.523096442 0.504356742 0.370012045
v -0.520564377 0.506088972 0.376022696
v -0.520241141 0.505499184 0.378887415
v -0.520538449 0.513292968 0.385998875
v -0.518735051 0.516453683 0.389281631
v -0.522622645 0.531850934 0.397720546
v -0.521981776 0.530681372 0.403401107
v -0.517094314 0.520447969 0.407487243
v -0.519266188 0.532138705 0.415178776
v -0.518971443 0.531705797 0.420981169
v -0.517898083 0.536350727 0.424473166
v -0.518731415 0.538311541 0.430668741
v -0.518303275 0.537592947 0.436404228
v -0.521592021 0.54476738 0.44344008
v -0.518904388 0.546038628 0.44925347
v -0.518873751 0.546160281 0.455101848
v -0.51829356 0.545117855 0.460759938
v -0.518275559 0.545266032 0.466604471
v -0.519726515 0.548525214 0.472925961
v -0.518958926 0.553739667 0.476418555
v -0.518513083 0.552980065 0.482098252
v -0.517920673 0.551910698 0.487729877
v -0.517662942 0.551548481 0.493465841
v -0.518247187 0.552964568 0.499458373
v -0.523237526 0.563687205 0.50678122
v -0.523372054 0.564152241 0.512599468
v -0.523015261 0.5635795 0.518265903
v -0.522472441 0.562613845 0.523875773
v -0.52184248 0.561464131 0.529459894
v -0.521321058 0.560543537 0.535074711
v -0.520376146 0.565406263 0.541270792
v -0.520481288 0.56580466 0.547046721
v -0.519963622 0.5648911 0.552648365
v -0.519335151 0.563744009 0.558219612
v -0.520225525 0.565795779 0.564188123
v -0.521965384 0.569636106 0.570362568
v -0.522761106 0.571487546 0.57627809
v -0.522870958 0.571894586 0.582010925
v -0.522819459 0.571961582 0.587698102
v -0.522928417 0.578976512 0.594018579
v -0.522826672 0.57893461 0.599673033
v -0.522202909 0.577796221 0.605202079
v -0.521579146 0.576657832 0.610731125
v -0.520955384 0.575519443 0.616260171
v -0.520331681 0.574381053 0.621789217
v -0.51913327 0.578620493 0.627729833
v -0.518921018 0.578259885 0.630511642
v -0.518876851 0.578335404 0.636153281
v -0.520842731 0.582621038 0.642201245
v -0.520445168 0.581955791 0.647754192
v -0.519982219 0.581153512 0.653292537
v -0.517880917 0.583468556 0.65899092
v -0.517297268 0.582413137 0.664500475
v -0.516907811 0.581763506 0.670045316
v -0.517714679 0.583613038 0.675803065
v -0.516952395 0.588620305 0.678909242
v -0.516775191 0.588411331 0.684473336
v -0.516872227 0.588773966 0.690080166
v -0.516382754 0.58791405 0.695584476
v -0.514534473 0.590715587 0.701265872
v -0.513766587 0.589276016 0.706719935
v -0.513148606 0.588148117 0.712198079
v -0.51255399 0.593461514 0.715264618
v -0.51255399 0.593615174 0.720824122
v -0.512545705 0.593751311 0.726377547
v -0.511179984 0.597517371 0.732077837
v -0.510564268 0.596393645 0.737535596
v -0.508309305 0.598307312 0.743099332
v -0.507821023 0.59744662 0.748569787
v -0.506154537 0.600491822 0.751432002
v -0.505814135 0.599934816 0.756914377
v -0.503463686 0.601633608 0.762445569
v -0.50284934 0.600512326 0.767891347
v -0.501119256 0.603406787 0.770726264
v -0.498471946 0.604483485 0.776211679
v -0.496103078 0.606124401 0.781721592
v -0.493178427 0.606627345 0.787172258
v -0.493052959 0.606436551 0.789907753
v -0.490251124 0.607186854 0.79536736
v -0.48739782 0.607830465 0.800820351
v -0.485263437 0.609865427 0.803589642
v -0.48220402 0.610087633 0.809021533
v -0.479451805 0.610870481 0.811737537
v -0.476392388 0.611092687 0.817169428
v -0.474073201 0.612743318 0.819916546
v -0.470790207 0.612516463 0.825331509
v -0.468037605 0.613297701 0.828047097
v -0.462532431 0.614860177 0.833478153
v -0.459779859 0.615641415 0.836193681
v -0.454274654 0.617203891 0.841624796
v -0.453596145 0.61591047 0.844320297
v -0.448413432 0.618066907 0.847037435
v -0.442792714 0.619406462 0.852464437
v -0.439092189 0.618339777 0.855137527
v -0.436336905 0.61912179 0.857855737
v -0.431132972 0.621245444 0.860573947
v -0.428321004 0.621917844 0.863289893
v -0.421978951 0.621880591 0.86869663
v -0.4164626 0.623412371 0.871405959
v -0.414011955 0.624755144 0.871405959
v -0.406722605 0.62293911 0.876793385
v -0.404762387 0.625221729 0.876808226
v -0.399549663 0.627348959 0.879531026
v -0.393071622 0.627108932 0.884953201
v -0.390617281 0.628453732 0.884953201
v -0.384315759 0.628548622 0.88765341
v -0.376781076 0.626359999 0.890332341
v -0.374941975 0.628863633 0.890345037
v -0.369093329 0.629841268 0.893063009
v -0.366675615 0.631274819 0.895799637
v -0.361405581 0.633322537 0.895793736
v -0.355352938 0.633942783 0.898512125
v -0.349871218 0.635618746 0.901241004
v -0.344559133 0.637607038 0.903972685
v -0.340549797 0.636146128 0.903955281
v -0.333105892 0.634293079 0.906669915
v -0.328041196 0.630952954 0.909391761
v -0.321746707 0.631214738 0.914875567
v -0.318964571 0.63200438 0.917620301
v -0.312951595 0.6327824 0.923110187
v -0.311211675 0.635444462 0.923109412
v -0.304250807 0.634542823 0.928604245
v -0.30104062 0.634578288 0.931353569
v -0.295780838 0.63672477 0.934100926
v -0.292631805 0.63687402 0.936851859
v -0.287370831 0.639020979 0.939599872
v -0.282765031 0.636626303 0.942371786
v -0.277303278 0.638436258 0.945125759
v -0.270348608 0.637657583 0.947904944
v -0.267556697 0.638449967 0.950659335
v -0.262283593 0.640601873 0.953413665
v -0.256988227 0.642715573 0.956168473
v -0.253807962 0.642842054 0.958931804
v -0.247768953 0.6436885 0.961705685
v -0.241162822 0.643580437 0.964496851
v -0.239317328 0.646027863 0.964480102
v -0.232983246 0.646398008 0.967266917
v -0.230162919 0.647152305 0.970026851
v -0.223524109 0.64702791 0.97282815
v -0.215738267 0.645000577 0.975670934
v -0.213246867 0.646365702 0.975670934
v -0.206179753 0.64557606 0.978496909
v -0.200879365 0.647739112 0.981265485
v -0.195362806 0.649545074 0.984042108
v -0.190749258 0.64741832 0.984120607
v -0.183621004 0.646594882 0.986963212
v -0.177539572 0.647566259 0.987004757
v -0.17310068 0.645714223 0.989846826
v -0.167308435 0.647183418 0.989878058
v -0.162110478 0.649625123 0.989885509
v -0.153207839 0.646025002 0.992814481
v -0.160100028 0.646175206 0.998277247
v -0.156976432 0.6464867 1.00107431
v -0.151882425 0.649039984 1.00384665
v -0.152681604 0.650259852 1.00657511
v -0.151031718 0.652940035 1.00929725
v -0.144960016 0.653909981 1.01211584
v -0.140871689 0.6580531 1.01483035
v -0.135477766 0.66018033 1.01485109
v -0.128796667 0.660274565 1.01494026
v -0.125664294 0.66073519 1.01220679
v -0.123468183 0.662444353 1.01772237
v -0.119726628 0.656387806 1.02346647
v -0.114241719 0.653002441 1.02641118
v -0.112830192 0.661349237 1.02896369
v -0.109947577 0.662057042 1.03175235
v -0.108129404 0.664593279 1.02894449
v -0.102379076 0.666200161 1.02898872
v -0.0864303559 0.651917577 1.0324297
v -0.0784338042 0.64995271 1.03818369
v -0.0764628723 0.652105987 1.0409317
v -0.0699969009 0.652611852 1.04381001
v -0.0720316544 0.661083996 1.04072452
v -0.0639365166 0.659093142 1.04370773
v -0.0598771088 0.658329248 1.038239
v -0.0587115586 0.661788762 1.03815186
v -0.0422442332 0.647158444 1.04168117
v -0.042879913 0.653260112 1.04426992
v -0.043357756 0.66430968 1.04668725
v -0.0453960039 0.677841365 1.04342985
v -0.0297913756 0.659608543 1.0442965
v -0.0223175995 0.658808351 1.04445493
v -0.0211474318 0.662244201 1.04436457
v 0.325675815 0.473262757 -0.0355901048
v 0.32007128 0.469303489 -0.0322715342
v 0.291218132 0.49696821 -0.0223557036
v 0.283044547 0.496790648 -0.0213747155
v 0.275777221 0.495401323 -0.0207833741
v 0.513535142 0.165434211 -0.133493975
v 0.508845985 0.178289339 -0.133807391
v 0.503671825 0.19817099 -0.136250183
v 0.49663204 0.207917258 -0.136921838
v 0.495028019 0.222819209 -0.14088437
v 0.491230726 0.234282717 -0.141515598
v 0.481249273 0.254231662 -0.143110693
v 0.478499532 0.264201105 -0.144172117
v 0.478332013 0.27691412 -0.148675978
v 0.470524579 0.293566972 -0.147416234
v 0.465188026 0.307064801 -0.150963038
v 0.464170337 0.314577907 -0.152752057
v 0.458594978 0.33423689 -0.154683545
v 0.448135614 0.348297089 -0.153549165
v 0.452840149 0.354215711 -0.160155892
v 0.455586165 0.356653154 -0.163640589
v 0.390186846 0.454178959 -0.130513698
v 0.390567958 0.453483403 -0.127135396
v 0.391040146 0.452473074 -0.120246112
v 0.388795257 0.455030531 -0.112124093
v 0.386717409 0.457369596 -0.104096204
v 0.385046721 0.459174931 -0.0962684527
v 0.385202706 0.452931821 -0.090619415
v 0.378379881 0.46152544 -0.0805255398
v 0.37611258 0.458485216 -0.0738096386
v 0.373845279 0.455445021 -0.0670937374
v 0.371199161 0.453096211 -0.0637357831
v 0.363934129 0.456687182 -0.0548512265
v 0.329566032 0.496523559 -0.0377642885
v 0.321314365 0.496150047 -0.0333048701
v 0.32310003 0.488160074 -0.035365548
v 0.320494592 0.485847354 -0.0320592225
v -0.61609 0.191288859 0.256988257
v -0.548262179 -0.000626366003 0.218419954
v -0.546608031 -0.00543595059 0.210623205
v -0.547342181 -0.00409872644 0.204081625
v -0.542974293 -0.0158988908 0.194779307
v -0.543479621 -0.0151530579 0.188086167
v -0.543846071 -0.0147651508 0.181313992
v -0.543341041 -0.0166227594 0.17405276
v -0.544082642 -0.0152692758 0.167479053
v -0.544522643 -0.0146930264 0.160734296
v -0.545264423 -0.0133392392 0.154159099
v -0.541160524 -0.0244766157 0.144785315
v -0.541904986 -0.0231179316 0.138186336
v -0.551301956 -0.00841934979 0.138437763
v -0.547510743 -0.0187863316 0.129185736
v -0.546583056 -0.0217514671 0.121596143
v -0.546715379 -0.0219763014 0.114627548
v -0.545055628 -0.0268377587 0.106563412
v -0.540430665 -0.0393736996 0.0966562256
v -0.549527407 -0.0257463902 0.0933341607
v -0.545820892 -0.0359407403 0.0839367509
v -0.543571174 -0.0423574299 0.0754102692
v -0.542403519 -0.0459675565 0.0675396547
v -0.548067927 -0.0412599705 0.0621071942
v -0.548443079 -0.0405752175 0.0587814227
v -0.546533048 -0.0461343639 0.0503996983
v -0.551523566 -0.0431767553 0.0445476547
v -0.544531226 -0.0620341823 0.032758791
v -0.543703794 -0.0647911504 0.0250042621
v -0.547480345 -0.0650653914 0.0182990804
v -0.548236728 -0.0636848435 0.0115938988
v -0.550785482 -0.0668821707 0.007659839
v -0.551542401 -0.0655007362 0.000950386981
v -0.542889416 -0.0888586715 -0.0123014618
v -0.39705798 -0.450918555 -0.10902261
v -0.403721511 -0.422944367 -0.102101617
v -0.392814487 -0.429949671 -0.101012185
v -0.392062545 -0.410970718 -0.0969644859
v -0.375446588 -0.432542711 -0.0997132659
v -0.374198496 -0.414945871 -0.0960403085
v -0.363779634 -0.430824518 -0.096787326
v -0.362958401 -0.412243724 -0.0928650722
v -0.359069586 -0.401543528 -0.0910112485
v -0.343760848 -0.419228047 -0.0927126482
v -0.322969466 -0.45034638 -0.0979005918
v -0.3238644 -0.437865198 -0.0951161608
v -0.328505278 -0.406026036 -0.0877358392
v -0.305447072 -0.442294002 -0.0942606181
v -0.308770716 -0.413912892 -0.0878027678
v -0.295897573 -0.435002655 -0.0898513794
v -0.292477012 -0.423187464 -0.0877341107
v -0.28308776 -0.425610691 -0.0853806138
v -0.265285343 -0.448418349 -0.0922886133
v -0.268522978 -0.42070508 -0.086032927
v -0.25419277 -0.434744358 -0.0866926089
v -0.254903197 -0.413286388 -0.0820759907
v -0.239180148 -0.430431664 -0.0835334137
v -0.24005954 -0.418535173 -0.0809280425
v -0.237434939 -0.405124307 -0.0784080252
v -0.233947411 -0.393814951 -0.0764298439
v -0.234301522 -0.373706788 -0.0721566677
v -0.162164658 -0.520191491 -0.107213341
v -0.165741235 -0.49201256 -0.0968273059
v -0.169063494 -0.474617541 -0.0928149521
v -0.159154594 -0.477441013 -0.0904814303
v -0.157525018 -0.461694986 -0.0873923376
v -0.146663859 -0.466631323 -0.0856048912
v -0.146735102 -0.447219878 -0.0815758631
v -0.139289126 -0.444516987 -0.0778260902
v -0.135016233 -0.444470167 -0.0782994479
v -0.130127326 -0.436272115 -0.0771607682
v -0.136175364 -0.403917432 -0.0658010989
v -0.537564814 0.485663801 0.16525346
v -0.536907077 0.484463334 0.171083957
v -0.537915587 0.494088739 0.179277703
v -0.537535131 0.493493885 0.185239956
v -0.536931634 0.492411345 0.191078961
v -0.534595251 0.494574487 0.194311693
v -0.534162164 0.493863076 0.200238168
v -0.533555865 0.49277395 0.206071004
v -0.531092525 0.494767427 0.212300315
v -0.530437827 0.493572563 0.218103662
v -0.527338624 0.49417749 0.223993972
v -0.526050508 0.4987005 0.230802208
v -0.524874032 0.496265084 0.233269706
v -0.531950235 0.497662336 0.240328863
v -0.534556866 0.496234119 0.240328863
v -0.538233817 0.490012795 0.239551604
v -0.537580192 0.488819897 0.245345294
v -0.539893568 0.49412477 0.252613217
v -0.537099421 0.495370209 0.258621126
v -0.533854902 0.481377572 0.261865616
v -0.530126929 0.466149181 0.261840612
v -0.535376191 0.463272989 0.261840612
v -0.540625393 0.460396796 0.261840612
v -0.542857885 0.450801939 0.260355741
v -0.548118949 0.447919279 0.260355741
v -0.55260098 0.443284601 0.259969264
v -0.557865143 0.440400243 0.259969264
v -0.560806692 0.432240635 0.258807898
v -0.562501371 0.421182543 0.257011205
v -0.569191694 0.421657979 0.260815948
v -0.571852922 0.412725866 0.259496421
v -0.56820339 0.389112592 0.254974484
v -0.573140919 0.385285705 0.254776478
v -0.573852777 0.371560961 0.252422243
v -0.579200566 0.368630767 0.252422243
v -0.581395805 0.358248204 0.250801563
v -0.585566759 0.360494584 0.254713386
v -0.587351382 0.349061549 0.252876103
v -0.585662723 0.329226851 0.249227971
v -0.595057368 0.336083829 0.254463702
v -0.596119404 0.322695404 0.25222373
v -0.590471566 0.292888224 0.246468917
v -0.594271302 0.286099434 0.248811826
v -0.599379301 0.282490939 0.251836389
v -0.602103949 0.280998051 0.251836389
v -0.606028795 0.274239421 0.251037925
v -0.609242618 0.265899152 0.253071278
v -0.602897286 0.23360537 0.250103921
v -0.604114413 0.228235245 0.249296695
v -0.609288514 0.224580035 0.252360404
v -0.6117028 0.222437024 0.255424112
v -0.615839899 0.216147915 0.257946104
v -0.616762698 0.201624438 0.258790433
g path_000000
l 3 2 1 1366 1365 1364
g path_000001
l 4 5 6
g path_000002
l 7 8
g path_000003
l 9 10 11 12 13 14 15 16
g path_000004
l 17 18 19 20
g path_000005
l 22 23 24
g path_000006
l 25 26 27 28 29 30 31 32 33 34 35
g path_000007
l 36 37 38 39 40 41 42 43 44 45 46 47 48 49 50 51 52 53 54 55 56
g path_000008
l 57 58 59 60 61 62 63
g path_000009
l 64 65 66 67 68 69 70 71 72 73 74 75 76 77 78 79 80 81 82 83 84 85 86 87 88 89 90 91 92 93 94 95 96 97 98 99 100 101 102 103 104 105 106 107 108 109 110 111 112 113 114 115 116 117 118 119 120 121 122 123 124 125 126 127 128 129 130 131 132 133 134 135 136 137 138 139 140 141 142 143 144 145 146 147 148 149 150 151 152 153 154 155 156 157 158 159 160 161 162 163 164 165 166 167 168 169 170 171 172 173 174 175 176 177 178 179 180 181 182 183 184 185 186 187 188 189 190 191 192 193 194 195 196 197 198 199 200 201 202 203 204 205 206 207 208 209 210 211 212 213 214 215 216 217 218 219 220 221 222 223 224 225 226 227 228 229 230 231 232 233 234 235 236 237 238 239 240 241 242 243 244 245 246 247 248 249 250 251 252
g path_000010
l 253 254 255 256
g path_000011
l 257 258 259 260 261
g path_000012
l 262 263 264 265 266 267 268 269 270 271 272 273 274 275 276 277 278 279 280 281 282 283 284 285 286 287
g path_000013
l 288 289 290 291 292 293 294
g path_000014
l 297 298 299 300 301
g path_000015
l 303 304 305 306 307
g path_000016
l 310 311 312 313
g path_000017
l 315 316 317 318 319 320 321 322 323 324 325 326 327 328 329 330 331 332 333 334 335 336 337 338 339 340 341 342 343
g path_000018
l 344 345 346 347 348 349 350 351 352 353
g path_000019
l 354 355 356 357 358 359 360 361 362 363 364 365 366 367 368 369 370 371 372 373
g path_000020
l 374 375 376 377 378 379 380 381 382 383 384 385 386 387 388 389 390 391 392 393
g path_000021
l 394 395 396 397 398 399 400 401 402 403 404 405 406 407 408 409 410 411 412 413 414 415 416 417 418 419 420 421 422 423 424 425 426 427 428 429 430 431 432 433 434 435 436 437 438 439 440 441 442 443 444 445 446 447 448 449 450 451 452 453 454 455
g path_000022
l 456 457 458 459 460 461 462 463 464 465 466 467 468 469 470 471
g path_000023
l 472 473 474 475 476 477 478 479
g path_000024
l 480 481 482 483 484 485 486 487 488 489 490
g path_000025
l 491 492 493 494 495 496 497
g path_000026
l 498 499 500 501 502 503 504 505 506 507
g path_000027
l 508 509 510 511 512 513 514 515 516 517 518
g path_000028
l 519 520 521 522 523 524 525 526 527 528 529 530 531 532 533 534 535 536 537 538 539 540 541 542 543 544 545 546 547 548 549 550 551 552 553 554 555 556 557
g path_000029
l 558 559 560
g path_000030
l 561 562 563 564 565 566 567 568 569 570 571 572 573
g path_000031
l 574 575 576 577 578 579 580 581 582 583 584 585 586 587 588 589 590 591 592 593 594 595 596 597 598 599 600 601 602 603 604 605 606 607 608 609 610 611 612 613 614 615 616 617 618 619 620 621 622
g path_000032
l 624 625 626 627 628 629 630 631 632 633 634 635 636 637 638 639 640 641 642 643 644 645 646 647 648 649 650 651 652 653 654 655 656 657 658 659 660 661 662 663 664 665 666 667 668 669 670 671 672 673 674 675 676 677 678 679 680 681 682 683 684 685 686 687 688 689 690 691 692 693 694
g path_000033
l 695 696 697 698 699 700 701 702 703 704 705 706 707 708 709 710 711 712 713
g path_000034
l 714 715 716 717 718 719 720 721 722 723 724 725 726 727 728 729 730 731 732
g path_000035
l 733 734 735 736 737 738 739 740 741 742 743 744 745 746 747 748 749 750 751
g path_000036
l 752 753 754
g path_000037
l 755 756 757 758 759 760
g path_000038
l 761 762 763
g path_000039
l 764 765
g path_000040
l 766 767 768 769 770
g path_000041
l 772 773 774 775 776 777 778 779 780 781 782 783 784 785 786 787
g path_000042
l 788 789 790 791 792 793 794 795 796 797 798 799 800 801 802 803 804 805 806 807 808 809 810 811 812 813 814 815 816 817 818
g path_000043
l 820 821 822 823 824
g path_000044
l 825 826 827
g path_000045
l 828 829 830 831
g path_000046
l 832 833 834 835
g path_000047
l 836 837 838 839 840 841 842 843
g path_000048
l 844 845 846 847
g path_000049
l 848 849 850 851 852 853 854 855
g path_000050
l 856 857 858
g path_000051
l 859 860 861 862 863 864 865
g path_000052
l 866 867 868
g path_000053
l 870 871 872 873 874 875 876 877 878 879 880 881 882 883 884 885 886 887 888 889 890 891 892 893 894 895 896 897 898 899 900 901 902 903 904 905 906 907 908 909 910 911 912 913 914 915 916 917 918 919 920 921 922 923 924 925 926 927 928 929 930 931 932 933 934 935 936 937
g path_000054
l 938 939 940 941 942 943 944 945 946 947 948 949 950 951 952 953 954 955 956 957 958 959
g path_000055
l 960 961 962 963 964 965 966 967 968 969 970 971 972 973 974 975 976 977 978 979 980 981 982 983 984 985 986 987 988 989 990 991 992 993 994 995 996 997 998 999 1000 1001 1002 1003 1004 1005 1006 1007 1008 1009 1010 1011 1012
g path_000056
l 1013 1014 1015 1016 1017 1018 1019 1020 1021 1022 1023 1024 1025 1026 1027 1028 1029 1030 1031 1032 1033 1034 1035 1036 1037 1038 1039
g path_000057
l 1040 1041 1042 1043 1044 1045 1046 1047 1048 1049 1050 1051
g path_000058
l 1052 1053 1054 1055 1056 1057 1058 1059 1060 1061 1062
g path_000059
l 1063 1064 1065 1066 1067 1068 1069 1070 1071 1072 1073 1074 1075 1076 1077 1078 1079 1080 1081 1082 1083 1084 1085 1086
g path_000060
l 1087 1088 1089 1090 1091 1092 1093 1094 1095 1096 1097 1098 1099 1100 1101 1102 1103 1104 1105 1106 1107 1108 1109
g path_000061
l 1110 1111 1112 1113 1114 1115 1116 1117 1118 1119 1120 1121 1122 1123 1124 1125 1126 1127 1128 1129 1130 1131 1132 1133 1134 1135 1136 1137 1138 1139
g path_000062
l 1141 1142 1143 1144 1145 1146
g path_000063
l 1147 1148 1149 1150 1151
g path_000064
l 1152 1153 1154 1155 1156
g path_000065
l 1161 1162 1163 1164
g path_000066
l 1165 1166 1167 1168 1169 1170 1171 1172 1173
g path_000067
l 1174 1175 1176
g path_000068
l 1177 1178 1179
g path_000069
l 1182 1183 1184 1185 1186 1187 1188
g path_000070
l 1189 1190 1191 1192 1193 1194 1195 1196 1197 1198 1199 1200 1201 1202 1203 1204 1205 1206 1207 1208 1209 1210 1211 1212 1213 1214 1215 1216 1217 1218 1219 1220 1221 1222 1223 1224 1225 1226 1227 1228 1229 1230 1231 1232 1233 1234 1235 1236 1237 1238 1239 1240 1241 1242 1243 1244 1245 1246 1247 1248 1249 1250 1251 1252 1253 1254 1255 1256 1257 1258 1259 1260 1261 1262 1263 1264 1265 1266 1267 1268 1269 1270 1271 1272 1273 1274 1275 1276 1277 1278 1279 1280 1281 1282 1283 1284 1285 1286 1287 1288 1289 1290 1291 1292 1293 1294 1295 1296 1297 1298 1299 1300 1301 1302 1303 1304 1305 1306 1307 1308 1309 1310 1311 1312 1313 1314 1315 1316 1317 1318 1319 1320 1321 1322 1323 1324 1325 1326 1327 1328 1329 1330 1331 1332 1333 1334 1335 1336 1337 1338 1339 1340 1341 1342 1343 1344 1345 1346 1347 1348 1349 1350 1351
g path_000071
l 1352 1353 1354 1355 1356 1357 1358 1359
g path_000072
l 1360 1361 1362 1363
g path_000073
l 1368 1367 1403 1402 1401 1400
g path_000074
l 1369 1370 1371
g path_000075
l 1372 1373 1374 1375 1376 1377
g path_000076
l 1378 1379 1380 1381 1382 1383 1384 1385 1386 1387
g path_000077
l 1388 1389 1390 1391 1392 1393 1394 1395 1396 1397 1398 1399
g path_000078
l 1404 1528 1527 1526 1525 1524 1523
g path_000079
l 1405 1406 1407 1408 1409 1410 1411 1412 1413 1414 1415 1416 1417 1418 1419 1420 1421 1422 1423 1424 1425 1426 1427 1428 1429 1430
g path_000080
l 1431 1432 1433 1434 1435 1436
g path_000081
l 1439 1440 1441
g path_000082
l 1442 1443 1444 1445 1446
g path_000083
l 1448 1449
g path_000084
l 1453 1454 1455
g path_000085
l 1457 1458 1459
g path_000086
l 1460 1461 1462 1463 1464
g path_000087
l 1466 1467 1468 1469 1470 1471 1472 1473 1474
g path_000088
l 1476 1477 1478 1479 1480 1481 1482 1483 1484 1485 1486 1487 1488 1489 1490 1491 1492 1493 1494 1495 1496 1497 1498 1499 1500 1501 1502 1503 1504 1505 1506
g path_000089
l 1507 1508 1509 1510 1511 1512 1513
g path_000090
l 1514 1515 1516
g path_000091
l 1517 1518 1519 1520 1521 1522
